<?xml version="1.0" encoding="utf-8"?>
<svg xmlns="http://www.w3.org/2000/svg" xmlns:xlink="http://www.w3.org/1999/xlink" width="600" height="400" viewBox="0 0 2400 1600">
<defs>
  <clipPath id="clip390">
    <rect x="0" y="0" width="2400" height="1600"/>
  </clipPath>
</defs>
<path clip-path="url(#clip390)" d="M0 1600 L2400 1600 L2400 0 L0 0  Z" fill="#ffffff" fill-rule="evenodd" fill-opacity="1"/>
<defs>
  <clipPath id="clip391">
    <rect x="480" y="0" width="1681" height="1600"/>
  </clipPath>
</defs>
<path clip-path="url(#clip390)" d="M156.598 1423.18 L2352.76 1423.18 L2352.76 47.2441 L156.598 47.2441  Z" fill="#ffffff" fill-rule="evenodd" fill-opacity="1"/>
<defs>
  <clipPath id="clip392">
    <rect x="156" y="47" width="2197" height="1377"/>
  </clipPath>
</defs>
<polyline clip-path="url(#clip392)" style="stroke:#000000; stroke-linecap:round; stroke-linejoin:round; stroke-width:2; stroke-opacity:0.1; fill:none" points="156.598,1423.18 156.598,47.2441 "/>
<polyline clip-path="url(#clip392)" style="stroke:#000000; stroke-linecap:round; stroke-linejoin:round; stroke-width:2; stroke-opacity:0.1; fill:none" points="595.83,1423.18 595.83,47.2441 "/>
<polyline clip-path="url(#clip392)" style="stroke:#000000; stroke-linecap:round; stroke-linejoin:round; stroke-width:2; stroke-opacity:0.1; fill:none" points="1035.06,1423.18 1035.06,47.2441 "/>
<polyline clip-path="url(#clip392)" style="stroke:#000000; stroke-linecap:round; stroke-linejoin:round; stroke-width:2; stroke-opacity:0.1; fill:none" points="1474.29,1423.18 1474.29,47.2441 "/>
<polyline clip-path="url(#clip392)" style="stroke:#000000; stroke-linecap:round; stroke-linejoin:round; stroke-width:2; stroke-opacity:0.1; fill:none" points="1913.52,1423.18 1913.52,47.2441 "/>
<polyline clip-path="url(#clip392)" style="stroke:#000000; stroke-linecap:round; stroke-linejoin:round; stroke-width:2; stroke-opacity:0.1; fill:none" points="2352.76,1423.18 2352.76,47.2441 "/>
<polyline clip-path="url(#clip392)" style="stroke:#000000; stroke-linecap:round; stroke-linejoin:round; stroke-width:2; stroke-opacity:0.1; fill:none" points="156.598,1351.66 2352.76,1351.66 "/>
<polyline clip-path="url(#clip392)" style="stroke:#000000; stroke-linecap:round; stroke-linejoin:round; stroke-width:2; stroke-opacity:0.1; fill:none" points="156.598,1012.19 2352.76,1012.19 "/>
<polyline clip-path="url(#clip392)" style="stroke:#000000; stroke-linecap:round; stroke-linejoin:round; stroke-width:2; stroke-opacity:0.1; fill:none" points="156.598,672.712 2352.76,672.712 "/>
<polyline clip-path="url(#clip392)" style="stroke:#000000; stroke-linecap:round; stroke-linejoin:round; stroke-width:2; stroke-opacity:0.1; fill:none" points="156.598,333.237 2352.76,333.237 "/>
<polyline clip-path="url(#clip390)" style="stroke:#000000; stroke-linecap:round; stroke-linejoin:round; stroke-width:4; stroke-opacity:1; fill:none" points="156.598,1423.18 2352.76,1423.18 "/>
<polyline clip-path="url(#clip390)" style="stroke:#000000; stroke-linecap:round; stroke-linejoin:round; stroke-width:4; stroke-opacity:1; fill:none" points="156.598,1423.18 156.598,1404.28 "/>
<polyline clip-path="url(#clip390)" style="stroke:#000000; stroke-linecap:round; stroke-linejoin:round; stroke-width:4; stroke-opacity:1; fill:none" points="595.83,1423.18 595.83,1404.28 "/>
<polyline clip-path="url(#clip390)" style="stroke:#000000; stroke-linecap:round; stroke-linejoin:round; stroke-width:4; stroke-opacity:1; fill:none" points="1035.06,1423.18 1035.06,1404.28 "/>
<polyline clip-path="url(#clip390)" style="stroke:#000000; stroke-linecap:round; stroke-linejoin:round; stroke-width:4; stroke-opacity:1; fill:none" points="1474.29,1423.18 1474.29,1404.28 "/>
<polyline clip-path="url(#clip390)" style="stroke:#000000; stroke-linecap:round; stroke-linejoin:round; stroke-width:4; stroke-opacity:1; fill:none" points="1913.52,1423.18 1913.52,1404.28 "/>
<polyline clip-path="url(#clip390)" style="stroke:#000000; stroke-linecap:round; stroke-linejoin:round; stroke-width:4; stroke-opacity:1; fill:none" points="2352.76,1423.18 2352.76,1404.28 "/>
<path clip-path="url(#clip390)" d="M133.983 1454.1 Q130.372 1454.1 128.543 1457.66 Q126.737 1461.2 126.737 1468.33 Q126.737 1475.44 128.543 1479.01 Q130.372 1482.55 133.983 1482.55 Q137.617 1482.55 139.422 1479.01 Q141.251 1475.44 141.251 1468.33 Q141.251 1461.2 139.422 1457.66 Q137.617 1454.1 133.983 1454.1 M133.983 1450.39 Q139.793 1450.39 142.848 1455 Q145.927 1459.58 145.927 1468.33 Q145.927 1477.06 142.848 1481.67 Q139.793 1486.25 133.983 1486.25 Q128.172 1486.25 125.094 1481.67 Q122.038 1477.06 122.038 1468.33 Q122.038 1459.58 125.094 1455 Q128.172 1450.39 133.983 1450.39 Z" fill="#000000" fill-rule="nonzero" fill-opacity="1" /><path clip-path="url(#clip390)" d="M154.145 1479.7 L159.029 1479.7 L159.029 1485.58 L154.145 1485.58 L154.145 1479.7 Z" fill="#000000" fill-rule="nonzero" fill-opacity="1" /><path clip-path="url(#clip390)" d="M179.214 1454.1 Q175.603 1454.1 173.774 1457.66 Q171.969 1461.2 171.969 1468.33 Q171.969 1475.44 173.774 1479.01 Q175.603 1482.55 179.214 1482.55 Q182.848 1482.55 184.654 1479.01 Q186.482 1475.44 186.482 1468.33 Q186.482 1461.2 184.654 1457.66 Q182.848 1454.1 179.214 1454.1 M179.214 1450.39 Q185.024 1450.39 188.08 1455 Q191.158 1459.58 191.158 1468.33 Q191.158 1477.06 188.08 1481.67 Q185.024 1486.25 179.214 1486.25 Q173.404 1486.25 170.325 1481.67 Q167.269 1477.06 167.269 1468.33 Q167.269 1459.58 170.325 1455 Q173.404 1450.39 179.214 1450.39 Z" fill="#000000" fill-rule="nonzero" fill-opacity="1" /><path clip-path="url(#clip390)" d="M574.013 1454.1 Q570.402 1454.1 568.573 1457.66 Q566.767 1461.2 566.767 1468.33 Q566.767 1475.44 568.573 1479.01 Q570.402 1482.55 574.013 1482.55 Q577.647 1482.55 579.453 1479.01 Q581.281 1475.44 581.281 1468.33 Q581.281 1461.2 579.453 1457.66 Q577.647 1454.1 574.013 1454.1 M574.013 1450.39 Q579.823 1450.39 582.878 1455 Q585.957 1459.58 585.957 1468.33 Q585.957 1477.06 582.878 1481.67 Q579.823 1486.25 574.013 1486.25 Q568.203 1486.25 565.124 1481.67 Q562.068 1477.06 562.068 1468.33 Q562.068 1459.58 565.124 1455 Q568.203 1450.39 574.013 1450.39 Z" fill="#000000" fill-rule="nonzero" fill-opacity="1" /><path clip-path="url(#clip390)" d="M594.175 1479.7 L599.059 1479.7 L599.059 1485.58 L594.175 1485.58 L594.175 1479.7 Z" fill="#000000" fill-rule="nonzero" fill-opacity="1" /><path clip-path="url(#clip390)" d="M613.272 1481.64 L629.591 1481.64 L629.591 1485.58 L607.647 1485.58 L607.647 1481.64 Q610.309 1478.89 614.892 1474.26 Q619.499 1469.61 620.679 1468.27 Q622.925 1465.74 623.804 1464.01 Q624.707 1462.25 624.707 1460.56 Q624.707 1457.8 622.762 1456.07 Q620.841 1454.33 617.739 1454.33 Q615.54 1454.33 613.087 1455.09 Q610.656 1455.86 607.878 1457.41 L607.878 1452.69 Q610.702 1451.55 613.156 1450.97 Q615.61 1450.39 617.647 1450.39 Q623.017 1450.39 626.212 1453.08 Q629.406 1455.77 629.406 1460.26 Q629.406 1462.39 628.596 1464.31 Q627.809 1466.2 625.702 1468.8 Q625.124 1469.47 622.022 1472.69 Q618.92 1475.88 613.272 1481.64 Z" fill="#000000" fill-rule="nonzero" fill-opacity="1" /><path clip-path="url(#clip390)" d="M1012.2 1454.1 Q1008.59 1454.1 1006.76 1457.66 Q1004.96 1461.2 1004.96 1468.33 Q1004.96 1475.44 1006.76 1479.01 Q1008.59 1482.55 1012.2 1482.55 Q1015.84 1482.55 1017.64 1479.01 Q1019.47 1475.44 1019.47 1468.33 Q1019.47 1461.2 1017.64 1457.66 Q1015.84 1454.1 1012.2 1454.1 M1012.2 1450.39 Q1018.01 1450.39 1021.07 1455 Q1024.15 1459.58 1024.15 1468.33 Q1024.15 1477.06 1021.07 1481.67 Q1018.01 1486.25 1012.2 1486.25 Q1006.39 1486.25 1003.31 1481.67 Q1000.26 1477.06 1000.26 1468.33 Q1000.26 1459.58 1003.31 1455 Q1006.39 1450.39 1012.2 1450.39 Z" fill="#000000" fill-rule="nonzero" fill-opacity="1" /><path clip-path="url(#clip390)" d="M1032.36 1479.7 L1037.25 1479.7 L1037.25 1485.58 L1032.36 1485.58 L1032.36 1479.7 Z" fill="#000000" fill-rule="nonzero" fill-opacity="1" /><path clip-path="url(#clip390)" d="M1060.28 1455.09 L1048.48 1473.54 L1060.28 1473.54 L1060.28 1455.09 M1059.05 1451.02 L1064.93 1451.02 L1064.93 1473.54 L1069.86 1473.54 L1069.86 1477.43 L1064.93 1477.43 L1064.93 1485.58 L1060.28 1485.58 L1060.28 1477.43 L1044.68 1477.43 L1044.68 1472.92 L1059.05 1451.02 Z" fill="#000000" fill-rule="nonzero" fill-opacity="1" /><path clip-path="url(#clip390)" d="M1451.6 1454.1 Q1447.99 1454.1 1446.16 1457.66 Q1444.35 1461.2 1444.35 1468.33 Q1444.35 1475.44 1446.16 1479.01 Q1447.99 1482.55 1451.6 1482.55 Q1455.23 1482.55 1457.04 1479.01 Q1458.86 1475.44 1458.86 1468.33 Q1458.86 1461.2 1457.04 1457.66 Q1455.23 1454.1 1451.6 1454.1 M1451.6 1450.39 Q1457.41 1450.39 1460.46 1455 Q1463.54 1459.58 1463.54 1468.33 Q1463.54 1477.06 1460.46 1481.67 Q1457.41 1486.25 1451.6 1486.25 Q1445.79 1486.25 1442.71 1481.67 Q1439.65 1477.06 1439.65 1468.33 Q1439.65 1459.58 1442.71 1455 Q1445.79 1450.39 1451.6 1450.39 Z" fill="#000000" fill-rule="nonzero" fill-opacity="1" /><path clip-path="url(#clip390)" d="M1471.76 1479.7 L1476.64 1479.7 L1476.64 1485.58 L1471.76 1485.58 L1471.76 1479.7 Z" fill="#000000" fill-rule="nonzero" fill-opacity="1" /><path clip-path="url(#clip390)" d="M1497.41 1466.44 Q1494.26 1466.44 1492.41 1468.59 Q1490.58 1470.74 1490.58 1474.49 Q1490.58 1478.22 1492.41 1480.39 Q1494.26 1482.55 1497.41 1482.55 Q1500.55 1482.55 1502.38 1480.39 Q1504.23 1478.22 1504.23 1474.49 Q1504.23 1470.74 1502.38 1468.59 Q1500.55 1466.44 1497.41 1466.44 M1506.69 1451.78 L1506.69 1456.04 Q1504.93 1455.21 1503.12 1454.77 Q1501.34 1454.33 1499.58 1454.33 Q1494.95 1454.33 1492.5 1457.45 Q1490.07 1460.58 1489.72 1466.9 Q1491.09 1464.89 1493.15 1463.82 Q1495.21 1462.73 1497.68 1462.73 Q1502.89 1462.73 1505.9 1465.9 Q1508.93 1469.05 1508.93 1474.49 Q1508.93 1479.82 1505.79 1483.03 Q1502.64 1486.25 1497.41 1486.25 Q1491.41 1486.25 1488.24 1481.67 Q1485.07 1477.06 1485.07 1468.33 Q1485.07 1460.14 1488.96 1455.28 Q1492.85 1450.39 1499.4 1450.39 Q1501.16 1450.39 1502.94 1450.74 Q1504.74 1451.09 1506.69 1451.78 Z" fill="#000000" fill-rule="nonzero" fill-opacity="1" /><path clip-path="url(#clip390)" d="M1890.96 1454.1 Q1887.34 1454.1 1885.52 1457.66 Q1883.71 1461.2 1883.71 1468.33 Q1883.71 1475.44 1885.52 1479.01 Q1887.34 1482.55 1890.96 1482.55 Q1894.59 1482.55 1896.39 1479.01 Q1898.22 1475.44 1898.22 1468.33 Q1898.22 1461.2 1896.39 1457.66 Q1894.59 1454.1 1890.96 1454.1 M1890.96 1450.39 Q1896.77 1450.39 1899.82 1455 Q1902.9 1459.58 1902.9 1468.33 Q1902.9 1477.06 1899.82 1481.67 Q1896.77 1486.25 1890.96 1486.25 Q1885.14 1486.25 1882.07 1481.67 Q1879.01 1477.06 1879.01 1468.33 Q1879.01 1459.58 1882.07 1455 Q1885.14 1450.39 1890.96 1450.39 Z" fill="#000000" fill-rule="nonzero" fill-opacity="1" /><path clip-path="url(#clip390)" d="M1911.12 1479.7 L1916 1479.7 L1916 1485.58 L1911.12 1485.58 L1911.12 1479.7 Z" fill="#000000" fill-rule="nonzero" fill-opacity="1" /><path clip-path="url(#clip390)" d="M1936.19 1469.17 Q1932.85 1469.17 1930.93 1470.95 Q1929.03 1472.73 1929.03 1475.86 Q1929.03 1478.98 1930.93 1480.77 Q1932.85 1482.55 1936.19 1482.55 Q1939.52 1482.55 1941.44 1480.77 Q1943.36 1478.96 1943.36 1475.86 Q1943.36 1472.73 1941.44 1470.95 Q1939.54 1469.17 1936.19 1469.17 M1931.51 1467.18 Q1928.5 1466.44 1926.81 1464.38 Q1925.14 1462.32 1925.14 1459.35 Q1925.14 1455.21 1928.08 1452.8 Q1931.05 1450.39 1936.19 1450.39 Q1941.35 1450.39 1944.29 1452.8 Q1947.23 1455.21 1947.23 1459.35 Q1947.23 1462.32 1945.54 1464.38 Q1943.87 1466.44 1940.89 1467.18 Q1944.26 1467.96 1946.14 1470.26 Q1948.04 1472.55 1948.04 1475.86 Q1948.04 1480.88 1944.96 1483.57 Q1941.9 1486.25 1936.19 1486.25 Q1930.47 1486.25 1927.39 1483.57 Q1924.33 1480.88 1924.33 1475.86 Q1924.33 1472.55 1926.23 1470.26 Q1928.13 1467.96 1931.51 1467.18 M1929.8 1459.79 Q1929.8 1462.48 1931.46 1463.98 Q1933.15 1465.49 1936.19 1465.49 Q1939.2 1465.49 1940.89 1463.98 Q1942.6 1462.48 1942.6 1459.79 Q1942.6 1457.11 1940.89 1455.6 Q1939.2 1454.1 1936.19 1454.1 Q1933.15 1454.1 1931.46 1455.6 Q1929.8 1457.11 1929.8 1459.79 Z" fill="#000000" fill-rule="nonzero" fill-opacity="1" /><path clip-path="url(#clip390)" d="M2319.91 1481.64 L2327.55 1481.64 L2327.55 1455.28 L2319.24 1456.95 L2319.24 1452.69 L2327.5 1451.02 L2332.18 1451.02 L2332.18 1481.64 L2339.82 1481.64 L2339.82 1485.58 L2319.91 1485.58 L2319.91 1481.64 Z" fill="#000000" fill-rule="nonzero" fill-opacity="1" /><path clip-path="url(#clip390)" d="M2349.26 1479.7 L2354.14 1479.7 L2354.14 1485.58 L2349.26 1485.58 L2349.26 1479.7 Z" fill="#000000" fill-rule="nonzero" fill-opacity="1" /><path clip-path="url(#clip390)" d="M2374.33 1454.1 Q2370.72 1454.1 2368.89 1457.66 Q2367.08 1461.2 2367.08 1468.33 Q2367.08 1475.44 2368.89 1479.01 Q2370.72 1482.55 2374.33 1482.55 Q2377.96 1482.55 2379.77 1479.01 Q2381.6 1475.44 2381.6 1468.33 Q2381.6 1461.2 2379.77 1457.66 Q2377.96 1454.1 2374.33 1454.1 M2374.33 1450.39 Q2380.14 1450.39 2383.2 1455 Q2386.27 1459.58 2386.27 1468.33 Q2386.27 1477.06 2383.2 1481.67 Q2380.14 1486.25 2374.33 1486.25 Q2368.52 1486.25 2365.44 1481.67 Q2362.39 1477.06 2362.39 1468.33 Q2362.39 1459.58 2365.44 1455 Q2368.52 1450.39 2374.33 1450.39 Z" fill="#000000" fill-rule="nonzero" fill-opacity="1" /><path clip-path="url(#clip390)" d="M1253.74 1522.27 L1253.74 1532.4 L1265.8 1532.4 L1265.8 1536.95 L1253.74 1536.95 L1253.74 1556.3 Q1253.74 1560.66 1254.92 1561.9 Q1256.13 1563.14 1259.79 1563.14 L1265.8 1563.14 L1265.8 1568.04 L1259.79 1568.04 Q1253.01 1568.04 1250.43 1565.53 Q1247.85 1562.98 1247.85 1556.3 L1247.85 1536.95 L1243.55 1536.95 L1243.55 1532.4 L1247.85 1532.4 L1247.85 1522.27 L1253.74 1522.27 Z" fill="#000000" fill-rule="nonzero" fill-opacity="1" /><polyline clip-path="url(#clip390)" style="stroke:#000000; stroke-linecap:round; stroke-linejoin:round; stroke-width:4; stroke-opacity:1; fill:none" points="156.598,1423.18 156.598,47.2441 "/>
<polyline clip-path="url(#clip390)" style="stroke:#000000; stroke-linecap:round; stroke-linejoin:round; stroke-width:4; stroke-opacity:1; fill:none" points="156.598,1351.66 175.496,1351.66 "/>
<polyline clip-path="url(#clip390)" style="stroke:#000000; stroke-linecap:round; stroke-linejoin:round; stroke-width:4; stroke-opacity:1; fill:none" points="156.598,1012.19 175.496,1012.19 "/>
<polyline clip-path="url(#clip390)" style="stroke:#000000; stroke-linecap:round; stroke-linejoin:round; stroke-width:4; stroke-opacity:1; fill:none" points="156.598,672.712 175.496,672.712 "/>
<polyline clip-path="url(#clip390)" style="stroke:#000000; stroke-linecap:round; stroke-linejoin:round; stroke-width:4; stroke-opacity:1; fill:none" points="156.598,333.237 175.496,333.237 "/>
<path clip-path="url(#clip390)" d="M62.9365 1337.46 Q59.3254 1337.46 57.4967 1341.03 Q55.6912 1344.57 55.6912 1351.7 Q55.6912 1358.8 57.4967 1362.37 Q59.3254 1365.91 62.9365 1365.91 Q66.5707 1365.91 68.3763 1362.37 Q70.205 1358.8 70.205 1351.7 Q70.205 1344.57 68.3763 1341.03 Q66.5707 1337.46 62.9365 1337.46 M62.9365 1333.76 Q68.7467 1333.76 71.8022 1338.36 Q74.8809 1342.95 74.8809 1351.7 Q74.8809 1360.42 71.8022 1365.03 Q68.7467 1369.61 62.9365 1369.61 Q57.1264 1369.61 54.0477 1365.03 Q50.9921 1360.42 50.9921 1351.7 Q50.9921 1342.95 54.0477 1338.36 Q57.1264 1333.76 62.9365 1333.76 Z" fill="#000000" fill-rule="nonzero" fill-opacity="1" /><path clip-path="url(#clip390)" d="M83.0984 1363.06 L87.9827 1363.06 L87.9827 1368.94 L83.0984 1368.94 L83.0984 1363.06 Z" fill="#000000" fill-rule="nonzero" fill-opacity="1" /><path clip-path="url(#clip390)" d="M111.015 1338.46 L99.2095 1356.9 L111.015 1356.9 L111.015 1338.46 M109.788 1334.38 L115.668 1334.38 L115.668 1356.9 L120.598 1356.9 L120.598 1360.79 L115.668 1360.79 L115.668 1368.94 L111.015 1368.94 L111.015 1360.79 L95.4132 1360.79 L95.4132 1356.28 L109.788 1334.38 Z" fill="#000000" fill-rule="nonzero" fill-opacity="1" /><path clip-path="url(#clip390)" d="M63.2606 997.985 Q59.6495 997.985 57.8208 1001.55 Q56.0152 1005.09 56.0152 1012.22 Q56.0152 1019.33 57.8208 1022.89 Q59.6495 1026.43 63.2606 1026.43 Q66.8948 1026.43 68.7004 1022.89 Q70.5291 1019.33 70.5291 1012.22 Q70.5291 1005.09 68.7004 1001.55 Q66.8948 997.985 63.2606 997.985 M63.2606 994.282 Q69.0707 994.282 72.1263 998.888 Q75.205 1003.47 75.205 1012.22 Q75.205 1020.95 72.1263 1025.55 Q69.0707 1030.14 63.2606 1030.14 Q57.4504 1030.14 54.3717 1025.55 Q51.3162 1020.95 51.3162 1012.22 Q51.3162 1003.47 54.3717 998.888 Q57.4504 994.282 63.2606 994.282 Z" fill="#000000" fill-rule="nonzero" fill-opacity="1" /><path clip-path="url(#clip390)" d="M83.4225 1023.59 L88.3067 1023.59 L88.3067 1029.47 L83.4225 1029.47 L83.4225 1023.59 Z" fill="#000000" fill-rule="nonzero" fill-opacity="1" /><path clip-path="url(#clip390)" d="M109.071 1010.32 Q105.922 1010.32 104.071 1012.48 Q102.242 1014.63 102.242 1018.38 Q102.242 1022.11 104.071 1024.28 Q105.922 1026.43 109.071 1026.43 Q112.219 1026.43 114.047 1024.28 Q115.899 1022.11 115.899 1018.38 Q115.899 1014.63 114.047 1012.48 Q112.219 1010.32 109.071 1010.32 M118.353 995.671 L118.353 999.93 Q116.594 999.096 114.788 998.657 Q113.006 998.217 111.246 998.217 Q106.617 998.217 104.163 1001.34 Q101.733 1004.47 101.385 1010.79 Q102.751 1008.77 104.811 1007.71 Q106.871 1006.62 109.348 1006.62 Q114.557 1006.62 117.566 1009.79 Q120.598 1012.94 120.598 1018.38 Q120.598 1023.7 117.45 1026.92 Q114.302 1030.14 109.071 1030.14 Q103.075 1030.14 99.9039 1025.55 Q96.7326 1020.95 96.7326 1012.22 Q96.7326 1004.03 100.621 999.166 Q104.51 994.282 111.061 994.282 Q112.82 994.282 114.603 994.629 Q116.408 994.976 118.353 995.671 Z" fill="#000000" fill-rule="nonzero" fill-opacity="1" /><path clip-path="url(#clip390)" d="M63.5152 658.51 Q59.9041 658.51 58.0754 662.075 Q56.2699 665.617 56.2699 672.746 Q56.2699 679.853 58.0754 683.418 Q59.9041 686.959 63.5152 686.959 Q67.1494 686.959 68.955 683.418 Q70.7837 679.853 70.7837 672.746 Q70.7837 665.617 68.955 662.075 Q67.1494 658.51 63.5152 658.51 M63.5152 654.807 Q69.3254 654.807 72.3809 659.413 Q75.4596 663.997 75.4596 672.746 Q75.4596 681.473 72.3809 686.08 Q69.3254 690.663 63.5152 690.663 Q57.7051 690.663 54.6264 686.08 Q51.5708 681.473 51.5708 672.746 Q51.5708 663.997 54.6264 659.413 Q57.7051 654.807 63.5152 654.807 Z" fill="#000000" fill-rule="nonzero" fill-opacity="1" /><path clip-path="url(#clip390)" d="M83.6771 684.112 L88.5614 684.112 L88.5614 689.992 L83.6771 689.992 L83.6771 684.112 Z" fill="#000000" fill-rule="nonzero" fill-opacity="1" /><path clip-path="url(#clip390)" d="M108.746 673.58 Q105.413 673.58 103.492 675.362 Q101.594 677.145 101.594 680.27 Q101.594 683.395 103.492 685.177 Q105.413 686.959 108.746 686.959 Q112.08 686.959 114.001 685.177 Q115.922 683.371 115.922 680.27 Q115.922 677.145 114.001 675.362 Q112.103 673.58 108.746 673.58 M104.071 671.589 Q101.061 670.848 99.3715 668.788 Q97.7048 666.728 97.7048 663.765 Q97.7048 659.622 100.645 657.214 Q103.608 654.807 108.746 654.807 Q113.908 654.807 116.848 657.214 Q119.788 659.622 119.788 663.765 Q119.788 666.728 118.098 668.788 Q116.432 670.848 113.445 671.589 Q116.825 672.376 118.7 674.668 Q120.598 676.959 120.598 680.27 Q120.598 685.293 117.52 687.978 Q114.464 690.663 108.746 690.663 Q103.029 690.663 99.9502 687.978 Q96.8947 685.293 96.8947 680.27 Q96.8947 676.959 98.7928 674.668 Q100.691 672.376 104.071 671.589 M102.358 664.205 Q102.358 666.89 104.024 668.395 Q105.714 669.899 108.746 669.899 Q111.756 669.899 113.445 668.395 Q115.158 666.89 115.158 664.205 Q115.158 661.52 113.445 660.015 Q111.756 658.51 108.746 658.51 Q105.714 658.51 104.024 660.015 Q102.358 661.52 102.358 664.205 Z" fill="#000000" fill-rule="nonzero" fill-opacity="1" /><path clip-path="url(#clip390)" d="M54.2328 346.582 L61.8717 346.582 L61.8717 320.216 L53.5616 321.883 L53.5616 317.624 L61.8254 315.957 L66.5013 315.957 L66.5013 346.582 L74.1402 346.582 L74.1402 350.517 L54.2328 350.517 L54.2328 346.582 Z" fill="#000000" fill-rule="nonzero" fill-opacity="1" /><path clip-path="url(#clip390)" d="M83.5845 344.637 L88.4688 344.637 L88.4688 350.517 L83.5845 350.517 L83.5845 344.637 Z" fill="#000000" fill-rule="nonzero" fill-opacity="1" /><path clip-path="url(#clip390)" d="M108.654 319.036 Q105.043 319.036 103.214 322.6 Q101.409 326.142 101.409 333.272 Q101.409 340.378 103.214 343.943 Q105.043 347.484 108.654 347.484 Q112.288 347.484 114.094 343.943 Q115.922 340.378 115.922 333.272 Q115.922 326.142 114.094 322.6 Q112.288 319.036 108.654 319.036 M108.654 315.332 Q114.464 315.332 117.52 319.938 Q120.598 324.522 120.598 333.272 Q120.598 341.998 117.52 346.605 Q114.464 351.188 108.654 351.188 Q102.844 351.188 99.765 346.605 Q96.7095 341.998 96.7095 333.272 Q96.7095 324.522 99.765 319.938 Q102.844 315.332 108.654 315.332 Z" fill="#000000" fill-rule="nonzero" fill-opacity="1" /><polyline clip-path="url(#clip392)" style="stroke:#009af9; stroke-linecap:round; stroke-linejoin:round; stroke-width:4; stroke-opacity:1; fill:none" points="156.598,1181.92 293.858,1288.16 431.118,1346.78 568.378,1379.26 705.638,1234.75 842.898,841.289 980.157,1130.26 1117.42,1218.09 1254.68,1148.98 1391.94,983.858 1529.2,554.421 1666.46,646.872 1803.72,865.806 1940.98,419.473 2078.24,546.595 2215.5,107.356 2352.76,86.1857 "/>
<polyline clip-path="url(#clip392)" style="stroke:#e26f46; stroke-linecap:round; stroke-linejoin:round; stroke-width:4; stroke-opacity:1; fill:none" points="156.598,1181.92 293.858,1290.27 431.118,1350.46 568.378,1384.24 705.638,1240.49 842.898,847.459 980.157,1136.5 1117.42,1225.89 1254.68,1158.19 1391.94,994.626 1529.2,567.196 1666.46,662.164 1803.72,881.984 1940.98,439.451 2078.24,568.745 2215.5,134.185 2352.76,116.49 "/>
<path clip-path="url(#clip390)" d="M229.803 248.629 L658.446 248.629 L658.446 93.1086 L229.803 93.1086  Z" fill="#ffffff" fill-rule="evenodd" fill-opacity="1"/>
<polyline clip-path="url(#clip390)" style="stroke:#000000; stroke-linecap:round; stroke-linejoin:round; stroke-width:4; stroke-opacity:1; fill:none" points="229.803,248.629 658.446,248.629 658.446,93.1086 229.803,93.1086 229.803,248.629 "/>
<polyline clip-path="url(#clip390)" style="stroke:#009af9; stroke-linecap:round; stroke-linejoin:round; stroke-width:4; stroke-opacity:1; fill:none" points="254.205,144.949 400.616,144.949 "/>
<path clip-path="url(#clip390)" d="M425.018 151.997 L425.018 136.303 L429.277 136.303 L429.277 151.835 Q429.277 155.516 430.712 157.368 Q432.147 159.196 435.017 159.196 Q438.467 159.196 440.457 156.997 Q442.471 154.798 442.471 151.002 L442.471 136.303 L446.73 136.303 L446.73 162.229 L442.471 162.229 L442.471 158.247 Q440.92 160.608 438.86 161.766 Q436.823 162.9 434.115 162.9 Q429.647 162.9 427.332 160.122 Q425.018 157.344 425.018 151.997 M435.735 135.678 L435.735 135.678 Z" fill="#000000" fill-rule="nonzero" fill-opacity="1" /><path clip-path="url(#clip390)" d="M455.11 126.21 L464.925 126.21 L464.925 129.52 L459.369 129.52 L459.369 165.168 L464.925 165.168 L464.925 168.479 L455.11 168.479 L455.11 126.21 Z" fill="#000000" fill-rule="nonzero" fill-opacity="1" /><path clip-path="url(#clip390)" d="M475.411 158.293 L483.05 158.293 L483.05 131.928 L474.739 133.595 L474.739 129.335 L483.003 127.669 L487.679 127.669 L487.679 158.293 L495.318 158.293 L495.318 162.229 L475.411 162.229 L475.411 158.293 Z" fill="#000000" fill-rule="nonzero" fill-opacity="1" /><path clip-path="url(#clip390)" d="M514.114 126.21 L514.114 168.479 L504.299 168.479 L504.299 165.168 L509.832 165.168 L509.832 129.52 L504.299 129.52 L504.299 126.21 L514.114 126.21 Z" fill="#000000" fill-rule="nonzero" fill-opacity="1" /><polyline clip-path="url(#clip390)" style="stroke:#e26f46; stroke-linecap:round; stroke-linejoin:round; stroke-width:4; stroke-opacity:1; fill:none" points="254.205,196.789 400.616,196.789 "/>
<path clip-path="url(#clip390)" d="M425.018 179.509 L454.253 179.509 L454.253 183.444 L441.985 183.444 L441.985 214.069 L437.286 214.069 L437.286 183.444 L425.018 183.444 L425.018 179.509 Z" fill="#000000" fill-rule="nonzero" fill-opacity="1" /><path clip-path="url(#clip390)" d="M466.638 192.124 Q465.92 191.708 465.064 191.522 Q464.23 191.314 463.212 191.314 Q459.601 191.314 457.656 193.675 Q455.735 196.013 455.735 200.411 L455.735 214.069 L451.453 214.069 L451.453 188.143 L455.735 188.143 L455.735 192.171 Q457.078 189.809 459.23 188.675 Q461.383 187.518 464.462 187.518 Q464.902 187.518 465.434 187.587 Q465.966 187.634 466.615 187.749 L466.638 192.124 Z" fill="#000000" fill-rule="nonzero" fill-opacity="1" /><path clip-path="url(#clip390)" d="M470.665 203.837 L470.665 188.143 L474.925 188.143 L474.925 203.675 Q474.925 207.356 476.36 209.208 Q477.795 211.036 480.665 211.036 Q484.114 211.036 486.105 208.837 Q488.119 206.638 488.119 202.842 L488.119 188.143 L492.378 188.143 L492.378 214.069 L488.119 214.069 L488.119 210.087 Q486.568 212.448 484.508 213.606 Q482.471 214.74 479.763 214.74 Q475.295 214.74 472.98 211.962 Q470.665 209.184 470.665 203.837 M481.383 187.518 L481.383 187.518 Z" fill="#000000" fill-rule="nonzero" fill-opacity="1" /><path clip-path="url(#clip390)" d="M523.327 200.041 L523.327 202.124 L503.744 202.124 Q504.022 206.522 506.383 208.837 Q508.767 211.129 513.003 211.129 Q515.457 211.129 517.748 210.527 Q520.063 209.925 522.332 208.721 L522.332 212.749 Q520.04 213.721 517.633 214.231 Q515.225 214.74 512.749 214.74 Q506.545 214.74 502.911 211.129 Q499.3 207.518 499.3 201.36 Q499.3 194.995 502.725 191.268 Q506.174 187.518 512.008 187.518 Q517.239 187.518 520.272 190.897 Q523.327 194.254 523.327 200.041 M519.068 198.791 Q519.022 195.296 517.1 193.212 Q515.202 191.129 512.054 191.129 Q508.489 191.129 506.337 193.143 Q504.207 195.157 503.883 198.814 L519.068 198.791 Z" fill="#000000" fill-rule="nonzero" fill-opacity="1" /><path clip-path="url(#clip390)" d="M544.947 203.837 L544.947 188.143 L549.207 188.143 L549.207 203.675 Q549.207 207.356 550.642 209.208 Q552.077 211.036 554.947 211.036 Q558.396 211.036 560.387 208.837 Q562.401 206.638 562.401 202.842 L562.401 188.143 L566.66 188.143 L566.66 214.069 L562.401 214.069 L562.401 210.087 Q560.85 212.448 558.79 213.606 Q556.753 214.74 554.045 214.74 Q549.577 214.74 547.262 211.962 Q544.947 209.184 544.947 203.837 M555.665 187.518 L555.665 187.518 Z" fill="#000000" fill-rule="nonzero" fill-opacity="1" /><path clip-path="url(#clip390)" d="M575.04 178.05 L584.855 178.05 L584.855 181.36 L579.299 181.36 L579.299 217.008 L584.855 217.008 L584.855 220.319 L575.04 220.319 L575.04 178.05 Z" fill="#000000" fill-rule="nonzero" fill-opacity="1" /><path clip-path="url(#clip390)" d="M595.341 210.133 L602.98 210.133 L602.98 183.768 L594.669 185.435 L594.669 181.175 L602.933 179.509 L607.609 179.509 L607.609 210.133 L615.248 210.133 L615.248 214.069 L595.341 214.069 L595.341 210.133 Z" fill="#000000" fill-rule="nonzero" fill-opacity="1" /><path clip-path="url(#clip390)" d="M634.044 178.05 L634.044 220.319 L624.229 220.319 L624.229 217.008 L629.762 217.008 L629.762 181.36 L624.229 181.36 L624.229 178.05 L634.044 178.05 Z" fill="#000000" fill-rule="nonzero" fill-opacity="1" /></svg>
