<?xml version="1.0" encoding="utf-8"?>
<svg xmlns="http://www.w3.org/2000/svg" xmlns:xlink="http://www.w3.org/1999/xlink" width="600" height="400" viewBox="0 0 2400 1600">
<defs>
  <clipPath id="clip470">
    <rect x="0" y="0" width="2400" height="1600"/>
  </clipPath>
</defs>
<path clip-path="url(#clip470)" d="M0 1600 L2400 1600 L2400 0 L0 0  Z" fill="#ffffff" fill-rule="evenodd" fill-opacity="1"/>
<defs>
  <clipPath id="clip471">
    <rect x="480" y="0" width="1681" height="1600"/>
  </clipPath>
</defs>
<path clip-path="url(#clip470)" d="M170.857 1423.18 L2352.76 1423.18 L2352.76 47.2441 L170.857 47.2441  Z" fill="#ffffff" fill-rule="evenodd" fill-opacity="1"/>
<defs>
  <clipPath id="clip472">
    <rect x="170" y="47" width="2183" height="1377"/>
  </clipPath>
</defs>
<polyline clip-path="url(#clip472)" style="stroke:#000000; stroke-linecap:round; stroke-linejoin:round; stroke-width:2; stroke-opacity:0.1; fill:none" points="170.857,1423.18 170.857,47.2441 "/>
<polyline clip-path="url(#clip472)" style="stroke:#000000; stroke-linecap:round; stroke-linejoin:round; stroke-width:2; stroke-opacity:0.1; fill:none" points="607.237,1423.18 607.237,47.2441 "/>
<polyline clip-path="url(#clip472)" style="stroke:#000000; stroke-linecap:round; stroke-linejoin:round; stroke-width:2; stroke-opacity:0.1; fill:none" points="1043.62,1423.18 1043.62,47.2441 "/>
<polyline clip-path="url(#clip472)" style="stroke:#000000; stroke-linecap:round; stroke-linejoin:round; stroke-width:2; stroke-opacity:0.1; fill:none" points="1480,1423.18 1480,47.2441 "/>
<polyline clip-path="url(#clip472)" style="stroke:#000000; stroke-linecap:round; stroke-linejoin:round; stroke-width:2; stroke-opacity:0.1; fill:none" points="1916.38,1423.18 1916.38,47.2441 "/>
<polyline clip-path="url(#clip472)" style="stroke:#000000; stroke-linecap:round; stroke-linejoin:round; stroke-width:2; stroke-opacity:0.1; fill:none" points="2352.76,1423.18 2352.76,47.2441 "/>
<polyline clip-path="url(#clip470)" style="stroke:#000000; stroke-linecap:round; stroke-linejoin:round; stroke-width:4; stroke-opacity:1; fill:none" points="170.857,1423.18 2352.76,1423.18 "/>
<polyline clip-path="url(#clip470)" style="stroke:#000000; stroke-linecap:round; stroke-linejoin:round; stroke-width:4; stroke-opacity:1; fill:none" points="170.857,1423.18 170.857,1404.28 "/>
<polyline clip-path="url(#clip470)" style="stroke:#000000; stroke-linecap:round; stroke-linejoin:round; stroke-width:4; stroke-opacity:1; fill:none" points="607.237,1423.18 607.237,1404.28 "/>
<polyline clip-path="url(#clip470)" style="stroke:#000000; stroke-linecap:round; stroke-linejoin:round; stroke-width:4; stroke-opacity:1; fill:none" points="1043.62,1423.18 1043.62,1404.28 "/>
<polyline clip-path="url(#clip470)" style="stroke:#000000; stroke-linecap:round; stroke-linejoin:round; stroke-width:4; stroke-opacity:1; fill:none" points="1480,1423.18 1480,1404.28 "/>
<polyline clip-path="url(#clip470)" style="stroke:#000000; stroke-linecap:round; stroke-linejoin:round; stroke-width:4; stroke-opacity:1; fill:none" points="1916.38,1423.18 1916.38,1404.28 "/>
<polyline clip-path="url(#clip470)" style="stroke:#000000; stroke-linecap:round; stroke-linejoin:round; stroke-width:4; stroke-opacity:1; fill:none" points="2352.76,1423.18 2352.76,1404.28 "/>
<path clip-path="url(#clip470)" d="M170.857 1454.1 Q167.246 1454.1 165.418 1457.66 Q163.612 1461.2 163.612 1468.33 Q163.612 1475.44 165.418 1479.01 Q167.246 1482.55 170.857 1482.55 Q174.492 1482.55 176.297 1479.01 Q178.126 1475.44 178.126 1468.33 Q178.126 1461.2 176.297 1457.66 Q174.492 1454.1 170.857 1454.1 M170.857 1450.39 Q176.668 1450.39 179.723 1455 Q182.802 1459.58 182.802 1468.33 Q182.802 1477.06 179.723 1481.67 Q176.668 1486.25 170.857 1486.25 Q165.047 1486.25 161.969 1481.67 Q158.913 1477.06 158.913 1468.33 Q158.913 1459.58 161.969 1455 Q165.047 1450.39 170.857 1450.39 Z" fill="#000000" fill-rule="nonzero" fill-opacity="1" /><path clip-path="url(#clip470)" d="M597.619 1481.64 L605.258 1481.64 L605.258 1455.28 L596.948 1456.95 L596.948 1452.69 L605.212 1451.02 L609.888 1451.02 L609.888 1481.64 L617.526 1481.64 L617.526 1485.58 L597.619 1485.58 L597.619 1481.64 Z" fill="#000000" fill-rule="nonzero" fill-opacity="1" /><path clip-path="url(#clip470)" d="M1038.27 1481.64 L1054.59 1481.64 L1054.59 1485.58 L1032.64 1485.58 L1032.64 1481.64 Q1035.31 1478.89 1039.89 1474.26 Q1044.5 1469.61 1045.68 1468.27 Q1047.92 1465.74 1048.8 1464.01 Q1049.7 1462.25 1049.7 1460.56 Q1049.7 1457.8 1047.76 1456.07 Q1045.84 1454.33 1042.74 1454.33 Q1040.54 1454.33 1038.08 1455.09 Q1035.65 1455.86 1032.88 1457.41 L1032.88 1452.69 Q1035.7 1451.55 1038.15 1450.97 Q1040.61 1450.39 1042.64 1450.39 Q1048.01 1450.39 1051.21 1453.08 Q1054.4 1455.77 1054.4 1460.26 Q1054.4 1462.39 1053.59 1464.31 Q1052.81 1466.2 1050.7 1468.8 Q1050.12 1469.47 1047.02 1472.69 Q1043.92 1475.88 1038.27 1481.64 Z" fill="#000000" fill-rule="nonzero" fill-opacity="1" /><path clip-path="url(#clip470)" d="M1484.24 1466.95 Q1487.6 1467.66 1489.48 1469.93 Q1491.37 1472.2 1491.37 1475.53 Q1491.37 1480.65 1487.86 1483.45 Q1484.34 1486.25 1477.86 1486.25 Q1475.68 1486.25 1473.36 1485.81 Q1471.07 1485.39 1468.62 1484.54 L1468.62 1480.02 Q1470.56 1481.16 1472.88 1481.74 Q1475.19 1482.32 1477.72 1482.32 Q1482.11 1482.32 1484.41 1480.58 Q1486.72 1478.84 1486.72 1475.53 Q1486.72 1472.48 1484.57 1470.77 Q1482.44 1469.03 1478.62 1469.03 L1474.59 1469.03 L1474.59 1465.19 L1478.8 1465.19 Q1482.25 1465.19 1484.08 1463.82 Q1485.91 1462.43 1485.91 1459.84 Q1485.91 1457.18 1484.01 1455.77 Q1482.14 1454.33 1478.62 1454.33 Q1476.7 1454.33 1474.5 1454.75 Q1472.3 1455.16 1469.66 1456.04 L1469.66 1451.88 Q1472.32 1451.14 1474.64 1450.77 Q1476.98 1450.39 1479.04 1450.39 Q1484.36 1450.39 1487.46 1452.83 Q1490.56 1455.23 1490.56 1459.35 Q1490.56 1462.22 1488.92 1464.21 Q1487.28 1466.18 1484.24 1466.95 Z" fill="#000000" fill-rule="nonzero" fill-opacity="1" /><path clip-path="url(#clip470)" d="M1919.39 1455.09 L1907.58 1473.54 L1919.39 1473.54 L1919.39 1455.09 M1918.16 1451.02 L1924.04 1451.02 L1924.04 1473.54 L1928.97 1473.54 L1928.97 1477.43 L1924.04 1477.43 L1924.04 1485.58 L1919.39 1485.58 L1919.39 1477.43 L1903.78 1477.43 L1903.78 1472.92 L1918.16 1451.02 Z" fill="#000000" fill-rule="nonzero" fill-opacity="1" /><path clip-path="url(#clip470)" d="M2343.03 1451.02 L2361.39 1451.02 L2361.39 1454.96 L2347.32 1454.96 L2347.32 1463.43 Q2348.33 1463.08 2349.35 1462.92 Q2350.37 1462.73 2351.39 1462.73 Q2357.18 1462.73 2360.56 1465.9 Q2363.94 1469.08 2363.94 1474.49 Q2363.94 1480.07 2360.46 1483.17 Q2356.99 1486.25 2350.67 1486.25 Q2348.5 1486.25 2346.23 1485.88 Q2343.98 1485.51 2341.58 1484.77 L2341.58 1480.07 Q2343.66 1481.2 2345.88 1481.76 Q2348.1 1482.32 2350.58 1482.32 Q2354.58 1482.32 2356.92 1480.21 Q2359.26 1478.1 2359.26 1474.49 Q2359.26 1470.88 2356.92 1468.77 Q2354.58 1466.67 2350.58 1466.67 Q2348.71 1466.67 2346.83 1467.08 Q2344.98 1467.5 2343.03 1468.38 L2343.03 1451.02 Z" fill="#000000" fill-rule="nonzero" fill-opacity="1" /><path clip-path="url(#clip470)" d="M1260.87 1522.27 L1260.87 1532.4 L1272.93 1532.4 L1272.93 1536.95 L1260.87 1536.95 L1260.87 1556.3 Q1260.87 1560.66 1262.05 1561.9 Q1263.25 1563.14 1266.92 1563.14 L1272.93 1563.14 L1272.93 1568.04 L1266.92 1568.04 Q1260.14 1568.04 1257.56 1565.53 Q1254.98 1562.98 1254.98 1556.3 L1254.98 1536.95 L1250.68 1536.95 L1250.68 1532.4 L1254.98 1532.4 L1254.98 1522.27 L1260.87 1522.27 Z" fill="#000000" fill-rule="nonzero" fill-opacity="1" /><polyline clip-path="url(#clip472)" style="stroke:#000000; stroke-linecap:round; stroke-linejoin:round; stroke-width:2; stroke-opacity:0.1; fill:none" points="170.857,1386.74 2352.76,1386.74 "/>
<polyline clip-path="url(#clip472)" style="stroke:#000000; stroke-linecap:round; stroke-linejoin:round; stroke-width:2; stroke-opacity:0.1; fill:none" points="170.857,1136.46 2352.76,1136.46 "/>
<polyline clip-path="url(#clip472)" style="stroke:#000000; stroke-linecap:round; stroke-linejoin:round; stroke-width:2; stroke-opacity:0.1; fill:none" points="170.857,886.183 2352.76,886.183 "/>
<polyline clip-path="url(#clip472)" style="stroke:#000000; stroke-linecap:round; stroke-linejoin:round; stroke-width:2; stroke-opacity:0.1; fill:none" points="170.857,635.905 2352.76,635.905 "/>
<polyline clip-path="url(#clip472)" style="stroke:#000000; stroke-linecap:round; stroke-linejoin:round; stroke-width:2; stroke-opacity:0.1; fill:none" points="170.857,385.627 2352.76,385.627 "/>
<polyline clip-path="url(#clip472)" style="stroke:#000000; stroke-linecap:round; stroke-linejoin:round; stroke-width:2; stroke-opacity:0.1; fill:none" points="170.857,135.349 2352.76,135.349 "/>
<polyline clip-path="url(#clip470)" style="stroke:#000000; stroke-linecap:round; stroke-linejoin:round; stroke-width:4; stroke-opacity:1; fill:none" points="170.857,1423.18 170.857,47.2441 "/>
<polyline clip-path="url(#clip470)" style="stroke:#000000; stroke-linecap:round; stroke-linejoin:round; stroke-width:4; stroke-opacity:1; fill:none" points="170.857,1386.74 189.755,1386.74 "/>
<polyline clip-path="url(#clip470)" style="stroke:#000000; stroke-linecap:round; stroke-linejoin:round; stroke-width:4; stroke-opacity:1; fill:none" points="170.857,1136.46 189.755,1136.46 "/>
<polyline clip-path="url(#clip470)" style="stroke:#000000; stroke-linecap:round; stroke-linejoin:round; stroke-width:4; stroke-opacity:1; fill:none" points="170.857,886.183 189.755,886.183 "/>
<polyline clip-path="url(#clip470)" style="stroke:#000000; stroke-linecap:round; stroke-linejoin:round; stroke-width:4; stroke-opacity:1; fill:none" points="170.857,635.905 189.755,635.905 "/>
<polyline clip-path="url(#clip470)" style="stroke:#000000; stroke-linecap:round; stroke-linejoin:round; stroke-width:4; stroke-opacity:1; fill:none" points="170.857,385.627 189.755,385.627 "/>
<polyline clip-path="url(#clip470)" style="stroke:#000000; stroke-linecap:round; stroke-linejoin:round; stroke-width:4; stroke-opacity:1; fill:none" points="170.857,135.349 189.755,135.349 "/>
<path clip-path="url(#clip470)" d="M122.913 1372.54 Q119.302 1372.54 117.473 1376.1 Q115.668 1379.64 115.668 1386.77 Q115.668 1393.88 117.473 1397.45 Q119.302 1400.99 122.913 1400.99 Q126.547 1400.99 128.353 1397.45 Q130.182 1393.88 130.182 1386.77 Q130.182 1379.64 128.353 1376.1 Q126.547 1372.54 122.913 1372.54 M122.913 1368.83 Q128.723 1368.83 131.779 1373.44 Q134.857 1378.02 134.857 1386.77 Q134.857 1395.5 131.779 1400.11 Q128.723 1404.69 122.913 1404.69 Q117.103 1404.69 114.024 1400.11 Q110.969 1395.5 110.969 1386.77 Q110.969 1378.02 114.024 1373.44 Q117.103 1368.83 122.913 1368.83 Z" fill="#000000" fill-rule="nonzero" fill-opacity="1" /><path clip-path="url(#clip470)" d="M82.7975 1119.18 L101.154 1119.18 L101.154 1123.12 L87.0799 1123.12 L87.0799 1131.59 Q88.0984 1131.24 89.1169 1131.08 Q90.1354 1130.89 91.1539 1130.89 Q96.941 1130.89 100.321 1134.07 Q103.7 1137.24 103.7 1142.65 Q103.7 1148.23 100.228 1151.33 Q96.7558 1154.41 90.4364 1154.41 Q88.2604 1154.41 85.9919 1154.04 Q83.7466 1153.67 81.3392 1152.93 L81.3392 1148.23 Q83.4225 1149.37 85.6447 1149.92 Q87.8669 1150.48 90.3438 1150.48 Q94.3484 1150.48 96.6863 1148.37 Q99.0243 1146.26 99.0243 1142.65 Q99.0243 1139.04 96.6863 1136.94 Q94.3484 1134.83 90.3438 1134.83 Q88.4688 1134.83 86.5938 1135.25 Q84.7419 1135.66 82.7975 1136.54 L82.7975 1119.18 Z" fill="#000000" fill-rule="nonzero" fill-opacity="1" /><path clip-path="url(#clip470)" d="M122.913 1122.26 Q119.302 1122.26 117.473 1125.83 Q115.668 1129.37 115.668 1136.5 Q115.668 1143.6 117.473 1147.17 Q119.302 1150.71 122.913 1150.71 Q126.547 1150.71 128.353 1147.17 Q130.182 1143.6 130.182 1136.5 Q130.182 1129.37 128.353 1125.83 Q126.547 1122.26 122.913 1122.26 M122.913 1118.56 Q128.723 1118.56 131.779 1123.16 Q134.857 1127.75 134.857 1136.5 Q134.857 1145.22 131.779 1149.83 Q128.723 1154.41 122.913 1154.41 Q117.103 1154.41 114.024 1149.83 Q110.969 1145.22 110.969 1136.5 Q110.969 1127.75 114.024 1123.16 Q117.103 1118.56 122.913 1118.56 Z" fill="#000000" fill-rule="nonzero" fill-opacity="1" /><path clip-path="url(#clip470)" d="M53.3995 899.528 L61.0384 899.528 L61.0384 873.163 L52.7282 874.829 L52.7282 870.57 L60.9921 868.903 L65.668 868.903 L65.668 899.528 L73.3068 899.528 L73.3068 903.463 L53.3995 903.463 L53.3995 899.528 Z" fill="#000000" fill-rule="nonzero" fill-opacity="1" /><path clip-path="url(#clip470)" d="M92.7512 871.982 Q89.1401 871.982 87.3114 875.547 Q85.5058 879.089 85.5058 886.218 Q85.5058 893.325 87.3114 896.889 Q89.1401 900.431 92.7512 900.431 Q96.3854 900.431 98.1909 896.889 Q100.02 893.325 100.02 886.218 Q100.02 879.089 98.1909 875.547 Q96.3854 871.982 92.7512 871.982 M92.7512 868.278 Q98.5613 868.278 101.617 872.885 Q104.696 877.468 104.696 886.218 Q104.696 894.945 101.617 899.551 Q98.5613 904.135 92.7512 904.135 Q86.941 904.135 83.8623 899.551 Q80.8068 894.945 80.8068 886.218 Q80.8068 877.468 83.8623 872.885 Q86.941 868.278 92.7512 868.278 Z" fill="#000000" fill-rule="nonzero" fill-opacity="1" /><path clip-path="url(#clip470)" d="M122.913 871.982 Q119.302 871.982 117.473 875.547 Q115.668 879.089 115.668 886.218 Q115.668 893.325 117.473 896.889 Q119.302 900.431 122.913 900.431 Q126.547 900.431 128.353 896.889 Q130.182 893.325 130.182 886.218 Q130.182 879.089 128.353 875.547 Q126.547 871.982 122.913 871.982 M122.913 868.278 Q128.723 868.278 131.779 872.885 Q134.857 877.468 134.857 886.218 Q134.857 894.945 131.779 899.551 Q128.723 904.135 122.913 904.135 Q117.103 904.135 114.024 899.551 Q110.969 894.945 110.969 886.218 Q110.969 877.468 114.024 872.885 Q117.103 868.278 122.913 868.278 Z" fill="#000000" fill-rule="nonzero" fill-opacity="1" /><path clip-path="url(#clip470)" d="M53.3995 649.25 L61.0384 649.25 L61.0384 622.884 L52.7282 624.551 L52.7282 620.292 L60.9921 618.625 L65.668 618.625 L65.668 649.25 L73.3068 649.25 L73.3068 653.185 L53.3995 653.185 L53.3995 649.25 Z" fill="#000000" fill-rule="nonzero" fill-opacity="1" /><path clip-path="url(#clip470)" d="M82.7975 618.625 L101.154 618.625 L101.154 622.56 L87.0799 622.56 L87.0799 631.033 Q88.0984 630.685 89.1169 630.523 Q90.1354 630.338 91.1539 630.338 Q96.941 630.338 100.321 633.509 Q103.7 636.681 103.7 642.097 Q103.7 647.676 100.228 650.778 Q96.7558 653.856 90.4364 653.856 Q88.2604 653.856 85.9919 653.486 Q83.7466 653.116 81.3392 652.375 L81.3392 647.676 Q83.4225 648.81 85.6447 649.366 Q87.8669 649.921 90.3438 649.921 Q94.3484 649.921 96.6863 647.815 Q99.0243 645.708 99.0243 642.097 Q99.0243 638.486 96.6863 636.38 Q94.3484 634.273 90.3438 634.273 Q88.4688 634.273 86.5938 634.69 Q84.7419 635.107 82.7975 635.986 L82.7975 618.625 Z" fill="#000000" fill-rule="nonzero" fill-opacity="1" /><path clip-path="url(#clip470)" d="M122.913 621.704 Q119.302 621.704 117.473 625.269 Q115.668 628.81 115.668 635.94 Q115.668 643.046 117.473 646.611 Q119.302 650.153 122.913 650.153 Q126.547 650.153 128.353 646.611 Q130.182 643.046 130.182 635.94 Q130.182 628.81 128.353 625.269 Q126.547 621.704 122.913 621.704 M122.913 618 Q128.723 618 131.779 622.607 Q134.857 627.19 134.857 635.94 Q134.857 644.667 131.779 649.273 Q128.723 653.856 122.913 653.856 Q117.103 653.856 114.024 649.273 Q110.969 644.667 110.969 635.94 Q110.969 627.19 114.024 622.607 Q117.103 618 122.913 618 Z" fill="#000000" fill-rule="nonzero" fill-opacity="1" /><path clip-path="url(#clip470)" d="M56.6171 398.972 L72.9365 398.972 L72.9365 402.907 L50.9921 402.907 L50.9921 398.972 Q53.6541 396.217 58.2375 391.588 Q62.8439 386.935 64.0245 385.592 Q66.2698 383.069 67.1494 381.333 Q68.0522 379.574 68.0522 377.884 Q68.0522 375.129 66.1078 373.393 Q64.1865 371.657 61.0847 371.657 Q58.8856 371.657 56.4319 372.421 Q54.0014 373.185 51.2236 374.736 L51.2236 370.014 Q54.0477 368.879 56.5014 368.301 Q58.955 367.722 60.9921 367.722 Q66.3624 367.722 69.5568 370.407 Q72.7513 373.092 72.7513 377.583 Q72.7513 379.713 71.9411 381.634 Q71.1541 383.532 69.0476 386.125 Q68.4689 386.796 65.367 390.014 Q62.2652 393.208 56.6171 398.972 Z" fill="#000000" fill-rule="nonzero" fill-opacity="1" /><path clip-path="url(#clip470)" d="M92.7512 371.426 Q89.1401 371.426 87.3114 374.99 Q85.5058 378.532 85.5058 385.662 Q85.5058 392.768 87.3114 396.333 Q89.1401 399.875 92.7512 399.875 Q96.3854 399.875 98.1909 396.333 Q100.02 392.768 100.02 385.662 Q100.02 378.532 98.1909 374.99 Q96.3854 371.426 92.7512 371.426 M92.7512 367.722 Q98.5613 367.722 101.617 372.328 Q104.696 376.912 104.696 385.662 Q104.696 394.388 101.617 398.995 Q98.5613 403.578 92.7512 403.578 Q86.941 403.578 83.8623 398.995 Q80.8068 394.388 80.8068 385.662 Q80.8068 376.912 83.8623 372.328 Q86.941 367.722 92.7512 367.722 Z" fill="#000000" fill-rule="nonzero" fill-opacity="1" /><path clip-path="url(#clip470)" d="M122.913 371.426 Q119.302 371.426 117.473 374.99 Q115.668 378.532 115.668 385.662 Q115.668 392.768 117.473 396.333 Q119.302 399.875 122.913 399.875 Q126.547 399.875 128.353 396.333 Q130.182 392.768 130.182 385.662 Q130.182 378.532 128.353 374.99 Q126.547 371.426 122.913 371.426 M122.913 367.722 Q128.723 367.722 131.779 372.328 Q134.857 376.912 134.857 385.662 Q134.857 394.388 131.779 398.995 Q128.723 403.578 122.913 403.578 Q117.103 403.578 114.024 398.995 Q110.969 394.388 110.969 385.662 Q110.969 376.912 114.024 372.328 Q117.103 367.722 122.913 367.722 Z" fill="#000000" fill-rule="nonzero" fill-opacity="1" /><path clip-path="url(#clip470)" d="M56.6171 148.694 L72.9365 148.694 L72.9365 152.629 L50.9921 152.629 L50.9921 148.694 Q53.6541 145.939 58.2375 141.309 Q62.8439 136.657 64.0245 135.314 Q66.2698 132.791 67.1494 131.055 Q68.0522 129.296 68.0522 127.606 Q68.0522 124.851 66.1078 123.115 Q64.1865 121.379 61.0847 121.379 Q58.8856 121.379 56.4319 122.143 Q54.0014 122.907 51.2236 124.458 L51.2236 119.735 Q54.0477 118.601 56.5014 118.022 Q58.955 117.444 60.9921 117.444 Q66.3624 117.444 69.5568 120.129 Q72.7513 122.814 72.7513 127.305 Q72.7513 129.434 71.9411 131.356 Q71.1541 133.254 69.0476 135.846 Q68.4689 136.518 65.367 139.735 Q62.2652 142.93 56.6171 148.694 Z" fill="#000000" fill-rule="nonzero" fill-opacity="1" /><path clip-path="url(#clip470)" d="M82.7975 118.069 L101.154 118.069 L101.154 122.004 L87.0799 122.004 L87.0799 130.476 Q88.0984 130.129 89.1169 129.967 Q90.1354 129.782 91.1539 129.782 Q96.941 129.782 100.321 132.953 Q103.7 136.124 103.7 141.541 Q103.7 147.12 100.228 150.221 Q96.7558 153.3 90.4364 153.3 Q88.2604 153.3 85.9919 152.93 Q83.7466 152.559 81.3392 151.819 L81.3392 147.12 Q83.4225 148.254 85.6447 148.809 Q87.8669 149.365 90.3438 149.365 Q94.3484 149.365 96.6863 147.258 Q99.0243 145.152 99.0243 141.541 Q99.0243 137.93 96.6863 135.823 Q94.3484 133.717 90.3438 133.717 Q88.4688 133.717 86.5938 134.133 Q84.7419 134.55 82.7975 135.43 L82.7975 118.069 Z" fill="#000000" fill-rule="nonzero" fill-opacity="1" /><path clip-path="url(#clip470)" d="M122.913 121.147 Q119.302 121.147 117.473 124.712 Q115.668 128.254 115.668 135.383 Q115.668 142.49 117.473 146.055 Q119.302 149.596 122.913 149.596 Q126.547 149.596 128.353 146.055 Q130.182 142.49 130.182 135.383 Q130.182 128.254 128.353 124.712 Q126.547 121.147 122.913 121.147 M122.913 117.444 Q128.723 117.444 131.779 122.05 Q134.857 126.634 134.857 135.383 Q134.857 144.11 131.779 148.717 Q128.723 153.3 122.913 153.3 Q117.103 153.3 114.024 148.717 Q110.969 144.11 110.969 135.383 Q110.969 126.634 114.024 122.05 Q117.103 117.444 122.913 117.444 Z" fill="#000000" fill-rule="nonzero" fill-opacity="1" /><polyline clip-path="url(#clip472)" style="stroke:#009af9; stroke-linecap:round; stroke-linejoin:round; stroke-width:4; stroke-opacity:1; fill:none" points="170.857,1381.73 175.221,1381.73 179.585,1381.73 183.949,1381.73 188.313,1381.73 192.676,1381.73 197.04,1381.73 201.404,1381.73 205.768,1381.73 210.132,1381.73 214.495,1381.73 218.859,1381.71 223.223,1381.7 227.587,1381.68 231.951,1381.67 236.314,1381.67 240.678,1381.67 245.042,1381.67 249.406,1381.68 253.77,1381.68 258.133,1381.68 262.497,1381.68 266.861,1381.68 271.225,1381.68 275.589,1381.68 279.952,1381.69 284.316,1381.68 288.68,1381.68 293.044,1381.67 297.408,1381.67 301.771,1381.67 306.135,1381.67 310.499,1381.67 314.863,1381.67 319.227,1381.67 323.59,1381.67 327.954,1381.67 332.318,1381.68 336.682,1381.69 341.045,1381.7 345.409,1381.72 349.773,1381.75 354.137,1381.78 358.501,1381.8 362.864,1381.83 367.228,1381.86 371.592,1381.9 375.956,1381.93 380.32,1381.96 384.683,1382 389.047,1382.04 393.411,1382.09 397.775,1382.13 402.139,1382.19 406.502,1382.25 410.866,1382.29 415.23,1382.33 419.594,1382.38 423.958,1382.41 428.321,1382.42 432.685,1382.43 437.049,1382.44 441.413,1382.45 445.777,1382.45 450.14,1382.45 454.504,1382.45 458.868,1382.45 463.232,1382.46 467.596,1382.46 471.959,1382.45 476.323,1382.45 480.687,1382.46 485.051,1382.46 489.415,1382.46 493.778,1382.46 498.142,1382.47 502.506,1382.47 506.87,1382.47 511.234,1382.47 515.597,1382.47 519.961,1382.47 524.325,1382.47 528.689,1382.47 533.053,1382.47 537.416,1382.46 541.78,1382.45 546.144,1382.44 550.508,1382.43 554.872,1382.42 559.235,1382.4 563.599,1382.39 567.963,1382.38 572.327,1382.37 576.691,1382.35 581.054,1382.33 585.418,1382.32 589.782,1382.3 594.146,1382.28 598.51,1382.26 602.873,1382.23 607.237,1382.21 611.601,1382.18 615.965,1382.14 620.329,1382.1 624.692,1382.07 629.056,1382.02 633.42,1381.98 637.784,1381.94 642.147,1381.92 646.511,1381.9 650.875,1381.88 655.239,1381.88 659.603,1381.85 663.966,1381.83 668.33,1381.8 672.694,1381.77 677.058,1381.73 681.422,1381.69 685.785,1381.66 690.149,1381.64 694.513,1381.61 698.877,1381.55 703.241,1381.51 707.604,1381.47 711.968,1381.42 716.332,1381.37 720.696,1381.32 725.06,1381.27 729.423,1381.22 733.787,1381.17 738.151,1381.11 742.515,1381.06 746.879,1380.98 751.242,1380.88 755.606,1380.79 759.97,1380.71 764.334,1380.62 768.698,1380.52 773.061,1380.42 777.425,1380.31 781.789,1380.19 786.153,1380.06 790.517,1379.93 794.88,1379.79 799.244,1379.64 803.608,1379.49 807.972,1379.36 812.336,1379.23 816.699,1379.08 821.063,1378.93 825.427,1378.78 829.791,1378.65 834.155,1378.53 838.518,1378.42 842.882,1378.35 847.246,1378.28 851.61,1378.19 855.974,1378.09 860.337,1377.99 864.701,1377.9 869.065,1377.84 873.429,1377.76 877.793,1377.68 882.156,1377.63 886.52,1377.57 890.884,1377.51 895.248,1377.41 899.612,1377.3 903.975,1377.22 908.339,1377.14 912.703,1377.06 917.067,1376.98 921.43,1376.92 925.794,1376.87 930.158,1376.82 934.522,1376.82 938.886,1376.81 943.249,1376.77 947.613,1376.76 951.977,1376.75 956.341,1376.7 960.705,1376.62 965.068,1376.55 969.432,1376.47 973.796,1376.41 978.16,1376.39 982.524,1376.35 986.887,1376.3 991.251,1376.25 995.615,1376.2 999.979,1376.14 1004.34,1376.06 1008.71,1376 1013.07,1375.94 1017.43,1375.9 1021.8,1375.88 1026.16,1375.86 1030.53,1375.85 1034.89,1375.83 1039.25,1375.8 1043.62,1375.76 1047.98,1375.73 1052.34,1375.71 1056.71,1375.72 1061.07,1375.72 1065.44,1375.71 1069.8,1375.72 1074.16,1375.72 1078.53,1375.73 1082.89,1375.75 1087.25,1375.77 1091.62,1375.79 1095.98,1375.82 1100.35,1375.84 1104.71,1375.87 1109.07,1375.87 1113.44,1375.9 1117.8,1375.95 1122.17,1375.98 1126.53,1376.03 1130.89,1376.08 1135.26,1376.1 1139.62,1376.12 1143.98,1376.14 1148.35,1376.14 1152.71,1376.16 1157.08,1376.16 1161.44,1376.13 1165.8,1376.09 1170.17,1376.07 1174.53,1376.03 1178.89,1375.97 1183.26,1375.9 1187.62,1375.84 1191.99,1375.79 1196.35,1375.72 1200.71,1375.67 1205.08,1375.65 1209.44,1375.64 1213.8,1375.64 1218.17,1375.68 1222.53,1375.69 1226.9,1375.69 1231.26,1375.73 1235.62,1375.76 1239.99,1375.79 1244.35,1375.8 1248.72,1375.85 1253.08,1375.88 1257.44,1375.87 1261.81,1375.85 1266.17,1375.85 1270.53,1375.83 1274.9,1375.84 1279.26,1375.85 1283.63,1375.87 1287.99,1375.87 1292.35,1375.85 1296.72,1375.87 1301.08,1375.9 1305.44,1375.91 1309.81,1375.93 1314.17,1375.93 1318.54,1375.94 1322.9,1375.95 1327.26,1375.95 1331.63,1375.94 1335.99,1375.95 1340.36,1375.96 1344.72,1375.97 1349.08,1375.98 1353.45,1375.99 1357.81,1376 1362.17,1376.01 1366.54,1376.03 1370.9,1376.05 1375.27,1376.06 1379.63,1376.06 1383.99,1376.09 1388.36,1376.1 1392.72,1376.13 1397.08,1376.19 1401.45,1376.27 1405.81,1376.35 1410.18,1376.41 1414.54,1376.49 1418.9,1376.54 1423.27,1376.57 1427.63,1376.58 1431.99,1376.57 1436.36,1376.55 1440.72,1376.55 1445.09,1376.55 1449.45,1376.56 1453.81,1376.59 1458.18,1376.63 1462.54,1376.66 1466.91,1376.68 1471.27,1376.7 1475.63,1376.72 1480,1376.73 1484.36,1376.73 1488.72,1376.74 1493.09,1376.75 1497.45,1376.77 1501.82,1376.79 1506.18,1376.79 1510.54,1376.8 1514.91,1376.82 1519.27,1376.82 1523.63,1376.8 1528,1376.76 1532.36,1376.71 1536.73,1376.67 1541.09,1376.6 1545.45,1376.5 1549.82,1376.39 1554.18,1376.28 1558.54,1376.18 1562.91,1376.02 1567.27,1375.9 1571.64,1375.79 1576,1375.7 1580.36,1375.6 1584.73,1375.55 1589.09,1375.51 1593.46,1375.5 1597.82,1375.47 1602.18,1375.42 1606.55,1375.4 1610.91,1375.37 1615.27,1375.34 1619.64,1375.27 1624,1375.2 1628.37,1375.09 1632.73,1375.01 1637.09,1374.9 1641.46,1374.76 1645.82,1374.64 1650.18,1374.52 1654.55,1374.41 1658.91,1374.21 1663.28,1374.04 1667.64,1373.87 1672,1373.68 1676.37,1373.48 1680.73,1373.25 1685.09,1373.04 1689.46,1372.86 1693.82,1372.68 1698.19,1372.5 1702.55,1372.33 1706.91,1372.17 1711.28,1372.06 1715.64,1371.9 1720.01,1371.74 1724.37,1371.59 1728.73,1371.49 1733.1,1371.4 1737.46,1371.3 1741.82,1371.12 1746.19,1370.89 1750.55,1370.55 1754.92,1370.22 1759.28,1369.74 1763.64,1369.3 1768.01,1368.97 1772.37,1368.61 1776.73,1368.16 1781.1,1367.7 1785.46,1367.16 1789.83,1366.7 1794.19,1366.28 1798.55,1365.86 1802.92,1365.44 1807.28,1365 1811.65,1364.57 1816.01,1364.08 1820.37,1363.55 1824.74,1362.94 1829.1,1362.19 1833.46,1361.43 1837.83,1360.75 1842.19,1360.09 1846.56,1359.36 1850.92,1358.64 1855.28,1357.96 1859.65,1357.3 1864.01,1356.65 1868.37,1355.99 1872.74,1355.34 1877.1,1354.63 1881.47,1354.06 1885.83,1353.51 1890.19,1352.96 1894.56,1352.45 1898.92,1351.97 1903.28,1351.52 1907.65,1350.93 1912.01,1350.32 1916.38,1349.62 1920.74,1349.04 1925.1,1348.45 1929.47,1347.89 1933.83,1347.41 1938.2,1346.84 1942.56,1346.33 1946.92,1345.86 1951.29,1345.42 1955.65,1345.17 1960.01,1344.95 1964.38,1344.7 1968.74,1344.41 1973.11,1344.19 1977.47,1343.96 1981.83,1343.72 1986.2,1343.32 1990.56,1342.8 1994.92,1342.24 1999.29,1341.69 2003.65,1341.17 2008.02,1340.71 2012.38,1340.27 2016.74,1339.74 2021.11,1339.2 2025.47,1338.67 2029.83,1338.08 2034.2,1337.34 2038.56,1336.67 2042.93,1335.96 2047.29,1335.08 2051.65,1334.38 2056.02,1333.8 2060.38,1333.3 2064.75,1332.64 2069.11,1331.96 2073.47,1331.2 2077.84,1330.71 2082.2,1330.16 2086.56,1329.55 2090.93,1328.78 2095.29,1327.92 2099.66,1327.12 2104.02,1326.05 2108.38,1325.08 2112.75,1324.25 2117.11,1323.34 2121.47,1322.51 2125.84,1321.45 2130.2,1320.41 2134.57,1319.36 2138.93,1318.4 2143.29,1317.54 2147.66,1316.48 2152.02,1315.62 2156.39,1314.73 2160.75,1313.85 2165.11,1313.08 2169.48,1312.13 2173.84,1311.17 2178.2,1310.3 2182.57,1309.36 2186.93,1308.31 2191.3,1307.19 2195.66,1305.89 2200.02,1304.73 2204.39,1303.59 2208.75,1302.64 2213.11,1301.6 2217.48,1300.78 2221.84,1300.01 2226.21,1299.12 2230.57,1298.22 2234.93,1297.31 2239.3,1296.96 2243.66,1296.56 2248.02,1296 2252.39,1295.33 2256.75,1294.44 2261.12,1293.95 2265.48,1293.55 2269.84,1293.09 2274.21,1292.84 2278.57,1292.72 2282.94,1291.9 2287.3,1290.9 2291.66,1290.08 2296.03,1289.04 2300.39,1287.6 2304.75,1285.68 2309.12,1283.76 2313.48,1281.54 2317.85,1279.79 2322.21,1277.89 2326.57,1276.08 2330.94,1273.42 2335.3,1270.33 2339.66,1267.33 2344.03,1264.24 2348.39,1260.9 2352.76,1256.86 "/>
<polyline clip-path="url(#clip472)" style="stroke:#e26f46; stroke-linecap:round; stroke-linejoin:round; stroke-width:4; stroke-opacity:1; fill:none" points="170.857,1381.73 175.221,1381.83 179.585,1381.93 183.949,1382.02 188.313,1382.11 192.676,1382.2 197.04,1382.28 201.404,1382.36 205.768,1382.44 210.132,1382.51 214.495,1382.59 218.859,1382.66 223.223,1382.74 227.587,1382.81 231.951,1382.89 236.314,1382.97 240.678,1383.04 245.042,1383.12 249.406,1383.19 253.77,1383.25 258.133,1383.32 262.497,1383.37 266.861,1383.43 271.225,1383.49 275.589,1383.56 279.952,1383.62 284.316,1383.68 288.68,1383.74 293.044,1383.79 297.408,1383.85 301.771,1383.89 306.135,1383.94 310.499,1383.99 314.863,1384.03 319.227,1384.07 323.59,1384.1 327.954,1384.13 332.318,1384.16 336.682,1384.2 341.045,1384.22 345.409,1384.24 349.773,1384.24 354.137,1384.24 358.501,1384.23 362.864,1384.23 367.228,1384.22 371.592,1384.21 375.956,1384.19 380.32,1384.18 384.683,1384.15 389.047,1384.14 393.411,1384.11 397.775,1384.09 402.139,1384.07 406.502,1384.04 410.866,1384 415.23,1383.96 419.594,1383.93 423.958,1383.89 428.321,1383.85 432.685,1383.82 437.049,1383.79 441.413,1383.76 445.777,1383.73 450.14,1383.7 454.504,1383.67 458.868,1383.64 463.232,1383.61 467.596,1383.57 471.959,1383.52 476.323,1383.48 480.687,1383.43 485.051,1383.38 489.415,1383.34 493.778,1383.3 498.142,1383.26 502.506,1383.22 506.87,1383.19 511.234,1383.14 515.597,1383.11 519.961,1383.07 524.325,1383.03 528.689,1382.98 533.053,1382.94 537.416,1382.89 541.78,1382.84 546.144,1382.78 550.508,1382.73 554.872,1382.7 559.235,1382.66 563.599,1382.61 567.963,1382.57 572.327,1382.54 576.691,1382.5 581.054,1382.46 585.418,1382.42 589.782,1382.36 594.146,1382.29 598.51,1382.22 602.873,1382.15 607.237,1382.07 611.601,1381.99 615.965,1381.9 620.329,1381.8 624.692,1381.7 629.056,1381.6 633.42,1381.5 637.784,1381.4 642.147,1381.3 646.511,1381.19 650.875,1381.09 655.239,1380.98 659.603,1380.87 663.966,1380.77 668.33,1380.67 672.694,1380.56 677.058,1380.46 681.422,1380.35 685.785,1380.24 690.149,1380.14 694.513,1380.04 698.877,1379.94 703.241,1379.82 707.604,1379.69 711.968,1379.56 716.332,1379.42 720.696,1379.28 725.06,1379.13 729.423,1378.98 733.787,1378.83 738.151,1378.67 742.515,1378.51 746.879,1378.35 751.242,1378.18 755.606,1378.01 759.97,1377.84 764.334,1377.67 768.698,1377.49 773.061,1377.3 777.425,1377.12 781.789,1376.93 786.153,1376.73 790.517,1376.53 794.88,1376.33 799.244,1376.12 803.608,1375.91 807.972,1375.69 812.336,1375.48 816.699,1375.26 821.063,1375.03 825.427,1374.8 829.791,1374.56 834.155,1374.33 838.518,1374.09 842.882,1373.84 847.246,1373.6 851.61,1373.36 855.974,1373.11 860.337,1372.85 864.701,1372.58 869.065,1372.33 873.429,1372.06 877.793,1371.76 882.156,1371.46 886.52,1371.16 890.884,1370.86 895.248,1370.54 899.612,1370.22 903.975,1369.9 908.339,1369.57 912.703,1369.23 917.067,1368.89 921.43,1368.54 925.794,1368.18 930.158,1367.81 934.522,1367.43 938.886,1367.05 943.249,1366.66 947.613,1366.27 951.977,1365.9 956.341,1365.56 960.705,1365.23 965.068,1364.91 969.432,1364.59 973.796,1364.28 978.16,1363.96 982.524,1363.82 986.887,1363.66 991.251,1363.55 995.615,1363.51 999.979,1363.44 1004.34,1363.3 1008.71,1363.12 1013.07,1362.91 1017.43,1362.71 1021.8,1362.6 1026.16,1362.67 1030.53,1362.66 1034.89,1362.57 1039.25,1362.53 1043.62,1362.52 1047.98,1362.6 1052.34,1362.68 1056.71,1362.72 1061.07,1362.65 1065.44,1362.53 1069.8,1362.41 1074.16,1362.2 1078.53,1361.94 1082.89,1361.64 1087.25,1361.31 1091.62,1360.9 1095.98,1360.48 1100.35,1360.09 1104.71,1359.71 1109.07,1359.38 1113.44,1359.05 1117.8,1358.64 1122.17,1358.22 1126.53,1357.76 1130.89,1357.28 1135.26,1356.84 1139.62,1356.36 1143.98,1355.86 1148.35,1355.32 1152.71,1354.76 1157.08,1354.18 1161.44,1353.57 1165.8,1352.98 1170.17,1352.36 1174.53,1351.77 1178.89,1351.14 1183.26,1350.45 1187.62,1349.74 1191.99,1349 1196.35,1348.25 1200.71,1347.49 1205.08,1346.71 1209.44,1345.92 1213.8,1345.1 1218.17,1344.27 1222.53,1343.43 1226.9,1342.56 1231.26,1341.69 1235.62,1340.81 1239.99,1339.92 1244.35,1339.02 1248.72,1338.08 1253.08,1337.13 1257.44,1336.14 1261.81,1335.13 1266.17,1334.15 1270.53,1333.18 1274.9,1332.16 1279.26,1331.11 1283.63,1330 1287.99,1328.89 1292.35,1327.74 1296.72,1326.58 1301.08,1325.46 1305.44,1324.28 1309.81,1323.11 1314.17,1321.89 1318.54,1320.71 1322.9,1319.42 1327.26,1318.11 1331.63,1316.78 1335.99,1315.38 1340.36,1313.98 1344.72,1312.55 1349.08,1311.1 1353.45,1309.67 1357.81,1308.16 1362.17,1306.61 1366.54,1305.05 1370.9,1303.47 1375.27,1301.84 1379.63,1300.16 1383.99,1298.51 1388.36,1296.85 1392.72,1295.26 1397.08,1293.69 1401.45,1292.18 1405.81,1290.43 1410.18,1288.8 1414.54,1287.1 1418.9,1285.44 1423.27,1283.65 1427.63,1282 1431.99,1280.02 1436.36,1277.91 1440.72,1275.76 1445.09,1273.63 1449.45,1271.41 1453.81,1269.12 1458.18,1266.77 1462.54,1264.5 1466.91,1262.24 1471.27,1259.95 1475.63,1257.56 1480,1255.33 1484.36,1252.91 1488.72,1250.56 1493.09,1248.59 1497.45,1246.68 1501.82,1244.59 1506.18,1242.48 1510.54,1239.9 1514.91,1237.28 1519.27,1234.56 1523.63,1231.82 1528,1229.15 1532.36,1226.32 1536.73,1223.64 1541.09,1221.05 1545.45,1218.34 1549.82,1215.57 1554.18,1212.93 1558.54,1210 1562.91,1206.8 1567.27,1203.83 1571.64,1201.26 1576,1198.97 1580.36,1196.44 1584.73,1194.05 1589.09,1191.82 1593.46,1188.96 1597.82,1186.23 1602.18,1183 1606.55,1179.85 1610.91,1176.76 1615.27,1173.98 1619.64,1171.2 1624,1168.79 1628.37,1166.22 1632.73,1163.75 1637.09,1160.74 1641.46,1157.63 1645.82,1154.03 1650.18,1150.05 1654.55,1145.94 1658.91,1141.52 1663.28,1137.66 1667.64,1134.21 1672,1130.91 1676.37,1127.23 1680.73,1122.95 1685.09,1118.1 1689.46,1112.97 1693.82,1107.61 1698.19,1102.02 1702.55,1096.37 1706.91,1090.78 1711.28,1085.09 1715.64,1079.4 1720.01,1073.5 1724.37,1067.47 1728.73,1061.61 1733.1,1055.24 1737.46,1048.72 1741.82,1042.21 1746.19,1035.38 1750.55,1028.52 1754.92,1021.38 1759.28,1014.09 1763.64,1007.12 1768.01,1000.21 1772.37,993.955 1776.73,987.02 1781.1,980.377 1785.46,973.035 1789.83,966.323 1794.19,959.355 1798.55,951.339 1802.92,942.954 1807.28,934.574 1811.65,926.33 1816.01,917.393 1820.37,908.13 1824.74,898.628 1829.1,888.878 1833.46,878.921 1837.83,868.765 1842.19,858.414 1846.56,847.911 1850.92,837.247 1855.28,826.422 1859.65,815.469 1864.01,804.157 1868.37,792.538 1872.74,780.675 1877.1,768.556 1881.47,756.242 1885.83,743.64 1890.19,730.779 1894.56,717.688 1898.92,704.355 1903.28,690.754 1907.65,676.837 1912.01,662.639 1916.38,648.171 1920.74,633.64 1925.1,618.858 1929.47,603.835 1933.83,588.364 1938.2,572.751 1942.56,557.599 1946.92,542.474 1951.29,527.094 1955.65,512.01 1960.01,497.08 1964.38,483.872 1968.74,469.158 1973.11,453.839 1977.47,437.754 1981.83,423.128 1986.2,414.057 1990.56,404.451 1994.92,395.863 1999.29,388.159 2003.65,383.717 2008.02,378.734 2012.38,379.091 2016.74,380.07 2021.11,384.375 2025.47,387.721 2029.83,389.044 2034.2,390.435 2038.56,392.761 2042.93,396.084 2047.29,398.261 2051.65,397.772 2056.02,399.759 2060.38,397.747 2064.75,395.291 2069.11,393.185 2073.47,389.666 2077.84,387.516 2082.2,383.082 2086.56,374.434 2090.93,368.28 2095.29,361.969 2099.66,354.655 2104.02,344.024 2108.38,336.203 2112.75,329.685 2117.11,319.83 2121.47,310.872 2125.84,300.228 2130.2,287.699 2134.57,272.148 2138.93,256.923 2143.29,239.325 2147.66,226.642 2152.02,217.872 2156.39,209.567 2160.75,197.072 2165.11,182.78 2169.48,175.187 2173.84,166.081 2178.2,159.633 2182.57,148.259 2186.93,135.877 2191.3,124.073 2195.66,114.211 2200.02,103.875 2204.39,93.9293 2208.75,87.741 2213.11,86.1857 2217.48,89.6658 2221.84,90.2114 2226.21,91.074 2230.57,93.4913 2234.93,98.0009 2239.3,101.902 2243.66,106.897 2248.02,115.946 2252.39,128.619 2256.75,133.874 2261.12,147.556 2265.48,161.936 2269.84,180.935 2274.21,198.888 2278.57,216.791 2282.94,229.802 2287.3,236.47 2291.66,246.002 2296.03,255.291 2300.39,261.652 2304.75,267.69 2309.12,269.982 2313.48,273.504 2317.85,277.574 2322.21,284.129 2326.57,287.83 2330.94,287.078 2335.3,287.298 2339.66,286.191 2344.03,283.708 2348.39,282.688 2352.76,281.338 "/>
<path clip-path="url(#clip470)" d="M243.587 248.629 L550.874 248.629 L550.874 93.1086 L243.587 93.1086  Z" fill="#ffffff" fill-rule="evenodd" fill-opacity="1"/>
<polyline clip-path="url(#clip470)" style="stroke:#000000; stroke-linecap:round; stroke-linejoin:round; stroke-width:4; stroke-opacity:1; fill:none" points="243.587,248.629 550.874,248.629 550.874,93.1086 243.587,93.1086 243.587,248.629 "/>
<polyline clip-path="url(#clip470)" style="stroke:#009af9; stroke-linecap:round; stroke-linejoin:round; stroke-width:4; stroke-opacity:1; fill:none" points="267.831,144.949 413.291,144.949 "/>
<path clip-path="url(#clip470)" d="M437.534 151.997 L437.534 136.303 L441.793 136.303 L441.793 151.835 Q441.793 155.516 443.228 157.368 Q444.663 159.196 447.534 159.196 Q450.983 159.196 452.974 156.997 Q454.988 154.798 454.988 151.002 L454.988 136.303 L459.247 136.303 L459.247 162.229 L454.988 162.229 L454.988 158.247 Q453.437 160.608 451.376 161.766 Q449.339 162.9 446.631 162.9 Q442.164 162.9 439.849 160.122 Q437.534 157.344 437.534 151.997 M448.251 135.678 L448.251 135.678 Z" fill="#000000" fill-rule="nonzero" fill-opacity="1" /><path clip-path="url(#clip470)" d="M467.626 126.21 L477.441 126.21 L477.441 129.52 L471.886 129.52 L471.886 165.168 L477.441 165.168 L477.441 168.479 L467.626 168.479 L467.626 126.21 Z" fill="#000000" fill-rule="nonzero" fill-opacity="1" /><path clip-path="url(#clip470)" d="M487.927 158.293 L495.566 158.293 L495.566 131.928 L487.256 133.595 L487.256 129.335 L495.52 127.669 L500.196 127.669 L500.196 158.293 L507.834 158.293 L507.834 162.229 L487.927 162.229 L487.927 158.293 Z" fill="#000000" fill-rule="nonzero" fill-opacity="1" /><path clip-path="url(#clip470)" d="M526.631 126.21 L526.631 168.479 L516.816 168.479 L516.816 165.168 L522.348 165.168 L522.348 129.52 L516.816 129.52 L516.816 126.21 L526.631 126.21 Z" fill="#000000" fill-rule="nonzero" fill-opacity="1" /><polyline clip-path="url(#clip470)" style="stroke:#e26f46; stroke-linecap:round; stroke-linejoin:round; stroke-width:4; stroke-opacity:1; fill:none" points="267.831,196.789 413.291,196.789 "/>
<path clip-path="url(#clip470)" d="M437.534 203.837 L437.534 188.143 L441.793 188.143 L441.793 203.675 Q441.793 207.356 443.228 209.208 Q444.663 211.036 447.534 211.036 Q450.983 211.036 452.974 208.837 Q454.988 206.638 454.988 202.842 L454.988 188.143 L459.247 188.143 L459.247 214.069 L454.988 214.069 L454.988 210.087 Q453.437 212.448 451.376 213.606 Q449.339 214.74 446.631 214.74 Q442.164 214.74 439.849 211.962 Q437.534 209.184 437.534 203.837 M448.251 187.518 L448.251 187.518 Z" fill="#000000" fill-rule="nonzero" fill-opacity="1" /><path clip-path="url(#clip470)" d="M467.626 178.05 L477.441 178.05 L477.441 181.36 L471.886 181.36 L471.886 217.008 L477.441 217.008 L477.441 220.319 L467.626 220.319 L467.626 178.05 Z" fill="#000000" fill-rule="nonzero" fill-opacity="1" /><path clip-path="url(#clip470)" d="M491.145 210.133 L507.464 210.133 L507.464 214.069 L485.52 214.069 L485.52 210.133 Q488.182 207.379 492.765 202.749 Q497.372 198.096 498.552 196.754 Q500.797 194.231 501.677 192.495 Q502.58 190.735 502.58 189.046 Q502.58 186.291 500.635 184.555 Q498.714 182.819 495.612 182.819 Q493.413 182.819 490.96 183.583 Q488.529 184.347 485.751 185.897 L485.751 181.175 Q488.575 180.041 491.029 179.462 Q493.483 178.884 495.52 178.884 Q500.89 178.884 504.084 181.569 Q507.279 184.254 507.279 188.745 Q507.279 190.874 506.469 192.796 Q505.682 194.694 503.575 197.286 Q502.997 197.958 499.895 201.175 Q496.793 204.37 491.145 210.133 Z" fill="#000000" fill-rule="nonzero" fill-opacity="1" /><path clip-path="url(#clip470)" d="M526.631 178.05 L526.631 220.319 L516.816 220.319 L516.816 217.008 L522.348 217.008 L522.348 181.36 L516.816 181.36 L516.816 178.05 L526.631 178.05 Z" fill="#000000" fill-rule="nonzero" fill-opacity="1" /></svg>
