<?xml version="1.0" encoding="utf-8"?>
<svg xmlns="http://www.w3.org/2000/svg" xmlns:xlink="http://www.w3.org/1999/xlink" width="600" height="400" viewBox="0 0 2400 1600">
<defs>
  <clipPath id="clip210">
    <rect x="0" y="0" width="2400" height="1600"/>
  </clipPath>
</defs>
<path clip-path="url(#clip210)" d="M0 1600 L2400 1600 L2400 0 L0 0  Z" fill="#ffffff" fill-rule="evenodd" fill-opacity="1"/>
<defs>
  <clipPath id="clip211">
    <rect x="480" y="0" width="1681" height="1600"/>
  </clipPath>
</defs>
<path clip-path="url(#clip210)" d="M141.853 1423.18 L2352.76 1423.18 L2352.76 47.2441 L141.853 47.2441  Z" fill="#ffffff" fill-rule="evenodd" fill-opacity="1"/>
<defs>
  <clipPath id="clip212">
    <rect x="141" y="47" width="2212" height="1377"/>
  </clipPath>
</defs>
<polyline clip-path="url(#clip212)" style="stroke:#000000; stroke-linecap:round; stroke-linejoin:round; stroke-width:2; stroke-opacity:0.1; fill:none" points="141.853,1423.18 141.853,47.2441 "/>
<polyline clip-path="url(#clip212)" style="stroke:#000000; stroke-linecap:round; stroke-linejoin:round; stroke-width:2; stroke-opacity:0.1; fill:none" points="584.034,1423.18 584.034,47.2441 "/>
<polyline clip-path="url(#clip212)" style="stroke:#000000; stroke-linecap:round; stroke-linejoin:round; stroke-width:2; stroke-opacity:0.1; fill:none" points="1026.21,1423.18 1026.21,47.2441 "/>
<polyline clip-path="url(#clip212)" style="stroke:#000000; stroke-linecap:round; stroke-linejoin:round; stroke-width:2; stroke-opacity:0.1; fill:none" points="1468.39,1423.18 1468.39,47.2441 "/>
<polyline clip-path="url(#clip212)" style="stroke:#000000; stroke-linecap:round; stroke-linejoin:round; stroke-width:2; stroke-opacity:0.1; fill:none" points="1910.58,1423.18 1910.58,47.2441 "/>
<polyline clip-path="url(#clip212)" style="stroke:#000000; stroke-linecap:round; stroke-linejoin:round; stroke-width:2; stroke-opacity:0.1; fill:none" points="2352.76,1423.18 2352.76,47.2441 "/>
<polyline clip-path="url(#clip212)" style="stroke:#000000; stroke-linecap:round; stroke-linejoin:round; stroke-width:2; stroke-opacity:0.1; fill:none" points="141.853,1384.4 2352.76,1384.4 "/>
<polyline clip-path="url(#clip212)" style="stroke:#000000; stroke-linecap:round; stroke-linejoin:round; stroke-width:2; stroke-opacity:0.1; fill:none" points="141.853,1120.59 2352.76,1120.59 "/>
<polyline clip-path="url(#clip212)" style="stroke:#000000; stroke-linecap:round; stroke-linejoin:round; stroke-width:2; stroke-opacity:0.1; fill:none" points="141.853,856.79 2352.76,856.79 "/>
<polyline clip-path="url(#clip212)" style="stroke:#000000; stroke-linecap:round; stroke-linejoin:round; stroke-width:2; stroke-opacity:0.1; fill:none" points="141.853,592.986 2352.76,592.986 "/>
<polyline clip-path="url(#clip212)" style="stroke:#000000; stroke-linecap:round; stroke-linejoin:round; stroke-width:2; stroke-opacity:0.1; fill:none" points="141.853,329.182 2352.76,329.182 "/>
<polyline clip-path="url(#clip212)" style="stroke:#000000; stroke-linecap:round; stroke-linejoin:round; stroke-width:2; stroke-opacity:0.1; fill:none" points="141.853,65.3782 2352.76,65.3782 "/>
<polyline clip-path="url(#clip210)" style="stroke:#000000; stroke-linecap:round; stroke-linejoin:round; stroke-width:4; stroke-opacity:1; fill:none" points="141.853,1423.18 2352.76,1423.18 "/>
<polyline clip-path="url(#clip210)" style="stroke:#000000; stroke-linecap:round; stroke-linejoin:round; stroke-width:4; stroke-opacity:1; fill:none" points="141.853,1423.18 141.853,1404.28 "/>
<polyline clip-path="url(#clip210)" style="stroke:#000000; stroke-linecap:round; stroke-linejoin:round; stroke-width:4; stroke-opacity:1; fill:none" points="584.034,1423.18 584.034,1404.28 "/>
<polyline clip-path="url(#clip210)" style="stroke:#000000; stroke-linecap:round; stroke-linejoin:round; stroke-width:4; stroke-opacity:1; fill:none" points="1026.21,1423.18 1026.21,1404.28 "/>
<polyline clip-path="url(#clip210)" style="stroke:#000000; stroke-linecap:round; stroke-linejoin:round; stroke-width:4; stroke-opacity:1; fill:none" points="1468.39,1423.18 1468.39,1404.28 "/>
<polyline clip-path="url(#clip210)" style="stroke:#000000; stroke-linecap:round; stroke-linejoin:round; stroke-width:4; stroke-opacity:1; fill:none" points="1910.58,1423.18 1910.58,1404.28 "/>
<polyline clip-path="url(#clip210)" style="stroke:#000000; stroke-linecap:round; stroke-linejoin:round; stroke-width:4; stroke-opacity:1; fill:none" points="2352.76,1423.18 2352.76,1404.28 "/>
<path clip-path="url(#clip210)" d="M141.853 1454.1 Q138.242 1454.1 136.413 1457.66 Q134.608 1461.2 134.608 1468.33 Q134.608 1475.44 136.413 1479.01 Q138.242 1482.55 141.853 1482.55 Q145.487 1482.55 147.293 1479.01 Q149.121 1475.44 149.121 1468.33 Q149.121 1461.2 147.293 1457.66 Q145.487 1454.1 141.853 1454.1 M141.853 1450.39 Q147.663 1450.39 150.719 1455 Q153.797 1459.58 153.797 1468.33 Q153.797 1477.06 150.719 1481.67 Q147.663 1486.25 141.853 1486.25 Q136.043 1486.25 132.964 1481.67 Q129.909 1477.06 129.909 1468.33 Q129.909 1459.58 132.964 1455 Q136.043 1450.39 141.853 1450.39 Z" fill="#000000" fill-rule="nonzero" fill-opacity="1" /><path clip-path="url(#clip210)" d="M574.416 1481.64 L582.054 1481.64 L582.054 1455.28 L573.744 1456.95 L573.744 1452.69 L582.008 1451.02 L586.684 1451.02 L586.684 1481.64 L594.323 1481.64 L594.323 1485.58 L574.416 1485.58 L574.416 1481.64 Z" fill="#000000" fill-rule="nonzero" fill-opacity="1" /><path clip-path="url(#clip210)" d="M1020.87 1481.64 L1037.19 1481.64 L1037.19 1485.58 L1015.24 1485.58 L1015.24 1481.64 Q1017.9 1478.89 1022.49 1474.26 Q1027.09 1469.61 1028.27 1468.27 Q1030.52 1465.74 1031.4 1464.01 Q1032.3 1462.25 1032.3 1460.56 Q1032.3 1457.8 1030.36 1456.07 Q1028.44 1454.33 1025.33 1454.33 Q1023.14 1454.33 1020.68 1455.09 Q1018.25 1455.86 1015.47 1457.41 L1015.47 1452.69 Q1018.3 1451.55 1020.75 1450.97 Q1023.2 1450.39 1025.24 1450.39 Q1030.61 1450.39 1033.81 1453.08 Q1037 1455.77 1037 1460.26 Q1037 1462.39 1036.19 1464.31 Q1035.4 1466.2 1033.3 1468.8 Q1032.72 1469.47 1029.62 1472.69 Q1026.52 1475.88 1020.87 1481.64 Z" fill="#000000" fill-rule="nonzero" fill-opacity="1" /><path clip-path="url(#clip210)" d="M1472.64 1466.95 Q1476 1467.66 1477.87 1469.93 Q1479.77 1472.2 1479.77 1475.53 Q1479.77 1480.65 1476.25 1483.45 Q1472.73 1486.25 1466.25 1486.25 Q1464.08 1486.25 1461.76 1485.81 Q1459.47 1485.39 1457.02 1484.54 L1457.02 1480.02 Q1458.96 1481.16 1461.28 1481.74 Q1463.59 1482.32 1466.11 1482.32 Q1470.51 1482.32 1472.8 1480.58 Q1475.12 1478.84 1475.12 1475.53 Q1475.12 1472.48 1472.97 1470.77 Q1470.84 1469.03 1467.02 1469.03 L1462.99 1469.03 L1462.99 1465.19 L1467.2 1465.19 Q1470.65 1465.19 1472.48 1463.82 Q1474.31 1462.43 1474.31 1459.84 Q1474.31 1457.18 1472.41 1455.77 Q1470.54 1454.33 1467.02 1454.33 Q1465.1 1454.33 1462.9 1454.75 Q1460.7 1455.16 1458.06 1456.04 L1458.06 1451.88 Q1460.72 1451.14 1463.04 1450.77 Q1465.37 1450.39 1467.43 1450.39 Q1472.76 1450.39 1475.86 1452.83 Q1478.96 1455.23 1478.96 1459.35 Q1478.96 1462.22 1477.32 1464.21 Q1475.67 1466.18 1472.64 1466.95 Z" fill="#000000" fill-rule="nonzero" fill-opacity="1" /><path clip-path="url(#clip210)" d="M1913.58 1455.09 L1901.78 1473.54 L1913.58 1473.54 L1913.58 1455.09 M1912.36 1451.02 L1918.24 1451.02 L1918.24 1473.54 L1923.17 1473.54 L1923.17 1477.43 L1918.24 1477.43 L1918.24 1485.58 L1913.58 1485.58 L1913.58 1477.43 L1897.98 1477.43 L1897.98 1472.92 L1912.36 1451.02 Z" fill="#000000" fill-rule="nonzero" fill-opacity="1" /><path clip-path="url(#clip210)" d="M2343.03 1451.02 L2361.39 1451.02 L2361.39 1454.96 L2347.32 1454.96 L2347.32 1463.43 Q2348.33 1463.08 2349.35 1462.92 Q2350.37 1462.73 2351.39 1462.73 Q2357.18 1462.73 2360.56 1465.9 Q2363.94 1469.08 2363.94 1474.49 Q2363.94 1480.07 2360.46 1483.17 Q2356.99 1486.25 2350.67 1486.25 Q2348.5 1486.25 2346.23 1485.88 Q2343.98 1485.51 2341.58 1484.77 L2341.58 1480.07 Q2343.66 1481.2 2345.88 1481.76 Q2348.1 1482.32 2350.58 1482.32 Q2354.58 1482.32 2356.92 1480.21 Q2359.26 1478.1 2359.26 1474.49 Q2359.26 1470.88 2356.92 1468.77 Q2354.58 1466.67 2350.58 1466.67 Q2348.71 1466.67 2346.83 1467.08 Q2344.98 1467.5 2343.03 1468.38 L2343.03 1451.02 Z" fill="#000000" fill-rule="nonzero" fill-opacity="1" /><path clip-path="url(#clip210)" d="M1246.37 1522.27 L1246.37 1532.4 L1258.43 1532.4 L1258.43 1536.95 L1246.37 1536.95 L1246.37 1556.3 Q1246.37 1560.66 1247.54 1561.9 Q1248.75 1563.14 1252.41 1563.14 L1258.43 1563.14 L1258.43 1568.04 L1252.41 1568.04 Q1245.63 1568.04 1243.06 1565.53 Q1240.48 1562.98 1240.48 1556.3 L1240.48 1536.95 L1236.18 1536.95 L1236.18 1532.4 L1240.48 1532.4 L1240.48 1522.27 L1246.37 1522.27 Z" fill="#000000" fill-rule="nonzero" fill-opacity="1" /><polyline clip-path="url(#clip210)" style="stroke:#000000; stroke-linecap:round; stroke-linejoin:round; stroke-width:4; stroke-opacity:1; fill:none" points="141.853,1423.18 141.853,47.2441 "/>
<polyline clip-path="url(#clip210)" style="stroke:#000000; stroke-linecap:round; stroke-linejoin:round; stroke-width:4; stroke-opacity:1; fill:none" points="141.853,1384.4 160.751,1384.4 "/>
<polyline clip-path="url(#clip210)" style="stroke:#000000; stroke-linecap:round; stroke-linejoin:round; stroke-width:4; stroke-opacity:1; fill:none" points="141.853,1120.59 160.751,1120.59 "/>
<polyline clip-path="url(#clip210)" style="stroke:#000000; stroke-linecap:round; stroke-linejoin:round; stroke-width:4; stroke-opacity:1; fill:none" points="141.853,856.79 160.751,856.79 "/>
<polyline clip-path="url(#clip210)" style="stroke:#000000; stroke-linecap:round; stroke-linejoin:round; stroke-width:4; stroke-opacity:1; fill:none" points="141.853,592.986 160.751,592.986 "/>
<polyline clip-path="url(#clip210)" style="stroke:#000000; stroke-linecap:round; stroke-linejoin:round; stroke-width:4; stroke-opacity:1; fill:none" points="141.853,329.182 160.751,329.182 "/>
<polyline clip-path="url(#clip210)" style="stroke:#000000; stroke-linecap:round; stroke-linejoin:round; stroke-width:4; stroke-opacity:1; fill:none" points="141.853,65.3782 160.751,65.3782 "/>
<path clip-path="url(#clip210)" d="M93.9086 1370.2 Q90.2975 1370.2 88.4688 1373.76 Q86.6632 1377.3 86.6632 1384.43 Q86.6632 1391.54 88.4688 1395.1 Q90.2975 1398.65 93.9086 1398.65 Q97.5428 1398.65 99.3483 1395.1 Q101.177 1391.54 101.177 1384.43 Q101.177 1377.3 99.3483 1373.76 Q97.5428 1370.2 93.9086 1370.2 M93.9086 1366.49 Q99.7187 1366.49 102.774 1371.1 Q105.853 1375.68 105.853 1384.43 Q105.853 1393.16 102.774 1397.77 Q99.7187 1402.35 93.9086 1402.35 Q88.0984 1402.35 85.0197 1397.77 Q81.9642 1393.16 81.9642 1384.43 Q81.9642 1375.68 85.0197 1371.1 Q88.0984 1366.49 93.9086 1366.49 Z" fill="#000000" fill-rule="nonzero" fill-opacity="1" /><path clip-path="url(#clip210)" d="M54.5569 1133.94 L62.1958 1133.94 L62.1958 1107.57 L53.8856 1109.24 L53.8856 1104.98 L62.1495 1103.31 L66.8254 1103.31 L66.8254 1133.94 L74.4642 1133.94 L74.4642 1137.87 L54.5569 1137.87 L54.5569 1133.94 Z" fill="#000000" fill-rule="nonzero" fill-opacity="1" /><path clip-path="url(#clip210)" d="M93.9086 1106.39 Q90.2975 1106.39 88.4688 1109.96 Q86.6632 1113.5 86.6632 1120.63 Q86.6632 1127.74 88.4688 1131.3 Q90.2975 1134.84 93.9086 1134.84 Q97.5428 1134.84 99.3483 1131.3 Q101.177 1127.74 101.177 1120.63 Q101.177 1113.5 99.3483 1109.96 Q97.5428 1106.39 93.9086 1106.39 M93.9086 1102.69 Q99.7187 1102.69 102.774 1107.3 Q105.853 1111.88 105.853 1120.63 Q105.853 1129.36 102.774 1133.96 Q99.7187 1138.55 93.9086 1138.55 Q88.0984 1138.55 85.0197 1133.96 Q81.9642 1129.36 81.9642 1120.63 Q81.9642 1111.88 85.0197 1107.3 Q88.0984 1102.69 93.9086 1102.69 Z" fill="#000000" fill-rule="nonzero" fill-opacity="1" /><path clip-path="url(#clip210)" d="M57.7745 870.135 L74.0939 870.135 L74.0939 874.07 L52.1495 874.07 L52.1495 870.135 Q54.8115 867.381 59.3949 862.751 Q64.0013 858.098 65.1819 856.756 Q67.4272 854.233 68.3068 852.496 Q69.2096 850.737 69.2096 849.047 Q69.2096 846.293 67.2652 844.557 Q65.3439 842.821 62.2421 842.821 Q60.043 842.821 57.5893 843.584 Q55.1588 844.348 52.381 845.899 L52.381 841.177 Q55.2051 840.043 57.6588 839.464 Q60.1124 838.885 62.1495 838.885 Q67.5198 838.885 70.7142 841.571 Q73.9087 844.256 73.9087 848.746 Q73.9087 850.876 73.0985 852.797 Q72.3115 854.695 70.205 857.288 Q69.6263 857.959 66.5245 861.177 Q63.4226 864.371 57.7745 870.135 Z" fill="#000000" fill-rule="nonzero" fill-opacity="1" /><path clip-path="url(#clip210)" d="M93.9086 842.589 Q90.2975 842.589 88.4688 846.154 Q86.6632 849.696 86.6632 856.825 Q86.6632 863.932 88.4688 867.496 Q90.2975 871.038 93.9086 871.038 Q97.5428 871.038 99.3483 867.496 Q101.177 863.932 101.177 856.825 Q101.177 849.696 99.3483 846.154 Q97.5428 842.589 93.9086 842.589 M93.9086 838.885 Q99.7187 838.885 102.774 843.492 Q105.853 848.075 105.853 856.825 Q105.853 865.552 102.774 870.158 Q99.7187 874.742 93.9086 874.742 Q88.0984 874.742 85.0197 870.158 Q81.9642 865.552 81.9642 856.825 Q81.9642 848.075 85.0197 843.492 Q88.0984 838.885 93.9086 838.885 Z" fill="#000000" fill-rule="nonzero" fill-opacity="1" /><path clip-path="url(#clip210)" d="M67.9133 591.632 Q71.2698 592.35 73.1448 594.618 Q75.0429 596.887 75.0429 600.22 Q75.0429 605.336 71.5244 608.137 Q68.0059 610.938 61.5245 610.938 Q59.3486 610.938 57.0338 610.498 Q54.7421 610.081 52.2884 609.225 L52.2884 604.711 Q54.2328 605.845 56.5477 606.424 Q58.8625 607.002 61.3856 607.002 Q65.7837 607.002 68.0754 605.266 Q70.3902 603.53 70.3902 600.22 Q70.3902 597.165 68.2374 595.452 Q66.1078 593.715 62.2884 593.715 L58.2606 593.715 L58.2606 589.873 L62.4735 589.873 Q65.9226 589.873 67.7513 588.507 Q69.58 587.118 69.58 584.526 Q69.58 581.864 67.6819 580.452 Q65.8069 579.016 62.2884 579.016 Q60.3671 579.016 58.168 579.433 Q55.969 579.85 53.3301 580.729 L53.3301 576.563 Q55.9921 575.822 58.3069 575.452 Q60.6449 575.081 62.705 575.081 Q68.0291 575.081 71.1309 577.512 Q74.2327 579.919 74.2327 584.04 Q74.2327 586.91 72.5892 588.901 Q70.9457 590.868 67.9133 591.632 Z" fill="#000000" fill-rule="nonzero" fill-opacity="1" /><path clip-path="url(#clip210)" d="M93.9086 578.785 Q90.2975 578.785 88.4688 582.35 Q86.6632 585.891 86.6632 593.021 Q86.6632 600.127 88.4688 603.692 Q90.2975 607.234 93.9086 607.234 Q97.5428 607.234 99.3483 603.692 Q101.177 600.127 101.177 593.021 Q101.177 585.891 99.3483 582.35 Q97.5428 578.785 93.9086 578.785 M93.9086 575.081 Q99.7187 575.081 102.774 579.688 Q105.853 584.271 105.853 593.021 Q105.853 601.748 102.774 606.354 Q99.7187 610.938 93.9086 610.938 Q88.0984 610.938 85.0197 606.354 Q81.9642 601.748 81.9642 593.021 Q81.9642 584.271 85.0197 579.688 Q88.0984 575.081 93.9086 575.081 Z" fill="#000000" fill-rule="nonzero" fill-opacity="1" /><path clip-path="url(#clip210)" d="M66.5939 315.976 L54.7884 334.425 L66.5939 334.425 L66.5939 315.976 M65.367 311.902 L71.2466 311.902 L71.2466 334.425 L76.1772 334.425 L76.1772 338.314 L71.2466 338.314 L71.2466 346.462 L66.5939 346.462 L66.5939 338.314 L50.9921 338.314 L50.9921 333.8 L65.367 311.902 Z" fill="#000000" fill-rule="nonzero" fill-opacity="1" /><path clip-path="url(#clip210)" d="M93.9086 314.981 Q90.2975 314.981 88.4688 318.546 Q86.6632 322.087 86.6632 329.217 Q86.6632 336.323 88.4688 339.888 Q90.2975 343.43 93.9086 343.43 Q97.5428 343.43 99.3483 339.888 Q101.177 336.323 101.177 329.217 Q101.177 322.087 99.3483 318.546 Q97.5428 314.981 93.9086 314.981 M93.9086 311.277 Q99.7187 311.277 102.774 315.884 Q105.853 320.467 105.853 329.217 Q105.853 337.944 102.774 342.55 Q99.7187 347.134 93.9086 347.134 Q88.0984 347.134 85.0197 342.55 Q81.9642 337.944 81.9642 329.217 Q81.9642 320.467 85.0197 315.884 Q88.0984 311.277 93.9086 311.277 Z" fill="#000000" fill-rule="nonzero" fill-opacity="1" /><path clip-path="url(#clip210)" d="M53.793 48.0982 L72.1494 48.0982 L72.1494 52.0334 L58.0754 52.0334 L58.0754 60.5056 Q59.0939 60.1583 60.1124 59.9963 Q61.131 59.8111 62.1495 59.8111 Q67.9365 59.8111 71.3161 62.9824 Q74.6957 66.1537 74.6957 71.5703 Q74.6957 77.149 71.2235 80.2508 Q67.7513 83.3295 61.4319 83.3295 Q59.256 83.3295 56.9875 82.9591 Q54.7421 82.5888 52.3347 81.848 L52.3347 77.149 Q54.418 78.2832 56.6402 78.8388 Q58.8625 79.3943 61.3393 79.3943 Q65.3439 79.3943 67.6819 77.2879 Q70.0198 75.1814 70.0198 71.5703 Q70.0198 67.9592 67.6819 65.8528 Q65.3439 63.7463 61.3393 63.7463 Q59.4643 63.7463 57.5893 64.1629 Q55.7375 64.5796 53.793 65.4592 L53.793 48.0982 Z" fill="#000000" fill-rule="nonzero" fill-opacity="1" /><path clip-path="url(#clip210)" d="M93.9086 51.1769 Q90.2975 51.1769 88.4688 54.7417 Q86.6632 58.2834 86.6632 65.4129 Q86.6632 72.5194 88.4688 76.0842 Q90.2975 79.6258 93.9086 79.6258 Q97.5428 79.6258 99.3483 76.0842 Q101.177 72.5194 101.177 65.4129 Q101.177 58.2834 99.3483 54.7417 Q97.5428 51.1769 93.9086 51.1769 M93.9086 47.4732 Q99.7187 47.4732 102.774 52.0797 Q105.853 56.663 105.853 65.4129 Q105.853 74.1397 102.774 78.7462 Q99.7187 83.3295 93.9086 83.3295 Q88.0984 83.3295 85.0197 78.7462 Q81.9642 74.1397 81.9642 65.4129 Q81.9642 56.663 85.0197 52.0797 Q88.0984 47.4732 93.9086 47.4732 Z" fill="#000000" fill-rule="nonzero" fill-opacity="1" /><polyline clip-path="url(#clip212)" style="stroke:#009af9; stroke-linecap:round; stroke-linejoin:round; stroke-width:4; stroke-opacity:1; fill:none" points="141.853,1358.02 146.275,1358.02 150.697,1358.02 155.118,1358.01 159.54,1358.04 163.962,1358.06 168.384,1358.06 172.806,1358.05 177.227,1358.04 181.649,1358.03 186.071,1358.01 190.493,1357.98 194.915,1357.9 199.336,1357.84 203.758,1357.78 208.18,1357.63 212.602,1357.52 217.024,1357.46 221.445,1357.36 225.867,1357.26 230.289,1357.17 234.711,1357.16 239.133,1357.05 243.554,1356.91 247.976,1356.89 252.398,1356.89 256.82,1356.86 261.242,1356.9 265.664,1357 270.085,1357.08 274.507,1357.13 278.929,1357.13 283.351,1357.14 287.773,1357.1 292.194,1357.11 296.616,1357.14 301.038,1357.23 305.46,1357.35 309.882,1357.5 314.303,1357.68 318.725,1357.78 323.147,1357.85 327.569,1357.9 331.991,1357.92 336.412,1357.93 340.834,1357.93 345.256,1357.92 349.678,1357.91 354.1,1357.9 358.521,1357.88 362.943,1357.89 367.365,1357.89 371.787,1357.89 376.209,1357.89 380.63,1357.88 385.052,1357.88 389.474,1357.88 393.896,1357.88 398.318,1357.88 402.739,1357.86 407.161,1357.84 411.583,1357.86 416.005,1357.87 420.427,1357.91 424.849,1357.96 429.27,1357.99 433.692,1358.02 438.114,1358.03 442.536,1358.04 446.958,1358.02 451.379,1357.95 455.801,1357.89 460.223,1357.88 464.645,1357.91 469.067,1357.96 473.488,1357.98 477.91,1358.05 482.332,1358.13 486.754,1358.23 491.176,1358.27 495.597,1358.27 500.019,1358.31 504.441,1358.37 508.863,1358.43 513.285,1358.5 517.706,1358.52 522.128,1358.6 526.55,1358.72 530.972,1358.81 535.394,1358.93 539.815,1359.04 544.237,1359.17 548.659,1359.27 553.081,1359.38 557.503,1359.53 561.925,1359.72 566.346,1359.87 570.768,1360 575.19,1360.06 579.612,1360.14 584.034,1360.23 588.455,1360.31 592.877,1360.38 597.299,1360.43 601.721,1360.51 606.143,1360.59 610.564,1360.71 614.986,1360.74 619.408,1360.78 623.83,1360.85 628.252,1360.87 632.673,1360.81 637.095,1360.78 641.517,1360.71 645.939,1360.57 650.361,1360.44 654.782,1360.27 659.204,1360.17 663.626,1360.05 668.048,1359.91 672.47,1359.71 676.891,1359.51 681.313,1359.29 685.735,1359.1 690.157,1359.01 694.579,1358.94 699,1358.74 703.422,1358.53 707.844,1358.34 712.266,1358.08 716.688,1357.76 721.11,1357.38 725.531,1356.86 729.953,1356.32 734.375,1355.81 738.797,1355.27 743.219,1354.74 747.64,1354.16 752.062,1353.58 756.484,1353.01 760.906,1352.45 765.328,1351.94 769.749,1351.42 774.171,1350.87 778.593,1350.31 783.015,1349.72 787.437,1349.12 791.858,1348.36 796.28,1347.46 800.702,1346.5 805.124,1345.57 809.546,1344.53 813.967,1343.64 818.389,1342.66 822.811,1341.78 827.233,1340.89 831.655,1339.89 836.076,1338.96 840.498,1337.97 844.92,1336.93 849.342,1335.88 853.764,1335.13 858.186,1334.38 862.607,1333.87 867.029,1333.1 871.451,1332.41 875.873,1331.99 880.295,1331.36 884.716,1330.61 889.138,1329.86 893.56,1329.1 897.982,1328.29 902.404,1327.47 906.825,1326.7 911.247,1325.95 915.669,1325.45 920.091,1325.2 924.513,1325.19 928.934,1325.13 933.356,1325.17 937.778,1325.18 942.2,1324.77 946.622,1324.36 951.043,1323.87 955.465,1323.04 959.887,1322.07 964.309,1320.91 968.731,1319.83 973.152,1319.12 977.574,1318.31 981.996,1317.45 986.418,1316.17 990.84,1314.76 995.261,1313.62 999.683,1312.36 1004.11,1311.04 1008.53,1309.62 1012.95,1308.18 1017.37,1306.54 1021.79,1305 1026.21,1303.47 1030.64,1301.67 1035.06,1299.99 1039.48,1298.56 1043.9,1297.1 1048.32,1296.24 1052.74,1295.21 1057.17,1293.93 1061.59,1292.01 1066.01,1289.73 1070.43,1287.24 1074.85,1284.28 1079.28,1281.11 1083.7,1277.78 1088.12,1274.61 1092.54,1271.03 1096.96,1267.49 1101.38,1263.82 1105.81,1260.05 1110.23,1256.03 1114.65,1252.12 1119.07,1247.99 1123.49,1243.65 1127.92,1239.05 1132.34,1233.87 1136.76,1228.12 1141.18,1221.74 1145.6,1215.46 1150.02,1209.33 1154.45,1203.71 1158.87,1197.96 1163.29,1191.97 1167.71,1186.35 1172.13,1180.88 1176.56,1175.39 1180.98,1169.44 1185.4,1163.5 1189.82,1156.48 1194.24,1150.67 1198.66,1144.9 1203.09,1139.97 1207.51,1135.01 1211.93,1129.68 1216.35,1124.23 1220.77,1119.1 1225.2,1114.72 1229.62,1110.2 1234.04,1106.52 1238.46,1102.3 1242.88,1097.95 1247.3,1092.63 1251.73,1086.82 1256.15,1080.74 1260.57,1074.43 1264.99,1067.62 1269.41,1060.42 1273.84,1052.4 1278.26,1044.45 1282.68,1036.45 1287.1,1027.43 1291.52,1018.05 1295.94,1008.1 1300.37,998.169 1304.79,988.285 1309.21,977.966 1313.63,968.231 1318.05,958.655 1322.48,949.48 1326.9,941.137 1331.32,933.777 1335.74,926.469 1340.16,919.349 1344.58,912.364 1349.01,905.396 1353.43,898.779 1357.85,891.705 1362.27,885.111 1366.69,878.196 1371.11,870.695 1375.54,861.813 1379.96,851.958 1384.38,841.81 1388.8,829.043 1393.22,815.266 1397.65,801.842 1402.07,787.037 1406.49,771.052 1410.91,755.219 1415.33,738.755 1419.75,723.632 1424.18,706.573 1428.6,687.137 1433.02,669.07 1437.44,653.323 1441.86,639.668 1446.29,629.817 1450.71,620.279 1455.13,615.912 1459.55,611.854 1463.97,614.482 1468.39,612.951 1472.82,613.466 1477.24,616.096 1481.66,619.049 1486.08,624.361 1490.5,631.499 1494.93,638.503 1499.35,645.945 1503.77,652.79 1508.19,655.222 1512.61,661.399 1517.03,665.596 1521.46,668.163 1525.88,667.144 1530.3,664.584 1534.72,663.37 1539.14,664.47 1543.57,664.213 1547.99,662.599 1552.41,661.112 1556.83,658.344 1561.25,655.215 1565.67,650.426 1570.1,643.369 1574.52,638.502 1578.94,633.66 1583.36,632.507 1587.78,630.96 1592.21,626.64 1596.63,622.375 1601.05,620.076 1605.47,616.482 1609.89,612.732 1614.31,610.118 1618.74,608.011 1623.16,605.508 1627.58,603.086 1632,601.848 1636.42,601.561 1640.85,598.42 1645.27,595.002 1649.69,592.567 1654.11,589.604 1658.53,586.924 1662.95,584.553 1667.38,580.557 1671.8,575.517 1676.22,572.354 1680.64,568.143 1685.06,563.664 1689.49,558.753 1693.91,556.499 1698.33,553.957 1702.75,553.003 1707.17,550.35 1711.59,550.446 1716.02,552.423 1720.44,556.199 1724.86,563.826 1729.28,571.385 1733.7,576.584 1738.12,577.37 1742.55,579.436 1746.97,582.203 1751.39,584.077 1755.81,587.322 1760.23,590.947 1764.66,594.373 1769.08,596.571 1773.5,598.381 1777.92,598.04 1782.34,595.982 1786.76,593.802 1791.19,597.972 1795.61,600.997 1800.03,607.981 1804.45,616.378 1808.87,623.763 1813.3,623.003 1817.72,623.26 1822.14,625.378 1826.56,630.324 1830.98,632.391 1835.4,638.727 1839.83,638.92 1844.25,636.607 1848.67,634.079 1853.09,627.846 1857.51,623.252 1861.94,619.296 1866.36,615.351 1870.78,609.173 1875.2,604.215 1879.62,599.996 1884.04,594.583 1888.47,586.585 1892.89,577.601 1897.31,569.03 1901.73,562.682 1906.15,557.348 1910.58,551.31 1915,545.396 1919.42,540.742 1923.84,536.524 1928.26,532.58 1932.68,530.541 1937.11,528.08 1941.53,528.035 1945.95,526.526 1950.37,525.248 1954.79,523.427 1959.22,522.888 1963.64,522.696 1968.06,523.016 1972.48,522.726 1976.9,523.237 1981.32,524.927 1985.75,528.857 1990.17,530.203 1994.59,531.572 1999.01,530.603 2003.43,528.834 2007.86,528.993 2012.28,531.147 2016.7,530.649 2021.12,528.632 2025.54,525.319 2029.96,520.767 2034.39,517.496 2038.81,514.72 2043.23,508.953 2047.65,502.784 2052.07,492.914 2056.49,483.948 2060.92,474.353 2065.34,463.842 2069.76,455.593 2074.18,447.237 2078.6,439.604 2083.03,428.766 2087.45,424.616 2091.87,421.614 2096.29,415.942 2100.71,408.399 2105.13,399.665 2109.56,389.986 2113.98,381.594 2118.4,372.284 2122.82,364.272 2127.24,356.524 2131.67,350.762 2136.09,345.547 2140.51,338.903 2144.93,329.228 2149.35,316.467 2153.77,308.444 2158.2,300.712 2162.62,291.677 2167.04,278.401 2171.46,267.403 2175.88,260.563 2180.31,250.123 2184.73,237.509 2189.15,225.133 2193.57,217.992 2197.99,207.222 2202.41,198.834 2206.84,191.635 2211.26,180.896 2215.68,164.563 2220.1,150.475 2224.52,140.738 2228.95,130.184 2233.37,119.699 2237.79,110.222 2242.21,102.588 2246.63,96.625 2251.05,90.0537 2255.48,86.1857 2259.9,90.3499 2264.32,94.1361 2268.74,99.1433 2273.16,107.977 2277.59,116.18 2282.01,120.09 2286.43,123.017 2290.85,124.115 2295.27,122.801 2299.69,121.243 2304.12,121.162 2308.54,120.958 2312.96,121.155 2317.38,121.067 2321.8,120.72 2326.23,120.622 2330.65,120.46 2335.07,123.204 2339.49,126.274 2343.91,127.999 2348.33,129.364 2352.76,132.117 "/>
<polyline clip-path="url(#clip212)" style="stroke:#e26f46; stroke-linecap:round; stroke-linejoin:round; stroke-width:4; stroke-opacity:1; fill:none" points="141.853,1358.02 146.275,1358.55 150.697,1359.06 155.118,1359.57 159.54,1360.06 163.962,1360.54 168.384,1360.99 172.806,1361.44 177.227,1361.9 181.649,1362.35 186.071,1362.79 190.493,1363.22 194.915,1363.64 199.336,1364.04 203.758,1364.42 208.18,1364.74 212.602,1365.07 217.024,1365.37 221.445,1365.65 225.867,1365.88 230.289,1366.08 234.711,1366.29 239.133,1366.51 243.554,1366.75 247.976,1367.03 252.398,1367.31 256.82,1367.56 261.242,1367.81 265.664,1368.1 270.085,1368.37 274.507,1368.61 278.929,1368.87 283.351,1369.13 287.773,1369.38 292.194,1369.63 296.616,1369.85 301.038,1370.05 305.46,1370.23 309.882,1370.46 314.303,1370.71 318.725,1370.95 323.147,1371.2 327.569,1371.44 331.991,1371.65 336.412,1371.86 340.834,1372.06 345.256,1372.22 349.678,1372.37 354.1,1372.52 358.521,1372.64 362.943,1372.77 367.365,1372.91 371.787,1373.05 376.209,1373.21 380.63,1373.38 385.052,1373.53 389.474,1373.68 393.896,1373.81 398.318,1373.91 402.739,1374.03 407.161,1374.1 411.583,1374.14 416.005,1374.19 420.427,1374.23 424.849,1374.28 429.27,1374.36 433.692,1374.45 438.114,1374.53 442.536,1374.53 446.958,1374.56 451.379,1374.6 455.801,1374.67 460.223,1374.68 464.645,1374.71 469.067,1374.72 473.488,1374.69 477.91,1374.66 482.332,1374.64 486.754,1374.57 491.176,1374.53 495.597,1374.5 500.019,1374.53 504.441,1374.53 508.863,1374.57 513.285,1374.54 517.706,1374.58 522.128,1374.58 526.55,1374.57 530.972,1374.57 535.394,1374.63 539.815,1374.69 544.237,1374.8 548.659,1374.93 553.081,1375.03 557.503,1375.15 561.925,1375.3 566.346,1375.43 570.768,1375.56 575.19,1375.69 579.612,1375.81 584.034,1375.91 588.455,1375.97 592.877,1376.05 597.299,1376.1 601.721,1376.15 606.143,1376.23 610.564,1376.26 614.986,1376.33 619.408,1376.4 623.83,1376.45 628.252,1376.48 632.673,1376.52 637.095,1376.57 641.517,1376.63 645.939,1376.68 650.361,1376.77 654.782,1376.87 659.204,1376.96 663.626,1377.02 668.048,1377.08 672.47,1377.13 676.891,1377.2 681.313,1377.27 685.735,1377.32 690.157,1377.37 694.579,1377.46 699,1377.56 703.422,1377.66 707.844,1377.75 712.266,1377.85 716.688,1377.95 721.11,1378.04 725.531,1378.13 729.953,1378.21 734.375,1378.3 738.797,1378.39 743.219,1378.46 747.64,1378.53 752.062,1378.58 756.484,1378.62 760.906,1378.68 765.328,1378.75 769.749,1378.8 774.171,1378.85 778.593,1378.88 783.015,1378.94 787.437,1379.01 791.858,1379.07 796.28,1379.11 800.702,1379.17 805.124,1379.22 809.546,1379.27 813.967,1379.32 818.389,1379.37 822.811,1379.43 827.233,1379.49 831.655,1379.55 836.076,1379.6 840.498,1379.66 844.92,1379.7 849.342,1379.73 853.764,1379.78 858.186,1379.85 862.607,1379.91 867.029,1379.96 871.451,1380 875.873,1380.06 880.295,1380.11 884.716,1380.16 889.138,1380.2 893.56,1380.24 897.982,1380.27 902.404,1380.29 906.825,1380.3 911.247,1380.32 915.669,1380.33 920.091,1380.33 924.513,1380.33 928.934,1380.33 933.356,1380.34 937.778,1380.33 942.2,1380.35 946.622,1380.36 951.043,1380.39 955.465,1380.42 959.887,1380.46 964.309,1380.5 968.731,1380.53 973.152,1380.56 977.574,1380.58 981.996,1380.6 986.418,1380.64 990.84,1380.68 995.261,1380.71 999.683,1380.73 1004.11,1380.76 1008.53,1380.78 1012.95,1380.81 1017.37,1380.84 1021.79,1380.87 1026.21,1380.9 1030.64,1380.94 1035.06,1380.96 1039.48,1380.98 1043.9,1381 1048.32,1381.04 1052.74,1381.07 1057.17,1381.09 1061.59,1381.13 1066.01,1381.15 1070.43,1381.18 1074.85,1381.2 1079.28,1381.23 1083.7,1381.25 1088.12,1381.26 1092.54,1381.27 1096.96,1381.29 1101.38,1381.32 1105.81,1381.33 1110.23,1381.35 1114.65,1381.36 1119.07,1381.37 1123.49,1381.38 1127.92,1381.39 1132.34,1381.39 1136.76,1381.4 1141.18,1381.41 1145.6,1381.41 1150.02,1381.41 1154.45,1381.41 1158.87,1381.4 1163.29,1381.38 1167.71,1381.38 1172.13,1381.38 1176.56,1381.36 1180.98,1381.35 1185.4,1381.35 1189.82,1381.35 1194.24,1381.34 1198.66,1381.36 1203.09,1381.38 1207.51,1381.41 1211.93,1381.44 1216.35,1381.47 1220.77,1381.49 1225.2,1381.51 1229.62,1381.55 1234.04,1381.59 1238.46,1381.64 1242.88,1381.69 1247.3,1381.74 1251.73,1381.79 1256.15,1381.85 1260.57,1381.89 1264.99,1381.94 1269.41,1381.99 1273.84,1382.04 1278.26,1382.08 1282.68,1382.13 1287.1,1382.17 1291.52,1382.22 1295.94,1382.26 1300.37,1382.3 1304.79,1382.34 1309.21,1382.38 1313.63,1382.42 1318.05,1382.46 1322.48,1382.5 1326.9,1382.54 1331.32,1382.57 1335.74,1382.6 1340.16,1382.63 1344.58,1382.67 1349.01,1382.7 1353.43,1382.73 1357.85,1382.77 1362.27,1382.8 1366.69,1382.83 1371.11,1382.86 1375.54,1382.89 1379.96,1382.92 1384.38,1382.95 1388.8,1382.97 1393.22,1383 1397.65,1383.02 1402.07,1383.05 1406.49,1383.07 1410.91,1383.09 1415.33,1383.11 1419.75,1383.13 1424.18,1383.15 1428.6,1383.17 1433.02,1383.19 1437.44,1383.21 1441.86,1383.23 1446.29,1383.24 1450.71,1383.26 1455.13,1383.28 1459.55,1383.3 1463.97,1383.31 1468.39,1383.33 1472.82,1383.35 1477.24,1383.36 1481.66,1383.38 1486.08,1383.4 1490.5,1383.42 1494.93,1383.43 1499.35,1383.45 1503.77,1383.46 1508.19,1383.48 1512.61,1383.49 1517.03,1383.5 1521.46,1383.51 1525.88,1383.53 1530.3,1383.54 1534.72,1383.55 1539.14,1383.57 1543.57,1383.58 1547.99,1383.6 1552.41,1383.61 1556.83,1383.63 1561.25,1383.64 1565.67,1383.66 1570.1,1383.67 1574.52,1383.68 1578.94,1383.7 1583.36,1383.71 1587.78,1383.73 1592.21,1383.74 1596.63,1383.75 1601.05,1383.76 1605.47,1383.77 1609.89,1383.79 1614.31,1383.8 1618.74,1383.81 1623.16,1383.82 1627.58,1383.83 1632,1383.84 1636.42,1383.85 1640.85,1383.87 1645.27,1383.88 1649.69,1383.89 1654.11,1383.9 1658.53,1383.91 1662.95,1383.92 1667.38,1383.93 1671.8,1383.93 1676.22,1383.94 1680.64,1383.95 1685.06,1383.96 1689.49,1383.97 1693.91,1383.98 1698.33,1383.98 1702.75,1383.99 1707.17,1383.99 1711.59,1383.99 1716.02,1384 1720.44,1384 1724.86,1384 1729.28,1384 1733.7,1384.01 1738.12,1384.01 1742.55,1384.01 1746.97,1384.01 1751.39,1384.01 1755.81,1384.01 1760.23,1384.01 1764.66,1384 1769.08,1384 1773.5,1384 1777.92,1384 1782.34,1384 1786.76,1384 1791.19,1384 1795.61,1384.01 1800.03,1384 1804.45,1384 1808.87,1384 1813.3,1384.01 1817.72,1384.01 1822.14,1384.01 1826.56,1384.01 1830.98,1384.01 1835.4,1384.01 1839.83,1384.01 1844.25,1384.02 1848.67,1384.02 1853.09,1384.02 1857.51,1384.02 1861.94,1384.03 1866.36,1384.03 1870.78,1384.04 1875.2,1384.04 1879.62,1384.04 1884.04,1384.04 1888.47,1384.04 1892.89,1384.04 1897.31,1384.04 1901.73,1384.04 1906.15,1384.04 1910.58,1384.04 1915,1384.04 1919.42,1384.04 1923.84,1384.04 1928.26,1384.04 1932.68,1384.05 1937.11,1384.05 1941.53,1384.06 1945.95,1384.06 1950.37,1384.07 1954.79,1384.07 1959.22,1384.07 1963.64,1384.08 1968.06,1384.08 1972.48,1384.09 1976.9,1384.09 1981.32,1384.1 1985.75,1384.1 1990.17,1384.11 1994.59,1384.12 1999.01,1384.12 2003.43,1384.13 2007.86,1384.13 2012.28,1384.14 2016.7,1384.14 2021.12,1384.15 2025.54,1384.15 2029.96,1384.16 2034.39,1384.16 2038.81,1384.17 2043.23,1384.17 2047.65,1384.18 2052.07,1384.18 2056.49,1384.18 2060.92,1384.19 2065.34,1384.19 2069.76,1384.19 2074.18,1384.2 2078.6,1384.2 2083.03,1384.2 2087.45,1384.21 2091.87,1384.21 2096.29,1384.21 2100.71,1384.22 2105.13,1384.22 2109.56,1384.22 2113.98,1384.22 2118.4,1384.23 2122.82,1384.23 2127.24,1384.23 2131.67,1384.23 2136.09,1384.23 2140.51,1384.23 2144.93,1384.23 2149.35,1384.24 2153.77,1384.24 2158.2,1384.24 2162.62,1384.24 2167.04,1384.24 2171.46,1384.24 2175.88,1384.24 2180.31,1384.24 2184.73,1384.24 2189.15,1384.24 2193.57,1384.24 2197.99,1384.23 2202.41,1384.23 2206.84,1384.23 2211.26,1384.23 2215.68,1384.23 2220.1,1384.23 2224.52,1384.23 2228.95,1384.23 2233.37,1384.22 2237.79,1384.22 2242.21,1384.22 2246.63,1384.22 2251.05,1384.22 2255.48,1384.22 2259.9,1384.22 2264.32,1384.22 2268.74,1384.22 2273.16,1384.22 2277.59,1384.22 2282.01,1384.22 2286.43,1384.21 2290.85,1384.21 2295.27,1384.21 2299.69,1384.21 2304.12,1384.21 2308.54,1384.21 2312.96,1384.21 2317.38,1384.21 2321.8,1384.2 2326.23,1384.2 2330.65,1384.2 2335.07,1384.2 2339.49,1384.2 2343.91,1384.2 2348.33,1384.19 2352.76,1384.19 "/>
<path clip-path="url(#clip210)" d="M215.55 248.629 L525.737 248.629 L525.737 93.1086 L215.55 93.1086  Z" fill="#ffffff" fill-rule="evenodd" fill-opacity="1"/>
<polyline clip-path="url(#clip210)" style="stroke:#000000; stroke-linecap:round; stroke-linejoin:round; stroke-width:4; stroke-opacity:1; fill:none" points="215.55,248.629 525.737,248.629 525.737,93.1086 215.55,93.1086 215.55,248.629 "/>
<polyline clip-path="url(#clip210)" style="stroke:#009af9; stroke-linecap:round; stroke-linejoin:round; stroke-width:4; stroke-opacity:1; fill:none" points="240.115,144.949 387.509,144.949 "/>
<path clip-path="url(#clip210)" d="M412.074 151.997 L412.074 136.303 L416.334 136.303 L416.334 151.835 Q416.334 155.516 417.769 157.368 Q419.204 159.196 422.074 159.196 Q425.523 159.196 427.514 156.997 Q429.528 154.798 429.528 151.002 L429.528 136.303 L433.787 136.303 L433.787 162.229 L429.528 162.229 L429.528 158.247 Q427.977 160.608 425.917 161.766 Q423.88 162.9 421.172 162.9 Q416.704 162.9 414.389 160.122 Q412.074 157.344 412.074 151.997 M422.792 135.678 L422.792 135.678 Z" fill="#000000" fill-rule="nonzero" fill-opacity="1" /><path clip-path="url(#clip210)" d="M442.167 126.21 L451.982 126.21 L451.982 129.52 L446.426 129.52 L446.426 165.168 L451.982 165.168 L451.982 168.479 L442.167 168.479 L442.167 126.21 Z" fill="#000000" fill-rule="nonzero" fill-opacity="1" /><path clip-path="url(#clip210)" d="M462.468 158.293 L470.107 158.293 L470.107 131.928 L461.796 133.595 L461.796 129.335 L470.06 127.669 L474.736 127.669 L474.736 158.293 L482.375 158.293 L482.375 162.229 L462.468 162.229 L462.468 158.293 Z" fill="#000000" fill-rule="nonzero" fill-opacity="1" /><path clip-path="url(#clip210)" d="M501.171 126.21 L501.171 168.479 L491.356 168.479 L491.356 165.168 L496.889 165.168 L496.889 129.52 L491.356 129.52 L491.356 126.21 L501.171 126.21 Z" fill="#000000" fill-rule="nonzero" fill-opacity="1" /><polyline clip-path="url(#clip210)" style="stroke:#e26f46; stroke-linecap:round; stroke-linejoin:round; stroke-width:4; stroke-opacity:1; fill:none" points="240.115,196.789 387.509,196.789 "/>
<path clip-path="url(#clip210)" d="M412.074 203.837 L412.074 188.143 L416.334 188.143 L416.334 203.675 Q416.334 207.356 417.769 209.208 Q419.204 211.036 422.074 211.036 Q425.523 211.036 427.514 208.837 Q429.528 206.638 429.528 202.842 L429.528 188.143 L433.787 188.143 L433.787 214.069 L429.528 214.069 L429.528 210.087 Q427.977 212.448 425.917 213.606 Q423.88 214.74 421.172 214.74 Q416.704 214.74 414.389 211.962 Q412.074 209.184 412.074 203.837 M422.792 187.518 L422.792 187.518 Z" fill="#000000" fill-rule="nonzero" fill-opacity="1" /><path clip-path="url(#clip210)" d="M442.167 178.05 L451.982 178.05 L451.982 181.36 L446.426 181.36 L446.426 217.008 L451.982 217.008 L451.982 220.319 L442.167 220.319 L442.167 178.05 Z" fill="#000000" fill-rule="nonzero" fill-opacity="1" /><path clip-path="url(#clip210)" d="M465.685 210.133 L482.005 210.133 L482.005 214.069 L460.06 214.069 L460.06 210.133 Q462.722 207.379 467.306 202.749 Q471.912 198.096 473.093 196.754 Q475.338 194.231 476.218 192.495 Q477.12 190.735 477.12 189.046 Q477.12 186.291 475.176 184.555 Q473.255 182.819 470.153 182.819 Q467.954 182.819 465.5 183.583 Q463.07 184.347 460.292 185.897 L460.292 181.175 Q463.116 180.041 465.57 179.462 Q468.023 178.884 470.06 178.884 Q475.431 178.884 478.625 181.569 Q481.819 184.254 481.819 188.745 Q481.819 190.874 481.009 192.796 Q480.222 194.694 478.116 197.286 Q477.537 197.958 474.435 201.175 Q471.333 204.37 465.685 210.133 Z" fill="#000000" fill-rule="nonzero" fill-opacity="1" /><path clip-path="url(#clip210)" d="M501.171 178.05 L501.171 220.319 L491.356 220.319 L491.356 217.008 L496.889 217.008 L496.889 181.36 L491.356 181.36 L491.356 178.05 L501.171 178.05 Z" fill="#000000" fill-rule="nonzero" fill-opacity="1" /></svg>
