<?xml version="1.0" encoding="utf-8"?>
<svg xmlns="http://www.w3.org/2000/svg" xmlns:xlink="http://www.w3.org/1999/xlink" width="600" height="400" viewBox="0 0 2400 1600">
<defs>
  <clipPath id="clip090">
    <rect x="0" y="0" width="2400" height="1600"/>
  </clipPath>
</defs>
<path clip-path="url(#clip090)" d="M0 1600 L2400 1600 L2400 0 L0 0  Z" fill="#ffffff" fill-rule="evenodd" fill-opacity="1"/>
<defs>
  <clipPath id="clip091">
    <rect x="480" y="0" width="1681" height="1600"/>
  </clipPath>
</defs>
<path clip-path="url(#clip090)" d="M141.853 1423.18 L2352.76 1423.18 L2352.76 47.2441 L141.853 47.2441  Z" fill="#ffffff" fill-rule="evenodd" fill-opacity="1"/>
<defs>
  <clipPath id="clip092">
    <rect x="141" y="47" width="2212" height="1377"/>
  </clipPath>
</defs>
<polyline clip-path="url(#clip092)" style="stroke:#000000; stroke-linecap:round; stroke-linejoin:round; stroke-width:2; stroke-opacity:0.1; fill:none" points="141.853,1423.18 141.853,47.2441 "/>
<polyline clip-path="url(#clip092)" style="stroke:#000000; stroke-linecap:round; stroke-linejoin:round; stroke-width:2; stroke-opacity:0.1; fill:none" points="584.034,1423.18 584.034,47.2441 "/>
<polyline clip-path="url(#clip092)" style="stroke:#000000; stroke-linecap:round; stroke-linejoin:round; stroke-width:2; stroke-opacity:0.1; fill:none" points="1026.21,1423.18 1026.21,47.2441 "/>
<polyline clip-path="url(#clip092)" style="stroke:#000000; stroke-linecap:round; stroke-linejoin:round; stroke-width:2; stroke-opacity:0.1; fill:none" points="1468.39,1423.18 1468.39,47.2441 "/>
<polyline clip-path="url(#clip092)" style="stroke:#000000; stroke-linecap:round; stroke-linejoin:round; stroke-width:2; stroke-opacity:0.1; fill:none" points="1910.58,1423.18 1910.58,47.2441 "/>
<polyline clip-path="url(#clip092)" style="stroke:#000000; stroke-linecap:round; stroke-linejoin:round; stroke-width:2; stroke-opacity:0.1; fill:none" points="2352.76,1423.18 2352.76,47.2441 "/>
<polyline clip-path="url(#clip092)" style="stroke:#000000; stroke-linecap:round; stroke-linejoin:round; stroke-width:2; stroke-opacity:0.1; fill:none" points="141.853,1411.08 2352.76,1411.08 "/>
<polyline clip-path="url(#clip092)" style="stroke:#000000; stroke-linecap:round; stroke-linejoin:round; stroke-width:2; stroke-opacity:0.1; fill:none" points="141.853,1133.56 2352.76,1133.56 "/>
<polyline clip-path="url(#clip092)" style="stroke:#000000; stroke-linecap:round; stroke-linejoin:round; stroke-width:2; stroke-opacity:0.1; fill:none" points="141.853,856.041 2352.76,856.041 "/>
<polyline clip-path="url(#clip092)" style="stroke:#000000; stroke-linecap:round; stroke-linejoin:round; stroke-width:2; stroke-opacity:0.1; fill:none" points="141.853,578.522 2352.76,578.522 "/>
<polyline clip-path="url(#clip092)" style="stroke:#000000; stroke-linecap:round; stroke-linejoin:round; stroke-width:2; stroke-opacity:0.1; fill:none" points="141.853,301.003 2352.76,301.003 "/>
<polyline clip-path="url(#clip090)" style="stroke:#000000; stroke-linecap:round; stroke-linejoin:round; stroke-width:4; stroke-opacity:1; fill:none" points="141.853,1423.18 2352.76,1423.18 "/>
<polyline clip-path="url(#clip090)" style="stroke:#000000; stroke-linecap:round; stroke-linejoin:round; stroke-width:4; stroke-opacity:1; fill:none" points="141.853,1423.18 141.853,1404.28 "/>
<polyline clip-path="url(#clip090)" style="stroke:#000000; stroke-linecap:round; stroke-linejoin:round; stroke-width:4; stroke-opacity:1; fill:none" points="584.034,1423.18 584.034,1404.28 "/>
<polyline clip-path="url(#clip090)" style="stroke:#000000; stroke-linecap:round; stroke-linejoin:round; stroke-width:4; stroke-opacity:1; fill:none" points="1026.21,1423.18 1026.21,1404.28 "/>
<polyline clip-path="url(#clip090)" style="stroke:#000000; stroke-linecap:round; stroke-linejoin:round; stroke-width:4; stroke-opacity:1; fill:none" points="1468.39,1423.18 1468.39,1404.28 "/>
<polyline clip-path="url(#clip090)" style="stroke:#000000; stroke-linecap:round; stroke-linejoin:round; stroke-width:4; stroke-opacity:1; fill:none" points="1910.58,1423.18 1910.58,1404.28 "/>
<polyline clip-path="url(#clip090)" style="stroke:#000000; stroke-linecap:round; stroke-linejoin:round; stroke-width:4; stroke-opacity:1; fill:none" points="2352.76,1423.18 2352.76,1404.28 "/>
<path clip-path="url(#clip090)" d="M141.853 1454.1 Q138.242 1454.1 136.413 1457.66 Q134.608 1461.2 134.608 1468.33 Q134.608 1475.44 136.413 1479.01 Q138.242 1482.55 141.853 1482.55 Q145.487 1482.55 147.293 1479.01 Q149.121 1475.44 149.121 1468.33 Q149.121 1461.2 147.293 1457.66 Q145.487 1454.1 141.853 1454.1 M141.853 1450.39 Q147.663 1450.39 150.719 1455 Q153.797 1459.58 153.797 1468.33 Q153.797 1477.06 150.719 1481.67 Q147.663 1486.25 141.853 1486.25 Q136.043 1486.25 132.964 1481.67 Q129.909 1477.06 129.909 1468.33 Q129.909 1459.58 132.964 1455 Q136.043 1450.39 141.853 1450.39 Z" fill="#000000" fill-rule="nonzero" fill-opacity="1" /><path clip-path="url(#clip090)" d="M574.416 1481.64 L582.054 1481.64 L582.054 1455.28 L573.744 1456.95 L573.744 1452.69 L582.008 1451.02 L586.684 1451.02 L586.684 1481.64 L594.323 1481.64 L594.323 1485.58 L574.416 1485.58 L574.416 1481.64 Z" fill="#000000" fill-rule="nonzero" fill-opacity="1" /><path clip-path="url(#clip090)" d="M1020.87 1481.64 L1037.19 1481.64 L1037.19 1485.58 L1015.24 1485.58 L1015.24 1481.64 Q1017.9 1478.89 1022.49 1474.26 Q1027.09 1469.61 1028.27 1468.27 Q1030.52 1465.74 1031.4 1464.01 Q1032.3 1462.25 1032.3 1460.56 Q1032.3 1457.8 1030.36 1456.07 Q1028.44 1454.33 1025.33 1454.33 Q1023.14 1454.33 1020.68 1455.09 Q1018.25 1455.86 1015.47 1457.41 L1015.47 1452.69 Q1018.3 1451.55 1020.75 1450.97 Q1023.2 1450.39 1025.24 1450.39 Q1030.61 1450.39 1033.81 1453.08 Q1037 1455.77 1037 1460.26 Q1037 1462.39 1036.19 1464.31 Q1035.4 1466.2 1033.3 1468.8 Q1032.72 1469.47 1029.62 1472.69 Q1026.52 1475.88 1020.87 1481.64 Z" fill="#000000" fill-rule="nonzero" fill-opacity="1" /><path clip-path="url(#clip090)" d="M1472.64 1466.95 Q1476 1467.66 1477.87 1469.93 Q1479.77 1472.2 1479.77 1475.53 Q1479.77 1480.65 1476.25 1483.45 Q1472.73 1486.25 1466.25 1486.25 Q1464.08 1486.25 1461.76 1485.81 Q1459.47 1485.39 1457.02 1484.54 L1457.02 1480.02 Q1458.96 1481.16 1461.28 1481.74 Q1463.59 1482.32 1466.11 1482.32 Q1470.51 1482.32 1472.8 1480.58 Q1475.12 1478.84 1475.12 1475.53 Q1475.12 1472.48 1472.97 1470.77 Q1470.84 1469.03 1467.02 1469.03 L1462.99 1469.03 L1462.99 1465.19 L1467.2 1465.19 Q1470.65 1465.19 1472.48 1463.82 Q1474.31 1462.43 1474.31 1459.84 Q1474.31 1457.18 1472.41 1455.77 Q1470.54 1454.33 1467.02 1454.33 Q1465.1 1454.33 1462.9 1454.75 Q1460.7 1455.16 1458.06 1456.04 L1458.06 1451.88 Q1460.72 1451.14 1463.04 1450.77 Q1465.37 1450.39 1467.43 1450.39 Q1472.76 1450.39 1475.86 1452.83 Q1478.96 1455.23 1478.96 1459.35 Q1478.96 1462.22 1477.32 1464.21 Q1475.67 1466.18 1472.64 1466.95 Z" fill="#000000" fill-rule="nonzero" fill-opacity="1" /><path clip-path="url(#clip090)" d="M1913.58 1455.09 L1901.78 1473.54 L1913.58 1473.54 L1913.58 1455.09 M1912.36 1451.02 L1918.24 1451.02 L1918.24 1473.54 L1923.17 1473.54 L1923.17 1477.43 L1918.24 1477.43 L1918.24 1485.58 L1913.58 1485.58 L1913.58 1477.43 L1897.98 1477.43 L1897.98 1472.92 L1912.36 1451.02 Z" fill="#000000" fill-rule="nonzero" fill-opacity="1" /><path clip-path="url(#clip090)" d="M2343.03 1451.02 L2361.39 1451.02 L2361.39 1454.96 L2347.32 1454.96 L2347.32 1463.43 Q2348.33 1463.08 2349.35 1462.92 Q2350.37 1462.73 2351.39 1462.73 Q2357.18 1462.73 2360.56 1465.9 Q2363.94 1469.08 2363.94 1474.49 Q2363.94 1480.07 2360.46 1483.17 Q2356.99 1486.25 2350.67 1486.25 Q2348.5 1486.25 2346.23 1485.88 Q2343.98 1485.51 2341.58 1484.77 L2341.58 1480.07 Q2343.66 1481.2 2345.88 1481.76 Q2348.1 1482.32 2350.58 1482.32 Q2354.58 1482.32 2356.92 1480.21 Q2359.26 1478.1 2359.26 1474.49 Q2359.26 1470.88 2356.92 1468.77 Q2354.58 1466.67 2350.58 1466.67 Q2348.71 1466.67 2346.83 1467.08 Q2344.98 1467.5 2343.03 1468.38 L2343.03 1451.02 Z" fill="#000000" fill-rule="nonzero" fill-opacity="1" /><path clip-path="url(#clip090)" d="M1246.37 1522.27 L1246.37 1532.4 L1258.43 1532.4 L1258.43 1536.95 L1246.37 1536.95 L1246.37 1556.3 Q1246.37 1560.66 1247.54 1561.9 Q1248.75 1563.14 1252.41 1563.14 L1258.43 1563.14 L1258.43 1568.04 L1252.41 1568.04 Q1245.63 1568.04 1243.06 1565.53 Q1240.48 1562.98 1240.48 1556.3 L1240.48 1536.95 L1236.18 1536.95 L1236.18 1532.4 L1240.48 1532.4 L1240.48 1522.27 L1246.37 1522.27 Z" fill="#000000" fill-rule="nonzero" fill-opacity="1" /><polyline clip-path="url(#clip090)" style="stroke:#000000; stroke-linecap:round; stroke-linejoin:round; stroke-width:4; stroke-opacity:1; fill:none" points="141.853,1423.18 141.853,47.2441 "/>
<polyline clip-path="url(#clip090)" style="stroke:#000000; stroke-linecap:round; stroke-linejoin:round; stroke-width:4; stroke-opacity:1; fill:none" points="141.853,1411.08 160.751,1411.08 "/>
<polyline clip-path="url(#clip090)" style="stroke:#000000; stroke-linecap:round; stroke-linejoin:round; stroke-width:4; stroke-opacity:1; fill:none" points="141.853,1133.56 160.751,1133.56 "/>
<polyline clip-path="url(#clip090)" style="stroke:#000000; stroke-linecap:round; stroke-linejoin:round; stroke-width:4; stroke-opacity:1; fill:none" points="141.853,856.041 160.751,856.041 "/>
<polyline clip-path="url(#clip090)" style="stroke:#000000; stroke-linecap:round; stroke-linejoin:round; stroke-width:4; stroke-opacity:1; fill:none" points="141.853,578.522 160.751,578.522 "/>
<polyline clip-path="url(#clip090)" style="stroke:#000000; stroke-linecap:round; stroke-linejoin:round; stroke-width:4; stroke-opacity:1; fill:none" points="141.853,301.003 160.751,301.003 "/>
<path clip-path="url(#clip090)" d="M93.9086 1396.88 Q90.2975 1396.88 88.4688 1400.44 Q86.6632 1403.98 86.6632 1411.11 Q86.6632 1418.22 88.4688 1421.79 Q90.2975 1425.33 93.9086 1425.33 Q97.5428 1425.33 99.3483 1421.79 Q101.177 1418.22 101.177 1411.11 Q101.177 1403.98 99.3483 1400.44 Q97.5428 1396.88 93.9086 1396.88 M93.9086 1393.17 Q99.7187 1393.17 102.774 1397.78 Q105.853 1402.36 105.853 1411.11 Q105.853 1419.84 102.774 1424.45 Q99.7187 1429.03 93.9086 1429.03 Q88.0984 1429.03 85.0197 1424.45 Q81.9642 1419.84 81.9642 1411.11 Q81.9642 1402.36 85.0197 1397.78 Q88.0984 1393.17 93.9086 1393.17 Z" fill="#000000" fill-rule="nonzero" fill-opacity="1" /><path clip-path="url(#clip090)" d="M54.5569 1146.91 L62.1958 1146.91 L62.1958 1120.54 L53.8856 1122.21 L53.8856 1117.95 L62.1495 1116.28 L66.8254 1116.28 L66.8254 1146.91 L74.4642 1146.91 L74.4642 1150.84 L54.5569 1150.84 L54.5569 1146.91 Z" fill="#000000" fill-rule="nonzero" fill-opacity="1" /><path clip-path="url(#clip090)" d="M93.9086 1119.36 Q90.2975 1119.36 88.4688 1122.92 Q86.6632 1126.47 86.6632 1133.6 Q86.6632 1140.7 88.4688 1144.27 Q90.2975 1147.81 93.9086 1147.81 Q97.5428 1147.81 99.3483 1144.27 Q101.177 1140.7 101.177 1133.6 Q101.177 1126.47 99.3483 1122.92 Q97.5428 1119.36 93.9086 1119.36 M93.9086 1115.66 Q99.7187 1115.66 102.774 1120.26 Q105.853 1124.85 105.853 1133.6 Q105.853 1142.32 102.774 1146.93 Q99.7187 1151.51 93.9086 1151.51 Q88.0984 1151.51 85.0197 1146.93 Q81.9642 1142.32 81.9642 1133.6 Q81.9642 1124.85 85.0197 1120.26 Q88.0984 1115.66 93.9086 1115.66 Z" fill="#000000" fill-rule="nonzero" fill-opacity="1" /><path clip-path="url(#clip090)" d="M57.7745 869.386 L74.0939 869.386 L74.0939 873.321 L52.1495 873.321 L52.1495 869.386 Q54.8115 866.632 59.3949 862.002 Q64.0013 857.349 65.1819 856.007 Q67.4272 853.484 68.3068 851.747 Q69.2096 849.988 69.2096 848.298 Q69.2096 845.544 67.2652 843.808 Q65.3439 842.072 62.2421 842.072 Q60.043 842.072 57.5893 842.835 Q55.1588 843.599 52.381 845.15 L52.381 840.428 Q55.2051 839.294 57.6588 838.715 Q60.1124 838.136 62.1495 838.136 Q67.5198 838.136 70.7142 840.822 Q73.9087 843.507 73.9087 847.997 Q73.9087 850.127 73.0985 852.048 Q72.3115 853.946 70.205 856.539 Q69.6263 857.21 66.5245 860.428 Q63.4226 863.622 57.7745 869.386 Z" fill="#000000" fill-rule="nonzero" fill-opacity="1" /><path clip-path="url(#clip090)" d="M93.9086 841.84 Q90.2975 841.84 88.4688 845.405 Q86.6632 848.947 86.6632 856.076 Q86.6632 863.183 88.4688 866.747 Q90.2975 870.289 93.9086 870.289 Q97.5428 870.289 99.3483 866.747 Q101.177 863.183 101.177 856.076 Q101.177 848.947 99.3483 845.405 Q97.5428 841.84 93.9086 841.84 M93.9086 838.136 Q99.7187 838.136 102.774 842.743 Q105.853 847.326 105.853 856.076 Q105.853 864.803 102.774 869.409 Q99.7187 873.993 93.9086 873.993 Q88.0984 873.993 85.0197 869.409 Q81.9642 864.803 81.9642 856.076 Q81.9642 847.326 85.0197 842.743 Q88.0984 838.136 93.9086 838.136 Z" fill="#000000" fill-rule="nonzero" fill-opacity="1" /><path clip-path="url(#clip090)" d="M67.9133 577.168 Q71.2698 577.886 73.1448 580.154 Q75.0429 582.423 75.0429 585.756 Q75.0429 590.872 71.5244 593.673 Q68.0059 596.474 61.5245 596.474 Q59.3486 596.474 57.0338 596.034 Q54.7421 595.617 52.2884 594.761 L52.2884 590.247 Q54.2328 591.381 56.5477 591.96 Q58.8625 592.538 61.3856 592.538 Q65.7837 592.538 68.0754 590.802 Q70.3902 589.066 70.3902 585.756 Q70.3902 582.7 68.2374 580.988 Q66.1078 579.251 62.2884 579.251 L58.2606 579.251 L58.2606 575.409 L62.4735 575.409 Q65.9226 575.409 67.7513 574.043 Q69.58 572.654 69.58 570.062 Q69.58 567.4 67.6819 565.988 Q65.8069 564.552 62.2884 564.552 Q60.3671 564.552 58.168 564.969 Q55.969 565.386 53.3301 566.265 L53.3301 562.099 Q55.9921 561.358 58.3069 560.988 Q60.6449 560.617 62.705 560.617 Q68.0291 560.617 71.1309 563.048 Q74.2327 565.455 74.2327 569.576 Q74.2327 572.446 72.5892 574.437 Q70.9457 576.404 67.9133 577.168 Z" fill="#000000" fill-rule="nonzero" fill-opacity="1" /><path clip-path="url(#clip090)" d="M93.9086 564.321 Q90.2975 564.321 88.4688 567.886 Q86.6632 571.427 86.6632 578.557 Q86.6632 585.663 88.4688 589.228 Q90.2975 592.77 93.9086 592.77 Q97.5428 592.77 99.3483 589.228 Q101.177 585.663 101.177 578.557 Q101.177 571.427 99.3483 567.886 Q97.5428 564.321 93.9086 564.321 M93.9086 560.617 Q99.7187 560.617 102.774 565.224 Q105.853 569.807 105.853 578.557 Q105.853 587.284 102.774 591.89 Q99.7187 596.474 93.9086 596.474 Q88.0984 596.474 85.0197 591.89 Q81.9642 587.284 81.9642 578.557 Q81.9642 569.807 85.0197 565.224 Q88.0984 560.617 93.9086 560.617 Z" fill="#000000" fill-rule="nonzero" fill-opacity="1" /><path clip-path="url(#clip090)" d="M66.5939 287.797 L54.7884 306.246 L66.5939 306.246 L66.5939 287.797 M65.367 283.723 L71.2466 283.723 L71.2466 306.246 L76.1772 306.246 L76.1772 310.135 L71.2466 310.135 L71.2466 318.283 L66.5939 318.283 L66.5939 310.135 L50.9921 310.135 L50.9921 305.621 L65.367 283.723 Z" fill="#000000" fill-rule="nonzero" fill-opacity="1" /><path clip-path="url(#clip090)" d="M93.9086 286.802 Q90.2975 286.802 88.4688 290.367 Q86.6632 293.908 86.6632 301.038 Q86.6632 308.144 88.4688 311.709 Q90.2975 315.251 93.9086 315.251 Q97.5428 315.251 99.3483 311.709 Q101.177 308.144 101.177 301.038 Q101.177 293.908 99.3483 290.367 Q97.5428 286.802 93.9086 286.802 M93.9086 283.098 Q99.7187 283.098 102.774 287.705 Q105.853 292.288 105.853 301.038 Q105.853 309.765 102.774 314.371 Q99.7187 318.954 93.9086 318.954 Q88.0984 318.954 85.0197 314.371 Q81.9642 309.765 81.9642 301.038 Q81.9642 292.288 85.0197 287.705 Q88.0984 283.098 93.9086 283.098 Z" fill="#000000" fill-rule="nonzero" fill-opacity="1" /><polyline clip-path="url(#clip092)" style="stroke:#009af9; stroke-linecap:round; stroke-linejoin:round; stroke-width:4; stroke-opacity:1; fill:none" points="141.853,1383.33 146.275,1383.33 150.697,1383.29 155.118,1383.21 159.54,1383.08 163.962,1382.96 168.384,1382.8 172.806,1382.66 177.227,1382.56 181.649,1382.41 186.071,1382.28 190.493,1382.26 194.915,1382.21 199.336,1382.1 203.758,1382.07 208.18,1382.07 212.602,1382.08 217.024,1382.11 221.445,1382.26 225.867,1382.4 230.289,1382.57 234.711,1382.73 239.133,1382.86 243.554,1383.06 247.976,1383.21 252.398,1383.31 256.82,1383.38 261.242,1383.42 265.664,1383.43 270.085,1383.57 274.507,1383.66 278.929,1383.74 283.351,1383.8 287.773,1383.8 292.194,1383.8 296.616,1383.79 301.038,1383.82 305.46,1383.87 309.882,1383.88 314.303,1383.94 318.725,1383.96 323.147,1383.96 327.569,1384 331.991,1384.05 336.412,1384.07 340.834,1384.19 345.256,1384.24 349.678,1384.22 354.1,1384.2 358.521,1384.2 362.943,1384.16 367.365,1384.12 371.787,1383.98 376.209,1383.78 380.63,1383.54 385.052,1383.23 389.474,1382.86 393.896,1382.53 398.318,1382.21 402.739,1381.87 407.161,1381.55 411.583,1381.17 416.005,1380.81 420.427,1380.45 424.849,1380.07 429.27,1379.7 433.692,1379.29 438.114,1378.84 442.536,1378.42 446.958,1378.06 451.379,1377.85 455.801,1377.66 460.223,1377.49 464.645,1377.42 469.067,1377.32 473.488,1377.33 477.91,1377.35 482.332,1377.44 486.754,1377.52 491.176,1377.71 495.597,1377.84 500.019,1377.96 504.441,1378.05 508.863,1378.12 513.285,1378.16 517.706,1378.12 522.128,1378.12 526.55,1378.12 530.972,1378.15 535.394,1378.19 539.815,1378.27 544.237,1378.34 548.659,1378.41 553.081,1378.38 557.503,1378.41 561.925,1378.43 566.346,1378.42 570.768,1378.43 575.19,1378.43 579.612,1378.4 584.034,1378.28 588.455,1378.11 592.877,1377.92 597.299,1377.81 601.721,1377.82 606.143,1377.75 610.564,1377.7 614.986,1377.66 619.408,1377.59 623.83,1377.57 628.252,1377.61 632.673,1377.58 637.095,1377.48 641.517,1377.39 645.939,1377.34 650.361,1377.31 654.782,1377.25 659.204,1377.13 663.626,1376.95 668.048,1376.72 672.47,1376.6 676.891,1376.41 681.313,1376.25 685.735,1376.07 690.157,1375.93 694.579,1375.85 699,1375.74 703.422,1375.62 707.844,1375.39 712.266,1375.09 716.688,1374.8 721.11,1374.49 725.531,1374.23 729.953,1374.08 734.375,1373.9 738.797,1373.76 743.219,1373.63 747.64,1373.37 752.062,1373.14 756.484,1372.85 760.906,1372.54 765.328,1372.39 769.749,1372.18 774.171,1371.91 778.593,1371.52 783.015,1371.01 787.437,1370.47 791.858,1369.85 796.28,1369.24 800.702,1368.75 805.124,1368.31 809.546,1367.87 813.967,1367.49 818.389,1367.03 822.811,1366.61 827.233,1366.17 831.655,1365.84 836.076,1365.52 840.498,1365.12 844.92,1364.74 849.342,1364.31 853.764,1363.94 858.186,1363.6 862.607,1363.3 867.029,1362.92 871.451,1362.48 875.873,1362.06 880.295,1361.71 884.716,1361.55 889.138,1361.44 893.56,1361.41 897.982,1361.38 902.404,1361.35 906.825,1361.33 911.247,1361.24 915.669,1361.15 920.091,1360.94 924.513,1360.83 928.934,1360.83 933.356,1360.96 937.778,1361.05 942.2,1361.13 946.622,1361.19 951.043,1361.26 955.465,1361.27 959.887,1361.23 964.309,1361.34 968.731,1361.49 973.152,1361.72 977.574,1361.96 981.996,1362.16 986.418,1362.45 990.84,1362.73 995.261,1362.88 999.683,1363.12 1004.11,1363.18 1008.53,1363.15 1012.95,1363.14 1017.37,1363.06 1021.79,1362.94 1026.21,1362.81 1030.64,1362.8 1035.06,1362.85 1039.48,1362.88 1043.9,1362.93 1048.32,1363.11 1052.74,1363.18 1057.17,1363.29 1061.59,1363.6 1066.01,1363.96 1070.43,1364.36 1074.85,1364.84 1079.28,1365.26 1083.7,1365.59 1088.12,1365.94 1092.54,1366.3 1096.96,1366.66 1101.38,1366.9 1105.81,1367.03 1110.23,1367.18 1114.65,1367.34 1119.07,1367.5 1123.49,1367.5 1127.92,1367.32 1132.34,1367.13 1136.76,1367.07 1141.18,1367.22 1145.6,1367.39 1150.02,1367.44 1154.45,1367.46 1158.87,1367.46 1163.29,1367.46 1167.71,1367.54 1172.13,1367.65 1176.56,1367.74 1180.98,1367.76 1185.4,1367.67 1189.82,1367.51 1194.24,1367.3 1198.66,1367.17 1203.09,1366.97 1207.51,1366.85 1211.93,1366.65 1216.35,1366.71 1220.77,1366.74 1225.2,1366.68 1229.62,1366.62 1234.04,1366.64 1238.46,1366.57 1242.88,1366.56 1247.3,1366.59 1251.73,1366.82 1256.15,1367.13 1260.57,1367.28 1264.99,1367.36 1269.41,1367.53 1273.84,1367.69 1278.26,1368.05 1282.68,1368.39 1287.1,1368.7 1291.52,1369.01 1295.94,1369.27 1300.37,1369.5 1304.79,1369.82 1309.21,1370.1 1313.63,1370.23 1318.05,1370.45 1322.48,1370.75 1326.9,1371.08 1331.32,1371.31 1335.74,1371.43 1340.16,1371.62 1344.58,1371.81 1349.01,1372.08 1353.43,1372.16 1357.85,1372.12 1362.27,1372.11 1366.69,1372.03 1371.11,1371.87 1375.54,1371.68 1379.96,1371.62 1384.38,1371.5 1388.8,1371.29 1393.22,1371.09 1397.65,1370.83 1402.07,1370.59 1406.49,1370.28 1410.91,1370.01 1415.33,1369.8 1419.75,1369.58 1424.18,1369.5 1428.6,1369.45 1433.02,1369.38 1437.44,1369.32 1441.86,1369.19 1446.29,1369.01 1450.71,1368.82 1455.13,1368.56 1459.55,1368.31 1463.97,1367.99 1468.39,1367.56 1472.82,1367.03 1477.24,1366.56 1481.66,1366.04 1486.08,1365.43 1490.5,1364.84 1494.93,1364.18 1499.35,1363.47 1503.77,1362.7 1508.19,1361.85 1512.61,1360.96 1517.03,1360.11 1521.46,1359.36 1525.88,1358.52 1530.3,1357.67 1534.72,1356.82 1539.14,1355.97 1543.57,1354.98 1547.99,1353.97 1552.41,1352.9 1556.83,1351.8 1561.25,1350.65 1565.67,1349.46 1570.1,1348.27 1574.52,1347.04 1578.94,1345.79 1583.36,1344.5 1587.78,1343.17 1592.21,1341.82 1596.63,1340.44 1601.05,1339.08 1605.47,1337.72 1609.89,1336.31 1614.31,1334.86 1618.74,1333.34 1623.16,1331.79 1627.58,1330.2 1632,1328.59 1636.42,1326.95 1640.85,1325.29 1645.27,1323.61 1649.69,1321.99 1654.11,1320.4 1658.53,1318.79 1662.95,1317.16 1667.38,1315.48 1671.8,1313.74 1676.22,1312.11 1680.64,1310.42 1685.06,1308.65 1689.49,1306.91 1693.91,1305.15 1698.33,1303.34 1702.75,1301.31 1707.17,1299.25 1711.59,1297.14 1716.02,1294.95 1720.44,1292.73 1724.86,1290.5 1729.28,1288.16 1733.7,1285.91 1738.12,1283.6 1742.55,1281.42 1746.97,1279.08 1751.39,1276.6 1755.81,1273.98 1760.23,1271.33 1764.66,1268.72 1769.08,1266.01 1773.5,1263.29 1777.92,1260.46 1782.34,1257.61 1786.76,1254.89 1791.19,1252.19 1795.61,1249.41 1800.03,1246.55 1804.45,1243.78 1808.87,1240.9 1813.3,1237.99 1817.72,1234.86 1822.14,1231.64 1826.56,1228.3 1830.98,1224.8 1835.4,1221.33 1839.83,1217.78 1844.25,1214.16 1848.67,1210.32 1853.09,1206.34 1857.51,1202.34 1861.94,1198.28 1866.36,1194.16 1870.78,1189.83 1875.2,1185.43 1879.62,1181 1884.04,1176.41 1888.47,1171.73 1892.89,1166.95 1897.31,1162.15 1901.73,1157.46 1906.15,1152.73 1910.58,1148.16 1915,1144.05 1919.42,1140.06 1923.84,1135.75 1928.26,1131.24 1932.68,1127.32 1937.11,1123.68 1941.53,1120.7 1945.95,1117.54 1950.37,1114.57 1954.79,1110.89 1959.22,1107.15 1963.64,1103.58 1968.06,1099.48 1972.48,1094.8 1976.9,1089.79 1981.32,1084.25 1985.75,1078.73 1990.17,1073.44 1994.59,1068.35 1999.01,1063.24 2003.43,1057.8 2007.86,1051.93 2012.28,1046.1 2016.7,1040.35 2021.12,1035.09 2025.54,1030.45 2029.96,1026.91 2034.39,1023.14 2038.81,1019.68 2043.23,1016.13 2047.65,1012.49 2052.07,1008.07 2056.49,1002.65 2060.92,997.186 2065.34,991.274 2069.76,984.387 2074.18,976.457 2078.6,968.171 2083.03,959.437 2087.45,950.538 2091.87,942.116 2096.29,934.043 2100.71,927.492 2105.13,920.242 2109.56,912.378 2113.98,903.699 2118.4,894.73 2122.82,885.058 2127.24,874.789 2131.67,864.399 2136.09,853.621 2140.51,842.993 2144.93,832.028 2149.35,821.814 2153.77,812.081 2158.2,801.952 2162.62,791.667 2167.04,780.876 2171.46,770.335 2175.88,758.793 2180.31,748.07 2184.73,737.098 2189.15,725.416 2193.57,713.878 2197.99,702.566 2202.41,691.534 2206.84,680.342 2211.26,668.594 2215.68,656.159 2220.1,642.925 2224.52,630.22 2228.95,617.499 2233.37,604.024 2237.79,590.351 2242.21,576.261 2246.63,561.442 2251.05,546.723 2255.48,530.56 2259.9,513.691 2264.32,496.488 2268.74,479.138 2273.16,461.632 2277.59,443.611 2282.01,426.024 2286.43,407.199 2290.85,388.352 2295.27,369.36 2299.69,351.78 2304.12,333.57 2308.54,314.155 2312.96,292.971 2317.38,270.797 2321.8,248.202 2326.23,225.042 2330.65,201.647 2335.07,177.954 2339.49,155.875 2343.91,133.568 2348.33,109.891 2352.76,86.1857 "/>
<path clip-path="url(#clip090)" d="M215.55 196.789 L525.737 196.789 L525.737 93.1086 L215.55 93.1086  Z" fill="#ffffff" fill-rule="evenodd" fill-opacity="1"/>
<polyline clip-path="url(#clip090)" style="stroke:#000000; stroke-linecap:round; stroke-linejoin:round; stroke-width:4; stroke-opacity:1; fill:none" points="215.55,196.789 525.737,196.789 525.737,93.1086 215.55,93.1086 215.55,196.789 "/>
<polyline clip-path="url(#clip090)" style="stroke:#009af9; stroke-linecap:round; stroke-linejoin:round; stroke-width:4; stroke-opacity:1; fill:none" points="240.115,144.949 387.509,144.949 "/>
<path clip-path="url(#clip090)" d="M412.074 151.997 L412.074 136.303 L416.334 136.303 L416.334 151.835 Q416.334 155.516 417.769 157.368 Q419.204 159.196 422.074 159.196 Q425.523 159.196 427.514 156.997 Q429.528 154.798 429.528 151.002 L429.528 136.303 L433.787 136.303 L433.787 162.229 L429.528 162.229 L429.528 158.247 Q427.977 160.608 425.917 161.766 Q423.88 162.9 421.172 162.9 Q416.704 162.9 414.389 160.122 Q412.074 157.344 412.074 151.997 M422.792 135.678 L422.792 135.678 Z" fill="#000000" fill-rule="nonzero" fill-opacity="1" /><path clip-path="url(#clip090)" d="M442.167 126.21 L451.982 126.21 L451.982 129.52 L446.426 129.52 L446.426 165.168 L451.982 165.168 L451.982 168.479 L442.167 168.479 L442.167 126.21 Z" fill="#000000" fill-rule="nonzero" fill-opacity="1" /><path clip-path="url(#clip090)" d="M462.468 158.293 L470.107 158.293 L470.107 131.928 L461.796 133.595 L461.796 129.335 L470.06 127.669 L474.736 127.669 L474.736 158.293 L482.375 158.293 L482.375 162.229 L462.468 162.229 L462.468 158.293 Z" fill="#000000" fill-rule="nonzero" fill-opacity="1" /><path clip-path="url(#clip090)" d="M501.171 126.21 L501.171 168.479 L491.356 168.479 L491.356 165.168 L496.889 165.168 L496.889 129.52 L491.356 129.52 L491.356 126.21 L501.171 126.21 Z" fill="#000000" fill-rule="nonzero" fill-opacity="1" /></svg>
