<?xml version="1.0" encoding="utf-8"?>
<svg xmlns="http://www.w3.org/2000/svg" xmlns:xlink="http://www.w3.org/1999/xlink" width="600" height="400" viewBox="0 0 2400 1600">
<defs>
  <clipPath id="clip280">
    <rect x="0" y="0" width="2400" height="1600"/>
  </clipPath>
</defs>
<path clip-path="url(#clip280)" d="M0 1600 L2400 1600 L2400 0 L0 0  Z" fill="#ffffff" fill-rule="evenodd" fill-opacity="1"/>
<defs>
  <clipPath id="clip281">
    <rect x="257" y="123" width="2097" height="1301"/>
  </clipPath>
</defs>
<path clip-path="url(#clip280)" d="M257.204 1423.18 L2352.76 1423.18 L2352.76 123.472 L257.204 123.472  Z" fill="#ffffff" fill-rule="evenodd" fill-opacity="1"/>
<polyline clip-path="url(#clip281)" style="stroke:#000000; stroke-linecap:round; stroke-linejoin:round; stroke-width:2; stroke-opacity:0.1; fill:none" points="257.204,1423.18 257.204,123.472 "/>
<polyline clip-path="url(#clip281)" style="stroke:#000000; stroke-linecap:round; stroke-linejoin:round; stroke-width:2; stroke-opacity:0.1; fill:none" points="589.831,1423.18 589.831,123.472 "/>
<polyline clip-path="url(#clip281)" style="stroke:#000000; stroke-linecap:round; stroke-linejoin:round; stroke-width:2; stroke-opacity:0.1; fill:none" points="922.459,1423.18 922.459,123.472 "/>
<polyline clip-path="url(#clip281)" style="stroke:#000000; stroke-linecap:round; stroke-linejoin:round; stroke-width:2; stroke-opacity:0.1; fill:none" points="1255.09,1423.18 1255.09,123.472 "/>
<polyline clip-path="url(#clip281)" style="stroke:#000000; stroke-linecap:round; stroke-linejoin:round; stroke-width:2; stroke-opacity:0.1; fill:none" points="1587.71,1423.18 1587.71,123.472 "/>
<polyline clip-path="url(#clip281)" style="stroke:#000000; stroke-linecap:round; stroke-linejoin:round; stroke-width:2; stroke-opacity:0.1; fill:none" points="1920.34,1423.18 1920.34,123.472 "/>
<polyline clip-path="url(#clip281)" style="stroke:#000000; stroke-linecap:round; stroke-linejoin:round; stroke-width:2; stroke-opacity:0.1; fill:none" points="2252.97,1423.18 2252.97,123.472 "/>
<polyline clip-path="url(#clip281)" style="stroke:#000000; stroke-linecap:round; stroke-linejoin:round; stroke-width:2; stroke-opacity:0.1; fill:none" points="257.204,1358.58 2352.76,1358.58 "/>
<polyline clip-path="url(#clip281)" style="stroke:#000000; stroke-linecap:round; stroke-linejoin:round; stroke-width:2; stroke-opacity:0.1; fill:none" points="257.204,1163.48 2352.76,1163.48 "/>
<polyline clip-path="url(#clip281)" style="stroke:#000000; stroke-linecap:round; stroke-linejoin:round; stroke-width:2; stroke-opacity:0.1; fill:none" points="257.204,968.384 2352.76,968.384 "/>
<polyline clip-path="url(#clip281)" style="stroke:#000000; stroke-linecap:round; stroke-linejoin:round; stroke-width:2; stroke-opacity:0.1; fill:none" points="257.204,773.287 2352.76,773.287 "/>
<polyline clip-path="url(#clip281)" style="stroke:#000000; stroke-linecap:round; stroke-linejoin:round; stroke-width:2; stroke-opacity:0.1; fill:none" points="257.204,578.19 2352.76,578.19 "/>
<polyline clip-path="url(#clip281)" style="stroke:#000000; stroke-linecap:round; stroke-linejoin:round; stroke-width:2; stroke-opacity:0.1; fill:none" points="257.204,383.093 2352.76,383.093 "/>
<polyline clip-path="url(#clip281)" style="stroke:#000000; stroke-linecap:round; stroke-linejoin:round; stroke-width:2; stroke-opacity:0.1; fill:none" points="257.204,187.996 2352.76,187.996 "/>
<polyline clip-path="url(#clip280)" style="stroke:#000000; stroke-linecap:round; stroke-linejoin:round; stroke-width:4; stroke-opacity:1; fill:none" points="257.204,1423.18 2352.76,1423.18 "/>
<polyline clip-path="url(#clip280)" style="stroke:#000000; stroke-linecap:round; stroke-linejoin:round; stroke-width:4; stroke-opacity:1; fill:none" points="257.204,1423.18 257.204,1404.28 "/>
<polyline clip-path="url(#clip280)" style="stroke:#000000; stroke-linecap:round; stroke-linejoin:round; stroke-width:4; stroke-opacity:1; fill:none" points="589.831,1423.18 589.831,1404.28 "/>
<polyline clip-path="url(#clip280)" style="stroke:#000000; stroke-linecap:round; stroke-linejoin:round; stroke-width:4; stroke-opacity:1; fill:none" points="922.459,1423.18 922.459,1404.28 "/>
<polyline clip-path="url(#clip280)" style="stroke:#000000; stroke-linecap:round; stroke-linejoin:round; stroke-width:4; stroke-opacity:1; fill:none" points="1255.09,1423.18 1255.09,1404.28 "/>
<polyline clip-path="url(#clip280)" style="stroke:#000000; stroke-linecap:round; stroke-linejoin:round; stroke-width:4; stroke-opacity:1; fill:none" points="1587.71,1423.18 1587.71,1404.28 "/>
<polyline clip-path="url(#clip280)" style="stroke:#000000; stroke-linecap:round; stroke-linejoin:round; stroke-width:4; stroke-opacity:1; fill:none" points="1920.34,1423.18 1920.34,1404.28 "/>
<polyline clip-path="url(#clip280)" style="stroke:#000000; stroke-linecap:round; stroke-linejoin:round; stroke-width:4; stroke-opacity:1; fill:none" points="2252.97,1423.18 2252.97,1404.28 "/>
<path clip-path="url(#clip280)" d="M257.204 1454.1 Q253.593 1454.1 251.764 1457.66 Q249.959 1461.2 249.959 1468.33 Q249.959 1475.44 251.764 1479.01 Q253.593 1482.55 257.204 1482.55 Q260.838 1482.55 262.644 1479.01 Q264.473 1475.44 264.473 1468.33 Q264.473 1461.2 262.644 1457.66 Q260.838 1454.1 257.204 1454.1 M257.204 1450.39 Q263.014 1450.39 266.07 1455 Q269.148 1459.58 269.148 1468.33 Q269.148 1477.06 266.07 1481.67 Q263.014 1486.25 257.204 1486.25 Q251.394 1486.25 248.315 1481.67 Q245.26 1477.06 245.26 1468.33 Q245.26 1459.58 248.315 1455 Q251.394 1450.39 257.204 1450.39 Z" fill="#000000" fill-rule="nonzero" fill-opacity="1" /><path clip-path="url(#clip280)" d="M580.213 1481.64 L587.852 1481.64 L587.852 1455.28 L579.542 1456.95 L579.542 1452.69 L587.806 1451.02 L592.482 1451.02 L592.482 1481.64 L600.121 1481.64 L600.121 1485.58 L580.213 1485.58 L580.213 1481.64 Z" fill="#000000" fill-rule="nonzero" fill-opacity="1" /><path clip-path="url(#clip280)" d="M917.111 1481.64 L933.431 1481.64 L933.431 1485.58 L911.486 1485.58 L911.486 1481.64 Q914.148 1478.89 918.732 1474.26 Q923.338 1469.61 924.519 1468.27 Q926.764 1465.74 927.644 1464.01 Q928.547 1462.25 928.547 1460.56 Q928.547 1457.8 926.602 1456.07 Q924.681 1454.33 921.579 1454.33 Q919.38 1454.33 916.926 1455.09 Q914.496 1455.86 911.718 1457.41 L911.718 1452.69 Q914.542 1451.55 916.996 1450.97 Q919.449 1450.39 921.486 1450.39 Q926.857 1450.39 930.051 1453.08 Q933.246 1455.77 933.246 1460.26 Q933.246 1462.39 932.435 1464.31 Q931.648 1466.2 929.542 1468.8 Q928.963 1469.47 925.861 1472.69 Q922.76 1475.88 917.111 1481.64 Z" fill="#000000" fill-rule="nonzero" fill-opacity="1" /><path clip-path="url(#clip280)" d="M1259.33 1466.95 Q1262.69 1467.66 1264.56 1469.93 Q1266.46 1472.2 1266.46 1475.53 Q1266.46 1480.65 1262.94 1483.45 Q1259.43 1486.25 1252.94 1486.25 Q1250.77 1486.25 1248.45 1485.81 Q1246.16 1485.39 1243.71 1484.54 L1243.71 1480.02 Q1245.65 1481.16 1247.97 1481.74 Q1250.28 1482.32 1252.81 1482.32 Q1257.2 1482.32 1259.5 1480.58 Q1261.81 1478.84 1261.81 1475.53 Q1261.81 1472.48 1259.66 1470.77 Q1257.53 1469.03 1253.71 1469.03 L1249.68 1469.03 L1249.68 1465.19 L1253.89 1465.19 Q1257.34 1465.19 1259.17 1463.82 Q1261 1462.43 1261 1459.84 Q1261 1457.18 1259.1 1455.77 Q1257.23 1454.33 1253.71 1454.33 Q1251.79 1454.33 1249.59 1454.75 Q1247.39 1455.16 1244.75 1456.04 L1244.75 1451.88 Q1247.41 1451.14 1249.73 1450.77 Q1252.07 1450.39 1254.13 1450.39 Q1259.45 1450.39 1262.55 1452.83 Q1265.65 1455.23 1265.65 1459.35 Q1265.65 1462.22 1264.01 1464.21 Q1262.37 1466.18 1259.33 1466.95 Z" fill="#000000" fill-rule="nonzero" fill-opacity="1" /><path clip-path="url(#clip280)" d="M1590.72 1455.09 L1578.92 1473.54 L1590.72 1473.54 L1590.72 1455.09 M1589.5 1451.02 L1595.38 1451.02 L1595.38 1473.54 L1600.31 1473.54 L1600.31 1477.43 L1595.38 1477.43 L1595.38 1485.58 L1590.72 1485.58 L1590.72 1477.43 L1575.12 1477.43 L1575.12 1472.92 L1589.5 1451.02 Z" fill="#000000" fill-rule="nonzero" fill-opacity="1" /><path clip-path="url(#clip280)" d="M1910.62 1451.02 L1928.97 1451.02 L1928.97 1454.96 L1914.9 1454.96 L1914.9 1463.43 Q1915.92 1463.08 1916.94 1462.92 Q1917.96 1462.73 1918.97 1462.73 Q1924.76 1462.73 1928.14 1465.9 Q1931.52 1469.08 1931.52 1474.49 Q1931.52 1480.07 1928.05 1483.17 Q1924.58 1486.25 1918.26 1486.25 Q1916.08 1486.25 1913.81 1485.88 Q1911.57 1485.51 1909.16 1484.77 L1909.16 1480.07 Q1911.24 1481.2 1913.47 1481.76 Q1915.69 1482.32 1918.16 1482.32 Q1922.17 1482.32 1924.51 1480.21 Q1926.85 1478.1 1926.85 1474.49 Q1926.85 1470.88 1924.51 1468.77 Q1922.17 1466.67 1918.16 1466.67 Q1916.29 1466.67 1914.41 1467.08 Q1912.56 1467.5 1910.62 1468.38 L1910.62 1451.02 Z" fill="#000000" fill-rule="nonzero" fill-opacity="1" /><path clip-path="url(#clip280)" d="M2253.37 1466.44 Q2250.22 1466.44 2248.37 1468.59 Q2246.54 1470.74 2246.54 1474.49 Q2246.54 1478.22 2248.37 1480.39 Q2250.22 1482.55 2253.37 1482.55 Q2256.52 1482.55 2258.35 1480.39 Q2260.2 1478.22 2260.2 1474.49 Q2260.2 1470.74 2258.35 1468.59 Q2256.52 1466.44 2253.37 1466.44 M2262.66 1451.78 L2262.66 1456.04 Q2260.9 1455.21 2259.09 1454.77 Q2257.31 1454.33 2255.55 1454.33 Q2250.92 1454.33 2248.47 1457.45 Q2246.03 1460.58 2245.69 1466.9 Q2247.05 1464.89 2249.11 1463.82 Q2251.17 1462.73 2253.65 1462.73 Q2258.86 1462.73 2261.87 1465.9 Q2264.9 1469.05 2264.9 1474.49 Q2264.9 1479.82 2261.75 1483.03 Q2258.6 1486.25 2253.37 1486.25 Q2247.38 1486.25 2244.21 1481.67 Q2241.03 1477.06 2241.03 1468.33 Q2241.03 1460.14 2244.92 1455.28 Q2248.81 1450.39 2255.36 1450.39 Q2257.12 1450.39 2258.91 1450.74 Q2260.71 1451.09 2262.66 1451.78 Z" fill="#000000" fill-rule="nonzero" fill-opacity="1" /><path clip-path="url(#clip280)" d="M1226.86 1520.52 L1267.06 1520.52 L1267.06 1525.93 L1250.19 1525.93 L1250.19 1568.04 L1243.73 1568.04 L1243.73 1525.93 L1226.86 1525.93 L1226.86 1520.52 Z" fill="#000000" fill-rule="nonzero" fill-opacity="1" /><path clip-path="url(#clip280)" d="M1271 1532.4 L1276.86 1532.4 L1276.86 1568.04 L1271 1568.04 L1271 1532.4 M1271 1518.52 L1276.86 1518.52 L1276.86 1525.93 L1271 1525.93 L1271 1518.52 Z" fill="#000000" fill-rule="nonzero" fill-opacity="1" /><path clip-path="url(#clip280)" d="M1316.87 1539.24 Q1319.06 1535.29 1322.12 1533.41 Q1325.18 1531.54 1329.31 1531.54 Q1334.88 1531.54 1337.91 1535.45 Q1340.93 1539.33 1340.93 1546.53 L1340.93 1568.04 L1335.04 1568.04 L1335.04 1546.72 Q1335.04 1541.59 1333.23 1539.11 Q1331.41 1536.63 1327.69 1536.63 Q1323.14 1536.63 1320.5 1539.65 Q1317.85 1542.68 1317.85 1547.9 L1317.85 1568.04 L1311.97 1568.04 L1311.97 1546.72 Q1311.97 1541.56 1310.15 1539.11 Q1308.34 1536.63 1304.55 1536.63 Q1300.06 1536.63 1297.42 1539.68 Q1294.78 1542.71 1294.78 1547.9 L1294.78 1568.04 L1288.89 1568.04 L1288.89 1532.4 L1294.78 1532.4 L1294.78 1537.93 Q1296.78 1534.66 1299.59 1533.1 Q1302.39 1531.54 1306.24 1531.54 Q1310.12 1531.54 1312.83 1533.51 Q1315.56 1535.48 1316.87 1539.24 Z" fill="#000000" fill-rule="nonzero" fill-opacity="1" /><path clip-path="url(#clip280)" d="M1383.1 1548.76 L1383.1 1551.62 L1356.18 1551.62 Q1356.56 1557.67 1359.8 1560.85 Q1363.08 1564 1368.91 1564 Q1372.28 1564 1375.43 1563.17 Q1378.62 1562.35 1381.73 1560.69 L1381.73 1566.23 Q1378.58 1567.57 1375.27 1568.27 Q1371.96 1568.97 1368.56 1568.97 Q1360.03 1568.97 1355.03 1564 Q1350.07 1559.04 1350.07 1550.57 Q1350.07 1541.82 1354.78 1536.69 Q1359.52 1531.54 1367.54 1531.54 Q1374.73 1531.54 1378.9 1536.18 Q1383.1 1540.8 1383.1 1548.76 M1377.25 1547.04 Q1377.18 1542.23 1374.54 1539.37 Q1371.93 1536.5 1367.6 1536.5 Q1362.7 1536.5 1359.74 1539.27 Q1356.81 1542.04 1356.37 1547.07 L1377.25 1547.04 Z" fill="#000000" fill-rule="nonzero" fill-opacity="1" /><polyline clip-path="url(#clip280)" style="stroke:#000000; stroke-linecap:round; stroke-linejoin:round; stroke-width:4; stroke-opacity:1; fill:none" points="257.204,1423.18 257.204,123.472 "/>
<polyline clip-path="url(#clip280)" style="stroke:#000000; stroke-linecap:round; stroke-linejoin:round; stroke-width:4; stroke-opacity:1; fill:none" points="257.204,1358.58 276.102,1358.58 "/>
<polyline clip-path="url(#clip280)" style="stroke:#000000; stroke-linecap:round; stroke-linejoin:round; stroke-width:4; stroke-opacity:1; fill:none" points="257.204,1163.48 276.102,1163.48 "/>
<polyline clip-path="url(#clip280)" style="stroke:#000000; stroke-linecap:round; stroke-linejoin:round; stroke-width:4; stroke-opacity:1; fill:none" points="257.204,968.384 276.102,968.384 "/>
<polyline clip-path="url(#clip280)" style="stroke:#000000; stroke-linecap:round; stroke-linejoin:round; stroke-width:4; stroke-opacity:1; fill:none" points="257.204,773.287 276.102,773.287 "/>
<polyline clip-path="url(#clip280)" style="stroke:#000000; stroke-linecap:round; stroke-linejoin:round; stroke-width:4; stroke-opacity:1; fill:none" points="257.204,578.19 276.102,578.19 "/>
<polyline clip-path="url(#clip280)" style="stroke:#000000; stroke-linecap:round; stroke-linejoin:round; stroke-width:4; stroke-opacity:1; fill:none" points="257.204,383.093 276.102,383.093 "/>
<polyline clip-path="url(#clip280)" style="stroke:#000000; stroke-linecap:round; stroke-linejoin:round; stroke-width:4; stroke-opacity:1; fill:none" points="257.204,187.996 276.102,187.996 "/>
<path clip-path="url(#clip280)" d="M115.256 1359.03 L144.931 1359.03 L144.931 1362.97 L115.256 1362.97 L115.256 1359.03 Z" fill="#000000" fill-rule="nonzero" fill-opacity="1" /><path clip-path="url(#clip280)" d="M155.834 1371.92 L163.473 1371.92 L163.473 1345.56 L155.163 1347.22 L155.163 1342.97 L163.427 1341.3 L168.102 1341.3 L168.102 1371.92 L175.741 1371.92 L175.741 1375.86 L155.834 1375.86 L155.834 1371.92 Z" fill="#000000" fill-rule="nonzero" fill-opacity="1" /><path clip-path="url(#clip280)" d="M185.186 1369.98 L190.07 1369.98 L190.07 1375.86 L185.186 1375.86 L185.186 1369.98 Z" fill="#000000" fill-rule="nonzero" fill-opacity="1" /><path clip-path="url(#clip280)" d="M200.301 1341.3 L218.658 1341.3 L218.658 1345.23 L204.584 1345.23 L204.584 1353.71 Q205.602 1353.36 206.621 1353.2 Q207.639 1353.01 208.658 1353.01 Q214.445 1353.01 217.824 1356.18 Q221.204 1359.35 221.204 1364.77 Q221.204 1370.35 217.732 1373.45 Q214.26 1376.53 207.94 1376.53 Q205.764 1376.53 203.496 1376.16 Q201.25 1375.79 198.843 1375.05 L198.843 1370.35 Q200.926 1371.48 203.149 1372.04 Q205.371 1372.59 207.848 1372.59 Q211.852 1372.59 214.19 1370.49 Q216.528 1368.38 216.528 1364.77 Q216.528 1361.16 214.19 1359.05 Q211.852 1356.95 207.848 1356.95 Q205.973 1356.95 204.098 1357.36 Q202.246 1357.78 200.301 1358.66 L200.301 1341.3 Z" fill="#000000" fill-rule="nonzero" fill-opacity="1" /><path clip-path="url(#clip280)" d="M114.26 1163.93 L143.936 1163.93 L143.936 1167.87 L114.26 1167.87 L114.26 1163.93 Z" fill="#000000" fill-rule="nonzero" fill-opacity="1" /><path clip-path="url(#clip280)" d="M154.839 1176.83 L162.477 1176.83 L162.477 1150.46 L154.167 1152.13 L154.167 1147.87 L162.431 1146.2 L167.107 1146.2 L167.107 1176.83 L174.746 1176.83 L174.746 1180.76 L154.839 1180.76 L154.839 1176.83 Z" fill="#000000" fill-rule="nonzero" fill-opacity="1" /><path clip-path="url(#clip280)" d="M184.19 1174.88 L189.075 1174.88 L189.075 1180.76 L184.19 1180.76 L184.19 1174.88 Z" fill="#000000" fill-rule="nonzero" fill-opacity="1" /><path clip-path="url(#clip280)" d="M209.26 1149.28 Q205.649 1149.28 203.82 1152.85 Q202.014 1156.39 202.014 1163.52 Q202.014 1170.62 203.82 1174.19 Q205.649 1177.73 209.26 1177.73 Q212.894 1177.73 214.699 1174.19 Q216.528 1170.62 216.528 1163.52 Q216.528 1156.39 214.699 1152.85 Q212.894 1149.28 209.26 1149.28 M209.26 1145.58 Q215.07 1145.58 218.125 1150.18 Q221.204 1154.77 221.204 1163.52 Q221.204 1172.24 218.125 1176.85 Q215.07 1181.43 209.26 1181.43 Q203.449 1181.43 200.371 1176.85 Q197.315 1172.24 197.315 1163.52 Q197.315 1154.77 200.371 1150.18 Q203.449 1145.58 209.26 1145.58 Z" fill="#000000" fill-rule="nonzero" fill-opacity="1" /><path clip-path="url(#clip280)" d="M115.256 968.836 L144.931 968.836 L144.931 972.771 L115.256 972.771 L115.256 968.836 Z" fill="#000000" fill-rule="nonzero" fill-opacity="1" /><path clip-path="url(#clip280)" d="M165.024 954.183 Q161.413 954.183 159.584 957.748 Q157.778 961.29 157.778 968.419 Q157.778 975.526 159.584 979.09 Q161.413 982.632 165.024 982.632 Q168.658 982.632 170.464 979.09 Q172.292 975.526 172.292 968.419 Q172.292 961.29 170.464 957.748 Q168.658 954.183 165.024 954.183 M165.024 950.479 Q170.834 950.479 173.889 955.086 Q176.968 959.669 176.968 968.419 Q176.968 977.146 173.889 981.752 Q170.834 986.336 165.024 986.336 Q159.214 986.336 156.135 981.752 Q153.079 977.146 153.079 968.419 Q153.079 959.669 156.135 955.086 Q159.214 950.479 165.024 950.479 Z" fill="#000000" fill-rule="nonzero" fill-opacity="1" /><path clip-path="url(#clip280)" d="M185.186 979.785 L190.07 979.785 L190.07 985.664 L185.186 985.664 L185.186 979.785 Z" fill="#000000" fill-rule="nonzero" fill-opacity="1" /><path clip-path="url(#clip280)" d="M200.301 951.104 L218.658 951.104 L218.658 955.04 L204.584 955.04 L204.584 963.512 Q205.602 963.165 206.621 963.003 Q207.639 962.817 208.658 962.817 Q214.445 962.817 217.824 965.989 Q221.204 969.16 221.204 974.577 Q221.204 980.155 217.732 983.257 Q214.26 986.336 207.94 986.336 Q205.764 986.336 203.496 985.965 Q201.25 985.595 198.843 984.854 L198.843 980.155 Q200.926 981.289 203.149 981.845 Q205.371 982.401 207.848 982.401 Q211.852 982.401 214.19 980.294 Q216.528 978.188 216.528 974.577 Q216.528 970.965 214.19 968.859 Q211.852 966.753 207.848 966.753 Q205.973 966.753 204.098 967.169 Q202.246 967.586 200.301 968.465 L200.301 951.104 Z" fill="#000000" fill-rule="nonzero" fill-opacity="1" /><path clip-path="url(#clip280)" d="M164.028 759.086 Q160.417 759.086 158.589 762.651 Q156.783 766.192 156.783 773.322 Q156.783 780.428 158.589 783.993 Q160.417 787.535 164.028 787.535 Q167.663 787.535 169.468 783.993 Q171.297 780.428 171.297 773.322 Q171.297 766.192 169.468 762.651 Q167.663 759.086 164.028 759.086 M164.028 755.382 Q169.839 755.382 172.894 759.989 Q175.973 764.572 175.973 773.322 Q175.973 782.049 172.894 786.655 Q169.839 791.239 164.028 791.239 Q158.218 791.239 155.14 786.655 Q152.084 782.049 152.084 773.322 Q152.084 764.572 155.14 759.989 Q158.218 755.382 164.028 755.382 Z" fill="#000000" fill-rule="nonzero" fill-opacity="1" /><path clip-path="url(#clip280)" d="M184.19 784.688 L189.075 784.688 L189.075 790.567 L184.19 790.567 L184.19 784.688 Z" fill="#000000" fill-rule="nonzero" fill-opacity="1" /><path clip-path="url(#clip280)" d="M209.26 759.086 Q205.649 759.086 203.82 762.651 Q202.014 766.192 202.014 773.322 Q202.014 780.428 203.82 783.993 Q205.649 787.535 209.26 787.535 Q212.894 787.535 214.699 783.993 Q216.528 780.428 216.528 773.322 Q216.528 766.192 214.699 762.651 Q212.894 759.086 209.26 759.086 M209.26 755.382 Q215.07 755.382 218.125 759.989 Q221.204 764.572 221.204 773.322 Q221.204 782.049 218.125 786.655 Q215.07 791.239 209.26 791.239 Q203.449 791.239 200.371 786.655 Q197.315 782.049 197.315 773.322 Q197.315 764.572 200.371 759.989 Q203.449 755.382 209.26 755.382 Z" fill="#000000" fill-rule="nonzero" fill-opacity="1" /><path clip-path="url(#clip280)" d="M165.024 563.989 Q161.413 563.989 159.584 567.554 Q157.778 571.095 157.778 578.225 Q157.778 585.331 159.584 588.896 Q161.413 592.438 165.024 592.438 Q168.658 592.438 170.464 588.896 Q172.292 585.331 172.292 578.225 Q172.292 571.095 170.464 567.554 Q168.658 563.989 165.024 563.989 M165.024 560.285 Q170.834 560.285 173.889 564.892 Q176.968 569.475 176.968 578.225 Q176.968 586.952 173.889 591.558 Q170.834 596.141 165.024 596.141 Q159.214 596.141 156.135 591.558 Q153.079 586.952 153.079 578.225 Q153.079 569.475 156.135 564.892 Q159.214 560.285 165.024 560.285 Z" fill="#000000" fill-rule="nonzero" fill-opacity="1" /><path clip-path="url(#clip280)" d="M185.186 589.591 L190.07 589.591 L190.07 595.47 L185.186 595.47 L185.186 589.591 Z" fill="#000000" fill-rule="nonzero" fill-opacity="1" /><path clip-path="url(#clip280)" d="M200.301 560.91 L218.658 560.91 L218.658 564.845 L204.584 564.845 L204.584 573.317 Q205.602 572.97 206.621 572.808 Q207.639 572.623 208.658 572.623 Q214.445 572.623 217.824 575.794 Q221.204 578.966 221.204 584.382 Q221.204 589.961 217.732 593.063 Q214.26 596.141 207.94 596.141 Q205.764 596.141 203.496 595.771 Q201.25 595.401 198.843 594.66 L198.843 589.961 Q200.926 591.095 203.149 591.651 Q205.371 592.206 207.848 592.206 Q211.852 592.206 214.19 590.1 Q216.528 587.993 216.528 584.382 Q216.528 580.771 214.19 578.665 Q211.852 576.558 207.848 576.558 Q205.973 576.558 204.098 576.975 Q202.246 577.392 200.301 578.271 L200.301 560.91 Z" fill="#000000" fill-rule="nonzero" fill-opacity="1" /><path clip-path="url(#clip280)" d="M154.839 396.438 L162.477 396.438 L162.477 370.072 L154.167 371.739 L154.167 367.48 L162.431 365.813 L167.107 365.813 L167.107 396.438 L174.746 396.438 L174.746 400.373 L154.839 400.373 L154.839 396.438 Z" fill="#000000" fill-rule="nonzero" fill-opacity="1" /><path clip-path="url(#clip280)" d="M184.19 394.493 L189.075 394.493 L189.075 400.373 L184.19 400.373 L184.19 394.493 Z" fill="#000000" fill-rule="nonzero" fill-opacity="1" /><path clip-path="url(#clip280)" d="M209.26 368.892 Q205.649 368.892 203.82 372.456 Q202.014 375.998 202.014 383.128 Q202.014 390.234 203.82 393.799 Q205.649 397.341 209.26 397.341 Q212.894 397.341 214.699 393.799 Q216.528 390.234 216.528 383.128 Q216.528 375.998 214.699 372.456 Q212.894 368.892 209.26 368.892 M209.26 365.188 Q215.07 365.188 218.125 369.794 Q221.204 374.378 221.204 383.128 Q221.204 391.855 218.125 396.461 Q215.07 401.044 209.26 401.044 Q203.449 401.044 200.371 396.461 Q197.315 391.855 197.315 383.128 Q197.315 374.378 200.371 369.794 Q203.449 365.188 209.26 365.188 Z" fill="#000000" fill-rule="nonzero" fill-opacity="1" /><path clip-path="url(#clip280)" d="M155.834 201.341 L163.473 201.341 L163.473 174.975 L155.163 176.642 L155.163 172.382 L163.427 170.716 L168.102 170.716 L168.102 201.341 L175.741 201.341 L175.741 205.276 L155.834 205.276 L155.834 201.341 Z" fill="#000000" fill-rule="nonzero" fill-opacity="1" /><path clip-path="url(#clip280)" d="M185.186 199.396 L190.07 199.396 L190.07 205.276 L185.186 205.276 L185.186 199.396 Z" fill="#000000" fill-rule="nonzero" fill-opacity="1" /><path clip-path="url(#clip280)" d="M200.301 170.716 L218.658 170.716 L218.658 174.651 L204.584 174.651 L204.584 183.123 Q205.602 182.776 206.621 182.614 Q207.639 182.429 208.658 182.429 Q214.445 182.429 217.824 185.6 Q221.204 188.771 221.204 194.188 Q221.204 199.767 217.732 202.868 Q214.26 205.947 207.94 205.947 Q205.764 205.947 203.496 205.577 Q201.25 205.206 198.843 204.466 L198.843 199.767 Q200.926 200.901 203.149 201.456 Q205.371 202.012 207.848 202.012 Q211.852 202.012 214.19 199.905 Q216.528 197.799 216.528 194.188 Q216.528 190.577 214.19 188.47 Q211.852 186.364 207.848 186.364 Q205.973 186.364 204.098 186.781 Q202.246 187.197 200.301 188.077 L200.301 170.716 Z" fill="#000000" fill-rule="nonzero" fill-opacity="1" /><path clip-path="url(#clip280)" d="M16.4842 877.087 L16.4842 870.658 L35.9632 870.658 L35.9632 847.295 L16.4842 847.295 L16.4842 840.866 L64.0042 840.866 L64.0042 847.295 L41.3741 847.295 L41.3741 870.658 L64.0042 870.658 L64.0042 877.087 L16.4842 877.087 Z" fill="#000000" fill-rule="nonzero" fill-opacity="1" /><path clip-path="url(#clip280)" d="M44.7161 797.834 L47.5806 797.834 L47.5806 824.761 Q53.6281 824.379 56.8109 821.132 Q59.9619 817.854 59.9619 812.029 Q59.9619 808.656 59.1344 805.505 Q58.3069 802.322 56.6518 799.203 L62.1899 799.203 Q63.5267 802.354 64.227 805.664 Q64.9272 808.974 64.9272 812.38 Q64.9272 820.91 59.9619 825.907 Q54.9967 830.872 46.5303 830.872 Q37.7774 830.872 32.6531 826.161 Q27.4968 821.419 27.4968 813.398 Q27.4968 806.205 32.1438 802.035 Q36.7589 797.834 44.7161 797.834 M42.9973 803.69 Q38.1912 803.754 35.3266 806.396 Q32.4621 809.006 32.4621 813.334 Q32.4621 818.236 35.2312 821.196 Q38.0002 824.124 43.0292 824.57 L42.9973 803.69 Z" fill="#000000" fill-rule="nonzero" fill-opacity="1" /><path clip-path="url(#clip280)" d="M28.3562 788.222 L28.3562 782.365 L64.0042 782.365 L64.0042 788.222 L28.3562 788.222 M14.479 788.222 L14.479 782.365 L21.895 782.365 L21.895 788.222 L14.479 788.222 Z" fill="#000000" fill-rule="nonzero" fill-opacity="1" /><path clip-path="url(#clip280)" d="M45.7664 746.654 Q39.4007 746.654 35.8996 749.295 Q32.3984 751.905 32.3984 756.648 Q32.3984 761.358 35.8996 764 Q39.4007 766.61 45.7664 766.61 Q52.1003 766.61 55.6014 764 Q59.1026 761.358 59.1026 756.648 Q59.1026 751.905 55.6014 749.295 Q52.1003 746.654 45.7664 746.654 M59.58 740.797 Q68.683 740.797 73.1071 744.839 Q77.5631 748.882 77.5631 757.221 Q77.5631 760.308 77.0857 763.045 Q76.6401 765.783 75.6852 768.361 L69.9879 768.361 Q71.3884 765.783 72.0568 763.268 Q72.7252 760.754 72.7252 758.144 Q72.7252 752.383 69.7015 749.518 Q66.7096 746.654 60.6303 746.654 L57.7339 746.654 Q60.885 748.468 62.4446 751.301 Q64.0042 754.133 64.0042 758.08 Q64.0042 764.637 59.0071 768.647 Q54.01 772.658 45.7664 772.658 Q37.491 772.658 32.4939 768.647 Q27.4968 764.637 27.4968 758.08 Q27.4968 754.133 29.0564 751.301 Q30.616 748.468 33.7671 746.654 L28.3562 746.654 L28.3562 740.797 L59.58 740.797 Z" fill="#000000" fill-rule="nonzero" fill-opacity="1" /><path clip-path="url(#clip280)" d="M42.4881 699.102 L64.0042 699.102 L64.0042 704.958 L42.679 704.958 Q37.6183 704.958 35.1038 706.932 Q32.5894 708.905 32.5894 712.852 Q32.5894 717.594 35.6131 720.331 Q38.6368 723.069 43.8567 723.069 L64.0042 723.069 L64.0042 728.957 L14.479 728.957 L14.479 723.069 L33.8944 723.069 Q30.6797 720.968 29.0883 718.135 Q27.4968 715.271 27.4968 711.547 Q27.4968 705.404 31.3163 702.253 Q35.1038 699.102 42.4881 699.102 Z" fill="#000000" fill-rule="nonzero" fill-opacity="1" /><path clip-path="url(#clip280)" d="M18.2347 681.628 L28.3562 681.628 L28.3562 669.565 L32.9077 669.565 L32.9077 681.628 L52.2594 681.628 Q56.6199 681.628 57.8613 680.45 Q59.1026 679.241 59.1026 675.581 L59.1026 669.565 L64.0042 669.565 L64.0042 675.581 Q64.0042 682.36 61.4897 684.938 Q58.9434 687.516 52.2594 687.516 L32.9077 687.516 L32.9077 691.813 L28.3562 691.813 L28.3562 687.516 L18.2347 687.516 L18.2347 681.628 Z" fill="#000000" fill-rule="nonzero" fill-opacity="1" /><path clip-path="url(#clip280)" d="M806.374 14.0809 L806.374 22.0612 Q801.716 19.8332 797.584 18.7395 Q793.452 17.6457 789.604 17.6457 Q782.92 17.6457 779.274 20.2383 Q775.669 22.8309 775.669 27.611 Q775.669 31.6214 778.059 33.6873 Q780.489 35.7128 787.214 36.9686 L792.156 37.9813 Q801.311 39.7232 805.645 44.1387 Q810.02 48.5136 810.02 55.8863 Q810.02 64.6767 804.106 69.2137 Q798.232 73.7508 786.849 73.7508 Q782.555 73.7508 777.694 72.7785 Q772.873 71.8063 767.688 69.9024 L767.688 61.4765 Q772.671 64.2716 777.451 65.6895 Q782.231 67.1073 786.849 67.1073 Q793.857 67.1073 797.665 64.3527 Q801.473 61.598 801.473 56.4939 Q801.473 52.0379 798.718 49.5264 Q796.004 47.0148 789.766 45.759 L784.783 44.7868 Q775.628 42.9639 771.537 39.075 Q767.445 35.1862 767.445 28.2591 Q767.445 20.2383 773.076 15.6203 Q778.747 11.0023 788.672 11.0023 Q792.925 11.0023 797.341 11.7719 Q801.756 12.5416 806.374 14.0809 Z" fill="#000000" fill-rule="nonzero" fill-opacity="1" /><path clip-path="url(#clip280)" d="M822.457 27.2059 L829.91 27.2059 L829.91 72.576 L822.457 72.576 L822.457 27.2059 M822.457 9.54393 L829.91 9.54393 L829.91 18.9825 L822.457 18.9825 L822.457 9.54393 Z" fill="#000000" fill-rule="nonzero" fill-opacity="1" /><path clip-path="url(#clip280)" d="M880.83 35.9153 Q883.625 30.8922 887.514 28.5022 Q891.403 26.1121 896.669 26.1121 Q903.758 26.1121 907.607 31.0947 Q911.455 36.0368 911.455 45.1919 L911.455 72.576 L903.961 72.576 L903.961 45.4349 Q903.961 38.913 901.652 35.7533 Q899.343 32.5936 894.603 32.5936 Q888.81 32.5936 885.448 36.4419 Q882.086 40.2903 882.086 46.9338 L882.086 72.576 L874.592 72.576 L874.592 45.4349 Q874.592 38.8725 872.283 35.7533 Q869.974 32.5936 865.153 32.5936 Q859.441 32.5936 856.079 36.4824 Q852.717 40.3308 852.717 46.9338 L852.717 72.576 L845.223 72.576 L845.223 27.2059 L852.717 27.2059 L852.717 34.2544 Q855.269 30.082 858.834 28.0971 Q862.398 26.1121 867.3 26.1121 Q872.242 26.1121 875.685 28.6237 Q879.169 31.1352 880.83 35.9153 Z" fill="#000000" fill-rule="nonzero" fill-opacity="1" /><path clip-path="url(#clip280)" d="M933.532 65.7705 L933.532 89.8329 L926.038 89.8329 L926.038 27.2059 L933.532 27.2059 L933.532 34.0924 Q935.882 30.0415 939.447 28.0971 Q943.052 26.1121 948.035 26.1121 Q956.298 26.1121 961.443 32.6746 Q966.628 39.2371 966.628 49.9314 Q966.628 60.6258 961.443 67.1883 Q956.298 73.7508 948.035 73.7508 Q943.052 73.7508 939.447 71.8063 Q935.882 69.8214 933.532 65.7705 M958.891 49.9314 Q958.891 41.7081 955.488 37.0496 Q952.126 32.3505 946.212 32.3505 Q940.297 32.3505 936.895 37.0496 Q933.532 41.7081 933.532 49.9314 Q933.532 58.1548 936.895 62.8538 Q940.297 67.5124 946.212 67.5124 Q952.126 67.5124 955.488 62.8538 Q958.891 58.1548 958.891 49.9314 Z" fill="#000000" fill-rule="nonzero" fill-opacity="1" /><path clip-path="url(#clip280)" d="M978.983 9.54393 L986.437 9.54393 L986.437 72.576 L978.983 72.576 L978.983 9.54393 Z" fill="#000000" fill-rule="nonzero" fill-opacity="1" /><path clip-path="url(#clip280)" d="M1040.84 48.0275 L1040.84 51.6733 L1006.57 51.6733 Q1007.06 59.3701 1011.19 63.421 Q1015.36 67.4314 1022.77 67.4314 Q1027.07 67.4314 1031.08 66.3781 Q1035.13 65.3249 1039.1 63.2184 L1039.1 70.267 Q1035.09 71.9684 1030.88 72.8596 Q1026.66 73.7508 1022.33 73.7508 Q1011.47 73.7508 1005.11 67.4314 Q998.792 61.1119 998.792 50.3365 Q998.792 39.1965 1004.79 32.6746 Q1010.82 26.1121 1021.03 26.1121 Q1030.19 26.1121 1035.49 32.0264 Q1040.84 37.9003 1040.84 48.0275 M1033.39 45.84 Q1033.31 39.7232 1029.94 36.0774 Q1026.62 32.4315 1021.11 32.4315 Q1014.87 32.4315 1011.11 35.9558 Q1007.38 39.4801 1006.81 45.8805 L1033.39 45.84 Z" fill="#000000" fill-rule="nonzero" fill-opacity="1" /><path clip-path="url(#clip280)" d="M1087.95 18.8205 L1087.95 41.5461 L1098.24 41.5461 Q1103.95 41.5461 1107.07 38.5889 Q1110.19 35.6318 1110.19 30.163 Q1110.19 24.7348 1107.07 21.7777 Q1103.95 18.8205 1098.24 18.8205 L1087.95 18.8205 M1079.77 12.096 L1098.24 12.096 Q1108.41 12.096 1113.59 16.714 Q1118.82 21.2916 1118.82 30.163 Q1118.82 39.1155 1113.59 43.6931 Q1108.41 48.2706 1098.24 48.2706 L1087.95 48.2706 L1087.95 72.576 L1079.77 72.576 L1079.77 12.096 Z" fill="#000000" fill-rule="nonzero" fill-opacity="1" /><path clip-path="url(#clip280)" d="M1165.33 48.0275 L1165.33 51.6733 L1131.05 51.6733 Q1131.54 59.3701 1135.67 63.421 Q1139.84 67.4314 1147.26 67.4314 Q1151.55 67.4314 1155.56 66.3781 Q1159.61 65.3249 1163.58 63.2184 L1163.58 70.267 Q1159.57 71.9684 1155.36 72.8596 Q1151.15 73.7508 1146.81 73.7508 Q1135.96 73.7508 1129.6 67.4314 Q1123.28 61.1119 1123.28 50.3365 Q1123.28 39.1965 1129.27 32.6746 Q1135.31 26.1121 1145.52 26.1121 Q1154.67 26.1121 1159.98 32.0264 Q1165.33 37.9003 1165.33 48.0275 M1157.87 45.84 Q1157.79 39.7232 1154.43 36.0774 Q1151.11 32.4315 1145.6 32.4315 Q1139.36 32.4315 1135.59 35.9558 Q1131.86 39.4801 1131.3 45.8805 L1157.87 45.84 Z" fill="#000000" fill-rule="nonzero" fill-opacity="1" /><path clip-path="url(#clip280)" d="M1215.27 45.1919 L1215.27 72.576 L1207.82 72.576 L1207.82 45.4349 Q1207.82 38.994 1205.31 35.7938 Q1202.8 32.5936 1197.77 32.5936 Q1191.74 32.5936 1188.25 36.4419 Q1184.77 40.2903 1184.77 46.9338 L1184.77 72.576 L1177.28 72.576 L1177.28 27.2059 L1184.77 27.2059 L1184.77 34.2544 Q1187.44 30.163 1191.05 28.1376 Q1194.69 26.1121 1199.43 26.1121 Q1207.25 26.1121 1211.26 30.9732 Q1215.27 35.7938 1215.27 45.1919 Z" fill="#000000" fill-rule="nonzero" fill-opacity="1" /><path clip-path="url(#clip280)" d="M1259.99 34.0924 L1259.99 9.54393 L1267.45 9.54393 L1267.45 72.576 L1259.99 72.576 L1259.99 65.7705 Q1257.65 69.8214 1254.04 71.8063 Q1250.48 73.7508 1245.45 73.7508 Q1237.23 73.7508 1232.04 67.1883 Q1226.9 60.6258 1226.9 49.9314 Q1226.9 39.2371 1232.04 32.6746 Q1237.23 26.1121 1245.45 26.1121 Q1250.48 26.1121 1254.04 28.0971 Q1257.65 30.0415 1259.99 34.0924 M1234.6 49.9314 Q1234.6 58.1548 1237.96 62.8538 Q1241.36 67.5124 1247.27 67.5124 Q1253.19 67.5124 1256.59 62.8538 Q1259.99 58.1548 1259.99 49.9314 Q1259.99 41.7081 1256.59 37.0496 Q1253.19 32.3505 1247.27 32.3505 Q1241.36 32.3505 1237.96 37.0496 Q1234.6 41.7081 1234.6 49.9314 Z" fill="#000000" fill-rule="nonzero" fill-opacity="1" /><path clip-path="url(#clip280)" d="M1282.03 54.671 L1282.03 27.2059 L1289.49 27.2059 L1289.49 54.3874 Q1289.49 60.8284 1292 64.0691 Q1294.51 67.2693 1299.53 67.2693 Q1305.57 67.2693 1309.05 63.421 Q1312.58 59.5726 1312.58 52.9291 L1312.58 27.2059 L1320.03 27.2059 L1320.03 72.576 L1312.58 72.576 L1312.58 65.6084 Q1309.86 69.7404 1306.26 71.7658 Q1302.69 73.7508 1297.95 73.7508 Q1290.13 73.7508 1286.08 68.8897 Q1282.03 64.0286 1282.03 54.671 M1300.79 26.1121 L1300.79 26.1121 Z" fill="#000000" fill-rule="nonzero" fill-opacity="1" /><path clip-path="url(#clip280)" d="M1335.38 9.54393 L1342.84 9.54393 L1342.84 72.576 L1335.38 72.576 L1335.38 9.54393 Z" fill="#000000" fill-rule="nonzero" fill-opacity="1" /><path clip-path="url(#clip280)" d="M1357.66 54.671 L1357.66 27.2059 L1365.12 27.2059 L1365.12 54.3874 Q1365.12 60.8284 1367.63 64.0691 Q1370.14 67.2693 1375.16 67.2693 Q1381.2 67.2693 1384.68 63.421 Q1388.21 59.5726 1388.21 52.9291 L1388.21 27.2059 L1395.66 27.2059 L1395.66 72.576 L1388.21 72.576 L1388.21 65.6084 Q1385.49 69.7404 1381.89 71.7658 Q1378.32 73.7508 1373.58 73.7508 Q1365.76 73.7508 1361.71 68.8897 Q1357.66 64.0286 1357.66 54.671 M1376.42 26.1121 L1376.42 26.1121 Z" fill="#000000" fill-rule="nonzero" fill-opacity="1" /><path clip-path="url(#clip280)" d="M1446.34 35.9153 Q1449.13 30.8922 1453.02 28.5022 Q1456.91 26.1121 1462.18 26.1121 Q1469.26 26.1121 1473.11 31.0947 Q1476.96 36.0368 1476.96 45.1919 L1476.96 72.576 L1469.47 72.576 L1469.47 45.4349 Q1469.47 38.913 1467.16 35.7533 Q1464.85 32.5936 1460.11 32.5936 Q1454.32 32.5936 1450.95 36.4419 Q1447.59 40.2903 1447.59 46.9338 L1447.59 72.576 L1440.1 72.576 L1440.1 45.4349 Q1440.1 38.8725 1437.79 35.7533 Q1435.48 32.5936 1430.66 32.5936 Q1424.95 32.5936 1421.59 36.4824 Q1418.22 40.3308 1418.22 46.9338 L1418.22 72.576 L1410.73 72.576 L1410.73 27.2059 L1418.22 27.2059 L1418.22 34.2544 Q1420.78 30.082 1424.34 28.0971 Q1427.9 26.1121 1432.81 26.1121 Q1437.75 26.1121 1441.19 28.6237 Q1444.68 31.1352 1446.34 35.9153 Z" fill="#000000" fill-rule="nonzero" fill-opacity="1" /><path clip-path="url(#clip280)" d="M1526.71 18.8205 L1526.71 41.5461 L1537 41.5461 Q1542.71 41.5461 1545.83 38.5889 Q1548.95 35.6318 1548.95 30.163 Q1548.95 24.7348 1545.83 21.7777 Q1542.71 18.8205 1537 18.8205 L1526.71 18.8205 M1518.52 12.096 L1537 12.096 Q1547.16 12.096 1552.35 16.714 Q1557.57 21.2916 1557.57 30.163 Q1557.57 39.1155 1552.35 43.6931 Q1547.16 48.2706 1537 48.2706 L1526.71 48.2706 L1526.71 72.576 L1518.52 72.576 L1518.52 12.096 Z" fill="#000000" fill-rule="nonzero" fill-opacity="1" /><path clip-path="url(#clip280)" d="M1593.06 34.1734 Q1591.8 33.4443 1590.31 33.1202 Q1588.85 32.7556 1587.06 32.7556 Q1580.75 32.7556 1577.34 36.8875 Q1573.98 40.9789 1573.98 48.6757 L1573.98 72.576 L1566.49 72.576 L1566.49 27.2059 L1573.98 27.2059 L1573.98 34.2544 Q1576.33 30.1225 1580.1 28.1376 Q1583.86 26.1121 1589.25 26.1121 Q1590.02 26.1121 1590.95 26.2337 Q1591.89 26.3147 1593.02 26.5172 L1593.06 34.1734 Z" fill="#000000" fill-rule="nonzero" fill-opacity="1" /><path clip-path="url(#clip280)" d="M1616.64 32.4315 Q1610.64 32.4315 1607.16 37.1306 Q1603.67 41.7891 1603.67 49.9314 Q1603.67 58.0738 1607.12 62.7728 Q1610.6 67.4314 1616.64 67.4314 Q1622.59 67.4314 1626.07 62.7323 Q1629.56 58.0333 1629.56 49.9314 Q1629.56 41.8701 1626.07 37.1711 Q1622.59 32.4315 1616.64 32.4315 M1616.64 26.1121 Q1626.36 26.1121 1631.91 32.4315 Q1637.46 38.7509 1637.46 49.9314 Q1637.46 61.0714 1631.91 67.4314 Q1626.36 73.7508 1616.64 73.7508 Q1606.87 73.7508 1601.32 67.4314 Q1595.81 61.0714 1595.81 49.9314 Q1595.81 38.7509 1601.32 32.4315 Q1606.87 26.1121 1616.64 26.1121 Z" fill="#000000" fill-rule="nonzero" fill-opacity="1" /><path clip-path="url(#clip280)" d="M1682.38 49.9314 Q1682.38 41.7081 1678.98 37.0496 Q1675.62 32.3505 1669.7 32.3505 Q1663.79 32.3505 1660.39 37.0496 Q1657.02 41.7081 1657.02 49.9314 Q1657.02 58.1548 1660.39 62.8538 Q1663.79 67.5124 1669.7 67.5124 Q1675.62 67.5124 1678.98 62.8538 Q1682.38 58.1548 1682.38 49.9314 M1657.02 34.0924 Q1659.37 30.0415 1662.94 28.0971 Q1666.54 26.1121 1671.53 26.1121 Q1679.79 26.1121 1684.93 32.6746 Q1690.12 39.2371 1690.12 49.9314 Q1690.12 60.6258 1684.93 67.1883 Q1679.79 73.7508 1671.53 73.7508 Q1666.54 73.7508 1662.94 71.8063 Q1659.37 69.8214 1657.02 65.7705 L1657.02 72.576 L1649.53 72.576 L1649.53 9.54393 L1657.02 9.54393 L1657.02 34.0924 Z" fill="#000000" fill-rule="nonzero" fill-opacity="1" /><path clip-path="url(#clip280)" d="M1702.47 9.54393 L1709.93 9.54393 L1709.93 72.576 L1702.47 72.576 L1702.47 9.54393 Z" fill="#000000" fill-rule="nonzero" fill-opacity="1" /><path clip-path="url(#clip280)" d="M1764.33 48.0275 L1764.33 51.6733 L1730.06 51.6733 Q1730.55 59.3701 1734.68 63.421 Q1738.85 67.4314 1746.27 67.4314 Q1750.56 67.4314 1754.57 66.3781 Q1758.62 65.3249 1762.59 63.2184 L1762.59 70.267 Q1758.58 71.9684 1754.37 72.8596 Q1750.15 73.7508 1745.82 73.7508 Q1734.96 73.7508 1728.6 67.4314 Q1722.28 61.1119 1722.28 50.3365 Q1722.28 39.1965 1728.28 32.6746 Q1734.32 26.1121 1744.52 26.1121 Q1753.68 26.1121 1758.99 32.0264 Q1764.33 37.9003 1764.33 48.0275 M1756.88 45.84 Q1756.8 39.7232 1753.44 36.0774 Q1750.11 32.4315 1744.6 32.4315 Q1738.37 32.4315 1734.6 35.9558 Q1730.87 39.4801 1730.3 45.8805 L1756.88 45.84 Z" fill="#000000" fill-rule="nonzero" fill-opacity="1" /><path clip-path="url(#clip280)" d="M1811.89 35.9153 Q1814.68 30.8922 1818.57 28.5022 Q1822.46 26.1121 1827.73 26.1121 Q1834.82 26.1121 1838.67 31.0947 Q1842.51 36.0368 1842.51 45.1919 L1842.51 72.576 L1835.02 72.576 L1835.02 45.4349 Q1835.02 38.913 1832.71 35.7533 Q1830.4 32.5936 1825.66 32.5936 Q1819.87 32.5936 1816.51 36.4419 Q1813.15 40.2903 1813.15 46.9338 L1813.15 72.576 L1805.65 72.576 L1805.65 45.4349 Q1805.65 38.8725 1803.34 35.7533 Q1801.03 32.5936 1796.21 32.5936 Q1790.5 32.5936 1787.14 36.4824 Q1783.78 40.3308 1783.78 46.9338 L1783.78 72.576 L1776.28 72.576 L1776.28 27.2059 L1783.78 27.2059 L1783.78 34.2544 Q1786.33 30.082 1789.89 28.0971 Q1793.46 26.1121 1798.36 26.1121 Q1803.3 26.1121 1806.75 28.6237 Q1810.23 31.1352 1811.89 35.9153 Z" fill="#000000" fill-rule="nonzero" fill-opacity="1" /><polyline clip-path="url(#clip281)" style="stroke:#009af9; stroke-linecap:round; stroke-linejoin:round; stroke-width:8; stroke-opacity:1; fill:none" points="257.204,773.287 259.302,769.422 261.399,765.559 263.497,761.698 265.595,757.842 267.692,753.993 269.79,750.15 271.888,746.317 273.985,742.494 276.083,738.683 278.181,734.886 280.278,731.103 282.376,727.337 284.473,723.589 286.571,719.86 288.669,716.152 290.766,712.467 292.864,708.804 294.962,705.167 297.059,701.557 299.157,697.974 301.255,694.42 303.352,690.897 305.45,687.406 307.548,683.948 309.645,680.525 311.743,677.137 313.841,673.787 315.938,670.475 318.036,667.202 320.134,663.971 322.231,660.781 324.329,657.635 326.426,654.534 328.524,651.478 330.622,648.468 332.719,645.507 334.817,642.594 336.915,639.732 339.012,636.921 341.11,634.161 343.208,631.455 345.305,628.803 347.403,626.207 349.501,623.666 351.598,621.182 353.696,618.756 355.794,616.389 357.891,614.081 359.989,611.834 362.087,609.647 364.184,607.523 366.282,605.462 368.379,603.464 370.477,601.53 372.575,599.661 374.672,597.858 376.77,596.12 378.868,594.45 380.965,592.847 383.063,591.312 385.161,589.845 387.258,588.447 389.356,587.119 391.454,585.86 393.551,584.672 395.649,583.555 397.747,582.509 399.844,581.534 401.942,580.632 404.039,579.801 406.137,579.043 408.235,578.357 410.332,577.745 412.43,577.205 414.528,576.739 416.625,576.346 418.723,576.027 420.821,575.781 422.918,575.61 425.016,575.512 427.114,575.488 429.211,575.538 431.309,575.662 433.407,575.859 435.504,576.131 437.602,576.476 439.7,576.895 441.797,577.387 443.895,577.953 445.992,578.592 448.09,579.303 450.188,580.087 452.285,580.944 454.383,581.872 456.481,582.872 458.578,583.944 460.676,585.087 462.774,586.3 464.871,587.583 466.969,588.936 469.067,590.358 471.164,591.849 473.262,593.408 475.36,595.035 477.457,596.729 479.555,598.49 481.653,600.317 483.75,602.209 485.848,604.165 487.945,606.186 490.043,608.269 492.141,610.416 494.238,612.623 496.336,614.892 498.434,617.221 500.531,619.61 502.629,622.057 504.727,624.561 506.824,627.122 508.922,629.738 511.02,632.41 513.117,635.135 515.215,637.913 517.313,640.742 519.41,643.623 521.508,646.553 523.606,649.531 525.703,652.557 527.801,655.63 529.898,658.747 531.996,661.909 534.094,665.113 536.191,668.359 538.289,671.645 540.387,674.971 542.484,678.334 544.582,681.735 546.68,685.17 548.777,688.64 550.875,692.142 552.973,695.676 555.07,699.24 557.168,702.833 559.266,706.454 561.363,710.1 563.461,713.771 565.559,717.465 567.656,721.181 569.754,724.917 571.851,728.672 573.949,732.445 576.047,736.233 578.144,740.036 580.242,743.851 582.34,747.678 584.437,751.515 586.535,755.361 588.633,759.213 590.73,763.071 592.828,766.933 594.926,770.797 597.023,774.663 599.121,778.527 601.219,782.39 603.316,786.249 605.414,790.102 607.511,793.95 609.609,797.789 611.707,801.618 613.804,805.437 615.902,809.243 618,813.035 620.097,816.811 622.195,820.571 624.293,824.312 626.39,828.034 628.488,831.734 630.586,835.412 632.683,839.065 634.781,842.694 636.879,846.295 638.976,849.868 641.074,853.411 643.172,856.924 645.269,860.404 647.367,863.85 649.464,867.261 651.562,870.635 653.66,873.972 655.757,877.27 657.855,880.529 659.953,883.746 662.05,886.92 664.148,890.051 666.246,893.137 668.343,896.177 670.441,899.169 672.539,902.113 674.636,905.008 676.734,907.853 678.832,910.645 680.929,913.386 683.027,916.073 685.125,918.705 687.222,921.282 689.32,923.802 691.417,926.265 693.515,928.67 695.613,931.016 697.71,933.302 699.808,935.528 701.906,937.692 704.003,939.794 706.101,941.832 708.199,943.807 710.296,945.718 712.394,947.564 714.492,949.343 716.589,951.057 718.687,952.703 720.785,954.283 722.882,955.794 724.98,957.237 727.078,958.611 729.175,959.915 731.273,961.149 733.37,962.313 735.468,963.406 737.566,964.428 739.663,965.378 741.761,966.256 743.859,967.062 745.956,967.795 748.054,968.456 750.152,969.043 752.249,969.556 754.347,969.997 756.445,970.363 758.542,970.656 760.64,970.875 762.738,971.02 764.835,971.091 766.933,971.088 769.031,971.01 771.128,970.859 773.226,970.634 775.323,970.335 777.421,969.963 779.519,969.516 781.616,968.997 783.714,968.404 785.812,967.739 787.909,967 790.007,966.189 792.105,965.307 794.202,964.352 796.3,963.326 798.398,962.229 800.495,961.061 802.593,959.823 804.691,958.515 806.788,957.138 808.886,955.691 810.984,954.176 813.081,952.592 815.179,950.942 817.276,949.224 819.374,947.44 821.472,945.59 823.569,943.675 825.667,941.696 827.765,939.653 829.862,937.547 831.96,935.379 834.058,933.149 836.155,930.859 838.253,928.508 840.351,926.099 842.448,923.631 844.546,921.106 846.644,918.525 848.741,915.888 850.839,913.197 852.936,910.453 855.034,907.656 857.132,904.807 859.229,901.908 861.327,898.96 863.425,895.964 865.522,892.921 867.62,889.832 869.718,886.699 871.815,883.521 873.913,880.302 876.011,877.041 878.108,873.74 880.206,870.4 882.304,867.023 884.401,863.61 886.499,860.162 888.597,856.681 890.694,853.168 892.792,849.623 894.889,846.049 896.987,842.447 899.085,838.818 901.182,835.164 903.28,831.486 905.378,827.785 907.475,824.063 909.573,820.321 911.671,816.561 913.768,812.783 915.866,808.99 917.964,805.183 920.061,801.364 922.159,797.533 924.257,793.693 926.354,789.844 928.452,785.989 930.55,782.128 932.647,778.264 934.745,774.398 936.842,770.531 938.94,766.665 941.038,762.802 943.135,758.942 945.233,755.088 947.331,751.242 949.428,747.404 951.526,743.577 953.624,739.762 955.721,735.96 957.819,732.173 959.917,728.402 962.014,724.648 964.112,720.913 966.21,717.198 968.307,713.506 970.405,709.836 972.503,706.191 974.6,702.573 976.698,698.981 978.795,695.419 980.893,691.887 982.991,688.387 985.088,684.919 987.186,681.486 989.284,678.089 991.381,674.728 993.479,671.405 995.577,668.122 997.674,664.879 999.772,661.677 1001.87,658.519 1003.97,655.405 1006.06,652.336 1008.16,649.313 1010.26,646.338 1012.36,643.412 1014.46,640.535 1016.55,637.709 1018.65,634.934 1020.75,632.213 1022.85,629.545 1024.94,626.932 1027.04,624.375 1029.14,621.875 1031.24,619.432 1033.33,617.048 1035.43,614.723 1037.53,612.458 1039.63,610.254 1041.72,608.111 1043.82,606.031 1045.92,604.014 1048.02,602.06 1050.12,600.172 1052.21,598.348 1054.31,596.591 1056.41,594.9 1058.51,593.277 1060.6,591.721 1062.7,590.234 1064.8,588.815 1066.9,587.466 1068.99,586.188 1071.09,584.979 1073.19,583.841 1075.29,582.775 1077.38,581.78 1079.48,580.857 1081.58,580.006 1083.68,579.228 1085.78,578.523 1087.87,577.89 1089.97,577.331 1092.07,576.846 1094.17,576.434 1096.26,576.095 1098.36,575.83 1100.46,575.64 1102.56,575.523 1104.65,575.48 1106.75,575.511 1108.85,575.615 1110.95,575.794 1113.05,576.046 1115.14,576.371 1117.24,576.771 1119.34,577.243 1121.44,577.788 1123.53,578.406 1125.63,579.097 1127.73,579.86 1129.83,580.696 1131.92,581.603 1134.02,582.582 1136.12,583.633 1138.22,584.755 1140.31,585.947 1142.41,587.21 1144.51,588.543 1146.61,589.945 1148.71,591.416 1150.8,592.955 1152.9,594.563 1155,596.238 1157.1,597.98 1159.19,599.788 1161.29,601.661 1163.39,603.6 1165.49,605.603 1167.58,607.669 1169.68,609.799 1171.78,611.99 1173.88,614.243 1175.97,616.556 1178.07,618.929 1180.17,621.36 1182.27,623.85 1184.37,626.396 1186.46,628.998 1188.56,631.656 1190.66,634.367 1192.76,637.132 1194.85,639.948 1196.95,642.816 1199.05,645.733 1201.15,648.699 1203.24,651.712 1205.34,654.772 1207.44,657.877 1209.54,661.027 1211.63,664.22 1213.73,667.454 1215.83,670.73 1217.93,674.045 1220.03,677.398 1222.12,680.788 1224.22,684.214 1226.32,687.674 1228.42,691.167 1230.51,694.691 1232.61,698.246 1234.71,701.83 1236.81,705.442 1238.9,709.08 1241,712.743 1243.1,716.43 1245.2,720.138 1247.29,723.868 1249.39,727.617 1251.49,731.384 1253.59,735.167 1255.69,738.966 1257.78,742.778 1259.88,746.602 1261.98,750.437 1264.08,754.281 1266.17,758.132 1268.27,761.99 1270.37,765.853 1272.47,769.719 1274.56,773.586 1276.66,777.453 1278.76,781.319 1280.86,785.182 1282.95,789.04 1285.05,792.891 1287.15,796.735 1289.25,800.57 1291.35,804.393 1293.44,808.204 1295.54,812 1297.64,815.782 1299.74,819.547 1301.83,823.294 1303.93,827.022 1306.03,830.729 1308.13,834.414 1310.22,838.075 1312.32,841.711 1314.42,845.32 1316.52,848.9 1318.61,852.452 1320.71,855.973 1322.81,859.461 1324.91,862.917 1327.01,866.337 1329.1,869.722 1331.2,873.069 1333.3,876.377 1335.4,879.646 1337.49,882.874 1339.59,886.059 1341.69,889.202 1343.79,892.299 1345.88,895.352 1347.98,898.357 1350.08,901.314 1352.18,904.223 1354.27,907.081 1356.37,909.888 1358.47,912.643 1360.57,915.345 1362.67,917.993 1364.76,920.586 1366.86,923.123 1368.96,925.602 1371.06,928.024 1373.15,930.387 1375.25,932.69 1377.35,934.933 1379.45,937.114 1381.54,939.233 1383.64,941.29 1385.74,943.283 1387.84,945.213 1389.93,947.077 1392.03,948.877 1394.13,950.61 1396.23,952.277 1398.33,953.876 1400.42,955.408 1402.52,956.87 1404.62,958.264 1406.72,959.588 1408.81,960.843 1410.91,962.026 1413.01,963.139 1415.11,964.18 1417.2,965.149 1419.3,966.047 1421.4,966.872 1423.5,967.624 1425.59,968.304 1427.69,968.91 1429.79,969.443 1431.89,969.902 1433.99,970.288 1436.08,970.599 1438.18,970.837 1440.28,971.001 1442.38,971.09 1444.47,971.106 1446.57,971.048 1448.67,970.916 1450.77,970.709 1452.86,970.429 1454.96,970.076 1457.06,969.649 1459.16,969.148 1461.25,968.575 1463.35,967.928 1465.45,967.209 1467.55,966.418 1469.65,965.555 1471.74,964.62 1473.84,963.614 1475.94,962.536 1478.04,961.388 1480.13,960.169 1482.23,958.881 1484.33,957.522 1486.43,956.095 1488.52,954.599 1490.62,953.034 1492.72,951.402 1494.82,949.703 1496.91,947.938 1499.01,946.106 1501.11,944.209 1503.21,942.248 1505.31,940.222 1507.4,938.133 1509.5,935.982 1511.6,933.769 1513.7,931.495 1515.79,929.16 1517.89,926.767 1519.99,924.314 1522.09,921.805 1524.18,919.238 1526.28,916.616 1528.38,913.939 1530.48,911.208 1532.57,908.424 1534.67,905.588 1536.77,902.702 1538.87,899.766 1540.97,896.782 1543.06,893.75 1545.16,890.672 1547.26,887.549 1549.36,884.382 1551.45,881.173 1553.55,877.922 1555.65,874.631 1557.75,871.302 1559.84,867.934 1561.94,864.531 1564.04,861.091 1566.14,857.618 1568.23,854.113 1570.33,850.576 1572.43,847.009 1574.53,843.414 1576.63,839.792 1578.72,836.144 1580.82,832.472 1582.92,828.777 1585.02,825.061 1587.11,821.324 1589.21,817.569 1591.31,813.797 1593.41,810.009 1595.5,806.207 1597.6,802.391 1599.7,798.565 1601.8,794.728 1603.9,790.883 1605.99,787.03 1608.09,783.173 1610.19,779.311 1612.29,775.446 1614.38,771.58 1616.48,767.714 1618.58,763.851 1620.68,759.991 1622.77,756.135 1624.87,752.286 1626.97,748.445 1629.07,744.613 1631.16,740.792 1633.26,736.984 1635.36,733.19 1637.46,729.411 1639.56,725.65 1641.65,721.907 1643.75,718.185 1645.85,714.485 1647.95,710.808 1650.04,707.156 1652.14,703.53 1654.24,699.931 1656.34,696.36 1658.43,692.819 1660.53,689.309 1662.63,685.832 1664.73,682.388 1666.82,678.98 1668.92,675.608 1671.02,672.274 1673.12,668.979 1675.22,665.724 1677.31,662.511 1679.41,659.34 1681.51,656.214 1683.61,653.132 1685.7,650.097 1687.8,647.109 1689.9,644.17 1692,641.28 1694.09,638.44 1696.19,635.652 1698.29,632.917 1700.39,630.236 1702.48,627.609 1704.58,625.037 1706.68,622.522 1708.78,620.064 1710.88,617.665 1712.97,615.325 1715.07,613.044 1717.17,610.824 1719.27,608.666 1721.36,606.57 1723.46,604.537 1725.56,602.568 1727.66,600.664 1729.75,598.824 1731.85,597.051 1733.95,595.344 1736.05,593.703 1738.14,592.131 1740.24,590.625 1742.34,589.188 1744.44,587.82 1746.54,586.522 1748.63,585.293 1750.73,584.134 1752.83,583.047 1754.93,582.03 1757.02,581.085 1759.12,580.213 1761.22,579.412 1763.32,578.685 1765.41,578.03 1767.51,577.448 1769.61,576.94 1771.71,576.506 1773.8,576.145 1775.9,575.858 1778,575.646 1780.1,575.507 1782.2,575.443 1784.29,575.453 1786.39,575.537 1788.49,575.695 1790.59,575.928 1792.68,576.234 1794.78,576.614 1796.88,577.068 1798.98,577.596 1801.07,578.197 1803.17,578.871 1805.27,579.618 1807.37,580.438 1809.46,581.33 1811.56,582.294 1813.66,583.329 1815.76,584.436 1817.86,585.613 1819.95,586.861 1822.05,588.178 1824.15,589.565 1826.25,591.02 1828.34,592.544 1830.44,594.135 1832.54,595.793 1834.64,597.518 1836.73,599.309 1838.83,601.165 1840.93,603.087 1843.03,605.072 1845.12,607.122 1847.22,609.234 1849.32,611.408 1851.42,613.643 1853.52,615.939 1855.61,618.295 1857.71,620.71 1859.81,623.182 1861.91,625.712 1864,628.298 1866.1,630.94 1868.2,633.636 1870.3,636.385 1872.39,639.187 1874.49,642.04 1876.59,644.944 1878.69,647.896 1880.78,650.897 1882.88,653.946 1884.98,657.04 1887.08,660.179 1889.18,663.361 1891.27,666.586 1893.37,669.853 1895.47,673.159 1897.57,676.504 1899.66,679.886 1901.76,683.304 1903.86,686.758 1905.96,690.244 1908.05,693.762 1910.15,697.312 1912.25,700.89 1914.35,704.496 1916.44,708.129 1918.54,711.787 1920.64,715.469 1922.74,719.173 1924.84,722.899 1926.93,726.644 1929.03,730.407 1931.13,734.186 1933.23,737.981 1935.32,741.789 1937.42,745.609 1939.52,749.44 1941.62,753.279 1943.71,757.127 1945.81,760.981 1947.91,764.839 1950.01,768.701 1952.1,772.565 1954.2,776.429 1956.3,780.291 1958.4,784.152 1960.5,788.008 1962.59,791.858 1964.69,795.702 1966.79,799.537 1968.89,803.362 1970.98,807.176 1973.08,810.976 1975.18,814.763 1977.28,818.534 1979.37,822.287 1981.47,826.022 1983.57,829.737 1985.67,833.43 1987.76,837.1 1989.86,840.745 1991.96,844.364 1994.06,847.956 1996.16,851.519 1998.25,855.052 2000.35,858.553 2002.45,862.02 2004.55,865.453 2006.64,868.85 2008.74,872.209 2010.84,875.528 2012.94,878.809 2015.03,882.048 2017.13,885.246 2019.23,888.401 2021.33,891.512 2023.42,894.578 2025.52,897.597 2027.62,900.568 2029.72,903.491 2031.82,906.363 2033.91,909.185 2036.01,911.954 2038.11,914.671 2040.21,917.333 2042.3,919.941 2044.4,922.492 2046.5,924.987 2048.6,927.423 2050.69,929.801 2052.79,932.12 2054.89,934.378 2056.99,936.575 2059.08,938.71 2061.18,940.783 2063.28,942.792 2065.38,944.736 2067.48,946.616 2069.57,948.431 2071.67,950.18 2073.77,951.861 2075.87,953.476 2077.96,955.023 2080.06,956.501 2082.16,957.911 2084.26,959.251 2086.35,960.521 2088.45,961.722 2090.55,962.851 2092.65,963.91 2094.75,964.897 2096.84,965.813 2098.94,966.658 2101.04,967.43 2103.14,968.13 2105.23,968.758 2107.33,969.313 2109.43,969.795 2111.53,970.203 2113.62,970.538 2115.72,970.799 2117.82,970.987 2119.92,971.1 2122.01,971.14 2124.11,971.105 2126.21,970.996 2128.31,970.813 2130.41,970.557 2132.5,970.226 2134.6,969.821 2136.7,969.343 2138.8,968.791 2140.89,968.165 2142.99,967.467 2145.09,966.695 2147.19,965.851 2149.28,964.934 2151.38,963.945 2153.48,962.884 2155.58,961.752 2157.67,960.55 2159.77,959.276 2161.87,957.932 2163.97,956.519 2166.07,955.037 2168.16,953.487 2170.26,951.868 2172.36,950.182 2174.46,948.43 2176.55,946.611 2178.65,944.727 2180.75,942.779 2182.85,940.767 2184.94,938.691 2187.04,936.554 2189.14,934.355 2191.24,932.095 2193.33,929.776 2195.43,927.398 2197.53,924.961 2199.63,922.466 2201.73,919.914 2203.82,917.307 2205.92,914.645 2208.02,911.929 2210.12,909.161 2212.21,906.34 2214.31,903.468 2216.41,900.547 2218.51,897.577 2220.6,894.56 2222.7,891.495 2224.8,888.386 2226.9,885.232 2228.99,882.035 2231.09,878.796 2233.19,875.516 2235.29,872.197 2237.39,868.839 2239.48,865.444 2241.58,862.014 2243.68,858.549 2245.78,855.051 2247.87,851.521 2249.97,847.96 2252.07,844.37 2254.17,840.753 2256.26,837.109 2258.36,833.44 2260.46,829.748 2262.56,826.034 2264.65,822.299 2266.75,818.545 2268.85,814.774 2270.95,810.987 2273.05,807.185 2275.14,803.37 2277.24,799.544 2279.34,795.708 2281.44,791.864 2283.53,788.011 2285.63,784.154 2287.73,780.291 2289.83,776.427 2291.92,772.561 2294.02,768.695 2296.12,764.832 2298.22,760.971 2300.31,757.116 2302.41,753.267 2304.51,749.426 2306.61,745.594 2308.71,741.773 2310.8,737.964 2312.9,734.17 2315,730.39 2317.1,726.627 2319.19,722.882 2321.29,719.157 2323.39,715.452 2325.49,711.77 2327.58,708.112 2329.68,704.479 2331.78,700.872 2333.88,697.294 2335.97,693.745 2338.07,690.226 2340.17,686.74 2342.27,683.287 2344.37,679.869 2346.46,676.487 2348.56,673.142 2350.66,669.837 2352.76,666.571 "/>
<polyline clip-path="url(#clip281)" style="stroke:#e26f46; stroke-linecap:round; stroke-linejoin:round; stroke-width:8; stroke-opacity:1; fill:none" points="257.204,160.372 259.302,160.491 261.399,160.85 263.497,161.447 265.595,162.283 267.692,163.357 269.79,164.669 271.888,166.218 273.985,168.004 276.083,170.024 278.181,172.279 280.278,174.768 282.376,177.488 284.473,180.439 286.571,183.62 288.669,187.029 290.766,190.664 292.864,194.523 294.962,198.605 297.059,202.908 299.157,207.43 301.255,212.168 303.352,217.121 305.45,222.286 307.548,227.661 309.645,233.243 311.743,239.029 313.841,245.018 315.938,251.207 318.036,257.592 320.134,264.17 322.231,270.94 324.329,277.898 326.426,285.04 328.524,292.364 330.622,299.867 332.719,307.545 334.817,315.395 336.915,323.414 339.012,331.598 341.11,339.944 343.208,348.448 345.305,357.107 347.403,365.918 349.501,374.876 351.598,383.979 353.696,393.222 355.794,402.602 357.891,412.115 359.989,421.758 362.087,431.526 364.184,441.415 366.282,451.423 368.379,461.545 370.477,471.777 372.575,482.116 374.672,492.557 376.77,503.096 378.868,513.731 380.965,524.456 383.063,535.268 385.161,546.163 387.258,557.137 389.356,568.186 391.454,579.306 393.551,590.493 395.649,601.743 397.747,613.053 399.844,624.418 401.942,635.834 404.039,647.297 406.137,658.803 408.235,670.349 410.332,681.93 412.43,693.542 414.528,705.182 416.625,716.844 418.723,728.526 420.821,740.224 422.918,751.932 425.016,763.648 427.114,775.367 429.211,787.086 431.309,798.8 433.407,810.505 435.504,822.197 437.602,833.873 439.7,845.527 441.797,857.158 443.895,868.759 445.992,880.328 448.09,891.86 450.188,903.351 452.285,914.798 454.383,926.196 456.481,937.542 458.578,948.831 460.676,960.059 462.774,971.223 464.871,982.319 466.969,993.342 469.067,1004.29 471.164,1015.16 473.262,1025.94 475.36,1036.63 477.457,1047.23 479.555,1057.74 481.653,1068.14 483.75,1078.44 485.848,1088.64 487.945,1098.72 490.043,1108.68 492.141,1118.53 494.238,1128.25 496.336,1137.85 498.434,1147.32 500.531,1156.65 502.629,1165.84 504.727,1174.89 506.824,1183.8 508.922,1192.56 511.02,1201.16 513.117,1209.61 515.215,1217.9 517.313,1226.03 519.41,1233.99 521.508,1241.78 523.606,1249.4 525.703,1256.84 527.801,1264.1 529.898,1271.18 531.996,1278.07 534.094,1284.78 536.191,1291.29 538.289,1297.61 540.387,1303.72 542.484,1309.64 544.582,1315.36 546.68,1320.86 548.777,1326.16 550.875,1331.25 552.973,1336.13 555.07,1340.79 557.168,1345.23 559.266,1349.45 561.363,1353.45 563.461,1357.23 565.559,1360.79 567.656,1364.11 569.754,1367.21 571.851,1370.08 573.949,1372.72 576.047,1375.12 578.144,1377.3 580.242,1379.23 582.34,1380.93 584.437,1382.4 586.535,1383.63 588.633,1384.62 590.73,1385.37 592.828,1385.88 594.926,1386.16 597.023,1386.2 599.121,1385.99 601.219,1385.55 603.316,1384.87 605.414,1383.95 607.511,1382.79 609.609,1381.4 611.707,1379.77 613.804,1377.9 615.902,1375.8 618,1373.46 620.097,1370.89 622.195,1368.08 624.293,1365.05 626.39,1361.79 628.488,1358.3 630.586,1354.58 632.683,1350.64 634.781,1346.48 636.879,1342.09 638.976,1337.49 641.074,1332.67 643.172,1327.64 645.269,1322.4 647.367,1316.95 649.464,1311.3 651.562,1305.44 653.66,1299.38 655.757,1293.12 657.855,1286.66 659.953,1280.01 662.05,1273.18 664.148,1266.15 666.246,1258.95 668.343,1251.56 670.441,1243.99 672.539,1236.25 674.636,1228.35 676.734,1220.27 678.832,1212.03 680.929,1203.63 683.027,1195.07 685.125,1186.35 687.222,1177.49 689.32,1168.48 691.417,1159.33 693.515,1150.04 695.613,1140.61 697.71,1131.05 699.808,1121.36 701.906,1111.55 704.003,1101.61 706.101,1091.56 708.199,1081.4 710.296,1071.13 712.394,1060.75 714.492,1050.27 716.589,1039.7 718.687,1029.03 720.785,1018.27 722.882,1007.43 724.98,996.506 727.078,985.505 729.175,974.43 731.273,963.285 733.37,952.074 735.468,940.802 737.566,929.472 739.663,918.088 741.761,906.654 743.859,895.175 745.956,883.654 748.054,872.095 750.152,860.502 752.249,848.879 754.347,837.23 756.445,825.56 758.542,813.871 760.64,802.169 762.738,790.457 764.835,778.739 766.933,767.019 769.031,755.301 771.128,743.59 773.226,731.888 775.323,720.2 777.421,708.531 779.519,696.884 781.616,685.263 783.714,673.672 785.812,662.115 787.909,650.596 790.007,639.12 792.105,627.689 794.202,616.309 796.3,604.983 798.398,593.715 800.495,582.509 802.593,571.368 804.691,560.297 806.788,549.299 808.886,538.379 810.984,527.541 813.081,516.789 815.179,506.127 817.276,495.559 819.374,485.088 821.472,474.72 823.569,464.456 825.667,454.303 827.765,444.262 829.862,434.339 831.96,424.537 834.058,414.859 836.155,405.31 838.253,395.893 840.351,386.611 842.448,377.469 844.546,368.47 846.644,359.618 848.741,350.916 850.839,342.367 852.936,333.976 855.034,325.745 857.132,317.678 859.229,309.779 861.327,302.051 863.425,294.497 865.522,287.121 867.62,279.926 869.718,272.915 871.815,266.09 873.913,259.453 876.011,253.007 878.108,246.756 880.206,240.703 882.304,234.851 884.401,229.203 886.499,223.762 888.597,218.53 890.694,213.51 892.792,208.704 894.889,204.115 896.987,199.744 899.085,195.595 901.182,191.669 903.28,187.967 905.378,184.492 907.475,181.246 909.573,178.229 911.671,175.443 913.768,172.89 915.866,170.57 917.964,168.485 920.061,166.635 922.159,165.022 924.257,163.646 926.354,162.508 928.452,161.609 930.55,160.947 932.647,160.525 934.745,160.342 936.842,160.397 938.94,160.692 941.038,161.225 943.135,161.997 945.233,163.007 947.331,164.254 949.428,165.738 951.526,167.458 953.624,169.413 955.721,171.602 957.819,174.024 959.917,176.679 962.014,179.566 964.112,182.682 966.21,186.026 968.307,189.597 970.405,193.392 972.503,197.41 974.6,201.649 976.698,206.107 978.795,210.783 980.893,215.672 982.991,220.775 985.088,226.088 987.186,231.609 989.284,237.336 991.381,243.265 993.479,249.395 995.577,255.723 997.674,262.246 999.772,268.961 1001.87,275.865 1003.97,282.956 1006.06,290.23 1008.16,297.684 1010.26,305.315 1012.36,313.12 1014.46,321.095 1016.55,329.237 1018.65,337.542 1020.75,346.007 1022.85,354.628 1024.94,363.401 1027.04,372.323 1029.14,381.389 1031.24,390.596 1033.33,399.939 1035.43,409.415 1037.53,419.022 1039.63,428.755 1041.72,438.612 1043.82,448.587 1045.92,458.678 1048.02,468.88 1050.12,479.19 1052.21,489.603 1054.31,500.116 1056.41,510.725 1058.51,521.425 1060.6,532.213 1062.7,543.086 1064.8,554.038 1066.9,565.067 1068.99,576.168 1071.09,587.337 1073.19,598.571 1075.29,609.865 1077.38,621.216 1079.48,632.618 1081.58,644.07 1083.68,655.566 1085.78,667.102 1087.87,678.675 1089.97,690.281 1092.07,701.915 1094.17,713.573 1096.26,725.252 1098.36,736.948 1100.46,748.656 1102.56,760.372 1104.65,772.093 1106.75,783.814 1108.85,795.532 1110.95,807.242 1113.05,818.94 1115.14,830.622 1117.24,842.284 1119.34,853.922 1121.44,865.533 1123.53,877.112 1125.63,888.656 1127.73,900.161 1129.83,911.623 1131.92,923.037 1134.02,934.4 1136.12,945.708 1138.22,956.956 1140.31,968.14 1142.41,979.257 1144.51,990.302 1146.61,1001.27 1148.71,1012.16 1150.8,1022.97 1152.9,1033.69 1155,1044.31 1157.1,1054.84 1159.19,1065.28 1161.29,1075.61 1163.39,1085.83 1165.49,1095.94 1167.58,1105.94 1169.68,1115.82 1171.78,1125.57 1173.88,1135.2 1175.97,1144.71 1178.07,1154.07 1180.17,1163.31 1182.27,1172.4 1184.37,1181.34 1186.46,1190.14 1188.56,1198.79 1190.66,1207.28 1192.76,1215.62 1194.85,1223.79 1196.95,1231.8 1199.05,1239.64 1201.15,1247.3 1203.24,1254.79 1205.34,1262.1 1207.44,1269.23 1209.54,1276.18 1211.63,1282.94 1213.73,1289.51 1215.83,1295.89 1217.93,1302.07 1220.03,1308.05 1222.12,1313.83 1224.22,1319.41 1226.32,1324.77 1228.42,1329.93 1230.51,1334.87 1232.61,1339.6 1234.71,1344.11 1236.81,1348.4 1238.9,1352.47 1241,1356.31 1243.1,1359.93 1245.2,1363.32 1247.29,1366.48 1249.39,1369.41 1251.49,1372.11 1253.59,1374.58 1255.69,1376.81 1257.78,1378.81 1259.88,1380.57 1261.98,1382.1 1264.08,1383.39 1266.17,1384.44 1268.27,1385.25 1270.37,1385.83 1272.47,1386.16 1274.56,1386.26 1276.66,1386.11 1278.76,1385.73 1280.86,1385.11 1282.95,1384.25 1285.05,1383.15 1287.15,1381.82 1289.25,1380.25 1291.35,1378.44 1293.44,1376.4 1295.54,1374.13 1297.64,1371.62 1299.74,1368.88 1301.83,1365.91 1303.93,1362.71 1306.03,1359.28 1308.13,1355.63 1310.22,1351.76 1312.32,1347.66 1314.42,1343.34 1316.52,1338.8 1318.61,1334.05 1320.71,1329.08 1322.81,1323.9 1324.91,1318.51 1327.01,1312.92 1329.1,1307.12 1331.2,1301.11 1333.3,1294.91 1335.4,1288.51 1337.49,1281.92 1339.59,1275.14 1341.69,1268.17 1343.79,1261.01 1345.88,1253.67 1347.98,1246.15 1350.08,1238.46 1352.18,1230.59 1354.27,1222.55 1356.37,1214.35 1358.47,1205.99 1360.57,1197.46 1362.67,1188.78 1364.76,1179.95 1366.86,1170.97 1368.96,1161.85 1371.06,1152.59 1373.15,1143.19 1375.25,1133.66 1377.35,1124.01 1379.45,1114.23 1381.54,1104.33 1383.64,1094.31 1385.74,1084.18 1387.84,1073.93 1389.93,1063.59 1392.03,1053.14 1394.13,1042.59 1396.23,1031.94 1398.33,1021.21 1400.42,1010.39 1402.52,999.488 1404.62,988.507 1406.72,977.451 1408.81,966.324 1410.91,955.13 1413.01,943.874 1415.11,932.559 1417.2,921.188 1419.3,909.767 1421.4,898.299 1423.5,886.787 1425.59,875.237 1427.69,863.652 1429.79,852.035 1431.89,840.392 1433.99,828.725 1436.08,817.039 1438.18,805.338 1440.28,793.626 1442.38,781.907 1444.47,770.185 1446.57,758.464 1448.67,746.748 1450.77,735.042 1452.86,723.348 1454.96,711.671 1457.06,700.015 1459.16,688.385 1461.25,676.784 1463.35,665.216 1465.45,653.686 1467.55,642.197 1469.65,630.753 1471.74,619.359 1473.84,608.017 1475.94,596.731 1478.04,585.505 1480.13,574.344 1482.23,563.251 1484.33,552.231 1486.43,541.288 1488.52,530.426 1490.62,519.649 1492.72,508.961 1494.82,498.365 1496.91,487.867 1499.01,477.47 1501.11,467.178 1503.21,456.994 1505.31,446.923 1507.4,436.968 1509.5,427.133 1511.6,417.422 1513.7,407.838 1515.79,398.386 1517.89,389.068 1519.99,379.889 1522.09,370.852 1524.18,361.961 1526.28,353.219 1528.38,344.63 1530.48,336.197 1532.57,327.923 1534.67,319.813 1536.77,311.869 1538.87,304.095 1540.97,296.494 1543.06,289.069 1545.16,281.824 1547.26,274.762 1549.36,267.886 1551.45,261.2 1553.55,254.706 1555.65,248.407 1557.75,242.307 1559.84,236.404 1561.94,230.703 1564.04,225.207 1566.14,219.917 1568.23,214.838 1570.33,209.971 1572.43,205.319 1574.53,200.885 1576.63,196.67 1578.72,192.677 1580.82,188.909 1582.92,185.366 1585.02,182.051 1587.11,178.965 1589.21,176.11 1591.31,173.488 1593.41,171.099 1595.5,168.945 1597.6,167.027 1599.7,165.345 1601.8,163.901 1603.9,162.695 1605.99,161.729 1608.09,161.001 1610.19,160.513 1612.29,160.265 1614.38,160.256 1616.48,160.488 1618.58,160.959 1620.68,161.669 1622.77,162.618 1624.87,163.806 1626.97,165.231 1629.07,166.894 1631.16,168.792 1633.26,170.925 1635.36,173.292 1637.46,175.892 1639.56,178.723 1641.65,181.783 1643.75,185.072 1645.85,188.586 1647.95,192.325 1650.04,196.287 1652.14,200.469 1654.24,204.872 1656.34,209.493 1658.43,214.33 1660.53,219.38 1662.63,224.64 1664.73,230.11 1666.82,235.785 1668.92,241.663 1671.02,247.742 1673.12,254.018 1675.22,260.489 1677.31,267.153 1679.41,274.006 1681.51,281.045 1683.61,288.268 1685.7,295.671 1687.8,303.251 1689.9,311.005 1692,318.93 1694.09,327.023 1696.19,335.28 1698.29,343.698 1700.39,352.273 1702.48,361.002 1704.58,369.882 1706.68,378.909 1708.78,388.079 1710.88,397.388 1712.97,406.834 1715.07,416.411 1717.17,426.116 1719.27,435.946 1721.36,445.896 1723.46,455.963 1725.56,466.141 1727.66,476.428 1729.75,486.819 1731.85,497.309 1733.95,507.895 1736.05,518.572 1738.14,529.338 1740.24,540.189 1742.34,551.121 1744.44,562.13 1746.54,573.213 1748.63,584.365 1750.73,595.583 1752.83,606.861 1754.93,618.198 1757.02,629.587 1759.12,641.026 1761.22,652.511 1763.32,664.037 1765.41,675.601 1767.51,687.198 1769.61,698.824 1771.71,710.477 1773.8,722.151 1775.9,733.842 1778,745.547 1780.1,757.262 1782.2,768.982 1784.29,780.704 1786.39,792.423 1788.49,804.136 1790.59,815.839 1792.68,827.528 1794.78,839.197 1796.88,850.845 1798.98,862.466 1801.07,874.057 1803.17,885.613 1805.27,897.131 1807.37,908.606 1809.46,920.035 1811.56,931.413 1813.66,942.737 1815.76,954.003 1817.86,965.205 1819.95,976.341 1822.05,987.407 1824.15,998.398 1826.25,1009.31 1828.34,1020.14 1830.44,1030.88 1832.54,1041.54 1834.64,1052.1 1836.73,1062.56 1838.83,1072.92 1840.93,1083.18 1843.03,1093.33 1845.12,1103.36 1847.22,1113.28 1849.32,1123.07 1851.42,1132.74 1853.52,1142.28 1855.61,1151.69 1857.71,1160.96 1859.81,1170.09 1861.91,1179.08 1864,1187.91 1866.1,1196.6 1868.2,1205.13 1870.3,1213.51 1872.39,1221.72 1874.49,1229.77 1876.59,1237.65 1878.69,1245.36 1880.78,1252.89 1882.88,1260.24 1884.98,1267.42 1887.08,1274.41 1889.18,1281.21 1891.27,1287.83 1893.37,1294.25 1895.47,1300.47 1897.57,1306.5 1899.66,1312.32 1901.76,1317.94 1903.86,1323.36 1905.96,1328.56 1908.05,1333.55 1910.15,1338.33 1912.25,1342.9 1914.35,1347.24 1916.44,1351.37 1918.54,1355.27 1920.64,1358.95 1922.74,1362.41 1924.84,1365.64 1926.93,1368.65 1929.03,1371.42 1931.13,1373.96 1933.23,1376.27 1935.32,1378.34 1937.42,1380.18 1939.52,1381.78 1941.62,1383.15 1943.71,1384.28 1945.81,1385.17 1947.91,1385.82 1950.01,1386.23 1952.1,1386.4 1954.2,1386.33 1956.3,1386.02 1958.4,1385.47 1960.5,1384.68 1962.59,1383.65 1964.69,1382.38 1966.79,1380.87 1968.89,1379.13 1970.98,1377.15 1973.08,1374.93 1975.18,1372.48 1977.28,1369.8 1979.37,1366.88 1981.47,1363.73 1983.57,1360.36 1985.67,1356.75 1987.76,1352.92 1989.86,1348.87 1991.96,1344.6 1994.06,1340.1 1996.16,1335.39 1998.25,1330.47 2000.35,1325.33 2002.45,1319.98 2004.55,1314.43 2006.64,1308.67 2008.74,1302.71 2010.84,1296.56 2012.94,1290.2 2015.03,1283.66 2017.13,1276.92 2019.23,1269.99 2021.33,1262.88 2023.42,1255.59 2025.52,1248.11 2027.62,1240.47 2029.72,1232.64 2031.82,1224.66 2033.91,1216.5 2036.01,1208.18 2038.11,1199.71 2040.21,1191.07 2042.3,1182.29 2044.4,1173.36 2046.5,1164.28 2048.6,1155.06 2050.69,1145.71 2052.79,1136.22 2054.89,1126.6 2056.99,1116.85 2059.08,1106.98 2061.18,1096.99 2063.28,1086.89 2065.38,1076.67 2067.48,1066.35 2069.57,1055.92 2071.67,1045.4 2073.77,1034.77 2075.87,1024.06 2077.96,1013.26 2080.06,1002.37 2082.16,991.405 2084.26,980.364 2086.35,969.251 2088.45,958.071 2090.55,946.827 2092.65,935.525 2094.75,924.168 2096.84,912.759 2098.94,901.302 2101.04,889.802 2103.14,878.261 2105.23,866.684 2107.33,855.075 2109.43,843.438 2111.53,831.777 2113.62,820.096 2115.72,808.399 2117.82,796.69 2119.92,784.972 2122.01,773.251 2124.11,761.53 2126.21,749.813 2128.31,738.104 2130.41,726.407 2132.5,714.726 2134.6,703.065 2136.7,691.428 2138.8,679.819 2140.89,668.241 2142.99,656.7 2145.09,645.199 2147.19,633.741 2149.28,622.331 2151.38,610.973 2153.48,599.671 2155.58,588.428 2157.67,577.25 2159.77,566.139 2161.87,555.099 2163.97,544.136 2166.07,533.251 2168.16,522.451 2170.26,511.738 2172.36,501.116 2174.46,490.59 2176.55,480.163 2178.65,469.839 2180.75,459.623 2182.85,449.518 2184.94,439.528 2187.04,429.657 2189.14,419.91 2191.24,410.289 2193.33,400.798 2195.43,391.44 2197.53,382.217 2199.63,373.135 2201.73,364.196 2203.82,355.405 2205.92,346.767 2208.02,338.284 2210.12,329.961 2212.21,321.8 2214.31,313.806 2216.41,305.983 2218.51,298.332 2220.6,290.859 2222.7,283.566 2224.8,276.455 2226.9,269.531 2228.99,262.797 2231.09,256.254 2233.19,249.907 2235.29,243.757 2237.39,237.807 2239.48,232.061 2241.58,226.52 2243.68,221.187 2245.78,216.065 2247.87,211.155 2249.97,206.459 2252.07,201.981 2254.17,197.721 2256.26,193.682 2258.36,189.866 2260.46,186.274 2262.56,182.909 2264.65,179.771 2266.75,176.863 2268.85,174.185 2270.95,171.74 2273.05,169.528 2275.14,167.55 2277.24,165.809 2279.34,164.304 2281.44,163.036 2283.53,162.005 2285.63,161.212 2287.73,160.657 2289.83,160.341 2291.92,160.264 2294.02,160.426 2296.12,160.827 2298.22,161.467 2300.31,162.345 2302.41,163.461 2304.51,164.815 2306.61,166.406 2308.71,168.234 2310.8,170.297 2312.9,172.594 2315,175.125 2317.1,177.889 2319.19,180.884 2321.29,184.108 2323.39,187.56 2325.49,191.239 2327.58,195.143 2329.68,199.269 2331.78,203.617 2333.88,208.183 2335.97,212.967 2338.07,217.964 2340.17,223.174 2342.27,228.592 2344.37,234.218 2346.46,240.047 2348.56,246.078 2350.66,252.307 2352.76,258.73 "/>
<path clip-path="url(#clip280)" d="M2026.38 1379.86 L2282.9 1379.86 L2282.9 1229.52 L2026.38 1229.52  Z" fill="#ffffff" fill-rule="evenodd" fill-opacity="1"/>
<polyline clip-path="url(#clip280)" style="stroke:#000000; stroke-linecap:round; stroke-linejoin:round; stroke-width:4; stroke-opacity:1; fill:none" points="2026.38,1379.86 2282.9,1379.86 2282.9,1229.52 2026.38,1229.52 2026.38,1379.86 "/>
<polyline clip-path="url(#clip280)" style="stroke:#009af9; stroke-linecap:round; stroke-linejoin:round; stroke-width:8; stroke-opacity:1; fill:none" points="2049.67,1279.63 2189.37,1279.63 "/>
<path clip-path="url(#clip280)" d="M2231.91 1276.85 L2217.17 1276.85 Q2217.51 1283.77 2219.11 1286.71 Q2221.1 1290.32 2224.55 1290.32 Q2228.02 1290.32 2229.94 1286.69 Q2231.63 1283.49 2231.91 1276.85 M2231.84 1272.91 Q2231.19 1266.34 2229.94 1264.02 Q2227.95 1260.37 2224.55 1260.37 Q2221.01 1260.37 2219.13 1263.98 Q2217.65 1266.89 2217.21 1272.91 L2231.84 1272.91 M2224.55 1256.89 Q2230.11 1256.89 2233.28 1261.8 Q2236.45 1266.69 2236.45 1275.34 Q2236.45 1283.98 2233.28 1288.89 Q2230.11 1293.82 2224.55 1293.82 Q2218.97 1293.82 2215.82 1288.89 Q2212.65 1283.98 2212.65 1275.34 Q2212.65 1266.69 2215.82 1261.8 Q2218.97 1256.89 2224.55 1256.89 Z" fill="#000000" fill-rule="nonzero" fill-opacity="1" /><polyline clip-path="url(#clip280)" style="stroke:#e26f46; stroke-linecap:round; stroke-linejoin:round; stroke-width:8; stroke-opacity:1; fill:none" points="2049.67,1329.74 2189.37,1329.74 "/>
<path clip-path="url(#clip280)" d="M2231.56 1321.4 L2231.56 1307.38 L2235.82 1307.38 L2235.82 1343.4 L2231.56 1343.4 L2231.56 1339.51 Q2230.22 1341.82 2228.16 1342.96 Q2226.13 1344.07 2223.25 1344.07 Q2218.56 1344.07 2215.59 1340.32 Q2212.65 1336.57 2212.65 1330.46 Q2212.65 1324.34 2215.59 1320.59 Q2218.56 1316.84 2223.25 1316.84 Q2226.13 1316.84 2228.16 1317.98 Q2230.22 1319.09 2231.56 1321.4 M2217.05 1330.46 Q2217.05 1335.15 2218.97 1337.84 Q2220.92 1340.5 2224.3 1340.5 Q2227.68 1340.5 2229.62 1337.84 Q2231.56 1335.15 2231.56 1330.46 Q2231.56 1325.76 2229.62 1323.09 Q2227.68 1320.41 2224.3 1320.41 Q2220.92 1320.41 2218.97 1323.09 Q2217.05 1325.76 2217.05 1330.46 Z" fill="#000000" fill-rule="nonzero" fill-opacity="1" /><path clip-path="url(#clip280)" d="M2255.08 1326.96 L2240.34 1326.96 Q2240.69 1333.88 2242.28 1336.82 Q2244.27 1340.43 2247.72 1340.43 Q2251.19 1340.43 2253.12 1336.8 Q2254.81 1333.6 2255.08 1326.96 M2255.01 1323.03 Q2254.37 1316.45 2253.12 1314.14 Q2251.12 1310.48 2247.72 1310.48 Q2244.18 1310.48 2242.31 1314.09 Q2240.82 1317.01 2240.38 1323.03 L2255.01 1323.03 M2247.72 1307.01 Q2253.28 1307.01 2256.45 1311.91 Q2259.62 1316.8 2259.62 1325.46 Q2259.62 1334.09 2256.45 1339 Q2253.28 1343.93 2247.72 1343.93 Q2242.14 1343.93 2239 1339 Q2235.82 1334.09 2235.82 1325.46 Q2235.82 1316.8 2239 1311.91 Q2242.14 1307.01 2247.72 1307.01 Z" fill="#000000" fill-rule="nonzero" fill-opacity="1" /></svg>
