<?xml version="1.0" encoding="utf-8"?>
<svg xmlns="http://www.w3.org/2000/svg" xmlns:xlink="http://www.w3.org/1999/xlink" width="600" height="400" viewBox="0 0 2400 1600">
<defs>
  <clipPath id="clip390">
    <rect x="0" y="0" width="2400" height="1600"/>
  </clipPath>
</defs>
<path clip-path="url(#clip390)" d="M0 1600 L2400 1600 L2400 0 L0 0  Z" fill="#ffffff" fill-rule="evenodd" fill-opacity="1"/>
<defs>
  <clipPath id="clip391">
    <rect x="480" y="0" width="1681" height="1600"/>
  </clipPath>
</defs>
<path clip-path="url(#clip390)" d="M186.274 1423.18 L2352.76 1423.18 L2352.76 47.2441 L186.274 47.2441  Z" fill="#ffffff" fill-rule="evenodd" fill-opacity="1"/>
<defs>
  <clipPath id="clip392">
    <rect x="186" y="47" width="2167" height="1377"/>
  </clipPath>
</defs>
<polyline clip-path="url(#clip392)" style="stroke:#000000; stroke-linecap:round; stroke-linejoin:round; stroke-width:2; stroke-opacity:0.1; fill:none" points="186.274,1423.18 186.274,47.2441 "/>
<polyline clip-path="url(#clip392)" style="stroke:#000000; stroke-linecap:round; stroke-linejoin:round; stroke-width:2; stroke-opacity:0.1; fill:none" points="619.57,1423.18 619.57,47.2441 "/>
<polyline clip-path="url(#clip392)" style="stroke:#000000; stroke-linecap:round; stroke-linejoin:round; stroke-width:2; stroke-opacity:0.1; fill:none" points="1052.87,1423.18 1052.87,47.2441 "/>
<polyline clip-path="url(#clip392)" style="stroke:#000000; stroke-linecap:round; stroke-linejoin:round; stroke-width:2; stroke-opacity:0.1; fill:none" points="1486.16,1423.18 1486.16,47.2441 "/>
<polyline clip-path="url(#clip392)" style="stroke:#000000; stroke-linecap:round; stroke-linejoin:round; stroke-width:2; stroke-opacity:0.1; fill:none" points="1919.46,1423.18 1919.46,47.2441 "/>
<polyline clip-path="url(#clip392)" style="stroke:#000000; stroke-linecap:round; stroke-linejoin:round; stroke-width:2; stroke-opacity:0.1; fill:none" points="2352.76,1423.18 2352.76,47.2441 "/>
<polyline clip-path="url(#clip392)" style="stroke:#000000; stroke-linecap:round; stroke-linejoin:round; stroke-width:2; stroke-opacity:0.1; fill:none" points="186.274,1211.61 2352.76,1211.61 "/>
<polyline clip-path="url(#clip392)" style="stroke:#000000; stroke-linecap:round; stroke-linejoin:round; stroke-width:2; stroke-opacity:0.1; fill:none" points="186.274,951.713 2352.76,951.713 "/>
<polyline clip-path="url(#clip392)" style="stroke:#000000; stroke-linecap:round; stroke-linejoin:round; stroke-width:2; stroke-opacity:0.1; fill:none" points="186.274,691.817 2352.76,691.817 "/>
<polyline clip-path="url(#clip392)" style="stroke:#000000; stroke-linecap:round; stroke-linejoin:round; stroke-width:2; stroke-opacity:0.1; fill:none" points="186.274,431.922 2352.76,431.922 "/>
<polyline clip-path="url(#clip392)" style="stroke:#000000; stroke-linecap:round; stroke-linejoin:round; stroke-width:2; stroke-opacity:0.1; fill:none" points="186.274,172.027 2352.76,172.027 "/>
<polyline clip-path="url(#clip390)" style="stroke:#000000; stroke-linecap:round; stroke-linejoin:round; stroke-width:4; stroke-opacity:1; fill:none" points="186.274,1423.18 2352.76,1423.18 "/>
<polyline clip-path="url(#clip390)" style="stroke:#000000; stroke-linecap:round; stroke-linejoin:round; stroke-width:4; stroke-opacity:1; fill:none" points="186.274,1423.18 186.274,1404.28 "/>
<polyline clip-path="url(#clip390)" style="stroke:#000000; stroke-linecap:round; stroke-linejoin:round; stroke-width:4; stroke-opacity:1; fill:none" points="619.57,1423.18 619.57,1404.28 "/>
<polyline clip-path="url(#clip390)" style="stroke:#000000; stroke-linecap:round; stroke-linejoin:round; stroke-width:4; stroke-opacity:1; fill:none" points="1052.87,1423.18 1052.87,1404.28 "/>
<polyline clip-path="url(#clip390)" style="stroke:#000000; stroke-linecap:round; stroke-linejoin:round; stroke-width:4; stroke-opacity:1; fill:none" points="1486.16,1423.18 1486.16,1404.28 "/>
<polyline clip-path="url(#clip390)" style="stroke:#000000; stroke-linecap:round; stroke-linejoin:round; stroke-width:4; stroke-opacity:1; fill:none" points="1919.46,1423.18 1919.46,1404.28 "/>
<polyline clip-path="url(#clip390)" style="stroke:#000000; stroke-linecap:round; stroke-linejoin:round; stroke-width:4; stroke-opacity:1; fill:none" points="2352.76,1423.18 2352.76,1404.28 "/>
<path clip-path="url(#clip390)" d="M163.658 1454.1 Q160.047 1454.1 158.219 1457.66 Q156.413 1461.2 156.413 1468.33 Q156.413 1475.44 158.219 1479.01 Q160.047 1482.55 163.658 1482.55 Q167.293 1482.55 169.098 1479.01 Q170.927 1475.44 170.927 1468.33 Q170.927 1461.2 169.098 1457.66 Q167.293 1454.1 163.658 1454.1 M163.658 1450.39 Q169.469 1450.39 172.524 1455 Q175.603 1459.58 175.603 1468.33 Q175.603 1477.06 172.524 1481.67 Q169.469 1486.25 163.658 1486.25 Q157.848 1486.25 154.77 1481.67 Q151.714 1477.06 151.714 1468.33 Q151.714 1459.58 154.77 1455 Q157.848 1450.39 163.658 1450.39 Z" fill="#000000" fill-rule="nonzero" fill-opacity="1" /><path clip-path="url(#clip390)" d="M183.82 1479.7 L188.705 1479.7 L188.705 1485.58 L183.82 1485.58 L183.82 1479.7 Z" fill="#000000" fill-rule="nonzero" fill-opacity="1" /><path clip-path="url(#clip390)" d="M208.89 1454.1 Q205.279 1454.1 203.45 1457.66 Q201.644 1461.2 201.644 1468.33 Q201.644 1475.44 203.45 1479.01 Q205.279 1482.55 208.89 1482.55 Q212.524 1482.55 214.329 1479.01 Q216.158 1475.44 216.158 1468.33 Q216.158 1461.2 214.329 1457.66 Q212.524 1454.1 208.89 1454.1 M208.89 1450.39 Q214.7 1450.39 217.755 1455 Q220.834 1459.58 220.834 1468.33 Q220.834 1477.06 217.755 1481.67 Q214.7 1486.25 208.89 1486.25 Q203.079 1486.25 200.001 1481.67 Q196.945 1477.06 196.945 1468.33 Q196.945 1459.58 200.001 1455 Q203.079 1450.39 208.89 1450.39 Z" fill="#000000" fill-rule="nonzero" fill-opacity="1" /><path clip-path="url(#clip390)" d="M597.753 1454.1 Q594.142 1454.1 592.314 1457.66 Q590.508 1461.2 590.508 1468.33 Q590.508 1475.44 592.314 1479.01 Q594.142 1482.55 597.753 1482.55 Q601.388 1482.55 603.193 1479.01 Q605.022 1475.44 605.022 1468.33 Q605.022 1461.2 603.193 1457.66 Q601.388 1454.1 597.753 1454.1 M597.753 1450.39 Q603.564 1450.39 606.619 1455 Q609.698 1459.58 609.698 1468.33 Q609.698 1477.06 606.619 1481.67 Q603.564 1486.25 597.753 1486.25 Q591.943 1486.25 588.865 1481.67 Q585.809 1477.06 585.809 1468.33 Q585.809 1459.58 588.865 1455 Q591.943 1450.39 597.753 1450.39 Z" fill="#000000" fill-rule="nonzero" fill-opacity="1" /><path clip-path="url(#clip390)" d="M617.915 1479.7 L622.8 1479.7 L622.8 1485.58 L617.915 1485.58 L617.915 1479.7 Z" fill="#000000" fill-rule="nonzero" fill-opacity="1" /><path clip-path="url(#clip390)" d="M637.012 1481.64 L653.332 1481.64 L653.332 1485.58 L631.387 1485.58 L631.387 1481.64 Q634.049 1478.89 638.633 1474.26 Q643.239 1469.61 644.42 1468.27 Q646.665 1465.74 647.545 1464.01 Q648.448 1462.25 648.448 1460.56 Q648.448 1457.8 646.503 1456.07 Q644.582 1454.33 641.48 1454.33 Q639.281 1454.33 636.827 1455.09 Q634.397 1455.86 631.619 1457.41 L631.619 1452.69 Q634.443 1451.55 636.897 1450.97 Q639.35 1450.39 641.387 1450.39 Q646.758 1450.39 649.952 1453.08 Q653.147 1455.77 653.147 1460.26 Q653.147 1462.39 652.336 1464.31 Q651.549 1466.2 649.443 1468.8 Q648.864 1469.47 645.762 1472.69 Q642.661 1475.88 637.012 1481.64 Z" fill="#000000" fill-rule="nonzero" fill-opacity="1" /><path clip-path="url(#clip390)" d="M1030.01 1454.1 Q1026.4 1454.1 1024.57 1457.66 Q1022.76 1461.2 1022.76 1468.33 Q1022.76 1475.44 1024.57 1479.01 Q1026.4 1482.55 1030.01 1482.55 Q1033.64 1482.55 1035.45 1479.01 Q1037.28 1475.44 1037.28 1468.33 Q1037.28 1461.2 1035.45 1457.66 Q1033.64 1454.1 1030.01 1454.1 M1030.01 1450.39 Q1035.82 1450.39 1038.87 1455 Q1041.95 1459.58 1041.95 1468.33 Q1041.95 1477.06 1038.87 1481.67 Q1035.82 1486.25 1030.01 1486.25 Q1024.2 1486.25 1021.12 1481.67 Q1018.06 1477.06 1018.06 1468.33 Q1018.06 1459.58 1021.12 1455 Q1024.2 1450.39 1030.01 1450.39 Z" fill="#000000" fill-rule="nonzero" fill-opacity="1" /><path clip-path="url(#clip390)" d="M1050.17 1479.7 L1055.05 1479.7 L1055.05 1485.58 L1050.17 1485.58 L1050.17 1479.7 Z" fill="#000000" fill-rule="nonzero" fill-opacity="1" /><path clip-path="url(#clip390)" d="M1078.09 1455.09 L1066.28 1473.54 L1078.09 1473.54 L1078.09 1455.09 M1076.86 1451.02 L1082.74 1451.02 L1082.74 1473.54 L1087.67 1473.54 L1087.67 1477.43 L1082.74 1477.43 L1082.74 1485.58 L1078.09 1485.58 L1078.09 1477.43 L1062.48 1477.43 L1062.48 1472.92 L1076.86 1451.02 Z" fill="#000000" fill-rule="nonzero" fill-opacity="1" /><path clip-path="url(#clip390)" d="M1463.47 1454.1 Q1459.86 1454.1 1458.03 1457.66 Q1456.22 1461.2 1456.22 1468.33 Q1456.22 1475.44 1458.03 1479.01 Q1459.86 1482.55 1463.47 1482.55 Q1467.1 1482.55 1468.91 1479.01 Q1470.73 1475.44 1470.73 1468.33 Q1470.73 1461.2 1468.91 1457.66 Q1467.1 1454.1 1463.47 1454.1 M1463.47 1450.39 Q1469.28 1450.39 1472.33 1455 Q1475.41 1459.58 1475.41 1468.33 Q1475.41 1477.06 1472.33 1481.67 Q1469.28 1486.25 1463.47 1486.25 Q1457.66 1486.25 1454.58 1481.67 Q1451.52 1477.06 1451.52 1468.33 Q1451.52 1459.58 1454.58 1455 Q1457.66 1450.39 1463.47 1450.39 Z" fill="#000000" fill-rule="nonzero" fill-opacity="1" /><path clip-path="url(#clip390)" d="M1483.63 1479.7 L1488.51 1479.7 L1488.51 1485.58 L1483.63 1485.58 L1483.63 1479.7 Z" fill="#000000" fill-rule="nonzero" fill-opacity="1" /><path clip-path="url(#clip390)" d="M1509.28 1466.44 Q1506.13 1466.44 1504.28 1468.59 Q1502.45 1470.74 1502.45 1474.49 Q1502.45 1478.22 1504.28 1480.39 Q1506.13 1482.55 1509.28 1482.55 Q1512.42 1482.55 1514.25 1480.39 Q1516.11 1478.22 1516.11 1474.49 Q1516.11 1470.74 1514.25 1468.59 Q1512.42 1466.44 1509.28 1466.44 M1518.56 1451.78 L1518.56 1456.04 Q1516.8 1455.21 1514.99 1454.77 Q1513.21 1454.33 1511.45 1454.33 Q1506.82 1454.33 1504.37 1457.45 Q1501.94 1460.58 1501.59 1466.9 Q1502.96 1464.89 1505.02 1463.82 Q1507.08 1462.73 1509.55 1462.73 Q1514.76 1462.73 1517.77 1465.9 Q1520.8 1469.05 1520.8 1474.49 Q1520.8 1479.82 1517.66 1483.03 Q1514.51 1486.25 1509.28 1486.25 Q1503.28 1486.25 1500.11 1481.67 Q1496.94 1477.06 1496.94 1468.33 Q1496.94 1460.14 1500.83 1455.28 Q1504.72 1450.39 1511.27 1450.39 Q1513.03 1450.39 1514.81 1450.74 Q1516.61 1451.09 1518.56 1451.78 Z" fill="#000000" fill-rule="nonzero" fill-opacity="1" /><path clip-path="url(#clip390)" d="M1896.89 1454.1 Q1893.28 1454.1 1891.45 1457.66 Q1889.64 1461.2 1889.64 1468.33 Q1889.64 1475.44 1891.45 1479.01 Q1893.28 1482.55 1896.89 1482.55 Q1900.52 1482.55 1902.33 1479.01 Q1904.16 1475.44 1904.16 1468.33 Q1904.16 1461.2 1902.33 1457.66 Q1900.52 1454.1 1896.89 1454.1 M1896.89 1450.39 Q1902.7 1450.39 1905.76 1455 Q1908.83 1459.58 1908.83 1468.33 Q1908.83 1477.06 1905.76 1481.67 Q1902.7 1486.25 1896.89 1486.25 Q1891.08 1486.25 1888 1481.67 Q1884.95 1477.06 1884.95 1468.33 Q1884.95 1459.58 1888 1455 Q1891.08 1450.39 1896.89 1450.39 Z" fill="#000000" fill-rule="nonzero" fill-opacity="1" /><path clip-path="url(#clip390)" d="M1917.05 1479.7 L1921.94 1479.7 L1921.94 1485.58 L1917.05 1485.58 L1917.05 1479.7 Z" fill="#000000" fill-rule="nonzero" fill-opacity="1" /><path clip-path="url(#clip390)" d="M1942.12 1469.17 Q1938.79 1469.17 1936.87 1470.95 Q1934.97 1472.73 1934.97 1475.86 Q1934.97 1478.98 1936.87 1480.77 Q1938.79 1482.55 1942.12 1482.55 Q1945.45 1482.55 1947.38 1480.77 Q1949.3 1478.96 1949.3 1475.86 Q1949.3 1472.73 1947.38 1470.95 Q1945.48 1469.17 1942.12 1469.17 M1937.45 1467.18 Q1934.44 1466.44 1932.75 1464.38 Q1931.08 1462.32 1931.08 1459.35 Q1931.08 1455.21 1934.02 1452.8 Q1936.98 1450.39 1942.12 1450.39 Q1947.28 1450.39 1950.22 1452.8 Q1953.16 1455.21 1953.16 1459.35 Q1953.16 1462.32 1951.47 1464.38 Q1949.81 1466.44 1946.82 1467.18 Q1950.2 1467.96 1952.08 1470.26 Q1953.97 1472.55 1953.97 1475.86 Q1953.97 1480.88 1950.89 1483.57 Q1947.84 1486.25 1942.12 1486.25 Q1936.4 1486.25 1933.33 1483.57 Q1930.27 1480.88 1930.27 1475.86 Q1930.27 1472.55 1932.17 1470.26 Q1934.07 1467.96 1937.45 1467.18 M1935.73 1459.79 Q1935.73 1462.48 1937.4 1463.98 Q1939.09 1465.49 1942.12 1465.49 Q1945.13 1465.49 1946.82 1463.98 Q1948.53 1462.48 1948.53 1459.79 Q1948.53 1457.11 1946.82 1455.6 Q1945.13 1454.1 1942.12 1454.1 Q1939.09 1454.1 1937.4 1455.6 Q1935.73 1457.11 1935.73 1459.79 Z" fill="#000000" fill-rule="nonzero" fill-opacity="1" /><path clip-path="url(#clip390)" d="M2319.91 1481.64 L2327.55 1481.64 L2327.55 1455.28 L2319.24 1456.95 L2319.24 1452.69 L2327.5 1451.02 L2332.18 1451.02 L2332.18 1481.64 L2339.82 1481.64 L2339.82 1485.58 L2319.91 1485.58 L2319.91 1481.64 Z" fill="#000000" fill-rule="nonzero" fill-opacity="1" /><path clip-path="url(#clip390)" d="M2349.26 1479.7 L2354.14 1479.7 L2354.14 1485.58 L2349.26 1485.58 L2349.26 1479.7 Z" fill="#000000" fill-rule="nonzero" fill-opacity="1" /><path clip-path="url(#clip390)" d="M2374.33 1454.1 Q2370.72 1454.1 2368.89 1457.66 Q2367.08 1461.2 2367.08 1468.33 Q2367.08 1475.44 2368.89 1479.01 Q2370.72 1482.55 2374.33 1482.55 Q2377.96 1482.55 2379.77 1479.01 Q2381.6 1475.44 2381.6 1468.33 Q2381.6 1461.2 2379.77 1457.66 Q2377.96 1454.1 2374.33 1454.1 M2374.33 1450.39 Q2380.14 1450.39 2383.2 1455 Q2386.27 1459.58 2386.27 1468.33 Q2386.27 1477.06 2383.2 1481.67 Q2380.14 1486.25 2374.33 1486.25 Q2368.52 1486.25 2365.44 1481.67 Q2362.39 1477.06 2362.39 1468.33 Q2362.39 1459.58 2365.44 1455 Q2368.52 1450.39 2374.33 1450.39 Z" fill="#000000" fill-rule="nonzero" fill-opacity="1" /><path clip-path="url(#clip390)" d="M1268.58 1522.27 L1268.58 1532.4 L1280.64 1532.4 L1280.64 1536.95 L1268.58 1536.95 L1268.58 1556.3 Q1268.58 1560.66 1269.75 1561.9 Q1270.96 1563.14 1274.62 1563.14 L1280.64 1563.14 L1280.64 1568.04 L1274.62 1568.04 Q1267.84 1568.04 1265.27 1565.53 Q1262.69 1562.98 1262.69 1556.3 L1262.69 1536.95 L1258.39 1536.95 L1258.39 1532.4 L1262.69 1532.4 L1262.69 1522.27 L1268.58 1522.27 Z" fill="#000000" fill-rule="nonzero" fill-opacity="1" /><polyline clip-path="url(#clip390)" style="stroke:#000000; stroke-linecap:round; stroke-linejoin:round; stroke-width:4; stroke-opacity:1; fill:none" points="186.274,1423.18 186.274,47.2441 "/>
<polyline clip-path="url(#clip390)" style="stroke:#000000; stroke-linecap:round; stroke-linejoin:round; stroke-width:4; stroke-opacity:1; fill:none" points="186.274,1211.61 205.172,1211.61 "/>
<polyline clip-path="url(#clip390)" style="stroke:#000000; stroke-linecap:round; stroke-linejoin:round; stroke-width:4; stroke-opacity:1; fill:none" points="186.274,951.713 205.172,951.713 "/>
<polyline clip-path="url(#clip390)" style="stroke:#000000; stroke-linecap:round; stroke-linejoin:round; stroke-width:4; stroke-opacity:1; fill:none" points="186.274,691.817 205.172,691.817 "/>
<polyline clip-path="url(#clip390)" style="stroke:#000000; stroke-linecap:round; stroke-linejoin:round; stroke-width:4; stroke-opacity:1; fill:none" points="186.274,431.922 205.172,431.922 "/>
<polyline clip-path="url(#clip390)" style="stroke:#000000; stroke-linecap:round; stroke-linejoin:round; stroke-width:4; stroke-opacity:1; fill:none" points="186.274,172.027 205.172,172.027 "/>
<path clip-path="url(#clip390)" d="M62.9365 1197.41 Q59.3254 1197.41 57.4967 1200.97 Q55.6912 1204.51 55.6912 1211.64 Q55.6912 1218.75 57.4967 1222.31 Q59.3254 1225.86 62.9365 1225.86 Q66.5707 1225.86 68.3763 1222.31 Q70.205 1218.75 70.205 1211.64 Q70.205 1204.51 68.3763 1200.97 Q66.5707 1197.41 62.9365 1197.41 M62.9365 1193.7 Q68.7467 1193.7 71.8022 1198.31 Q74.8809 1202.89 74.8809 1211.64 Q74.8809 1220.37 71.8022 1224.98 Q68.7467 1229.56 62.9365 1229.56 Q57.1264 1229.56 54.0477 1224.98 Q50.9921 1220.37 50.9921 1211.64 Q50.9921 1202.89 54.0477 1198.31 Q57.1264 1193.7 62.9365 1193.7 Z" fill="#000000" fill-rule="nonzero" fill-opacity="1" /><path clip-path="url(#clip390)" d="M83.0984 1223.01 L87.9827 1223.01 L87.9827 1228.89 L83.0984 1228.89 L83.0984 1223.01 Z" fill="#000000" fill-rule="nonzero" fill-opacity="1" /><path clip-path="url(#clip390)" d="M98.2141 1194.33 L116.57 1194.33 L116.57 1198.26 L102.496 1198.26 L102.496 1206.74 Q103.515 1206.39 104.534 1206.23 Q105.552 1206.04 106.571 1206.04 Q112.358 1206.04 115.737 1209.21 Q119.117 1212.38 119.117 1217.8 Q119.117 1223.38 115.645 1226.48 Q112.172 1229.56 105.853 1229.56 Q103.677 1229.56 101.409 1229.19 Q99.1632 1228.82 96.7558 1228.08 L96.7558 1223.38 Q98.8391 1224.51 101.061 1225.07 Q103.284 1225.62 105.76 1225.62 Q109.765 1225.62 112.103 1223.52 Q114.441 1221.41 114.441 1217.8 Q114.441 1214.19 112.103 1212.08 Q109.765 1209.98 105.76 1209.98 Q103.885 1209.98 102.01 1210.39 Q100.159 1210.81 98.2141 1211.69 L98.2141 1194.33 Z" fill="#000000" fill-rule="nonzero" fill-opacity="1" /><path clip-path="url(#clip390)" d="M138.33 1197.41 Q134.719 1197.41 132.89 1200.97 Q131.084 1204.51 131.084 1211.64 Q131.084 1218.75 132.89 1222.31 Q134.719 1225.86 138.33 1225.86 Q141.964 1225.86 143.769 1222.31 Q145.598 1218.75 145.598 1211.64 Q145.598 1204.51 143.769 1200.97 Q141.964 1197.41 138.33 1197.41 M138.33 1193.7 Q144.14 1193.7 147.195 1198.31 Q150.274 1202.89 150.274 1211.64 Q150.274 1220.37 147.195 1224.98 Q144.14 1229.56 138.33 1229.56 Q132.519 1229.56 129.441 1224.98 Q126.385 1220.37 126.385 1211.64 Q126.385 1202.89 129.441 1198.31 Q132.519 1193.7 138.33 1193.7 Z" fill="#000000" fill-rule="nonzero" fill-opacity="1" /><path clip-path="url(#clip390)" d="M63.9319 937.511 Q60.3208 937.511 58.4921 941.076 Q56.6865 944.618 56.6865 951.747 Q56.6865 958.854 58.4921 962.419 Q60.3208 965.96 63.9319 965.96 Q67.5661 965.96 69.3717 962.419 Q71.2004 958.854 71.2004 951.747 Q71.2004 944.618 69.3717 941.076 Q67.5661 937.511 63.9319 937.511 M63.9319 933.808 Q69.742 933.808 72.7976 938.414 Q75.8763 942.997 75.8763 951.747 Q75.8763 960.474 72.7976 965.081 Q69.742 969.664 63.9319 969.664 Q58.1217 969.664 55.043 965.081 Q51.9875 960.474 51.9875 951.747 Q51.9875 942.997 55.043 938.414 Q58.1217 933.808 63.9319 933.808 Z" fill="#000000" fill-rule="nonzero" fill-opacity="1" /><path clip-path="url(#clip390)" d="M84.0938 963.113 L88.978 963.113 L88.978 968.993 L84.0938 968.993 L84.0938 963.113 Z" fill="#000000" fill-rule="nonzero" fill-opacity="1" /><path clip-path="url(#clip390)" d="M97.9826 934.433 L120.205 934.433 L120.205 936.423 L107.658 968.993 L102.774 968.993 L114.58 938.368 L97.9826 938.368 L97.9826 934.433 Z" fill="#000000" fill-rule="nonzero" fill-opacity="1" /><path clip-path="url(#clip390)" d="M129.371 934.433 L147.728 934.433 L147.728 938.368 L133.654 938.368 L133.654 946.84 Q134.672 946.493 135.691 946.331 Q136.709 946.146 137.728 946.146 Q143.515 946.146 146.894 949.317 Q150.274 952.488 150.274 957.905 Q150.274 963.483 146.802 966.585 Q143.33 969.664 137.01 969.664 Q134.834 969.664 132.566 969.294 Q130.32 968.923 127.913 968.182 L127.913 963.483 Q129.996 964.618 132.219 965.173 Q134.441 965.729 136.918 965.729 Q140.922 965.729 143.26 963.622 Q145.598 961.516 145.598 957.905 Q145.598 954.294 143.26 952.187 Q140.922 950.081 136.918 950.081 Q135.043 950.081 133.168 950.497 Q131.316 950.914 129.371 951.794 L129.371 934.433 Z" fill="#000000" fill-rule="nonzero" fill-opacity="1" /><path clip-path="url(#clip390)" d="M53.7467 705.162 L61.3856 705.162 L61.3856 678.797 L53.0754 680.463 L53.0754 676.204 L61.3393 674.537 L66.0152 674.537 L66.0152 705.162 L73.654 705.162 L73.654 709.097 L53.7467 709.097 L53.7467 705.162 Z" fill="#000000" fill-rule="nonzero" fill-opacity="1" /><path clip-path="url(#clip390)" d="M83.0984 703.218 L87.9827 703.218 L87.9827 709.097 L83.0984 709.097 L83.0984 703.218 Z" fill="#000000" fill-rule="nonzero" fill-opacity="1" /><path clip-path="url(#clip390)" d="M108.168 677.616 Q104.557 677.616 102.728 681.181 Q100.922 684.723 100.922 691.852 Q100.922 698.959 102.728 702.523 Q104.557 706.065 108.168 706.065 Q111.802 706.065 113.608 702.523 Q115.436 698.959 115.436 691.852 Q115.436 684.723 113.608 681.181 Q111.802 677.616 108.168 677.616 M108.168 673.912 Q113.978 673.912 117.033 678.519 Q120.112 683.102 120.112 691.852 Q120.112 700.579 117.033 705.185 Q113.978 709.769 108.168 709.769 Q102.358 709.769 99.2789 705.185 Q96.2234 700.579 96.2234 691.852 Q96.2234 683.102 99.2789 678.519 Q102.358 673.912 108.168 673.912 Z" fill="#000000" fill-rule="nonzero" fill-opacity="1" /><path clip-path="url(#clip390)" d="M138.33 677.616 Q134.719 677.616 132.89 681.181 Q131.084 684.723 131.084 691.852 Q131.084 698.959 132.89 702.523 Q134.719 706.065 138.33 706.065 Q141.964 706.065 143.769 702.523 Q145.598 698.959 145.598 691.852 Q145.598 684.723 143.769 681.181 Q141.964 677.616 138.33 677.616 M138.33 673.912 Q144.14 673.912 147.195 678.519 Q150.274 683.102 150.274 691.852 Q150.274 700.579 147.195 705.185 Q144.14 709.769 138.33 709.769 Q132.519 709.769 129.441 705.185 Q126.385 700.579 126.385 691.852 Q126.385 683.102 129.441 678.519 Q132.519 673.912 138.33 673.912 Z" fill="#000000" fill-rule="nonzero" fill-opacity="1" /><path clip-path="url(#clip390)" d="M54.7421 445.267 L62.381 445.267 L62.381 418.902 L54.0708 420.568 L54.0708 416.309 L62.3347 414.642 L67.0106 414.642 L67.0106 445.267 L74.6494 445.267 L74.6494 449.202 L54.7421 449.202 L54.7421 445.267 Z" fill="#000000" fill-rule="nonzero" fill-opacity="1" /><path clip-path="url(#clip390)" d="M84.0938 443.323 L88.978 443.323 L88.978 449.202 L84.0938 449.202 L84.0938 443.323 Z" fill="#000000" fill-rule="nonzero" fill-opacity="1" /><path clip-path="url(#clip390)" d="M103.191 445.267 L119.51 445.267 L119.51 449.202 L97.566 449.202 L97.566 445.267 Q100.228 442.513 104.811 437.883 Q109.418 433.23 110.598 431.888 Q112.844 429.364 113.723 427.628 Q114.626 425.869 114.626 424.179 Q114.626 421.425 112.682 419.689 Q110.76 417.953 107.658 417.953 Q105.459 417.953 103.006 418.716 Q100.575 419.48 97.7974 421.031 L97.7974 416.309 Q100.621 415.175 103.075 414.596 Q105.529 414.017 107.566 414.017 Q112.936 414.017 116.131 416.703 Q119.325 419.388 119.325 423.878 Q119.325 426.008 118.515 427.929 Q117.728 429.827 115.621 432.42 Q115.043 433.091 111.941 436.309 Q108.839 439.503 103.191 445.267 Z" fill="#000000" fill-rule="nonzero" fill-opacity="1" /><path clip-path="url(#clip390)" d="M129.371 414.642 L147.728 414.642 L147.728 418.578 L133.654 418.578 L133.654 427.05 Q134.672 426.702 135.691 426.54 Q136.709 426.355 137.728 426.355 Q143.515 426.355 146.894 429.527 Q150.274 432.698 150.274 438.114 Q150.274 443.693 146.802 446.795 Q143.33 449.874 137.01 449.874 Q134.834 449.874 132.566 449.503 Q130.32 449.133 127.913 448.392 L127.913 443.693 Q129.996 444.827 132.219 445.383 Q134.441 445.938 136.918 445.938 Q140.922 445.938 143.26 443.832 Q145.598 441.726 145.598 438.114 Q145.598 434.503 143.26 432.397 Q140.922 430.29 136.918 430.29 Q135.043 430.29 133.168 430.707 Q131.316 431.124 129.371 432.003 L129.371 414.642 Z" fill="#000000" fill-rule="nonzero" fill-opacity="1" /><path clip-path="url(#clip390)" d="M53.7467 185.372 L61.3856 185.372 L61.3856 159.006 L53.0754 160.673 L53.0754 156.414 L61.3393 154.747 L66.0152 154.747 L66.0152 185.372 L73.654 185.372 L73.654 189.307 L53.7467 189.307 L53.7467 185.372 Z" fill="#000000" fill-rule="nonzero" fill-opacity="1" /><path clip-path="url(#clip390)" d="M83.0984 183.428 L87.9827 183.428 L87.9827 189.307 L83.0984 189.307 L83.0984 183.428 Z" fill="#000000" fill-rule="nonzero" fill-opacity="1" /><path clip-path="url(#clip390)" d="M98.2141 154.747 L116.57 154.747 L116.57 158.682 L102.496 158.682 L102.496 167.155 Q103.515 166.807 104.534 166.645 Q105.552 166.46 106.571 166.46 Q112.358 166.46 115.737 169.631 Q119.117 172.803 119.117 178.219 Q119.117 183.798 115.645 186.9 Q112.172 189.978 105.853 189.978 Q103.677 189.978 101.409 189.608 Q99.1632 189.238 96.7558 188.497 L96.7558 183.798 Q98.8391 184.932 101.061 185.488 Q103.284 186.043 105.76 186.043 Q109.765 186.043 112.103 183.937 Q114.441 181.83 114.441 178.219 Q114.441 174.608 112.103 172.502 Q109.765 170.395 105.76 170.395 Q103.885 170.395 102.01 170.812 Q100.159 171.229 98.2141 172.108 L98.2141 154.747 Z" fill="#000000" fill-rule="nonzero" fill-opacity="1" /><path clip-path="url(#clip390)" d="M138.33 157.826 Q134.719 157.826 132.89 161.391 Q131.084 164.932 131.084 172.062 Q131.084 179.168 132.89 182.733 Q134.719 186.275 138.33 186.275 Q141.964 186.275 143.769 182.733 Q145.598 179.168 145.598 172.062 Q145.598 164.932 143.769 161.391 Q141.964 157.826 138.33 157.826 M138.33 154.122 Q144.14 154.122 147.195 158.729 Q150.274 163.312 150.274 172.062 Q150.274 180.789 147.195 185.395 Q144.14 189.978 138.33 189.978 Q132.519 189.978 129.441 185.395 Q126.385 180.789 126.385 172.062 Q126.385 163.312 129.441 158.729 Q132.519 154.122 138.33 154.122 Z" fill="#000000" fill-rule="nonzero" fill-opacity="1" /><polyline clip-path="url(#clip392)" style="stroke:#009af9; stroke-linecap:round; stroke-linejoin:round; stroke-width:4; stroke-opacity:1; fill:none" points="186.274,1211.61 321.679,1112.78 348.76,1107.89 379.226,991.981 413.501,1053.18 448.177,1001.84 487.187,1073.97 523.284,1090.07 563.894,1110.53 608.348,1052.28 658.359,1005.21 713.472,1080.68 763.252,1148.76 819.255,1124.3 882.257,1217.42 939.171,1221.69 1003.2,1255.7 1073.06,1267.26 1145.95,1346.66 1213.82,1382.59 1290.18,1312.42 1376.09,1324.77 1447.96,1348.46 1528.83,1282.37 1619.8,1197.87 1716.11,1089.89 1824.46,1031.33 1929.34,901.859 2047.33,697.321 2158.12,634.473 2255.04,600.828 2337.34,171.635 2352.76,86.1857 "/>
<polyline clip-path="url(#clip392)" style="stroke:#e26f46; stroke-linecap:round; stroke-linejoin:round; stroke-width:4; stroke-opacity:1; fill:none" points="186.274,1211.61 321.679,1112.67 348.76,1107.81 379.226,991.814 413.501,1053.14 448.177,1001.8 487.187,1074.07 523.284,1090.27 563.894,1110.84 608.348,1052.61 658.359,1005.61 713.472,1081.32 763.252,1149.55 819.255,1125.22 882.257,1218.45 939.171,1222.87 1003.2,1257.07 1073.06,1268.86 1145.95,1348.21 1213.82,1384.24 1290.18,1314.27 1376.09,1326.91 1447.96,1350.73 1528.83,1284.95 1619.8,1200.79 1716.11,1093.18 1824.46,1035.21 1929.34,906.255 2047.33,702.17 2158.12,640.355 2255.04,607.659 2337.34,179.776 2352.76,94.7692 "/>
<path clip-path="url(#clip390)" d="M258.49 248.629 L684.165 248.629 L684.165 93.1086 L258.49 93.1086  Z" fill="#ffffff" fill-rule="evenodd" fill-opacity="1"/>
<polyline clip-path="url(#clip390)" style="stroke:#000000; stroke-linecap:round; stroke-linejoin:round; stroke-width:4; stroke-opacity:1; fill:none" points="258.49,248.629 684.165,248.629 684.165,93.1086 258.49,93.1086 258.49,248.629 "/>
<polyline clip-path="url(#clip390)" style="stroke:#009af9; stroke-linecap:round; stroke-linejoin:round; stroke-width:4; stroke-opacity:1; fill:none" points="282.562,144.949 426.994,144.949 "/>
<path clip-path="url(#clip390)" d="M451.066 151.997 L451.066 136.303 L455.325 136.303 L455.325 151.835 Q455.325 155.516 456.761 157.368 Q458.196 159.196 461.066 159.196 Q464.515 159.196 466.506 156.997 Q468.52 154.798 468.52 151.002 L468.52 136.303 L472.779 136.303 L472.779 162.229 L468.52 162.229 L468.52 158.247 Q466.969 160.608 464.909 161.766 Q462.872 162.9 460.163 162.9 Q455.696 162.9 453.381 160.122 Q451.066 157.344 451.066 151.997 M461.784 135.678 L461.784 135.678 Z" fill="#000000" fill-rule="nonzero" fill-opacity="1" /><path clip-path="url(#clip390)" d="M481.159 126.21 L490.973 126.21 L490.973 129.52 L485.418 129.52 L485.418 165.168 L490.973 165.168 L490.973 168.479 L481.159 168.479 L481.159 126.21 Z" fill="#000000" fill-rule="nonzero" fill-opacity="1" /><path clip-path="url(#clip390)" d="M501.459 158.293 L509.098 158.293 L509.098 131.928 L500.788 133.595 L500.788 129.335 L509.052 127.669 L513.728 127.669 L513.728 158.293 L521.367 158.293 L521.367 162.229 L501.459 162.229 L501.459 158.293 Z" fill="#000000" fill-rule="nonzero" fill-opacity="1" /><path clip-path="url(#clip390)" d="M540.163 126.21 L540.163 168.479 L530.348 168.479 L530.348 165.168 L535.881 165.168 L535.881 129.52 L530.348 129.52 L530.348 126.21 L540.163 126.21 Z" fill="#000000" fill-rule="nonzero" fill-opacity="1" /><polyline clip-path="url(#clip390)" style="stroke:#e26f46; stroke-linecap:round; stroke-linejoin:round; stroke-width:4; stroke-opacity:1; fill:none" points="282.562,196.789 426.994,196.789 "/>
<path clip-path="url(#clip390)" d="M451.066 179.509 L480.302 179.509 L480.302 183.444 L468.034 183.444 L468.034 214.069 L463.335 214.069 L463.335 183.444 L451.066 183.444 L451.066 179.509 Z" fill="#000000" fill-rule="nonzero" fill-opacity="1" /><path clip-path="url(#clip390)" d="M492.686 192.124 Q491.969 191.708 491.112 191.522 Q490.279 191.314 489.26 191.314 Q485.649 191.314 483.705 193.675 Q481.784 196.013 481.784 200.411 L481.784 214.069 L477.501 214.069 L477.501 188.143 L481.784 188.143 L481.784 192.171 Q483.126 189.809 485.279 188.675 Q487.432 187.518 490.51 187.518 Q490.95 187.518 491.483 187.587 Q492.015 187.634 492.663 187.749 L492.686 192.124 Z" fill="#000000" fill-rule="nonzero" fill-opacity="1" /><path clip-path="url(#clip390)" d="M496.714 203.837 L496.714 188.143 L500.973 188.143 L500.973 203.675 Q500.973 207.356 502.409 209.208 Q503.844 211.036 506.714 211.036 Q510.163 211.036 512.154 208.837 Q514.168 206.638 514.168 202.842 L514.168 188.143 L518.427 188.143 L518.427 214.069 L514.168 214.069 L514.168 210.087 Q512.617 212.448 510.557 213.606 Q508.52 214.74 505.811 214.74 Q501.344 214.74 499.029 211.962 Q496.714 209.184 496.714 203.837 M507.432 187.518 L507.432 187.518 Z" fill="#000000" fill-rule="nonzero" fill-opacity="1" /><path clip-path="url(#clip390)" d="M549.376 200.041 L549.376 202.124 L529.793 202.124 Q530.07 206.522 532.432 208.837 Q534.816 211.129 539.052 211.129 Q541.506 211.129 543.797 210.527 Q546.112 209.925 548.381 208.721 L548.381 212.749 Q546.089 213.721 543.681 214.231 Q541.274 214.74 538.797 214.74 Q532.594 214.74 528.959 211.129 Q525.348 207.518 525.348 201.36 Q525.348 194.995 528.774 191.268 Q532.223 187.518 538.057 187.518 Q543.288 187.518 546.32 190.897 Q549.376 194.254 549.376 200.041 M545.117 198.791 Q545.07 195.296 543.149 193.212 Q541.251 191.129 538.103 191.129 Q534.538 191.129 532.385 193.143 Q530.256 195.157 529.932 198.814 L545.117 198.791 Z" fill="#000000" fill-rule="nonzero" fill-opacity="1" /><path clip-path="url(#clip390)" d="M570.996 203.837 L570.996 188.143 L575.255 188.143 L575.255 203.675 Q575.255 207.356 576.691 209.208 Q578.126 211.036 580.996 211.036 Q584.445 211.036 586.436 208.837 Q588.45 206.638 588.45 202.842 L588.45 188.143 L592.709 188.143 L592.709 214.069 L588.45 214.069 L588.45 210.087 Q586.899 212.448 584.839 213.606 Q582.802 214.74 580.093 214.74 Q575.626 214.74 573.311 211.962 Q570.996 209.184 570.996 203.837 M581.714 187.518 L581.714 187.518 Z" fill="#000000" fill-rule="nonzero" fill-opacity="1" /><path clip-path="url(#clip390)" d="M601.089 178.05 L610.903 178.05 L610.903 181.36 L605.348 181.36 L605.348 217.008 L610.903 217.008 L610.903 220.319 L601.089 220.319 L601.089 178.05 Z" fill="#000000" fill-rule="nonzero" fill-opacity="1" /><path clip-path="url(#clip390)" d="M621.389 210.133 L629.028 210.133 L629.028 183.768 L620.718 185.435 L620.718 181.175 L628.982 179.509 L633.658 179.509 L633.658 210.133 L641.297 210.133 L641.297 214.069 L621.389 214.069 L621.389 210.133 Z" fill="#000000" fill-rule="nonzero" fill-opacity="1" /><path clip-path="url(#clip390)" d="M660.093 178.05 L660.093 220.319 L650.278 220.319 L650.278 217.008 L655.811 217.008 L655.811 181.36 L650.278 181.36 L650.278 178.05 L660.093 178.05 Z" fill="#000000" fill-rule="nonzero" fill-opacity="1" /></svg>
