<?xml version="1.0" encoding="utf-8"?>
<svg xmlns="http://www.w3.org/2000/svg" xmlns:xlink="http://www.w3.org/1999/xlink" width="600" height="400" viewBox="0 0 2400 1600">
<defs>
  <clipPath id="clip330">
    <rect x="0" y="0" width="2400" height="1600"/>
  </clipPath>
</defs>
<path clip-path="url(#clip330)" d="M0 1600 L2400 1600 L2400 0 L0 0  Z" fill="#ffffff" fill-rule="evenodd" fill-opacity="1"/>
<defs>
  <clipPath id="clip331">
    <rect x="480" y="0" width="1681" height="1600"/>
  </clipPath>
</defs>
<path clip-path="url(#clip330)" d="M156.598 1423.18 L2352.76 1423.18 L2352.76 47.2441 L156.598 47.2441  Z" fill="#ffffff" fill-rule="evenodd" fill-opacity="1"/>
<defs>
  <clipPath id="clip332">
    <rect x="156" y="47" width="2197" height="1377"/>
  </clipPath>
</defs>
<polyline clip-path="url(#clip332)" style="stroke:#000000; stroke-linecap:round; stroke-linejoin:round; stroke-width:2; stroke-opacity:0.1; fill:none" points="156.598,1423.18 156.598,47.2441 "/>
<polyline clip-path="url(#clip332)" style="stroke:#000000; stroke-linecap:round; stroke-linejoin:round; stroke-width:2; stroke-opacity:0.1; fill:none" points="595.83,1423.18 595.83,47.2441 "/>
<polyline clip-path="url(#clip332)" style="stroke:#000000; stroke-linecap:round; stroke-linejoin:round; stroke-width:2; stroke-opacity:0.1; fill:none" points="1035.06,1423.18 1035.06,47.2441 "/>
<polyline clip-path="url(#clip332)" style="stroke:#000000; stroke-linecap:round; stroke-linejoin:round; stroke-width:2; stroke-opacity:0.1; fill:none" points="1474.29,1423.18 1474.29,47.2441 "/>
<polyline clip-path="url(#clip332)" style="stroke:#000000; stroke-linecap:round; stroke-linejoin:round; stroke-width:2; stroke-opacity:0.1; fill:none" points="1913.52,1423.18 1913.52,47.2441 "/>
<polyline clip-path="url(#clip332)" style="stroke:#000000; stroke-linecap:round; stroke-linejoin:round; stroke-width:2; stroke-opacity:0.1; fill:none" points="2352.76,1423.18 2352.76,47.2441 "/>
<polyline clip-path="url(#clip332)" style="stroke:#000000; stroke-linecap:round; stroke-linejoin:round; stroke-width:2; stroke-opacity:0.1; fill:none" points="156.598,1190.63 2352.76,1190.63 "/>
<polyline clip-path="url(#clip332)" style="stroke:#000000; stroke-linecap:round; stroke-linejoin:round; stroke-width:2; stroke-opacity:0.1; fill:none" points="156.598,917.29 2352.76,917.29 "/>
<polyline clip-path="url(#clip332)" style="stroke:#000000; stroke-linecap:round; stroke-linejoin:round; stroke-width:2; stroke-opacity:0.1; fill:none" points="156.598,643.949 2352.76,643.949 "/>
<polyline clip-path="url(#clip332)" style="stroke:#000000; stroke-linecap:round; stroke-linejoin:round; stroke-width:2; stroke-opacity:0.1; fill:none" points="156.598,370.608 2352.76,370.608 "/>
<polyline clip-path="url(#clip332)" style="stroke:#000000; stroke-linecap:round; stroke-linejoin:round; stroke-width:2; stroke-opacity:0.1; fill:none" points="156.598,97.2671 2352.76,97.2671 "/>
<polyline clip-path="url(#clip330)" style="stroke:#000000; stroke-linecap:round; stroke-linejoin:round; stroke-width:4; stroke-opacity:1; fill:none" points="156.598,1423.18 2352.76,1423.18 "/>
<polyline clip-path="url(#clip330)" style="stroke:#000000; stroke-linecap:round; stroke-linejoin:round; stroke-width:4; stroke-opacity:1; fill:none" points="156.598,1423.18 156.598,1404.28 "/>
<polyline clip-path="url(#clip330)" style="stroke:#000000; stroke-linecap:round; stroke-linejoin:round; stroke-width:4; stroke-opacity:1; fill:none" points="595.83,1423.18 595.83,1404.28 "/>
<polyline clip-path="url(#clip330)" style="stroke:#000000; stroke-linecap:round; stroke-linejoin:round; stroke-width:4; stroke-opacity:1; fill:none" points="1035.06,1423.18 1035.06,1404.28 "/>
<polyline clip-path="url(#clip330)" style="stroke:#000000; stroke-linecap:round; stroke-linejoin:round; stroke-width:4; stroke-opacity:1; fill:none" points="1474.29,1423.18 1474.29,1404.28 "/>
<polyline clip-path="url(#clip330)" style="stroke:#000000; stroke-linecap:round; stroke-linejoin:round; stroke-width:4; stroke-opacity:1; fill:none" points="1913.52,1423.18 1913.52,1404.28 "/>
<polyline clip-path="url(#clip330)" style="stroke:#000000; stroke-linecap:round; stroke-linejoin:round; stroke-width:4; stroke-opacity:1; fill:none" points="2352.76,1423.18 2352.76,1404.28 "/>
<path clip-path="url(#clip330)" d="M133.983 1454.1 Q130.372 1454.1 128.543 1457.66 Q126.737 1461.2 126.737 1468.33 Q126.737 1475.44 128.543 1479.01 Q130.372 1482.55 133.983 1482.55 Q137.617 1482.55 139.422 1479.01 Q141.251 1475.44 141.251 1468.33 Q141.251 1461.2 139.422 1457.66 Q137.617 1454.1 133.983 1454.1 M133.983 1450.39 Q139.793 1450.39 142.848 1455 Q145.927 1459.58 145.927 1468.33 Q145.927 1477.06 142.848 1481.67 Q139.793 1486.25 133.983 1486.25 Q128.172 1486.25 125.094 1481.67 Q122.038 1477.06 122.038 1468.33 Q122.038 1459.58 125.094 1455 Q128.172 1450.39 133.983 1450.39 Z" fill="#000000" fill-rule="nonzero" fill-opacity="1" /><path clip-path="url(#clip330)" d="M154.145 1479.7 L159.029 1479.7 L159.029 1485.58 L154.145 1485.58 L154.145 1479.7 Z" fill="#000000" fill-rule="nonzero" fill-opacity="1" /><path clip-path="url(#clip330)" d="M179.214 1454.1 Q175.603 1454.1 173.774 1457.66 Q171.969 1461.2 171.969 1468.33 Q171.969 1475.44 173.774 1479.01 Q175.603 1482.55 179.214 1482.55 Q182.848 1482.55 184.654 1479.01 Q186.482 1475.44 186.482 1468.33 Q186.482 1461.2 184.654 1457.66 Q182.848 1454.1 179.214 1454.1 M179.214 1450.39 Q185.024 1450.39 188.08 1455 Q191.158 1459.58 191.158 1468.33 Q191.158 1477.06 188.08 1481.67 Q185.024 1486.25 179.214 1486.25 Q173.404 1486.25 170.325 1481.67 Q167.269 1477.06 167.269 1468.33 Q167.269 1459.58 170.325 1455 Q173.404 1450.39 179.214 1450.39 Z" fill="#000000" fill-rule="nonzero" fill-opacity="1" /><path clip-path="url(#clip330)" d="M574.013 1454.1 Q570.402 1454.1 568.573 1457.66 Q566.767 1461.2 566.767 1468.33 Q566.767 1475.44 568.573 1479.01 Q570.402 1482.55 574.013 1482.55 Q577.647 1482.55 579.453 1479.01 Q581.281 1475.44 581.281 1468.33 Q581.281 1461.2 579.453 1457.66 Q577.647 1454.1 574.013 1454.1 M574.013 1450.39 Q579.823 1450.39 582.878 1455 Q585.957 1459.58 585.957 1468.33 Q585.957 1477.06 582.878 1481.67 Q579.823 1486.25 574.013 1486.25 Q568.203 1486.25 565.124 1481.67 Q562.068 1477.06 562.068 1468.33 Q562.068 1459.58 565.124 1455 Q568.203 1450.39 574.013 1450.39 Z" fill="#000000" fill-rule="nonzero" fill-opacity="1" /><path clip-path="url(#clip330)" d="M594.175 1479.7 L599.059 1479.7 L599.059 1485.58 L594.175 1485.58 L594.175 1479.7 Z" fill="#000000" fill-rule="nonzero" fill-opacity="1" /><path clip-path="url(#clip330)" d="M613.272 1481.64 L629.591 1481.64 L629.591 1485.58 L607.647 1485.58 L607.647 1481.64 Q610.309 1478.89 614.892 1474.26 Q619.499 1469.61 620.679 1468.27 Q622.925 1465.74 623.804 1464.01 Q624.707 1462.25 624.707 1460.56 Q624.707 1457.8 622.762 1456.07 Q620.841 1454.33 617.739 1454.33 Q615.54 1454.33 613.087 1455.09 Q610.656 1455.86 607.878 1457.41 L607.878 1452.69 Q610.702 1451.55 613.156 1450.97 Q615.61 1450.39 617.647 1450.39 Q623.017 1450.39 626.212 1453.08 Q629.406 1455.77 629.406 1460.26 Q629.406 1462.39 628.596 1464.31 Q627.809 1466.2 625.702 1468.8 Q625.124 1469.47 622.022 1472.69 Q618.92 1475.88 613.272 1481.64 Z" fill="#000000" fill-rule="nonzero" fill-opacity="1" /><path clip-path="url(#clip330)" d="M1012.2 1454.1 Q1008.59 1454.1 1006.76 1457.66 Q1004.96 1461.2 1004.96 1468.33 Q1004.96 1475.44 1006.76 1479.01 Q1008.59 1482.55 1012.2 1482.55 Q1015.84 1482.55 1017.64 1479.01 Q1019.47 1475.44 1019.47 1468.33 Q1019.47 1461.2 1017.64 1457.66 Q1015.84 1454.1 1012.2 1454.1 M1012.2 1450.39 Q1018.01 1450.39 1021.07 1455 Q1024.15 1459.58 1024.15 1468.33 Q1024.15 1477.06 1021.07 1481.67 Q1018.01 1486.25 1012.2 1486.25 Q1006.39 1486.25 1003.31 1481.67 Q1000.26 1477.06 1000.26 1468.33 Q1000.26 1459.58 1003.31 1455 Q1006.39 1450.39 1012.2 1450.39 Z" fill="#000000" fill-rule="nonzero" fill-opacity="1" /><path clip-path="url(#clip330)" d="M1032.36 1479.7 L1037.25 1479.7 L1037.25 1485.58 L1032.36 1485.58 L1032.36 1479.7 Z" fill="#000000" fill-rule="nonzero" fill-opacity="1" /><path clip-path="url(#clip330)" d="M1060.28 1455.09 L1048.48 1473.54 L1060.28 1473.54 L1060.28 1455.09 M1059.05 1451.02 L1064.93 1451.02 L1064.93 1473.54 L1069.86 1473.54 L1069.86 1477.43 L1064.93 1477.43 L1064.93 1485.58 L1060.28 1485.58 L1060.28 1477.43 L1044.68 1477.43 L1044.68 1472.92 L1059.05 1451.02 Z" fill="#000000" fill-rule="nonzero" fill-opacity="1" /><path clip-path="url(#clip330)" d="M1451.6 1454.1 Q1447.99 1454.1 1446.16 1457.66 Q1444.35 1461.2 1444.35 1468.33 Q1444.35 1475.44 1446.16 1479.01 Q1447.99 1482.55 1451.6 1482.55 Q1455.23 1482.55 1457.04 1479.01 Q1458.86 1475.44 1458.86 1468.33 Q1458.86 1461.2 1457.04 1457.66 Q1455.23 1454.1 1451.6 1454.1 M1451.6 1450.39 Q1457.41 1450.39 1460.46 1455 Q1463.54 1459.58 1463.54 1468.33 Q1463.54 1477.06 1460.46 1481.67 Q1457.41 1486.25 1451.6 1486.25 Q1445.79 1486.25 1442.71 1481.67 Q1439.65 1477.06 1439.65 1468.33 Q1439.65 1459.58 1442.71 1455 Q1445.79 1450.39 1451.6 1450.39 Z" fill="#000000" fill-rule="nonzero" fill-opacity="1" /><path clip-path="url(#clip330)" d="M1471.76 1479.7 L1476.64 1479.7 L1476.64 1485.58 L1471.76 1485.58 L1471.76 1479.7 Z" fill="#000000" fill-rule="nonzero" fill-opacity="1" /><path clip-path="url(#clip330)" d="M1497.41 1466.44 Q1494.26 1466.44 1492.41 1468.59 Q1490.58 1470.74 1490.58 1474.49 Q1490.58 1478.22 1492.41 1480.39 Q1494.26 1482.55 1497.41 1482.55 Q1500.55 1482.55 1502.38 1480.39 Q1504.23 1478.22 1504.23 1474.49 Q1504.23 1470.74 1502.38 1468.59 Q1500.55 1466.44 1497.41 1466.44 M1506.69 1451.78 L1506.69 1456.04 Q1504.93 1455.21 1503.12 1454.77 Q1501.34 1454.33 1499.58 1454.33 Q1494.95 1454.33 1492.5 1457.45 Q1490.07 1460.58 1489.72 1466.9 Q1491.09 1464.89 1493.15 1463.82 Q1495.21 1462.73 1497.68 1462.73 Q1502.89 1462.73 1505.9 1465.9 Q1508.93 1469.05 1508.93 1474.49 Q1508.93 1479.82 1505.79 1483.03 Q1502.64 1486.25 1497.41 1486.25 Q1491.41 1486.25 1488.24 1481.67 Q1485.07 1477.06 1485.07 1468.33 Q1485.07 1460.14 1488.96 1455.28 Q1492.85 1450.39 1499.4 1450.39 Q1501.16 1450.39 1502.94 1450.74 Q1504.74 1451.09 1506.69 1451.78 Z" fill="#000000" fill-rule="nonzero" fill-opacity="1" /><path clip-path="url(#clip330)" d="M1890.96 1454.1 Q1887.34 1454.1 1885.52 1457.66 Q1883.71 1461.2 1883.71 1468.33 Q1883.71 1475.44 1885.52 1479.01 Q1887.34 1482.55 1890.96 1482.55 Q1894.59 1482.55 1896.39 1479.01 Q1898.22 1475.44 1898.22 1468.33 Q1898.22 1461.2 1896.39 1457.66 Q1894.59 1454.1 1890.96 1454.1 M1890.96 1450.39 Q1896.77 1450.39 1899.82 1455 Q1902.9 1459.58 1902.9 1468.33 Q1902.9 1477.06 1899.82 1481.67 Q1896.77 1486.25 1890.96 1486.25 Q1885.14 1486.25 1882.07 1481.67 Q1879.01 1477.06 1879.01 1468.33 Q1879.01 1459.58 1882.07 1455 Q1885.14 1450.39 1890.96 1450.39 Z" fill="#000000" fill-rule="nonzero" fill-opacity="1" /><path clip-path="url(#clip330)" d="M1911.12 1479.7 L1916 1479.7 L1916 1485.58 L1911.12 1485.58 L1911.12 1479.7 Z" fill="#000000" fill-rule="nonzero" fill-opacity="1" /><path clip-path="url(#clip330)" d="M1936.19 1469.17 Q1932.85 1469.17 1930.93 1470.95 Q1929.03 1472.73 1929.03 1475.86 Q1929.03 1478.98 1930.93 1480.77 Q1932.85 1482.55 1936.19 1482.55 Q1939.52 1482.55 1941.44 1480.77 Q1943.36 1478.96 1943.36 1475.86 Q1943.36 1472.73 1941.44 1470.95 Q1939.54 1469.17 1936.19 1469.17 M1931.51 1467.18 Q1928.5 1466.44 1926.81 1464.38 Q1925.14 1462.32 1925.14 1459.35 Q1925.14 1455.21 1928.08 1452.8 Q1931.05 1450.39 1936.19 1450.39 Q1941.35 1450.39 1944.29 1452.8 Q1947.23 1455.21 1947.23 1459.35 Q1947.23 1462.32 1945.54 1464.38 Q1943.87 1466.44 1940.89 1467.18 Q1944.26 1467.96 1946.14 1470.26 Q1948.04 1472.55 1948.04 1475.86 Q1948.04 1480.88 1944.96 1483.57 Q1941.9 1486.25 1936.19 1486.25 Q1930.47 1486.25 1927.39 1483.57 Q1924.33 1480.88 1924.33 1475.86 Q1924.33 1472.55 1926.23 1470.26 Q1928.13 1467.96 1931.51 1467.18 M1929.8 1459.79 Q1929.8 1462.48 1931.46 1463.98 Q1933.15 1465.49 1936.19 1465.49 Q1939.2 1465.49 1940.89 1463.98 Q1942.6 1462.48 1942.6 1459.79 Q1942.6 1457.11 1940.89 1455.6 Q1939.2 1454.1 1936.19 1454.1 Q1933.15 1454.1 1931.46 1455.6 Q1929.8 1457.11 1929.8 1459.79 Z" fill="#000000" fill-rule="nonzero" fill-opacity="1" /><path clip-path="url(#clip330)" d="M2319.91 1481.64 L2327.55 1481.64 L2327.55 1455.28 L2319.24 1456.95 L2319.24 1452.69 L2327.5 1451.02 L2332.18 1451.02 L2332.18 1481.64 L2339.82 1481.64 L2339.82 1485.58 L2319.91 1485.58 L2319.91 1481.64 Z" fill="#000000" fill-rule="nonzero" fill-opacity="1" /><path clip-path="url(#clip330)" d="M2349.26 1479.7 L2354.14 1479.7 L2354.14 1485.58 L2349.26 1485.58 L2349.26 1479.7 Z" fill="#000000" fill-rule="nonzero" fill-opacity="1" /><path clip-path="url(#clip330)" d="M2374.33 1454.1 Q2370.72 1454.1 2368.89 1457.66 Q2367.08 1461.2 2367.08 1468.33 Q2367.08 1475.44 2368.89 1479.01 Q2370.72 1482.55 2374.33 1482.55 Q2377.96 1482.55 2379.77 1479.01 Q2381.6 1475.44 2381.6 1468.33 Q2381.6 1461.2 2379.77 1457.66 Q2377.96 1454.1 2374.33 1454.1 M2374.33 1450.39 Q2380.14 1450.39 2383.2 1455 Q2386.27 1459.58 2386.27 1468.33 Q2386.27 1477.06 2383.2 1481.67 Q2380.14 1486.25 2374.33 1486.25 Q2368.52 1486.25 2365.44 1481.67 Q2362.39 1477.06 2362.39 1468.33 Q2362.39 1459.58 2365.44 1455 Q2368.52 1450.39 2374.33 1450.39 Z" fill="#000000" fill-rule="nonzero" fill-opacity="1" /><path clip-path="url(#clip330)" d="M1253.74 1522.27 L1253.74 1532.4 L1265.8 1532.4 L1265.8 1536.95 L1253.74 1536.95 L1253.74 1556.3 Q1253.74 1560.66 1254.92 1561.9 Q1256.13 1563.14 1259.79 1563.14 L1265.8 1563.14 L1265.8 1568.04 L1259.79 1568.04 Q1253.01 1568.04 1250.43 1565.53 Q1247.85 1562.98 1247.85 1556.3 L1247.85 1536.95 L1243.55 1536.95 L1243.55 1532.4 L1247.85 1532.4 L1247.85 1522.27 L1253.74 1522.27 Z" fill="#000000" fill-rule="nonzero" fill-opacity="1" /><polyline clip-path="url(#clip330)" style="stroke:#000000; stroke-linecap:round; stroke-linejoin:round; stroke-width:4; stroke-opacity:1; fill:none" points="156.598,1423.18 156.598,47.2441 "/>
<polyline clip-path="url(#clip330)" style="stroke:#000000; stroke-linecap:round; stroke-linejoin:round; stroke-width:4; stroke-opacity:1; fill:none" points="156.598,1190.63 175.496,1190.63 "/>
<polyline clip-path="url(#clip330)" style="stroke:#000000; stroke-linecap:round; stroke-linejoin:round; stroke-width:4; stroke-opacity:1; fill:none" points="156.598,917.29 175.496,917.29 "/>
<polyline clip-path="url(#clip330)" style="stroke:#000000; stroke-linecap:round; stroke-linejoin:round; stroke-width:4; stroke-opacity:1; fill:none" points="156.598,643.949 175.496,643.949 "/>
<polyline clip-path="url(#clip330)" style="stroke:#000000; stroke-linecap:round; stroke-linejoin:round; stroke-width:4; stroke-opacity:1; fill:none" points="156.598,370.608 175.496,370.608 "/>
<polyline clip-path="url(#clip330)" style="stroke:#000000; stroke-linecap:round; stroke-linejoin:round; stroke-width:4; stroke-opacity:1; fill:none" points="156.598,97.2671 175.496,97.2671 "/>
<path clip-path="url(#clip330)" d="M62.9365 1176.43 Q59.3254 1176.43 57.4967 1179.99 Q55.6912 1183.54 55.6912 1190.67 Q55.6912 1197.77 57.4967 1201.34 Q59.3254 1204.88 62.9365 1204.88 Q66.5707 1204.88 68.3763 1201.34 Q70.205 1197.77 70.205 1190.67 Q70.205 1183.54 68.3763 1179.99 Q66.5707 1176.43 62.9365 1176.43 M62.9365 1172.73 Q68.7467 1172.73 71.8022 1177.33 Q74.8809 1181.92 74.8809 1190.67 Q74.8809 1199.39 71.8022 1204 Q68.7467 1208.58 62.9365 1208.58 Q57.1264 1208.58 54.0477 1204 Q50.9921 1199.39 50.9921 1190.67 Q50.9921 1181.92 54.0477 1177.33 Q57.1264 1172.73 62.9365 1172.73 Z" fill="#000000" fill-rule="nonzero" fill-opacity="1" /><path clip-path="url(#clip330)" d="M83.0984 1202.03 L87.9827 1202.03 L87.9827 1207.91 L83.0984 1207.91 L83.0984 1202.03 Z" fill="#000000" fill-rule="nonzero" fill-opacity="1" /><path clip-path="url(#clip330)" d="M111.015 1177.43 L99.2095 1195.87 L111.015 1195.87 L111.015 1177.43 M109.788 1173.35 L115.668 1173.35 L115.668 1195.87 L120.598 1195.87 L120.598 1199.76 L115.668 1199.76 L115.668 1207.91 L111.015 1207.91 L111.015 1199.76 L95.4132 1199.76 L95.4132 1195.25 L109.788 1173.35 Z" fill="#000000" fill-rule="nonzero" fill-opacity="1" /><path clip-path="url(#clip330)" d="M64.418 903.089 Q60.8069 903.089 58.9782 906.654 Q57.1726 910.195 57.1726 917.325 Q57.1726 924.431 58.9782 927.996 Q60.8069 931.538 64.418 931.538 Q68.0522 931.538 69.8578 927.996 Q71.6865 924.431 71.6865 917.325 Q71.6865 910.195 69.8578 906.654 Q68.0522 903.089 64.418 903.089 M64.418 899.385 Q70.2281 899.385 73.2837 903.992 Q76.3624 908.575 76.3624 917.325 Q76.3624 926.052 73.2837 930.658 Q70.2281 935.242 64.418 935.242 Q58.6078 935.242 55.5291 930.658 Q52.4736 926.052 52.4736 917.325 Q52.4736 908.575 55.5291 903.992 Q58.6078 899.385 64.418 899.385 Z" fill="#000000" fill-rule="nonzero" fill-opacity="1" /><path clip-path="url(#clip330)" d="M84.5799 928.691 L89.4641 928.691 L89.4641 934.57 L84.5799 934.57 L84.5799 928.691 Z" fill="#000000" fill-rule="nonzero" fill-opacity="1" /><path clip-path="url(#clip330)" d="M99.6956 900.01 L118.052 900.01 L118.052 903.945 L103.978 903.945 L103.978 912.418 Q104.996 912.07 106.015 911.908 Q107.033 911.723 108.052 911.723 Q113.839 911.723 117.219 914.894 Q120.598 918.066 120.598 923.482 Q120.598 929.061 117.126 932.163 Q113.654 935.242 107.334 935.242 Q105.159 935.242 102.89 934.871 Q100.645 934.501 98.2372 933.76 L98.2372 929.061 Q100.321 930.195 102.543 930.751 Q104.765 931.306 107.242 931.306 Q111.246 931.306 113.584 929.2 Q115.922 927.093 115.922 923.482 Q115.922 919.871 113.584 917.765 Q111.246 915.658 107.242 915.658 Q105.367 915.658 103.492 916.075 Q101.64 916.492 99.6956 917.371 L99.6956 900.01 Z" fill="#000000" fill-rule="nonzero" fill-opacity="1" /><path clip-path="url(#clip330)" d="M63.2606 629.748 Q59.6495 629.748 57.8208 633.313 Q56.0152 636.854 56.0152 643.984 Q56.0152 651.09 57.8208 654.655 Q59.6495 658.197 63.2606 658.197 Q66.8948 658.197 68.7004 654.655 Q70.5291 651.09 70.5291 643.984 Q70.5291 636.854 68.7004 633.313 Q66.8948 629.748 63.2606 629.748 M63.2606 626.044 Q69.0707 626.044 72.1263 630.651 Q75.205 635.234 75.205 643.984 Q75.205 652.711 72.1263 657.317 Q69.0707 661.9 63.2606 661.9 Q57.4504 661.9 54.3717 657.317 Q51.3162 652.711 51.3162 643.984 Q51.3162 635.234 54.3717 630.651 Q57.4504 626.044 63.2606 626.044 Z" fill="#000000" fill-rule="nonzero" fill-opacity="1" /><path clip-path="url(#clip330)" d="M83.4225 655.35 L88.3067 655.35 L88.3067 661.229 L83.4225 661.229 L83.4225 655.35 Z" fill="#000000" fill-rule="nonzero" fill-opacity="1" /><path clip-path="url(#clip330)" d="M109.071 642.086 Q105.922 642.086 104.071 644.239 Q102.242 646.391 102.242 650.141 Q102.242 653.868 104.071 656.044 Q105.922 658.197 109.071 658.197 Q112.219 658.197 114.047 656.044 Q115.899 653.868 115.899 650.141 Q115.899 646.391 114.047 644.239 Q112.219 642.086 109.071 642.086 M118.353 627.433 L118.353 631.692 Q116.594 630.859 114.788 630.419 Q113.006 629.979 111.246 629.979 Q106.617 629.979 104.163 633.104 Q101.733 636.229 101.385 642.549 Q102.751 640.535 104.811 639.47 Q106.871 638.382 109.348 638.382 Q114.557 638.382 117.566 641.553 Q120.598 644.701 120.598 650.141 Q120.598 655.465 117.45 658.683 Q114.302 661.9 109.071 661.9 Q103.075 661.9 99.9039 657.317 Q96.7326 652.711 96.7326 643.984 Q96.7326 635.789 100.621 630.928 Q104.51 626.044 111.061 626.044 Q112.82 626.044 114.603 626.391 Q116.408 626.739 118.353 627.433 Z" fill="#000000" fill-rule="nonzero" fill-opacity="1" /><path clip-path="url(#clip330)" d="M64.3254 356.407 Q60.7143 356.407 58.8856 359.972 Q57.0801 363.513 57.0801 370.643 Q57.0801 377.749 58.8856 381.314 Q60.7143 384.856 64.3254 384.856 Q67.9596 384.856 69.7652 381.314 Q71.5939 377.749 71.5939 370.643 Q71.5939 363.513 69.7652 359.972 Q67.9596 356.407 64.3254 356.407 M64.3254 352.703 Q70.1355 352.703 73.1911 357.31 Q76.2698 361.893 76.2698 370.643 Q76.2698 379.37 73.1911 383.976 Q70.1355 388.559 64.3254 388.559 Q58.5152 388.559 55.4365 383.976 Q52.381 379.37 52.381 370.643 Q52.381 361.893 55.4365 357.31 Q58.5152 352.703 64.3254 352.703 Z" fill="#000000" fill-rule="nonzero" fill-opacity="1" /><path clip-path="url(#clip330)" d="M84.4873 382.009 L89.3715 382.009 L89.3715 387.888 L84.4873 387.888 L84.4873 382.009 Z" fill="#000000" fill-rule="nonzero" fill-opacity="1" /><path clip-path="url(#clip330)" d="M98.3761 353.328 L120.598 353.328 L120.598 355.319 L108.052 387.888 L103.168 387.888 L114.973 357.263 L98.3761 357.263 L98.3761 353.328 Z" fill="#000000" fill-rule="nonzero" fill-opacity="1" /><path clip-path="url(#clip330)" d="M63.5152 83.0658 Q59.9041 83.0658 58.0754 86.6306 Q56.2699 90.1722 56.2699 97.3018 Q56.2699 104.408 58.0754 107.973 Q59.9041 111.515 63.5152 111.515 Q67.1494 111.515 68.955 107.973 Q70.7837 104.408 70.7837 97.3018 Q70.7837 90.1722 68.955 86.6306 Q67.1494 83.0658 63.5152 83.0658 M63.5152 79.3621 Q69.3254 79.3621 72.3809 83.9685 Q75.4596 88.5519 75.4596 97.3018 Q75.4596 106.029 72.3809 110.635 Q69.3254 115.218 63.5152 115.218 Q57.7051 115.218 54.6264 110.635 Q51.5708 106.029 51.5708 97.3018 Q51.5708 88.5519 54.6264 83.9685 Q57.7051 79.3621 63.5152 79.3621 Z" fill="#000000" fill-rule="nonzero" fill-opacity="1" /><path clip-path="url(#clip330)" d="M83.6771 108.667 L88.5614 108.667 L88.5614 114.547 L83.6771 114.547 L83.6771 108.667 Z" fill="#000000" fill-rule="nonzero" fill-opacity="1" /><path clip-path="url(#clip330)" d="M108.746 98.1351 Q105.413 98.1351 103.492 99.9175 Q101.594 101.7 101.594 104.825 Q101.594 107.95 103.492 109.732 Q105.413 111.515 108.746 111.515 Q112.08 111.515 114.001 109.732 Q115.922 107.927 115.922 104.825 Q115.922 101.7 114.001 99.9175 Q112.103 98.1351 108.746 98.1351 M104.071 96.1444 Q101.061 95.4037 99.3715 93.3435 Q97.7048 91.2833 97.7048 88.3204 Q97.7048 84.1769 100.645 81.7695 Q103.608 79.3621 108.746 79.3621 Q113.908 79.3621 116.848 81.7695 Q119.788 84.1769 119.788 88.3204 Q119.788 91.2833 118.098 93.3435 Q116.432 95.4037 113.445 96.1444 Q116.825 96.9314 118.7 99.2231 Q120.598 101.515 120.598 104.825 Q120.598 109.848 117.52 112.533 Q114.464 115.218 108.746 115.218 Q103.029 115.218 99.9502 112.533 Q96.8947 109.848 96.8947 104.825 Q96.8947 101.515 98.7928 99.2231 Q100.691 96.9314 104.071 96.1444 M102.358 88.7602 Q102.358 91.4454 104.024 92.95 Q105.714 94.4546 108.746 94.4546 Q111.756 94.4546 113.445 92.95 Q115.158 91.4454 115.158 88.7602 Q115.158 86.075 113.445 84.5704 Q111.756 83.0658 108.746 83.0658 Q105.714 83.0658 104.024 84.5704 Q102.358 86.075 102.358 88.7602 Z" fill="#000000" fill-rule="nonzero" fill-opacity="1" /><polyline clip-path="url(#clip332)" style="stroke:#009af9; stroke-linecap:round; stroke-linejoin:round; stroke-width:4; stroke-opacity:1; fill:none" points="156.598,917.29 157.374,971.035 158.167,947.269 159.059,984.825 160.063,948.857 161.192,933.93 162.462,969.669 163.892,999.877 165.499,1024.8 167.308,1000.63 169.343,1006.87 171.632,1015.94 174.207,1018.28 177.104,989.384 180.364,980.965 184.03,1016.35 188.155,1044.86 192.796,1046.2 198.017,1074.4 203.89,1036.58 210.498,1069.94 217.932,1102.09 226.294,1018.67 235.702,1079.44 246.286,1068.58 258.194,1141.18 271.589,1122.52 286.659,1191.53 303.613,1201.25 322.685,1187.47 344.142,1165.89 368.281,1134.26 395.438,1247.1 425.989,1131.42 460.359,1164.4 499.025,1180 542.524,1029.28 591.461,1016.08 639.98,731.286 694.564,1027.22 738.511,965.688 787.951,1376.46 843.571,1210.03 906.144,1110.35 968.834,1204.66 1026.91,1384.24 1092.24,1187.17 1165.74,1111.73 1237.38,1241.7 1301.79,1036.46 1374.25,1006.61 1442.39,835.787 1519.06,574.505 1605.31,651.398 1672.47,976.105 1743.97,765.431 1824.4,929.38 1887.77,865.397 1959.07,882.284 2031.32,775.796 2112.59,683.759 2192.19,165.814 2281.75,392.039 2336.63,86.1857 2352.76,246.511 "/>
<polyline clip-path="url(#clip332)" style="stroke:#e26f46; stroke-linecap:round; stroke-linejoin:round; stroke-width:4; stroke-opacity:1; fill:none" points="156.598,917.29 157.374,971.035 158.167,947.269 159.059,984.824 160.063,948.857 161.192,933.93 162.462,969.669 163.892,999.876 165.499,1024.8 167.308,1000.63 169.343,1006.87 171.632,1015.94 174.207,1018.28 177.104,989.386 180.364,980.968 184.03,1016.36 188.155,1044.87 192.796,1046.21 198.017,1074.41 203.89,1036.59 210.498,1069.96 217.932,1102.12 226.294,1018.69 235.702,1079.47 246.286,1068.62 258.194,1141.25 271.589,1122.6 286.659,1191.63 303.613,1201.38 322.685,1187.63 344.142,1166.09 368.281,1134.49 395.438,1247.4 425.989,1131.7 460.359,1164.83 499.025,1180.59 542.524,1029.85 591.461,1016.88 639.98,731.913 694.564,1027.79 738.511,966.375 787.951,1373.96 843.571,1206.86 906.144,1106.93 968.834,1202.12 1026.91,1382.39 1092.24,1184.58 1165.74,1109.18 1237.38,1240.22 1301.79,1034.38 1374.25,1004.96 1442.39,833.802 1519.06,571.769 1605.31,650.255 1672.47,975.446 1743.97,764.421 1824.4,929.761 1887.77,866.075 1959.07,883.656 2031.32,777.505 2112.59,686.043 2192.19,167.453 2281.75,395.722 2336.63,90.1425 2352.76,250.245 "/>
<path clip-path="url(#clip330)" d="M229.803 248.629 L658.446 248.629 L658.446 93.1086 L229.803 93.1086  Z" fill="#ffffff" fill-rule="evenodd" fill-opacity="1"/>
<polyline clip-path="url(#clip330)" style="stroke:#000000; stroke-linecap:round; stroke-linejoin:round; stroke-width:4; stroke-opacity:1; fill:none" points="229.803,248.629 658.446,248.629 658.446,93.1086 229.803,93.1086 229.803,248.629 "/>
<polyline clip-path="url(#clip330)" style="stroke:#009af9; stroke-linecap:round; stroke-linejoin:round; stroke-width:4; stroke-opacity:1; fill:none" points="254.205,144.949 400.616,144.949 "/>
<path clip-path="url(#clip330)" d="M425.018 151.997 L425.018 136.303 L429.277 136.303 L429.277 151.835 Q429.277 155.516 430.712 157.368 Q432.147 159.196 435.017 159.196 Q438.467 159.196 440.457 156.997 Q442.471 154.798 442.471 151.002 L442.471 136.303 L446.73 136.303 L446.73 162.229 L442.471 162.229 L442.471 158.247 Q440.92 160.608 438.86 161.766 Q436.823 162.9 434.115 162.9 Q429.647 162.9 427.332 160.122 Q425.018 157.344 425.018 151.997 M435.735 135.678 L435.735 135.678 Z" fill="#000000" fill-rule="nonzero" fill-opacity="1" /><path clip-path="url(#clip330)" d="M455.11 126.21 L464.925 126.21 L464.925 129.52 L459.369 129.52 L459.369 165.168 L464.925 165.168 L464.925 168.479 L455.11 168.479 L455.11 126.21 Z" fill="#000000" fill-rule="nonzero" fill-opacity="1" /><path clip-path="url(#clip330)" d="M475.411 158.293 L483.05 158.293 L483.05 131.928 L474.739 133.595 L474.739 129.335 L483.003 127.669 L487.679 127.669 L487.679 158.293 L495.318 158.293 L495.318 162.229 L475.411 162.229 L475.411 158.293 Z" fill="#000000" fill-rule="nonzero" fill-opacity="1" /><path clip-path="url(#clip330)" d="M514.114 126.21 L514.114 168.479 L504.299 168.479 L504.299 165.168 L509.832 165.168 L509.832 129.52 L504.299 129.52 L504.299 126.21 L514.114 126.21 Z" fill="#000000" fill-rule="nonzero" fill-opacity="1" /><polyline clip-path="url(#clip330)" style="stroke:#e26f46; stroke-linecap:round; stroke-linejoin:round; stroke-width:4; stroke-opacity:1; fill:none" points="254.205,196.789 400.616,196.789 "/>
<path clip-path="url(#clip330)" d="M425.018 179.509 L454.253 179.509 L454.253 183.444 L441.985 183.444 L441.985 214.069 L437.286 214.069 L437.286 183.444 L425.018 183.444 L425.018 179.509 Z" fill="#000000" fill-rule="nonzero" fill-opacity="1" /><path clip-path="url(#clip330)" d="M466.638 192.124 Q465.92 191.708 465.064 191.522 Q464.23 191.314 463.212 191.314 Q459.601 191.314 457.656 193.675 Q455.735 196.013 455.735 200.411 L455.735 214.069 L451.453 214.069 L451.453 188.143 L455.735 188.143 L455.735 192.171 Q457.078 189.809 459.23 188.675 Q461.383 187.518 464.462 187.518 Q464.902 187.518 465.434 187.587 Q465.966 187.634 466.615 187.749 L466.638 192.124 Z" fill="#000000" fill-rule="nonzero" fill-opacity="1" /><path clip-path="url(#clip330)" d="M470.665 203.837 L470.665 188.143 L474.925 188.143 L474.925 203.675 Q474.925 207.356 476.36 209.208 Q477.795 211.036 480.665 211.036 Q484.114 211.036 486.105 208.837 Q488.119 206.638 488.119 202.842 L488.119 188.143 L492.378 188.143 L492.378 214.069 L488.119 214.069 L488.119 210.087 Q486.568 212.448 484.508 213.606 Q482.471 214.74 479.763 214.74 Q475.295 214.74 472.98 211.962 Q470.665 209.184 470.665 203.837 M481.383 187.518 L481.383 187.518 Z" fill="#000000" fill-rule="nonzero" fill-opacity="1" /><path clip-path="url(#clip330)" d="M523.327 200.041 L523.327 202.124 L503.744 202.124 Q504.022 206.522 506.383 208.837 Q508.767 211.129 513.003 211.129 Q515.457 211.129 517.748 210.527 Q520.063 209.925 522.332 208.721 L522.332 212.749 Q520.04 213.721 517.633 214.231 Q515.225 214.74 512.749 214.74 Q506.545 214.74 502.911 211.129 Q499.3 207.518 499.3 201.36 Q499.3 194.995 502.725 191.268 Q506.174 187.518 512.008 187.518 Q517.239 187.518 520.272 190.897 Q523.327 194.254 523.327 200.041 M519.068 198.791 Q519.022 195.296 517.1 193.212 Q515.202 191.129 512.054 191.129 Q508.489 191.129 506.337 193.143 Q504.207 195.157 503.883 198.814 L519.068 198.791 Z" fill="#000000" fill-rule="nonzero" fill-opacity="1" /><path clip-path="url(#clip330)" d="M544.947 203.837 L544.947 188.143 L549.207 188.143 L549.207 203.675 Q549.207 207.356 550.642 209.208 Q552.077 211.036 554.947 211.036 Q558.396 211.036 560.387 208.837 Q562.401 206.638 562.401 202.842 L562.401 188.143 L566.66 188.143 L566.66 214.069 L562.401 214.069 L562.401 210.087 Q560.85 212.448 558.79 213.606 Q556.753 214.74 554.045 214.74 Q549.577 214.74 547.262 211.962 Q544.947 209.184 544.947 203.837 M555.665 187.518 L555.665 187.518 Z" fill="#000000" fill-rule="nonzero" fill-opacity="1" /><path clip-path="url(#clip330)" d="M575.04 178.05 L584.855 178.05 L584.855 181.36 L579.299 181.36 L579.299 217.008 L584.855 217.008 L584.855 220.319 L575.04 220.319 L575.04 178.05 Z" fill="#000000" fill-rule="nonzero" fill-opacity="1" /><path clip-path="url(#clip330)" d="M595.341 210.133 L602.98 210.133 L602.98 183.768 L594.669 185.435 L594.669 181.175 L602.933 179.509 L607.609 179.509 L607.609 210.133 L615.248 210.133 L615.248 214.069 L595.341 214.069 L595.341 210.133 Z" fill="#000000" fill-rule="nonzero" fill-opacity="1" /><path clip-path="url(#clip330)" d="M634.044 178.05 L634.044 220.319 L624.229 220.319 L624.229 217.008 L629.762 217.008 L629.762 181.36 L624.229 181.36 L624.229 178.05 L634.044 178.05 Z" fill="#000000" fill-rule="nonzero" fill-opacity="1" /></svg>
