<?xml version="1.0" encoding="utf-8"?>
<svg xmlns="http://www.w3.org/2000/svg" xmlns:xlink="http://www.w3.org/1999/xlink" width="600" height="400" viewBox="0 0 2400 1600">
<defs>
  <clipPath id="clip010">
    <rect x="0" y="0" width="2400" height="1600"/>
  </clipPath>
</defs>
<path clip-path="url(#clip010)" d="M0 1600 L2400 1600 L2400 0 L0 0  Z" fill="#ffffff" fill-rule="evenodd" fill-opacity="1"/>
<defs>
  <clipPath id="clip011">
    <rect x="156" y="47" width="2197" height="1377"/>
  </clipPath>
</defs>
<path clip-path="url(#clip010)" d="M156.598 1423.18 L2352.76 1423.18 L2352.76 47.2441 L156.598 47.2441  Z" fill="#ffffff" fill-rule="evenodd" fill-opacity="1"/>
<polyline clip-path="url(#clip011)" style="stroke:#000000; stroke-linecap:round; stroke-linejoin:round; stroke-width:2; stroke-opacity:0.1; fill:none" points="156.598,1423.18 156.598,47.2441 "/>
<polyline clip-path="url(#clip011)" style="stroke:#000000; stroke-linecap:round; stroke-linejoin:round; stroke-width:2; stroke-opacity:0.1; fill:none" points="595.83,1423.18 595.83,47.2441 "/>
<polyline clip-path="url(#clip011)" style="stroke:#000000; stroke-linecap:round; stroke-linejoin:round; stroke-width:2; stroke-opacity:0.1; fill:none" points="1035.06,1423.18 1035.06,47.2441 "/>
<polyline clip-path="url(#clip011)" style="stroke:#000000; stroke-linecap:round; stroke-linejoin:round; stroke-width:2; stroke-opacity:0.1; fill:none" points="1474.29,1423.18 1474.29,47.2441 "/>
<polyline clip-path="url(#clip011)" style="stroke:#000000; stroke-linecap:round; stroke-linejoin:round; stroke-width:2; stroke-opacity:0.1; fill:none" points="1913.52,1423.18 1913.52,47.2441 "/>
<polyline clip-path="url(#clip011)" style="stroke:#000000; stroke-linecap:round; stroke-linejoin:round; stroke-width:2; stroke-opacity:0.1; fill:none" points="2352.76,1423.18 2352.76,47.2441 "/>
<polyline clip-path="url(#clip011)" style="stroke:#000000; stroke-linecap:round; stroke-linejoin:round; stroke-width:2; stroke-opacity:0.1; fill:none" points="156.598,1369.87 2352.76,1369.87 "/>
<polyline clip-path="url(#clip011)" style="stroke:#000000; stroke-linecap:round; stroke-linejoin:round; stroke-width:2; stroke-opacity:0.1; fill:none" points="156.598,1030.7 2352.76,1030.7 "/>
<polyline clip-path="url(#clip011)" style="stroke:#000000; stroke-linecap:round; stroke-linejoin:round; stroke-width:2; stroke-opacity:0.1; fill:none" points="156.598,691.534 2352.76,691.534 "/>
<polyline clip-path="url(#clip011)" style="stroke:#000000; stroke-linecap:round; stroke-linejoin:round; stroke-width:2; stroke-opacity:0.1; fill:none" points="156.598,352.368 2352.76,352.368 "/>
<polyline clip-path="url(#clip010)" style="stroke:#000000; stroke-linecap:round; stroke-linejoin:round; stroke-width:4; stroke-opacity:1; fill:none" points="156.598,1423.18 2352.76,1423.18 "/>
<polyline clip-path="url(#clip010)" style="stroke:#000000; stroke-linecap:round; stroke-linejoin:round; stroke-width:4; stroke-opacity:1; fill:none" points="156.598,1423.18 156.598,1404.28 "/>
<polyline clip-path="url(#clip010)" style="stroke:#000000; stroke-linecap:round; stroke-linejoin:round; stroke-width:4; stroke-opacity:1; fill:none" points="595.83,1423.18 595.83,1404.28 "/>
<polyline clip-path="url(#clip010)" style="stroke:#000000; stroke-linecap:round; stroke-linejoin:round; stroke-width:4; stroke-opacity:1; fill:none" points="1035.06,1423.18 1035.06,1404.28 "/>
<polyline clip-path="url(#clip010)" style="stroke:#000000; stroke-linecap:round; stroke-linejoin:round; stroke-width:4; stroke-opacity:1; fill:none" points="1474.29,1423.18 1474.29,1404.28 "/>
<polyline clip-path="url(#clip010)" style="stroke:#000000; stroke-linecap:round; stroke-linejoin:round; stroke-width:4; stroke-opacity:1; fill:none" points="1913.52,1423.18 1913.52,1404.28 "/>
<polyline clip-path="url(#clip010)" style="stroke:#000000; stroke-linecap:round; stroke-linejoin:round; stroke-width:4; stroke-opacity:1; fill:none" points="2352.76,1423.18 2352.76,1404.28 "/>
<path clip-path="url(#clip010)" d="M133.983 1454.1 Q130.372 1454.1 128.543 1457.66 Q126.737 1461.2 126.737 1468.33 Q126.737 1475.44 128.543 1479.01 Q130.372 1482.55 133.983 1482.55 Q137.617 1482.55 139.422 1479.01 Q141.251 1475.44 141.251 1468.33 Q141.251 1461.2 139.422 1457.66 Q137.617 1454.1 133.983 1454.1 M133.983 1450.39 Q139.793 1450.39 142.848 1455 Q145.927 1459.58 145.927 1468.33 Q145.927 1477.06 142.848 1481.67 Q139.793 1486.25 133.983 1486.25 Q128.172 1486.25 125.094 1481.67 Q122.038 1477.06 122.038 1468.33 Q122.038 1459.58 125.094 1455 Q128.172 1450.39 133.983 1450.39 Z" fill="#000000" fill-rule="nonzero" fill-opacity="1" /><path clip-path="url(#clip010)" d="M154.145 1479.7 L159.029 1479.7 L159.029 1485.58 L154.145 1485.58 L154.145 1479.7 Z" fill="#000000" fill-rule="nonzero" fill-opacity="1" /><path clip-path="url(#clip010)" d="M179.214 1454.1 Q175.603 1454.1 173.774 1457.66 Q171.969 1461.2 171.969 1468.33 Q171.969 1475.44 173.774 1479.01 Q175.603 1482.55 179.214 1482.55 Q182.848 1482.55 184.654 1479.01 Q186.482 1475.44 186.482 1468.33 Q186.482 1461.2 184.654 1457.66 Q182.848 1454.1 179.214 1454.1 M179.214 1450.39 Q185.024 1450.39 188.08 1455 Q191.158 1459.58 191.158 1468.33 Q191.158 1477.06 188.08 1481.67 Q185.024 1486.25 179.214 1486.25 Q173.404 1486.25 170.325 1481.67 Q167.269 1477.06 167.269 1468.33 Q167.269 1459.58 170.325 1455 Q173.404 1450.39 179.214 1450.39 Z" fill="#000000" fill-rule="nonzero" fill-opacity="1" /><path clip-path="url(#clip010)" d="M574.013 1454.1 Q570.402 1454.1 568.573 1457.66 Q566.767 1461.2 566.767 1468.33 Q566.767 1475.44 568.573 1479.01 Q570.402 1482.55 574.013 1482.55 Q577.647 1482.55 579.453 1479.01 Q581.281 1475.44 581.281 1468.33 Q581.281 1461.2 579.453 1457.66 Q577.647 1454.1 574.013 1454.1 M574.013 1450.39 Q579.823 1450.39 582.878 1455 Q585.957 1459.58 585.957 1468.33 Q585.957 1477.06 582.878 1481.67 Q579.823 1486.25 574.013 1486.25 Q568.203 1486.25 565.124 1481.67 Q562.068 1477.06 562.068 1468.33 Q562.068 1459.58 565.124 1455 Q568.203 1450.39 574.013 1450.39 Z" fill="#000000" fill-rule="nonzero" fill-opacity="1" /><path clip-path="url(#clip010)" d="M594.175 1479.7 L599.059 1479.7 L599.059 1485.58 L594.175 1485.58 L594.175 1479.7 Z" fill="#000000" fill-rule="nonzero" fill-opacity="1" /><path clip-path="url(#clip010)" d="M613.272 1481.64 L629.591 1481.64 L629.591 1485.58 L607.647 1485.58 L607.647 1481.64 Q610.309 1478.89 614.892 1474.26 Q619.499 1469.61 620.679 1468.27 Q622.925 1465.74 623.804 1464.01 Q624.707 1462.25 624.707 1460.56 Q624.707 1457.8 622.762 1456.07 Q620.841 1454.33 617.739 1454.33 Q615.54 1454.33 613.087 1455.09 Q610.656 1455.86 607.878 1457.41 L607.878 1452.69 Q610.702 1451.55 613.156 1450.97 Q615.61 1450.39 617.647 1450.39 Q623.017 1450.39 626.212 1453.08 Q629.406 1455.77 629.406 1460.26 Q629.406 1462.39 628.596 1464.31 Q627.809 1466.2 625.702 1468.8 Q625.124 1469.47 622.022 1472.69 Q618.92 1475.88 613.272 1481.64 Z" fill="#000000" fill-rule="nonzero" fill-opacity="1" /><path clip-path="url(#clip010)" d="M1012.2 1454.1 Q1008.59 1454.1 1006.76 1457.66 Q1004.96 1461.2 1004.96 1468.33 Q1004.96 1475.44 1006.76 1479.01 Q1008.59 1482.55 1012.2 1482.55 Q1015.84 1482.55 1017.64 1479.01 Q1019.47 1475.44 1019.47 1468.33 Q1019.47 1461.2 1017.64 1457.66 Q1015.84 1454.1 1012.2 1454.1 M1012.2 1450.39 Q1018.01 1450.39 1021.07 1455 Q1024.15 1459.58 1024.15 1468.33 Q1024.15 1477.06 1021.07 1481.67 Q1018.01 1486.25 1012.2 1486.25 Q1006.39 1486.25 1003.31 1481.67 Q1000.26 1477.06 1000.26 1468.33 Q1000.26 1459.58 1003.31 1455 Q1006.39 1450.39 1012.2 1450.39 Z" fill="#000000" fill-rule="nonzero" fill-opacity="1" /><path clip-path="url(#clip010)" d="M1032.36 1479.7 L1037.25 1479.7 L1037.25 1485.58 L1032.36 1485.58 L1032.36 1479.7 Z" fill="#000000" fill-rule="nonzero" fill-opacity="1" /><path clip-path="url(#clip010)" d="M1060.28 1455.09 L1048.48 1473.54 L1060.28 1473.54 L1060.28 1455.09 M1059.05 1451.02 L1064.93 1451.02 L1064.93 1473.54 L1069.86 1473.54 L1069.86 1477.43 L1064.93 1477.43 L1064.93 1485.58 L1060.28 1485.58 L1060.28 1477.43 L1044.68 1477.43 L1044.68 1472.92 L1059.05 1451.02 Z" fill="#000000" fill-rule="nonzero" fill-opacity="1" /><path clip-path="url(#clip010)" d="M1451.6 1454.1 Q1447.99 1454.1 1446.16 1457.66 Q1444.35 1461.2 1444.35 1468.33 Q1444.35 1475.44 1446.16 1479.01 Q1447.99 1482.55 1451.6 1482.55 Q1455.23 1482.55 1457.04 1479.01 Q1458.86 1475.44 1458.86 1468.33 Q1458.86 1461.2 1457.04 1457.66 Q1455.23 1454.1 1451.6 1454.1 M1451.6 1450.39 Q1457.41 1450.39 1460.46 1455 Q1463.54 1459.58 1463.54 1468.33 Q1463.54 1477.06 1460.46 1481.67 Q1457.41 1486.25 1451.6 1486.25 Q1445.79 1486.25 1442.71 1481.67 Q1439.65 1477.06 1439.65 1468.33 Q1439.65 1459.58 1442.71 1455 Q1445.79 1450.39 1451.6 1450.39 Z" fill="#000000" fill-rule="nonzero" fill-opacity="1" /><path clip-path="url(#clip010)" d="M1471.76 1479.7 L1476.64 1479.7 L1476.64 1485.58 L1471.76 1485.58 L1471.76 1479.7 Z" fill="#000000" fill-rule="nonzero" fill-opacity="1" /><path clip-path="url(#clip010)" d="M1497.41 1466.44 Q1494.26 1466.44 1492.41 1468.59 Q1490.58 1470.74 1490.58 1474.49 Q1490.58 1478.22 1492.41 1480.39 Q1494.26 1482.55 1497.41 1482.55 Q1500.55 1482.55 1502.38 1480.39 Q1504.23 1478.22 1504.23 1474.49 Q1504.23 1470.74 1502.38 1468.59 Q1500.55 1466.44 1497.41 1466.44 M1506.69 1451.78 L1506.69 1456.04 Q1504.93 1455.21 1503.12 1454.77 Q1501.34 1454.33 1499.58 1454.33 Q1494.95 1454.33 1492.5 1457.45 Q1490.07 1460.58 1489.72 1466.9 Q1491.09 1464.89 1493.15 1463.82 Q1495.21 1462.73 1497.68 1462.73 Q1502.89 1462.73 1505.9 1465.9 Q1508.93 1469.05 1508.93 1474.49 Q1508.93 1479.82 1505.79 1483.03 Q1502.64 1486.25 1497.41 1486.25 Q1491.41 1486.25 1488.24 1481.67 Q1485.07 1477.06 1485.07 1468.33 Q1485.07 1460.14 1488.96 1455.28 Q1492.85 1450.39 1499.4 1450.39 Q1501.16 1450.39 1502.94 1450.74 Q1504.74 1451.09 1506.69 1451.78 Z" fill="#000000" fill-rule="nonzero" fill-opacity="1" /><path clip-path="url(#clip010)" d="M1890.96 1454.1 Q1887.34 1454.1 1885.52 1457.66 Q1883.71 1461.2 1883.71 1468.33 Q1883.71 1475.44 1885.52 1479.01 Q1887.34 1482.55 1890.96 1482.55 Q1894.59 1482.55 1896.39 1479.01 Q1898.22 1475.44 1898.22 1468.33 Q1898.22 1461.2 1896.39 1457.66 Q1894.59 1454.1 1890.96 1454.1 M1890.96 1450.39 Q1896.77 1450.39 1899.82 1455 Q1902.9 1459.58 1902.9 1468.33 Q1902.9 1477.06 1899.82 1481.67 Q1896.77 1486.25 1890.96 1486.25 Q1885.14 1486.25 1882.07 1481.67 Q1879.01 1477.06 1879.01 1468.33 Q1879.01 1459.58 1882.07 1455 Q1885.14 1450.39 1890.96 1450.39 Z" fill="#000000" fill-rule="nonzero" fill-opacity="1" /><path clip-path="url(#clip010)" d="M1911.12 1479.7 L1916 1479.7 L1916 1485.58 L1911.12 1485.58 L1911.12 1479.7 Z" fill="#000000" fill-rule="nonzero" fill-opacity="1" /><path clip-path="url(#clip010)" d="M1936.19 1469.17 Q1932.85 1469.17 1930.93 1470.95 Q1929.03 1472.73 1929.03 1475.86 Q1929.03 1478.98 1930.93 1480.77 Q1932.85 1482.55 1936.19 1482.55 Q1939.52 1482.55 1941.44 1480.77 Q1943.36 1478.96 1943.36 1475.86 Q1943.36 1472.73 1941.44 1470.95 Q1939.54 1469.17 1936.19 1469.17 M1931.51 1467.18 Q1928.5 1466.44 1926.81 1464.38 Q1925.14 1462.32 1925.14 1459.35 Q1925.14 1455.21 1928.08 1452.8 Q1931.05 1450.39 1936.19 1450.39 Q1941.35 1450.39 1944.29 1452.8 Q1947.23 1455.21 1947.23 1459.35 Q1947.23 1462.32 1945.54 1464.38 Q1943.87 1466.44 1940.89 1467.18 Q1944.26 1467.96 1946.14 1470.26 Q1948.04 1472.55 1948.04 1475.86 Q1948.04 1480.88 1944.96 1483.57 Q1941.9 1486.25 1936.19 1486.25 Q1930.47 1486.25 1927.39 1483.57 Q1924.33 1480.88 1924.33 1475.86 Q1924.33 1472.55 1926.23 1470.26 Q1928.13 1467.96 1931.51 1467.18 M1929.8 1459.79 Q1929.8 1462.48 1931.46 1463.98 Q1933.15 1465.49 1936.19 1465.49 Q1939.2 1465.49 1940.89 1463.98 Q1942.6 1462.48 1942.6 1459.79 Q1942.6 1457.11 1940.89 1455.6 Q1939.2 1454.1 1936.19 1454.1 Q1933.15 1454.1 1931.46 1455.6 Q1929.8 1457.11 1929.8 1459.79 Z" fill="#000000" fill-rule="nonzero" fill-opacity="1" /><path clip-path="url(#clip010)" d="M2319.91 1481.64 L2327.55 1481.64 L2327.55 1455.28 L2319.24 1456.95 L2319.24 1452.69 L2327.5 1451.02 L2332.18 1451.02 L2332.18 1481.64 L2339.82 1481.64 L2339.82 1485.58 L2319.91 1485.58 L2319.91 1481.64 Z" fill="#000000" fill-rule="nonzero" fill-opacity="1" /><path clip-path="url(#clip010)" d="M2349.26 1479.7 L2354.14 1479.7 L2354.14 1485.58 L2349.26 1485.58 L2349.26 1479.7 Z" fill="#000000" fill-rule="nonzero" fill-opacity="1" /><path clip-path="url(#clip010)" d="M2374.33 1454.1 Q2370.72 1454.1 2368.89 1457.66 Q2367.08 1461.2 2367.08 1468.33 Q2367.08 1475.44 2368.89 1479.01 Q2370.72 1482.55 2374.33 1482.55 Q2377.96 1482.55 2379.77 1479.01 Q2381.6 1475.44 2381.6 1468.33 Q2381.6 1461.2 2379.77 1457.66 Q2377.96 1454.1 2374.33 1454.1 M2374.33 1450.39 Q2380.14 1450.39 2383.2 1455 Q2386.27 1459.58 2386.27 1468.33 Q2386.27 1477.06 2383.2 1481.67 Q2380.14 1486.25 2374.33 1486.25 Q2368.52 1486.25 2365.44 1481.67 Q2362.39 1477.06 2362.39 1468.33 Q2362.39 1459.58 2365.44 1455 Q2368.52 1450.39 2374.33 1450.39 Z" fill="#000000" fill-rule="nonzero" fill-opacity="1" /><path clip-path="url(#clip010)" d="M1253.74 1522.27 L1253.74 1532.4 L1265.8 1532.4 L1265.8 1536.95 L1253.74 1536.95 L1253.74 1556.3 Q1253.74 1560.66 1254.92 1561.9 Q1256.13 1563.14 1259.79 1563.14 L1265.8 1563.14 L1265.8 1568.04 L1259.79 1568.04 Q1253.01 1568.04 1250.43 1565.53 Q1247.85 1562.98 1247.85 1556.3 L1247.85 1536.95 L1243.55 1536.95 L1243.55 1532.4 L1247.85 1532.4 L1247.85 1522.27 L1253.74 1522.27 Z" fill="#000000" fill-rule="nonzero" fill-opacity="1" /><polyline clip-path="url(#clip010)" style="stroke:#000000; stroke-linecap:round; stroke-linejoin:round; stroke-width:4; stroke-opacity:1; fill:none" points="156.598,1423.18 156.598,47.2441 "/>
<polyline clip-path="url(#clip010)" style="stroke:#000000; stroke-linecap:round; stroke-linejoin:round; stroke-width:4; stroke-opacity:1; fill:none" points="156.598,1369.87 175.496,1369.87 "/>
<polyline clip-path="url(#clip010)" style="stroke:#000000; stroke-linecap:round; stroke-linejoin:round; stroke-width:4; stroke-opacity:1; fill:none" points="156.598,1030.7 175.496,1030.7 "/>
<polyline clip-path="url(#clip010)" style="stroke:#000000; stroke-linecap:round; stroke-linejoin:round; stroke-width:4; stroke-opacity:1; fill:none" points="156.598,691.534 175.496,691.534 "/>
<polyline clip-path="url(#clip010)" style="stroke:#000000; stroke-linecap:round; stroke-linejoin:round; stroke-width:4; stroke-opacity:1; fill:none" points="156.598,352.368 175.496,352.368 "/>
<path clip-path="url(#clip010)" d="M65.0198 1355.66 Q61.4087 1355.66 59.58 1359.23 Q57.7745 1362.77 57.7745 1369.9 Q57.7745 1377.01 59.58 1380.57 Q61.4087 1384.11 65.0198 1384.11 Q68.6541 1384.11 70.4596 1380.57 Q72.2883 1377.01 72.2883 1369.9 Q72.2883 1362.77 70.4596 1359.23 Q68.6541 1355.66 65.0198 1355.66 M65.0198 1351.96 Q70.83 1351.96 73.8855 1356.57 Q76.9642 1361.15 76.9642 1369.9 Q76.9642 1378.63 73.8855 1383.23 Q70.83 1387.82 65.0198 1387.82 Q59.2097 1387.82 56.131 1383.23 Q53.0754 1378.63 53.0754 1369.9 Q53.0754 1361.15 56.131 1356.57 Q59.2097 1351.96 65.0198 1351.96 Z" fill="#000000" fill-rule="nonzero" fill-opacity="1" /><path clip-path="url(#clip010)" d="M85.1818 1381.27 L90.066 1381.27 L90.066 1387.15 L85.1818 1387.15 L85.1818 1381.27 Z" fill="#000000" fill-rule="nonzero" fill-opacity="1" /><path clip-path="url(#clip010)" d="M104.279 1383.21 L120.598 1383.21 L120.598 1387.15 L98.6539 1387.15 L98.6539 1383.21 Q101.316 1380.46 105.899 1375.83 Q110.506 1371.17 111.686 1369.83 Q113.932 1367.31 114.811 1365.57 Q115.714 1363.81 115.714 1362.12 Q115.714 1359.37 113.77 1357.63 Q111.848 1355.9 108.746 1355.9 Q106.547 1355.9 104.094 1356.66 Q101.663 1357.42 98.8854 1358.97 L98.8854 1354.25 Q101.709 1353.12 104.163 1352.54 Q106.617 1351.96 108.654 1351.96 Q114.024 1351.96 117.219 1354.65 Q120.413 1357.33 120.413 1361.82 Q120.413 1363.95 119.603 1365.87 Q118.816 1367.77 116.709 1370.36 Q116.131 1371.03 113.029 1374.25 Q109.927 1377.45 104.279 1383.21 Z" fill="#000000" fill-rule="nonzero" fill-opacity="1" /><path clip-path="url(#clip010)" d="M62.9365 1016.5 Q59.3254 1016.5 57.4967 1020.06 Q55.6912 1023.6 55.6912 1030.73 Q55.6912 1037.84 57.4967 1041.41 Q59.3254 1044.95 62.9365 1044.95 Q66.5707 1044.95 68.3763 1041.41 Q70.205 1037.84 70.205 1030.73 Q70.205 1023.6 68.3763 1020.06 Q66.5707 1016.5 62.9365 1016.5 M62.9365 1012.79 Q68.7467 1012.79 71.8022 1017.4 Q74.8809 1021.98 74.8809 1030.73 Q74.8809 1039.46 71.8022 1044.07 Q68.7467 1048.65 62.9365 1048.65 Q57.1264 1048.65 54.0477 1044.07 Q50.9921 1039.46 50.9921 1030.73 Q50.9921 1021.98 54.0477 1017.4 Q57.1264 1012.79 62.9365 1012.79 Z" fill="#000000" fill-rule="nonzero" fill-opacity="1" /><path clip-path="url(#clip010)" d="M83.0984 1042.1 L87.9827 1042.1 L87.9827 1047.98 L83.0984 1047.98 L83.0984 1042.1 Z" fill="#000000" fill-rule="nonzero" fill-opacity="1" /><path clip-path="url(#clip010)" d="M111.015 1017.49 L99.2095 1035.94 L111.015 1035.94 L111.015 1017.49 M109.788 1013.42 L115.668 1013.42 L115.668 1035.94 L120.598 1035.94 L120.598 1039.83 L115.668 1039.83 L115.668 1047.98 L111.015 1047.98 L111.015 1039.83 L95.4132 1039.83 L95.4132 1035.32 L109.788 1013.42 Z" fill="#000000" fill-rule="nonzero" fill-opacity="1" /><path clip-path="url(#clip010)" d="M63.2606 677.333 Q59.6495 677.333 57.8208 680.897 Q56.0152 684.439 56.0152 691.569 Q56.0152 698.675 57.8208 702.24 Q59.6495 705.782 63.2606 705.782 Q66.8948 705.782 68.7004 702.24 Q70.5291 698.675 70.5291 691.569 Q70.5291 684.439 68.7004 680.897 Q66.8948 677.333 63.2606 677.333 M63.2606 673.629 Q69.0707 673.629 72.1263 678.235 Q75.205 682.819 75.205 691.569 Q75.205 700.295 72.1263 704.902 Q69.0707 709.485 63.2606 709.485 Q57.4504 709.485 54.3717 704.902 Q51.3162 700.295 51.3162 691.569 Q51.3162 682.819 54.3717 678.235 Q57.4504 673.629 63.2606 673.629 Z" fill="#000000" fill-rule="nonzero" fill-opacity="1" /><path clip-path="url(#clip010)" d="M83.4225 702.934 L88.3067 702.934 L88.3067 708.814 L83.4225 708.814 L83.4225 702.934 Z" fill="#000000" fill-rule="nonzero" fill-opacity="1" /><path clip-path="url(#clip010)" d="M109.071 689.671 Q105.922 689.671 104.071 691.823 Q102.242 693.976 102.242 697.726 Q102.242 701.453 104.071 703.629 Q105.922 705.782 109.071 705.782 Q112.219 705.782 114.047 703.629 Q115.899 701.453 115.899 697.726 Q115.899 693.976 114.047 691.823 Q112.219 689.671 109.071 689.671 M118.353 675.018 L118.353 679.277 Q116.594 678.444 114.788 678.004 Q113.006 677.564 111.246 677.564 Q106.617 677.564 104.163 680.689 Q101.733 683.814 101.385 690.134 Q102.751 688.12 104.811 687.055 Q106.871 685.967 109.348 685.967 Q114.557 685.967 117.566 689.138 Q120.598 692.286 120.598 697.726 Q120.598 703.05 117.45 706.268 Q114.302 709.485 109.071 709.485 Q103.075 709.485 99.9039 704.902 Q96.7326 700.295 96.7326 691.569 Q96.7326 683.374 100.621 678.513 Q104.51 673.629 111.061 673.629 Q112.82 673.629 114.603 673.976 Q116.408 674.323 118.353 675.018 Z" fill="#000000" fill-rule="nonzero" fill-opacity="1" /><path clip-path="url(#clip010)" d="M63.5152 338.167 Q59.9041 338.167 58.0754 341.732 Q56.2699 345.273 56.2699 352.403 Q56.2699 359.509 58.0754 363.074 Q59.9041 366.616 63.5152 366.616 Q67.1494 366.616 68.955 363.074 Q70.7837 359.509 70.7837 352.403 Q70.7837 345.273 68.955 341.732 Q67.1494 338.167 63.5152 338.167 M63.5152 334.463 Q69.3254 334.463 72.3809 339.07 Q75.4596 343.653 75.4596 352.403 Q75.4596 361.13 72.3809 365.736 Q69.3254 370.32 63.5152 370.32 Q57.7051 370.32 54.6264 365.736 Q51.5708 361.13 51.5708 352.403 Q51.5708 343.653 54.6264 339.07 Q57.7051 334.463 63.5152 334.463 Z" fill="#000000" fill-rule="nonzero" fill-opacity="1" /><path clip-path="url(#clip010)" d="M83.6771 363.769 L88.5614 363.769 L88.5614 369.648 L83.6771 369.648 L83.6771 363.769 Z" fill="#000000" fill-rule="nonzero" fill-opacity="1" /><path clip-path="url(#clip010)" d="M108.746 353.236 Q105.413 353.236 103.492 355.019 Q101.594 356.801 101.594 359.926 Q101.594 363.051 103.492 364.833 Q105.413 366.616 108.746 366.616 Q112.08 366.616 114.001 364.833 Q115.922 363.028 115.922 359.926 Q115.922 356.801 114.001 355.019 Q112.103 353.236 108.746 353.236 M104.071 351.246 Q101.061 350.505 99.3715 348.445 Q97.7048 346.384 97.7048 343.422 Q97.7048 339.278 100.645 336.871 Q103.608 334.463 108.746 334.463 Q113.908 334.463 116.848 336.871 Q119.788 339.278 119.788 343.422 Q119.788 346.384 118.098 348.445 Q116.432 350.505 113.445 351.246 Q116.825 352.033 118.7 354.324 Q120.598 356.616 120.598 359.926 Q120.598 364.949 117.52 367.634 Q114.464 370.32 108.746 370.32 Q103.029 370.32 99.9502 367.634 Q96.8947 364.949 96.8947 359.926 Q96.8947 356.616 98.7928 354.324 Q100.691 352.033 104.071 351.246 M102.358 343.861 Q102.358 346.546 104.024 348.051 Q105.714 349.556 108.746 349.556 Q111.756 349.556 113.445 348.051 Q115.158 346.546 115.158 343.861 Q115.158 341.176 113.445 339.672 Q111.756 338.167 108.746 338.167 Q105.714 338.167 104.024 339.672 Q102.358 341.176 102.358 343.861 Z" fill="#000000" fill-rule="nonzero" fill-opacity="1" /><polyline clip-path="url(#clip011)" style="stroke:#009af9; stroke-linecap:round; stroke-linejoin:round; stroke-width:4; stroke-opacity:1; fill:none" points="156.598,861.117 293.858,952.569 321.31,900.543 352.194,1023.33 384.968,1127.96 421.84,1189.01 463.32,1258.85 509.985,1280.72 562.484,1340.94 621.545,1382.86 687.988,1357.61 762.737,1271.27 846.829,1225.94 941.2,1041.35 1047.37,1097.43 1118.21,1006.91 1197.9,1200.7 1269.61,1148.59 1350.28,997.629 1441.04,1013.48 1507.38,1055.19 1582.01,1090.3 1665.98,852.546 1760.44,565.978 1866.7,86.1857 1945.88,385.456 2001.15,433.559 2063.33,274.102 2133.28,330.687 2194.94,275.631 2264.31,455.266 2326.2,582.879 2352.76,629.13 "/>
<polyline clip-path="url(#clip011)" style="stroke:#e26f46; stroke-linecap:round; stroke-linejoin:round; stroke-width:4; stroke-opacity:1; fill:none" points="156.598,861.117 293.858,954.654 321.31,902.769 352.194,1025.22 384.968,1129.57 421.84,1190.54 463.32,1260.26 509.985,1282.18 562.484,1342.32 621.545,1384.24 687.988,1359.13 762.737,1272.98 846.829,1227.89 941.2,1043.39 1047.37,1100.25 1118.21,1010.07 1197.9,1202.29 1269.61,1150.36 1350.28,999.506 1441.04,1015.92 1507.38,1057.86 1582.01,1093.26 1665.98,855.928 1760.44,569.54 1866.7,89.2243 1945.88,388.781 2001.15,437.22 2063.33,278.139 2133.28,335.36 2194.94,280.786 2264.31,460.635 2326.2,588.322 2352.76,634.446 "/>
<path clip-path="url(#clip010)" d="M229.803 248.629 L658.446 248.629 L658.446 93.1086 L229.803 93.1086  Z" fill="#ffffff" fill-rule="evenodd" fill-opacity="1"/>
<polyline clip-path="url(#clip010)" style="stroke:#000000; stroke-linecap:round; stroke-linejoin:round; stroke-width:4; stroke-opacity:1; fill:none" points="229.803,248.629 658.446,248.629 658.446,93.1086 229.803,93.1086 229.803,248.629 "/>
<polyline clip-path="url(#clip010)" style="stroke:#009af9; stroke-linecap:round; stroke-linejoin:round; stroke-width:4; stroke-opacity:1; fill:none" points="254.205,144.949 400.616,144.949 "/>
<path clip-path="url(#clip010)" d="M425.018 151.997 L425.018 136.303 L429.277 136.303 L429.277 151.835 Q429.277 155.516 430.712 157.368 Q432.147 159.196 435.017 159.196 Q438.467 159.196 440.457 156.997 Q442.471 154.798 442.471 151.002 L442.471 136.303 L446.73 136.303 L446.73 162.229 L442.471 162.229 L442.471 158.247 Q440.92 160.608 438.86 161.766 Q436.823 162.9 434.115 162.9 Q429.647 162.9 427.332 160.122 Q425.018 157.344 425.018 151.997 M435.735 135.678 L435.735 135.678 Z" fill="#000000" fill-rule="nonzero" fill-opacity="1" /><path clip-path="url(#clip010)" d="M455.11 126.21 L464.925 126.21 L464.925 129.52 L459.369 129.52 L459.369 165.168 L464.925 165.168 L464.925 168.479 L455.11 168.479 L455.11 126.21 Z" fill="#000000" fill-rule="nonzero" fill-opacity="1" /><path clip-path="url(#clip010)" d="M475.411 158.293 L483.05 158.293 L483.05 131.928 L474.739 133.595 L474.739 129.335 L483.003 127.669 L487.679 127.669 L487.679 158.293 L495.318 158.293 L495.318 162.229 L475.411 162.229 L475.411 158.293 Z" fill="#000000" fill-rule="nonzero" fill-opacity="1" /><path clip-path="url(#clip010)" d="M514.114 126.21 L514.114 168.479 L504.299 168.479 L504.299 165.168 L509.832 165.168 L509.832 129.52 L504.299 129.52 L504.299 126.21 L514.114 126.21 Z" fill="#000000" fill-rule="nonzero" fill-opacity="1" /><polyline clip-path="url(#clip010)" style="stroke:#e26f46; stroke-linecap:round; stroke-linejoin:round; stroke-width:4; stroke-opacity:1; fill:none" points="254.205,196.789 400.616,196.789 "/>
<path clip-path="url(#clip010)" d="M425.018 179.509 L454.253 179.509 L454.253 183.444 L441.985 183.444 L441.985 214.069 L437.286 214.069 L437.286 183.444 L425.018 183.444 L425.018 179.509 Z" fill="#000000" fill-rule="nonzero" fill-opacity="1" /><path clip-path="url(#clip010)" d="M466.638 192.124 Q465.92 191.708 465.064 191.522 Q464.23 191.314 463.212 191.314 Q459.601 191.314 457.656 193.675 Q455.735 196.013 455.735 200.411 L455.735 214.069 L451.453 214.069 L451.453 188.143 L455.735 188.143 L455.735 192.171 Q457.078 189.809 459.23 188.675 Q461.383 187.518 464.462 187.518 Q464.902 187.518 465.434 187.587 Q465.966 187.634 466.615 187.749 L466.638 192.124 Z" fill="#000000" fill-rule="nonzero" fill-opacity="1" /><path clip-path="url(#clip010)" d="M470.665 203.837 L470.665 188.143 L474.925 188.143 L474.925 203.675 Q474.925 207.356 476.36 209.208 Q477.795 211.036 480.665 211.036 Q484.114 211.036 486.105 208.837 Q488.119 206.638 488.119 202.842 L488.119 188.143 L492.378 188.143 L492.378 214.069 L488.119 214.069 L488.119 210.087 Q486.568 212.448 484.508 213.606 Q482.471 214.74 479.763 214.74 Q475.295 214.74 472.98 211.962 Q470.665 209.184 470.665 203.837 M481.383 187.518 L481.383 187.518 Z" fill="#000000" fill-rule="nonzero" fill-opacity="1" /><path clip-path="url(#clip010)" d="M523.327 200.041 L523.327 202.124 L503.744 202.124 Q504.022 206.522 506.383 208.837 Q508.767 211.129 513.003 211.129 Q515.457 211.129 517.748 210.527 Q520.063 209.925 522.332 208.721 L522.332 212.749 Q520.04 213.721 517.633 214.231 Q515.225 214.74 512.749 214.74 Q506.545 214.74 502.911 211.129 Q499.3 207.518 499.3 201.36 Q499.3 194.995 502.725 191.268 Q506.174 187.518 512.008 187.518 Q517.239 187.518 520.272 190.897 Q523.327 194.254 523.327 200.041 M519.068 198.791 Q519.022 195.296 517.1 193.212 Q515.202 191.129 512.054 191.129 Q508.489 191.129 506.337 193.143 Q504.207 195.157 503.883 198.814 L519.068 198.791 Z" fill="#000000" fill-rule="nonzero" fill-opacity="1" /><path clip-path="url(#clip010)" d="M544.947 203.837 L544.947 188.143 L549.207 188.143 L549.207 203.675 Q549.207 207.356 550.642 209.208 Q552.077 211.036 554.947 211.036 Q558.396 211.036 560.387 208.837 Q562.401 206.638 562.401 202.842 L562.401 188.143 L566.66 188.143 L566.66 214.069 L562.401 214.069 L562.401 210.087 Q560.85 212.448 558.79 213.606 Q556.753 214.74 554.045 214.74 Q549.577 214.74 547.262 211.962 Q544.947 209.184 544.947 203.837 M555.665 187.518 L555.665 187.518 Z" fill="#000000" fill-rule="nonzero" fill-opacity="1" /><path clip-path="url(#clip010)" d="M575.04 178.05 L584.855 178.05 L584.855 181.36 L579.299 181.36 L579.299 217.008 L584.855 217.008 L584.855 220.319 L575.04 220.319 L575.04 178.05 Z" fill="#000000" fill-rule="nonzero" fill-opacity="1" /><path clip-path="url(#clip010)" d="M595.341 210.133 L602.98 210.133 L602.98 183.768 L594.669 185.435 L594.669 181.175 L602.933 179.509 L607.609 179.509 L607.609 210.133 L615.248 210.133 L615.248 214.069 L595.341 214.069 L595.341 210.133 Z" fill="#000000" fill-rule="nonzero" fill-opacity="1" /><path clip-path="url(#clip010)" d="M634.044 178.05 L634.044 220.319 L624.229 220.319 L624.229 217.008 L629.762 217.008 L629.762 181.36 L624.229 181.36 L624.229 178.05 L634.044 178.05 Z" fill="#000000" fill-rule="nonzero" fill-opacity="1" /></svg>
