<?xml version="1.0" encoding="utf-8"?>
<svg xmlns="http://www.w3.org/2000/svg" xmlns:xlink="http://www.w3.org/1999/xlink" width="600" height="400" viewBox="0 0 2400 1600">
<defs>
  <clipPath id="clip920">
    <rect x="0" y="0" width="2400" height="1600"/>
  </clipPath>
</defs>
<path clip-path="url(#clip920)" d="M0 1600 L2400 1600 L2400 0 L0 0  Z" fill="#ffffff" fill-rule="evenodd" fill-opacity="1"/>
<defs>
  <clipPath id="clip921">
    <rect x="112" y="47" width="2242" height="1377"/>
  </clipPath>
</defs>
<path clip-path="url(#clip920)" d="M112.177 1423.18 L2352.76 1423.18 L2352.76 47.2441 L112.177 47.2441  Z" fill="#ffffff" fill-rule="evenodd" fill-opacity="1"/>
<polyline clip-path="url(#clip921)" style="stroke:#000000; stroke-linecap:round; stroke-linejoin:round; stroke-width:2; stroke-opacity:0.1; fill:none" points="112.177,1423.18 112.177,47.2441 "/>
<polyline clip-path="url(#clip921)" style="stroke:#000000; stroke-linecap:round; stroke-linejoin:round; stroke-width:2; stroke-opacity:0.1; fill:none" points="560.293,1423.18 560.293,47.2441 "/>
<polyline clip-path="url(#clip921)" style="stroke:#000000; stroke-linecap:round; stroke-linejoin:round; stroke-width:2; stroke-opacity:0.1; fill:none" points="1008.41,1423.18 1008.41,47.2441 "/>
<polyline clip-path="url(#clip921)" style="stroke:#000000; stroke-linecap:round; stroke-linejoin:round; stroke-width:2; stroke-opacity:0.1; fill:none" points="1456.52,1423.18 1456.52,47.2441 "/>
<polyline clip-path="url(#clip921)" style="stroke:#000000; stroke-linecap:round; stroke-linejoin:round; stroke-width:2; stroke-opacity:0.1; fill:none" points="1904.64,1423.18 1904.64,47.2441 "/>
<polyline clip-path="url(#clip921)" style="stroke:#000000; stroke-linecap:round; stroke-linejoin:round; stroke-width:2; stroke-opacity:0.1; fill:none" points="2352.76,1423.18 2352.76,47.2441 "/>
<polyline clip-path="url(#clip921)" style="stroke:#000000; stroke-linecap:round; stroke-linejoin:round; stroke-width:2; stroke-opacity:0.1; fill:none" points="112.177,1274.63 2352.76,1274.63 "/>
<polyline clip-path="url(#clip921)" style="stroke:#000000; stroke-linecap:round; stroke-linejoin:round; stroke-width:2; stroke-opacity:0.1; fill:none" points="112.177,1055.42 2352.76,1055.42 "/>
<polyline clip-path="url(#clip921)" style="stroke:#000000; stroke-linecap:round; stroke-linejoin:round; stroke-width:2; stroke-opacity:0.1; fill:none" points="112.177,836.201 2352.76,836.201 "/>
<polyline clip-path="url(#clip921)" style="stroke:#000000; stroke-linecap:round; stroke-linejoin:round; stroke-width:2; stroke-opacity:0.1; fill:none" points="112.177,616.985 2352.76,616.985 "/>
<polyline clip-path="url(#clip921)" style="stroke:#000000; stroke-linecap:round; stroke-linejoin:round; stroke-width:2; stroke-opacity:0.1; fill:none" points="112.177,397.77 2352.76,397.77 "/>
<polyline clip-path="url(#clip921)" style="stroke:#000000; stroke-linecap:round; stroke-linejoin:round; stroke-width:2; stroke-opacity:0.1; fill:none" points="112.177,178.555 2352.76,178.555 "/>
<polyline clip-path="url(#clip920)" style="stroke:#000000; stroke-linecap:round; stroke-linejoin:round; stroke-width:4; stroke-opacity:1; fill:none" points="112.177,1423.18 2352.76,1423.18 "/>
<polyline clip-path="url(#clip920)" style="stroke:#000000; stroke-linecap:round; stroke-linejoin:round; stroke-width:4; stroke-opacity:1; fill:none" points="112.177,1423.18 112.177,1404.28 "/>
<polyline clip-path="url(#clip920)" style="stroke:#000000; stroke-linecap:round; stroke-linejoin:round; stroke-width:4; stroke-opacity:1; fill:none" points="560.293,1423.18 560.293,1404.28 "/>
<polyline clip-path="url(#clip920)" style="stroke:#000000; stroke-linecap:round; stroke-linejoin:round; stroke-width:4; stroke-opacity:1; fill:none" points="1008.41,1423.18 1008.41,1404.28 "/>
<polyline clip-path="url(#clip920)" style="stroke:#000000; stroke-linecap:round; stroke-linejoin:round; stroke-width:4; stroke-opacity:1; fill:none" points="1456.52,1423.18 1456.52,1404.28 "/>
<polyline clip-path="url(#clip920)" style="stroke:#000000; stroke-linecap:round; stroke-linejoin:round; stroke-width:4; stroke-opacity:1; fill:none" points="1904.64,1423.18 1904.64,1404.28 "/>
<polyline clip-path="url(#clip920)" style="stroke:#000000; stroke-linecap:round; stroke-linejoin:round; stroke-width:4; stroke-opacity:1; fill:none" points="2352.76,1423.18 2352.76,1404.28 "/>
<path clip-path="url(#clip920)" d="M89.5616 1454.1 Q85.9505 1454.1 84.1218 1457.66 Q82.3162 1461.2 82.3162 1468.33 Q82.3162 1475.44 84.1218 1479.01 Q85.9505 1482.55 89.5616 1482.55 Q93.1958 1482.55 95.0013 1479.01 Q96.83 1475.44 96.83 1468.33 Q96.83 1461.2 95.0013 1457.66 Q93.1958 1454.1 89.5616 1454.1 M89.5616 1450.39 Q95.3717 1450.39 98.4272 1455 Q101.506 1459.58 101.506 1468.33 Q101.506 1477.06 98.4272 1481.67 Q95.3717 1486.25 89.5616 1486.25 Q83.7514 1486.25 80.6727 1481.67 Q77.6172 1477.06 77.6172 1468.33 Q77.6172 1459.58 80.6727 1455 Q83.7514 1450.39 89.5616 1450.39 Z" fill="#000000" fill-rule="nonzero" fill-opacity="1" /><path clip-path="url(#clip920)" d="M109.723 1479.7 L114.608 1479.7 L114.608 1485.58 L109.723 1485.58 L109.723 1479.7 Z" fill="#000000" fill-rule="nonzero" fill-opacity="1" /><path clip-path="url(#clip920)" d="M134.793 1454.1 Q131.182 1454.1 129.353 1457.66 Q127.547 1461.2 127.547 1468.33 Q127.547 1475.44 129.353 1479.01 Q131.182 1482.55 134.793 1482.55 Q138.427 1482.55 140.233 1479.01 Q142.061 1475.44 142.061 1468.33 Q142.061 1461.2 140.233 1457.66 Q138.427 1454.1 134.793 1454.1 M134.793 1450.39 Q140.603 1450.39 143.658 1455 Q146.737 1459.58 146.737 1468.33 Q146.737 1477.06 143.658 1481.67 Q140.603 1486.25 134.793 1486.25 Q128.983 1486.25 125.904 1481.67 Q122.848 1477.06 122.848 1468.33 Q122.848 1459.58 125.904 1455 Q128.983 1450.39 134.793 1450.39 Z" fill="#000000" fill-rule="nonzero" fill-opacity="1" /><path clip-path="url(#clip920)" d="M538.476 1454.1 Q534.865 1454.1 533.036 1457.66 Q531.231 1461.2 531.231 1468.33 Q531.231 1475.44 533.036 1479.01 Q534.865 1482.55 538.476 1482.55 Q542.11 1482.55 543.916 1479.01 Q545.744 1475.44 545.744 1468.33 Q545.744 1461.2 543.916 1457.66 Q542.11 1454.1 538.476 1454.1 M538.476 1450.39 Q544.286 1450.39 547.342 1455 Q550.42 1459.58 550.42 1468.33 Q550.42 1477.06 547.342 1481.67 Q544.286 1486.25 538.476 1486.25 Q532.666 1486.25 529.587 1481.67 Q526.532 1477.06 526.532 1468.33 Q526.532 1459.58 529.587 1455 Q532.666 1450.39 538.476 1450.39 Z" fill="#000000" fill-rule="nonzero" fill-opacity="1" /><path clip-path="url(#clip920)" d="M558.638 1479.7 L563.522 1479.7 L563.522 1485.58 L558.638 1485.58 L558.638 1479.7 Z" fill="#000000" fill-rule="nonzero" fill-opacity="1" /><path clip-path="url(#clip920)" d="M577.735 1481.64 L594.054 1481.64 L594.054 1485.58 L572.11 1485.58 L572.11 1481.64 Q574.772 1478.89 579.355 1474.26 Q583.962 1469.61 585.142 1468.27 Q587.388 1465.74 588.267 1464.01 Q589.17 1462.25 589.17 1460.56 Q589.17 1457.8 587.226 1456.07 Q585.304 1454.33 582.203 1454.33 Q580.003 1454.33 577.55 1455.09 Q575.119 1455.86 572.341 1457.41 L572.341 1452.69 Q575.166 1451.55 577.619 1450.97 Q580.073 1450.39 582.11 1450.39 Q587.48 1450.39 590.675 1453.08 Q593.869 1455.77 593.869 1460.26 Q593.869 1462.39 593.059 1464.31 Q592.272 1466.2 590.165 1468.8 Q589.587 1469.47 586.485 1472.69 Q583.383 1475.88 577.735 1481.64 Z" fill="#000000" fill-rule="nonzero" fill-opacity="1" /><path clip-path="url(#clip920)" d="M985.55 1454.1 Q981.939 1454.1 980.11 1457.66 Q978.305 1461.2 978.305 1468.33 Q978.305 1475.44 980.11 1479.01 Q981.939 1482.55 985.55 1482.55 Q989.184 1482.55 990.99 1479.01 Q992.818 1475.44 992.818 1468.33 Q992.818 1461.2 990.99 1457.66 Q989.184 1454.1 985.55 1454.1 M985.55 1450.39 Q991.36 1450.39 994.416 1455 Q997.494 1459.58 997.494 1468.33 Q997.494 1477.06 994.416 1481.67 Q991.36 1486.25 985.55 1486.25 Q979.74 1486.25 976.661 1481.67 Q973.606 1477.06 973.606 1468.33 Q973.606 1459.58 976.661 1455 Q979.74 1450.39 985.55 1450.39 Z" fill="#000000" fill-rule="nonzero" fill-opacity="1" /><path clip-path="url(#clip920)" d="M1005.71 1479.7 L1010.6 1479.7 L1010.6 1485.58 L1005.71 1485.58 L1005.71 1479.7 Z" fill="#000000" fill-rule="nonzero" fill-opacity="1" /><path clip-path="url(#clip920)" d="M1033.63 1455.09 L1021.82 1473.54 L1033.63 1473.54 L1033.63 1455.09 M1032.4 1451.02 L1038.28 1451.02 L1038.28 1473.54 L1043.21 1473.54 L1043.21 1477.43 L1038.28 1477.43 L1038.28 1485.58 L1033.63 1485.58 L1033.63 1477.43 L1018.03 1477.43 L1018.03 1472.92 L1032.4 1451.02 Z" fill="#000000" fill-rule="nonzero" fill-opacity="1" /><path clip-path="url(#clip920)" d="M1433.83 1454.1 Q1430.22 1454.1 1428.39 1457.66 Q1426.58 1461.2 1426.58 1468.33 Q1426.58 1475.44 1428.39 1479.01 Q1430.22 1482.55 1433.83 1482.55 Q1437.46 1482.55 1439.27 1479.01 Q1441.1 1475.44 1441.1 1468.33 Q1441.1 1461.2 1439.27 1457.66 Q1437.46 1454.1 1433.83 1454.1 M1433.83 1450.39 Q1439.64 1450.39 1442.69 1455 Q1445.77 1459.58 1445.77 1468.33 Q1445.77 1477.06 1442.69 1481.67 Q1439.64 1486.25 1433.83 1486.25 Q1428.02 1486.25 1424.94 1481.67 Q1421.88 1477.06 1421.88 1468.33 Q1421.88 1459.58 1424.94 1455 Q1428.02 1450.39 1433.83 1450.39 Z" fill="#000000" fill-rule="nonzero" fill-opacity="1" /><path clip-path="url(#clip920)" d="M1453.99 1479.7 L1458.87 1479.7 L1458.87 1485.58 L1453.99 1485.58 L1453.99 1479.7 Z" fill="#000000" fill-rule="nonzero" fill-opacity="1" /><path clip-path="url(#clip920)" d="M1479.64 1466.44 Q1476.49 1466.44 1474.64 1468.59 Q1472.81 1470.74 1472.81 1474.49 Q1472.81 1478.22 1474.64 1480.39 Q1476.49 1482.55 1479.64 1482.55 Q1482.79 1482.55 1484.61 1480.39 Q1486.47 1478.22 1486.47 1474.49 Q1486.47 1470.74 1484.61 1468.59 Q1482.79 1466.44 1479.64 1466.44 M1488.92 1451.78 L1488.92 1456.04 Q1487.16 1455.21 1485.36 1454.77 Q1483.57 1454.33 1481.81 1454.33 Q1477.18 1454.33 1474.73 1457.45 Q1472.3 1460.58 1471.95 1466.9 Q1473.32 1464.89 1475.38 1463.82 Q1477.44 1462.73 1479.92 1462.73 Q1485.12 1462.73 1488.13 1465.9 Q1491.17 1469.05 1491.17 1474.49 Q1491.17 1479.82 1488.02 1483.03 Q1484.87 1486.25 1479.64 1486.25 Q1473.64 1486.25 1470.47 1481.67 Q1467.3 1477.06 1467.3 1468.33 Q1467.3 1460.14 1471.19 1455.28 Q1475.08 1450.39 1481.63 1450.39 Q1483.39 1450.39 1485.17 1450.74 Q1486.98 1451.09 1488.92 1451.78 Z" fill="#000000" fill-rule="nonzero" fill-opacity="1" /><path clip-path="url(#clip920)" d="M1882.07 1454.1 Q1878.46 1454.1 1876.63 1457.66 Q1874.83 1461.2 1874.83 1468.33 Q1874.83 1475.44 1876.63 1479.01 Q1878.46 1482.55 1882.07 1482.55 Q1885.71 1482.55 1887.51 1479.01 Q1889.34 1475.44 1889.34 1468.33 Q1889.34 1461.2 1887.51 1457.66 Q1885.71 1454.1 1882.07 1454.1 M1882.07 1450.39 Q1887.88 1450.39 1890.94 1455 Q1894.02 1459.58 1894.02 1468.33 Q1894.02 1477.06 1890.94 1481.67 Q1887.88 1486.25 1882.07 1486.25 Q1876.26 1486.25 1873.18 1481.67 Q1870.13 1477.06 1870.13 1468.33 Q1870.13 1459.58 1873.18 1455 Q1876.26 1450.39 1882.07 1450.39 Z" fill="#000000" fill-rule="nonzero" fill-opacity="1" /><path clip-path="url(#clip920)" d="M1902.23 1479.7 L1907.12 1479.7 L1907.12 1485.58 L1902.23 1485.58 L1902.23 1479.7 Z" fill="#000000" fill-rule="nonzero" fill-opacity="1" /><path clip-path="url(#clip920)" d="M1927.3 1469.17 Q1923.97 1469.17 1922.05 1470.95 Q1920.15 1472.73 1920.15 1475.86 Q1920.15 1478.98 1922.05 1480.77 Q1923.97 1482.55 1927.3 1482.55 Q1930.64 1482.55 1932.56 1480.77 Q1934.48 1478.96 1934.48 1475.86 Q1934.48 1472.73 1932.56 1470.95 Q1930.66 1469.17 1927.3 1469.17 M1922.63 1467.18 Q1919.62 1466.44 1917.93 1464.38 Q1916.26 1462.32 1916.26 1459.35 Q1916.26 1455.21 1919.2 1452.8 Q1922.16 1450.39 1927.3 1450.39 Q1932.46 1450.39 1935.4 1452.8 Q1938.34 1455.21 1938.34 1459.35 Q1938.34 1462.32 1936.65 1464.38 Q1934.99 1466.44 1932 1467.18 Q1935.38 1467.96 1937.26 1470.26 Q1939.15 1472.55 1939.15 1475.86 Q1939.15 1480.88 1936.08 1483.57 Q1933.02 1486.25 1927.3 1486.25 Q1921.58 1486.25 1918.51 1483.57 Q1915.45 1480.88 1915.45 1475.86 Q1915.45 1472.55 1917.35 1470.26 Q1919.25 1467.96 1922.63 1467.18 M1920.91 1459.79 Q1920.91 1462.48 1922.58 1463.98 Q1924.27 1465.49 1927.3 1465.49 Q1930.31 1465.49 1932 1463.98 Q1933.71 1462.48 1933.71 1459.79 Q1933.71 1457.11 1932 1455.6 Q1930.31 1454.1 1927.3 1454.1 Q1924.27 1454.1 1922.58 1455.6 Q1920.91 1457.11 1920.91 1459.79 Z" fill="#000000" fill-rule="nonzero" fill-opacity="1" /><path clip-path="url(#clip920)" d="M2319.91 1481.64 L2327.55 1481.64 L2327.55 1455.28 L2319.24 1456.95 L2319.24 1452.69 L2327.5 1451.02 L2332.18 1451.02 L2332.18 1481.64 L2339.82 1481.64 L2339.82 1485.58 L2319.91 1485.58 L2319.91 1481.64 Z" fill="#000000" fill-rule="nonzero" fill-opacity="1" /><path clip-path="url(#clip920)" d="M2349.26 1479.7 L2354.14 1479.7 L2354.14 1485.58 L2349.26 1485.58 L2349.26 1479.7 Z" fill="#000000" fill-rule="nonzero" fill-opacity="1" /><path clip-path="url(#clip920)" d="M2374.33 1454.1 Q2370.72 1454.1 2368.89 1457.66 Q2367.08 1461.2 2367.08 1468.33 Q2367.08 1475.44 2368.89 1479.01 Q2370.72 1482.55 2374.33 1482.55 Q2377.96 1482.55 2379.77 1479.01 Q2381.6 1475.44 2381.6 1468.33 Q2381.6 1461.2 2379.77 1457.66 Q2377.96 1454.1 2374.33 1454.1 M2374.33 1450.39 Q2380.14 1450.39 2383.2 1455 Q2386.27 1459.58 2386.27 1468.33 Q2386.27 1477.06 2383.2 1481.67 Q2380.14 1486.25 2374.33 1486.25 Q2368.52 1486.25 2365.44 1481.67 Q2362.39 1477.06 2362.39 1468.33 Q2362.39 1459.58 2365.44 1455 Q2368.52 1450.39 2374.33 1450.39 Z" fill="#000000" fill-rule="nonzero" fill-opacity="1" /><path clip-path="url(#clip920)" d="M1231.53 1522.27 L1231.53 1532.4 L1243.59 1532.4 L1243.59 1536.95 L1231.53 1536.95 L1231.53 1556.3 Q1231.53 1560.66 1232.71 1561.9 Q1233.91 1563.14 1237.58 1563.14 L1243.59 1563.14 L1243.59 1568.04 L1237.58 1568.04 Q1230.8 1568.04 1228.22 1565.53 Q1225.64 1562.98 1225.64 1556.3 L1225.64 1536.95 L1221.34 1536.95 L1221.34 1532.4 L1225.64 1532.4 L1225.64 1522.27 L1231.53 1522.27 Z" fill="#000000" fill-rule="nonzero" fill-opacity="1" /><polyline clip-path="url(#clip920)" style="stroke:#000000; stroke-linecap:round; stroke-linejoin:round; stroke-width:4; stroke-opacity:1; fill:none" points="112.177,1423.18 112.177,47.2441 "/>
<polyline clip-path="url(#clip920)" style="stroke:#000000; stroke-linecap:round; stroke-linejoin:round; stroke-width:4; stroke-opacity:1; fill:none" points="112.177,1274.63 131.075,1274.63 "/>
<polyline clip-path="url(#clip920)" style="stroke:#000000; stroke-linecap:round; stroke-linejoin:round; stroke-width:4; stroke-opacity:1; fill:none" points="112.177,1055.42 131.075,1055.42 "/>
<polyline clip-path="url(#clip920)" style="stroke:#000000; stroke-linecap:round; stroke-linejoin:round; stroke-width:4; stroke-opacity:1; fill:none" points="112.177,836.201 131.075,836.201 "/>
<polyline clip-path="url(#clip920)" style="stroke:#000000; stroke-linecap:round; stroke-linejoin:round; stroke-width:4; stroke-opacity:1; fill:none" points="112.177,616.985 131.075,616.985 "/>
<polyline clip-path="url(#clip920)" style="stroke:#000000; stroke-linecap:round; stroke-linejoin:round; stroke-width:4; stroke-opacity:1; fill:none" points="112.177,397.77 131.075,397.77 "/>
<polyline clip-path="url(#clip920)" style="stroke:#000000; stroke-linecap:round; stroke-linejoin:round; stroke-width:4; stroke-opacity:1; fill:none" points="112.177,178.555 131.075,178.555 "/>
<path clip-path="url(#clip920)" d="M56.2699 1287.98 L63.9087 1287.98 L63.9087 1261.61 L55.5986 1263.28 L55.5986 1259.02 L63.8624 1257.35 L68.5383 1257.35 L68.5383 1287.98 L76.1772 1287.98 L76.1772 1291.91 L56.2699 1291.91 L56.2699 1287.98 Z" fill="#000000" fill-rule="nonzero" fill-opacity="1" /><path clip-path="url(#clip920)" d="M59.8578 1068.76 L76.1772 1068.76 L76.1772 1072.7 L54.2328 1072.7 L54.2328 1068.76 Q56.8949 1066.01 61.4782 1061.38 Q66.0846 1056.72 67.2652 1055.38 Q69.5105 1052.86 70.3902 1051.12 Q71.2929 1049.36 71.2929 1047.67 Q71.2929 1044.92 69.3485 1043.18 Q67.4272 1041.45 64.3254 1041.45 Q62.1263 1041.45 59.6726 1042.21 Q57.2421 1042.97 54.4643 1044.52 L54.4643 1039.8 Q57.2884 1038.67 59.7421 1038.09 Q62.1958 1037.51 64.2328 1037.51 Q69.6031 1037.51 72.7976 1040.2 Q75.992 1042.88 75.992 1047.37 Q75.992 1049.5 75.1818 1051.42 Q74.3948 1053.32 72.2883 1055.91 Q71.7096 1056.58 68.6078 1059.8 Q65.5059 1063 59.8578 1068.76 Z" fill="#000000" fill-rule="nonzero" fill-opacity="1" /><path clip-path="url(#clip920)" d="M69.0476 834.846 Q72.404 835.564 74.279 837.832 Q76.1772 840.101 76.1772 843.434 Q76.1772 848.55 72.6587 851.351 Q69.1402 854.152 62.6587 854.152 Q60.4828 854.152 58.168 853.712 Q55.8764 853.295 53.4227 852.439 L53.4227 847.925 Q55.3671 849.059 57.6819 849.638 Q59.9967 850.217 62.5198 850.217 Q66.918 850.217 69.2096 848.481 Q71.5244 846.744 71.5244 843.434 Q71.5244 840.379 69.3717 838.666 Q67.242 836.93 63.4226 836.93 L59.3949 836.93 L59.3949 833.087 L63.6078 833.087 Q67.0569 833.087 68.8855 831.721 Q70.7142 830.333 70.7142 827.74 Q70.7142 825.078 68.8161 823.666 Q66.9411 822.231 63.4226 822.231 Q61.5013 822.231 59.3023 822.647 Q57.1032 823.064 54.4643 823.944 L54.4643 819.777 Q57.1264 819.036 59.4412 818.666 Q61.7791 818.296 63.8393 818.296 Q69.1633 818.296 72.2652 820.726 Q75.367 823.133 75.367 827.254 Q75.367 830.124 73.7235 832.115 Q72.08 834.082 69.0476 834.846 Z" fill="#000000" fill-rule="nonzero" fill-opacity="1" /><path clip-path="url(#clip920)" d="M66.5939 603.78 L54.7884 622.228 L66.5939 622.228 L66.5939 603.78 M65.367 599.705 L71.2466 599.705 L71.2466 622.228 L76.1772 622.228 L76.1772 626.117 L71.2466 626.117 L71.2466 634.265 L66.5939 634.265 L66.5939 626.117 L50.9921 626.117 L50.9921 621.603 L65.367 599.705 Z" fill="#000000" fill-rule="nonzero" fill-opacity="1" /><path clip-path="url(#clip920)" d="M55.2745 380.49 L73.6309 380.49 L73.6309 384.426 L59.5569 384.426 L59.5569 392.898 Q60.5754 392.55 61.5939 392.388 Q62.6124 392.203 63.6309 392.203 Q69.418 392.203 72.7976 395.375 Q76.1772 398.546 76.1772 403.962 Q76.1772 409.541 72.705 412.643 Q69.2328 415.722 62.9134 415.722 Q60.7374 415.722 58.4689 415.351 Q56.2236 414.981 53.8162 414.24 L53.8162 409.541 Q55.8995 410.675 58.1217 411.231 Q60.3439 411.786 62.8208 411.786 Q66.8254 411.786 69.1633 409.68 Q71.5013 407.574 71.5013 403.962 Q71.5013 400.351 69.1633 398.245 Q66.8254 396.138 62.8208 396.138 Q60.9458 396.138 59.0708 396.555 Q57.2189 396.972 55.2745 397.851 L55.2745 380.49 Z" fill="#000000" fill-rule="nonzero" fill-opacity="1" /><path clip-path="url(#clip920)" d="M64.6495 176.692 Q61.5013 176.692 59.6495 178.845 Q57.8208 180.997 57.8208 184.747 Q57.8208 188.474 59.6495 190.65 Q61.5013 192.803 64.6495 192.803 Q67.7976 192.803 69.6263 190.65 Q71.4781 188.474 71.4781 184.747 Q71.4781 180.997 69.6263 178.845 Q67.7976 176.692 64.6495 176.692 M73.9318 162.039 L73.9318 166.298 Q72.1726 165.465 70.367 165.025 Q68.5846 164.585 66.8254 164.585 Q62.1958 164.585 59.7421 167.71 Q57.3115 170.835 56.9643 177.155 Q58.33 175.141 60.3902 174.076 Q62.4504 172.988 64.9272 172.988 Q70.1355 172.988 73.1448 176.159 Q76.1772 179.308 76.1772 184.747 Q76.1772 190.071 73.029 193.289 Q69.8809 196.507 64.6495 196.507 Q58.6541 196.507 55.4828 191.923 Q52.3116 187.317 52.3116 178.59 Q52.3116 170.396 56.2004 165.535 Q60.0893 160.65 66.6402 160.65 Q68.3994 160.65 70.1818 160.997 Q71.9874 161.345 73.9318 162.039 Z" fill="#000000" fill-rule="nonzero" fill-opacity="1" /><polyline clip-path="url(#clip921)" style="stroke:#009af9; stroke-linecap:round; stroke-linejoin:round; stroke-width:4; stroke-opacity:1; fill:none" points="112.177,1384.24 252.213,1343.61 392.25,1307.31 532.286,1275.92 672.322,1243.44 812.358,1183.38 952.394,1077.53 1092.43,948.225 1232.47,924.12 1372.5,788.275 1512.54,813.162 1652.58,565.04 1792.61,721.842 1932.65,729.836 2072.68,727.185 2212.72,149.376 2352.76,86.1857 "/>
<polyline clip-path="url(#clip921)" style="stroke:#e26f46; stroke-linecap:round; stroke-linejoin:round; stroke-width:4; stroke-opacity:1; fill:none" points="112.177,1384.24 252.213,1342.7 392.25,1309.27 532.286,1283.48 672.322,1258.38 812.358,1206.78 952.394,1108.93 1092.43,992.262 1232.47,985.187 1372.5,874.529 1512.54,911.044 1652.58,694.855 1792.61,830.773 1932.65,855.062 2072.68,870.403 2212.72,261.073 2352.76,240.361 "/>
<path clip-path="url(#clip920)" d="M186.863 248.629 L619.948 248.629 L619.948 93.1086 L186.863 93.1086  Z" fill="#ffffff" fill-rule="evenodd" fill-opacity="1"/>
<polyline clip-path="url(#clip920)" style="stroke:#000000; stroke-linecap:round; stroke-linejoin:round; stroke-width:4; stroke-opacity:1; fill:none" points="186.863,248.629 619.948,248.629 619.948,93.1086 186.863,93.1086 186.863,248.629 "/>
<polyline clip-path="url(#clip920)" style="stroke:#009af9; stroke-linecap:round; stroke-linejoin:round; stroke-width:4; stroke-opacity:1; fill:none" points="211.758,144.949 361.13,144.949 "/>
<path clip-path="url(#clip920)" d="M386.026 151.997 L386.026 136.303 L390.285 136.303 L390.285 151.835 Q390.285 155.516 391.72 157.368 Q393.155 159.196 396.026 159.196 Q399.475 159.196 401.465 156.997 Q403.479 154.798 403.479 151.002 L403.479 136.303 L407.739 136.303 L407.739 162.229 L403.479 162.229 L403.479 158.247 Q401.928 160.608 399.868 161.766 Q397.831 162.9 395.123 162.9 Q390.655 162.9 388.34 160.122 Q386.026 157.344 386.026 151.997 M396.743 135.678 L396.743 135.678 Z" fill="#000000" fill-rule="nonzero" fill-opacity="1" /><path clip-path="url(#clip920)" d="M416.118 126.21 L425.933 126.21 L425.933 129.52 L420.377 129.52 L420.377 165.168 L425.933 165.168 L425.933 168.479 L416.118 168.479 L416.118 126.21 Z" fill="#000000" fill-rule="nonzero" fill-opacity="1" /><path clip-path="url(#clip920)" d="M436.419 158.293 L444.058 158.293 L444.058 131.928 L435.748 133.595 L435.748 129.335 L444.011 127.669 L448.687 127.669 L448.687 158.293 L456.326 158.293 L456.326 162.229 L436.419 162.229 L436.419 158.293 Z" fill="#000000" fill-rule="nonzero" fill-opacity="1" /><path clip-path="url(#clip920)" d="M475.122 126.21 L475.122 168.479 L465.308 168.479 L465.308 165.168 L470.84 165.168 L470.84 129.52 L465.308 129.52 L465.308 126.21 L475.122 126.21 Z" fill="#000000" fill-rule="nonzero" fill-opacity="1" /><polyline clip-path="url(#clip920)" style="stroke:#e26f46; stroke-linecap:round; stroke-linejoin:round; stroke-width:4; stroke-opacity:1; fill:none" points="211.758,196.789 361.13,196.789 "/>
<path clip-path="url(#clip920)" d="M386.026 179.509 L415.262 179.509 L415.262 183.444 L402.993 183.444 L402.993 214.069 L398.294 214.069 L398.294 183.444 L386.026 183.444 L386.026 179.509 Z" fill="#000000" fill-rule="nonzero" fill-opacity="1" /><path clip-path="url(#clip920)" d="M427.646 192.124 Q426.928 191.708 426.072 191.522 Q425.238 191.314 424.22 191.314 Q420.609 191.314 418.664 193.675 Q416.743 196.013 416.743 200.411 L416.743 214.069 L412.461 214.069 L412.461 188.143 L416.743 188.143 L416.743 192.171 Q418.086 189.809 420.238 188.675 Q422.391 187.518 425.47 187.518 Q425.91 187.518 426.442 187.587 Q426.975 187.634 427.623 187.749 L427.646 192.124 Z" fill="#000000" fill-rule="nonzero" fill-opacity="1" /><path clip-path="url(#clip920)" d="M431.674 203.837 L431.674 188.143 L435.933 188.143 L435.933 203.675 Q435.933 207.356 437.368 209.208 Q438.803 211.036 441.674 211.036 Q445.123 211.036 447.113 208.837 Q449.127 206.638 449.127 202.842 L449.127 188.143 L453.386 188.143 L453.386 214.069 L449.127 214.069 L449.127 210.087 Q447.576 212.448 445.516 213.606 Q443.479 214.74 440.771 214.74 Q436.303 214.74 433.988 211.962 Q431.674 209.184 431.674 203.837 M442.391 187.518 L442.391 187.518 Z" fill="#000000" fill-rule="nonzero" fill-opacity="1" /><path clip-path="url(#clip920)" d="M484.335 200.041 L484.335 202.124 L464.752 202.124 Q465.03 206.522 467.391 208.837 Q469.775 211.129 474.011 211.129 Q476.465 211.129 478.757 210.527 Q481.071 209.925 483.34 208.721 L483.34 212.749 Q481.048 213.721 478.641 214.231 Q476.234 214.74 473.757 214.74 Q467.553 214.74 463.919 211.129 Q460.308 207.518 460.308 201.36 Q460.308 194.995 463.734 191.268 Q467.183 187.518 473.016 187.518 Q478.247 187.518 481.28 190.897 Q484.335 194.254 484.335 200.041 M480.076 198.791 Q480.03 195.296 478.109 193.212 Q476.21 191.129 473.062 191.129 Q469.497 191.129 467.345 193.143 Q465.215 195.157 464.891 198.814 L480.076 198.791 Z" fill="#000000" fill-rule="nonzero" fill-opacity="1" /><path clip-path="url(#clip920)" d="M505.956 203.837 L505.956 188.143 L510.215 188.143 L510.215 203.675 Q510.215 207.356 511.65 209.208 Q513.085 211.036 515.956 211.036 Q519.405 211.036 521.395 208.837 Q523.409 206.638 523.409 202.842 L523.409 188.143 L527.668 188.143 L527.668 214.069 L523.409 214.069 L523.409 210.087 Q521.858 212.448 519.798 213.606 Q517.761 214.74 515.053 214.74 Q510.585 214.74 508.27 211.962 Q505.956 209.184 505.956 203.837 M516.673 187.518 L516.673 187.518 Z" fill="#000000" fill-rule="nonzero" fill-opacity="1" /><path clip-path="url(#clip920)" d="M536.048 178.05 L545.863 178.05 L545.863 181.36 L540.307 181.36 L540.307 217.008 L545.863 217.008 L545.863 220.319 L536.048 220.319 L536.048 178.05 Z" fill="#000000" fill-rule="nonzero" fill-opacity="1" /><path clip-path="url(#clip920)" d="M556.349 210.133 L563.988 210.133 L563.988 183.768 L555.678 185.435 L555.678 181.175 L563.941 179.509 L568.617 179.509 L568.617 210.133 L576.256 210.133 L576.256 214.069 L556.349 214.069 L556.349 210.133 Z" fill="#000000" fill-rule="nonzero" fill-opacity="1" /><path clip-path="url(#clip920)" d="M595.052 178.05 L595.052 220.319 L585.238 220.319 L585.238 217.008 L590.77 217.008 L590.77 181.36 L585.238 181.36 L585.238 178.05 L595.052 178.05 Z" fill="#000000" fill-rule="nonzero" fill-opacity="1" /></svg>
