<?xml version="1.0" encoding="utf-8"?>
<svg xmlns="http://www.w3.org/2000/svg" xmlns:xlink="http://www.w3.org/1999/xlink" width="600" height="400" viewBox="0 0 2400 1600">
<defs>
  <clipPath id="clip950">
    <rect x="0" y="0" width="2400" height="1600"/>
  </clipPath>
</defs>
<path clip-path="url(#clip950)" d="M0 1600 L2400 1600 L2400 0 L0 0  Z" fill="#ffffff" fill-rule="evenodd" fill-opacity="1"/>
<defs>
  <clipPath id="clip951">
    <rect x="156" y="47" width="2197" height="1377"/>
  </clipPath>
</defs>
<path clip-path="url(#clip950)" d="M156.598 1423.18 L2352.76 1423.18 L2352.76 47.2441 L156.598 47.2441  Z" fill="#ffffff" fill-rule="evenodd" fill-opacity="1"/>
<polyline clip-path="url(#clip951)" style="stroke:#000000; stroke-linecap:round; stroke-linejoin:round; stroke-width:2; stroke-opacity:0.1; fill:none" points="156.598,1423.18 156.598,47.2441 "/>
<polyline clip-path="url(#clip951)" style="stroke:#000000; stroke-linecap:round; stroke-linejoin:round; stroke-width:2; stroke-opacity:0.1; fill:none" points="595.83,1423.18 595.83,47.2441 "/>
<polyline clip-path="url(#clip951)" style="stroke:#000000; stroke-linecap:round; stroke-linejoin:round; stroke-width:2; stroke-opacity:0.1; fill:none" points="1035.06,1423.18 1035.06,47.2441 "/>
<polyline clip-path="url(#clip951)" style="stroke:#000000; stroke-linecap:round; stroke-linejoin:round; stroke-width:2; stroke-opacity:0.1; fill:none" points="1474.29,1423.18 1474.29,47.2441 "/>
<polyline clip-path="url(#clip951)" style="stroke:#000000; stroke-linecap:round; stroke-linejoin:round; stroke-width:2; stroke-opacity:0.1; fill:none" points="1913.52,1423.18 1913.52,47.2441 "/>
<polyline clip-path="url(#clip951)" style="stroke:#000000; stroke-linecap:round; stroke-linejoin:round; stroke-width:2; stroke-opacity:0.1; fill:none" points="2352.76,1423.18 2352.76,47.2441 "/>
<polyline clip-path="url(#clip951)" style="stroke:#000000; stroke-linecap:round; stroke-linejoin:round; stroke-width:2; stroke-opacity:0.1; fill:none" points="156.598,1415.61 2352.76,1415.61 "/>
<polyline clip-path="url(#clip951)" style="stroke:#000000; stroke-linecap:round; stroke-linejoin:round; stroke-width:2; stroke-opacity:0.1; fill:none" points="156.598,1025.01 2352.76,1025.01 "/>
<polyline clip-path="url(#clip951)" style="stroke:#000000; stroke-linecap:round; stroke-linejoin:round; stroke-width:2; stroke-opacity:0.1; fill:none" points="156.598,634.411 2352.76,634.411 "/>
<polyline clip-path="url(#clip951)" style="stroke:#000000; stroke-linecap:round; stroke-linejoin:round; stroke-width:2; stroke-opacity:0.1; fill:none" points="156.598,243.812 2352.76,243.812 "/>
<polyline clip-path="url(#clip950)" style="stroke:#000000; stroke-linecap:round; stroke-linejoin:round; stroke-width:4; stroke-opacity:1; fill:none" points="156.598,1423.18 2352.76,1423.18 "/>
<polyline clip-path="url(#clip950)" style="stroke:#000000; stroke-linecap:round; stroke-linejoin:round; stroke-width:4; stroke-opacity:1; fill:none" points="156.598,1423.18 156.598,1404.28 "/>
<polyline clip-path="url(#clip950)" style="stroke:#000000; stroke-linecap:round; stroke-linejoin:round; stroke-width:4; stroke-opacity:1; fill:none" points="595.83,1423.18 595.83,1404.28 "/>
<polyline clip-path="url(#clip950)" style="stroke:#000000; stroke-linecap:round; stroke-linejoin:round; stroke-width:4; stroke-opacity:1; fill:none" points="1035.06,1423.18 1035.06,1404.28 "/>
<polyline clip-path="url(#clip950)" style="stroke:#000000; stroke-linecap:round; stroke-linejoin:round; stroke-width:4; stroke-opacity:1; fill:none" points="1474.29,1423.18 1474.29,1404.28 "/>
<polyline clip-path="url(#clip950)" style="stroke:#000000; stroke-linecap:round; stroke-linejoin:round; stroke-width:4; stroke-opacity:1; fill:none" points="1913.52,1423.18 1913.52,1404.28 "/>
<polyline clip-path="url(#clip950)" style="stroke:#000000; stroke-linecap:round; stroke-linejoin:round; stroke-width:4; stroke-opacity:1; fill:none" points="2352.76,1423.18 2352.76,1404.28 "/>
<path clip-path="url(#clip950)" d="M133.983 1454.1 Q130.372 1454.1 128.543 1457.66 Q126.737 1461.2 126.737 1468.33 Q126.737 1475.44 128.543 1479.01 Q130.372 1482.55 133.983 1482.55 Q137.617 1482.55 139.422 1479.01 Q141.251 1475.44 141.251 1468.33 Q141.251 1461.2 139.422 1457.66 Q137.617 1454.1 133.983 1454.1 M133.983 1450.39 Q139.793 1450.39 142.848 1455 Q145.927 1459.58 145.927 1468.33 Q145.927 1477.06 142.848 1481.67 Q139.793 1486.25 133.983 1486.25 Q128.172 1486.25 125.094 1481.67 Q122.038 1477.06 122.038 1468.33 Q122.038 1459.58 125.094 1455 Q128.172 1450.39 133.983 1450.39 Z" fill="#000000" fill-rule="nonzero" fill-opacity="1" /><path clip-path="url(#clip950)" d="M154.145 1479.7 L159.029 1479.7 L159.029 1485.58 L154.145 1485.58 L154.145 1479.7 Z" fill="#000000" fill-rule="nonzero" fill-opacity="1" /><path clip-path="url(#clip950)" d="M179.214 1454.1 Q175.603 1454.1 173.774 1457.66 Q171.969 1461.2 171.969 1468.33 Q171.969 1475.44 173.774 1479.01 Q175.603 1482.55 179.214 1482.55 Q182.848 1482.55 184.654 1479.01 Q186.482 1475.44 186.482 1468.33 Q186.482 1461.2 184.654 1457.66 Q182.848 1454.1 179.214 1454.1 M179.214 1450.39 Q185.024 1450.39 188.08 1455 Q191.158 1459.58 191.158 1468.33 Q191.158 1477.06 188.08 1481.67 Q185.024 1486.25 179.214 1486.25 Q173.404 1486.25 170.325 1481.67 Q167.269 1477.06 167.269 1468.33 Q167.269 1459.58 170.325 1455 Q173.404 1450.39 179.214 1450.39 Z" fill="#000000" fill-rule="nonzero" fill-opacity="1" /><path clip-path="url(#clip950)" d="M574.013 1454.1 Q570.402 1454.1 568.573 1457.66 Q566.767 1461.2 566.767 1468.33 Q566.767 1475.44 568.573 1479.01 Q570.402 1482.55 574.013 1482.55 Q577.647 1482.55 579.453 1479.01 Q581.281 1475.44 581.281 1468.33 Q581.281 1461.2 579.453 1457.66 Q577.647 1454.1 574.013 1454.1 M574.013 1450.39 Q579.823 1450.39 582.878 1455 Q585.957 1459.58 585.957 1468.33 Q585.957 1477.06 582.878 1481.67 Q579.823 1486.25 574.013 1486.25 Q568.203 1486.25 565.124 1481.67 Q562.068 1477.06 562.068 1468.33 Q562.068 1459.58 565.124 1455 Q568.203 1450.39 574.013 1450.39 Z" fill="#000000" fill-rule="nonzero" fill-opacity="1" /><path clip-path="url(#clip950)" d="M594.175 1479.7 L599.059 1479.7 L599.059 1485.58 L594.175 1485.58 L594.175 1479.7 Z" fill="#000000" fill-rule="nonzero" fill-opacity="1" /><path clip-path="url(#clip950)" d="M613.272 1481.64 L629.591 1481.64 L629.591 1485.58 L607.647 1485.58 L607.647 1481.64 Q610.309 1478.89 614.892 1474.26 Q619.499 1469.61 620.679 1468.27 Q622.925 1465.74 623.804 1464.01 Q624.707 1462.25 624.707 1460.56 Q624.707 1457.8 622.762 1456.07 Q620.841 1454.33 617.739 1454.33 Q615.54 1454.33 613.087 1455.09 Q610.656 1455.86 607.878 1457.41 L607.878 1452.69 Q610.702 1451.55 613.156 1450.97 Q615.61 1450.39 617.647 1450.39 Q623.017 1450.39 626.212 1453.08 Q629.406 1455.77 629.406 1460.26 Q629.406 1462.39 628.596 1464.31 Q627.809 1466.2 625.702 1468.8 Q625.124 1469.47 622.022 1472.69 Q618.92 1475.88 613.272 1481.64 Z" fill="#000000" fill-rule="nonzero" fill-opacity="1" /><path clip-path="url(#clip950)" d="M1012.2 1454.1 Q1008.59 1454.1 1006.76 1457.66 Q1004.96 1461.2 1004.96 1468.33 Q1004.96 1475.44 1006.76 1479.01 Q1008.59 1482.55 1012.2 1482.55 Q1015.84 1482.55 1017.64 1479.01 Q1019.47 1475.44 1019.47 1468.33 Q1019.47 1461.2 1017.64 1457.66 Q1015.84 1454.1 1012.2 1454.1 M1012.2 1450.39 Q1018.01 1450.39 1021.07 1455 Q1024.15 1459.58 1024.15 1468.33 Q1024.15 1477.06 1021.07 1481.67 Q1018.01 1486.25 1012.2 1486.25 Q1006.39 1486.25 1003.31 1481.67 Q1000.26 1477.06 1000.26 1468.33 Q1000.26 1459.58 1003.31 1455 Q1006.39 1450.39 1012.2 1450.39 Z" fill="#000000" fill-rule="nonzero" fill-opacity="1" /><path clip-path="url(#clip950)" d="M1032.36 1479.7 L1037.25 1479.7 L1037.25 1485.58 L1032.36 1485.58 L1032.36 1479.7 Z" fill="#000000" fill-rule="nonzero" fill-opacity="1" /><path clip-path="url(#clip950)" d="M1060.28 1455.09 L1048.48 1473.54 L1060.28 1473.54 L1060.28 1455.09 M1059.05 1451.02 L1064.93 1451.02 L1064.93 1473.54 L1069.86 1473.54 L1069.86 1477.43 L1064.93 1477.43 L1064.93 1485.58 L1060.28 1485.58 L1060.28 1477.43 L1044.68 1477.43 L1044.68 1472.92 L1059.05 1451.02 Z" fill="#000000" fill-rule="nonzero" fill-opacity="1" /><path clip-path="url(#clip950)" d="M1451.6 1454.1 Q1447.99 1454.1 1446.16 1457.66 Q1444.35 1461.2 1444.35 1468.33 Q1444.35 1475.44 1446.16 1479.01 Q1447.99 1482.55 1451.6 1482.55 Q1455.23 1482.55 1457.04 1479.01 Q1458.86 1475.44 1458.86 1468.33 Q1458.86 1461.2 1457.04 1457.66 Q1455.23 1454.1 1451.6 1454.1 M1451.6 1450.39 Q1457.41 1450.39 1460.46 1455 Q1463.54 1459.58 1463.54 1468.33 Q1463.54 1477.06 1460.46 1481.67 Q1457.41 1486.25 1451.6 1486.25 Q1445.79 1486.25 1442.71 1481.67 Q1439.65 1477.06 1439.65 1468.33 Q1439.65 1459.58 1442.71 1455 Q1445.79 1450.39 1451.6 1450.39 Z" fill="#000000" fill-rule="nonzero" fill-opacity="1" /><path clip-path="url(#clip950)" d="M1471.76 1479.7 L1476.64 1479.7 L1476.64 1485.58 L1471.76 1485.58 L1471.76 1479.7 Z" fill="#000000" fill-rule="nonzero" fill-opacity="1" /><path clip-path="url(#clip950)" d="M1497.41 1466.44 Q1494.26 1466.44 1492.41 1468.59 Q1490.58 1470.74 1490.58 1474.49 Q1490.58 1478.22 1492.41 1480.39 Q1494.26 1482.55 1497.41 1482.55 Q1500.55 1482.55 1502.38 1480.39 Q1504.23 1478.22 1504.23 1474.49 Q1504.23 1470.74 1502.38 1468.59 Q1500.55 1466.44 1497.41 1466.44 M1506.69 1451.78 L1506.69 1456.04 Q1504.93 1455.21 1503.12 1454.77 Q1501.34 1454.33 1499.58 1454.33 Q1494.95 1454.33 1492.5 1457.45 Q1490.07 1460.58 1489.72 1466.9 Q1491.09 1464.89 1493.15 1463.82 Q1495.21 1462.73 1497.68 1462.73 Q1502.89 1462.73 1505.9 1465.9 Q1508.93 1469.05 1508.93 1474.49 Q1508.93 1479.82 1505.79 1483.03 Q1502.64 1486.25 1497.41 1486.25 Q1491.41 1486.25 1488.24 1481.67 Q1485.07 1477.06 1485.07 1468.33 Q1485.07 1460.14 1488.96 1455.28 Q1492.85 1450.39 1499.4 1450.39 Q1501.16 1450.39 1502.94 1450.74 Q1504.74 1451.09 1506.69 1451.78 Z" fill="#000000" fill-rule="nonzero" fill-opacity="1" /><path clip-path="url(#clip950)" d="M1890.96 1454.1 Q1887.34 1454.1 1885.52 1457.66 Q1883.71 1461.2 1883.71 1468.33 Q1883.71 1475.44 1885.52 1479.01 Q1887.34 1482.55 1890.96 1482.55 Q1894.59 1482.55 1896.39 1479.01 Q1898.22 1475.44 1898.22 1468.33 Q1898.22 1461.2 1896.39 1457.66 Q1894.59 1454.1 1890.96 1454.1 M1890.96 1450.39 Q1896.77 1450.39 1899.82 1455 Q1902.9 1459.58 1902.9 1468.33 Q1902.9 1477.06 1899.82 1481.67 Q1896.77 1486.25 1890.96 1486.25 Q1885.14 1486.25 1882.07 1481.67 Q1879.01 1477.06 1879.01 1468.33 Q1879.01 1459.58 1882.07 1455 Q1885.14 1450.39 1890.96 1450.39 Z" fill="#000000" fill-rule="nonzero" fill-opacity="1" /><path clip-path="url(#clip950)" d="M1911.12 1479.7 L1916 1479.7 L1916 1485.58 L1911.12 1485.58 L1911.12 1479.7 Z" fill="#000000" fill-rule="nonzero" fill-opacity="1" /><path clip-path="url(#clip950)" d="M1936.19 1469.17 Q1932.85 1469.17 1930.93 1470.95 Q1929.03 1472.73 1929.03 1475.86 Q1929.03 1478.98 1930.93 1480.77 Q1932.85 1482.55 1936.19 1482.55 Q1939.52 1482.55 1941.44 1480.77 Q1943.36 1478.96 1943.36 1475.86 Q1943.36 1472.73 1941.44 1470.95 Q1939.54 1469.17 1936.19 1469.17 M1931.51 1467.18 Q1928.5 1466.44 1926.81 1464.38 Q1925.14 1462.32 1925.14 1459.35 Q1925.14 1455.21 1928.08 1452.8 Q1931.05 1450.39 1936.19 1450.39 Q1941.35 1450.39 1944.29 1452.8 Q1947.23 1455.21 1947.23 1459.35 Q1947.23 1462.32 1945.54 1464.38 Q1943.87 1466.44 1940.89 1467.18 Q1944.26 1467.96 1946.14 1470.26 Q1948.04 1472.55 1948.04 1475.86 Q1948.04 1480.88 1944.96 1483.57 Q1941.9 1486.25 1936.19 1486.25 Q1930.47 1486.25 1927.39 1483.57 Q1924.33 1480.88 1924.33 1475.86 Q1924.33 1472.55 1926.23 1470.26 Q1928.13 1467.96 1931.51 1467.18 M1929.8 1459.79 Q1929.8 1462.48 1931.46 1463.98 Q1933.15 1465.49 1936.19 1465.49 Q1939.2 1465.49 1940.89 1463.98 Q1942.6 1462.48 1942.6 1459.79 Q1942.6 1457.11 1940.89 1455.6 Q1939.2 1454.1 1936.19 1454.1 Q1933.15 1454.1 1931.46 1455.6 Q1929.8 1457.11 1929.8 1459.79 Z" fill="#000000" fill-rule="nonzero" fill-opacity="1" /><path clip-path="url(#clip950)" d="M2319.91 1481.64 L2327.55 1481.64 L2327.55 1455.28 L2319.24 1456.95 L2319.24 1452.69 L2327.5 1451.02 L2332.18 1451.02 L2332.18 1481.64 L2339.82 1481.64 L2339.82 1485.58 L2319.91 1485.58 L2319.91 1481.64 Z" fill="#000000" fill-rule="nonzero" fill-opacity="1" /><path clip-path="url(#clip950)" d="M2349.26 1479.7 L2354.14 1479.7 L2354.14 1485.58 L2349.26 1485.58 L2349.26 1479.7 Z" fill="#000000" fill-rule="nonzero" fill-opacity="1" /><path clip-path="url(#clip950)" d="M2374.33 1454.1 Q2370.72 1454.1 2368.89 1457.66 Q2367.08 1461.2 2367.08 1468.33 Q2367.08 1475.44 2368.89 1479.01 Q2370.72 1482.55 2374.33 1482.55 Q2377.96 1482.55 2379.77 1479.01 Q2381.6 1475.44 2381.6 1468.33 Q2381.6 1461.2 2379.77 1457.66 Q2377.96 1454.1 2374.33 1454.1 M2374.33 1450.39 Q2380.14 1450.39 2383.2 1455 Q2386.27 1459.58 2386.27 1468.33 Q2386.27 1477.06 2383.2 1481.67 Q2380.14 1486.25 2374.33 1486.25 Q2368.52 1486.25 2365.44 1481.67 Q2362.39 1477.06 2362.39 1468.33 Q2362.39 1459.58 2365.44 1455 Q2368.52 1450.39 2374.33 1450.39 Z" fill="#000000" fill-rule="nonzero" fill-opacity="1" /><path clip-path="url(#clip950)" d="M1253.74 1522.27 L1253.74 1532.4 L1265.8 1532.4 L1265.8 1536.95 L1253.74 1536.95 L1253.74 1556.3 Q1253.74 1560.66 1254.92 1561.9 Q1256.13 1563.14 1259.79 1563.14 L1265.8 1563.14 L1265.8 1568.04 L1259.79 1568.04 Q1253.01 1568.04 1250.43 1565.53 Q1247.85 1562.98 1247.85 1556.3 L1247.85 1536.95 L1243.55 1536.95 L1243.55 1532.4 L1247.85 1532.4 L1247.85 1522.27 L1253.74 1522.27 Z" fill="#000000" fill-rule="nonzero" fill-opacity="1" /><polyline clip-path="url(#clip950)" style="stroke:#000000; stroke-linecap:round; stroke-linejoin:round; stroke-width:4; stroke-opacity:1; fill:none" points="156.598,1423.18 156.598,47.2441 "/>
<polyline clip-path="url(#clip950)" style="stroke:#000000; stroke-linecap:round; stroke-linejoin:round; stroke-width:4; stroke-opacity:1; fill:none" points="156.598,1415.61 175.496,1415.61 "/>
<polyline clip-path="url(#clip950)" style="stroke:#000000; stroke-linecap:round; stroke-linejoin:round; stroke-width:4; stroke-opacity:1; fill:none" points="156.598,1025.01 175.496,1025.01 "/>
<polyline clip-path="url(#clip950)" style="stroke:#000000; stroke-linecap:round; stroke-linejoin:round; stroke-width:4; stroke-opacity:1; fill:none" points="156.598,634.411 175.496,634.411 "/>
<polyline clip-path="url(#clip950)" style="stroke:#000000; stroke-linecap:round; stroke-linejoin:round; stroke-width:4; stroke-opacity:1; fill:none" points="156.598,243.812 175.496,243.812 "/>
<path clip-path="url(#clip950)" d="M64.0708 1401.41 Q60.4597 1401.41 58.631 1404.97 Q56.8254 1408.51 56.8254 1415.64 Q56.8254 1422.75 58.631 1426.32 Q60.4597 1429.86 64.0708 1429.86 Q67.705 1429.86 69.5105 1426.32 Q71.3392 1422.75 71.3392 1415.64 Q71.3392 1408.51 69.5105 1404.97 Q67.705 1401.41 64.0708 1401.41 M64.0708 1397.7 Q69.8809 1397.7 72.9365 1402.31 Q76.0151 1406.89 76.0151 1415.64 Q76.0151 1424.37 72.9365 1428.98 Q69.8809 1433.56 64.0708 1433.56 Q58.2606 1433.56 55.1819 1428.98 Q52.1264 1424.37 52.1264 1415.64 Q52.1264 1406.89 55.1819 1402.31 Q58.2606 1397.7 64.0708 1397.7 Z" fill="#000000" fill-rule="nonzero" fill-opacity="1" /><path clip-path="url(#clip950)" d="M84.2327 1427.01 L89.1169 1427.01 L89.1169 1432.89 L84.2327 1432.89 L84.2327 1427.01 Z" fill="#000000" fill-rule="nonzero" fill-opacity="1" /><path clip-path="url(#clip950)" d="M113.469 1414.26 Q116.825 1414.97 118.7 1417.24 Q120.598 1419.51 120.598 1422.84 Q120.598 1427.96 117.08 1430.76 Q113.561 1433.56 107.08 1433.56 Q104.904 1433.56 102.589 1433.12 Q100.297 1432.7 97.8437 1431.85 L97.8437 1427.33 Q99.7882 1428.47 102.103 1429.05 Q104.418 1429.63 106.941 1429.63 Q111.339 1429.63 113.631 1427.89 Q115.945 1426.15 115.945 1422.84 Q115.945 1419.79 113.793 1418.07 Q111.663 1416.34 107.844 1416.34 L103.816 1416.34 L103.816 1412.5 L108.029 1412.5 Q111.478 1412.5 113.307 1411.13 Q115.135 1409.74 115.135 1407.15 Q115.135 1404.49 113.237 1403.07 Q111.362 1401.64 107.844 1401.64 Q105.922 1401.64 103.723 1402.06 Q101.524 1402.47 98.8854 1403.35 L98.8854 1399.19 Q101.547 1398.45 103.862 1398.07 Q106.2 1397.7 108.26 1397.7 Q113.584 1397.7 116.686 1400.13 Q119.788 1402.54 119.788 1406.66 Q119.788 1409.53 118.145 1411.52 Q116.501 1413.49 113.469 1414.26 Z" fill="#000000" fill-rule="nonzero" fill-opacity="1" /><path clip-path="url(#clip950)" d="M62.9365 1010.81 Q59.3254 1010.81 57.4967 1014.37 Q55.6912 1017.92 55.6912 1025.04 Q55.6912 1032.15 57.4967 1035.72 Q59.3254 1039.26 62.9365 1039.26 Q66.5707 1039.26 68.3763 1035.72 Q70.205 1032.15 70.205 1025.04 Q70.205 1017.92 68.3763 1014.37 Q66.5707 1010.81 62.9365 1010.81 M62.9365 1007.11 Q68.7467 1007.11 71.8022 1011.71 Q74.8809 1016.3 74.8809 1025.04 Q74.8809 1033.77 71.8022 1038.38 Q68.7467 1042.96 62.9365 1042.96 Q57.1264 1042.96 54.0477 1038.38 Q50.9921 1033.77 50.9921 1025.04 Q50.9921 1016.3 54.0477 1011.71 Q57.1264 1007.11 62.9365 1007.11 Z" fill="#000000" fill-rule="nonzero" fill-opacity="1" /><path clip-path="url(#clip950)" d="M83.0984 1036.41 L87.9827 1036.41 L87.9827 1042.29 L83.0984 1042.29 L83.0984 1036.41 Z" fill="#000000" fill-rule="nonzero" fill-opacity="1" /><path clip-path="url(#clip950)" d="M111.015 1011.8 L99.2095 1030.25 L111.015 1030.25 L111.015 1011.8 M109.788 1007.73 L115.668 1007.73 L115.668 1030.25 L120.598 1030.25 L120.598 1034.14 L115.668 1034.14 L115.668 1042.29 L111.015 1042.29 L111.015 1034.14 L95.4132 1034.14 L95.4132 1029.63 L109.788 1007.73 Z" fill="#000000" fill-rule="nonzero" fill-opacity="1" /><path clip-path="url(#clip950)" d="M64.418 620.21 Q60.8069 620.21 58.9782 623.775 Q57.1726 627.316 57.1726 634.446 Q57.1726 641.552 58.9782 645.117 Q60.8069 648.659 64.418 648.659 Q68.0522 648.659 69.8578 645.117 Q71.6865 641.552 71.6865 634.446 Q71.6865 627.316 69.8578 623.775 Q68.0522 620.21 64.418 620.21 M64.418 616.506 Q70.2281 616.506 73.2837 621.113 Q76.3624 625.696 76.3624 634.446 Q76.3624 643.173 73.2837 647.779 Q70.2281 652.362 64.418 652.362 Q58.6078 652.362 55.5291 647.779 Q52.4736 643.173 52.4736 634.446 Q52.4736 625.696 55.5291 621.113 Q58.6078 616.506 64.418 616.506 Z" fill="#000000" fill-rule="nonzero" fill-opacity="1" /><path clip-path="url(#clip950)" d="M84.5799 645.812 L89.4641 645.812 L89.4641 651.691 L84.5799 651.691 L84.5799 645.812 Z" fill="#000000" fill-rule="nonzero" fill-opacity="1" /><path clip-path="url(#clip950)" d="M99.6956 617.131 L118.052 617.131 L118.052 621.066 L103.978 621.066 L103.978 629.538 Q104.996 629.191 106.015 629.029 Q107.033 628.844 108.052 628.844 Q113.839 628.844 117.219 632.015 Q120.598 635.187 120.598 640.603 Q120.598 646.182 117.126 649.284 Q113.654 652.362 107.334 652.362 Q105.159 652.362 102.89 651.992 Q100.645 651.622 98.2372 650.881 L98.2372 646.182 Q100.321 647.316 102.543 647.872 Q104.765 648.427 107.242 648.427 Q111.246 648.427 113.584 646.321 Q115.922 644.214 115.922 640.603 Q115.922 636.992 113.584 634.886 Q111.246 632.779 107.242 632.779 Q105.367 632.779 103.492 633.196 Q101.64 633.613 99.6956 634.492 L99.6956 617.131 Z" fill="#000000" fill-rule="nonzero" fill-opacity="1" /><path clip-path="url(#clip950)" d="M63.2606 229.611 Q59.6495 229.611 57.8208 233.175 Q56.0152 236.717 56.0152 243.847 Q56.0152 250.953 57.8208 254.518 Q59.6495 258.06 63.2606 258.06 Q66.8948 258.06 68.7004 254.518 Q70.5291 250.953 70.5291 243.847 Q70.5291 236.717 68.7004 233.175 Q66.8948 229.611 63.2606 229.611 M63.2606 225.907 Q69.0707 225.907 72.1263 230.513 Q75.205 235.097 75.205 243.847 Q75.205 252.574 72.1263 257.18 Q69.0707 261.763 63.2606 261.763 Q57.4504 261.763 54.3717 257.18 Q51.3162 252.574 51.3162 243.847 Q51.3162 235.097 54.3717 230.513 Q57.4504 225.907 63.2606 225.907 Z" fill="#000000" fill-rule="nonzero" fill-opacity="1" /><path clip-path="url(#clip950)" d="M83.4225 255.212 L88.3067 255.212 L88.3067 261.092 L83.4225 261.092 L83.4225 255.212 Z" fill="#000000" fill-rule="nonzero" fill-opacity="1" /><path clip-path="url(#clip950)" d="M109.071 241.949 Q105.922 241.949 104.071 244.101 Q102.242 246.254 102.242 250.004 Q102.242 253.731 104.071 255.907 Q105.922 258.06 109.071 258.06 Q112.219 258.06 114.047 255.907 Q115.899 253.731 115.899 250.004 Q115.899 246.254 114.047 244.101 Q112.219 241.949 109.071 241.949 M118.353 227.296 L118.353 231.555 Q116.594 230.722 114.788 230.282 Q113.006 229.842 111.246 229.842 Q106.617 229.842 104.163 232.967 Q101.733 236.092 101.385 242.412 Q102.751 240.398 104.811 239.333 Q106.871 238.245 109.348 238.245 Q114.557 238.245 117.566 241.416 Q120.598 244.564 120.598 250.004 Q120.598 255.328 117.45 258.546 Q114.302 261.763 109.071 261.763 Q103.075 261.763 99.9039 257.18 Q96.7326 252.574 96.7326 243.847 Q96.7326 235.652 100.621 230.791 Q104.51 225.907 111.061 225.907 Q112.82 225.907 114.603 226.254 Q116.408 226.601 118.353 227.296 Z" fill="#000000" fill-rule="nonzero" fill-opacity="1" /><polyline clip-path="url(#clip951)" style="stroke:#009af9; stroke-linecap:round; stroke-linejoin:round; stroke-width:4; stroke-opacity:1; fill:none" points="156.598,634.411 293.858,908.013 431.118,886.778 568.378,837.495 705.638,517.254 842.898,1384.24 980.157,1158.48 1117.42,413.426 1254.68,864.259 1391.94,116.207 1529.2,589.58 1666.46,655.883 1803.72,744.331 1940.98,752.377 2078.24,360.406 2215.5,702.301 2352.76,1097.47 "/>
<polyline clip-path="url(#clip951)" style="stroke:#e26f46; stroke-linecap:round; stroke-linejoin:round; stroke-width:4; stroke-opacity:1; fill:none" points="156.598,634.411 293.858,912.836 431.118,894.444 568.378,847.926 705.638,529.354 842.898,1371.52 980.157,1143.15 1117.42,385.394 1254.68,846.397 1391.94,86.1857 1529.2,570.74 1666.46,641.827 1803.72,735.113 1940.98,746.568 2078.24,352.511 2215.5,701.057 2352.76,1100.16 "/>
<path clip-path="url(#clip950)" d="M229.803 248.629 L658.446 248.629 L658.446 93.1086 L229.803 93.1086  Z" fill="#ffffff" fill-rule="evenodd" fill-opacity="1"/>
<polyline clip-path="url(#clip950)" style="stroke:#000000; stroke-linecap:round; stroke-linejoin:round; stroke-width:4; stroke-opacity:1; fill:none" points="229.803,248.629 658.446,248.629 658.446,93.1086 229.803,93.1086 229.803,248.629 "/>
<polyline clip-path="url(#clip950)" style="stroke:#009af9; stroke-linecap:round; stroke-linejoin:round; stroke-width:4; stroke-opacity:1; fill:none" points="254.205,144.949 400.616,144.949 "/>
<path clip-path="url(#clip950)" d="M425.018 151.997 L425.018 136.303 L429.277 136.303 L429.277 151.835 Q429.277 155.516 430.712 157.368 Q432.147 159.196 435.017 159.196 Q438.467 159.196 440.457 156.997 Q442.471 154.798 442.471 151.002 L442.471 136.303 L446.73 136.303 L446.73 162.229 L442.471 162.229 L442.471 158.247 Q440.92 160.608 438.86 161.766 Q436.823 162.9 434.115 162.9 Q429.647 162.9 427.332 160.122 Q425.018 157.344 425.018 151.997 M435.735 135.678 L435.735 135.678 Z" fill="#000000" fill-rule="nonzero" fill-opacity="1" /><path clip-path="url(#clip950)" d="M455.11 126.21 L464.925 126.21 L464.925 129.52 L459.369 129.52 L459.369 165.168 L464.925 165.168 L464.925 168.479 L455.11 168.479 L455.11 126.21 Z" fill="#000000" fill-rule="nonzero" fill-opacity="1" /><path clip-path="url(#clip950)" d="M475.411 158.293 L483.05 158.293 L483.05 131.928 L474.739 133.595 L474.739 129.335 L483.003 127.669 L487.679 127.669 L487.679 158.293 L495.318 158.293 L495.318 162.229 L475.411 162.229 L475.411 158.293 Z" fill="#000000" fill-rule="nonzero" fill-opacity="1" /><path clip-path="url(#clip950)" d="M514.114 126.21 L514.114 168.479 L504.299 168.479 L504.299 165.168 L509.832 165.168 L509.832 129.52 L504.299 129.52 L504.299 126.21 L514.114 126.21 Z" fill="#000000" fill-rule="nonzero" fill-opacity="1" /><polyline clip-path="url(#clip950)" style="stroke:#e26f46; stroke-linecap:round; stroke-linejoin:round; stroke-width:4; stroke-opacity:1; fill:none" points="254.205,196.789 400.616,196.789 "/>
<path clip-path="url(#clip950)" d="M425.018 179.509 L454.253 179.509 L454.253 183.444 L441.985 183.444 L441.985 214.069 L437.286 214.069 L437.286 183.444 L425.018 183.444 L425.018 179.509 Z" fill="#000000" fill-rule="nonzero" fill-opacity="1" /><path clip-path="url(#clip950)" d="M466.638 192.124 Q465.92 191.708 465.064 191.522 Q464.23 191.314 463.212 191.314 Q459.601 191.314 457.656 193.675 Q455.735 196.013 455.735 200.411 L455.735 214.069 L451.453 214.069 L451.453 188.143 L455.735 188.143 L455.735 192.171 Q457.078 189.809 459.23 188.675 Q461.383 187.518 464.462 187.518 Q464.902 187.518 465.434 187.587 Q465.966 187.634 466.615 187.749 L466.638 192.124 Z" fill="#000000" fill-rule="nonzero" fill-opacity="1" /><path clip-path="url(#clip950)" d="M470.665 203.837 L470.665 188.143 L474.925 188.143 L474.925 203.675 Q474.925 207.356 476.36 209.208 Q477.795 211.036 480.665 211.036 Q484.114 211.036 486.105 208.837 Q488.119 206.638 488.119 202.842 L488.119 188.143 L492.378 188.143 L492.378 214.069 L488.119 214.069 L488.119 210.087 Q486.568 212.448 484.508 213.606 Q482.471 214.74 479.763 214.74 Q475.295 214.74 472.98 211.962 Q470.665 209.184 470.665 203.837 M481.383 187.518 L481.383 187.518 Z" fill="#000000" fill-rule="nonzero" fill-opacity="1" /><path clip-path="url(#clip950)" d="M523.327 200.041 L523.327 202.124 L503.744 202.124 Q504.022 206.522 506.383 208.837 Q508.767 211.129 513.003 211.129 Q515.457 211.129 517.748 210.527 Q520.063 209.925 522.332 208.721 L522.332 212.749 Q520.04 213.721 517.633 214.231 Q515.225 214.74 512.749 214.74 Q506.545 214.74 502.911 211.129 Q499.3 207.518 499.3 201.36 Q499.3 194.995 502.725 191.268 Q506.174 187.518 512.008 187.518 Q517.239 187.518 520.272 190.897 Q523.327 194.254 523.327 200.041 M519.068 198.791 Q519.022 195.296 517.1 193.212 Q515.202 191.129 512.054 191.129 Q508.489 191.129 506.337 193.143 Q504.207 195.157 503.883 198.814 L519.068 198.791 Z" fill="#000000" fill-rule="nonzero" fill-opacity="1" /><path clip-path="url(#clip950)" d="M544.947 203.837 L544.947 188.143 L549.207 188.143 L549.207 203.675 Q549.207 207.356 550.642 209.208 Q552.077 211.036 554.947 211.036 Q558.396 211.036 560.387 208.837 Q562.401 206.638 562.401 202.842 L562.401 188.143 L566.66 188.143 L566.66 214.069 L562.401 214.069 L562.401 210.087 Q560.85 212.448 558.79 213.606 Q556.753 214.74 554.045 214.74 Q549.577 214.74 547.262 211.962 Q544.947 209.184 544.947 203.837 M555.665 187.518 L555.665 187.518 Z" fill="#000000" fill-rule="nonzero" fill-opacity="1" /><path clip-path="url(#clip950)" d="M575.04 178.05 L584.855 178.05 L584.855 181.36 L579.299 181.36 L579.299 217.008 L584.855 217.008 L584.855 220.319 L575.04 220.319 L575.04 178.05 Z" fill="#000000" fill-rule="nonzero" fill-opacity="1" /><path clip-path="url(#clip950)" d="M595.341 210.133 L602.98 210.133 L602.98 183.768 L594.669 185.435 L594.669 181.175 L602.933 179.509 L607.609 179.509 L607.609 210.133 L615.248 210.133 L615.248 214.069 L595.341 214.069 L595.341 210.133 Z" fill="#000000" fill-rule="nonzero" fill-opacity="1" /><path clip-path="url(#clip950)" d="M634.044 178.05 L634.044 220.319 L624.229 220.319 L624.229 217.008 L629.762 217.008 L629.762 181.36 L624.229 181.36 L624.229 178.05 L634.044 178.05 Z" fill="#000000" fill-rule="nonzero" fill-opacity="1" /></svg>
