<?xml version="1.0" encoding="utf-8"?>
<svg xmlns="http://www.w3.org/2000/svg" xmlns:xlink="http://www.w3.org/1999/xlink" width="600" height="400" viewBox="0 0 2400 1600">
<defs>
  <clipPath id="clip100">
    <rect x="0" y="0" width="2400" height="1600"/>
  </clipPath>
</defs>
<path clip-path="url(#clip100)" d="M0 1600 L2400 1600 L2400 0 L0 0  Z" fill="#ffffff" fill-rule="evenodd" fill-opacity="1"/>
<defs>
  <clipPath id="clip101">
    <rect x="156" y="47" width="2197" height="1377"/>
  </clipPath>
</defs>
<path clip-path="url(#clip100)" d="M156.274 1423.18 L2352.76 1423.18 L2352.76 47.2441 L156.274 47.2441  Z" fill="#ffffff" fill-rule="evenodd" fill-opacity="1"/>
<polyline clip-path="url(#clip101)" style="stroke:#000000; stroke-linecap:round; stroke-linejoin:round; stroke-width:2; stroke-opacity:0.1; fill:none" points="156.274,1423.18 156.274,47.2441 "/>
<polyline clip-path="url(#clip101)" style="stroke:#000000; stroke-linecap:round; stroke-linejoin:round; stroke-width:2; stroke-opacity:0.1; fill:none" points="595.571,1423.18 595.571,47.2441 "/>
<polyline clip-path="url(#clip101)" style="stroke:#000000; stroke-linecap:round; stroke-linejoin:round; stroke-width:2; stroke-opacity:0.1; fill:none" points="1034.87,1423.18 1034.87,47.2441 "/>
<polyline clip-path="url(#clip101)" style="stroke:#000000; stroke-linecap:round; stroke-linejoin:round; stroke-width:2; stroke-opacity:0.1; fill:none" points="1474.16,1423.18 1474.16,47.2441 "/>
<polyline clip-path="url(#clip101)" style="stroke:#000000; stroke-linecap:round; stroke-linejoin:round; stroke-width:2; stroke-opacity:0.1; fill:none" points="1913.46,1423.18 1913.46,47.2441 "/>
<polyline clip-path="url(#clip101)" style="stroke:#000000; stroke-linecap:round; stroke-linejoin:round; stroke-width:2; stroke-opacity:0.1; fill:none" points="2352.76,1423.18 2352.76,47.2441 "/>
<polyline clip-path="url(#clip101)" style="stroke:#000000; stroke-linecap:round; stroke-linejoin:round; stroke-width:2; stroke-opacity:0.1; fill:none" points="156.274,1388.4 2352.76,1388.4 "/>
<polyline clip-path="url(#clip101)" style="stroke:#000000; stroke-linecap:round; stroke-linejoin:round; stroke-width:2; stroke-opacity:0.1; fill:none" points="156.274,1119.48 2352.76,1119.48 "/>
<polyline clip-path="url(#clip101)" style="stroke:#000000; stroke-linecap:round; stroke-linejoin:round; stroke-width:2; stroke-opacity:0.1; fill:none" points="156.274,850.549 2352.76,850.549 "/>
<polyline clip-path="url(#clip101)" style="stroke:#000000; stroke-linecap:round; stroke-linejoin:round; stroke-width:2; stroke-opacity:0.1; fill:none" points="156.274,581.622 2352.76,581.622 "/>
<polyline clip-path="url(#clip101)" style="stroke:#000000; stroke-linecap:round; stroke-linejoin:round; stroke-width:2; stroke-opacity:0.1; fill:none" points="156.274,312.695 2352.76,312.695 "/>
<polyline clip-path="url(#clip100)" style="stroke:#000000; stroke-linecap:round; stroke-linejoin:round; stroke-width:4; stroke-opacity:1; fill:none" points="156.274,1423.18 2352.76,1423.18 "/>
<polyline clip-path="url(#clip100)" style="stroke:#000000; stroke-linecap:round; stroke-linejoin:round; stroke-width:4; stroke-opacity:1; fill:none" points="156.274,1423.18 156.274,1404.28 "/>
<polyline clip-path="url(#clip100)" style="stroke:#000000; stroke-linecap:round; stroke-linejoin:round; stroke-width:4; stroke-opacity:1; fill:none" points="595.571,1423.18 595.571,1404.28 "/>
<polyline clip-path="url(#clip100)" style="stroke:#000000; stroke-linecap:round; stroke-linejoin:round; stroke-width:4; stroke-opacity:1; fill:none" points="1034.87,1423.18 1034.87,1404.28 "/>
<polyline clip-path="url(#clip100)" style="stroke:#000000; stroke-linecap:round; stroke-linejoin:round; stroke-width:4; stroke-opacity:1; fill:none" points="1474.16,1423.18 1474.16,1404.28 "/>
<polyline clip-path="url(#clip100)" style="stroke:#000000; stroke-linecap:round; stroke-linejoin:round; stroke-width:4; stroke-opacity:1; fill:none" points="1913.46,1423.18 1913.46,1404.28 "/>
<polyline clip-path="url(#clip100)" style="stroke:#000000; stroke-linecap:round; stroke-linejoin:round; stroke-width:4; stroke-opacity:1; fill:none" points="2352.76,1423.18 2352.76,1404.28 "/>
<path clip-path="url(#clip100)" d="M133.659 1454.1 Q130.047 1454.1 128.219 1457.66 Q126.413 1461.2 126.413 1468.33 Q126.413 1475.44 128.219 1479.01 Q130.047 1482.55 133.659 1482.55 Q137.293 1482.55 139.098 1479.01 Q140.927 1475.44 140.927 1468.33 Q140.927 1461.2 139.098 1457.66 Q137.293 1454.1 133.659 1454.1 M133.659 1450.39 Q139.469 1450.39 142.524 1455 Q145.603 1459.58 145.603 1468.33 Q145.603 1477.06 142.524 1481.67 Q139.469 1486.25 133.659 1486.25 Q127.848 1486.25 124.77 1481.67 Q121.714 1477.06 121.714 1468.33 Q121.714 1459.58 124.77 1455 Q127.848 1450.39 133.659 1450.39 Z" fill="#000000" fill-rule="nonzero" fill-opacity="1" /><path clip-path="url(#clip100)" d="M153.82 1479.7 L158.705 1479.7 L158.705 1485.58 L153.82 1485.58 L153.82 1479.7 Z" fill="#000000" fill-rule="nonzero" fill-opacity="1" /><path clip-path="url(#clip100)" d="M178.89 1454.1 Q175.279 1454.1 173.45 1457.66 Q171.644 1461.2 171.644 1468.33 Q171.644 1475.44 173.45 1479.01 Q175.279 1482.55 178.89 1482.55 Q182.524 1482.55 184.33 1479.01 Q186.158 1475.44 186.158 1468.33 Q186.158 1461.2 184.33 1457.66 Q182.524 1454.1 178.89 1454.1 M178.89 1450.39 Q184.7 1450.39 187.755 1455 Q190.834 1459.58 190.834 1468.33 Q190.834 1477.06 187.755 1481.67 Q184.7 1486.25 178.89 1486.25 Q173.08 1486.25 170.001 1481.67 Q166.945 1477.06 166.945 1468.33 Q166.945 1459.58 170.001 1455 Q173.08 1450.39 178.89 1450.39 Z" fill="#000000" fill-rule="nonzero" fill-opacity="1" /><path clip-path="url(#clip100)" d="M573.753 1454.1 Q570.142 1454.1 568.314 1457.66 Q566.508 1461.2 566.508 1468.33 Q566.508 1475.44 568.314 1479.01 Q570.142 1482.55 573.753 1482.55 Q577.388 1482.55 579.193 1479.01 Q581.022 1475.44 581.022 1468.33 Q581.022 1461.2 579.193 1457.66 Q577.388 1454.1 573.753 1454.1 M573.753 1450.39 Q579.564 1450.39 582.619 1455 Q585.698 1459.58 585.698 1468.33 Q585.698 1477.06 582.619 1481.67 Q579.564 1486.25 573.753 1486.25 Q567.943 1486.25 564.865 1481.67 Q561.809 1477.06 561.809 1468.33 Q561.809 1459.58 564.865 1455 Q567.943 1450.39 573.753 1450.39 Z" fill="#000000" fill-rule="nonzero" fill-opacity="1" /><path clip-path="url(#clip100)" d="M593.915 1479.7 L598.8 1479.7 L598.8 1485.58 L593.915 1485.58 L593.915 1479.7 Z" fill="#000000" fill-rule="nonzero" fill-opacity="1" /><path clip-path="url(#clip100)" d="M613.013 1481.64 L629.332 1481.64 L629.332 1485.58 L607.388 1485.58 L607.388 1481.64 Q610.05 1478.89 614.633 1474.26 Q619.239 1469.61 620.42 1468.27 Q622.665 1465.74 623.545 1464.01 Q624.448 1462.25 624.448 1460.56 Q624.448 1457.8 622.503 1456.07 Q620.582 1454.33 617.48 1454.33 Q615.281 1454.33 612.827 1455.09 Q610.397 1455.86 607.619 1457.41 L607.619 1452.69 Q610.443 1451.55 612.897 1450.97 Q615.35 1450.39 617.388 1450.39 Q622.758 1450.39 625.952 1453.08 Q629.147 1455.77 629.147 1460.26 Q629.147 1462.39 628.337 1464.31 Q627.55 1466.2 625.443 1468.8 Q624.864 1469.47 621.763 1472.69 Q618.661 1475.88 613.013 1481.64 Z" fill="#000000" fill-rule="nonzero" fill-opacity="1" /><path clip-path="url(#clip100)" d="M1012.01 1454.1 Q1008.4 1454.1 1006.57 1457.66 Q1004.76 1461.2 1004.76 1468.33 Q1004.76 1475.44 1006.57 1479.01 Q1008.4 1482.55 1012.01 1482.55 Q1015.64 1482.55 1017.45 1479.01 Q1019.28 1475.44 1019.28 1468.33 Q1019.28 1461.2 1017.45 1457.66 Q1015.64 1454.1 1012.01 1454.1 M1012.01 1450.39 Q1017.82 1450.39 1020.87 1455 Q1023.95 1459.58 1023.95 1468.33 Q1023.95 1477.06 1020.87 1481.67 Q1017.82 1486.25 1012.01 1486.25 Q1006.2 1486.25 1003.12 1481.67 Q1000.06 1477.06 1000.06 1468.33 Q1000.06 1459.58 1003.12 1455 Q1006.2 1450.39 1012.01 1450.39 Z" fill="#000000" fill-rule="nonzero" fill-opacity="1" /><path clip-path="url(#clip100)" d="M1032.17 1479.7 L1037.05 1479.7 L1037.05 1485.58 L1032.17 1485.58 L1032.17 1479.7 Z" fill="#000000" fill-rule="nonzero" fill-opacity="1" /><path clip-path="url(#clip100)" d="M1060.09 1455.09 L1048.28 1473.54 L1060.09 1473.54 L1060.09 1455.09 M1058.86 1451.02 L1064.74 1451.02 L1064.74 1473.54 L1069.67 1473.54 L1069.67 1477.43 L1064.74 1477.43 L1064.74 1485.58 L1060.09 1485.58 L1060.09 1477.43 L1044.48 1477.43 L1044.48 1472.92 L1058.86 1451.02 Z" fill="#000000" fill-rule="nonzero" fill-opacity="1" /><path clip-path="url(#clip100)" d="M1451.47 1454.1 Q1447.86 1454.1 1446.03 1457.66 Q1444.22 1461.2 1444.22 1468.33 Q1444.22 1475.44 1446.03 1479.01 Q1447.86 1482.55 1451.47 1482.55 Q1455.1 1482.55 1456.91 1479.01 Q1458.74 1475.44 1458.74 1468.33 Q1458.74 1461.2 1456.91 1457.66 Q1455.1 1454.1 1451.47 1454.1 M1451.47 1450.39 Q1457.28 1450.39 1460.33 1455 Q1463.41 1459.58 1463.41 1468.33 Q1463.41 1477.06 1460.33 1481.67 Q1457.28 1486.25 1451.47 1486.25 Q1445.66 1486.25 1442.58 1481.67 Q1439.52 1477.06 1439.52 1468.33 Q1439.52 1459.58 1442.58 1455 Q1445.66 1450.39 1451.47 1450.39 Z" fill="#000000" fill-rule="nonzero" fill-opacity="1" /><path clip-path="url(#clip100)" d="M1471.63 1479.7 L1476.51 1479.7 L1476.51 1485.58 L1471.63 1485.58 L1471.63 1479.7 Z" fill="#000000" fill-rule="nonzero" fill-opacity="1" /><path clip-path="url(#clip100)" d="M1497.28 1466.44 Q1494.13 1466.44 1492.28 1468.59 Q1490.45 1470.74 1490.45 1474.49 Q1490.45 1478.22 1492.28 1480.39 Q1494.13 1482.55 1497.28 1482.55 Q1500.42 1482.55 1502.25 1480.39 Q1504.11 1478.22 1504.11 1474.49 Q1504.11 1470.74 1502.25 1468.59 Q1500.42 1466.44 1497.28 1466.44 M1506.56 1451.78 L1506.56 1456.04 Q1504.8 1455.21 1502.99 1454.77 Q1501.21 1454.33 1499.45 1454.33 Q1494.82 1454.33 1492.37 1457.45 Q1489.94 1460.58 1489.59 1466.9 Q1490.96 1464.89 1493.02 1463.82 Q1495.08 1462.73 1497.55 1462.73 Q1502.76 1462.73 1505.77 1465.9 Q1508.8 1469.05 1508.8 1474.49 Q1508.8 1479.82 1505.66 1483.03 Q1502.51 1486.25 1497.28 1486.25 Q1491.28 1486.25 1488.11 1481.67 Q1484.94 1477.06 1484.94 1468.33 Q1484.94 1460.14 1488.83 1455.28 Q1492.72 1450.39 1499.27 1450.39 Q1501.03 1450.39 1502.81 1450.74 Q1504.61 1451.09 1506.56 1451.78 Z" fill="#000000" fill-rule="nonzero" fill-opacity="1" /><path clip-path="url(#clip100)" d="M1890.89 1454.1 Q1887.28 1454.1 1885.45 1457.66 Q1883.64 1461.2 1883.64 1468.33 Q1883.64 1475.44 1885.45 1479.01 Q1887.28 1482.55 1890.89 1482.55 Q1894.52 1482.55 1896.33 1479.01 Q1898.16 1475.44 1898.16 1468.33 Q1898.16 1461.2 1896.33 1457.66 Q1894.52 1454.1 1890.89 1454.1 M1890.89 1450.39 Q1896.7 1450.39 1899.76 1455 Q1902.83 1459.58 1902.83 1468.33 Q1902.83 1477.06 1899.76 1481.67 Q1896.7 1486.25 1890.89 1486.25 Q1885.08 1486.25 1882 1481.67 Q1878.95 1477.06 1878.95 1468.33 Q1878.95 1459.58 1882 1455 Q1885.08 1450.39 1890.89 1450.39 Z" fill="#000000" fill-rule="nonzero" fill-opacity="1" /><path clip-path="url(#clip100)" d="M1911.05 1479.7 L1915.94 1479.7 L1915.94 1485.58 L1911.05 1485.58 L1911.05 1479.7 Z" fill="#000000" fill-rule="nonzero" fill-opacity="1" /><path clip-path="url(#clip100)" d="M1936.12 1469.17 Q1932.79 1469.17 1930.87 1470.95 Q1928.97 1472.73 1928.97 1475.86 Q1928.97 1478.98 1930.87 1480.77 Q1932.79 1482.55 1936.12 1482.55 Q1939.45 1482.55 1941.38 1480.77 Q1943.3 1478.96 1943.3 1475.86 Q1943.3 1472.73 1941.38 1470.95 Q1939.48 1469.17 1936.12 1469.17 M1931.45 1467.18 Q1928.44 1466.44 1926.75 1464.38 Q1925.08 1462.32 1925.08 1459.35 Q1925.08 1455.21 1928.02 1452.8 Q1930.98 1450.39 1936.12 1450.39 Q1941.28 1450.39 1944.22 1452.8 Q1947.16 1455.21 1947.16 1459.35 Q1947.16 1462.32 1945.47 1464.38 Q1943.81 1466.44 1940.82 1467.18 Q1944.2 1467.96 1946.08 1470.26 Q1947.97 1472.55 1947.97 1475.86 Q1947.97 1480.88 1944.89 1483.57 Q1941.84 1486.25 1936.12 1486.25 Q1930.4 1486.25 1927.33 1483.57 Q1924.27 1480.88 1924.27 1475.86 Q1924.27 1472.55 1926.17 1470.26 Q1928.07 1467.96 1931.45 1467.18 M1929.73 1459.79 Q1929.73 1462.48 1931.4 1463.98 Q1933.09 1465.49 1936.12 1465.49 Q1939.13 1465.49 1940.82 1463.98 Q1942.53 1462.48 1942.53 1459.79 Q1942.53 1457.11 1940.82 1455.6 Q1939.13 1454.1 1936.12 1454.1 Q1933.09 1454.1 1931.4 1455.6 Q1929.73 1457.11 1929.73 1459.79 Z" fill="#000000" fill-rule="nonzero" fill-opacity="1" /><path clip-path="url(#clip100)" d="M2319.91 1481.64 L2327.55 1481.64 L2327.55 1455.28 L2319.24 1456.95 L2319.24 1452.69 L2327.5 1451.02 L2332.18 1451.02 L2332.18 1481.64 L2339.82 1481.64 L2339.82 1485.58 L2319.91 1485.58 L2319.91 1481.64 Z" fill="#000000" fill-rule="nonzero" fill-opacity="1" /><path clip-path="url(#clip100)" d="M2349.26 1479.7 L2354.14 1479.7 L2354.14 1485.58 L2349.26 1485.58 L2349.26 1479.7 Z" fill="#000000" fill-rule="nonzero" fill-opacity="1" /><path clip-path="url(#clip100)" d="M2374.33 1454.1 Q2370.72 1454.1 2368.89 1457.66 Q2367.08 1461.2 2367.08 1468.33 Q2367.08 1475.44 2368.89 1479.01 Q2370.72 1482.55 2374.33 1482.55 Q2377.96 1482.55 2379.77 1479.01 Q2381.6 1475.44 2381.6 1468.33 Q2381.6 1461.2 2379.77 1457.66 Q2377.96 1454.1 2374.33 1454.1 M2374.33 1450.39 Q2380.14 1450.39 2383.2 1455 Q2386.27 1459.58 2386.27 1468.33 Q2386.27 1477.06 2383.2 1481.67 Q2380.14 1486.25 2374.33 1486.25 Q2368.52 1486.25 2365.44 1481.67 Q2362.39 1477.06 2362.39 1468.33 Q2362.39 1459.58 2365.44 1455 Q2368.52 1450.39 2374.33 1450.39 Z" fill="#000000" fill-rule="nonzero" fill-opacity="1" /><path clip-path="url(#clip100)" d="M1253.58 1522.27 L1253.58 1532.4 L1265.64 1532.4 L1265.64 1536.95 L1253.58 1536.95 L1253.58 1556.3 Q1253.58 1560.66 1254.75 1561.9 Q1255.96 1563.14 1259.62 1563.14 L1265.64 1563.14 L1265.64 1568.04 L1259.62 1568.04 Q1252.84 1568.04 1250.27 1565.53 Q1247.69 1562.98 1247.69 1556.3 L1247.69 1536.95 L1243.39 1536.95 L1243.39 1532.4 L1247.69 1532.4 L1247.69 1522.27 L1253.58 1522.27 Z" fill="#000000" fill-rule="nonzero" fill-opacity="1" /><polyline clip-path="url(#clip100)" style="stroke:#000000; stroke-linecap:round; stroke-linejoin:round; stroke-width:4; stroke-opacity:1; fill:none" points="156.274,1423.18 156.274,47.2441 "/>
<polyline clip-path="url(#clip100)" style="stroke:#000000; stroke-linecap:round; stroke-linejoin:round; stroke-width:4; stroke-opacity:1; fill:none" points="156.274,1388.4 175.172,1388.4 "/>
<polyline clip-path="url(#clip100)" style="stroke:#000000; stroke-linecap:round; stroke-linejoin:round; stroke-width:4; stroke-opacity:1; fill:none" points="156.274,1119.48 175.172,1119.48 "/>
<polyline clip-path="url(#clip100)" style="stroke:#000000; stroke-linecap:round; stroke-linejoin:round; stroke-width:4; stroke-opacity:1; fill:none" points="156.274,850.549 175.172,850.549 "/>
<polyline clip-path="url(#clip100)" style="stroke:#000000; stroke-linecap:round; stroke-linejoin:round; stroke-width:4; stroke-opacity:1; fill:none" points="156.274,581.622 175.172,581.622 "/>
<polyline clip-path="url(#clip100)" style="stroke:#000000; stroke-linecap:round; stroke-linejoin:round; stroke-width:4; stroke-opacity:1; fill:none" points="156.274,312.695 175.172,312.695 "/>
<path clip-path="url(#clip100)" d="M63.0985 1374.2 Q59.4875 1374.2 57.6588 1377.77 Q55.8532 1381.31 55.8532 1388.44 Q55.8532 1395.54 57.6588 1399.11 Q59.4875 1402.65 63.0985 1402.65 Q66.7328 1402.65 68.5383 1399.11 Q70.367 1395.54 70.367 1388.44 Q70.367 1381.31 68.5383 1377.77 Q66.7328 1374.2 63.0985 1374.2 M63.0985 1370.5 Q68.9087 1370.5 71.9642 1375.11 Q75.0429 1379.69 75.0429 1388.44 Q75.0429 1397.17 71.9642 1401.77 Q68.9087 1406.35 63.0985 1406.35 Q57.2884 1406.35 54.2097 1401.77 Q51.1542 1397.17 51.1542 1388.44 Q51.1542 1379.69 54.2097 1375.11 Q57.2884 1370.5 63.0985 1370.5 Z" fill="#000000" fill-rule="nonzero" fill-opacity="1" /><path clip-path="url(#clip100)" d="M83.2605 1399.8 L88.1447 1399.8 L88.1447 1405.68 L83.2605 1405.68 L83.2605 1399.8 Z" fill="#000000" fill-rule="nonzero" fill-opacity="1" /><path clip-path="url(#clip100)" d="M108.33 1374.2 Q104.719 1374.2 102.89 1377.77 Q101.084 1381.31 101.084 1388.44 Q101.084 1395.54 102.89 1399.11 Q104.719 1402.65 108.33 1402.65 Q111.964 1402.65 113.77 1399.11 Q115.598 1395.54 115.598 1388.44 Q115.598 1381.31 113.77 1377.77 Q111.964 1374.2 108.33 1374.2 M108.33 1370.5 Q114.14 1370.5 117.195 1375.11 Q120.274 1379.69 120.274 1388.44 Q120.274 1397.17 117.195 1401.77 Q114.14 1406.35 108.33 1406.35 Q102.52 1406.35 99.4409 1401.77 Q96.3854 1397.17 96.3854 1388.44 Q96.3854 1379.69 99.4409 1375.11 Q102.52 1370.5 108.33 1370.5 Z" fill="#000000" fill-rule="nonzero" fill-opacity="1" /><path clip-path="url(#clip100)" d="M63.7467 1105.28 Q60.1356 1105.28 58.3069 1108.84 Q56.5014 1112.38 56.5014 1119.51 Q56.5014 1126.62 58.3069 1130.18 Q60.1356 1133.72 63.7467 1133.72 Q67.3809 1133.72 69.1865 1130.18 Q71.0152 1126.62 71.0152 1119.51 Q71.0152 1112.38 69.1865 1108.84 Q67.3809 1105.28 63.7467 1105.28 M63.7467 1101.57 Q69.5568 1101.57 72.6124 1106.18 Q75.6911 1110.76 75.6911 1119.51 Q75.6911 1128.24 72.6124 1132.84 Q69.5568 1137.43 63.7467 1137.43 Q57.9365 1137.43 54.8578 1132.84 Q51.8023 1128.24 51.8023 1119.51 Q51.8023 1110.76 54.8578 1106.18 Q57.9365 1101.57 63.7467 1101.57 Z" fill="#000000" fill-rule="nonzero" fill-opacity="1" /><path clip-path="url(#clip100)" d="M83.9086 1130.88 L88.7928 1130.88 L88.7928 1136.76 L83.9086 1136.76 L83.9086 1130.88 Z" fill="#000000" fill-rule="nonzero" fill-opacity="1" /><path clip-path="url(#clip100)" d="M113.145 1118.12 Q116.501 1118.84 118.376 1121.11 Q120.274 1123.38 120.274 1126.71 Q120.274 1131.83 116.756 1134.63 Q113.237 1137.43 106.756 1137.43 Q104.58 1137.43 102.265 1136.99 Q99.9733 1136.57 97.5197 1135.71 L97.5197 1131.2 Q99.4641 1132.34 101.779 1132.91 Q104.094 1133.49 106.617 1133.49 Q111.015 1133.49 113.307 1131.76 Q115.621 1130.02 115.621 1126.71 Q115.621 1123.65 113.469 1121.94 Q111.339 1120.21 107.52 1120.21 L103.492 1120.21 L103.492 1116.36 L107.705 1116.36 Q111.154 1116.36 112.983 1115 Q114.811 1113.61 114.811 1111.02 Q114.811 1108.35 112.913 1106.94 Q111.038 1105.51 107.52 1105.51 Q105.598 1105.51 103.399 1105.92 Q101.2 1106.34 98.5613 1107.22 L98.5613 1103.05 Q101.223 1102.31 103.538 1101.94 Q105.876 1101.57 107.936 1101.57 Q113.26 1101.57 116.362 1104 Q119.464 1106.41 119.464 1110.53 Q119.464 1113.4 117.82 1115.39 Q116.177 1117.36 113.145 1118.12 Z" fill="#000000" fill-rule="nonzero" fill-opacity="1" /><path clip-path="url(#clip100)" d="M62.9365 836.348 Q59.3254 836.348 57.4967 839.913 Q55.6912 843.455 55.6912 850.584 Q55.6912 857.691 57.4967 861.255 Q59.3254 864.797 62.9365 864.797 Q66.5707 864.797 68.3763 861.255 Q70.205 857.691 70.205 850.584 Q70.205 843.455 68.3763 839.913 Q66.5707 836.348 62.9365 836.348 M62.9365 832.644 Q68.7467 832.644 71.8022 837.251 Q74.8809 841.834 74.8809 850.584 Q74.8809 859.311 71.8022 863.917 Q68.7467 868.501 62.9365 868.501 Q57.1264 868.501 54.0477 863.917 Q50.9921 859.311 50.9921 850.584 Q50.9921 841.834 54.0477 837.251 Q57.1264 832.644 62.9365 832.644 Z" fill="#000000" fill-rule="nonzero" fill-opacity="1" /><path clip-path="url(#clip100)" d="M83.0984 861.95 L87.9827 861.95 L87.9827 867.829 L83.0984 867.829 L83.0984 861.95 Z" fill="#000000" fill-rule="nonzero" fill-opacity="1" /><path clip-path="url(#clip100)" d="M108.746 848.686 Q105.598 848.686 103.746 850.839 Q101.918 852.991 101.918 856.741 Q101.918 860.468 103.746 862.644 Q105.598 864.797 108.746 864.797 Q111.895 864.797 113.723 862.644 Q115.575 860.468 115.575 856.741 Q115.575 852.991 113.723 850.839 Q111.895 848.686 108.746 848.686 M118.029 834.033 L118.029 838.292 Q116.27 837.459 114.464 837.019 Q112.682 836.58 110.922 836.58 Q106.293 836.58 103.839 839.705 Q101.409 842.83 101.061 849.149 Q102.427 847.135 104.487 846.07 Q106.547 844.982 109.024 844.982 Q114.233 844.982 117.242 848.154 Q120.274 851.302 120.274 856.741 Q120.274 862.066 117.126 865.283 Q113.978 868.501 108.746 868.501 Q102.751 868.501 99.5798 863.917 Q96.4085 859.311 96.4085 850.584 Q96.4085 842.39 100.297 837.529 Q104.186 832.644 110.737 832.644 Q112.496 832.644 114.279 832.992 Q116.084 833.339 118.029 834.033 Z" fill="#000000" fill-rule="nonzero" fill-opacity="1" /><path clip-path="url(#clip100)" d="M63.2837 567.421 Q59.6726 567.421 57.8439 570.986 Q56.0384 574.527 56.0384 581.657 Q56.0384 588.763 57.8439 592.328 Q59.6726 595.87 63.2837 595.87 Q66.918 595.87 68.7235 592.328 Q70.5522 588.763 70.5522 581.657 Q70.5522 574.527 68.7235 570.986 Q66.918 567.421 63.2837 567.421 M63.2837 563.717 Q69.0939 563.717 72.1494 568.324 Q75.2281 572.907 75.2281 581.657 Q75.2281 590.384 72.1494 594.99 Q69.0939 599.574 63.2837 599.574 Q57.4736 599.574 54.3949 594.99 Q51.3393 590.384 51.3393 581.657 Q51.3393 572.907 54.3949 568.324 Q57.4736 563.717 63.2837 563.717 Z" fill="#000000" fill-rule="nonzero" fill-opacity="1" /><path clip-path="url(#clip100)" d="M83.4457 593.023 L88.3299 593.023 L88.3299 598.902 L83.4457 598.902 L83.4457 593.023 Z" fill="#000000" fill-rule="nonzero" fill-opacity="1" /><path clip-path="url(#clip100)" d="M98.6539 598.185 L98.6539 593.925 Q100.413 594.759 102.219 595.199 Q104.024 595.638 105.76 595.638 Q110.39 595.638 112.82 592.537 Q115.274 589.412 115.621 583.069 Q114.279 585.06 112.219 586.125 Q110.158 587.189 107.658 587.189 Q102.473 587.189 99.4409 584.064 Q96.4317 580.916 96.4317 575.476 Q96.4317 570.152 99.5798 566.935 Q102.728 563.717 107.959 563.717 Q113.955 563.717 117.103 568.324 Q120.274 572.907 120.274 581.657 Q120.274 589.828 116.385 594.712 Q112.52 599.574 105.969 599.574 Q104.209 599.574 102.404 599.226 Q100.598 598.879 98.6539 598.185 M107.959 583.532 Q111.108 583.532 112.936 581.379 Q114.788 579.226 114.788 575.476 Q114.788 571.75 112.936 569.597 Q111.108 567.421 107.959 567.421 Q104.811 567.421 102.959 569.597 Q101.131 571.75 101.131 575.476 Q101.131 579.226 102.959 581.379 Q104.811 583.532 107.959 583.532 Z" fill="#000000" fill-rule="nonzero" fill-opacity="1" /><path clip-path="url(#clip100)" d="M55.506 326.04 L63.1448 326.04 L63.1448 299.674 L54.8347 301.341 L54.8347 297.082 L63.0985 295.415 L67.7744 295.415 L67.7744 326.04 L75.4133 326.04 L75.4133 329.975 L55.506 329.975 L55.506 326.04 Z" fill="#000000" fill-rule="nonzero" fill-opacity="1" /><path clip-path="url(#clip100)" d="M84.8577 324.096 L89.7419 324.096 L89.7419 329.975 L84.8577 329.975 L84.8577 324.096 Z" fill="#000000" fill-rule="nonzero" fill-opacity="1" /><path clip-path="url(#clip100)" d="M103.955 326.04 L120.274 326.04 L120.274 329.975 L98.3298 329.975 L98.3298 326.04 Q100.992 323.285 105.575 318.656 Q110.182 314.003 111.362 312.66 Q113.608 310.137 114.487 308.401 Q115.39 306.642 115.39 304.952 Q115.39 302.198 113.445 300.461 Q111.524 298.725 108.422 298.725 Q106.223 298.725 103.77 299.489 Q101.339 300.253 98.5613 301.804 L98.5613 297.082 Q101.385 295.948 103.839 295.369 Q106.293 294.79 108.33 294.79 Q113.7 294.79 116.895 297.475 Q120.089 300.161 120.089 304.651 Q120.089 306.781 119.279 308.702 Q118.492 310.6 116.385 313.193 Q115.807 313.864 112.705 317.082 Q109.603 320.276 103.955 326.04 Z" fill="#000000" fill-rule="nonzero" fill-opacity="1" /><polyline clip-path="url(#clip101)" style="stroke:#009af9; stroke-linecap:round; stroke-linejoin:round; stroke-width:4; stroke-opacity:1; fill:none" points="156.274,723.906 156.985,741.506 157.672,732.053 158.444,733.596 159.313,738.381 160.291,733.116 161.39,708.401 162.628,702.089 164.02,696.64 165.585,713.317 167.347,690.922 169.329,673.813 171.558,680.83 174.066,671.399 176.888,669.074 180.063,660.265 183.634,683.368 187.652,637.503 192.171,585.286 197.256,514.214 202.977,488.416 209.412,439.914 216.652,402.438 224.797,374.483 233.96,445.53 244.269,570.976 255.866,541.07 268.912,378.561 283.59,382.671 300.102,411.23 318.678,401.471 339.576,555.853 363.086,626.766 389.536,604.351 419.291,476.829 452.766,542.139 484.657,667.264 520.535,571.923 560.898,653.258 595.722,583.714 634.899,630.327 673.29,721.459 716.264,739.434 764.476,649.49 818.714,773.68 863.733,842.511 914.379,977.397 971.357,943.309 1035.46,870.899 1107.57,958.811 1163.9,896.816 1227.27,947.79 1282.15,949.871 1343.88,866.409 1413.34,919.177 1467.45,1015.28 1528.33,1064.24 1592.72,1142.73 1665.17,1170.93 1746.67,1205.74 1838.36,1174.11 1941.51,1252.07 2048.86,1268.02 2168.29,1220.29 2302.65,1229.02 2352.76,1194.14 "/>
<polyline clip-path="url(#clip101)" style="stroke:#e26f46; stroke-linecap:round; stroke-linejoin:round; stroke-width:4; stroke-opacity:1; fill:none" points="156.274,1365.41 156.985,1366.02 157.672,1365.69 158.444,1365.75 159.313,1365.91 160.291,1365.73 161.39,1364.87 162.628,1364.66 164.02,1364.47 165.585,1365.04 167.347,1364.27 169.329,1363.68 171.558,1363.92 174.066,1363.59 176.888,1363.51 180.063,1363.21 183.634,1364.01 187.652,1362.42 192.171,1360.61 197.256,1358.16 202.977,1357.26 209.412,1355.58 216.652,1354.29 224.797,1353.32 233.96,1355.78 244.269,1360.12 255.866,1359.08 268.912,1353.46 283.59,1353.6 300.102,1354.59 318.678,1354.25 339.576,1359.6 363.086,1362.05 389.536,1361.27 419.291,1356.86 452.766,1359.12 484.657,1363.45 520.535,1360.15 560.898,1362.97 595.722,1360.56 634.899,1362.17 673.29,1365.33 716.264,1365.95 764.476,1362.84 818.714,1367.13 863.733,1369.52 914.379,1374.18 971.357,1373 1035.46,1370.5 1107.57,1373.54 1163.9,1371.39 1227.27,1373.16 1282.15,1373.23 1343.88,1370.34 1413.34,1372.17 1467.45,1375.49 1528.33,1377.19 1592.72,1379.9 1665.17,1380.88 1746.67,1382.08 1838.36,1380.99 1941.51,1383.69 2048.86,1384.24 2168.29,1382.59 2302.65,1382.89 2352.76,1381.68 "/>
<polyline clip-path="url(#clip101)" style="stroke:#3da44d; stroke-linecap:round; stroke-linejoin:round; stroke-width:4; stroke-opacity:1; fill:none" points="156.274,847.984 156.985,862.298 157.672,854.61 158.444,855.865 159.313,859.756 160.291,855.474 161.39,835.374 162.628,830.24 164.02,825.809 165.585,839.372 167.347,821.159 169.329,807.244 171.558,812.951 174.066,805.281 176.888,803.39 180.063,796.226 183.634,815.015 187.652,777.714 192.171,735.247 197.256,677.446 202.977,656.465 209.412,617.02 216.652,586.542 224.797,563.807 233.96,621.587 244.269,723.609 255.866,699.288 268.912,567.123 283.59,570.465 300.102,593.692 318.678,585.755 339.576,711.31 363.086,768.982 389.536,750.753 419.291,647.042 452.766,700.157 484.657,801.918 520.535,724.38 560.898,790.527 595.722,733.969 634.899,771.878 673.29,845.994 716.264,860.612 764.476,787.463 818.714,888.464 863.733,944.442 914.379,1054.14 971.357,1026.42 1035.46,967.529 1107.57,1039.03 1163.9,988.607 1227.27,1030.06 1282.15,1031.76 1343.88,963.878 1413.34,1006.79 1467.45,1084.95 1528.33,1124.77 1592.72,1188.6 1665.17,1211.54 1746.67,1239.85 1838.36,1214.12 1941.51,1277.53 2048.86,1290.5 2168.29,1251.68 2302.65,1258.78 2352.76,1230.41 "/>
<polyline clip-path="url(#clip101)" style="stroke:#c271d2; stroke-linecap:round; stroke-linejoin:round; stroke-width:4; stroke-opacity:1; fill:none" points="156.274,716.202 156.985,734.006 157.672,724.443 158.444,726.004 159.313,730.844 160.291,725.518 161.39,700.517 162.628,694.131 164.02,688.62 165.585,705.49 167.347,682.835 169.329,665.528 171.558,672.626 174.066,663.086 176.888,660.733 180.063,651.822 183.634,675.193 187.652,628.796 192.171,575.974 197.256,504.078 202.977,477.98 209.412,428.916 216.652,391.006 224.797,362.727 233.96,434.598 244.269,561.498 255.866,531.246 268.912,366.852 283.59,371.01 300.102,399.9 318.678,390.027 339.576,546.2 363.086,617.935 389.536,595.261 419.291,466.259 452.766,532.327 484.657,658.903 520.535,562.457 560.898,644.734 595.722,574.383 634.899,621.537 673.29,713.726 716.264,731.909 764.476,640.922 818.714,766.553 863.733,836.181 914.379,972.631 971.357,938.148 1035.46,864.898 1107.57,953.83 1163.9,891.116 1227.27,942.681 1282.15,944.786 1343.88,860.357 1413.34,913.736 1467.45,1010.95 1528.33,1060.48 1592.72,1139.88 1665.17,1168.41 1746.67,1203.62 1838.36,1171.62 1941.51,1250.49 2048.86,1266.63 2168.29,1218.34 2302.65,1227.17 2352.76,1191.88 "/>
<polyline clip-path="url(#clip101)" style="stroke:#ac8d18; stroke-linecap:round; stroke-linejoin:round; stroke-width:4; stroke-opacity:1; fill:none" points="156.274,534.963 156.985,557.568 157.672,545.426 158.444,547.409 159.313,553.554 160.291,546.791 161.39,515.049 162.628,506.942 164.02,499.945 165.585,521.364 167.347,492.601 169.329,470.627 171.558,479.639 174.066,467.526 176.888,464.54 180.063,453.226 183.634,482.898 187.652,423.992 192.171,356.927 197.256,265.647 202.977,232.513 209.412,170.221 216.652,122.089 224.797,86.1857 233.96,177.434 244.269,338.548 255.866,300.14 268.912,91.4231 283.59,96.7011 300.102,133.381 318.678,120.846 339.576,319.126 363.086,410.202 389.536,381.414 419.291,217.632 452.766,301.513 484.657,462.216 520.535,339.766 560.898,444.227 595.722,354.908 634.899,414.776 673.29,531.821 716.264,554.906 764.476,439.388 818.714,598.89 863.733,687.292 914.379,860.531 971.357,816.751 1035.46,723.751 1107.57,836.661 1163.9,757.038 1227.27,822.506 1282.15,825.178 1343.88,717.986 1413.34,785.757 1467.45,909.181 1528.33,972.071 1592.72,1072.87 1665.17,1109.1 1746.67,1153.8 1838.36,1113.17 1941.51,1213.3 2048.86,1233.79 2168.29,1172.49 2302.65,1183.7 2352.76,1138.9 "/>
<polyline clip-path="url(#clip101)" style="stroke:#00a9ad; stroke-linecap:round; stroke-linejoin:round; stroke-width:4; stroke-opacity:1; fill:none" points="156.274,693.654 156.985,712.056 157.672,702.172 158.444,703.785 159.313,708.788 160.291,703.283 161.39,677.443 162.628,670.843 164.02,665.147 165.585,682.583 167.347,659.168 169.329,641.28 171.558,648.617 174.066,638.757 176.888,636.325 180.063,627.116 183.634,651.27 187.652,603.317 192.171,548.723 197.256,474.415 202.977,447.442 209.412,396.733 216.652,357.551 224.797,328.323 233.96,402.605 244.269,533.761 255.866,502.494 268.912,332.587 283.59,336.884 300.102,366.743 318.678,356.539 339.576,517.95 363.086,592.092 389.536,568.656 419.291,435.328 452.766,503.612 484.657,634.433 520.535,534.752 560.898,619.789 595.722,547.079 634.899,595.815 673.29,691.096 716.264,709.888 764.476,615.85 818.714,745.694 863.733,817.658 914.379,958.685 971.357,923.045 1035.46,847.338 1107.57,939.254 1163.9,874.436 1227.27,927.731 1282.15,929.906 1343.88,842.645 1413.34,897.815 1467.45,998.289 1528.33,1049.49 1592.72,1131.54 1665.17,1161.03 1746.67,1197.42 1838.36,1164.35 1941.51,1245.86 2048.86,1262.54 2168.29,1212.64 2302.65,1221.77 2352.76,1185.29 "/>
<polyline clip-path="url(#clip101)" style="stroke:#ed5d92; stroke-linecap:round; stroke-linejoin:round; stroke-width:4; stroke-opacity:1; fill:none" points="156.274,727.872 156.985,745.367 157.672,735.97 158.444,737.504 159.313,742.261 160.291,737.026 161.39,712.459 162.628,706.184 164.02,700.769 165.585,717.346 167.347,695.085 169.329,678.078 171.558,685.053 174.066,675.678 176.888,673.367 180.063,664.61 183.634,687.575 187.652,641.984 192.171,590.079 197.256,519.431 202.977,493.787 209.412,445.574 216.652,408.322 224.797,380.534 233.96,451.157 244.269,575.854 255.866,546.127 268.912,384.588 283.59,388.673 300.102,417.062 318.678,407.361 339.576,560.821 363.086,631.312 389.536,609.031 419.291,482.269 452.766,547.19 484.657,671.568 520.535,576.796 560.898,657.645 595.722,588.516 634.899,634.851 673.29,725.44 716.264,743.307 764.476,653.9 818.714,777.349 863.733,845.769 914.379,979.849 971.357,945.965 1035.46,873.987 1107.57,961.375 1163.9,899.75 1227.27,950.42 1282.15,952.488 1343.88,869.525 1413.34,921.977 1467.45,1017.5 1528.33,1066.18 1592.72,1144.19 1665.17,1172.23 1746.67,1206.83 1838.36,1175.38 1941.51,1252.88 2048.86,1268.74 2168.29,1221.29 2302.65,1229.97 2352.76,1195.3 "/>
<polyline clip-path="url(#clip101)" style="stroke:#c68125; stroke-linecap:round; stroke-linejoin:round; stroke-width:4; stroke-opacity:1; fill:none" points="156.274,836.773 156.985,851.384 157.672,843.536 158.444,844.817 159.313,848.789 160.291,844.418 161.39,823.901 162.628,818.661 164.02,814.138 165.585,827.983 167.347,809.391 169.329,795.188 171.558,801.014 174.066,793.184 176.888,791.254 180.063,783.941 183.634,803.12 187.652,765.045 192.171,721.697 197.256,662.697 202.977,641.281 209.412,601.017 216.652,569.907 224.797,546.7 233.96,605.68 244.269,709.818 255.866,684.992 268.912,550.086 283.59,553.497 300.102,577.205 318.678,569.104 339.576,697.264 363.086,756.132 389.536,737.525 419.291,631.662 452.766,685.879 484.657,789.752 520.535,710.605 560.898,778.124 595.722,720.392 634.899,759.088 673.29,834.742 716.264,849.663 764.476,774.996 818.714,878.093 863.733,935.232 914.379,1047.21 971.357,1018.91 1035.46,958.798 1107.57,1031.78 1163.9,980.313 1227.27,1022.63 1282.15,1024.36 1343.88,955.071 1413.34,998.876 1467.45,1078.65 1528.33,1119.3 1592.72,1184.46 1665.17,1207.87 1746.67,1236.77 1838.36,1210.5 1941.51,1275.23 2048.86,1288.47 2168.29,1248.85 2302.65,1256.09 2352.76,1227.13 "/>
<path clip-path="url(#clip100)" d="M1970.79 559.669 L2279.54 559.669 L2279.54 93.1086 L1970.79 93.1086  Z" fill="#ffffff" fill-rule="evenodd" fill-opacity="1"/>
<polyline clip-path="url(#clip100)" style="stroke:#000000; stroke-linecap:round; stroke-linejoin:round; stroke-width:4; stroke-opacity:1; fill:none" points="1970.79,559.669 2279.54,559.669 2279.54,93.1086 1970.79,93.1086 1970.79,559.669 "/>
<polyline clip-path="url(#clip100)" style="stroke:#009af9; stroke-linecap:round; stroke-linejoin:round; stroke-width:4; stroke-opacity:1; fill:none" points="1995.2,144.949 2141.63,144.949 "/>
<path clip-path="url(#clip100)" d="M2166.04 151.997 L2166.04 136.303 L2170.3 136.303 L2170.3 151.835 Q2170.3 155.516 2171.73 157.368 Q2173.17 159.196 2176.04 159.196 Q2179.49 159.196 2181.48 156.997 Q2183.49 154.798 2183.49 151.002 L2183.49 136.303 L2187.75 136.303 L2187.75 162.229 L2183.49 162.229 L2183.49 158.247 Q2181.94 160.608 2179.88 161.766 Q2177.84 162.9 2175.13 162.9 Q2170.67 162.9 2168.35 160.122 Q2166.04 157.344 2166.04 151.997 M2176.76 135.678 L2176.76 135.678 Z" fill="#000000" fill-rule="nonzero" fill-opacity="1" /><path clip-path="url(#clip100)" d="M2196.13 126.21 L2205.94 126.21 L2205.94 129.52 L2200.39 129.52 L2200.39 165.168 L2205.94 165.168 L2205.94 168.479 L2196.13 168.479 L2196.13 126.21 Z" fill="#000000" fill-rule="nonzero" fill-opacity="1" /><path clip-path="url(#clip100)" d="M2216.43 158.293 L2224.07 158.293 L2224.07 131.928 L2215.76 133.595 L2215.76 129.335 L2224.02 127.669 L2228.7 127.669 L2228.7 158.293 L2236.34 158.293 L2236.34 162.229 L2216.43 162.229 L2216.43 158.293 Z" fill="#000000" fill-rule="nonzero" fill-opacity="1" /><path clip-path="url(#clip100)" d="M2255.13 126.21 L2255.13 168.479 L2245.32 168.479 L2245.32 165.168 L2250.85 165.168 L2250.85 129.52 L2245.32 129.52 L2245.32 126.21 L2255.13 126.21 Z" fill="#000000" fill-rule="nonzero" fill-opacity="1" /><polyline clip-path="url(#clip100)" style="stroke:#e26f46; stroke-linecap:round; stroke-linejoin:round; stroke-width:4; stroke-opacity:1; fill:none" points="1995.2,196.789 2141.63,196.789 "/>
<path clip-path="url(#clip100)" d="M2166.04 203.837 L2166.04 188.143 L2170.3 188.143 L2170.3 203.675 Q2170.3 207.356 2171.73 209.208 Q2173.17 211.036 2176.04 211.036 Q2179.49 211.036 2181.48 208.837 Q2183.49 206.638 2183.49 202.842 L2183.49 188.143 L2187.75 188.143 L2187.75 214.069 L2183.49 214.069 L2183.49 210.087 Q2181.94 212.448 2179.88 213.606 Q2177.84 214.74 2175.13 214.74 Q2170.67 214.74 2168.35 211.962 Q2166.04 209.184 2166.04 203.837 M2176.76 187.518 L2176.76 187.518 Z" fill="#000000" fill-rule="nonzero" fill-opacity="1" /><path clip-path="url(#clip100)" d="M2196.13 178.05 L2205.94 178.05 L2205.94 181.36 L2200.39 181.36 L2200.39 217.008 L2205.94 217.008 L2205.94 220.319 L2196.13 220.319 L2196.13 178.05 Z" fill="#000000" fill-rule="nonzero" fill-opacity="1" /><path clip-path="url(#clip100)" d="M2219.65 210.133 L2235.97 210.133 L2235.97 214.069 L2214.02 214.069 L2214.02 210.133 Q2216.69 207.379 2221.27 202.749 Q2225.88 198.096 2227.06 196.754 Q2229.3 194.231 2230.18 192.495 Q2231.08 190.735 2231.08 189.046 Q2231.08 186.291 2229.14 184.555 Q2227.22 182.819 2224.12 182.819 Q2221.92 182.819 2219.46 183.583 Q2217.03 184.347 2214.26 185.897 L2214.26 181.175 Q2217.08 180.041 2219.53 179.462 Q2221.99 178.884 2224.02 178.884 Q2229.39 178.884 2232.59 181.569 Q2235.78 184.254 2235.78 188.745 Q2235.78 190.874 2234.97 192.796 Q2234.19 194.694 2232.08 197.286 Q2231.5 197.958 2228.4 201.175 Q2225.3 204.37 2219.65 210.133 Z" fill="#000000" fill-rule="nonzero" fill-opacity="1" /><path clip-path="url(#clip100)" d="M2255.13 178.05 L2255.13 220.319 L2245.32 220.319 L2245.32 217.008 L2250.85 217.008 L2250.85 181.36 L2245.32 181.36 L2245.32 178.05 L2255.13 178.05 Z" fill="#000000" fill-rule="nonzero" fill-opacity="1" /><polyline clip-path="url(#clip100)" style="stroke:#3da44d; stroke-linecap:round; stroke-linejoin:round; stroke-width:4; stroke-opacity:1; fill:none" points="1995.2,248.629 2141.63,248.629 "/>
<path clip-path="url(#clip100)" d="M2166.04 255.677 L2166.04 239.983 L2170.3 239.983 L2170.3 255.515 Q2170.3 259.196 2171.73 261.048 Q2173.17 262.876 2176.04 262.876 Q2179.49 262.876 2181.48 260.677 Q2183.49 258.478 2183.49 254.682 L2183.49 239.983 L2187.75 239.983 L2187.75 265.909 L2183.49 265.909 L2183.49 261.927 Q2181.94 264.288 2179.88 265.446 Q2177.84 266.58 2175.13 266.58 Q2170.67 266.58 2168.35 263.802 Q2166.04 261.024 2166.04 255.677 M2176.76 239.358 L2176.76 239.358 Z" fill="#000000" fill-rule="nonzero" fill-opacity="1" /><path clip-path="url(#clip100)" d="M2196.13 229.89 L2205.94 229.89 L2205.94 233.2 L2200.39 233.2 L2200.39 268.848 L2205.94 268.848 L2205.94 272.159 L2196.13 272.159 L2196.13 229.89 Z" fill="#000000" fill-rule="nonzero" fill-opacity="1" /><path clip-path="url(#clip100)" d="M2229.79 247.274 Q2233.14 247.992 2235.02 250.261 Q2236.92 252.529 2236.92 255.862 Q2236.92 260.978 2233.4 263.779 Q2229.88 266.58 2223.4 266.58 Q2221.22 266.58 2218.91 266.14 Q2216.62 265.723 2214.16 264.867 L2214.16 260.353 Q2216.11 261.487 2218.42 262.066 Q2220.74 262.645 2223.26 262.645 Q2227.66 262.645 2229.95 260.909 Q2232.26 259.173 2232.26 255.862 Q2232.26 252.807 2230.11 251.094 Q2227.98 249.358 2224.16 249.358 L2220.13 249.358 L2220.13 245.515 L2224.35 245.515 Q2227.8 245.515 2229.63 244.149 Q2231.45 242.761 2231.45 240.168 Q2231.45 237.506 2229.56 236.094 Q2227.68 234.659 2224.16 234.659 Q2222.24 234.659 2220.04 235.075 Q2217.84 235.492 2215.2 236.372 L2215.2 232.205 Q2217.87 231.464 2220.18 231.094 Q2222.52 230.724 2224.58 230.724 Q2229.9 230.724 2233 233.154 Q2236.11 235.562 2236.11 239.682 Q2236.11 242.552 2234.46 244.543 Q2232.82 246.511 2229.79 247.274 Z" fill="#000000" fill-rule="nonzero" fill-opacity="1" /><path clip-path="url(#clip100)" d="M2255.13 229.89 L2255.13 272.159 L2245.32 272.159 L2245.32 268.848 L2250.85 268.848 L2250.85 233.2 L2245.32 233.2 L2245.32 229.89 L2255.13 229.89 Z" fill="#000000" fill-rule="nonzero" fill-opacity="1" /><polyline clip-path="url(#clip100)" style="stroke:#c271d2; stroke-linecap:round; stroke-linejoin:round; stroke-width:4; stroke-opacity:1; fill:none" points="1995.2,300.469 2141.63,300.469 "/>
<path clip-path="url(#clip100)" d="M2166.04 307.517 L2166.04 291.823 L2170.3 291.823 L2170.3 307.355 Q2170.3 311.036 2171.73 312.888 Q2173.17 314.716 2176.04 314.716 Q2179.49 314.716 2181.48 312.517 Q2183.49 310.318 2183.49 306.522 L2183.49 291.823 L2187.75 291.823 L2187.75 317.749 L2183.49 317.749 L2183.49 313.767 Q2181.94 316.128 2179.88 317.286 Q2177.84 318.42 2175.13 318.42 Q2170.67 318.42 2168.35 315.642 Q2166.04 312.864 2166.04 307.517 M2176.76 291.198 L2176.76 291.198 Z" fill="#000000" fill-rule="nonzero" fill-opacity="1" /><path clip-path="url(#clip100)" d="M2196.13 281.73 L2205.94 281.73 L2205.94 285.04 L2200.39 285.04 L2200.39 320.688 L2205.94 320.688 L2205.94 323.999 L2196.13 323.999 L2196.13 281.73 Z" fill="#000000" fill-rule="nonzero" fill-opacity="1" /><path clip-path="url(#clip100)" d="M2228.47 287.263 L2216.66 305.712 L2228.47 305.712 L2228.47 287.263 M2227.24 283.189 L2233.12 283.189 L2233.12 305.712 L2238.05 305.712 L2238.05 309.601 L2233.12 309.601 L2233.12 317.749 L2228.47 317.749 L2228.47 309.601 L2212.87 309.601 L2212.87 305.087 L2227.24 283.189 Z" fill="#000000" fill-rule="nonzero" fill-opacity="1" /><path clip-path="url(#clip100)" d="M2255.13 281.73 L2255.13 323.999 L2245.32 323.999 L2245.32 320.688 L2250.85 320.688 L2250.85 285.04 L2245.32 285.04 L2245.32 281.73 L2255.13 281.73 Z" fill="#000000" fill-rule="nonzero" fill-opacity="1" /><polyline clip-path="url(#clip100)" style="stroke:#ac8d18; stroke-linecap:round; stroke-linejoin:round; stroke-width:4; stroke-opacity:1; fill:none" points="1995.2,352.309 2141.63,352.309 "/>
<path clip-path="url(#clip100)" d="M2166.04 359.357 L2166.04 343.663 L2170.3 343.663 L2170.3 359.195 Q2170.3 362.876 2171.73 364.728 Q2173.17 366.556 2176.04 366.556 Q2179.49 366.556 2181.48 364.357 Q2183.49 362.158 2183.49 358.362 L2183.49 343.663 L2187.75 343.663 L2187.75 369.589 L2183.49 369.589 L2183.49 365.607 Q2181.94 367.968 2179.88 369.126 Q2177.84 370.26 2175.13 370.26 Q2170.67 370.26 2168.35 367.482 Q2166.04 364.704 2166.04 359.357 M2176.76 343.038 L2176.76 343.038 Z" fill="#000000" fill-rule="nonzero" fill-opacity="1" /><path clip-path="url(#clip100)" d="M2196.13 333.57 L2205.94 333.57 L2205.94 336.88 L2200.39 336.88 L2200.39 372.528 L2205.94 372.528 L2205.94 375.839 L2196.13 375.839 L2196.13 333.57 Z" fill="#000000" fill-rule="nonzero" fill-opacity="1" /><path clip-path="url(#clip100)" d="M2215.67 335.029 L2234.02 335.029 L2234.02 338.964 L2219.95 338.964 L2219.95 347.436 Q2220.97 347.089 2221.99 346.927 Q2223.01 346.742 2224.02 346.742 Q2229.81 346.742 2233.19 349.913 Q2236.57 353.084 2236.57 358.501 Q2236.57 364.079 2233.1 367.181 Q2229.63 370.26 2223.31 370.26 Q2221.13 370.26 2218.86 369.89 Q2216.62 369.519 2214.21 368.778 L2214.21 364.079 Q2216.29 365.214 2218.51 365.769 Q2220.74 366.325 2223.21 366.325 Q2227.22 366.325 2229.56 364.218 Q2231.89 362.112 2231.89 358.501 Q2231.89 354.89 2229.56 352.783 Q2227.22 350.677 2223.21 350.677 Q2221.34 350.677 2219.46 351.093 Q2217.61 351.51 2215.67 352.39 L2215.67 335.029 Z" fill="#000000" fill-rule="nonzero" fill-opacity="1" /><path clip-path="url(#clip100)" d="M2255.13 333.57 L2255.13 375.839 L2245.32 375.839 L2245.32 372.528 L2250.85 372.528 L2250.85 336.88 L2245.32 336.88 L2245.32 333.57 L2255.13 333.57 Z" fill="#000000" fill-rule="nonzero" fill-opacity="1" /><polyline clip-path="url(#clip100)" style="stroke:#00a9ad; stroke-linecap:round; stroke-linejoin:round; stroke-width:4; stroke-opacity:1; fill:none" points="1995.2,404.149 2141.63,404.149 "/>
<path clip-path="url(#clip100)" d="M2166.04 411.197 L2166.04 395.503 L2170.3 395.503 L2170.3 411.035 Q2170.3 414.716 2171.73 416.568 Q2173.17 418.396 2176.04 418.396 Q2179.49 418.396 2181.48 416.197 Q2183.49 413.998 2183.49 410.202 L2183.49 395.503 L2187.75 395.503 L2187.75 421.429 L2183.49 421.429 L2183.49 417.447 Q2181.94 419.808 2179.88 420.966 Q2177.84 422.1 2175.13 422.1 Q2170.67 422.1 2168.35 419.322 Q2166.04 416.544 2166.04 411.197 M2176.76 394.878 L2176.76 394.878 Z" fill="#000000" fill-rule="nonzero" fill-opacity="1" /><path clip-path="url(#clip100)" d="M2196.13 385.41 L2205.94 385.41 L2205.94 388.72 L2200.39 388.72 L2200.39 424.368 L2205.94 424.368 L2205.94 427.679 L2196.13 427.679 L2196.13 385.41 Z" fill="#000000" fill-rule="nonzero" fill-opacity="1" /><path clip-path="url(#clip100)" d="M2226.2 402.285 Q2223.05 402.285 2221.2 404.438 Q2219.37 406.591 2219.37 410.341 Q2219.37 414.068 2221.2 416.243 Q2223.05 418.396 2226.2 418.396 Q2229.35 418.396 2231.18 416.243 Q2233.03 414.068 2233.03 410.341 Q2233.03 406.591 2231.18 404.438 Q2229.35 402.285 2226.2 402.285 M2235.48 387.633 L2235.48 391.892 Q2233.72 391.058 2231.92 390.619 Q2230.13 390.179 2228.38 390.179 Q2223.75 390.179 2221.29 393.304 Q2218.86 396.429 2218.51 402.748 Q2219.88 400.734 2221.94 399.669 Q2224 398.582 2226.48 398.582 Q2231.69 398.582 2234.69 401.753 Q2237.73 404.901 2237.73 410.341 Q2237.73 415.665 2234.58 418.882 Q2231.43 422.1 2226.2 422.1 Q2220.2 422.1 2217.03 417.517 Q2213.86 412.91 2213.86 404.183 Q2213.86 395.989 2217.75 391.128 Q2221.64 386.244 2228.19 386.244 Q2229.95 386.244 2231.73 386.591 Q2233.54 386.938 2235.48 387.633 Z" fill="#000000" fill-rule="nonzero" fill-opacity="1" /><path clip-path="url(#clip100)" d="M2255.13 385.41 L2255.13 427.679 L2245.32 427.679 L2245.32 424.368 L2250.85 424.368 L2250.85 388.72 L2245.32 388.72 L2245.32 385.41 L2255.13 385.41 Z" fill="#000000" fill-rule="nonzero" fill-opacity="1" /><polyline clip-path="url(#clip100)" style="stroke:#ed5d92; stroke-linecap:round; stroke-linejoin:round; stroke-width:4; stroke-opacity:1; fill:none" points="1995.2,455.989 2141.63,455.989 "/>
<path clip-path="url(#clip100)" d="M2166.04 463.037 L2166.04 447.343 L2170.3 447.343 L2170.3 462.875 Q2170.3 466.556 2171.73 468.408 Q2173.17 470.236 2176.04 470.236 Q2179.49 470.236 2181.48 468.037 Q2183.49 465.838 2183.49 462.042 L2183.49 447.343 L2187.75 447.343 L2187.75 473.269 L2183.49 473.269 L2183.49 469.287 Q2181.94 471.648 2179.88 472.806 Q2177.84 473.94 2175.13 473.94 Q2170.67 473.94 2168.35 471.162 Q2166.04 468.384 2166.04 463.037 M2176.76 446.718 L2176.76 446.718 Z" fill="#000000" fill-rule="nonzero" fill-opacity="1" /><path clip-path="url(#clip100)" d="M2196.13 437.25 L2205.94 437.25 L2205.94 440.56 L2200.39 440.56 L2200.39 476.208 L2205.94 476.208 L2205.94 479.519 L2196.13 479.519 L2196.13 437.25 Z" fill="#000000" fill-rule="nonzero" fill-opacity="1" /><path clip-path="url(#clip100)" d="M2214.44 438.709 L2236.66 438.709 L2236.66 440.699 L2224.12 473.269 L2219.23 473.269 L2231.04 442.644 L2214.44 442.644 L2214.44 438.709 Z" fill="#000000" fill-rule="nonzero" fill-opacity="1" /><path clip-path="url(#clip100)" d="M2255.13 437.25 L2255.13 479.519 L2245.32 479.519 L2245.32 476.208 L2250.85 476.208 L2250.85 440.56 L2245.32 440.56 L2245.32 437.25 L2255.13 437.25 Z" fill="#000000" fill-rule="nonzero" fill-opacity="1" /><polyline clip-path="url(#clip100)" style="stroke:#c68125; stroke-linecap:round; stroke-linejoin:round; stroke-width:4; stroke-opacity:1; fill:none" points="1995.2,507.829 2141.63,507.829 "/>
<path clip-path="url(#clip100)" d="M2166.04 514.877 L2166.04 499.183 L2170.3 499.183 L2170.3 514.715 Q2170.3 518.396 2171.73 520.248 Q2173.17 522.076 2176.04 522.076 Q2179.49 522.076 2181.48 519.877 Q2183.49 517.678 2183.49 513.882 L2183.49 499.183 L2187.75 499.183 L2187.75 525.109 L2183.49 525.109 L2183.49 521.127 Q2181.94 523.488 2179.88 524.646 Q2177.84 525.78 2175.13 525.78 Q2170.67 525.78 2168.35 523.002 Q2166.04 520.224 2166.04 514.877 M2176.76 498.558 L2176.76 498.558 Z" fill="#000000" fill-rule="nonzero" fill-opacity="1" /><path clip-path="url(#clip100)" d="M2196.13 489.09 L2205.94 489.09 L2205.94 492.4 L2200.39 492.4 L2200.39 528.048 L2205.94 528.048 L2205.94 531.359 L2196.13 531.359 L2196.13 489.09 Z" fill="#000000" fill-rule="nonzero" fill-opacity="1" /><path clip-path="url(#clip100)" d="M2225.62 508.697 Q2222.29 508.697 2220.37 510.479 Q2218.47 512.261 2218.47 515.386 Q2218.47 518.511 2220.37 520.294 Q2222.29 522.076 2225.62 522.076 Q2228.95 522.076 2230.88 520.294 Q2232.8 518.488 2232.8 515.386 Q2232.8 512.261 2230.88 510.479 Q2228.98 508.697 2225.62 508.697 M2220.94 506.706 Q2217.94 505.965 2216.25 503.905 Q2214.58 501.845 2214.58 498.882 Q2214.58 494.738 2217.52 492.331 Q2220.48 489.924 2225.62 489.924 Q2230.78 489.924 2233.72 492.331 Q2236.66 494.738 2236.66 498.882 Q2236.66 501.845 2234.97 503.905 Q2233.31 505.965 2230.32 506.706 Q2233.7 507.493 2235.57 509.785 Q2237.47 512.076 2237.47 515.386 Q2237.47 520.41 2234.39 523.095 Q2231.34 525.78 2225.62 525.78 Q2219.9 525.78 2216.82 523.095 Q2213.77 520.41 2213.77 515.386 Q2213.77 512.076 2215.67 509.785 Q2217.57 507.493 2220.94 506.706 M2219.23 499.322 Q2219.23 502.007 2220.9 503.512 Q2222.59 505.016 2225.62 505.016 Q2228.63 505.016 2230.32 503.512 Q2232.03 502.007 2232.03 499.322 Q2232.03 496.637 2230.32 495.132 Q2228.63 493.627 2225.62 493.627 Q2222.59 493.627 2220.9 495.132 Q2219.23 496.637 2219.23 499.322 Z" fill="#000000" fill-rule="nonzero" fill-opacity="1" /><path clip-path="url(#clip100)" d="M2255.13 489.09 L2255.13 531.359 L2245.32 531.359 L2245.32 528.048 L2250.85 528.048 L2250.85 492.4 L2245.32 492.4 L2245.32 489.09 L2255.13 489.09 Z" fill="#000000" fill-rule="nonzero" fill-opacity="1" /></svg>
