<?xml version="1.0" encoding="utf-8"?>
<svg xmlns="http://www.w3.org/2000/svg" xmlns:xlink="http://www.w3.org/1999/xlink" width="600" height="400" viewBox="0 0 2400 1600">
<defs>
  <clipPath id="clip980">
    <rect x="0" y="0" width="2400" height="1600"/>
  </clipPath>
</defs>
<path clip-path="url(#clip980)" d="M0 1600 L2400 1600 L2400 0 L0 0  Z" fill="#ffffff" fill-rule="evenodd" fill-opacity="1"/>
<defs>
  <clipPath id="clip981">
    <rect x="156" y="47" width="2197" height="1377"/>
  </clipPath>
</defs>
<path clip-path="url(#clip980)" d="M156.598 1423.18 L2352.76 1423.18 L2352.76 47.2441 L156.598 47.2441  Z" fill="#ffffff" fill-rule="evenodd" fill-opacity="1"/>
<polyline clip-path="url(#clip981)" style="stroke:#000000; stroke-linecap:round; stroke-linejoin:round; stroke-width:2; stroke-opacity:0.1; fill:none" points="156.598,1423.18 156.598,47.2441 "/>
<polyline clip-path="url(#clip981)" style="stroke:#000000; stroke-linecap:round; stroke-linejoin:round; stroke-width:2; stroke-opacity:0.1; fill:none" points="595.83,1423.18 595.83,47.2441 "/>
<polyline clip-path="url(#clip981)" style="stroke:#000000; stroke-linecap:round; stroke-linejoin:round; stroke-width:2; stroke-opacity:0.1; fill:none" points="1035.06,1423.18 1035.06,47.2441 "/>
<polyline clip-path="url(#clip981)" style="stroke:#000000; stroke-linecap:round; stroke-linejoin:round; stroke-width:2; stroke-opacity:0.1; fill:none" points="1474.29,1423.18 1474.29,47.2441 "/>
<polyline clip-path="url(#clip981)" style="stroke:#000000; stroke-linecap:round; stroke-linejoin:round; stroke-width:2; stroke-opacity:0.1; fill:none" points="1913.52,1423.18 1913.52,47.2441 "/>
<polyline clip-path="url(#clip981)" style="stroke:#000000; stroke-linecap:round; stroke-linejoin:round; stroke-width:2; stroke-opacity:0.1; fill:none" points="2352.76,1423.18 2352.76,47.2441 "/>
<polyline clip-path="url(#clip981)" style="stroke:#000000; stroke-linecap:round; stroke-linejoin:round; stroke-width:2; stroke-opacity:0.1; fill:none" points="156.598,1398.89 2352.76,1398.89 "/>
<polyline clip-path="url(#clip981)" style="stroke:#000000; stroke-linecap:round; stroke-linejoin:round; stroke-width:2; stroke-opacity:0.1; fill:none" points="156.598,1107.75 2352.76,1107.75 "/>
<polyline clip-path="url(#clip981)" style="stroke:#000000; stroke-linecap:round; stroke-linejoin:round; stroke-width:2; stroke-opacity:0.1; fill:none" points="156.598,816.613 2352.76,816.613 "/>
<polyline clip-path="url(#clip981)" style="stroke:#000000; stroke-linecap:round; stroke-linejoin:round; stroke-width:2; stroke-opacity:0.1; fill:none" points="156.598,525.476 2352.76,525.476 "/>
<polyline clip-path="url(#clip981)" style="stroke:#000000; stroke-linecap:round; stroke-linejoin:round; stroke-width:2; stroke-opacity:0.1; fill:none" points="156.598,234.34 2352.76,234.34 "/>
<polyline clip-path="url(#clip980)" style="stroke:#000000; stroke-linecap:round; stroke-linejoin:round; stroke-width:4; stroke-opacity:1; fill:none" points="156.598,1423.18 2352.76,1423.18 "/>
<polyline clip-path="url(#clip980)" style="stroke:#000000; stroke-linecap:round; stroke-linejoin:round; stroke-width:4; stroke-opacity:1; fill:none" points="156.598,1423.18 156.598,1404.28 "/>
<polyline clip-path="url(#clip980)" style="stroke:#000000; stroke-linecap:round; stroke-linejoin:round; stroke-width:4; stroke-opacity:1; fill:none" points="595.83,1423.18 595.83,1404.28 "/>
<polyline clip-path="url(#clip980)" style="stroke:#000000; stroke-linecap:round; stroke-linejoin:round; stroke-width:4; stroke-opacity:1; fill:none" points="1035.06,1423.18 1035.06,1404.28 "/>
<polyline clip-path="url(#clip980)" style="stroke:#000000; stroke-linecap:round; stroke-linejoin:round; stroke-width:4; stroke-opacity:1; fill:none" points="1474.29,1423.18 1474.29,1404.28 "/>
<polyline clip-path="url(#clip980)" style="stroke:#000000; stroke-linecap:round; stroke-linejoin:round; stroke-width:4; stroke-opacity:1; fill:none" points="1913.52,1423.18 1913.52,1404.28 "/>
<polyline clip-path="url(#clip980)" style="stroke:#000000; stroke-linecap:round; stroke-linejoin:round; stroke-width:4; stroke-opacity:1; fill:none" points="2352.76,1423.18 2352.76,1404.28 "/>
<path clip-path="url(#clip980)" d="M133.983 1454.1 Q130.372 1454.1 128.543 1457.66 Q126.737 1461.2 126.737 1468.33 Q126.737 1475.44 128.543 1479.01 Q130.372 1482.55 133.983 1482.55 Q137.617 1482.55 139.422 1479.01 Q141.251 1475.44 141.251 1468.33 Q141.251 1461.2 139.422 1457.66 Q137.617 1454.1 133.983 1454.1 M133.983 1450.39 Q139.793 1450.39 142.848 1455 Q145.927 1459.58 145.927 1468.33 Q145.927 1477.06 142.848 1481.67 Q139.793 1486.25 133.983 1486.25 Q128.172 1486.25 125.094 1481.67 Q122.038 1477.06 122.038 1468.33 Q122.038 1459.58 125.094 1455 Q128.172 1450.39 133.983 1450.39 Z" fill="#000000" fill-rule="nonzero" fill-opacity="1" /><path clip-path="url(#clip980)" d="M154.145 1479.7 L159.029 1479.7 L159.029 1485.58 L154.145 1485.58 L154.145 1479.7 Z" fill="#000000" fill-rule="nonzero" fill-opacity="1" /><path clip-path="url(#clip980)" d="M179.214 1454.1 Q175.603 1454.1 173.774 1457.66 Q171.969 1461.2 171.969 1468.33 Q171.969 1475.44 173.774 1479.01 Q175.603 1482.55 179.214 1482.55 Q182.848 1482.55 184.654 1479.01 Q186.482 1475.44 186.482 1468.33 Q186.482 1461.2 184.654 1457.66 Q182.848 1454.1 179.214 1454.1 M179.214 1450.39 Q185.024 1450.39 188.08 1455 Q191.158 1459.58 191.158 1468.33 Q191.158 1477.06 188.08 1481.67 Q185.024 1486.25 179.214 1486.25 Q173.404 1486.25 170.325 1481.67 Q167.269 1477.06 167.269 1468.33 Q167.269 1459.58 170.325 1455 Q173.404 1450.39 179.214 1450.39 Z" fill="#000000" fill-rule="nonzero" fill-opacity="1" /><path clip-path="url(#clip980)" d="M574.013 1454.1 Q570.402 1454.1 568.573 1457.66 Q566.767 1461.2 566.767 1468.33 Q566.767 1475.44 568.573 1479.01 Q570.402 1482.55 574.013 1482.55 Q577.647 1482.55 579.453 1479.01 Q581.281 1475.44 581.281 1468.33 Q581.281 1461.2 579.453 1457.66 Q577.647 1454.1 574.013 1454.1 M574.013 1450.39 Q579.823 1450.39 582.878 1455 Q585.957 1459.58 585.957 1468.33 Q585.957 1477.06 582.878 1481.67 Q579.823 1486.25 574.013 1486.25 Q568.203 1486.25 565.124 1481.67 Q562.068 1477.06 562.068 1468.33 Q562.068 1459.58 565.124 1455 Q568.203 1450.39 574.013 1450.39 Z" fill="#000000" fill-rule="nonzero" fill-opacity="1" /><path clip-path="url(#clip980)" d="M594.175 1479.7 L599.059 1479.7 L599.059 1485.58 L594.175 1485.58 L594.175 1479.7 Z" fill="#000000" fill-rule="nonzero" fill-opacity="1" /><path clip-path="url(#clip980)" d="M613.272 1481.64 L629.591 1481.64 L629.591 1485.58 L607.647 1485.58 L607.647 1481.64 Q610.309 1478.89 614.892 1474.26 Q619.499 1469.61 620.679 1468.27 Q622.925 1465.74 623.804 1464.01 Q624.707 1462.25 624.707 1460.56 Q624.707 1457.8 622.762 1456.07 Q620.841 1454.33 617.739 1454.33 Q615.54 1454.33 613.087 1455.09 Q610.656 1455.86 607.878 1457.41 L607.878 1452.69 Q610.702 1451.55 613.156 1450.97 Q615.61 1450.39 617.647 1450.39 Q623.017 1450.39 626.212 1453.08 Q629.406 1455.77 629.406 1460.26 Q629.406 1462.39 628.596 1464.31 Q627.809 1466.2 625.702 1468.8 Q625.124 1469.47 622.022 1472.69 Q618.92 1475.88 613.272 1481.64 Z" fill="#000000" fill-rule="nonzero" fill-opacity="1" /><path clip-path="url(#clip980)" d="M1012.2 1454.1 Q1008.59 1454.1 1006.76 1457.66 Q1004.96 1461.2 1004.96 1468.33 Q1004.96 1475.44 1006.76 1479.01 Q1008.59 1482.55 1012.2 1482.55 Q1015.84 1482.55 1017.64 1479.01 Q1019.47 1475.44 1019.47 1468.33 Q1019.47 1461.2 1017.64 1457.66 Q1015.84 1454.1 1012.2 1454.1 M1012.2 1450.39 Q1018.01 1450.39 1021.07 1455 Q1024.15 1459.58 1024.15 1468.33 Q1024.15 1477.06 1021.07 1481.67 Q1018.01 1486.25 1012.2 1486.25 Q1006.39 1486.25 1003.31 1481.67 Q1000.26 1477.06 1000.26 1468.33 Q1000.26 1459.58 1003.31 1455 Q1006.39 1450.39 1012.2 1450.39 Z" fill="#000000" fill-rule="nonzero" fill-opacity="1" /><path clip-path="url(#clip980)" d="M1032.36 1479.7 L1037.25 1479.7 L1037.25 1485.58 L1032.36 1485.58 L1032.36 1479.7 Z" fill="#000000" fill-rule="nonzero" fill-opacity="1" /><path clip-path="url(#clip980)" d="M1060.28 1455.09 L1048.48 1473.54 L1060.28 1473.54 L1060.28 1455.09 M1059.05 1451.02 L1064.93 1451.02 L1064.93 1473.54 L1069.86 1473.54 L1069.86 1477.43 L1064.93 1477.43 L1064.93 1485.58 L1060.28 1485.58 L1060.28 1477.43 L1044.68 1477.43 L1044.68 1472.92 L1059.05 1451.02 Z" fill="#000000" fill-rule="nonzero" fill-opacity="1" /><path clip-path="url(#clip980)" d="M1451.6 1454.1 Q1447.99 1454.1 1446.16 1457.66 Q1444.35 1461.2 1444.35 1468.33 Q1444.35 1475.44 1446.16 1479.01 Q1447.99 1482.55 1451.6 1482.55 Q1455.23 1482.55 1457.04 1479.01 Q1458.86 1475.44 1458.86 1468.33 Q1458.86 1461.2 1457.04 1457.66 Q1455.23 1454.1 1451.6 1454.1 M1451.6 1450.39 Q1457.41 1450.39 1460.46 1455 Q1463.54 1459.58 1463.54 1468.33 Q1463.54 1477.06 1460.46 1481.67 Q1457.41 1486.25 1451.6 1486.25 Q1445.79 1486.25 1442.71 1481.67 Q1439.65 1477.06 1439.65 1468.33 Q1439.65 1459.58 1442.71 1455 Q1445.79 1450.39 1451.6 1450.39 Z" fill="#000000" fill-rule="nonzero" fill-opacity="1" /><path clip-path="url(#clip980)" d="M1471.76 1479.7 L1476.64 1479.7 L1476.64 1485.58 L1471.76 1485.58 L1471.76 1479.7 Z" fill="#000000" fill-rule="nonzero" fill-opacity="1" /><path clip-path="url(#clip980)" d="M1497.41 1466.44 Q1494.26 1466.44 1492.41 1468.59 Q1490.58 1470.74 1490.58 1474.49 Q1490.58 1478.22 1492.41 1480.39 Q1494.26 1482.55 1497.41 1482.55 Q1500.55 1482.55 1502.38 1480.39 Q1504.23 1478.22 1504.23 1474.49 Q1504.23 1470.74 1502.38 1468.59 Q1500.55 1466.44 1497.41 1466.44 M1506.69 1451.78 L1506.69 1456.04 Q1504.93 1455.21 1503.12 1454.77 Q1501.34 1454.33 1499.58 1454.33 Q1494.95 1454.33 1492.5 1457.45 Q1490.07 1460.58 1489.72 1466.9 Q1491.09 1464.89 1493.15 1463.82 Q1495.21 1462.73 1497.68 1462.73 Q1502.89 1462.73 1505.9 1465.9 Q1508.93 1469.05 1508.93 1474.49 Q1508.93 1479.82 1505.79 1483.03 Q1502.64 1486.25 1497.41 1486.25 Q1491.41 1486.25 1488.24 1481.67 Q1485.07 1477.06 1485.07 1468.33 Q1485.07 1460.14 1488.96 1455.28 Q1492.85 1450.39 1499.4 1450.39 Q1501.16 1450.39 1502.94 1450.74 Q1504.74 1451.09 1506.69 1451.78 Z" fill="#000000" fill-rule="nonzero" fill-opacity="1" /><path clip-path="url(#clip980)" d="M1890.96 1454.1 Q1887.34 1454.1 1885.52 1457.66 Q1883.71 1461.2 1883.71 1468.33 Q1883.71 1475.44 1885.52 1479.01 Q1887.34 1482.55 1890.96 1482.55 Q1894.59 1482.55 1896.39 1479.01 Q1898.22 1475.44 1898.22 1468.33 Q1898.22 1461.2 1896.39 1457.66 Q1894.59 1454.1 1890.96 1454.1 M1890.96 1450.39 Q1896.77 1450.39 1899.82 1455 Q1902.9 1459.58 1902.9 1468.33 Q1902.9 1477.06 1899.82 1481.67 Q1896.77 1486.25 1890.96 1486.25 Q1885.14 1486.25 1882.07 1481.67 Q1879.01 1477.06 1879.01 1468.33 Q1879.01 1459.58 1882.07 1455 Q1885.14 1450.39 1890.96 1450.39 Z" fill="#000000" fill-rule="nonzero" fill-opacity="1" /><path clip-path="url(#clip980)" d="M1911.12 1479.7 L1916 1479.7 L1916 1485.58 L1911.12 1485.58 L1911.12 1479.7 Z" fill="#000000" fill-rule="nonzero" fill-opacity="1" /><path clip-path="url(#clip980)" d="M1936.19 1469.17 Q1932.85 1469.17 1930.93 1470.95 Q1929.03 1472.73 1929.03 1475.86 Q1929.03 1478.98 1930.93 1480.77 Q1932.85 1482.55 1936.19 1482.55 Q1939.52 1482.55 1941.44 1480.77 Q1943.36 1478.96 1943.36 1475.86 Q1943.36 1472.73 1941.44 1470.95 Q1939.54 1469.17 1936.19 1469.17 M1931.51 1467.18 Q1928.5 1466.44 1926.81 1464.38 Q1925.14 1462.32 1925.14 1459.35 Q1925.14 1455.21 1928.08 1452.8 Q1931.05 1450.39 1936.19 1450.39 Q1941.35 1450.39 1944.29 1452.8 Q1947.23 1455.21 1947.23 1459.35 Q1947.23 1462.32 1945.54 1464.38 Q1943.87 1466.44 1940.89 1467.18 Q1944.26 1467.96 1946.14 1470.26 Q1948.04 1472.55 1948.04 1475.86 Q1948.04 1480.88 1944.96 1483.57 Q1941.9 1486.25 1936.19 1486.25 Q1930.47 1486.25 1927.39 1483.57 Q1924.33 1480.88 1924.33 1475.86 Q1924.33 1472.55 1926.23 1470.26 Q1928.13 1467.96 1931.51 1467.18 M1929.8 1459.79 Q1929.8 1462.48 1931.46 1463.98 Q1933.15 1465.49 1936.19 1465.49 Q1939.2 1465.49 1940.89 1463.98 Q1942.6 1462.48 1942.6 1459.79 Q1942.6 1457.11 1940.89 1455.6 Q1939.2 1454.1 1936.19 1454.1 Q1933.15 1454.1 1931.46 1455.6 Q1929.8 1457.11 1929.8 1459.79 Z" fill="#000000" fill-rule="nonzero" fill-opacity="1" /><path clip-path="url(#clip980)" d="M2319.91 1481.64 L2327.55 1481.64 L2327.55 1455.28 L2319.24 1456.95 L2319.24 1452.69 L2327.5 1451.02 L2332.18 1451.02 L2332.18 1481.64 L2339.82 1481.64 L2339.82 1485.58 L2319.91 1485.58 L2319.91 1481.64 Z" fill="#000000" fill-rule="nonzero" fill-opacity="1" /><path clip-path="url(#clip980)" d="M2349.26 1479.7 L2354.14 1479.7 L2354.14 1485.58 L2349.26 1485.58 L2349.26 1479.7 Z" fill="#000000" fill-rule="nonzero" fill-opacity="1" /><path clip-path="url(#clip980)" d="M2374.33 1454.1 Q2370.72 1454.1 2368.89 1457.66 Q2367.08 1461.2 2367.08 1468.33 Q2367.08 1475.44 2368.89 1479.01 Q2370.72 1482.55 2374.33 1482.55 Q2377.96 1482.55 2379.77 1479.01 Q2381.6 1475.44 2381.6 1468.33 Q2381.6 1461.2 2379.77 1457.66 Q2377.96 1454.1 2374.33 1454.1 M2374.33 1450.39 Q2380.14 1450.39 2383.2 1455 Q2386.27 1459.58 2386.27 1468.33 Q2386.27 1477.06 2383.2 1481.67 Q2380.14 1486.25 2374.33 1486.25 Q2368.52 1486.25 2365.44 1481.67 Q2362.39 1477.06 2362.39 1468.33 Q2362.39 1459.58 2365.44 1455 Q2368.52 1450.39 2374.33 1450.39 Z" fill="#000000" fill-rule="nonzero" fill-opacity="1" /><path clip-path="url(#clip980)" d="M1253.74 1522.27 L1253.74 1532.4 L1265.8 1532.4 L1265.8 1536.95 L1253.74 1536.95 L1253.74 1556.3 Q1253.74 1560.66 1254.92 1561.9 Q1256.13 1563.14 1259.79 1563.14 L1265.8 1563.14 L1265.8 1568.04 L1259.79 1568.04 Q1253.01 1568.04 1250.43 1565.53 Q1247.85 1562.98 1247.85 1556.3 L1247.85 1536.95 L1243.55 1536.95 L1243.55 1532.4 L1247.85 1532.4 L1247.85 1522.27 L1253.74 1522.27 Z" fill="#000000" fill-rule="nonzero" fill-opacity="1" /><polyline clip-path="url(#clip980)" style="stroke:#000000; stroke-linecap:round; stroke-linejoin:round; stroke-width:4; stroke-opacity:1; fill:none" points="156.598,1423.18 156.598,47.2441 "/>
<polyline clip-path="url(#clip980)" style="stroke:#000000; stroke-linecap:round; stroke-linejoin:round; stroke-width:4; stroke-opacity:1; fill:none" points="156.598,1398.89 175.496,1398.89 "/>
<polyline clip-path="url(#clip980)" style="stroke:#000000; stroke-linecap:round; stroke-linejoin:round; stroke-width:4; stroke-opacity:1; fill:none" points="156.598,1107.75 175.496,1107.75 "/>
<polyline clip-path="url(#clip980)" style="stroke:#000000; stroke-linecap:round; stroke-linejoin:round; stroke-width:4; stroke-opacity:1; fill:none" points="156.598,816.613 175.496,816.613 "/>
<polyline clip-path="url(#clip980)" style="stroke:#000000; stroke-linecap:round; stroke-linejoin:round; stroke-width:4; stroke-opacity:1; fill:none" points="156.598,525.476 175.496,525.476 "/>
<polyline clip-path="url(#clip980)" style="stroke:#000000; stroke-linecap:round; stroke-linejoin:round; stroke-width:4; stroke-opacity:1; fill:none" points="156.598,234.34 175.496,234.34 "/>
<path clip-path="url(#clip980)" d="M64.6495 1384.68 Q61.0384 1384.68 59.2097 1388.25 Q57.4041 1391.79 57.4041 1398.92 Q57.4041 1406.03 59.2097 1409.59 Q61.0384 1413.13 64.6495 1413.13 Q68.2837 1413.13 70.0892 1409.59 Q71.9179 1406.03 71.9179 1398.92 Q71.9179 1391.79 70.0892 1388.25 Q68.2837 1384.68 64.6495 1384.68 M64.6495 1380.98 Q70.4596 1380.98 73.5152 1385.59 Q76.5938 1390.17 76.5938 1398.92 Q76.5938 1407.65 73.5152 1412.25 Q70.4596 1416.84 64.6495 1416.84 Q58.8393 1416.84 55.7606 1412.25 Q52.7051 1407.65 52.7051 1398.92 Q52.7051 1390.17 55.7606 1385.59 Q58.8393 1380.98 64.6495 1380.98 Z" fill="#000000" fill-rule="nonzero" fill-opacity="1" /><path clip-path="url(#clip980)" d="M84.8114 1410.29 L89.6956 1410.29 L89.6956 1416.17 L84.8114 1416.17 L84.8114 1410.29 Z" fill="#000000" fill-rule="nonzero" fill-opacity="1" /><path clip-path="url(#clip980)" d="M100.691 1412.23 L108.33 1412.23 L108.33 1385.86 L100.02 1387.53 L100.02 1383.27 L108.283 1381.61 L112.959 1381.61 L112.959 1412.23 L120.598 1412.23 L120.598 1416.17 L100.691 1416.17 L100.691 1412.23 Z" fill="#000000" fill-rule="nonzero" fill-opacity="1" /><path clip-path="url(#clip980)" d="M65.0198 1093.55 Q61.4087 1093.55 59.58 1097.11 Q57.7745 1100.65 57.7745 1107.78 Q57.7745 1114.89 59.58 1118.46 Q61.4087 1122 65.0198 1122 Q68.6541 1122 70.4596 1118.46 Q72.2883 1114.89 72.2883 1107.78 Q72.2883 1100.65 70.4596 1097.11 Q68.6541 1093.55 65.0198 1093.55 M65.0198 1089.84 Q70.83 1089.84 73.8855 1094.45 Q76.9642 1099.03 76.9642 1107.78 Q76.9642 1116.51 73.8855 1121.12 Q70.83 1125.7 65.0198 1125.7 Q59.2097 1125.7 56.131 1121.12 Q53.0754 1116.51 53.0754 1107.78 Q53.0754 1099.03 56.131 1094.45 Q59.2097 1089.84 65.0198 1089.84 Z" fill="#000000" fill-rule="nonzero" fill-opacity="1" /><path clip-path="url(#clip980)" d="M85.1818 1119.15 L90.066 1119.15 L90.066 1125.03 L85.1818 1125.03 L85.1818 1119.15 Z" fill="#000000" fill-rule="nonzero" fill-opacity="1" /><path clip-path="url(#clip980)" d="M104.279 1121.09 L120.598 1121.09 L120.598 1125.03 L98.6539 1125.03 L98.6539 1121.09 Q101.316 1118.34 105.899 1113.71 Q110.506 1109.06 111.686 1107.71 Q113.932 1105.19 114.811 1103.46 Q115.714 1101.7 115.714 1100.01 Q115.714 1097.25 113.77 1095.52 Q111.848 1093.78 108.746 1093.78 Q106.547 1093.78 104.094 1094.54 Q101.663 1095.31 98.8854 1096.86 L98.8854 1092.14 Q101.709 1091 104.163 1090.42 Q106.617 1089.84 108.654 1089.84 Q114.024 1089.84 117.219 1092.53 Q120.413 1095.21 120.413 1099.71 Q120.413 1101.83 119.603 1103.76 Q118.816 1105.65 116.709 1108.25 Q116.131 1108.92 113.029 1112.14 Q109.927 1115.33 104.279 1121.09 Z" fill="#000000" fill-rule="nonzero" fill-opacity="1" /><path clip-path="url(#clip980)" d="M64.0708 802.412 Q60.4597 802.412 58.631 805.976 Q56.8254 809.518 56.8254 816.648 Q56.8254 823.754 58.631 827.319 Q60.4597 830.86 64.0708 830.86 Q67.705 830.86 69.5105 827.319 Q71.3392 823.754 71.3392 816.648 Q71.3392 809.518 69.5105 805.976 Q67.705 802.412 64.0708 802.412 M64.0708 798.708 Q69.8809 798.708 72.9365 803.314 Q76.0151 807.898 76.0151 816.648 Q76.0151 825.374 72.9365 829.981 Q69.8809 834.564 64.0708 834.564 Q58.2606 834.564 55.1819 829.981 Q52.1264 825.374 52.1264 816.648 Q52.1264 807.898 55.1819 803.314 Q58.2606 798.708 64.0708 798.708 Z" fill="#000000" fill-rule="nonzero" fill-opacity="1" /><path clip-path="url(#clip980)" d="M84.2327 828.013 L89.1169 828.013 L89.1169 833.893 L84.2327 833.893 L84.2327 828.013 Z" fill="#000000" fill-rule="nonzero" fill-opacity="1" /><path clip-path="url(#clip980)" d="M113.469 815.259 Q116.825 815.976 118.7 818.245 Q120.598 820.513 120.598 823.847 Q120.598 828.962 117.08 831.763 Q113.561 834.564 107.08 834.564 Q104.904 834.564 102.589 834.124 Q100.297 833.708 97.8437 832.851 L97.8437 828.337 Q99.7882 829.472 102.103 830.05 Q104.418 830.629 106.941 830.629 Q111.339 830.629 113.631 828.893 Q115.945 827.157 115.945 823.847 Q115.945 820.791 113.793 819.078 Q111.663 817.342 107.844 817.342 L103.816 817.342 L103.816 813.499 L108.029 813.499 Q111.478 813.499 113.307 812.134 Q115.135 810.745 115.135 808.152 Q115.135 805.49 113.237 804.078 Q111.362 802.643 107.844 802.643 Q105.922 802.643 103.723 803.06 Q101.524 803.476 98.8854 804.356 L98.8854 800.189 Q101.547 799.449 103.862 799.078 Q106.2 798.708 108.26 798.708 Q113.584 798.708 116.686 801.138 Q119.788 803.546 119.788 807.666 Q119.788 810.536 118.145 812.527 Q116.501 814.495 113.469 815.259 Z" fill="#000000" fill-rule="nonzero" fill-opacity="1" /><path clip-path="url(#clip980)" d="M62.9365 511.275 Q59.3254 511.275 57.4967 514.84 Q55.6912 518.382 55.6912 525.511 Q55.6912 532.618 57.4967 536.182 Q59.3254 539.724 62.9365 539.724 Q66.5707 539.724 68.3763 536.182 Q70.205 532.618 70.205 525.511 Q70.205 518.382 68.3763 514.84 Q66.5707 511.275 62.9365 511.275 M62.9365 507.571 Q68.7467 507.571 71.8022 512.178 Q74.8809 516.761 74.8809 525.511 Q74.8809 534.238 71.8022 538.844 Q68.7467 543.428 62.9365 543.428 Q57.1264 543.428 54.0477 538.844 Q50.9921 534.238 50.9921 525.511 Q50.9921 516.761 54.0477 512.178 Q57.1264 507.571 62.9365 507.571 Z" fill="#000000" fill-rule="nonzero" fill-opacity="1" /><path clip-path="url(#clip980)" d="M83.0984 536.877 L87.9827 536.877 L87.9827 542.756 L83.0984 542.756 L83.0984 536.877 Z" fill="#000000" fill-rule="nonzero" fill-opacity="1" /><path clip-path="url(#clip980)" d="M111.015 512.271 L99.2095 530.719 L111.015 530.719 L111.015 512.271 M109.788 508.196 L115.668 508.196 L115.668 530.719 L120.598 530.719 L120.598 534.608 L115.668 534.608 L115.668 542.756 L111.015 542.756 L111.015 534.608 L95.4132 534.608 L95.4132 530.094 L109.788 508.196 Z" fill="#000000" fill-rule="nonzero" fill-opacity="1" /><path clip-path="url(#clip980)" d="M64.418 220.139 Q60.8069 220.139 58.9782 223.704 Q57.1726 227.245 57.1726 234.375 Q57.1726 241.481 58.9782 245.046 Q60.8069 248.588 64.418 248.588 Q68.0522 248.588 69.8578 245.046 Q71.6865 241.481 71.6865 234.375 Q71.6865 227.245 69.8578 223.704 Q68.0522 220.139 64.418 220.139 M64.418 216.435 Q70.2281 216.435 73.2837 221.042 Q76.3624 225.625 76.3624 234.375 Q76.3624 243.102 73.2837 247.708 Q70.2281 252.291 64.418 252.291 Q58.6078 252.291 55.5291 247.708 Q52.4736 243.102 52.4736 234.375 Q52.4736 225.625 55.5291 221.042 Q58.6078 216.435 64.418 216.435 Z" fill="#000000" fill-rule="nonzero" fill-opacity="1" /><path clip-path="url(#clip980)" d="M84.5799 245.74 L89.4641 245.74 L89.4641 251.62 L84.5799 251.62 L84.5799 245.74 Z" fill="#000000" fill-rule="nonzero" fill-opacity="1" /><path clip-path="url(#clip980)" d="M99.6956 217.06 L118.052 217.06 L118.052 220.995 L103.978 220.995 L103.978 229.467 Q104.996 229.12 106.015 228.958 Q107.033 228.773 108.052 228.773 Q113.839 228.773 117.219 231.944 Q120.598 235.116 120.598 240.532 Q120.598 246.111 117.126 249.213 Q113.654 252.291 107.334 252.291 Q105.159 252.291 102.89 251.921 Q100.645 251.551 98.2372 250.81 L98.2372 246.111 Q100.321 247.245 102.543 247.801 Q104.765 248.356 107.242 248.356 Q111.246 248.356 113.584 246.25 Q115.922 244.143 115.922 240.532 Q115.922 236.921 113.584 234.815 Q111.246 232.708 107.242 232.708 Q105.367 232.708 103.492 233.125 Q101.64 233.541 99.6956 234.421 L99.6956 217.06 Z" fill="#000000" fill-rule="nonzero" fill-opacity="1" /><polyline clip-path="url(#clip981)" style="stroke:#009af9; stroke-linecap:round; stroke-linejoin:round; stroke-width:4; stroke-opacity:1; fill:none" points="156.598,234.34 157.374,200.896 158.188,211.747 159.105,194.81 160.135,219.051 161.295,196.918 162.6,194.597 164.067,172.493 165.718,193.33 167.576,138.893 169.665,97.1278 172.016,86.1857 174.661,156.382 177.636,189.789 180.983,146.119 184.749,237.401 188.985,319.806 193.751,282.686 199.113,308.615 205.144,324.934 211.93,494.959 219.564,563.672 228.152,584.751 237.814,489.394 248.683,486.405 260.912,362.158 274.668,315.841 290.144,302.581 307.555,234.682 327.142,279.537 349.178,291.78 373.967,506.337 401.856,508.761 433.231,482.968 468.527,263.669 508.236,552.74 548.964,730.436 594.513,757.59 645.756,912.804 703.404,999.939 768.258,1031.48 841.218,1013.05 923.299,904.384 1015.64,881.096 1107.97,920.154 1195.64,898.272 1294.26,588.036 1405.22,923.735 1483.92,1145.92 1572.47,1208.86 1672.08,1112.82 1784.14,1118.63 1897.13,1136.06 2024.24,1299.97 2136.48,1323.83 2262.76,1378.76 2352.76,1382.43 "/>
<polyline clip-path="url(#clip981)" style="stroke:#e26f46; stroke-linecap:round; stroke-linejoin:round; stroke-width:4; stroke-opacity:1; fill:none" points="156.598,234.34 157.374,200.896 158.188,211.747 159.105,194.81 160.135,219.051 161.295,196.919 162.6,194.597 164.067,172.494 165.718,193.331 167.576,138.893 169.665,97.1279 172.016,86.1862 174.661,156.383 177.636,189.792 180.983,146.121 184.749,237.402 188.985,319.808 193.751,282.688 199.113,308.621 205.144,324.946 211.93,494.92 219.564,563.642 228.152,584.731 237.814,489.362 248.683,486.383 260.912,362.114 274.668,315.801 290.144,302.563 307.555,234.665 327.142,279.586 349.178,291.894 373.967,506.366 401.856,508.87 433.231,483.151 468.527,263.716 508.236,552.45 548.964,730.276 594.513,757.652 645.756,912.998 703.404,1000.44 768.258,1032.29 841.218,1014.13 923.299,905.518 1015.64,882.749 1107.97,922.529 1195.64,901.142 1294.26,590.87 1405.22,924.133 1483.92,1145.11 1572.47,1208.7 1672.08,1112.44 1784.14,1118.97 1897.13,1137.17 2024.24,1300.38 2136.48,1324.8 2262.76,1380.34 2352.76,1384.24 "/>
<path clip-path="url(#clip980)" d="M1850.91 248.629 L2279.55 248.629 L2279.55 93.1086 L1850.91 93.1086  Z" fill="#ffffff" fill-rule="evenodd" fill-opacity="1"/>
<polyline clip-path="url(#clip980)" style="stroke:#000000; stroke-linecap:round; stroke-linejoin:round; stroke-width:4; stroke-opacity:1; fill:none" points="1850.91,248.629 2279.55,248.629 2279.55,93.1086 1850.91,93.1086 1850.91,248.629 "/>
<polyline clip-path="url(#clip980)" style="stroke:#009af9; stroke-linecap:round; stroke-linejoin:round; stroke-width:4; stroke-opacity:1; fill:none" points="1875.31,144.949 2021.72,144.949 "/>
<path clip-path="url(#clip980)" d="M2046.12 151.997 L2046.12 136.303 L2050.38 136.303 L2050.38 151.835 Q2050.38 155.516 2051.82 157.368 Q2053.25 159.196 2056.12 159.196 Q2059.57 159.196 2061.56 156.997 Q2063.58 154.798 2063.58 151.002 L2063.58 136.303 L2067.84 136.303 L2067.84 162.229 L2063.58 162.229 L2063.58 158.247 Q2062.02 160.608 2059.96 161.766 Q2057.93 162.9 2055.22 162.9 Q2050.75 162.9 2048.44 160.122 Q2046.12 157.344 2046.12 151.997 M2056.84 135.678 L2056.84 135.678 Z" fill="#000000" fill-rule="nonzero" fill-opacity="1" /><path clip-path="url(#clip980)" d="M2076.21 126.21 L2086.03 126.21 L2086.03 129.52 L2080.47 129.52 L2080.47 165.168 L2086.03 165.168 L2086.03 168.479 L2076.21 168.479 L2076.21 126.21 Z" fill="#000000" fill-rule="nonzero" fill-opacity="1" /><path clip-path="url(#clip980)" d="M2096.52 158.293 L2104.15 158.293 L2104.15 131.928 L2095.84 133.595 L2095.84 129.335 L2104.11 127.669 L2108.78 127.669 L2108.78 158.293 L2116.42 158.293 L2116.42 162.229 L2096.52 162.229 L2096.52 158.293 Z" fill="#000000" fill-rule="nonzero" fill-opacity="1" /><path clip-path="url(#clip980)" d="M2135.22 126.21 L2135.22 168.479 L2125.4 168.479 L2125.4 165.168 L2130.94 165.168 L2130.94 129.52 L2125.4 129.52 L2125.4 126.21 L2135.22 126.21 Z" fill="#000000" fill-rule="nonzero" fill-opacity="1" /><polyline clip-path="url(#clip980)" style="stroke:#e26f46; stroke-linecap:round; stroke-linejoin:round; stroke-width:4; stroke-opacity:1; fill:none" points="1875.31,196.789 2021.72,196.789 "/>
<path clip-path="url(#clip980)" d="M2046.12 179.509 L2075.36 179.509 L2075.36 183.444 L2063.09 183.444 L2063.09 214.069 L2058.39 214.069 L2058.39 183.444 L2046.12 183.444 L2046.12 179.509 Z" fill="#000000" fill-rule="nonzero" fill-opacity="1" /><path clip-path="url(#clip980)" d="M2087.74 192.124 Q2087.02 191.708 2086.17 191.522 Q2085.33 191.314 2084.32 191.314 Q2080.71 191.314 2078.76 193.675 Q2076.84 196.013 2076.84 200.411 L2076.84 214.069 L2072.56 214.069 L2072.56 188.143 L2076.84 188.143 L2076.84 192.171 Q2078.18 189.809 2080.34 188.675 Q2082.49 187.518 2085.57 187.518 Q2086.01 187.518 2086.54 187.587 Q2087.07 187.634 2087.72 187.749 L2087.74 192.124 Z" fill="#000000" fill-rule="nonzero" fill-opacity="1" /><path clip-path="url(#clip980)" d="M2091.77 203.837 L2091.77 188.143 L2096.03 188.143 L2096.03 203.675 Q2096.03 207.356 2097.46 209.208 Q2098.9 211.036 2101.77 211.036 Q2105.22 211.036 2107.21 208.837 Q2109.22 206.638 2109.22 202.842 L2109.22 188.143 L2113.48 188.143 L2113.48 214.069 L2109.22 214.069 L2109.22 210.087 Q2107.67 212.448 2105.61 213.606 Q2103.58 214.74 2100.87 214.74 Q2096.4 214.74 2094.08 211.962 Q2091.77 209.184 2091.77 203.837 M2102.49 187.518 L2102.49 187.518 Z" fill="#000000" fill-rule="nonzero" fill-opacity="1" /><path clip-path="url(#clip980)" d="M2144.43 200.041 L2144.43 202.124 L2124.85 202.124 Q2125.13 206.522 2127.49 208.837 Q2129.87 211.129 2134.11 211.129 Q2136.56 211.129 2138.85 210.527 Q2141.17 209.925 2143.44 208.721 L2143.44 212.749 Q2141.14 213.721 2138.74 214.231 Q2136.33 214.74 2133.85 214.74 Q2127.65 214.74 2124.02 211.129 Q2120.4 207.518 2120.4 201.36 Q2120.4 194.995 2123.83 191.268 Q2127.28 187.518 2133.11 187.518 Q2138.34 187.518 2141.38 190.897 Q2144.43 194.254 2144.43 200.041 M2140.17 198.791 Q2140.13 195.296 2138.21 193.212 Q2136.31 191.129 2133.16 191.129 Q2129.59 191.129 2127.44 193.143 Q2125.31 195.157 2124.99 198.814 L2140.17 198.791 Z" fill="#000000" fill-rule="nonzero" fill-opacity="1" /><path clip-path="url(#clip980)" d="M2166.05 203.837 L2166.05 188.143 L2170.31 188.143 L2170.31 203.675 Q2170.31 207.356 2171.75 209.208 Q2173.18 211.036 2176.05 211.036 Q2179.5 211.036 2181.49 208.837 Q2183.51 206.638 2183.51 202.842 L2183.51 188.143 L2187.76 188.143 L2187.76 214.069 L2183.51 214.069 L2183.51 210.087 Q2181.95 212.448 2179.89 213.606 Q2177.86 214.74 2175.15 214.74 Q2170.68 214.74 2168.37 211.962 Q2166.05 209.184 2166.05 203.837 M2176.77 187.518 L2176.77 187.518 Z" fill="#000000" fill-rule="nonzero" fill-opacity="1" /><path clip-path="url(#clip980)" d="M2196.14 178.05 L2205.96 178.05 L2205.96 181.36 L2200.4 181.36 L2200.4 217.008 L2205.96 217.008 L2205.96 220.319 L2196.14 220.319 L2196.14 178.05 Z" fill="#000000" fill-rule="nonzero" fill-opacity="1" /><path clip-path="url(#clip980)" d="M2216.45 210.133 L2224.08 210.133 L2224.08 183.768 L2215.77 185.435 L2215.77 181.175 L2224.04 179.509 L2228.71 179.509 L2228.71 210.133 L2236.35 210.133 L2236.35 214.069 L2216.45 214.069 L2216.45 210.133 Z" fill="#000000" fill-rule="nonzero" fill-opacity="1" /><path clip-path="url(#clip980)" d="M2255.15 178.05 L2255.15 220.319 L2245.33 220.319 L2245.33 217.008 L2250.87 217.008 L2250.87 181.36 L2245.33 181.36 L2245.33 178.05 L2255.15 178.05 Z" fill="#000000" fill-rule="nonzero" fill-opacity="1" /></svg>
