<?xml version="1.0" encoding="utf-8"?>
<svg xmlns="http://www.w3.org/2000/svg" xmlns:xlink="http://www.w3.org/1999/xlink" width="600" height="400" viewBox="0 0 2400 1600">
<defs>
  <clipPath id="clip050">
    <rect x="0" y="0" width="2400" height="1600"/>
  </clipPath>
</defs>
<path clip-path="url(#clip050)" d="M0 1600 L2400 1600 L2400 0 L0 0  Z" fill="#ffffff" fill-rule="evenodd" fill-opacity="1"/>
<defs>
  <clipPath id="clip051">
    <rect x="480" y="0" width="1681" height="1600"/>
  </clipPath>
</defs>
<path clip-path="url(#clip050)" d="M192.941 1423.18 L2352.76 1423.18 L2352.76 47.2441 L192.941 47.2441  Z" fill="#ffffff" fill-rule="evenodd" fill-opacity="1"/>
<defs>
  <clipPath id="clip052">
    <rect x="192" y="47" width="2161" height="1377"/>
  </clipPath>
</defs>
<polyline clip-path="url(#clip052)" style="stroke:#000000; stroke-linecap:round; stroke-linejoin:round; stroke-width:2; stroke-opacity:0.1; fill:none" points="192.941,1423.18 192.941,47.2441 "/>
<polyline clip-path="url(#clip052)" style="stroke:#000000; stroke-linecap:round; stroke-linejoin:round; stroke-width:2; stroke-opacity:0.1; fill:none" points="880.431,1423.18 880.431,47.2441 "/>
<polyline clip-path="url(#clip052)" style="stroke:#000000; stroke-linecap:round; stroke-linejoin:round; stroke-width:2; stroke-opacity:0.1; fill:none" points="1567.92,1423.18 1567.92,47.2441 "/>
<polyline clip-path="url(#clip052)" style="stroke:#000000; stroke-linecap:round; stroke-linejoin:round; stroke-width:2; stroke-opacity:0.1; fill:none" points="2255.41,1423.18 2255.41,47.2441 "/>
<polyline clip-path="url(#clip050)" style="stroke:#000000; stroke-linecap:round; stroke-linejoin:round; stroke-width:4; stroke-opacity:1; fill:none" points="192.941,1423.18 2352.76,1423.18 "/>
<polyline clip-path="url(#clip050)" style="stroke:#000000; stroke-linecap:round; stroke-linejoin:round; stroke-width:4; stroke-opacity:1; fill:none" points="192.941,1423.18 192.941,1404.28 "/>
<polyline clip-path="url(#clip050)" style="stroke:#000000; stroke-linecap:round; stroke-linejoin:round; stroke-width:4; stroke-opacity:1; fill:none" points="880.431,1423.18 880.431,1404.28 "/>
<polyline clip-path="url(#clip050)" style="stroke:#000000; stroke-linecap:round; stroke-linejoin:round; stroke-width:4; stroke-opacity:1; fill:none" points="1567.92,1423.18 1567.92,1404.28 "/>
<polyline clip-path="url(#clip050)" style="stroke:#000000; stroke-linecap:round; stroke-linejoin:round; stroke-width:4; stroke-opacity:1; fill:none" points="2255.41,1423.18 2255.41,1404.28 "/>
<path clip-path="url(#clip050)" d="M170.325 1454.1 Q166.714 1454.1 164.885 1457.66 Q163.08 1461.2 163.08 1468.33 Q163.08 1475.44 164.885 1479.01 Q166.714 1482.55 170.325 1482.55 Q173.959 1482.55 175.765 1479.01 Q177.593 1475.44 177.593 1468.33 Q177.593 1461.2 175.765 1457.66 Q173.959 1454.1 170.325 1454.1 M170.325 1450.39 Q176.135 1450.39 179.191 1455 Q182.269 1459.58 182.269 1468.33 Q182.269 1477.06 179.191 1481.67 Q176.135 1486.25 170.325 1486.25 Q164.515 1486.25 161.436 1481.67 Q158.381 1477.06 158.381 1468.33 Q158.381 1459.58 161.436 1455 Q164.515 1450.39 170.325 1450.39 Z" fill="#000000" fill-rule="nonzero" fill-opacity="1" /><path clip-path="url(#clip050)" d="M190.487 1479.7 L195.371 1479.7 L195.371 1485.58 L190.487 1485.58 L190.487 1479.7 Z" fill="#000000" fill-rule="nonzero" fill-opacity="1" /><path clip-path="url(#clip050)" d="M215.556 1454.1 Q211.945 1454.1 210.116 1457.66 Q208.311 1461.2 208.311 1468.33 Q208.311 1475.44 210.116 1479.01 Q211.945 1482.55 215.556 1482.55 Q219.19 1482.55 220.996 1479.01 Q222.825 1475.44 222.825 1468.33 Q222.825 1461.2 220.996 1457.66 Q219.19 1454.1 215.556 1454.1 M215.556 1450.39 Q221.366 1450.39 224.422 1455 Q227.501 1459.58 227.501 1468.33 Q227.501 1477.06 224.422 1481.67 Q221.366 1486.25 215.556 1486.25 Q209.746 1486.25 206.667 1481.67 Q203.612 1477.06 203.612 1468.33 Q203.612 1459.58 206.667 1455 Q209.746 1450.39 215.556 1450.39 Z" fill="#000000" fill-rule="nonzero" fill-opacity="1" /><path clip-path="url(#clip050)" d="M858.313 1454.1 Q854.702 1454.1 852.873 1457.66 Q851.068 1461.2 851.068 1468.33 Q851.068 1475.44 852.873 1479.01 Q854.702 1482.55 858.313 1482.55 Q861.947 1482.55 863.753 1479.01 Q865.582 1475.44 865.582 1468.33 Q865.582 1461.2 863.753 1457.66 Q861.947 1454.1 858.313 1454.1 M858.313 1450.39 Q864.123 1450.39 867.179 1455 Q870.258 1459.58 870.258 1468.33 Q870.258 1477.06 867.179 1481.67 Q864.123 1486.25 858.313 1486.25 Q852.503 1486.25 849.424 1481.67 Q846.369 1477.06 846.369 1468.33 Q846.369 1459.58 849.424 1455 Q852.503 1450.39 858.313 1450.39 Z" fill="#000000" fill-rule="nonzero" fill-opacity="1" /><path clip-path="url(#clip050)" d="M878.475 1479.7 L883.359 1479.7 L883.359 1485.58 L878.475 1485.58 L878.475 1479.7 Z" fill="#000000" fill-rule="nonzero" fill-opacity="1" /><path clip-path="url(#clip050)" d="M893.591 1451.02 L911.947 1451.02 L911.947 1454.96 L897.873 1454.96 L897.873 1463.43 Q898.892 1463.08 899.91 1462.92 Q900.929 1462.73 901.947 1462.73 Q907.734 1462.73 911.114 1465.9 Q914.494 1469.08 914.494 1474.49 Q914.494 1480.07 911.021 1483.17 Q907.549 1486.25 901.23 1486.25 Q899.054 1486.25 896.785 1485.88 Q894.54 1485.51 892.133 1484.77 L892.133 1480.07 Q894.216 1481.2 896.438 1481.76 Q898.66 1482.32 901.137 1482.32 Q905.142 1482.32 907.48 1480.21 Q909.818 1478.1 909.818 1474.49 Q909.818 1470.88 907.48 1468.77 Q905.142 1466.67 901.137 1466.67 Q899.262 1466.67 897.387 1467.08 Q895.535 1467.5 893.591 1468.38 L893.591 1451.02 Z" fill="#000000" fill-rule="nonzero" fill-opacity="1" /><path clip-path="url(#clip050)" d="M1535.07 1481.64 L1542.71 1481.64 L1542.71 1455.28 L1534.4 1456.95 L1534.4 1452.69 L1542.67 1451.02 L1547.34 1451.02 L1547.34 1481.64 L1554.98 1481.64 L1554.98 1485.58 L1535.07 1485.58 L1535.07 1481.64 Z" fill="#000000" fill-rule="nonzero" fill-opacity="1" /><path clip-path="url(#clip050)" d="M1564.43 1479.7 L1569.31 1479.7 L1569.31 1485.58 L1564.43 1485.58 L1564.43 1479.7 Z" fill="#000000" fill-rule="nonzero" fill-opacity="1" /><path clip-path="url(#clip050)" d="M1589.5 1454.1 Q1585.88 1454.1 1584.06 1457.66 Q1582.25 1461.2 1582.25 1468.33 Q1582.25 1475.44 1584.06 1479.01 Q1585.88 1482.55 1589.5 1482.55 Q1593.13 1482.55 1594.94 1479.01 Q1596.76 1475.44 1596.76 1468.33 Q1596.76 1461.2 1594.94 1457.66 Q1593.13 1454.1 1589.5 1454.1 M1589.5 1450.39 Q1595.31 1450.39 1598.36 1455 Q1601.44 1459.58 1601.44 1468.33 Q1601.44 1477.06 1598.36 1481.67 Q1595.31 1486.25 1589.5 1486.25 Q1583.69 1486.25 1580.61 1481.67 Q1577.55 1477.06 1577.55 1468.33 Q1577.55 1459.58 1580.61 1455 Q1583.69 1450.39 1589.5 1450.39 Z" fill="#000000" fill-rule="nonzero" fill-opacity="1" /><path clip-path="url(#clip050)" d="M2223.06 1481.64 L2230.7 1481.64 L2230.7 1455.28 L2222.39 1456.95 L2222.39 1452.69 L2230.66 1451.02 L2235.33 1451.02 L2235.33 1481.64 L2242.97 1481.64 L2242.97 1485.58 L2223.06 1485.58 L2223.06 1481.64 Z" fill="#000000" fill-rule="nonzero" fill-opacity="1" /><path clip-path="url(#clip050)" d="M2252.41 1479.7 L2257.3 1479.7 L2257.3 1485.58 L2252.41 1485.58 L2252.41 1479.7 Z" fill="#000000" fill-rule="nonzero" fill-opacity="1" /><path clip-path="url(#clip050)" d="M2267.53 1451.02 L2285.89 1451.02 L2285.89 1454.96 L2271.81 1454.96 L2271.81 1463.43 Q2272.83 1463.08 2273.85 1462.92 Q2274.87 1462.73 2275.89 1462.73 Q2281.67 1462.73 2285.05 1465.9 Q2288.43 1469.08 2288.43 1474.49 Q2288.43 1480.07 2284.96 1483.17 Q2281.49 1486.25 2275.17 1486.25 Q2272.99 1486.25 2270.72 1485.88 Q2268.48 1485.51 2266.07 1484.77 L2266.07 1480.07 Q2268.16 1481.2 2270.38 1481.76 Q2272.6 1482.32 2275.08 1482.32 Q2279.08 1482.32 2281.42 1480.21 Q2283.76 1478.1 2283.76 1474.49 Q2283.76 1470.88 2281.42 1468.77 Q2279.08 1466.67 2275.08 1466.67 Q2273.2 1466.67 2271.33 1467.08 Q2269.47 1467.5 2267.53 1468.38 L2267.53 1451.02 Z" fill="#000000" fill-rule="nonzero" fill-opacity="1" /><path clip-path="url(#clip050)" d="M1271.91 1522.27 L1271.91 1532.4 L1283.97 1532.4 L1283.97 1536.95 L1271.91 1536.95 L1271.91 1556.3 Q1271.91 1560.66 1273.09 1561.9 Q1274.3 1563.14 1277.96 1563.14 L1283.97 1563.14 L1283.97 1568.04 L1277.96 1568.04 Q1271.18 1568.04 1268.6 1565.53 Q1266.02 1562.98 1266.02 1556.3 L1266.02 1536.95 L1261.72 1536.95 L1261.72 1532.4 L1266.02 1532.4 L1266.02 1522.27 L1271.91 1522.27 Z" fill="#000000" fill-rule="nonzero" fill-opacity="1" /><polyline clip-path="url(#clip052)" style="stroke:#000000; stroke-linecap:round; stroke-linejoin:round; stroke-width:2; stroke-opacity:0.1; fill:none" points="192.941,1207.19 2352.76,1207.19 "/>
<polyline clip-path="url(#clip052)" style="stroke:#000000; stroke-linecap:round; stroke-linejoin:round; stroke-width:2; stroke-opacity:0.1; fill:none" points="192.941,871.394 2352.76,871.394 "/>
<polyline clip-path="url(#clip052)" style="stroke:#000000; stroke-linecap:round; stroke-linejoin:round; stroke-width:2; stroke-opacity:0.1; fill:none" points="192.941,535.597 2352.76,535.597 "/>
<polyline clip-path="url(#clip052)" style="stroke:#000000; stroke-linecap:round; stroke-linejoin:round; stroke-width:2; stroke-opacity:0.1; fill:none" points="192.941,199.8 2352.76,199.8 "/>
<polyline clip-path="url(#clip050)" style="stroke:#000000; stroke-linecap:round; stroke-linejoin:round; stroke-width:4; stroke-opacity:1; fill:none" points="192.941,1423.18 192.941,47.2441 "/>
<polyline clip-path="url(#clip050)" style="stroke:#000000; stroke-linecap:round; stroke-linejoin:round; stroke-width:4; stroke-opacity:1; fill:none" points="192.941,1207.19 211.838,1207.19 "/>
<polyline clip-path="url(#clip050)" style="stroke:#000000; stroke-linecap:round; stroke-linejoin:round; stroke-width:4; stroke-opacity:1; fill:none" points="192.941,871.394 211.838,871.394 "/>
<polyline clip-path="url(#clip050)" style="stroke:#000000; stroke-linecap:round; stroke-linejoin:round; stroke-width:4; stroke-opacity:1; fill:none" points="192.941,535.597 211.838,535.597 "/>
<polyline clip-path="url(#clip050)" style="stroke:#000000; stroke-linecap:round; stroke-linejoin:round; stroke-width:4; stroke-opacity:1; fill:none" points="192.941,199.8 211.838,199.8 "/>
<path clip-path="url(#clip050)" d="M50.9921 1207.64 L80.6679 1207.64 L80.6679 1211.58 L50.9921 1211.58 L50.9921 1207.64 Z" fill="#000000" fill-rule="nonzero" fill-opacity="1" /><path clip-path="url(#clip050)" d="M94.7882 1220.54 L111.108 1220.54 L111.108 1224.47 L89.1632 1224.47 L89.1632 1220.54 Q91.8252 1217.78 96.4085 1213.15 Q101.015 1208.5 102.196 1207.16 Q104.441 1204.63 105.321 1202.9 Q106.223 1201.14 106.223 1199.45 Q106.223 1196.69 104.279 1194.96 Q102.358 1193.22 99.2558 1193.22 Q97.0567 1193.22 94.603 1193.99 Q92.1725 1194.75 89.3947 1196.3 L89.3947 1191.58 Q92.2188 1190.44 94.6724 1189.87 Q97.1261 1189.29 99.1632 1189.29 Q104.534 1189.29 107.728 1191.97 Q110.922 1194.66 110.922 1199.15 Q110.922 1201.28 110.112 1203.2 Q109.325 1205.1 107.219 1207.69 Q106.64 1208.36 103.538 1211.58 Q100.436 1214.77 94.7882 1220.54 Z" fill="#000000" fill-rule="nonzero" fill-opacity="1" /><path clip-path="url(#clip050)" d="M120.922 1218.59 L125.807 1218.59 L125.807 1224.47 L120.922 1224.47 L120.922 1218.59 Z" fill="#000000" fill-rule="nonzero" fill-opacity="1" /><path clip-path="url(#clip050)" d="M136.038 1189.91 L154.394 1189.91 L154.394 1193.85 L140.32 1193.85 L140.32 1202.32 Q141.339 1201.97 142.357 1201.81 Q143.376 1201.62 144.394 1201.62 Q150.181 1201.62 153.561 1204.8 Q156.941 1207.97 156.941 1213.38 Q156.941 1218.96 153.468 1222.06 Q149.996 1225.14 143.677 1225.14 Q141.501 1225.14 139.232 1224.77 Q136.987 1224.4 134.58 1223.66 L134.58 1218.96 Q136.663 1220.1 138.885 1220.65 Q141.107 1221.21 143.584 1221.21 Q147.589 1221.21 149.927 1219.1 Q152.265 1216.99 152.265 1213.38 Q152.265 1209.77 149.927 1207.67 Q147.589 1205.56 143.584 1205.56 Q141.709 1205.56 139.834 1205.98 Q137.982 1206.39 136.038 1207.27 L136.038 1189.91 Z" fill="#000000" fill-rule="nonzero" fill-opacity="1" /><path clip-path="url(#clip050)" d="M99.765 857.193 Q96.1539 857.193 94.3252 860.758 Q92.5197 864.3 92.5197 871.429 Q92.5197 878.536 94.3252 882.1 Q96.1539 885.642 99.765 885.642 Q103.399 885.642 105.205 882.1 Q107.033 878.536 107.033 871.429 Q107.033 864.3 105.205 860.758 Q103.399 857.193 99.765 857.193 M99.765 853.489 Q105.575 853.489 108.631 858.096 Q111.709 862.679 111.709 871.429 Q111.709 880.156 108.631 884.762 Q105.575 889.346 99.765 889.346 Q93.9549 889.346 90.8762 884.762 Q87.8206 880.156 87.8206 871.429 Q87.8206 862.679 90.8762 858.096 Q93.9549 853.489 99.765 853.489 Z" fill="#000000" fill-rule="nonzero" fill-opacity="1" /><path clip-path="url(#clip050)" d="M119.927 882.795 L124.811 882.795 L124.811 888.674 L119.927 888.674 L119.927 882.795 Z" fill="#000000" fill-rule="nonzero" fill-opacity="1" /><path clip-path="url(#clip050)" d="M144.996 857.193 Q141.385 857.193 139.556 860.758 Q137.751 864.3 137.751 871.429 Q137.751 878.536 139.556 882.1 Q141.385 885.642 144.996 885.642 Q148.63 885.642 150.436 882.1 Q152.265 878.536 152.265 871.429 Q152.265 864.3 150.436 860.758 Q148.63 857.193 144.996 857.193 M144.996 853.489 Q150.806 853.489 153.862 858.096 Q156.941 862.679 156.941 871.429 Q156.941 880.156 153.862 884.762 Q150.806 889.346 144.996 889.346 Q139.186 889.346 136.107 884.762 Q133.052 880.156 133.052 871.429 Q133.052 862.679 136.107 858.096 Q139.186 853.489 144.996 853.489 Z" fill="#000000" fill-rule="nonzero" fill-opacity="1" /><path clip-path="url(#clip050)" d="M94.7882 548.942 L111.108 548.942 L111.108 552.877 L89.1632 552.877 L89.1632 548.942 Q91.8252 546.188 96.4085 541.558 Q101.015 536.905 102.196 535.563 Q104.441 533.039 105.321 531.303 Q106.223 529.544 106.223 527.854 Q106.223 525.1 104.279 523.364 Q102.358 521.627 99.2558 521.627 Q97.0567 521.627 94.603 522.391 Q92.1725 523.155 89.3947 524.706 L89.3947 519.984 Q92.2188 518.85 94.6724 518.271 Q97.1261 517.692 99.1632 517.692 Q104.534 517.692 107.728 520.377 Q110.922 523.063 110.922 527.553 Q110.922 529.683 110.112 531.604 Q109.325 533.502 107.219 536.095 Q106.64 536.766 103.538 539.984 Q100.436 543.178 94.7882 548.942 Z" fill="#000000" fill-rule="nonzero" fill-opacity="1" /><path clip-path="url(#clip050)" d="M120.922 546.998 L125.807 546.998 L125.807 552.877 L120.922 552.877 L120.922 546.998 Z" fill="#000000" fill-rule="nonzero" fill-opacity="1" /><path clip-path="url(#clip050)" d="M136.038 518.317 L154.394 518.317 L154.394 522.252 L140.32 522.252 L140.32 530.725 Q141.339 530.377 142.357 530.215 Q143.376 530.03 144.394 530.03 Q150.181 530.03 153.561 533.201 Q156.941 536.373 156.941 541.789 Q156.941 547.368 153.468 550.47 Q149.996 553.549 143.677 553.549 Q141.501 553.549 139.232 553.178 Q136.987 552.808 134.58 552.067 L134.58 547.368 Q136.663 548.502 138.885 549.058 Q141.107 549.613 143.584 549.613 Q147.589 549.613 149.927 547.507 Q152.265 545.4 152.265 541.789 Q152.265 538.178 149.927 536.072 Q147.589 533.965 143.584 533.965 Q141.709 533.965 139.834 534.382 Q137.982 534.799 136.038 535.678 L136.038 518.317 Z" fill="#000000" fill-rule="nonzero" fill-opacity="1" /><path clip-path="url(#clip050)" d="M89.8114 182.52 L108.168 182.52 L108.168 186.455 L94.0937 186.455 L94.0937 194.927 Q95.1123 194.58 96.1308 194.418 Q97.1493 194.233 98.1678 194.233 Q103.955 194.233 107.334 197.404 Q110.714 200.576 110.714 205.992 Q110.714 211.571 107.242 214.673 Q103.77 217.751 97.4502 217.751 Q95.2743 217.751 93.0058 217.381 Q90.7604 217.011 88.353 216.27 L88.353 211.571 Q90.4364 212.705 92.6586 213.261 Q94.8808 213.816 97.3576 213.816 Q101.362 213.816 103.7 211.71 Q106.038 209.603 106.038 205.992 Q106.038 202.381 103.7 200.275 Q101.362 198.168 97.3576 198.168 Q95.4826 198.168 93.6076 198.585 Q91.7558 199.002 89.8114 199.881 L89.8114 182.52 Z" fill="#000000" fill-rule="nonzero" fill-opacity="1" /><path clip-path="url(#clip050)" d="M119.927 211.201 L124.811 211.201 L124.811 217.08 L119.927 217.08 L119.927 211.201 Z" fill="#000000" fill-rule="nonzero" fill-opacity="1" /><path clip-path="url(#clip050)" d="M144.996 185.599 Q141.385 185.599 139.556 189.164 Q137.751 192.705 137.751 199.835 Q137.751 206.941 139.556 210.506 Q141.385 214.048 144.996 214.048 Q148.63 214.048 150.436 210.506 Q152.265 206.941 152.265 199.835 Q152.265 192.705 150.436 189.164 Q148.63 185.599 144.996 185.599 M144.996 181.895 Q150.806 181.895 153.862 186.502 Q156.941 191.085 156.941 199.835 Q156.941 208.562 153.862 213.168 Q150.806 217.751 144.996 217.751 Q139.186 217.751 136.107 213.168 Q133.052 208.562 133.052 199.835 Q133.052 191.085 136.107 186.502 Q139.186 181.895 144.996 181.895 Z" fill="#000000" fill-rule="nonzero" fill-opacity="1" /><polyline clip-path="url(#clip052)" style="stroke:#009af9; stroke-linecap:round; stroke-linejoin:round; stroke-width:4; stroke-opacity:1; fill:none" points="192.941,1082.38 260.435,1055.59 327.929,1025.71 395.423,992.937 462.918,957.687 530.412,920.548 597.906,882.282 665.4,843.761 732.894,805.884 800.389,769.485 867.883,735.258 935.377,703.714 1002.87,675.171 1070.37,649.777 1137.86,627.544 1205.35,608.39 1272.85,592.177 1340.34,578.739 1407.84,567.91 1475.33,559.535 1542.83,553.485 1610.32,549.66 1677.81,547.993 1745.31,548.456 1812.8,551.057 1880.3,555.841 1947.79,562.889 2015.28,572.313 2082.78,584.256 2150.27,598.877 2217.77,616.345 2285.26,636.816 2352.76,660.407 "/>
<polyline clip-path="url(#clip052)" style="stroke:#e26f46; stroke-linecap:round; stroke-linejoin:round; stroke-width:4; stroke-opacity:1; fill:none" points="192.941,357.908 260.435,293.643 327.929,232.148 395.423,176.878 462.918,131.737 530.412,100.519 597.906,86.1857 665.4,90.1987 732.894,112.154 800.389,149.882 867.883,199.972 935.377,258.492 1002.87,321.666 1070.37,386.336 1137.86,450.161 1205.35,511.621 1272.85,569.902 1340.34,624.736 1407.84,676.251 1475.33,724.84 1542.83,771.068 1610.32,815.601 1677.81,859.165 1745.31,902.513 1812.8,946.401 1880.3,991.575 1947.79,1038.74 2015.28,1088.51 2082.78,1141.4 2150.27,1197.69 2217.77,1257.35 2285.26,1319.9 2352.76,1384.24 "/>
<path clip-path="url(#clip050)" d="M1975.68 248.629 L2280.76 248.629 L2280.76 93.1086 L1975.68 93.1086  Z" fill="#ffffff" fill-rule="evenodd" fill-opacity="1"/>
<polyline clip-path="url(#clip050)" style="stroke:#000000; stroke-linecap:round; stroke-linejoin:round; stroke-width:4; stroke-opacity:1; fill:none" points="1975.68,248.629 2280.76,248.629 2280.76,93.1086 1975.68,93.1086 1975.68,248.629 "/>
<polyline clip-path="url(#clip050)" style="stroke:#009af9; stroke-linecap:round; stroke-linejoin:round; stroke-width:4; stroke-opacity:1; fill:none" points="1999.68,144.949 2143.67,144.949 "/>
<path clip-path="url(#clip050)" d="M2167.67 151.997 L2167.67 136.303 L2171.93 136.303 L2171.93 151.835 Q2171.93 155.516 2173.36 157.368 Q2174.8 159.196 2177.67 159.196 Q2181.12 159.196 2183.11 156.997 Q2185.12 154.798 2185.12 151.002 L2185.12 136.303 L2189.38 136.303 L2189.38 162.229 L2185.12 162.229 L2185.12 158.247 Q2183.57 160.608 2181.51 161.766 Q2179.47 162.9 2176.76 162.9 Q2172.3 162.9 2169.98 160.122 Q2167.67 157.344 2167.67 151.997 M2178.38 135.678 L2178.38 135.678 Z" fill="#000000" fill-rule="nonzero" fill-opacity="1" /><path clip-path="url(#clip050)" d="M2197.76 126.21 L2207.57 126.21 L2207.57 129.52 L2202.02 129.52 L2202.02 165.168 L2207.57 165.168 L2207.57 168.479 L2197.76 168.479 L2197.76 126.21 Z" fill="#000000" fill-rule="nonzero" fill-opacity="1" /><path clip-path="url(#clip050)" d="M2218.06 158.293 L2225.7 158.293 L2225.7 131.928 L2217.39 133.595 L2217.39 129.335 L2225.65 127.669 L2230.33 127.669 L2230.33 158.293 L2237.97 158.293 L2237.97 162.229 L2218.06 162.229 L2218.06 158.293 Z" fill="#000000" fill-rule="nonzero" fill-opacity="1" /><path clip-path="url(#clip050)" d="M2256.76 126.21 L2256.76 168.479 L2246.95 168.479 L2246.95 165.168 L2252.48 165.168 L2252.48 129.52 L2246.95 129.52 L2246.95 126.21 L2256.76 126.21 Z" fill="#000000" fill-rule="nonzero" fill-opacity="1" /><polyline clip-path="url(#clip050)" style="stroke:#e26f46; stroke-linecap:round; stroke-linejoin:round; stroke-width:4; stroke-opacity:1; fill:none" points="1999.68,196.789 2143.67,196.789 "/>
<path clip-path="url(#clip050)" d="M2167.67 203.837 L2167.67 188.143 L2171.93 188.143 L2171.93 203.675 Q2171.93 207.356 2173.36 209.208 Q2174.8 211.036 2177.67 211.036 Q2181.12 211.036 2183.11 208.837 Q2185.12 206.638 2185.12 202.842 L2185.12 188.143 L2189.38 188.143 L2189.38 214.069 L2185.12 214.069 L2185.12 210.087 Q2183.57 212.448 2181.51 213.606 Q2179.47 214.74 2176.76 214.74 Q2172.3 214.74 2169.98 211.962 Q2167.67 209.184 2167.67 203.837 M2178.38 187.518 L2178.38 187.518 Z" fill="#000000" fill-rule="nonzero" fill-opacity="1" /><path clip-path="url(#clip050)" d="M2197.76 178.05 L2207.57 178.05 L2207.57 181.36 L2202.02 181.36 L2202.02 217.008 L2207.57 217.008 L2207.57 220.319 L2197.76 220.319 L2197.76 178.05 Z" fill="#000000" fill-rule="nonzero" fill-opacity="1" /><path clip-path="url(#clip050)" d="M2221.28 210.133 L2237.6 210.133 L2237.6 214.069 L2215.65 214.069 L2215.65 210.133 Q2218.32 207.379 2222.9 202.749 Q2227.51 198.096 2228.69 196.754 Q2230.93 194.231 2231.81 192.495 Q2232.71 190.735 2232.71 189.046 Q2232.71 186.291 2230.77 184.555 Q2228.85 182.819 2225.75 182.819 Q2223.55 182.819 2221.09 183.583 Q2218.66 184.347 2215.88 185.897 L2215.88 181.175 Q2218.71 180.041 2221.16 179.462 Q2223.62 178.884 2225.65 178.884 Q2231.02 178.884 2234.22 181.569 Q2237.41 184.254 2237.41 188.745 Q2237.41 190.874 2236.6 192.796 Q2235.82 194.694 2233.71 197.286 Q2233.13 197.958 2230.03 201.175 Q2226.93 204.37 2221.28 210.133 Z" fill="#000000" fill-rule="nonzero" fill-opacity="1" /><path clip-path="url(#clip050)" d="M2256.76 178.05 L2256.76 220.319 L2246.95 220.319 L2246.95 217.008 L2252.48 217.008 L2252.48 181.36 L2246.95 181.36 L2246.95 178.05 L2256.76 178.05 Z" fill="#000000" fill-rule="nonzero" fill-opacity="1" /></svg>
