<?xml version="1.0" encoding="utf-8"?>
<svg xmlns="http://www.w3.org/2000/svg" xmlns:xlink="http://www.w3.org/1999/xlink" width="600" height="400" viewBox="0 0 2400 1600">
<defs>
  <clipPath id="clip630">
    <rect x="0" y="0" width="2400" height="1600"/>
  </clipPath>
</defs>
<path clip-path="url(#clip630)" d="M0 1600 L2400 1600 L2400 0 L0 0  Z" fill="#ffffff" fill-rule="evenodd" fill-opacity="1"/>
<defs>
  <clipPath id="clip631">
    <rect x="155" y="47" width="2198" height="1440"/>
  </clipPath>
</defs>
<path clip-path="url(#clip630)" d="M155.765 1486.45 L2352.76 1486.45 L2352.76 47.2441 L155.765 47.2441  Z" fill="#ffffff" fill-rule="evenodd" fill-opacity="1"/>
<polyline clip-path="url(#clip631)" style="stroke:#000000; stroke-linecap:round; stroke-linejoin:round; stroke-width:2; stroke-opacity:0.1; fill:none" points="217.944,1486.45 217.944,47.2441 "/>
<polyline clip-path="url(#clip631)" style="stroke:#000000; stroke-linecap:round; stroke-linejoin:round; stroke-width:2; stroke-opacity:0.1; fill:none" points="736.102,1486.45 736.102,47.2441 "/>
<polyline clip-path="url(#clip631)" style="stroke:#000000; stroke-linecap:round; stroke-linejoin:round; stroke-width:2; stroke-opacity:0.1; fill:none" points="1254.26,1486.45 1254.26,47.2441 "/>
<polyline clip-path="url(#clip631)" style="stroke:#000000; stroke-linecap:round; stroke-linejoin:round; stroke-width:2; stroke-opacity:0.1; fill:none" points="1772.42,1486.45 1772.42,47.2441 "/>
<polyline clip-path="url(#clip631)" style="stroke:#000000; stroke-linecap:round; stroke-linejoin:round; stroke-width:2; stroke-opacity:0.1; fill:none" points="2290.58,1486.45 2290.58,47.2441 "/>
<polyline clip-path="url(#clip631)" style="stroke:#000000; stroke-linecap:round; stroke-linejoin:round; stroke-width:2; stroke-opacity:0.1; fill:none" points="155.765,1377.21 2352.76,1377.21 "/>
<polyline clip-path="url(#clip631)" style="stroke:#000000; stroke-linecap:round; stroke-linejoin:round; stroke-width:2; stroke-opacity:0.1; fill:none" points="155.765,1183.17 2352.76,1183.17 "/>
<polyline clip-path="url(#clip631)" style="stroke:#000000; stroke-linecap:round; stroke-linejoin:round; stroke-width:2; stroke-opacity:0.1; fill:none" points="155.765,989.123 2352.76,989.123 "/>
<polyline clip-path="url(#clip631)" style="stroke:#000000; stroke-linecap:round; stroke-linejoin:round; stroke-width:2; stroke-opacity:0.1; fill:none" points="155.765,795.082 2352.76,795.082 "/>
<polyline clip-path="url(#clip631)" style="stroke:#000000; stroke-linecap:round; stroke-linejoin:round; stroke-width:2; stroke-opacity:0.1; fill:none" points="155.765,601.04 2352.76,601.04 "/>
<polyline clip-path="url(#clip631)" style="stroke:#000000; stroke-linecap:round; stroke-linejoin:round; stroke-width:2; stroke-opacity:0.1; fill:none" points="155.765,406.999 2352.76,406.999 "/>
<polyline clip-path="url(#clip631)" style="stroke:#000000; stroke-linecap:round; stroke-linejoin:round; stroke-width:2; stroke-opacity:0.1; fill:none" points="155.765,212.957 2352.76,212.957 "/>
<polyline clip-path="url(#clip630)" style="stroke:#000000; stroke-linecap:round; stroke-linejoin:round; stroke-width:4; stroke-opacity:1; fill:none" points="155.765,1486.45 2352.76,1486.45 "/>
<polyline clip-path="url(#clip630)" style="stroke:#000000; stroke-linecap:round; stroke-linejoin:round; stroke-width:4; stroke-opacity:1; fill:none" points="217.944,1486.45 217.944,1467.55 "/>
<polyline clip-path="url(#clip630)" style="stroke:#000000; stroke-linecap:round; stroke-linejoin:round; stroke-width:4; stroke-opacity:1; fill:none" points="736.102,1486.45 736.102,1467.55 "/>
<polyline clip-path="url(#clip630)" style="stroke:#000000; stroke-linecap:round; stroke-linejoin:round; stroke-width:4; stroke-opacity:1; fill:none" points="1254.26,1486.45 1254.26,1467.55 "/>
<polyline clip-path="url(#clip630)" style="stroke:#000000; stroke-linecap:round; stroke-linejoin:round; stroke-width:4; stroke-opacity:1; fill:none" points="1772.42,1486.45 1772.42,1467.55 "/>
<polyline clip-path="url(#clip630)" style="stroke:#000000; stroke-linecap:round; stroke-linejoin:round; stroke-width:4; stroke-opacity:1; fill:none" points="2290.58,1486.45 2290.58,1467.55 "/>
<path clip-path="url(#clip630)" d="M180.247 1517.37 Q176.636 1517.37 174.808 1520.93 Q173.002 1524.47 173.002 1531.6 Q173.002 1538.71 174.808 1542.27 Q176.636 1545.82 180.247 1545.82 Q183.882 1545.82 185.687 1542.27 Q187.516 1538.71 187.516 1531.6 Q187.516 1524.47 185.687 1520.93 Q183.882 1517.37 180.247 1517.37 M180.247 1513.66 Q186.057 1513.66 189.113 1518.27 Q192.192 1522.85 192.192 1531.6 Q192.192 1540.33 189.113 1544.94 Q186.057 1549.52 180.247 1549.52 Q174.437 1549.52 171.358 1544.94 Q168.303 1540.33 168.303 1531.6 Q168.303 1522.85 171.358 1518.27 Q174.437 1513.66 180.247 1513.66 Z" fill="#000000" fill-rule="nonzero" fill-opacity="1" /><path clip-path="url(#clip630)" d="M200.409 1542.97 L205.294 1542.97 L205.294 1548.85 L200.409 1548.85 L200.409 1542.97 Z" fill="#000000" fill-rule="nonzero" fill-opacity="1" /><path clip-path="url(#clip630)" d="M225.479 1517.37 Q221.867 1517.37 220.039 1520.93 Q218.233 1524.47 218.233 1531.6 Q218.233 1538.71 220.039 1542.27 Q221.867 1545.82 225.479 1545.82 Q229.113 1545.82 230.918 1542.27 Q232.747 1538.71 232.747 1531.6 Q232.747 1524.47 230.918 1520.93 Q229.113 1517.37 225.479 1517.37 M225.479 1513.66 Q231.289 1513.66 234.344 1518.27 Q237.423 1522.85 237.423 1531.6 Q237.423 1540.33 234.344 1544.94 Q231.289 1549.52 225.479 1549.52 Q219.668 1549.52 216.59 1544.94 Q213.534 1540.33 213.534 1531.6 Q213.534 1522.85 216.59 1518.27 Q219.668 1513.66 225.479 1513.66 Z" fill="#000000" fill-rule="nonzero" fill-opacity="1" /><path clip-path="url(#clip630)" d="M255.64 1517.37 Q252.029 1517.37 250.201 1520.93 Q248.395 1524.47 248.395 1531.6 Q248.395 1538.71 250.201 1542.27 Q252.029 1545.82 255.64 1545.82 Q259.275 1545.82 261.08 1542.27 Q262.909 1538.71 262.909 1531.6 Q262.909 1524.47 261.08 1520.93 Q259.275 1517.37 255.64 1517.37 M255.64 1513.66 Q261.451 1513.66 264.506 1518.27 Q267.585 1522.85 267.585 1531.6 Q267.585 1540.33 264.506 1544.94 Q261.451 1549.52 255.64 1549.52 Q249.83 1549.52 246.752 1544.94 Q243.696 1540.33 243.696 1531.6 Q243.696 1522.85 246.752 1518.27 Q249.83 1513.66 255.64 1513.66 Z" fill="#000000" fill-rule="nonzero" fill-opacity="1" /><path clip-path="url(#clip630)" d="M698.903 1517.37 Q695.292 1517.37 693.463 1520.93 Q691.658 1524.47 691.658 1531.6 Q691.658 1538.71 693.463 1542.27 Q695.292 1545.82 698.903 1545.82 Q702.538 1545.82 704.343 1542.27 Q706.172 1538.71 706.172 1531.6 Q706.172 1524.47 704.343 1520.93 Q702.538 1517.37 698.903 1517.37 M698.903 1513.66 Q704.713 1513.66 707.769 1518.27 Q710.848 1522.85 710.848 1531.6 Q710.848 1540.33 707.769 1544.94 Q704.713 1549.52 698.903 1549.52 Q693.093 1549.52 690.014 1544.94 Q686.959 1540.33 686.959 1531.6 Q686.959 1522.85 690.014 1518.27 Q693.093 1513.66 698.903 1513.66 Z" fill="#000000" fill-rule="nonzero" fill-opacity="1" /><path clip-path="url(#clip630)" d="M719.065 1542.97 L723.949 1542.97 L723.949 1548.85 L719.065 1548.85 L719.065 1542.97 Z" fill="#000000" fill-rule="nonzero" fill-opacity="1" /><path clip-path="url(#clip630)" d="M738.162 1544.91 L754.482 1544.91 L754.482 1548.85 L732.537 1548.85 L732.537 1544.91 Q735.199 1542.16 739.783 1537.53 Q744.389 1532.88 745.57 1531.53 Q747.815 1529.01 748.695 1527.27 Q749.597 1525.51 749.597 1523.82 Q749.597 1521.07 747.653 1519.33 Q745.732 1517.6 742.63 1517.6 Q740.431 1517.6 737.977 1518.36 Q735.547 1519.13 732.769 1520.68 L732.769 1515.95 Q735.593 1514.82 738.047 1514.24 Q740.5 1513.66 742.537 1513.66 Q747.908 1513.66 751.102 1516.35 Q754.296 1519.03 754.296 1523.52 Q754.296 1525.65 753.486 1527.57 Q752.699 1529.47 750.593 1532.07 Q750.014 1532.74 746.912 1535.95 Q743.81 1539.15 738.162 1544.91 Z" fill="#000000" fill-rule="nonzero" fill-opacity="1" /><path clip-path="url(#clip630)" d="M764.343 1514.29 L782.699 1514.29 L782.699 1518.22 L768.625 1518.22 L768.625 1526.7 Q769.644 1526.35 770.662 1526.19 Q771.681 1526 772.699 1526 Q778.486 1526 781.866 1529.17 Q785.245 1532.34 785.245 1537.76 Q785.245 1543.34 781.773 1546.44 Q778.301 1549.52 771.982 1549.52 Q769.806 1549.52 767.537 1549.15 Q765.292 1548.78 762.884 1548.04 L762.884 1543.34 Q764.968 1544.47 767.19 1545.03 Q769.412 1545.58 771.889 1545.58 Q775.894 1545.58 778.232 1543.48 Q780.57 1541.37 780.57 1537.76 Q780.57 1534.15 778.232 1532.04 Q775.894 1529.94 771.889 1529.94 Q770.014 1529.94 768.139 1530.35 Q766.287 1530.77 764.343 1531.65 L764.343 1514.29 Z" fill="#000000" fill-rule="nonzero" fill-opacity="1" /><path clip-path="url(#clip630)" d="M1216.56 1517.37 Q1212.95 1517.37 1211.12 1520.93 Q1209.32 1524.47 1209.32 1531.6 Q1209.32 1538.71 1211.12 1542.27 Q1212.95 1545.82 1216.56 1545.82 Q1220.2 1545.82 1222 1542.27 Q1223.83 1538.71 1223.83 1531.6 Q1223.83 1524.47 1222 1520.93 Q1220.2 1517.37 1216.56 1517.37 M1216.56 1513.66 Q1222.37 1513.66 1225.43 1518.27 Q1228.51 1522.85 1228.51 1531.6 Q1228.51 1540.33 1225.43 1544.94 Q1222.37 1549.52 1216.56 1549.52 Q1210.75 1549.52 1207.68 1544.94 Q1204.62 1540.33 1204.62 1531.6 Q1204.62 1522.85 1207.68 1518.27 Q1210.75 1513.66 1216.56 1513.66 Z" fill="#000000" fill-rule="nonzero" fill-opacity="1" /><path clip-path="url(#clip630)" d="M1236.73 1542.97 L1241.61 1542.97 L1241.61 1548.85 L1236.73 1548.85 L1236.73 1542.97 Z" fill="#000000" fill-rule="nonzero" fill-opacity="1" /><path clip-path="url(#clip630)" d="M1251.84 1514.29 L1270.2 1514.29 L1270.2 1518.22 L1256.12 1518.22 L1256.12 1526.7 Q1257.14 1526.35 1258.16 1526.19 Q1259.18 1526 1260.2 1526 Q1265.98 1526 1269.36 1529.17 Q1272.74 1532.34 1272.74 1537.76 Q1272.74 1543.34 1269.27 1546.44 Q1265.8 1549.52 1259.48 1549.52 Q1257.3 1549.52 1255.04 1549.15 Q1252.79 1548.78 1250.38 1548.04 L1250.38 1543.34 Q1252.47 1544.47 1254.69 1545.03 Q1256.91 1545.58 1259.39 1545.58 Q1263.39 1545.58 1265.73 1543.48 Q1268.07 1541.37 1268.07 1537.76 Q1268.07 1534.15 1265.73 1532.04 Q1263.39 1529.94 1259.39 1529.94 Q1257.51 1529.94 1255.64 1530.35 Q1253.79 1530.77 1251.84 1531.65 L1251.84 1514.29 Z" fill="#000000" fill-rule="nonzero" fill-opacity="1" /><path clip-path="url(#clip630)" d="M1291.96 1517.37 Q1288.35 1517.37 1286.52 1520.93 Q1284.71 1524.47 1284.71 1531.6 Q1284.71 1538.71 1286.52 1542.27 Q1288.35 1545.82 1291.96 1545.82 Q1295.59 1545.82 1297.4 1542.27 Q1299.23 1538.71 1299.23 1531.6 Q1299.23 1524.47 1297.4 1520.93 Q1295.59 1517.37 1291.96 1517.37 M1291.96 1513.66 Q1297.77 1513.66 1300.82 1518.27 Q1303.9 1522.85 1303.9 1531.6 Q1303.9 1540.33 1300.82 1544.94 Q1297.77 1549.52 1291.96 1549.52 Q1286.15 1549.52 1283.07 1544.94 Q1280.01 1540.33 1280.01 1531.6 Q1280.01 1522.85 1283.07 1518.27 Q1286.15 1513.66 1291.96 1513.66 Z" fill="#000000" fill-rule="nonzero" fill-opacity="1" /><path clip-path="url(#clip630)" d="M1735.22 1517.37 Q1731.61 1517.37 1729.78 1520.93 Q1727.97 1524.47 1727.97 1531.6 Q1727.97 1538.71 1729.78 1542.27 Q1731.61 1545.82 1735.22 1545.82 Q1738.85 1545.82 1740.66 1542.27 Q1742.49 1538.71 1742.49 1531.6 Q1742.49 1524.47 1740.66 1520.93 Q1738.85 1517.37 1735.22 1517.37 M1735.22 1513.66 Q1741.03 1513.66 1744.09 1518.27 Q1747.16 1522.85 1747.16 1531.6 Q1747.16 1540.33 1744.09 1544.94 Q1741.03 1549.52 1735.22 1549.52 Q1729.41 1549.52 1726.33 1544.94 Q1723.28 1540.33 1723.28 1531.6 Q1723.28 1522.85 1726.33 1518.27 Q1729.41 1513.66 1735.22 1513.66 Z" fill="#000000" fill-rule="nonzero" fill-opacity="1" /><path clip-path="url(#clip630)" d="M1755.38 1542.97 L1760.27 1542.97 L1760.27 1548.85 L1755.38 1548.85 L1755.38 1542.97 Z" fill="#000000" fill-rule="nonzero" fill-opacity="1" /><path clip-path="url(#clip630)" d="M1769.27 1514.29 L1791.49 1514.29 L1791.49 1516.28 L1778.95 1548.85 L1774.06 1548.85 L1785.87 1518.22 L1769.27 1518.22 L1769.27 1514.29 Z" fill="#000000" fill-rule="nonzero" fill-opacity="1" /><path clip-path="url(#clip630)" d="M1800.66 1514.29 L1819.02 1514.29 L1819.02 1518.22 L1804.94 1518.22 L1804.94 1526.7 Q1805.96 1526.35 1806.98 1526.19 Q1808 1526 1809.02 1526 Q1814.8 1526 1818.18 1529.17 Q1821.56 1532.34 1821.56 1537.76 Q1821.56 1543.34 1818.09 1546.44 Q1814.62 1549.52 1808.3 1549.52 Q1806.12 1549.52 1803.85 1549.15 Q1801.61 1548.78 1799.2 1548.04 L1799.2 1543.34 Q1801.28 1544.47 1803.51 1545.03 Q1805.73 1545.58 1808.21 1545.58 Q1812.21 1545.58 1814.55 1543.48 Q1816.89 1541.37 1816.89 1537.76 Q1816.89 1534.15 1814.55 1532.04 Q1812.21 1529.94 1808.21 1529.94 Q1806.33 1529.94 1804.46 1530.35 Q1802.6 1530.77 1800.66 1531.65 L1800.66 1514.29 Z" fill="#000000" fill-rule="nonzero" fill-opacity="1" /><path clip-path="url(#clip630)" d="M2242.65 1544.91 L2250.29 1544.91 L2250.29 1518.55 L2241.98 1520.21 L2241.98 1515.95 L2250.24 1514.29 L2254.92 1514.29 L2254.92 1544.91 L2262.56 1544.91 L2262.56 1548.85 L2242.65 1548.85 L2242.65 1544.91 Z" fill="#000000" fill-rule="nonzero" fill-opacity="1" /><path clip-path="url(#clip630)" d="M2272 1542.97 L2276.88 1542.97 L2276.88 1548.85 L2272 1548.85 L2272 1542.97 Z" fill="#000000" fill-rule="nonzero" fill-opacity="1" /><path clip-path="url(#clip630)" d="M2297.07 1517.37 Q2293.46 1517.37 2291.63 1520.93 Q2289.82 1524.47 2289.82 1531.6 Q2289.82 1538.71 2291.63 1542.27 Q2293.46 1545.82 2297.07 1545.82 Q2300.7 1545.82 2302.51 1542.27 Q2304.34 1538.71 2304.34 1531.6 Q2304.34 1524.47 2302.51 1520.93 Q2300.7 1517.37 2297.07 1517.37 M2297.07 1513.66 Q2302.88 1513.66 2305.94 1518.27 Q2309.01 1522.85 2309.01 1531.6 Q2309.01 1540.33 2305.94 1544.94 Q2302.88 1549.52 2297.07 1549.52 Q2291.26 1549.52 2288.18 1544.94 Q2285.13 1540.33 2285.13 1531.6 Q2285.13 1522.85 2288.18 1518.27 Q2291.26 1513.66 2297.07 1513.66 Z" fill="#000000" fill-rule="nonzero" fill-opacity="1" /><path clip-path="url(#clip630)" d="M2327.23 1517.37 Q2323.62 1517.37 2321.79 1520.93 Q2319.99 1524.47 2319.99 1531.6 Q2319.99 1538.71 2321.79 1542.27 Q2323.62 1545.82 2327.23 1545.82 Q2330.87 1545.82 2332.67 1542.27 Q2334.5 1538.71 2334.5 1531.6 Q2334.5 1524.47 2332.67 1520.93 Q2330.87 1517.37 2327.23 1517.37 M2327.23 1513.66 Q2333.04 1513.66 2336.1 1518.27 Q2339.18 1522.85 2339.18 1531.6 Q2339.18 1540.33 2336.1 1544.94 Q2333.04 1549.52 2327.23 1549.52 Q2321.42 1549.52 2318.34 1544.94 Q2315.29 1540.33 2315.29 1531.6 Q2315.29 1522.85 2318.34 1518.27 Q2321.42 1513.66 2327.23 1513.66 Z" fill="#000000" fill-rule="nonzero" fill-opacity="1" /><polyline clip-path="url(#clip630)" style="stroke:#000000; stroke-linecap:round; stroke-linejoin:round; stroke-width:4; stroke-opacity:1; fill:none" points="155.765,1486.45 155.765,47.2441 "/>
<polyline clip-path="url(#clip630)" style="stroke:#000000; stroke-linecap:round; stroke-linejoin:round; stroke-width:4; stroke-opacity:1; fill:none" points="155.765,1377.21 174.663,1377.21 "/>
<polyline clip-path="url(#clip630)" style="stroke:#000000; stroke-linecap:round; stroke-linejoin:round; stroke-width:4; stroke-opacity:1; fill:none" points="155.765,1183.17 174.663,1183.17 "/>
<polyline clip-path="url(#clip630)" style="stroke:#000000; stroke-linecap:round; stroke-linejoin:round; stroke-width:4; stroke-opacity:1; fill:none" points="155.765,989.123 174.663,989.123 "/>
<polyline clip-path="url(#clip630)" style="stroke:#000000; stroke-linecap:round; stroke-linejoin:round; stroke-width:4; stroke-opacity:1; fill:none" points="155.765,795.082 174.663,795.082 "/>
<polyline clip-path="url(#clip630)" style="stroke:#000000; stroke-linecap:round; stroke-linejoin:round; stroke-width:4; stroke-opacity:1; fill:none" points="155.765,601.04 174.663,601.04 "/>
<polyline clip-path="url(#clip630)" style="stroke:#000000; stroke-linecap:round; stroke-linejoin:round; stroke-width:4; stroke-opacity:1; fill:none" points="155.765,406.999 174.663,406.999 "/>
<polyline clip-path="url(#clip630)" style="stroke:#000000; stroke-linecap:round; stroke-linejoin:round; stroke-width:4; stroke-opacity:1; fill:none" points="155.765,212.957 174.663,212.957 "/>
<path clip-path="url(#clip630)" d="M63.5847 1363.01 Q59.9736 1363.01 58.1449 1366.57 Q56.3393 1370.11 56.3393 1377.24 Q56.3393 1384.35 58.1449 1387.91 Q59.9736 1391.45 63.5847 1391.45 Q67.2189 1391.45 69.0244 1387.91 Q70.8531 1384.35 70.8531 1377.24 Q70.8531 1370.11 69.0244 1366.57 Q67.2189 1363.01 63.5847 1363.01 M63.5847 1359.3 Q69.3948 1359.3 72.4503 1363.91 Q75.529 1368.49 75.529 1377.24 Q75.529 1385.97 72.4503 1390.57 Q69.3948 1395.16 63.5847 1395.16 Q57.7745 1395.16 54.6958 1390.57 Q51.6403 1385.97 51.6403 1377.24 Q51.6403 1368.49 54.6958 1363.91 Q57.7745 1359.3 63.5847 1359.3 Z" fill="#000000" fill-rule="nonzero" fill-opacity="1" /><path clip-path="url(#clip630)" d="M83.7466 1388.61 L88.6308 1388.61 L88.6308 1394.49 L83.7466 1394.49 L83.7466 1388.61 Z" fill="#000000" fill-rule="nonzero" fill-opacity="1" /><path clip-path="url(#clip630)" d="M98.8622 1359.93 L117.219 1359.93 L117.219 1363.86 L103.145 1363.86 L103.145 1372.33 Q104.163 1371.99 105.182 1371.82 Q106.2 1371.64 107.219 1371.64 Q113.006 1371.64 116.385 1374.81 Q119.765 1377.98 119.765 1383.4 Q119.765 1388.98 116.293 1392.08 Q112.82 1395.16 106.501 1395.16 Q104.325 1395.16 102.057 1394.79 Q99.8113 1394.42 97.4039 1393.68 L97.4039 1388.98 Q99.4872 1390.11 101.709 1390.67 Q103.932 1391.22 106.408 1391.22 Q110.413 1391.22 112.751 1389.12 Q115.089 1387.01 115.089 1383.4 Q115.089 1379.79 112.751 1377.68 Q110.413 1375.57 106.408 1375.57 Q104.534 1375.57 102.659 1375.99 Q100.807 1376.41 98.8622 1377.29 L98.8622 1359.93 Z" fill="#000000" fill-rule="nonzero" fill-opacity="1" /><path clip-path="url(#clip630)" d="M53.3995 1196.51 L61.0384 1196.51 L61.0384 1170.14 L52.7282 1171.81 L52.7282 1167.55 L60.9921 1165.89 L65.668 1165.89 L65.668 1196.51 L73.3068 1196.51 L73.3068 1200.45 L53.3995 1200.45 L53.3995 1196.51 Z" fill="#000000" fill-rule="nonzero" fill-opacity="1" /><path clip-path="url(#clip630)" d="M82.7512 1194.57 L87.6354 1194.57 L87.6354 1200.45 L82.7512 1200.45 L82.7512 1194.57 Z" fill="#000000" fill-rule="nonzero" fill-opacity="1" /><path clip-path="url(#clip630)" d="M107.821 1168.96 Q104.209 1168.96 102.381 1172.53 Q100.575 1176.07 100.575 1183.2 Q100.575 1190.31 102.381 1193.87 Q104.209 1197.41 107.821 1197.41 Q111.455 1197.41 113.26 1193.87 Q115.089 1190.31 115.089 1183.2 Q115.089 1176.07 113.26 1172.53 Q111.455 1168.96 107.821 1168.96 M107.821 1165.26 Q113.631 1165.26 116.686 1169.87 Q119.765 1174.45 119.765 1183.2 Q119.765 1191.93 116.686 1196.53 Q113.631 1201.12 107.821 1201.12 Q102.01 1201.12 98.9317 1196.53 Q95.8761 1191.93 95.8761 1183.2 Q95.8761 1174.45 98.9317 1169.87 Q102.01 1165.26 107.821 1165.26 Z" fill="#000000" fill-rule="nonzero" fill-opacity="1" /><path clip-path="url(#clip630)" d="M54.3949 1002.47 L62.0337 1002.47 L62.0337 976.103 L53.7236 977.769 L53.7236 973.51 L61.9874 971.843 L66.6633 971.843 L66.6633 1002.47 L74.3022 1002.47 L74.3022 1006.4 L54.3949 1006.4 L54.3949 1002.47 Z" fill="#000000" fill-rule="nonzero" fill-opacity="1" /><path clip-path="url(#clip630)" d="M83.7466 1000.52 L88.6308 1000.52 L88.6308 1006.4 L83.7466 1006.4 L83.7466 1000.52 Z" fill="#000000" fill-rule="nonzero" fill-opacity="1" /><path clip-path="url(#clip630)" d="M98.8622 971.843 L117.219 971.843 L117.219 975.779 L103.145 975.779 L103.145 984.251 Q104.163 983.904 105.182 983.742 Q106.2 983.556 107.219 983.556 Q113.006 983.556 116.385 986.728 Q119.765 989.899 119.765 995.316 Q119.765 1000.89 116.293 1004 Q112.82 1007.07 106.501 1007.07 Q104.325 1007.07 102.057 1006.7 Q99.8113 1006.33 97.4039 1005.59 L97.4039 1000.89 Q99.4872 1002.03 101.709 1002.58 Q103.932 1003.14 106.408 1003.14 Q110.413 1003.14 112.751 1001.03 Q115.089 998.927 115.089 995.316 Q115.089 991.704 112.751 989.598 Q110.413 987.492 106.408 987.492 Q104.534 987.492 102.659 987.908 Q100.807 988.325 98.8622 989.204 L98.8622 971.843 Z" fill="#000000" fill-rule="nonzero" fill-opacity="1" /><path clip-path="url(#clip630)" d="M56.6171 808.427 L72.9365 808.427 L72.9365 812.362 L50.9921 812.362 L50.9921 808.427 Q53.6541 805.672 58.2375 801.042 Q62.8439 796.39 64.0245 795.047 Q66.2698 792.524 67.1494 790.788 Q68.0522 789.029 68.0522 787.339 Q68.0522 784.584 66.1078 782.848 Q64.1865 781.112 61.0847 781.112 Q58.8856 781.112 56.4319 781.876 Q54.0014 782.64 51.2236 784.191 L51.2236 779.469 Q54.0477 778.334 56.5014 777.756 Q58.955 777.177 60.9921 777.177 Q66.3624 777.177 69.5568 779.862 Q72.7513 782.547 72.7513 787.038 Q72.7513 789.168 71.9411 791.089 Q71.1541 792.987 69.0476 795.58 Q68.4689 796.251 65.367 799.468 Q62.2652 802.663 56.6171 808.427 Z" fill="#000000" fill-rule="nonzero" fill-opacity="1" /><path clip-path="url(#clip630)" d="M82.7512 806.482 L87.6354 806.482 L87.6354 812.362 L82.7512 812.362 L82.7512 806.482 Z" fill="#000000" fill-rule="nonzero" fill-opacity="1" /><path clip-path="url(#clip630)" d="M107.821 780.881 Q104.209 780.881 102.381 784.445 Q100.575 787.987 100.575 795.117 Q100.575 802.223 102.381 805.788 Q104.209 809.329 107.821 809.329 Q111.455 809.329 113.26 805.788 Q115.089 802.223 115.089 795.117 Q115.089 787.987 113.26 784.445 Q111.455 780.881 107.821 780.881 M107.821 777.177 Q113.631 777.177 116.686 781.783 Q119.765 786.367 119.765 795.117 Q119.765 803.843 116.686 808.45 Q113.631 813.033 107.821 813.033 Q102.01 813.033 98.9317 808.45 Q95.8761 803.843 95.8761 795.117 Q95.8761 786.367 98.9317 781.783 Q102.01 777.177 107.821 777.177 Z" fill="#000000" fill-rule="nonzero" fill-opacity="1" /><path clip-path="url(#clip630)" d="M57.6125 614.385 L73.9318 614.385 L73.9318 618.32 L51.9875 618.32 L51.9875 614.385 Q54.6495 611.63 59.2328 607.001 Q63.8393 602.348 65.0198 601.006 Q67.2652 598.482 68.1448 596.746 Q69.0476 594.987 69.0476 593.297 Q69.0476 590.543 67.1032 588.807 Q65.1819 587.07 62.08 587.07 Q59.881 587.07 57.4273 587.834 Q54.9967 588.598 52.219 590.149 L52.219 585.427 Q55.043 584.293 57.4967 583.714 Q59.9504 583.135 61.9874 583.135 Q67.3578 583.135 70.5522 585.82 Q73.7466 588.506 73.7466 592.996 Q73.7466 595.126 72.9365 597.047 Q72.1494 598.945 70.0429 601.538 Q69.4642 602.209 66.3624 605.427 Q63.2606 608.621 57.6125 614.385 Z" fill="#000000" fill-rule="nonzero" fill-opacity="1" /><path clip-path="url(#clip630)" d="M83.7466 612.441 L88.6308 612.441 L88.6308 618.32 L83.7466 618.32 L83.7466 612.441 Z" fill="#000000" fill-rule="nonzero" fill-opacity="1" /><path clip-path="url(#clip630)" d="M98.8622 583.76 L117.219 583.76 L117.219 587.695 L103.145 587.695 L103.145 596.168 Q104.163 595.82 105.182 595.658 Q106.2 595.473 107.219 595.473 Q113.006 595.473 116.385 598.644 Q119.765 601.816 119.765 607.232 Q119.765 612.811 116.293 615.913 Q112.82 618.992 106.501 618.992 Q104.325 618.992 102.057 618.621 Q99.8113 618.251 97.4039 617.51 L97.4039 612.811 Q99.4872 613.945 101.709 614.501 Q103.932 615.056 106.408 615.056 Q110.413 615.056 112.751 612.95 Q115.089 610.843 115.089 607.232 Q115.089 603.621 112.751 601.515 Q110.413 599.408 106.408 599.408 Q104.534 599.408 102.659 599.825 Q100.807 600.242 98.8622 601.121 L98.8622 583.76 Z" fill="#000000" fill-rule="nonzero" fill-opacity="1" /><path clip-path="url(#clip630)" d="M66.7559 405.644 Q70.1124 406.362 71.9874 408.631 Q73.8855 410.899 73.8855 414.232 Q73.8855 419.348 70.367 422.149 Q66.8485 424.95 60.3671 424.95 Q58.1912 424.95 55.8764 424.51 Q53.5847 424.093 51.131 423.237 L51.131 418.723 Q53.0754 419.857 55.3903 420.436 Q57.7051 421.015 60.2282 421.015 Q64.6263 421.015 66.918 419.279 Q69.2328 417.543 69.2328 414.232 Q69.2328 411.177 67.08 409.464 Q64.9504 407.728 61.131 407.728 L57.1032 407.728 L57.1032 403.885 L61.3161 403.885 Q64.7652 403.885 66.5939 402.52 Q68.4226 401.131 68.4226 398.538 Q68.4226 395.876 66.5245 394.464 Q64.6495 393.029 61.131 393.029 Q59.2097 393.029 57.0106 393.445 Q54.8115 393.862 52.1727 394.742 L52.1727 390.575 Q54.8347 389.834 57.1495 389.464 Q59.4875 389.094 61.5476 389.094 Q66.8717 389.094 69.9735 391.524 Q73.0753 393.932 73.0753 398.052 Q73.0753 400.922 71.4318 402.913 Q69.7883 404.881 66.7559 405.644 Z" fill="#000000" fill-rule="nonzero" fill-opacity="1" /><path clip-path="url(#clip630)" d="M82.7512 418.399 L87.6354 418.399 L87.6354 424.279 L82.7512 424.279 L82.7512 418.399 Z" fill="#000000" fill-rule="nonzero" fill-opacity="1" /><path clip-path="url(#clip630)" d="M107.821 392.797 Q104.209 392.797 102.381 396.362 Q100.575 399.904 100.575 407.033 Q100.575 414.14 102.381 417.705 Q104.209 421.246 107.821 421.246 Q111.455 421.246 113.26 417.705 Q115.089 414.14 115.089 407.033 Q115.089 399.904 113.26 396.362 Q111.455 392.797 107.821 392.797 M107.821 389.094 Q113.631 389.094 116.686 393.7 Q119.765 398.283 119.765 407.033 Q119.765 415.76 116.686 420.367 Q113.631 424.95 107.821 424.95 Q102.01 424.95 98.9317 420.367 Q95.8761 415.76 95.8761 407.033 Q95.8761 398.283 98.9317 393.7 Q102.01 389.094 107.821 389.094 Z" fill="#000000" fill-rule="nonzero" fill-opacity="1" /><path clip-path="url(#clip630)" d="M67.7513 211.603 Q71.1078 212.32 72.9827 214.589 Q74.8809 216.857 74.8809 220.191 Q74.8809 225.307 71.3624 228.107 Q67.8439 230.908 61.3624 230.908 Q59.1865 230.908 56.8717 230.469 Q54.5801 230.052 52.1264 229.195 L52.1264 224.682 Q54.0708 225.816 56.3856 226.394 Q58.7004 226.973 61.2236 226.973 Q65.6217 226.973 67.9133 225.237 Q70.2281 223.501 70.2281 220.191 Q70.2281 217.135 68.0754 215.422 Q65.9457 213.686 62.1263 213.686 L58.0986 213.686 L58.0986 209.844 L62.3115 209.844 Q65.7606 209.844 67.5893 208.478 Q69.418 207.089 69.418 204.496 Q69.418 201.834 67.5198 200.422 Q65.6448 198.987 62.1263 198.987 Q60.205 198.987 58.006 199.404 Q55.8069 199.821 53.168 200.7 L53.168 196.534 Q55.8301 195.793 58.1449 195.422 Q60.4828 195.052 62.543 195.052 Q67.867 195.052 70.9689 197.483 Q74.0707 199.89 74.0707 204.01 Q74.0707 206.881 72.4272 208.871 Q70.7837 210.839 67.7513 211.603 Z" fill="#000000" fill-rule="nonzero" fill-opacity="1" /><path clip-path="url(#clip630)" d="M83.7466 224.357 L88.6308 224.357 L88.6308 230.237 L83.7466 230.237 L83.7466 224.357 Z" fill="#000000" fill-rule="nonzero" fill-opacity="1" /><path clip-path="url(#clip630)" d="M98.8622 195.677 L117.219 195.677 L117.219 199.612 L103.145 199.612 L103.145 208.084 Q104.163 207.737 105.182 207.575 Q106.2 207.39 107.219 207.39 Q113.006 207.39 116.385 210.561 Q119.765 213.733 119.765 219.149 Q119.765 224.728 116.293 227.83 Q112.82 230.908 106.501 230.908 Q104.325 230.908 102.057 230.538 Q99.8113 230.168 97.4039 229.427 L97.4039 224.728 Q99.4872 225.862 101.709 226.418 Q103.932 226.973 106.408 226.973 Q110.413 226.973 112.751 224.867 Q115.089 222.76 115.089 219.149 Q115.089 215.538 112.751 213.432 Q110.413 211.325 106.408 211.325 Q104.534 211.325 102.659 211.742 Q100.807 212.158 98.8622 213.038 L98.8622 195.677 Z" fill="#000000" fill-rule="nonzero" fill-opacity="1" /><polyline clip-path="url(#clip631)" style="stroke:#009af9; stroke-linecap:round; stroke-linejoin:round; stroke-width:12; stroke-opacity:1; fill:none" points="217.944,1377.21 425.207,1357.19 632.47,1327.94 839.734,1325.66 1047,1323.95 1254.26,1295.17 1461.52,1262.87 1668.79,1154.3 1876.05,1128.81 2083.31,1050.81 2290.58,1017.37 "/>
<polyline clip-path="url(#clip631)" style="stroke:#000000; stroke-linecap:round; stroke-linejoin:round; stroke-width:12; stroke-opacity:1; fill:none" points="217.944,1377.21 217.944,1377.21 "/>
<polyline clip-path="url(#clip631)" style="stroke:#000000; stroke-linecap:round; stroke-linejoin:round; stroke-width:12; stroke-opacity:1; fill:none" points="425.207,1391.56 425.207,1290.31 "/>
<polyline clip-path="url(#clip631)" style="stroke:#000000; stroke-linecap:round; stroke-linejoin:round; stroke-width:12; stroke-opacity:1; fill:none" points="632.47,1402.77 632.47,1211.89 "/>
<polyline clip-path="url(#clip631)" style="stroke:#000000; stroke-linecap:round; stroke-linejoin:round; stroke-width:12; stroke-opacity:1; fill:none" points="839.734,1393.94 839.734,1101.78 "/>
<polyline clip-path="url(#clip631)" style="stroke:#000000; stroke-linecap:round; stroke-linejoin:round; stroke-width:12; stroke-opacity:1; fill:none" points="1047,1364.07 1047,1026.43 "/>
<polyline clip-path="url(#clip631)" style="stroke:#000000; stroke-linecap:round; stroke-linejoin:round; stroke-width:12; stroke-opacity:1; fill:none" points="1254.26,1413.83 1254.26,944.168 "/>
<polyline clip-path="url(#clip631)" style="stroke:#000000; stroke-linecap:round; stroke-linejoin:round; stroke-width:12; stroke-opacity:1; fill:none" points="1461.52,1376.16 1461.52,997.195 "/>
<polyline clip-path="url(#clip631)" style="stroke:#000000; stroke-linecap:round; stroke-linejoin:round; stroke-width:12; stroke-opacity:1; fill:none" points="1668.79,1333.94 1668.79,955.918 "/>
<polyline clip-path="url(#clip631)" style="stroke:#000000; stroke-linecap:round; stroke-linejoin:round; stroke-width:12; stroke-opacity:1; fill:none" points="1876.05,1310.97 1876.05,868.661 "/>
<polyline clip-path="url(#clip631)" style="stroke:#000000; stroke-linecap:round; stroke-linejoin:round; stroke-width:12; stroke-opacity:1; fill:none" points="2083.31,1324.2 2083.31,686.67 "/>
<polyline clip-path="url(#clip631)" style="stroke:#000000; stroke-linecap:round; stroke-linejoin:round; stroke-width:12; stroke-opacity:1; fill:none" points="2290.58,1305.06 2290.58,381.953 "/>
<line clip-path="url(#clip631)" x1="233.944" y1="1377.21" x2="201.944" y2="1377.21" style="stroke:#000000; stroke-width:12; stroke-opacity:1"/>
<line clip-path="url(#clip631)" x1="233.944" y1="1377.21" x2="201.944" y2="1377.21" style="stroke:#000000; stroke-width:12; stroke-opacity:1"/>
<line clip-path="url(#clip631)" x1="441.207" y1="1391.56" x2="409.207" y2="1391.56" style="stroke:#000000; stroke-width:12; stroke-opacity:1"/>
<line clip-path="url(#clip631)" x1="441.207" y1="1290.31" x2="409.207" y2="1290.31" style="stroke:#000000; stroke-width:12; stroke-opacity:1"/>
<line clip-path="url(#clip631)" x1="648.47" y1="1402.77" x2="616.47" y2="1402.77" style="stroke:#000000; stroke-width:12; stroke-opacity:1"/>
<line clip-path="url(#clip631)" x1="648.47" y1="1211.89" x2="616.47" y2="1211.89" style="stroke:#000000; stroke-width:12; stroke-opacity:1"/>
<line clip-path="url(#clip631)" x1="855.734" y1="1393.94" x2="823.734" y2="1393.94" style="stroke:#000000; stroke-width:12; stroke-opacity:1"/>
<line clip-path="url(#clip631)" x1="855.734" y1="1101.78" x2="823.734" y2="1101.78" style="stroke:#000000; stroke-width:12; stroke-opacity:1"/>
<line clip-path="url(#clip631)" x1="1063" y1="1364.07" x2="1031" y2="1364.07" style="stroke:#000000; stroke-width:12; stroke-opacity:1"/>
<line clip-path="url(#clip631)" x1="1063" y1="1026.43" x2="1031" y2="1026.43" style="stroke:#000000; stroke-width:12; stroke-opacity:1"/>
<line clip-path="url(#clip631)" x1="1270.26" y1="1413.83" x2="1238.26" y2="1413.83" style="stroke:#000000; stroke-width:12; stroke-opacity:1"/>
<line clip-path="url(#clip631)" x1="1270.26" y1="944.168" x2="1238.26" y2="944.168" style="stroke:#000000; stroke-width:12; stroke-opacity:1"/>
<line clip-path="url(#clip631)" x1="1477.52" y1="1376.16" x2="1445.52" y2="1376.16" style="stroke:#000000; stroke-width:12; stroke-opacity:1"/>
<line clip-path="url(#clip631)" x1="1477.52" y1="997.195" x2="1445.52" y2="997.195" style="stroke:#000000; stroke-width:12; stroke-opacity:1"/>
<line clip-path="url(#clip631)" x1="1684.79" y1="1333.94" x2="1652.79" y2="1333.94" style="stroke:#000000; stroke-width:12; stroke-opacity:1"/>
<line clip-path="url(#clip631)" x1="1684.79" y1="955.918" x2="1652.79" y2="955.918" style="stroke:#000000; stroke-width:12; stroke-opacity:1"/>
<line clip-path="url(#clip631)" x1="1892.05" y1="1310.97" x2="1860.05" y2="1310.97" style="stroke:#000000; stroke-width:12; stroke-opacity:1"/>
<line clip-path="url(#clip631)" x1="1892.05" y1="868.661" x2="1860.05" y2="868.661" style="stroke:#000000; stroke-width:12; stroke-opacity:1"/>
<line clip-path="url(#clip631)" x1="2099.31" y1="1324.2" x2="2067.31" y2="1324.2" style="stroke:#000000; stroke-width:12; stroke-opacity:1"/>
<line clip-path="url(#clip631)" x1="2099.31" y1="686.67" x2="2067.31" y2="686.67" style="stroke:#000000; stroke-width:12; stroke-opacity:1"/>
<line clip-path="url(#clip631)" x1="2306.58" y1="1305.06" x2="2274.58" y2="1305.06" style="stroke:#000000; stroke-width:12; stroke-opacity:1"/>
<line clip-path="url(#clip631)" x1="2306.58" y1="381.953" x2="2274.58" y2="381.953" style="stroke:#000000; stroke-width:12; stroke-opacity:1"/>
<polyline clip-path="url(#clip631)" style="stroke:#e26f46; stroke-linecap:round; stroke-linejoin:round; stroke-width:12; stroke-opacity:1; fill:none" points="217.944,1377.21 425.207,1353.63 632.47,1330.48 839.734,1223.72 1047,1196.88 1254.26,1156.67 1461.52,1176.08 1668.79,1187.07 1876.05,1135.25 2083.31,1113.47 2290.58,1059.78 "/>
<polyline clip-path="url(#clip631)" style="stroke:#000000; stroke-linecap:round; stroke-linejoin:round; stroke-width:12; stroke-opacity:1; fill:none" points="217.944,1377.21 217.944,1377.21 "/>
<polyline clip-path="url(#clip631)" style="stroke:#000000; stroke-linecap:round; stroke-linejoin:round; stroke-width:12; stroke-opacity:1; fill:none" points="425.207,1423.22 425.207,1249.13 "/>
<polyline clip-path="url(#clip631)" style="stroke:#000000; stroke-linecap:round; stroke-linejoin:round; stroke-width:12; stroke-opacity:1; fill:none" points="632.47,1430.39 632.47,1161.02 "/>
<polyline clip-path="url(#clip631)" style="stroke:#000000; stroke-linecap:round; stroke-linejoin:round; stroke-width:12; stroke-opacity:1; fill:none" points="839.734,1445.72 839.734,1092.31 "/>
<polyline clip-path="url(#clip631)" style="stroke:#000000; stroke-linecap:round; stroke-linejoin:round; stroke-width:12; stroke-opacity:1; fill:none" points="1047,1443.39 1047,947.551 "/>
<polyline clip-path="url(#clip631)" style="stroke:#000000; stroke-linecap:round; stroke-linejoin:round; stroke-width:12; stroke-opacity:1; fill:none" points="1254.26,1421.17 1254.26,715.263 "/>
<polyline clip-path="url(#clip631)" style="stroke:#000000; stroke-linecap:round; stroke-linejoin:round; stroke-width:12; stroke-opacity:1; fill:none" points="1461.52,1401.75 1461.52,526.434 "/>
<polyline clip-path="url(#clip631)" style="stroke:#000000; stroke-linecap:round; stroke-linejoin:round; stroke-width:12; stroke-opacity:1; fill:none" points="1668.79,1390.55 1668.79,573.657 "/>
<polyline clip-path="url(#clip631)" style="stroke:#000000; stroke-linecap:round; stroke-linejoin:round; stroke-width:12; stroke-opacity:1; fill:none" points="1876.05,1388.87 1876.05,620.702 "/>
<polyline clip-path="url(#clip631)" style="stroke:#000000; stroke-linecap:round; stroke-linejoin:round; stroke-width:12; stroke-opacity:1; fill:none" points="2083.31,1403.26 2083.31,408.215 "/>
<polyline clip-path="url(#clip631)" style="stroke:#000000; stroke-linecap:round; stroke-linejoin:round; stroke-width:12; stroke-opacity:1; fill:none" points="2290.58,1415.37 2290.58,87.9763 "/>
<line clip-path="url(#clip631)" x1="233.944" y1="1377.21" x2="201.944" y2="1377.21" style="stroke:#000000; stroke-width:12; stroke-opacity:1"/>
<line clip-path="url(#clip631)" x1="233.944" y1="1377.21" x2="201.944" y2="1377.21" style="stroke:#000000; stroke-width:12; stroke-opacity:1"/>
<line clip-path="url(#clip631)" x1="441.207" y1="1423.22" x2="409.207" y2="1423.22" style="stroke:#000000; stroke-width:12; stroke-opacity:1"/>
<line clip-path="url(#clip631)" x1="441.207" y1="1249.13" x2="409.207" y2="1249.13" style="stroke:#000000; stroke-width:12; stroke-opacity:1"/>
<line clip-path="url(#clip631)" x1="648.47" y1="1430.39" x2="616.47" y2="1430.39" style="stroke:#000000; stroke-width:12; stroke-opacity:1"/>
<line clip-path="url(#clip631)" x1="648.47" y1="1161.02" x2="616.47" y2="1161.02" style="stroke:#000000; stroke-width:12; stroke-opacity:1"/>
<line clip-path="url(#clip631)" x1="855.734" y1="1445.72" x2="823.734" y2="1445.72" style="stroke:#000000; stroke-width:12; stroke-opacity:1"/>
<line clip-path="url(#clip631)" x1="855.734" y1="1092.31" x2="823.734" y2="1092.31" style="stroke:#000000; stroke-width:12; stroke-opacity:1"/>
<line clip-path="url(#clip631)" x1="1063" y1="1443.39" x2="1031" y2="1443.39" style="stroke:#000000; stroke-width:12; stroke-opacity:1"/>
<line clip-path="url(#clip631)" x1="1063" y1="947.551" x2="1031" y2="947.551" style="stroke:#000000; stroke-width:12; stroke-opacity:1"/>
<line clip-path="url(#clip631)" x1="1270.26" y1="1421.17" x2="1238.26" y2="1421.17" style="stroke:#000000; stroke-width:12; stroke-opacity:1"/>
<line clip-path="url(#clip631)" x1="1270.26" y1="715.263" x2="1238.26" y2="715.263" style="stroke:#000000; stroke-width:12; stroke-opacity:1"/>
<line clip-path="url(#clip631)" x1="1477.52" y1="1401.75" x2="1445.52" y2="1401.75" style="stroke:#000000; stroke-width:12; stroke-opacity:1"/>
<line clip-path="url(#clip631)" x1="1477.52" y1="526.434" x2="1445.52" y2="526.434" style="stroke:#000000; stroke-width:12; stroke-opacity:1"/>
<line clip-path="url(#clip631)" x1="1684.79" y1="1390.55" x2="1652.79" y2="1390.55" style="stroke:#000000; stroke-width:12; stroke-opacity:1"/>
<line clip-path="url(#clip631)" x1="1684.79" y1="573.657" x2="1652.79" y2="573.657" style="stroke:#000000; stroke-width:12; stroke-opacity:1"/>
<line clip-path="url(#clip631)" x1="1892.05" y1="1388.87" x2="1860.05" y2="1388.87" style="stroke:#000000; stroke-width:12; stroke-opacity:1"/>
<line clip-path="url(#clip631)" x1="1892.05" y1="620.702" x2="1860.05" y2="620.702" style="stroke:#000000; stroke-width:12; stroke-opacity:1"/>
<line clip-path="url(#clip631)" x1="2099.31" y1="1403.26" x2="2067.31" y2="1403.26" style="stroke:#000000; stroke-width:12; stroke-opacity:1"/>
<line clip-path="url(#clip631)" x1="2099.31" y1="408.215" x2="2067.31" y2="408.215" style="stroke:#000000; stroke-width:12; stroke-opacity:1"/>
<line clip-path="url(#clip631)" x1="2306.58" y1="1415.37" x2="2274.58" y2="1415.37" style="stroke:#000000; stroke-width:12; stroke-opacity:1"/>
<line clip-path="url(#clip631)" x1="2306.58" y1="87.9763" x2="2274.58" y2="87.9763" style="stroke:#000000; stroke-width:12; stroke-opacity:1"/>
</svg>
