<?xml version="1.0" encoding="utf-8"?>
<svg xmlns="http://www.w3.org/2000/svg" xmlns:xlink="http://www.w3.org/1999/xlink" width="600" height="400" viewBox="0 0 2400 1600">
<defs>
  <clipPath id="clip570">
    <rect x="0" y="0" width="2400" height="1600"/>
  </clipPath>
</defs>
<path clip-path="url(#clip570)" d="M0 1600 L2400 1600 L2400 0 L0 0  Z" fill="#ffffff" fill-rule="evenodd" fill-opacity="1"/>
<defs>
  <clipPath id="clip571">
    <rect x="112" y="47" width="2242" height="1440"/>
  </clipPath>
</defs>
<path clip-path="url(#clip570)" d="M112.177 1486.45 L2352.76 1486.45 L2352.76 47.2441 L112.177 47.2441  Z" fill="#ffffff" fill-rule="evenodd" fill-opacity="1"/>
<polyline clip-path="url(#clip571)" style="stroke:#000000; stroke-linecap:round; stroke-linejoin:round; stroke-width:2; stroke-opacity:0.1; fill:none" points="175.59,1486.45 175.59,47.2441 "/>
<polyline clip-path="url(#clip571)" style="stroke:#000000; stroke-linecap:round; stroke-linejoin:round; stroke-width:2; stroke-opacity:0.1; fill:none" points="704.028,1486.45 704.028,47.2441 "/>
<polyline clip-path="url(#clip571)" style="stroke:#000000; stroke-linecap:round; stroke-linejoin:round; stroke-width:2; stroke-opacity:0.1; fill:none" points="1232.47,1486.45 1232.47,47.2441 "/>
<polyline clip-path="url(#clip571)" style="stroke:#000000; stroke-linecap:round; stroke-linejoin:round; stroke-width:2; stroke-opacity:0.1; fill:none" points="1760.9,1486.45 1760.9,47.2441 "/>
<polyline clip-path="url(#clip571)" style="stroke:#000000; stroke-linecap:round; stroke-linejoin:round; stroke-width:2; stroke-opacity:0.1; fill:none" points="2289.34,1486.45 2289.34,47.2441 "/>
<polyline clip-path="url(#clip571)" style="stroke:#000000; stroke-linecap:round; stroke-linejoin:round; stroke-width:2; stroke-opacity:0.1; fill:none" points="112.177,1472.92 2352.76,1472.92 "/>
<polyline clip-path="url(#clip571)" style="stroke:#000000; stroke-linecap:round; stroke-linejoin:round; stroke-width:2; stroke-opacity:0.1; fill:none" points="112.177,1119.86 2352.76,1119.86 "/>
<polyline clip-path="url(#clip571)" style="stroke:#000000; stroke-linecap:round; stroke-linejoin:round; stroke-width:2; stroke-opacity:0.1; fill:none" points="112.177,766.804 2352.76,766.804 "/>
<polyline clip-path="url(#clip571)" style="stroke:#000000; stroke-linecap:round; stroke-linejoin:round; stroke-width:2; stroke-opacity:0.1; fill:none" points="112.177,413.744 2352.76,413.744 "/>
<polyline clip-path="url(#clip571)" style="stroke:#000000; stroke-linecap:round; stroke-linejoin:round; stroke-width:2; stroke-opacity:0.1; fill:none" points="112.177,60.6845 2352.76,60.6845 "/>
<polyline clip-path="url(#clip570)" style="stroke:#000000; stroke-linecap:round; stroke-linejoin:round; stroke-width:4; stroke-opacity:1; fill:none" points="112.177,1486.45 2352.76,1486.45 "/>
<polyline clip-path="url(#clip570)" style="stroke:#000000; stroke-linecap:round; stroke-linejoin:round; stroke-width:4; stroke-opacity:1; fill:none" points="175.59,1486.45 175.59,1467.55 "/>
<polyline clip-path="url(#clip570)" style="stroke:#000000; stroke-linecap:round; stroke-linejoin:round; stroke-width:4; stroke-opacity:1; fill:none" points="704.028,1486.45 704.028,1467.55 "/>
<polyline clip-path="url(#clip570)" style="stroke:#000000; stroke-linecap:round; stroke-linejoin:round; stroke-width:4; stroke-opacity:1; fill:none" points="1232.47,1486.45 1232.47,1467.55 "/>
<polyline clip-path="url(#clip570)" style="stroke:#000000; stroke-linecap:round; stroke-linejoin:round; stroke-width:4; stroke-opacity:1; fill:none" points="1760.9,1486.45 1760.9,1467.55 "/>
<polyline clip-path="url(#clip570)" style="stroke:#000000; stroke-linecap:round; stroke-linejoin:round; stroke-width:4; stroke-opacity:1; fill:none" points="2289.34,1486.45 2289.34,1467.55 "/>
<path clip-path="url(#clip570)" d="M152.974 1517.37 Q149.363 1517.37 147.534 1520.93 Q145.729 1524.47 145.729 1531.6 Q145.729 1538.71 147.534 1542.27 Q149.363 1545.82 152.974 1545.82 Q156.608 1545.82 158.414 1542.27 Q160.243 1538.71 160.243 1531.6 Q160.243 1524.47 158.414 1520.93 Q156.608 1517.37 152.974 1517.37 M152.974 1513.66 Q158.784 1513.66 161.84 1518.27 Q164.919 1522.85 164.919 1531.6 Q164.919 1540.33 161.84 1544.94 Q158.784 1549.52 152.974 1549.52 Q147.164 1549.52 144.085 1544.94 Q141.03 1540.33 141.03 1531.6 Q141.03 1522.85 144.085 1518.27 Q147.164 1513.66 152.974 1513.66 Z" fill="#000000" fill-rule="nonzero" fill-opacity="1" /><path clip-path="url(#clip570)" d="M173.136 1542.97 L178.02 1542.97 L178.02 1548.85 L173.136 1548.85 L173.136 1542.97 Z" fill="#000000" fill-rule="nonzero" fill-opacity="1" /><path clip-path="url(#clip570)" d="M198.205 1517.37 Q194.594 1517.37 192.766 1520.93 Q190.96 1524.47 190.96 1531.6 Q190.96 1538.71 192.766 1542.27 Q194.594 1545.82 198.205 1545.82 Q201.84 1545.82 203.645 1542.27 Q205.474 1538.71 205.474 1531.6 Q205.474 1524.47 203.645 1520.93 Q201.84 1517.37 198.205 1517.37 M198.205 1513.66 Q204.016 1513.66 207.071 1518.27 Q210.15 1522.85 210.15 1531.6 Q210.15 1540.33 207.071 1544.94 Q204.016 1549.52 198.205 1549.52 Q192.395 1549.52 189.317 1544.94 Q186.261 1540.33 186.261 1531.6 Q186.261 1522.85 189.317 1518.27 Q192.395 1513.66 198.205 1513.66 Z" fill="#000000" fill-rule="nonzero" fill-opacity="1" /><path clip-path="url(#clip570)" d="M675.764 1544.91 L692.084 1544.91 L692.084 1548.85 L670.139 1548.85 L670.139 1544.91 Q672.801 1542.16 677.385 1537.53 Q681.991 1532.88 683.172 1531.53 Q685.417 1529.01 686.297 1527.27 Q687.2 1525.51 687.2 1523.82 Q687.2 1521.07 685.255 1519.33 Q683.334 1517.6 680.232 1517.6 Q678.033 1517.6 675.579 1518.36 Q673.149 1519.13 670.371 1520.68 L670.371 1515.95 Q673.195 1514.82 675.649 1514.24 Q678.102 1513.66 680.139 1513.66 Q685.51 1513.66 688.704 1516.35 Q691.899 1519.03 691.899 1523.52 Q691.899 1525.65 691.088 1527.57 Q690.301 1529.47 688.195 1532.07 Q687.616 1532.74 684.514 1535.95 Q681.413 1539.15 675.764 1544.91 Z" fill="#000000" fill-rule="nonzero" fill-opacity="1" /><path clip-path="url(#clip570)" d="M701.899 1542.97 L706.783 1542.97 L706.783 1548.85 L701.899 1548.85 L701.899 1542.97 Z" fill="#000000" fill-rule="nonzero" fill-opacity="1" /><path clip-path="url(#clip570)" d="M717.014 1514.29 L735.371 1514.29 L735.371 1518.22 L721.297 1518.22 L721.297 1526.7 Q722.315 1526.35 723.334 1526.19 Q724.352 1526 725.371 1526 Q731.158 1526 734.537 1529.17 Q737.917 1532.34 737.917 1537.76 Q737.917 1543.34 734.445 1546.44 Q730.972 1549.52 724.653 1549.52 Q722.477 1549.52 720.209 1549.15 Q717.963 1548.78 715.556 1548.04 L715.556 1543.34 Q717.639 1544.47 719.861 1545.03 Q722.084 1545.58 724.56 1545.58 Q728.565 1545.58 730.903 1543.48 Q733.241 1541.37 733.241 1537.76 Q733.241 1534.15 730.903 1532.04 Q728.565 1529.94 724.56 1529.94 Q722.685 1529.94 720.81 1530.35 Q718.959 1530.77 717.014 1531.65 L717.014 1514.29 Z" fill="#000000" fill-rule="nonzero" fill-opacity="1" /><path clip-path="url(#clip570)" d="M1199.63 1514.29 L1217.99 1514.29 L1217.99 1518.22 L1203.91 1518.22 L1203.91 1526.7 Q1204.93 1526.35 1205.95 1526.19 Q1206.97 1526 1207.99 1526 Q1213.77 1526 1217.15 1529.17 Q1220.53 1532.34 1220.53 1537.76 Q1220.53 1543.34 1217.06 1546.44 Q1213.59 1549.52 1207.27 1549.52 Q1205.09 1549.52 1202.83 1549.15 Q1200.58 1548.78 1198.17 1548.04 L1198.17 1543.34 Q1200.26 1544.47 1202.48 1545.03 Q1204.7 1545.58 1207.18 1545.58 Q1211.18 1545.58 1213.52 1543.48 Q1215.86 1541.37 1215.86 1537.76 Q1215.86 1534.15 1213.52 1532.04 Q1211.18 1529.94 1207.18 1529.94 Q1205.3 1529.94 1203.43 1530.35 Q1201.58 1530.77 1199.63 1531.65 L1199.63 1514.29 Z" fill="#000000" fill-rule="nonzero" fill-opacity="1" /><path clip-path="url(#clip570)" d="M1229.75 1542.97 L1234.63 1542.97 L1234.63 1548.85 L1229.75 1548.85 L1229.75 1542.97 Z" fill="#000000" fill-rule="nonzero" fill-opacity="1" /><path clip-path="url(#clip570)" d="M1254.82 1517.37 Q1251.2 1517.37 1249.38 1520.93 Q1247.57 1524.47 1247.57 1531.6 Q1247.57 1538.71 1249.38 1542.27 Q1251.2 1545.82 1254.82 1545.82 Q1258.45 1545.82 1260.26 1542.27 Q1262.08 1538.71 1262.08 1531.6 Q1262.08 1524.47 1260.26 1520.93 Q1258.45 1517.37 1254.82 1517.37 M1254.82 1513.66 Q1260.63 1513.66 1263.68 1518.27 Q1266.76 1522.85 1266.76 1531.6 Q1266.76 1540.33 1263.68 1544.94 Q1260.63 1549.52 1254.82 1549.52 Q1249.01 1549.52 1245.93 1544.94 Q1242.87 1540.33 1242.87 1531.6 Q1242.87 1522.85 1245.93 1518.27 Q1249.01 1513.66 1254.82 1513.66 Z" fill="#000000" fill-rule="nonzero" fill-opacity="1" /><path clip-path="url(#clip570)" d="M1727.22 1514.29 L1749.45 1514.29 L1749.45 1516.28 L1736.9 1548.85 L1732.02 1548.85 L1743.82 1518.22 L1727.22 1518.22 L1727.22 1514.29 Z" fill="#000000" fill-rule="nonzero" fill-opacity="1" /><path clip-path="url(#clip570)" d="M1758.57 1542.97 L1763.45 1542.97 L1763.45 1548.85 L1758.57 1548.85 L1758.57 1542.97 Z" fill="#000000" fill-rule="nonzero" fill-opacity="1" /><path clip-path="url(#clip570)" d="M1773.68 1514.29 L1792.04 1514.29 L1792.04 1518.22 L1777.97 1518.22 L1777.97 1526.7 Q1778.98 1526.35 1780 1526.19 Q1781.02 1526 1782.04 1526 Q1787.83 1526 1791.21 1529.17 Q1794.59 1532.34 1794.59 1537.76 Q1794.59 1543.34 1791.11 1546.44 Q1787.64 1549.52 1781.32 1549.52 Q1779.15 1549.52 1776.88 1549.15 Q1774.63 1548.78 1772.22 1548.04 L1772.22 1543.34 Q1774.31 1544.47 1776.53 1545.03 Q1778.75 1545.58 1781.23 1545.58 Q1785.23 1545.58 1787.57 1543.48 Q1789.91 1541.37 1789.91 1537.76 Q1789.91 1534.15 1787.57 1532.04 Q1785.23 1529.94 1781.23 1529.94 Q1779.35 1529.94 1777.48 1530.35 Q1775.63 1530.77 1773.68 1531.65 L1773.68 1514.29 Z" fill="#000000" fill-rule="nonzero" fill-opacity="1" /><path clip-path="url(#clip570)" d="M2241.42 1544.91 L2249.05 1544.91 L2249.05 1518.55 L2240.74 1520.21 L2240.74 1515.95 L2249.01 1514.29 L2253.68 1514.29 L2253.68 1544.91 L2261.32 1544.91 L2261.32 1548.85 L2241.42 1548.85 L2241.42 1544.91 Z" fill="#000000" fill-rule="nonzero" fill-opacity="1" /><path clip-path="url(#clip570)" d="M2280.77 1517.37 Q2277.16 1517.37 2275.33 1520.93 Q2273.52 1524.47 2273.52 1531.6 Q2273.52 1538.71 2275.33 1542.27 Q2277.16 1545.82 2280.77 1545.82 Q2284.4 1545.82 2286.21 1542.27 Q2288.04 1538.71 2288.04 1531.6 Q2288.04 1524.47 2286.21 1520.93 Q2284.4 1517.37 2280.77 1517.37 M2280.77 1513.66 Q2286.58 1513.66 2289.63 1518.27 Q2292.71 1522.85 2292.71 1531.6 Q2292.71 1540.33 2289.63 1544.94 Q2286.58 1549.52 2280.77 1549.52 Q2274.96 1549.52 2271.88 1544.94 Q2268.82 1540.33 2268.82 1531.6 Q2268.82 1522.85 2271.88 1518.27 Q2274.96 1513.66 2280.77 1513.66 Z" fill="#000000" fill-rule="nonzero" fill-opacity="1" /><path clip-path="url(#clip570)" d="M2300.93 1542.97 L2305.81 1542.97 L2305.81 1548.85 L2300.93 1548.85 L2300.93 1542.97 Z" fill="#000000" fill-rule="nonzero" fill-opacity="1" /><path clip-path="url(#clip570)" d="M2326 1517.37 Q2322.39 1517.37 2320.56 1520.93 Q2318.75 1524.47 2318.75 1531.6 Q2318.75 1538.71 2320.56 1542.27 Q2322.39 1545.82 2326 1545.82 Q2329.63 1545.82 2331.44 1542.27 Q2333.27 1538.71 2333.27 1531.6 Q2333.27 1524.47 2331.44 1520.93 Q2329.63 1517.37 2326 1517.37 M2326 1513.66 Q2331.81 1513.66 2334.86 1518.27 Q2337.94 1522.85 2337.94 1531.6 Q2337.94 1540.33 2334.86 1544.94 Q2331.81 1549.52 2326 1549.52 Q2320.19 1549.52 2317.11 1544.94 Q2314.05 1540.33 2314.05 1531.6 Q2314.05 1522.85 2317.11 1518.27 Q2320.19 1513.66 2326 1513.66 Z" fill="#000000" fill-rule="nonzero" fill-opacity="1" /><polyline clip-path="url(#clip570)" style="stroke:#000000; stroke-linecap:round; stroke-linejoin:round; stroke-width:4; stroke-opacity:1; fill:none" points="112.177,1486.45 112.177,47.2441 "/>
<polyline clip-path="url(#clip570)" style="stroke:#000000; stroke-linecap:round; stroke-linejoin:round; stroke-width:4; stroke-opacity:1; fill:none" points="112.177,1472.92 131.075,1472.92 "/>
<polyline clip-path="url(#clip570)" style="stroke:#000000; stroke-linecap:round; stroke-linejoin:round; stroke-width:4; stroke-opacity:1; fill:none" points="112.177,1119.86 131.075,1119.86 "/>
<polyline clip-path="url(#clip570)" style="stroke:#000000; stroke-linecap:round; stroke-linejoin:round; stroke-width:4; stroke-opacity:1; fill:none" points="112.177,766.804 131.075,766.804 "/>
<polyline clip-path="url(#clip570)" style="stroke:#000000; stroke-linecap:round; stroke-linejoin:round; stroke-width:4; stroke-opacity:1; fill:none" points="112.177,413.744 131.075,413.744 "/>
<polyline clip-path="url(#clip570)" style="stroke:#000000; stroke-linecap:round; stroke-linejoin:round; stroke-width:4; stroke-opacity:1; fill:none" points="112.177,60.6845 131.075,60.6845 "/>
<path clip-path="url(#clip570)" d="M64.2328 1458.72 Q60.6217 1458.72 58.793 1462.29 Q56.9875 1465.83 56.9875 1472.96 Q56.9875 1480.06 58.793 1483.63 Q60.6217 1487.17 64.2328 1487.17 Q67.867 1487.17 69.6726 1483.63 Q71.5013 1480.06 71.5013 1472.96 Q71.5013 1465.83 69.6726 1462.29 Q67.867 1458.72 64.2328 1458.72 M64.2328 1455.02 Q70.0429 1455.02 73.0985 1459.63 Q76.1772 1464.21 76.1772 1472.96 Q76.1772 1481.69 73.0985 1486.29 Q70.0429 1490.87 64.2328 1490.87 Q58.4226 1490.87 55.344 1486.29 Q52.2884 1481.69 52.2884 1472.96 Q52.2884 1464.21 55.344 1459.63 Q58.4226 1455.02 64.2328 1455.02 Z" fill="#000000" fill-rule="nonzero" fill-opacity="1" /><path clip-path="url(#clip570)" d="M59.8578 1133.21 L76.1772 1133.21 L76.1772 1137.14 L54.2328 1137.14 L54.2328 1133.21 Q56.8949 1130.45 61.4782 1125.82 Q66.0846 1121.17 67.2652 1119.83 Q69.5105 1117.31 70.3902 1115.57 Q71.2929 1113.81 71.2929 1112.12 Q71.2929 1109.37 69.3485 1107.63 Q67.4272 1105.89 64.3254 1105.89 Q62.1263 1105.89 59.6726 1106.66 Q57.2421 1107.42 54.4643 1108.97 L54.4643 1104.25 Q57.2884 1103.12 59.7421 1102.54 Q62.1958 1101.96 64.2328 1101.96 Q69.6031 1101.96 72.7976 1104.64 Q75.992 1107.33 75.992 1111.82 Q75.992 1113.95 75.1818 1115.87 Q74.3948 1117.77 72.2883 1120.36 Q71.7096 1121.03 68.6078 1124.25 Q65.5059 1127.44 59.8578 1133.21 Z" fill="#000000" fill-rule="nonzero" fill-opacity="1" /><path clip-path="url(#clip570)" d="M66.5939 753.598 L54.7884 772.047 L66.5939 772.047 L66.5939 753.598 M65.367 749.524 L71.2466 749.524 L71.2466 772.047 L76.1772 772.047 L76.1772 775.936 L71.2466 775.936 L71.2466 784.084 L66.5939 784.084 L66.5939 775.936 L50.9921 775.936 L50.9921 771.422 L65.367 749.524 Z" fill="#000000" fill-rule="nonzero" fill-opacity="1" /><path clip-path="url(#clip570)" d="M64.6495 411.881 Q61.5013 411.881 59.6495 414.034 Q57.8208 416.186 57.8208 419.936 Q57.8208 423.663 59.6495 425.839 Q61.5013 427.992 64.6495 427.992 Q67.7976 427.992 69.6263 425.839 Q71.4781 423.663 71.4781 419.936 Q71.4781 416.186 69.6263 414.034 Q67.7976 411.881 64.6495 411.881 M73.9318 397.228 L73.9318 401.487 Q72.1726 400.654 70.367 400.214 Q68.5846 399.774 66.8254 399.774 Q62.1958 399.774 59.7421 402.899 Q57.3115 406.024 56.9643 412.344 Q58.33 410.33 60.3902 409.265 Q62.4504 408.177 64.9272 408.177 Q70.1355 408.177 73.1448 411.349 Q76.1772 414.497 76.1772 419.936 Q76.1772 425.26 73.029 428.478 Q69.8809 431.696 64.6495 431.696 Q58.6541 431.696 55.4828 427.112 Q52.3116 422.506 52.3116 413.779 Q52.3116 405.585 56.2004 400.724 Q60.0893 395.839 66.6402 395.839 Q68.3994 395.839 70.1818 396.187 Q71.9874 396.534 73.9318 397.228 Z" fill="#000000" fill-rule="nonzero" fill-opacity="1" /><path clip-path="url(#clip570)" d="M64.3254 61.5526 Q60.9921 61.5526 59.0708 63.335 Q57.1726 65.1174 57.1726 68.2424 Q57.1726 71.3674 59.0708 73.1498 Q60.9921 74.9322 64.3254 74.9322 Q67.6587 74.9322 69.58 73.1498 Q71.5013 71.3442 71.5013 68.2424 Q71.5013 65.1174 69.58 63.335 Q67.6819 61.5526 64.3254 61.5526 M59.6495 59.5619 Q56.6402 58.8211 54.9504 56.761 Q53.2838 54.7008 53.2838 51.7378 Q53.2838 47.5943 56.2236 45.1869 Q59.1865 42.7795 64.3254 42.7795 Q69.4874 42.7795 72.4272 45.1869 Q75.367 47.5943 75.367 51.7378 Q75.367 54.7008 73.6772 56.761 Q72.0105 58.8211 69.0244 59.5619 Q72.404 60.3489 74.279 62.6406 Q76.1772 64.9322 76.1772 68.2424 Q76.1772 73.2655 73.0985 75.9507 Q70.0429 78.6358 64.3254 78.6358 Q58.6078 78.6358 55.5291 75.9507 Q52.4736 73.2655 52.4736 68.2424 Q52.4736 64.9322 54.3717 62.6406 Q56.2699 60.3489 59.6495 59.5619 M57.9365 52.1776 Q57.9365 54.8628 59.6032 56.3674 Q61.293 57.8721 64.3254 57.8721 Q67.3346 57.8721 69.0244 56.3674 Q70.7374 54.8628 70.7374 52.1776 Q70.7374 49.4925 69.0244 47.9879 Q67.3346 46.4832 64.3254 46.4832 Q61.293 46.4832 59.6032 47.9879 Q57.9365 49.4925 57.9365 52.1776 Z" fill="#000000" fill-rule="nonzero" fill-opacity="1" /><path clip-path="url(#clip571)" d="M175.59 1296.39 L196.727 1300.27 L217.865 1292.56 L239.002 1275.47 L260.14 1269.91 L281.277 1239.18 L302.415 1219.39 L323.553 1212.95 L344.69 1174.06 L365.828 1166.27 L386.965 1126.77 L408.103 1073.48 L429.24 1073.66 L450.378 1034.15 L471.515 943.563 L492.653 818.19 L513.79 745.599 L534.928 688.077 L556.065 580.926 L577.203 460.357 L598.34 425.105 L619.478 479.685 L640.616 647.031 L661.753 916.97 L682.891 1094.48 L704.028 1196.6 L725.166 1247.14 L746.303 1279.73 L767.441 1301.28 L788.578 1319.53 L809.716 1328.39 L830.853 1320.33 L851.991 1306.72 L873.128 1298.5 L894.266 1300.02 L915.404 1291.31 L936.541 1283.58 L957.679 1266.5 L978.816 1241.36 L999.954 1209.05 L1021.09 1187.29 L1042.23 1138.16 L1063.37 1094.24 L1084.5 1068.81 L1105.64 1029.25 L1126.78 1017.46 L1147.92 967.581 L1169.05 915.78 L1190.19 823.76 L1211.33 751.014 L1232.47 741.75 L1253.6 704.157 L1274.74 680.709 L1295.88 738.891 L1317.02 881.518 L1338.15 1069.82 L1359.29 1197.11 L1380.43 1249.49 L1401.57 1289.04 L1422.7 1306.36 L1443.84 1322.23 L1464.98 1336.86 L1486.12 1353.23 L1507.25 1351.68 L1528.39 1349.24 L1549.53 1353.3 L1570.67 1342.43 L1591.8 1335.39 L1612.94 1330.33 L1634.08 1313.19 L1655.22 1312.85 L1676.35 1284.8 L1697.49 1299.16 L1718.63 1279.78 L1739.77 1255.07 L1760.9 1227.68 L1782.04 1187.42 L1803.18 1160.18 L1824.32 1150.34 L1845.46 1118.75 L1866.59 1071.57 L1887.73 1025.78 L1908.87 950.772 L1930.01 952.693 L1951.14 908.074 L1972.28 950.123 L1993.42 1046.55 L2014.56 1141.59 L2035.69 1179.33 L2056.83 1200.58 L2077.97 1238.09 L2099.11 1258.98 L2120.24 1286.36 L2141.38 1312.79 L2162.52 1319.99 L2183.66 1336.9 L2204.79 1351.27 L2225.93 1355.79 L2247.07 1366.34 L2268.21 1368.63 L2289.34 1377.21 L2289.34 1023.16 L2268.21 1101.18 L2247.07 1124.44 L2225.93 1093.72 L2204.79 993.872 L2183.66 915.921 L2162.52 633.61 L2141.38 497.039 L2120.24 374.215 L2099.11 366.832 L2077.97 262.514 L2056.83 228.849 L2035.69 106.014 L2014.56 87.9763 L1993.42 172.056 L1972.28 178.867 L1951.14 272.433 L1930.01 296.192 L1908.87 394.587 L1887.73 426.378 L1866.59 471.16 L1845.46 500.245 L1824.32 558.59 L1803.18 619.521 L1782.04 703.704 L1760.9 750.788 L1739.77 789.329 L1718.63 856.911 L1697.49 909.805 L1676.35 947.621 L1655.22 960.797 L1634.08 976.333 L1612.94 1030.36 L1591.8 1074.87 L1570.67 1108.58 L1549.53 1127.79 L1528.39 1108.91 L1507.25 1049.51 L1486.12 1009.88 L1464.98 955.052 L1443.84 915.586 L1422.7 858.235 L1401.57 661.335 L1380.43 572.394 L1359.29 521.308 L1338.15 396.449 L1317.02 283.191 L1295.88 215.435 L1274.74 218.52 L1253.6 205.435 L1232.47 136.9 L1211.33 198.459 L1190.19 326.714 L1169.05 480.518 L1147.92 599.399 L1126.78 690.683 L1105.64 788.025 L1084.5 868.819 L1063.37 935.428 L1042.23 990.874 L1021.09 1041.61 L999.954 1086.62 L978.816 1112.43 L957.679 1152.6 L936.541 1155.59 L915.404 1185.2 L894.266 1186.4 L873.128 1186.79 L851.991 1171.2 L830.853 1120.36 L809.716 1103.02 L788.578 1064.16 L767.441 989.701 L746.303 838.078 L725.166 630.306 L704.028 502.37 L682.891 406.045 L661.753 288.859 L640.616 346.128 L619.478 285.562 L598.34 186.492 L577.203 108.01 L556.065 188.547 L534.928 252.823 L513.79 405.439 L492.653 554.503 L471.515 648.851 L450.378 730.339 L429.24 819.629 L408.103 866.819 L386.965 950.321 L365.828 981.628 L344.69 1053.58 L323.553 1097.25 L302.415 1138.39 L281.277 1164.76 L260.14 1202.96 L239.002 1230.82 L217.865 1253.31 L196.727 1277.35 L175.59 1296.39  Z" fill="#009af9" fill-rule="evenodd" fill-opacity="0.5"/>
<polyline clip-path="url(#clip571)" style="stroke:#009af9; stroke-linecap:round; stroke-linejoin:round; stroke-width:12; stroke-opacity:1; fill:none" points="175.59,1296.39 196.727,1284.23 217.865,1269.37 239.002,1252.72 260.14,1229.28 281.277,1201.24 302.415,1171.89 323.553,1127.37 344.69,1093.67 365.828,1046.09 386.965,987.961 408.103,922.982 429.24,858.991 450.378,781.679 471.515,709.513 492.653,640.262 513.79,519.595 534.928,446.424 556.065,362.453 577.203,347.412 598.34,336.907 619.478,417.064 640.616,508.187 661.753,735.909 682.891,921.411 704.028,1036.35 725.166,1118.75 746.303,1182.36 767.441,1229.67 788.578,1257.38 809.716,1268.21 830.853,1274.92 851.991,1269.22 873.128,1268.04 894.266,1253.29 915.404,1226.62 936.541,1222.25 957.679,1184.92 978.816,1163.23 999.954,1131.72 1021.09,1114.74 1042.23,1077.02 1063.37,1044.55 1084.5,966.807 1105.64,880.988 1126.78,842.968 1147.92,808.992 1169.05,647.482 1190.19,565.55 1211.33,491.623 1232.47,427.262 1253.6,432.43 1274.74,467.63 1295.88,598.773 1317.02,663.058 1338.15,765.36 1359.29,783.159 1380.43,944.165 1401.57,1065.42 1422.7,1153.56 1443.84,1213.27 1464.98,1240.38 1486.12,1262.79 1507.25,1274.17 1528.39,1278.49 1549.53,1281.25 1570.67,1282.55 1591.8,1273.48 1612.94,1270.85 1634.08,1248.5 1655.22,1222.88 1676.35,1198.49 1697.49,1168.92 1718.63,1132.25 1739.77,1089.84 1760.9,1029.79 1782.04,967.862 1803.18,899.705 1824.32,814.968 1845.46,786.635 1866.59,709.779 1887.73,592.051 1908.87,572.073 1930.01,486.045 1951.14,439.472 1972.28,384.624 1993.42,411.039 2014.56,473.504 2035.69,575.282 2056.83,855.513 2077.97,1028.19 2099.11,1134.93 2120.24,1193.68 2141.38,1218.65 2162.52,1241.38 2183.66,1257.15 2204.79,1289.01 2225.93,1291.53 2247.07,1287.15 2268.21,1282.84 2289.34,1280.82 "/>
<path clip-path="url(#clip571)" d="M175.59 1296.39 L196.727 1333.61 L217.865 1355.83 L239.002 1376.25 L260.14 1391.26 L281.277 1406.14 L302.415 1415.07 L323.553 1423.26 L344.69 1429.82 L365.828 1434.16 L386.965 1438.36 L408.103 1441.35 L429.24 1443.56 L450.378 1445.06 L471.515 1445.72 L492.653 1444.93 L513.79 1441.76 L534.928 1436.23 L556.065 1428.29 L577.203 1414.55 L598.34 1392.36 L619.478 1360.8 L640.616 1316.42 L661.753 1249.02 L682.891 1163.86 L704.028 1058.94 L725.166 993.02 L746.303 1014.01 L767.441 1108.9 L788.578 1179.49 L809.716 1218.36 L830.853 1264.2 L851.991 1300.01 L873.128 1331.48 L894.266 1348.29 L915.404 1365.64 L936.541 1381.91 L957.679 1393.22 L978.816 1404.56 L999.954 1414.19 L1021.09 1418.11 L1042.23 1422.64 L1063.37 1426.39 L1084.5 1428.94 L1105.64 1430.39 L1126.78 1429.81 L1147.92 1427.34 L1169.05 1422.33 L1190.19 1413.64 L1211.33 1399.47 L1232.47 1383.22 L1253.6 1353.15 L1274.74 1323.15 L1295.88 1286.61 L1317.02 1234.06 L1338.15 1169.7 L1359.29 1091.06 L1380.43 1063.16 L1401.57 1034.21 L1422.7 1090.04 L1443.84 1127.22 L1464.98 1185.55 L1486.12 1233.23 L1507.25 1279.69 L1528.39 1314.68 L1549.53 1343.24 L1570.67 1363.78 L1591.8 1382.88 L1612.94 1393.82 L1634.08 1401.72 L1655.22 1412.81 L1676.35 1421.86 L1697.49 1429.2 L1718.63 1434.92 L1739.77 1438.43 L1760.9 1440.78 L1782.04 1442.26 L1803.18 1442.08 L1824.32 1444.44 L1845.46 1444.58 L1866.59 1443.67 L1887.73 1443.87 L1908.87 1444.19 L1930.01 1442.14 L1951.14 1438.04 L1972.28 1428.48 L1993.42 1416.23 L2014.56 1391.26 L2035.69 1345.28 L2056.83 1278.4 L2077.97 1302.99 L2099.11 1296.49 L2120.24 1277.26 L2141.38 1292.01 L2162.52 1316.38 L2183.66 1343.86 L2204.79 1356.66 L2225.93 1372.21 L2247.07 1383.09 L2268.21 1394.02 L2289.34 1401.42 L2289.34 1073.77 L2268.21 980.025 L2247.07 879.804 L2225.93 779.484 L2204.79 684.22 L2183.66 706.267 L2162.52 687.099 L2141.38 582.89 L2120.24 570.681 L2099.11 578.602 L2077.97 564.312 L2056.83 567.976 L2035.69 653.707 L2014.56 753.097 L1993.42 777.605 L1972.28 856.226 L1951.14 914.236 L1930.01 938.09 L1908.87 998.85 L1887.73 1078.24 L1866.59 1147.99 L1845.46 1212.33 L1824.32 1236.47 L1803.18 1254.92 L1782.04 1287.94 L1760.9 1304.73 L1739.77 1318.63 L1718.63 1313.26 L1697.49 1301.46 L1676.35 1287.09 L1655.22 1277.81 L1634.08 1260.58 L1612.94 1230.84 L1591.8 1183.75 L1570.67 1115.31 L1549.53 1038.57 L1528.39 965.661 L1507.25 891.114 L1486.12 843.831 L1464.98 808.432 L1443.84 780.135 L1422.7 693.179 L1401.57 642.629 L1380.43 625.791 L1359.29 599.354 L1338.15 546.793 L1317.02 505.259 L1295.88 595.95 L1274.74 786.295 L1253.6 986.55 L1232.47 1151.71 L1211.33 1262.96 L1190.19 1317.44 L1169.05 1335.34 L1147.92 1350.63 L1126.78 1358.84 L1105.64 1357.68 L1084.5 1354.69 L1063.37 1346.6 L1042.23 1336.71 L1021.09 1324.02 L999.954 1307.57 L978.816 1288.55 L957.679 1263.28 L936.541 1235.38 L915.404 1201.3 L894.266 1163.59 L873.128 1117.28 L851.991 1063.48 L830.853 994.381 L809.716 921.905 L788.578 873.965 L767.441 819.972 L746.303 788.591 L725.166 750.467 L704.028 672.964 L682.891 602.627 L661.753 543.526 L640.616 592.853 L619.478 852.542 L598.34 1031 L577.203 1173.59 L556.065 1273.8 L534.928 1326.63 L513.79 1360.29 L492.653 1384.96 L471.515 1398.73 L450.378 1406.29 L429.24 1411.92 L408.103 1416.17 L386.965 1416.73 L365.828 1417.27 L344.69 1414.69 L323.553 1407.94 L302.415 1405.59 L281.277 1395.33 L260.14 1383.16 L239.002 1360.85 L217.865 1340.14 L196.727 1320.6 L175.59 1296.39  Z" fill="#e26f46" fill-rule="evenodd" fill-opacity="0.5"/>
<polyline clip-path="url(#clip571)" style="stroke:#e26f46; stroke-linecap:round; stroke-linejoin:round; stroke-width:12; stroke-opacity:1; fill:none" points="175.59,1296.39 196.727,1328.05 217.865,1352.15 239.002,1372.35 260.14,1388.36 281.277,1401.63 302.415,1411.38 323.553,1417.27 344.69,1422.32 365.828,1425.52 386.965,1425.35 408.103,1426.26 429.24,1425.97 450.378,1421.52 471.515,1414.21 492.653,1400.78 513.79,1381.3 534.928,1358.07 556.065,1312.57 577.203,1246.47 598.34,1142.5 619.478,989.972 640.616,851.22 661.753,768.121 682.891,766.762 704.028,766.771 725.166,843.862 746.303,897.889 767.441,980.744 788.578,1042.37 809.716,1117.1 830.853,1173.75 851.991,1222.92 873.128,1269.79 894.266,1308.68 915.404,1332.7 936.541,1354.07 957.679,1367.19 978.816,1385.95 999.954,1396.23 1021.09,1403.38 1042.23,1410.14 1063.37,1411.74 1084.5,1410.86 1105.64,1411.67 1126.78,1404.4 1147.92,1395.07 1169.05,1376.35 1190.19,1356.83 1211.33,1322.93 1232.47,1286.89 1253.6,1237.6 1274.74,1173.12 1295.88,1102.63 1317.02,1013.56 1338.15,889.226 1359.29,830.369 1380.43,819.3 1401.57,902.024 1422.7,947.548 1443.84,955.297 1464.98,1040.37 1486.12,1107.52 1507.25,1161.73 1528.39,1202.33 1549.53,1259.62 1570.67,1288.34 1591.8,1316.69 1612.94,1340.5 1634.08,1364.17 1655.22,1382.43 1676.35,1391.85 1697.49,1398.84 1718.63,1407.5 1739.77,1411.44 1760.9,1413.43 1782.04,1420.11 1803.18,1424.99 1824.32,1428.42 1845.46,1428.03 1866.59,1420.34 1887.73,1406.51 1908.87,1385.14 1930.01,1350.61 1951.14,1292.97 1972.28,1202.82 1993.42,1062.48 2014.56,984.787 2035.69,929.971 2056.83,849.263 2077.97,897.067 2099.11,863.779 2120.24,907.673 2141.38,980.442 2162.52,996.741 2183.66,1082.09 2204.79,1156 2225.93,1220.78 2247.07,1242.09 2268.21,1276.76 2289.34,1318.82 "/>
</svg>
