<?xml version="1.0" encoding="utf-8"?>
<svg xmlns="http://www.w3.org/2000/svg" xmlns:xlink="http://www.w3.org/1999/xlink" width="600" height="400" viewBox="0 0 2400 1600">
<defs>
  <clipPath id="clip660">
    <rect x="0" y="0" width="2400" height="1600"/>
  </clipPath>
</defs>
<path clip-path="url(#clip660)" d="M0 1600 L2400 1600 L2400 0 L0 0  Z" fill="#ffffff" fill-rule="evenodd" fill-opacity="1"/>
<defs>
  <clipPath id="clip661">
    <rect x="156" y="47" width="2197" height="1440"/>
  </clipPath>
</defs>
<path clip-path="url(#clip660)" d="M156.274 1486.45 L2352.76 1486.45 L2352.76 47.2441 L156.274 47.2441  Z" fill="#ffffff" fill-rule="evenodd" fill-opacity="1"/>
<polyline clip-path="url(#clip661)" style="stroke:#000000; stroke-linecap:round; stroke-linejoin:round; stroke-width:2; stroke-opacity:0.1; fill:none" points="218.439,1486.45 218.439,47.2441 "/>
<polyline clip-path="url(#clip661)" style="stroke:#000000; stroke-linecap:round; stroke-linejoin:round; stroke-width:2; stroke-opacity:0.1; fill:none" points="736.477,1486.45 736.477,47.2441 "/>
<polyline clip-path="url(#clip661)" style="stroke:#000000; stroke-linecap:round; stroke-linejoin:round; stroke-width:2; stroke-opacity:0.1; fill:none" points="1254.52,1486.45 1254.52,47.2441 "/>
<polyline clip-path="url(#clip661)" style="stroke:#000000; stroke-linecap:round; stroke-linejoin:round; stroke-width:2; stroke-opacity:0.1; fill:none" points="1772.55,1486.45 1772.55,47.2441 "/>
<polyline clip-path="url(#clip661)" style="stroke:#000000; stroke-linecap:round; stroke-linejoin:round; stroke-width:2; stroke-opacity:0.1; fill:none" points="2290.59,1486.45 2290.59,47.2441 "/>
<polyline clip-path="url(#clip661)" style="stroke:#000000; stroke-linecap:round; stroke-linejoin:round; stroke-width:2; stroke-opacity:0.1; fill:none" points="156.274,1235.3 2352.76,1235.3 "/>
<polyline clip-path="url(#clip661)" style="stroke:#000000; stroke-linecap:round; stroke-linejoin:round; stroke-width:2; stroke-opacity:0.1; fill:none" points="156.274,963.571 2352.76,963.571 "/>
<polyline clip-path="url(#clip661)" style="stroke:#000000; stroke-linecap:round; stroke-linejoin:round; stroke-width:2; stroke-opacity:0.1; fill:none" points="156.274,691.84 2352.76,691.84 "/>
<polyline clip-path="url(#clip661)" style="stroke:#000000; stroke-linecap:round; stroke-linejoin:round; stroke-width:2; stroke-opacity:0.1; fill:none" points="156.274,420.11 2352.76,420.11 "/>
<polyline clip-path="url(#clip661)" style="stroke:#000000; stroke-linecap:round; stroke-linejoin:round; stroke-width:2; stroke-opacity:0.1; fill:none" points="156.274,148.379 2352.76,148.379 "/>
<polyline clip-path="url(#clip660)" style="stroke:#000000; stroke-linecap:round; stroke-linejoin:round; stroke-width:4; stroke-opacity:1; fill:none" points="156.274,1486.45 2352.76,1486.45 "/>
<polyline clip-path="url(#clip660)" style="stroke:#000000; stroke-linecap:round; stroke-linejoin:round; stroke-width:4; stroke-opacity:1; fill:none" points="218.439,1486.45 218.439,1467.55 "/>
<polyline clip-path="url(#clip660)" style="stroke:#000000; stroke-linecap:round; stroke-linejoin:round; stroke-width:4; stroke-opacity:1; fill:none" points="736.477,1486.45 736.477,1467.55 "/>
<polyline clip-path="url(#clip660)" style="stroke:#000000; stroke-linecap:round; stroke-linejoin:round; stroke-width:4; stroke-opacity:1; fill:none" points="1254.52,1486.45 1254.52,1467.55 "/>
<polyline clip-path="url(#clip660)" style="stroke:#000000; stroke-linecap:round; stroke-linejoin:round; stroke-width:4; stroke-opacity:1; fill:none" points="1772.55,1486.45 1772.55,1467.55 "/>
<polyline clip-path="url(#clip660)" style="stroke:#000000; stroke-linecap:round; stroke-linejoin:round; stroke-width:4; stroke-opacity:1; fill:none" points="2290.59,1486.45 2290.59,1467.55 "/>
<path clip-path="url(#clip660)" d="M180.742 1517.37 Q177.131 1517.37 175.302 1520.93 Q173.497 1524.47 173.497 1531.6 Q173.497 1538.71 175.302 1542.27 Q177.131 1545.82 180.742 1545.82 Q184.376 1545.82 186.182 1542.27 Q188.011 1538.71 188.011 1531.6 Q188.011 1524.47 186.182 1520.93 Q184.376 1517.37 180.742 1517.37 M180.742 1513.66 Q186.552 1513.66 189.608 1518.27 Q192.687 1522.85 192.687 1531.6 Q192.687 1540.33 189.608 1544.94 Q186.552 1549.52 180.742 1549.52 Q174.932 1549.52 171.853 1544.94 Q168.798 1540.33 168.798 1531.6 Q168.798 1522.85 171.853 1518.27 Q174.932 1513.66 180.742 1513.66 Z" fill="#000000" fill-rule="nonzero" fill-opacity="1" /><path clip-path="url(#clip660)" d="M200.904 1542.97 L205.788 1542.97 L205.788 1548.85 L200.904 1548.85 L200.904 1542.97 Z" fill="#000000" fill-rule="nonzero" fill-opacity="1" /><path clip-path="url(#clip660)" d="M225.973 1517.37 Q222.362 1517.37 220.534 1520.93 Q218.728 1524.47 218.728 1531.6 Q218.728 1538.71 220.534 1542.27 Q222.362 1545.82 225.973 1545.82 Q229.608 1545.82 231.413 1542.27 Q233.242 1538.71 233.242 1531.6 Q233.242 1524.47 231.413 1520.93 Q229.608 1517.37 225.973 1517.37 M225.973 1513.66 Q231.784 1513.66 234.839 1518.27 Q237.918 1522.85 237.918 1531.6 Q237.918 1540.33 234.839 1544.94 Q231.784 1549.52 225.973 1549.52 Q220.163 1549.52 217.085 1544.94 Q214.029 1540.33 214.029 1531.6 Q214.029 1522.85 217.085 1518.27 Q220.163 1513.66 225.973 1513.66 Z" fill="#000000" fill-rule="nonzero" fill-opacity="1" /><path clip-path="url(#clip660)" d="M256.135 1517.37 Q252.524 1517.37 250.696 1520.93 Q248.89 1524.47 248.89 1531.6 Q248.89 1538.71 250.696 1542.27 Q252.524 1545.82 256.135 1545.82 Q259.77 1545.82 261.575 1542.27 Q263.404 1538.71 263.404 1531.6 Q263.404 1524.47 261.575 1520.93 Q259.77 1517.37 256.135 1517.37 M256.135 1513.66 Q261.945 1513.66 265.001 1518.27 Q268.08 1522.85 268.08 1531.6 Q268.08 1540.33 265.001 1544.94 Q261.945 1549.52 256.135 1549.52 Q250.325 1549.52 247.246 1544.94 Q244.191 1540.33 244.191 1531.6 Q244.191 1522.85 247.246 1518.27 Q250.325 1513.66 256.135 1513.66 Z" fill="#000000" fill-rule="nonzero" fill-opacity="1" /><path clip-path="url(#clip660)" d="M699.278 1517.37 Q695.667 1517.37 693.838 1520.93 Q692.033 1524.47 692.033 1531.6 Q692.033 1538.71 693.838 1542.27 Q695.667 1545.82 699.278 1545.82 Q702.912 1545.82 704.718 1542.27 Q706.546 1538.71 706.546 1531.6 Q706.546 1524.47 704.718 1520.93 Q702.912 1517.37 699.278 1517.37 M699.278 1513.66 Q705.088 1513.66 708.144 1518.27 Q711.222 1522.85 711.222 1531.6 Q711.222 1540.33 708.144 1544.94 Q705.088 1549.52 699.278 1549.52 Q693.468 1549.52 690.389 1544.94 Q687.334 1540.33 687.334 1531.6 Q687.334 1522.85 690.389 1518.27 Q693.468 1513.66 699.278 1513.66 Z" fill="#000000" fill-rule="nonzero" fill-opacity="1" /><path clip-path="url(#clip660)" d="M719.44 1542.97 L724.324 1542.97 L724.324 1548.85 L719.44 1548.85 L719.44 1542.97 Z" fill="#000000" fill-rule="nonzero" fill-opacity="1" /><path clip-path="url(#clip660)" d="M738.537 1544.91 L754.856 1544.91 L754.856 1548.85 L732.912 1548.85 L732.912 1544.91 Q735.574 1542.16 740.157 1537.53 Q744.764 1532.88 745.944 1531.53 Q748.19 1529.01 749.069 1527.27 Q749.972 1525.51 749.972 1523.82 Q749.972 1521.07 748.028 1519.33 Q746.106 1517.6 743.005 1517.6 Q740.806 1517.6 738.352 1518.36 Q735.921 1519.13 733.144 1520.68 L733.144 1515.95 Q735.968 1514.82 738.421 1514.24 Q740.875 1513.66 742.912 1513.66 Q748.282 1513.66 751.477 1516.35 Q754.671 1519.03 754.671 1523.52 Q754.671 1525.65 753.861 1527.57 Q753.074 1529.47 750.968 1532.07 Q750.389 1532.74 747.287 1535.95 Q744.185 1539.15 738.537 1544.91 Z" fill="#000000" fill-rule="nonzero" fill-opacity="1" /><path clip-path="url(#clip660)" d="M764.717 1514.29 L783.074 1514.29 L783.074 1518.22 L769 1518.22 L769 1526.7 Q770.018 1526.35 771.037 1526.19 Q772.055 1526 773.074 1526 Q778.861 1526 782.241 1529.17 Q785.62 1532.34 785.62 1537.76 Q785.62 1543.34 782.148 1546.44 Q778.676 1549.52 772.356 1549.52 Q770.18 1549.52 767.912 1549.15 Q765.667 1548.78 763.259 1548.04 L763.259 1543.34 Q765.342 1544.47 767.565 1545.03 Q769.787 1545.58 772.264 1545.58 Q776.268 1545.58 778.606 1543.48 Q780.944 1541.37 780.944 1537.76 Q780.944 1534.15 778.606 1532.04 Q776.268 1529.94 772.264 1529.94 Q770.389 1529.94 768.514 1530.35 Q766.662 1530.77 764.717 1531.65 L764.717 1514.29 Z" fill="#000000" fill-rule="nonzero" fill-opacity="1" /><path clip-path="url(#clip660)" d="M1216.82 1517.37 Q1213.21 1517.37 1211.38 1520.93 Q1209.57 1524.47 1209.57 1531.6 Q1209.57 1538.71 1211.38 1542.27 Q1213.21 1545.82 1216.82 1545.82 Q1220.45 1545.82 1222.26 1542.27 Q1224.09 1538.71 1224.09 1531.6 Q1224.09 1524.47 1222.26 1520.93 Q1220.45 1517.37 1216.82 1517.37 M1216.82 1513.66 Q1222.63 1513.66 1225.68 1518.27 Q1228.76 1522.85 1228.76 1531.6 Q1228.76 1540.33 1225.68 1544.94 Q1222.63 1549.52 1216.82 1549.52 Q1211.01 1549.52 1207.93 1544.94 Q1204.87 1540.33 1204.87 1531.6 Q1204.87 1522.85 1207.93 1518.27 Q1211.01 1513.66 1216.82 1513.66 Z" fill="#000000" fill-rule="nonzero" fill-opacity="1" /><path clip-path="url(#clip660)" d="M1236.98 1542.97 L1241.86 1542.97 L1241.86 1548.85 L1236.98 1548.85 L1236.98 1542.97 Z" fill="#000000" fill-rule="nonzero" fill-opacity="1" /><path clip-path="url(#clip660)" d="M1252.1 1514.29 L1270.45 1514.29 L1270.45 1518.22 L1256.38 1518.22 L1256.38 1526.7 Q1257.4 1526.35 1258.42 1526.19 Q1259.43 1526 1260.45 1526 Q1266.24 1526 1269.62 1529.17 Q1273 1532.34 1273 1537.76 Q1273 1543.34 1269.53 1546.44 Q1266.05 1549.52 1259.73 1549.52 Q1257.56 1549.52 1255.29 1549.15 Q1253.05 1548.78 1250.64 1548.04 L1250.64 1543.34 Q1252.72 1544.47 1254.94 1545.03 Q1257.17 1545.58 1259.64 1545.58 Q1263.65 1545.58 1265.98 1543.48 Q1268.32 1541.37 1268.32 1537.76 Q1268.32 1534.15 1265.98 1532.04 Q1263.65 1529.94 1259.64 1529.94 Q1257.77 1529.94 1255.89 1530.35 Q1254.04 1530.77 1252.1 1531.65 L1252.1 1514.29 Z" fill="#000000" fill-rule="nonzero" fill-opacity="1" /><path clip-path="url(#clip660)" d="M1292.21 1517.37 Q1288.6 1517.37 1286.77 1520.93 Q1284.97 1524.47 1284.97 1531.6 Q1284.97 1538.71 1286.77 1542.27 Q1288.6 1545.82 1292.21 1545.82 Q1295.85 1545.82 1297.65 1542.27 Q1299.48 1538.71 1299.48 1531.6 Q1299.48 1524.47 1297.65 1520.93 Q1295.85 1517.37 1292.21 1517.37 M1292.21 1513.66 Q1298.02 1513.66 1301.08 1518.27 Q1304.16 1522.85 1304.16 1531.6 Q1304.16 1540.33 1301.08 1544.94 Q1298.02 1549.52 1292.21 1549.52 Q1286.4 1549.52 1283.32 1544.94 Q1280.27 1540.33 1280.27 1531.6 Q1280.27 1522.85 1283.32 1518.27 Q1286.4 1513.66 1292.21 1513.66 Z" fill="#000000" fill-rule="nonzero" fill-opacity="1" /><path clip-path="url(#clip660)" d="M1735.35 1517.37 Q1731.74 1517.37 1729.91 1520.93 Q1728.11 1524.47 1728.11 1531.6 Q1728.11 1538.71 1729.91 1542.27 Q1731.74 1545.82 1735.35 1545.82 Q1738.99 1545.82 1740.79 1542.27 Q1742.62 1538.71 1742.62 1531.6 Q1742.62 1524.47 1740.79 1520.93 Q1738.99 1517.37 1735.35 1517.37 M1735.35 1513.66 Q1741.16 1513.66 1744.22 1518.27 Q1747.3 1522.85 1747.3 1531.6 Q1747.3 1540.33 1744.22 1544.94 Q1741.16 1549.52 1735.35 1549.52 Q1729.54 1549.52 1726.47 1544.94 Q1723.41 1540.33 1723.41 1531.6 Q1723.41 1522.85 1726.47 1518.27 Q1729.54 1513.66 1735.35 1513.66 Z" fill="#000000" fill-rule="nonzero" fill-opacity="1" /><path clip-path="url(#clip660)" d="M1755.52 1542.97 L1760.4 1542.97 L1760.4 1548.85 L1755.52 1548.85 L1755.52 1542.97 Z" fill="#000000" fill-rule="nonzero" fill-opacity="1" /><path clip-path="url(#clip660)" d="M1769.41 1514.29 L1791.63 1514.29 L1791.63 1516.28 L1779.08 1548.85 L1774.2 1548.85 L1786 1518.22 L1769.41 1518.22 L1769.41 1514.29 Z" fill="#000000" fill-rule="nonzero" fill-opacity="1" /><path clip-path="url(#clip660)" d="M1800.79 1514.29 L1819.15 1514.29 L1819.15 1518.22 L1805.08 1518.22 L1805.08 1526.7 Q1806.09 1526.35 1807.11 1526.19 Q1808.13 1526 1809.15 1526 Q1814.94 1526 1818.32 1529.17 Q1821.7 1532.34 1821.7 1537.76 Q1821.7 1543.34 1818.22 1546.44 Q1814.75 1549.52 1808.43 1549.52 Q1806.26 1549.52 1803.99 1549.15 Q1801.74 1548.78 1799.34 1548.04 L1799.34 1543.34 Q1801.42 1544.47 1803.64 1545.03 Q1805.86 1545.58 1808.34 1545.58 Q1812.34 1545.58 1814.68 1543.48 Q1817.02 1541.37 1817.02 1537.76 Q1817.02 1534.15 1814.68 1532.04 Q1812.34 1529.94 1808.34 1529.94 Q1806.47 1529.94 1804.59 1530.35 Q1802.74 1530.77 1800.79 1531.65 L1800.79 1514.29 Z" fill="#000000" fill-rule="nonzero" fill-opacity="1" /><path clip-path="url(#clip660)" d="M2242.66 1544.91 L2250.3 1544.91 L2250.3 1518.55 L2241.99 1520.21 L2241.99 1515.95 L2250.26 1514.29 L2254.93 1514.29 L2254.93 1544.91 L2262.57 1544.91 L2262.57 1548.85 L2242.66 1548.85 L2242.66 1544.91 Z" fill="#000000" fill-rule="nonzero" fill-opacity="1" /><path clip-path="url(#clip660)" d="M2272.02 1542.97 L2276.9 1542.97 L2276.9 1548.85 L2272.02 1548.85 L2272.02 1542.97 Z" fill="#000000" fill-rule="nonzero" fill-opacity="1" /><path clip-path="url(#clip660)" d="M2297.08 1517.37 Q2293.47 1517.37 2291.64 1520.93 Q2289.84 1524.47 2289.84 1531.6 Q2289.84 1538.71 2291.64 1542.27 Q2293.47 1545.82 2297.08 1545.82 Q2300.72 1545.82 2302.52 1542.27 Q2304.35 1538.71 2304.35 1531.6 Q2304.35 1524.47 2302.52 1520.93 Q2300.72 1517.37 2297.08 1517.37 M2297.08 1513.66 Q2302.89 1513.66 2305.95 1518.27 Q2309.03 1522.85 2309.03 1531.6 Q2309.03 1540.33 2305.95 1544.94 Q2302.89 1549.52 2297.08 1549.52 Q2291.27 1549.52 2288.2 1544.94 Q2285.14 1540.33 2285.14 1531.6 Q2285.14 1522.85 2288.2 1518.27 Q2291.27 1513.66 2297.08 1513.66 Z" fill="#000000" fill-rule="nonzero" fill-opacity="1" /><path clip-path="url(#clip660)" d="M2327.25 1517.37 Q2323.64 1517.37 2321.81 1520.93 Q2320 1524.47 2320 1531.6 Q2320 1538.71 2321.81 1542.27 Q2323.64 1545.82 2327.25 1545.82 Q2330.88 1545.82 2332.69 1542.27 Q2334.51 1538.71 2334.51 1531.6 Q2334.51 1524.47 2332.69 1520.93 Q2330.88 1517.37 2327.25 1517.37 M2327.25 1513.66 Q2333.06 1513.66 2336.11 1518.27 Q2339.19 1522.85 2339.19 1531.6 Q2339.19 1540.33 2336.11 1544.94 Q2333.06 1549.52 2327.25 1549.52 Q2321.44 1549.52 2318.36 1544.94 Q2315.3 1540.33 2315.3 1531.6 Q2315.3 1522.85 2318.36 1518.27 Q2321.44 1513.66 2327.25 1513.66 Z" fill="#000000" fill-rule="nonzero" fill-opacity="1" /><polyline clip-path="url(#clip660)" style="stroke:#000000; stroke-linecap:round; stroke-linejoin:round; stroke-width:4; stroke-opacity:1; fill:none" points="156.274,1486.45 156.274,47.2441 "/>
<polyline clip-path="url(#clip660)" style="stroke:#000000; stroke-linecap:round; stroke-linejoin:round; stroke-width:4; stroke-opacity:1; fill:none" points="156.274,1235.3 175.172,1235.3 "/>
<polyline clip-path="url(#clip660)" style="stroke:#000000; stroke-linecap:round; stroke-linejoin:round; stroke-width:4; stroke-opacity:1; fill:none" points="156.274,963.571 175.172,963.571 "/>
<polyline clip-path="url(#clip660)" style="stroke:#000000; stroke-linecap:round; stroke-linejoin:round; stroke-width:4; stroke-opacity:1; fill:none" points="156.274,691.84 175.172,691.84 "/>
<polyline clip-path="url(#clip660)" style="stroke:#000000; stroke-linecap:round; stroke-linejoin:round; stroke-width:4; stroke-opacity:1; fill:none" points="156.274,420.11 175.172,420.11 "/>
<polyline clip-path="url(#clip660)" style="stroke:#000000; stroke-linecap:round; stroke-linejoin:round; stroke-width:4; stroke-opacity:1; fill:none" points="156.274,148.379 175.172,148.379 "/>
<path clip-path="url(#clip660)" d="M62.9365 1221.1 Q59.3254 1221.1 57.4967 1224.67 Q55.6912 1228.21 55.6912 1235.34 Q55.6912 1242.44 57.4967 1246.01 Q59.3254 1249.55 62.9365 1249.55 Q66.5707 1249.55 68.3763 1246.01 Q70.205 1242.44 70.205 1235.34 Q70.205 1228.21 68.3763 1224.67 Q66.5707 1221.1 62.9365 1221.1 M62.9365 1217.4 Q68.7467 1217.4 71.8022 1222 Q74.8809 1226.59 74.8809 1235.34 Q74.8809 1244.06 71.8022 1248.67 Q68.7467 1253.25 62.9365 1253.25 Q57.1264 1253.25 54.0477 1248.67 Q50.9921 1244.06 50.9921 1235.34 Q50.9921 1226.59 54.0477 1222 Q57.1264 1217.4 62.9365 1217.4 Z" fill="#000000" fill-rule="nonzero" fill-opacity="1" /><path clip-path="url(#clip660)" d="M83.0984 1246.7 L87.9827 1246.7 L87.9827 1252.58 L83.0984 1252.58 L83.0984 1246.7 Z" fill="#000000" fill-rule="nonzero" fill-opacity="1" /><path clip-path="url(#clip660)" d="M108.746 1233.44 Q105.598 1233.44 103.746 1235.59 Q101.918 1237.74 101.918 1241.49 Q101.918 1245.22 103.746 1247.4 Q105.598 1249.55 108.746 1249.55 Q111.895 1249.55 113.723 1247.4 Q115.575 1245.22 115.575 1241.49 Q115.575 1237.74 113.723 1235.59 Q111.895 1233.44 108.746 1233.44 M118.029 1218.79 L118.029 1223.05 Q116.27 1222.21 114.464 1221.77 Q112.682 1221.33 110.922 1221.33 Q106.293 1221.33 103.839 1224.46 Q101.409 1227.58 101.061 1233.9 Q102.427 1231.89 104.487 1230.82 Q106.547 1229.74 109.024 1229.74 Q114.233 1229.74 117.242 1232.91 Q120.274 1236.05 120.274 1241.49 Q120.274 1246.82 117.126 1250.04 Q113.978 1253.25 108.746 1253.25 Q102.751 1253.25 99.5798 1248.67 Q96.4085 1244.06 96.4085 1235.34 Q96.4085 1227.14 100.297 1222.28 Q104.186 1217.4 110.737 1217.4 Q112.496 1217.4 114.279 1217.74 Q116.084 1218.09 118.029 1218.79 Z" fill="#000000" fill-rule="nonzero" fill-opacity="1" /><path clip-path="url(#clip660)" d="M63.1911 949.37 Q59.58 949.37 57.7513 952.935 Q55.9458 956.476 55.9458 963.606 Q55.9458 970.712 57.7513 974.277 Q59.58 977.819 63.1911 977.819 Q66.8254 977.819 68.6309 974.277 Q70.4596 970.712 70.4596 963.606 Q70.4596 956.476 68.6309 952.935 Q66.8254 949.37 63.1911 949.37 M63.1911 945.666 Q69.0013 945.666 72.0568 950.273 Q75.1355 954.856 75.1355 963.606 Q75.1355 972.333 72.0568 976.939 Q69.0013 981.523 63.1911 981.523 Q57.381 981.523 54.3023 976.939 Q51.2468 972.333 51.2468 963.606 Q51.2468 954.856 54.3023 950.273 Q57.381 945.666 63.1911 945.666 Z" fill="#000000" fill-rule="nonzero" fill-opacity="1" /><path clip-path="url(#clip660)" d="M83.3531 974.972 L88.2373 974.972 L88.2373 980.851 L83.3531 980.851 L83.3531 974.972 Z" fill="#000000" fill-rule="nonzero" fill-opacity="1" /><path clip-path="url(#clip660)" d="M108.422 964.439 Q105.089 964.439 103.168 966.222 Q101.27 968.004 101.27 971.129 Q101.27 974.254 103.168 976.037 Q105.089 977.819 108.422 977.819 Q111.756 977.819 113.677 976.037 Q115.598 974.231 115.598 971.129 Q115.598 968.004 113.677 966.222 Q111.779 964.439 108.422 964.439 M103.746 962.449 Q100.737 961.708 99.0474 959.648 Q97.3808 957.588 97.3808 954.625 Q97.3808 950.481 100.321 948.074 Q103.284 945.666 108.422 945.666 Q113.584 945.666 116.524 948.074 Q119.464 950.481 119.464 954.625 Q119.464 957.588 117.774 959.648 Q116.108 961.708 113.121 962.449 Q116.501 963.236 118.376 965.527 Q120.274 967.819 120.274 971.129 Q120.274 976.152 117.195 978.837 Q114.14 981.523 108.422 981.523 Q102.705 981.523 99.6261 978.837 Q96.5706 976.152 96.5706 971.129 Q96.5706 967.819 98.4687 965.527 Q100.367 963.236 103.746 962.449 M102.034 955.064 Q102.034 957.75 103.7 959.254 Q105.39 960.759 108.422 960.759 Q111.432 960.759 113.121 959.254 Q114.834 957.75 114.834 955.064 Q114.834 952.379 113.121 950.875 Q111.432 949.37 108.422 949.37 Q105.39 949.37 103.7 950.875 Q102.034 952.379 102.034 955.064 Z" fill="#000000" fill-rule="nonzero" fill-opacity="1" /><path clip-path="url(#clip660)" d="M53.9088 705.185 L61.5476 705.185 L61.5476 678.82 L53.2375 680.486 L53.2375 676.227 L61.5013 674.56 L66.1772 674.56 L66.1772 705.185 L73.8161 705.185 L73.8161 709.12 L53.9088 709.12 L53.9088 705.185 Z" fill="#000000" fill-rule="nonzero" fill-opacity="1" /><path clip-path="url(#clip660)" d="M83.2605 703.241 L88.1447 703.241 L88.1447 709.12 L83.2605 709.12 L83.2605 703.241 Z" fill="#000000" fill-rule="nonzero" fill-opacity="1" /><path clip-path="url(#clip660)" d="M108.33 677.639 Q104.719 677.639 102.89 681.204 Q101.084 684.746 101.084 691.875 Q101.084 698.982 102.89 702.546 Q104.719 706.088 108.33 706.088 Q111.964 706.088 113.77 702.546 Q115.598 698.982 115.598 691.875 Q115.598 684.746 113.77 681.204 Q111.964 677.639 108.33 677.639 M108.33 673.936 Q114.14 673.936 117.195 678.542 Q120.274 683.125 120.274 691.875 Q120.274 700.602 117.195 705.208 Q114.14 709.792 108.33 709.792 Q102.52 709.792 99.4409 705.208 Q96.3854 700.602 96.3854 691.875 Q96.3854 683.125 99.4409 678.542 Q102.52 673.936 108.33 673.936 Z" fill="#000000" fill-rule="nonzero" fill-opacity="1" /><path clip-path="url(#clip660)" d="M55.506 433.455 L63.1448 433.455 L63.1448 407.089 L54.8347 408.756 L54.8347 404.496 L63.0985 402.83 L67.7744 402.83 L67.7744 433.455 L75.4133 433.455 L75.4133 437.39 L55.506 437.39 L55.506 433.455 Z" fill="#000000" fill-rule="nonzero" fill-opacity="1" /><path clip-path="url(#clip660)" d="M84.8577 431.51 L89.7419 431.51 L89.7419 437.39 L84.8577 437.39 L84.8577 431.51 Z" fill="#000000" fill-rule="nonzero" fill-opacity="1" /><path clip-path="url(#clip660)" d="M103.955 433.455 L120.274 433.455 L120.274 437.39 L98.3298 437.39 L98.3298 433.455 Q100.992 430.7 105.575 426.07 Q110.182 421.418 111.362 420.075 Q113.608 417.552 114.487 415.816 Q115.39 414.056 115.39 412.367 Q115.39 409.612 113.445 407.876 Q111.524 406.14 108.422 406.14 Q106.223 406.14 103.77 406.904 Q101.339 407.668 98.5613 409.219 L98.5613 404.496 Q101.385 403.362 103.839 402.783 Q106.293 402.205 108.33 402.205 Q113.7 402.205 116.895 404.89 Q120.089 407.575 120.089 412.066 Q120.089 414.195 119.279 416.117 Q118.492 418.015 116.385 420.607 Q115.807 421.279 112.705 424.496 Q109.603 427.691 103.955 433.455 Z" fill="#000000" fill-rule="nonzero" fill-opacity="1" /><path clip-path="url(#clip660)" d="M53.4227 161.724 L61.0615 161.724 L61.0615 135.358 L52.7514 137.025 L52.7514 132.766 L61.0152 131.099 L65.6911 131.099 L65.6911 161.724 L73.33 161.724 L73.33 165.659 L53.4227 165.659 L53.4227 161.724 Z" fill="#000000" fill-rule="nonzero" fill-opacity="1" /><path clip-path="url(#clip660)" d="M82.7744 159.779 L87.6586 159.779 L87.6586 165.659 L82.7744 165.659 L82.7744 159.779 Z" fill="#000000" fill-rule="nonzero" fill-opacity="1" /><path clip-path="url(#clip660)" d="M110.691 135.173 L98.8854 153.622 L110.691 153.622 L110.691 135.173 M109.464 131.099 L115.344 131.099 L115.344 153.622 L120.274 153.622 L120.274 157.511 L115.344 157.511 L115.344 165.659 L110.691 165.659 L110.691 157.511 L95.0891 157.511 L95.0891 152.997 L109.464 131.099 Z" fill="#000000" fill-rule="nonzero" fill-opacity="1" /><polyline clip-path="url(#clip661)" style="stroke:#009af9; stroke-linecap:round; stroke-linejoin:round; stroke-width:12; stroke-opacity:1; fill:none" points="218.439,1371.17 425.654,1301.25 632.869,1296.27 840.085,1296.85 1047.3,1233.62 1254.52,1155.47 1461.73,1182.63 1668.95,1128.03 1876.16,1029.93 2083.38,1014.26 2290.59,1082.07 "/>
<polyline clip-path="url(#clip661)" style="stroke:#e26f46; stroke-linecap:round; stroke-linejoin:round; stroke-width:12; stroke-opacity:1; fill:none" points="218.439,1371.17 425.654,1306.17 632.869,1235.72 840.085,1059.67 1047.3,871.986 1254.52,799.885 1461.73,1045.95 1668.95,889.507 1876.16,643.297 2083.38,616.641 2290.59,274.864 "/>
<polyline clip-path="url(#clip661)" style="stroke:#3da44d; stroke-linecap:round; stroke-linejoin:round; stroke-width:12; stroke-opacity:1; fill:none" points="218.439,1371.17 425.654,1301.1 632.869,1198.68 840.085,1190.72 1047.3,1184.73 1254.52,1083.95 1461.73,970.896 1668.95,590.803 1876.16,501.54 2083.38,228.475 2290.59,111.406 "/>
<polyline clip-path="url(#clip661)" style="stroke:#c271d2; stroke-linecap:round; stroke-linejoin:round; stroke-width:12; stroke-opacity:1; fill:none" points="218.439,1371.17 425.654,1212.56 632.869,1285.39 840.085,1338.78 1047.3,1286.57 1254.52,1096.33 1461.73,1286.58 1668.95,1310.58 1876.16,1301.35 2083.38,1307.44 2290.59,1215.62 "/>
<polyline clip-path="url(#clip661)" style="stroke:#ac8d18; stroke-linecap:round; stroke-linejoin:round; stroke-width:12; stroke-opacity:1; fill:none" points="218.439,1371.17 425.654,1288.61 632.869,1207.57 840.085,833.829 1047.3,739.87 1254.52,599.076 1461.73,667.04 1668.95,705.504 1876.16,524.105 2083.38,447.85 2290.59,259.869 "/>
<polyline clip-path="url(#clip661)" style="stroke:#00a9ad; stroke-linecap:round; stroke-linejoin:round; stroke-width:12; stroke-opacity:1; fill:none" points="218.439,1371.17 425.654,1316.8 632.869,1318.4 840.085,1281.89 1047.3,1107.81 1254.52,1071.87 1461.73,970.64 1668.95,929.264 1876.16,888.856 2083.38,792.093 2290.59,1111.74 "/>
<polyline clip-path="url(#clip661)" style="stroke:#ed5d92; stroke-linecap:round; stroke-linejoin:round; stroke-width:12; stroke-opacity:1; fill:none" points="218.439,1371.17 425.654,1372.54 632.869,1333.66 840.085,1349.27 1047.3,1445.72 1254.52,1338.44 1461.73,1148.47 1668.95,1243.55 1876.16,1193.19 2083.38,1234.88 2290.59,968.774 "/>
<polyline clip-path="url(#clip661)" style="stroke:#c68125; stroke-linecap:round; stroke-linejoin:round; stroke-width:12; stroke-opacity:1; fill:none" points="218.439,1371.17 425.654,1420.58 632.869,1238.72 840.085,853.916 1047.3,777.659 1254.52,716.035 1461.73,215.856 1668.95,87.9763 1876.16,417.172 2083.38,482.072 2290.59,535.164 "/>
</svg>
