<?xml version="1.0" encoding="utf-8"?>
<svg xmlns="http://www.w3.org/2000/svg" xmlns:xlink="http://www.w3.org/1999/xlink" width="600" height="400" viewBox="0 0 2400 1600">
<defs>
  <clipPath id="clip010">
    <rect x="0" y="0" width="2400" height="1600"/>
  </clipPath>
</defs>
<path clip-path="url(#clip010)" d="M0 1600 L2400 1600 L2400 0 L0 0  Z" fill="#ffffff" fill-rule="evenodd" fill-opacity="1"/>
<defs>
  <clipPath id="clip011">
    <rect x="480" y="0" width="1681" height="1600"/>
  </clipPath>
</defs>
<path clip-path="url(#clip010)" d="M112.177 1486.45 L2352.76 1486.45 L2352.76 47.2441 L112.177 47.2441  Z" fill="#ffffff" fill-rule="evenodd" fill-opacity="1"/>
<defs>
  <clipPath id="clip012">
    <rect x="112" y="47" width="2242" height="1440"/>
  </clipPath>
</defs>
<polyline clip-path="url(#clip012)" style="stroke:#000000; stroke-linecap:round; stroke-linejoin:round; stroke-width:2; stroke-opacity:0.1; fill:none" points="175.59,1486.45 175.59,47.2441 "/>
<polyline clip-path="url(#clip012)" style="stroke:#000000; stroke-linecap:round; stroke-linejoin:round; stroke-width:2; stroke-opacity:0.1; fill:none" points="704.028,1486.45 704.028,47.2441 "/>
<polyline clip-path="url(#clip012)" style="stroke:#000000; stroke-linecap:round; stroke-linejoin:round; stroke-width:2; stroke-opacity:0.1; fill:none" points="1232.47,1486.45 1232.47,47.2441 "/>
<polyline clip-path="url(#clip012)" style="stroke:#000000; stroke-linecap:round; stroke-linejoin:round; stroke-width:2; stroke-opacity:0.1; fill:none" points="1760.9,1486.45 1760.9,47.2441 "/>
<polyline clip-path="url(#clip012)" style="stroke:#000000; stroke-linecap:round; stroke-linejoin:round; stroke-width:2; stroke-opacity:0.1; fill:none" points="2289.34,1486.45 2289.34,47.2441 "/>
<polyline clip-path="url(#clip012)" style="stroke:#000000; stroke-linecap:round; stroke-linejoin:round; stroke-width:2; stroke-opacity:0.1; fill:none" points="112.177,1284.74 2352.76,1284.74 "/>
<polyline clip-path="url(#clip012)" style="stroke:#000000; stroke-linecap:round; stroke-linejoin:round; stroke-width:2; stroke-opacity:0.1; fill:none" points="112.177,1075.79 2352.76,1075.79 "/>
<polyline clip-path="url(#clip012)" style="stroke:#000000; stroke-linecap:round; stroke-linejoin:round; stroke-width:2; stroke-opacity:0.1; fill:none" points="112.177,866.835 2352.76,866.835 "/>
<polyline clip-path="url(#clip012)" style="stroke:#000000; stroke-linecap:round; stroke-linejoin:round; stroke-width:2; stroke-opacity:0.1; fill:none" points="112.177,657.884 2352.76,657.884 "/>
<polyline clip-path="url(#clip012)" style="stroke:#000000; stroke-linecap:round; stroke-linejoin:round; stroke-width:2; stroke-opacity:0.1; fill:none" points="112.177,448.933 2352.76,448.933 "/>
<polyline clip-path="url(#clip012)" style="stroke:#000000; stroke-linecap:round; stroke-linejoin:round; stroke-width:2; stroke-opacity:0.1; fill:none" points="112.177,239.982 2352.76,239.982 "/>
<polyline clip-path="url(#clip010)" style="stroke:#000000; stroke-linecap:round; stroke-linejoin:round; stroke-width:4; stroke-opacity:1; fill:none" points="112.177,1486.45 2352.76,1486.45 "/>
<polyline clip-path="url(#clip010)" style="stroke:#000000; stroke-linecap:round; stroke-linejoin:round; stroke-width:4; stroke-opacity:1; fill:none" points="175.59,1486.45 175.59,1467.55 "/>
<polyline clip-path="url(#clip010)" style="stroke:#000000; stroke-linecap:round; stroke-linejoin:round; stroke-width:4; stroke-opacity:1; fill:none" points="704.028,1486.45 704.028,1467.55 "/>
<polyline clip-path="url(#clip010)" style="stroke:#000000; stroke-linecap:round; stroke-linejoin:round; stroke-width:4; stroke-opacity:1; fill:none" points="1232.47,1486.45 1232.47,1467.55 "/>
<polyline clip-path="url(#clip010)" style="stroke:#000000; stroke-linecap:round; stroke-linejoin:round; stroke-width:4; stroke-opacity:1; fill:none" points="1760.9,1486.45 1760.9,1467.55 "/>
<polyline clip-path="url(#clip010)" style="stroke:#000000; stroke-linecap:round; stroke-linejoin:round; stroke-width:4; stroke-opacity:1; fill:none" points="2289.34,1486.45 2289.34,1467.55 "/>
<path clip-path="url(#clip010)" d="M137.893 1517.37 Q134.282 1517.37 132.453 1520.93 Q130.648 1524.47 130.648 1531.6 Q130.648 1538.71 132.453 1542.27 Q134.282 1545.82 137.893 1545.82 Q141.527 1545.82 143.333 1542.27 Q145.162 1538.71 145.162 1531.6 Q145.162 1524.47 143.333 1520.93 Q141.527 1517.37 137.893 1517.37 M137.893 1513.66 Q143.703 1513.66 146.759 1518.27 Q149.838 1522.85 149.838 1531.6 Q149.838 1540.33 146.759 1544.94 Q143.703 1549.52 137.893 1549.52 Q132.083 1549.52 129.004 1544.94 Q125.949 1540.33 125.949 1531.6 Q125.949 1522.85 129.004 1518.27 Q132.083 1513.66 137.893 1513.66 Z" fill="#000000" fill-rule="nonzero" fill-opacity="1" /><path clip-path="url(#clip010)" d="M158.055 1542.97 L162.939 1542.97 L162.939 1548.85 L158.055 1548.85 L158.055 1542.97 Z" fill="#000000" fill-rule="nonzero" fill-opacity="1" /><path clip-path="url(#clip010)" d="M183.124 1517.37 Q179.513 1517.37 177.685 1520.93 Q175.879 1524.47 175.879 1531.6 Q175.879 1538.71 177.685 1542.27 Q179.513 1545.82 183.124 1545.82 Q186.759 1545.82 188.564 1542.27 Q190.393 1538.71 190.393 1531.6 Q190.393 1524.47 188.564 1520.93 Q186.759 1517.37 183.124 1517.37 M183.124 1513.66 Q188.935 1513.66 191.99 1518.27 Q195.069 1522.85 195.069 1531.6 Q195.069 1540.33 191.99 1544.94 Q188.935 1549.52 183.124 1549.52 Q177.314 1549.52 174.236 1544.94 Q171.18 1540.33 171.18 1531.6 Q171.18 1522.85 174.236 1518.27 Q177.314 1513.66 183.124 1513.66 Z" fill="#000000" fill-rule="nonzero" fill-opacity="1" /><path clip-path="url(#clip010)" d="M213.286 1517.37 Q209.675 1517.37 207.847 1520.93 Q206.041 1524.47 206.041 1531.6 Q206.041 1538.71 207.847 1542.27 Q209.675 1545.82 213.286 1545.82 Q216.921 1545.82 218.726 1542.27 Q220.555 1538.71 220.555 1531.6 Q220.555 1524.47 218.726 1520.93 Q216.921 1517.37 213.286 1517.37 M213.286 1513.66 Q219.096 1513.66 222.152 1518.27 Q225.231 1522.85 225.231 1531.6 Q225.231 1540.33 222.152 1544.94 Q219.096 1549.52 213.286 1549.52 Q207.476 1549.52 204.397 1544.94 Q201.342 1540.33 201.342 1531.6 Q201.342 1522.85 204.397 1518.27 Q207.476 1513.66 213.286 1513.66 Z" fill="#000000" fill-rule="nonzero" fill-opacity="1" /><path clip-path="url(#clip010)" d="M666.829 1517.37 Q663.218 1517.37 661.39 1520.93 Q659.584 1524.47 659.584 1531.6 Q659.584 1538.71 661.39 1542.27 Q663.218 1545.82 666.829 1545.82 Q670.464 1545.82 672.269 1542.27 Q674.098 1538.71 674.098 1531.6 Q674.098 1524.47 672.269 1520.93 Q670.464 1517.37 666.829 1517.37 M666.829 1513.66 Q672.639 1513.66 675.695 1518.27 Q678.774 1522.85 678.774 1531.6 Q678.774 1540.33 675.695 1544.94 Q672.639 1549.52 666.829 1549.52 Q661.019 1549.52 657.94 1544.94 Q654.885 1540.33 654.885 1531.6 Q654.885 1522.85 657.94 1518.27 Q661.019 1513.66 666.829 1513.66 Z" fill="#000000" fill-rule="nonzero" fill-opacity="1" /><path clip-path="url(#clip010)" d="M686.991 1542.97 L691.875 1542.97 L691.875 1548.85 L686.991 1548.85 L686.991 1542.97 Z" fill="#000000" fill-rule="nonzero" fill-opacity="1" /><path clip-path="url(#clip010)" d="M706.088 1544.91 L722.408 1544.91 L722.408 1548.85 L700.463 1548.85 L700.463 1544.91 Q703.125 1542.16 707.709 1537.53 Q712.315 1532.88 713.496 1531.53 Q715.741 1529.01 716.621 1527.27 Q717.523 1525.51 717.523 1523.82 Q717.523 1521.07 715.579 1519.33 Q713.658 1517.6 710.556 1517.6 Q708.357 1517.6 705.903 1518.36 Q703.473 1519.13 700.695 1520.68 L700.695 1515.95 Q703.519 1514.82 705.973 1514.24 Q708.426 1513.66 710.463 1513.66 Q715.834 1513.66 719.028 1516.35 Q722.223 1519.03 722.223 1523.52 Q722.223 1525.65 721.412 1527.57 Q720.625 1529.47 718.519 1532.07 Q717.94 1532.74 714.838 1535.95 Q711.736 1539.15 706.088 1544.91 Z" fill="#000000" fill-rule="nonzero" fill-opacity="1" /><path clip-path="url(#clip010)" d="M732.269 1514.29 L750.625 1514.29 L750.625 1518.22 L736.551 1518.22 L736.551 1526.7 Q737.57 1526.35 738.588 1526.19 Q739.607 1526 740.625 1526 Q746.412 1526 749.792 1529.17 Q753.171 1532.34 753.171 1537.76 Q753.171 1543.34 749.699 1546.44 Q746.227 1549.52 739.908 1549.52 Q737.732 1549.52 735.463 1549.15 Q733.218 1548.78 730.81 1548.04 L730.81 1543.34 Q732.894 1544.47 735.116 1545.03 Q737.338 1545.58 739.815 1545.58 Q743.82 1545.58 746.158 1543.48 Q748.496 1541.37 748.496 1537.76 Q748.496 1534.15 746.158 1532.04 Q743.82 1529.94 739.815 1529.94 Q737.94 1529.94 736.065 1530.35 Q734.213 1530.77 732.269 1531.65 L732.269 1514.29 Z" fill="#000000" fill-rule="nonzero" fill-opacity="1" /><path clip-path="url(#clip010)" d="M1194.77 1517.37 Q1191.16 1517.37 1189.33 1520.93 Q1187.52 1524.47 1187.52 1531.6 Q1187.52 1538.71 1189.33 1542.27 Q1191.16 1545.82 1194.77 1545.82 Q1198.4 1545.82 1200.21 1542.27 Q1202.04 1538.71 1202.04 1531.6 Q1202.04 1524.47 1200.21 1520.93 Q1198.4 1517.37 1194.77 1517.37 M1194.77 1513.66 Q1200.58 1513.66 1203.64 1518.27 Q1206.71 1522.85 1206.71 1531.6 Q1206.71 1540.33 1203.64 1544.94 Q1200.58 1549.52 1194.77 1549.52 Q1188.96 1549.52 1185.88 1544.94 Q1182.83 1540.33 1182.83 1531.6 Q1182.83 1522.85 1185.88 1518.27 Q1188.96 1513.66 1194.77 1513.66 Z" fill="#000000" fill-rule="nonzero" fill-opacity="1" /><path clip-path="url(#clip010)" d="M1214.93 1542.97 L1219.82 1542.97 L1219.82 1548.85 L1214.93 1548.85 L1214.93 1542.97 Z" fill="#000000" fill-rule="nonzero" fill-opacity="1" /><path clip-path="url(#clip010)" d="M1230.05 1514.29 L1248.4 1514.29 L1248.4 1518.22 L1234.33 1518.22 L1234.33 1526.7 Q1235.35 1526.35 1236.37 1526.19 Q1237.39 1526 1238.4 1526 Q1244.19 1526 1247.57 1529.17 Q1250.95 1532.34 1250.95 1537.76 Q1250.95 1543.34 1247.48 1546.44 Q1244.01 1549.52 1237.69 1549.52 Q1235.51 1549.52 1233.24 1549.15 Q1231 1548.78 1228.59 1548.04 L1228.59 1543.34 Q1230.67 1544.47 1232.89 1545.03 Q1235.12 1545.58 1237.59 1545.58 Q1241.6 1545.58 1243.94 1543.48 Q1246.27 1541.37 1246.27 1537.76 Q1246.27 1534.15 1243.94 1532.04 Q1241.6 1529.94 1237.59 1529.94 Q1235.72 1529.94 1233.84 1530.35 Q1231.99 1530.77 1230.05 1531.65 L1230.05 1514.29 Z" fill="#000000" fill-rule="nonzero" fill-opacity="1" /><path clip-path="url(#clip010)" d="M1270.16 1517.37 Q1266.55 1517.37 1264.72 1520.93 Q1262.92 1524.47 1262.92 1531.6 Q1262.92 1538.71 1264.72 1542.27 Q1266.55 1545.82 1270.16 1545.82 Q1273.8 1545.82 1275.6 1542.27 Q1277.43 1538.71 1277.43 1531.6 Q1277.43 1524.47 1275.6 1520.93 Q1273.8 1517.37 1270.16 1517.37 M1270.16 1513.66 Q1275.97 1513.66 1279.03 1518.27 Q1282.11 1522.85 1282.11 1531.6 Q1282.11 1540.33 1279.03 1544.94 Q1275.97 1549.52 1270.16 1549.52 Q1264.35 1549.52 1261.27 1544.94 Q1258.22 1540.33 1258.22 1531.6 Q1258.22 1522.85 1261.27 1518.27 Q1264.35 1513.66 1270.16 1513.66 Z" fill="#000000" fill-rule="nonzero" fill-opacity="1" /><path clip-path="url(#clip010)" d="M1723.71 1517.37 Q1720.09 1517.37 1718.27 1520.93 Q1716.46 1524.47 1716.46 1531.6 Q1716.46 1538.71 1718.27 1542.27 Q1720.09 1545.82 1723.71 1545.82 Q1727.34 1545.82 1729.15 1542.27 Q1730.97 1538.71 1730.97 1531.6 Q1730.97 1524.47 1729.15 1520.93 Q1727.34 1517.37 1723.71 1517.37 M1723.71 1513.66 Q1729.52 1513.66 1732.57 1518.27 Q1735.65 1522.85 1735.65 1531.6 Q1735.65 1540.33 1732.57 1544.94 Q1729.52 1549.52 1723.71 1549.52 Q1717.9 1549.52 1714.82 1544.94 Q1711.76 1540.33 1711.76 1531.6 Q1711.76 1522.85 1714.82 1518.27 Q1717.9 1513.66 1723.71 1513.66 Z" fill="#000000" fill-rule="nonzero" fill-opacity="1" /><path clip-path="url(#clip010)" d="M1743.87 1542.97 L1748.75 1542.97 L1748.75 1548.85 L1743.87 1548.85 L1743.87 1542.97 Z" fill="#000000" fill-rule="nonzero" fill-opacity="1" /><path clip-path="url(#clip010)" d="M1757.76 1514.29 L1779.98 1514.29 L1779.98 1516.28 L1767.43 1548.85 L1762.55 1548.85 L1774.35 1518.22 L1757.76 1518.22 L1757.76 1514.29 Z" fill="#000000" fill-rule="nonzero" fill-opacity="1" /><path clip-path="url(#clip010)" d="M1789.15 1514.29 L1807.5 1514.29 L1807.5 1518.22 L1793.43 1518.22 L1793.43 1526.7 Q1794.45 1526.35 1795.46 1526.19 Q1796.48 1526 1797.5 1526 Q1803.29 1526 1806.67 1529.17 Q1810.05 1532.34 1810.05 1537.76 Q1810.05 1543.34 1806.58 1546.44 Q1803.1 1549.52 1796.78 1549.52 Q1794.61 1549.52 1792.34 1549.15 Q1790.09 1548.78 1787.69 1548.04 L1787.69 1543.34 Q1789.77 1544.47 1791.99 1545.03 Q1794.21 1545.58 1796.69 1545.58 Q1800.7 1545.58 1803.03 1543.48 Q1805.37 1541.37 1805.37 1537.76 Q1805.37 1534.15 1803.03 1532.04 Q1800.7 1529.94 1796.69 1529.94 Q1794.82 1529.94 1792.94 1530.35 Q1791.09 1530.77 1789.15 1531.65 L1789.15 1514.29 Z" fill="#000000" fill-rule="nonzero" fill-opacity="1" /><path clip-path="url(#clip010)" d="M2241.42 1544.91 L2249.05 1544.91 L2249.05 1518.55 L2240.74 1520.21 L2240.74 1515.95 L2249.01 1514.29 L2253.68 1514.29 L2253.68 1544.91 L2261.32 1544.91 L2261.32 1548.85 L2241.42 1548.85 L2241.42 1544.91 Z" fill="#000000" fill-rule="nonzero" fill-opacity="1" /><path clip-path="url(#clip010)" d="M2270.77 1542.97 L2275.65 1542.97 L2275.65 1548.85 L2270.77 1548.85 L2270.77 1542.97 Z" fill="#000000" fill-rule="nonzero" fill-opacity="1" /><path clip-path="url(#clip010)" d="M2295.84 1517.37 Q2292.23 1517.37 2290.4 1520.93 Q2288.59 1524.47 2288.59 1531.6 Q2288.59 1538.71 2290.4 1542.27 Q2292.23 1545.82 2295.84 1545.82 Q2299.47 1545.82 2301.28 1542.27 Q2303.1 1538.71 2303.1 1531.6 Q2303.1 1524.47 2301.28 1520.93 Q2299.47 1517.37 2295.84 1517.37 M2295.84 1513.66 Q2301.65 1513.66 2304.7 1518.27 Q2307.78 1522.85 2307.78 1531.6 Q2307.78 1540.33 2304.7 1544.94 Q2301.65 1549.52 2295.84 1549.52 Q2290.03 1549.52 2286.95 1544.94 Q2283.89 1540.33 2283.89 1531.6 Q2283.89 1522.85 2286.95 1518.27 Q2290.03 1513.66 2295.84 1513.66 Z" fill="#000000" fill-rule="nonzero" fill-opacity="1" /><path clip-path="url(#clip010)" d="M2326 1517.37 Q2322.39 1517.37 2320.56 1520.93 Q2318.75 1524.47 2318.75 1531.6 Q2318.75 1538.71 2320.56 1542.27 Q2322.39 1545.82 2326 1545.82 Q2329.63 1545.82 2331.44 1542.27 Q2333.27 1538.71 2333.27 1531.6 Q2333.27 1524.47 2331.44 1520.93 Q2329.63 1517.37 2326 1517.37 M2326 1513.66 Q2331.81 1513.66 2334.86 1518.27 Q2337.94 1522.85 2337.94 1531.6 Q2337.94 1540.33 2334.86 1544.94 Q2331.81 1549.52 2326 1549.52 Q2320.19 1549.52 2317.11 1544.94 Q2314.05 1540.33 2314.05 1531.6 Q2314.05 1522.85 2317.11 1518.27 Q2320.19 1513.66 2326 1513.66 Z" fill="#000000" fill-rule="nonzero" fill-opacity="1" /><polyline clip-path="url(#clip010)" style="stroke:#000000; stroke-linecap:round; stroke-linejoin:round; stroke-width:4; stroke-opacity:1; fill:none" points="112.177,1486.45 112.177,47.2441 "/>
<polyline clip-path="url(#clip010)" style="stroke:#000000; stroke-linecap:round; stroke-linejoin:round; stroke-width:4; stroke-opacity:1; fill:none" points="112.177,1284.74 131.075,1284.74 "/>
<polyline clip-path="url(#clip010)" style="stroke:#000000; stroke-linecap:round; stroke-linejoin:round; stroke-width:4; stroke-opacity:1; fill:none" points="112.177,1075.79 131.075,1075.79 "/>
<polyline clip-path="url(#clip010)" style="stroke:#000000; stroke-linecap:round; stroke-linejoin:round; stroke-width:4; stroke-opacity:1; fill:none" points="112.177,866.835 131.075,866.835 "/>
<polyline clip-path="url(#clip010)" style="stroke:#000000; stroke-linecap:round; stroke-linejoin:round; stroke-width:4; stroke-opacity:1; fill:none" points="112.177,657.884 131.075,657.884 "/>
<polyline clip-path="url(#clip010)" style="stroke:#000000; stroke-linecap:round; stroke-linejoin:round; stroke-width:4; stroke-opacity:1; fill:none" points="112.177,448.933 131.075,448.933 "/>
<polyline clip-path="url(#clip010)" style="stroke:#000000; stroke-linecap:round; stroke-linejoin:round; stroke-width:4; stroke-opacity:1; fill:none" points="112.177,239.982 131.075,239.982 "/>
<path clip-path="url(#clip010)" d="M56.2699 1298.08 L63.9087 1298.08 L63.9087 1271.72 L55.5986 1273.38 L55.5986 1269.12 L63.8624 1267.46 L68.5383 1267.46 L68.5383 1298.08 L76.1772 1298.08 L76.1772 1302.02 L56.2699 1302.02 L56.2699 1298.08 Z" fill="#000000" fill-rule="nonzero" fill-opacity="1" /><path clip-path="url(#clip010)" d="M59.8578 1089.13 L76.1772 1089.13 L76.1772 1093.07 L54.2328 1093.07 L54.2328 1089.13 Q56.8949 1086.38 61.4782 1081.75 Q66.0846 1077.09 67.2652 1075.75 Q69.5105 1073.23 70.3902 1071.49 Q71.2929 1069.73 71.2929 1068.04 Q71.2929 1065.29 69.3485 1063.55 Q67.4272 1061.82 64.3254 1061.82 Q62.1263 1061.82 59.6726 1062.58 Q57.2421 1063.34 54.4643 1064.9 L54.4643 1060.17 Q57.2884 1059.04 59.7421 1058.46 Q62.1958 1057.88 64.2328 1057.88 Q69.6031 1057.88 72.7976 1060.57 Q75.992 1063.25 75.992 1067.74 Q75.992 1069.87 75.1818 1071.79 Q74.3948 1073.69 72.2883 1076.28 Q71.7096 1076.96 68.6078 1080.17 Q65.5059 1083.37 59.8578 1089.13 Z" fill="#000000" fill-rule="nonzero" fill-opacity="1" /><path clip-path="url(#clip010)" d="M69.0476 865.481 Q72.404 866.199 74.279 868.467 Q76.1772 870.736 76.1772 874.069 Q76.1772 879.185 72.6587 881.986 Q69.1402 884.787 62.6587 884.787 Q60.4828 884.787 58.168 884.347 Q55.8764 883.93 53.4227 883.074 L53.4227 878.56 Q55.3671 879.694 57.6819 880.273 Q59.9967 880.851 62.5198 880.851 Q66.918 880.851 69.2096 879.115 Q71.5244 877.379 71.5244 874.069 Q71.5244 871.014 69.3717 869.301 Q67.242 867.564 63.4226 867.564 L59.3949 867.564 L59.3949 863.722 L63.6078 863.722 Q67.0569 863.722 68.8855 862.356 Q70.7142 860.967 70.7142 858.375 Q70.7142 855.713 68.8161 854.301 Q66.9411 852.865 63.4226 852.865 Q61.5013 852.865 59.3023 853.282 Q57.1032 853.699 54.4643 854.578 L54.4643 850.412 Q57.1264 849.671 59.4412 849.301 Q61.7791 848.93 63.8393 848.93 Q69.1633 848.93 72.2652 851.361 Q75.367 853.768 75.367 857.889 Q75.367 860.759 73.7235 862.75 Q72.08 864.717 69.0476 865.481 Z" fill="#000000" fill-rule="nonzero" fill-opacity="1" /><path clip-path="url(#clip010)" d="M66.5939 644.678 L54.7884 663.127 L66.5939 663.127 L66.5939 644.678 M65.367 640.604 L71.2466 640.604 L71.2466 663.127 L76.1772 663.127 L76.1772 667.016 L71.2466 667.016 L71.2466 675.164 L66.5939 675.164 L66.5939 667.016 L50.9921 667.016 L50.9921 662.502 L65.367 640.604 Z" fill="#000000" fill-rule="nonzero" fill-opacity="1" /><path clip-path="url(#clip010)" d="M55.2745 431.653 L73.6309 431.653 L73.6309 435.588 L59.5569 435.588 L59.5569 444.061 Q60.5754 443.713 61.5939 443.551 Q62.6124 443.366 63.6309 443.366 Q69.418 443.366 72.7976 446.537 Q76.1772 449.709 76.1772 455.125 Q76.1772 460.704 72.705 463.806 Q69.2328 466.885 62.9134 466.885 Q60.7374 466.885 58.4689 466.514 Q56.2236 466.144 53.8162 465.403 L53.8162 460.704 Q55.8995 461.838 58.1217 462.394 Q60.3439 462.949 62.8208 462.949 Q66.8254 462.949 69.1633 460.843 Q71.5013 458.737 71.5013 455.125 Q71.5013 451.514 69.1633 449.408 Q66.8254 447.301 62.8208 447.301 Q60.9458 447.301 59.0708 447.718 Q57.2189 448.135 55.2745 449.014 L55.2745 431.653 Z" fill="#000000" fill-rule="nonzero" fill-opacity="1" /><path clip-path="url(#clip010)" d="M64.6495 238.119 Q61.5013 238.119 59.6495 240.272 Q57.8208 242.424 57.8208 246.174 Q57.8208 249.901 59.6495 252.077 Q61.5013 254.23 64.6495 254.23 Q67.7976 254.23 69.6263 252.077 Q71.4781 249.901 71.4781 246.174 Q71.4781 242.424 69.6263 240.272 Q67.7976 238.119 64.6495 238.119 M73.9318 223.466 L73.9318 227.725 Q72.1726 226.892 70.367 226.452 Q68.5846 226.012 66.8254 226.012 Q62.1958 226.012 59.7421 229.137 Q57.3115 232.262 56.9643 238.582 Q58.33 236.568 60.3902 235.503 Q62.4504 234.415 64.9272 234.415 Q70.1355 234.415 73.1448 237.586 Q76.1772 240.735 76.1772 246.174 Q76.1772 251.498 73.029 254.716 Q69.8809 257.934 64.6495 257.934 Q58.6541 257.934 55.4828 253.35 Q52.3116 248.744 52.3116 240.017 Q52.3116 231.823 56.2004 226.962 Q60.0893 222.077 66.6402 222.077 Q68.3994 222.077 70.1818 222.425 Q71.9874 222.772 73.9318 223.466 Z" fill="#000000" fill-rule="nonzero" fill-opacity="1" /><polyline clip-path="url(#clip012)" style="stroke:#009af9; stroke-linecap:round; stroke-linejoin:round; stroke-width:12; stroke-opacity:1; fill:none" points="175.59,1389.21 386.965,1379.07 598.34,1365.77 809.716,1356.7 1021.09,1314.23 1232.47,1330.08 1443.84,1317.34 1655.22,1291.99 1866.59,1239.93 2077.97,1233.29 2289.34,1263.42 "/>
<polyline clip-path="url(#clip012)" style="stroke:#000000; stroke-linecap:round; stroke-linejoin:round; stroke-width:12; stroke-opacity:1; fill:none" points="175.59,1389.21 175.59,1389.21 "/>
<polyline clip-path="url(#clip012)" style="stroke:#000000; stroke-linecap:round; stroke-linejoin:round; stroke-width:12; stroke-opacity:1; fill:none" points="386.965,1396.89 386.965,1327.72 "/>
<polyline clip-path="url(#clip012)" style="stroke:#000000; stroke-linecap:round; stroke-linejoin:round; stroke-width:12; stroke-opacity:1; fill:none" points="598.34,1397.47 598.34,1310.26 "/>
<polyline clip-path="url(#clip012)" style="stroke:#000000; stroke-linecap:round; stroke-linejoin:round; stroke-width:12; stroke-opacity:1; fill:none" points="809.716,1373.84 809.716,1281.63 "/>
<polyline clip-path="url(#clip012)" style="stroke:#000000; stroke-linecap:round; stroke-linejoin:round; stroke-width:12; stroke-opacity:1; fill:none" points="1021.09,1381.51 1021.09,1254.33 "/>
<polyline clip-path="url(#clip012)" style="stroke:#000000; stroke-linecap:round; stroke-linejoin:round; stroke-width:12; stroke-opacity:1; fill:none" points="1232.47,1422.44 1232.47,1176.04 "/>
<polyline clip-path="url(#clip012)" style="stroke:#000000; stroke-linecap:round; stroke-linejoin:round; stroke-width:12; stroke-opacity:1; fill:none" points="1443.84,1414.74 1443.84,1112.62 "/>
<polyline clip-path="url(#clip012)" style="stroke:#000000; stroke-linecap:round; stroke-linejoin:round; stroke-width:12; stroke-opacity:1; fill:none" points="1655.22,1395.76 1655.22,791.817 "/>
<polyline clip-path="url(#clip012)" style="stroke:#000000; stroke-linecap:round; stroke-linejoin:round; stroke-width:12; stroke-opacity:1; fill:none" points="1866.59,1384.96 1866.59,580.865 "/>
<polyline clip-path="url(#clip012)" style="stroke:#000000; stroke-linecap:round; stroke-linejoin:round; stroke-width:12; stroke-opacity:1; fill:none" points="2077.97,1379.64 2077.97,479.399 "/>
<polyline clip-path="url(#clip012)" style="stroke:#000000; stroke-linecap:round; stroke-linejoin:round; stroke-width:12; stroke-opacity:1; fill:none" points="2289.34,1394.63 2289.34,87.9763 "/>
<line clip-path="url(#clip012)" x1="191.59" y1="1389.21" x2="159.59" y2="1389.21" style="stroke:#000000; stroke-width:12; stroke-opacity:1"/>
<line clip-path="url(#clip012)" x1="191.59" y1="1389.21" x2="159.59" y2="1389.21" style="stroke:#000000; stroke-width:12; stroke-opacity:1"/>
<line clip-path="url(#clip012)" x1="402.965" y1="1396.89" x2="370.965" y2="1396.89" style="stroke:#000000; stroke-width:12; stroke-opacity:1"/>
<line clip-path="url(#clip012)" x1="402.965" y1="1327.72" x2="370.965" y2="1327.72" style="stroke:#000000; stroke-width:12; stroke-opacity:1"/>
<line clip-path="url(#clip012)" x1="614.34" y1="1397.47" x2="582.34" y2="1397.47" style="stroke:#000000; stroke-width:12; stroke-opacity:1"/>
<line clip-path="url(#clip012)" x1="614.34" y1="1310.26" x2="582.34" y2="1310.26" style="stroke:#000000; stroke-width:12; stroke-opacity:1"/>
<line clip-path="url(#clip012)" x1="825.716" y1="1373.84" x2="793.716" y2="1373.84" style="stroke:#000000; stroke-width:12; stroke-opacity:1"/>
<line clip-path="url(#clip012)" x1="825.716" y1="1281.63" x2="793.716" y2="1281.63" style="stroke:#000000; stroke-width:12; stroke-opacity:1"/>
<line clip-path="url(#clip012)" x1="1037.09" y1="1381.51" x2="1005.09" y2="1381.51" style="stroke:#000000; stroke-width:12; stroke-opacity:1"/>
<line clip-path="url(#clip012)" x1="1037.09" y1="1254.33" x2="1005.09" y2="1254.33" style="stroke:#000000; stroke-width:12; stroke-opacity:1"/>
<line clip-path="url(#clip012)" x1="1248.47" y1="1422.44" x2="1216.47" y2="1422.44" style="stroke:#000000; stroke-width:12; stroke-opacity:1"/>
<line clip-path="url(#clip012)" x1="1248.47" y1="1176.04" x2="1216.47" y2="1176.04" style="stroke:#000000; stroke-width:12; stroke-opacity:1"/>
<line clip-path="url(#clip012)" x1="1459.84" y1="1414.74" x2="1427.84" y2="1414.74" style="stroke:#000000; stroke-width:12; stroke-opacity:1"/>
<line clip-path="url(#clip012)" x1="1459.84" y1="1112.62" x2="1427.84" y2="1112.62" style="stroke:#000000; stroke-width:12; stroke-opacity:1"/>
<line clip-path="url(#clip012)" x1="1671.22" y1="1395.76" x2="1639.22" y2="1395.76" style="stroke:#000000; stroke-width:12; stroke-opacity:1"/>
<line clip-path="url(#clip012)" x1="1671.22" y1="791.817" x2="1639.22" y2="791.817" style="stroke:#000000; stroke-width:12; stroke-opacity:1"/>
<line clip-path="url(#clip012)" x1="1882.59" y1="1384.96" x2="1850.59" y2="1384.96" style="stroke:#000000; stroke-width:12; stroke-opacity:1"/>
<line clip-path="url(#clip012)" x1="1882.59" y1="580.865" x2="1850.59" y2="580.865" style="stroke:#000000; stroke-width:12; stroke-opacity:1"/>
<line clip-path="url(#clip012)" x1="2093.97" y1="1379.64" x2="2061.97" y2="1379.64" style="stroke:#000000; stroke-width:12; stroke-opacity:1"/>
<line clip-path="url(#clip012)" x1="2093.97" y1="479.399" x2="2061.97" y2="479.399" style="stroke:#000000; stroke-width:12; stroke-opacity:1"/>
<line clip-path="url(#clip012)" x1="2305.34" y1="1394.63" x2="2273.34" y2="1394.63" style="stroke:#000000; stroke-width:12; stroke-opacity:1"/>
<line clip-path="url(#clip012)" x1="2305.34" y1="87.9763" x2="2273.34" y2="87.9763" style="stroke:#000000; stroke-width:12; stroke-opacity:1"/>
<polyline clip-path="url(#clip012)" style="stroke:#e26f46; stroke-linecap:round; stroke-linejoin:round; stroke-width:12; stroke-opacity:1; fill:none" points="175.59,1389.21 386.965,1400.03 598.34,1376.71 809.716,1335.36 1021.09,1354.69 1232.47,1313.71 1443.84,1348.43 1655.22,1339.31 1866.59,1323 2077.97,1295.57 2289.34,1231.45 "/>
<polyline clip-path="url(#clip012)" style="stroke:#000000; stroke-linecap:round; stroke-linejoin:round; stroke-width:12; stroke-opacity:1; fill:none" points="175.59,1389.21 175.59,1389.21 "/>
<polyline clip-path="url(#clip012)" style="stroke:#000000; stroke-linecap:round; stroke-linejoin:round; stroke-width:12; stroke-opacity:1; fill:none" points="386.965,1410.42 386.965,1369.2 "/>
<polyline clip-path="url(#clip012)" style="stroke:#000000; stroke-linecap:round; stroke-linejoin:round; stroke-width:12; stroke-opacity:1; fill:none" points="598.34,1424.65 598.34,1336.97 "/>
<polyline clip-path="url(#clip012)" style="stroke:#000000; stroke-linecap:round; stroke-linejoin:round; stroke-width:12; stroke-opacity:1; fill:none" points="809.716,1435.03 809.716,1318.23 "/>
<polyline clip-path="url(#clip012)" style="stroke:#000000; stroke-linecap:round; stroke-linejoin:round; stroke-width:12; stroke-opacity:1; fill:none" points="1021.09,1442.25 1021.09,1273.34 "/>
<polyline clip-path="url(#clip012)" style="stroke:#000000; stroke-linecap:round; stroke-linejoin:round; stroke-width:12; stroke-opacity:1; fill:none" points="1232.47,1445.72 1232.47,1206.07 "/>
<polyline clip-path="url(#clip012)" style="stroke:#000000; stroke-linecap:round; stroke-linejoin:round; stroke-width:12; stroke-opacity:1; fill:none" points="1443.84,1438.73 1443.84,1223.18 "/>
<polyline clip-path="url(#clip012)" style="stroke:#000000; stroke-linecap:round; stroke-linejoin:round; stroke-width:12; stroke-opacity:1; fill:none" points="1655.22,1430.58 1655.22,1154.14 "/>
<polyline clip-path="url(#clip012)" style="stroke:#000000; stroke-linecap:round; stroke-linejoin:round; stroke-width:12; stroke-opacity:1; fill:none" points="1866.59,1423.84 1866.59,1095.18 "/>
<polyline clip-path="url(#clip012)" style="stroke:#000000; stroke-linecap:round; stroke-linejoin:round; stroke-width:12; stroke-opacity:1; fill:none" points="2077.97,1417.77 2077.97,1052.39 "/>
<polyline clip-path="url(#clip012)" style="stroke:#000000; stroke-linecap:round; stroke-linejoin:round; stroke-width:12; stroke-opacity:1; fill:none" points="2289.34,1408.06 2289.34,943.204 "/>
<line clip-path="url(#clip012)" x1="191.59" y1="1389.21" x2="159.59" y2="1389.21" style="stroke:#000000; stroke-width:12; stroke-opacity:1"/>
<line clip-path="url(#clip012)" x1="191.59" y1="1389.21" x2="159.59" y2="1389.21" style="stroke:#000000; stroke-width:12; stroke-opacity:1"/>
<line clip-path="url(#clip012)" x1="402.965" y1="1410.42" x2="370.965" y2="1410.42" style="stroke:#000000; stroke-width:12; stroke-opacity:1"/>
<line clip-path="url(#clip012)" x1="402.965" y1="1369.2" x2="370.965" y2="1369.2" style="stroke:#000000; stroke-width:12; stroke-opacity:1"/>
<line clip-path="url(#clip012)" x1="614.34" y1="1424.65" x2="582.34" y2="1424.65" style="stroke:#000000; stroke-width:12; stroke-opacity:1"/>
<line clip-path="url(#clip012)" x1="614.34" y1="1336.97" x2="582.34" y2="1336.97" style="stroke:#000000; stroke-width:12; stroke-opacity:1"/>
<line clip-path="url(#clip012)" x1="825.716" y1="1435.03" x2="793.716" y2="1435.03" style="stroke:#000000; stroke-width:12; stroke-opacity:1"/>
<line clip-path="url(#clip012)" x1="825.716" y1="1318.23" x2="793.716" y2="1318.23" style="stroke:#000000; stroke-width:12; stroke-opacity:1"/>
<line clip-path="url(#clip012)" x1="1037.09" y1="1442.25" x2="1005.09" y2="1442.25" style="stroke:#000000; stroke-width:12; stroke-opacity:1"/>
<line clip-path="url(#clip012)" x1="1037.09" y1="1273.34" x2="1005.09" y2="1273.34" style="stroke:#000000; stroke-width:12; stroke-opacity:1"/>
<line clip-path="url(#clip012)" x1="1248.47" y1="1445.72" x2="1216.47" y2="1445.72" style="stroke:#000000; stroke-width:12; stroke-opacity:1"/>
<line clip-path="url(#clip012)" x1="1248.47" y1="1206.07" x2="1216.47" y2="1206.07" style="stroke:#000000; stroke-width:12; stroke-opacity:1"/>
<line clip-path="url(#clip012)" x1="1459.84" y1="1438.73" x2="1427.84" y2="1438.73" style="stroke:#000000; stroke-width:12; stroke-opacity:1"/>
<line clip-path="url(#clip012)" x1="1459.84" y1="1223.18" x2="1427.84" y2="1223.18" style="stroke:#000000; stroke-width:12; stroke-opacity:1"/>
<line clip-path="url(#clip012)" x1="1671.22" y1="1430.58" x2="1639.22" y2="1430.58" style="stroke:#000000; stroke-width:12; stroke-opacity:1"/>
<line clip-path="url(#clip012)" x1="1671.22" y1="1154.14" x2="1639.22" y2="1154.14" style="stroke:#000000; stroke-width:12; stroke-opacity:1"/>
<line clip-path="url(#clip012)" x1="1882.59" y1="1423.84" x2="1850.59" y2="1423.84" style="stroke:#000000; stroke-width:12; stroke-opacity:1"/>
<line clip-path="url(#clip012)" x1="1882.59" y1="1095.18" x2="1850.59" y2="1095.18" style="stroke:#000000; stroke-width:12; stroke-opacity:1"/>
<line clip-path="url(#clip012)" x1="2093.97" y1="1417.77" x2="2061.97" y2="1417.77" style="stroke:#000000; stroke-width:12; stroke-opacity:1"/>
<line clip-path="url(#clip012)" x1="2093.97" y1="1052.39" x2="2061.97" y2="1052.39" style="stroke:#000000; stroke-width:12; stroke-opacity:1"/>
<line clip-path="url(#clip012)" x1="2305.34" y1="1408.06" x2="2273.34" y2="1408.06" style="stroke:#000000; stroke-width:12; stroke-opacity:1"/>
<line clip-path="url(#clip012)" x1="2305.34" y1="943.204" x2="2273.34" y2="943.204" style="stroke:#000000; stroke-width:12; stroke-opacity:1"/>
</svg>
