<?xml version="1.0" encoding="utf-8"?>
<svg xmlns="http://www.w3.org/2000/svg" xmlns:xlink="http://www.w3.org/1999/xlink" width="600" height="400" viewBox="0 0 2400 1600">
<defs>
  <clipPath id="clip200">
    <rect x="0" y="0" width="2400" height="1600"/>
  </clipPath>
</defs>
<path clip-path="url(#clip200)" d="M0 1600 L2400 1600 L2400 0 L0 0  Z" fill="#ffffff" fill-rule="evenodd" fill-opacity="1"/>
<defs>
  <clipPath id="clip201">
    <rect x="112" y="47" width="2242" height="1440"/>
  </clipPath>
</defs>
<path clip-path="url(#clip200)" d="M112.177 1486.45 L2352.76 1486.45 L2352.76 47.2441 L112.177 47.2441  Z" fill="#ffffff" fill-rule="evenodd" fill-opacity="1"/>
<polyline clip-path="url(#clip201)" style="stroke:#000000; stroke-linecap:round; stroke-linejoin:round; stroke-width:2; stroke-opacity:0.1; fill:none" points="175.59,1486.45 175.59,47.2441 "/>
<polyline clip-path="url(#clip201)" style="stroke:#000000; stroke-linecap:round; stroke-linejoin:round; stroke-width:2; stroke-opacity:0.1; fill:none" points="704.028,1486.45 704.028,47.2441 "/>
<polyline clip-path="url(#clip201)" style="stroke:#000000; stroke-linecap:round; stroke-linejoin:round; stroke-width:2; stroke-opacity:0.1; fill:none" points="1232.47,1486.45 1232.47,47.2441 "/>
<polyline clip-path="url(#clip201)" style="stroke:#000000; stroke-linecap:round; stroke-linejoin:round; stroke-width:2; stroke-opacity:0.1; fill:none" points="1760.9,1486.45 1760.9,47.2441 "/>
<polyline clip-path="url(#clip201)" style="stroke:#000000; stroke-linecap:round; stroke-linejoin:round; stroke-width:2; stroke-opacity:0.1; fill:none" points="2289.34,1486.45 2289.34,47.2441 "/>
<polyline clip-path="url(#clip201)" style="stroke:#000000; stroke-linecap:round; stroke-linejoin:round; stroke-width:2; stroke-opacity:0.1; fill:none" points="112.177,1454.18 2352.76,1454.18 "/>
<polyline clip-path="url(#clip201)" style="stroke:#000000; stroke-linecap:round; stroke-linejoin:round; stroke-width:2; stroke-opacity:0.1; fill:none" points="112.177,1144.68 2352.76,1144.68 "/>
<polyline clip-path="url(#clip201)" style="stroke:#000000; stroke-linecap:round; stroke-linejoin:round; stroke-width:2; stroke-opacity:0.1; fill:none" points="112.177,835.178 2352.76,835.178 "/>
<polyline clip-path="url(#clip201)" style="stroke:#000000; stroke-linecap:round; stroke-linejoin:round; stroke-width:2; stroke-opacity:0.1; fill:none" points="112.177,525.675 2352.76,525.675 "/>
<polyline clip-path="url(#clip201)" style="stroke:#000000; stroke-linecap:round; stroke-linejoin:round; stroke-width:2; stroke-opacity:0.1; fill:none" points="112.177,216.172 2352.76,216.172 "/>
<polyline clip-path="url(#clip200)" style="stroke:#000000; stroke-linecap:round; stroke-linejoin:round; stroke-width:4; stroke-opacity:1; fill:none" points="112.177,1486.45 2352.76,1486.45 "/>
<polyline clip-path="url(#clip200)" style="stroke:#000000; stroke-linecap:round; stroke-linejoin:round; stroke-width:4; stroke-opacity:1; fill:none" points="175.59,1486.45 175.59,1467.55 "/>
<polyline clip-path="url(#clip200)" style="stroke:#000000; stroke-linecap:round; stroke-linejoin:round; stroke-width:4; stroke-opacity:1; fill:none" points="704.028,1486.45 704.028,1467.55 "/>
<polyline clip-path="url(#clip200)" style="stroke:#000000; stroke-linecap:round; stroke-linejoin:round; stroke-width:4; stroke-opacity:1; fill:none" points="1232.47,1486.45 1232.47,1467.55 "/>
<polyline clip-path="url(#clip200)" style="stroke:#000000; stroke-linecap:round; stroke-linejoin:round; stroke-width:4; stroke-opacity:1; fill:none" points="1760.9,1486.45 1760.9,1467.55 "/>
<polyline clip-path="url(#clip200)" style="stroke:#000000; stroke-linecap:round; stroke-linejoin:round; stroke-width:4; stroke-opacity:1; fill:none" points="2289.34,1486.45 2289.34,1467.55 "/>
<path clip-path="url(#clip200)" d="M152.974 1517.37 Q149.363 1517.37 147.534 1520.93 Q145.729 1524.47 145.729 1531.6 Q145.729 1538.71 147.534 1542.27 Q149.363 1545.82 152.974 1545.82 Q156.608 1545.82 158.414 1542.27 Q160.243 1538.71 160.243 1531.6 Q160.243 1524.47 158.414 1520.93 Q156.608 1517.37 152.974 1517.37 M152.974 1513.66 Q158.784 1513.66 161.84 1518.27 Q164.919 1522.85 164.919 1531.6 Q164.919 1540.33 161.84 1544.94 Q158.784 1549.52 152.974 1549.52 Q147.164 1549.52 144.085 1544.94 Q141.03 1540.33 141.03 1531.6 Q141.03 1522.85 144.085 1518.27 Q147.164 1513.66 152.974 1513.66 Z" fill="#000000" fill-rule="nonzero" fill-opacity="1" /><path clip-path="url(#clip200)" d="M173.136 1542.97 L178.02 1542.97 L178.02 1548.85 L173.136 1548.85 L173.136 1542.97 Z" fill="#000000" fill-rule="nonzero" fill-opacity="1" /><path clip-path="url(#clip200)" d="M198.205 1517.37 Q194.594 1517.37 192.766 1520.93 Q190.96 1524.47 190.96 1531.6 Q190.96 1538.71 192.766 1542.27 Q194.594 1545.82 198.205 1545.82 Q201.84 1545.82 203.645 1542.27 Q205.474 1538.71 205.474 1531.6 Q205.474 1524.47 203.645 1520.93 Q201.84 1517.37 198.205 1517.37 M198.205 1513.66 Q204.016 1513.66 207.071 1518.27 Q210.15 1522.85 210.15 1531.6 Q210.15 1540.33 207.071 1544.94 Q204.016 1549.52 198.205 1549.52 Q192.395 1549.52 189.317 1544.94 Q186.261 1540.33 186.261 1531.6 Q186.261 1522.85 189.317 1518.27 Q192.395 1513.66 198.205 1513.66 Z" fill="#000000" fill-rule="nonzero" fill-opacity="1" /><path clip-path="url(#clip200)" d="M675.764 1544.91 L692.084 1544.91 L692.084 1548.85 L670.139 1548.85 L670.139 1544.91 Q672.801 1542.16 677.385 1537.53 Q681.991 1532.88 683.172 1531.53 Q685.417 1529.01 686.297 1527.27 Q687.2 1525.51 687.2 1523.82 Q687.2 1521.07 685.255 1519.33 Q683.334 1517.6 680.232 1517.6 Q678.033 1517.6 675.579 1518.36 Q673.149 1519.13 670.371 1520.68 L670.371 1515.95 Q673.195 1514.82 675.649 1514.24 Q678.102 1513.66 680.139 1513.66 Q685.51 1513.66 688.704 1516.35 Q691.899 1519.03 691.899 1523.52 Q691.899 1525.65 691.088 1527.57 Q690.301 1529.47 688.195 1532.07 Q687.616 1532.74 684.514 1535.95 Q681.413 1539.15 675.764 1544.91 Z" fill="#000000" fill-rule="nonzero" fill-opacity="1" /><path clip-path="url(#clip200)" d="M701.899 1542.97 L706.783 1542.97 L706.783 1548.85 L701.899 1548.85 L701.899 1542.97 Z" fill="#000000" fill-rule="nonzero" fill-opacity="1" /><path clip-path="url(#clip200)" d="M717.014 1514.29 L735.371 1514.29 L735.371 1518.22 L721.297 1518.22 L721.297 1526.7 Q722.315 1526.35 723.334 1526.19 Q724.352 1526 725.371 1526 Q731.158 1526 734.537 1529.17 Q737.917 1532.34 737.917 1537.76 Q737.917 1543.34 734.445 1546.44 Q730.972 1549.52 724.653 1549.52 Q722.477 1549.52 720.209 1549.15 Q717.963 1548.78 715.556 1548.04 L715.556 1543.34 Q717.639 1544.47 719.861 1545.03 Q722.084 1545.58 724.56 1545.58 Q728.565 1545.58 730.903 1543.48 Q733.241 1541.37 733.241 1537.76 Q733.241 1534.15 730.903 1532.04 Q728.565 1529.94 724.56 1529.94 Q722.685 1529.94 720.81 1530.35 Q718.959 1530.77 717.014 1531.65 L717.014 1514.29 Z" fill="#000000" fill-rule="nonzero" fill-opacity="1" /><path clip-path="url(#clip200)" d="M1199.63 1514.29 L1217.99 1514.29 L1217.99 1518.22 L1203.91 1518.22 L1203.91 1526.7 Q1204.93 1526.35 1205.95 1526.19 Q1206.97 1526 1207.99 1526 Q1213.77 1526 1217.15 1529.17 Q1220.53 1532.34 1220.53 1537.76 Q1220.53 1543.34 1217.06 1546.44 Q1213.59 1549.52 1207.27 1549.52 Q1205.09 1549.52 1202.83 1549.15 Q1200.58 1548.78 1198.17 1548.04 L1198.17 1543.34 Q1200.26 1544.47 1202.48 1545.03 Q1204.7 1545.58 1207.18 1545.58 Q1211.18 1545.58 1213.52 1543.48 Q1215.86 1541.37 1215.86 1537.76 Q1215.86 1534.15 1213.52 1532.04 Q1211.18 1529.94 1207.18 1529.94 Q1205.3 1529.94 1203.43 1530.35 Q1201.58 1530.77 1199.63 1531.65 L1199.63 1514.29 Z" fill="#000000" fill-rule="nonzero" fill-opacity="1" /><path clip-path="url(#clip200)" d="M1229.75 1542.97 L1234.63 1542.97 L1234.63 1548.85 L1229.75 1548.85 L1229.75 1542.97 Z" fill="#000000" fill-rule="nonzero" fill-opacity="1" /><path clip-path="url(#clip200)" d="M1254.82 1517.37 Q1251.2 1517.37 1249.38 1520.93 Q1247.57 1524.47 1247.57 1531.6 Q1247.57 1538.71 1249.38 1542.27 Q1251.2 1545.82 1254.82 1545.82 Q1258.45 1545.82 1260.26 1542.27 Q1262.08 1538.71 1262.08 1531.6 Q1262.08 1524.47 1260.26 1520.93 Q1258.45 1517.37 1254.82 1517.37 M1254.82 1513.66 Q1260.63 1513.66 1263.68 1518.27 Q1266.76 1522.85 1266.76 1531.6 Q1266.76 1540.33 1263.68 1544.94 Q1260.63 1549.52 1254.82 1549.52 Q1249.01 1549.52 1245.93 1544.94 Q1242.87 1540.33 1242.87 1531.6 Q1242.87 1522.85 1245.93 1518.27 Q1249.01 1513.66 1254.82 1513.66 Z" fill="#000000" fill-rule="nonzero" fill-opacity="1" /><path clip-path="url(#clip200)" d="M1727.22 1514.29 L1749.45 1514.29 L1749.45 1516.28 L1736.9 1548.85 L1732.02 1548.85 L1743.82 1518.22 L1727.22 1518.22 L1727.22 1514.29 Z" fill="#000000" fill-rule="nonzero" fill-opacity="1" /><path clip-path="url(#clip200)" d="M1758.57 1542.97 L1763.45 1542.97 L1763.45 1548.85 L1758.57 1548.85 L1758.57 1542.97 Z" fill="#000000" fill-rule="nonzero" fill-opacity="1" /><path clip-path="url(#clip200)" d="M1773.68 1514.29 L1792.04 1514.29 L1792.04 1518.22 L1777.97 1518.22 L1777.97 1526.7 Q1778.98 1526.35 1780 1526.19 Q1781.02 1526 1782.04 1526 Q1787.83 1526 1791.21 1529.17 Q1794.59 1532.34 1794.59 1537.76 Q1794.59 1543.34 1791.11 1546.44 Q1787.64 1549.52 1781.32 1549.52 Q1779.15 1549.52 1776.88 1549.15 Q1774.63 1548.78 1772.22 1548.04 L1772.22 1543.34 Q1774.31 1544.47 1776.53 1545.03 Q1778.75 1545.58 1781.23 1545.58 Q1785.23 1545.58 1787.57 1543.48 Q1789.91 1541.37 1789.91 1537.76 Q1789.91 1534.15 1787.57 1532.04 Q1785.23 1529.94 1781.23 1529.94 Q1779.35 1529.94 1777.48 1530.35 Q1775.63 1530.77 1773.68 1531.65 L1773.68 1514.29 Z" fill="#000000" fill-rule="nonzero" fill-opacity="1" /><path clip-path="url(#clip200)" d="M2241.42 1544.91 L2249.05 1544.91 L2249.05 1518.55 L2240.74 1520.21 L2240.74 1515.95 L2249.01 1514.29 L2253.68 1514.29 L2253.68 1544.91 L2261.32 1544.91 L2261.32 1548.85 L2241.42 1548.85 L2241.42 1544.91 Z" fill="#000000" fill-rule="nonzero" fill-opacity="1" /><path clip-path="url(#clip200)" d="M2280.77 1517.37 Q2277.16 1517.37 2275.33 1520.93 Q2273.52 1524.47 2273.52 1531.6 Q2273.52 1538.71 2275.33 1542.27 Q2277.16 1545.82 2280.77 1545.82 Q2284.4 1545.82 2286.21 1542.27 Q2288.04 1538.71 2288.04 1531.6 Q2288.04 1524.47 2286.21 1520.93 Q2284.4 1517.37 2280.77 1517.37 M2280.77 1513.66 Q2286.58 1513.66 2289.63 1518.27 Q2292.71 1522.85 2292.71 1531.6 Q2292.71 1540.33 2289.63 1544.94 Q2286.58 1549.52 2280.77 1549.52 Q2274.96 1549.52 2271.88 1544.94 Q2268.82 1540.33 2268.82 1531.6 Q2268.82 1522.85 2271.88 1518.27 Q2274.96 1513.66 2280.77 1513.66 Z" fill="#000000" fill-rule="nonzero" fill-opacity="1" /><path clip-path="url(#clip200)" d="M2300.93 1542.97 L2305.81 1542.97 L2305.81 1548.85 L2300.93 1548.85 L2300.93 1542.97 Z" fill="#000000" fill-rule="nonzero" fill-opacity="1" /><path clip-path="url(#clip200)" d="M2326 1517.37 Q2322.39 1517.37 2320.56 1520.93 Q2318.75 1524.47 2318.75 1531.6 Q2318.75 1538.71 2320.56 1542.27 Q2322.39 1545.82 2326 1545.82 Q2329.63 1545.82 2331.44 1542.27 Q2333.27 1538.71 2333.27 1531.6 Q2333.27 1524.47 2331.44 1520.93 Q2329.63 1517.37 2326 1517.37 M2326 1513.66 Q2331.81 1513.66 2334.86 1518.27 Q2337.94 1522.85 2337.94 1531.6 Q2337.94 1540.33 2334.86 1544.94 Q2331.81 1549.52 2326 1549.52 Q2320.19 1549.52 2317.11 1544.94 Q2314.05 1540.33 2314.05 1531.6 Q2314.05 1522.85 2317.11 1518.27 Q2320.19 1513.66 2326 1513.66 Z" fill="#000000" fill-rule="nonzero" fill-opacity="1" /><polyline clip-path="url(#clip200)" style="stroke:#000000; stroke-linecap:round; stroke-linejoin:round; stroke-width:4; stroke-opacity:1; fill:none" points="112.177,1486.45 112.177,47.2441 "/>
<polyline clip-path="url(#clip200)" style="stroke:#000000; stroke-linecap:round; stroke-linejoin:round; stroke-width:4; stroke-opacity:1; fill:none" points="112.177,1454.18 131.075,1454.18 "/>
<polyline clip-path="url(#clip200)" style="stroke:#000000; stroke-linecap:round; stroke-linejoin:round; stroke-width:4; stroke-opacity:1; fill:none" points="112.177,1144.68 131.075,1144.68 "/>
<polyline clip-path="url(#clip200)" style="stroke:#000000; stroke-linecap:round; stroke-linejoin:round; stroke-width:4; stroke-opacity:1; fill:none" points="112.177,835.178 131.075,835.178 "/>
<polyline clip-path="url(#clip200)" style="stroke:#000000; stroke-linecap:round; stroke-linejoin:round; stroke-width:4; stroke-opacity:1; fill:none" points="112.177,525.675 131.075,525.675 "/>
<polyline clip-path="url(#clip200)" style="stroke:#000000; stroke-linecap:round; stroke-linejoin:round; stroke-width:4; stroke-opacity:1; fill:none" points="112.177,216.172 131.075,216.172 "/>
<path clip-path="url(#clip200)" d="M64.2328 1439.98 Q60.6217 1439.98 58.793 1443.55 Q56.9875 1447.09 56.9875 1454.22 Q56.9875 1461.33 58.793 1464.89 Q60.6217 1468.43 64.2328 1468.43 Q67.867 1468.43 69.6726 1464.89 Q71.5013 1461.33 71.5013 1454.22 Q71.5013 1447.09 69.6726 1443.55 Q67.867 1439.98 64.2328 1439.98 M64.2328 1436.28 Q70.0429 1436.28 73.0985 1440.89 Q76.1772 1445.47 76.1772 1454.22 Q76.1772 1462.95 73.0985 1467.55 Q70.0429 1472.14 64.2328 1472.14 Q58.4226 1472.14 55.344 1467.55 Q52.2884 1462.95 52.2884 1454.22 Q52.2884 1445.47 55.344 1440.89 Q58.4226 1436.28 64.2328 1436.28 Z" fill="#000000" fill-rule="nonzero" fill-opacity="1" /><path clip-path="url(#clip200)" d="M59.8578 1158.03 L76.1772 1158.03 L76.1772 1161.96 L54.2328 1161.96 L54.2328 1158.03 Q56.8949 1155.27 61.4782 1150.64 Q66.0846 1145.99 67.2652 1144.65 Q69.5105 1142.12 70.3902 1140.39 Q71.2929 1138.63 71.2929 1136.94 Q71.2929 1134.18 69.3485 1132.45 Q67.4272 1130.71 64.3254 1130.71 Q62.1263 1130.71 59.6726 1131.48 Q57.2421 1132.24 54.4643 1133.79 L54.4643 1129.07 Q57.2884 1127.93 59.7421 1127.36 Q62.1958 1126.78 64.2328 1126.78 Q69.6031 1126.78 72.7976 1129.46 Q75.992 1132.15 75.992 1136.64 Q75.992 1138.77 75.1818 1140.69 Q74.3948 1142.59 72.2883 1145.18 Q71.7096 1145.85 68.6078 1149.07 Q65.5059 1152.26 59.8578 1158.03 Z" fill="#000000" fill-rule="nonzero" fill-opacity="1" /><path clip-path="url(#clip200)" d="M66.5939 821.972 L54.7884 840.421 L66.5939 840.421 L66.5939 821.972 M65.367 817.898 L71.2466 817.898 L71.2466 840.421 L76.1772 840.421 L76.1772 844.31 L71.2466 844.31 L71.2466 852.458 L66.5939 852.458 L66.5939 844.31 L50.9921 844.31 L50.9921 839.796 L65.367 817.898 Z" fill="#000000" fill-rule="nonzero" fill-opacity="1" /><path clip-path="url(#clip200)" d="M64.6495 523.812 Q61.5013 523.812 59.6495 525.965 Q57.8208 528.117 57.8208 531.867 Q57.8208 535.594 59.6495 537.77 Q61.5013 539.923 64.6495 539.923 Q67.7976 539.923 69.6263 537.77 Q71.4781 535.594 71.4781 531.867 Q71.4781 528.117 69.6263 525.965 Q67.7976 523.812 64.6495 523.812 M73.9318 509.159 L73.9318 513.418 Q72.1726 512.585 70.367 512.145 Q68.5846 511.705 66.8254 511.705 Q62.1958 511.705 59.7421 514.83 Q57.3115 517.955 56.9643 524.275 Q58.33 522.261 60.3902 521.196 Q62.4504 520.108 64.9272 520.108 Q70.1355 520.108 73.1448 523.279 Q76.1772 526.428 76.1772 531.867 Q76.1772 537.191 73.029 540.409 Q69.8809 543.627 64.6495 543.627 Q58.6541 543.627 55.4828 539.043 Q52.3116 534.437 52.3116 525.71 Q52.3116 517.516 56.2004 512.654 Q60.0893 507.77 66.6402 507.77 Q68.3994 507.77 70.1818 508.117 Q71.9874 508.465 73.9318 509.159 Z" fill="#000000" fill-rule="nonzero" fill-opacity="1" /><path clip-path="url(#clip200)" d="M64.3254 217.04 Q60.9921 217.04 59.0708 218.823 Q57.1726 220.605 57.1726 223.73 Q57.1726 226.855 59.0708 228.637 Q60.9921 230.42 64.3254 230.42 Q67.6587 230.42 69.58 228.637 Q71.5013 226.832 71.5013 223.73 Q71.5013 220.605 69.58 218.823 Q67.6819 217.04 64.3254 217.04 M59.6495 215.049 Q56.6402 214.309 54.9504 212.249 Q53.2838 210.188 53.2838 207.225 Q53.2838 203.082 56.2236 200.674 Q59.1865 198.267 64.3254 198.267 Q69.4874 198.267 72.4272 200.674 Q75.367 203.082 75.367 207.225 Q75.367 210.188 73.6772 212.249 Q72.0105 214.309 69.0244 215.049 Q72.404 215.836 74.279 218.128 Q76.1772 220.42 76.1772 223.73 Q76.1772 228.753 73.0985 231.438 Q70.0429 234.123 64.3254 234.123 Q58.6078 234.123 55.5291 231.438 Q52.4736 228.753 52.4736 223.73 Q52.4736 220.42 54.3717 218.128 Q56.2699 215.836 59.6495 215.049 M57.9365 207.665 Q57.9365 210.35 59.6032 211.855 Q61.293 213.36 64.3254 213.36 Q67.3346 213.36 69.0244 211.855 Q70.7374 210.35 70.7374 207.665 Q70.7374 204.98 69.0244 203.475 Q67.3346 201.971 64.3254 201.971 Q61.293 201.971 59.6032 203.475 Q57.9365 204.98 57.9365 207.665 Z" fill="#000000" fill-rule="nonzero" fill-opacity="1" /><path clip-path="url(#clip201)" d="M175.59 1299.43 L196.727 1308.37 L217.865 1295.28 L239.002 1273.44 L260.14 1247.01 L281.277 1231.92 L302.415 1217.27 L323.553 1181.28 L344.69 1139.98 L365.828 1101.87 L386.965 1078.9 L408.103 1031.24 L429.24 1000.96 L450.378 879.52 L471.515 796.603 L492.653 727.918 L513.79 645.628 L534.928 598.701 L556.065 522.1 L577.203 483.26 L598.34 592.53 L619.478 746.4 L640.616 951.139 L661.753 1126.09 L682.891 1236.48 L704.028 1303.98 L725.166 1335.96 L746.303 1350.24 L767.441 1358.1 L788.578 1359.2 L809.716 1363.19 L830.853 1363.22 L851.991 1362.23 L873.128 1358.87 L894.266 1351.58 L915.404 1343.58 L936.541 1335.73 L957.679 1322.39 L978.816 1308.72 L999.954 1292.63 L1021.09 1272.86 L1042.23 1248.09 L1063.37 1219.33 L1084.5 1189.26 L1105.64 1156.86 L1126.78 1105.54 L1147.92 1069.02 L1169.05 1018.09 L1190.19 961.876 L1211.33 883.378 L1232.47 787.066 L1253.6 827.322 L1274.74 845.483 L1295.88 843.415 L1317.02 944.777 L1338.15 1034.14 L1359.29 1116.71 L1380.43 1192.41 L1401.57 1250.88 L1422.7 1292.17 L1443.84 1327.86 L1464.98 1340.63 L1486.12 1354.05 L1507.25 1360.31 L1528.39 1377.33 L1549.53 1384.17 L1570.67 1391.48 L1591.8 1395.2 L1612.94 1393.33 L1634.08 1390.27 L1655.22 1385.48 L1676.35 1377.1 L1697.49 1367.04 L1718.63 1354.36 L1739.77 1338.38 L1760.9 1320.27 L1782.04 1299.4 L1803.18 1276.78 L1824.32 1248.78 L1845.46 1214.72 L1866.59 1174.24 L1887.73 1123.06 L1908.87 1071.92 L1930.01 1008.99 L1951.14 928.738 L1972.28 851.83 L1993.42 785.968 L2014.56 833.429 L2035.69 858.717 L2056.83 997.544 L2077.97 1092.47 L2099.11 1188.28 L2120.24 1252.04 L2141.38 1277.44 L2162.52 1298.21 L2183.66 1320.38 L2204.79 1337.92 L2225.93 1346.72 L2247.07 1361.17 L2268.21 1375.18 L2289.34 1383.07 L2289.34 1157.07 L2268.21 1066.16 L2247.07 836.482 L2225.93 556.178 L2204.79 316.079 L2183.66 226.958 L2162.52 138.516 L2141.38 142.422 L2120.24 127.211 L2099.11 148.418 L2077.97 239.641 L2056.83 256.391 L2035.69 215.578 L2014.56 214.217 L1993.42 282.086 L1972.28 351.85 L1951.14 386.975 L1930.01 421.114 L1908.87 521.114 L1887.73 609.679 L1866.59 658.062 L1845.46 792.886 L1824.32 910.048 L1803.18 962.728 L1782.04 1006.78 L1760.9 1071.96 L1739.77 1106.46 L1718.63 1132.48 L1697.49 1170.44 L1676.35 1192.43 L1655.22 1226.04 L1634.08 1221.56 L1612.94 1219.77 L1591.8 1234.18 L1570.67 1232.67 L1549.53 1223.14 L1528.39 1202.73 L1507.25 1164.18 L1486.12 1094.32 L1464.98 971.875 L1443.84 747.818 L1422.7 381.051 L1401.57 100.856 L1380.43 87.9763 L1359.29 137.252 L1338.15 207.614 L1317.02 186.764 L1295.88 199.447 L1274.74 243.779 L1253.6 211.159 L1232.47 409.808 L1211.33 476.572 L1190.19 567.118 L1169.05 630.988 L1147.92 692.089 L1126.78 713.559 L1105.64 767.369 L1084.5 828.165 L1063.37 892.474 L1042.23 957.331 L1021.09 1013.97 L999.954 1062.98 L978.816 1091.07 L957.679 1131.3 L936.541 1191.59 L915.404 1222.85 L894.266 1258.83 L873.128 1271.65 L851.991 1266.68 L830.853 1266.15 L809.716 1257.45 L788.578 1241.67 L767.441 1210.83 L746.303 1162.79 L725.166 1106.68 L704.028 1023.97 L682.891 908.308 L661.753 784.891 L640.616 592.748 L619.478 424.994 L598.34 218.317 L577.203 139.444 L556.065 149.709 L534.928 273.104 L513.79 397.963 L492.653 507.754 L471.515 618.048 L450.378 719.879 L429.24 794.18 L408.103 864.408 L386.965 948.096 L365.828 1013.75 L344.69 1064.78 L323.553 1110 L302.415 1153.97 L281.277 1183.99 L260.14 1210.61 L239.002 1241.61 L217.865 1264.02 L196.727 1280.51 L175.59 1299.43  Z" fill="#009af9" fill-rule="evenodd" fill-opacity="0.5"/>
<polyline clip-path="url(#clip201)" style="stroke:#009af9; stroke-linecap:round; stroke-linejoin:round; stroke-width:12; stroke-opacity:1; fill:none" points="175.59,1299.43 196.727,1290.04 217.865,1275.5 239.002,1260.25 260.14,1238.96 281.277,1218.1 302.415,1189.24 323.553,1158.6 344.69,1110.69 365.828,1071.62 386.965,1016.98 408.103,959.571 429.24,898.129 450.378,834.453 471.515,728.18 492.653,653.56 513.79,525.701 534.928,429.858 556.065,384.41 577.203,322.188 598.34,387.524 619.478,544.009 640.616,710.283 661.753,883.888 682.891,1018.15 704.028,1149.74 725.166,1232.16 746.303,1277.78 767.441,1286.76 788.578,1302.56 809.716,1308.6 830.853,1312.47 851.991,1305.82 873.128,1309.79 894.266,1300.84 915.404,1289.11 936.541,1271.71 957.679,1250.76 978.816,1224.58 999.954,1199.05 1021.09,1170.42 1042.23,1137.45 1063.37,1099.48 1084.5,1062.19 1105.64,1006.6 1126.78,942.829 1147.92,856.957 1169.05,808.327 1190.19,725.052 1211.33,638.689 1232.47,552.33 1253.6,469.367 1274.74,404.888 1295.88,407.256 1317.02,464.74 1338.15,502.611 1359.29,713.438 1380.43,908.857 1401.57,1057.4 1422.7,1153.41 1443.84,1210 1464.98,1251.18 1486.12,1282.09 1507.25,1318.76 1528.39,1329.2 1549.53,1333.25 1570.67,1329.34 1591.8,1322.59 1612.94,1309.49 1634.08,1291.09 1655.22,1268.75 1676.35,1248.59 1697.49,1223.07 1718.63,1196.67 1739.77,1165 1760.9,1130.9 1782.04,1096.07 1803.18,1034.02 1824.32,962.521 1845.46,891.443 1866.59,826.785 1887.73,741.655 1908.87,666.491 1930.01,559.308 1951.14,486.639 1972.28,435.285 1993.42,488.009 2014.56,485.654 2035.69,546.459 2056.83,578.323 2077.97,656.382 2099.11,897.943 2120.24,1084.91 2141.38,1207.04 2162.52,1246.44 2183.66,1264.87 2204.79,1277.91 2225.93,1294.25 2247.07,1295.99 2268.21,1290.84 2289.34,1284.6 "/>
<path clip-path="url(#clip201)" d="M175.59 1299.43 L196.727 1336.56 L217.865 1365.05 L239.002 1382.16 L260.14 1393.44 L281.277 1400.5 L302.415 1409.52 L323.553 1414.66 L344.69 1418.77 L365.828 1421.73 L386.965 1423.27 L408.103 1424.73 L429.24 1423.99 L450.378 1425.15 L471.515 1421.13 L492.653 1412.51 L513.79 1396.33 L534.928 1373.71 L556.065 1344.27 L577.203 1265.8 L598.34 1186.14 L619.478 1089.74 L640.616 960.064 L661.753 905.487 L682.891 892.756 L704.028 889.858 L725.166 945.407 L746.303 1040.76 L767.441 1124.36 L788.578 1193.88 L809.716 1234.65 L830.853 1280.36 L851.991 1311.31 L873.128 1333.45 L894.266 1355.79 L915.404 1374.7 L936.541 1389.39 L957.679 1400.72 L978.816 1409.48 L999.954 1417.8 L1021.09 1423.6 L1042.23 1426.78 L1063.37 1430.14 L1084.5 1431.93 L1105.64 1433.81 L1126.78 1434.94 L1147.92 1436.73 L1169.05 1436.91 L1190.19 1435.37 L1211.33 1433.55 L1232.47 1432.07 L1253.6 1422.48 L1274.74 1412.98 L1295.88 1403.36 L1317.02 1385.27 L1338.15 1359.07 L1359.29 1322.08 L1380.43 1233.57 L1401.57 1133.63 L1422.7 1085.3 L1443.84 1075.77 L1464.98 1120.46 L1486.12 1168.06 L1507.25 1213.45 L1528.39 1247.92 L1549.53 1278.74 L1570.67 1318.87 L1591.8 1355.43 L1612.94 1379.62 L1634.08 1393.36 L1655.22 1400.55 L1676.35 1408.84 L1697.49 1414.79 L1718.63 1420.75 L1739.77 1425.4 L1760.9 1428.42 L1782.04 1433.18 L1803.18 1438.41 L1824.32 1440.54 L1845.46 1443.06 L1866.59 1443.77 L1887.73 1445.13 L1908.87 1445.72 L1930.01 1445.18 L1951.14 1445.4 L1972.28 1443.67 L1993.42 1441.93 L2014.56 1437.51 L2035.69 1431.03 L2056.83 1421.05 L2077.97 1395.13 L2099.11 1342.87 L2120.24 1260.83 L2141.38 1291.01 L2162.52 1296.34 L2183.66 1250.26 L2204.79 1212.56 L2225.93 1255.6 L2247.07 1287.06 L2268.21 1312.77 L2289.34 1323.46 L2289.34 740.568 L2268.21 598.812 L2247.07 491.867 L2225.93 590.043 L2204.79 630.128 L2183.66 535.893 L2162.52 536.204 L2141.38 607.28 L2120.24 542.057 L2099.11 564.958 L2077.97 631.706 L2056.83 795.891 L2035.69 825.313 L2014.56 915.037 L1993.42 990.762 L1972.28 1139.62 L1951.14 1243.27 L1930.01 1309.38 L1908.87 1348.34 L1887.73 1370.92 L1866.59 1384.12 L1845.46 1391.78 L1824.32 1392.89 L1803.18 1389.88 L1782.04 1384 L1760.9 1382.09 L1739.77 1380.37 L1718.63 1370.59 L1697.49 1352.53 L1676.35 1326.73 L1655.22 1294.8 L1634.08 1263.8 L1612.94 1207.83 L1591.8 1147.97 L1570.67 1051.28 L1549.53 951.9 L1528.39 844.961 L1507.25 736.972 L1486.12 583.626 L1464.98 454.505 L1443.84 334.168 L1422.7 549.315 L1401.57 591.91 L1380.43 549.254 L1359.29 609.418 L1338.15 742.871 L1317.02 808.197 L1295.88 938.662 L1274.74 1032.84 L1253.6 1081.86 L1232.47 1164.85 L1211.33 1217.47 L1190.19 1283.84 L1169.05 1303.87 L1147.92 1331.3 L1126.78 1341.31 L1105.64 1362.38 L1084.5 1374.98 L1063.37 1382.91 L1042.23 1382.44 L1021.09 1382.97 L999.954 1378.87 L978.816 1370.04 L957.679 1356.19 L936.541 1329 L915.404 1301.92 L894.266 1269.2 L873.128 1225.25 L851.991 1187.41 L830.853 1119.99 L809.716 1051.61 L788.578 970.802 L767.441 924.712 L746.303 848.317 L725.166 704.891 L704.028 595.87 L682.891 641.736 L661.753 554.844 L640.616 515.894 L619.478 662.991 L598.34 859.249 L577.203 1072.5 L556.065 1206.6 L534.928 1288.56 L513.79 1333.93 L492.653 1357.04 L471.515 1376.92 L450.378 1394.53 L429.24 1400.98 L408.103 1401.7 L386.965 1405.35 L365.828 1402.96 L344.69 1399.26 L323.553 1397.02 L302.415 1388.08 L281.277 1378.71 L260.14 1372.3 L239.002 1360.95 L217.865 1340.38 L196.727 1312.65 L175.59 1299.43  Z" fill="#e26f46" fill-rule="evenodd" fill-opacity="0.5"/>
<polyline clip-path="url(#clip201)" style="stroke:#e26f46; stroke-linecap:round; stroke-linejoin:round; stroke-width:12; stroke-opacity:1; fill:none" points="175.59,1299.43 196.727,1328.35 217.865,1355.49 239.002,1368.2 260.14,1381.7 281.277,1392.08 302.415,1399.91 323.553,1405.68 344.69,1410.05 365.828,1413.23 386.965,1416.9 408.103,1416.36 429.24,1413.3 450.378,1409.58 471.515,1404.86 492.653,1395.68 513.79,1377.08 534.928,1347.99 556.065,1293.48 577.203,1203.41 598.34,1117.4 619.478,992.586 640.616,851.407 661.753,705.007 682.891,728.004 704.028,830.797 725.166,916.221 746.303,975.954 767.441,1068.52 788.578,1126.74 809.716,1202.27 830.853,1240.46 851.991,1271 873.128,1312.65 894.266,1344.4 915.404,1362.38 936.541,1379.74 957.679,1391.31 978.816,1398.46 999.954,1405.43 1021.09,1413.46 1042.23,1416.56 1063.37,1421.79 1084.5,1422.92 1105.64,1421.28 1126.78,1420.34 1147.92,1420.17 1169.05,1418.43 1190.19,1413.29 1211.33,1406.31 1232.47,1390.37 1253.6,1362.35 1274.74,1311.57 1295.88,1230.17 1317.02,1096.05 1338.15,986.664 1359.29,888.142 1380.43,792.087 1401.57,776.876 1422.7,803.487 1443.84,860.362 1464.98,916.248 1486.12,1038.21 1507.25,1114.76 1528.39,1183.49 1549.53,1236.34 1570.67,1281.68 1591.8,1309.68 1612.94,1337.98 1634.08,1359.59 1655.22,1379.78 1676.35,1390.05 1697.49,1400.64 1718.63,1408.98 1739.77,1416.14 1760.9,1421.61 1782.04,1423.9 1803.18,1422.36 1824.32,1422.87 1845.46,1419.11 1866.59,1416.29 1887.73,1408.46 1908.87,1400.94 1930.01,1389.3 1951.14,1371.03 1972.28,1345.88 1993.42,1300.57 2014.56,1231.48 2035.69,1079.98 2056.83,910.826 2077.97,843.817 2099.11,835.32 2120.24,877.605 2141.38,879.052 2162.52,942.333 2183.66,1033.93 2204.79,1088.19 2225.93,1131.09 2247.07,1195.11 2268.21,1246.69 2289.34,1287.72 "/>
</svg>
