<?xml version="1.0" encoding="utf-8"?>
<svg xmlns="http://www.w3.org/2000/svg" xmlns:xlink="http://www.w3.org/1999/xlink" width="600" height="400" viewBox="0 0 2400 1600">
<defs>
  <clipPath id="clip230">
    <rect x="0" y="0" width="2400" height="1600"/>
  </clipPath>
</defs>
<path clip-path="url(#clip230)" d="M0 1600 L2400 1600 L2400 0 L0 0  Z" fill="#ffffff" fill-rule="evenodd" fill-opacity="1"/>
<defs>
  <clipPath id="clip231">
    <rect x="155" y="47" width="2198" height="1440"/>
  </clipPath>
</defs>
<path clip-path="url(#clip230)" d="M155.765 1486.45 L2352.76 1486.45 L2352.76 47.2441 L155.765 47.2441  Z" fill="#ffffff" fill-rule="evenodd" fill-opacity="1"/>
<polyline clip-path="url(#clip231)" style="stroke:#000000; stroke-linecap:round; stroke-linejoin:round; stroke-width:2; stroke-opacity:0.1; fill:none" points="217.944,1486.45 217.944,47.2441 "/>
<polyline clip-path="url(#clip231)" style="stroke:#000000; stroke-linecap:round; stroke-linejoin:round; stroke-width:2; stroke-opacity:0.1; fill:none" points="736.102,1486.45 736.102,47.2441 "/>
<polyline clip-path="url(#clip231)" style="stroke:#000000; stroke-linecap:round; stroke-linejoin:round; stroke-width:2; stroke-opacity:0.1; fill:none" points="1254.26,1486.45 1254.26,47.2441 "/>
<polyline clip-path="url(#clip231)" style="stroke:#000000; stroke-linecap:round; stroke-linejoin:round; stroke-width:2; stroke-opacity:0.1; fill:none" points="1772.42,1486.45 1772.42,47.2441 "/>
<polyline clip-path="url(#clip231)" style="stroke:#000000; stroke-linecap:round; stroke-linejoin:round; stroke-width:2; stroke-opacity:0.1; fill:none" points="2290.58,1486.45 2290.58,47.2441 "/>
<polyline clip-path="url(#clip231)" style="stroke:#000000; stroke-linecap:round; stroke-linejoin:round; stroke-width:2; stroke-opacity:0.1; fill:none" points="155.765,1394.98 2352.76,1394.98 "/>
<polyline clip-path="url(#clip231)" style="stroke:#000000; stroke-linecap:round; stroke-linejoin:round; stroke-width:2; stroke-opacity:0.1; fill:none" points="155.765,1162.55 2352.76,1162.55 "/>
<polyline clip-path="url(#clip231)" style="stroke:#000000; stroke-linecap:round; stroke-linejoin:round; stroke-width:2; stroke-opacity:0.1; fill:none" points="155.765,930.119 2352.76,930.119 "/>
<polyline clip-path="url(#clip231)" style="stroke:#000000; stroke-linecap:round; stroke-linejoin:round; stroke-width:2; stroke-opacity:0.1; fill:none" points="155.765,697.69 2352.76,697.69 "/>
<polyline clip-path="url(#clip231)" style="stroke:#000000; stroke-linecap:round; stroke-linejoin:round; stroke-width:2; stroke-opacity:0.1; fill:none" points="155.765,465.261 2352.76,465.261 "/>
<polyline clip-path="url(#clip231)" style="stroke:#000000; stroke-linecap:round; stroke-linejoin:round; stroke-width:2; stroke-opacity:0.1; fill:none" points="155.765,232.833 2352.76,232.833 "/>
<polyline clip-path="url(#clip230)" style="stroke:#000000; stroke-linecap:round; stroke-linejoin:round; stroke-width:4; stroke-opacity:1; fill:none" points="155.765,1486.45 2352.76,1486.45 "/>
<polyline clip-path="url(#clip230)" style="stroke:#000000; stroke-linecap:round; stroke-linejoin:round; stroke-width:4; stroke-opacity:1; fill:none" points="217.944,1486.45 217.944,1467.55 "/>
<polyline clip-path="url(#clip230)" style="stroke:#000000; stroke-linecap:round; stroke-linejoin:round; stroke-width:4; stroke-opacity:1; fill:none" points="736.102,1486.45 736.102,1467.55 "/>
<polyline clip-path="url(#clip230)" style="stroke:#000000; stroke-linecap:round; stroke-linejoin:round; stroke-width:4; stroke-opacity:1; fill:none" points="1254.26,1486.45 1254.26,1467.55 "/>
<polyline clip-path="url(#clip230)" style="stroke:#000000; stroke-linecap:round; stroke-linejoin:round; stroke-width:4; stroke-opacity:1; fill:none" points="1772.42,1486.45 1772.42,1467.55 "/>
<polyline clip-path="url(#clip230)" style="stroke:#000000; stroke-linecap:round; stroke-linejoin:round; stroke-width:4; stroke-opacity:1; fill:none" points="2290.58,1486.45 2290.58,1467.55 "/>
<path clip-path="url(#clip230)" d="M180.247 1517.37 Q176.636 1517.37 174.808 1520.93 Q173.002 1524.47 173.002 1531.6 Q173.002 1538.71 174.808 1542.27 Q176.636 1545.82 180.247 1545.82 Q183.882 1545.82 185.687 1542.27 Q187.516 1538.71 187.516 1531.6 Q187.516 1524.47 185.687 1520.93 Q183.882 1517.37 180.247 1517.37 M180.247 1513.66 Q186.057 1513.66 189.113 1518.27 Q192.192 1522.85 192.192 1531.6 Q192.192 1540.33 189.113 1544.94 Q186.057 1549.52 180.247 1549.52 Q174.437 1549.52 171.358 1544.94 Q168.303 1540.33 168.303 1531.6 Q168.303 1522.85 171.358 1518.27 Q174.437 1513.66 180.247 1513.66 Z" fill="#000000" fill-rule="nonzero" fill-opacity="1" /><path clip-path="url(#clip230)" d="M200.409 1542.97 L205.294 1542.97 L205.294 1548.85 L200.409 1548.85 L200.409 1542.97 Z" fill="#000000" fill-rule="nonzero" fill-opacity="1" /><path clip-path="url(#clip230)" d="M225.479 1517.37 Q221.867 1517.37 220.039 1520.93 Q218.233 1524.47 218.233 1531.6 Q218.233 1538.71 220.039 1542.27 Q221.867 1545.82 225.479 1545.82 Q229.113 1545.82 230.918 1542.27 Q232.747 1538.71 232.747 1531.6 Q232.747 1524.47 230.918 1520.93 Q229.113 1517.37 225.479 1517.37 M225.479 1513.66 Q231.289 1513.66 234.344 1518.27 Q237.423 1522.85 237.423 1531.6 Q237.423 1540.33 234.344 1544.94 Q231.289 1549.52 225.479 1549.52 Q219.668 1549.52 216.59 1544.94 Q213.534 1540.33 213.534 1531.6 Q213.534 1522.85 216.59 1518.27 Q219.668 1513.66 225.479 1513.66 Z" fill="#000000" fill-rule="nonzero" fill-opacity="1" /><path clip-path="url(#clip230)" d="M255.64 1517.37 Q252.029 1517.37 250.201 1520.93 Q248.395 1524.47 248.395 1531.6 Q248.395 1538.71 250.201 1542.27 Q252.029 1545.82 255.64 1545.82 Q259.275 1545.82 261.08 1542.27 Q262.909 1538.71 262.909 1531.6 Q262.909 1524.47 261.08 1520.93 Q259.275 1517.37 255.64 1517.37 M255.64 1513.66 Q261.451 1513.66 264.506 1518.27 Q267.585 1522.85 267.585 1531.6 Q267.585 1540.33 264.506 1544.94 Q261.451 1549.52 255.64 1549.52 Q249.83 1549.52 246.752 1544.94 Q243.696 1540.33 243.696 1531.6 Q243.696 1522.85 246.752 1518.27 Q249.83 1513.66 255.64 1513.66 Z" fill="#000000" fill-rule="nonzero" fill-opacity="1" /><path clip-path="url(#clip230)" d="M698.903 1517.37 Q695.292 1517.37 693.463 1520.93 Q691.658 1524.47 691.658 1531.6 Q691.658 1538.71 693.463 1542.27 Q695.292 1545.82 698.903 1545.82 Q702.538 1545.82 704.343 1542.27 Q706.172 1538.71 706.172 1531.6 Q706.172 1524.47 704.343 1520.93 Q702.538 1517.37 698.903 1517.37 M698.903 1513.66 Q704.713 1513.66 707.769 1518.27 Q710.848 1522.85 710.848 1531.6 Q710.848 1540.33 707.769 1544.94 Q704.713 1549.52 698.903 1549.52 Q693.093 1549.52 690.014 1544.94 Q686.959 1540.33 686.959 1531.6 Q686.959 1522.85 690.014 1518.27 Q693.093 1513.66 698.903 1513.66 Z" fill="#000000" fill-rule="nonzero" fill-opacity="1" /><path clip-path="url(#clip230)" d="M719.065 1542.97 L723.949 1542.97 L723.949 1548.85 L719.065 1548.85 L719.065 1542.97 Z" fill="#000000" fill-rule="nonzero" fill-opacity="1" /><path clip-path="url(#clip230)" d="M738.162 1544.91 L754.482 1544.91 L754.482 1548.85 L732.537 1548.85 L732.537 1544.91 Q735.199 1542.16 739.783 1537.53 Q744.389 1532.88 745.57 1531.53 Q747.815 1529.01 748.695 1527.27 Q749.597 1525.51 749.597 1523.82 Q749.597 1521.07 747.653 1519.33 Q745.732 1517.6 742.63 1517.6 Q740.431 1517.6 737.977 1518.36 Q735.547 1519.13 732.769 1520.68 L732.769 1515.95 Q735.593 1514.82 738.047 1514.24 Q740.5 1513.66 742.537 1513.66 Q747.908 1513.66 751.102 1516.35 Q754.296 1519.03 754.296 1523.52 Q754.296 1525.65 753.486 1527.57 Q752.699 1529.47 750.593 1532.07 Q750.014 1532.74 746.912 1535.95 Q743.81 1539.15 738.162 1544.91 Z" fill="#000000" fill-rule="nonzero" fill-opacity="1" /><path clip-path="url(#clip230)" d="M764.343 1514.29 L782.699 1514.29 L782.699 1518.22 L768.625 1518.22 L768.625 1526.7 Q769.644 1526.35 770.662 1526.19 Q771.681 1526 772.699 1526 Q778.486 1526 781.866 1529.17 Q785.245 1532.34 785.245 1537.76 Q785.245 1543.34 781.773 1546.44 Q778.301 1549.52 771.982 1549.52 Q769.806 1549.52 767.537 1549.15 Q765.292 1548.78 762.884 1548.04 L762.884 1543.34 Q764.968 1544.47 767.19 1545.03 Q769.412 1545.58 771.889 1545.58 Q775.894 1545.58 778.232 1543.48 Q780.57 1541.37 780.57 1537.76 Q780.57 1534.15 778.232 1532.04 Q775.894 1529.94 771.889 1529.94 Q770.014 1529.94 768.139 1530.35 Q766.287 1530.77 764.343 1531.65 L764.343 1514.29 Z" fill="#000000" fill-rule="nonzero" fill-opacity="1" /><path clip-path="url(#clip230)" d="M1216.56 1517.37 Q1212.95 1517.37 1211.12 1520.93 Q1209.32 1524.47 1209.32 1531.6 Q1209.32 1538.71 1211.12 1542.27 Q1212.95 1545.82 1216.56 1545.82 Q1220.2 1545.82 1222 1542.27 Q1223.83 1538.71 1223.83 1531.6 Q1223.83 1524.47 1222 1520.93 Q1220.2 1517.37 1216.56 1517.37 M1216.56 1513.66 Q1222.37 1513.66 1225.43 1518.27 Q1228.51 1522.85 1228.51 1531.6 Q1228.51 1540.33 1225.43 1544.94 Q1222.37 1549.52 1216.56 1549.52 Q1210.75 1549.52 1207.68 1544.94 Q1204.62 1540.33 1204.62 1531.6 Q1204.62 1522.85 1207.68 1518.27 Q1210.75 1513.66 1216.56 1513.66 Z" fill="#000000" fill-rule="nonzero" fill-opacity="1" /><path clip-path="url(#clip230)" d="M1236.73 1542.97 L1241.61 1542.97 L1241.61 1548.85 L1236.73 1548.85 L1236.73 1542.97 Z" fill="#000000" fill-rule="nonzero" fill-opacity="1" /><path clip-path="url(#clip230)" d="M1251.84 1514.29 L1270.2 1514.29 L1270.2 1518.22 L1256.12 1518.22 L1256.12 1526.7 Q1257.14 1526.35 1258.16 1526.19 Q1259.18 1526 1260.2 1526 Q1265.98 1526 1269.36 1529.17 Q1272.74 1532.34 1272.74 1537.76 Q1272.74 1543.34 1269.27 1546.44 Q1265.8 1549.52 1259.48 1549.52 Q1257.3 1549.52 1255.04 1549.15 Q1252.79 1548.78 1250.38 1548.04 L1250.38 1543.34 Q1252.47 1544.47 1254.69 1545.03 Q1256.91 1545.58 1259.39 1545.58 Q1263.39 1545.58 1265.73 1543.48 Q1268.07 1541.37 1268.07 1537.76 Q1268.07 1534.15 1265.73 1532.04 Q1263.39 1529.94 1259.39 1529.94 Q1257.51 1529.94 1255.64 1530.35 Q1253.79 1530.77 1251.84 1531.65 L1251.84 1514.29 Z" fill="#000000" fill-rule="nonzero" fill-opacity="1" /><path clip-path="url(#clip230)" d="M1291.96 1517.37 Q1288.35 1517.37 1286.52 1520.93 Q1284.71 1524.47 1284.71 1531.6 Q1284.71 1538.71 1286.52 1542.27 Q1288.35 1545.82 1291.96 1545.82 Q1295.59 1545.82 1297.4 1542.27 Q1299.23 1538.71 1299.23 1531.6 Q1299.23 1524.47 1297.4 1520.93 Q1295.59 1517.37 1291.96 1517.37 M1291.96 1513.66 Q1297.77 1513.66 1300.82 1518.27 Q1303.9 1522.85 1303.9 1531.6 Q1303.9 1540.33 1300.82 1544.94 Q1297.77 1549.52 1291.96 1549.52 Q1286.15 1549.52 1283.07 1544.94 Q1280.01 1540.33 1280.01 1531.6 Q1280.01 1522.85 1283.07 1518.27 Q1286.15 1513.66 1291.96 1513.66 Z" fill="#000000" fill-rule="nonzero" fill-opacity="1" /><path clip-path="url(#clip230)" d="M1735.22 1517.37 Q1731.61 1517.37 1729.78 1520.93 Q1727.97 1524.47 1727.97 1531.6 Q1727.97 1538.71 1729.78 1542.27 Q1731.61 1545.82 1735.22 1545.82 Q1738.85 1545.82 1740.66 1542.27 Q1742.49 1538.71 1742.49 1531.6 Q1742.49 1524.47 1740.66 1520.93 Q1738.85 1517.37 1735.22 1517.37 M1735.22 1513.66 Q1741.03 1513.66 1744.09 1518.27 Q1747.16 1522.85 1747.16 1531.6 Q1747.16 1540.33 1744.09 1544.94 Q1741.03 1549.52 1735.22 1549.52 Q1729.41 1549.52 1726.33 1544.94 Q1723.28 1540.33 1723.28 1531.6 Q1723.28 1522.85 1726.33 1518.27 Q1729.41 1513.66 1735.22 1513.66 Z" fill="#000000" fill-rule="nonzero" fill-opacity="1" /><path clip-path="url(#clip230)" d="M1755.38 1542.97 L1760.27 1542.97 L1760.27 1548.85 L1755.38 1548.85 L1755.38 1542.97 Z" fill="#000000" fill-rule="nonzero" fill-opacity="1" /><path clip-path="url(#clip230)" d="M1769.27 1514.29 L1791.49 1514.29 L1791.49 1516.28 L1778.95 1548.85 L1774.06 1548.85 L1785.87 1518.22 L1769.27 1518.22 L1769.27 1514.29 Z" fill="#000000" fill-rule="nonzero" fill-opacity="1" /><path clip-path="url(#clip230)" d="M1800.66 1514.29 L1819.02 1514.29 L1819.02 1518.22 L1804.94 1518.22 L1804.94 1526.7 Q1805.96 1526.35 1806.98 1526.19 Q1808 1526 1809.02 1526 Q1814.8 1526 1818.18 1529.17 Q1821.56 1532.34 1821.56 1537.76 Q1821.56 1543.34 1818.09 1546.44 Q1814.62 1549.52 1808.3 1549.52 Q1806.12 1549.52 1803.85 1549.15 Q1801.61 1548.78 1799.2 1548.04 L1799.2 1543.34 Q1801.28 1544.47 1803.51 1545.03 Q1805.73 1545.58 1808.21 1545.58 Q1812.21 1545.58 1814.55 1543.48 Q1816.89 1541.37 1816.89 1537.76 Q1816.89 1534.15 1814.55 1532.04 Q1812.21 1529.94 1808.21 1529.94 Q1806.33 1529.94 1804.46 1530.35 Q1802.6 1530.77 1800.66 1531.65 L1800.66 1514.29 Z" fill="#000000" fill-rule="nonzero" fill-opacity="1" /><path clip-path="url(#clip230)" d="M2242.65 1544.91 L2250.29 1544.91 L2250.29 1518.55 L2241.98 1520.21 L2241.98 1515.95 L2250.24 1514.29 L2254.92 1514.29 L2254.92 1544.91 L2262.56 1544.91 L2262.56 1548.85 L2242.65 1548.85 L2242.65 1544.91 Z" fill="#000000" fill-rule="nonzero" fill-opacity="1" /><path clip-path="url(#clip230)" d="M2272 1542.97 L2276.88 1542.97 L2276.88 1548.85 L2272 1548.85 L2272 1542.97 Z" fill="#000000" fill-rule="nonzero" fill-opacity="1" /><path clip-path="url(#clip230)" d="M2297.07 1517.37 Q2293.46 1517.37 2291.63 1520.93 Q2289.82 1524.47 2289.82 1531.6 Q2289.82 1538.71 2291.63 1542.27 Q2293.46 1545.82 2297.07 1545.82 Q2300.7 1545.82 2302.51 1542.27 Q2304.34 1538.71 2304.34 1531.6 Q2304.34 1524.47 2302.51 1520.93 Q2300.7 1517.37 2297.07 1517.37 M2297.07 1513.66 Q2302.88 1513.66 2305.94 1518.27 Q2309.01 1522.85 2309.01 1531.6 Q2309.01 1540.33 2305.94 1544.94 Q2302.88 1549.52 2297.07 1549.52 Q2291.26 1549.52 2288.18 1544.94 Q2285.13 1540.33 2285.13 1531.6 Q2285.13 1522.85 2288.18 1518.27 Q2291.26 1513.66 2297.07 1513.66 Z" fill="#000000" fill-rule="nonzero" fill-opacity="1" /><path clip-path="url(#clip230)" d="M2327.23 1517.37 Q2323.62 1517.37 2321.79 1520.93 Q2319.99 1524.47 2319.99 1531.6 Q2319.99 1538.71 2321.79 1542.27 Q2323.62 1545.82 2327.23 1545.82 Q2330.87 1545.82 2332.67 1542.27 Q2334.5 1538.71 2334.5 1531.6 Q2334.5 1524.47 2332.67 1520.93 Q2330.87 1517.37 2327.23 1517.37 M2327.23 1513.66 Q2333.04 1513.66 2336.1 1518.27 Q2339.18 1522.85 2339.18 1531.6 Q2339.18 1540.33 2336.1 1544.94 Q2333.04 1549.52 2327.23 1549.52 Q2321.42 1549.52 2318.34 1544.94 Q2315.29 1540.33 2315.29 1531.6 Q2315.29 1522.85 2318.34 1518.27 Q2321.42 1513.66 2327.23 1513.66 Z" fill="#000000" fill-rule="nonzero" fill-opacity="1" /><polyline clip-path="url(#clip230)" style="stroke:#000000; stroke-linecap:round; stroke-linejoin:round; stroke-width:4; stroke-opacity:1; fill:none" points="155.765,1486.45 155.765,47.2441 "/>
<polyline clip-path="url(#clip230)" style="stroke:#000000; stroke-linecap:round; stroke-linejoin:round; stroke-width:4; stroke-opacity:1; fill:none" points="155.765,1394.98 174.663,1394.98 "/>
<polyline clip-path="url(#clip230)" style="stroke:#000000; stroke-linecap:round; stroke-linejoin:round; stroke-width:4; stroke-opacity:1; fill:none" points="155.765,1162.55 174.663,1162.55 "/>
<polyline clip-path="url(#clip230)" style="stroke:#000000; stroke-linecap:round; stroke-linejoin:round; stroke-width:4; stroke-opacity:1; fill:none" points="155.765,930.119 174.663,930.119 "/>
<polyline clip-path="url(#clip230)" style="stroke:#000000; stroke-linecap:round; stroke-linejoin:round; stroke-width:4; stroke-opacity:1; fill:none" points="155.765,697.69 174.663,697.69 "/>
<polyline clip-path="url(#clip230)" style="stroke:#000000; stroke-linecap:round; stroke-linejoin:round; stroke-width:4; stroke-opacity:1; fill:none" points="155.765,465.261 174.663,465.261 "/>
<polyline clip-path="url(#clip230)" style="stroke:#000000; stroke-linecap:round; stroke-linejoin:round; stroke-width:4; stroke-opacity:1; fill:none" points="155.765,232.833 174.663,232.833 "/>
<path clip-path="url(#clip230)" d="M63.5847 1380.78 Q59.9736 1380.78 58.1449 1384.34 Q56.3393 1387.88 56.3393 1395.01 Q56.3393 1402.12 58.1449 1405.68 Q59.9736 1409.22 63.5847 1409.22 Q67.2189 1409.22 69.0244 1405.68 Q70.8531 1402.12 70.8531 1395.01 Q70.8531 1387.88 69.0244 1384.34 Q67.2189 1380.78 63.5847 1380.78 M63.5847 1377.07 Q69.3948 1377.07 72.4503 1381.68 Q75.529 1386.26 75.529 1395.01 Q75.529 1403.74 72.4503 1408.34 Q69.3948 1412.93 63.5847 1412.93 Q57.7745 1412.93 54.6958 1408.34 Q51.6403 1403.74 51.6403 1395.01 Q51.6403 1386.26 54.6958 1381.68 Q57.7745 1377.07 63.5847 1377.07 Z" fill="#000000" fill-rule="nonzero" fill-opacity="1" /><path clip-path="url(#clip230)" d="M83.7466 1406.38 L88.6308 1406.38 L88.6308 1412.26 L83.7466 1412.26 L83.7466 1406.38 Z" fill="#000000" fill-rule="nonzero" fill-opacity="1" /><path clip-path="url(#clip230)" d="M98.8622 1377.7 L117.219 1377.7 L117.219 1381.63 L103.145 1381.63 L103.145 1390.1 Q104.163 1389.76 105.182 1389.59 Q106.2 1389.41 107.219 1389.41 Q113.006 1389.41 116.385 1392.58 Q119.765 1395.75 119.765 1401.17 Q119.765 1406.75 116.293 1409.85 Q112.82 1412.93 106.501 1412.93 Q104.325 1412.93 102.057 1412.56 Q99.8113 1412.19 97.4039 1411.45 L97.4039 1406.75 Q99.4872 1407.88 101.709 1408.44 Q103.932 1408.99 106.408 1408.99 Q110.413 1408.99 112.751 1406.89 Q115.089 1404.78 115.089 1401.17 Q115.089 1397.56 112.751 1395.45 Q110.413 1393.34 106.408 1393.34 Q104.534 1393.34 102.659 1393.76 Q100.807 1394.18 98.8622 1395.06 L98.8622 1377.7 Z" fill="#000000" fill-rule="nonzero" fill-opacity="1" /><path clip-path="url(#clip230)" d="M53.3995 1175.89 L61.0384 1175.89 L61.0384 1149.53 L52.7282 1151.19 L52.7282 1146.93 L60.9921 1145.27 L65.668 1145.27 L65.668 1175.89 L73.3068 1175.89 L73.3068 1179.83 L53.3995 1179.83 L53.3995 1175.89 Z" fill="#000000" fill-rule="nonzero" fill-opacity="1" /><path clip-path="url(#clip230)" d="M82.7512 1173.95 L87.6354 1173.95 L87.6354 1179.83 L82.7512 1179.83 L82.7512 1173.95 Z" fill="#000000" fill-rule="nonzero" fill-opacity="1" /><path clip-path="url(#clip230)" d="M107.821 1148.35 Q104.209 1148.35 102.381 1151.91 Q100.575 1155.45 100.575 1162.58 Q100.575 1169.69 102.381 1173.25 Q104.209 1176.8 107.821 1176.8 Q111.455 1176.8 113.26 1173.25 Q115.089 1169.69 115.089 1162.58 Q115.089 1155.45 113.26 1151.91 Q111.455 1148.35 107.821 1148.35 M107.821 1144.64 Q113.631 1144.64 116.686 1149.25 Q119.765 1153.83 119.765 1162.58 Q119.765 1171.31 116.686 1175.92 Q113.631 1180.5 107.821 1180.5 Q102.01 1180.5 98.9317 1175.92 Q95.8761 1171.31 95.8761 1162.58 Q95.8761 1153.83 98.9317 1149.25 Q102.01 1144.64 107.821 1144.64 Z" fill="#000000" fill-rule="nonzero" fill-opacity="1" /><path clip-path="url(#clip230)" d="M54.3949 943.464 L62.0337 943.464 L62.0337 917.098 L53.7236 918.765 L53.7236 914.506 L61.9874 912.839 L66.6633 912.839 L66.6633 943.464 L74.3022 943.464 L74.3022 947.399 L54.3949 947.399 L54.3949 943.464 Z" fill="#000000" fill-rule="nonzero" fill-opacity="1" /><path clip-path="url(#clip230)" d="M83.7466 941.52 L88.6308 941.52 L88.6308 947.399 L83.7466 947.399 L83.7466 941.52 Z" fill="#000000" fill-rule="nonzero" fill-opacity="1" /><path clip-path="url(#clip230)" d="M98.8622 912.839 L117.219 912.839 L117.219 916.774 L103.145 916.774 L103.145 925.246 Q104.163 924.899 105.182 924.737 Q106.2 924.552 107.219 924.552 Q113.006 924.552 116.385 927.723 Q119.765 930.895 119.765 936.311 Q119.765 941.89 116.293 944.992 Q112.82 948.07 106.501 948.07 Q104.325 948.07 102.057 947.7 Q99.8113 947.33 97.4039 946.589 L97.4039 941.89 Q99.4872 943.024 101.709 943.58 Q103.932 944.135 106.408 944.135 Q110.413 944.135 112.751 942.029 Q115.089 939.922 115.089 936.311 Q115.089 932.7 112.751 930.594 Q110.413 928.487 106.408 928.487 Q104.534 928.487 102.659 928.904 Q100.807 929.321 98.8622 930.2 L98.8622 912.839 Z" fill="#000000" fill-rule="nonzero" fill-opacity="1" /><path clip-path="url(#clip230)" d="M56.6171 711.035 L72.9365 711.035 L72.9365 714.97 L50.9921 714.97 L50.9921 711.035 Q53.6541 708.281 58.2375 703.651 Q62.8439 698.998 64.0245 697.656 Q66.2698 695.132 67.1494 693.396 Q68.0522 691.637 68.0522 689.947 Q68.0522 687.193 66.1078 685.457 Q64.1865 683.72 61.0847 683.72 Q58.8856 683.72 56.4319 684.484 Q54.0014 685.248 51.2236 686.799 L51.2236 682.077 Q54.0477 680.943 56.5014 680.364 Q58.955 679.785 60.9921 679.785 Q66.3624 679.785 69.5568 682.47 Q72.7513 685.156 72.7513 689.646 Q72.7513 691.776 71.9411 693.697 Q71.1541 695.595 69.0476 698.188 Q68.4689 698.859 65.367 702.077 Q62.2652 705.271 56.6171 711.035 Z" fill="#000000" fill-rule="nonzero" fill-opacity="1" /><path clip-path="url(#clip230)" d="M82.7512 709.091 L87.6354 709.091 L87.6354 714.97 L82.7512 714.97 L82.7512 709.091 Z" fill="#000000" fill-rule="nonzero" fill-opacity="1" /><path clip-path="url(#clip230)" d="M107.821 683.489 Q104.209 683.489 102.381 687.054 Q100.575 690.595 100.575 697.725 Q100.575 704.831 102.381 708.396 Q104.209 711.938 107.821 711.938 Q111.455 711.938 113.26 708.396 Q115.089 704.831 115.089 697.725 Q115.089 690.595 113.26 687.054 Q111.455 683.489 107.821 683.489 M107.821 679.785 Q113.631 679.785 116.686 684.392 Q119.765 688.975 119.765 697.725 Q119.765 706.452 116.686 711.058 Q113.631 715.642 107.821 715.642 Q102.01 715.642 98.9317 711.058 Q95.8761 706.452 95.8761 697.725 Q95.8761 688.975 98.9317 684.392 Q102.01 679.785 107.821 679.785 Z" fill="#000000" fill-rule="nonzero" fill-opacity="1" /><path clip-path="url(#clip230)" d="M57.6125 478.606 L73.9318 478.606 L73.9318 482.541 L51.9875 482.541 L51.9875 478.606 Q54.6495 475.852 59.2328 471.222 Q63.8393 466.569 65.0198 465.227 Q67.2652 462.704 68.1448 460.967 Q69.0476 459.208 69.0476 457.518 Q69.0476 454.764 67.1032 453.028 Q65.1819 451.292 62.08 451.292 Q59.881 451.292 57.4273 452.055 Q54.9967 452.819 52.219 454.37 L52.219 449.648 Q55.043 448.514 57.4967 447.935 Q59.9504 447.356 61.9874 447.356 Q67.3578 447.356 70.5522 450.042 Q73.7466 452.727 73.7466 457.217 Q73.7466 459.347 72.9365 461.268 Q72.1494 463.167 70.0429 465.759 Q69.4642 466.43 66.3624 469.648 Q63.2606 472.842 57.6125 478.606 Z" fill="#000000" fill-rule="nonzero" fill-opacity="1" /><path clip-path="url(#clip230)" d="M83.7466 476.662 L88.6308 476.662 L88.6308 482.541 L83.7466 482.541 L83.7466 476.662 Z" fill="#000000" fill-rule="nonzero" fill-opacity="1" /><path clip-path="url(#clip230)" d="M98.8622 447.981 L117.219 447.981 L117.219 451.917 L103.145 451.917 L103.145 460.389 Q104.163 460.042 105.182 459.88 Q106.2 459.694 107.219 459.694 Q113.006 459.694 116.385 462.866 Q119.765 466.037 119.765 471.454 Q119.765 477.032 116.293 480.134 Q112.82 483.213 106.501 483.213 Q104.325 483.213 102.057 482.842 Q99.8113 482.472 97.4039 481.731 L97.4039 477.032 Q99.4872 478.166 101.709 478.722 Q103.932 479.278 106.408 479.278 Q110.413 479.278 112.751 477.171 Q115.089 475.065 115.089 471.454 Q115.089 467.842 112.751 465.736 Q110.413 463.629 106.408 463.629 Q104.534 463.629 102.659 464.046 Q100.807 464.463 98.8622 465.342 L98.8622 447.981 Z" fill="#000000" fill-rule="nonzero" fill-opacity="1" /><path clip-path="url(#clip230)" d="M66.7559 231.478 Q70.1124 232.196 71.9874 234.465 Q73.8855 236.733 73.8855 240.066 Q73.8855 245.182 70.367 247.983 Q66.8485 250.784 60.3671 250.784 Q58.1912 250.784 55.8764 250.344 Q53.5847 249.927 51.131 249.071 L51.131 244.557 Q53.0754 245.691 55.3903 246.27 Q57.7051 246.849 60.2282 246.849 Q64.6263 246.849 66.918 245.113 Q69.2328 243.377 69.2328 240.066 Q69.2328 237.011 67.08 235.298 Q64.9504 233.562 61.131 233.562 L57.1032 233.562 L57.1032 229.719 L61.3161 229.719 Q64.7652 229.719 66.5939 228.353 Q68.4226 226.965 68.4226 224.372 Q68.4226 221.71 66.5245 220.298 Q64.6495 218.863 61.131 218.863 Q59.2097 218.863 57.0106 219.279 Q54.8115 219.696 52.1727 220.576 L52.1727 216.409 Q54.8347 215.668 57.1495 215.298 Q59.4875 214.928 61.5476 214.928 Q66.8717 214.928 69.9735 217.358 Q73.0753 219.766 73.0753 223.886 Q73.0753 226.756 71.4318 228.747 Q69.7883 230.715 66.7559 231.478 Z" fill="#000000" fill-rule="nonzero" fill-opacity="1" /><path clip-path="url(#clip230)" d="M82.7512 244.233 L87.6354 244.233 L87.6354 250.113 L82.7512 250.113 L82.7512 244.233 Z" fill="#000000" fill-rule="nonzero" fill-opacity="1" /><path clip-path="url(#clip230)" d="M107.821 218.631 Q104.209 218.631 102.381 222.196 Q100.575 225.738 100.575 232.867 Q100.575 239.974 102.381 243.539 Q104.209 247.08 107.821 247.08 Q111.455 247.08 113.26 243.539 Q115.089 239.974 115.089 232.867 Q115.089 225.738 113.26 222.196 Q111.455 218.631 107.821 218.631 M107.821 214.928 Q113.631 214.928 116.686 219.534 Q119.765 224.117 119.765 232.867 Q119.765 241.594 116.686 246.201 Q113.631 250.784 107.821 250.784 Q102.01 250.784 98.9317 246.201 Q95.8761 241.594 95.8761 232.867 Q95.8761 224.117 98.9317 219.534 Q102.01 214.928 107.821 214.928 Z" fill="#000000" fill-rule="nonzero" fill-opacity="1" /><path clip-path="url(#clip231)" d="M217.944 1394.98 L425.207 1445.72 L632.47 1429.47 L839.734 1381.99 L1047 1305.51 L1254.26 1289.49 L1461.52 1372.13 L1668.79 1357.22 L1876.05 1267.23 L2083.31 1268.52 L2290.58 1300.84 L2290.58 130.048 L2083.31 87.9763 L1876.05 342.271 L1668.79 649.062 L1461.52 804.445 L1254.26 1060.37 L1047 1128.69 L839.734 1181.72 L632.47 1271.94 L425.207 1275.27 L217.944 1394.98  Z" fill="#009af9" fill-rule="evenodd" fill-opacity="0.2"/>
<polyline clip-path="url(#clip231)" style="stroke:#009af9; stroke-linecap:round; stroke-linejoin:round; stroke-width:12; stroke-opacity:1; fill:none" points="217.944,1394.98 425.207,1384.46 632.47,1326.79 839.734,1279.94 1047,1216.33 1254.26,1191.29 1461.52,1151.1 1668.79,1088.73 1876.05,994.504 2083.31,1029.94 2290.58,1063.71 "/>
</svg>
