<?xml version="1.0" encoding="utf-8"?>
<svg xmlns="http://www.w3.org/2000/svg" xmlns:xlink="http://www.w3.org/1999/xlink" width="600" height="400" viewBox="0 0 2400 1600">
<defs>
  <clipPath id="clip290">
    <rect x="0" y="0" width="2400" height="1600"/>
  </clipPath>
</defs>
<path clip-path="url(#clip290)" d="M0 1600 L2400 1600 L2400 0 L0 0  Z" fill="#ffffff" fill-rule="evenodd" fill-opacity="1"/>
<defs>
  <clipPath id="clip291">
    <rect x="156" y="47" width="2197" height="1440"/>
  </clipPath>
</defs>
<path clip-path="url(#clip290)" d="M156.274 1486.45 L2352.76 1486.45 L2352.76 47.2441 L156.274 47.2441  Z" fill="#ffffff" fill-rule="evenodd" fill-opacity="1"/>
<polyline clip-path="url(#clip291)" style="stroke:#000000; stroke-linecap:round; stroke-linejoin:round; stroke-width:2; stroke-opacity:0.1; fill:none" points="218.439,1486.45 218.439,47.2441 "/>
<polyline clip-path="url(#clip291)" style="stroke:#000000; stroke-linecap:round; stroke-linejoin:round; stroke-width:2; stroke-opacity:0.1; fill:none" points="736.477,1486.45 736.477,47.2441 "/>
<polyline clip-path="url(#clip291)" style="stroke:#000000; stroke-linecap:round; stroke-linejoin:round; stroke-width:2; stroke-opacity:0.1; fill:none" points="1254.52,1486.45 1254.52,47.2441 "/>
<polyline clip-path="url(#clip291)" style="stroke:#000000; stroke-linecap:round; stroke-linejoin:round; stroke-width:2; stroke-opacity:0.1; fill:none" points="1772.55,1486.45 1772.55,47.2441 "/>
<polyline clip-path="url(#clip291)" style="stroke:#000000; stroke-linecap:round; stroke-linejoin:round; stroke-width:2; stroke-opacity:0.1; fill:none" points="2290.59,1486.45 2290.59,47.2441 "/>
<polyline clip-path="url(#clip291)" style="stroke:#000000; stroke-linecap:round; stroke-linejoin:round; stroke-width:2; stroke-opacity:0.1; fill:none" points="156.274,1212.76 2352.76,1212.76 "/>
<polyline clip-path="url(#clip291)" style="stroke:#000000; stroke-linecap:round; stroke-linejoin:round; stroke-width:2; stroke-opacity:0.1; fill:none" points="156.274,917.343 2352.76,917.343 "/>
<polyline clip-path="url(#clip291)" style="stroke:#000000; stroke-linecap:round; stroke-linejoin:round; stroke-width:2; stroke-opacity:0.1; fill:none" points="156.274,621.93 2352.76,621.93 "/>
<polyline clip-path="url(#clip291)" style="stroke:#000000; stroke-linecap:round; stroke-linejoin:round; stroke-width:2; stroke-opacity:0.1; fill:none" points="156.274,326.517 2352.76,326.517 "/>
<polyline clip-path="url(#clip290)" style="stroke:#000000; stroke-linecap:round; stroke-linejoin:round; stroke-width:4; stroke-opacity:1; fill:none" points="156.274,1486.45 2352.76,1486.45 "/>
<polyline clip-path="url(#clip290)" style="stroke:#000000; stroke-linecap:round; stroke-linejoin:round; stroke-width:4; stroke-opacity:1; fill:none" points="218.439,1486.45 218.439,1467.55 "/>
<polyline clip-path="url(#clip290)" style="stroke:#000000; stroke-linecap:round; stroke-linejoin:round; stroke-width:4; stroke-opacity:1; fill:none" points="736.477,1486.45 736.477,1467.55 "/>
<polyline clip-path="url(#clip290)" style="stroke:#000000; stroke-linecap:round; stroke-linejoin:round; stroke-width:4; stroke-opacity:1; fill:none" points="1254.52,1486.45 1254.52,1467.55 "/>
<polyline clip-path="url(#clip290)" style="stroke:#000000; stroke-linecap:round; stroke-linejoin:round; stroke-width:4; stroke-opacity:1; fill:none" points="1772.55,1486.45 1772.55,1467.55 "/>
<polyline clip-path="url(#clip290)" style="stroke:#000000; stroke-linecap:round; stroke-linejoin:round; stroke-width:4; stroke-opacity:1; fill:none" points="2290.59,1486.45 2290.59,1467.55 "/>
<path clip-path="url(#clip290)" d="M180.742 1517.37 Q177.131 1517.37 175.302 1520.93 Q173.497 1524.47 173.497 1531.6 Q173.497 1538.71 175.302 1542.27 Q177.131 1545.82 180.742 1545.82 Q184.376 1545.82 186.182 1542.27 Q188.011 1538.71 188.011 1531.6 Q188.011 1524.47 186.182 1520.93 Q184.376 1517.37 180.742 1517.37 M180.742 1513.66 Q186.552 1513.66 189.608 1518.27 Q192.687 1522.85 192.687 1531.6 Q192.687 1540.33 189.608 1544.94 Q186.552 1549.52 180.742 1549.52 Q174.932 1549.52 171.853 1544.94 Q168.798 1540.33 168.798 1531.6 Q168.798 1522.85 171.853 1518.27 Q174.932 1513.66 180.742 1513.66 Z" fill="#000000" fill-rule="nonzero" fill-opacity="1" /><path clip-path="url(#clip290)" d="M200.904 1542.97 L205.788 1542.97 L205.788 1548.85 L200.904 1548.85 L200.904 1542.97 Z" fill="#000000" fill-rule="nonzero" fill-opacity="1" /><path clip-path="url(#clip290)" d="M225.973 1517.37 Q222.362 1517.37 220.534 1520.93 Q218.728 1524.47 218.728 1531.6 Q218.728 1538.71 220.534 1542.27 Q222.362 1545.82 225.973 1545.82 Q229.608 1545.82 231.413 1542.27 Q233.242 1538.71 233.242 1531.6 Q233.242 1524.47 231.413 1520.93 Q229.608 1517.37 225.973 1517.37 M225.973 1513.66 Q231.784 1513.66 234.839 1518.27 Q237.918 1522.85 237.918 1531.6 Q237.918 1540.33 234.839 1544.94 Q231.784 1549.52 225.973 1549.52 Q220.163 1549.52 217.085 1544.94 Q214.029 1540.33 214.029 1531.6 Q214.029 1522.85 217.085 1518.27 Q220.163 1513.66 225.973 1513.66 Z" fill="#000000" fill-rule="nonzero" fill-opacity="1" /><path clip-path="url(#clip290)" d="M256.135 1517.37 Q252.524 1517.37 250.696 1520.93 Q248.89 1524.47 248.89 1531.6 Q248.89 1538.71 250.696 1542.27 Q252.524 1545.82 256.135 1545.82 Q259.77 1545.82 261.575 1542.27 Q263.404 1538.71 263.404 1531.6 Q263.404 1524.47 261.575 1520.93 Q259.77 1517.37 256.135 1517.37 M256.135 1513.66 Q261.945 1513.66 265.001 1518.27 Q268.08 1522.85 268.08 1531.6 Q268.08 1540.33 265.001 1544.94 Q261.945 1549.52 256.135 1549.52 Q250.325 1549.52 247.246 1544.94 Q244.191 1540.33 244.191 1531.6 Q244.191 1522.85 247.246 1518.27 Q250.325 1513.66 256.135 1513.66 Z" fill="#000000" fill-rule="nonzero" fill-opacity="1" /><path clip-path="url(#clip290)" d="M699.278 1517.37 Q695.667 1517.37 693.838 1520.93 Q692.033 1524.47 692.033 1531.6 Q692.033 1538.71 693.838 1542.27 Q695.667 1545.82 699.278 1545.82 Q702.912 1545.82 704.718 1542.27 Q706.546 1538.71 706.546 1531.6 Q706.546 1524.47 704.718 1520.93 Q702.912 1517.37 699.278 1517.37 M699.278 1513.66 Q705.088 1513.66 708.144 1518.27 Q711.222 1522.85 711.222 1531.6 Q711.222 1540.33 708.144 1544.94 Q705.088 1549.52 699.278 1549.52 Q693.468 1549.52 690.389 1544.94 Q687.334 1540.33 687.334 1531.6 Q687.334 1522.85 690.389 1518.27 Q693.468 1513.66 699.278 1513.66 Z" fill="#000000" fill-rule="nonzero" fill-opacity="1" /><path clip-path="url(#clip290)" d="M719.44 1542.97 L724.324 1542.97 L724.324 1548.85 L719.44 1548.85 L719.44 1542.97 Z" fill="#000000" fill-rule="nonzero" fill-opacity="1" /><path clip-path="url(#clip290)" d="M738.537 1544.91 L754.856 1544.91 L754.856 1548.85 L732.912 1548.85 L732.912 1544.91 Q735.574 1542.16 740.157 1537.53 Q744.764 1532.88 745.944 1531.53 Q748.19 1529.01 749.069 1527.27 Q749.972 1525.51 749.972 1523.82 Q749.972 1521.07 748.028 1519.33 Q746.106 1517.6 743.005 1517.6 Q740.806 1517.6 738.352 1518.36 Q735.921 1519.13 733.144 1520.68 L733.144 1515.95 Q735.968 1514.82 738.421 1514.24 Q740.875 1513.66 742.912 1513.66 Q748.282 1513.66 751.477 1516.35 Q754.671 1519.03 754.671 1523.52 Q754.671 1525.65 753.861 1527.57 Q753.074 1529.47 750.968 1532.07 Q750.389 1532.74 747.287 1535.95 Q744.185 1539.15 738.537 1544.91 Z" fill="#000000" fill-rule="nonzero" fill-opacity="1" /><path clip-path="url(#clip290)" d="M764.717 1514.29 L783.074 1514.29 L783.074 1518.22 L769 1518.22 L769 1526.7 Q770.018 1526.35 771.037 1526.19 Q772.055 1526 773.074 1526 Q778.861 1526 782.241 1529.17 Q785.62 1532.34 785.62 1537.76 Q785.62 1543.34 782.148 1546.44 Q778.676 1549.52 772.356 1549.52 Q770.18 1549.52 767.912 1549.15 Q765.667 1548.78 763.259 1548.04 L763.259 1543.34 Q765.342 1544.47 767.565 1545.03 Q769.787 1545.58 772.264 1545.58 Q776.268 1545.58 778.606 1543.48 Q780.944 1541.37 780.944 1537.76 Q780.944 1534.15 778.606 1532.04 Q776.268 1529.94 772.264 1529.94 Q770.389 1529.94 768.514 1530.35 Q766.662 1530.77 764.717 1531.65 L764.717 1514.29 Z" fill="#000000" fill-rule="nonzero" fill-opacity="1" /><path clip-path="url(#clip290)" d="M1216.82 1517.37 Q1213.21 1517.37 1211.38 1520.93 Q1209.57 1524.47 1209.57 1531.6 Q1209.57 1538.71 1211.38 1542.27 Q1213.21 1545.82 1216.82 1545.82 Q1220.45 1545.82 1222.26 1542.27 Q1224.09 1538.71 1224.09 1531.6 Q1224.09 1524.47 1222.26 1520.93 Q1220.45 1517.37 1216.82 1517.37 M1216.82 1513.66 Q1222.63 1513.66 1225.68 1518.27 Q1228.76 1522.85 1228.76 1531.6 Q1228.76 1540.33 1225.68 1544.94 Q1222.63 1549.52 1216.82 1549.52 Q1211.01 1549.52 1207.93 1544.94 Q1204.87 1540.33 1204.87 1531.6 Q1204.87 1522.85 1207.93 1518.27 Q1211.01 1513.66 1216.82 1513.66 Z" fill="#000000" fill-rule="nonzero" fill-opacity="1" /><path clip-path="url(#clip290)" d="M1236.98 1542.97 L1241.86 1542.97 L1241.86 1548.85 L1236.98 1548.85 L1236.98 1542.97 Z" fill="#000000" fill-rule="nonzero" fill-opacity="1" /><path clip-path="url(#clip290)" d="M1252.1 1514.29 L1270.45 1514.29 L1270.45 1518.22 L1256.38 1518.22 L1256.38 1526.7 Q1257.4 1526.35 1258.42 1526.19 Q1259.43 1526 1260.45 1526 Q1266.24 1526 1269.62 1529.17 Q1273 1532.34 1273 1537.76 Q1273 1543.34 1269.53 1546.44 Q1266.05 1549.52 1259.73 1549.52 Q1257.56 1549.52 1255.29 1549.15 Q1253.05 1548.78 1250.64 1548.04 L1250.64 1543.34 Q1252.72 1544.47 1254.94 1545.03 Q1257.17 1545.58 1259.64 1545.58 Q1263.65 1545.58 1265.98 1543.48 Q1268.32 1541.37 1268.32 1537.76 Q1268.32 1534.15 1265.98 1532.04 Q1263.65 1529.94 1259.64 1529.94 Q1257.77 1529.94 1255.89 1530.35 Q1254.04 1530.77 1252.1 1531.65 L1252.1 1514.29 Z" fill="#000000" fill-rule="nonzero" fill-opacity="1" /><path clip-path="url(#clip290)" d="M1292.21 1517.37 Q1288.6 1517.37 1286.77 1520.93 Q1284.97 1524.47 1284.97 1531.6 Q1284.97 1538.71 1286.77 1542.27 Q1288.6 1545.82 1292.21 1545.82 Q1295.85 1545.82 1297.65 1542.27 Q1299.48 1538.71 1299.48 1531.6 Q1299.48 1524.47 1297.65 1520.93 Q1295.85 1517.37 1292.21 1517.37 M1292.21 1513.66 Q1298.02 1513.66 1301.08 1518.27 Q1304.16 1522.85 1304.16 1531.6 Q1304.16 1540.33 1301.08 1544.94 Q1298.02 1549.52 1292.21 1549.52 Q1286.4 1549.52 1283.32 1544.94 Q1280.27 1540.33 1280.27 1531.6 Q1280.27 1522.85 1283.32 1518.27 Q1286.4 1513.66 1292.21 1513.66 Z" fill="#000000" fill-rule="nonzero" fill-opacity="1" /><path clip-path="url(#clip290)" d="M1735.35 1517.37 Q1731.74 1517.37 1729.91 1520.93 Q1728.11 1524.47 1728.11 1531.6 Q1728.11 1538.71 1729.91 1542.27 Q1731.74 1545.82 1735.35 1545.82 Q1738.99 1545.82 1740.79 1542.27 Q1742.62 1538.71 1742.62 1531.6 Q1742.62 1524.47 1740.79 1520.93 Q1738.99 1517.37 1735.35 1517.37 M1735.35 1513.66 Q1741.16 1513.66 1744.22 1518.27 Q1747.3 1522.85 1747.3 1531.6 Q1747.3 1540.33 1744.22 1544.94 Q1741.16 1549.52 1735.35 1549.52 Q1729.54 1549.52 1726.47 1544.94 Q1723.41 1540.33 1723.41 1531.6 Q1723.41 1522.85 1726.47 1518.27 Q1729.54 1513.66 1735.35 1513.66 Z" fill="#000000" fill-rule="nonzero" fill-opacity="1" /><path clip-path="url(#clip290)" d="M1755.52 1542.97 L1760.4 1542.97 L1760.4 1548.85 L1755.52 1548.85 L1755.52 1542.97 Z" fill="#000000" fill-rule="nonzero" fill-opacity="1" /><path clip-path="url(#clip290)" d="M1769.41 1514.29 L1791.63 1514.29 L1791.63 1516.28 L1779.08 1548.85 L1774.2 1548.85 L1786 1518.22 L1769.41 1518.22 L1769.41 1514.29 Z" fill="#000000" fill-rule="nonzero" fill-opacity="1" /><path clip-path="url(#clip290)" d="M1800.79 1514.29 L1819.15 1514.29 L1819.15 1518.22 L1805.08 1518.22 L1805.08 1526.7 Q1806.09 1526.35 1807.11 1526.19 Q1808.13 1526 1809.15 1526 Q1814.94 1526 1818.32 1529.17 Q1821.7 1532.34 1821.7 1537.76 Q1821.7 1543.34 1818.22 1546.44 Q1814.75 1549.52 1808.43 1549.52 Q1806.26 1549.52 1803.99 1549.15 Q1801.74 1548.78 1799.34 1548.04 L1799.34 1543.34 Q1801.42 1544.47 1803.64 1545.03 Q1805.86 1545.58 1808.34 1545.58 Q1812.34 1545.58 1814.68 1543.48 Q1817.02 1541.37 1817.02 1537.76 Q1817.02 1534.15 1814.68 1532.04 Q1812.34 1529.94 1808.34 1529.94 Q1806.47 1529.94 1804.59 1530.35 Q1802.74 1530.77 1800.79 1531.65 L1800.79 1514.29 Z" fill="#000000" fill-rule="nonzero" fill-opacity="1" /><path clip-path="url(#clip290)" d="M2242.66 1544.91 L2250.3 1544.91 L2250.3 1518.55 L2241.99 1520.21 L2241.99 1515.95 L2250.26 1514.29 L2254.93 1514.29 L2254.93 1544.91 L2262.57 1544.91 L2262.57 1548.85 L2242.66 1548.85 L2242.66 1544.91 Z" fill="#000000" fill-rule="nonzero" fill-opacity="1" /><path clip-path="url(#clip290)" d="M2272.02 1542.97 L2276.9 1542.97 L2276.9 1548.85 L2272.02 1548.85 L2272.02 1542.97 Z" fill="#000000" fill-rule="nonzero" fill-opacity="1" /><path clip-path="url(#clip290)" d="M2297.08 1517.37 Q2293.47 1517.37 2291.64 1520.93 Q2289.84 1524.47 2289.84 1531.6 Q2289.84 1538.71 2291.64 1542.27 Q2293.47 1545.82 2297.08 1545.82 Q2300.72 1545.82 2302.52 1542.27 Q2304.35 1538.71 2304.35 1531.6 Q2304.35 1524.47 2302.52 1520.93 Q2300.72 1517.37 2297.08 1517.37 M2297.08 1513.66 Q2302.89 1513.66 2305.95 1518.27 Q2309.03 1522.85 2309.03 1531.6 Q2309.03 1540.33 2305.95 1544.94 Q2302.89 1549.52 2297.08 1549.52 Q2291.27 1549.52 2288.2 1544.94 Q2285.14 1540.33 2285.14 1531.6 Q2285.14 1522.85 2288.2 1518.27 Q2291.27 1513.66 2297.08 1513.66 Z" fill="#000000" fill-rule="nonzero" fill-opacity="1" /><path clip-path="url(#clip290)" d="M2327.25 1517.37 Q2323.64 1517.37 2321.81 1520.93 Q2320 1524.47 2320 1531.6 Q2320 1538.71 2321.81 1542.27 Q2323.64 1545.82 2327.25 1545.82 Q2330.88 1545.82 2332.69 1542.27 Q2334.51 1538.71 2334.51 1531.6 Q2334.51 1524.47 2332.69 1520.93 Q2330.88 1517.37 2327.25 1517.37 M2327.25 1513.66 Q2333.06 1513.66 2336.11 1518.27 Q2339.19 1522.85 2339.19 1531.6 Q2339.19 1540.33 2336.11 1544.94 Q2333.06 1549.52 2327.25 1549.52 Q2321.44 1549.52 2318.36 1544.94 Q2315.3 1540.33 2315.3 1531.6 Q2315.3 1522.85 2318.36 1518.27 Q2321.44 1513.66 2327.25 1513.66 Z" fill="#000000" fill-rule="nonzero" fill-opacity="1" /><polyline clip-path="url(#clip290)" style="stroke:#000000; stroke-linecap:round; stroke-linejoin:round; stroke-width:4; stroke-opacity:1; fill:none" points="156.274,1486.45 156.274,47.2441 "/>
<polyline clip-path="url(#clip290)" style="stroke:#000000; stroke-linecap:round; stroke-linejoin:round; stroke-width:4; stroke-opacity:1; fill:none" points="156.274,1212.76 175.172,1212.76 "/>
<polyline clip-path="url(#clip290)" style="stroke:#000000; stroke-linecap:round; stroke-linejoin:round; stroke-width:4; stroke-opacity:1; fill:none" points="156.274,917.343 175.172,917.343 "/>
<polyline clip-path="url(#clip290)" style="stroke:#000000; stroke-linecap:round; stroke-linejoin:round; stroke-width:4; stroke-opacity:1; fill:none" points="156.274,621.93 175.172,621.93 "/>
<polyline clip-path="url(#clip290)" style="stroke:#000000; stroke-linecap:round; stroke-linejoin:round; stroke-width:4; stroke-opacity:1; fill:none" points="156.274,326.517 175.172,326.517 "/>
<path clip-path="url(#clip290)" d="M62.9365 1198.56 Q59.3254 1198.56 57.4967 1202.12 Q55.6912 1205.66 55.6912 1212.79 Q55.6912 1219.9 57.4967 1223.46 Q59.3254 1227 62.9365 1227 Q66.5707 1227 68.3763 1223.46 Q70.205 1219.9 70.205 1212.79 Q70.205 1205.66 68.3763 1202.12 Q66.5707 1198.56 62.9365 1198.56 M62.9365 1194.85 Q68.7467 1194.85 71.8022 1199.46 Q74.8809 1204.04 74.8809 1212.79 Q74.8809 1221.52 71.8022 1226.12 Q68.7467 1230.71 62.9365 1230.71 Q57.1264 1230.71 54.0477 1226.12 Q50.9921 1221.52 50.9921 1212.79 Q50.9921 1204.04 54.0477 1199.46 Q57.1264 1194.85 62.9365 1194.85 Z" fill="#000000" fill-rule="nonzero" fill-opacity="1" /><path clip-path="url(#clip290)" d="M83.0984 1224.16 L87.9827 1224.16 L87.9827 1230.04 L83.0984 1230.04 L83.0984 1224.16 Z" fill="#000000" fill-rule="nonzero" fill-opacity="1" /><path clip-path="url(#clip290)" d="M108.746 1210.89 Q105.598 1210.89 103.746 1213.05 Q101.918 1215.2 101.918 1218.95 Q101.918 1222.68 103.746 1224.85 Q105.598 1227 108.746 1227 Q111.895 1227 113.723 1224.85 Q115.575 1222.68 115.575 1218.95 Q115.575 1215.2 113.723 1213.05 Q111.895 1210.89 108.746 1210.89 M118.029 1196.24 L118.029 1200.5 Q116.27 1199.67 114.464 1199.23 Q112.682 1198.79 110.922 1198.79 Q106.293 1198.79 103.839 1201.91 Q101.409 1205.04 101.061 1211.36 Q102.427 1209.34 104.487 1208.28 Q106.547 1207.19 109.024 1207.19 Q114.233 1207.19 117.242 1210.36 Q120.274 1213.51 120.274 1218.95 Q120.274 1224.27 117.126 1227.49 Q113.978 1230.71 108.746 1230.71 Q102.751 1230.71 99.5798 1226.12 Q96.4085 1221.52 96.4085 1212.79 Q96.4085 1204.6 100.297 1199.74 Q104.186 1194.85 110.737 1194.85 Q112.496 1194.85 114.279 1195.2 Q116.084 1195.55 118.029 1196.24 Z" fill="#000000" fill-rule="nonzero" fill-opacity="1" /><path clip-path="url(#clip290)" d="M63.1911 903.142 Q59.58 903.142 57.7513 906.707 Q55.9458 910.249 55.9458 917.378 Q55.9458 924.485 57.7513 928.049 Q59.58 931.591 63.1911 931.591 Q66.8254 931.591 68.6309 928.049 Q70.4596 924.485 70.4596 917.378 Q70.4596 910.249 68.6309 906.707 Q66.8254 903.142 63.1911 903.142 M63.1911 899.438 Q69.0013 899.438 72.0568 904.045 Q75.1355 908.628 75.1355 917.378 Q75.1355 926.105 72.0568 930.711 Q69.0013 935.295 63.1911 935.295 Q57.381 935.295 54.3023 930.711 Q51.2468 926.105 51.2468 917.378 Q51.2468 908.628 54.3023 904.045 Q57.381 899.438 63.1911 899.438 Z" fill="#000000" fill-rule="nonzero" fill-opacity="1" /><path clip-path="url(#clip290)" d="M83.3531 928.744 L88.2373 928.744 L88.2373 934.623 L83.3531 934.623 L83.3531 928.744 Z" fill="#000000" fill-rule="nonzero" fill-opacity="1" /><path clip-path="url(#clip290)" d="M108.422 918.211 Q105.089 918.211 103.168 919.994 Q101.27 921.776 101.27 924.901 Q101.27 928.026 103.168 929.809 Q105.089 931.591 108.422 931.591 Q111.756 931.591 113.677 929.809 Q115.598 928.003 115.598 924.901 Q115.598 921.776 113.677 919.994 Q111.779 918.211 108.422 918.211 M103.746 916.221 Q100.737 915.48 99.0474 913.42 Q97.3808 911.36 97.3808 908.397 Q97.3808 904.253 100.321 901.846 Q103.284 899.438 108.422 899.438 Q113.584 899.438 116.524 901.846 Q119.464 904.253 119.464 908.397 Q119.464 911.36 117.774 913.42 Q116.108 915.48 113.121 916.221 Q116.501 917.008 118.376 919.299 Q120.274 921.591 120.274 924.901 Q120.274 929.924 117.195 932.609 Q114.14 935.295 108.422 935.295 Q102.705 935.295 99.6261 932.609 Q96.5706 929.924 96.5706 924.901 Q96.5706 921.591 98.4687 919.299 Q100.367 917.008 103.746 916.221 M102.034 908.836 Q102.034 911.522 103.7 913.026 Q105.39 914.531 108.422 914.531 Q111.432 914.531 113.121 913.026 Q114.834 911.522 114.834 908.836 Q114.834 906.151 113.121 904.647 Q111.432 903.142 108.422 903.142 Q105.39 903.142 103.7 904.647 Q102.034 906.151 102.034 908.836 Z" fill="#000000" fill-rule="nonzero" fill-opacity="1" /><path clip-path="url(#clip290)" d="M53.9088 635.275 L61.5476 635.275 L61.5476 608.909 L53.2375 610.576 L53.2375 606.317 L61.5013 604.65 L66.1772 604.65 L66.1772 635.275 L73.8161 635.275 L73.8161 639.21 L53.9088 639.21 L53.9088 635.275 Z" fill="#000000" fill-rule="nonzero" fill-opacity="1" /><path clip-path="url(#clip290)" d="M83.2605 633.331 L88.1447 633.331 L88.1447 639.21 L83.2605 639.21 L83.2605 633.331 Z" fill="#000000" fill-rule="nonzero" fill-opacity="1" /><path clip-path="url(#clip290)" d="M108.33 607.729 Q104.719 607.729 102.89 611.294 Q101.084 614.835 101.084 621.965 Q101.084 629.071 102.89 632.636 Q104.719 636.178 108.33 636.178 Q111.964 636.178 113.77 632.636 Q115.598 629.071 115.598 621.965 Q115.598 614.835 113.77 611.294 Q111.964 607.729 108.33 607.729 M108.33 604.025 Q114.14 604.025 117.195 608.632 Q120.274 613.215 120.274 621.965 Q120.274 630.692 117.195 635.298 Q114.14 639.881 108.33 639.881 Q102.52 639.881 99.4409 635.298 Q96.3854 630.692 96.3854 621.965 Q96.3854 613.215 99.4409 608.632 Q102.52 604.025 108.33 604.025 Z" fill="#000000" fill-rule="nonzero" fill-opacity="1" /><path clip-path="url(#clip290)" d="M55.506 339.862 L63.1448 339.862 L63.1448 313.496 L54.8347 315.163 L54.8347 310.904 L63.0985 309.237 L67.7744 309.237 L67.7744 339.862 L75.4133 339.862 L75.4133 343.797 L55.506 343.797 L55.506 339.862 Z" fill="#000000" fill-rule="nonzero" fill-opacity="1" /><path clip-path="url(#clip290)" d="M84.8577 337.917 L89.7419 337.917 L89.7419 343.797 L84.8577 343.797 L84.8577 337.917 Z" fill="#000000" fill-rule="nonzero" fill-opacity="1" /><path clip-path="url(#clip290)" d="M103.955 339.862 L120.274 339.862 L120.274 343.797 L98.3298 343.797 L98.3298 339.862 Q100.992 337.107 105.575 332.478 Q110.182 327.825 111.362 326.482 Q113.608 323.959 114.487 322.223 Q115.39 320.464 115.39 318.774 Q115.39 316.019 113.445 314.283 Q111.524 312.547 108.422 312.547 Q106.223 312.547 103.77 313.311 Q101.339 314.075 98.5613 315.626 L98.5613 310.904 Q101.385 309.769 103.839 309.191 Q106.293 308.612 108.33 308.612 Q113.7 308.612 116.895 311.297 Q120.089 313.982 120.089 318.473 Q120.089 320.603 119.279 322.524 Q118.492 324.422 116.385 327.015 Q115.807 327.686 112.705 330.904 Q109.603 334.098 103.955 339.862 Z" fill="#000000" fill-rule="nonzero" fill-opacity="1" /><polyline clip-path="url(#clip291)" style="stroke:#009af9; stroke-linecap:round; stroke-linejoin:round; stroke-width:12; stroke-opacity:1; fill:none" points="218.439,1360.46 425.654,1390.05 632.869,1353.93 840.085,1294.95 1047.3,1221.91 1254.52,1319.73 1461.73,1278.65 1668.95,1248.3 1876.16,1222.52 2083.38,1231.09 2290.59,1340.36 "/>
<polyline clip-path="url(#clip291)" style="stroke:#e26f46; stroke-linecap:round; stroke-linejoin:round; stroke-width:12; stroke-opacity:1; fill:none" points="218.439,1360.46 425.654,1303.44 632.869,1338.06 840.085,1361.84 1047.3,1203.97 1254.52,1108.48 1461.73,1051.77 1668.95,1195.63 1876.16,1106.38 2083.38,842.358 2290.59,603.918 "/>
<polyline clip-path="url(#clip291)" style="stroke:#3da44d; stroke-linecap:round; stroke-linejoin:round; stroke-width:12; stroke-opacity:1; fill:none" points="218.439,1360.46 425.654,1327.04 632.869,1143.81 840.085,994.948 1047.3,792.833 1254.52,713.265 1461.73,585.556 1668.95,387.377 1876.16,87.9763 2083.38,200.56 2290.59,307.879 "/>
<polyline clip-path="url(#clip291)" style="stroke:#c271d2; stroke-linecap:round; stroke-linejoin:round; stroke-width:12; stroke-opacity:1; fill:none" points="218.439,1360.46 425.654,1251.96 632.869,1253.22 840.085,1329.8 1047.3,1312.76 1254.52,1345.64 1461.73,1014.58 1668.95,1047.39 1876.16,941.479 2083.38,672.579 2290.59,287.066 "/>
<polyline clip-path="url(#clip291)" style="stroke:#ac8d18; stroke-linecap:round; stroke-linejoin:round; stroke-width:12; stroke-opacity:1; fill:none" points="218.439,1360.46 425.654,1445.72 632.869,1310.28 840.085,1272.25 1047.3,1224.76 1254.52,1239.15 1461.73,1259.63 1668.95,1138.01 1876.16,1043.45 2083.38,1040.55 2290.59,1105.93 "/>
<polyline clip-path="url(#clip291)" style="stroke:#00a9ad; stroke-linecap:round; stroke-linejoin:round; stroke-width:12; stroke-opacity:1; fill:none" points="218.439,1360.46 425.654,1381.28 632.869,1247.86 840.085,1147.92 1047.3,1092.24 1254.52,1040.29 1461.73,1200.1 1668.95,1160.4 1876.16,1042.02 2083.38,907.121 2290.59,918.461 "/>
<polyline clip-path="url(#clip291)" style="stroke:#ed5d92; stroke-linecap:round; stroke-linejoin:round; stroke-width:12; stroke-opacity:1; fill:none" points="218.439,1360.46 425.654,1415.17 632.869,1351.91 840.085,1260.1 1047.3,1214.32 1254.52,1025.18 1461.73,1149.65 1668.95,1145.27 1876.16,1022.22 2083.38,912.011 2290.59,852.959 "/>
<polyline clip-path="url(#clip291)" style="stroke:#c68125; stroke-linecap:round; stroke-linejoin:round; stroke-width:12; stroke-opacity:1; fill:none" points="218.439,1360.46 425.654,1303.6 632.869,1169.98 840.085,1016.36 1047.3,864.942 1254.52,1027.68 1461.73,759.352 1668.95,765.568 1876.16,823.476 2083.38,751.73 2290.59,410.034 "/>
</svg>
