<?xml version="1.0" encoding="utf-8"?>
<svg xmlns="http://www.w3.org/2000/svg" xmlns:xlink="http://www.w3.org/1999/xlink" width="600" height="400" viewBox="0 0 2400 1600">
<defs>
  <clipPath id="clip260">
    <rect x="0" y="0" width="2400" height="1600"/>
  </clipPath>
</defs>
<path clip-path="url(#clip260)" d="M0 1600 L2400 1600 L2400 0 L0 0  Z" fill="#ffffff" fill-rule="evenodd" fill-opacity="1"/>
<defs>
  <clipPath id="clip261">
    <rect x="155" y="47" width="2198" height="1440"/>
  </clipPath>
</defs>
<path clip-path="url(#clip260)" d="M155.765 1486.45 L2352.76 1486.45 L2352.76 47.2441 L155.765 47.2441  Z" fill="#ffffff" fill-rule="evenodd" fill-opacity="1"/>
<polyline clip-path="url(#clip261)" style="stroke:#000000; stroke-linecap:round; stroke-linejoin:round; stroke-width:2; stroke-opacity:0.1; fill:none" points="217.944,1486.45 217.944,47.2441 "/>
<polyline clip-path="url(#clip261)" style="stroke:#000000; stroke-linecap:round; stroke-linejoin:round; stroke-width:2; stroke-opacity:0.1; fill:none" points="736.102,1486.45 736.102,47.2441 "/>
<polyline clip-path="url(#clip261)" style="stroke:#000000; stroke-linecap:round; stroke-linejoin:round; stroke-width:2; stroke-opacity:0.1; fill:none" points="1254.26,1486.45 1254.26,47.2441 "/>
<polyline clip-path="url(#clip261)" style="stroke:#000000; stroke-linecap:round; stroke-linejoin:round; stroke-width:2; stroke-opacity:0.1; fill:none" points="1772.42,1486.45 1772.42,47.2441 "/>
<polyline clip-path="url(#clip261)" style="stroke:#000000; stroke-linecap:round; stroke-linejoin:round; stroke-width:2; stroke-opacity:0.1; fill:none" points="2290.58,1486.45 2290.58,47.2441 "/>
<polyline clip-path="url(#clip261)" style="stroke:#000000; stroke-linecap:round; stroke-linejoin:round; stroke-width:2; stroke-opacity:0.1; fill:none" points="155.765,1303.16 2352.76,1303.16 "/>
<polyline clip-path="url(#clip261)" style="stroke:#000000; stroke-linecap:round; stroke-linejoin:round; stroke-width:2; stroke-opacity:0.1; fill:none" points="155.765,1087.06 2352.76,1087.06 "/>
<polyline clip-path="url(#clip261)" style="stroke:#000000; stroke-linecap:round; stroke-linejoin:round; stroke-width:2; stroke-opacity:0.1; fill:none" points="155.765,870.957 2352.76,870.957 "/>
<polyline clip-path="url(#clip261)" style="stroke:#000000; stroke-linecap:round; stroke-linejoin:round; stroke-width:2; stroke-opacity:0.1; fill:none" points="155.765,654.857 2352.76,654.857 "/>
<polyline clip-path="url(#clip261)" style="stroke:#000000; stroke-linecap:round; stroke-linejoin:round; stroke-width:2; stroke-opacity:0.1; fill:none" points="155.765,438.757 2352.76,438.757 "/>
<polyline clip-path="url(#clip261)" style="stroke:#000000; stroke-linecap:round; stroke-linejoin:round; stroke-width:2; stroke-opacity:0.1; fill:none" points="155.765,222.656 2352.76,222.656 "/>
<polyline clip-path="url(#clip260)" style="stroke:#000000; stroke-linecap:round; stroke-linejoin:round; stroke-width:4; stroke-opacity:1; fill:none" points="155.765,1486.45 2352.76,1486.45 "/>
<polyline clip-path="url(#clip260)" style="stroke:#000000; stroke-linecap:round; stroke-linejoin:round; stroke-width:4; stroke-opacity:1; fill:none" points="217.944,1486.45 217.944,1467.55 "/>
<polyline clip-path="url(#clip260)" style="stroke:#000000; stroke-linecap:round; stroke-linejoin:round; stroke-width:4; stroke-opacity:1; fill:none" points="736.102,1486.45 736.102,1467.55 "/>
<polyline clip-path="url(#clip260)" style="stroke:#000000; stroke-linecap:round; stroke-linejoin:round; stroke-width:4; stroke-opacity:1; fill:none" points="1254.26,1486.45 1254.26,1467.55 "/>
<polyline clip-path="url(#clip260)" style="stroke:#000000; stroke-linecap:round; stroke-linejoin:round; stroke-width:4; stroke-opacity:1; fill:none" points="1772.42,1486.45 1772.42,1467.55 "/>
<polyline clip-path="url(#clip260)" style="stroke:#000000; stroke-linecap:round; stroke-linejoin:round; stroke-width:4; stroke-opacity:1; fill:none" points="2290.58,1486.45 2290.58,1467.55 "/>
<path clip-path="url(#clip260)" d="M180.247 1517.37 Q176.636 1517.37 174.808 1520.93 Q173.002 1524.47 173.002 1531.6 Q173.002 1538.71 174.808 1542.27 Q176.636 1545.82 180.247 1545.82 Q183.882 1545.82 185.687 1542.27 Q187.516 1538.71 187.516 1531.6 Q187.516 1524.47 185.687 1520.93 Q183.882 1517.37 180.247 1517.37 M180.247 1513.66 Q186.057 1513.66 189.113 1518.27 Q192.192 1522.85 192.192 1531.6 Q192.192 1540.33 189.113 1544.94 Q186.057 1549.52 180.247 1549.52 Q174.437 1549.52 171.358 1544.94 Q168.303 1540.33 168.303 1531.6 Q168.303 1522.85 171.358 1518.27 Q174.437 1513.66 180.247 1513.66 Z" fill="#000000" fill-rule="nonzero" fill-opacity="1" /><path clip-path="url(#clip260)" d="M200.409 1542.97 L205.294 1542.97 L205.294 1548.85 L200.409 1548.85 L200.409 1542.97 Z" fill="#000000" fill-rule="nonzero" fill-opacity="1" /><path clip-path="url(#clip260)" d="M225.479 1517.37 Q221.867 1517.37 220.039 1520.93 Q218.233 1524.47 218.233 1531.6 Q218.233 1538.71 220.039 1542.27 Q221.867 1545.82 225.479 1545.82 Q229.113 1545.82 230.918 1542.27 Q232.747 1538.71 232.747 1531.6 Q232.747 1524.47 230.918 1520.93 Q229.113 1517.37 225.479 1517.37 M225.479 1513.66 Q231.289 1513.66 234.344 1518.27 Q237.423 1522.85 237.423 1531.6 Q237.423 1540.33 234.344 1544.94 Q231.289 1549.52 225.479 1549.52 Q219.668 1549.52 216.59 1544.94 Q213.534 1540.33 213.534 1531.6 Q213.534 1522.85 216.59 1518.27 Q219.668 1513.66 225.479 1513.66 Z" fill="#000000" fill-rule="nonzero" fill-opacity="1" /><path clip-path="url(#clip260)" d="M255.64 1517.37 Q252.029 1517.37 250.201 1520.93 Q248.395 1524.47 248.395 1531.6 Q248.395 1538.71 250.201 1542.27 Q252.029 1545.82 255.64 1545.82 Q259.275 1545.82 261.08 1542.27 Q262.909 1538.71 262.909 1531.6 Q262.909 1524.47 261.08 1520.93 Q259.275 1517.37 255.64 1517.37 M255.64 1513.66 Q261.451 1513.66 264.506 1518.27 Q267.585 1522.85 267.585 1531.6 Q267.585 1540.33 264.506 1544.94 Q261.451 1549.52 255.64 1549.52 Q249.83 1549.52 246.752 1544.94 Q243.696 1540.33 243.696 1531.6 Q243.696 1522.85 246.752 1518.27 Q249.83 1513.66 255.64 1513.66 Z" fill="#000000" fill-rule="nonzero" fill-opacity="1" /><path clip-path="url(#clip260)" d="M698.903 1517.37 Q695.292 1517.37 693.463 1520.93 Q691.658 1524.47 691.658 1531.6 Q691.658 1538.71 693.463 1542.27 Q695.292 1545.82 698.903 1545.82 Q702.538 1545.82 704.343 1542.27 Q706.172 1538.71 706.172 1531.6 Q706.172 1524.47 704.343 1520.93 Q702.538 1517.37 698.903 1517.37 M698.903 1513.66 Q704.713 1513.66 707.769 1518.27 Q710.848 1522.85 710.848 1531.6 Q710.848 1540.33 707.769 1544.94 Q704.713 1549.52 698.903 1549.52 Q693.093 1549.52 690.014 1544.94 Q686.959 1540.33 686.959 1531.6 Q686.959 1522.85 690.014 1518.27 Q693.093 1513.66 698.903 1513.66 Z" fill="#000000" fill-rule="nonzero" fill-opacity="1" /><path clip-path="url(#clip260)" d="M719.065 1542.97 L723.949 1542.97 L723.949 1548.85 L719.065 1548.85 L719.065 1542.97 Z" fill="#000000" fill-rule="nonzero" fill-opacity="1" /><path clip-path="url(#clip260)" d="M738.162 1544.91 L754.482 1544.91 L754.482 1548.85 L732.537 1548.85 L732.537 1544.91 Q735.199 1542.16 739.783 1537.53 Q744.389 1532.88 745.57 1531.53 Q747.815 1529.01 748.695 1527.27 Q749.597 1525.51 749.597 1523.82 Q749.597 1521.07 747.653 1519.33 Q745.732 1517.6 742.63 1517.6 Q740.431 1517.6 737.977 1518.36 Q735.547 1519.13 732.769 1520.68 L732.769 1515.95 Q735.593 1514.82 738.047 1514.24 Q740.5 1513.66 742.537 1513.66 Q747.908 1513.66 751.102 1516.35 Q754.296 1519.03 754.296 1523.52 Q754.296 1525.65 753.486 1527.57 Q752.699 1529.47 750.593 1532.07 Q750.014 1532.74 746.912 1535.95 Q743.81 1539.15 738.162 1544.91 Z" fill="#000000" fill-rule="nonzero" fill-opacity="1" /><path clip-path="url(#clip260)" d="M764.343 1514.29 L782.699 1514.29 L782.699 1518.22 L768.625 1518.22 L768.625 1526.7 Q769.644 1526.35 770.662 1526.19 Q771.681 1526 772.699 1526 Q778.486 1526 781.866 1529.17 Q785.245 1532.34 785.245 1537.76 Q785.245 1543.34 781.773 1546.44 Q778.301 1549.52 771.982 1549.52 Q769.806 1549.52 767.537 1549.15 Q765.292 1548.78 762.884 1548.04 L762.884 1543.34 Q764.968 1544.47 767.19 1545.03 Q769.412 1545.58 771.889 1545.58 Q775.894 1545.58 778.232 1543.48 Q780.57 1541.37 780.57 1537.76 Q780.57 1534.15 778.232 1532.04 Q775.894 1529.94 771.889 1529.94 Q770.014 1529.94 768.139 1530.35 Q766.287 1530.77 764.343 1531.65 L764.343 1514.29 Z" fill="#000000" fill-rule="nonzero" fill-opacity="1" /><path clip-path="url(#clip260)" d="M1216.56 1517.37 Q1212.95 1517.37 1211.12 1520.93 Q1209.32 1524.47 1209.32 1531.6 Q1209.32 1538.71 1211.12 1542.27 Q1212.95 1545.82 1216.56 1545.82 Q1220.2 1545.82 1222 1542.27 Q1223.83 1538.71 1223.83 1531.6 Q1223.83 1524.47 1222 1520.93 Q1220.2 1517.37 1216.56 1517.37 M1216.56 1513.66 Q1222.37 1513.66 1225.43 1518.27 Q1228.51 1522.85 1228.51 1531.6 Q1228.51 1540.33 1225.43 1544.94 Q1222.37 1549.52 1216.56 1549.52 Q1210.75 1549.52 1207.68 1544.94 Q1204.62 1540.33 1204.62 1531.6 Q1204.62 1522.85 1207.68 1518.27 Q1210.75 1513.66 1216.56 1513.66 Z" fill="#000000" fill-rule="nonzero" fill-opacity="1" /><path clip-path="url(#clip260)" d="M1236.73 1542.97 L1241.61 1542.97 L1241.61 1548.85 L1236.73 1548.85 L1236.73 1542.97 Z" fill="#000000" fill-rule="nonzero" fill-opacity="1" /><path clip-path="url(#clip260)" d="M1251.84 1514.29 L1270.2 1514.29 L1270.2 1518.22 L1256.12 1518.22 L1256.12 1526.7 Q1257.14 1526.35 1258.16 1526.19 Q1259.18 1526 1260.2 1526 Q1265.98 1526 1269.36 1529.17 Q1272.74 1532.34 1272.74 1537.76 Q1272.74 1543.34 1269.27 1546.44 Q1265.8 1549.52 1259.48 1549.52 Q1257.3 1549.52 1255.04 1549.15 Q1252.79 1548.78 1250.38 1548.04 L1250.38 1543.34 Q1252.47 1544.47 1254.69 1545.03 Q1256.91 1545.58 1259.39 1545.58 Q1263.39 1545.58 1265.73 1543.48 Q1268.07 1541.37 1268.07 1537.76 Q1268.07 1534.15 1265.73 1532.04 Q1263.39 1529.94 1259.39 1529.94 Q1257.51 1529.94 1255.64 1530.35 Q1253.79 1530.77 1251.84 1531.65 L1251.84 1514.29 Z" fill="#000000" fill-rule="nonzero" fill-opacity="1" /><path clip-path="url(#clip260)" d="M1291.96 1517.37 Q1288.35 1517.37 1286.52 1520.93 Q1284.71 1524.47 1284.71 1531.6 Q1284.71 1538.71 1286.52 1542.27 Q1288.35 1545.82 1291.96 1545.82 Q1295.59 1545.82 1297.4 1542.27 Q1299.23 1538.71 1299.23 1531.6 Q1299.23 1524.47 1297.4 1520.93 Q1295.59 1517.37 1291.96 1517.37 M1291.96 1513.66 Q1297.77 1513.66 1300.82 1518.27 Q1303.9 1522.85 1303.9 1531.6 Q1303.9 1540.33 1300.82 1544.94 Q1297.77 1549.52 1291.96 1549.52 Q1286.15 1549.52 1283.07 1544.94 Q1280.01 1540.33 1280.01 1531.6 Q1280.01 1522.85 1283.07 1518.27 Q1286.15 1513.66 1291.96 1513.66 Z" fill="#000000" fill-rule="nonzero" fill-opacity="1" /><path clip-path="url(#clip260)" d="M1735.22 1517.37 Q1731.61 1517.37 1729.78 1520.93 Q1727.97 1524.47 1727.97 1531.6 Q1727.97 1538.71 1729.78 1542.27 Q1731.61 1545.82 1735.22 1545.82 Q1738.85 1545.82 1740.66 1542.27 Q1742.49 1538.71 1742.49 1531.6 Q1742.49 1524.47 1740.66 1520.93 Q1738.85 1517.37 1735.22 1517.37 M1735.22 1513.66 Q1741.03 1513.66 1744.09 1518.27 Q1747.16 1522.85 1747.16 1531.6 Q1747.16 1540.33 1744.09 1544.94 Q1741.03 1549.52 1735.22 1549.52 Q1729.41 1549.52 1726.33 1544.94 Q1723.28 1540.33 1723.28 1531.6 Q1723.28 1522.85 1726.33 1518.27 Q1729.41 1513.66 1735.22 1513.66 Z" fill="#000000" fill-rule="nonzero" fill-opacity="1" /><path clip-path="url(#clip260)" d="M1755.38 1542.97 L1760.27 1542.97 L1760.27 1548.85 L1755.38 1548.85 L1755.38 1542.97 Z" fill="#000000" fill-rule="nonzero" fill-opacity="1" /><path clip-path="url(#clip260)" d="M1769.27 1514.29 L1791.49 1514.29 L1791.49 1516.28 L1778.95 1548.85 L1774.06 1548.85 L1785.87 1518.22 L1769.27 1518.22 L1769.27 1514.29 Z" fill="#000000" fill-rule="nonzero" fill-opacity="1" /><path clip-path="url(#clip260)" d="M1800.66 1514.29 L1819.02 1514.29 L1819.02 1518.22 L1804.94 1518.22 L1804.94 1526.7 Q1805.96 1526.35 1806.98 1526.19 Q1808 1526 1809.02 1526 Q1814.8 1526 1818.18 1529.17 Q1821.56 1532.34 1821.56 1537.76 Q1821.56 1543.34 1818.09 1546.44 Q1814.62 1549.52 1808.3 1549.52 Q1806.12 1549.52 1803.85 1549.15 Q1801.61 1548.78 1799.2 1548.04 L1799.2 1543.34 Q1801.28 1544.47 1803.51 1545.03 Q1805.73 1545.58 1808.21 1545.58 Q1812.21 1545.58 1814.55 1543.48 Q1816.89 1541.37 1816.89 1537.76 Q1816.89 1534.15 1814.55 1532.04 Q1812.21 1529.94 1808.21 1529.94 Q1806.33 1529.94 1804.46 1530.35 Q1802.6 1530.77 1800.66 1531.65 L1800.66 1514.29 Z" fill="#000000" fill-rule="nonzero" fill-opacity="1" /><path clip-path="url(#clip260)" d="M2242.65 1544.91 L2250.29 1544.91 L2250.29 1518.55 L2241.98 1520.21 L2241.98 1515.95 L2250.24 1514.29 L2254.92 1514.29 L2254.92 1544.91 L2262.56 1544.91 L2262.56 1548.85 L2242.65 1548.85 L2242.65 1544.91 Z" fill="#000000" fill-rule="nonzero" fill-opacity="1" /><path clip-path="url(#clip260)" d="M2272 1542.97 L2276.88 1542.97 L2276.88 1548.85 L2272 1548.85 L2272 1542.97 Z" fill="#000000" fill-rule="nonzero" fill-opacity="1" /><path clip-path="url(#clip260)" d="M2297.07 1517.37 Q2293.46 1517.37 2291.63 1520.93 Q2289.82 1524.47 2289.82 1531.6 Q2289.82 1538.71 2291.63 1542.27 Q2293.46 1545.82 2297.07 1545.82 Q2300.7 1545.82 2302.51 1542.27 Q2304.34 1538.71 2304.34 1531.6 Q2304.34 1524.47 2302.51 1520.93 Q2300.7 1517.37 2297.07 1517.37 M2297.07 1513.66 Q2302.88 1513.66 2305.94 1518.27 Q2309.01 1522.85 2309.01 1531.6 Q2309.01 1540.33 2305.94 1544.94 Q2302.88 1549.52 2297.07 1549.52 Q2291.26 1549.52 2288.18 1544.94 Q2285.13 1540.33 2285.13 1531.6 Q2285.13 1522.85 2288.18 1518.27 Q2291.26 1513.66 2297.07 1513.66 Z" fill="#000000" fill-rule="nonzero" fill-opacity="1" /><path clip-path="url(#clip260)" d="M2327.23 1517.37 Q2323.62 1517.37 2321.79 1520.93 Q2319.99 1524.47 2319.99 1531.6 Q2319.99 1538.71 2321.79 1542.27 Q2323.62 1545.82 2327.23 1545.82 Q2330.87 1545.82 2332.67 1542.27 Q2334.5 1538.71 2334.5 1531.6 Q2334.5 1524.47 2332.67 1520.93 Q2330.87 1517.37 2327.23 1517.37 M2327.23 1513.66 Q2333.04 1513.66 2336.1 1518.27 Q2339.18 1522.85 2339.18 1531.6 Q2339.18 1540.33 2336.1 1544.94 Q2333.04 1549.52 2327.23 1549.52 Q2321.42 1549.52 2318.34 1544.94 Q2315.29 1540.33 2315.29 1531.6 Q2315.29 1522.85 2318.34 1518.27 Q2321.42 1513.66 2327.23 1513.66 Z" fill="#000000" fill-rule="nonzero" fill-opacity="1" /><polyline clip-path="url(#clip260)" style="stroke:#000000; stroke-linecap:round; stroke-linejoin:round; stroke-width:4; stroke-opacity:1; fill:none" points="155.765,1486.45 155.765,47.2441 "/>
<polyline clip-path="url(#clip260)" style="stroke:#000000; stroke-linecap:round; stroke-linejoin:round; stroke-width:4; stroke-opacity:1; fill:none" points="155.765,1303.16 174.663,1303.16 "/>
<polyline clip-path="url(#clip260)" style="stroke:#000000; stroke-linecap:round; stroke-linejoin:round; stroke-width:4; stroke-opacity:1; fill:none" points="155.765,1087.06 174.663,1087.06 "/>
<polyline clip-path="url(#clip260)" style="stroke:#000000; stroke-linecap:round; stroke-linejoin:round; stroke-width:4; stroke-opacity:1; fill:none" points="155.765,870.957 174.663,870.957 "/>
<polyline clip-path="url(#clip260)" style="stroke:#000000; stroke-linecap:round; stroke-linejoin:round; stroke-width:4; stroke-opacity:1; fill:none" points="155.765,654.857 174.663,654.857 "/>
<polyline clip-path="url(#clip260)" style="stroke:#000000; stroke-linecap:round; stroke-linejoin:round; stroke-width:4; stroke-opacity:1; fill:none" points="155.765,438.757 174.663,438.757 "/>
<polyline clip-path="url(#clip260)" style="stroke:#000000; stroke-linecap:round; stroke-linejoin:round; stroke-width:4; stroke-opacity:1; fill:none" points="155.765,222.656 174.663,222.656 "/>
<path clip-path="url(#clip260)" d="M63.5847 1288.96 Q59.9736 1288.96 58.1449 1292.52 Q56.3393 1296.06 56.3393 1303.19 Q56.3393 1310.3 58.1449 1313.86 Q59.9736 1317.41 63.5847 1317.41 Q67.2189 1317.41 69.0244 1313.86 Q70.8531 1310.3 70.8531 1303.19 Q70.8531 1296.06 69.0244 1292.52 Q67.2189 1288.96 63.5847 1288.96 M63.5847 1285.25 Q69.3948 1285.25 72.4503 1289.86 Q75.529 1294.44 75.529 1303.19 Q75.529 1311.92 72.4503 1316.53 Q69.3948 1321.11 63.5847 1321.11 Q57.7745 1321.11 54.6958 1316.53 Q51.6403 1311.92 51.6403 1303.19 Q51.6403 1294.44 54.6958 1289.86 Q57.7745 1285.25 63.5847 1285.25 Z" fill="#000000" fill-rule="nonzero" fill-opacity="1" /><path clip-path="url(#clip260)" d="M83.7466 1314.56 L88.6308 1314.56 L88.6308 1320.44 L83.7466 1320.44 L83.7466 1314.56 Z" fill="#000000" fill-rule="nonzero" fill-opacity="1" /><path clip-path="url(#clip260)" d="M98.8622 1285.88 L117.219 1285.88 L117.219 1289.81 L103.145 1289.81 L103.145 1298.29 Q104.163 1297.94 105.182 1297.78 Q106.2 1297.59 107.219 1297.59 Q113.006 1297.59 116.385 1300.76 Q119.765 1303.93 119.765 1309.35 Q119.765 1314.93 116.293 1318.03 Q112.82 1321.11 106.501 1321.11 Q104.325 1321.11 102.057 1320.74 Q99.8113 1320.37 97.4039 1319.63 L97.4039 1314.93 Q99.4872 1316.06 101.709 1316.62 Q103.932 1317.17 106.408 1317.17 Q110.413 1317.17 112.751 1315.07 Q115.089 1312.96 115.089 1309.35 Q115.089 1305.74 112.751 1303.63 Q110.413 1301.53 106.408 1301.53 Q104.534 1301.53 102.659 1301.94 Q100.807 1302.36 98.8622 1303.24 L98.8622 1285.88 Z" fill="#000000" fill-rule="nonzero" fill-opacity="1" /><path clip-path="url(#clip260)" d="M53.3995 1100.4 L61.0384 1100.4 L61.0384 1074.04 L52.7282 1075.7 L52.7282 1071.44 L60.9921 1069.78 L65.668 1069.78 L65.668 1100.4 L73.3068 1100.4 L73.3068 1104.34 L53.3995 1104.34 L53.3995 1100.4 Z" fill="#000000" fill-rule="nonzero" fill-opacity="1" /><path clip-path="url(#clip260)" d="M82.7512 1098.46 L87.6354 1098.46 L87.6354 1104.34 L82.7512 1104.34 L82.7512 1098.46 Z" fill="#000000" fill-rule="nonzero" fill-opacity="1" /><path clip-path="url(#clip260)" d="M107.821 1072.86 Q104.209 1072.86 102.381 1076.42 Q100.575 1079.96 100.575 1087.09 Q100.575 1094.2 102.381 1097.76 Q104.209 1101.31 107.821 1101.31 Q111.455 1101.31 113.26 1097.76 Q115.089 1094.2 115.089 1087.09 Q115.089 1079.96 113.26 1076.42 Q111.455 1072.86 107.821 1072.86 M107.821 1069.15 Q113.631 1069.15 116.686 1073.76 Q119.765 1078.34 119.765 1087.09 Q119.765 1095.82 116.686 1100.43 Q113.631 1105.01 107.821 1105.01 Q102.01 1105.01 98.9317 1100.43 Q95.8761 1095.82 95.8761 1087.09 Q95.8761 1078.34 98.9317 1073.76 Q102.01 1069.15 107.821 1069.15 Z" fill="#000000" fill-rule="nonzero" fill-opacity="1" /><path clip-path="url(#clip260)" d="M54.3949 884.302 L62.0337 884.302 L62.0337 857.937 L53.7236 859.603 L53.7236 855.344 L61.9874 853.677 L66.6633 853.677 L66.6633 884.302 L74.3022 884.302 L74.3022 888.237 L54.3949 888.237 L54.3949 884.302 Z" fill="#000000" fill-rule="nonzero" fill-opacity="1" /><path clip-path="url(#clip260)" d="M83.7466 882.358 L88.6308 882.358 L88.6308 888.237 L83.7466 888.237 L83.7466 882.358 Z" fill="#000000" fill-rule="nonzero" fill-opacity="1" /><path clip-path="url(#clip260)" d="M98.8622 853.677 L117.219 853.677 L117.219 857.612 L103.145 857.612 L103.145 866.085 Q104.163 865.737 105.182 865.575 Q106.2 865.39 107.219 865.39 Q113.006 865.39 116.385 868.561 Q119.765 871.733 119.765 877.149 Q119.765 882.728 116.293 885.83 Q112.82 888.909 106.501 888.909 Q104.325 888.909 102.057 888.538 Q99.8113 888.168 97.4039 887.427 L97.4039 882.728 Q99.4872 883.862 101.709 884.418 Q103.932 884.973 106.408 884.973 Q110.413 884.973 112.751 882.867 Q115.089 880.76 115.089 877.149 Q115.089 873.538 112.751 871.432 Q110.413 869.325 106.408 869.325 Q104.534 869.325 102.659 869.742 Q100.807 870.159 98.8622 871.038 L98.8622 853.677 Z" fill="#000000" fill-rule="nonzero" fill-opacity="1" /><path clip-path="url(#clip260)" d="M56.6171 668.202 L72.9365 668.202 L72.9365 672.137 L50.9921 672.137 L50.9921 668.202 Q53.6541 665.447 58.2375 660.818 Q62.8439 656.165 64.0245 654.822 Q66.2698 652.299 67.1494 650.563 Q68.0522 648.804 68.0522 647.114 Q68.0522 644.359 66.1078 642.623 Q64.1865 640.887 61.0847 640.887 Q58.8856 640.887 56.4319 641.651 Q54.0014 642.415 51.2236 643.966 L51.2236 639.244 Q54.0477 638.109 56.5014 637.531 Q58.955 636.952 60.9921 636.952 Q66.3624 636.952 69.5568 639.637 Q72.7513 642.322 72.7513 646.813 Q72.7513 648.943 71.9411 650.864 Q71.1541 652.762 69.0476 655.355 Q68.4689 656.026 65.367 659.243 Q62.2652 662.438 56.6171 668.202 Z" fill="#000000" fill-rule="nonzero" fill-opacity="1" /><path clip-path="url(#clip260)" d="M82.7512 666.257 L87.6354 666.257 L87.6354 672.137 L82.7512 672.137 L82.7512 666.257 Z" fill="#000000" fill-rule="nonzero" fill-opacity="1" /><path clip-path="url(#clip260)" d="M107.821 640.656 Q104.209 640.656 102.381 644.22 Q100.575 647.762 100.575 654.892 Q100.575 661.998 102.381 665.563 Q104.209 669.105 107.821 669.105 Q111.455 669.105 113.26 665.563 Q115.089 661.998 115.089 654.892 Q115.089 647.762 113.26 644.22 Q111.455 640.656 107.821 640.656 M107.821 636.952 Q113.631 636.952 116.686 641.558 Q119.765 646.142 119.765 654.892 Q119.765 663.618 116.686 668.225 Q113.631 672.808 107.821 672.808 Q102.01 672.808 98.9317 668.225 Q95.8761 663.618 95.8761 654.892 Q95.8761 646.142 98.9317 641.558 Q102.01 636.952 107.821 636.952 Z" fill="#000000" fill-rule="nonzero" fill-opacity="1" /><path clip-path="url(#clip260)" d="M57.6125 452.101 L73.9318 452.101 L73.9318 456.037 L51.9875 456.037 L51.9875 452.101 Q54.6495 449.347 59.2328 444.717 Q63.8393 440.064 65.0198 438.722 Q67.2652 436.199 68.1448 434.463 Q69.0476 432.703 69.0476 431.014 Q69.0476 428.259 67.1032 426.523 Q65.1819 424.787 62.08 424.787 Q59.881 424.787 57.4273 425.551 Q54.9967 426.315 52.219 427.865 L52.219 423.143 Q55.043 422.009 57.4967 421.43 Q59.9504 420.852 61.9874 420.852 Q67.3578 420.852 70.5522 423.537 Q73.7466 426.222 73.7466 430.713 Q73.7466 432.842 72.9365 434.764 Q72.1494 436.662 70.0429 439.254 Q69.4642 439.926 66.3624 443.143 Q63.2606 446.338 57.6125 452.101 Z" fill="#000000" fill-rule="nonzero" fill-opacity="1" /><path clip-path="url(#clip260)" d="M83.7466 450.157 L88.6308 450.157 L88.6308 456.037 L83.7466 456.037 L83.7466 450.157 Z" fill="#000000" fill-rule="nonzero" fill-opacity="1" /><path clip-path="url(#clip260)" d="M98.8622 421.477 L117.219 421.477 L117.219 425.412 L103.145 425.412 L103.145 433.884 Q104.163 433.537 105.182 433.375 Q106.2 433.189 107.219 433.189 Q113.006 433.189 116.385 436.361 Q119.765 439.532 119.765 444.949 Q119.765 450.527 116.293 453.629 Q112.82 456.708 106.501 456.708 Q104.325 456.708 102.057 456.337 Q99.8113 455.967 97.4039 455.226 L97.4039 450.527 Q99.4872 451.662 101.709 452.217 Q103.932 452.773 106.408 452.773 Q110.413 452.773 112.751 450.666 Q115.089 448.56 115.089 444.949 Q115.089 441.338 112.751 439.231 Q110.413 437.125 106.408 437.125 Q104.534 437.125 102.659 437.541 Q100.807 437.958 98.8622 438.838 L98.8622 421.477 Z" fill="#000000" fill-rule="nonzero" fill-opacity="1" /><path clip-path="url(#clip260)" d="M66.7559 221.302 Q70.1124 222.02 71.9874 224.288 Q73.8855 226.557 73.8855 229.89 Q73.8855 235.006 70.367 237.807 Q66.8485 240.607 60.3671 240.607 Q58.1912 240.607 55.8764 240.168 Q53.5847 239.751 51.131 238.895 L51.131 234.381 Q53.0754 235.515 55.3903 236.094 Q57.7051 236.672 60.2282 236.672 Q64.6263 236.672 66.918 234.936 Q69.2328 233.2 69.2328 229.89 Q69.2328 226.834 67.08 225.121 Q64.9504 223.385 61.131 223.385 L57.1032 223.385 L57.1032 219.543 L61.3161 219.543 Q64.7652 219.543 66.5939 218.177 Q68.4226 216.788 68.4226 214.196 Q68.4226 211.534 66.5245 210.122 Q64.6495 208.686 61.131 208.686 Q59.2097 208.686 57.0106 209.103 Q54.8115 209.52 52.1727 210.399 L52.1727 206.233 Q54.8347 205.492 57.1495 205.122 Q59.4875 204.751 61.5476 204.751 Q66.8717 204.751 69.9735 207.182 Q73.0753 209.589 73.0753 213.709 Q73.0753 216.58 71.4318 218.571 Q69.7883 220.538 66.7559 221.302 Z" fill="#000000" fill-rule="nonzero" fill-opacity="1" /><path clip-path="url(#clip260)" d="M82.7512 234.057 L87.6354 234.057 L87.6354 239.936 L82.7512 239.936 L82.7512 234.057 Z" fill="#000000" fill-rule="nonzero" fill-opacity="1" /><path clip-path="url(#clip260)" d="M107.821 208.455 Q104.209 208.455 102.381 212.02 Q100.575 215.561 100.575 222.691 Q100.575 229.797 102.381 233.362 Q104.209 236.904 107.821 236.904 Q111.455 236.904 113.26 233.362 Q115.089 229.797 115.089 222.691 Q115.089 215.561 113.26 212.02 Q111.455 208.455 107.821 208.455 M107.821 204.751 Q113.631 204.751 116.686 209.358 Q119.765 213.941 119.765 222.691 Q119.765 231.418 116.686 236.024 Q113.631 240.607 107.821 240.607 Q102.01 240.607 98.9317 236.024 Q95.8761 231.418 95.8761 222.691 Q95.8761 213.941 98.9317 209.358 Q102.01 204.751 107.821 204.751 Z" fill="#000000" fill-rule="nonzero" fill-opacity="1" /><polyline clip-path="url(#clip261)" style="stroke:#009af9; stroke-linecap:round; stroke-linejoin:round; stroke-width:12; stroke-opacity:1; fill:none" points="217.944,1303.16 425.207,1293.38 632.47,1239.76 839.734,1196.21 1047,1137.07 1254.26,1113.78 1461.52,1076.41 1668.79,1018.43 1876.05,930.819 2083.31,963.762 2290.58,995.164 "/>
<polyline clip-path="url(#clip261)" style="stroke:#000000; stroke-linecap:round; stroke-linejoin:round; stroke-width:12; stroke-opacity:1; fill:none" points="217.944,1303.16 217.944,1303.16 "/>
<polyline clip-path="url(#clip261)" style="stroke:#000000; stroke-linecap:round; stroke-linejoin:round; stroke-width:12; stroke-opacity:1; fill:none" points="425.207,1350.33 425.207,1191.86 "/>
<polyline clip-path="url(#clip261)" style="stroke:#000000; stroke-linecap:round; stroke-linejoin:round; stroke-width:12; stroke-opacity:1; fill:none" points="632.47,1335.23 632.47,1188.77 "/>
<polyline clip-path="url(#clip261)" style="stroke:#000000; stroke-linecap:round; stroke-linejoin:round; stroke-width:12; stroke-opacity:1; fill:none" points="839.734,1291.08 839.734,1104.88 "/>
<polyline clip-path="url(#clip261)" style="stroke:#000000; stroke-linecap:round; stroke-linejoin:round; stroke-width:12; stroke-opacity:1; fill:none" points="1047,1219.97 1047,1055.58 "/>
<polyline clip-path="url(#clip261)" style="stroke:#000000; stroke-linecap:round; stroke-linejoin:round; stroke-width:12; stroke-opacity:1; fill:none" points="1254.26,1205.08 1254.26,992.056 "/>
<polyline clip-path="url(#clip261)" style="stroke:#000000; stroke-linecap:round; stroke-linejoin:round; stroke-width:12; stroke-opacity:1; fill:none" points="1461.52,1281.92 1461.52,754.112 "/>
<polyline clip-path="url(#clip261)" style="stroke:#000000; stroke-linecap:round; stroke-linejoin:round; stroke-width:12; stroke-opacity:1; fill:none" points="1668.79,1268.05 1668.79,609.645 "/>
<polyline clip-path="url(#clip261)" style="stroke:#000000; stroke-linecap:round; stroke-linejoin:round; stroke-width:12; stroke-opacity:1; fill:none" points="1876.05,1184.39 1876.05,324.406 "/>
<polyline clip-path="url(#clip261)" style="stroke:#000000; stroke-linecap:round; stroke-linejoin:round; stroke-width:12; stroke-opacity:1; fill:none" points="2083.31,1185.59 2083.31,87.9763 "/>
<polyline clip-path="url(#clip261)" style="stroke:#000000; stroke-linecap:round; stroke-linejoin:round; stroke-width:12; stroke-opacity:1; fill:none" points="2290.58,1215.64 2290.58,127.093 "/>
<line clip-path="url(#clip261)" x1="233.944" y1="1303.16" x2="201.944" y2="1303.16" style="stroke:#000000; stroke-width:12; stroke-opacity:1"/>
<line clip-path="url(#clip261)" x1="233.944" y1="1303.16" x2="201.944" y2="1303.16" style="stroke:#000000; stroke-width:12; stroke-opacity:1"/>
<line clip-path="url(#clip261)" x1="441.207" y1="1350.33" x2="409.207" y2="1350.33" style="stroke:#000000; stroke-width:12; stroke-opacity:1"/>
<line clip-path="url(#clip261)" x1="441.207" y1="1191.86" x2="409.207" y2="1191.86" style="stroke:#000000; stroke-width:12; stroke-opacity:1"/>
<line clip-path="url(#clip261)" x1="648.47" y1="1335.23" x2="616.47" y2="1335.23" style="stroke:#000000; stroke-width:12; stroke-opacity:1"/>
<line clip-path="url(#clip261)" x1="648.47" y1="1188.77" x2="616.47" y2="1188.77" style="stroke:#000000; stroke-width:12; stroke-opacity:1"/>
<line clip-path="url(#clip261)" x1="855.734" y1="1291.08" x2="823.734" y2="1291.08" style="stroke:#000000; stroke-width:12; stroke-opacity:1"/>
<line clip-path="url(#clip261)" x1="855.734" y1="1104.88" x2="823.734" y2="1104.88" style="stroke:#000000; stroke-width:12; stroke-opacity:1"/>
<line clip-path="url(#clip261)" x1="1063" y1="1219.97" x2="1031" y2="1219.97" style="stroke:#000000; stroke-width:12; stroke-opacity:1"/>
<line clip-path="url(#clip261)" x1="1063" y1="1055.58" x2="1031" y2="1055.58" style="stroke:#000000; stroke-width:12; stroke-opacity:1"/>
<line clip-path="url(#clip261)" x1="1270.26" y1="1205.08" x2="1238.26" y2="1205.08" style="stroke:#000000; stroke-width:12; stroke-opacity:1"/>
<line clip-path="url(#clip261)" x1="1270.26" y1="992.056" x2="1238.26" y2="992.056" style="stroke:#000000; stroke-width:12; stroke-opacity:1"/>
<line clip-path="url(#clip261)" x1="1477.52" y1="1281.92" x2="1445.52" y2="1281.92" style="stroke:#000000; stroke-width:12; stroke-opacity:1"/>
<line clip-path="url(#clip261)" x1="1477.52" y1="754.112" x2="1445.52" y2="754.112" style="stroke:#000000; stroke-width:12; stroke-opacity:1"/>
<line clip-path="url(#clip261)" x1="1684.79" y1="1268.05" x2="1652.79" y2="1268.05" style="stroke:#000000; stroke-width:12; stroke-opacity:1"/>
<line clip-path="url(#clip261)" x1="1684.79" y1="609.645" x2="1652.79" y2="609.645" style="stroke:#000000; stroke-width:12; stroke-opacity:1"/>
<line clip-path="url(#clip261)" x1="1892.05" y1="1184.39" x2="1860.05" y2="1184.39" style="stroke:#000000; stroke-width:12; stroke-opacity:1"/>
<line clip-path="url(#clip261)" x1="1892.05" y1="324.406" x2="1860.05" y2="324.406" style="stroke:#000000; stroke-width:12; stroke-opacity:1"/>
<line clip-path="url(#clip261)" x1="2099.31" y1="1185.59" x2="2067.31" y2="1185.59" style="stroke:#000000; stroke-width:12; stroke-opacity:1"/>
<line clip-path="url(#clip261)" x1="2099.31" y1="87.9763" x2="2067.31" y2="87.9763" style="stroke:#000000; stroke-width:12; stroke-opacity:1"/>
<line clip-path="url(#clip261)" x1="2306.58" y1="1215.64" x2="2274.58" y2="1215.64" style="stroke:#000000; stroke-width:12; stroke-opacity:1"/>
<line clip-path="url(#clip261)" x1="2306.58" y1="127.093" x2="2274.58" y2="127.093" style="stroke:#000000; stroke-width:12; stroke-opacity:1"/>
<polyline clip-path="url(#clip261)" style="stroke:#e26f46; stroke-linecap:round; stroke-linejoin:round; stroke-width:12; stroke-opacity:1; fill:none" points="217.944,1303.16 425.207,1328.1 632.47,1288.47 839.734,1277.34 1047,1263.45 1254.26,1267.66 1461.52,1273.65 1668.79,1238.07 1876.05,1210.4 2083.31,1209.55 2290.58,1228.68 "/>
<polyline clip-path="url(#clip261)" style="stroke:#000000; stroke-linecap:round; stroke-linejoin:round; stroke-width:12; stroke-opacity:1; fill:none" points="217.944,1303.16 217.944,1303.16 "/>
<polyline clip-path="url(#clip261)" style="stroke:#000000; stroke-linecap:round; stroke-linejoin:round; stroke-width:12; stroke-opacity:1; fill:none" points="425.207,1413.15 425.207,1228.15 "/>
<polyline clip-path="url(#clip261)" style="stroke:#000000; stroke-linecap:round; stroke-linejoin:round; stroke-width:12; stroke-opacity:1; fill:none" points="632.47,1442.74 632.47,1201.89 "/>
<polyline clip-path="url(#clip261)" style="stroke:#000000; stroke-linecap:round; stroke-linejoin:round; stroke-width:12; stroke-opacity:1; fill:none" points="839.734,1438.92 839.734,1165.87 "/>
<polyline clip-path="url(#clip261)" style="stroke:#000000; stroke-linecap:round; stroke-linejoin:round; stroke-width:12; stroke-opacity:1; fill:none" points="1047,1429.93 1047,1128.8 "/>
<polyline clip-path="url(#clip261)" style="stroke:#000000; stroke-linecap:round; stroke-linejoin:round; stroke-width:12; stroke-opacity:1; fill:none" points="1254.26,1427.81 1254.26,966.136 "/>
<polyline clip-path="url(#clip261)" style="stroke:#000000; stroke-linecap:round; stroke-linejoin:round; stroke-width:12; stroke-opacity:1; fill:none" points="1461.52,1433.22 1461.52,1050.83 "/>
<polyline clip-path="url(#clip261)" style="stroke:#000000; stroke-linecap:round; stroke-linejoin:round; stroke-width:12; stroke-opacity:1; fill:none" points="1668.79,1441.57 1668.79,1084.62 "/>
<polyline clip-path="url(#clip261)" style="stroke:#000000; stroke-linecap:round; stroke-linejoin:round; stroke-width:12; stroke-opacity:1; fill:none" points="1876.05,1438.71 1876.05,960.702 "/>
<polyline clip-path="url(#clip261)" style="stroke:#000000; stroke-linecap:round; stroke-linejoin:round; stroke-width:12; stroke-opacity:1; fill:none" points="2083.31,1431.45 2083.31,873.565 "/>
<polyline clip-path="url(#clip261)" style="stroke:#000000; stroke-linecap:round; stroke-linejoin:round; stroke-width:12; stroke-opacity:1; fill:none" points="2290.58,1445.72 2290.58,873.515 "/>
<line clip-path="url(#clip261)" x1="233.944" y1="1303.16" x2="201.944" y2="1303.16" style="stroke:#000000; stroke-width:12; stroke-opacity:1"/>
<line clip-path="url(#clip261)" x1="233.944" y1="1303.16" x2="201.944" y2="1303.16" style="stroke:#000000; stroke-width:12; stroke-opacity:1"/>
<line clip-path="url(#clip261)" x1="441.207" y1="1413.15" x2="409.207" y2="1413.15" style="stroke:#000000; stroke-width:12; stroke-opacity:1"/>
<line clip-path="url(#clip261)" x1="441.207" y1="1228.15" x2="409.207" y2="1228.15" style="stroke:#000000; stroke-width:12; stroke-opacity:1"/>
<line clip-path="url(#clip261)" x1="648.47" y1="1442.74" x2="616.47" y2="1442.74" style="stroke:#000000; stroke-width:12; stroke-opacity:1"/>
<line clip-path="url(#clip261)" x1="648.47" y1="1201.89" x2="616.47" y2="1201.89" style="stroke:#000000; stroke-width:12; stroke-opacity:1"/>
<line clip-path="url(#clip261)" x1="855.734" y1="1438.92" x2="823.734" y2="1438.92" style="stroke:#000000; stroke-width:12; stroke-opacity:1"/>
<line clip-path="url(#clip261)" x1="855.734" y1="1165.87" x2="823.734" y2="1165.87" style="stroke:#000000; stroke-width:12; stroke-opacity:1"/>
<line clip-path="url(#clip261)" x1="1063" y1="1429.93" x2="1031" y2="1429.93" style="stroke:#000000; stroke-width:12; stroke-opacity:1"/>
<line clip-path="url(#clip261)" x1="1063" y1="1128.8" x2="1031" y2="1128.8" style="stroke:#000000; stroke-width:12; stroke-opacity:1"/>
<line clip-path="url(#clip261)" x1="1270.26" y1="1427.81" x2="1238.26" y2="1427.81" style="stroke:#000000; stroke-width:12; stroke-opacity:1"/>
<line clip-path="url(#clip261)" x1="1270.26" y1="966.136" x2="1238.26" y2="966.136" style="stroke:#000000; stroke-width:12; stroke-opacity:1"/>
<line clip-path="url(#clip261)" x1="1477.52" y1="1433.22" x2="1445.52" y2="1433.22" style="stroke:#000000; stroke-width:12; stroke-opacity:1"/>
<line clip-path="url(#clip261)" x1="1477.52" y1="1050.83" x2="1445.52" y2="1050.83" style="stroke:#000000; stroke-width:12; stroke-opacity:1"/>
<line clip-path="url(#clip261)" x1="1684.79" y1="1441.57" x2="1652.79" y2="1441.57" style="stroke:#000000; stroke-width:12; stroke-opacity:1"/>
<line clip-path="url(#clip261)" x1="1684.79" y1="1084.62" x2="1652.79" y2="1084.62" style="stroke:#000000; stroke-width:12; stroke-opacity:1"/>
<line clip-path="url(#clip261)" x1="1892.05" y1="1438.71" x2="1860.05" y2="1438.71" style="stroke:#000000; stroke-width:12; stroke-opacity:1"/>
<line clip-path="url(#clip261)" x1="1892.05" y1="960.702" x2="1860.05" y2="960.702" style="stroke:#000000; stroke-width:12; stroke-opacity:1"/>
<line clip-path="url(#clip261)" x1="2099.31" y1="1431.45" x2="2067.31" y2="1431.45" style="stroke:#000000; stroke-width:12; stroke-opacity:1"/>
<line clip-path="url(#clip261)" x1="2099.31" y1="873.565" x2="2067.31" y2="873.565" style="stroke:#000000; stroke-width:12; stroke-opacity:1"/>
<line clip-path="url(#clip261)" x1="2306.58" y1="1445.72" x2="2274.58" y2="1445.72" style="stroke:#000000; stroke-width:12; stroke-opacity:1"/>
<line clip-path="url(#clip261)" x1="2306.58" y1="873.515" x2="2274.58" y2="873.515" style="stroke:#000000; stroke-width:12; stroke-opacity:1"/>
</svg>
