<?xml version="1.0" encoding="utf-8"?>
<svg xmlns="http://www.w3.org/2000/svg" xmlns:xlink="http://www.w3.org/1999/xlink" width="600" height="400" viewBox="0 0 2400 1600">
<defs>
  <clipPath id="clip910">
    <rect x="0" y="0" width="2400" height="1600"/>
  </clipPath>
</defs>
<path clip-path="url(#clip910)" d="M0 1600 L2400 1600 L2400 0 L0 0  Z" fill="#ffffff" fill-rule="evenodd" fill-opacity="1"/>
<defs>
  <clipPath id="clip911">
    <rect x="480" y="0" width="1681" height="1600"/>
  </clipPath>
</defs>
<path clip-path="url(#clip910)" d="M178.867 1423.18 L2352.76 1423.18 L2352.76 47.2441 L178.867 47.2441  Z" fill="#ffffff" fill-rule="evenodd" fill-opacity="1"/>
<defs>
  <clipPath id="clip912">
    <rect x="178" y="47" width="2175" height="1377"/>
  </clipPath>
</defs>
<polyline clip-path="url(#clip912)" style="stroke:#000000; stroke-linecap:round; stroke-linejoin:round; stroke-width:2; stroke-opacity:0.1; fill:none" points="178.867,1423.18 178.867,47.2441 "/>
<polyline clip-path="url(#clip912)" style="stroke:#000000; stroke-linecap:round; stroke-linejoin:round; stroke-width:2; stroke-opacity:0.1; fill:none" points="903.496,1423.18 903.496,47.2441 "/>
<polyline clip-path="url(#clip912)" style="stroke:#000000; stroke-linecap:round; stroke-linejoin:round; stroke-width:2; stroke-opacity:0.1; fill:none" points="1628.13,1423.18 1628.13,47.2441 "/>
<polyline clip-path="url(#clip912)" style="stroke:#000000; stroke-linecap:round; stroke-linejoin:round; stroke-width:2; stroke-opacity:0.1; fill:none" points="2352.76,1423.18 2352.76,47.2441 "/>
<polyline clip-path="url(#clip912)" style="stroke:#000000; stroke-linecap:round; stroke-linejoin:round; stroke-width:2; stroke-opacity:0.1; fill:none" points="178.867,1184.95 2352.76,1184.95 "/>
<polyline clip-path="url(#clip912)" style="stroke:#000000; stroke-linecap:round; stroke-linejoin:round; stroke-width:2; stroke-opacity:0.1; fill:none" points="178.867,917.271 2352.76,917.271 "/>
<polyline clip-path="url(#clip912)" style="stroke:#000000; stroke-linecap:round; stroke-linejoin:round; stroke-width:2; stroke-opacity:0.1; fill:none" points="178.867,649.59 2352.76,649.59 "/>
<polyline clip-path="url(#clip912)" style="stroke:#000000; stroke-linecap:round; stroke-linejoin:round; stroke-width:2; stroke-opacity:0.1; fill:none" points="178.867,381.909 2352.76,381.909 "/>
<polyline clip-path="url(#clip912)" style="stroke:#000000; stroke-linecap:round; stroke-linejoin:round; stroke-width:2; stroke-opacity:0.1; fill:none" points="178.867,114.229 2352.76,114.229 "/>
<polyline clip-path="url(#clip910)" style="stroke:#000000; stroke-linecap:round; stroke-linejoin:round; stroke-width:4; stroke-opacity:1; fill:none" points="178.867,1423.18 2352.76,1423.18 "/>
<polyline clip-path="url(#clip910)" style="stroke:#000000; stroke-linecap:round; stroke-linejoin:round; stroke-width:4; stroke-opacity:1; fill:none" points="178.867,1423.18 178.867,1404.28 "/>
<polyline clip-path="url(#clip910)" style="stroke:#000000; stroke-linecap:round; stroke-linejoin:round; stroke-width:4; stroke-opacity:1; fill:none" points="903.496,1423.18 903.496,1404.28 "/>
<polyline clip-path="url(#clip910)" style="stroke:#000000; stroke-linecap:round; stroke-linejoin:round; stroke-width:4; stroke-opacity:1; fill:none" points="1628.13,1423.18 1628.13,1404.28 "/>
<polyline clip-path="url(#clip910)" style="stroke:#000000; stroke-linecap:round; stroke-linejoin:round; stroke-width:4; stroke-opacity:1; fill:none" points="2352.76,1423.18 2352.76,1404.28 "/>
<path clip-path="url(#clip910)" d="M178.867 1454.1 Q175.256 1454.1 173.427 1457.66 Q171.621 1461.2 171.621 1468.33 Q171.621 1475.44 173.427 1479.01 Q175.256 1482.55 178.867 1482.55 Q182.501 1482.55 184.306 1479.01 Q186.135 1475.44 186.135 1468.33 Q186.135 1461.2 184.306 1457.66 Q182.501 1454.1 178.867 1454.1 M178.867 1450.39 Q184.677 1450.39 187.732 1455 Q190.811 1459.58 190.811 1468.33 Q190.811 1477.06 187.732 1481.67 Q184.677 1486.25 178.867 1486.25 Q173.056 1486.25 169.978 1481.67 Q166.922 1477.06 166.922 1468.33 Q166.922 1459.58 169.978 1455 Q173.056 1450.39 178.867 1450.39 Z" fill="#000000" fill-rule="nonzero" fill-opacity="1" /><path clip-path="url(#clip910)" d="M863.103 1481.64 L870.742 1481.64 L870.742 1455.28 L862.432 1456.95 L862.432 1452.69 L870.696 1451.02 L875.372 1451.02 L875.372 1481.64 L883.01 1481.64 L883.01 1485.58 L863.103 1485.58 L863.103 1481.64 Z" fill="#000000" fill-rule="nonzero" fill-opacity="1" /><path clip-path="url(#clip910)" d="M902.455 1454.1 Q898.844 1454.1 897.015 1457.66 Q895.209 1461.2 895.209 1468.33 Q895.209 1475.44 897.015 1479.01 Q898.844 1482.55 902.455 1482.55 Q906.089 1482.55 907.895 1479.01 Q909.723 1475.44 909.723 1468.33 Q909.723 1461.2 907.895 1457.66 Q906.089 1454.1 902.455 1454.1 M902.455 1450.39 Q908.265 1450.39 911.32 1455 Q914.399 1459.58 914.399 1468.33 Q914.399 1477.06 911.32 1481.67 Q908.265 1486.25 902.455 1486.25 Q896.645 1486.25 893.566 1481.67 Q890.51 1477.06 890.51 1468.33 Q890.51 1459.58 893.566 1455 Q896.645 1450.39 902.455 1450.39 Z" fill="#000000" fill-rule="nonzero" fill-opacity="1" /><path clip-path="url(#clip910)" d="M932.617 1454.1 Q929.006 1454.1 927.177 1457.66 Q925.371 1461.2 925.371 1468.33 Q925.371 1475.44 927.177 1479.01 Q929.006 1482.55 932.617 1482.55 Q936.251 1482.55 938.056 1479.01 Q939.885 1475.44 939.885 1468.33 Q939.885 1461.2 938.056 1457.66 Q936.251 1454.1 932.617 1454.1 M932.617 1450.39 Q938.427 1450.39 941.482 1455 Q944.561 1459.58 944.561 1468.33 Q944.561 1477.06 941.482 1481.67 Q938.427 1486.25 932.617 1486.25 Q926.806 1486.25 923.728 1481.67 Q920.672 1477.06 920.672 1468.33 Q920.672 1459.58 923.728 1455 Q926.806 1450.39 932.617 1450.39 Z" fill="#000000" fill-rule="nonzero" fill-opacity="1" /><path clip-path="url(#clip910)" d="M1591.82 1481.64 L1608.14 1481.64 L1608.14 1485.58 L1586.19 1485.58 L1586.19 1481.64 Q1588.86 1478.89 1593.44 1474.26 Q1598.05 1469.61 1599.23 1468.27 Q1601.47 1465.74 1602.35 1464.01 Q1603.25 1462.25 1603.25 1460.56 Q1603.25 1457.8 1601.31 1456.07 Q1599.39 1454.33 1596.29 1454.33 Q1594.09 1454.33 1591.63 1455.09 Q1589.2 1455.86 1586.42 1457.41 L1586.42 1452.69 Q1589.25 1451.55 1591.7 1450.97 Q1594.16 1450.39 1596.19 1450.39 Q1601.56 1450.39 1604.76 1453.08 Q1607.95 1455.77 1607.95 1460.26 Q1607.95 1462.39 1607.14 1464.31 Q1606.36 1466.2 1604.25 1468.8 Q1603.67 1469.47 1600.57 1472.69 Q1597.47 1475.88 1591.82 1481.64 Z" fill="#000000" fill-rule="nonzero" fill-opacity="1" /><path clip-path="url(#clip910)" d="M1627.95 1454.1 Q1624.34 1454.1 1622.51 1457.66 Q1620.71 1461.2 1620.71 1468.33 Q1620.71 1475.44 1622.51 1479.01 Q1624.34 1482.55 1627.95 1482.55 Q1631.59 1482.55 1633.39 1479.01 Q1635.22 1475.44 1635.22 1468.33 Q1635.22 1461.2 1633.39 1457.66 Q1631.59 1454.1 1627.95 1454.1 M1627.95 1450.39 Q1633.76 1450.39 1636.82 1455 Q1639.9 1459.58 1639.9 1468.33 Q1639.9 1477.06 1636.82 1481.67 Q1633.76 1486.25 1627.95 1486.25 Q1622.14 1486.25 1619.06 1481.67 Q1616.01 1477.06 1616.01 1468.33 Q1616.01 1459.58 1619.06 1455 Q1622.14 1450.39 1627.95 1450.39 Z" fill="#000000" fill-rule="nonzero" fill-opacity="1" /><path clip-path="url(#clip910)" d="M1658.11 1454.1 Q1654.5 1454.1 1652.67 1457.66 Q1650.87 1461.2 1650.87 1468.33 Q1650.87 1475.44 1652.67 1479.01 Q1654.5 1482.55 1658.11 1482.55 Q1661.75 1482.55 1663.55 1479.01 Q1665.38 1475.44 1665.38 1468.33 Q1665.38 1461.2 1663.55 1457.66 Q1661.75 1454.1 1658.11 1454.1 M1658.11 1450.39 Q1663.92 1450.39 1666.98 1455 Q1670.06 1459.58 1670.06 1468.33 Q1670.06 1477.06 1666.98 1481.67 Q1663.92 1486.25 1658.11 1486.25 Q1652.3 1486.25 1649.23 1481.67 Q1646.17 1477.06 1646.17 1468.33 Q1646.17 1459.58 1649.23 1455 Q1652.3 1450.39 1658.11 1450.39 Z" fill="#000000" fill-rule="nonzero" fill-opacity="1" /><path clip-path="url(#clip910)" d="M2326.52 1466.95 Q2329.87 1467.66 2331.75 1469.93 Q2333.65 1472.2 2333.65 1475.53 Q2333.65 1480.65 2330.13 1483.45 Q2326.61 1486.25 2320.13 1486.25 Q2317.95 1486.25 2315.64 1485.81 Q2313.35 1485.39 2310.89 1484.54 L2310.89 1480.02 Q2312.84 1481.16 2315.15 1481.74 Q2317.47 1482.32 2319.99 1482.32 Q2324.39 1482.32 2326.68 1480.58 Q2328.99 1478.84 2328.99 1475.53 Q2328.99 1472.48 2326.84 1470.77 Q2324.71 1469.03 2320.89 1469.03 L2316.86 1469.03 L2316.86 1465.19 L2321.08 1465.19 Q2324.53 1465.19 2326.36 1463.82 Q2328.18 1462.43 2328.18 1459.84 Q2328.18 1457.18 2326.29 1455.77 Q2324.41 1454.33 2320.89 1454.33 Q2318.97 1454.33 2316.77 1454.75 Q2314.57 1455.16 2311.93 1456.04 L2311.93 1451.88 Q2314.6 1451.14 2316.91 1450.77 Q2319.25 1450.39 2321.31 1450.39 Q2326.63 1450.39 2329.74 1452.83 Q2332.84 1455.23 2332.84 1459.35 Q2332.84 1462.22 2331.19 1464.21 Q2329.55 1466.18 2326.52 1466.95 Z" fill="#000000" fill-rule="nonzero" fill-opacity="1" /><path clip-path="url(#clip910)" d="M2352.51 1454.1 Q2348.9 1454.1 2347.07 1457.66 Q2345.27 1461.2 2345.27 1468.33 Q2345.27 1475.44 2347.07 1479.01 Q2348.9 1482.55 2352.51 1482.55 Q2356.15 1482.55 2357.95 1479.01 Q2359.78 1475.44 2359.78 1468.33 Q2359.78 1461.2 2357.95 1457.66 Q2356.15 1454.1 2352.51 1454.1 M2352.51 1450.39 Q2358.32 1450.39 2361.38 1455 Q2364.46 1459.58 2364.46 1468.33 Q2364.46 1477.06 2361.38 1481.67 Q2358.32 1486.25 2352.51 1486.25 Q2346.7 1486.25 2343.62 1481.67 Q2340.57 1477.06 2340.57 1468.33 Q2340.57 1459.58 2343.62 1455 Q2346.7 1450.39 2352.51 1450.39 Z" fill="#000000" fill-rule="nonzero" fill-opacity="1" /><path clip-path="url(#clip910)" d="M2382.67 1454.1 Q2379.06 1454.1 2377.23 1457.66 Q2375.43 1461.2 2375.43 1468.33 Q2375.43 1475.44 2377.23 1479.01 Q2379.06 1482.55 2382.67 1482.55 Q2386.31 1482.55 2388.11 1479.01 Q2389.94 1475.44 2389.94 1468.33 Q2389.94 1461.2 2388.11 1457.66 Q2386.31 1454.1 2382.67 1454.1 M2382.67 1450.39 Q2388.48 1450.39 2391.54 1455 Q2394.62 1459.58 2394.62 1468.33 Q2394.62 1477.06 2391.54 1481.67 Q2388.48 1486.25 2382.67 1486.25 Q2376.86 1486.25 2373.79 1481.67 Q2370.73 1477.06 2370.73 1468.33 Q2370.73 1459.58 2373.79 1455 Q2376.86 1450.39 2382.67 1450.39 Z" fill="#000000" fill-rule="nonzero" fill-opacity="1" /><path clip-path="url(#clip910)" d="M1264.87 1522.27 L1264.87 1532.4 L1276.94 1532.4 L1276.94 1536.95 L1264.87 1536.95 L1264.87 1556.3 Q1264.87 1560.66 1266.05 1561.9 Q1267.26 1563.14 1270.92 1563.14 L1276.94 1563.14 L1276.94 1568.04 L1270.92 1568.04 Q1264.14 1568.04 1261.56 1565.53 Q1258.98 1562.98 1258.98 1556.3 L1258.98 1536.95 L1254.69 1536.95 L1254.69 1532.4 L1258.98 1532.4 L1258.98 1522.27 L1264.87 1522.27 Z" fill="#000000" fill-rule="nonzero" fill-opacity="1" /><polyline clip-path="url(#clip910)" style="stroke:#000000; stroke-linecap:round; stroke-linejoin:round; stroke-width:4; stroke-opacity:1; fill:none" points="178.867,1423.18 178.867,47.2441 "/>
<polyline clip-path="url(#clip910)" style="stroke:#000000; stroke-linecap:round; stroke-linejoin:round; stroke-width:4; stroke-opacity:1; fill:none" points="178.867,1184.95 197.764,1184.95 "/>
<polyline clip-path="url(#clip910)" style="stroke:#000000; stroke-linecap:round; stroke-linejoin:round; stroke-width:4; stroke-opacity:1; fill:none" points="178.867,917.271 197.764,917.271 "/>
<polyline clip-path="url(#clip910)" style="stroke:#000000; stroke-linecap:round; stroke-linejoin:round; stroke-width:4; stroke-opacity:1; fill:none" points="178.867,649.59 197.764,649.59 "/>
<polyline clip-path="url(#clip910)" style="stroke:#000000; stroke-linecap:round; stroke-linejoin:round; stroke-width:4; stroke-opacity:1; fill:none" points="178.867,381.909 197.764,381.909 "/>
<polyline clip-path="url(#clip910)" style="stroke:#000000; stroke-linecap:round; stroke-linejoin:round; stroke-width:4; stroke-opacity:1; fill:none" points="178.867,114.229 197.764,114.229 "/>
<path clip-path="url(#clip910)" d="M50.9921 1185.4 L80.6679 1185.4 L80.6679 1189.34 L50.9921 1189.34 L50.9921 1185.4 Z" fill="#000000" fill-rule="nonzero" fill-opacity="1" /><path clip-path="url(#clip910)" d="M91.5706 1198.3 L99.2095 1198.3 L99.2095 1171.93 L90.8993 1173.6 L90.8993 1169.34 L99.1632 1167.67 L103.839 1167.67 L103.839 1198.3 L111.478 1198.3 L111.478 1202.23 L91.5706 1202.23 L91.5706 1198.3 Z" fill="#000000" fill-rule="nonzero" fill-opacity="1" /><path clip-path="url(#clip910)" d="M130.922 1170.75 Q127.311 1170.75 125.482 1174.31 Q123.677 1177.86 123.677 1184.99 Q123.677 1192.09 125.482 1195.66 Q127.311 1199.2 130.922 1199.2 Q134.556 1199.2 136.362 1195.66 Q138.191 1192.09 138.191 1184.99 Q138.191 1177.86 136.362 1174.31 Q134.556 1170.75 130.922 1170.75 M130.922 1167.05 Q136.732 1167.05 139.788 1171.65 Q142.867 1176.24 142.867 1184.99 Q142.867 1193.71 139.788 1198.32 Q136.732 1202.9 130.922 1202.9 Q125.112 1202.9 122.033 1198.32 Q118.978 1193.71 118.978 1184.99 Q118.978 1176.24 122.033 1171.65 Q125.112 1167.05 130.922 1167.05 Z" fill="#000000" fill-rule="nonzero" fill-opacity="1" /><path clip-path="url(#clip910)" d="M82.1494 917.722 L111.825 917.722 L111.825 921.657 L82.1494 921.657 L82.1494 917.722 Z" fill="#000000" fill-rule="nonzero" fill-opacity="1" /><path clip-path="url(#clip910)" d="M121.964 899.991 L140.32 899.991 L140.32 903.926 L126.246 903.926 L126.246 912.398 Q127.265 912.051 128.283 911.889 Q129.302 911.704 130.32 911.704 Q136.107 911.704 139.487 914.875 Q142.867 918.046 142.867 923.463 Q142.867 929.041 139.394 932.143 Q135.922 935.222 129.603 935.222 Q127.427 935.222 125.158 934.852 Q122.913 934.481 120.506 933.741 L120.506 929.041 Q122.589 930.176 124.811 930.731 Q127.033 931.287 129.51 931.287 Q133.515 931.287 135.853 929.18 Q138.191 927.074 138.191 923.463 Q138.191 919.852 135.853 917.745 Q133.515 915.639 129.51 915.639 Q127.635 915.639 125.76 916.055 Q123.908 916.472 121.964 917.352 L121.964 899.991 Z" fill="#000000" fill-rule="nonzero" fill-opacity="1" /><path clip-path="url(#clip910)" d="M130.922 635.389 Q127.311 635.389 125.482 638.953 Q123.677 642.495 123.677 649.625 Q123.677 656.731 125.482 660.296 Q127.311 663.838 130.922 663.838 Q134.556 663.838 136.362 660.296 Q138.191 656.731 138.191 649.625 Q138.191 642.495 136.362 638.953 Q134.556 635.389 130.922 635.389 M130.922 631.685 Q136.732 631.685 139.788 636.291 Q142.867 640.875 142.867 649.625 Q142.867 658.352 139.788 662.958 Q136.732 667.541 130.922 667.541 Q125.112 667.541 122.033 662.958 Q118.978 658.352 118.978 649.625 Q118.978 640.875 122.033 636.291 Q125.112 631.685 130.922 631.685 Z" fill="#000000" fill-rule="nonzero" fill-opacity="1" /><path clip-path="url(#clip910)" d="M121.964 364.629 L140.32 364.629 L140.32 368.564 L126.246 368.564 L126.246 377.037 Q127.265 376.689 128.283 376.527 Q129.302 376.342 130.32 376.342 Q136.107 376.342 139.487 379.513 Q142.867 382.685 142.867 388.101 Q142.867 393.68 139.394 396.782 Q135.922 399.861 129.603 399.861 Q127.427 399.861 125.158 399.49 Q122.913 399.12 120.506 398.379 L120.506 393.68 Q122.589 394.814 124.811 395.37 Q127.033 395.925 129.51 395.925 Q133.515 395.925 135.853 393.819 Q138.191 391.712 138.191 388.101 Q138.191 384.49 135.853 382.384 Q133.515 380.277 129.51 380.277 Q127.635 380.277 125.76 380.694 Q123.908 381.111 121.964 381.99 L121.964 364.629 Z" fill="#000000" fill-rule="nonzero" fill-opacity="1" /><path clip-path="url(#clip910)" d="M91.5706 127.573 L99.2095 127.573 L99.2095 101.208 L90.8993 102.874 L90.8993 98.6152 L99.1632 96.9486 L103.839 96.9486 L103.839 127.573 L111.478 127.573 L111.478 131.509 L91.5706 131.509 L91.5706 127.573 Z" fill="#000000" fill-rule="nonzero" fill-opacity="1" /><path clip-path="url(#clip910)" d="M130.922 100.027 Q127.311 100.027 125.482 103.592 Q123.677 107.134 123.677 114.263 Q123.677 121.37 125.482 124.935 Q127.311 128.476 130.922 128.476 Q134.556 128.476 136.362 124.935 Q138.191 121.37 138.191 114.263 Q138.191 107.134 136.362 103.592 Q134.556 100.027 130.922 100.027 M130.922 96.3236 Q136.732 96.3236 139.788 100.93 Q142.867 105.513 142.867 114.263 Q142.867 122.99 139.788 127.597 Q136.732 132.18 130.922 132.18 Q125.112 132.18 122.033 127.597 Q118.978 122.99 118.978 114.263 Q118.978 105.513 122.033 100.93 Q125.112 96.3236 130.922 96.3236 Z" fill="#000000" fill-rule="nonzero" fill-opacity="1" /><polyline clip-path="url(#clip912)" style="stroke:#009af9; stroke-linecap:round; stroke-linejoin:round; stroke-width:4; stroke-opacity:1; fill:none" points="178.867,1345.56 179.454,1345.56 180.042,1345.57 180.63,1345.58 181.217,1345.59 181.805,1345.61 182.393,1345.63 182.981,1345.66 183.568,1345.69 184.156,1345.72 184.744,1345.76 185.331,1345.8 185.919,1345.84 186.507,1345.88 187.094,1345.93 187.682,1345.98 188.27,1346.04 188.857,1346.09 189.445,1346.15 190.033,1346.22 190.621,1346.28 191.208,1346.35 191.796,1346.41 192.384,1346.48 192.971,1346.56 193.559,1346.63 194.147,1346.71 194.734,1346.78 195.322,1346.86 195.91,1346.94 196.498,1347.03 197.085,1347.11 197.673,1347.19 198.261,1347.28 198.848,1347.37 199.436,1347.45 200.024,1347.54 200.611,1347.63 201.199,1347.72 201.787,1347.81 202.374,1347.91 202.962,1348 203.55,1348.09 204.138,1348.19 204.725,1348.28 205.313,1348.38 205.901,1348.47 206.488,1348.57 207.076,1348.67 207.664,1348.76 208.251,1348.86 208.839,1348.96 209.427,1349.06 210.015,1349.15 210.602,1349.25 211.19,1349.35 211.778,1349.45 212.365,1349.55 212.953,1349.65 213.541,1349.75 214.128,1349.85 214.716,1349.95 215.304,1350.05 215.892,1350.15 216.479,1350.25 217.067,1350.35 217.655,1350.45 218.242,1350.55 218.83,1350.65 219.418,1350.75 220.005,1350.85 220.593,1350.95 221.181,1351.05 221.768,1351.15 222.356,1351.25 222.944,1351.35 223.532,1351.45 224.119,1351.55 224.707,1351.64 225.295,1351.74 225.882,1351.84 226.47,1351.94 227.058,1352.04 227.645,1352.14 228.233,1352.24 228.821,1352.34 229.409,1352.44 229.996,1352.53 230.584,1352.63 231.172,1352.73 231.759,1352.83 232.347,1352.93 232.935,1353.02 233.522,1353.12 234.11,1353.22 234.698,1353.32 235.285,1353.41 235.873,1353.51 236.461,1353.61 237.049,1353.7 237.636,1353.8 238.224,1353.9 238.812,1353.99 239.399,1354.09 239.987,1354.18 240.575,1354.28 241.162,1354.37 241.75,1354.47 242.338,1354.56 242.926,1354.66 243.513,1354.75 244.101,1354.85 244.689,1354.94 245.276,1355.04 245.864,1355.13 246.452,1355.22 247.039,1355.32 247.627,1355.41 248.215,1355.5 248.803,1355.6 249.39,1355.69 249.978,1355.78 250.566,1355.87 251.153,1355.97 251.741,1356.06 252.329,1356.15 252.916,1356.24 253.504,1356.33 254.092,1356.42 254.679,1356.52 255.267,1356.61 255.855,1356.7 256.443,1356.79 257.03,1356.88 257.618,1356.97 258.206,1357.06 258.793,1357.15 259.381,1357.24 259.969,1357.33 260.556,1357.42 261.144,1357.51 261.732,1357.59 262.32,1357.68 262.907,1357.77 263.495,1357.86 264.083,1357.95 264.67,1358.04 265.258,1358.12 265.846,1358.21 266.433,1358.3 267.021,1358.39 267.609,1358.47 268.196,1358.56 268.784,1358.65 269.372,1358.73 269.96,1358.82 270.547,1358.91 271.135,1358.99 271.723,1359.08 272.31,1359.16 272.898,1359.25 273.486,1359.33 274.073,1359.42 274.661,1359.5 275.249,1359.59 275.837,1359.67 276.424,1359.76 277.012,1359.84 277.6,1359.93 278.187,1360.01 278.775,1360.09 279.363,1360.18 279.95,1360.26 280.538,1360.34 281.126,1360.43 281.714,1360.51 282.301,1360.59 282.889,1360.67 283.477,1360.76 284.064,1360.84 284.652,1360.92 285.24,1361 285.827,1361.08 286.415,1361.17 287.003,1361.25 287.59,1361.33 288.178,1361.41 288.766,1361.49 289.354,1361.57 289.941,1361.65 290.529,1361.73 291.117,1361.81 291.704,1361.89 292.292,1361.97 292.88,1362.05 293.467,1362.13 294.055,1362.21 294.643,1362.29 295.231,1362.37 295.818,1362.45 296.406,1362.52 296.994,1362.6 297.581,1362.68 298.169,1362.76 298.757,1362.84 299.344,1362.91 299.932,1362.99 300.52,1363.07 301.108,1363.15 301.695,1363.22 302.283,1363.3 302.871,1363.38 303.458,1363.45 304.046,1363.53 304.634,1363.61 305.221,1363.68 305.809,1363.76 306.397,1363.83 306.984,1363.91 307.572,1363.99 308.16,1364.06 308.748,1364.14 309.335,1364.21 309.923,1364.29 310.511,1364.36 311.098,1364.43 311.686,1364.51 312.274,1364.58 312.861,1364.66 313.449,1364.73 314.037,1364.8 314.625,1364.88 315.212,1364.95 315.8,1365.03 316.388,1365.1 316.975,1365.17 317.563,1365.24 318.151,1365.32 318.738,1365.39 319.326,1365.46 319.914,1365.53 320.501,1365.61 321.089,1365.68 321.677,1365.75 322.265,1365.82 322.852,1365.89 323.44,1365.96 324.028,1366.04 324.615,1366.11 325.203,1366.18 325.791,1366.25 326.378,1366.32 326.966,1366.39 327.554,1366.46 328.142,1366.53 328.729,1366.6 329.317,1366.67 329.905,1366.74 330.492,1366.81 331.08,1366.88 331.668,1366.95 332.255,1367.01 332.843,1367.08 333.431,1367.15 334.019,1367.22 334.606,1367.29 335.194,1367.36 335.782,1367.43 336.369,1367.49 336.957,1367.56 337.545,1367.63 338.132,1367.7 338.72,1367.76 339.308,1367.83 339.895,1367.9 340.483,1367.97 341.071,1368.03 341.659,1368.1 342.246,1368.17 342.834,1368.23 343.422,1368.3 344.009,1368.37 344.597,1368.43 345.185,1368.5 345.772,1368.56 346.36,1368.63 346.948,1368.69 347.536,1368.76 348.123,1368.83 348.711,1368.89 349.299,1368.96 349.886,1369.02 350.474,1369.08 351.062,1369.15 351.649,1369.21 352.237,1369.28 352.825,1369.34 353.412,1369.41 354,1369.47 354.588,1369.53 355.176,1369.6 355.763,1369.66 356.351,1369.72 356.939,1369.79 357.526,1369.85 358.114,1369.91 358.702,1369.98 359.289,1370.04 359.877,1370.1 360.465,1370.16 361.053,1370.23 361.64,1370.29 362.228,1370.35 362.816,1370.41 363.403,1370.47 363.991,1370.54 364.579,1370.6 365.166,1370.66 365.754,1370.72 366.342,1370.78 366.93,1370.84 367.517,1370.9 368.105,1370.96 368.693,1371.02 369.28,1371.08 369.868,1371.14 370.456,1371.2 371.043,1371.26 371.631,1371.32 372.219,1371.38 372.806,1371.44 373.394,1371.5 373.982,1371.56 374.57,1371.62 375.157,1371.68 375.745,1371.74 376.333,1371.8 376.92,1371.86 377.508,1371.91 378.096,1371.97 378.683,1372.03 379.271,1372.09 379.859,1372.15 380.447,1372.21 381.034,1372.26 381.622,1372.32 382.21,1372.38 382.797,1372.44 383.385,1372.49 383.973,1372.55 384.56,1372.61 385.148,1372.66 385.736,1372.72 386.323,1372.78 386.911,1372.84 387.499,1372.89 388.087,1372.95 388.674,1373 389.262,1373.06 389.85,1373.12 390.437,1373.17 391.025,1373.23 391.613,1373.28 392.2,1373.34 392.788,1373.4 393.376,1373.45 393.964,1373.51 394.551,1373.56 395.139,1373.62 395.727,1373.67 396.314,1373.73 396.902,1373.78 397.49,1373.84 398.077,1373.89 398.665,1373.95 399.253,1374 399.841,1374.05 400.428,1374.11 401.016,1374.16 401.604,1374.22 402.191,1374.27 402.779,1374.32 403.367,1374.38 403.954,1374.43 404.542,1374.48 405.13,1374.54 405.717,1374.59 406.305,1374.64 406.893,1374.7 407.481,1374.75 408.068,1374.8 408.656,1374.85 409.244,1374.91 409.831,1374.96 410.419,1375.01 411.007,1375.06 411.594,1375.11 412.182,1375.17 412.77,1375.22 413.358,1375.27 413.945,1375.32 414.533,1375.37 415.121,1375.42 415.708,1375.47 416.296,1375.53 416.884,1375.58 417.471,1375.63 418.059,1375.68 418.647,1375.73 419.234,1375.78 419.822,1375.83 420.41,1375.88 420.998,1375.93 421.585,1375.98 422.173,1376.03 422.761,1376.07 423.348,1376.12 423.936,1376.17 424.524,1376.22 425.111,1376.27 425.699,1376.32 426.287,1376.37 426.875,1376.42 427.462,1376.47 428.05,1376.51 428.638,1376.56 429.225,1376.61 429.813,1376.66 430.401,1376.71 430.988,1376.76 431.576,1376.8 432.164,1376.85 432.752,1376.9 433.339,1376.95 433.927,1376.99 434.515,1377.04 435.102,1377.09 435.69,1377.14 436.278,1377.18 436.865,1377.23 437.453,1377.28 438.041,1377.33 438.628,1377.37 439.216,1377.42 439.804,1377.47 440.392,1377.51 440.979,1377.56 441.567,1377.61 442.155,1377.66 442.742,1377.7 443.33,1377.75 443.918,1377.8 444.505,1377.84 445.093,1377.89 445.681,1377.93 446.269,1377.98 446.856,1378.03 447.444,1378.07 448.032,1378.12 448.619,1378.16 449.207,1378.21 449.795,1378.26 450.382,1378.3 450.97,1378.35 451.558,1378.39 452.145,1378.44 452.733,1378.48 453.321,1378.53 453.909,1378.57 454.496,1378.62 455.084,1378.66 455.672,1378.71 456.259,1378.75 456.847,1378.8 457.435,1378.84 458.022,1378.88 458.61,1378.93 459.198,1378.97 459.786,1379.02 460.373,1379.06 460.961,1379.1 461.549,1379.14 462.136,1379.19 462.724,1379.23 463.312,1379.27 463.899,1379.32 464.487,1379.36 465.075,1379.4 465.663,1379.44 466.25,1379.48 466.838,1379.52 467.426,1379.57 468.013,1379.61 468.601,1379.65 469.189,1379.69 469.776,1379.73 470.364,1379.77 470.952,1379.81 471.539,1379.85 472.127,1379.89 472.715,1379.93 473.303,1379.97 473.89,1380.01 474.478,1380.05 475.066,1380.09 475.653,1380.13 476.241,1380.18 476.829,1380.22 477.416,1380.26 478.004,1380.3 478.592,1380.34 479.18,1380.38 479.767,1380.42 480.355,1380.46 480.943,1380.5 481.53,1380.54 482.118,1380.58 482.706,1380.62 483.293,1380.66 483.881,1380.7 484.469,1380.74 485.056,1380.78 485.644,1380.82 486.232,1380.86 486.82,1380.9 487.407,1380.94 487.995,1380.98 488.583,1381.02 489.17,1381.06 489.758,1381.1 490.346,1381.14 490.933,1381.18 491.521,1381.22 492.109,1381.26 492.697,1381.3 493.284,1381.34 493.872,1381.38 494.46,1381.42 495.047,1381.46 495.635,1381.5 496.223,1381.54 496.81,1381.58 497.398,1381.62 497.986,1381.65 498.574,1381.69 499.161,1381.73 499.749,1381.77 500.337,1381.81 500.924,1381.85 501.512,1381.89 502.1,1381.92 502.687,1381.96 503.275,1382 503.863,1382.03 504.45,1382.07 505.038,1382.11 505.626,1382.14 506.214,1382.18 506.801,1382.22 507.389,1382.25 507.977,1382.29 508.564,1382.32 509.152,1382.36 509.74,1382.39 510.327,1382.43 510.915,1382.46 511.503,1382.5 512.091,1382.53 512.678,1382.57 513.266,1382.6 513.854,1382.64 514.441,1382.67 515.029,1382.7 515.617,1382.74 516.204,1382.77 516.792,1382.81 517.38,1382.84 517.968,1382.88 518.555,1382.91 519.143,1382.95 519.731,1382.98 520.318,1383.02 520.906,1383.05 521.494,1383.09 522.081,1383.12 522.669,1383.15 523.257,1383.19 523.844,1383.22 524.432,1383.26 525.02,1383.29 525.608,1383.33 526.195,1383.36 526.783,1383.4 527.371,1383.43 527.958,1383.47 528.546,1383.5 529.134,1383.53 529.721,1383.57 530.309,1383.6 530.897,1383.64 531.485,1383.67 532.072,1383.71 532.66,1383.74 533.248,1383.78 533.835,1383.81 534.423,1383.84 535.011,1383.88 535.598,1383.91 536.186,1383.94 536.774,1383.98 537.361,1384.01 537.949,1384.04 538.537,1384.08 539.125,1384.11 539.712,1384.14 540.3,1384.17 540.888,1384.21 541.475,1384.23 542.063,1384.24 542.651,1384.22 543.238,1384.17 543.826,1384.09 544.414,1384 545.002,1383.87 545.589,1383.73 546.177,1383.56 546.765,1383.36 547.352,1383.14 547.94,1382.89 548.528,1382.61 549.115,1382.3 549.703,1381.96 550.291,1381.58 550.879,1381.16 551.466,1380.7 552.054,1380.18 552.642,1379.6 553.229,1378.95 553.817,1378.2 554.405,1377.35 554.992,1376.34 555.58,1375.1 556.168,1373.53 556.755,1264.52 557.343,1264.37 557.931,1264.19 558.519,1263.97 559.106,1263.71 559.694,1263.41 560.282,1263.05 560.869,1262.63 561.457,1262.13 562.045,1261.53 562.632,1260.8 563.22,1259.91 563.808,1258.76 564.396,1150.99 564.983,1151.02 565.571,1151.02 566.159,1150.98 566.746,1150.9 567.334,1150.77 567.922,1150.6 568.509,1150.37 569.097,1150.06 569.685,1149.66 570.272,1149.14 570.86,1148.47 571.448,1147.57 572.036,1146.31 572.623,1144.4 573.211,1036.62 573.799,1036.83 574.386,1037.01 574.974,1037.16 575.562,1037.28 576.149,1037.35 576.737,1037.38 577.325,1037.35 577.913,1037.26 578.5,1037.09 579.088,1036.82 579.676,1036.42 580.263,1035.83 580.851,1034.97 581.439,1033.66 582.026,925.614 582.614,926.014 583.202,926.389 583.79,926.736 584.377,927.053 584.965,927.337 585.553,927.584 586.14,927.785 586.728,927.933 587.316,928.016 587.903,928.023 588.491,927.933 589.079,927.718 589.666,927.324 590.254,926.669 590.842,925.59 591.43,817.632 592.017,818.211 592.605,818.768 593.193,819.3 593.78,819.807 594.368,820.285 594.956,820.73 595.543,821.139 596.131,821.502 596.719,821.813 597.307,822.061 597.894,822.234 598.482,822.311 599.07,822.264 599.657,822.041 600.245,821.559 600.833,820.66 601.42,713.09 602.008,713.839 602.596,714.57 603.183,715.278 603.771,715.964 604.359,716.626 604.947,717.26 605.534,717.862 606.122,718.427 606.71,718.948 607.297,719.418 607.885,719.827 608.473,720.162 609.06,720.404 609.648,720.522 610.236,720.468 610.824,720.162 611.411,719.448 611.999,612.251 612.587,613.166 613.174,614.063 613.762,614.943 614.35,615.803 614.937,616.642 615.525,617.458 616.113,618.247 616.701,619.006 617.288,619.729 617.876,620.411 618.464,621.045 619.051,621.623 619.639,622.131 620.227,622.554 620.814,622.861 621.402,623.011 621.99,622.937 622.577,622.509 623.165,515.464 623.753,516.538 624.341,517.599 624.928,518.644 625.516,519.672 626.104,520.684 626.691,521.677 627.279,522.649 627.867,523.599 628.454,524.52 629.042,525.411 629.63,526.263 630.218,527.072 630.805,527.831 631.393,528.531 631.981,529.157 632.568,529.691 633.156,530.1 633.744,530.333 634.331,530.309 634.919,529.863 635.507,423.28 636.094,424.505 636.682,425.718 637.27,426.918 637.858,428.106 638.445,429.279 639.033,430.437 639.621,431.578 640.208,432.7 640.796,433.8 641.384,434.876 641.971,435.925 642.559,436.942 643.147,437.923 643.735,438.861 644.322,439.751 644.91,440.582 645.498,441.338 646.085,441.993 646.673,442.515 647.261,442.858 647.848,442.931 648.436,335.958 649.024,337.33 649.612,338.692 650.199,340.046 650.787,341.389 651.375,342.721 651.962,344.043 652.55,345.351 653.138,346.646 653.725,347.926 654.313,349.19 654.901,350.434 655.488,351.658 656.076,352.858 656.664,354.033 657.252,355.177 657.839,356.286 658.427,357.357 659.015,358.379 659.602,359.341 660.19,360.227 660.778,361.019 661.365,361.687 661.953,362.184 662.541,362.419 663.129,362.226 663.716,254.305 664.304,255.811 664.892,257.311 665.479,258.804 666.067,260.289 666.655,261.767 667.242,263.236 667.83,264.697 668.418,266.148 669.005,267.589 669.593,269.018 670.181,270.435 670.769,271.839 671.356,273.228 671.944,274.601 672.532,275.957 673.119,277.292 673.707,278.606 674.295,279.893 674.882,281.151 675.47,282.375 676.058,283.558 676.646,284.693 677.233,285.771 677.821,286.778 678.409,287.69 678.996,288.48 679.584,289.099 680.172,289.468 680.759,182.63 681.347,184.253 681.935,185.872 682.523,187.486 683.11,189.094 683.698,190.697 684.286,192.295 684.873,193.887 685.461,195.473 686.049,197.052 686.636,198.624 687.224,200.188 687.812,201.744 688.399,203.292 688.987,204.83 689.575,206.358 690.163,207.875 690.75,209.38 691.338,210.873 691.926,212.351 692.513,213.814 693.101,215.259 693.689,216.684 694.276,218.087 694.864,219.464 695.452,220.812 696.04,222.126 696.627,223.4 697.215,224.627 697.803,225.796 698.39,226.893 698.978,227.895 699.566,228.774 700.153,229.484 700.741,229.937 701.329,123.793 701.916,125.513 702.504,127.229 703.092,128.942 703.68,130.653 704.267,132.359 704.855,134.062 705.443,135.762 706.03,137.458 706.618,139.151 707.206,140.839 707.793,142.524 708.381,144.204 708.969,145.88 709.557,147.551 710.144,149.218 710.732,150.879 711.32,152.536 711.907,154.187 712.495,155.832 713.083,157.471 713.67,159.103 714.258,160.729 714.846,162.348 715.434,163.959 716.021,165.561 716.609,167.154 717.197,168.738 717.784,170.311 718.372,171.872 718.96,173.42 719.547,174.955 720.135,176.473 720.723,177.975 721.31,179.458 721.898,180.921 722.486,182.359 723.074,183.768 723.661,185.144 724.249,186.48 724.837,187.769 725.424,189.002 726.012,190.165 726.6,191.241 727.187,192.199 727.775,192.991 728.363,193.544 728.951,193.708 729.538,87.4543 730.126,89.2338 730.714,91.0112 731.301,92.7865 731.889,94.5596 732.477,96.3307 733.064,98.0998 733.652,99.8667 734.24,101.632 734.828,103.395 735.415,105.156 736.003,106.915 736.591,108.672 737.178,110.427 737.766,112.181 738.354,113.933 738.941,115.682 739.529,117.431 740.117,119.177 740.704,120.922 741.292,122.665 741.88,124.407 742.468,126.147 743.055,127.886 743.643,129.623 744.231,131.359 744.818,133.094 745.406,134.828 745.994,136.56 746.581,138.292 747.169,140.022 747.757,141.752 748.345,143.481 748.932,145.209 749.52,146.937 750.108,148.664 750.695,150.391 751.283,152.117 751.871,153.844 752.458,155.57 753.046,157.297 753.634,159.023 754.221,160.75 754.809,162.478 755.397,164.206 755.985,165.935 756.572,167.665 757.16,169.396 757.748,171.129 758.335,172.863 758.923,174.598 759.511,176.336 760.098,178.075 760.686,179.816 761.274,181.559 761.862,183.305 762.449,185.053 763.037,186.803 763.625,188.557 764.212,190.313 764.8,192.072 765.388,193.835 765.975,195.6 766.563,197.369 767.151,199.141 767.739,200.916 768.326,202.695 768.914,204.477 769.502,206.262 770.089,208.051 770.677,209.844 771.265,211.639 771.852,213.438 772.44,215.24 773.028,217.046 773.615,218.854 774.203,220.666 774.791,222.48 775.379,224.298 775.966,226.118 776.554,227.94 777.142,229.765 777.729,231.592 778.317,233.421 778.905,235.252 779.492,237.084 780.08,238.918 780.668,240.752 781.256,242.588 781.843,244.425 782.431,246.262 783.019,248.1 783.606,249.939 784.194,251.777 784.782,253.615 785.369,255.454 785.957,257.292 786.545,259.129 787.132,260.966 787.72,262.803 788.308,264.638 788.896,266.472 789.483,268.306 790.071,270.138 790.659,271.968 791.246,273.797 791.834,275.624 792.422,277.45 793.009,279.273 793.597,281.095 794.185,282.914 794.773,284.731 795.36,286.545 795.948,288.358 796.536,290.168 797.123,291.975 797.711,293.78 798.299,295.583 798.886,297.383 799.474,299.181 800.062,300.976 800.65,302.768 801.237,304.558 801.825,306.344 802.413,308.128 803,309.909 803.588,311.688 804.176,313.463 804.763,315.235 805.351,317.004 805.939,318.769 806.526,320.532 807.114,322.291 807.702,324.046 808.29,325.798 808.877,327.547 809.465,329.292 810.053,331.034 810.64,332.773 811.228,334.509 811.816,336.241 812.403,337.97 812.991,339.695 813.579,341.417 814.167,343.136 814.754,344.852 815.342,346.564 815.93,348.272 816.517,349.978 817.105,351.68 817.693,353.378 818.28,355.073 818.868,356.765 819.456,358.453 820.043,360.137 820.631,361.819 821.219,363.496 821.807,365.171 822.394,366.841 822.982,368.509 823.57,370.172 824.157,371.833 824.745,373.49 825.333,375.143 825.92,376.793 826.508,378.439 827.096,380.082 827.684,381.722 828.271,383.358 828.859,384.99 829.447,386.619 830.034,388.245 830.622,389.867 831.21,391.486 831.797,393.101 832.385,394.712 832.973,396.321 833.561,397.925 834.148,399.526 834.736,401.124 835.324,402.718 835.911,404.309 836.499,405.896 837.087,407.48 837.674,409.06 838.262,410.637 838.85,412.211 839.437,413.78 840.025,415.347 840.613,416.91 841.201,418.469 841.788,420.025 842.376,421.577 842.964,423.126 843.551,424.671 844.139,426.213 844.727,427.751 845.314,429.286 845.902,430.818 846.49,432.345 847.078,433.87 847.665,435.391 848.253,436.908 848.841,438.422 849.428,439.932 850.016,441.439 850.604,442.942 851.191,444.442 851.779,445.939 852.367,447.432 852.954,448.921 853.542,450.407 854.13,451.889 854.718,453.368 855.305,454.843 855.893,456.315 856.481,457.783 857.068,459.248 857.656,460.709 858.244,462.167 858.831,463.621 859.419,465.071 860.007,466.518 860.595,467.962 861.182,469.402 861.77,470.838 862.358,472.271 862.945,473.7 863.533,475.126 864.121,476.548 864.708,477.966 865.296,479.381 865.884,480.793 866.472,482.2 867.059,483.604 867.647,485.005 868.235,486.402 868.822,487.795 869.41,489.185 869.998,490.571 870.585,491.953 871.173,493.331 871.761,494.706 872.348,496.077 872.936,497.445 873.524,498.809 874.112,500.169 874.699,501.525 875.287,502.878 875.875,504.226 876.462,505.572 877.05,506.913 877.638,508.251 878.225,509.585 878.813,510.915 879.401,512.241 879.989,513.563 880.576,514.882 881.164,516.197 881.752,517.508 882.339,518.815 882.927,520.117 883.515,521.416 884.102,522.711 884.69,524.002 885.278,525.289 885.865,526.572 886.453,527.851 887.041,529.125 887.629,530.395 888.216,531.661 888.804,532.923 889.392,534.18 889.979,535.433 890.567,536.682 891.155,537.926 891.742,539.165 892.33,540.4 892.918,541.63 893.506,542.856 894.093,544.077 894.681,545.293 895.269,546.504 895.856,547.71 896.444,548.911 897.032,550.107 897.619,551.298 898.207,552.484 898.795,553.665 899.383,554.84 899.97,556.01 900.558,557.174 901.146,558.333 901.733,559.486 902.321,560.632 902.909,561.773 903.496,562.907 904.084,564.035 904.672,565.157 905.259,566.271 905.847,567.378 906.435,568.478 907.023,569.57 907.61,570.654 908.198,571.73 908.786,572.797 909.373,573.856 909.961,574.904 910.549,575.943 911.136,576.971 911.724,577.987 912.312,578.992 912.9,579.985 913.487,580.964 914.075,581.929 914.663,582.878 915.25,583.81 915.838,584.724 916.426,585.616 917.013,586.486 917.601,587.33 918.189,588.146 918.776,588.929 919.364,589.675 919.952,590.377 920.54,591.026 921.127,591.61 921.715,592.114 922.303,592.515 922.89,592.783 923.478,592.856 924.066,592.631 924.653,591.908 925.241,484.464 925.829,485.59 926.417,486.703 927.004,487.802 927.592,488.886 928.18,489.953 928.767,491.004 929.355,492.035 929.943,493.043 930.53,494.027 931.118,494.982 931.706,495.903 932.294,496.786 932.881,497.627 933.469,498.414 934.057,499.139 934.644,499.785 935.232,500.326 935.82,500.727 936.407,500.934 936.995,500.843 937.583,393.945 938.17,395.22 938.758,396.485 939.346,397.739 939.934,398.98 940.521,400.209 941.109,401.424 941.697,402.624 942.284,403.807 942.872,404.971 943.46,406.114 944.047,407.233 944.635,408.325 945.223,409.386 945.811,410.412 946.398,411.395 946.986,412.331 947.574,413.21 948.161,414.014 948.749,414.72 949.337,415.296 949.924,415.698 950.512,415.839 951.1,308.82 951.688,310.236 952.275,311.644 952.863,313.044 953.451,314.435 954.038,315.816 954.626,317.186 955.214,318.546 955.801,319.893 956.389,321.227 956.977,322.546 957.564,323.848 958.152,325.133 958.74,326.397 959.328,327.639 959.915,328.854 960.503,330.041 961.091,331.195 961.678,332.311 962.266,333.378 962.854,334.387 963.441,335.324 964.029,336.171 964.617,336.901 965.205,337.467 965.792,337.788 966.38,337.718 966.968,229.969 967.555,231.515 968.143,233.055 968.731,234.589 969.318,236.117 969.906,237.637 970.494,239.15 971.081,240.656 971.669,242.152 972.257,243.64 972.845,245.118 973.432,246.586 974.02,248.042 974.608,249.486 975.195,250.915 975.783,252.33 976.371,253.729 976.958,255.109 977.546,256.469 978.134,257.805 978.722,259.114 979.309,260.392 979.897,261.634 980.485,262.833 981.072,263.981 981.66,265.068 982.248,266.076 982.835,266.98 983.423,267.747 984.011,268.322 984.599,268.596 985.186,162.512 985.774,164.168 986.362,165.819 986.949,167.467 987.537,169.109 988.125,170.747 988.712,172.38 989.3,174.008 989.888,175.63 990.475,177.247 991.063,178.857 991.651,180.461 992.239,182.059 992.826,183.649 993.414,185.231 994.002,186.805 994.589,188.37 995.177,189.925 995.765,191.47 996.352,193.003 996.94,194.525 997.528,196.033 998.116,197.526 998.703,199.002 999.291,200.459 999.879,201.895 1000.47,203.307 1001.05,204.692 1001.64,206.045 1002.23,207.362 1002.82,208.636 1003.4,209.856 1003.99,211.01 1004.58,212.081 1005.17,213.044 1005.76,213.862 1006.34,214.467 1006.93,214.736 1007.52,214.41 1008.11,108.154 1008.69,109.899 1009.28,111.642 1009.87,113.382 1010.46,115.119 1011.04,116.854 1011.63,118.585 1012.22,120.314 1012.81,122.04 1013.4,123.762 1013.98,125.482 1014.57,127.199 1015.16,128.912 1015.75,130.623 1016.33,132.329 1016.92,134.033 1017.51,135.733 1018.1,137.429 1018.68,139.122 1019.27,140.81 1019.86,142.495 1020.45,144.175 1021.04,145.852 1021.62,147.523 1022.21,149.19 1022.8,150.852 1023.39,152.509 1023.97,154.161 1024.56,155.806 1025.15,157.446 1025.74,159.079 1026.32,160.706 1026.91,162.324 1027.5,163.935 1028.09,165.538 1028.68,167.132 1029.26,168.717 1029.85,170.292 1030.44,171.856 1031.03,173.407 1031.61,174.944 1032.2,176.466 1032.79,177.97 1033.38,179.455 1033.97,180.918 1034.55,182.356 1035.14,183.768 1035.73,185.147 1036.32,186.488 1036.9,187.786 1037.49,189.029 1038.08,190.202 1038.67,191.289 1039.25,192.262 1039.84,193.083 1040.43,193.673 1041.02,193.898 1041.61,193.445 1042.19,87.6308 1042.78,89.4103 1043.37,91.1876 1043.96,92.9629 1044.54,94.736 1045.13,96.5071 1045.72,98.2762 1046.31,100.043 1046.89,101.808 1047.48,103.571 1048.07,105.332 1048.66,107.092 1049.25,108.849 1049.83,110.605 1050.42,112.358 1051.01,114.11 1051.6,115.86 1052.18,117.609 1052.77,119.356 1053.36,121.101 1053.95,122.845 1054.53,124.587 1055.12,126.328 1055.71,128.067 1056.3,129.805 1056.89,131.542 1057.47,133.278 1058.06,135.013 1058.65,136.746 1059.24,138.479 1059.82,140.21 1060.41,141.941 1061,143.672 1061.59,145.402 1062.17,147.131 1062.76,148.86 1063.35,150.588 1063.94,152.317 1064.53,154.045 1065.11,155.774 1065.7,157.503 1066.29,159.232 1066.88,160.962 1067.46,162.693 1068.05,164.424 1068.64,166.157 1069.23,167.89 1069.81,169.625 1070.4,171.362 1070.99,173.1 1071.58,174.839 1072.17,176.581 1072.75,178.325 1073.34,180.071 1073.93,181.819 1074.52,183.57 1075.1,185.323 1075.69,187.079 1076.28,188.838 1076.87,190.6 1077.45,192.365 1078.04,194.134 1078.63,195.906 1079.22,197.681 1079.81,199.459 1080.39,201.241 1080.98,203.026 1081.57,204.815 1082.16,206.607 1082.74,208.403 1083.33,210.202 1083.92,212.005 1084.51,213.81 1085.09,215.619 1085.68,217.431 1086.27,219.247 1086.86,221.065 1087.45,222.886 1088.03,224.71 1088.62,226.536 1089.21,228.364 1089.8,230.195 1090.38,232.027 1090.97,233.861 1091.56,235.697 1092.15,237.534 1092.73,239.372 1093.32,241.212 1093.91,243.052 1094.5,244.893 1095.09,246.734 1095.67,248.576 1096.26,250.418 1096.85,252.26 1097.44,254.101 1098.02,255.943 1098.61,257.784 1099.2,259.624 1099.79,261.464 1100.37,263.303 1100.96,265.141 1101.55,266.977 1102.14,268.812 1102.73,270.646 1103.31,272.478 1103.9,274.308 1104.49,276.136 1105.08,277.962 1105.66,279.786 1106.25,281.608 1106.84,283.429 1107.43,285.246 1108.01,287.062 1108.6,288.876 1109.19,290.687 1109.78,292.495 1110.37,294.302 1110.95,296.105 1111.54,297.907 1112.13,299.705 1112.72,301.501 1113.3,303.293 1113.89,305.083 1114.48,306.87 1115.07,308.654 1115.65,310.435 1116.24,312.212 1116.83,313.986 1117.42,315.757 1118.01,317.524 1118.59,319.288 1119.18,321.05 1119.77,322.807 1120.36,324.562 1120.94,326.314 1121.53,328.062 1122.12,329.807 1122.71,331.548 1123.29,333.287 1123.88,335.022 1124.47,336.753 1125.06,338.482 1125.65,340.206 1126.23,341.928 1126.82,343.646 1127.41,345.361 1128,347.072 1128.58,348.78 1129.17,350.485 1129.76,352.186 1130.35,353.883 1130.93,355.577 1131.52,357.268 1132.11,358.955 1132.7,360.639 1133.29,362.319 1133.87,363.996 1134.46,365.669 1135.05,367.339 1135.64,369.006 1136.22,370.668 1136.81,372.328 1137.4,373.984 1137.99,375.636 1138.57,377.285 1139.16,378.931 1139.75,380.573 1140.34,382.212 1140.93,383.847 1141.51,385.478 1142.1,387.106 1142.69,388.731 1143.28,390.352 1143.86,391.97 1144.45,393.584 1145.04,395.195 1145.63,396.802 1146.22,398.406 1146.8,400.006 1147.39,401.603 1147.98,403.196 1148.57,404.786 1149.15,406.372 1149.74,407.955 1150.33,409.534 1150.92,411.11 1151.5,412.682 1152.09,414.251 1152.68,415.816 1153.27,417.378 1153.86,418.936 1154.44,420.491 1155.03,422.042 1155.62,423.59 1156.21,425.134 1156.79,426.675 1157.38,428.212 1157.97,429.746 1158.56,431.276 1159.14,432.803 1159.73,434.327 1160.32,435.846 1160.91,437.363 1161.5,438.876 1162.08,440.385 1162.67,441.891 1163.26,443.393 1163.85,444.892 1164.43,446.387 1165.02,447.879 1165.61,449.367 1166.2,450.852 1166.78,452.333 1167.37,453.811 1167.96,455.285 1168.55,456.756 1169.14,458.223 1169.72,459.687 1170.31,461.147 1170.9,462.604 1171.49,464.057 1172.07,465.506 1172.66,466.952 1173.25,468.395 1173.84,469.834 1174.42,471.269 1175.01,472.701 1175.6,474.129 1176.19,475.553 1176.78,476.974 1177.36,478.392 1177.95,479.806 1178.54,481.216 1179.13,482.622 1179.71,484.025 1180.3,485.425 1180.89,486.821 1181.48,488.213 1182.06,489.602 1182.65,490.987 1183.24,492.368 1183.83,493.746 1184.42,495.12 1185,496.49 1185.59,497.857 1186.18,499.22 1186.77,500.579 1187.35,501.935 1187.94,503.287 1188.53,504.635 1189.12,505.979 1189.7,507.32 1190.29,508.656 1190.88,509.989 1191.47,511.318 1192.06,512.644 1192.64,513.965 1193.23,515.282 1193.82,516.596 1194.41,517.905 1194.99,519.211 1195.58,520.512 1196.17,521.81 1196.76,523.103 1197.34,524.392 1197.93,525.678 1198.52,526.959 1199.11,528.236 1199.7,529.508 1200.28,530.777 1200.87,532.041 1201.46,533.301 1202.05,534.556 1202.63,535.807 1203.22,537.054 1203.81,538.296 1204.4,539.534 1204.98,540.767 1205.57,541.996 1206.16,543.22 1206.75,544.439 1207.34,545.654 1207.92,546.864 1208.51,548.069 1209.1,549.269 1209.69,550.464 1210.27,551.654 1210.86,552.839 1211.45,554.018 1212.04,555.192 1212.62,556.361 1213.21,557.524 1213.8,558.681 1214.39,559.833 1214.98,560.978 1215.56,562.117 1216.15,563.25 1216.74,564.376 1217.33,565.496 1217.91,566.608 1218.5,567.713 1219.09,568.811 1219.68,569.901 1220.26,570.982 1220.85,572.056 1221.44,573.12 1222.03,574.175 1222.62,575.22 1223.2,576.256 1223.79,577.281 1224.38,578.294 1224.97,579.296 1225.55,580.285 1226.14,581.26 1226.73,582.221 1227.32,583.165 1227.9,584.092 1228.49,585 1229.08,585.886 1229.67,586.749 1230.26,587.585 1230.84,588.392 1231.43,589.166 1232.02,589.9 1232.61,590.588 1233.19,591.22 1233.78,591.783 1234.37,592.26 1234.96,592.629 1235.54,592.849 1236.13,592.849 1236.72,592.514 1237.31,591.572 1237.9,485.283 1238.48,486.402 1239.07,487.509 1239.66,488.6 1240.25,489.676 1240.83,490.735 1241.42,491.777 1242.01,492.798 1242.6,493.795 1243.18,494.766 1243.77,495.705 1244.36,496.61 1244.95,497.473 1245.54,498.29 1246.12,499.05 1246.71,499.74 1247.3,500.342 1247.89,500.824 1248.47,501.145 1249.06,501.233 1249.65,500.943 1250.24,394.721 1250.83,395.992 1251.41,397.252 1252,398.5 1252.59,399.736 1253.18,400.959 1253.76,402.167 1254.35,403.36 1254.94,404.535 1255.53,405.691 1256.11,406.824 1256.7,407.931 1257.29,409.01 1257.88,410.057 1258.47,411.066 1259.05,412.03 1259.64,412.944 1260.23,413.794 1260.82,414.561 1261.4,415.217 1261.99,415.728 1262.58,416.036 1263.17,416.025 1263.75,309.705 1264.34,311.117 1264.93,312.522 1265.52,313.917 1266.11,315.303 1266.69,316.679 1267.28,318.044 1267.87,319.398 1268.46,320.739 1269.04,322.065 1269.63,323.377 1270.22,324.671 1270.81,325.946 1271.39,327.2 1271.98,328.43 1272.57,329.633 1273.16,330.805 1273.75,331.942 1274.33,333.036 1274.92,334.079 1275.51,335.056 1276.1,335.954 1276.68,336.751 1277.27,337.414 1277.86,337.881 1278.45,338.048 1279.03,337.706 1279.62,230.858 1280.21,232.402 1280.8,233.939 1281.39,235.469 1281.97,236.994 1282.56,238.51 1283.15,240.02 1283.74,241.521 1284.32,243.014 1284.91,244.497 1285.5,245.97 1286.09,247.432 1286.67,248.883 1287.26,250.32 1287.85,251.743 1288.44,253.15 1289.03,254.54 1289.61,255.911 1290.2,257.261 1290.79,258.585 1291.38,259.88 1291.96,261.141 1292.55,262.364 1293.14,263.541 1293.73,264.663 1294.31,265.716 1294.9,266.68 1295.49,267.527 1296.08,268.214 1296.67,268.671 1297.25,161.836 1297.84,163.493 1298.43,165.146 1299.02,166.795 1299.6,168.44 1300.19,170.08 1300.78,171.715 1301.37,173.345 1301.95,174.97 1302.54,176.59 1303.13,178.203 1303.72,179.81 1304.31,181.411 1304.89,183.004 1305.48,184.59 1306.07,186.168 1306.66,187.737 1307.24,189.297 1307.83,190.847 1308.42,192.386 1309.01,193.913 1309.59,195.427 1310.18,196.928 1310.77,198.412 1311.36,199.879 1311.95,201.325 1312.53,202.749 1313.12,204.147 1313.71,205.516 1314.3,206.851 1314.88,208.147 1315.47,209.395 1316.06,210.583 1316.65,211.696 1317.23,212.715 1317.82,213.61 1318.41,214.331 1319,214.783 1319.59,214.799 1320.17,107.411 1320.76,109.158 1321.35,110.902 1321.94,112.643 1322.52,114.381 1323.11,116.117 1323.7,117.85 1324.29,119.58 1324.87,121.307 1325.46,123.031 1326.05,124.752 1326.64,126.47 1327.23,128.184 1327.81,129.896 1328.4,131.604 1328.99,133.309 1329.58,135.01 1330.16,136.708 1330.75,138.402 1331.34,140.093 1331.93,141.779 1332.51,143.461 1333.1,145.139 1333.69,146.813 1334.28,148.482 1334.87,150.146 1335.45,151.805 1336.04,153.458 1336.63,155.106 1337.22,156.749 1337.8,158.384 1338.39,160.014 1338.98,161.635 1339.57,163.249 1340.15,164.855 1340.74,166.453 1341.33,168.042 1341.92,169.621 1342.51,171.189 1343.09,172.746 1343.68,174.289 1344.27,175.817 1344.86,177.328 1345.44,178.821 1346.03,180.292 1346.62,181.74 1347.21,183.163 1347.79,184.555 1348.38,185.912 1348.97,187.228 1349.56,188.494 1350.15,189.696 1350.73,190.819 1351.32,191.84 1351.91,192.727 1352.5,193.419 1353.08,193.808 1353.67,193.681 1354.26,86.8742 1354.85,88.6546 1355.43,90.4329 1356.02,92.2091 1356.61,93.9831 1357.2,95.7551 1357.79,97.5251 1358.37,99.293 1358.96,101.059 1359.55,102.823 1360.14,104.585 1360.72,106.345 1361.31,108.103 1361.9,109.86 1362.49,111.614 1363.08,113.367 1363.66,115.118 1364.25,116.867 1364.84,118.615 1365.43,120.361 1366.01,122.106 1366.6,123.849 1367.19,125.59 1367.78,127.33 1368.36,129.069 1368.95,130.807 1369.54,132.543 1370.13,134.278 1370.72,136.012 1371.3,137.746 1371.89,139.478 1372.48,141.21 1373.07,142.94 1373.65,144.671 1374.24,146.401 1374.83,148.13 1375.42,149.859 1376,151.588 1376.59,153.317 1377.18,155.046 1377.77,156.775 1378.36,158.505 1378.94,160.235 1379.53,161.966 1380.12,163.697 1380.71,165.43 1381.29,167.164 1381.88,168.899 1382.47,170.635 1383.06,172.373 1383.64,174.113 1384.23,175.854 1384.82,177.598 1385.41,179.344 1386,181.092 1386.58,182.842 1387.17,184.596 1387.76,186.351 1388.35,188.11 1388.93,189.872 1389.52,191.637 1390.11,193.405 1390.7,195.177 1391.28,196.951 1391.87,198.73 1392.46,200.511 1393.05,202.296 1393.64,204.085 1394.22,205.877 1394.81,207.672 1395.4,209.471 1395.99,211.273 1396.57,213.079 1397.16,214.887 1397.75,216.699 1398.34,218.514 1398.92,220.332 1399.51,222.153 1400.1,223.977 1400.69,225.803 1401.28,227.632 1401.86,229.463 1402.45,231.295 1403.04,233.13 1403.63,234.966 1404.21,236.803 1404.8,238.642 1405.39,240.481 1405.98,242.322 1406.56,244.163 1407.15,246.005 1407.74,247.847 1408.33,249.69 1408.92,251.532 1409.5,253.375 1410.09,255.217 1410.68,257.059 1411.27,258.9 1411.85,260.741 1412.44,262.58 1413.03,264.419 1413.62,266.256 1414.2,268.092 1414.79,269.927 1415.38,271.76 1415.97,273.591 1416.56,275.42 1417.14,277.247 1417.73,279.073 1418.32,280.896 1418.91,282.717 1419.49,284.536 1420.08,286.353 1420.67,288.168 1421.26,289.98 1421.84,291.79 1422.43,293.597 1423.02,295.402 1423.61,297.204 1424.2,299.004 1424.78,300.801 1425.37,302.595 1425.96,304.386 1426.55,306.174 1427.13,307.959 1427.72,309.741 1428.31,311.52 1428.9,313.295 1429.48,315.067 1430.07,316.836 1430.66,318.602 1431.25,320.365 1431.84,322.124 1432.42,323.88 1433.01,325.633 1433.6,327.382 1434.19,329.128 1434.77,330.871 1435.36,332.611 1435.95,334.347 1436.54,336.08 1437.12,337.81 1437.71,339.536 1438.3,341.259 1438.89,342.979 1439.48,344.695 1440.06,346.408 1440.65,348.117 1441.24,349.823 1441.83,351.525 1442.41,353.224 1443,354.92 1443.59,356.612 1444.18,358.3 1444.76,359.985 1445.35,361.667 1445.94,363.345 1446.53,365.02 1447.12,366.691 1447.7,368.359 1448.29,370.023 1448.88,371.684 1449.47,373.341 1450.05,374.995 1450.64,376.645 1451.23,378.292 1451.82,379.936 1452.4,381.576 1452.99,383.212 1453.58,384.845 1454.17,386.475 1454.76,388.101 1455.34,389.723 1455.93,391.342 1456.52,392.958 1457.11,394.57 1457.69,396.179 1458.28,397.784 1458.87,399.385 1459.46,400.983 1460.04,402.578 1460.63,404.169 1461.22,405.757 1461.81,407.341 1462.4,408.921 1462.98,410.499 1463.57,412.072 1464.16,413.642 1464.75,415.209 1465.33,416.772 1465.92,418.332 1466.51,419.888 1467.1,421.44 1467.69,422.99 1468.27,424.535 1468.86,426.077 1469.45,427.616 1470.04,429.151 1470.62,430.683 1471.21,432.211 1471.8,433.736 1472.39,435.257 1472.97,436.775 1473.56,438.289 1474.15,439.8 1474.74,441.307 1475.33,442.81 1475.91,444.311 1476.5,445.807 1477.09,447.301 1477.68,448.79 1478.26,450.276 1478.85,451.759 1479.44,453.238 1480.03,454.714 1480.61,456.186 1481.2,457.654 1481.79,459.119 1482.38,460.581 1482.97,462.039 1483.55,463.493 1484.14,464.944 1484.73,466.392 1485.32,467.835 1485.9,469.276 1486.49,470.712 1487.08,472.145 1487.67,473.575 1488.25,475.001 1488.84,476.423 1489.43,477.842 1490.02,479.257 1490.61,480.669 1491.19,482.077 1491.78,483.481 1492.37,484.882 1492.96,486.28 1493.54,487.673 1494.13,489.063 1494.72,490.45 1495.31,491.832 1495.89,493.212 1496.48,494.587 1497.07,495.959 1497.66,497.327 1498.25,498.691 1498.83,500.052 1499.42,501.409 1500.01,502.762 1500.6,504.112 1501.18,505.458 1501.77,506.8 1502.36,508.138 1502.95,509.472 1503.53,510.803 1504.12,512.13 1504.71,513.453 1505.3,514.771 1505.89,516.086 1506.47,517.398 1507.06,518.705 1507.65,520.008 1508.24,521.307 1508.82,522.602 1509.41,523.893 1510,525.179 1510.59,526.462 1511.17,527.741 1511.76,529.015 1512.35,530.285 1512.94,531.551 1513.53,532.812 1514.11,534.069 1514.7,535.322 1515.29,536.571 1515.88,537.815 1516.46,539.054 1517.05,540.289 1517.64,541.519 1518.23,542.745 1518.81,543.966 1519.4,545.183 1519.99,546.395 1520.58,547.602 1521.17,548.804 1521.75,550.001 1522.34,551.193 1522.93,552.38 1523.52,553.561 1524.1,554.738 1524.69,555.908 1525.28,557.073 1525.87,558.233 1526.45,559.386 1527.04,560.534 1527.63,561.676 1528.22,562.811 1528.81,563.94 1529.39,565.062 1529.98,566.177 1530.57,567.286 1531.16,568.386 1531.74,569.479 1532.33,570.564 1532.92,571.64 1533.51,572.708 1534.09,573.767 1534.68,574.816 1535.27,575.855 1535.86,576.885 1536.45,577.903 1537.03,578.909 1537.62,579.903 1538.21,580.884 1538.8,581.85 1539.38,582.801 1539.97,583.735 1540.56,584.65 1541.15,585.545 1541.73,586.417 1542.32,587.264 1542.91,588.083 1543.5,588.87 1544.09,589.62 1544.67,590.328 1545.26,590.982 1545.85,591.573 1546.44,592.087 1547.02,592.501 1547.61,592.785 1548.2,592.881 1548.79,592.696 1549.37,592.043 1549.96,484.848 1550.55,485.972 1551.14,487.084 1551.73,488.181 1552.31,489.263 1552.9,490.329 1553.49,491.378 1554.08,492.407 1554.66,493.414 1555.25,494.395 1555.84,495.348 1556.43,496.266 1557.01,497.146 1557.6,497.982 1558.19,498.765 1558.78,499.484 1559.37,500.124 1559.95,500.656 1560.54,501.046 1561.13,501.235 1561.72,501.118 1562.3,394.228 1562.89,395.502 1563.48,396.767 1564.07,398.02 1564.65,399.26 1565.24,400.488 1565.83,401.703 1566.42,402.902 1567.01,404.084 1567.59,405.247 1568.18,406.389 1568.77,407.507 1569.36,408.598 1569.94,409.658 1570.53,410.682 1571.12,411.664 1571.71,412.598 1572.29,413.475 1572.88,414.277 1573.47,414.98 1574.06,415.551 1574.65,415.948 1575.23,416.081 1575.82,309.157 1576.41,310.573 1577,311.98 1577.58,313.379 1578.17,314.769 1578.76,316.149 1579.35,317.518 1579.94,318.877 1580.52,320.223 1581.11,321.555 1581.7,322.873 1582.29,324.174 1582.87,325.456 1583.46,326.719 1584.05,327.959 1584.64,329.172 1585.22,330.356 1585.81,331.508 1586.4,332.62 1586.99,333.684 1587.58,334.688 1588.16,335.619 1588.75,336.458 1589.34,337.178 1589.93,337.731 1590.51,338.031 1591.1,337.924 1591.69,230.261 1592.28,231.806 1592.86,233.346 1593.45,234.879 1594.04,236.405 1594.63,237.925 1595.22,239.438 1595.8,240.942 1596.39,242.438 1596.98,243.925 1597.57,245.402 1598.15,246.869 1598.74,248.324 1599.33,249.766 1599.92,251.195 1600.5,252.608 1601.09,254.005 1601.68,255.384 1602.27,256.742 1602.86,258.076 1603.44,259.383 1604.03,260.658 1604.62,261.897 1605.21,263.093 1605.79,264.237 1606.38,265.319 1606.97,266.32 1607.56,267.216 1608.14,267.972 1608.73,268.531 1609.32,268.777 1609.91,162.853 1610.5,164.508 1611.08,166.159 1611.67,167.805 1612.26,169.447 1612.85,171.084 1613.43,172.716 1614.02,174.343 1614.61,175.965 1615.2,177.58 1615.78,179.19 1616.37,180.793 1616.96,182.389 1617.55,183.978 1618.14,185.559 1618.72,187.132 1619.31,188.696 1619.9,190.249 1620.49,191.792 1621.07,193.324 1621.66,194.844 1622.25,196.35 1622.84,197.841 1623.42,199.315 1624.01,200.769 1624.6,202.202 1625.19,203.611 1625.78,204.992 1626.36,206.34 1626.95,207.652 1627.54,208.919 1628.13,210.132 1628.71,211.276 1629.3,212.335 1629.89,213.282 1630.48,214.078 1631.06,214.649 1631.65,214.863 1632.24,214.424 1632.83,108.483 1633.42,110.228 1634,111.97 1634.59,113.71 1635.18,115.446 1635.77,117.18 1636.35,118.911 1636.94,120.64 1637.53,122.365 1638.12,124.087 1638.7,125.806 1639.29,127.522 1639.88,129.235 1640.47,130.944 1641.06,132.651 1641.64,134.353 1642.23,136.053 1642.82,137.748 1643.41,139.44 1643.99,141.128 1644.58,142.812 1645.17,144.491 1645.76,146.167 1646.34,147.837 1646.93,149.503 1647.52,151.164 1648.11,152.82 1648.7,154.47 1649.28,156.115 1649.87,157.753 1650.46,159.385 1651.05,161.01 1651.63,162.626 1652.22,164.236 1652.81,165.837 1653.4,167.429 1653.98,169.012 1654.57,170.585 1655.16,172.146 1655.75,173.694 1656.34,175.228 1656.92,176.746 1657.51,178.246 1658.1,179.726 1658.69,181.184 1659.27,182.616 1659.86,184.021 1660.45,185.392 1661.04,186.725 1661.62,188.011 1662.21,189.24 1662.8,190.395 1663.39,191.46 1663.98,192.403 1664.56,193.18 1665.15,193.703 1665.74,193.814 1666.33,86.1857 1666.91,87.9669 1667.5,89.746 1668.09,91.523 1668.68,93.2978 1669.26,95.0706 1669.85,96.8414 1670.44,98.6101 1671.03,100.377 1671.62,102.142 1672.2,103.904 1672.79,105.665 1673.38,107.424 1673.97,109.181 1674.55,110.936 1675.14,112.69 1675.73,114.442 1676.32,116.192 1676.9,117.94 1677.49,119.687 1678.08,121.432 1678.67,123.175 1679.26,124.917 1679.84,126.658 1680.43,128.397 1681.02,130.135 1681.61,131.872 1682.19,133.608 1682.78,135.342 1683.37,137.076 1683.96,138.809 1684.55,140.541 1685.13,142.272 1685.72,144.002 1686.31,145.732 1686.9,147.462 1687.48,149.191 1688.07,150.92 1688.66,152.649 1689.25,154.378 1689.83,156.107 1690.42,157.836 1691.01,159.566 1691.6,161.297 1692.19,163.028 1692.77,164.76 1693.36,166.494 1693.95,168.228 1694.54,169.964 1695.12,171.701 1695.71,173.44 1696.3,175.181 1696.89,176.924 1697.47,178.669 1698.06,180.416 1698.65,182.166 1699.24,183.918 1699.83,185.673 1700.41,187.43 1701,189.191 1701.59,190.955 1702.18,192.722 1702.76,194.492 1703.35,196.265 1703.94,198.042 1704.53,199.822 1705.11,201.606 1705.7,203.393 1706.29,205.184 1706.88,206.978 1707.47,208.776 1708.05,210.577 1708.64,212.381 1709.23,214.188 1709.82,215.999 1710.4,217.813 1710.99,219.63 1711.58,221.45 1712.17,223.272 1712.75,225.098 1713.34,226.925 1713.93,228.755 1714.52,230.587 1715.11,232.421 1715.69,234.256 1716.28,236.093 1716.87,237.931 1717.46,239.771 1718.04,241.611 1718.63,243.452 1719.22,245.294 1719.81,247.136 1720.39,248.978 1720.98,250.821 1721.57,252.663 1722.16,254.506 1722.75,256.348 1723.33,258.189 1723.92,260.03 1724.51,261.87 1725.1,263.709 1725.68,265.547 1726.27,267.383 1726.86,269.219 1727.45,271.052 1728.03,272.884 1728.62,274.714 1729.21,276.542 1729.8,278.368 1730.39,280.192 1730.97,282.014 1731.56,283.834 1732.15,285.652 1732.74,287.467 1733.32,289.28 1733.91,291.091 1734.5,292.9 1735.09,294.705 1735.67,296.509 1736.26,298.309 1736.85,300.107 1737.44,301.903 1738.03,303.695 1738.61,305.484 1739.2,307.27 1739.79,309.054 1740.38,310.834 1740.96,312.61 1741.55,314.384 1742.14,316.154 1742.73,317.921 1743.31,319.684 1743.9,321.445 1744.49,323.202 1745.08,324.956 1745.67,326.707 1746.25,328.455 1746.84,330.199 1747.43,331.94 1748.02,333.677 1748.6,335.412 1749.19,337.143 1749.78,338.87 1750.37,340.594 1750.95,342.315 1751.54,344.033 1752.13,345.747 1752.72,347.457 1753.31,349.165 1753.89,350.868 1754.48,352.569 1755.07,354.265 1755.66,355.959 1756.24,357.649 1756.83,359.335 1757.42,361.018 1758.01,362.698 1758.59,364.374 1759.18,366.046 1759.77,367.715 1760.36,369.381 1760.95,371.043 1761.53,372.702 1762.12,374.357 1762.71,376.008 1763.3,377.657 1763.88,379.301 1764.47,380.943 1765.06,382.581 1765.65,384.215 1766.23,385.846 1766.82,387.473 1767.41,389.097 1768,390.717 1768.59,392.334 1769.17,393.948 1769.76,395.558 1770.35,397.164 1770.94,398.767 1771.52,400.367 1772.11,401.963 1772.7,403.555 1773.29,405.144 1773.87,406.73 1774.46,408.311 1775.05,409.89 1775.64,411.465 1776.23,413.036 1776.81,414.604 1777.4,416.169 1777.99,417.73 1778.58,419.287 1779.16,420.841 1779.75,422.392 1780.34,423.939 1780.93,425.482 1781.51,427.022 1782.1,428.559 1782.69,430.092 1783.28,431.621 1783.87,433.147 1784.45,434.67 1785.04,436.189 1785.63,437.705 1786.22,439.217 1786.8,440.725 1787.39,442.23 1787.98,443.732 1788.57,445.23 1789.15,446.724 1789.74,448.215 1790.33,449.703 1790.92,451.187 1791.51,452.667 1792.09,454.144 1792.68,455.618 1793.27,457.088 1793.86,458.554 1794.44,460.017 1795.03,461.476 1795.62,462.932 1796.21,464.384 1796.8,465.833 1797.38,467.278 1797.97,468.72 1798.56,470.158 1799.15,471.592 1799.73,473.023 1800.32,474.451 1800.91,475.874 1801.5,477.295 1802.08,478.711 1802.67,480.124 1803.26,481.534 1803.85,482.94 1804.44,484.342 1805.02,485.74 1805.61,487.135 1806.2,488.527 1806.79,489.915 1807.37,491.299 1807.96,492.679 1808.55,494.056 1809.14,495.43 1809.72,496.799 1810.31,498.165 1810.9,499.527 1811.49,500.886 1812.08,502.24 1812.66,503.591 1813.25,504.939 1813.84,506.282 1814.43,507.622 1815.01,508.958 1815.6,510.29 1816.19,511.618 1816.78,512.942 1817.36,514.263 1817.95,515.579 1818.54,516.892 1819.13,518.2 1819.72,519.505 1820.3,520.806 1820.89,522.102 1821.48,523.395 1822.07,524.683 1822.65,525.967 1823.24,527.247 1823.83,528.523 1824.42,529.795 1825,531.062 1825.59,532.326 1826.18,533.584 1826.77,534.839 1827.36,536.089 1827.94,537.335 1828.53,538.576 1829.12,539.813 1829.71,541.045 1830.29,542.272 1830.88,543.495 1831.47,544.714 1832.06,545.927 1832.64,547.136 1833.23,548.34 1833.82,549.54 1834.41,550.734 1835,551.922 1835.58,553.106 1836.17,554.284 1836.76,555.457 1837.35,556.624 1837.93,557.786 1838.52,558.942 1839.11,560.092 1839.7,561.236 1840.28,562.374 1840.87,563.505 1841.46,564.63 1842.05,565.748 1842.64,566.859 1843.22,567.962 1843.81,569.058 1844.4,570.146 1844.99,571.226 1845.57,572.297 1846.16,573.359 1846.75,574.412 1847.34,575.455 1847.92,576.489 1848.51,577.511 1849.1,578.522 1849.69,579.521 1850.28,580.506 1850.86,581.479 1851.45,582.436 1852.04,583.376 1852.63,584.299 1853.21,585.202 1853.8,586.083 1854.39,586.94 1854.98,587.771 1855.56,588.57 1856.15,589.335 1856.74,590.06 1857.33,590.736 1857.92,591.353 1858.5,591.899 1859.09,592.354 1859.68,592.694 1860.27,592.872 1860.85,592.81 1861.44,592.372 1862.03,484.41 1862.62,485.54 1863.2,486.657 1863.79,487.759 1864.38,488.847 1864.97,489.92 1865.56,490.975 1866.14,492.012 1866.73,493.028 1867.32,494.02 1867.91,494.984 1868.49,495.916 1869.08,496.812 1869.67,497.665 1870.26,498.47 1870.84,499.215 1871.43,499.888 1872.02,500.465 1872.61,500.915 1873.2,501.191 1873.78,501.211 1874.37,393.733 1874.96,395.011 1875.55,396.28 1876.13,397.537 1876.72,398.783 1877.31,400.016 1877.9,401.235 1878.48,402.44 1879.07,403.629 1879.66,404.8 1880.25,405.951 1880.84,407.078 1881.42,408.18 1882.01,409.252 1882.6,410.291 1883.19,411.29 1883.77,412.244 1884.36,413.144 1884.95,413.978 1885.54,414.722 1886.12,415.348 1886.71,415.82 1887.3,416.069 1887.89,415.959 1888.48,310.027 1889.06,311.438 1889.65,312.84 1890.24,314.234 1890.83,315.617 1891.41,316.991 1892,318.354 1892.59,319.704 1893.18,321.042 1893.76,322.366 1894.35,323.673 1894.94,324.963 1895.53,326.234 1896.12,327.483 1896.7,328.707 1897.29,329.903 1897.88,331.068 1898.47,332.196 1899.05,333.279 1899.64,334.308 1900.23,335.269 1900.82,336.147 1901.41,336.917 1901.99,337.542 1902.58,337.952 1903.17,338.029 1903.76,337.511 1904.34,231.21 1904.93,232.752 1905.52,234.288 1906.11,235.817 1906.69,237.339 1907.28,238.855 1907.87,240.362 1908.46,241.862 1909.05,243.352 1909.63,244.833 1910.22,246.304 1910.81,247.763 1911.4,249.211 1911.98,250.645 1912.57,252.064 1913.16,253.468 1913.75,254.854 1914.33,256.22 1914.92,257.564 1915.51,258.882 1916.1,260.17 1916.69,261.423 1917.27,262.637 1917.86,263.802 1918.45,264.91 1919.04,265.945 1919.62,266.885 1920.21,267.7 1920.8,268.343 1921.39,268.73 1921.97,162.213 1922.56,163.87 1923.15,165.522 1923.74,167.17 1924.33,168.814 1924.91,170.453 1925.5,172.087 1926.09,173.716 1926.68,175.339 1927.26,176.957 1927.85,178.569 1928.44,180.175 1929.03,181.774 1929.61,183.366 1930.2,184.95 1930.79,186.526 1931.38,188.093 1931.97,189.651 1932.55,191.198 1933.14,192.734 1933.73,194.259 1934.32,195.77 1934.9,197.267 1935.49,198.748 1936.08,200.21 1936.67,201.651 1937.25,203.07 1937.84,204.462 1938.43,205.824 1939.02,207.15 1939.61,208.436 1940.19,209.671 1940.78,210.844 1941.37,211.938 1941.96,212.931 1942.54,213.793 1943.13,214.462 1943.72,214.835 1944.31,214.708 1944.89,107.809 1945.48,109.555 1946.07,111.298 1946.66,113.038 1947.25,114.776 1947.83,116.511 1948.42,118.243 1949.01,119.973 1949.6,121.699 1950.18,123.422 1950.77,125.143 1951.36,126.86 1951.95,128.574 1952.53,130.285 1953.12,131.992 1953.71,133.696 1954.3,135.397 1954.89,137.094 1955.47,138.787 1956.06,140.476 1956.65,142.162 1957.24,143.843 1957.82,145.52 1958.41,147.193 1959,148.861 1959.59,150.524 1960.17,152.181 1960.76,153.834 1961.35,155.481 1961.94,157.121 1962.53,158.756 1963.11,160.383 1963.7,162.003 1964.29,163.615 1964.88,165.219 1965.46,166.815 1966.05,168.402 1966.64,169.979 1967.23,171.544 1967.81,173.098 1968.4,174.637 1968.99,176.162 1969.58,177.669 1970.17,179.157 1970.75,180.624 1971.34,182.066 1971.93,183.482 1972.52,184.867 1973.1,186.215 1973.69,187.521 1974.28,188.773 1974.87,189.959 1975.45,191.061 1976.04,192.055 1976.63,192.904 1977.22,193.538 1977.81,193.835 1978.39,193.531 1978.98,87.2794 1979.57,89.0593 1980.16,90.8371 1980.74,92.6127 1981.33,94.3863 1981.92,96.1579 1982.51,97.9274 1983.09,99.6949 1983.68,101.46 1984.27,103.224 1984.86,104.985 1985.45,106.745 1986.03,108.503 1986.62,110.259 1987.21,112.013 1987.8,113.765 1988.38,115.516 1988.97,117.265 1989.56,119.012 1990.15,120.758 1990.73,122.502 1991.32,124.245 1991.91,125.986 1992.5,127.726 1993.09,129.464 1993.67,131.202 1994.26,132.938 1994.85,134.673 1995.44,136.407 1996.02,138.14 1996.61,139.872 1997.2,141.603 1997.79,143.334 1998.37,145.064 1998.96,146.794 1999.55,148.523 2000.14,150.252 2000.73,151.981 2001.31,153.71 2001.9,155.439 2002.49,157.168 2003.08,158.898 2003.66,160.628 2004.25,162.359 2004.84,164.091 2005.43,165.824 2006.01,167.558 2006.6,169.293 2007.19,171.03 2007.78,172.769 2008.37,174.509 2008.95,176.251 2009.54,177.995 2010.13,179.741 2010.72,181.49 2011.3,183.241 2011.89,184.995 2012.48,186.751 2013.07,188.511 2013.66,190.273 2014.24,192.039 2014.83,193.808 2015.42,195.58 2016.01,197.356 2016.59,199.135 2017.18,200.917 2017.77,202.703 2018.36,204.492 2018.94,206.285 2019.53,208.081 2020.12,209.881 2020.71,211.684 2021.3,213.49 2021.88,215.299 2022.47,217.112 2023.06,218.928 2023.65,220.747 2024.23,222.568 2024.82,224.393 2025.41,226.219 2026,228.048 2026.58,229.88 2027.17,231.713 2027.76,233.547 2028.35,235.384 2028.94,237.221 2029.52,239.06 2030.11,240.9 2030.7,242.741 2031.29,244.582 2031.87,246.424 2032.46,248.267 2033.05,250.109 2033.64,251.952 2034.22,253.794 2034.81,255.636 2035.4,257.478 2035.99,259.319 2036.58,261.159 2037.16,262.999 2037.75,264.837 2038.34,266.674 2038.93,268.51 2039.51,270.344 2040.1,272.177 2040.69,274.008 2041.28,275.836 2041.86,277.663 2042.45,279.488 2043.04,281.311 2043.63,283.132 2044.22,284.95 2044.8,286.766 2045.39,288.58 2045.98,290.392 2046.57,292.202 2047.15,294.008 2047.74,295.813 2048.33,297.614 2048.92,299.413 2049.5,301.21 2050.09,303.003 2050.68,304.794 2051.27,306.581 2051.86,308.365 2052.44,310.147 2053.03,311.925 2053.62,313.699 2054.21,315.471 2054.79,317.239 2055.38,319.004 2055.97,320.765 2056.56,322.524 2057.14,324.279 2057.73,326.031 2058.32,327.78 2058.91,329.526 2059.5,331.268 2060.08,333.007 2060.67,334.742 2061.26,336.475 2061.85,338.203 2062.43,339.929 2063.02,341.651 2063.61,343.37 2064.2,345.085 2064.78,346.797 2065.37,348.506 2065.96,350.211 2066.55,351.912 2067.14,353.611 2067.72,355.305 2068.31,356.997 2068.9,358.684 2069.49,360.369 2070.07,362.049 2070.66,363.727 2071.25,365.401 2071.84,367.071 2072.42,368.738 2073.01,370.401 2073.6,372.062 2074.19,373.718 2074.78,375.371 2075.36,377.021 2075.95,378.667 2076.54,380.309 2077.13,381.949 2077.71,383.584 2078.3,385.216 2078.89,386.845 2079.48,388.47 2080.06,390.092 2080.65,391.71 2081.24,393.325 2081.83,394.937 2082.42,396.544 2083,398.149 2083.59,399.749 2084.18,401.347 2084.77,402.941 2085.35,404.531 2085.94,406.118 2086.53,407.701 2087.12,409.281 2087.7,410.857 2088.29,412.43 2088.88,413.999 2089.47,415.565 2090.06,417.127 2090.64,418.686 2091.23,420.242 2091.82,421.793 2092.41,423.342 2092.99,424.887 2093.58,426.428 2094.17,427.966 2094.76,429.5 2095.34,431.031 2095.93,432.559 2096.52,434.083 2097.11,435.603 2097.7,437.12 2098.28,438.633 2098.87,440.143 2099.46,441.65 2100.05,443.152 2100.63,444.652 2101.22,446.148 2101.81,447.64 2102.4,449.129 2102.98,450.614 2103.57,452.096 2104.16,453.574 2104.75,455.049 2105.34,456.521 2105.92,457.988 2106.51,459.453 2107.1,460.913 2107.69,462.37 2108.27,463.824 2108.86,465.274 2109.45,466.721 2110.04,468.164 2110.62,469.603 2111.21,471.039 2111.8,472.471 2112.39,473.9 2112.98,475.325 2113.56,476.747 2114.15,478.165 2114.74,479.579 2115.33,480.99 2115.91,482.397 2116.5,483.801 2117.09,485.201 2117.68,486.597 2118.27,487.99 2118.85,489.379 2119.44,490.765 2120.03,492.147 2120.62,493.525 2121.2,494.9 2121.79,496.271 2122.38,497.638 2122.97,499.002 2123.55,500.362 2124.14,501.718 2124.73,503.07 2125.32,504.419 2125.91,505.764 2126.49,507.105 2127.08,508.442 2127.67,509.776 2128.26,511.105 2128.84,512.431 2129.43,513.753 2130.02,515.071 2130.61,516.385 2131.19,517.696 2131.78,519.002 2132.37,520.304 2132.96,521.602 2133.55,522.896 2134.13,524.186 2134.72,525.472 2135.31,526.754 2135.9,528.031 2136.48,529.304 2137.07,530.574 2137.66,531.838 2138.25,533.099 2138.83,534.355 2139.42,535.607 2140.01,536.854 2140.6,538.097 2141.19,539.336 2141.77,540.57 2142.36,541.799 2142.95,543.024 2143.54,544.244 2144.12,545.459 2144.71,546.67 2145.3,547.876 2145.89,549.077 2146.47,550.273 2147.06,551.464 2147.65,552.65 2148.24,553.83 2148.83,555.005 2149.41,556.174 2150,557.338 2150.59,558.496 2151.18,559.648 2151.76,560.795 2152.35,561.935 2152.94,563.069 2153.53,564.196 2154.11,565.317 2154.7,566.43 2155.29,567.537 2155.88,568.636 2156.47,569.727 2157.05,570.81 2157.64,571.884 2158.23,572.95 2158.82,574.006 2159.4,575.054 2159.99,576.091 2160.58,577.117 2161.17,578.133 2161.75,579.136 2162.34,580.127 2162.93,581.105 2163.52,582.068 2164.11,583.015 2164.69,583.945 2165.28,584.856 2165.87,585.746 2166.46,586.612 2167.04,587.453 2167.63,588.265 2168.22,589.044 2168.81,589.786 2169.39,590.482 2169.98,591.123 2170.57,591.698 2171.16,592.191 2171.75,592.579 2172.33,592.827 2172.92,592.868 2173.51,592.599 2174.1,591.787 2174.68,485.105 2175.27,486.227 2175.86,487.335 2176.45,488.429 2177.03,489.507 2177.62,490.57 2178.21,491.614 2178.8,492.638 2179.39,493.64 2179.97,494.615 2180.56,495.56 2181.15,496.47 2181.74,497.341 2182.32,498.166 2182.91,498.935 2183.5,499.638 2184.09,500.255 2184.67,500.759 2185.26,501.11 2185.85,501.241 2186.44,501.027 2187.03,394.519 2187.61,395.791 2188.2,397.053 2188.79,398.303 2189.38,399.541 2189.96,400.766 2190.55,401.977 2191.14,403.172 2191.73,404.35 2192.31,405.509 2192.9,406.646 2193.49,407.758 2194.08,408.842 2194.67,409.894 2195.25,410.91 2195.84,411.881 2196.43,412.804 2197.02,413.665 2197.6,414.447 2198.19,415.123 2198.78,415.659 2199.37,416.005 2199.95,416.058 2200.54,309.48 2201.13,310.894 2201.72,312.3 2202.31,313.697 2202.89,315.084 2203.48,316.462 2204.07,317.829 2204.66,319.184 2205.24,320.527 2205.83,321.856 2206.42,323.17 2207.01,324.467 2207.59,325.746 2208.18,327.003 2208.77,328.237 2209.36,329.444 2209.95,330.622 2210.53,331.765 2211.12,332.867 2211.71,333.918 2212.3,334.907 2212.88,335.819 2213.47,336.634 2214.06,337.321 2214.65,337.825 2215.23,338.05 2215.82,337.813 2216.41,230.613 2217,232.157 2217.59,233.695 2218.17,235.227 2218.76,236.752 2219.35,238.27 2219.94,239.781 2220.52,241.284 2221.11,242.778 2221.7,244.262 2222.29,245.737 2222.87,247.201 2223.46,248.653 2224.05,250.093 2224.64,251.518 2225.23,252.928 2225.81,254.321 2226.4,255.695 2226.99,257.048 2227.58,258.376 2228.16,259.676 2228.75,260.944 2229.34,262.174 2229.93,263.358 2230.52,264.49 2231.1,265.555 2231.69,266.535 2232.28,267.402 2232.87,268.119 2233.45,268.62 2234.04,268.77 2234.63,163.23 2235.22,164.884 2235.8,166.534 2236.39,168.18 2236.98,169.82 2237.57,171.456 2238.16,173.087 2238.74,174.713 2239.33,176.333 2239.92,177.948 2240.51,179.556 2241.09,181.157 2241.68,182.752 2242.27,184.339 2242.86,185.918 2243.44,187.489 2244.03,189.05 2244.62,190.602 2245.21,192.142 2245.8,193.672 2246.38,195.188 2246.97,196.691 2247.56,198.178 2248.15,199.648 2248.73,201.097 2249.32,202.525 2249.91,203.928 2250.5,205.302 2251.08,206.642 2251.67,207.945 2252.26,209.201 2252.85,210.399 2253.44,211.526 2254.02,212.562 2254.61,213.479 2255.2,214.232 2255.79,214.735 2256.37,214.839 2256.96,107.134 2257.55,108.881 2258.14,110.625 2258.72,112.367 2259.31,114.106 2259.9,115.842 2260.49,117.575 2261.08,119.305 2261.66,121.033 2262.25,122.757 2262.84,124.479 2263.43,126.197 2264.01,127.912 2264.6,129.625 2265.19,131.333 2265.78,133.039 2266.36,134.741 2266.95,136.439 2267.54,138.134 2268.13,139.825 2268.72,141.512 2269.3,143.194 2269.89,144.873 2270.48,146.547 2271.07,148.217 2271.65,149.882 2272.24,151.542 2272.83,153.196 2273.42,154.845 2274,156.488 2274.59,158.125 2275.18,159.756 2275.77,161.378 2276.36,162.994 2276.94,164.601 2277.53,166.2 2278.12,167.79 2278.71,169.371 2279.29,170.941 2279.88,172.499 2280.47,174.045 2281.06,175.575 2281.64,177.089 2282.23,178.585 2282.82,180.06 2283.41,181.512 2284,182.939 2284.58,184.337 2285.17,185.7 2285.76,187.022 2286.35,188.297 2286.93,189.51 2287.52,190.647 2288.11,191.686 2288.7,192.597 2289.28,193.325 2289.87,193.773 2290.46,193.752 2291.05,86.5915 2291.64,88.3722 2292.22,90.1508 2292.81,91.9273 2293.4,93.7017 2293.99,95.4741 2294.57,97.2444 2295.16,99.0126 2295.75,100.779 2296.34,102.543 2296.92,104.305 2297.51,106.066 2298.1,107.824 2298.69,109.581 2299.28,111.336 2299.86,113.089 2300.45,114.84 2301.04,116.59 2301.63,118.338 2302.21,120.084 2302.8,121.829 2303.39,123.572 2303.98,125.314 2304.56,127.054 2305.15,128.793 2305.74,130.531 2306.33,132.267 2306.92,134.003 2307.5,135.737 2308.09,137.471 2308.68,139.203 2309.27,140.935 2309.85,142.666 2310.44,144.396 2311.03,146.126 2311.62,147.856 2312.2,149.585 2312.79,151.314 2313.38,153.042 2313.97,154.771 2314.56,156.501 2315.14,158.23 2315.73,159.96 2316.32,161.691 2316.91,163.422 2317.49,165.155 2318.08,166.888 2318.67,168.623 2319.26,170.359 2319.84,172.097 2320.43,173.837 2321.02,175.578 2321.61,177.321 2322.2,179.067 2322.78,180.814 2323.37,182.565 2323.96,184.317 2324.55,186.073 2325.13,187.831 2325.72,189.593 2326.31,191.357 2326.9,193.125 2327.48,194.895 2328.07,196.67 2328.66,198.447 2329.25,200.228 2329.84,202.013 2330.42,203.801 2331.01,205.592 2331.6,207.387 2332.19,209.185 2332.77,210.987 2333.36,212.792 2333.95,214.6 2334.54,216.412 2335.13,218.226 2335.71,220.044 2336.3,221.865 2336.89,223.688 2337.48,225.514 2338.06,227.342 2338.65,229.172 2339.24,231.005 2339.83,232.839 2340.41,234.674 2341,236.512 2341.59,238.35 2342.18,240.19 2342.77,242.03 2343.35,243.871 2343.94,245.713 2344.53,247.555 2345.12,249.398 2345.7,251.24 2346.29,253.083 2346.88,254.925 2347.47,256.767 2348.05,258.608 2348.64,260.449 2349.23,262.289 2349.82,264.128 2350.41,265.965 2350.99,267.802 2351.58,269.636 2352.17,271.47 2352.76,273.302 "/>
<path clip-path="url(#clip910)" d="M1973.81 1377.32 L2280.29 1377.32 L2280.29 1273.64 L1973.81 1273.64  Z" fill="#ffffff" fill-rule="evenodd" fill-opacity="1"/>
<polyline clip-path="url(#clip910)" style="stroke:#000000; stroke-linecap:round; stroke-linejoin:round; stroke-width:4; stroke-opacity:1; fill:none" points="1973.81,1377.32 2280.29,1377.32 2280.29,1273.64 1973.81,1273.64 1973.81,1377.32 "/>
<polyline clip-path="url(#clip910)" style="stroke:#009af9; stroke-linecap:round; stroke-linejoin:round; stroke-width:4; stroke-opacity:1; fill:none" points="1997.96,1325.48 2142.89,1325.48 "/>
<path clip-path="url(#clip910)" d="M2167.04 1332.52 L2167.04 1316.83 L2171.3 1316.83 L2171.3 1332.36 Q2171.3 1336.04 2172.74 1337.89 Q2174.17 1339.72 2177.04 1339.72 Q2180.49 1339.72 2182.48 1337.52 Q2184.5 1335.32 2184.5 1331.53 L2184.5 1316.83 L2188.75 1316.83 L2188.75 1342.76 L2184.5 1342.76 L2184.5 1338.77 Q2182.94 1341.13 2180.88 1342.29 Q2178.85 1343.43 2176.14 1343.43 Q2171.67 1343.43 2169.36 1340.65 Q2167.04 1337.87 2167.04 1332.52 M2177.76 1316.2 L2177.76 1316.2 Z" fill="#000000" fill-rule="nonzero" fill-opacity="1" /><path clip-path="url(#clip910)" d="M2197.13 1306.74 L2206.95 1306.74 L2206.95 1310.05 L2201.39 1310.05 L2201.39 1345.7 L2206.95 1345.7 L2206.95 1349.01 L2197.13 1349.01 L2197.13 1306.74 Z" fill="#000000" fill-rule="nonzero" fill-opacity="1" /><path clip-path="url(#clip910)" d="M2220.65 1338.82 L2236.97 1338.82 L2236.97 1342.76 L2215.03 1342.76 L2215.03 1338.82 Q2217.69 1336.07 2222.27 1331.44 Q2226.88 1326.78 2228.06 1325.44 Q2230.31 1322.92 2231.19 1321.18 Q2232.09 1319.42 2232.09 1317.73 Q2232.09 1314.98 2230.14 1313.24 Q2228.22 1311.51 2225.12 1311.51 Q2222.92 1311.51 2220.47 1312.27 Q2218.04 1313.03 2215.26 1314.58 L2215.26 1309.86 Q2218.08 1308.73 2220.54 1308.15 Q2222.99 1307.57 2225.03 1307.57 Q2230.4 1307.57 2233.59 1310.26 Q2236.79 1312.94 2236.79 1317.43 Q2236.79 1319.56 2235.98 1321.48 Q2235.19 1323.38 2233.08 1325.97 Q2232.5 1326.64 2229.4 1329.86 Q2226.3 1333.06 2220.65 1338.82 Z" fill="#000000" fill-rule="nonzero" fill-opacity="1" /><path clip-path="url(#clip910)" d="M2256.14 1306.74 L2256.14 1349.01 L2246.32 1349.01 L2246.32 1345.7 L2251.86 1345.7 L2251.86 1310.05 L2246.32 1310.05 L2246.32 1306.74 L2256.14 1306.74 Z" fill="#000000" fill-rule="nonzero" fill-opacity="1" /></svg>
