<?xml version="1.0" encoding="utf-8"?>
<svg xmlns="http://www.w3.org/2000/svg" xmlns:xlink="http://www.w3.org/1999/xlink" width="600" height="400" viewBox="0 0 2400 1600">
<defs>
  <clipPath id="clip970">
    <rect x="0" y="0" width="2400" height="1600"/>
  </clipPath>
</defs>
<path clip-path="url(#clip970)" d="M0 1600 L2400 1600 L2400 0 L0 0  Z" fill="#ffffff" fill-rule="evenodd" fill-opacity="1"/>
<defs>
  <clipPath id="clip971">
    <rect x="480" y="0" width="1681" height="1600"/>
  </clipPath>
</defs>
<path clip-path="url(#clip970)" d="M178.867 1423.18 L2352.76 1423.18 L2352.76 47.2441 L178.867 47.2441  Z" fill="#ffffff" fill-rule="evenodd" fill-opacity="1"/>
<defs>
  <clipPath id="clip972">
    <rect x="178" y="47" width="2175" height="1377"/>
  </clipPath>
</defs>
<polyline clip-path="url(#clip972)" style="stroke:#000000; stroke-linecap:round; stroke-linejoin:round; stroke-width:2; stroke-opacity:0.1; fill:none" points="178.867,1423.18 178.867,47.2441 "/>
<polyline clip-path="url(#clip972)" style="stroke:#000000; stroke-linecap:round; stroke-linejoin:round; stroke-width:2; stroke-opacity:0.1; fill:none" points="903.496,1423.18 903.496,47.2441 "/>
<polyline clip-path="url(#clip972)" style="stroke:#000000; stroke-linecap:round; stroke-linejoin:round; stroke-width:2; stroke-opacity:0.1; fill:none" points="1628.13,1423.18 1628.13,47.2441 "/>
<polyline clip-path="url(#clip972)" style="stroke:#000000; stroke-linecap:round; stroke-linejoin:round; stroke-width:2; stroke-opacity:0.1; fill:none" points="2352.76,1423.18 2352.76,47.2441 "/>
<polyline clip-path="url(#clip972)" style="stroke:#000000; stroke-linecap:round; stroke-linejoin:round; stroke-width:2; stroke-opacity:0.1; fill:none" points="178.867,1278.13 2352.76,1278.13 "/>
<polyline clip-path="url(#clip972)" style="stroke:#000000; stroke-linecap:round; stroke-linejoin:round; stroke-width:2; stroke-opacity:0.1; fill:none" points="178.867,1016.71 2352.76,1016.71 "/>
<polyline clip-path="url(#clip972)" style="stroke:#000000; stroke-linecap:round; stroke-linejoin:round; stroke-width:2; stroke-opacity:0.1; fill:none" points="178.867,755.286 2352.76,755.286 "/>
<polyline clip-path="url(#clip972)" style="stroke:#000000; stroke-linecap:round; stroke-linejoin:round; stroke-width:2; stroke-opacity:0.1; fill:none" points="178.867,493.862 2352.76,493.862 "/>
<polyline clip-path="url(#clip972)" style="stroke:#000000; stroke-linecap:round; stroke-linejoin:round; stroke-width:2; stroke-opacity:0.1; fill:none" points="178.867,232.439 2352.76,232.439 "/>
<polyline clip-path="url(#clip970)" style="stroke:#000000; stroke-linecap:round; stroke-linejoin:round; stroke-width:4; stroke-opacity:1; fill:none" points="178.867,1423.18 2352.76,1423.18 "/>
<polyline clip-path="url(#clip970)" style="stroke:#000000; stroke-linecap:round; stroke-linejoin:round; stroke-width:4; stroke-opacity:1; fill:none" points="178.867,1423.18 178.867,1404.28 "/>
<polyline clip-path="url(#clip970)" style="stroke:#000000; stroke-linecap:round; stroke-linejoin:round; stroke-width:4; stroke-opacity:1; fill:none" points="903.496,1423.18 903.496,1404.28 "/>
<polyline clip-path="url(#clip970)" style="stroke:#000000; stroke-linecap:round; stroke-linejoin:round; stroke-width:4; stroke-opacity:1; fill:none" points="1628.13,1423.18 1628.13,1404.28 "/>
<polyline clip-path="url(#clip970)" style="stroke:#000000; stroke-linecap:round; stroke-linejoin:round; stroke-width:4; stroke-opacity:1; fill:none" points="2352.76,1423.18 2352.76,1404.28 "/>
<path clip-path="url(#clip970)" d="M178.867 1454.1 Q175.256 1454.1 173.427 1457.66 Q171.621 1461.2 171.621 1468.33 Q171.621 1475.44 173.427 1479.01 Q175.256 1482.55 178.867 1482.55 Q182.501 1482.55 184.306 1479.01 Q186.135 1475.44 186.135 1468.33 Q186.135 1461.2 184.306 1457.66 Q182.501 1454.1 178.867 1454.1 M178.867 1450.39 Q184.677 1450.39 187.732 1455 Q190.811 1459.58 190.811 1468.33 Q190.811 1477.06 187.732 1481.67 Q184.677 1486.25 178.867 1486.25 Q173.056 1486.25 169.978 1481.67 Q166.922 1477.06 166.922 1468.33 Q166.922 1459.58 169.978 1455 Q173.056 1450.39 178.867 1450.39 Z" fill="#000000" fill-rule="nonzero" fill-opacity="1" /><path clip-path="url(#clip970)" d="M863.103 1481.64 L870.742 1481.64 L870.742 1455.28 L862.432 1456.95 L862.432 1452.69 L870.696 1451.02 L875.372 1451.02 L875.372 1481.64 L883.01 1481.64 L883.01 1485.58 L863.103 1485.58 L863.103 1481.64 Z" fill="#000000" fill-rule="nonzero" fill-opacity="1" /><path clip-path="url(#clip970)" d="M902.455 1454.1 Q898.844 1454.1 897.015 1457.66 Q895.209 1461.2 895.209 1468.33 Q895.209 1475.44 897.015 1479.01 Q898.844 1482.55 902.455 1482.55 Q906.089 1482.55 907.895 1479.01 Q909.723 1475.44 909.723 1468.33 Q909.723 1461.2 907.895 1457.66 Q906.089 1454.1 902.455 1454.1 M902.455 1450.39 Q908.265 1450.39 911.32 1455 Q914.399 1459.58 914.399 1468.33 Q914.399 1477.06 911.32 1481.67 Q908.265 1486.25 902.455 1486.25 Q896.645 1486.25 893.566 1481.67 Q890.51 1477.06 890.51 1468.33 Q890.51 1459.58 893.566 1455 Q896.645 1450.39 902.455 1450.39 Z" fill="#000000" fill-rule="nonzero" fill-opacity="1" /><path clip-path="url(#clip970)" d="M932.617 1454.1 Q929.006 1454.1 927.177 1457.66 Q925.371 1461.2 925.371 1468.33 Q925.371 1475.44 927.177 1479.01 Q929.006 1482.55 932.617 1482.55 Q936.251 1482.55 938.056 1479.01 Q939.885 1475.44 939.885 1468.33 Q939.885 1461.2 938.056 1457.66 Q936.251 1454.1 932.617 1454.1 M932.617 1450.39 Q938.427 1450.39 941.482 1455 Q944.561 1459.58 944.561 1468.33 Q944.561 1477.06 941.482 1481.67 Q938.427 1486.25 932.617 1486.25 Q926.806 1486.25 923.728 1481.67 Q920.672 1477.06 920.672 1468.33 Q920.672 1459.58 923.728 1455 Q926.806 1450.39 932.617 1450.39 Z" fill="#000000" fill-rule="nonzero" fill-opacity="1" /><path clip-path="url(#clip970)" d="M1591.82 1481.64 L1608.14 1481.64 L1608.14 1485.58 L1586.19 1485.58 L1586.19 1481.64 Q1588.86 1478.89 1593.44 1474.26 Q1598.05 1469.61 1599.23 1468.27 Q1601.47 1465.74 1602.35 1464.01 Q1603.25 1462.25 1603.25 1460.56 Q1603.25 1457.8 1601.31 1456.07 Q1599.39 1454.33 1596.29 1454.33 Q1594.09 1454.33 1591.63 1455.09 Q1589.2 1455.86 1586.42 1457.41 L1586.42 1452.69 Q1589.25 1451.55 1591.7 1450.97 Q1594.16 1450.39 1596.19 1450.39 Q1601.56 1450.39 1604.76 1453.08 Q1607.95 1455.77 1607.95 1460.26 Q1607.95 1462.39 1607.14 1464.31 Q1606.36 1466.2 1604.25 1468.8 Q1603.67 1469.47 1600.57 1472.69 Q1597.47 1475.88 1591.82 1481.64 Z" fill="#000000" fill-rule="nonzero" fill-opacity="1" /><path clip-path="url(#clip970)" d="M1627.95 1454.1 Q1624.34 1454.1 1622.51 1457.66 Q1620.71 1461.2 1620.71 1468.33 Q1620.71 1475.44 1622.51 1479.01 Q1624.34 1482.55 1627.95 1482.55 Q1631.59 1482.55 1633.39 1479.01 Q1635.22 1475.44 1635.22 1468.33 Q1635.22 1461.2 1633.39 1457.66 Q1631.59 1454.1 1627.95 1454.1 M1627.95 1450.39 Q1633.76 1450.39 1636.82 1455 Q1639.9 1459.58 1639.9 1468.33 Q1639.9 1477.06 1636.82 1481.67 Q1633.76 1486.25 1627.95 1486.25 Q1622.14 1486.25 1619.06 1481.67 Q1616.01 1477.06 1616.01 1468.33 Q1616.01 1459.58 1619.06 1455 Q1622.14 1450.39 1627.95 1450.39 Z" fill="#000000" fill-rule="nonzero" fill-opacity="1" /><path clip-path="url(#clip970)" d="M1658.11 1454.1 Q1654.5 1454.1 1652.67 1457.66 Q1650.87 1461.2 1650.87 1468.33 Q1650.87 1475.44 1652.67 1479.01 Q1654.5 1482.55 1658.11 1482.55 Q1661.75 1482.55 1663.55 1479.01 Q1665.38 1475.44 1665.38 1468.33 Q1665.38 1461.2 1663.55 1457.66 Q1661.75 1454.1 1658.11 1454.1 M1658.11 1450.39 Q1663.92 1450.39 1666.98 1455 Q1670.06 1459.58 1670.06 1468.33 Q1670.06 1477.06 1666.98 1481.67 Q1663.92 1486.25 1658.11 1486.25 Q1652.3 1486.25 1649.23 1481.67 Q1646.17 1477.06 1646.17 1468.33 Q1646.17 1459.58 1649.23 1455 Q1652.3 1450.39 1658.11 1450.39 Z" fill="#000000" fill-rule="nonzero" fill-opacity="1" /><path clip-path="url(#clip970)" d="M2326.52 1466.95 Q2329.87 1467.66 2331.75 1469.93 Q2333.65 1472.2 2333.65 1475.53 Q2333.65 1480.65 2330.13 1483.45 Q2326.61 1486.25 2320.13 1486.25 Q2317.95 1486.25 2315.64 1485.81 Q2313.35 1485.39 2310.89 1484.54 L2310.89 1480.02 Q2312.84 1481.16 2315.15 1481.74 Q2317.47 1482.32 2319.99 1482.32 Q2324.39 1482.32 2326.68 1480.58 Q2328.99 1478.84 2328.99 1475.53 Q2328.99 1472.48 2326.84 1470.77 Q2324.71 1469.03 2320.89 1469.03 L2316.86 1469.03 L2316.86 1465.19 L2321.08 1465.19 Q2324.53 1465.19 2326.36 1463.82 Q2328.18 1462.43 2328.18 1459.84 Q2328.18 1457.18 2326.29 1455.77 Q2324.41 1454.33 2320.89 1454.33 Q2318.97 1454.33 2316.77 1454.75 Q2314.57 1455.16 2311.93 1456.04 L2311.93 1451.88 Q2314.6 1451.14 2316.91 1450.77 Q2319.25 1450.39 2321.31 1450.39 Q2326.63 1450.39 2329.74 1452.83 Q2332.84 1455.23 2332.84 1459.35 Q2332.84 1462.22 2331.19 1464.21 Q2329.55 1466.18 2326.52 1466.95 Z" fill="#000000" fill-rule="nonzero" fill-opacity="1" /><path clip-path="url(#clip970)" d="M2352.51 1454.1 Q2348.9 1454.1 2347.07 1457.66 Q2345.27 1461.2 2345.27 1468.33 Q2345.27 1475.44 2347.07 1479.01 Q2348.9 1482.55 2352.51 1482.55 Q2356.15 1482.55 2357.95 1479.01 Q2359.78 1475.44 2359.78 1468.33 Q2359.78 1461.2 2357.95 1457.66 Q2356.15 1454.1 2352.51 1454.1 M2352.51 1450.39 Q2358.32 1450.39 2361.38 1455 Q2364.46 1459.58 2364.46 1468.33 Q2364.46 1477.06 2361.38 1481.67 Q2358.32 1486.25 2352.51 1486.25 Q2346.7 1486.25 2343.62 1481.67 Q2340.57 1477.06 2340.57 1468.33 Q2340.57 1459.58 2343.62 1455 Q2346.7 1450.39 2352.51 1450.39 Z" fill="#000000" fill-rule="nonzero" fill-opacity="1" /><path clip-path="url(#clip970)" d="M2382.67 1454.1 Q2379.06 1454.1 2377.23 1457.66 Q2375.43 1461.2 2375.43 1468.33 Q2375.43 1475.44 2377.23 1479.01 Q2379.06 1482.55 2382.67 1482.55 Q2386.31 1482.55 2388.11 1479.01 Q2389.94 1475.44 2389.94 1468.33 Q2389.94 1461.2 2388.11 1457.66 Q2386.31 1454.1 2382.67 1454.1 M2382.67 1450.39 Q2388.48 1450.39 2391.54 1455 Q2394.62 1459.58 2394.62 1468.33 Q2394.62 1477.06 2391.54 1481.67 Q2388.48 1486.25 2382.67 1486.25 Q2376.86 1486.25 2373.79 1481.67 Q2370.73 1477.06 2370.73 1468.33 Q2370.73 1459.58 2373.79 1455 Q2376.86 1450.39 2382.67 1450.39 Z" fill="#000000" fill-rule="nonzero" fill-opacity="1" /><path clip-path="url(#clip970)" d="M1264.87 1522.27 L1264.87 1532.4 L1276.94 1532.4 L1276.94 1536.95 L1264.87 1536.95 L1264.87 1556.3 Q1264.87 1560.66 1266.05 1561.9 Q1267.26 1563.14 1270.92 1563.14 L1276.94 1563.14 L1276.94 1568.04 L1270.92 1568.04 Q1264.14 1568.04 1261.56 1565.53 Q1258.98 1562.98 1258.98 1556.3 L1258.98 1536.95 L1254.69 1536.95 L1254.69 1532.4 L1258.98 1532.4 L1258.98 1522.27 L1264.87 1522.27 Z" fill="#000000" fill-rule="nonzero" fill-opacity="1" /><polyline clip-path="url(#clip970)" style="stroke:#000000; stroke-linecap:round; stroke-linejoin:round; stroke-width:4; stroke-opacity:1; fill:none" points="178.867,1423.18 178.867,47.2441 "/>
<polyline clip-path="url(#clip970)" style="stroke:#000000; stroke-linecap:round; stroke-linejoin:round; stroke-width:4; stroke-opacity:1; fill:none" points="178.867,1278.13 197.764,1278.13 "/>
<polyline clip-path="url(#clip970)" style="stroke:#000000; stroke-linecap:round; stroke-linejoin:round; stroke-width:4; stroke-opacity:1; fill:none" points="178.867,1016.71 197.764,1016.71 "/>
<polyline clip-path="url(#clip970)" style="stroke:#000000; stroke-linecap:round; stroke-linejoin:round; stroke-width:4; stroke-opacity:1; fill:none" points="178.867,755.286 197.764,755.286 "/>
<polyline clip-path="url(#clip970)" style="stroke:#000000; stroke-linecap:round; stroke-linejoin:round; stroke-width:4; stroke-opacity:1; fill:none" points="178.867,493.862 197.764,493.862 "/>
<polyline clip-path="url(#clip970)" style="stroke:#000000; stroke-linecap:round; stroke-linejoin:round; stroke-width:4; stroke-opacity:1; fill:none" points="178.867,232.439 197.764,232.439 "/>
<path clip-path="url(#clip970)" d="M50.9921 1278.58 L80.6679 1278.58 L80.6679 1282.52 L50.9921 1282.52 L50.9921 1278.58 Z" fill="#000000" fill-rule="nonzero" fill-opacity="1" /><path clip-path="url(#clip970)" d="M101.339 1276.27 Q98.1909 1276.27 96.3391 1278.42 Q94.5104 1280.57 94.5104 1284.32 Q94.5104 1288.05 96.3391 1290.23 Q98.1909 1292.38 101.339 1292.38 Q104.487 1292.38 106.316 1290.23 Q108.168 1288.05 108.168 1284.32 Q108.168 1280.57 106.316 1278.42 Q104.487 1276.27 101.339 1276.27 M110.621 1261.62 L110.621 1265.88 Q108.862 1265.04 107.057 1264.6 Q105.274 1264.16 103.515 1264.16 Q98.8854 1264.16 96.4317 1267.29 Q94.0012 1270.41 93.6539 1276.73 Q95.0197 1274.72 97.0798 1273.65 Q99.14 1272.57 101.617 1272.57 Q106.825 1272.57 109.834 1275.74 Q112.867 1278.89 112.867 1284.32 Q112.867 1289.65 109.719 1292.87 Q106.571 1296.08 101.339 1296.08 Q95.3437 1296.08 92.1725 1291.5 Q89.0012 1286.89 89.0012 1278.17 Q89.0012 1269.97 92.89 1265.11 Q96.7789 1260.23 103.33 1260.23 Q105.089 1260.23 106.871 1260.57 Q108.677 1260.92 110.621 1261.62 Z" fill="#000000" fill-rule="nonzero" fill-opacity="1" /><path clip-path="url(#clip970)" d="M130.922 1263.93 Q127.311 1263.93 125.482 1267.5 Q123.677 1271.04 123.677 1278.17 Q123.677 1285.27 125.482 1288.84 Q127.311 1292.38 130.922 1292.38 Q134.556 1292.38 136.362 1288.84 Q138.191 1285.27 138.191 1278.17 Q138.191 1271.04 136.362 1267.5 Q134.556 1263.93 130.922 1263.93 M130.922 1260.23 Q136.732 1260.23 139.788 1264.83 Q142.867 1269.42 142.867 1278.17 Q142.867 1286.89 139.788 1291.5 Q136.732 1296.08 130.922 1296.08 Q125.112 1296.08 122.033 1291.5 Q118.978 1286.89 118.978 1278.17 Q118.978 1269.42 122.033 1264.83 Q125.112 1260.23 130.922 1260.23 Z" fill="#000000" fill-rule="nonzero" fill-opacity="1" /><path clip-path="url(#clip970)" d="M50.9921 1017.16 L80.6679 1017.16 L80.6679 1021.1 L50.9921 1021.1 L50.9921 1017.16 Z" fill="#000000" fill-rule="nonzero" fill-opacity="1" /><path clip-path="url(#clip970)" d="M104.927 1015.36 Q108.283 1016.07 110.158 1018.34 Q112.057 1020.61 112.057 1023.94 Q112.057 1029.06 108.538 1031.86 Q105.02 1034.66 98.5382 1034.66 Q96.3623 1034.66 94.0475 1034.22 Q91.7558 1033.8 89.3021 1032.95 L89.3021 1028.43 Q91.2465 1029.57 93.5613 1030.15 Q95.8761 1030.73 98.3993 1030.73 Q102.797 1030.73 105.089 1028.99 Q107.404 1027.25 107.404 1023.94 Q107.404 1020.89 105.251 1019.17 Q103.121 1017.44 99.3021 1017.44 L95.2743 1017.44 L95.2743 1013.6 L99.4872 1013.6 Q102.936 1013.6 104.765 1012.23 Q106.594 1010.84 106.594 1008.25 Q106.594 1005.59 104.696 1004.17 Q102.821 1002.74 99.3021 1002.74 Q97.3808 1002.74 95.1817 1003.16 Q92.9826 1003.57 90.3438 1004.45 L90.3438 1000.29 Q93.0058 999.545 95.3206 999.175 Q97.6585 998.804 99.7187 998.804 Q105.043 998.804 108.145 1001.23 Q111.246 1003.64 111.246 1007.76 Q111.246 1010.63 109.603 1012.62 Q107.959 1014.59 104.927 1015.36 Z" fill="#000000" fill-rule="nonzero" fill-opacity="1" /><path clip-path="url(#clip970)" d="M130.922 1002.51 Q127.311 1002.51 125.482 1006.07 Q123.677 1009.61 123.677 1016.74 Q123.677 1023.85 125.482 1027.42 Q127.311 1030.96 130.922 1030.96 Q134.556 1030.96 136.362 1027.42 Q138.191 1023.85 138.191 1016.74 Q138.191 1009.61 136.362 1006.07 Q134.556 1002.51 130.922 1002.51 M130.922 998.804 Q136.732 998.804 139.788 1003.41 Q142.867 1007.99 142.867 1016.74 Q142.867 1025.47 139.788 1030.08 Q136.732 1034.66 130.922 1034.66 Q125.112 1034.66 122.033 1030.08 Q118.978 1025.47 118.978 1016.74 Q118.978 1007.99 122.033 1003.41 Q125.112 998.804 130.922 998.804 Z" fill="#000000" fill-rule="nonzero" fill-opacity="1" /><path clip-path="url(#clip970)" d="M130.922 741.084 Q127.311 741.084 125.482 744.649 Q123.677 748.191 123.677 755.321 Q123.677 762.427 125.482 765.992 Q127.311 769.533 130.922 769.533 Q134.556 769.533 136.362 765.992 Q138.191 762.427 138.191 755.321 Q138.191 748.191 136.362 744.649 Q134.556 741.084 130.922 741.084 M130.922 737.381 Q136.732 737.381 139.788 741.987 Q142.867 746.571 142.867 755.321 Q142.867 764.047 139.788 768.654 Q136.732 773.237 130.922 773.237 Q125.112 773.237 122.033 768.654 Q118.978 764.047 118.978 755.321 Q118.978 746.571 122.033 741.987 Q125.112 737.381 130.922 737.381 Z" fill="#000000" fill-rule="nonzero" fill-opacity="1" /><path clip-path="url(#clip970)" d="M104.927 492.508 Q108.283 493.226 110.158 495.494 Q112.057 497.763 112.057 501.096 Q112.057 506.212 108.538 509.013 Q105.02 511.814 98.5382 511.814 Q96.3623 511.814 94.0475 511.374 Q91.7558 510.957 89.3021 510.101 L89.3021 505.587 Q91.2465 506.721 93.5613 507.3 Q95.8761 507.878 98.3993 507.878 Q102.797 507.878 105.089 506.142 Q107.404 504.406 107.404 501.096 Q107.404 498.041 105.251 496.328 Q103.121 494.592 99.3021 494.592 L95.2743 494.592 L95.2743 490.749 L99.4872 490.749 Q102.936 490.749 104.765 489.383 Q106.594 487.994 106.594 485.402 Q106.594 482.74 104.696 481.328 Q102.821 479.893 99.3021 479.893 Q97.3808 479.893 95.1817 480.309 Q92.9826 480.726 90.3438 481.605 L90.3438 477.439 Q93.0058 476.698 95.3206 476.328 Q97.6585 475.957 99.7187 475.957 Q105.043 475.957 108.145 478.388 Q111.246 480.795 111.246 484.916 Q111.246 487.786 109.603 489.777 Q107.959 491.744 104.927 492.508 Z" fill="#000000" fill-rule="nonzero" fill-opacity="1" /><path clip-path="url(#clip970)" d="M130.922 479.661 Q127.311 479.661 125.482 483.226 Q123.677 486.767 123.677 493.897 Q123.677 501.004 125.482 504.568 Q127.311 508.11 130.922 508.11 Q134.556 508.11 136.362 504.568 Q138.191 501.004 138.191 493.897 Q138.191 486.767 136.362 483.226 Q134.556 479.661 130.922 479.661 M130.922 475.957 Q136.732 475.957 139.788 480.564 Q142.867 485.147 142.867 493.897 Q142.867 502.624 139.788 507.23 Q136.732 511.814 130.922 511.814 Q125.112 511.814 122.033 507.23 Q118.978 502.624 118.978 493.897 Q118.978 485.147 122.033 480.564 Q125.112 475.957 130.922 475.957 Z" fill="#000000" fill-rule="nonzero" fill-opacity="1" /><path clip-path="url(#clip970)" d="M101.339 230.575 Q98.1909 230.575 96.3391 232.728 Q94.5104 234.881 94.5104 238.631 Q94.5104 242.358 96.3391 244.534 Q98.1909 246.687 101.339 246.687 Q104.487 246.687 106.316 244.534 Q108.168 242.358 108.168 238.631 Q108.168 234.881 106.316 232.728 Q104.487 230.575 101.339 230.575 M110.621 215.923 L110.621 220.182 Q108.862 219.349 107.057 218.909 Q105.274 218.469 103.515 218.469 Q98.8854 218.469 96.4317 221.594 Q94.0012 224.719 93.6539 231.038 Q95.0197 229.025 97.0798 227.96 Q99.14 226.872 101.617 226.872 Q106.825 226.872 109.834 230.043 Q112.867 233.191 112.867 238.631 Q112.867 243.955 109.719 247.173 Q106.571 250.39 101.339 250.39 Q95.3437 250.39 92.1725 245.807 Q89.0012 241.2 89.0012 232.474 Q89.0012 224.279 92.89 219.418 Q96.7789 214.534 103.33 214.534 Q105.089 214.534 106.871 214.881 Q108.677 215.228 110.621 215.923 Z" fill="#000000" fill-rule="nonzero" fill-opacity="1" /><path clip-path="url(#clip970)" d="M130.922 218.238 Q127.311 218.238 125.482 221.802 Q123.677 225.344 123.677 232.474 Q123.677 239.58 125.482 243.145 Q127.311 246.687 130.922 246.687 Q134.556 246.687 136.362 243.145 Q138.191 239.58 138.191 232.474 Q138.191 225.344 136.362 221.802 Q134.556 218.238 130.922 218.238 M130.922 214.534 Q136.732 214.534 139.788 219.14 Q142.867 223.724 142.867 232.474 Q142.867 241.2 139.788 245.807 Q136.732 250.39 130.922 250.39 Q125.112 250.39 122.033 245.807 Q118.978 241.2 118.978 232.474 Q118.978 223.724 122.033 219.14 Q125.112 214.534 130.922 214.534 Z" fill="#000000" fill-rule="nonzero" fill-opacity="1" /><polyline clip-path="url(#clip972)" style="stroke:#009af9; stroke-linecap:round; stroke-linejoin:round; stroke-width:4; stroke-opacity:1; fill:none" points="178.867,1321.7 179.982,1325.66 181.097,1329.48 182.213,1333.14 183.328,1336.63 184.444,1339.95 185.559,1343.08 186.674,1346.02 187.79,1348.77 188.905,1351.34 190.021,1353.73 191.136,1355.94 192.251,1357.98 193.367,1359.85 194.482,1361.57 195.597,1363.14 196.713,1364.58 197.828,1365.88 198.944,1367.07 200.059,1368.14 201.174,1369.11 202.29,1369.99 203.405,1370.78 204.521,1371.49 205.636,1372.13 206.751,1372.7 207.867,1373.21 208.982,1373.67 210.097,1374.08 211.213,1374.44 212.328,1374.76 213.444,1375.04 214.559,1375.29 215.674,1375.51 216.79,1375.71 217.905,1375.88 219.021,1376.03 220.136,1376.16 221.251,1376.27 222.367,1376.37 223.482,1376.45 224.598,1376.51 225.713,1376.57 226.828,1376.61 227.944,1376.65 229.059,1376.68 230.174,1376.7 231.29,1376.72 232.405,1376.73 233.521,1376.73 234.636,1376.73 235.751,1376.73 236.867,1376.72 237.982,1376.7 239.098,1376.69 240.213,1376.67 241.328,1376.64 242.444,1376.62 243.559,1376.6 244.674,1376.57 245.79,1376.54 246.905,1376.51 248.021,1376.48 249.136,1376.45 250.251,1376.42 251.367,1376.39 252.482,1376.35 253.598,1376.32 254.713,1376.28 255.828,1376.25 256.944,1376.21 258.059,1376.17 259.174,1376.14 260.29,1376.1 261.405,1376.06 262.521,1376.02 263.636,1375.98 264.751,1375.95 265.867,1375.91 266.982,1375.87 268.098,1375.83 269.213,1375.8 270.328,1375.76 271.444,1375.72 272.559,1375.68 273.675,1375.65 274.79,1375.61 275.905,1375.57 277.021,1375.53 278.136,1375.49 279.251,1375.46 280.367,1375.42 281.482,1375.38 282.598,1375.34 283.713,1375.3 284.828,1375.26 285.944,1375.23 287.059,1375.19 288.175,1375.15 289.29,1375.11 290.405,1375.08 291.521,1375.04 292.636,1375 293.751,1374.97 294.867,1374.93 295.982,1374.9 297.098,1374.86 298.213,1374.82 299.328,1374.79 300.444,1374.75 301.559,1374.72 302.675,1374.68 303.79,1374.65 304.905,1374.61 306.021,1374.58 307.136,1374.54 308.252,1374.51 309.367,1374.47 310.482,1374.44 311.598,1374.4 312.713,1374.36 313.828,1374.33 314.944,1374.29 316.059,1374.26 317.175,1374.22 318.29,1374.19 319.405,1374.16 320.521,1374.12 321.636,1374.09 322.752,1374.05 323.867,1374.02 324.982,1373.99 326.098,1373.95 327.213,1373.92 328.328,1373.89 329.444,1373.86 330.559,1373.83 331.675,1373.8 332.79,1373.77 333.905,1373.73 335.021,1373.7 336.136,1373.67 337.252,1373.64 338.367,1373.61 339.482,1373.58 340.598,1373.55 341.713,1373.52 342.829,1373.49 343.944,1373.45 345.059,1373.42 346.175,1373.39 347.29,1373.36 348.405,1373.33 349.521,1373.29 350.636,1373.26 351.752,1373.23 352.867,1373.2 353.982,1373.17 355.098,1373.13 356.213,1373.1 357.329,1373.07 358.444,1373.04 359.559,1373.01 360.675,1372.97 361.79,1372.94 362.905,1372.91 364.021,1372.88 365.136,1372.85 366.252,1372.82 367.367,1372.79 368.482,1372.77 369.598,1372.74 370.713,1372.72 371.829,1372.69 372.944,1372.67 374.059,1372.64 375.175,1372.62 376.29,1372.6 377.406,1372.58 378.521,1372.55 379.636,1372.53 380.752,1372.51 381.867,1372.48 382.982,1372.46 384.098,1372.44 385.213,1372.41 386.329,1372.38 387.444,1372.36 388.559,1372.33 389.675,1372.3 390.79,1372.27 391.906,1372.24 393.021,1372.21 394.136,1372.18 395.252,1372.15 396.367,1372.12 397.482,1372.09 398.598,1372.05 399.713,1372.02 400.829,1371.99 401.944,1371.95 403.059,1371.92 404.175,1371.88 405.29,1371.85 406.406,1371.82 407.521,1371.79 408.636,1371.75 409.752,1371.72 410.867,1371.69 411.983,1371.67 413.098,1371.64 414.213,1371.62 415.329,1371.59 416.444,1371.58 417.559,1371.56 418.675,1371.55 419.79,1371.54 420.906,1371.54 422.021,1371.53 423.136,1371.53 424.252,1371.52 425.367,1371.52 426.483,1371.52 427.598,1371.51 428.713,1371.51 429.829,1371.5 430.944,1371.49 432.059,1371.47 433.175,1371.46 434.29,1371.44 435.406,1371.42 436.521,1371.39 437.636,1371.37 438.752,1371.33 439.867,1371.3 440.983,1371.26 442.098,1371.22 443.213,1371.18 444.329,1371.14 445.444,1371.09 446.56,1371.04 447.675,1370.99 448.79,1370.94 449.906,1370.89 451.021,1370.84 452.136,1370.79 453.252,1370.74 454.367,1370.69 455.483,1370.65 456.598,1370.61 457.713,1370.57 458.829,1370.54 459.944,1370.52 461.06,1370.5 462.175,1370.48 463.29,1370.48 464.406,1370.49 465.521,1370.51 466.636,1370.53 467.752,1370.56 468.867,1370.6 469.983,1370.63 471.098,1370.66 472.213,1370.7 473.329,1370.73 474.444,1370.75 475.56,1370.77 476.675,1370.78 477.79,1370.79 478.906,1370.79 480.021,1370.78 481.137,1370.77 482.252,1370.74 483.367,1370.71 484.483,1370.67 485.598,1370.62 486.713,1370.56 487.829,1370.5 488.944,1370.42 490.06,1370.35 491.175,1370.27 492.29,1370.18 493.406,1370.1 494.521,1370.01 495.637,1369.92 496.752,1369.83 497.867,1369.75 498.983,1369.68 500.098,1369.61 501.213,1369.55 502.329,1369.51 503.444,1369.48 504.56,1369.46 505.675,1369.47 506.79,1369.5 507.906,1369.53 509.021,1369.57 510.137,1369.61 511.252,1369.65 512.367,1369.7 513.483,1369.73 514.598,1369.77 515.714,1369.8 516.829,1369.82 517.944,1369.84 519.06,1369.85 520.175,1369.85 521.29,1369.85 522.406,1369.83 523.521,1369.81 524.637,1369.78 525.752,1369.74 526.867,1369.69 527.983,1369.64 529.098,1369.59 530.214,1369.53 531.329,1369.46 532.444,1369.4 533.56,1369.33 534.675,1369.27 535.79,1369.22 536.906,1369.17 538.021,1369.13 539.137,1369.1 540.252,1369.08 541.367,1364.65 542.483,1339.12 543.598,1315.03 544.714,1291.65 545.829,1268.15 546.944,1243.54 548.06,1216.74 549.175,1186.32 550.291,1150.72 551.406,1107.23 552.521,1049.42 553.637,966.065 554.752,832.635 555.867,563.118 556.983,1318.48 558.098,1305.95 559.214,1293.49 560.329,1280.9 561.444,1267.94 562.56,1254.36 563.675,1239.84 564.791,1223.96 565.906,1206.2 567.021,1186.07 568.137,1162.44 569.252,1133.53 570.367,1096.71 571.483,1047.57 572.598,977.81 573.714,865.118 574.829,654.931 575.944,1320.56 577.06,1318.33 578.175,1316.11 579.291,1313.87 580.406,1311.61 581.521,1309.33 582.637,1307.02 583.752,1304.67 584.868,1302.28 585.983,1299.84 587.098,1297.34 588.214,1294.77 589.329,1292.12 590.444,1289.38 591.56,1286.54 592.675,1283.59 593.791,1280.49 594.906,1277.24 596.021,1273.84 597.137,1270.27 598.252,1266.51 599.368,1262.52 600.483,1258.28 601.598,1253.72 602.714,1248.78 603.829,1243.4 604.944,1237.49 606.06,1230.98 607.175,1223.75 608.291,1215.58 609.406,1206.33 610.521,1195.87 611.637,1183.79 612.752,1169.47 613.868,1152.03 614.983,1130.35 616.098,1102.64 617.214,1066.33 618.329,1015.74 619.445,938.791 620.56,810.171 621.675,542.678 622.791,1322.52 623.906,1328.79 625.021,1334.72 626.137,1340.27 627.252,1345.43 628.368,1350.19 629.483,1354.53 630.598,1358.46 631.714,1361.99 632.829,1365.13 633.945,1367.91 635.06,1370.36 636.175,1372.48 637.291,1374.31 638.406,1375.87 639.521,1377.18 640.637,1378.26 641.752,1379.15 642.868,1379.87 643.983,1380.42 645.098,1380.83 646.214,1381.1 647.329,1381.26 648.445,1381.32 649.56,1381.29 650.675,1381.17 651.791,1380.99 652.906,1380.75 654.021,1380.44 655.137,1380.09 656.252,1379.69 657.368,1379.25 658.483,1378.77 659.598,1378.27 660.714,1377.73 661.829,1377.17 662.945,1376.58 664.06,1375.98 665.175,1375.36 666.291,1374.72 667.406,1374.06 668.522,1373.39 669.637,1372.7 670.752,1372.01 671.868,1371.3 672.983,1370.58 674.098,1369.85 675.214,1369.11 676.329,1368.36 677.445,1367.6 678.56,1366.84 679.675,1366.07 680.791,1365.29 681.906,1364.5 683.022,1363.7 684.137,1362.9 685.252,1362.09 686.368,1361.27 687.483,1360.44 688.598,1359.61 689.714,1358.77 690.829,1357.92 691.945,1357.07 693.06,1356.2 694.175,1355.33 695.291,1354.45 696.406,1353.57 697.522,1352.67 698.637,1351.77 699.752,1350.86 700.868,1349.94 701.983,1349.01 703.099,1348.07 704.214,1347.12 705.329,1346.16 706.445,1345.19 707.56,1344.22 708.675,1343.23 709.791,1342.23 710.906,1341.21 712.022,1340.19 713.137,1339.15 714.252,1338.1 715.368,1337.04 716.483,1335.96 717.599,1334.86 718.714,1333.74 719.829,1332.6 720.945,1331.45 722.06,1330.28 723.175,1329.09 724.291,1327.89 725.406,1326.66 726.522,1325.42 727.637,1324.16 728.752,1322.88 729.868,1321.57 730.983,1320.25 732.099,1318.89 733.214,1317.52 734.329,1316.11 735.445,1314.67 736.56,1313.21 737.676,1311.7 738.791,1310.16 739.906,1308.57 741.022,1306.94 742.137,1305.27 743.252,1303.54 744.368,1301.75 745.483,1299.91 746.599,1298 747.714,1296.02 748.829,1293.97 749.945,1291.85 751.06,1289.63 752.176,1287.25 753.291,1284.69 754.406,1282.01 755.522,1279.21 756.637,1276.32 757.752,1273.34 758.868,1270.25 759.983,1267.05 761.099,1263.7 762.214,1260.16 763.329,1256.38 764.445,1252.3 765.56,1247.84 766.676,1242.92 767.791,1237.45 768.906,1231.32 770.022,1224.41 771.137,1216.6 772.253,1207.74 773.368,1197.69 774.483,1186.14 775.599,1172.54 776.714,1156.29 777.829,1136.26 778.945,1110.87 780.06,1077.39 781.176,1032.09 782.291,965.067 783.406,855.421 784.522,648.729 785.637,86.1857 786.753,1326.77 787.868,1333.18 788.983,1339.21 790.099,1344.82 791.214,1350 792.329,1354.74 793.445,1359.03 794.56,1362.89 795.676,1366.33 796.791,1369.38 797.906,1372.06 799.022,1374.39 800.137,1376.4 801.253,1378.11 802.368,1379.55 803.483,1380.75 804.599,1381.74 805.714,1382.54 806.83,1383.16 807.945,1383.62 809.06,1383.95 810.176,1384.15 811.291,1384.24 812.406,1384.24 813.522,1384.15 814.637,1383.99 815.753,1383.76 816.868,1383.48 817.983,1383.14 819.099,1382.75 820.214,1382.32 821.33,1381.86 822.445,1381.36 823.56,1380.83 824.676,1380.29 825.791,1379.71 826.906,1379.12 828.022,1378.51 829.137,1377.88 830.253,1377.23 831.368,1376.57 832.483,1375.9 833.599,1375.21 834.714,1374.51 835.83,1373.81 836.945,1373.09 838.06,1372.37 839.176,1371.64 840.291,1370.9 841.407,1370.15 842.522,1369.39 843.637,1368.63 844.753,1367.86 845.868,1367.08 846.983,1366.3 848.099,1365.5 849.214,1364.71 850.33,1363.9 851.445,1363.09 852.56,1362.27 853.676,1361.45 854.791,1360.62 855.907,1359.78 857.022,1358.94 858.137,1358.09 859.253,1357.23 860.368,1356.36 861.483,1355.49 862.599,1354.61 863.714,1353.72 864.83,1352.82 865.945,1351.92 867.06,1351.01 868.176,1350.09 869.291,1349.16 870.407,1348.22 871.522,1347.27 872.637,1346.31 873.753,1345.34 874.868,1344.36 875.984,1343.37 877.099,1342.37 878.214,1341.35 879.33,1340.33 880.445,1339.29 881.56,1338.23 882.676,1337.17 883.791,1336.09 884.907,1335 886.022,1333.89 887.137,1332.77 888.253,1331.63 889.368,1330.48 890.484,1329.31 891.599,1328.12 892.714,1326.91 893.83,1325.67 894.945,1324.42 896.06,1323.15 897.176,1321.84 898.291,1320.52 899.407,1319.16 900.522,1317.78 901.637,1316.37 902.753,1314.92 903.868,1313.43 904.984,1311.88 906.099,1310.29 907.214,1308.66 908.33,1306.98 909.445,1305.27 910.561,1303.52 911.676,1301.72 912.791,1299.88 913.907,1297.99 915.022,1296.05 916.137,1294.04 917.253,1291.97 918.368,1289.82 919.484,1287.57 920.599,1285.23 921.714,1282.78 922.83,1280.19 923.945,1277.46 925.061,1274.58 926.176,1271.51 927.291,1268.24 928.407,1264.76 929.522,1261.03 930.637,1257.04 931.753,1252.77 932.868,1248.14 933.984,1243.11 935.099,1237.61 936.214,1231.58 937.33,1224.9 938.445,1217.4 939.561,1208.89 940.676,1199.15 941.791,1187.83 942.907,1174.48 944.022,1158.65 945.138,1139.32 946.253,1114.82 947.368,1082.76 948.484,1038.97 949.599,976.23 950.714,874.872 951.83,687.949 952.945,1324.38 954.061,1330.88 955.176,1337.01 956.291,1342.74 957.407,1348.04 958.522,1352.91 959.638,1357.34 960.753,1361.34 961.868,1364.91 962.984,1368.08 964.099,1370.87 965.214,1373.32 966.33,1375.43 967.445,1377.25 968.561,1378.78 969.676,1380.07 970.791,1381.12 971.907,1381.97 973.022,1382.64 974.138,1383.16 975.253,1383.53 976.368,1383.78 977.484,1383.91 978.599,1383.95 979.715,1383.89 980.83,1383.75 981.945,1383.54 983.061,1383.28 984.176,1382.96 985.291,1382.59 986.407,1382.18 987.522,1381.73 988.638,1381.25 989.753,1380.73 990.868,1380.19 991.984,1379.62 993.099,1379.03 994.215,1378.42 995.33,1377.8 996.445,1377.16 997.561,1376.5 998.676,1375.83 999.791,1375.15 1000.91,1374.46 1002.02,1373.76 1003.14,1373.04 1004.25,1372.32 1005.37,1371.59 1006.48,1370.85 1007.6,1370.1 1008.71,1369.35 1009.83,1368.58 1010.95,1367.81 1012.06,1367.04 1013.18,1366.26 1014.29,1365.47 1015.41,1364.67 1016.52,1363.87 1017.64,1363.06 1018.75,1362.24 1019.87,1361.42 1020.98,1360.58 1022.1,1359.75 1023.21,1358.9 1024.33,1358.05 1025.45,1357.19 1026.56,1356.33 1027.68,1355.45 1028.79,1354.57 1029.91,1353.68 1031.02,1352.79 1032.14,1351.88 1033.25,1350.97 1034.37,1350.05 1035.48,1349.12 1036.6,1348.18 1037.71,1347.23 1038.83,1346.27 1039.95,1345.3 1041.06,1344.32 1042.18,1343.33 1043.29,1342.33 1044.41,1341.32 1045.52,1340.3 1046.64,1339.26 1047.75,1338.21 1048.87,1337.15 1049.98,1336.07 1051.1,1334.98 1052.21,1333.87 1053.33,1332.73 1054.45,1331.58 1055.56,1330.4 1056.68,1329.21 1057.79,1328 1058.91,1326.77 1060.02,1325.52 1061.14,1324.25 1062.25,1322.96 1063.37,1321.65 1064.48,1320.33 1065.6,1318.97 1066.71,1317.6 1067.83,1316.19 1068.95,1314.76 1070.06,1313.3 1071.18,1311.8 1072.29,1310.27 1073.41,1308.7 1074.52,1307.08 1075.64,1305.42 1076.75,1303.71 1077.87,1301.94 1078.98,1300.11 1080.1,1298.21 1081.21,1296.25 1082.33,1294.21 1083.45,1292.09 1084.56,1289.88 1085.68,1287.58 1086.79,1285.19 1087.91,1282.68 1089.02,1280 1090.14,1277.15 1091.25,1274.14 1092.37,1271 1093.48,1267.7 1094.6,1264.25 1095.71,1260.61 1096.83,1256.75 1097.95,1252.6 1099.06,1248.11 1100.18,1243.2 1101.29,1237.77 1102.41,1231.73 1103.52,1224.95 1104.64,1217.32 1105.75,1208.68 1106.87,1198.87 1107.98,1187.51 1109.1,1174.2 1110.21,1158.29 1111.33,1138.73 1112.45,1114 1113.56,1081.61 1114.68,1038.06 1115.79,974.062 1116.91,870.861 1118.02,680.993 1119.14,192.557 1120.25,1326.27 1121.37,1332.71 1122.48,1338.76 1123.6,1344.4 1124.71,1349.61 1125.83,1354.38 1126.95,1358.7 1128.06,1362.59 1129.18,1366.06 1130.29,1369.14 1131.41,1371.84 1132.52,1374.2 1133.64,1376.23 1134.75,1377.96 1135.87,1379.42 1136.98,1380.64 1138.1,1381.64 1139.21,1382.45 1140.33,1383.08 1141.45,1383.56 1142.56,1383.89 1143.68,1384.1 1144.79,1384.2 1145.91,1384.21 1147.02,1384.13 1148.14,1383.97 1149.25,1383.75 1150.37,1383.47 1151.48,1383.13 1152.6,1382.75 1153.71,1382.32 1154.83,1381.86 1155.95,1381.37 1157.06,1380.84 1158.18,1380.29 1159.29,1379.72 1160.41,1379.13 1161.52,1378.52 1162.64,1377.89 1163.75,1377.25 1164.87,1376.59 1165.98,1375.91 1167.1,1375.23 1168.21,1374.53 1169.33,1373.83 1170.45,1373.11 1171.56,1372.39 1172.68,1371.66 1173.79,1370.92 1174.91,1370.17 1176.02,1369.42 1177.14,1368.65 1178.25,1367.88 1179.37,1367.1 1180.48,1366.32 1181.6,1365.53 1182.71,1364.73 1183.83,1363.93 1184.95,1363.12 1186.06,1362.3 1187.18,1361.47 1188.29,1360.64 1189.41,1359.81 1190.52,1358.96 1191.64,1358.11 1192.75,1357.25 1193.87,1356.39 1194.98,1355.52 1196.1,1354.64 1197.21,1353.75 1198.33,1352.85 1199.45,1351.95 1200.56,1351.04 1201.68,1350.12 1202.79,1349.19 1203.91,1348.25 1205.02,1347.3 1206.14,1346.34 1207.25,1345.37 1208.37,1344.4 1209.48,1343.41 1210.6,1342.4 1211.71,1341.39 1212.83,1340.36 1213.95,1339.32 1215.06,1338.27 1216.18,1337.2 1217.29,1336.13 1218.41,1335.03 1219.52,1333.93 1220.64,1332.8 1221.75,1331.67 1222.87,1330.51 1223.98,1329.34 1225.1,1328.15 1226.22,1326.94 1227.33,1325.71 1228.45,1324.46 1229.56,1323.19 1230.68,1321.89 1231.79,1320.56 1232.91,1319.21 1234.02,1317.83 1235.14,1316.42 1236.25,1314.97 1237.37,1313.49 1238.48,1311.96 1239.6,1310.38 1240.72,1308.74 1241.83,1307.06 1242.95,1305.33 1244.06,1303.57 1245.18,1301.76 1246.29,1299.91 1247.41,1298.01 1248.52,1296.06 1249.64,1294.05 1250.75,1291.98 1251.87,1289.83 1252.98,1287.59 1254.1,1285.27 1255.22,1282.83 1256.33,1280.26 1257.45,1277.55 1258.56,1274.69 1259.68,1271.64 1260.79,1268.39 1261.91,1264.92 1263.02,1261.2 1264.14,1257.21 1265.25,1252.93 1266.37,1248.31 1267.48,1243.29 1268.6,1237.8 1269.72,1231.77 1270.83,1225.1 1271.95,1217.64 1273.06,1209.19 1274.18,1199.49 1275.29,1188.25 1276.41,1174.96 1277.52,1159.16 1278.64,1139.97 1279.75,1115.72 1280.87,1083.98 1281.98,1040.53 1283.1,978.628 1284.22,879.199 1285.33,695.957 1286.45,1323.64 1287.56,1330.18 1288.68,1336.36 1289.79,1342.13 1290.91,1347.49 1292.02,1352.41 1293.14,1356.89 1294.25,1360.93 1295.37,1364.55 1296.48,1367.77 1297.6,1370.6 1298.72,1373.08 1299.83,1375.23 1300.95,1377.08 1302.06,1378.64 1303.18,1379.95 1304.29,1381.03 1305.41,1381.9 1306.52,1382.59 1307.64,1383.13 1308.75,1383.52 1309.87,1383.78 1310.98,1383.92 1312.1,1383.96 1313.22,1383.91 1314.33,1383.78 1315.45,1383.58 1316.56,1383.33 1317.68,1383.01 1318.79,1382.65 1319.91,1382.24 1321.02,1381.8 1322.14,1381.32 1323.25,1380.8 1324.37,1380.26 1325.48,1379.7 1326.6,1379.11 1327.72,1378.5 1328.83,1377.88 1329.95,1377.24 1331.06,1376.59 1332.18,1375.92 1333.29,1375.24 1334.41,1374.55 1335.52,1373.85 1336.64,1373.14 1337.75,1372.42 1338.87,1371.69 1339.98,1370.95 1341.1,1370.2 1342.22,1369.45 1343.33,1368.68 1344.45,1367.92 1345.56,1367.14 1346.68,1366.36 1347.79,1365.57 1348.91,1364.77 1350.02,1363.97 1351.14,1363.16 1352.25,1362.35 1353.37,1361.52 1354.48,1360.69 1355.6,1359.86 1356.72,1359.01 1357.83,1358.16 1358.95,1357.3 1360.06,1356.44 1361.18,1355.57 1362.29,1354.69 1363.41,1353.8 1364.52,1352.9 1365.64,1352 1366.75,1351.09 1367.87,1350.17 1368.98,1349.24 1370.1,1348.3 1371.22,1347.35 1372.33,1346.4 1373.45,1345.43 1374.56,1344.45 1375.68,1343.46 1376.79,1342.47 1377.91,1341.46 1379.02,1340.43 1380.14,1339.4 1381.25,1338.35 1382.37,1337.29 1383.48,1336.21 1384.6,1335.12 1385.72,1334.01 1386.83,1332.87 1387.95,1331.72 1389.06,1330.55 1390.18,1329.36 1391.29,1328.15 1392.41,1326.93 1393.52,1325.69 1394.64,1324.43 1395.75,1323.15 1396.87,1321.84 1397.98,1320.52 1399.1,1319.18 1400.22,1317.8 1401.33,1316.41 1402.45,1314.98 1403.56,1313.52 1404.68,1312.03 1405.79,1310.5 1406.91,1308.92 1408.02,1307.31 1409.14,1305.65 1410.25,1303.94 1411.37,1302.17 1412.48,1300.34 1413.6,1298.45 1414.72,1296.5 1415.83,1294.47 1416.95,1292.36 1418.06,1290.16 1419.18,1287.88 1420.29,1285.49 1421.41,1282.92 1422.52,1280.2 1423.64,1277.33 1424.75,1274.34 1425.87,1271.23 1426.98,1267.99 1428.1,1264.61 1429.22,1261.04 1430.33,1257.26 1431.45,1253.19 1432.56,1248.78 1433.68,1243.94 1434.79,1238.6 1435.91,1232.63 1437.02,1225.94 1438.14,1218.39 1439.25,1209.85 1440.37,1200.17 1441.48,1189.03 1442.6,1175.98 1443.72,1160.44 1444.83,1141.41 1445.95,1117.46 1447.06,1086.14 1448.18,1044.32 1449.29,983.65 1450.41,886.834 1451.52,713.638 1452.64,290.06 1453.75,1325.38 1454.87,1331.86 1455.98,1337.97 1457.1,1343.67 1458.22,1348.94 1459.33,1353.77 1460.45,1358.15 1461.56,1362.1 1462.68,1365.63 1463.79,1368.76 1464.91,1371.51 1466.02,1373.91 1467.14,1375.98 1468.25,1377.75 1469.37,1379.25 1470.48,1380.5 1471.6,1381.53 1472.72,1382.36 1473.83,1383.02 1474.95,1383.51 1476.06,1383.87 1477.18,1384.09 1478.29,1384.2 1479.41,1384.22 1480.52,1384.15 1481.64,1384.01 1482.75,1383.79 1483.87,1383.52 1484.98,1383.19 1486.1,1382.81 1487.22,1382.39 1488.33,1381.93 1489.45,1381.44 1490.56,1380.92 1491.68,1380.38 1492.79,1379.81 1493.91,1379.22 1495.02,1378.61 1496.14,1377.99 1497.25,1377.34 1498.37,1376.69 1499.48,1376.02 1500.6,1375.33 1501.72,1374.64 1502.83,1373.93 1503.95,1373.22 1505.06,1372.5 1506.18,1371.77 1507.29,1371.03 1508.41,1370.28 1509.52,1369.53 1510.64,1368.76 1511.75,1368 1512.87,1367.22 1513.98,1366.44 1515.1,1365.65 1516.22,1364.85 1517.33,1364.04 1518.45,1363.23 1519.56,1362.42 1520.68,1361.6 1521.79,1360.77 1522.91,1359.93 1524.02,1359.09 1525.14,1358.24 1526.25,1357.38 1527.37,1356.52 1528.48,1355.65 1529.6,1354.77 1530.72,1353.88 1531.83,1352.99 1532.95,1352.08 1534.06,1351.17 1535.18,1350.25 1536.29,1349.32 1537.41,1348.39 1538.52,1347.44 1539.64,1346.48 1540.75,1345.52 1541.87,1344.54 1542.98,1343.55 1544.1,1342.55 1545.22,1341.54 1546.33,1340.51 1547.45,1339.47 1548.56,1338.42 1549.68,1337.36 1550.79,1336.28 1551.91,1335.19 1553.02,1334.09 1554.14,1332.97 1555.25,1331.84 1556.37,1330.68 1557.48,1329.51 1558.6,1328.33 1559.72,1327.12 1560.83,1325.89 1561.95,1324.65 1563.06,1323.37 1564.18,1322.08 1565.29,1320.76 1566.41,1319.41 1567.52,1318.03 1568.64,1316.62 1569.75,1315.19 1570.87,1313.71 1571.99,1312.19 1573.1,1310.61 1574.22,1308.98 1575.33,1307.3 1576.45,1305.59 1577.56,1303.83 1578.68,1302.03 1579.79,1300.19 1580.91,1298.3 1582.02,1296.36 1583.14,1294.36 1584.25,1292.29 1585.37,1290.16 1586.49,1287.94 1587.6,1285.62 1588.72,1283.2 1589.83,1280.65 1590.95,1277.96 1592.06,1275.12 1593.18,1272.09 1594.29,1268.87 1595.41,1265.44 1596.52,1261.76 1597.64,1257.81 1598.75,1253.57 1599.87,1249.01 1600.99,1244.05 1602.1,1238.63 1603.22,1232.69 1604.33,1226.13 1605.45,1218.79 1606.56,1210.5 1607.68,1201 1608.79,1190.01 1609.91,1177.05 1611.02,1161.66 1612.14,1143.05 1613.25,1119.68 1614.37,1089.22 1615.49,1047.81 1616.6,989.415 1617.72,897.314 1618.83,731.502 1619.95,1322.75 1621.06,1329.34 1622.18,1335.56 1623.29,1341.39 1624.41,1346.8 1625.52,1351.78 1626.64,1356.32 1627.75,1360.42 1628.87,1364.1 1629.99,1367.36 1631.1,1370.24 1632.22,1372.77 1633.33,1374.96 1634.45,1376.85 1635.56,1378.45 1636.68,1379.79 1637.79,1380.9 1638.91,1381.79 1640.02,1382.51 1641.14,1383.06 1642.25,1383.47 1643.37,1383.75 1644.49,1383.91 1645.6,1383.96 1646.72,1383.92 1647.83,1383.8 1648.95,1383.61 1650.06,1383.36 1651.18,1383.05 1652.29,1382.7 1653.41,1382.3 1654.52,1381.86 1655.64,1381.38 1656.75,1380.87 1657.87,1380.33 1658.99,1379.77 1660.1,1379.19 1661.22,1378.58 1662.33,1377.96 1663.45,1377.33 1664.56,1376.67 1665.68,1376.01 1666.79,1375.33 1667.91,1374.64 1669.02,1373.94 1670.14,1373.23 1671.25,1372.51 1672.37,1371.78 1673.49,1371.04 1674.6,1370.3 1675.72,1369.54 1676.83,1368.78 1677.95,1368.01 1679.06,1367.24 1680.18,1366.46 1681.29,1365.67 1682.41,1364.88 1683.52,1364.08 1684.64,1363.27 1685.75,1362.45 1686.87,1361.63 1687.99,1360.8 1689.1,1359.96 1690.22,1359.12 1691.33,1358.27 1692.45,1357.41 1693.56,1356.55 1694.68,1355.68 1695.79,1354.8 1696.91,1353.91 1698.02,1353.02 1699.14,1352.12 1700.25,1351.21 1701.37,1350.29 1702.49,1349.36 1703.6,1348.42 1704.72,1347.48 1705.83,1346.52 1706.95,1345.55 1708.06,1344.58 1709.18,1343.59 1710.29,1342.59 1711.41,1341.59 1712.52,1340.56 1713.64,1339.53 1714.75,1338.49 1715.87,1337.43 1716.99,1336.35 1718.1,1335.26 1719.22,1334.15 1720.33,1333.02 1721.45,1331.87 1722.56,1330.7 1723.68,1329.51 1724.79,1328.31 1725.91,1327.09 1727.02,1325.85 1728.14,1324.59 1729.25,1323.31 1730.37,1322.01 1731.49,1320.69 1732.6,1319.34 1733.72,1317.98 1734.83,1316.58 1735.95,1315.16 1737.06,1313.7 1738.18,1312.21 1739.29,1310.69 1740.41,1309.13 1741.52,1307.52 1742.64,1305.86 1743.75,1304.16 1744.87,1302.4 1745.99,1300.58 1747.1,1298.7 1748.22,1296.76 1749.33,1294.73 1750.45,1292.63 1751.56,1290.45 1752.68,1288.18 1753.79,1285.81 1754.91,1283.29 1756.02,1280.6 1757.14,1277.75 1758.25,1274.78 1759.37,1271.68 1760.49,1268.45 1761.6,1265.07 1762.72,1261.52 1763.83,1257.76 1764.95,1253.72 1766.06,1249.35 1767.18,1244.57 1768.29,1239.3 1769.41,1233.42 1770.52,1226.83 1771.64,1219.41 1772.75,1211.01 1773.87,1201.49 1774.99,1190.57 1776.1,1177.8 1777.22,1162.63 1778.33,1144.12 1779.45,1120.91 1780.56,1090.7 1781.68,1050.57 1782.79,993.069 1783.91,902.459 1785.02,744.052 1786.14,374.614 1787.25,1324.53 1788.37,1331.05 1789.49,1337.21 1790.6,1342.96 1791.72,1348.29 1792.83,1353.17 1793.95,1357.61 1795.06,1361.62 1796.18,1365.2 1797.29,1368.38 1798.41,1371.17 1799.52,1373.62 1800.64,1375.73 1801.75,1377.54 1802.87,1379.07 1803.99,1380.35 1805.1,1381.4 1806.22,1382.26 1807.33,1382.94 1808.45,1383.46 1809.56,1383.83 1810.68,1384.07 1811.79,1384.19 1812.91,1384.22 1814.02,1384.16 1815.14,1384.03 1816.25,1383.82 1817.37,1383.56 1818.49,1383.23 1819.6,1382.86 1820.72,1382.45 1821.83,1381.99 1822.95,1381.51 1824.06,1380.99 1825.18,1380.45 1826.29,1379.88 1827.41,1379.3 1828.52,1378.69 1829.64,1378.07 1830.75,1377.43 1831.87,1376.77 1832.99,1376.1 1834.1,1375.42 1835.22,1374.72 1836.33,1374.02 1837.45,1373.31 1838.56,1372.59 1839.68,1371.86 1840.79,1371.12 1841.91,1370.38 1843.02,1369.62 1844.14,1368.86 1845.25,1368.09 1846.37,1367.32 1847.49,1366.53 1848.6,1365.74 1849.72,1364.95 1850.83,1364.15 1851.95,1363.34 1853.06,1362.52 1854.18,1361.7 1855.29,1360.87 1856.41,1360.04 1857.52,1359.19 1858.64,1358.34 1859.75,1357.49 1860.87,1356.63 1861.99,1355.76 1863.1,1354.88 1864.22,1353.99 1865.33,1353.1 1866.45,1352.2 1867.56,1351.29 1868.68,1350.37 1869.79,1349.44 1870.91,1348.5 1872.02,1347.56 1873.14,1346.6 1874.25,1345.64 1875.37,1344.66 1876.49,1343.68 1877.6,1342.68 1878.72,1341.66 1879.83,1340.64 1880.95,1339.61 1882.06,1338.56 1883.18,1337.5 1884.29,1336.42 1885.41,1335.33 1886.52,1334.23 1887.64,1333.11 1888.75,1331.98 1889.87,1330.83 1890.99,1329.66 1892.1,1328.48 1893.22,1327.27 1894.33,1326.05 1895.45,1324.8 1896.56,1323.53 1897.68,1322.24 1898.79,1320.92 1899.91,1319.58 1901.02,1318.21 1902.14,1316.8 1903.25,1315.37 1904.37,1313.9 1905.49,1312.38 1906.6,1310.81 1907.72,1309.19 1908.83,1307.52 1909.95,1305.81 1911.06,1304.05 1912.18,1302.26 1913.29,1300.42 1914.41,1298.54 1915.52,1296.6 1916.64,1294.61 1917.75,1292.56 1918.87,1290.43 1919.99,1288.22 1921.1,1285.92 1922.22,1283.51 1923.33,1280.98 1924.45,1278.31 1925.56,1275.48 1926.68,1272.48 1927.79,1269.29 1928.91,1265.88 1930.02,1262.23 1931.14,1258.32 1932.26,1254.12 1933.37,1249.6 1934.49,1244.7 1935.6,1239.34 1936.72,1233.47 1937.83,1226.99 1938.95,1219.76 1940.06,1211.6 1941.18,1202.27 1942.29,1191.48 1943.41,1178.8 1944.52,1163.74 1945.64,1145.61 1946.76,1122.95 1947.87,1093.53 1948.99,1053.79 1950.1,998.092 1951.22,911.725 1952.33,758.777 1953.45,1321.89 1954.56,1328.51 1955.68,1334.79 1956.79,1340.67 1957.91,1346.13 1959.02,1351.17 1960.14,1355.76 1961.26,1359.92 1962.37,1363.65 1963.49,1366.97 1964.6,1369.89 1965.72,1372.46 1966.83,1374.7 1967.95,1376.62 1969.06,1378.26 1970.18,1379.63 1971.29,1380.77 1972.41,1381.69 1973.52,1382.42 1974.64,1383 1975.76,1383.43 1976.87,1383.72 1977.99,1383.89 1979.1,1383.96 1980.22,1383.93 1981.33,1383.82 1982.45,1383.64 1983.56,1383.4 1984.68,1383.1 1985.79,1382.75 1986.91,1382.35 1988.02,1381.92 1989.14,1381.44 1990.26,1380.94 1991.37,1380.4 1992.49,1379.84 1993.6,1379.26 1994.72,1378.66 1995.83,1378.04 1996.95,1377.41 1998.06,1376.76 1999.18,1376.1 2000.29,1375.42 2001.41,1374.73 2002.52,1374.03 2003.64,1373.32 2004.76,1372.6 2005.87,1371.87 2006.99,1371.14 2008.1,1370.39 2009.22,1369.64 2010.33,1368.88 2011.45,1368.11 2012.56,1367.34 2013.68,1366.56 2014.79,1365.77 2015.91,1364.98 2017.02,1364.18 2018.14,1363.37 2019.26,1362.56 2020.37,1361.74 2021.49,1360.91 2022.6,1360.07 2023.72,1359.23 2024.83,1358.38 2025.95,1357.52 2027.06,1356.66 2028.18,1355.79 2029.29,1354.91 2030.41,1354.03 2031.52,1353.14 2032.64,1352.23 2033.76,1351.32 2034.87,1350.41 2035.99,1349.48 2037.1,1348.54 2038.22,1347.6 2039.33,1346.64 2040.45,1345.68 2041.56,1344.71 2042.68,1343.72 2043.79,1342.72 2044.91,1341.72 2046.02,1340.7 2047.14,1339.67 2048.26,1338.62 2049.37,1337.56 2050.49,1336.49 2051.6,1335.4 2052.72,1334.3 2053.83,1333.17 2054.95,1332.02 2056.06,1330.85 2057.18,1329.67 2058.29,1328.47 2059.41,1327.25 2060.52,1326.01 2061.64,1324.75 2062.76,1323.47 2063.87,1322.18 2064.99,1320.86 2066.1,1319.52 2067.22,1318.15 2068.33,1316.76 2069.45,1315.34 2070.56,1313.89 2071.68,1312.41 2072.79,1310.89 2073.91,1309.33 2075.02,1307.73 2076.14,1306.08 2077.26,1304.38 2078.37,1302.63 2079.49,1300.82 2080.6,1298.95 2081.72,1297.01 2082.83,1295 2083.95,1292.91 2085.06,1290.74 2086.18,1288.48 2087.29,1286.12 2088.41,1283.62 2089.52,1280.95 2090.64,1278.12 2091.76,1275.16 2092.87,1272.08 2093.99,1268.87 2095.1,1265.51 2096.22,1261.99 2097.33,1258.26 2098.45,1254.26 2099.56,1249.94 2100.68,1245.22 2101.79,1240.01 2102.91,1234.22 2104.02,1227.73 2105.14,1220.42 2106.26,1212.15 2107.37,1202.79 2108.49,1192.07 2109.6,1179.56 2110.72,1164.74 2111.83,1146.74 2112.95,1124.22 2114.06,1095.07 2115.18,1056.48 2116.29,1001.88 2117.41,916.961 2118.52,771.09 2119.64,446.045 2120.76,1323.66 2121.87,1330.23 2122.99,1336.44 2124.1,1342.24 2125.22,1347.62 2126.33,1352.57 2127.45,1357.07 2128.56,1361.13 2129.68,1364.76 2130.79,1367.99 2131.91,1370.83 2133.02,1373.32 2134.14,1375.47 2135.26,1377.32 2136.37,1378.88 2137.49,1380.19 2138.6,1381.28 2139.72,1382.16 2140.83,1382.86 2141.95,1383.4 2143.06,1383.79 2144.18,1384.04 2145.29,1384.18 2146.41,1384.22 2147.52,1384.17 2148.64,1384.05 2149.76,1383.85 2150.87,1383.59 2151.99,1383.28 2153.1,1382.91 2154.22,1382.5 2155.33,1382.05 2156.45,1381.57 2157.56,1381.06 2158.68,1380.52 2159.79,1379.96 2160.91,1379.37 2162.02,1378.77 2163.14,1378.15 2164.26,1377.51 2165.37,1376.86 2166.49,1376.19 2167.6,1375.51 2168.72,1374.82 2169.83,1374.11 2170.95,1373.4 2172.06,1372.68 2173.18,1371.95 2174.29,1371.22 2175.41,1370.47 2176.52,1369.72 2177.64,1368.96 2178.76,1368.19 2179.87,1367.42 2180.99,1366.64 2182.1,1365.85 2183.22,1365.05 2184.33,1364.25 2185.45,1363.44 2186.56,1362.63 2187.68,1361.81 2188.79,1360.98 2189.91,1360.14 2191.02,1359.3 2192.14,1358.46 2193.26,1357.6 2194.37,1356.74 2195.49,1355.87 2196.6,1354.99 2197.72,1354.11 2198.83,1353.21 2199.95,1352.31 2201.06,1351.4 2202.18,1350.49 2203.29,1349.56 2204.41,1348.63 2205.52,1347.68 2206.64,1346.73 2207.76,1345.76 2208.87,1344.79 2209.99,1343.8 2211.1,1342.81 2212.22,1341.8 2213.33,1340.77 2214.45,1339.74 2215.56,1338.69 2216.68,1337.63 2217.79,1336.56 2218.91,1335.47 2220.02,1334.37 2221.14,1333.26 2222.26,1332.13 2223.37,1330.98 2224.49,1329.81 2225.6,1328.63 2226.72,1327.43 2227.83,1326.21 2228.95,1324.97 2230.06,1323.7 2231.18,1322.41 2232.29,1321.1 2233.41,1319.76 2234.52,1318.39 2235.64,1316.99 2236.76,1315.56 2237.87,1314.09 2238.99,1312.58 2240.1,1311.02 2241.22,1309.4 2242.33,1307.74 2243.45,1306.03 2244.56,1304.28 2245.68,1302.49 2246.79,1300.66 2247.91,1298.78 2249.02,1296.85 2250.14,1294.87 2251.26,1292.83 2252.37,1290.71 2253.49,1288.51 2254.6,1286.22 2255.72,1283.83 2256.83,1281.31 2257.95,1278.66 2259.06,1275.86 2260.18,1272.88 2261.29,1269.72 2262.41,1266.34 2263.52,1262.72 2264.64,1258.84 2265.76,1254.68 2266.87,1250.2 2267.99,1245.36 2269.1,1240.06 2270.22,1234.26 2271.33,1227.87 2272.45,1220.75 2273.56,1212.72 2274.68,1203.55 2275.79,1192.97 2276.91,1180.57 2278.02,1165.84 2279.14,1148.17 2280.26,1126.2 2281.37,1097.81 2282.49,1059.69 2283.6,1006.55 2284.72,925.562 2285.83,784.439 2286.95,485.761 2288.06,1327.68 2289.18,1334 2290.29,1339.93 2291.41,1345.45 2292.53,1350.54 2293.64,1355.19 2294.76,1359.41 2295.87,1363.19 2296.99,1366.56 2298.1,1369.54 2299.22,1372.15 2300.33,1374.43 2301.45,1376.39 2302.56,1378.06 2303.68,1379.47 2304.79,1380.63 2305.91,1381.58 2307.03,1382.34 2308.14,1382.93 2309.26,1383.38 2310.37,1383.69 2311.49,1383.88 2312.6,1383.96 2313.72,1383.94 2314.83,1383.84 2315.95,1383.67 2317.06,1383.43 2318.18,1383.14 2319.29,1382.79 2320.41,1382.41 2321.53,1381.97 2322.64,1381.51 2323.76,1381.01 2324.87,1380.47 2325.99,1379.92 2327.1,1379.34 2328.22,1378.74 2329.33,1378.12 2330.45,1377.49 2331.56,1376.84 2332.68,1376.18 2333.79,1375.51 2334.91,1374.82 2336.03,1374.12 2337.14,1373.41 2338.26,1372.7 2339.37,1371.97 2340.49,1371.23 2341.6,1370.49 2342.72,1369.74 2343.83,1368.98 2344.95,1368.21 2346.06,1367.44 2347.18,1366.66 2348.29,1365.87 2349.41,1365.08 2350.53,1364.28 2351.64,1363.47 2352.76,1362.66 "/>
<path clip-path="url(#clip970)" d="M1973.81 196.789 L2280.29 196.789 L2280.29 93.1086 L1973.81 93.1086  Z" fill="#ffffff" fill-rule="evenodd" fill-opacity="1"/>
<polyline clip-path="url(#clip970)" style="stroke:#000000; stroke-linecap:round; stroke-linejoin:round; stroke-width:4; stroke-opacity:1; fill:none" points="1973.81,196.789 2280.29,196.789 2280.29,93.1086 1973.81,93.1086 1973.81,196.789 "/>
<polyline clip-path="url(#clip970)" style="stroke:#009af9; stroke-linecap:round; stroke-linejoin:round; stroke-width:4; stroke-opacity:1; fill:none" points="1997.96,144.949 2142.89,144.949 "/>
<path clip-path="url(#clip970)" d="M2167.04 151.997 L2167.04 136.303 L2171.3 136.303 L2171.3 151.835 Q2171.3 155.516 2172.74 157.368 Q2174.17 159.196 2177.04 159.196 Q2180.49 159.196 2182.48 156.997 Q2184.5 154.798 2184.5 151.002 L2184.5 136.303 L2188.75 136.303 L2188.75 162.229 L2184.5 162.229 L2184.5 158.247 Q2182.94 160.608 2180.88 161.766 Q2178.85 162.9 2176.14 162.9 Q2171.67 162.9 2169.36 160.122 Q2167.04 157.344 2167.04 151.997 M2177.76 135.678 L2177.76 135.678 Z" fill="#000000" fill-rule="nonzero" fill-opacity="1" /><path clip-path="url(#clip970)" d="M2197.13 126.21 L2206.95 126.21 L2206.95 129.52 L2201.39 129.52 L2201.39 165.168 L2206.95 165.168 L2206.95 168.479 L2197.13 168.479 L2197.13 126.21 Z" fill="#000000" fill-rule="nonzero" fill-opacity="1" /><path clip-path="url(#clip970)" d="M2217.44 158.293 L2225.07 158.293 L2225.07 131.928 L2216.76 133.595 L2216.76 129.335 L2225.03 127.669 L2229.7 127.669 L2229.7 158.293 L2237.34 158.293 L2237.34 162.229 L2217.44 162.229 L2217.44 158.293 Z" fill="#000000" fill-rule="nonzero" fill-opacity="1" /><path clip-path="url(#clip970)" d="M2256.14 126.21 L2256.14 168.479 L2246.32 168.479 L2246.32 165.168 L2251.86 165.168 L2251.86 129.52 L2246.32 129.52 L2246.32 126.21 L2256.14 126.21 Z" fill="#000000" fill-rule="nonzero" fill-opacity="1" /></svg>
