<?xml version="1.0" encoding="utf-8"?>
<svg xmlns="http://www.w3.org/2000/svg" xmlns:xlink="http://www.w3.org/1999/xlink" width="600" height="400" viewBox="0 0 2400 1600">
<defs>
  <clipPath id="clip970">
    <rect x="0" y="0" width="2400" height="1600"/>
  </clipPath>
</defs>
<path clip-path="url(#clip970)" d="M0 1600 L2400 1600 L2400 0 L0 0  Z" fill="#ffffff" fill-rule="evenodd" fill-opacity="1"/>
<defs>
  <clipPath id="clip971">
    <rect x="141" y="47" width="2212" height="1377"/>
  </clipPath>
</defs>
<path clip-path="url(#clip970)" d="M141.853 1423.18 L2352.76 1423.18 L2352.76 47.2441 L141.853 47.2441  Z" fill="#ffffff" fill-rule="evenodd" fill-opacity="1"/>
<polyline clip-path="url(#clip971)" style="stroke:#000000; stroke-linecap:round; stroke-linejoin:round; stroke-width:2; stroke-opacity:0.1; fill:none" points="141.853,1423.18 141.853,47.2441 "/>
<polyline clip-path="url(#clip971)" style="stroke:#000000; stroke-linecap:round; stroke-linejoin:round; stroke-width:2; stroke-opacity:0.1; fill:none" points="584.034,1423.18 584.034,47.2441 "/>
<polyline clip-path="url(#clip971)" style="stroke:#000000; stroke-linecap:round; stroke-linejoin:round; stroke-width:2; stroke-opacity:0.1; fill:none" points="1026.21,1423.18 1026.21,47.2441 "/>
<polyline clip-path="url(#clip971)" style="stroke:#000000; stroke-linecap:round; stroke-linejoin:round; stroke-width:2; stroke-opacity:0.1; fill:none" points="1468.39,1423.18 1468.39,47.2441 "/>
<polyline clip-path="url(#clip971)" style="stroke:#000000; stroke-linecap:round; stroke-linejoin:round; stroke-width:2; stroke-opacity:0.1; fill:none" points="1910.58,1423.18 1910.58,47.2441 "/>
<polyline clip-path="url(#clip971)" style="stroke:#000000; stroke-linecap:round; stroke-linejoin:round; stroke-width:2; stroke-opacity:0.1; fill:none" points="2352.76,1423.18 2352.76,47.2441 "/>
<polyline clip-path="url(#clip971)" style="stroke:#000000; stroke-linecap:round; stroke-linejoin:round; stroke-width:2; stroke-opacity:0.1; fill:none" points="141.853,1385.16 2352.76,1385.16 "/>
<polyline clip-path="url(#clip971)" style="stroke:#000000; stroke-linecap:round; stroke-linejoin:round; stroke-width:2; stroke-opacity:0.1; fill:none" points="141.853,1078.24 2352.76,1078.24 "/>
<polyline clip-path="url(#clip971)" style="stroke:#000000; stroke-linecap:round; stroke-linejoin:round; stroke-width:2; stroke-opacity:0.1; fill:none" points="141.853,771.318 2352.76,771.318 "/>
<polyline clip-path="url(#clip971)" style="stroke:#000000; stroke-linecap:round; stroke-linejoin:round; stroke-width:2; stroke-opacity:0.1; fill:none" points="141.853,464.395 2352.76,464.395 "/>
<polyline clip-path="url(#clip971)" style="stroke:#000000; stroke-linecap:round; stroke-linejoin:round; stroke-width:2; stroke-opacity:0.1; fill:none" points="141.853,157.473 2352.76,157.473 "/>
<polyline clip-path="url(#clip970)" style="stroke:#000000; stroke-linecap:round; stroke-linejoin:round; stroke-width:4; stroke-opacity:1; fill:none" points="141.853,1423.18 2352.76,1423.18 "/>
<polyline clip-path="url(#clip970)" style="stroke:#000000; stroke-linecap:round; stroke-linejoin:round; stroke-width:4; stroke-opacity:1; fill:none" points="141.853,1423.18 141.853,1404.28 "/>
<polyline clip-path="url(#clip970)" style="stroke:#000000; stroke-linecap:round; stroke-linejoin:round; stroke-width:4; stroke-opacity:1; fill:none" points="584.034,1423.18 584.034,1404.28 "/>
<polyline clip-path="url(#clip970)" style="stroke:#000000; stroke-linecap:round; stroke-linejoin:round; stroke-width:4; stroke-opacity:1; fill:none" points="1026.21,1423.18 1026.21,1404.28 "/>
<polyline clip-path="url(#clip970)" style="stroke:#000000; stroke-linecap:round; stroke-linejoin:round; stroke-width:4; stroke-opacity:1; fill:none" points="1468.39,1423.18 1468.39,1404.28 "/>
<polyline clip-path="url(#clip970)" style="stroke:#000000; stroke-linecap:round; stroke-linejoin:round; stroke-width:4; stroke-opacity:1; fill:none" points="1910.58,1423.18 1910.58,1404.28 "/>
<polyline clip-path="url(#clip970)" style="stroke:#000000; stroke-linecap:round; stroke-linejoin:round; stroke-width:4; stroke-opacity:1; fill:none" points="2352.76,1423.18 2352.76,1404.28 "/>
<path clip-path="url(#clip970)" d="M141.853 1454.1 Q138.242 1454.1 136.413 1457.66 Q134.608 1461.2 134.608 1468.33 Q134.608 1475.44 136.413 1479.01 Q138.242 1482.55 141.853 1482.55 Q145.487 1482.55 147.293 1479.01 Q149.121 1475.44 149.121 1468.33 Q149.121 1461.2 147.293 1457.66 Q145.487 1454.1 141.853 1454.1 M141.853 1450.39 Q147.663 1450.39 150.719 1455 Q153.797 1459.58 153.797 1468.33 Q153.797 1477.06 150.719 1481.67 Q147.663 1486.25 141.853 1486.25 Q136.043 1486.25 132.964 1481.67 Q129.909 1477.06 129.909 1468.33 Q129.909 1459.58 132.964 1455 Q136.043 1450.39 141.853 1450.39 Z" fill="#000000" fill-rule="nonzero" fill-opacity="1" /><path clip-path="url(#clip970)" d="M574.416 1481.64 L582.054 1481.64 L582.054 1455.28 L573.744 1456.95 L573.744 1452.69 L582.008 1451.02 L586.684 1451.02 L586.684 1481.64 L594.323 1481.64 L594.323 1485.58 L574.416 1485.58 L574.416 1481.64 Z" fill="#000000" fill-rule="nonzero" fill-opacity="1" /><path clip-path="url(#clip970)" d="M1020.87 1481.64 L1037.19 1481.64 L1037.19 1485.58 L1015.24 1485.58 L1015.24 1481.64 Q1017.9 1478.89 1022.49 1474.26 Q1027.09 1469.61 1028.27 1468.27 Q1030.52 1465.74 1031.4 1464.01 Q1032.3 1462.25 1032.3 1460.56 Q1032.3 1457.8 1030.36 1456.07 Q1028.44 1454.33 1025.33 1454.33 Q1023.14 1454.33 1020.68 1455.09 Q1018.25 1455.86 1015.47 1457.41 L1015.47 1452.69 Q1018.3 1451.55 1020.75 1450.97 Q1023.2 1450.39 1025.24 1450.39 Q1030.61 1450.39 1033.81 1453.08 Q1037 1455.77 1037 1460.26 Q1037 1462.39 1036.19 1464.31 Q1035.4 1466.2 1033.3 1468.8 Q1032.72 1469.47 1029.62 1472.69 Q1026.52 1475.88 1020.87 1481.64 Z" fill="#000000" fill-rule="nonzero" fill-opacity="1" /><path clip-path="url(#clip970)" d="M1472.64 1466.95 Q1476 1467.66 1477.87 1469.93 Q1479.77 1472.2 1479.77 1475.53 Q1479.77 1480.65 1476.25 1483.45 Q1472.73 1486.25 1466.25 1486.25 Q1464.08 1486.25 1461.76 1485.81 Q1459.47 1485.39 1457.02 1484.54 L1457.02 1480.02 Q1458.96 1481.16 1461.28 1481.74 Q1463.59 1482.32 1466.11 1482.32 Q1470.51 1482.32 1472.8 1480.58 Q1475.12 1478.84 1475.12 1475.53 Q1475.12 1472.48 1472.97 1470.77 Q1470.84 1469.03 1467.02 1469.03 L1462.99 1469.03 L1462.99 1465.19 L1467.2 1465.19 Q1470.65 1465.19 1472.48 1463.82 Q1474.31 1462.43 1474.31 1459.84 Q1474.31 1457.18 1472.41 1455.77 Q1470.54 1454.33 1467.02 1454.33 Q1465.1 1454.33 1462.9 1454.75 Q1460.7 1455.16 1458.06 1456.04 L1458.06 1451.88 Q1460.72 1451.14 1463.04 1450.77 Q1465.37 1450.39 1467.43 1450.39 Q1472.76 1450.39 1475.86 1452.83 Q1478.96 1455.23 1478.96 1459.35 Q1478.96 1462.22 1477.32 1464.21 Q1475.67 1466.18 1472.64 1466.95 Z" fill="#000000" fill-rule="nonzero" fill-opacity="1" /><path clip-path="url(#clip970)" d="M1913.58 1455.09 L1901.78 1473.54 L1913.58 1473.54 L1913.58 1455.09 M1912.36 1451.02 L1918.24 1451.02 L1918.24 1473.54 L1923.17 1473.54 L1923.17 1477.43 L1918.24 1477.43 L1918.24 1485.58 L1913.58 1485.58 L1913.58 1477.43 L1897.98 1477.43 L1897.98 1472.92 L1912.36 1451.02 Z" fill="#000000" fill-rule="nonzero" fill-opacity="1" /><path clip-path="url(#clip970)" d="M2343.03 1451.02 L2361.39 1451.02 L2361.39 1454.96 L2347.32 1454.96 L2347.32 1463.43 Q2348.33 1463.08 2349.35 1462.92 Q2350.37 1462.73 2351.39 1462.73 Q2357.18 1462.73 2360.56 1465.9 Q2363.94 1469.08 2363.94 1474.49 Q2363.94 1480.07 2360.46 1483.17 Q2356.99 1486.25 2350.67 1486.25 Q2348.5 1486.25 2346.23 1485.88 Q2343.98 1485.51 2341.58 1484.77 L2341.58 1480.07 Q2343.66 1481.2 2345.88 1481.76 Q2348.1 1482.32 2350.58 1482.32 Q2354.58 1482.32 2356.92 1480.21 Q2359.26 1478.1 2359.26 1474.49 Q2359.26 1470.88 2356.92 1468.77 Q2354.58 1466.67 2350.58 1466.67 Q2348.71 1466.67 2346.83 1467.08 Q2344.98 1467.5 2343.03 1468.38 L2343.03 1451.02 Z" fill="#000000" fill-rule="nonzero" fill-opacity="1" /><path clip-path="url(#clip970)" d="M1246.37 1522.27 L1246.37 1532.4 L1258.43 1532.4 L1258.43 1536.95 L1246.37 1536.95 L1246.37 1556.3 Q1246.37 1560.66 1247.54 1561.9 Q1248.75 1563.14 1252.41 1563.14 L1258.43 1563.14 L1258.43 1568.04 L1252.41 1568.04 Q1245.63 1568.04 1243.06 1565.53 Q1240.48 1562.98 1240.48 1556.3 L1240.48 1536.95 L1236.18 1536.95 L1236.18 1532.4 L1240.48 1532.4 L1240.48 1522.27 L1246.37 1522.27 Z" fill="#000000" fill-rule="nonzero" fill-opacity="1" /><polyline clip-path="url(#clip970)" style="stroke:#000000; stroke-linecap:round; stroke-linejoin:round; stroke-width:4; stroke-opacity:1; fill:none" points="141.853,1423.18 141.853,47.2441 "/>
<polyline clip-path="url(#clip970)" style="stroke:#000000; stroke-linecap:round; stroke-linejoin:round; stroke-width:4; stroke-opacity:1; fill:none" points="141.853,1385.16 160.751,1385.16 "/>
<polyline clip-path="url(#clip970)" style="stroke:#000000; stroke-linecap:round; stroke-linejoin:round; stroke-width:4; stroke-opacity:1; fill:none" points="141.853,1078.24 160.751,1078.24 "/>
<polyline clip-path="url(#clip970)" style="stroke:#000000; stroke-linecap:round; stroke-linejoin:round; stroke-width:4; stroke-opacity:1; fill:none" points="141.853,771.318 160.751,771.318 "/>
<polyline clip-path="url(#clip970)" style="stroke:#000000; stroke-linecap:round; stroke-linejoin:round; stroke-width:4; stroke-opacity:1; fill:none" points="141.853,464.395 160.751,464.395 "/>
<polyline clip-path="url(#clip970)" style="stroke:#000000; stroke-linecap:round; stroke-linejoin:round; stroke-width:4; stroke-opacity:1; fill:none" points="141.853,157.473 160.751,157.473 "/>
<path clip-path="url(#clip970)" d="M93.9086 1370.96 Q90.2975 1370.96 88.4688 1374.53 Q86.6632 1378.07 86.6632 1385.2 Q86.6632 1392.3 88.4688 1395.87 Q90.2975 1399.41 93.9086 1399.41 Q97.5428 1399.41 99.3483 1395.87 Q101.177 1392.3 101.177 1385.2 Q101.177 1378.07 99.3483 1374.53 Q97.5428 1370.96 93.9086 1370.96 M93.9086 1367.26 Q99.7187 1367.26 102.774 1371.86 Q105.853 1376.45 105.853 1385.2 Q105.853 1393.93 102.774 1398.53 Q99.7187 1403.11 93.9086 1403.11 Q88.0984 1403.11 85.0197 1398.53 Q81.9642 1393.93 81.9642 1385.2 Q81.9642 1376.45 85.0197 1371.86 Q88.0984 1367.26 93.9086 1367.26 Z" fill="#000000" fill-rule="nonzero" fill-opacity="1" /><path clip-path="url(#clip970)" d="M54.5569 1091.59 L62.1958 1091.59 L62.1958 1065.22 L53.8856 1066.89 L53.8856 1062.63 L62.1495 1060.96 L66.8254 1060.96 L66.8254 1091.59 L74.4642 1091.59 L74.4642 1095.52 L54.5569 1095.52 L54.5569 1091.59 Z" fill="#000000" fill-rule="nonzero" fill-opacity="1" /><path clip-path="url(#clip970)" d="M93.9086 1064.04 Q90.2975 1064.04 88.4688 1067.6 Q86.6632 1071.15 86.6632 1078.28 Q86.6632 1085.38 88.4688 1088.95 Q90.2975 1092.49 93.9086 1092.49 Q97.5428 1092.49 99.3483 1088.95 Q101.177 1085.38 101.177 1078.28 Q101.177 1071.15 99.3483 1067.6 Q97.5428 1064.04 93.9086 1064.04 M93.9086 1060.34 Q99.7187 1060.34 102.774 1064.94 Q105.853 1069.53 105.853 1078.28 Q105.853 1087 102.774 1091.61 Q99.7187 1096.19 93.9086 1096.19 Q88.0984 1096.19 85.0197 1091.61 Q81.9642 1087 81.9642 1078.28 Q81.9642 1069.53 85.0197 1064.94 Q88.0984 1060.34 93.9086 1060.34 Z" fill="#000000" fill-rule="nonzero" fill-opacity="1" /><path clip-path="url(#clip970)" d="M57.7745 784.663 L74.0939 784.663 L74.0939 788.598 L52.1495 788.598 L52.1495 784.663 Q54.8115 781.908 59.3949 777.279 Q64.0013 772.626 65.1819 771.283 Q67.4272 768.76 68.3068 767.024 Q69.2096 765.265 69.2096 763.575 Q69.2096 760.82 67.2652 759.084 Q65.3439 757.348 62.2421 757.348 Q60.043 757.348 57.5893 758.112 Q55.1588 758.876 52.381 760.427 L52.381 755.705 Q55.2051 754.57 57.6588 753.992 Q60.1124 753.413 62.1495 753.413 Q67.5198 753.413 70.7142 756.098 Q73.9087 758.783 73.9087 763.274 Q73.9087 765.404 73.0985 767.325 Q72.3115 769.223 70.205 771.816 Q69.6263 772.487 66.5245 775.705 Q63.4226 778.899 57.7745 784.663 Z" fill="#000000" fill-rule="nonzero" fill-opacity="1" /><path clip-path="url(#clip970)" d="M93.9086 757.117 Q90.2975 757.117 88.4688 760.682 Q86.6632 764.223 86.6632 771.353 Q86.6632 778.459 88.4688 782.024 Q90.2975 785.566 93.9086 785.566 Q97.5428 785.566 99.3483 782.024 Q101.177 778.459 101.177 771.353 Q101.177 764.223 99.3483 760.682 Q97.5428 757.117 93.9086 757.117 M93.9086 753.413 Q99.7187 753.413 102.774 758.019 Q105.853 762.603 105.853 771.353 Q105.853 780.08 102.774 784.686 Q99.7187 789.269 93.9086 789.269 Q88.0984 789.269 85.0197 784.686 Q81.9642 780.08 81.9642 771.353 Q81.9642 762.603 85.0197 758.019 Q88.0984 753.413 93.9086 753.413 Z" fill="#000000" fill-rule="nonzero" fill-opacity="1" /><path clip-path="url(#clip970)" d="M67.9133 463.041 Q71.2698 463.759 73.1448 466.027 Q75.0429 468.296 75.0429 471.629 Q75.0429 476.745 71.5244 479.546 Q68.0059 482.347 61.5245 482.347 Q59.3486 482.347 57.0338 481.907 Q54.7421 481.49 52.2884 480.634 L52.2884 476.12 Q54.2328 477.254 56.5477 477.833 Q58.8625 478.411 61.3856 478.411 Q65.7837 478.411 68.0754 476.675 Q70.3902 474.939 70.3902 471.629 Q70.3902 468.573 68.2374 466.861 Q66.1078 465.124 62.2884 465.124 L58.2606 465.124 L58.2606 461.282 L62.4735 461.282 Q65.9226 461.282 67.7513 459.916 Q69.58 458.527 69.58 455.935 Q69.58 453.273 67.6819 451.861 Q65.8069 450.425 62.2884 450.425 Q60.3671 450.425 58.168 450.842 Q55.969 451.259 53.3301 452.138 L53.3301 447.972 Q55.9921 447.231 58.3069 446.861 Q60.6449 446.49 62.705 446.49 Q68.0291 446.49 71.1309 448.921 Q74.2327 451.328 74.2327 455.449 Q74.2327 458.319 72.5892 460.31 Q70.9457 462.277 67.9133 463.041 Z" fill="#000000" fill-rule="nonzero" fill-opacity="1" /><path clip-path="url(#clip970)" d="M93.9086 450.194 Q90.2975 450.194 88.4688 453.759 Q86.6632 457.3 86.6632 464.43 Q86.6632 471.536 88.4688 475.101 Q90.2975 478.643 93.9086 478.643 Q97.5428 478.643 99.3483 475.101 Q101.177 471.536 101.177 464.43 Q101.177 457.3 99.3483 453.759 Q97.5428 450.194 93.9086 450.194 M93.9086 446.49 Q99.7187 446.49 102.774 451.097 Q105.853 455.68 105.853 464.43 Q105.853 473.157 102.774 477.763 Q99.7187 482.347 93.9086 482.347 Q88.0984 482.347 85.0197 477.763 Q81.9642 473.157 81.9642 464.43 Q81.9642 455.68 85.0197 451.097 Q88.0984 446.49 93.9086 446.49 Z" fill="#000000" fill-rule="nonzero" fill-opacity="1" /><path clip-path="url(#clip970)" d="M66.5939 144.267 L54.7884 162.716 L66.5939 162.716 L66.5939 144.267 M65.367 140.193 L71.2466 140.193 L71.2466 162.716 L76.1772 162.716 L76.1772 166.604 L71.2466 166.604 L71.2466 174.753 L66.5939 174.753 L66.5939 166.604 L50.9921 166.604 L50.9921 162.091 L65.367 140.193 Z" fill="#000000" fill-rule="nonzero" fill-opacity="1" /><path clip-path="url(#clip970)" d="M93.9086 143.271 Q90.2975 143.271 88.4688 146.836 Q86.6632 150.378 86.6632 157.507 Q86.6632 164.614 88.4688 168.178 Q90.2975 171.72 93.9086 171.72 Q97.5428 171.72 99.3483 168.178 Q101.177 164.614 101.177 157.507 Q101.177 150.378 99.3483 146.836 Q97.5428 143.271 93.9086 143.271 M93.9086 139.568 Q99.7187 139.568 102.774 144.174 Q105.853 148.757 105.853 157.507 Q105.853 166.234 102.774 170.841 Q99.7187 175.424 93.9086 175.424 Q88.0984 175.424 85.0197 170.841 Q81.9642 166.234 81.9642 157.507 Q81.9642 148.757 85.0197 144.174 Q88.0984 139.568 93.9086 139.568 Z" fill="#000000" fill-rule="nonzero" fill-opacity="1" /><polyline clip-path="url(#clip971)" style="stroke:#009af9; stroke-linecap:round; stroke-linejoin:round; stroke-width:4; stroke-opacity:1; fill:none" points="141.853,1354.47 146.275,1354.47 150.697,1354.47 155.118,1354.48 159.54,1354.48 163.962,1354.5 168.384,1354.53 172.806,1354.53 177.227,1354.56 181.649,1354.62 186.071,1354.67 190.493,1354.75 194.915,1354.79 199.336,1354.89 203.758,1354.99 208.18,1355.14 212.602,1355.28 217.024,1355.45 221.445,1355.65 225.867,1355.92 230.289,1356.13 234.711,1356.28 239.133,1356.41 243.554,1356.52 247.976,1356.52 252.398,1356.5 256.82,1356.48 261.242,1356.46 265.664,1356.46 270.085,1356.43 274.507,1356.45 278.929,1356.43 283.351,1356.55 287.773,1356.71 292.194,1357.02 296.616,1357.34 301.038,1357.7 305.46,1357.99 309.882,1358.34 314.303,1358.63 318.725,1358.69 323.147,1358.82 327.569,1358.82 331.991,1358.75 336.412,1358.74 340.834,1358.63 345.256,1358.47 349.678,1358.29 354.1,1358.04 358.521,1357.81 362.943,1357.7 367.365,1357.49 371.787,1357.32 376.209,1357.08 380.63,1356.75 385.052,1356.4 389.474,1356.11 393.896,1355.69 398.318,1355.44 402.739,1355.22 407.161,1354.88 411.583,1354.4 416.005,1353.84 420.427,1353.28 424.849,1352.7 429.27,1352.23 433.692,1351.36 438.114,1350.5 442.536,1349.78 446.958,1348.98 451.379,1348.06 455.801,1347.38 460.223,1346.89 464.645,1346.21 469.067,1345.43 473.488,1344.6 477.91,1343.55 482.332,1342.49 486.754,1341.36 491.176,1340.33 495.597,1339.4 500.019,1338.62 504.441,1337.83 508.863,1337.04 513.285,1336.48 517.706,1335.86 522.128,1335.24 526.55,1334.36 530.972,1333.45 535.394,1332.6 539.815,1331.8 544.237,1331.06 548.659,1330.1 553.081,1329.31 557.503,1328.8 561.925,1327.98 566.346,1327.09 570.768,1326.09 575.19,1325 579.612,1323.98 584.034,1323.16 588.455,1322.37 592.877,1321.3 597.299,1320.14 601.721,1318.84 606.143,1317.39 610.564,1315.99 614.986,1314.46 619.408,1313.2 623.83,1311.99 628.252,1310.62 632.673,1309.3 637.095,1308.07 641.517,1306.63 645.939,1305.27 650.361,1303.82 654.782,1302.34 659.204,1300.92 663.626,1299.25 668.048,1297.74 672.47,1296.43 676.891,1295.09 681.313,1293.49 685.735,1291.59 690.157,1289.92 694.579,1288.49 699,1287.38 703.422,1286.03 707.844,1284.39 712.266,1282.69 716.688,1280.65 721.11,1278.19 725.531,1275.6 729.953,1272.68 734.375,1270 738.797,1267.64 743.219,1264.91 747.64,1262.34 752.062,1259.71 756.484,1256.64 760.906,1253.29 765.328,1250.01 769.749,1246.57 774.171,1243.68 778.593,1242.36 783.015,1239.89 787.437,1237.23 791.858,1234.22 796.28,1231.62 800.702,1230.07 805.124,1231.05 809.546,1231.2 813.967,1232.85 818.389,1234.09 822.811,1234.79 827.233,1234.62 831.655,1233.84 836.076,1232.58 840.498,1231.22 844.92,1229.21 849.342,1228.11 853.764,1226.44 858.186,1223.69 862.607,1219.76 867.029,1215.36 871.451,1212.04 875.873,1208.61 880.295,1206.09 884.716,1203.56 889.138,1200.38 893.56,1195.3 897.982,1190.88 902.404,1184.89 906.825,1178.35 911.247,1171.57 915.669,1164.55 920.091,1158.47 924.513,1152.46 928.934,1146.16 933.356,1139.09 937.778,1132.82 942.2,1126.17 946.622,1119.05 951.043,1111.88 955.465,1104.68 959.887,1099.43 964.309,1095.02 968.731,1090.14 973.152,1084.69 977.574,1079.5 981.996,1074.19 986.418,1070.6 990.84,1066.98 995.261,1061.36 999.683,1056.31 1004.11,1051.3 1008.53,1046.36 1012.95,1041.21 1017.37,1036.43 1021.79,1030.33 1026.21,1023.12 1030.64,1014.49 1035.06,1005.79 1039.48,999.394 1043.9,993.705 1048.32,986.241 1052.74,977.454 1057.17,966.632 1061.59,956.025 1066.01,947.337 1070.43,938.764 1074.85,930.904 1079.28,923.332 1083.7,916.861 1088.12,910.462 1092.54,903.107 1096.96,896.029 1101.38,889.13 1105.81,881.081 1110.23,872.382 1114.65,861.9 1119.07,850.784 1123.49,840.054 1127.92,828.404 1132.34,817.163 1136.76,807.926 1141.18,797.931 1145.6,784.736 1150.02,769.217 1154.45,753.496 1158.87,738.283 1163.29,722.595 1167.71,704.893 1172.13,688.602 1176.56,669.572 1180.98,650.729 1185.4,631.297 1189.82,610.131 1194.24,593.835 1198.66,579.705 1203.09,565.265 1207.51,548.669 1211.93,530.099 1216.35,512.423 1220.77,493.208 1225.2,473.212 1229.62,455.218 1234.04,434.488 1238.46,412.53 1242.88,391.271 1247.3,373.566 1251.73,355.658 1256.15,342.547 1260.57,331.356 1264.99,318.333 1269.41,305.676 1273.84,298.72 1278.26,292.373 1282.68,284.93 1287.1,278.304 1291.52,269.198 1295.94,260.468 1300.37,250.731 1304.79,242.51 1309.21,237.54 1313.63,232.685 1318.05,229.121 1322.48,224.201 1326.9,218.914 1331.32,216.802 1335.74,212.62 1340.16,204.269 1344.58,193.925 1349.01,187.155 1353.43,181.617 1357.85,177.214 1362.27,173.754 1366.69,166.632 1371.11,152.796 1375.54,139.875 1379.96,123.783 1384.38,111.042 1388.8,101.911 1393.22,96.4258 1397.65,89.3234 1402.07,86.1857 1406.49,88.1074 1410.91,94.2171 1415.33,99.8845 1419.75,110.139 1424.18,119.298 1428.6,132.307 1433.02,142.343 1437.44,156.976 1441.86,173.059 1446.29,193.12 1450.71,225.186 1455.13,265.247 1459.55,302.25 1463.97,335.69 1468.39,365.127 1472.82,393.806 1477.24,421.894 1481.66,445.15 1486.08,467.708 1490.5,488.326 1494.93,508.373 1499.35,529.263 1503.77,549.429 1508.19,568.811 1512.61,591.194 1517.03,607.809 1521.46,623.637 1525.88,640.596 1530.3,652.195 1534.72,667.173 1539.14,680.717 1543.57,693.212 1547.99,708.196 1552.41,723.742 1556.83,740.986 1561.25,762.77 1565.67,784.754 1570.1,806.72 1574.52,826.212 1578.94,844.574 1583.36,861.271 1587.78,876.887 1592.21,890.716 1596.63,904.533 1601.05,916.662 1605.47,927.594 1609.89,939.535 1614.31,950.74 1618.74,960.09 1623.16,969.364 1627.58,978.515 1632,982.588 1636.42,986.985 1640.85,988.065 1645.27,991.96 1649.69,999.312 1654.11,1005.93 1658.53,1014.56 1662.95,1025.23 1667.38,1038.34 1671.8,1052.74 1676.22,1065.75 1680.64,1077.69 1685.06,1085.76 1689.49,1095.19 1693.91,1107.3 1698.33,1119.14 1702.75,1131.48 1707.17,1143.32 1711.59,1155.96 1716.02,1168.87 1720.44,1181.13 1724.86,1192.77 1729.28,1204.48 1733.7,1215.41 1738.12,1225.21 1742.55,1233.9 1746.97,1242.28 1751.39,1250.09 1755.81,1257.22 1760.23,1264.67 1764.66,1271.76 1769.08,1278.57 1773.5,1284.63 1777.92,1290.91 1782.34,1296.76 1786.76,1301.9 1791.19,1306.91 1795.61,1311.74 1800.03,1315.99 1804.45,1319.33 1808.87,1322.8 1813.3,1326.42 1817.72,1329.81 1822.14,1333.23 1826.56,1336.47 1830.98,1339.49 1835.4,1342.22 1839.83,1344.83 1844.25,1347.07 1848.67,1349.21 1853.09,1351.08 1857.51,1352.75 1861.94,1354.23 1866.36,1355.66 1870.78,1357.15 1875.2,1358.51 1879.62,1359.77 1884.04,1360.89 1888.47,1361.98 1892.89,1363.02 1897.31,1363.94 1901.73,1364.79 1906.15,1365.63 1910.58,1366.53 1915,1367.36 1919.42,1368.09 1923.84,1368.73 1928.26,1369.3 1932.68,1369.88 1937.11,1370.41 1941.53,1370.91 1945.95,1371.37 1950.37,1371.82 1954.79,1372.28 1959.22,1372.76 1963.64,1373.24 1968.06,1373.73 1972.48,1374.2 1976.9,1374.61 1981.32,1375 1985.75,1375.4 1990.17,1375.78 1994.59,1376.16 1999.01,1376.51 2003.43,1376.84 2007.86,1377.11 2012.28,1377.36 2016.7,1377.61 2021.12,1377.86 2025.54,1378.1 2029.96,1378.34 2034.39,1378.57 2038.81,1378.78 2043.23,1378.99 2047.65,1379.18 2052.07,1379.39 2056.49,1379.58 2060.92,1379.76 2065.34,1379.95 2069.76,1380.12 2074.18,1380.29 2078.6,1380.47 2083.03,1380.65 2087.45,1380.83 2091.87,1380.99 2096.29,1381.16 2100.71,1381.33 2105.13,1381.49 2109.56,1381.64 2113.98,1381.79 2118.4,1381.91 2122.82,1382.03 2127.24,1382.16 2131.67,1382.28 2136.09,1382.41 2140.51,1382.54 2144.93,1382.65 2149.35,1382.77 2153.77,1382.88 2158.2,1382.98 2162.62,1383.07 2167.04,1383.17 2171.46,1383.26 2175.88,1383.34 2180.31,1383.43 2184.73,1383.5 2189.15,1383.57 2193.57,1383.63 2197.99,1383.69 2202.41,1383.75 2206.84,1383.8 2211.26,1383.84 2215.68,1383.88 2220.1,1383.93 2224.52,1383.98 2228.95,1384.02 2233.37,1384.05 2237.79,1384.08 2242.21,1384.1 2246.63,1384.13 2251.05,1384.16 2255.48,1384.17 2259.9,1384.18 2264.32,1384.18 2268.74,1384.18 2273.16,1384.19 2277.59,1384.2 2282.01,1384.2 2286.43,1384.21 2290.85,1384.22 2295.27,1384.22 2299.69,1384.22 2304.12,1384.22 2308.54,1384.22 2312.96,1384.22 2317.38,1384.21 2321.8,1384.2 2326.23,1384.2 2330.65,1384.2 2335.07,1384.21 2339.49,1384.22 2343.91,1384.23 2348.33,1384.24 2352.76,1384.24 "/>
<polyline clip-path="url(#clip971)" style="stroke:#e26f46; stroke-linecap:round; stroke-linejoin:round; stroke-width:4; stroke-opacity:1; fill:none" points="141.853,1354.47 146.275,1355.09 150.697,1355.68 155.118,1356.26 159.54,1356.82 163.962,1357.25 168.384,1357.63 172.806,1358.05 177.227,1358.43 181.649,1358.76 186.071,1359.08 190.493,1359.41 194.915,1359.69 199.336,1359.95 203.758,1360.21 208.18,1360.58 212.602,1360.94 217.024,1361.21 221.445,1361.43 225.867,1361.76 230.289,1362.08 234.711,1362.44 239.133,1362.79 243.554,1363.14 247.976,1363.52 252.398,1363.92 256.82,1364.33 261.242,1364.69 265.664,1365.03 270.085,1365.31 274.507,1365.58 278.929,1365.83 283.351,1366.08 287.773,1366.29 292.194,1366.46 296.616,1366.57 301.038,1366.77 305.46,1366.96 309.882,1367.19 314.303,1367.39 318.725,1367.6 323.147,1367.77 327.569,1367.99 331.991,1368.14 336.412,1368.25 340.834,1368.4 345.256,1368.55 349.678,1368.77 354.1,1368.94 358.521,1369.12 362.943,1369.22 367.365,1369.32 371.787,1369.42 376.209,1369.53 380.63,1369.65 385.052,1369.73 389.474,1369.81 393.896,1369.86 398.318,1369.9 402.739,1369.94 407.161,1369.98 411.583,1370.03 416.005,1370.15 420.427,1370.29 424.849,1370.42 429.27,1370.57 433.692,1370.75 438.114,1370.94 442.536,1371.09 446.958,1371.24 451.379,1371.34 455.801,1371.46 460.223,1371.59 464.645,1371.82 469.067,1372.07 473.488,1372.31 477.91,1372.54 482.332,1372.73 486.754,1372.92 491.176,1373.11 495.597,1373.33 500.019,1373.53 504.441,1373.72 508.863,1373.84 513.285,1373.95 517.706,1374.09 522.128,1374.25 526.55,1374.38 530.972,1374.53 535.394,1374.66 539.815,1374.75 544.237,1374.88 548.659,1375 553.081,1375.13 557.503,1375.25 561.925,1375.35 566.346,1375.47 570.768,1375.61 575.19,1375.74 579.612,1375.88 584.034,1376.04 588.455,1376.18 592.877,1376.3 597.299,1376.44 601.721,1376.58 606.143,1376.71 610.564,1376.83 614.986,1376.97 619.408,1377.11 623.83,1377.25 628.252,1377.38 632.673,1377.5 637.095,1377.63 641.517,1377.75 645.939,1377.86 650.361,1377.96 654.782,1378.06 659.204,1378.16 663.626,1378.25 668.048,1378.32 672.47,1378.37 676.891,1378.39 681.313,1378.42 685.735,1378.46 690.157,1378.53 694.579,1378.6 699,1378.68 703.422,1378.77 707.844,1378.85 712.266,1378.93 716.688,1379.02 721.11,1379.12 725.531,1379.23 729.953,1379.34 734.375,1379.45 738.797,1379.56 743.219,1379.66 747.64,1379.75 752.062,1379.84 756.484,1379.92 760.906,1379.99 765.328,1380.01 769.749,1380.04 774.171,1380.07 778.593,1380.1 783.015,1380.13 787.437,1380.14 791.858,1380.16 796.28,1380.19 800.702,1380.22 805.124,1380.27 809.546,1380.34 813.967,1380.41 818.389,1380.47 822.811,1380.55 827.233,1380.6 831.655,1380.65 836.076,1380.69 840.498,1380.74 844.92,1380.78 849.342,1380.82 853.764,1380.85 858.186,1380.9 862.607,1380.92 867.029,1380.93 871.451,1380.92 875.873,1380.9 880.295,1380.89 884.716,1380.87 889.138,1380.85 893.56,1380.84 897.982,1380.8 902.404,1380.78 906.825,1380.74 911.247,1380.71 915.669,1380.67 920.091,1380.65 924.513,1380.61 928.934,1380.58 933.356,1380.56 937.778,1380.53 942.2,1380.47 946.622,1380.4 951.043,1380.35 955.465,1380.3 959.887,1380.24 964.309,1380.18 968.731,1380.12 973.152,1380.04 977.574,1379.99 981.996,1379.94 986.418,1379.89 990.84,1379.83 995.261,1379.76 999.683,1379.7 1004.11,1379.68 1008.53,1379.67 1012.95,1379.64 1017.37,1379.61 1021.79,1379.57 1026.21,1379.5 1030.64,1379.43 1035.06,1379.34 1039.48,1379.24 1043.9,1379.14 1048.32,1379.03 1052.74,1378.91 1057.17,1378.79 1061.59,1378.66 1066.01,1378.53 1070.43,1378.4 1074.85,1378.26 1079.28,1378.13 1083.7,1377.99 1088.12,1377.85 1092.54,1377.7 1096.96,1377.56 1101.38,1377.41 1105.81,1377.26 1110.23,1377.1 1114.65,1376.94 1119.07,1376.78 1123.49,1376.61 1127.92,1376.44 1132.34,1376.27 1136.76,1376.09 1141.18,1375.91 1145.6,1375.72 1150.02,1375.54 1154.45,1375.35 1158.87,1375.15 1163.29,1374.95 1167.71,1374.75 1172.13,1374.54 1176.56,1374.33 1180.98,1374.12 1185.4,1373.9 1189.82,1373.67 1194.24,1373.45 1198.66,1373.21 1203.09,1372.98 1207.51,1372.73 1211.93,1372.49 1216.35,1372.25 1220.77,1372.04 1225.2,1371.79 1229.62,1371.53 1234.04,1371.27 1238.46,1371 1242.88,1370.71 1247.3,1370.42 1251.73,1370.13 1256.15,1369.85 1260.57,1369.56 1264.99,1369.28 1269.41,1368.99 1273.84,1368.68 1278.26,1368.36 1282.68,1368.03 1287.1,1367.68 1291.52,1367.34 1295.94,1367 1300.37,1366.65 1304.79,1366.28 1309.21,1365.9 1313.63,1365.52 1318.05,1365.12 1322.48,1364.75 1326.9,1364.37 1331.32,1363.98 1335.74,1363.59 1340.16,1363.26 1344.58,1362.99 1349.01,1362.66 1353.43,1362.31 1357.85,1361.98 1362.27,1361.59 1366.69,1361.28 1371.11,1360.99 1375.54,1360.57 1379.96,1360.12 1384.38,1359.65 1388.8,1359.15 1393.22,1358.63 1397.65,1358.11 1402.07,1357.57 1406.49,1357.01 1410.91,1356.46 1415.33,1355.94 1419.75,1355.43 1424.18,1354.9 1428.6,1354.33 1433.02,1353.78 1437.44,1353.24 1441.86,1352.68 1446.29,1352.09 1450.71,1351.5 1455.13,1350.92 1459.55,1350.31 1463.97,1349.67 1468.39,1348.98 1472.82,1348.27 1477.24,1347.55 1481.66,1346.81 1486.08,1346.05 1490.5,1345.29 1494.93,1344.49 1499.35,1343.69 1503.77,1342.89 1508.19,1342.07 1512.61,1341.23 1517.03,1340.39 1521.46,1339.51 1525.88,1338.6 1530.3,1337.68 1534.72,1336.74 1539.14,1335.78 1543.57,1334.8 1547.99,1333.79 1552.41,1332.77 1556.83,1331.72 1561.25,1330.66 1565.67,1329.57 1570.1,1328.48 1574.52,1327.38 1578.94,1326.24 1583.36,1325.07 1587.78,1323.87 1592.21,1322.65 1596.63,1321.4 1601.05,1320.13 1605.47,1318.83 1609.89,1317.55 1614.31,1316.28 1618.74,1314.99 1623.16,1313.65 1627.58,1312.27 1632,1310.87 1636.42,1309.54 1640.85,1308.26 1645.27,1307.04 1649.69,1305.88 1654.11,1304.65 1658.53,1303.4 1662.95,1301.97 1667.38,1300.42 1671.8,1298.83 1676.22,1297.22 1680.64,1295.5 1685.06,1293.73 1689.49,1291.97 1693.91,1290.21 1698.33,1288.46 1702.75,1286.98 1707.17,1285.46 1711.59,1284.33 1716.02,1282.94 1720.44,1281.98 1724.86,1281.5 1729.28,1280.6 1733.7,1279.7 1738.12,1278.55 1742.55,1277.46 1746.97,1276.37 1751.39,1275.1 1755.81,1273.73 1760.23,1272.33 1764.66,1271.25 1769.08,1270.18 1773.5,1268.82 1777.92,1267.68 1782.34,1266.58 1786.76,1265.9 1791.19,1264.7 1795.61,1263.58 1800.03,1262.21 1804.45,1260.8 1808.87,1259.35 1813.3,1257.98 1817.72,1257.03 1822.14,1256.21 1826.56,1256.24 1830.98,1256.68 1835.4,1257.49 1839.83,1258.76 1844.25,1259.64 1848.67,1260.34 1853.09,1260.92 1857.51,1261.16 1861.94,1262.07 1866.36,1262.85 1870.78,1263.39 1875.2,1264.02 1879.62,1264.87 1884.04,1266.15 1888.47,1267.32 1892.89,1268.16 1897.31,1269.01 1901.73,1269.96 1906.15,1270.97 1910.58,1272.07 1915,1272.42 1919.42,1273.02 1923.84,1273.58 1928.26,1274.42 1932.68,1274.89 1937.11,1275.6 1941.53,1276.12 1945.95,1276.39 1950.37,1276.95 1954.79,1277.92 1959.22,1278.23 1963.64,1278.66 1968.06,1278.97 1972.48,1279.25 1976.9,1279.03 1981.32,1279.06 1985.75,1278.88 1990.17,1278.27 1994.59,1277.35 1999.01,1276.92 2003.43,1276.02 2007.86,1275.15 2012.28,1274.21 2016.7,1273.27 2021.12,1272.47 2025.54,1272.1 2029.96,1271.8 2034.39,1271.21 2038.81,1270.9 2043.23,1270.94 2047.65,1270.77 2052.07,1270.6 2056.49,1270.27 2060.92,1270.2 2065.34,1270.16 2069.76,1270.28 2074.18,1270.83 2078.6,1271.79 2083.03,1272.94 2087.45,1273.78 2091.87,1275.06 2096.29,1276.66 2100.71,1278.36 2105.13,1280.14 2109.56,1281.84 2113.98,1283.22 2118.4,1284.83 2122.82,1286.4 2127.24,1287.61 2131.67,1288.64 2136.09,1289.65 2140.51,1290.63 2144.93,1291.47 2149.35,1292.34 2153.77,1292.76 2158.2,1292.85 2162.62,1292.91 2167.04,1293.05 2171.46,1293.52 2175.88,1293.97 2180.31,1294.7 2184.73,1295.39 2189.15,1296.23 2193.57,1296.67 2197.99,1297.01 2202.41,1297.19 2206.84,1297.44 2211.26,1297.58 2215.68,1297.92 2220.1,1298.39 2224.52,1298.87 2228.95,1299.13 2233.37,1299.34 2237.79,1299.88 2242.21,1300.31 2246.63,1300.8 2251.05,1301.52 2255.48,1302.25 2259.9,1303.33 2264.32,1304.44 2268.74,1305.09 2273.16,1305.79 2277.59,1306.69 2282.01,1307.77 2286.43,1308.65 2290.85,1309.85 2295.27,1311.05 2299.69,1312.25 2304.12,1313.27 2308.54,1314.44 2312.96,1315.7 2317.38,1316.99 2321.8,1318.08 2326.23,1319.12 2330.65,1320.32 2335.07,1321.37 2339.49,1322.24 2343.91,1322.91 2348.33,1323.37 2352.76,1323.73 "/>
<path clip-path="url(#clip970)" d="M1968.87 248.629 L2279.06 248.629 L2279.06 93.1086 L1968.87 93.1086  Z" fill="#ffffff" fill-rule="evenodd" fill-opacity="1"/>
<polyline clip-path="url(#clip970)" style="stroke:#000000; stroke-linecap:round; stroke-linejoin:round; stroke-width:4; stroke-opacity:1; fill:none" points="1968.87,248.629 2279.06,248.629 2279.06,93.1086 1968.87,93.1086 1968.87,248.629 "/>
<polyline clip-path="url(#clip970)" style="stroke:#009af9; stroke-linecap:round; stroke-linejoin:round; stroke-width:4; stroke-opacity:1; fill:none" points="1993.44,144.949 2140.83,144.949 "/>
<path clip-path="url(#clip970)" d="M2165.4 151.997 L2165.4 136.303 L2169.66 136.303 L2169.66 151.835 Q2169.66 155.516 2171.09 157.368 Q2172.53 159.196 2175.4 159.196 Q2178.85 159.196 2180.84 156.997 Q2182.85 154.798 2182.85 151.002 L2182.85 136.303 L2187.11 136.303 L2187.11 162.229 L2182.85 162.229 L2182.85 158.247 Q2181.3 160.608 2179.24 161.766 Q2177.2 162.9 2174.49 162.9 Q2170.03 162.9 2167.71 160.122 Q2165.4 157.344 2165.4 151.997 M2176.11 135.678 L2176.11 135.678 Z" fill="#000000" fill-rule="nonzero" fill-opacity="1" /><path clip-path="url(#clip970)" d="M2195.49 126.21 L2205.3 126.21 L2205.3 129.52 L2199.75 129.52 L2199.75 165.168 L2205.3 165.168 L2205.3 168.479 L2195.49 168.479 L2195.49 126.21 Z" fill="#000000" fill-rule="nonzero" fill-opacity="1" /><path clip-path="url(#clip970)" d="M2215.79 158.293 L2223.43 158.293 L2223.43 131.928 L2215.12 133.595 L2215.12 129.335 L2223.38 127.669 L2228.06 127.669 L2228.06 158.293 L2235.7 158.293 L2235.7 162.229 L2215.79 162.229 L2215.79 158.293 Z" fill="#000000" fill-rule="nonzero" fill-opacity="1" /><path clip-path="url(#clip970)" d="M2254.49 126.21 L2254.49 168.479 L2244.68 168.479 L2244.68 165.168 L2250.21 165.168 L2250.21 129.52 L2244.68 129.52 L2244.68 126.21 L2254.49 126.21 Z" fill="#000000" fill-rule="nonzero" fill-opacity="1" /><polyline clip-path="url(#clip970)" style="stroke:#e26f46; stroke-linecap:round; stroke-linejoin:round; stroke-width:4; stroke-opacity:1; fill:none" points="1993.44,196.789 2140.83,196.789 "/>
<path clip-path="url(#clip970)" d="M2165.4 203.837 L2165.4 188.143 L2169.66 188.143 L2169.66 203.675 Q2169.66 207.356 2171.09 209.208 Q2172.53 211.036 2175.4 211.036 Q2178.85 211.036 2180.84 208.837 Q2182.85 206.638 2182.85 202.842 L2182.85 188.143 L2187.11 188.143 L2187.11 214.069 L2182.85 214.069 L2182.85 210.087 Q2181.3 212.448 2179.24 213.606 Q2177.2 214.74 2174.49 214.74 Q2170.03 214.74 2167.71 211.962 Q2165.4 209.184 2165.4 203.837 M2176.11 187.518 L2176.11 187.518 Z" fill="#000000" fill-rule="nonzero" fill-opacity="1" /><path clip-path="url(#clip970)" d="M2195.49 178.05 L2205.3 178.05 L2205.3 181.36 L2199.75 181.36 L2199.75 217.008 L2205.3 217.008 L2205.3 220.319 L2195.49 220.319 L2195.49 178.05 Z" fill="#000000" fill-rule="nonzero" fill-opacity="1" /><path clip-path="url(#clip970)" d="M2219.01 210.133 L2235.33 210.133 L2235.33 214.069 L2213.38 214.069 L2213.38 210.133 Q2216.04 207.379 2220.63 202.749 Q2225.23 198.096 2226.41 196.754 Q2228.66 194.231 2229.54 192.495 Q2230.44 190.735 2230.44 189.046 Q2230.44 186.291 2228.5 184.555 Q2226.58 182.819 2223.48 182.819 Q2221.28 182.819 2218.82 183.583 Q2216.39 184.347 2213.61 185.897 L2213.61 181.175 Q2216.44 180.041 2218.89 179.462 Q2221.35 178.884 2223.38 178.884 Q2228.75 178.884 2231.95 181.569 Q2235.14 184.254 2235.14 188.745 Q2235.14 190.874 2234.33 192.796 Q2233.54 194.694 2231.44 197.286 Q2230.86 197.958 2227.76 201.175 Q2224.66 204.37 2219.01 210.133 Z" fill="#000000" fill-rule="nonzero" fill-opacity="1" /><path clip-path="url(#clip970)" d="M2254.49 178.05 L2254.49 220.319 L2244.68 220.319 L2244.68 217.008 L2250.21 217.008 L2250.21 181.36 L2244.68 181.36 L2244.68 178.05 L2254.49 178.05 Z" fill="#000000" fill-rule="nonzero" fill-opacity="1" /></svg>
