<?xml version="1.0" encoding="utf-8"?>
<svg xmlns="http://www.w3.org/2000/svg" xmlns:xlink="http://www.w3.org/1999/xlink" width="600" height="400" viewBox="0 0 2400 1600">
<defs>
  <clipPath id="clip600">
    <rect x="0" y="0" width="2400" height="1600"/>
  </clipPath>
</defs>
<path clip-path="url(#clip600)" d="M0 1600 L2400 1600 L2400 0 L0 0  Z" fill="#ffffff" fill-rule="evenodd" fill-opacity="1"/>
<defs>
  <clipPath id="clip601">
    <rect x="184" y="47" width="2170" height="1377"/>
  </clipPath>
</defs>
<path clip-path="url(#clip600)" d="M184.191 1423.18 L2352.76 1423.18 L2352.76 47.2441 L184.191 47.2441  Z" fill="#ffffff" fill-rule="evenodd" fill-opacity="1"/>
<polyline clip-path="url(#clip601)" style="stroke:#000000; stroke-linecap:round; stroke-linejoin:round; stroke-width:2; stroke-opacity:0.1; fill:none" points="184.191,1423.18 184.191,47.2441 "/>
<polyline clip-path="url(#clip601)" style="stroke:#000000; stroke-linecap:round; stroke-linejoin:round; stroke-width:2; stroke-opacity:0.1; fill:none" points="617.904,1423.18 617.904,47.2441 "/>
<polyline clip-path="url(#clip601)" style="stroke:#000000; stroke-linecap:round; stroke-linejoin:round; stroke-width:2; stroke-opacity:0.1; fill:none" points="1051.62,1423.18 1051.62,47.2441 "/>
<polyline clip-path="url(#clip601)" style="stroke:#000000; stroke-linecap:round; stroke-linejoin:round; stroke-width:2; stroke-opacity:0.1; fill:none" points="1485.33,1423.18 1485.33,47.2441 "/>
<polyline clip-path="url(#clip601)" style="stroke:#000000; stroke-linecap:round; stroke-linejoin:round; stroke-width:2; stroke-opacity:0.1; fill:none" points="1919.04,1423.18 1919.04,47.2441 "/>
<polyline clip-path="url(#clip601)" style="stroke:#000000; stroke-linecap:round; stroke-linejoin:round; stroke-width:2; stroke-opacity:0.1; fill:none" points="2352.76,1423.18 2352.76,47.2441 "/>
<polyline clip-path="url(#clip601)" style="stroke:#000000; stroke-linecap:round; stroke-linejoin:round; stroke-width:2; stroke-opacity:0.1; fill:none" points="184.191,1406.64 2352.76,1406.64 "/>
<polyline clip-path="url(#clip601)" style="stroke:#000000; stroke-linecap:round; stroke-linejoin:round; stroke-width:2; stroke-opacity:0.1; fill:none" points="184.191,1125.24 2352.76,1125.24 "/>
<polyline clip-path="url(#clip601)" style="stroke:#000000; stroke-linecap:round; stroke-linejoin:round; stroke-width:2; stroke-opacity:0.1; fill:none" points="184.191,843.848 2352.76,843.848 "/>
<polyline clip-path="url(#clip601)" style="stroke:#000000; stroke-linecap:round; stroke-linejoin:round; stroke-width:2; stroke-opacity:0.1; fill:none" points="184.191,562.453 2352.76,562.453 "/>
<polyline clip-path="url(#clip601)" style="stroke:#000000; stroke-linecap:round; stroke-linejoin:round; stroke-width:2; stroke-opacity:0.1; fill:none" points="184.191,281.058 2352.76,281.058 "/>
<polyline clip-path="url(#clip600)" style="stroke:#000000; stroke-linecap:round; stroke-linejoin:round; stroke-width:4; stroke-opacity:1; fill:none" points="184.191,1423.18 2352.76,1423.18 "/>
<polyline clip-path="url(#clip600)" style="stroke:#000000; stroke-linecap:round; stroke-linejoin:round; stroke-width:4; stroke-opacity:1; fill:none" points="184.191,1423.18 184.191,1404.28 "/>
<polyline clip-path="url(#clip600)" style="stroke:#000000; stroke-linecap:round; stroke-linejoin:round; stroke-width:4; stroke-opacity:1; fill:none" points="617.904,1423.18 617.904,1404.28 "/>
<polyline clip-path="url(#clip600)" style="stroke:#000000; stroke-linecap:round; stroke-linejoin:round; stroke-width:4; stroke-opacity:1; fill:none" points="1051.62,1423.18 1051.62,1404.28 "/>
<polyline clip-path="url(#clip600)" style="stroke:#000000; stroke-linecap:round; stroke-linejoin:round; stroke-width:4; stroke-opacity:1; fill:none" points="1485.33,1423.18 1485.33,1404.28 "/>
<polyline clip-path="url(#clip600)" style="stroke:#000000; stroke-linecap:round; stroke-linejoin:round; stroke-width:4; stroke-opacity:1; fill:none" points="1919.04,1423.18 1919.04,1404.28 "/>
<polyline clip-path="url(#clip600)" style="stroke:#000000; stroke-linecap:round; stroke-linejoin:round; stroke-width:4; stroke-opacity:1; fill:none" points="2352.76,1423.18 2352.76,1404.28 "/>
<path clip-path="url(#clip600)" d="M184.191 1454.1 Q180.58 1454.1 178.751 1457.66 Q176.945 1461.2 176.945 1468.33 Q176.945 1475.44 178.751 1479.01 Q180.58 1482.55 184.191 1482.55 Q187.825 1482.55 189.63 1479.01 Q191.459 1475.44 191.459 1468.33 Q191.459 1461.2 189.63 1457.66 Q187.825 1454.1 184.191 1454.1 M184.191 1450.39 Q190.001 1450.39 193.056 1455 Q196.135 1459.58 196.135 1468.33 Q196.135 1477.06 193.056 1481.67 Q190.001 1486.25 184.191 1486.25 Q178.381 1486.25 175.302 1481.67 Q172.246 1477.06 172.246 1468.33 Q172.246 1459.58 175.302 1455 Q178.381 1450.39 184.191 1450.39 Z" fill="#000000" fill-rule="nonzero" fill-opacity="1" /><path clip-path="url(#clip600)" d="M608.286 1481.64 L615.925 1481.64 L615.925 1455.28 L607.614 1456.95 L607.614 1452.69 L615.878 1451.02 L620.554 1451.02 L620.554 1481.64 L628.193 1481.64 L628.193 1485.58 L608.286 1485.58 L608.286 1481.64 Z" fill="#000000" fill-rule="nonzero" fill-opacity="1" /><path clip-path="url(#clip600)" d="M1046.27 1481.64 L1062.59 1481.64 L1062.59 1485.58 L1040.64 1485.58 L1040.64 1481.64 Q1043.31 1478.89 1047.89 1474.26 Q1052.5 1469.61 1053.68 1468.27 Q1055.92 1465.74 1056.8 1464.01 Q1057.7 1462.25 1057.7 1460.56 Q1057.7 1457.8 1055.76 1456.07 Q1053.84 1454.33 1050.74 1454.33 Q1048.54 1454.33 1046.08 1455.09 Q1043.65 1455.86 1040.88 1457.41 L1040.88 1452.69 Q1043.7 1451.55 1046.15 1450.97 Q1048.61 1450.39 1050.64 1450.39 Q1056.01 1450.39 1059.21 1453.08 Q1062.4 1455.77 1062.4 1460.26 Q1062.4 1462.39 1061.59 1464.31 Q1060.81 1466.2 1058.7 1468.8 Q1058.12 1469.47 1055.02 1472.69 Q1051.92 1475.88 1046.27 1481.64 Z" fill="#000000" fill-rule="nonzero" fill-opacity="1" /><path clip-path="url(#clip600)" d="M1489.58 1466.95 Q1492.93 1467.66 1494.81 1469.93 Q1496.71 1472.2 1496.71 1475.53 Q1496.71 1480.65 1493.19 1483.45 Q1489.67 1486.25 1483.19 1486.25 Q1481.01 1486.25 1478.7 1485.81 Q1476.41 1485.39 1473.95 1484.54 L1473.95 1480.02 Q1475.9 1481.16 1478.21 1481.74 Q1480.53 1482.32 1483.05 1482.32 Q1487.45 1482.32 1489.74 1480.58 Q1492.05 1478.84 1492.05 1475.53 Q1492.05 1472.48 1489.9 1470.77 Q1487.77 1469.03 1483.95 1469.03 L1479.92 1469.03 L1479.92 1465.19 L1484.14 1465.19 Q1487.59 1465.19 1489.42 1463.82 Q1491.24 1462.43 1491.24 1459.84 Q1491.24 1457.18 1489.35 1455.77 Q1487.47 1454.33 1483.95 1454.33 Q1482.03 1454.33 1479.83 1454.75 Q1477.63 1455.16 1474.99 1456.04 L1474.99 1451.88 Q1477.66 1451.14 1479.97 1450.77 Q1482.31 1450.39 1484.37 1450.39 Q1489.69 1450.39 1492.8 1452.83 Q1495.9 1455.23 1495.9 1459.35 Q1495.9 1462.22 1494.25 1464.21 Q1492.61 1466.18 1489.58 1466.95 Z" fill="#000000" fill-rule="nonzero" fill-opacity="1" /><path clip-path="url(#clip600)" d="M1922.05 1455.09 L1910.25 1473.54 L1922.05 1473.54 L1922.05 1455.09 M1920.83 1451.02 L1926.7 1451.02 L1926.7 1473.54 L1931.64 1473.54 L1931.64 1477.43 L1926.7 1477.43 L1926.7 1485.58 L1922.05 1485.58 L1922.05 1477.43 L1906.45 1477.43 L1906.45 1472.92 L1920.83 1451.02 Z" fill="#000000" fill-rule="nonzero" fill-opacity="1" /><path clip-path="url(#clip600)" d="M2343.03 1451.02 L2361.39 1451.02 L2361.39 1454.96 L2347.32 1454.96 L2347.32 1463.43 Q2348.33 1463.08 2349.35 1462.92 Q2350.37 1462.73 2351.39 1462.73 Q2357.18 1462.73 2360.56 1465.9 Q2363.94 1469.08 2363.94 1474.49 Q2363.94 1480.07 2360.46 1483.17 Q2356.99 1486.25 2350.67 1486.25 Q2348.5 1486.25 2346.23 1485.88 Q2343.98 1485.51 2341.58 1484.77 L2341.58 1480.07 Q2343.66 1481.2 2345.88 1481.76 Q2348.1 1482.32 2350.58 1482.32 Q2354.58 1482.32 2356.92 1480.21 Q2359.26 1478.1 2359.26 1474.49 Q2359.26 1470.88 2356.92 1468.77 Q2354.58 1466.67 2350.58 1466.67 Q2348.71 1466.67 2346.83 1467.08 Q2344.98 1467.5 2343.03 1468.38 L2343.03 1451.02 Z" fill="#000000" fill-rule="nonzero" fill-opacity="1" /><path clip-path="url(#clip600)" d="M1267.53 1522.27 L1267.53 1532.4 L1279.6 1532.4 L1279.6 1536.95 L1267.53 1536.95 L1267.53 1556.3 Q1267.53 1560.66 1268.71 1561.9 Q1269.92 1563.14 1273.58 1563.14 L1279.6 1563.14 L1279.6 1568.04 L1273.58 1568.04 Q1266.8 1568.04 1264.22 1565.53 Q1261.65 1562.98 1261.65 1556.3 L1261.65 1536.95 L1257.35 1536.95 L1257.35 1532.4 L1261.65 1532.4 L1261.65 1522.27 L1267.53 1522.27 Z" fill="#000000" fill-rule="nonzero" fill-opacity="1" /><polyline clip-path="url(#clip600)" style="stroke:#000000; stroke-linecap:round; stroke-linejoin:round; stroke-width:4; stroke-opacity:1; fill:none" points="184.191,1423.18 184.191,47.2441 "/>
<polyline clip-path="url(#clip600)" style="stroke:#000000; stroke-linecap:round; stroke-linejoin:round; stroke-width:4; stroke-opacity:1; fill:none" points="184.191,1406.64 203.088,1406.64 "/>
<polyline clip-path="url(#clip600)" style="stroke:#000000; stroke-linecap:round; stroke-linejoin:round; stroke-width:4; stroke-opacity:1; fill:none" points="184.191,1125.24 203.088,1125.24 "/>
<polyline clip-path="url(#clip600)" style="stroke:#000000; stroke-linecap:round; stroke-linejoin:round; stroke-width:4; stroke-opacity:1; fill:none" points="184.191,843.848 203.088,843.848 "/>
<polyline clip-path="url(#clip600)" style="stroke:#000000; stroke-linecap:round; stroke-linejoin:round; stroke-width:4; stroke-opacity:1; fill:none" points="184.191,562.453 203.088,562.453 "/>
<polyline clip-path="url(#clip600)" style="stroke:#000000; stroke-linecap:round; stroke-linejoin:round; stroke-width:4; stroke-opacity:1; fill:none" points="184.191,281.058 203.088,281.058 "/>
<path clip-path="url(#clip600)" d="M91.0151 1392.44 Q87.404 1392.44 85.5753 1396 Q83.7697 1399.54 83.7697 1406.67 Q83.7697 1413.78 85.5753 1417.34 Q87.404 1420.89 91.0151 1420.89 Q94.6493 1420.89 96.4548 1417.34 Q98.2835 1413.78 98.2835 1406.67 Q98.2835 1399.54 96.4548 1396 Q94.6493 1392.44 91.0151 1392.44 M91.0151 1388.73 Q96.8252 1388.73 99.8808 1393.34 Q102.959 1397.92 102.959 1406.67 Q102.959 1415.4 99.8808 1420.01 Q96.8252 1424.59 91.0151 1424.59 Q85.2049 1424.59 82.1262 1420.01 Q79.0707 1415.4 79.0707 1406.67 Q79.0707 1397.92 82.1262 1393.34 Q85.2049 1388.73 91.0151 1388.73 Z" fill="#000000" fill-rule="nonzero" fill-opacity="1" /><path clip-path="url(#clip600)" d="M111.177 1418.04 L116.061 1418.04 L116.061 1423.92 L111.177 1423.92 L111.177 1418.04 Z" fill="#000000" fill-rule="nonzero" fill-opacity="1" /><path clip-path="url(#clip600)" d="M136.246 1392.44 Q132.635 1392.44 130.807 1396 Q129.001 1399.54 129.001 1406.67 Q129.001 1413.78 130.807 1417.34 Q132.635 1420.89 136.246 1420.89 Q139.881 1420.89 141.686 1417.34 Q143.515 1413.78 143.515 1406.67 Q143.515 1399.54 141.686 1396 Q139.881 1392.44 136.246 1392.44 M136.246 1388.73 Q142.056 1388.73 145.112 1393.34 Q148.191 1397.92 148.191 1406.67 Q148.191 1415.4 145.112 1420.01 Q142.056 1424.59 136.246 1424.59 Q130.436 1424.59 127.357 1420.01 Q124.302 1415.4 124.302 1406.67 Q124.302 1397.92 127.357 1393.34 Q130.436 1388.73 136.246 1388.73 Z" fill="#000000" fill-rule="nonzero" fill-opacity="1" /><path clip-path="url(#clip600)" d="M86.0382 1138.59 L102.358 1138.59 L102.358 1142.52 L80.4133 1142.52 L80.4133 1138.59 Q83.0753 1135.83 87.6586 1131.2 Q92.2651 1126.55 93.4456 1125.21 Q95.691 1122.68 96.5706 1120.95 Q97.4734 1119.19 97.4734 1117.5 Q97.4734 1114.75 95.5289 1113.01 Q93.6076 1111.27 90.5058 1111.27 Q88.3067 1111.27 85.8531 1112.04 Q83.4225 1112.8 80.6447 1114.35 L80.6447 1109.63 Q83.4688 1108.5 85.9225 1107.92 Q88.3762 1107.34 90.4132 1107.34 Q95.7836 1107.34 98.978 1110.02 Q102.172 1112.71 102.172 1117.2 Q102.172 1119.33 101.362 1121.25 Q100.575 1123.15 98.4687 1125.74 Q97.89 1126.41 94.7882 1129.63 Q91.6864 1132.82 86.0382 1138.59 Z" fill="#000000" fill-rule="nonzero" fill-opacity="1" /><path clip-path="url(#clip600)" d="M112.172 1136.64 L117.057 1136.64 L117.057 1142.52 L112.172 1142.52 L112.172 1136.64 Z" fill="#000000" fill-rule="nonzero" fill-opacity="1" /><path clip-path="url(#clip600)" d="M127.288 1107.96 L145.644 1107.96 L145.644 1111.9 L131.57 1111.9 L131.57 1120.37 Q132.589 1120.02 133.607 1119.86 Q134.626 1119.68 135.644 1119.68 Q141.431 1119.68 144.811 1122.85 Q148.191 1126.02 148.191 1131.43 Q148.191 1137.01 144.718 1140.12 Q141.246 1143.19 134.927 1143.19 Q132.751 1143.19 130.482 1142.82 Q128.237 1142.45 125.83 1141.71 L125.83 1137.01 Q127.913 1138.15 130.135 1138.7 Q132.357 1139.26 134.834 1139.26 Q138.839 1139.26 141.177 1137.15 Q143.515 1135.05 143.515 1131.43 Q143.515 1127.82 141.177 1125.72 Q138.839 1123.61 134.834 1123.61 Q132.959 1123.61 131.084 1124.03 Q129.232 1124.44 127.288 1125.32 L127.288 1107.96 Z" fill="#000000" fill-rule="nonzero" fill-opacity="1" /><path clip-path="url(#clip600)" d="M81.0614 826.568 L99.4178 826.568 L99.4178 830.503 L85.3438 830.503 L85.3438 838.975 Q86.3623 838.628 87.3808 838.466 Q88.3993 838.281 89.4178 838.281 Q95.2049 838.281 98.5845 841.452 Q101.964 844.623 101.964 850.04 Q101.964 855.619 98.4919 858.72 Q95.0197 861.799 88.7003 861.799 Q86.5243 861.799 84.2558 861.429 Q82.0105 861.058 79.6031 860.318 L79.6031 855.619 Q81.6864 856.753 83.9086 857.308 Q86.1308 857.864 88.6077 857.864 Q92.6123 857.864 94.9502 855.757 Q97.2882 853.651 97.2882 850.04 Q97.2882 846.429 94.9502 844.322 Q92.6123 842.216 88.6077 842.216 Q86.7327 842.216 84.8577 842.633 Q83.0058 843.049 81.0614 843.929 L81.0614 826.568 Z" fill="#000000" fill-rule="nonzero" fill-opacity="1" /><path clip-path="url(#clip600)" d="M111.177 855.248 L116.061 855.248 L116.061 861.128 L111.177 861.128 L111.177 855.248 Z" fill="#000000" fill-rule="nonzero" fill-opacity="1" /><path clip-path="url(#clip600)" d="M136.246 829.647 Q132.635 829.647 130.807 833.211 Q129.001 836.753 129.001 843.883 Q129.001 850.989 130.807 854.554 Q132.635 858.095 136.246 858.095 Q139.881 858.095 141.686 854.554 Q143.515 850.989 143.515 843.883 Q143.515 836.753 141.686 833.211 Q139.881 829.647 136.246 829.647 M136.246 825.943 Q142.056 825.943 145.112 830.549 Q148.191 835.133 148.191 843.883 Q148.191 852.609 145.112 857.216 Q142.056 861.799 136.246 861.799 Q130.436 861.799 127.357 857.216 Q124.302 852.609 124.302 843.883 Q124.302 835.133 127.357 830.549 Q130.436 825.943 136.246 825.943 Z" fill="#000000" fill-rule="nonzero" fill-opacity="1" /><path clip-path="url(#clip600)" d="M80.8299 545.173 L103.052 545.173 L103.052 547.164 L90.5058 579.733 L85.6216 579.733 L97.4271 549.108 L80.8299 549.108 L80.8299 545.173 Z" fill="#000000" fill-rule="nonzero" fill-opacity="1" /><path clip-path="url(#clip600)" d="M112.172 573.853 L117.057 573.853 L117.057 579.733 L112.172 579.733 L112.172 573.853 Z" fill="#000000" fill-rule="nonzero" fill-opacity="1" /><path clip-path="url(#clip600)" d="M127.288 545.173 L145.644 545.173 L145.644 549.108 L131.57 549.108 L131.57 557.58 Q132.589 557.233 133.607 557.071 Q134.626 556.886 135.644 556.886 Q141.431 556.886 144.811 560.057 Q148.191 563.228 148.191 568.645 Q148.191 574.224 144.718 577.325 Q141.246 580.404 134.927 580.404 Q132.751 580.404 130.482 580.034 Q128.237 579.663 125.83 578.923 L125.83 574.224 Q127.913 575.358 130.135 575.913 Q132.357 576.469 134.834 576.469 Q138.839 576.469 141.177 574.363 Q143.515 572.256 143.515 568.645 Q143.515 565.034 141.177 562.927 Q138.839 560.821 134.834 560.821 Q132.959 560.821 131.084 561.238 Q129.232 561.654 127.288 562.534 L127.288 545.173 Z" fill="#000000" fill-rule="nonzero" fill-opacity="1" /><path clip-path="url(#clip600)" d="M51.6634 294.403 L59.3023 294.403 L59.3023 268.037 L50.9921 269.704 L50.9921 265.445 L59.256 263.778 L63.9319 263.778 L63.9319 294.403 L71.5707 294.403 L71.5707 298.338 L51.6634 298.338 L51.6634 294.403 Z" fill="#000000" fill-rule="nonzero" fill-opacity="1" /><path clip-path="url(#clip600)" d="M91.0151 266.857 Q87.404 266.857 85.5753 270.421 Q83.7697 273.963 83.7697 281.093 Q83.7697 288.199 85.5753 291.764 Q87.404 295.306 91.0151 295.306 Q94.6493 295.306 96.4548 291.764 Q98.2835 288.199 98.2835 281.093 Q98.2835 273.963 96.4548 270.421 Q94.6493 266.857 91.0151 266.857 M91.0151 263.153 Q96.8252 263.153 99.8808 267.759 Q102.959 272.343 102.959 281.093 Q102.959 289.819 99.8808 294.426 Q96.8252 299.009 91.0151 299.009 Q85.2049 299.009 82.1262 294.426 Q79.0707 289.819 79.0707 281.093 Q79.0707 272.343 82.1262 267.759 Q85.2049 263.153 91.0151 263.153 Z" fill="#000000" fill-rule="nonzero" fill-opacity="1" /><path clip-path="url(#clip600)" d="M111.177 292.458 L116.061 292.458 L116.061 298.338 L111.177 298.338 L111.177 292.458 Z" fill="#000000" fill-rule="nonzero" fill-opacity="1" /><path clip-path="url(#clip600)" d="M136.246 266.857 Q132.635 266.857 130.807 270.421 Q129.001 273.963 129.001 281.093 Q129.001 288.199 130.807 291.764 Q132.635 295.306 136.246 295.306 Q139.881 295.306 141.686 291.764 Q143.515 288.199 143.515 281.093 Q143.515 273.963 141.686 270.421 Q139.881 266.857 136.246 266.857 M136.246 263.153 Q142.056 263.153 145.112 267.759 Q148.191 272.343 148.191 281.093 Q148.191 289.819 145.112 294.426 Q142.056 299.009 136.246 299.009 Q130.436 299.009 127.357 294.426 Q124.302 289.819 124.302 281.093 Q124.302 272.343 127.357 267.759 Q130.436 263.153 136.246 263.153 Z" fill="#000000" fill-rule="nonzero" fill-opacity="1" /><polyline clip-path="url(#clip601)" style="stroke:#009af9; stroke-linecap:round; stroke-linejoin:round; stroke-width:4; stroke-opacity:1; fill:none" points="184.191,1294.08 188.528,1294.08 192.865,1293.85 197.202,1293.66 201.539,1293.28 205.876,1293.22 210.213,1293.28 214.551,1293.38 218.888,1293.17 223.225,1292.74 227.562,1292.16 231.899,1291.44 236.236,1290.58 240.573,1290.16 244.911,1290.23 249.248,1290.17 253.585,1290.07 257.922,1290.47 262.259,1291.6 266.596,1293.18 270.933,1294.9 275.27,1296.26 279.608,1297.79 283.945,1299.46 288.282,1301.14 292.619,1302.87 296.956,1304.78 301.293,1306.74 305.63,1308.58 309.967,1310.45 314.305,1312.26 318.642,1313.93 322.979,1315.63 327.316,1317.4 331.653,1319.03 335.99,1320.58 340.327,1322.08 344.665,1323.68 349.002,1325.27 353.339,1326.88 357.676,1328.46 362.013,1329.99 366.35,1331.44 370.687,1332.86 375.024,1334.32 379.362,1335.76 383.699,1337.17 388.036,1338.55 392.373,1339.9 396.71,1341.23 401.047,1342.51 405.384,1343.79 409.721,1345.05 414.059,1346.27 418.396,1347.43 422.733,1348.6 427.07,1349.76 431.407,1350.89 435.744,1352.01 440.081,1353.1 444.419,1354.16 448.756,1355.16 453.093,1356.08 457.43,1356.94 461.767,1357.71 466.104,1358.31 470.441,1358.79 474.778,1359.21 479.116,1359.66 483.453,1360.07 487.79,1360.51 492.127,1361.1 496.464,1361.79 500.801,1362.48 505.138,1363.2 509.475,1363.94 513.813,1364.69 518.15,1365.39 522.487,1366.12 526.824,1366.8 531.161,1367.29 535.498,1367.73 539.835,1368.09 544.173,1368.59 548.51,1369.1 552.847,1369.52 557.184,1369.95 561.521,1370.28 565.858,1370.48 570.195,1370.63 574.532,1370.73 578.87,1370.86 583.207,1370.77 587.544,1370.75 591.881,1370.78 596.218,1370.74 600.555,1370.82 604.892,1370.94 609.229,1370.86 613.567,1370.7 617.904,1370.41 622.241,1370.15 626.578,1369.79 630.915,1369.4 635.252,1369.03 639.589,1368.57 643.927,1368.05 648.264,1367.49 652.601,1366.79 656.938,1366.12 661.275,1365.43 665.612,1364.73 669.949,1364.01 674.286,1363.29 678.624,1362.61 682.961,1361.96 687.298,1361.26 691.635,1360.55 695.972,1359.8 700.309,1358.93 704.646,1358 708.983,1357.06 713.321,1356.12 717.658,1355.12 721.995,1354.12 726.332,1353.1 730.669,1352.03 735.006,1350.95 739.343,1349.84 743.681,1348.7 748.018,1347.55 752.355,1346.37 756.692,1345.18 761.029,1343.96 765.366,1342.76 769.703,1341.54 774.04,1340.24 778.378,1338.92 782.715,1337.64 787.052,1336.26 791.389,1334.88 795.726,1333.44 800.063,1332 804.4,1330.76 808.737,1329.35 813.075,1327.84 817.412,1326.29 821.749,1324.73 826.086,1323.1 830.423,1321.53 834.76,1319.93 839.097,1318.4 843.435,1316.63 847.772,1314.84 852.109,1313 856.446,1311.28 860.783,1309.43 865.12,1307.51 869.457,1305.59 873.794,1303.6 878.132,1301.54 882.469,1299.45 886.806,1297.32 891.143,1295.2 895.48,1293.04 899.817,1290.78 904.154,1288.55 908.491,1286.25 912.829,1283.95 917.166,1281.5 921.503,1279.05 925.84,1276.6 930.177,1274.11 934.514,1271.58 938.851,1269.08 943.189,1266.47 947.526,1263.91 951.863,1261.28 956.2,1258.72 960.537,1256.36 964.874,1254.07 969.211,1251.51 973.548,1248.83 977.886,1246.07 982.223,1243.97 986.56,1241.86 990.897,1239.46 995.234,1236.73 999.571,1234.08 1003.91,1231.35 1008.25,1228.31 1012.58,1225.9 1016.92,1223.01 1021.26,1220.78 1025.59,1218.7 1029.93,1216.26 1034.27,1213.46 1038.61,1210.64 1042.94,1208.31 1047.28,1206.42 1051.62,1204.28 1055.95,1201.59 1060.29,1199.47 1064.63,1197.33 1068.97,1195.48 1073.3,1193.35 1077.64,1190.84 1081.98,1188.11 1086.31,1185.03 1090.65,1181.95 1094.99,1178.58 1099.33,1175.88 1103.66,1173.58 1108,1170.86 1112.34,1167.92 1116.67,1165.44 1121.01,1162.02 1125.35,1158.85 1129.69,1154.88 1134.02,1151.34 1138.36,1147.9 1142.7,1143.62 1147.03,1139.65 1151.37,1135.83 1155.71,1132.17 1160.05,1128.48 1164.38,1124.96 1168.72,1120.91 1173.06,1116.76 1177.39,1111.83 1181.73,1107.67 1186.07,1104.32 1190.4,1101.07 1194.74,1097.4 1199.08,1092.86 1203.42,1088.94 1207.75,1084.33 1212.09,1080.42 1216.43,1076.81 1220.76,1073.67 1225.1,1070.92 1229.44,1067.34 1233.78,1064.46 1238.11,1061.83 1242.45,1059.43 1246.79,1056.79 1251.12,1054.94 1255.46,1053.12 1259.8,1051.63 1264.14,1051.19 1268.47,1049.26 1272.81,1045.35 1277.15,1041.65 1281.48,1037.07 1285.82,1033.16 1290.16,1029.46 1294.5,1025.88 1298.83,1023.48 1303.17,1020.78 1307.51,1016.49 1311.84,1012.33 1316.18,1007.65 1320.52,1004.84 1324.86,1003.64 1329.19,1001.16 1333.53,998.438 1337.87,994.845 1342.2,990.242 1346.54,985.987 1350.88,981.333 1355.22,975.995 1359.55,970.366 1363.89,963.947 1368.23,958.471 1372.56,951.19 1376.9,944.52 1381.24,938.038 1385.58,931.558 1389.91,924.047 1394.25,917.248 1398.59,909.972 1402.92,901.999 1407.26,893.18 1411.6,883.886 1415.94,876.199 1420.27,867.748 1424.61,859.776 1428.95,850.872 1433.28,842.498 1437.62,834.189 1441.96,826.367 1446.3,819.178 1450.63,811.618 1454.97,806.094 1459.31,801.543 1463.64,795.202 1467.98,786.483 1472.32,776.044 1476.66,767.196 1480.99,760.093 1485.33,755.631 1489.67,749.869 1494,747.322 1498.34,743.47 1502.68,739.985 1507.02,737.572 1511.35,736.268 1515.69,733.691 1520.03,732.684 1524.36,730.072 1528.7,722.126 1533.04,716.375 1537.38,713.495 1541.71,711.545 1546.05,708.778 1550.39,704.245 1554.72,699.447 1559.06,695.833 1563.4,696.366 1567.74,697.559 1572.07,698.927 1576.41,703.039 1580.75,706.071 1585.08,709.583 1589.42,715.259 1593.76,719.017 1598.1,724.236 1602.43,734.565 1606.77,742.71 1611.11,750.995 1615.44,757.556 1619.78,763.889 1624.12,769.947 1628.46,776.058 1632.79,779.783 1637.13,782.486 1641.47,781.845 1645.8,778.431 1650.14,774.477 1654.48,771.734 1658.82,768.08 1663.15,762.992 1667.49,758.299 1671.83,749.936 1676.16,739.86 1680.5,730.368 1684.84,721.358 1689.17,711.52 1693.51,702.416 1697.85,692.785 1702.19,684.115 1706.52,673.788 1710.86,664.442 1715.2,656.294 1719.53,649.371 1723.87,640.378 1728.21,631.075 1732.55,621.65 1736.88,611.151 1741.22,600.498 1745.56,589.672 1749.89,577.25 1754.23,563.989 1758.57,551.64 1762.91,538.973 1767.24,527.096 1771.58,517.152 1775.92,504.505 1780.25,491.642 1784.59,477.449 1788.93,462.792 1793.27,453.289 1797.6,445.347 1801.94,436.898 1806.28,427.136 1810.61,414.313 1814.95,398.898 1819.29,383.827 1823.63,369.825 1827.96,353.778 1832.3,340.258 1836.64,328.56 1840.97,320.543 1845.31,313.967 1849.65,308.01 1853.99,306.704 1858.32,302.194 1862.66,298.242 1867,295.234 1871.33,292.508 1875.67,292.603 1880.01,290.91 1884.35,287.636 1888.68,280.624 1893.02,278.731 1897.36,282.683 1901.69,283.895 1906.03,287.884 1910.37,290.684 1914.71,295.578 1919.04,302.13 1923.38,306.171 1927.72,302.328 1932.05,310.171 1936.39,318.48 1940.73,327.423 1945.07,335.948 1949.4,346.375 1953.74,358.883 1958.08,369.238 1962.41,382.682 1966.75,393.044 1971.09,398.241 1975.43,400.912 1979.76,402.168 1984.1,403.282 1988.44,405.29 1992.77,409.115 1997.11,414.992 2001.45,420.523 2005.79,425.129 2010.12,428.458 2014.46,431.994 2018.8,439.435 2023.13,448.927 2027.47,457.652 2031.81,465.836 2036.15,472.888 2040.48,479.085 2044.82,480.594 2049.16,483.773 2053.49,488.157 2057.83,498.392 2062.17,508.366 2066.51,519.778 2070.84,529.404 2075.18,539.147 2079.52,549.539 2083.85,559.155 2088.19,568.045 2092.53,571.065 2096.87,573.365 2101.2,575.509 2105.54,580.081 2109.88,583.577 2114.21,587.067 2118.55,589.488 2122.89,589.686 2127.23,588.05 2131.56,587.638 2135.9,585.775 2140.24,584.528 2144.57,584.347 2148.91,582.532 2153.25,578.452 2157.59,573.506 2161.92,565.784 2166.26,558.898 2170.6,552.403 2174.93,546.16 2179.27,537.728 2183.61,529.964 2187.94,519.246 2192.28,505.926 2196.62,495.64 2200.96,485.234 2205.29,476.326 2209.63,463.388 2213.97,450.681 2218.3,436.418 2222.64,421.412 2226.98,407.441 2231.32,395.111 2235.65,382.928 2239.99,368.094 2244.33,352.266 2248.66,336.269 2253,319.408 2257.34,305.863 2261.68,293.517 2266.01,280.303 2270.35,262.971 2274.69,242.425 2279.02,224.753 2283.36,208.173 2287.7,194.459 2292.04,181.668 2296.37,170.135 2300.71,159.652 2305.05,150.312 2309.38,138.919 2313.72,124.725 2318.06,111.173 2322.4,100.893 2326.73,97.2339 2331.07,92.5059 2335.41,87.5246 2339.74,86.1857 2344.08,88.8474 2348.42,93.4976 2352.76,93.039 "/>
<polyline clip-path="url(#clip601)" style="stroke:#e26f46; stroke-linecap:round; stroke-linejoin:round; stroke-width:4; stroke-opacity:1; fill:none" points="184.191,1294.08 188.528,1296.33 192.865,1298.54 197.202,1300.69 201.539,1302.78 205.876,1304.8 210.213,1306.83 214.551,1308.82 218.888,1310.77 223.225,1312.62 227.562,1314.5 231.899,1316.33 236.236,1318.12 240.573,1319.8 244.911,1321.54 249.248,1323.17 253.585,1324.83 257.922,1326.41 262.259,1327.97 266.596,1329.53 270.933,1330.98 275.27,1332.46 279.608,1333.9 283.945,1335.36 288.282,1336.77 292.619,1338.17 296.956,1339.49 301.293,1340.81 305.63,1342.11 309.967,1343.32 314.305,1344.54 318.642,1345.75 322.979,1346.94 327.316,1348.13 331.653,1349.3 335.99,1350.44 340.327,1351.53 344.665,1352.62 349.002,1353.7 353.339,1354.73 357.676,1355.68 362.013,1356.5 366.35,1357.29 370.687,1357.93 375.024,1358.61 379.362,1359.43 383.699,1360.24 388.036,1361.02 392.373,1361.82 396.71,1362.51 401.047,1363.29 405.384,1364.01 409.721,1364.63 414.059,1365.3 418.396,1366.06 422.733,1366.85 427.07,1367.62 431.407,1368.38 435.744,1369.12 440.081,1369.87 444.419,1370.58 448.756,1371.27 453.093,1371.94 457.43,1372.55 461.767,1373.17 466.104,1373.74 470.441,1374.38 474.778,1374.96 479.116,1375.55 483.453,1376.1 487.79,1376.57 492.127,1377 496.464,1377.49 500.801,1377.92 505.138,1378.31 509.475,1378.7 513.813,1379.08 518.15,1379.55 522.487,1380 526.824,1380.44 531.161,1380.9 535.498,1381.34 539.835,1381.73 544.173,1382.11 548.51,1382.49 552.847,1382.85 557.184,1383.12 561.521,1383.37 565.858,1383.48 570.195,1383.66 574.532,1383.87 578.87,1383.96 583.207,1383.94 587.544,1383.96 591.881,1383.96 596.218,1383.95 600.555,1383.85 604.892,1383.85 609.229,1383.83 613.567,1383.73 617.904,1383.68 622.241,1383.67 626.578,1383.77 630.915,1383.72 635.252,1383.59 639.589,1383.46 643.927,1383.26 648.264,1383.06 652.601,1382.86 656.938,1382.71 661.275,1382.66 665.612,1382.55 669.949,1382.53 674.286,1382.57 678.624,1382.73 682.961,1382.85 687.298,1382.93 691.635,1382.98 695.972,1383.13 700.309,1383.28 704.646,1383.16 708.983,1383.06 713.321,1383.05 717.658,1383.06 721.995,1382.99 726.332,1382.91 730.669,1382.81 735.006,1382.74 739.343,1382.76 743.681,1382.84 748.018,1382.87 752.355,1382.81 756.692,1382.77 761.029,1382.66 765.366,1382.61 769.703,1382.63 774.04,1382.55 778.378,1382.56 782.715,1382.61 787.052,1382.65 791.389,1382.76 795.726,1382.89 800.063,1383.09 804.4,1383.29 808.737,1383.52 813.075,1383.69 817.412,1383.79 821.749,1383.93 826.086,1384.09 830.423,1384.24 834.76,1384.22 839.097,1384.15 843.435,1384.16 847.772,1384.11 852.109,1383.98 856.446,1383.78 860.783,1383.6 865.12,1383.33 869.457,1383.05 873.794,1382.73 878.132,1382.45 882.469,1382.09 886.806,1381.79 891.143,1381.46 895.48,1381.13 899.817,1380.71 904.154,1380.22 908.491,1379.72 912.829,1379.2 917.166,1378.7 921.503,1378.2 925.84,1377.72 930.177,1377.27 934.514,1376.81 938.851,1376.38 943.189,1375.93 947.526,1375.46 951.863,1374.93 956.2,1374.41 960.537,1373.84 964.874,1373.23 969.211,1372.62 973.548,1371.96 977.886,1371.29 982.223,1370.63 986.56,1369.97 990.897,1369.31 995.234,1368.61 999.571,1367.89 1003.91,1367.17 1008.25,1366.45 1012.58,1365.72 1016.92,1364.96 1021.26,1364.19 1025.59,1363.41 1029.93,1362.59 1034.27,1361.74 1038.61,1360.86 1042.94,1359.95 1047.28,1359.05 1051.62,1358.16 1055.95,1357.22 1060.29,1356.29 1064.63,1355.34 1068.97,1354.35 1073.3,1353.38 1077.64,1352.34 1081.98,1351.33 1086.31,1350.24 1090.65,1349.15 1094.99,1348 1099.33,1346.83 1103.66,1345.64 1108,1344.44 1112.34,1343.27 1116.67,1342.05 1121.01,1340.82 1125.35,1339.59 1129.69,1338.25 1134.02,1336.96 1138.36,1335.58 1142.7,1334.18 1147.03,1332.73 1151.37,1331.26 1155.71,1329.75 1160.05,1328.23 1164.38,1326.68 1168.72,1325.09 1173.06,1323.47 1177.39,1321.81 1181.73,1320.13 1186.07,1318.47 1190.4,1316.83 1194.74,1315.06 1199.08,1313.25 1203.42,1311.38 1207.75,1309.48 1212.09,1307.54 1216.43,1305.56 1220.76,1303.55 1225.1,1301.5 1229.44,1299.4 1233.78,1297.26 1238.11,1295.08 1242.45,1292.86 1246.79,1290.6 1251.12,1288.28 1255.46,1285.94 1259.8,1283.57 1264.14,1281.34 1268.47,1278.92 1272.81,1276.42 1277.15,1273.83 1281.48,1271.31 1285.82,1269.14 1290.16,1266.95 1294.5,1264.49 1298.83,1261.81 1303.17,1259 1307.51,1256.08 1311.84,1253.08 1316.18,1250.06 1320.52,1247.16 1324.86,1244.36 1329.19,1241.63 1333.53,1238.86 1337.87,1235.83 1342.2,1233.37 1346.54,1230.75 1350.88,1228.06 1355.22,1225.18 1359.55,1222.12 1363.89,1219.35 1368.23,1216.68 1372.56,1214.36 1376.9,1212.09 1381.24,1209.71 1385.58,1207.69 1389.91,1205.07 1394.25,1201.7 1398.59,1198.15 1402.92,1194.5 1407.26,1190.95 1411.6,1186.99 1415.94,1183.34 1420.27,1180.37 1424.61,1177.71 1428.95,1174.59 1433.28,1170.89 1437.62,1167.03 1441.96,1163.42 1446.3,1159.66 1450.63,1155.41 1454.97,1150.74 1459.31,1145.65 1463.64,1140.43 1467.98,1135.16 1472.32,1129.99 1476.66,1124.56 1480.99,1119.17 1485.33,1113.49 1489.67,1108.3 1494,1103.34 1498.34,1098.4 1502.68,1093.62 1507.02,1089.07 1511.35,1084.27 1515.69,1080.06 1520.03,1076.91 1524.36,1074.64 1528.7,1073.06 1533.04,1071.01 1537.38,1069.07 1541.71,1067.19 1546.05,1064.42 1550.39,1061.81 1554.72,1060.03 1559.06,1057.6 1563.4,1055.53 1567.74,1052.95 1572.07,1049.78 1576.41,1047.65 1580.75,1045.12 1585.08,1042.91 1589.42,1040.59 1593.76,1037.88 1598.1,1034.03 1602.43,1031.52 1606.77,1027.89 1611.11,1023.18 1615.44,1017.7 1619.78,1012.49 1624.12,1008.6 1628.46,1004.75 1632.79,1003.27 1637.13,1000.54 1641.47,996.507 1645.8,993.405 1650.14,989.036 1654.48,986.107 1658.82,982.171 1663.15,979.039 1667.49,975.301 1671.83,971.312 1676.16,966.631 1680.5,961.833 1684.84,958.009 1689.17,953.568 1693.51,948.122 1697.85,941.423 1702.19,934.36 1706.52,927.588 1710.86,919.745 1715.2,910.739 1719.53,901.145 1723.87,891.468 1728.21,881.535 1732.55,871.49 1736.88,860.944 1741.22,850.737 1745.56,841.071 1749.89,832.921 1754.23,824.586 1758.57,817.152 1762.91,809.092 1767.24,801.193 1771.58,790.958 1775.92,781.461 1780.25,772.513 1784.59,763.882 1788.93,755.015 1793.27,745.332 1797.6,736.736 1801.94,729.44 1806.28,721.559 1810.61,714.091 1814.95,705.577 1819.29,696.29 1823.63,689.022 1827.96,681.207 1832.3,672.348 1836.64,666.717 1840.97,658.947 1845.31,656.623 1849.65,653.944 1853.99,653.832 1858.32,653.748 1862.66,656.24 1867,661.993 1871.33,669.473 1875.67,676.626 1880.01,683.368 1884.35,691.883 1888.68,698.776 1893.02,704.279 1897.36,709.86 1901.69,717.48 1906.03,721.916 1910.37,728.647 1914.71,735.883 1919.04,743.06 1923.38,748.713 1927.72,756.686 1932.05,764.36 1936.39,771.679 1940.73,780.148 1945.07,790.778 1949.4,802.683 1953.74,814.673 1958.08,826.244 1962.41,837.85 1966.75,849.226 1971.09,860.374 1975.43,871.038 1979.76,880.772 1984.1,890.681 1988.44,899.28 1992.77,907.723 1997.11,914.941 2001.45,921.574 2005.79,927.519 2010.12,932.8 2014.46,938.917 2018.8,945.338 2023.13,952.928 2027.47,958.778 2031.81,964.857 2036.15,972.247 2040.48,980.459 2044.82,988.847 2049.16,997.072 2053.49,1005.03 2057.83,1011.81 2062.17,1019.08 2066.51,1025.16 2070.84,1031.77 2075.18,1036.97 2079.52,1042.53 2083.85,1046.88 2088.19,1050.79 2092.53,1054.61 2096.87,1058.29 2101.2,1060.06 2105.54,1062.02 2109.88,1064.02 2114.21,1065.91 2118.55,1066.47 2122.89,1066.68 2127.23,1067.14 2131.56,1066.82 2135.9,1066.27 2140.24,1065.88 2144.57,1064.41 2148.91,1063.18 2153.25,1064.06 2157.59,1064.09 2161.92,1064.45 2166.26,1064.37 2170.6,1064.44 2174.93,1063.53 2179.27,1061.4 2183.61,1059.02 2187.94,1057.44 2192.28,1055.54 2196.62,1054.07 2200.96,1052.69 2205.29,1052.52 2209.63,1052.77 2213.97,1055.15 2218.3,1056.79 2222.64,1057.32 2226.98,1057.82 2231.32,1058.81 2235.65,1060.69 2239.99,1061.17 2244.33,1061.16 2248.66,1062.16 2253,1064.41 2257.34,1066.9 2261.68,1069.25 2266.01,1069.7 2270.35,1068.34 2274.69,1066.69 2279.02,1065.3 2283.36,1063.22 2287.7,1061.13 2292.04,1059.67 2296.37,1058.31 2300.71,1057.26 2305.05,1056.59 2309.38,1054.71 2313.72,1052.67 2318.06,1049.99 2322.4,1046.26 2326.73,1042.04 2331.07,1039.07 2335.41,1036.78 2339.74,1034.81 2344.08,1032.61 2348.42,1030.2 2352.76,1027.52 "/>
<path clip-path="url(#clip600)" d="M256.476 248.629 L562.429 248.629 L562.429 93.1086 L256.476 93.1086  Z" fill="#ffffff" fill-rule="evenodd" fill-opacity="1"/>
<polyline clip-path="url(#clip600)" style="stroke:#000000; stroke-linecap:round; stroke-linejoin:round; stroke-width:4; stroke-opacity:1; fill:none" points="256.476,248.629 562.429,248.629 562.429,93.1086 256.476,93.1086 256.476,248.629 "/>
<polyline clip-path="url(#clip600)" style="stroke:#009af9; stroke-linecap:round; stroke-linejoin:round; stroke-width:4; stroke-opacity:1; fill:none" points="280.571,144.949 425.142,144.949 "/>
<path clip-path="url(#clip600)" d="M449.238 151.997 L449.238 136.303 L453.497 136.303 L453.497 151.835 Q453.497 155.516 454.932 157.368 Q456.367 159.196 459.237 159.196 Q462.687 159.196 464.677 156.997 Q466.691 154.798 466.691 151.002 L466.691 136.303 L470.95 136.303 L470.95 162.229 L466.691 162.229 L466.691 158.247 Q465.14 160.608 463.08 161.766 Q461.043 162.9 458.335 162.9 Q453.867 162.9 451.552 160.122 Q449.238 157.344 449.238 151.997 M459.955 135.678 L459.955 135.678 Z" fill="#000000" fill-rule="nonzero" fill-opacity="1" /><path clip-path="url(#clip600)" d="M479.33 126.21 L489.145 126.21 L489.145 129.52 L483.589 129.52 L483.589 165.168 L489.145 165.168 L489.145 168.479 L479.33 168.479 L479.33 126.21 Z" fill="#000000" fill-rule="nonzero" fill-opacity="1" /><path clip-path="url(#clip600)" d="M499.631 158.293 L507.27 158.293 L507.27 131.928 L498.959 133.595 L498.959 129.335 L507.223 127.669 L511.899 127.669 L511.899 158.293 L519.538 158.293 L519.538 162.229 L499.631 162.229 L499.631 158.293 Z" fill="#000000" fill-rule="nonzero" fill-opacity="1" /><path clip-path="url(#clip600)" d="M538.334 126.21 L538.334 168.479 L528.52 168.479 L528.52 165.168 L534.052 165.168 L534.052 129.52 L528.52 129.52 L528.52 126.21 L538.334 126.21 Z" fill="#000000" fill-rule="nonzero" fill-opacity="1" /><polyline clip-path="url(#clip600)" style="stroke:#e26f46; stroke-linecap:round; stroke-linejoin:round; stroke-width:4; stroke-opacity:1; fill:none" points="280.571,196.789 425.142,196.789 "/>
<path clip-path="url(#clip600)" d="M449.238 203.837 L449.238 188.143 L453.497 188.143 L453.497 203.675 Q453.497 207.356 454.932 209.208 Q456.367 211.036 459.237 211.036 Q462.687 211.036 464.677 208.837 Q466.691 206.638 466.691 202.842 L466.691 188.143 L470.95 188.143 L470.95 214.069 L466.691 214.069 L466.691 210.087 Q465.14 212.448 463.08 213.606 Q461.043 214.74 458.335 214.74 Q453.867 214.74 451.552 211.962 Q449.238 209.184 449.238 203.837 M459.955 187.518 L459.955 187.518 Z" fill="#000000" fill-rule="nonzero" fill-opacity="1" /><path clip-path="url(#clip600)" d="M479.33 178.05 L489.145 178.05 L489.145 181.36 L483.589 181.36 L483.589 217.008 L489.145 217.008 L489.145 220.319 L479.33 220.319 L479.33 178.05 Z" fill="#000000" fill-rule="nonzero" fill-opacity="1" /><path clip-path="url(#clip600)" d="M502.848 210.133 L519.168 210.133 L519.168 214.069 L497.223 214.069 L497.223 210.133 Q499.885 207.379 504.469 202.749 Q509.075 198.096 510.256 196.754 Q512.501 194.231 513.381 192.495 Q514.283 190.735 514.283 189.046 Q514.283 186.291 512.339 184.555 Q510.418 182.819 507.316 182.819 Q505.117 182.819 502.663 183.583 Q500.233 184.347 497.455 185.897 L497.455 181.175 Q500.279 180.041 502.733 179.462 Q505.186 178.884 507.223 178.884 Q512.594 178.884 515.788 181.569 Q518.983 184.254 518.983 188.745 Q518.983 190.874 518.172 192.796 Q517.385 194.694 515.279 197.286 Q514.7 197.958 511.598 201.175 Q508.496 204.37 502.848 210.133 Z" fill="#000000" fill-rule="nonzero" fill-opacity="1" /><path clip-path="url(#clip600)" d="M538.334 178.05 L538.334 220.319 L528.52 220.319 L528.52 217.008 L534.052 217.008 L534.052 181.36 L528.52 181.36 L528.52 178.05 L538.334 178.05 Z" fill="#000000" fill-rule="nonzero" fill-opacity="1" /></svg>
