<?xml version="1.0" encoding="utf-8"?>
<svg xmlns="http://www.w3.org/2000/svg" xmlns:xlink="http://www.w3.org/1999/xlink" width="600" height="400" viewBox="0 0 2400 1600">
<defs>
  <clipPath id="clip970">
    <rect x="0" y="0" width="2400" height="1600"/>
  </clipPath>
</defs>
<path clip-path="url(#clip970)" d="M0 1600 L2400 1600 L2400 0 L0 0  Z" fill="#ffffff" fill-rule="evenodd" fill-opacity="1"/>
<defs>
  <clipPath id="clip971">
    <rect x="480" y="0" width="1681" height="1600"/>
  </clipPath>
</defs>
<path clip-path="url(#clip970)" d="M186.274 1423.18 L2352.76 1423.18 L2352.76 47.2441 L186.274 47.2441  Z" fill="#ffffff" fill-rule="evenodd" fill-opacity="1"/>
<defs>
  <clipPath id="clip972">
    <rect x="186" y="47" width="2167" height="1377"/>
  </clipPath>
</defs>
<polyline clip-path="url(#clip972)" style="stroke:#000000; stroke-linecap:round; stroke-linejoin:round; stroke-width:2; stroke-opacity:0.1; fill:none" points="186.274,1423.18 186.274,47.2441 "/>
<polyline clip-path="url(#clip972)" style="stroke:#000000; stroke-linecap:round; stroke-linejoin:round; stroke-width:2; stroke-opacity:0.1; fill:none" points="619.57,1423.18 619.57,47.2441 "/>
<polyline clip-path="url(#clip972)" style="stroke:#000000; stroke-linecap:round; stroke-linejoin:round; stroke-width:2; stroke-opacity:0.1; fill:none" points="1052.87,1423.18 1052.87,47.2441 "/>
<polyline clip-path="url(#clip972)" style="stroke:#000000; stroke-linecap:round; stroke-linejoin:round; stroke-width:2; stroke-opacity:0.1; fill:none" points="1486.16,1423.18 1486.16,47.2441 "/>
<polyline clip-path="url(#clip972)" style="stroke:#000000; stroke-linecap:round; stroke-linejoin:round; stroke-width:2; stroke-opacity:0.1; fill:none" points="1919.46,1423.18 1919.46,47.2441 "/>
<polyline clip-path="url(#clip972)" style="stroke:#000000; stroke-linecap:round; stroke-linejoin:round; stroke-width:2; stroke-opacity:0.1; fill:none" points="2352.76,1423.18 2352.76,47.2441 "/>
<polyline clip-path="url(#clip972)" style="stroke:#000000; stroke-linecap:round; stroke-linejoin:round; stroke-width:2; stroke-opacity:0.1; fill:none" points="186.274,1391.82 2352.76,1391.82 "/>
<polyline clip-path="url(#clip972)" style="stroke:#000000; stroke-linecap:round; stroke-linejoin:round; stroke-width:2; stroke-opacity:0.1; fill:none" points="186.274,1085.94 2352.76,1085.94 "/>
<polyline clip-path="url(#clip972)" style="stroke:#000000; stroke-linecap:round; stroke-linejoin:round; stroke-width:2; stroke-opacity:0.1; fill:none" points="186.274,780.054 2352.76,780.054 "/>
<polyline clip-path="url(#clip972)" style="stroke:#000000; stroke-linecap:round; stroke-linejoin:round; stroke-width:2; stroke-opacity:0.1; fill:none" points="186.274,474.172 2352.76,474.172 "/>
<polyline clip-path="url(#clip972)" style="stroke:#000000; stroke-linecap:round; stroke-linejoin:round; stroke-width:2; stroke-opacity:0.1; fill:none" points="186.274,168.289 2352.76,168.289 "/>
<polyline clip-path="url(#clip970)" style="stroke:#000000; stroke-linecap:round; stroke-linejoin:round; stroke-width:4; stroke-opacity:1; fill:none" points="186.274,1423.18 2352.76,1423.18 "/>
<polyline clip-path="url(#clip970)" style="stroke:#000000; stroke-linecap:round; stroke-linejoin:round; stroke-width:4; stroke-opacity:1; fill:none" points="186.274,1423.18 186.274,1404.28 "/>
<polyline clip-path="url(#clip970)" style="stroke:#000000; stroke-linecap:round; stroke-linejoin:round; stroke-width:4; stroke-opacity:1; fill:none" points="619.57,1423.18 619.57,1404.28 "/>
<polyline clip-path="url(#clip970)" style="stroke:#000000; stroke-linecap:round; stroke-linejoin:round; stroke-width:4; stroke-opacity:1; fill:none" points="1052.87,1423.18 1052.87,1404.28 "/>
<polyline clip-path="url(#clip970)" style="stroke:#000000; stroke-linecap:round; stroke-linejoin:round; stroke-width:4; stroke-opacity:1; fill:none" points="1486.16,1423.18 1486.16,1404.28 "/>
<polyline clip-path="url(#clip970)" style="stroke:#000000; stroke-linecap:round; stroke-linejoin:round; stroke-width:4; stroke-opacity:1; fill:none" points="1919.46,1423.18 1919.46,1404.28 "/>
<polyline clip-path="url(#clip970)" style="stroke:#000000; stroke-linecap:round; stroke-linejoin:round; stroke-width:4; stroke-opacity:1; fill:none" points="2352.76,1423.18 2352.76,1404.28 "/>
<path clip-path="url(#clip970)" d="M186.274 1454.1 Q182.663 1454.1 180.834 1457.66 Q179.029 1461.2 179.029 1468.33 Q179.029 1475.44 180.834 1479.01 Q182.663 1482.55 186.274 1482.55 Q189.908 1482.55 191.714 1479.01 Q193.542 1475.44 193.542 1468.33 Q193.542 1461.2 191.714 1457.66 Q189.908 1454.1 186.274 1454.1 M186.274 1450.39 Q192.084 1450.39 195.14 1455 Q198.218 1459.58 198.218 1468.33 Q198.218 1477.06 195.14 1481.67 Q192.084 1486.25 186.274 1486.25 Q180.464 1486.25 177.385 1481.67 Q174.33 1477.06 174.33 1468.33 Q174.33 1459.58 177.385 1455 Q180.464 1450.39 186.274 1450.39 Z" fill="#000000" fill-rule="nonzero" fill-opacity="1" /><path clip-path="url(#clip970)" d="M609.952 1481.64 L617.591 1481.64 L617.591 1455.28 L609.281 1456.95 L609.281 1452.69 L617.545 1451.02 L622.221 1451.02 L622.221 1481.64 L629.86 1481.64 L629.86 1485.58 L609.952 1485.58 L609.952 1481.64 Z" fill="#000000" fill-rule="nonzero" fill-opacity="1" /><path clip-path="url(#clip970)" d="M1047.52 1481.64 L1063.84 1481.64 L1063.84 1485.58 L1041.89 1485.58 L1041.89 1481.64 Q1044.56 1478.89 1049.14 1474.26 Q1053.75 1469.61 1054.93 1468.27 Q1057.17 1465.74 1058.05 1464.01 Q1058.95 1462.25 1058.95 1460.56 Q1058.95 1457.8 1057.01 1456.07 Q1055.09 1454.33 1051.99 1454.33 Q1049.79 1454.33 1047.33 1455.09 Q1044.9 1455.86 1042.13 1457.41 L1042.13 1452.69 Q1044.95 1451.55 1047.4 1450.97 Q1049.86 1450.39 1051.89 1450.39 Q1057.26 1450.39 1060.46 1453.08 Q1063.65 1455.77 1063.65 1460.26 Q1063.65 1462.39 1062.84 1464.31 Q1062.06 1466.2 1059.95 1468.8 Q1059.37 1469.47 1056.27 1472.69 Q1053.17 1475.88 1047.52 1481.64 Z" fill="#000000" fill-rule="nonzero" fill-opacity="1" /><path clip-path="url(#clip970)" d="M1490.41 1466.95 Q1493.77 1467.66 1495.64 1469.93 Q1497.54 1472.2 1497.54 1475.53 Q1497.54 1480.65 1494.02 1483.45 Q1490.5 1486.25 1484.02 1486.25 Q1481.85 1486.25 1479.53 1485.81 Q1477.24 1485.39 1474.79 1484.54 L1474.79 1480.02 Q1476.73 1481.16 1479.05 1481.74 Q1481.36 1482.32 1483.88 1482.32 Q1488.28 1482.32 1490.57 1480.58 Q1492.89 1478.84 1492.89 1475.53 Q1492.89 1472.48 1490.73 1470.77 Q1488.61 1469.03 1484.79 1469.03 L1480.76 1469.03 L1480.76 1465.19 L1484.97 1465.19 Q1488.42 1465.19 1490.25 1463.82 Q1492.08 1462.43 1492.08 1459.84 Q1492.08 1457.18 1490.18 1455.77 Q1488.3 1454.33 1484.79 1454.33 Q1482.86 1454.33 1480.67 1454.75 Q1478.47 1455.16 1475.83 1456.04 L1475.83 1451.88 Q1478.49 1451.14 1480.8 1450.77 Q1483.14 1450.39 1485.2 1450.39 Q1490.53 1450.39 1493.63 1452.83 Q1496.73 1455.23 1496.73 1459.35 Q1496.73 1462.22 1495.09 1464.21 Q1493.44 1466.18 1490.41 1466.95 Z" fill="#000000" fill-rule="nonzero" fill-opacity="1" /><path clip-path="url(#clip970)" d="M1922.47 1455.09 L1910.66 1473.54 L1922.47 1473.54 L1922.47 1455.09 M1921.24 1451.02 L1927.12 1451.02 L1927.12 1473.54 L1932.05 1473.54 L1932.05 1477.43 L1927.12 1477.43 L1927.12 1485.58 L1922.47 1485.58 L1922.47 1477.43 L1906.87 1477.43 L1906.87 1472.92 L1921.24 1451.02 Z" fill="#000000" fill-rule="nonzero" fill-opacity="1" /><path clip-path="url(#clip970)" d="M2343.03 1451.02 L2361.39 1451.02 L2361.39 1454.96 L2347.32 1454.96 L2347.32 1463.43 Q2348.33 1463.08 2349.35 1462.92 Q2350.37 1462.73 2351.39 1462.73 Q2357.18 1462.73 2360.56 1465.9 Q2363.94 1469.08 2363.94 1474.49 Q2363.94 1480.07 2360.46 1483.17 Q2356.99 1486.25 2350.67 1486.25 Q2348.5 1486.25 2346.23 1485.88 Q2343.98 1485.51 2341.58 1484.77 L2341.58 1480.07 Q2343.66 1481.2 2345.88 1481.76 Q2348.1 1482.32 2350.58 1482.32 Q2354.58 1482.32 2356.92 1480.21 Q2359.26 1478.1 2359.26 1474.49 Q2359.26 1470.88 2356.92 1468.77 Q2354.58 1466.67 2350.58 1466.67 Q2348.71 1466.67 2346.83 1467.08 Q2344.98 1467.5 2343.03 1468.38 L2343.03 1451.02 Z" fill="#000000" fill-rule="nonzero" fill-opacity="1" /><path clip-path="url(#clip970)" d="M1268.58 1522.27 L1268.58 1532.4 L1280.64 1532.4 L1280.64 1536.95 L1268.58 1536.95 L1268.58 1556.3 Q1268.58 1560.66 1269.75 1561.9 Q1270.96 1563.14 1274.62 1563.14 L1280.64 1563.14 L1280.64 1568.04 L1274.62 1568.04 Q1267.84 1568.04 1265.27 1565.53 Q1262.69 1562.98 1262.69 1556.3 L1262.69 1536.95 L1258.39 1536.95 L1258.39 1532.4 L1262.69 1532.4 L1262.69 1522.27 L1268.58 1522.27 Z" fill="#000000" fill-rule="nonzero" fill-opacity="1" /><polyline clip-path="url(#clip970)" style="stroke:#000000; stroke-linecap:round; stroke-linejoin:round; stroke-width:4; stroke-opacity:1; fill:none" points="186.274,1423.18 186.274,47.2441 "/>
<polyline clip-path="url(#clip970)" style="stroke:#000000; stroke-linecap:round; stroke-linejoin:round; stroke-width:4; stroke-opacity:1; fill:none" points="186.274,1391.82 205.172,1391.82 "/>
<polyline clip-path="url(#clip970)" style="stroke:#000000; stroke-linecap:round; stroke-linejoin:round; stroke-width:4; stroke-opacity:1; fill:none" points="186.274,1085.94 205.172,1085.94 "/>
<polyline clip-path="url(#clip970)" style="stroke:#000000; stroke-linecap:round; stroke-linejoin:round; stroke-width:4; stroke-opacity:1; fill:none" points="186.274,780.054 205.172,780.054 "/>
<polyline clip-path="url(#clip970)" style="stroke:#000000; stroke-linecap:round; stroke-linejoin:round; stroke-width:4; stroke-opacity:1; fill:none" points="186.274,474.172 205.172,474.172 "/>
<polyline clip-path="url(#clip970)" style="stroke:#000000; stroke-linecap:round; stroke-linejoin:round; stroke-width:4; stroke-opacity:1; fill:none" points="186.274,168.289 205.172,168.289 "/>
<path clip-path="url(#clip970)" d="M62.9365 1377.62 Q59.3254 1377.62 57.4967 1381.18 Q55.6912 1384.72 55.6912 1391.85 Q55.6912 1398.96 57.4967 1402.52 Q59.3254 1406.07 62.9365 1406.07 Q66.5707 1406.07 68.3763 1402.52 Q70.205 1398.96 70.205 1391.85 Q70.205 1384.72 68.3763 1381.18 Q66.5707 1377.62 62.9365 1377.62 M62.9365 1373.91 Q68.7467 1373.91 71.8022 1378.52 Q74.8809 1383.1 74.8809 1391.85 Q74.8809 1400.58 71.8022 1405.19 Q68.7467 1409.77 62.9365 1409.77 Q57.1264 1409.77 54.0477 1405.19 Q50.9921 1400.58 50.9921 1391.85 Q50.9921 1383.1 54.0477 1378.52 Q57.1264 1373.91 62.9365 1373.91 Z" fill="#000000" fill-rule="nonzero" fill-opacity="1" /><path clip-path="url(#clip970)" d="M83.0984 1403.22 L87.9827 1403.22 L87.9827 1409.1 L83.0984 1409.1 L83.0984 1403.22 Z" fill="#000000" fill-rule="nonzero" fill-opacity="1" /><path clip-path="url(#clip970)" d="M108.168 1377.62 Q104.557 1377.62 102.728 1381.18 Q100.922 1384.72 100.922 1391.85 Q100.922 1398.96 102.728 1402.52 Q104.557 1406.07 108.168 1406.07 Q111.802 1406.07 113.608 1402.52 Q115.436 1398.96 115.436 1391.85 Q115.436 1384.72 113.608 1381.18 Q111.802 1377.62 108.168 1377.62 M108.168 1373.91 Q113.978 1373.91 117.033 1378.52 Q120.112 1383.1 120.112 1391.85 Q120.112 1400.58 117.033 1405.19 Q113.978 1409.77 108.168 1409.77 Q102.358 1409.77 99.2789 1405.19 Q96.2234 1400.58 96.2234 1391.85 Q96.2234 1383.1 99.2789 1378.52 Q102.358 1373.91 108.168 1373.91 Z" fill="#000000" fill-rule="nonzero" fill-opacity="1" /><path clip-path="url(#clip970)" d="M138.33 1377.62 Q134.719 1377.62 132.89 1381.18 Q131.084 1384.72 131.084 1391.85 Q131.084 1398.96 132.89 1402.52 Q134.719 1406.07 138.33 1406.07 Q141.964 1406.07 143.769 1402.52 Q145.598 1398.96 145.598 1391.85 Q145.598 1384.72 143.769 1381.18 Q141.964 1377.62 138.33 1377.62 M138.33 1373.91 Q144.14 1373.91 147.195 1378.52 Q150.274 1383.1 150.274 1391.85 Q150.274 1400.58 147.195 1405.19 Q144.14 1409.77 138.33 1409.77 Q132.519 1409.77 129.441 1405.19 Q126.385 1400.58 126.385 1391.85 Q126.385 1383.1 129.441 1378.52 Q132.519 1373.91 138.33 1373.91 Z" fill="#000000" fill-rule="nonzero" fill-opacity="1" /><path clip-path="url(#clip970)" d="M63.9319 1071.74 Q60.3208 1071.74 58.4921 1075.3 Q56.6865 1078.84 56.6865 1085.97 Q56.6865 1093.08 58.4921 1096.64 Q60.3208 1100.18 63.9319 1100.18 Q67.5661 1100.18 69.3717 1096.64 Q71.2004 1093.08 71.2004 1085.97 Q71.2004 1078.84 69.3717 1075.3 Q67.5661 1071.74 63.9319 1071.74 M63.9319 1068.03 Q69.742 1068.03 72.7976 1072.64 Q75.8763 1077.22 75.8763 1085.97 Q75.8763 1094.7 72.7976 1099.3 Q69.742 1103.89 63.9319 1103.89 Q58.1217 1103.89 55.043 1099.3 Q51.9875 1094.7 51.9875 1085.97 Q51.9875 1077.22 55.043 1072.64 Q58.1217 1068.03 63.9319 1068.03 Z" fill="#000000" fill-rule="nonzero" fill-opacity="1" /><path clip-path="url(#clip970)" d="M84.0938 1097.34 L88.978 1097.34 L88.978 1103.22 L84.0938 1103.22 L84.0938 1097.34 Z" fill="#000000" fill-rule="nonzero" fill-opacity="1" /><path clip-path="url(#clip970)" d="M103.191 1099.28 L119.51 1099.28 L119.51 1103.22 L97.566 1103.22 L97.566 1099.28 Q100.228 1096.53 104.811 1091.9 Q109.418 1087.24 110.598 1085.9 Q112.844 1083.38 113.723 1081.64 Q114.626 1079.88 114.626 1078.19 Q114.626 1075.44 112.682 1073.7 Q110.76 1071.97 107.658 1071.97 Q105.459 1071.97 103.006 1072.73 Q100.575 1073.49 97.7974 1075.05 L97.7974 1070.32 Q100.621 1069.19 103.075 1068.61 Q105.529 1068.03 107.566 1068.03 Q112.936 1068.03 116.131 1070.72 Q119.325 1073.4 119.325 1077.89 Q119.325 1080.02 118.515 1081.94 Q117.728 1083.84 115.621 1086.43 Q115.043 1087.11 111.941 1090.32 Q108.839 1093.52 103.191 1099.28 Z" fill="#000000" fill-rule="nonzero" fill-opacity="1" /><path clip-path="url(#clip970)" d="M129.371 1068.66 L147.728 1068.66 L147.728 1072.59 L133.654 1072.59 L133.654 1081.06 Q134.672 1080.72 135.691 1080.55 Q136.709 1080.37 137.728 1080.37 Q143.515 1080.37 146.894 1083.54 Q150.274 1086.71 150.274 1092.13 Q150.274 1097.71 146.802 1100.81 Q143.33 1103.89 137.01 1103.89 Q134.834 1103.89 132.566 1103.52 Q130.32 1103.15 127.913 1102.41 L127.913 1097.71 Q129.996 1098.84 132.219 1099.4 Q134.441 1099.95 136.918 1099.95 Q140.922 1099.95 143.26 1097.85 Q145.598 1095.74 145.598 1092.13 Q145.598 1088.52 143.26 1086.41 Q140.922 1084.3 136.918 1084.3 Q135.043 1084.3 133.168 1084.72 Q131.316 1085.14 129.371 1086.02 L129.371 1068.66 Z" fill="#000000" fill-rule="nonzero" fill-opacity="1" /><path clip-path="url(#clip970)" d="M62.9365 765.853 Q59.3254 765.853 57.4967 769.418 Q55.6912 772.959 55.6912 780.089 Q55.6912 787.195 57.4967 790.76 Q59.3254 794.302 62.9365 794.302 Q66.5707 794.302 68.3763 790.76 Q70.205 787.195 70.205 780.089 Q70.205 772.959 68.3763 769.418 Q66.5707 765.853 62.9365 765.853 M62.9365 762.149 Q68.7467 762.149 71.8022 766.756 Q74.8809 771.339 74.8809 780.089 Q74.8809 788.816 71.8022 793.422 Q68.7467 798.005 62.9365 798.005 Q57.1264 798.005 54.0477 793.422 Q50.9921 788.816 50.9921 780.089 Q50.9921 771.339 54.0477 766.756 Q57.1264 762.149 62.9365 762.149 Z" fill="#000000" fill-rule="nonzero" fill-opacity="1" /><path clip-path="url(#clip970)" d="M83.0984 791.455 L87.9827 791.455 L87.9827 797.334 L83.0984 797.334 L83.0984 791.455 Z" fill="#000000" fill-rule="nonzero" fill-opacity="1" /><path clip-path="url(#clip970)" d="M98.2141 762.774 L116.57 762.774 L116.57 766.709 L102.496 766.709 L102.496 775.182 Q103.515 774.834 104.534 774.672 Q105.552 774.487 106.571 774.487 Q112.358 774.487 115.737 777.658 Q119.117 780.83 119.117 786.246 Q119.117 791.825 115.645 794.927 Q112.172 798.005 105.853 798.005 Q103.677 798.005 101.409 797.635 Q99.1632 797.265 96.7558 796.524 L96.7558 791.825 Q98.8391 792.959 101.061 793.515 Q103.284 794.07 105.76 794.07 Q109.765 794.07 112.103 791.964 Q114.441 789.857 114.441 786.246 Q114.441 782.635 112.103 780.529 Q109.765 778.422 105.76 778.422 Q103.885 778.422 102.01 778.839 Q100.159 779.256 98.2141 780.135 L98.2141 762.774 Z" fill="#000000" fill-rule="nonzero" fill-opacity="1" /><path clip-path="url(#clip970)" d="M138.33 765.853 Q134.719 765.853 132.89 769.418 Q131.084 772.959 131.084 780.089 Q131.084 787.195 132.89 790.76 Q134.719 794.302 138.33 794.302 Q141.964 794.302 143.769 790.76 Q145.598 787.195 145.598 780.089 Q145.598 772.959 143.769 769.418 Q141.964 765.853 138.33 765.853 M138.33 762.149 Q144.14 762.149 147.195 766.756 Q150.274 771.339 150.274 780.089 Q150.274 788.816 147.195 793.422 Q144.14 798.005 138.33 798.005 Q132.519 798.005 129.441 793.422 Q126.385 788.816 126.385 780.089 Q126.385 771.339 129.441 766.756 Q132.519 762.149 138.33 762.149 Z" fill="#000000" fill-rule="nonzero" fill-opacity="1" /><path clip-path="url(#clip970)" d="M63.9319 459.971 Q60.3208 459.971 58.4921 463.535 Q56.6865 467.077 56.6865 474.207 Q56.6865 481.313 58.4921 484.878 Q60.3208 488.419 63.9319 488.419 Q67.5661 488.419 69.3717 484.878 Q71.2004 481.313 71.2004 474.207 Q71.2004 467.077 69.3717 463.535 Q67.5661 459.971 63.9319 459.971 M63.9319 456.267 Q69.742 456.267 72.7976 460.873 Q75.8763 465.457 75.8763 474.207 Q75.8763 482.933 72.7976 487.54 Q69.742 492.123 63.9319 492.123 Q58.1217 492.123 55.043 487.54 Q51.9875 482.933 51.9875 474.207 Q51.9875 465.457 55.043 460.873 Q58.1217 456.267 63.9319 456.267 Z" fill="#000000" fill-rule="nonzero" fill-opacity="1" /><path clip-path="url(#clip970)" d="M84.0938 485.572 L88.978 485.572 L88.978 491.452 L84.0938 491.452 L84.0938 485.572 Z" fill="#000000" fill-rule="nonzero" fill-opacity="1" /><path clip-path="url(#clip970)" d="M97.9826 456.892 L120.205 456.892 L120.205 458.883 L107.658 491.452 L102.774 491.452 L114.58 460.827 L97.9826 460.827 L97.9826 456.892 Z" fill="#000000" fill-rule="nonzero" fill-opacity="1" /><path clip-path="url(#clip970)" d="M129.371 456.892 L147.728 456.892 L147.728 460.827 L133.654 460.827 L133.654 469.299 Q134.672 468.952 135.691 468.79 Q136.709 468.605 137.728 468.605 Q143.515 468.605 146.894 471.776 Q150.274 474.947 150.274 480.364 Q150.274 485.943 146.802 489.044 Q143.33 492.123 137.01 492.123 Q134.834 492.123 132.566 491.753 Q130.32 491.382 127.913 490.642 L127.913 485.943 Q129.996 487.077 132.219 487.632 Q134.441 488.188 136.918 488.188 Q140.922 488.188 143.26 486.081 Q145.598 483.975 145.598 480.364 Q145.598 476.753 143.26 474.646 Q140.922 472.54 136.918 472.54 Q135.043 472.54 133.168 472.957 Q131.316 473.373 129.371 474.253 L129.371 456.892 Z" fill="#000000" fill-rule="nonzero" fill-opacity="1" /><path clip-path="url(#clip970)" d="M53.7467 181.634 L61.3856 181.634 L61.3856 155.269 L53.0754 156.935 L53.0754 152.676 L61.3393 151.009 L66.0152 151.009 L66.0152 181.634 L73.654 181.634 L73.654 185.569 L53.7467 185.569 L53.7467 181.634 Z" fill="#000000" fill-rule="nonzero" fill-opacity="1" /><path clip-path="url(#clip970)" d="M83.0984 179.69 L87.9827 179.69 L87.9827 185.569 L83.0984 185.569 L83.0984 179.69 Z" fill="#000000" fill-rule="nonzero" fill-opacity="1" /><path clip-path="url(#clip970)" d="M108.168 154.088 Q104.557 154.088 102.728 157.653 Q100.922 161.195 100.922 168.324 Q100.922 175.431 102.728 178.995 Q104.557 182.537 108.168 182.537 Q111.802 182.537 113.608 178.995 Q115.436 175.431 115.436 168.324 Q115.436 161.195 113.608 157.653 Q111.802 154.088 108.168 154.088 M108.168 150.384 Q113.978 150.384 117.033 154.991 Q120.112 159.574 120.112 168.324 Q120.112 177.051 117.033 181.657 Q113.978 186.241 108.168 186.241 Q102.358 186.241 99.2789 181.657 Q96.2234 177.051 96.2234 168.324 Q96.2234 159.574 99.2789 154.991 Q102.358 150.384 108.168 150.384 Z" fill="#000000" fill-rule="nonzero" fill-opacity="1" /><path clip-path="url(#clip970)" d="M138.33 154.088 Q134.719 154.088 132.89 157.653 Q131.084 161.195 131.084 168.324 Q131.084 175.431 132.89 178.995 Q134.719 182.537 138.33 182.537 Q141.964 182.537 143.769 178.995 Q145.598 175.431 145.598 168.324 Q145.598 161.195 143.769 157.653 Q141.964 154.088 138.33 154.088 M138.33 150.384 Q144.14 150.384 147.195 154.991 Q150.274 159.574 150.274 168.324 Q150.274 177.051 147.195 181.657 Q144.14 186.241 138.33 186.241 Q132.519 186.241 129.441 181.657 Q126.385 177.051 126.385 168.324 Q126.385 159.574 129.441 154.991 Q132.519 150.384 138.33 150.384 Z" fill="#000000" fill-rule="nonzero" fill-opacity="1" /><polyline clip-path="url(#clip972)" style="stroke:#009af9; stroke-linecap:round; stroke-linejoin:round; stroke-width:4; stroke-opacity:1; fill:none" points="186.274,168.289 190.607,168.289 194.94,167.766 199.273,167.87 203.606,167.023 207.939,169.243 212.272,172.403 216.605,174.465 220.938,174.916 225.271,171.729 229.604,170.694 233.937,172.196 238.27,174.487 242.603,180.095 246.935,184.387 251.268,187.641 255.601,189.662 259.934,189.218 264.267,188.862 268.6,188.854 272.933,189.609 277.266,190.14 281.599,191.973 285.932,190.766 290.265,187.811 294.598,185.15 298.931,181.316 303.264,175.63 307.597,171.701 311.93,166.851 316.263,160.033 320.596,158.752 324.929,156.414 329.262,150.659 333.595,143.379 337.928,132.423 342.261,125.85 346.594,117.987 350.927,109.686 355.26,100.951 359.593,98.0412 363.926,96.0788 368.258,93.8046 372.591,90.4589 376.924,87.7684 381.257,88.0983 385.59,87.0055 389.923,86.1857 394.256,87.3589 398.589,93.6391 402.922,99.1941 407.255,103.707 411.588,108.948 415.921,110.659 420.254,115.889 424.587,121.005 428.92,129.167 433.253,134.089 437.586,140.724 441.919,146.14 446.252,146.305 450.585,146.984 454.918,148.327 459.251,148.172 463.584,144.691 467.917,142.408 472.25,142.121 476.583,148.153 480.916,157.272 485.249,167.408 489.581,176.781 493.914,185.026 498.247,192.076 502.58,200.009 506.913,210.427 511.246,219.302 515.579,230.626 519.912,240.353 524.245,251.75 528.578,261.831 532.911,267.91 537.244,275.153 541.577,281.769 545.91,287.334 550.243,292.359 554.576,294.389 558.909,294.537 563.242,297.992 567.575,303.139 571.908,307.67 576.241,311.988 580.574,316.807 584.907,320.097 589.24,323.153 593.573,325.484 597.906,329.477 602.239,333.931 606.571,335.883 610.904,335.355 615.237,339.893 619.57,346.803 623.903,352.43 628.236,360.317 632.569,370.852 636.902,382.578 641.235,393.882 645.568,403.976 649.901,414.439 654.234,426.766 658.567,438.899 662.9,451.37 667.233,465.315 671.566,479.486 675.899,493.681 680.232,506.818 684.565,521.196 688.898,535.238 693.231,546.471 697.564,559.467 701.897,571.775 706.23,581.794 710.563,591.934 714.896,601.547 719.229,612.164 723.562,621.622 727.894,630.556 732.227,640.192 736.56,648.838 740.893,658.111 745.226,665.82 749.559,673.757 753.892,683.39 758.225,691.772 762.558,700.853 766.891,709.088 771.224,717.933 775.557,726.813 779.89,736.791 784.223,746.602 788.556,757.697 792.889,768.552 797.222,779.024 801.555,789.385 805.888,798.502 810.221,807.595 814.554,816.082 818.887,825.459 823.22,834.867 827.553,843.765 831.886,853.077 836.219,861.649 840.552,869.608 844.885,876.6 849.217,883.52 853.55,891.576 857.883,898.988 862.216,906.192 866.549,914.787 870.882,923.009 875.215,931.335 879.548,939.881 883.881,947.789 888.214,955.407 892.547,963.151 896.88,971.072 901.213,979.134 905.546,986.954 909.879,994.695 914.212,1002.29 918.545,1009.29 922.878,1016.11 927.211,1023.2 931.544,1029.55 935.877,1035.75 940.21,1041.32 944.543,1046.37 948.876,1051.58 953.209,1056.34 957.542,1060.44 961.875,1064.4 966.207,1068.39 970.54,1072.93 974.873,1077.61 979.206,1081.39 983.539,1084.8 987.872,1088.91 992.205,1092.99 996.538,1097.35 1000.87,1101.06 1005.2,1105.71 1009.54,1110.83 1013.87,1116.02 1018.2,1120.89 1022.54,1126.04 1026.87,1131.28 1031.2,1136.46 1035.53,1141.45 1039.87,1146.07 1044.2,1150.95 1048.53,1155.69 1052.87,1160.29 1057.2,1164.86 1061.53,1169.25 1065.87,1173.67 1070.2,1178.01 1074.53,1182.15 1078.86,1186.32 1083.2,1190.24 1087.53,1194.08 1091.86,1197.83 1096.2,1201.47 1100.53,1205.07 1104.86,1208.71 1109.2,1212.35 1113.53,1215.94 1117.86,1219.45 1122.19,1222.9 1126.53,1226.22 1130.86,1229.51 1135.19,1232.75 1139.53,1235.93 1143.86,1239.04 1148.19,1242.06 1152.52,1245.05 1156.86,1247.99 1161.19,1250.86 1165.52,1253.66 1169.86,1256.36 1174.19,1258.99 1178.52,1261.56 1182.86,1264.02 1187.19,1266.52 1191.52,1268.98 1195.85,1271.41 1200.19,1273.74 1204.52,1276.02 1208.85,1278.24 1213.19,1280.44 1217.52,1282.5 1221.85,1284.53 1226.19,1286.54 1230.52,1288.43 1234.85,1290.33 1239.18,1292.24 1243.52,1294.19 1247.85,1296.14 1252.18,1298.05 1256.52,1299.93 1260.85,1301.75 1265.18,1303.52 1269.51,1305.28 1273.85,1306.99 1278.18,1308.66 1282.51,1310.26 1286.85,1311.87 1291.18,1313.46 1295.51,1315.02 1299.85,1316.54 1304.18,1318.02 1308.51,1319.47 1312.84,1320.88 1317.18,1322.29 1321.51,1323.63 1325.84,1324.85 1330.18,1326.05 1334.51,1327.23 1338.84,1328.27 1343.18,1329.33 1347.51,1330.4 1351.84,1331.51 1356.17,1332.55 1360.51,1333.59 1364.84,1334.52 1369.17,1335.42 1373.51,1336.23 1377.84,1337.09 1382.17,1338.05 1386.5,1339.06 1390.84,1340.04 1395.17,1341 1399.5,1341.95 1403.84,1342.89 1408.17,1343.79 1412.5,1344.73 1416.84,1345.64 1421.17,1346.54 1425.5,1347.42 1429.83,1348.24 1434.17,1348.98 1438.5,1349.64 1442.83,1350.38 1447.17,1351.06 1451.5,1351.67 1455.83,1352.26 1460.17,1352.83 1464.5,1353.4 1468.83,1353.96 1473.16,1354.53 1477.5,1355.16 1481.83,1355.76 1486.16,1356.37 1490.5,1356.92 1494.83,1357.47 1499.16,1358.02 1503.49,1358.49 1507.83,1359.01 1512.16,1359.45 1516.49,1359.86 1520.83,1360.17 1525.16,1360.48 1529.49,1360.79 1533.83,1361.15 1538.16,1361.47 1542.49,1361.78 1546.82,1362.05 1551.16,1362.37 1555.49,1362.67 1559.82,1362.97 1564.16,1363.29 1568.49,1363.66 1572.82,1364 1577.16,1364.3 1581.49,1364.5 1585.82,1364.72 1590.15,1365.07 1594.49,1365.39 1598.82,1365.68 1603.15,1366.04 1607.49,1366.39 1611.82,1366.71 1616.15,1367.05 1620.49,1367.43 1624.82,1367.76 1629.15,1368.05 1633.48,1368.31 1637.82,1368.59 1642.15,1368.89 1646.48,1369.16 1650.82,1369.42 1655.15,1369.72 1659.48,1369.99 1663.81,1370.24 1668.15,1370.47 1672.48,1370.67 1676.81,1370.88 1681.15,1371 1685.48,1371.03 1689.81,1370.96 1694.15,1370.82 1698.48,1370.72 1702.81,1370.6 1707.14,1370.55 1711.48,1370.46 1715.81,1370.42 1720.14,1370.36 1724.48,1370.34 1728.81,1370.33 1733.14,1370.36 1737.48,1370.39 1741.81,1370.45 1746.14,1370.56 1750.47,1370.65 1754.81,1370.71 1759.14,1370.73 1763.47,1370.82 1767.81,1370.91 1772.14,1371 1776.47,1371.11 1780.8,1371.25 1785.14,1371.37 1789.47,1371.45 1793.8,1371.53 1798.14,1371.57 1802.47,1371.6 1806.8,1371.54 1811.14,1371.42 1815.47,1371.34 1819.8,1371.27 1824.13,1371.22 1828.47,1371.13 1832.8,1371.01 1837.13,1370.88 1841.47,1370.71 1845.8,1370.54 1850.13,1370.44 1854.47,1370.38 1858.8,1370.31 1863.13,1370.26 1867.46,1370.2 1871.8,1370.12 1876.13,1369.98 1880.46,1369.85 1884.8,1369.73 1889.13,1369.62 1893.46,1369.54 1897.79,1369.5 1902.13,1369.5 1906.46,1369.55 1910.79,1369.6 1915.13,1369.72 1919.46,1369.85 1923.79,1370.07 1928.13,1370.32 1932.46,1370.5 1936.79,1370.66 1941.12,1370.73 1945.46,1370.75 1949.79,1370.79 1954.12,1370.86 1958.46,1370.94 1962.79,1371.03 1967.12,1371.11 1971.46,1371.28 1975.79,1371.48 1980.12,1371.72 1984.45,1371.99 1988.79,1372.22 1993.12,1372.42 1997.45,1372.63 2001.79,1372.81 2006.12,1372.94 2010.45,1373.1 2014.78,1373.27 2019.12,1373.4 2023.45,1373.59 2027.78,1373.77 2032.12,1373.96 2036.45,1374.09 2040.78,1374.26 2045.12,1374.46 2049.45,1374.6 2053.78,1374.72 2058.11,1374.81 2062.45,1374.91 2066.78,1375.06 2071.11,1375.15 2075.45,1375.19 2079.78,1375.27 2084.11,1375.35 2088.45,1375.46 2092.78,1375.61 2097.11,1375.75 2101.44,1375.89 2105.78,1376.07 2110.11,1376.23 2114.44,1376.34 2118.78,1376.48 2123.11,1376.63 2127.44,1376.79 2131.77,1376.92 2136.11,1377.05 2140.44,1377.16 2144.77,1377.27 2149.11,1377.37 2153.44,1377.44 2157.77,1377.51 2162.11,1377.58 2166.44,1377.64 2170.77,1377.74 2175.1,1377.86 2179.44,1378.01 2183.77,1378.13 2188.1,1378.25 2192.44,1378.4 2196.77,1378.57 2201.1,1378.75 2205.44,1378.92 2209.77,1379.05 2214.1,1379.18 2218.43,1379.32 2222.77,1379.44 2227.1,1379.58 2231.43,1379.73 2235.77,1379.9 2240.1,1380.08 2244.43,1380.26 2248.76,1380.46 2253.1,1380.66 2257.43,1380.85 2261.76,1381.04 2266.1,1381.24 2270.43,1381.43 2274.76,1381.62 2279.1,1381.8 2283.43,1382 2287.76,1382.18 2292.09,1382.35 2296.43,1382.53 2300.76,1382.71 2305.09,1382.87 2309.43,1383.03 2313.76,1383.19 2318.09,1383.33 2322.43,1383.47 2326.76,1383.59 2331.09,1383.71 2335.42,1383.82 2339.76,1383.94 2344.09,1384.05 2348.42,1384.16 2352.76,1384.24 "/>
<path clip-path="url(#clip970)" d="M1974.79 196.789 L2280.54 196.789 L2280.54 93.1086 L1974.79 93.1086  Z" fill="#ffffff" fill-rule="evenodd" fill-opacity="1"/>
<polyline clip-path="url(#clip970)" style="stroke:#000000; stroke-linecap:round; stroke-linejoin:round; stroke-width:4; stroke-opacity:1; fill:none" points="1974.79,196.789 2280.54,196.789 2280.54,93.1086 1974.79,93.1086 1974.79,196.789 "/>
<polyline clip-path="url(#clip970)" style="stroke:#009af9; stroke-linecap:round; stroke-linejoin:round; stroke-width:4; stroke-opacity:1; fill:none" points="1998.87,144.949 2143.3,144.949 "/>
<path clip-path="url(#clip970)" d="M2167.37 151.997 L2167.37 136.303 L2171.63 136.303 L2171.63 151.835 Q2171.63 155.516 2173.07 157.368 Q2174.5 159.196 2177.37 159.196 Q2180.82 159.196 2182.81 156.997 Q2184.82 154.798 2184.82 151.002 L2184.82 136.303 L2189.08 136.303 L2189.08 162.229 L2184.82 162.229 L2184.82 158.247 Q2183.27 160.608 2181.21 161.766 Q2179.18 162.9 2176.47 162.9 Q2172 162.9 2169.69 160.122 Q2167.37 157.344 2167.37 151.997 M2178.09 135.678 L2178.09 135.678 Z" fill="#000000" fill-rule="nonzero" fill-opacity="1" /><path clip-path="url(#clip970)" d="M2197.46 126.21 L2207.28 126.21 L2207.28 129.52 L2201.72 129.52 L2201.72 165.168 L2207.28 165.168 L2207.28 168.479 L2197.46 168.479 L2197.46 126.21 Z" fill="#000000" fill-rule="nonzero" fill-opacity="1" /><path clip-path="url(#clip970)" d="M2217.76 158.293 L2225.4 158.293 L2225.4 131.928 L2217.09 133.595 L2217.09 129.335 L2225.36 127.669 L2230.03 127.669 L2230.03 158.293 L2237.67 158.293 L2237.67 162.229 L2217.76 162.229 L2217.76 158.293 Z" fill="#000000" fill-rule="nonzero" fill-opacity="1" /><path clip-path="url(#clip970)" d="M2256.47 126.21 L2256.47 168.479 L2246.65 168.479 L2246.65 165.168 L2252.19 165.168 L2252.19 129.52 L2246.65 129.52 L2246.65 126.21 L2256.47 126.21 Z" fill="#000000" fill-rule="nonzero" fill-opacity="1" /></svg>
