<?xml version="1.0" encoding="utf-8"?>
<svg xmlns="http://www.w3.org/2000/svg" xmlns:xlink="http://www.w3.org/1999/xlink" width="600" height="400" viewBox="0 0 2400 1600">
<defs>
  <clipPath id="clip090">
    <rect x="0" y="0" width="2400" height="1600"/>
  </clipPath>
</defs>
<path clip-path="url(#clip090)" d="M0 1600 L2400 1600 L2400 0 L0 0  Z" fill="#ffffff" fill-rule="evenodd" fill-opacity="1"/>
<defs>
  <clipPath id="clip091">
    <rect x="480" y="0" width="1681" height="1600"/>
  </clipPath>
</defs>
<path clip-path="url(#clip090)" d="M112.177 1423.18 L2352.76 1423.18 L2352.76 47.2441 L112.177 47.2441  Z" fill="#ffffff" fill-rule="evenodd" fill-opacity="1"/>
<defs>
  <clipPath id="clip092">
    <rect x="112" y="47" width="2242" height="1377"/>
  </clipPath>
</defs>
<polyline clip-path="url(#clip092)" style="stroke:#000000; stroke-linecap:round; stroke-linejoin:round; stroke-width:2; stroke-opacity:0.1; fill:none" points="112.177,1423.18 112.177,47.2441 "/>
<polyline clip-path="url(#clip092)" style="stroke:#000000; stroke-linecap:round; stroke-linejoin:round; stroke-width:2; stroke-opacity:0.1; fill:none" points="560.293,1423.18 560.293,47.2441 "/>
<polyline clip-path="url(#clip092)" style="stroke:#000000; stroke-linecap:round; stroke-linejoin:round; stroke-width:2; stroke-opacity:0.1; fill:none" points="1008.41,1423.18 1008.41,47.2441 "/>
<polyline clip-path="url(#clip092)" style="stroke:#000000; stroke-linecap:round; stroke-linejoin:round; stroke-width:2; stroke-opacity:0.1; fill:none" points="1456.52,1423.18 1456.52,47.2441 "/>
<polyline clip-path="url(#clip092)" style="stroke:#000000; stroke-linecap:round; stroke-linejoin:round; stroke-width:2; stroke-opacity:0.1; fill:none" points="1904.64,1423.18 1904.64,47.2441 "/>
<polyline clip-path="url(#clip092)" style="stroke:#000000; stroke-linecap:round; stroke-linejoin:round; stroke-width:2; stroke-opacity:0.1; fill:none" points="2352.76,1423.18 2352.76,47.2441 "/>
<polyline clip-path="url(#clip092)" style="stroke:#000000; stroke-linecap:round; stroke-linejoin:round; stroke-width:2; stroke-opacity:0.1; fill:none" points="112.177,1388.96 2352.76,1388.96 "/>
<polyline clip-path="url(#clip092)" style="stroke:#000000; stroke-linecap:round; stroke-linejoin:round; stroke-width:2; stroke-opacity:0.1; fill:none" points="112.177,1168.26 2352.76,1168.26 "/>
<polyline clip-path="url(#clip092)" style="stroke:#000000; stroke-linecap:round; stroke-linejoin:round; stroke-width:2; stroke-opacity:0.1; fill:none" points="112.177,947.57 2352.76,947.57 "/>
<polyline clip-path="url(#clip092)" style="stroke:#000000; stroke-linecap:round; stroke-linejoin:round; stroke-width:2; stroke-opacity:0.1; fill:none" points="112.177,726.877 2352.76,726.877 "/>
<polyline clip-path="url(#clip092)" style="stroke:#000000; stroke-linecap:round; stroke-linejoin:round; stroke-width:2; stroke-opacity:0.1; fill:none" points="112.177,506.184 2352.76,506.184 "/>
<polyline clip-path="url(#clip092)" style="stroke:#000000; stroke-linecap:round; stroke-linejoin:round; stroke-width:2; stroke-opacity:0.1; fill:none" points="112.177,285.491 2352.76,285.491 "/>
<polyline clip-path="url(#clip092)" style="stroke:#000000; stroke-linecap:round; stroke-linejoin:round; stroke-width:2; stroke-opacity:0.1; fill:none" points="112.177,64.7976 2352.76,64.7976 "/>
<polyline clip-path="url(#clip090)" style="stroke:#000000; stroke-linecap:round; stroke-linejoin:round; stroke-width:4; stroke-opacity:1; fill:none" points="112.177,1423.18 2352.76,1423.18 "/>
<polyline clip-path="url(#clip090)" style="stroke:#000000; stroke-linecap:round; stroke-linejoin:round; stroke-width:4; stroke-opacity:1; fill:none" points="112.177,1423.18 112.177,1404.28 "/>
<polyline clip-path="url(#clip090)" style="stroke:#000000; stroke-linecap:round; stroke-linejoin:round; stroke-width:4; stroke-opacity:1; fill:none" points="560.293,1423.18 560.293,1404.28 "/>
<polyline clip-path="url(#clip090)" style="stroke:#000000; stroke-linecap:round; stroke-linejoin:round; stroke-width:4; stroke-opacity:1; fill:none" points="1008.41,1423.18 1008.41,1404.28 "/>
<polyline clip-path="url(#clip090)" style="stroke:#000000; stroke-linecap:round; stroke-linejoin:round; stroke-width:4; stroke-opacity:1; fill:none" points="1456.52,1423.18 1456.52,1404.28 "/>
<polyline clip-path="url(#clip090)" style="stroke:#000000; stroke-linecap:round; stroke-linejoin:round; stroke-width:4; stroke-opacity:1; fill:none" points="1904.64,1423.18 1904.64,1404.28 "/>
<polyline clip-path="url(#clip090)" style="stroke:#000000; stroke-linecap:round; stroke-linejoin:round; stroke-width:4; stroke-opacity:1; fill:none" points="2352.76,1423.18 2352.76,1404.28 "/>
<path clip-path="url(#clip090)" d="M112.177 1454.1 Q108.566 1454.1 106.737 1457.66 Q104.932 1461.2 104.932 1468.33 Q104.932 1475.44 106.737 1479.01 Q108.566 1482.55 112.177 1482.55 Q115.811 1482.55 117.617 1479.01 Q119.446 1475.44 119.446 1468.33 Q119.446 1461.2 117.617 1457.66 Q115.811 1454.1 112.177 1454.1 M112.177 1450.39 Q117.987 1450.39 121.043 1455 Q124.122 1459.58 124.122 1468.33 Q124.122 1477.06 121.043 1481.67 Q117.987 1486.25 112.177 1486.25 Q106.367 1486.25 103.288 1481.67 Q100.233 1477.06 100.233 1468.33 Q100.233 1459.58 103.288 1455 Q106.367 1450.39 112.177 1450.39 Z" fill="#000000" fill-rule="nonzero" fill-opacity="1" /><path clip-path="url(#clip090)" d="M550.675 1481.64 L558.314 1481.64 L558.314 1455.28 L550.004 1456.95 L550.004 1452.69 L558.267 1451.02 L562.943 1451.02 L562.943 1481.64 L570.582 1481.64 L570.582 1485.58 L550.675 1485.58 L550.675 1481.64 Z" fill="#000000" fill-rule="nonzero" fill-opacity="1" /><path clip-path="url(#clip090)" d="M1003.06 1481.64 L1019.38 1481.64 L1019.38 1485.58 L997.437 1485.58 L997.437 1481.64 Q1000.1 1478.89 1004.68 1474.26 Q1009.29 1469.61 1010.47 1468.27 Q1012.71 1465.74 1013.59 1464.01 Q1014.5 1462.25 1014.5 1460.56 Q1014.5 1457.8 1012.55 1456.07 Q1010.63 1454.33 1007.53 1454.33 Q1005.33 1454.33 1002.88 1455.09 Q1000.45 1455.86 997.668 1457.41 L997.668 1452.69 Q1000.49 1451.55 1002.95 1450.97 Q1005.4 1450.39 1007.44 1450.39 Q1012.81 1450.39 1016 1453.08 Q1019.2 1455.77 1019.2 1460.26 Q1019.2 1462.39 1018.39 1464.31 Q1017.6 1466.2 1015.49 1468.8 Q1014.91 1469.47 1011.81 1472.69 Q1008.71 1475.88 1003.06 1481.64 Z" fill="#000000" fill-rule="nonzero" fill-opacity="1" /><path clip-path="url(#clip090)" d="M1460.77 1466.95 Q1464.13 1467.66 1466 1469.93 Q1467.9 1472.2 1467.9 1475.53 Q1467.9 1480.65 1464.38 1483.45 Q1460.86 1486.25 1454.38 1486.25 Q1452.21 1486.25 1449.89 1485.81 Q1447.6 1485.39 1445.15 1484.54 L1445.15 1480.02 Q1447.09 1481.16 1449.41 1481.74 Q1451.72 1482.32 1454.24 1482.32 Q1458.64 1482.32 1460.93 1480.58 Q1463.25 1478.84 1463.25 1475.53 Q1463.25 1472.48 1461.1 1470.77 Q1458.97 1469.03 1455.15 1469.03 L1451.12 1469.03 L1451.12 1465.19 L1455.33 1465.19 Q1458.78 1465.19 1460.61 1463.82 Q1462.44 1462.43 1462.44 1459.84 Q1462.44 1457.18 1460.54 1455.77 Q1458.67 1454.33 1455.15 1454.33 Q1453.23 1454.33 1451.03 1454.75 Q1448.83 1455.16 1446.19 1456.04 L1446.19 1451.88 Q1448.85 1451.14 1451.17 1450.77 Q1453.5 1450.39 1455.56 1450.39 Q1460.89 1450.39 1463.99 1452.83 Q1467.09 1455.23 1467.09 1459.35 Q1467.09 1462.22 1465.45 1464.21 Q1463.8 1466.18 1460.77 1466.95 Z" fill="#000000" fill-rule="nonzero" fill-opacity="1" /><path clip-path="url(#clip090)" d="M1907.65 1455.09 L1895.84 1473.54 L1907.65 1473.54 L1907.65 1455.09 M1906.42 1451.02 L1912.3 1451.02 L1912.3 1473.54 L1917.23 1473.54 L1917.23 1477.43 L1912.3 1477.43 L1912.3 1485.58 L1907.65 1485.58 L1907.65 1477.43 L1892.05 1477.43 L1892.05 1472.92 L1906.42 1451.02 Z" fill="#000000" fill-rule="nonzero" fill-opacity="1" /><path clip-path="url(#clip090)" d="M2343.03 1451.02 L2361.39 1451.02 L2361.39 1454.96 L2347.32 1454.96 L2347.32 1463.43 Q2348.33 1463.08 2349.35 1462.92 Q2350.37 1462.73 2351.39 1462.73 Q2357.18 1462.73 2360.56 1465.9 Q2363.94 1469.08 2363.94 1474.49 Q2363.94 1480.07 2360.46 1483.17 Q2356.99 1486.25 2350.67 1486.25 Q2348.5 1486.25 2346.23 1485.88 Q2343.98 1485.51 2341.58 1484.77 L2341.58 1480.07 Q2343.66 1481.2 2345.88 1481.76 Q2348.1 1482.32 2350.58 1482.32 Q2354.58 1482.32 2356.92 1480.21 Q2359.26 1478.1 2359.26 1474.49 Q2359.26 1470.88 2356.92 1468.77 Q2354.58 1466.67 2350.58 1466.67 Q2348.71 1466.67 2346.83 1467.08 Q2344.98 1467.5 2343.03 1468.38 L2343.03 1451.02 Z" fill="#000000" fill-rule="nonzero" fill-opacity="1" /><path clip-path="url(#clip090)" d="M1231.53 1522.27 L1231.53 1532.4 L1243.59 1532.4 L1243.59 1536.95 L1231.53 1536.95 L1231.53 1556.3 Q1231.53 1560.66 1232.71 1561.9 Q1233.91 1563.14 1237.58 1563.14 L1243.59 1563.14 L1243.59 1568.04 L1237.58 1568.04 Q1230.8 1568.04 1228.22 1565.53 Q1225.64 1562.98 1225.64 1556.3 L1225.64 1536.95 L1221.34 1536.95 L1221.34 1532.4 L1225.64 1532.4 L1225.64 1522.27 L1231.53 1522.27 Z" fill="#000000" fill-rule="nonzero" fill-opacity="1" /><polyline clip-path="url(#clip090)" style="stroke:#000000; stroke-linecap:round; stroke-linejoin:round; stroke-width:4; stroke-opacity:1; fill:none" points="112.177,1423.18 112.177,47.2441 "/>
<polyline clip-path="url(#clip090)" style="stroke:#000000; stroke-linecap:round; stroke-linejoin:round; stroke-width:4; stroke-opacity:1; fill:none" points="112.177,1388.96 131.075,1388.96 "/>
<polyline clip-path="url(#clip090)" style="stroke:#000000; stroke-linecap:round; stroke-linejoin:round; stroke-width:4; stroke-opacity:1; fill:none" points="112.177,1168.26 131.075,1168.26 "/>
<polyline clip-path="url(#clip090)" style="stroke:#000000; stroke-linecap:round; stroke-linejoin:round; stroke-width:4; stroke-opacity:1; fill:none" points="112.177,947.57 131.075,947.57 "/>
<polyline clip-path="url(#clip090)" style="stroke:#000000; stroke-linecap:round; stroke-linejoin:round; stroke-width:4; stroke-opacity:1; fill:none" points="112.177,726.877 131.075,726.877 "/>
<polyline clip-path="url(#clip090)" style="stroke:#000000; stroke-linecap:round; stroke-linejoin:round; stroke-width:4; stroke-opacity:1; fill:none" points="112.177,506.184 131.075,506.184 "/>
<polyline clip-path="url(#clip090)" style="stroke:#000000; stroke-linecap:round; stroke-linejoin:round; stroke-width:4; stroke-opacity:1; fill:none" points="112.177,285.491 131.075,285.491 "/>
<polyline clip-path="url(#clip090)" style="stroke:#000000; stroke-linecap:round; stroke-linejoin:round; stroke-width:4; stroke-opacity:1; fill:none" points="112.177,64.7976 131.075,64.7976 "/>
<path clip-path="url(#clip090)" d="M64.2328 1374.76 Q60.6217 1374.76 58.793 1378.32 Q56.9875 1381.86 56.9875 1388.99 Q56.9875 1396.1 58.793 1399.66 Q60.6217 1403.2 64.2328 1403.2 Q67.867 1403.2 69.6726 1399.66 Q71.5013 1396.1 71.5013 1388.99 Q71.5013 1381.86 69.6726 1378.32 Q67.867 1374.76 64.2328 1374.76 M64.2328 1371.05 Q70.0429 1371.05 73.0985 1375.66 Q76.1772 1380.24 76.1772 1388.99 Q76.1772 1397.72 73.0985 1402.32 Q70.0429 1406.91 64.2328 1406.91 Q58.4226 1406.91 55.344 1402.32 Q52.2884 1397.72 52.2884 1388.99 Q52.2884 1380.24 55.344 1375.66 Q58.4226 1371.05 64.2328 1371.05 Z" fill="#000000" fill-rule="nonzero" fill-opacity="1" /><path clip-path="url(#clip090)" d="M56.2699 1181.61 L63.9087 1181.61 L63.9087 1155.24 L55.5986 1156.91 L55.5986 1152.65 L63.8624 1150.98 L68.5383 1150.98 L68.5383 1181.61 L76.1772 1181.61 L76.1772 1185.54 L56.2699 1185.54 L56.2699 1181.61 Z" fill="#000000" fill-rule="nonzero" fill-opacity="1" /><path clip-path="url(#clip090)" d="M59.8578 960.915 L76.1772 960.915 L76.1772 964.85 L54.2328 964.85 L54.2328 960.915 Q56.8949 958.16 61.4782 953.531 Q66.0846 948.878 67.2652 947.535 Q69.5105 945.012 70.3902 943.276 Q71.2929 941.517 71.2929 939.827 Q71.2929 937.073 69.3485 935.336 Q67.4272 933.6 64.3254 933.6 Q62.1263 933.6 59.6726 934.364 Q57.2421 935.128 54.4643 936.679 L54.4643 931.957 Q57.2884 930.823 59.7421 930.244 Q62.1958 929.665 64.2328 929.665 Q69.6031 929.665 72.7976 932.35 Q75.992 935.036 75.992 939.526 Q75.992 941.656 75.1818 943.577 Q74.3948 945.475 72.2883 948.068 Q71.7096 948.739 68.6078 951.957 Q65.5059 955.151 59.8578 960.915 Z" fill="#000000" fill-rule="nonzero" fill-opacity="1" /><path clip-path="url(#clip090)" d="M69.0476 725.523 Q72.404 726.24 74.279 728.509 Q76.1772 730.777 76.1772 734.111 Q76.1772 739.227 72.6587 742.027 Q69.1402 744.828 62.6587 744.828 Q60.4828 744.828 58.168 744.389 Q55.8764 743.972 53.4227 743.115 L53.4227 738.602 Q55.3671 739.736 57.6819 740.314 Q59.9967 740.893 62.5198 740.893 Q66.918 740.893 69.2096 739.157 Q71.5244 737.421 71.5244 734.111 Q71.5244 731.055 69.3717 729.342 Q67.242 727.606 63.4226 727.606 L59.3949 727.606 L59.3949 723.764 L63.6078 723.764 Q67.0569 723.764 68.8855 722.398 Q70.7142 721.009 70.7142 718.416 Q70.7142 715.754 68.8161 714.342 Q66.9411 712.907 63.4226 712.907 Q61.5013 712.907 59.3023 713.324 Q57.1032 713.741 54.4643 714.62 L54.4643 710.454 Q57.1264 709.713 59.4412 709.342 Q61.7791 708.972 63.8393 708.972 Q69.1633 708.972 72.2652 711.403 Q75.367 713.81 75.367 717.93 Q75.367 720.801 73.7235 722.791 Q72.08 724.759 69.0476 725.523 Z" fill="#000000" fill-rule="nonzero" fill-opacity="1" /><path clip-path="url(#clip090)" d="M66.5939 492.978 L54.7884 511.427 L66.5939 511.427 L66.5939 492.978 M65.367 488.904 L71.2466 488.904 L71.2466 511.427 L76.1772 511.427 L76.1772 515.316 L71.2466 515.316 L71.2466 523.464 L66.5939 523.464 L66.5939 515.316 L50.9921 515.316 L50.9921 510.802 L65.367 488.904 Z" fill="#000000" fill-rule="nonzero" fill-opacity="1" /><path clip-path="url(#clip090)" d="M55.2745 268.211 L73.6309 268.211 L73.6309 272.146 L59.5569 272.146 L59.5569 280.618 Q60.5754 280.271 61.5939 280.109 Q62.6124 279.924 63.6309 279.924 Q69.418 279.924 72.7976 283.095 Q76.1772 286.266 76.1772 291.683 Q76.1772 297.262 72.705 300.363 Q69.2328 303.442 62.9134 303.442 Q60.7374 303.442 58.4689 303.072 Q56.2236 302.701 53.8162 301.961 L53.8162 297.262 Q55.8995 298.396 58.1217 298.951 Q60.3439 299.507 62.8208 299.507 Q66.8254 299.507 69.1633 297.4 Q71.5013 295.294 71.5013 291.683 Q71.5013 288.072 69.1633 285.965 Q66.8254 283.859 62.8208 283.859 Q60.9458 283.859 59.0708 284.276 Q57.2189 284.692 55.2745 285.572 L55.2745 268.211 Z" fill="#000000" fill-rule="nonzero" fill-opacity="1" /><path clip-path="url(#clip090)" d="M64.6495 62.9342 Q61.5013 62.9342 59.6495 65.087 Q57.8208 67.2398 57.8208 70.9897 Q57.8208 74.7166 59.6495 76.8925 Q61.5013 79.0452 64.6495 79.0452 Q67.7976 79.0452 69.6263 76.8925 Q71.4781 74.7166 71.4781 70.9897 Q71.4781 67.2398 69.6263 65.087 Q67.7976 62.9342 64.6495 62.9342 M73.9318 48.2815 L73.9318 52.5408 Q72.1726 51.7074 70.367 51.2676 Q68.5846 50.8278 66.8254 50.8278 Q62.1958 50.8278 59.7421 53.9528 Q57.3115 57.0778 56.9643 63.3972 Q58.33 61.3833 60.3902 60.3185 Q62.4504 59.2305 64.9272 59.2305 Q70.1355 59.2305 73.1448 62.4018 Q76.1772 65.5499 76.1772 70.9897 Q76.1772 76.3138 73.029 79.5314 Q69.8809 82.7489 64.6495 82.7489 Q58.6541 82.7489 55.4828 78.1656 Q52.3116 73.5592 52.3116 64.8324 Q52.3116 56.638 56.2004 51.7769 Q60.0893 46.8926 66.6402 46.8926 Q68.3994 46.8926 70.1818 47.2399 Q71.9874 47.5871 73.9318 48.2815 Z" fill="#000000" fill-rule="nonzero" fill-opacity="1" /><polyline clip-path="url(#clip092)" style="stroke:#009af9; stroke-linecap:round; stroke-linejoin:round; stroke-width:4; stroke-opacity:1; fill:none" points="112.177,1168.26 116.658,1168.26 121.139,1168.26 125.621,1168.21 130.102,1168.2 134.583,1168.23 139.064,1168.57 143.545,1168.81 148.026,1169.02 152.508,1169.26 156.989,1169.18 161.47,1169.27 165.951,1169.48 170.432,1169.83 174.913,1169.61 179.395,1169.46 183.876,1169.35 188.357,1168.92 192.838,1167.84 197.319,1166.31 201.8,1165.22 206.281,1164.26 210.763,1162.42 215.244,1160.59 219.725,1159.08 224.206,1157.37 228.687,1156.18 233.168,1154.79 237.65,1153.36 242.131,1152.13 246.612,1151.26 251.093,1150.88 255.574,1150.39 260.055,1149.81 264.537,1149.04 269.018,1147.86 273.499,1146.29 277.98,1144.96 282.461,1144.09 286.942,1143.36 291.423,1142.34 295.905,1141.61 300.386,1141.05 304.867,1140.85 309.348,1140.69 313.829,1140.4 318.31,1140.44 322.792,1140.31 327.273,1139.86 331.754,1139.75 336.235,1139.63 340.716,1139.04 345.197,1138.67 349.679,1138.28 354.16,1137.33 358.641,1135.98 363.122,1134.88 367.603,1134.06 372.084,1132.89 376.565,1131.33 381.047,1129.12 385.528,1127.15 390.009,1124.52 394.49,1121.53 398.971,1118.61 403.452,1115.45 407.934,1111.3 412.415,1108.25 416.896,1104.41 421.377,1100.84 425.858,1097.15 430.339,1093.05 434.821,1087.43 439.302,1083.09 443.783,1078.45 448.264,1072.45 452.745,1066.99 457.226,1060.7 461.707,1055.29 466.189,1049.98 470.67,1044.47 475.151,1039.7 479.632,1033.3 484.113,1026.31 488.594,1020.16 493.076,1013.57 497.557,1008.93 502.038,1004.42 506.519,999.717 511,994.681 515.481,990.543 519.963,985.935 524.444,981.682 528.925,976.821 533.406,971.61 537.887,965.501 542.368,961.317 546.849,958.038 551.331,955.099 555.812,952.194 560.293,948.464 564.774,944.388 569.255,940.415 573.736,935.695 578.218,930.598 582.699,925.707 587.18,920.579 591.661,915.275 596.142,911.525 600.623,908.08 605.104,901.896 609.586,896.889 614.067,894.12 618.548,889.204 623.029,883.226 627.51,876.139 631.991,868.983 636.473,861.003 640.954,852.145 645.435,842.013 649.916,835.364 654.397,829.383 658.878,822.332 663.36,813.264 667.841,803.376 672.322,793.718 676.803,783.348 681.284,775.899 685.765,769.179 690.246,763.77 694.728,756.777 699.209,753.496 703.69,746.586 708.171,740.663 712.652,733.027 717.133,723.75 721.615,712.125 726.096,700.511 730.577,686.078 735.058,666.113 739.539,646.804 744.02,629.348 748.502,611.379 752.983,592.561 757.464,574.662 761.945,556.542 766.426,534.783 770.907,511.672 775.388,490.612 779.87,469.904 784.351,447.223 788.832,427.202 793.313,405.781 797.794,383.897 802.275,361.353 806.757,342.183 811.238,318.277 815.719,308.406 820.2,293.935 824.681,282.943 829.162,274.73 833.644,268.023 838.125,264.868 842.606,262.827 847.087,257.763 851.568,249.729 856.049,236.028 860.53,219.089 865.012,207.348 869.493,195.105 873.974,181.912 878.455,166.233 882.936,163.213 887.417,161.549 891.899,162.921 896.38,158.498 900.861,138.181 905.342,126.085 909.823,114.6 914.304,108.865 918.786,95.6465 923.267,86.1857 927.748,89.9658 932.229,109.827 936.71,129.545 941.191,144.414 945.672,161.785 950.154,179.122 954.635,197.97 959.116,199.872 963.597,195.404 968.078,200.269 972.559,211.744 977.041,220.937 981.522,237.319 986.003,247.357 990.484,255.169 994.965,275.894 999.446,289.651 1003.93,308.909 1008.41,330.843 1012.89,354.362 1017.37,387.079 1021.85,407.27 1026.33,434.438 1030.81,460.134 1035.3,488.947 1039.78,510.429 1044.26,536.083 1048.74,567.659 1053.22,600.6 1057.7,629.505 1062.18,665.111 1066.66,700.692 1071.14,739.955 1075.63,776.354 1080.11,813.633 1084.59,847.67 1089.07,881.435 1093.55,914.838 1098.03,946.296 1102.51,975.301 1106.99,1002.86 1111.48,1029.1 1115.96,1052.62 1120.44,1073.63 1124.92,1091.6 1129.4,1108.71 1133.88,1123.33 1138.36,1139.31 1142.84,1153.18 1147.32,1166.97 1151.81,1178.59 1156.29,1188.53 1160.77,1198.42 1165.25,1209.38 1169.73,1220.34 1174.21,1230.93 1178.69,1240.19 1183.17,1249.51 1187.65,1256.91 1192.14,1263.86 1196.62,1270.78 1201.1,1277.61 1205.58,1284.28 1210.06,1290.53 1214.54,1296.12 1219.02,1301.29 1223.5,1306.12 1227.99,1311.06 1232.47,1315.53 1236.95,1319.92 1241.43,1323.83 1245.91,1327.57 1250.39,1331.14 1254.87,1334.33 1259.35,1337.38 1263.83,1340.39 1268.32,1343.36 1272.8,1346.09 1277.28,1348.63 1281.76,1351.02 1286.24,1353.18 1290.72,1355.07 1295.2,1356.63 1299.68,1358.05 1304.17,1359.4 1308.65,1360.91 1313.13,1362.14 1317.61,1363.53 1322.09,1364.88 1326.57,1366.14 1331.05,1367.17 1335.53,1368.4 1340.01,1369.55 1344.5,1370.68 1348.98,1371.5 1353.46,1372.29 1357.94,1373.14 1362.42,1373.98 1366.9,1374.75 1371.38,1375.48 1375.86,1376.18 1380.34,1376.75 1384.83,1377.33 1389.31,1377.7 1393.79,1378.07 1398.27,1378.42 1402.75,1378.63 1407.23,1378.91 1411.71,1379.16 1416.19,1379.37 1420.68,1379.51 1425.16,1379.67 1429.64,1379.85 1434.12,1380.01 1438.6,1380.14 1443.08,1380.29 1447.56,1380.43 1452.04,1380.48 1456.52,1380.51 1461.01,1380.58 1465.49,1380.59 1469.97,1380.64 1474.45,1380.75 1478.93,1380.85 1483.41,1380.91 1487.89,1380.92 1492.37,1380.92 1496.85,1380.95 1501.34,1380.97 1505.82,1380.93 1510.3,1380.97 1514.78,1380.9 1519.26,1380.88 1523.74,1380.82 1528.22,1380.8 1532.7,1380.72 1537.19,1380.64 1541.67,1380.57 1546.15,1380.55 1550.63,1380.49 1555.11,1380.34 1559.59,1380.19 1564.07,1380.07 1568.55,1379.89 1573.03,1379.77 1577.52,1379.63 1582,1379.51 1586.48,1379.37 1590.96,1379.19 1595.44,1378.99 1599.92,1378.7 1604.4,1378.4 1608.88,1378.13 1613.36,1377.79 1617.85,1377.43 1622.33,1377.05 1626.81,1376.6 1631.29,1376.08 1635.77,1375.49 1640.25,1374.91 1644.73,1374.33 1649.21,1373.74 1653.7,1373.13 1658.18,1372.56 1662.66,1371.94 1667.14,1371.35 1671.62,1370.85 1676.1,1370.28 1680.58,1369.73 1685.06,1369.09 1689.54,1368.43 1694.03,1367.72 1698.51,1366.95 1702.99,1366.15 1707.47,1365.3 1711.95,1364.45 1716.43,1363.59 1720.91,1362.77 1725.39,1361.92 1729.88,1361.03 1734.36,1360.12 1738.84,1359.4 1743.32,1358.71 1747.8,1358.13 1752.28,1357.45 1756.76,1356.88 1761.24,1356.54 1765.72,1356.18 1770.21,1356.05 1774.69,1356.01 1779.17,1355.82 1783.65,1355.68 1788.13,1355.39 1792.61,1355.24 1797.09,1355.27 1801.57,1355.27 1806.05,1355.4 1810.54,1355.54 1815.02,1355.78 1819.5,1356.06 1823.98,1356.34 1828.46,1356.7 1832.94,1357.11 1837.42,1357.46 1841.9,1357.85 1846.39,1358.27 1850.87,1358.81 1855.35,1359.3 1859.83,1359.8 1864.31,1360.4 1868.79,1360.99 1873.27,1361.67 1877.75,1362.31 1882.23,1363 1886.72,1363.67 1891.2,1364.33 1895.68,1365.01 1900.16,1365.67 1904.64,1366.24 1909.12,1366.75 1913.6,1367.23 1918.08,1367.74 1922.56,1368.24 1927.05,1368.7 1931.53,1369.11 1936.01,1369.45 1940.49,1369.81 1944.97,1370.12 1949.45,1370.36 1953.93,1370.6 1958.41,1370.79 1962.9,1370.93 1967.38,1371.09 1971.86,1371.24 1976.34,1371.44 1980.82,1371.66 1985.3,1371.96 1989.78,1372.25 1994.26,1372.51 1998.74,1372.77 2003.23,1373.04 2007.71,1373.26 2012.19,1373.47 2016.67,1373.65 2021.15,1373.73 2025.63,1373.77 2030.11,1373.9 2034.59,1373.99 2039.07,1374.07 2043.56,1374.16 2048.04,1374.32 2052.52,1374.56 2057,1374.84 2061.48,1375.07 2065.96,1375.33 2070.44,1375.61 2074.92,1375.85 2079.41,1376.05 2083.89,1376.18 2088.37,1376.29 2092.85,1376.43 2097.33,1376.57 2101.81,1376.75 2106.29,1376.9 2110.77,1377.05 2115.25,1377.18 2119.74,1377.29 2124.22,1377.41 2128.7,1377.52 2133.18,1377.61 2137.66,1377.69 2142.14,1377.8 2146.62,1377.91 2151.1,1378.04 2155.58,1378.19 2160.07,1378.33 2164.55,1378.47 2169.03,1378.62 2173.51,1378.8 2177.99,1379.01 2182.47,1379.2 2186.95,1379.4 2191.43,1379.58 2195.92,1379.71 2200.4,1379.82 2204.88,1379.91 2209.36,1379.98 2213.84,1380.01 2218.32,1380.08 2222.8,1380.15 2227.28,1380.21 2231.76,1380.29 2236.25,1380.4 2240.73,1380.56 2245.21,1380.7 2249.69,1380.82 2254.17,1380.94 2258.65,1381.07 2263.13,1381.23 2267.61,1381.41 2272.1,1381.6 2276.58,1381.79 2281.06,1382 2285.54,1382.24 2290.02,1382.42 2294.5,1382.58 2298.98,1382.71 2303.46,1382.89 2307.94,1383.08 2312.43,1383.25 2316.91,1383.43 2321.39,1383.58 2325.87,1383.72 2330.35,1383.86 2334.83,1383.99 2339.31,1384.1 2343.79,1384.13 2348.27,1384.18 2352.76,1384.24 "/>
<polyline clip-path="url(#clip092)" style="stroke:#e26f46; stroke-linecap:round; stroke-linejoin:round; stroke-width:4; stroke-opacity:1; fill:none" points="112.177,1168.26 116.658,1172.68 121.139,1176.9 125.621,1181.1 130.102,1185.25 134.583,1189.26 139.064,1193.13 143.545,1196.98 148.026,1200.82 152.508,1204.58 156.989,1208.23 161.47,1211.61 165.951,1215.1 170.432,1218.52 174.913,1221.92 179.395,1225.26 183.876,1228.52 188.357,1231.73 192.838,1234.86 197.319,1237.92 201.8,1240.93 206.281,1243.89 210.763,1246.78 215.244,1249.59 219.725,1252.35 224.206,1255.06 228.687,1257.73 233.168,1260.33 237.65,1262.9 242.131,1265.41 246.612,1267.88 251.093,1270.3 255.574,1272.66 260.055,1274.98 264.537,1277.26 269.018,1279.44 273.499,1281.61 277.98,1283.67 282.461,1285.58 286.942,1287.17 291.423,1288.94 295.905,1290.55 300.386,1292.22 304.867,1293.93 309.348,1295.51 313.829,1297.07 318.31,1298.45 322.792,1300 327.273,1301.41 331.754,1302.79 336.235,1304.11 340.716,1305.58 345.197,1307.09 349.679,1308.61 354.16,1310.18 358.641,1311.63 363.122,1313.14 367.603,1314.55 372.084,1315.97 376.565,1317.21 381.047,1318.37 385.528,1319.23 390.009,1320.12 394.49,1321.23 398.971,1322.28 403.452,1323.46 407.934,1324.65 412.415,1325.85 416.896,1327.04 421.377,1328.27 425.858,1329.42 430.339,1330.6 434.821,1331.75 439.302,1332.89 443.783,1333.97 448.264,1335.04 452.745,1336.09 457.226,1337.08 461.707,1338.05 466.189,1339.06 470.67,1340.06 475.151,1341.02 479.632,1341.95 484.113,1342.87 488.594,1343.79 493.076,1344.7 497.557,1345.58 502.038,1346.35 506.519,1346.99 511,1347.55 515.481,1348.14 519.963,1348.74 524.444,1349.31 528.925,1349.82 533.406,1350.39 537.887,1351.02 542.368,1351.54 546.849,1352.03 551.331,1352.51 555.812,1352.99 560.293,1353.34 564.774,1353.76 569.255,1354.05 573.736,1354.35 578.218,1354.65 582.699,1354.95 587.18,1355.21 591.661,1355.47 596.142,1355.7 600.623,1356.11 605.104,1356.51 609.586,1356.86 614.067,1357.21 618.548,1357.46 623.029,1357.72 627.51,1358.02 631.991,1358.39 636.473,1358.83 640.954,1359.29 645.435,1359.72 649.916,1360.06 654.397,1360.42 658.878,1360.69 663.36,1361.05 667.841,1361.43 672.322,1361.83 676.803,1362.21 681.284,1362.58 685.765,1363.01 690.246,1363.45 694.728,1363.84 699.209,1364.22 703.69,1364.57 708.171,1364.94 712.652,1365.26 717.133,1365.5 721.615,1365.77 726.096,1366.08 730.577,1366.38 735.058,1366.71 739.539,1367.06 744.02,1367.46 748.502,1367.83 752.983,1368.22 757.464,1368.55 761.945,1368.89 766.426,1369.23 770.907,1369.53 775.388,1369.78 779.87,1370.04 784.351,1370.27 788.832,1370.52 793.313,1370.78 797.794,1371 802.275,1371.2 806.757,1371.41 811.238,1371.54 815.719,1371.61 820.2,1371.66 824.681,1371.73 829.162,1371.74 833.644,1371.7 838.125,1371.63 842.606,1371.58 847.087,1371.51 851.568,1371.4 856.049,1371.25 860.53,1371.1 865.012,1370.89 869.493,1370.64 873.974,1370.43 878.455,1370.2 882.936,1369.99 887.417,1369.78 891.899,1369.55 896.38,1369.29 900.861,1369.06 905.342,1368.81 909.823,1368.61 914.304,1368.44 918.786,1368.22 923.267,1368.05 927.748,1367.93 932.229,1367.86 936.71,1367.81 941.191,1367.66 945.672,1367.44 950.154,1367.3 954.635,1367.13 959.116,1366.99 963.597,1366.87 968.078,1366.82 972.559,1366.77 977.041,1366.7 981.522,1366.54 986.003,1366.4 990.484,1366.27 994.965,1366.06 999.446,1365.68 1003.93,1365.27 1008.41,1364.9 1012.89,1364.49 1017.37,1364.09 1021.85,1363.66 1026.33,1363.25 1030.81,1362.78 1035.3,1362.29 1039.78,1361.85 1044.26,1361.35 1048.74,1360.8 1053.22,1360.24 1057.7,1359.68 1062.18,1359.13 1066.66,1358.55 1071.14,1357.97 1075.63,1357.42 1080.11,1356.92 1084.59,1356.37 1089.07,1355.82 1093.55,1355.36 1098.03,1354.89 1102.51,1354.42 1106.99,1354.02 1111.48,1353.57 1115.96,1353.29 1120.44,1352.89 1124.92,1352.47 1129.4,1352.02 1133.88,1351.46 1138.36,1350.89 1142.84,1350.27 1147.32,1349.75 1151.81,1349.14 1156.29,1348.62 1160.77,1348.15 1165.25,1347.72 1169.73,1347.31 1174.21,1346.81 1178.69,1346.18 1183.17,1345.77 1187.65,1345.42 1192.14,1345.03 1196.62,1344.61 1201.1,1344.3 1205.58,1344.02 1210.06,1343.92 1214.54,1343.94 1219.02,1343.83 1223.5,1343.73 1227.99,1343.59 1232.47,1343.23 1236.95,1343.12 1241.43,1343.2 1245.91,1343.39 1250.39,1343.61 1254.87,1344.02 1259.35,1344.53 1263.83,1345.04 1268.32,1345.55 1272.8,1345.97 1277.28,1346.38 1281.76,1346.82 1286.24,1347.02 1290.72,1347.26 1295.2,1347.37 1299.68,1347.46 1304.17,1347.57 1308.65,1347.91 1313.13,1347.96 1317.61,1347.97 1322.09,1347.99 1326.57,1347.99 1331.05,1347.82 1335.53,1347.62 1340.01,1347.45 1344.5,1347.39 1348.98,1347.39 1353.46,1347.5 1357.94,1347.51 1362.42,1347.52 1366.9,1347.7 1371.38,1348.03 1375.86,1348.06 1380.34,1348.2 1384.83,1348.37 1389.31,1348.59 1393.79,1348.88 1398.27,1349.08 1402.75,1349.21 1407.23,1349.51 1411.71,1349.82 1416.19,1349.92 1420.68,1349.99 1425.16,1350.21 1429.64,1350.48 1434.12,1350.64 1438.6,1350.77 1443.08,1351 1447.56,1351.15 1452.04,1351.29 1456.52,1351.42 1461.01,1351.53 1465.49,1351.51 1469.97,1351.39 1474.45,1351.3 1478.93,1351.18 1483.41,1351.14 1487.89,1351.12 1492.37,1350.92 1496.85,1350.74 1501.34,1350.59 1505.82,1350.47 1510.3,1350.65 1514.78,1350.69 1519.26,1350.58 1523.74,1350.47 1528.22,1350.41 1532.7,1350.41 1537.19,1350.4 1541.67,1350.59 1546.15,1350.77 1550.63,1350.84 1555.11,1350.87 1559.59,1351 1564.07,1351.24 1568.55,1351.36 1573.03,1351.42 1577.52,1351.44 1582,1351.4 1586.48,1351.43 1590.96,1351.44 1595.44,1351.37 1599.92,1351.17 1604.4,1350.93 1608.88,1350.73 1613.36,1350.47 1617.85,1350.17 1622.33,1349.84 1626.81,1349.45 1631.29,1349.06 1635.77,1348.52 1640.25,1348.01 1644.73,1347.51 1649.21,1347.01 1653.7,1346.5 1658.18,1346.1 1662.66,1345.7 1667.14,1345.32 1671.62,1345.1 1676.1,1344.79 1680.58,1344.56 1685.06,1344.49 1689.54,1344.36 1694.03,1344.37 1698.51,1344.35 1702.99,1344.28 1707.47,1344.33 1711.95,1344.36 1716.43,1344.79 1720.91,1345.44 1725.39,1346.12 1729.88,1346.71 1734.36,1347.4 1738.84,1347.91 1743.32,1348.47 1747.8,1349.08 1752.28,1349.56 1756.76,1350.01 1761.24,1350.55 1765.72,1351.09 1770.21,1351.58 1774.69,1352.03 1779.17,1352.55 1783.65,1352.95 1788.13,1353.36 1792.61,1353.69 1797.09,1354.18 1801.57,1354.77 1806.05,1355.35 1810.54,1356 1815.02,1356.66 1819.5,1357.3 1823.98,1357.93 1828.46,1358.55 1832.94,1359.14 1837.42,1359.73 1841.9,1360.32 1846.39,1360.88 1850.87,1361.45 1855.35,1362 1859.83,1362.53 1864.31,1363.06 1868.79,1363.56 1873.27,1364.06 1877.75,1364.56 1882.23,1365.03 1886.72,1365.47 1891.2,1365.91 1895.68,1366.37 1900.16,1366.8 1904.64,1367.2 1909.12,1367.59 1913.6,1367.98 1918.08,1368.39 1922.56,1368.8 1927.05,1369.18 1931.53,1369.57 1936.01,1369.96 1940.49,1370.34 1944.97,1370.7 1949.45,1371.04 1953.93,1371.37 1958.41,1371.7 1962.9,1372.04 1967.38,1372.32 1971.86,1372.61 1976.34,1372.85 1980.82,1373.06 1985.3,1373.26 1989.78,1373.45 1994.26,1373.56 1998.74,1373.61 2003.23,1373.65 2007.71,1373.7 2012.19,1373.74 2016.67,1373.75 2021.15,1373.79 2025.63,1373.84 2030.11,1373.94 2034.59,1374.03 2039.07,1374.19 2043.56,1374.36 2048.04,1374.51 2052.52,1374.67 2057,1374.83 2061.48,1375.04 2065.96,1375.26 2070.44,1375.48 2074.92,1375.69 2079.41,1375.89 2083.89,1376.09 2088.37,1376.28 2092.85,1376.4 2097.33,1376.46 2101.81,1376.51 2106.29,1376.53 2110.77,1376.57 2115.25,1376.64 2119.74,1376.74 2124.22,1376.85 2128.7,1376.94 2133.18,1377.01 2137.66,1377.06 2142.14,1377.11 2146.62,1377.18 2151.1,1377.27 2155.58,1377.32 2160.07,1377.37 2164.55,1377.43 2169.03,1377.49 2173.51,1377.5 2177.99,1377.53 2182.47,1377.52 2186.95,1377.51 2191.43,1377.47 2195.92,1377.42 2200.4,1377.37 2204.88,1377.35 2209.36,1377.35 2213.84,1377.31 2218.32,1377.26 2222.8,1377.19 2227.28,1377.1 2231.76,1377.03 2236.25,1376.92 2240.73,1376.82 2245.21,1376.76 2249.69,1376.71 2254.17,1376.66 2258.65,1376.6 2263.13,1376.53 2267.61,1376.43 2272.1,1376.36 2276.58,1376.26 2281.06,1376.11 2285.54,1375.94 2290.02,1375.79 2294.5,1375.69 2298.98,1375.62 2303.46,1375.54 2307.94,1375.52 2312.43,1375.49 2316.91,1375.44 2321.39,1375.42 2325.87,1375.35 2330.35,1375.25 2334.83,1375.06 2339.31,1374.94 2343.79,1374.78 2348.27,1374.59 2352.76,1374.43 "/>
<path clip-path="url(#clip090)" d="M1964.92 248.629 L2278.07 248.629 L2278.07 93.1086 L1964.92 93.1086  Z" fill="#ffffff" fill-rule="evenodd" fill-opacity="1"/>
<polyline clip-path="url(#clip090)" style="stroke:#000000; stroke-linecap:round; stroke-linejoin:round; stroke-width:4; stroke-opacity:1; fill:none" points="1964.92,248.629 2278.07,248.629 2278.07,93.1086 1964.92,93.1086 1964.92,248.629 "/>
<polyline clip-path="url(#clip090)" style="stroke:#009af9; stroke-linecap:round; stroke-linejoin:round; stroke-width:4; stroke-opacity:1; fill:none" points="1989.81,144.949 2139.18,144.949 "/>
<path clip-path="url(#clip090)" d="M2164.08 151.997 L2164.08 136.303 L2168.34 136.303 L2168.34 151.835 Q2168.34 155.516 2169.77 157.368 Q2171.21 159.196 2174.08 159.196 Q2177.53 159.196 2179.52 156.997 Q2181.53 154.798 2181.53 151.002 L2181.53 136.303 L2185.79 136.303 L2185.79 162.229 L2181.53 162.229 L2181.53 158.247 Q2179.98 160.608 2177.92 161.766 Q2175.88 162.9 2173.18 162.9 Q2168.71 162.9 2166.39 160.122 Q2164.08 157.344 2164.08 151.997 M2174.8 135.678 L2174.8 135.678 Z" fill="#000000" fill-rule="nonzero" fill-opacity="1" /><path clip-path="url(#clip090)" d="M2194.17 126.21 L2203.99 126.21 L2203.99 129.52 L2198.43 129.52 L2198.43 165.168 L2203.99 165.168 L2203.99 168.479 L2194.17 168.479 L2194.17 126.21 Z" fill="#000000" fill-rule="nonzero" fill-opacity="1" /><path clip-path="url(#clip090)" d="M2214.47 158.293 L2222.11 158.293 L2222.11 131.928 L2213.8 133.595 L2213.8 129.335 L2222.06 127.669 L2226.74 127.669 L2226.74 158.293 L2234.38 158.293 L2234.38 162.229 L2214.47 162.229 L2214.47 158.293 Z" fill="#000000" fill-rule="nonzero" fill-opacity="1" /><path clip-path="url(#clip090)" d="M2253.17 126.21 L2253.17 168.479 L2243.36 168.479 L2243.36 165.168 L2248.89 165.168 L2248.89 129.52 L2243.36 129.52 L2243.36 126.21 L2253.17 126.21 Z" fill="#000000" fill-rule="nonzero" fill-opacity="1" /><polyline clip-path="url(#clip090)" style="stroke:#e26f46; stroke-linecap:round; stroke-linejoin:round; stroke-width:4; stroke-opacity:1; fill:none" points="1989.81,196.789 2139.18,196.789 "/>
<path clip-path="url(#clip090)" d="M2164.08 203.837 L2164.08 188.143 L2168.34 188.143 L2168.34 203.675 Q2168.34 207.356 2169.77 209.208 Q2171.21 211.036 2174.08 211.036 Q2177.53 211.036 2179.52 208.837 Q2181.53 206.638 2181.53 202.842 L2181.53 188.143 L2185.79 188.143 L2185.79 214.069 L2181.53 214.069 L2181.53 210.087 Q2179.98 212.448 2177.92 213.606 Q2175.88 214.74 2173.18 214.74 Q2168.71 214.74 2166.39 211.962 Q2164.08 209.184 2164.08 203.837 M2174.8 187.518 L2174.8 187.518 Z" fill="#000000" fill-rule="nonzero" fill-opacity="1" /><path clip-path="url(#clip090)" d="M2194.17 178.05 L2203.99 178.05 L2203.99 181.36 L2198.43 181.36 L2198.43 217.008 L2203.99 217.008 L2203.99 220.319 L2194.17 220.319 L2194.17 178.05 Z" fill="#000000" fill-rule="nonzero" fill-opacity="1" /><path clip-path="url(#clip090)" d="M2217.69 210.133 L2234.01 210.133 L2234.01 214.069 L2212.06 214.069 L2212.06 210.133 Q2214.73 207.379 2219.31 202.749 Q2223.92 198.096 2225.1 196.754 Q2227.34 194.231 2228.22 192.495 Q2229.12 190.735 2229.12 189.046 Q2229.12 186.291 2227.18 184.555 Q2225.26 182.819 2222.16 182.819 Q2219.96 182.819 2217.5 183.583 Q2215.07 184.347 2212.3 185.897 L2212.3 181.175 Q2215.12 180.041 2217.57 179.462 Q2220.03 178.884 2222.06 178.884 Q2227.43 178.884 2230.63 181.569 Q2233.82 184.254 2233.82 188.745 Q2233.82 190.874 2233.01 192.796 Q2232.23 194.694 2230.12 197.286 Q2229.54 197.958 2226.44 201.175 Q2223.34 204.37 2217.69 210.133 Z" fill="#000000" fill-rule="nonzero" fill-opacity="1" /><path clip-path="url(#clip090)" d="M2253.17 178.05 L2253.17 220.319 L2243.36 220.319 L2243.36 217.008 L2248.89 217.008 L2248.89 181.36 L2243.36 181.36 L2243.36 178.05 L2253.17 178.05 Z" fill="#000000" fill-rule="nonzero" fill-opacity="1" /></svg>
