<?xml version="1.0" encoding="utf-8"?>
<svg xmlns="http://www.w3.org/2000/svg" xmlns:xlink="http://www.w3.org/1999/xlink" width="600" height="400" viewBox="0 0 2400 1600">
<defs>
  <clipPath id="clip030">
    <rect x="0" y="0" width="2400" height="1600"/>
  </clipPath>
</defs>
<path clip-path="url(#clip030)" d="M0 1600 L2400 1600 L2400 0 L0 0  Z" fill="#ffffff" fill-rule="evenodd" fill-opacity="1"/>
<defs>
  <clipPath id="clip031">
    <rect x="480" y="0" width="1681" height="1600"/>
  </clipPath>
</defs>
<path clip-path="url(#clip030)" d="M112.177 1423.18 L2352.76 1423.18 L2352.76 47.2441 L112.177 47.2441  Z" fill="#ffffff" fill-rule="evenodd" fill-opacity="1"/>
<defs>
  <clipPath id="clip032">
    <rect x="112" y="47" width="2242" height="1377"/>
  </clipPath>
</defs>
<polyline clip-path="url(#clip032)" style="stroke:#000000; stroke-linecap:round; stroke-linejoin:round; stroke-width:2; stroke-opacity:0.1; fill:none" points="112.177,1423.18 112.177,47.2441 "/>
<polyline clip-path="url(#clip032)" style="stroke:#000000; stroke-linecap:round; stroke-linejoin:round; stroke-width:2; stroke-opacity:0.1; fill:none" points="560.293,1423.18 560.293,47.2441 "/>
<polyline clip-path="url(#clip032)" style="stroke:#000000; stroke-linecap:round; stroke-linejoin:round; stroke-width:2; stroke-opacity:0.1; fill:none" points="1008.41,1423.18 1008.41,47.2441 "/>
<polyline clip-path="url(#clip032)" style="stroke:#000000; stroke-linecap:round; stroke-linejoin:round; stroke-width:2; stroke-opacity:0.1; fill:none" points="1456.52,1423.18 1456.52,47.2441 "/>
<polyline clip-path="url(#clip032)" style="stroke:#000000; stroke-linecap:round; stroke-linejoin:round; stroke-width:2; stroke-opacity:0.1; fill:none" points="1904.64,1423.18 1904.64,47.2441 "/>
<polyline clip-path="url(#clip032)" style="stroke:#000000; stroke-linecap:round; stroke-linejoin:round; stroke-width:2; stroke-opacity:0.1; fill:none" points="2352.76,1423.18 2352.76,47.2441 "/>
<polyline clip-path="url(#clip032)" style="stroke:#000000; stroke-linecap:round; stroke-linejoin:round; stroke-width:2; stroke-opacity:0.1; fill:none" points="112.177,1414.54 2352.76,1414.54 "/>
<polyline clip-path="url(#clip032)" style="stroke:#000000; stroke-linecap:round; stroke-linejoin:round; stroke-width:2; stroke-opacity:0.1; fill:none" points="112.177,1062.45 2352.76,1062.45 "/>
<polyline clip-path="url(#clip032)" style="stroke:#000000; stroke-linecap:round; stroke-linejoin:round; stroke-width:2; stroke-opacity:0.1; fill:none" points="112.177,710.35 2352.76,710.35 "/>
<polyline clip-path="url(#clip032)" style="stroke:#000000; stroke-linecap:round; stroke-linejoin:round; stroke-width:2; stroke-opacity:0.1; fill:none" points="112.177,358.253 2352.76,358.253 "/>
<polyline clip-path="url(#clip030)" style="stroke:#000000; stroke-linecap:round; stroke-linejoin:round; stroke-width:4; stroke-opacity:1; fill:none" points="112.177,1423.18 2352.76,1423.18 "/>
<polyline clip-path="url(#clip030)" style="stroke:#000000; stroke-linecap:round; stroke-linejoin:round; stroke-width:4; stroke-opacity:1; fill:none" points="112.177,1423.18 112.177,1404.28 "/>
<polyline clip-path="url(#clip030)" style="stroke:#000000; stroke-linecap:round; stroke-linejoin:round; stroke-width:4; stroke-opacity:1; fill:none" points="560.293,1423.18 560.293,1404.28 "/>
<polyline clip-path="url(#clip030)" style="stroke:#000000; stroke-linecap:round; stroke-linejoin:round; stroke-width:4; stroke-opacity:1; fill:none" points="1008.41,1423.18 1008.41,1404.28 "/>
<polyline clip-path="url(#clip030)" style="stroke:#000000; stroke-linecap:round; stroke-linejoin:round; stroke-width:4; stroke-opacity:1; fill:none" points="1456.52,1423.18 1456.52,1404.28 "/>
<polyline clip-path="url(#clip030)" style="stroke:#000000; stroke-linecap:round; stroke-linejoin:round; stroke-width:4; stroke-opacity:1; fill:none" points="1904.64,1423.18 1904.64,1404.28 "/>
<polyline clip-path="url(#clip030)" style="stroke:#000000; stroke-linecap:round; stroke-linejoin:round; stroke-width:4; stroke-opacity:1; fill:none" points="2352.76,1423.18 2352.76,1404.28 "/>
<path clip-path="url(#clip030)" d="M112.177 1454.1 Q108.566 1454.1 106.737 1457.66 Q104.932 1461.2 104.932 1468.33 Q104.932 1475.44 106.737 1479.01 Q108.566 1482.55 112.177 1482.55 Q115.811 1482.55 117.617 1479.01 Q119.446 1475.44 119.446 1468.33 Q119.446 1461.2 117.617 1457.66 Q115.811 1454.1 112.177 1454.1 M112.177 1450.39 Q117.987 1450.39 121.043 1455 Q124.122 1459.58 124.122 1468.33 Q124.122 1477.06 121.043 1481.67 Q117.987 1486.25 112.177 1486.25 Q106.367 1486.25 103.288 1481.67 Q100.233 1477.06 100.233 1468.33 Q100.233 1459.58 103.288 1455 Q106.367 1450.39 112.177 1450.39 Z" fill="#000000" fill-rule="nonzero" fill-opacity="1" /><path clip-path="url(#clip030)" d="M550.675 1481.64 L558.314 1481.64 L558.314 1455.28 L550.004 1456.95 L550.004 1452.69 L558.267 1451.02 L562.943 1451.02 L562.943 1481.64 L570.582 1481.64 L570.582 1485.58 L550.675 1485.58 L550.675 1481.64 Z" fill="#000000" fill-rule="nonzero" fill-opacity="1" /><path clip-path="url(#clip030)" d="M1003.06 1481.64 L1019.38 1481.64 L1019.38 1485.58 L997.437 1485.58 L997.437 1481.64 Q1000.1 1478.89 1004.68 1474.26 Q1009.29 1469.61 1010.47 1468.27 Q1012.71 1465.74 1013.59 1464.01 Q1014.5 1462.25 1014.5 1460.56 Q1014.5 1457.8 1012.55 1456.07 Q1010.63 1454.33 1007.53 1454.33 Q1005.33 1454.33 1002.88 1455.09 Q1000.45 1455.86 997.668 1457.41 L997.668 1452.69 Q1000.49 1451.55 1002.95 1450.97 Q1005.4 1450.39 1007.44 1450.39 Q1012.81 1450.39 1016 1453.08 Q1019.2 1455.77 1019.2 1460.26 Q1019.2 1462.39 1018.39 1464.31 Q1017.6 1466.2 1015.49 1468.8 Q1014.91 1469.47 1011.81 1472.69 Q1008.71 1475.88 1003.06 1481.64 Z" fill="#000000" fill-rule="nonzero" fill-opacity="1" /><path clip-path="url(#clip030)" d="M1460.77 1466.95 Q1464.13 1467.66 1466 1469.93 Q1467.9 1472.2 1467.9 1475.53 Q1467.9 1480.65 1464.38 1483.45 Q1460.86 1486.25 1454.38 1486.25 Q1452.21 1486.25 1449.89 1485.81 Q1447.6 1485.39 1445.15 1484.54 L1445.15 1480.02 Q1447.09 1481.16 1449.41 1481.74 Q1451.72 1482.32 1454.24 1482.32 Q1458.64 1482.32 1460.93 1480.58 Q1463.25 1478.84 1463.25 1475.53 Q1463.25 1472.48 1461.1 1470.77 Q1458.97 1469.03 1455.15 1469.03 L1451.12 1469.03 L1451.12 1465.19 L1455.33 1465.19 Q1458.78 1465.19 1460.61 1463.82 Q1462.44 1462.43 1462.44 1459.84 Q1462.44 1457.18 1460.54 1455.77 Q1458.67 1454.33 1455.15 1454.33 Q1453.23 1454.33 1451.03 1454.75 Q1448.83 1455.16 1446.19 1456.04 L1446.19 1451.88 Q1448.85 1451.14 1451.17 1450.77 Q1453.5 1450.39 1455.56 1450.39 Q1460.89 1450.39 1463.99 1452.83 Q1467.09 1455.23 1467.09 1459.35 Q1467.09 1462.22 1465.45 1464.21 Q1463.8 1466.18 1460.77 1466.95 Z" fill="#000000" fill-rule="nonzero" fill-opacity="1" /><path clip-path="url(#clip030)" d="M1907.65 1455.09 L1895.84 1473.54 L1907.65 1473.54 L1907.65 1455.09 M1906.42 1451.02 L1912.3 1451.02 L1912.3 1473.54 L1917.23 1473.54 L1917.23 1477.43 L1912.3 1477.43 L1912.3 1485.58 L1907.65 1485.58 L1907.65 1477.43 L1892.05 1477.43 L1892.05 1472.92 L1906.42 1451.02 Z" fill="#000000" fill-rule="nonzero" fill-opacity="1" /><path clip-path="url(#clip030)" d="M2343.03 1451.02 L2361.39 1451.02 L2361.39 1454.96 L2347.32 1454.96 L2347.32 1463.43 Q2348.33 1463.08 2349.35 1462.92 Q2350.37 1462.73 2351.39 1462.73 Q2357.18 1462.73 2360.56 1465.9 Q2363.94 1469.08 2363.94 1474.49 Q2363.94 1480.07 2360.46 1483.17 Q2356.99 1486.25 2350.67 1486.25 Q2348.5 1486.25 2346.23 1485.88 Q2343.98 1485.51 2341.58 1484.77 L2341.58 1480.07 Q2343.66 1481.2 2345.88 1481.76 Q2348.1 1482.32 2350.58 1482.32 Q2354.58 1482.32 2356.92 1480.21 Q2359.26 1478.1 2359.26 1474.49 Q2359.26 1470.88 2356.92 1468.77 Q2354.58 1466.67 2350.58 1466.67 Q2348.71 1466.67 2346.83 1467.08 Q2344.98 1467.5 2343.03 1468.38 L2343.03 1451.02 Z" fill="#000000" fill-rule="nonzero" fill-opacity="1" /><path clip-path="url(#clip030)" d="M1231.53 1522.27 L1231.53 1532.4 L1243.59 1532.4 L1243.59 1536.95 L1231.53 1536.95 L1231.53 1556.3 Q1231.53 1560.66 1232.71 1561.9 Q1233.91 1563.14 1237.58 1563.14 L1243.59 1563.14 L1243.59 1568.04 L1237.58 1568.04 Q1230.8 1568.04 1228.22 1565.53 Q1225.64 1562.98 1225.64 1556.3 L1225.64 1536.95 L1221.34 1536.95 L1221.34 1532.4 L1225.64 1532.4 L1225.64 1522.27 L1231.53 1522.27 Z" fill="#000000" fill-rule="nonzero" fill-opacity="1" /><polyline clip-path="url(#clip030)" style="stroke:#000000; stroke-linecap:round; stroke-linejoin:round; stroke-width:4; stroke-opacity:1; fill:none" points="112.177,1423.18 112.177,47.2441 "/>
<polyline clip-path="url(#clip030)" style="stroke:#000000; stroke-linecap:round; stroke-linejoin:round; stroke-width:4; stroke-opacity:1; fill:none" points="112.177,1414.54 131.075,1414.54 "/>
<polyline clip-path="url(#clip030)" style="stroke:#000000; stroke-linecap:round; stroke-linejoin:round; stroke-width:4; stroke-opacity:1; fill:none" points="112.177,1062.45 131.075,1062.45 "/>
<polyline clip-path="url(#clip030)" style="stroke:#000000; stroke-linecap:round; stroke-linejoin:round; stroke-width:4; stroke-opacity:1; fill:none" points="112.177,710.35 131.075,710.35 "/>
<polyline clip-path="url(#clip030)" style="stroke:#000000; stroke-linecap:round; stroke-linejoin:round; stroke-width:4; stroke-opacity:1; fill:none" points="112.177,358.253 131.075,358.253 "/>
<path clip-path="url(#clip030)" d="M64.2328 1400.34 Q60.6217 1400.34 58.793 1403.91 Q56.9875 1407.45 56.9875 1414.58 Q56.9875 1421.68 58.793 1425.25 Q60.6217 1428.79 64.2328 1428.79 Q67.867 1428.79 69.6726 1425.25 Q71.5013 1421.68 71.5013 1414.58 Q71.5013 1407.45 69.6726 1403.91 Q67.867 1400.34 64.2328 1400.34 M64.2328 1396.64 Q70.0429 1396.64 73.0985 1401.24 Q76.1772 1405.83 76.1772 1414.58 Q76.1772 1423.3 73.0985 1427.91 Q70.0429 1432.49 64.2328 1432.49 Q58.4226 1432.49 55.344 1427.91 Q52.2884 1423.3 52.2884 1414.58 Q52.2884 1405.83 55.344 1401.24 Q58.4226 1396.64 64.2328 1396.64 Z" fill="#000000" fill-rule="nonzero" fill-opacity="1" /><path clip-path="url(#clip030)" d="M59.8578 1075.79 L76.1772 1075.79 L76.1772 1079.73 L54.2328 1079.73 L54.2328 1075.79 Q56.8949 1073.04 61.4782 1068.41 Q66.0846 1063.75 67.2652 1062.41 Q69.5105 1059.89 70.3902 1058.15 Q71.2929 1056.39 71.2929 1054.7 Q71.2929 1051.95 69.3485 1050.21 Q67.4272 1048.48 64.3254 1048.48 Q62.1263 1048.48 59.6726 1049.24 Q57.2421 1050 54.4643 1051.56 L54.4643 1046.83 Q57.2884 1045.7 59.7421 1045.12 Q62.1958 1044.54 64.2328 1044.54 Q69.6031 1044.54 72.7976 1047.23 Q75.992 1049.91 75.992 1054.4 Q75.992 1056.53 75.1818 1058.45 Q74.3948 1060.35 72.2883 1062.94 Q71.7096 1063.62 68.6078 1066.83 Q65.5059 1070.03 59.8578 1075.79 Z" fill="#000000" fill-rule="nonzero" fill-opacity="1" /><path clip-path="url(#clip030)" d="M66.5939 697.144 L54.7884 715.593 L66.5939 715.593 L66.5939 697.144 M65.367 693.07 L71.2466 693.07 L71.2466 715.593 L76.1772 715.593 L76.1772 719.482 L71.2466 719.482 L71.2466 727.63 L66.5939 727.63 L66.5939 719.482 L50.9921 719.482 L50.9921 714.968 L65.367 693.07 Z" fill="#000000" fill-rule="nonzero" fill-opacity="1" /><path clip-path="url(#clip030)" d="M64.6495 356.39 Q61.5013 356.39 59.6495 358.542 Q57.8208 360.695 57.8208 364.445 Q57.8208 368.172 59.6495 370.348 Q61.5013 372.501 64.6495 372.501 Q67.7976 372.501 69.6263 370.348 Q71.4781 368.172 71.4781 364.445 Q71.4781 360.695 69.6263 358.542 Q67.7976 356.39 64.6495 356.39 M73.9318 341.737 L73.9318 345.996 Q72.1726 345.163 70.367 344.723 Q68.5846 344.283 66.8254 344.283 Q62.1958 344.283 59.7421 347.408 Q57.3115 350.533 56.9643 356.853 Q58.33 354.839 60.3902 353.774 Q62.4504 352.686 64.9272 352.686 Q70.1355 352.686 73.1448 355.857 Q76.1772 359.005 76.1772 364.445 Q76.1772 369.769 73.029 372.987 Q69.8809 376.204 64.6495 376.204 Q58.6541 376.204 55.4828 371.621 Q52.3116 367.015 52.3116 358.288 Q52.3116 350.093 56.2004 345.232 Q60.0893 340.348 66.6402 340.348 Q68.3994 340.348 70.1818 340.695 Q71.9874 341.042 73.9318 341.737 Z" fill="#000000" fill-rule="nonzero" fill-opacity="1" /><polyline clip-path="url(#clip032)" style="stroke:#009af9; stroke-linecap:round; stroke-linejoin:round; stroke-width:4; stroke-opacity:1; fill:none" points="112.177,1238.49 116.658,1238.49 121.139,1238.18 125.621,1238.23 130.102,1238.9 134.583,1239.29 139.064,1240.69 143.545,1242.46 148.026,1244.3 152.508,1246.18 156.989,1247.54 161.47,1249.18 165.951,1251.2 170.432,1253.86 174.913,1256.52 179.395,1259.08 183.876,1261.64 188.357,1264.25 192.838,1266.87 197.319,1269.73 201.8,1272.62 206.281,1275.41 210.763,1278.18 215.244,1280.88 219.725,1283.55 224.206,1286.17 228.687,1288.73 233.168,1291.25 237.65,1293.71 242.131,1296.13 246.612,1298.44 251.093,1300.74 255.574,1303 260.055,1305.23 264.537,1307.42 269.018,1309.52 273.499,1311.61 277.98,1313.65 282.461,1315.66 286.942,1317.64 291.423,1319.57 295.905,1321.47 300.386,1323.24 304.867,1324.88 309.348,1326.59 313.829,1328.14 318.31,1329.58 322.792,1330.85 327.273,1331.96 331.754,1332.75 336.235,1333.58 340.716,1334.29 345.197,1335.01 349.679,1335.72 354.16,1336.18 358.641,1336.66 363.122,1337.03 367.603,1337.44 372.084,1337.9 376.565,1338.4 381.047,1339.13 385.528,1339.86 390.009,1340.51 394.49,1341.45 398.971,1342.45 403.452,1343.38 407.934,1344.35 412.415,1345.33 416.896,1346.26 421.377,1347 425.858,1347.67 430.339,1348.34 434.821,1349 439.302,1349.8 443.783,1350.66 448.264,1351.34 452.745,1352.07 457.226,1352.78 461.707,1353.41 466.189,1354.04 470.67,1354.39 475.151,1354.97 479.632,1355.34 484.113,1355.79 488.594,1356.18 493.076,1356.4 497.557,1356.38 502.038,1356.16 506.519,1356.13 511,1356.23 515.481,1356.13 519.963,1356.04 524.444,1355.85 528.925,1355.4 533.406,1354.68 537.887,1353.96 542.368,1353.04 546.849,1351.99 551.331,1350.95 555.812,1349.97 560.293,1348.85 564.774,1347.67 569.255,1346.41 573.736,1345.1 578.218,1343.91 582.699,1342.92 587.18,1342.11 591.661,1341.61 596.142,1341.16 600.623,1340.84 605.104,1340.42 609.586,1339.73 614.067,1339.27 618.548,1338.6 623.029,1338.07 627.51,1337.61 631.991,1337.33 636.473,1336.73 640.954,1336.23 645.435,1335.98 649.916,1335.74 654.397,1335.27 658.878,1334.59 663.36,1334.1 667.841,1333.52 672.322,1332.58 676.803,1332.18 681.284,1332.05 685.765,1332.04 690.246,1332.09 694.728,1332.04 699.209,1331.78 703.69,1331.22 708.171,1330.68 712.652,1330.62 717.133,1330.73 721.615,1330.99 726.096,1331.05 730.577,1331.14 735.058,1331.5 739.539,1331.62 744.02,1331.74 748.502,1331.95 752.983,1332.3 757.464,1332.39 761.945,1332.53 766.426,1332.54 770.907,1332.38 775.388,1332.12 779.87,1331.88 784.351,1331.7 788.832,1331.74 793.313,1331.89 797.794,1331.7 802.275,1331.48 806.757,1331.18 811.238,1330.97 815.719,1330.68 820.2,1330.7 824.681,1330.84 829.162,1330.94 833.644,1330.92 838.125,1331.01 842.606,1331.12 847.087,1330.92 851.568,1330.55 856.049,1330.44 860.53,1329.99 865.012,1329.89 869.493,1329.39 873.974,1328.77 878.455,1327.94 882.936,1327.01 887.417,1326.29 891.899,1325.61 896.38,1324.89 900.861,1324.39 905.342,1323.78 909.823,1323 914.304,1322.56 918.786,1322.09 923.267,1322.21 927.748,1322.47 932.229,1322.65 936.71,1322.58 941.191,1322.34 945.672,1322.42 950.154,1322.57 954.635,1323.23 959.116,1324.12 963.597,1325.24 968.078,1326.29 972.559,1326.89 977.041,1327.76 981.522,1328.72 986.003,1329.56 990.484,1330.47 994.965,1331.08 999.446,1331.58 1003.93,1331.9 1008.41,1332.22 1012.89,1332.3 1017.37,1332.27 1021.85,1332.21 1026.33,1331.91 1030.81,1331.38 1035.3,1330.51 1039.78,1329.49 1044.26,1328.27 1048.74,1327.05 1053.22,1326.07 1057.7,1325.22 1062.18,1324.46 1066.66,1323.8 1071.14,1323.03 1075.63,1322.3 1080.11,1321.73 1084.59,1321 1089.07,1320.03 1093.55,1319.06 1098.03,1317.74 1102.51,1316.24 1106.99,1314.72 1111.48,1313.38 1115.96,1311.76 1120.44,1310.08 1124.92,1308.22 1129.4,1306.24 1133.88,1304.23 1138.36,1302.25 1142.84,1300.3 1147.32,1298.2 1151.81,1296.13 1156.29,1293.94 1160.77,1291.59 1165.25,1289.39 1169.73,1287.04 1174.21,1284.63 1178.69,1282.33 1183.17,1279.91 1187.65,1277.43 1192.14,1274.87 1196.62,1272.44 1201.1,1270.29 1205.58,1268.53 1210.06,1266.89 1214.54,1265.09 1219.02,1263.88 1223.5,1263.38 1227.99,1262.68 1232.47,1261.85 1236.95,1260.92 1241.43,1259.5 1245.91,1258.46 1250.39,1257.16 1254.87,1256.11 1259.35,1255.11 1263.83,1254.08 1268.32,1253.31 1272.8,1253.32 1277.28,1253.1 1281.76,1252.6 1286.24,1252.52 1290.72,1252.83 1295.2,1253.34 1299.68,1253.27 1304.17,1253.47 1308.65,1253.76 1313.13,1253.5 1317.61,1252.66 1322.09,1251.43 1326.57,1251.21 1331.05,1251.36 1335.53,1252.02 1340.01,1253.02 1344.5,1253.57 1348.98,1254.26 1353.46,1254.83 1357.94,1255.09 1362.42,1256.35 1366.9,1257.58 1371.38,1258.63 1375.86,1259.81 1380.34,1260.5 1384.83,1261.61 1389.31,1262.1 1393.79,1262.43 1398.27,1263.02 1402.75,1264.05 1407.23,1264.52 1411.71,1264.83 1416.19,1264.66 1420.68,1264.74 1425.16,1264.3 1429.64,1263.83 1434.12,1263.25 1438.6,1262.59 1443.08,1261.58 1447.56,1260.32 1452.04,1259.06 1456.52,1257.85 1461.01,1256.18 1465.49,1254.72 1469.97,1252.92 1474.45,1250.86 1478.93,1249.22 1483.41,1247.38 1487.89,1246.42 1492.37,1244.35 1496.85,1242.13 1501.34,1239.88 1505.82,1237.53 1510.3,1235.52 1514.78,1234.07 1519.26,1232.37 1523.74,1230.57 1528.22,1228.26 1532.7,1225.66 1537.19,1223.32 1541.67,1220.52 1546.15,1217.97 1550.63,1216.24 1555.11,1215.74 1559.59,1215.6 1564.07,1214.68 1568.55,1213.41 1573.03,1212.62 1577.52,1212.5 1582,1213.53 1586.48,1215.03 1590.96,1216.25 1595.44,1215.9 1599.92,1215.79 1604.4,1215.84 1608.88,1215.32 1613.36,1214.21 1617.85,1212.94 1622.33,1212.43 1626.81,1212.94 1631.29,1214.03 1635.77,1214.25 1640.25,1213.84 1644.73,1213.56 1649.21,1212.93 1653.7,1211.7 1658.18,1210.76 1662.66,1209.76 1667.14,1209.21 1671.62,1208.39 1676.1,1207.35 1680.58,1207.65 1685.06,1206.68 1689.54,1205.22 1694.03,1203.21 1698.51,1201.33 1702.99,1199.05 1707.47,1196.41 1711.95,1194.3 1716.43,1191.42 1720.91,1188.75 1725.39,1186.11 1729.88,1183.7 1734.36,1181.87 1738.84,1180.86 1743.32,1181.15 1747.8,1180.85 1752.28,1178.79 1756.76,1176.26 1761.24,1173.53 1765.72,1171.48 1770.21,1169.32 1774.69,1167.31 1779.17,1165.17 1783.65,1163.34 1788.13,1160.32 1792.61,1156.86 1797.09,1153.22 1801.57,1150.36 1806.05,1147.51 1810.54,1144.2 1815.02,1140.42 1819.5,1136.23 1823.98,1132.26 1828.46,1128.29 1832.94,1124.7 1837.42,1121.53 1841.9,1118.55 1846.39,1115.18 1850.87,1111.47 1855.35,1109.39 1859.83,1106.95 1864.31,1104.48 1868.79,1102.95 1873.27,1101.07 1877.75,1100.92 1882.23,1100.63 1886.72,1101.27 1891.2,1102.56 1895.68,1102.9 1900.16,1102.89 1904.64,1102.48 1909.12,1102.94 1913.6,1104.14 1918.08,1105.35 1922.56,1105.49 1927.05,1104.33 1931.53,1102.75 1936.01,1099.99 1940.49,1097.81 1944.97,1094.67 1949.45,1090.65 1953.93,1086.3 1958.41,1082.45 1962.9,1079.01 1967.38,1075.14 1971.86,1071.1 1976.34,1066.4 1980.82,1061.72 1985.3,1056.77 1989.78,1050.98 1994.26,1044.97 1998.74,1039 2003.23,1034.17 2007.71,1029.07 2012.19,1024.72 2016.67,1020.22 2021.15,1017.22 2025.63,1013.11 2030.11,1009.06 2034.59,1004.37 2039.07,999.84 2043.56,995.227 2048.04,989.837 2052.52,985.099 2057,979.48 2061.48,973.42 2065.96,968.415 2070.44,962.965 2074.92,957.395 2079.41,952.071 2083.89,947.132 2088.37,942.55 2092.85,936.824 2097.33,929.431 2101.81,921.223 2106.29,912.307 2110.77,903.229 2115.25,894.194 2119.74,884.23 2124.22,873.819 2128.7,863.029 2133.18,852.053 2137.66,840.986 2142.14,829.717 2146.62,818.57 2151.1,807.673 2155.58,796.599 2160.07,785.432 2164.55,773.768 2169.03,761.553 2173.51,748.604 2177.99,735.874 2182.47,722.569 2186.95,709.475 2191.43,695.759 2195.92,681.397 2200.4,666.742 2204.88,651.793 2209.36,636.619 2213.84,621.118 2218.32,605.543 2222.8,589.971 2227.28,575.459 2231.76,560.418 2236.25,544.479 2240.73,527.42 2245.21,511.423 2249.69,494.986 2254.17,478.686 2258.65,461.704 2263.13,445.322 2267.61,429.335 2272.1,414.909 2276.58,398.875 2281.06,386.22 2285.54,370.413 2290.02,354.02 2294.5,338.59 2298.98,322.254 2303.46,305.142 2307.94,290.098 2312.43,273.214 2316.91,254.399 2321.39,235.097 2325.87,214.106 2330.35,193.549 2334.83,171.873 2339.31,150.288 2343.79,129.724 2348.27,107.305 2352.76,86.1857 "/>
<polyline clip-path="url(#clip032)" style="stroke:#e26f46; stroke-linecap:round; stroke-linejoin:round; stroke-width:4; stroke-opacity:1; fill:none" points="112.177,1238.49 116.658,1242.02 121.139,1245.45 125.621,1248.83 130.102,1252.14 134.583,1255.38 139.064,1258.22 143.545,1260.97 148.026,1263.89 152.508,1266.57 156.989,1269.22 161.47,1271.28 165.951,1273.75 170.432,1275.88 174.913,1277.34 179.395,1278.73 183.876,1279.8 188.357,1280.34 192.838,1280.88 197.319,1281.83 201.8,1283.05 206.281,1283.93 210.763,1284.44 215.244,1285.41 219.725,1286.44 224.206,1287.6 228.687,1288.63 233.168,1289.62 237.65,1290.51 242.131,1291.29 246.612,1292.5 251.093,1293.85 255.574,1295.36 260.055,1296.41 264.537,1296.95 269.018,1296.92 273.499,1297.07 277.98,1297.7 282.461,1298.68 286.942,1299.3 291.423,1299.84 295.905,1300.72 300.386,1301.77 304.867,1303.15 309.348,1304.55 313.829,1306.11 318.31,1307.86 322.792,1309.42 327.273,1310.82 331.754,1312.43 336.235,1313.89 340.716,1315.43 345.197,1317 349.679,1318.48 354.16,1319.75 358.641,1320.81 363.122,1322.05 367.603,1323.16 372.084,1324.28 376.565,1324.91 381.047,1325.96 385.528,1327.09 390.009,1328.36 394.49,1329.47 398.971,1330.59 403.452,1331.65 407.934,1332.85 412.415,1333.9 416.896,1335 421.377,1336.23 425.858,1337.3 430.339,1338.4 434.821,1339.36 439.302,1340.11 443.783,1340.68 448.264,1341.3 452.745,1341.85 457.226,1342.39 461.707,1342.85 466.189,1343.39 470.67,1344.15 475.151,1344.81 479.632,1345.63 484.113,1346.46 488.594,1347.5 493.076,1348.4 497.557,1349.16 502.038,1350.01 506.519,1351.01 511,1351.92 515.481,1352.71 519.963,1353.21 524.444,1353.9 528.925,1354.72 533.406,1355.52 537.887,1356.34 542.368,1357.31 546.849,1358.3 551.331,1359.24 555.812,1360.18 560.293,1361.19 564.774,1362.21 569.255,1363.21 573.736,1364.2 578.218,1365.1 582.699,1365.99 587.18,1366.83 591.661,1367.52 596.142,1368.38 600.623,1369.1 605.104,1369.62 609.586,1370.24 614.067,1370.84 618.548,1371.46 623.029,1372.17 627.51,1372.72 631.991,1373.26 636.473,1373.85 640.954,1374.54 645.435,1375.19 649.916,1375.85 654.397,1376.57 658.878,1377.24 663.36,1377.88 667.841,1378.58 672.322,1379.22 676.803,1379.76 681.284,1380.35 685.765,1380.95 690.246,1381.51 694.728,1382.07 699.209,1382.55 703.69,1382.96 708.171,1383.25 712.652,1383.46 717.133,1383.67 721.615,1383.85 726.096,1384.01 730.577,1384.14 735.058,1384.24 739.539,1384.16 744.02,1384.16 748.502,1384.11 752.983,1384.02 757.464,1383.84 761.945,1383.73 766.426,1383.59 770.907,1383.48 775.388,1383.28 779.87,1383.03 784.351,1382.68 788.832,1382.27 793.313,1381.8 797.794,1381.36 802.275,1380.88 806.757,1380.5 811.238,1380.19 815.719,1379.88 820.2,1379.5 824.681,1379.18 829.162,1378.78 833.644,1378.3 838.125,1377.93 842.606,1377.59 847.087,1377.27 851.568,1376.85 856.049,1376.39 860.53,1375.93 865.012,1375.48 869.493,1375.07 873.974,1374.8 878.455,1374.44 882.936,1374.05 887.417,1373.63 891.899,1373.05 896.38,1372.58 900.861,1372.07 905.342,1371.44 909.823,1370.74 914.304,1370.17 918.786,1369.54 923.267,1368.97 927.748,1368.45 932.229,1367.8 936.71,1367.11 941.191,1366.32 945.672,1365.51 950.154,1364.91 954.635,1364.21 959.116,1363.37 963.597,1362.59 968.078,1361.9 972.559,1361.33 977.041,1360.68 981.522,1359.93 986.003,1359.19 990.484,1358.41 994.965,1357.67 999.446,1357.06 1003.93,1356.52 1008.41,1355.96 1012.89,1355.49 1017.37,1355.09 1021.85,1354.72 1026.33,1354.04 1030.81,1353.49 1035.3,1352.73 1039.78,1352 1044.26,1351.17 1048.74,1350.35 1053.22,1349.43 1057.7,1348.39 1062.18,1347.34 1066.66,1346.23 1071.14,1345.01 1075.63,1343.7 1080.11,1342.32 1084.59,1340.98 1089.07,1339.72 1093.55,1338.44 1098.03,1337.26 1102.51,1336.07 1106.99,1334.73 1111.48,1333.25 1115.96,1331.85 1120.44,1330.37 1124.92,1328.85 1129.4,1327.34 1133.88,1325.66 1138.36,1323.92 1142.84,1322.11 1147.32,1320.28 1151.81,1318.56 1156.29,1317.02 1160.77,1315.38 1165.25,1313.6 1169.73,1311.78 1174.21,1309.88 1178.69,1308.03 1183.17,1306.19 1187.65,1304.16 1192.14,1302.18 1196.62,1300.12 1201.1,1298.04 1205.58,1296.21 1210.06,1294.32 1214.54,1292.65 1219.02,1291.14 1223.5,1289.99 1227.99,1288.25 1232.47,1286.47 1236.95,1284.96 1241.43,1283.44 1245.91,1281.59 1250.39,1279.35 1254.87,1277.2 1259.35,1274.96 1263.83,1272.67 1268.32,1270.01 1272.8,1267.27 1277.28,1264.38 1281.76,1261.39 1286.24,1258.37 1290.72,1255.36 1295.2,1252.43 1299.68,1249.46 1304.17,1246.31 1308.65,1243.39 1313.13,1240.48 1317.61,1238.36 1322.09,1236.18 1326.57,1233.84 1331.05,1230.86 1335.53,1227.32 1340.01,1223.75 1344.5,1220.24 1348.98,1216.54 1353.46,1212.98 1357.94,1209.36 1362.42,1205.77 1366.9,1202.14 1371.38,1198.04 1375.86,1194.14 1380.34,1190.15 1384.83,1186.38 1389.31,1182.02 1393.79,1177.38 1398.27,1172.64 1402.75,1167.81 1407.23,1162.88 1411.71,1157.84 1416.19,1152.71 1420.68,1147.56 1425.16,1142.22 1429.64,1136.78 1434.12,1131.24 1438.6,1125.59 1443.08,1120.51 1447.56,1115.57 1452.04,1111.4 1456.52,1107.27 1461.01,1103.51 1465.49,1099.37 1469.97,1095.44 1474.45,1091.42 1478.93,1087.65 1483.41,1083.65 1487.89,1080.3 1492.37,1077.46 1496.85,1076.03 1501.34,1074.52 1505.82,1072.49 1510.3,1072.37 1514.78,1072.06 1519.26,1072.92 1523.74,1074.64 1528.22,1076.64 1532.7,1077.55 1537.19,1078.72 1541.67,1080.39 1546.15,1083.14 1550.63,1087.17 1555.11,1091.38 1559.59,1097.46 1564.07,1103.59 1568.55,1109.48 1573.03,1115 1577.52,1119.52 1582,1124.12 1586.48,1128.58 1590.96,1132.43 1595.44,1136.72 1599.92,1140.88 1604.4,1144.27 1608.88,1147.86 1613.36,1151.7 1617.85,1155.95 1622.33,1160.42 1626.81,1164.54 1631.29,1168.38 1635.77,1172.96 1640.25,1177.56 1644.73,1182.14 1649.21,1186.71 1653.7,1191.26 1658.18,1195.73 1662.66,1200.08 1667.14,1204.37 1671.62,1208.32 1676.1,1212.15 1680.58,1215.76 1685.06,1218.91 1689.54,1222.64 1694.03,1226.13 1698.51,1229.34 1702.99,1231.88 1707.47,1234.48 1711.95,1236.68 1716.43,1239.02 1720.91,1240.94 1725.39,1242.21 1729.88,1243.94 1734.36,1246.36 1738.84,1248.79 1743.32,1251.55 1747.8,1254.37 1752.28,1256.65 1756.76,1259.06 1761.24,1261.55 1765.72,1264.01 1770.21,1266.65 1774.69,1269.32 1779.17,1271.58 1783.65,1273.84 1788.13,1276.21 1792.61,1278.63 1797.09,1280.71 1801.57,1282.83 1806.05,1284.66 1810.54,1285.92 1815.02,1286.67 1819.5,1287.05 1823.98,1287.22 1828.46,1286.85 1832.94,1286.38 1837.42,1285.87 1841.9,1285.3 1846.39,1284.49 1850.87,1282.74 1855.35,1281.19 1859.83,1279.44 1864.31,1277.54 1868.79,1275.58 1873.27,1273.3 1877.75,1270.7 1882.23,1267.98 1886.72,1265.6 1891.2,1263.6 1895.68,1261.82 1900.16,1259.68 1904.64,1258.17 1909.12,1256.37 1913.6,1254.35 1918.08,1252.3 1922.56,1250.38 1927.05,1248.44 1931.53,1246.91 1936.01,1245.69 1940.49,1244.14 1944.97,1242.01 1949.45,1239.69 1953.93,1237.34 1958.41,1235.14 1962.9,1233.12 1967.38,1230.98 1971.86,1229.03 1976.34,1226.79 1980.82,1224.5 1985.3,1221.95 1989.78,1219.97 1994.26,1218.86 1998.74,1217.56 2003.23,1215.69 2007.71,1214.12 2012.19,1212.83 2016.67,1211.25 2021.15,1210.69 2025.63,1210.44 2030.11,1210.54 2034.59,1211.21 2039.07,1212.47 2043.56,1213.77 2048.04,1214.48 2052.52,1215.04 2057,1214.84 2061.48,1214.41 2065.96,1214.01 2070.44,1214 2074.92,1213.35 2079.41,1212.46 2083.89,1212.11 2088.37,1211.86 2092.85,1211.58 2097.33,1210.56 2101.81,1210.51 2106.29,1210.67 2110.77,1210.52 2115.25,1210.82 2119.74,1210.57 2124.22,1210.49 2128.7,1210.38 2133.18,1211.09 2137.66,1211.5 2142.14,1211.49 2146.62,1210.78 2151.1,1210.55 2155.58,1210.23 2160.07,1210.61 2164.55,1211.38 2169.03,1212.17 2173.51,1212.06 2177.99,1212.22 2182.47,1211.45 2186.95,1211.12 2191.43,1211.54 2195.92,1211.01 2200.4,1210.41 2204.88,1209.86 2209.36,1209.59 2213.84,1208.28 2218.32,1207.67 2222.8,1207.38 2227.28,1207.37 2231.76,1208.22 2236.25,1209.3 2240.73,1210.9 2245.21,1212.89 2249.69,1215.16 2254.17,1216.86 2258.65,1217.67 2263.13,1219.05 2267.61,1220.01 2272.1,1220.8 2276.58,1222.26 2281.06,1223.89 2285.54,1225.74 2290.02,1227.65 2294.5,1229.05 2298.98,1229.86 2303.46,1230.91 2307.94,1231.04 2312.43,1231.08 2316.91,1230.43 2321.39,1230.38 2325.87,1229.7 2330.35,1229.38 2334.83,1229.04 2339.31,1228.89 2343.79,1228.48 2348.27,1228.17 2352.76,1228 "/>
<path clip-path="url(#clip030)" d="M186.863 248.629 L500.018 248.629 L500.018 93.1086 L186.863 93.1086  Z" fill="#ffffff" fill-rule="evenodd" fill-opacity="1"/>
<polyline clip-path="url(#clip030)" style="stroke:#000000; stroke-linecap:round; stroke-linejoin:round; stroke-width:4; stroke-opacity:1; fill:none" points="186.863,248.629 500.018,248.629 500.018,93.1086 186.863,93.1086 186.863,248.629 "/>
<polyline clip-path="url(#clip030)" style="stroke:#009af9; stroke-linecap:round; stroke-linejoin:round; stroke-width:4; stroke-opacity:1; fill:none" points="211.758,144.949 361.13,144.949 "/>
<path clip-path="url(#clip030)" d="M386.026 151.997 L386.026 136.303 L390.285 136.303 L390.285 151.835 Q390.285 155.516 391.72 157.368 Q393.155 159.196 396.026 159.196 Q399.475 159.196 401.465 156.997 Q403.479 154.798 403.479 151.002 L403.479 136.303 L407.739 136.303 L407.739 162.229 L403.479 162.229 L403.479 158.247 Q401.928 160.608 399.868 161.766 Q397.831 162.9 395.123 162.9 Q390.655 162.9 388.34 160.122 Q386.026 157.344 386.026 151.997 M396.743 135.678 L396.743 135.678 Z" fill="#000000" fill-rule="nonzero" fill-opacity="1" /><path clip-path="url(#clip030)" d="M416.118 126.21 L425.933 126.21 L425.933 129.52 L420.377 129.52 L420.377 165.168 L425.933 165.168 L425.933 168.479 L416.118 168.479 L416.118 126.21 Z" fill="#000000" fill-rule="nonzero" fill-opacity="1" /><path clip-path="url(#clip030)" d="M436.419 158.293 L444.058 158.293 L444.058 131.928 L435.748 133.595 L435.748 129.335 L444.011 127.669 L448.687 127.669 L448.687 158.293 L456.326 158.293 L456.326 162.229 L436.419 162.229 L436.419 158.293 Z" fill="#000000" fill-rule="nonzero" fill-opacity="1" /><path clip-path="url(#clip030)" d="M475.122 126.21 L475.122 168.479 L465.308 168.479 L465.308 165.168 L470.84 165.168 L470.84 129.52 L465.308 129.52 L465.308 126.21 L475.122 126.21 Z" fill="#000000" fill-rule="nonzero" fill-opacity="1" /><polyline clip-path="url(#clip030)" style="stroke:#e26f46; stroke-linecap:round; stroke-linejoin:round; stroke-width:4; stroke-opacity:1; fill:none" points="211.758,196.789 361.13,196.789 "/>
<path clip-path="url(#clip030)" d="M386.026 203.837 L386.026 188.143 L390.285 188.143 L390.285 203.675 Q390.285 207.356 391.72 209.208 Q393.155 211.036 396.026 211.036 Q399.475 211.036 401.465 208.837 Q403.479 206.638 403.479 202.842 L403.479 188.143 L407.739 188.143 L407.739 214.069 L403.479 214.069 L403.479 210.087 Q401.928 212.448 399.868 213.606 Q397.831 214.74 395.123 214.74 Q390.655 214.74 388.34 211.962 Q386.026 209.184 386.026 203.837 M396.743 187.518 L396.743 187.518 Z" fill="#000000" fill-rule="nonzero" fill-opacity="1" /><path clip-path="url(#clip030)" d="M416.118 178.05 L425.933 178.05 L425.933 181.36 L420.377 181.36 L420.377 217.008 L425.933 217.008 L425.933 220.319 L416.118 220.319 L416.118 178.05 Z" fill="#000000" fill-rule="nonzero" fill-opacity="1" /><path clip-path="url(#clip030)" d="M439.637 210.133 L455.956 210.133 L455.956 214.069 L434.012 214.069 L434.012 210.133 Q436.674 207.379 441.257 202.749 Q445.863 198.096 447.044 196.754 Q449.289 194.231 450.169 192.495 Q451.072 190.735 451.072 189.046 Q451.072 186.291 449.127 184.555 Q447.206 182.819 444.104 182.819 Q441.905 182.819 439.451 183.583 Q437.021 184.347 434.243 185.897 L434.243 181.175 Q437.067 180.041 439.521 179.462 Q441.974 178.884 444.011 178.884 Q449.382 178.884 452.576 181.569 Q455.771 184.254 455.771 188.745 Q455.771 190.874 454.961 192.796 Q454.173 194.694 452.067 197.286 Q451.488 197.958 448.386 201.175 Q445.285 204.37 439.637 210.133 Z" fill="#000000" fill-rule="nonzero" fill-opacity="1" /><path clip-path="url(#clip030)" d="M475.122 178.05 L475.122 220.319 L465.308 220.319 L465.308 217.008 L470.84 217.008 L470.84 181.36 L465.308 181.36 L465.308 178.05 L475.122 178.05 Z" fill="#000000" fill-rule="nonzero" fill-opacity="1" /></svg>
