<?xml version="1.0" encoding="utf-8"?>
<svg xmlns="http://www.w3.org/2000/svg" xmlns:xlink="http://www.w3.org/1999/xlink" width="600" height="400" viewBox="0 0 2400 1600">
<defs>
  <clipPath id="clip460">
    <rect x="0" y="0" width="2400" height="1600"/>
  </clipPath>
</defs>
<path clip-path="url(#clip460)" d="M0 1600 L2400 1600 L2400 0 L0 0  Z" fill="#ffffff" fill-rule="evenodd" fill-opacity="1"/>
<defs>
  <clipPath id="clip461">
    <rect x="480" y="0" width="1681" height="1600"/>
  </clipPath>
</defs>
<path clip-path="url(#clip460)" d="M112.177 1486.45 L2352.76 1486.45 L2352.76 47.2441 L112.177 47.2441  Z" fill="#ffffff" fill-rule="evenodd" fill-opacity="1"/>
<defs>
  <clipPath id="clip462">
    <rect x="112" y="47" width="2242" height="1440"/>
  </clipPath>
</defs>
<polyline clip-path="url(#clip462)" style="stroke:#000000; stroke-linecap:round; stroke-linejoin:round; stroke-width:2; stroke-opacity:0.1; fill:none" points="175.59,1486.45 175.59,47.2441 "/>
<polyline clip-path="url(#clip462)" style="stroke:#000000; stroke-linecap:round; stroke-linejoin:round; stroke-width:2; stroke-opacity:0.1; fill:none" points="704.028,1486.45 704.028,47.2441 "/>
<polyline clip-path="url(#clip462)" style="stroke:#000000; stroke-linecap:round; stroke-linejoin:round; stroke-width:2; stroke-opacity:0.1; fill:none" points="1232.47,1486.45 1232.47,47.2441 "/>
<polyline clip-path="url(#clip462)" style="stroke:#000000; stroke-linecap:round; stroke-linejoin:round; stroke-width:2; stroke-opacity:0.1; fill:none" points="1760.9,1486.45 1760.9,47.2441 "/>
<polyline clip-path="url(#clip462)" style="stroke:#000000; stroke-linecap:round; stroke-linejoin:round; stroke-width:2; stroke-opacity:0.1; fill:none" points="2289.34,1486.45 2289.34,47.2441 "/>
<polyline clip-path="url(#clip462)" style="stroke:#000000; stroke-linecap:round; stroke-linejoin:round; stroke-width:2; stroke-opacity:0.1; fill:none" points="112.177,1142.7 2352.76,1142.7 "/>
<polyline clip-path="url(#clip462)" style="stroke:#000000; stroke-linecap:round; stroke-linejoin:round; stroke-width:2; stroke-opacity:0.1; fill:none" points="112.177,778.164 2352.76,778.164 "/>
<polyline clip-path="url(#clip462)" style="stroke:#000000; stroke-linecap:round; stroke-linejoin:round; stroke-width:2; stroke-opacity:0.1; fill:none" points="112.177,413.63 2352.76,413.63 "/>
<polyline clip-path="url(#clip462)" style="stroke:#000000; stroke-linecap:round; stroke-linejoin:round; stroke-width:2; stroke-opacity:0.1; fill:none" points="112.177,49.0959 2352.76,49.0959 "/>
<polyline clip-path="url(#clip460)" style="stroke:#000000; stroke-linecap:round; stroke-linejoin:round; stroke-width:4; stroke-opacity:1; fill:none" points="112.177,1486.45 2352.76,1486.45 "/>
<polyline clip-path="url(#clip460)" style="stroke:#000000; stroke-linecap:round; stroke-linejoin:round; stroke-width:4; stroke-opacity:1; fill:none" points="175.59,1486.45 175.59,1467.55 "/>
<polyline clip-path="url(#clip460)" style="stroke:#000000; stroke-linecap:round; stroke-linejoin:round; stroke-width:4; stroke-opacity:1; fill:none" points="704.028,1486.45 704.028,1467.55 "/>
<polyline clip-path="url(#clip460)" style="stroke:#000000; stroke-linecap:round; stroke-linejoin:round; stroke-width:4; stroke-opacity:1; fill:none" points="1232.47,1486.45 1232.47,1467.55 "/>
<polyline clip-path="url(#clip460)" style="stroke:#000000; stroke-linecap:round; stroke-linejoin:round; stroke-width:4; stroke-opacity:1; fill:none" points="1760.9,1486.45 1760.9,1467.55 "/>
<polyline clip-path="url(#clip460)" style="stroke:#000000; stroke-linecap:round; stroke-linejoin:round; stroke-width:4; stroke-opacity:1; fill:none" points="2289.34,1486.45 2289.34,1467.55 "/>
<path clip-path="url(#clip460)" d="M137.893 1517.37 Q134.282 1517.37 132.453 1520.93 Q130.648 1524.47 130.648 1531.6 Q130.648 1538.71 132.453 1542.27 Q134.282 1545.82 137.893 1545.82 Q141.527 1545.82 143.333 1542.27 Q145.162 1538.71 145.162 1531.6 Q145.162 1524.47 143.333 1520.93 Q141.527 1517.37 137.893 1517.37 M137.893 1513.66 Q143.703 1513.66 146.759 1518.27 Q149.838 1522.85 149.838 1531.6 Q149.838 1540.33 146.759 1544.94 Q143.703 1549.52 137.893 1549.52 Q132.083 1549.52 129.004 1544.94 Q125.949 1540.33 125.949 1531.6 Q125.949 1522.85 129.004 1518.27 Q132.083 1513.66 137.893 1513.66 Z" fill="#000000" fill-rule="nonzero" fill-opacity="1" /><path clip-path="url(#clip460)" d="M158.055 1542.97 L162.939 1542.97 L162.939 1548.85 L158.055 1548.85 L158.055 1542.97 Z" fill="#000000" fill-rule="nonzero" fill-opacity="1" /><path clip-path="url(#clip460)" d="M183.124 1517.37 Q179.513 1517.37 177.685 1520.93 Q175.879 1524.47 175.879 1531.6 Q175.879 1538.71 177.685 1542.27 Q179.513 1545.82 183.124 1545.82 Q186.759 1545.82 188.564 1542.27 Q190.393 1538.71 190.393 1531.6 Q190.393 1524.47 188.564 1520.93 Q186.759 1517.37 183.124 1517.37 M183.124 1513.66 Q188.935 1513.66 191.99 1518.27 Q195.069 1522.85 195.069 1531.6 Q195.069 1540.33 191.99 1544.94 Q188.935 1549.52 183.124 1549.52 Q177.314 1549.52 174.236 1544.94 Q171.18 1540.33 171.18 1531.6 Q171.18 1522.85 174.236 1518.27 Q177.314 1513.66 183.124 1513.66 Z" fill="#000000" fill-rule="nonzero" fill-opacity="1" /><path clip-path="url(#clip460)" d="M213.286 1517.37 Q209.675 1517.37 207.847 1520.93 Q206.041 1524.47 206.041 1531.6 Q206.041 1538.71 207.847 1542.27 Q209.675 1545.82 213.286 1545.82 Q216.921 1545.82 218.726 1542.27 Q220.555 1538.71 220.555 1531.6 Q220.555 1524.47 218.726 1520.93 Q216.921 1517.37 213.286 1517.37 M213.286 1513.66 Q219.096 1513.66 222.152 1518.27 Q225.231 1522.85 225.231 1531.6 Q225.231 1540.33 222.152 1544.94 Q219.096 1549.52 213.286 1549.52 Q207.476 1549.52 204.397 1544.94 Q201.342 1540.33 201.342 1531.6 Q201.342 1522.85 204.397 1518.27 Q207.476 1513.66 213.286 1513.66 Z" fill="#000000" fill-rule="nonzero" fill-opacity="1" /><path clip-path="url(#clip460)" d="M666.829 1517.37 Q663.218 1517.37 661.39 1520.93 Q659.584 1524.47 659.584 1531.6 Q659.584 1538.71 661.39 1542.27 Q663.218 1545.82 666.829 1545.82 Q670.464 1545.82 672.269 1542.27 Q674.098 1538.71 674.098 1531.6 Q674.098 1524.47 672.269 1520.93 Q670.464 1517.37 666.829 1517.37 M666.829 1513.66 Q672.639 1513.66 675.695 1518.27 Q678.774 1522.85 678.774 1531.6 Q678.774 1540.33 675.695 1544.94 Q672.639 1549.52 666.829 1549.52 Q661.019 1549.52 657.94 1544.94 Q654.885 1540.33 654.885 1531.6 Q654.885 1522.85 657.94 1518.27 Q661.019 1513.66 666.829 1513.66 Z" fill="#000000" fill-rule="nonzero" fill-opacity="1" /><path clip-path="url(#clip460)" d="M686.991 1542.97 L691.875 1542.97 L691.875 1548.85 L686.991 1548.85 L686.991 1542.97 Z" fill="#000000" fill-rule="nonzero" fill-opacity="1" /><path clip-path="url(#clip460)" d="M706.088 1544.91 L722.408 1544.91 L722.408 1548.85 L700.463 1548.85 L700.463 1544.91 Q703.125 1542.16 707.709 1537.53 Q712.315 1532.88 713.496 1531.53 Q715.741 1529.01 716.621 1527.27 Q717.523 1525.51 717.523 1523.82 Q717.523 1521.07 715.579 1519.33 Q713.658 1517.6 710.556 1517.6 Q708.357 1517.6 705.903 1518.36 Q703.473 1519.13 700.695 1520.68 L700.695 1515.95 Q703.519 1514.82 705.973 1514.24 Q708.426 1513.66 710.463 1513.66 Q715.834 1513.66 719.028 1516.35 Q722.223 1519.03 722.223 1523.52 Q722.223 1525.65 721.412 1527.57 Q720.625 1529.47 718.519 1532.07 Q717.94 1532.74 714.838 1535.95 Q711.736 1539.15 706.088 1544.91 Z" fill="#000000" fill-rule="nonzero" fill-opacity="1" /><path clip-path="url(#clip460)" d="M732.269 1514.29 L750.625 1514.29 L750.625 1518.22 L736.551 1518.22 L736.551 1526.7 Q737.57 1526.35 738.588 1526.19 Q739.607 1526 740.625 1526 Q746.412 1526 749.792 1529.17 Q753.171 1532.34 753.171 1537.76 Q753.171 1543.34 749.699 1546.44 Q746.227 1549.52 739.908 1549.52 Q737.732 1549.52 735.463 1549.15 Q733.218 1548.78 730.81 1548.04 L730.81 1543.34 Q732.894 1544.47 735.116 1545.03 Q737.338 1545.58 739.815 1545.58 Q743.82 1545.58 746.158 1543.48 Q748.496 1541.37 748.496 1537.76 Q748.496 1534.15 746.158 1532.04 Q743.82 1529.94 739.815 1529.94 Q737.94 1529.94 736.065 1530.35 Q734.213 1530.77 732.269 1531.65 L732.269 1514.29 Z" fill="#000000" fill-rule="nonzero" fill-opacity="1" /><path clip-path="url(#clip460)" d="M1194.77 1517.37 Q1191.16 1517.37 1189.33 1520.93 Q1187.52 1524.47 1187.52 1531.6 Q1187.52 1538.71 1189.33 1542.27 Q1191.16 1545.82 1194.77 1545.82 Q1198.4 1545.82 1200.21 1542.27 Q1202.04 1538.71 1202.04 1531.6 Q1202.04 1524.47 1200.21 1520.93 Q1198.4 1517.37 1194.77 1517.37 M1194.77 1513.66 Q1200.58 1513.66 1203.64 1518.27 Q1206.71 1522.85 1206.71 1531.6 Q1206.71 1540.33 1203.64 1544.94 Q1200.58 1549.52 1194.77 1549.52 Q1188.96 1549.52 1185.88 1544.94 Q1182.83 1540.33 1182.83 1531.6 Q1182.83 1522.85 1185.88 1518.27 Q1188.96 1513.66 1194.77 1513.66 Z" fill="#000000" fill-rule="nonzero" fill-opacity="1" /><path clip-path="url(#clip460)" d="M1214.93 1542.97 L1219.82 1542.97 L1219.82 1548.85 L1214.93 1548.85 L1214.93 1542.97 Z" fill="#000000" fill-rule="nonzero" fill-opacity="1" /><path clip-path="url(#clip460)" d="M1230.05 1514.29 L1248.4 1514.29 L1248.4 1518.22 L1234.33 1518.22 L1234.33 1526.7 Q1235.35 1526.35 1236.37 1526.19 Q1237.39 1526 1238.4 1526 Q1244.19 1526 1247.57 1529.17 Q1250.95 1532.34 1250.95 1537.76 Q1250.95 1543.34 1247.48 1546.44 Q1244.01 1549.52 1237.69 1549.52 Q1235.51 1549.52 1233.24 1549.15 Q1231 1548.78 1228.59 1548.04 L1228.59 1543.34 Q1230.67 1544.47 1232.89 1545.03 Q1235.12 1545.58 1237.59 1545.58 Q1241.6 1545.58 1243.94 1543.48 Q1246.27 1541.37 1246.27 1537.76 Q1246.27 1534.15 1243.94 1532.04 Q1241.6 1529.94 1237.59 1529.94 Q1235.72 1529.94 1233.84 1530.35 Q1231.99 1530.77 1230.05 1531.65 L1230.05 1514.29 Z" fill="#000000" fill-rule="nonzero" fill-opacity="1" /><path clip-path="url(#clip460)" d="M1270.16 1517.37 Q1266.55 1517.37 1264.72 1520.93 Q1262.92 1524.47 1262.92 1531.6 Q1262.92 1538.71 1264.72 1542.27 Q1266.55 1545.82 1270.16 1545.82 Q1273.8 1545.82 1275.6 1542.27 Q1277.43 1538.71 1277.43 1531.6 Q1277.43 1524.47 1275.6 1520.93 Q1273.8 1517.37 1270.16 1517.37 M1270.16 1513.66 Q1275.97 1513.66 1279.03 1518.27 Q1282.11 1522.85 1282.11 1531.6 Q1282.11 1540.33 1279.03 1544.94 Q1275.97 1549.52 1270.16 1549.52 Q1264.35 1549.52 1261.27 1544.94 Q1258.22 1540.33 1258.22 1531.6 Q1258.22 1522.85 1261.27 1518.27 Q1264.35 1513.66 1270.16 1513.66 Z" fill="#000000" fill-rule="nonzero" fill-opacity="1" /><path clip-path="url(#clip460)" d="M1723.71 1517.37 Q1720.09 1517.37 1718.27 1520.93 Q1716.46 1524.47 1716.46 1531.6 Q1716.46 1538.71 1718.27 1542.27 Q1720.09 1545.82 1723.71 1545.82 Q1727.34 1545.82 1729.15 1542.27 Q1730.97 1538.71 1730.97 1531.6 Q1730.97 1524.47 1729.15 1520.93 Q1727.34 1517.37 1723.71 1517.37 M1723.71 1513.66 Q1729.52 1513.66 1732.57 1518.27 Q1735.65 1522.85 1735.65 1531.6 Q1735.65 1540.33 1732.57 1544.94 Q1729.52 1549.52 1723.71 1549.52 Q1717.9 1549.52 1714.82 1544.94 Q1711.76 1540.33 1711.76 1531.6 Q1711.76 1522.85 1714.82 1518.27 Q1717.9 1513.66 1723.71 1513.66 Z" fill="#000000" fill-rule="nonzero" fill-opacity="1" /><path clip-path="url(#clip460)" d="M1743.87 1542.97 L1748.75 1542.97 L1748.75 1548.85 L1743.87 1548.85 L1743.87 1542.97 Z" fill="#000000" fill-rule="nonzero" fill-opacity="1" /><path clip-path="url(#clip460)" d="M1757.76 1514.29 L1779.98 1514.29 L1779.98 1516.28 L1767.43 1548.85 L1762.55 1548.85 L1774.35 1518.22 L1757.76 1518.22 L1757.76 1514.29 Z" fill="#000000" fill-rule="nonzero" fill-opacity="1" /><path clip-path="url(#clip460)" d="M1789.15 1514.29 L1807.5 1514.29 L1807.5 1518.22 L1793.43 1518.22 L1793.43 1526.7 Q1794.45 1526.35 1795.46 1526.19 Q1796.48 1526 1797.5 1526 Q1803.29 1526 1806.67 1529.17 Q1810.05 1532.34 1810.05 1537.76 Q1810.05 1543.34 1806.58 1546.44 Q1803.1 1549.52 1796.78 1549.52 Q1794.61 1549.52 1792.34 1549.15 Q1790.09 1548.78 1787.69 1548.04 L1787.69 1543.34 Q1789.77 1544.47 1791.99 1545.03 Q1794.21 1545.58 1796.69 1545.58 Q1800.7 1545.58 1803.03 1543.48 Q1805.37 1541.37 1805.37 1537.76 Q1805.37 1534.15 1803.03 1532.04 Q1800.7 1529.94 1796.69 1529.94 Q1794.82 1529.94 1792.94 1530.35 Q1791.09 1530.77 1789.15 1531.65 L1789.15 1514.29 Z" fill="#000000" fill-rule="nonzero" fill-opacity="1" /><path clip-path="url(#clip460)" d="M2241.42 1544.91 L2249.05 1544.91 L2249.05 1518.55 L2240.74 1520.21 L2240.74 1515.95 L2249.01 1514.29 L2253.68 1514.29 L2253.68 1544.91 L2261.32 1544.91 L2261.32 1548.85 L2241.42 1548.85 L2241.42 1544.91 Z" fill="#000000" fill-rule="nonzero" fill-opacity="1" /><path clip-path="url(#clip460)" d="M2270.77 1542.97 L2275.65 1542.97 L2275.65 1548.85 L2270.77 1548.85 L2270.77 1542.97 Z" fill="#000000" fill-rule="nonzero" fill-opacity="1" /><path clip-path="url(#clip460)" d="M2295.84 1517.37 Q2292.23 1517.37 2290.4 1520.93 Q2288.59 1524.47 2288.59 1531.6 Q2288.59 1538.71 2290.4 1542.27 Q2292.23 1545.82 2295.84 1545.82 Q2299.47 1545.82 2301.28 1542.27 Q2303.1 1538.71 2303.1 1531.6 Q2303.1 1524.47 2301.28 1520.93 Q2299.47 1517.37 2295.84 1517.37 M2295.84 1513.66 Q2301.65 1513.66 2304.7 1518.27 Q2307.78 1522.85 2307.78 1531.6 Q2307.78 1540.33 2304.7 1544.94 Q2301.65 1549.52 2295.84 1549.52 Q2290.03 1549.52 2286.95 1544.94 Q2283.89 1540.33 2283.89 1531.6 Q2283.89 1522.85 2286.95 1518.27 Q2290.03 1513.66 2295.84 1513.66 Z" fill="#000000" fill-rule="nonzero" fill-opacity="1" /><path clip-path="url(#clip460)" d="M2326 1517.37 Q2322.39 1517.37 2320.56 1520.93 Q2318.75 1524.47 2318.75 1531.6 Q2318.75 1538.71 2320.56 1542.27 Q2322.39 1545.82 2326 1545.82 Q2329.63 1545.82 2331.44 1542.27 Q2333.27 1538.71 2333.27 1531.6 Q2333.27 1524.47 2331.44 1520.93 Q2329.63 1517.37 2326 1517.37 M2326 1513.66 Q2331.81 1513.66 2334.86 1518.27 Q2337.94 1522.85 2337.94 1531.6 Q2337.94 1540.33 2334.86 1544.94 Q2331.81 1549.52 2326 1549.52 Q2320.19 1549.52 2317.11 1544.94 Q2314.05 1540.33 2314.05 1531.6 Q2314.05 1522.85 2317.11 1518.27 Q2320.19 1513.66 2326 1513.66 Z" fill="#000000" fill-rule="nonzero" fill-opacity="1" /><polyline clip-path="url(#clip460)" style="stroke:#000000; stroke-linecap:round; stroke-linejoin:round; stroke-width:4; stroke-opacity:1; fill:none" points="112.177,1486.45 112.177,47.2441 "/>
<polyline clip-path="url(#clip460)" style="stroke:#000000; stroke-linecap:round; stroke-linejoin:round; stroke-width:4; stroke-opacity:1; fill:none" points="112.177,1142.7 131.075,1142.7 "/>
<polyline clip-path="url(#clip460)" style="stroke:#000000; stroke-linecap:round; stroke-linejoin:round; stroke-width:4; stroke-opacity:1; fill:none" points="112.177,778.164 131.075,778.164 "/>
<polyline clip-path="url(#clip460)" style="stroke:#000000; stroke-linecap:round; stroke-linejoin:round; stroke-width:4; stroke-opacity:1; fill:none" points="112.177,413.63 131.075,413.63 "/>
<polyline clip-path="url(#clip460)" style="stroke:#000000; stroke-linecap:round; stroke-linejoin:round; stroke-width:4; stroke-opacity:1; fill:none" points="112.177,49.0959 131.075,49.0959 "/>
<path clip-path="url(#clip460)" d="M56.2699 1156.04 L63.9087 1156.04 L63.9087 1129.68 L55.5986 1131.34 L55.5986 1127.08 L63.8624 1125.42 L68.5383 1125.42 L68.5383 1156.04 L76.1772 1156.04 L76.1772 1159.98 L56.2699 1159.98 L56.2699 1156.04 Z" fill="#000000" fill-rule="nonzero" fill-opacity="1" /><path clip-path="url(#clip460)" d="M59.8578 791.509 L76.1772 791.509 L76.1772 795.444 L54.2328 795.444 L54.2328 791.509 Q56.8949 788.754 61.4782 784.125 Q66.0846 779.472 67.2652 778.129 Q69.5105 775.606 70.3902 773.87 Q71.2929 772.111 71.2929 770.421 Q71.2929 767.666 69.3485 765.93 Q67.4272 764.194 64.3254 764.194 Q62.1263 764.194 59.6726 764.958 Q57.2421 765.722 54.4643 767.273 L54.4643 762.551 Q57.2884 761.416 59.7421 760.838 Q62.1958 760.259 64.2328 760.259 Q69.6031 760.259 72.7976 762.944 Q75.992 765.629 75.992 770.12 Q75.992 772.25 75.1818 774.171 Q74.3948 776.069 72.2883 778.662 Q71.7096 779.333 68.6078 782.551 Q65.5059 785.745 59.8578 791.509 Z" fill="#000000" fill-rule="nonzero" fill-opacity="1" /><path clip-path="url(#clip460)" d="M69.0476 412.276 Q72.404 412.993 74.279 415.262 Q76.1772 417.53 76.1772 420.864 Q76.1772 425.979 72.6587 428.78 Q69.1402 431.581 62.6587 431.581 Q60.4828 431.581 58.168 431.141 Q55.8764 430.725 53.4227 429.868 L53.4227 425.354 Q55.3671 426.489 57.6819 427.067 Q59.9967 427.646 62.5198 427.646 Q66.918 427.646 69.2096 425.91 Q71.5244 424.174 71.5244 420.864 Q71.5244 417.808 69.3717 416.095 Q67.242 414.359 63.4226 414.359 L59.3949 414.359 L59.3949 410.517 L63.6078 410.517 Q67.0569 410.517 68.8855 409.151 Q70.7142 407.762 70.7142 405.169 Q70.7142 402.507 68.8161 401.095 Q66.9411 399.66 63.4226 399.66 Q61.5013 399.66 59.3023 400.077 Q57.1032 400.493 54.4643 401.373 L54.4643 397.206 Q57.1264 396.466 59.4412 396.095 Q61.7791 395.725 63.8393 395.725 Q69.1633 395.725 72.2652 398.155 Q75.367 400.563 75.367 404.683 Q75.367 407.554 73.7235 409.544 Q72.08 411.512 69.0476 412.276 Z" fill="#000000" fill-rule="nonzero" fill-opacity="1" /><path clip-path="url(#clip460)" d="M66.5939 35.8899 L54.7884 54.3389 L66.5939 54.3389 L66.5939 35.8899 M65.367 31.8159 L71.2466 31.8159 L71.2466 54.3389 L76.1772 54.3389 L76.1772 58.2278 L71.2466 58.2278 L71.2466 66.3759 L66.5939 66.3759 L66.5939 58.2278 L50.9921 58.2278 L50.9921 53.7139 L65.367 31.8159 Z" fill="#000000" fill-rule="nonzero" fill-opacity="1" /><path clip-path="url(#clip462)" d="M175.59 1324.97 L196.727 1351.79 L217.865 1361.7 L239.002 1369.35 L260.14 1375.49 L281.277 1378.91 L302.415 1383.02 L323.553 1387.72 L344.69 1389.82 L365.828 1393.7 L386.965 1398.31 L408.103 1395.97 L429.24 1398.1 L450.378 1401.79 L471.515 1401.25 L492.653 1401.82 L513.79 1404.94 L534.928 1404.55 L556.065 1409.68 L577.203 1410.69 L598.34 1412.76 L619.478 1415.13 L640.616 1417.33 L661.753 1416.42 L682.891 1417.58 L704.028 1419.64 L725.166 1419.98 L746.303 1421.07 L767.441 1420.44 L788.578 1421.6 L809.716 1419.5 L830.853 1418.53 L851.991 1421.65 L873.128 1423.23 L894.266 1425.19 L915.404 1425.34 L936.541 1428.41 L957.679 1428.06 L978.816 1428.45 L999.954 1429.45 L1021.09 1429.62 L1042.23 1427.54 L1063.37 1428.29 L1084.5 1426.52 L1105.64 1427.17 L1126.78 1428.77 L1147.92 1429.84 L1169.05 1429.4 L1190.19 1429.58 L1211.33 1429.31 L1232.47 1432.3 L1253.6 1431.82 L1274.74 1432.21 L1295.88 1431.73 L1317.02 1433.53 L1338.15 1433.36 L1359.29 1432.6 L1380.43 1433.25 L1401.57 1434.92 L1422.7 1437.05 L1443.84 1437.39 L1464.98 1436.26 L1486.12 1435.24 L1507.25 1438.66 L1528.39 1438.24 L1549.53 1439.99 L1570.67 1440.81 L1591.8 1440.45 L1612.94 1439.9 L1634.08 1441.02 L1655.22 1439.04 L1676.35 1439.75 L1697.49 1438 L1718.63 1439.57 L1739.77 1439.15 L1760.9 1440.8 L1782.04 1437.96 L1803.18 1442.53 L1824.32 1441.8 L1845.46 1441.42 L1866.59 1439.7 L1887.73 1440.03 L1908.87 1439.72 L1930.01 1439.85 L1951.14 1439.44 L1972.28 1436.8 L1993.42 1438.01 L2014.56 1439.48 L2035.69 1439.12 L2056.83 1440.66 L2077.97 1439.54 L2099.11 1440.52 L2120.24 1442.71 L2141.38 1443.14 L2162.52 1443.13 L2183.66 1444.07 L2204.79 1445.72 L2225.93 1443.69 L2247.07 1442.61 L2268.21 1444.14 L2289.34 1444.05 L2289.34 87.9763 L2268.21 116.828 L2247.07 167.892 L2225.93 153.764 L2204.79 211.646 L2183.66 166.211 L2162.52 177.095 L2141.38 185.082 L2120.24 258.482 L2099.11 237.327 L2077.97 280.598 L2056.83 310.661 L2035.69 317.464 L2014.56 333.393 L1993.42 360.578 L1972.28 332.75 L1951.14 320.485 L1930.01 284.969 L1908.87 336.784 L1887.73 335.988 L1866.59 358.928 L1845.46 405.043 L1824.32 419.244 L1803.18 467.767 L1782.04 462.755 L1760.9 478.317 L1739.77 499.47 L1718.63 455.145 L1697.49 493.033 L1676.35 511.719 L1655.22 494.771 L1634.08 557.425 L1612.94 580.101 L1591.8 573.101 L1570.67 612.079 L1549.53 628.85 L1528.39 615.245 L1507.25 627.923 L1486.12 653.447 L1464.98 660.276 L1443.84 656.08 L1422.7 682.779 L1401.57 713.899 L1380.43 712.579 L1359.29 708.614 L1338.15 730.175 L1317.02 775.151 L1295.88 769.744 L1274.74 785.772 L1253.6 790.388 L1232.47 821.559 L1211.33 822.369 L1190.19 838.498 L1169.05 829.474 L1147.92 838.092 L1126.78 857.918 L1105.64 867.222 L1084.5 885.277 L1063.37 899.452 L1042.23 899.87 L1021.09 896.3 L999.954 929.47 L978.816 925.772 L957.679 936.749 L936.541 942.91 L915.404 955.791 L894.266 953.983 L873.128 984.148 L851.991 978.284 L830.853 975.839 L809.716 1004.01 L788.578 1011.4 L767.441 1008.42 L746.303 1035.9 L725.166 1046.6 L704.028 1047.01 L682.891 1060.2 L661.753 1072.91 L640.616 1089.01 L619.478 1101.57 L598.34 1095.36 L577.203 1102.33 L556.065 1110.53 L534.928 1119.69 L513.79 1139.75 L492.653 1145.26 L471.515 1147.04 L450.378 1161.8 L429.24 1167.88 L408.103 1174.85 L386.965 1186.72 L365.828 1196.88 L344.69 1206.02 L323.553 1217.6 L302.415 1232.89 L281.277 1242.71 L260.14 1255.39 L239.002 1267.7 L217.865 1277.05 L196.727 1290.26 L175.59 1324.97  Z" fill="#009af9" fill-rule="evenodd" fill-opacity="0.2"/>
<polyline clip-path="url(#clip462)" style="stroke:#009af9; stroke-linecap:round; stroke-linejoin:round; stroke-width:12; stroke-opacity:1; fill:none" points="175.59,1324.97 196.727,1323.05 217.865,1323.62 239.002,1323.5 260.14,1322.27 281.277,1321.9 302.415,1320.13 323.553,1319.09 344.69,1318.83 365.828,1316.41 386.965,1315.88 408.103,1313.82 429.24,1311.8 450.378,1312.69 471.515,1311.56 492.653,1310.18 513.79,1309.24 534.928,1307.3 556.065,1306.95 577.203,1307.16 598.34,1305.42 619.478,1303.55 640.616,1301.78 661.753,1301.91 682.891,1304.23 704.028,1299.65 725.166,1298.47 746.303,1300.92 767.441,1299.31 788.578,1299.75 809.716,1297.76 830.853,1295.65 851.991,1297.78 873.128,1296.9 894.266,1292.82 915.404,1294.04 936.541,1292.1 957.679,1288.43 978.816,1289.54 999.954,1288.42 1021.09,1288.06 1042.23,1287.99 1063.37,1286.6 1084.5,1286.62 1105.64,1284.9 1126.78,1285.75 1147.92,1282.75 1169.05,1282.73 1190.19,1278.5 1211.33,1277.81 1232.47,1271.95 1253.6,1272.23 1274.74,1272.74 1295.88,1277.37 1317.02,1273.89 1338.15,1273.34 1359.29,1275.18 1380.43,1273.04 1401.57,1271.43 1422.7,1267.75 1443.84,1267.98 1464.98,1260.13 1486.12,1258.62 1507.25,1260.95 1528.39,1267.09 1549.53,1262.05 1570.67,1260.64 1591.8,1261.55 1612.94,1263.93 1634.08,1257.25 1655.22,1252.23 1676.35,1255.86 1697.49,1252.45 1718.63,1249.89 1739.77,1247.95 1760.9,1247.13 1782.04,1245.76 1803.18,1245.46 1824.32,1238.79 1845.46,1242.32 1866.59,1240.41 1887.73,1246.34 1908.87,1243.31 1930.01,1235.15 1951.14,1233.59 1972.28,1227.32 1993.42,1223.69 2014.56,1220.89 2035.69,1221.35 2056.83,1221.71 2077.97,1216.13 2099.11,1220.71 2120.24,1222.67 2141.38,1221.26 2162.52,1217.83 2183.66,1216.03 2204.79,1213.25 2225.93,1212.28 2247.07,1201.81 2268.21,1206.02 2289.34,1208.29 "/>
<path clip-path="url(#clip462)" d="M175.59 1324.97 L196.727 1336.11 L217.865 1340.61 L239.002 1343.35 L260.14 1345.44 L281.277 1348.24 L302.415 1348.92 L323.553 1351.45 L344.69 1350.72 L365.828 1350.82 L386.965 1351.24 L408.103 1352.85 L429.24 1351.53 L450.378 1353.33 L471.515 1353.53 L492.653 1352.6 L513.79 1352.12 L534.928 1354.42 L556.065 1355.88 L577.203 1354.9 L598.34 1355.43 L619.478 1355.7 L640.616 1358.05 L661.753 1358.83 L682.891 1359.46 L704.028 1359.74 L725.166 1359.57 L746.303 1359.82 L767.441 1359.92 L788.578 1359.02 L809.716 1358.08 L830.853 1359.29 L851.991 1357.85 L873.128 1357.42 L894.266 1359.56 L915.404 1360.06 L936.541 1362.45 L957.679 1362.38 L978.816 1363.64 L999.954 1364.55 L1021.09 1362.07 L1042.23 1363.33 L1063.37 1361.86 L1084.5 1361.01 L1105.64 1360.39 L1126.78 1362.38 L1147.92 1361.3 L1169.05 1361.88 L1190.19 1362.34 L1211.33 1362.74 L1232.47 1359 L1253.6 1362.94 L1274.74 1364.32 L1295.88 1364.1 L1317.02 1365.81 L1338.15 1368.58 L1359.29 1367.71 L1380.43 1366.14 L1401.57 1368.73 L1422.7 1368.33 L1443.84 1366.73 L1464.98 1364.83 L1486.12 1364.43 L1507.25 1364.4 L1528.39 1361.77 L1549.53 1361.63 L1570.67 1360.98 L1591.8 1362.07 L1612.94 1359.93 L1634.08 1359.57 L1655.22 1360.3 L1676.35 1361.27 L1697.49 1360.9 L1718.63 1359.2 L1739.77 1360.06 L1760.9 1360.34 L1782.04 1361.34 L1803.18 1362.63 L1824.32 1359.06 L1845.46 1358.67 L1866.59 1359.08 L1887.73 1357.92 L1908.87 1355.27 L1930.01 1352.42 L1951.14 1351.2 L1972.28 1350.73 L1993.42 1354.22 L2014.56 1349.87 L2035.69 1351.63 L2056.83 1350.64 L2077.97 1351.23 L2099.11 1348.9 L2120.24 1348.05 L2141.38 1346.41 L2162.52 1344.96 L2183.66 1347.04 L2204.79 1345.19 L2225.93 1342.66 L2247.07 1344.43 L2268.21 1340.2 L2289.34 1343.54 L2289.34 918.608 L2268.21 923.41 L2247.07 932.242 L2225.93 928.787 L2204.79 937.663 L2183.66 944.317 L2162.52 959.775 L2141.38 961.458 L2120.24 972.4 L2099.11 961.077 L2077.97 966.109 L2056.83 968.662 L2035.69 981.906 L2014.56 970.936 L1993.42 990.752 L1972.28 995.035 L1951.14 984.473 L1930.01 996.673 L1908.87 999.759 L1887.73 1013.02 L1866.59 1014.28 L1845.46 1022.41 L1824.32 1036.93 L1803.18 1035.21 L1782.04 1033.09 L1760.9 1053.81 L1739.77 1055.4 L1718.63 1063.44 L1697.49 1062.52 L1676.35 1074.66 L1655.22 1079.11 L1634.08 1077.27 L1612.94 1079.94 L1591.8 1093.64 L1570.67 1098.34 L1549.53 1106.31 L1528.39 1112.62 L1507.25 1108.42 L1486.12 1117.59 L1464.98 1119.32 L1443.84 1115.04 L1422.7 1120.02 L1401.57 1118.45 L1380.43 1120.34 L1359.29 1129.66 L1338.15 1130.32 L1317.02 1133.96 L1295.88 1140.48 L1274.74 1144.22 L1253.6 1147.75 L1232.47 1152.01 L1211.33 1154.48 L1190.19 1155.48 L1169.05 1160.35 L1147.92 1162.11 L1126.78 1166.02 L1105.64 1163.11 L1084.5 1172.82 L1063.37 1172.08 L1042.23 1174.74 L1021.09 1176.37 L999.954 1182.08 L978.816 1191.88 L957.679 1197.97 L936.541 1201.62 L915.404 1197.1 L894.266 1199.64 L873.128 1199.43 L851.991 1209.57 L830.853 1210.78 L809.716 1206.54 L788.578 1209.52 L767.441 1217.24 L746.303 1214.5 L725.166 1215.94 L704.028 1223.75 L682.891 1225.79 L661.753 1229.79 L640.616 1230.37 L619.478 1235.94 L598.34 1236.25 L577.203 1241.99 L556.065 1246.96 L534.928 1251.34 L513.79 1257.05 L492.653 1258.22 L471.515 1260.44 L450.378 1263.2 L429.24 1268.27 L408.103 1266.99 L386.965 1267.86 L365.828 1276.09 L344.69 1278.45 L323.553 1280.19 L302.415 1287.8 L281.277 1289.82 L260.14 1297.57 L239.002 1302.02 L217.865 1305.93 L196.727 1309.69 L175.59 1324.97  Z" fill="#e26f46" fill-rule="evenodd" fill-opacity="0.2"/>
<polyline clip-path="url(#clip462)" style="stroke:#e26f46; stroke-linecap:round; stroke-linejoin:round; stroke-width:12; stroke-opacity:1; fill:none" points="175.59,1324.97 196.727,1323.05 217.865,1323.62 239.002,1323.5 260.14,1322.27 281.277,1321.9 302.415,1320.13 323.553,1319.09 344.69,1318.83 365.828,1316.41 386.965,1315.88 408.103,1313.82 429.24,1311.8 450.378,1312.69 471.515,1311.56 492.653,1310.18 513.79,1309.24 534.928,1307.3 556.065,1306.95 577.203,1307.16 598.34,1305.42 619.478,1303.55 640.616,1301.78 661.753,1301.91 682.891,1304.23 704.028,1299.65 725.166,1298.47 746.303,1300.92 767.441,1299.31 788.578,1299.75 809.716,1297.76 830.853,1295.65 851.991,1297.78 873.128,1296.9 894.266,1292.82 915.404,1294.04 936.541,1292.1 957.679,1288.43 978.816,1289.54 999.954,1288.42 1021.09,1288.06 1042.23,1287.99 1063.37,1286.6 1084.5,1286.62 1105.64,1284.9 1126.78,1285.75 1147.92,1282.75 1169.05,1282.73 1190.19,1278.5 1211.33,1277.81 1232.47,1271.95 1253.6,1272.23 1274.74,1272.74 1295.88,1277.37 1317.02,1273.89 1338.15,1273.34 1359.29,1275.18 1380.43,1273.04 1401.57,1271.43 1422.7,1267.75 1443.84,1267.98 1464.98,1260.13 1486.12,1258.62 1507.25,1260.95 1528.39,1267.09 1549.53,1262.05 1570.67,1260.64 1591.8,1261.55 1612.94,1263.93 1634.08,1257.25 1655.22,1252.23 1676.35,1255.86 1697.49,1252.45 1718.63,1249.89 1739.77,1247.95 1760.9,1247.13 1782.04,1245.76 1803.18,1245.46 1824.32,1238.79 1845.46,1242.32 1866.59,1240.41 1887.73,1246.34 1908.87,1243.31 1930.01,1235.15 1951.14,1233.59 1972.28,1227.32 1993.42,1223.69 2014.56,1220.89 2035.69,1221.35 2056.83,1221.71 2077.97,1216.13 2099.11,1220.71 2120.24,1222.67 2141.38,1221.26 2162.52,1217.83 2183.66,1216.03 2204.79,1213.25 2225.93,1212.28 2247.07,1201.81 2268.21,1206.02 2289.34,1208.29 "/>
<path clip-path="url(#clip460)" d="M1784.25 250.738 L2278.07 250.738 L2278.07 95.2176 L1784.25 95.2176  Z" fill="#ffffff" fill-rule="evenodd" fill-opacity="1"/>
<polyline clip-path="url(#clip460)" style="stroke:#000000; stroke-linecap:round; stroke-linejoin:round; stroke-width:4; stroke-opacity:1; fill:none" points="1784.25,250.738 2278.07,250.738 2278.07,95.2176 1784.25,95.2176 1784.25,250.738 "/>
<polyline clip-path="url(#clip460)" style="stroke:#009af9; stroke-linecap:round; stroke-linejoin:round; stroke-width:12; stroke-opacity:1; fill:none" points="1809.14,147.058 1958.51,147.058 "/>
<path clip-path="url(#clip460)" d="M1983.41 129.778 L1990.38 129.778 L1999.19 153.296 L2008.06 129.778 L2015.03 129.778 L2015.03 164.338 L2010.47 164.338 L2010.47 133.99 L2001.56 157.694 L1996.86 157.694 L1987.94 133.99 L1987.94 164.338 L1983.41 164.338 L1983.41 129.778 Z" fill="#000000" fill-rule="nonzero" fill-opacity="1" /><path clip-path="url(#clip460)" d="M2024.12 138.412 L2028.38 138.412 L2028.38 164.338 L2024.12 164.338 L2024.12 138.412 M2024.12 128.319 L2028.38 128.319 L2028.38 133.713 L2024.12 133.713 L2024.12 128.319 Z" fill="#000000" fill-rule="nonzero" fill-opacity="1" /><path clip-path="url(#clip460)" d="M2054.36 142.347 L2054.36 128.319 L2058.62 128.319 L2058.62 164.338 L2054.36 164.338 L2054.36 160.449 Q2053.01 162.763 2050.95 163.898 Q2048.92 165.009 2046.05 165.009 Q2041.35 165.009 2038.38 161.259 Q2035.44 157.509 2035.44 151.398 Q2035.44 145.287 2038.38 141.537 Q2041.35 137.787 2046.05 137.787 Q2048.92 137.787 2050.95 138.921 Q2053.01 140.032 2054.36 142.347 M2039.84 151.398 Q2039.84 156.097 2041.76 158.782 Q2043.71 161.444 2047.09 161.444 Q2050.47 161.444 2052.41 158.782 Q2054.36 156.097 2054.36 151.398 Q2054.36 146.699 2052.41 144.037 Q2050.47 141.352 2047.09 141.352 Q2043.71 141.352 2041.76 144.037 Q2039.84 146.699 2039.84 151.398 Z" fill="#000000" fill-rule="nonzero" fill-opacity="1" /><path clip-path="url(#clip460)" d="M2084.45 142.347 L2084.45 128.319 L2088.71 128.319 L2088.71 164.338 L2084.45 164.338 L2084.45 160.449 Q2083.11 162.763 2081.05 163.898 Q2079.01 165.009 2076.14 165.009 Q2071.44 165.009 2068.48 161.259 Q2065.54 157.509 2065.54 151.398 Q2065.54 145.287 2068.48 141.537 Q2071.44 137.787 2076.14 137.787 Q2079.01 137.787 2081.05 138.921 Q2083.11 140.032 2084.45 142.347 M2069.93 151.398 Q2069.93 156.097 2071.86 158.782 Q2073.8 161.444 2077.18 161.444 Q2080.56 161.444 2082.5 158.782 Q2084.45 156.097 2084.45 151.398 Q2084.45 146.699 2082.5 144.037 Q2080.56 141.352 2077.18 141.352 Q2073.8 141.352 2071.86 144.037 Q2069.93 146.699 2069.93 151.398 Z" fill="#000000" fill-rule="nonzero" fill-opacity="1" /><path clip-path="url(#clip460)" d="M2097.48 128.319 L2101.74 128.319 L2101.74 164.338 L2097.48 164.338 L2097.48 128.319 Z" fill="#000000" fill-rule="nonzero" fill-opacity="1" /><path clip-path="url(#clip460)" d="M2132.83 150.31 L2132.83 152.393 L2113.24 152.393 Q2113.52 156.791 2115.88 159.106 Q2118.27 161.398 2122.5 161.398 Q2124.96 161.398 2127.25 160.796 Q2129.56 160.194 2131.83 158.99 L2131.83 163.018 Q2129.54 163.99 2127.13 164.5 Q2124.73 165.009 2122.25 165.009 Q2116.05 165.009 2112.41 161.398 Q2108.8 157.787 2108.8 151.629 Q2108.8 145.264 2112.23 141.537 Q2115.68 137.787 2121.51 137.787 Q2126.74 137.787 2129.77 141.166 Q2132.83 144.523 2132.83 150.31 M2128.57 149.06 Q2128.52 145.565 2126.6 143.481 Q2124.7 141.398 2121.55 141.398 Q2117.99 141.398 2115.84 143.412 Q2113.71 145.426 2113.38 149.083 L2128.57 149.06 Z" fill="#000000" fill-rule="nonzero" fill-opacity="1" /><path clip-path="url(#clip460)" d="M2155.63 163.62 L2155.63 159.361 Q2157.39 160.194 2159.19 160.634 Q2161 161.074 2162.74 161.074 Q2167.36 161.074 2169.8 157.972 Q2172.25 154.847 2172.6 148.504 Q2171.25 150.495 2169.19 151.56 Q2167.13 152.625 2164.63 152.625 Q2159.45 152.625 2156.42 149.5 Q2153.41 146.352 2153.41 140.912 Q2153.41 135.588 2156.55 132.37 Q2159.7 129.153 2164.93 129.153 Q2170.93 129.153 2174.08 133.759 Q2177.25 138.342 2177.25 147.092 Q2177.25 155.264 2173.36 160.148 Q2169.49 165.009 2162.94 165.009 Q2161.18 165.009 2159.38 164.662 Q2157.57 164.314 2155.63 163.62 M2164.93 148.967 Q2168.08 148.967 2169.91 146.814 Q2171.76 144.662 2171.76 140.912 Q2171.76 137.185 2169.91 135.032 Q2168.08 132.856 2164.93 132.856 Q2161.79 132.856 2159.93 135.032 Q2158.11 137.185 2158.11 140.912 Q2158.11 144.662 2159.93 146.814 Q2161.79 148.967 2164.93 148.967 Z" fill="#000000" fill-rule="nonzero" fill-opacity="1" /><path clip-path="url(#clip460)" d="M2185.7 129.778 L2204.05 129.778 L2204.05 133.713 L2189.98 133.713 L2189.98 142.185 Q2191 141.838 2192.02 141.676 Q2193.04 141.49 2194.05 141.49 Q2199.84 141.49 2203.22 144.662 Q2206.6 147.833 2206.6 153.25 Q2206.6 158.828 2203.13 161.93 Q2199.66 165.009 2193.34 165.009 Q2191.16 165.009 2188.89 164.638 Q2186.65 164.268 2184.24 163.527 L2184.24 158.828 Q2186.32 159.963 2188.55 160.518 Q2190.77 161.074 2193.24 161.074 Q2197.25 161.074 2199.59 158.967 Q2201.92 156.861 2201.92 153.25 Q2201.92 149.639 2199.59 147.532 Q2197.25 145.426 2193.24 145.426 Q2191.37 145.426 2189.49 145.842 Q2187.64 146.259 2185.7 147.139 L2185.7 129.778 Z" fill="#000000" fill-rule="nonzero" fill-opacity="1" /><path clip-path="url(#clip460)" d="M2245.21 149.129 Q2243.2 149.129 2242.04 150.842 Q2240.91 152.555 2240.91 155.611 Q2240.91 158.62 2242.04 160.356 Q2243.2 162.069 2245.21 162.069 Q2247.18 162.069 2248.31 160.356 Q2249.47 158.62 2249.47 155.611 Q2249.47 152.578 2248.31 150.865 Q2247.18 149.129 2245.21 149.129 M2245.21 146.19 Q2248.87 146.19 2251.02 148.736 Q2253.17 151.282 2253.17 155.611 Q2253.17 159.939 2251 162.486 Q2248.85 165.009 2245.21 165.009 Q2241.51 165.009 2239.36 162.486 Q2237.2 159.939 2237.2 155.611 Q2237.2 151.259 2239.36 148.736 Q2241.53 146.19 2245.21 146.19 M2221.32 132.092 Q2219.33 132.092 2218.17 133.828 Q2217.04 135.541 2217.04 138.551 Q2217.04 141.606 2218.17 143.319 Q2219.31 145.032 2221.32 145.032 Q2223.34 145.032 2224.47 143.319 Q2225.63 141.606 2225.63 138.551 Q2225.63 135.565 2224.47 133.828 Q2223.31 132.092 2221.32 132.092 M2242.23 129.153 L2245.93 129.153 L2224.31 165.009 L2220.61 165.009 L2242.23 129.153 M2221.32 129.153 Q2224.98 129.153 2227.16 131.699 Q2229.33 134.222 2229.33 138.551 Q2229.33 142.926 2227.16 145.449 Q2225 147.972 2221.32 147.972 Q2217.64 147.972 2215.49 145.449 Q2213.36 142.902 2213.36 138.551 Q2213.36 134.245 2215.51 131.699 Q2217.67 129.153 2221.32 129.153 Z" fill="#000000" fill-rule="nonzero" fill-opacity="1" /><polyline clip-path="url(#clip460)" style="stroke:#e26f46; stroke-linecap:round; stroke-linejoin:round; stroke-width:12; stroke-opacity:1; fill:none" points="1809.14,198.898 1958.51,198.898 "/>
<path clip-path="url(#clip460)" d="M1983.41 181.618 L1990.38 181.618 L1999.19 205.136 L2008.06 181.618 L2015.03 181.618 L2015.03 216.178 L2010.47 216.178 L2010.47 185.83 L2001.56 209.534 L1996.86 209.534 L1987.94 185.83 L1987.94 216.178 L1983.41 216.178 L1983.41 181.618 Z" fill="#000000" fill-rule="nonzero" fill-opacity="1" /><path clip-path="url(#clip460)" d="M2024.12 190.252 L2028.38 190.252 L2028.38 216.178 L2024.12 216.178 L2024.12 190.252 M2024.12 180.159 L2028.38 180.159 L2028.38 185.553 L2024.12 185.553 L2024.12 180.159 Z" fill="#000000" fill-rule="nonzero" fill-opacity="1" /><path clip-path="url(#clip460)" d="M2054.36 194.187 L2054.36 180.159 L2058.62 180.159 L2058.62 216.178 L2054.36 216.178 L2054.36 212.289 Q2053.01 214.603 2050.95 215.738 Q2048.92 216.849 2046.05 216.849 Q2041.35 216.849 2038.38 213.099 Q2035.44 209.349 2035.44 203.238 Q2035.44 197.127 2038.38 193.377 Q2041.35 189.627 2046.05 189.627 Q2048.92 189.627 2050.95 190.761 Q2053.01 191.872 2054.36 194.187 M2039.84 203.238 Q2039.84 207.937 2041.76 210.622 Q2043.71 213.284 2047.09 213.284 Q2050.47 213.284 2052.41 210.622 Q2054.36 207.937 2054.36 203.238 Q2054.36 198.539 2052.41 195.877 Q2050.47 193.192 2047.09 193.192 Q2043.71 193.192 2041.76 195.877 Q2039.84 198.539 2039.84 203.238 Z" fill="#000000" fill-rule="nonzero" fill-opacity="1" /><path clip-path="url(#clip460)" d="M2084.45 194.187 L2084.45 180.159 L2088.71 180.159 L2088.71 216.178 L2084.45 216.178 L2084.45 212.289 Q2083.11 214.603 2081.05 215.738 Q2079.01 216.849 2076.14 216.849 Q2071.44 216.849 2068.48 213.099 Q2065.54 209.349 2065.54 203.238 Q2065.54 197.127 2068.48 193.377 Q2071.44 189.627 2076.14 189.627 Q2079.01 189.627 2081.05 190.761 Q2083.11 191.872 2084.45 194.187 M2069.93 203.238 Q2069.93 207.937 2071.86 210.622 Q2073.8 213.284 2077.18 213.284 Q2080.56 213.284 2082.5 210.622 Q2084.45 207.937 2084.45 203.238 Q2084.45 198.539 2082.5 195.877 Q2080.56 193.192 2077.18 193.192 Q2073.8 193.192 2071.86 195.877 Q2069.93 198.539 2069.93 203.238 Z" fill="#000000" fill-rule="nonzero" fill-opacity="1" /><path clip-path="url(#clip460)" d="M2097.48 180.159 L2101.74 180.159 L2101.74 216.178 L2097.48 216.178 L2097.48 180.159 Z" fill="#000000" fill-rule="nonzero" fill-opacity="1" /><path clip-path="url(#clip460)" d="M2132.83 202.15 L2132.83 204.233 L2113.24 204.233 Q2113.52 208.631 2115.88 210.946 Q2118.27 213.238 2122.5 213.238 Q2124.96 213.238 2127.25 212.636 Q2129.56 212.034 2131.83 210.83 L2131.83 214.858 Q2129.54 215.83 2127.13 216.34 Q2124.73 216.849 2122.25 216.849 Q2116.05 216.849 2112.41 213.238 Q2108.8 209.627 2108.8 203.469 Q2108.8 197.104 2112.23 193.377 Q2115.68 189.627 2121.51 189.627 Q2126.74 189.627 2129.77 193.006 Q2132.83 196.363 2132.83 202.15 M2128.57 200.9 Q2128.52 197.405 2126.6 195.321 Q2124.7 193.238 2121.55 193.238 Q2117.99 193.238 2115.84 195.252 Q2113.71 197.266 2113.38 200.923 L2128.57 200.9 Z" fill="#000000" fill-rule="nonzero" fill-opacity="1" /><path clip-path="url(#clip460)" d="M2155.54 181.618 L2173.89 181.618 L2173.89 185.553 L2159.82 185.553 L2159.82 194.025 Q2160.84 193.678 2161.86 193.516 Q2162.87 193.33 2163.89 193.33 Q2169.68 193.33 2173.06 196.502 Q2176.44 199.673 2176.44 205.09 Q2176.44 210.668 2172.97 213.77 Q2169.49 216.849 2163.18 216.849 Q2161 216.849 2158.73 216.478 Q2156.49 216.108 2154.08 215.367 L2154.08 210.668 Q2156.16 211.803 2158.38 212.358 Q2160.61 212.914 2163.08 212.914 Q2167.09 212.914 2169.43 210.807 Q2171.76 208.701 2171.76 205.09 Q2171.76 201.479 2169.43 199.372 Q2167.09 197.266 2163.08 197.266 Q2161.21 197.266 2159.33 197.682 Q2157.48 198.099 2155.54 198.979 L2155.54 181.618 Z" fill="#000000" fill-rule="nonzero" fill-opacity="1" /><path clip-path="url(#clip460)" d="M2195.65 184.696 Q2192.04 184.696 2190.21 188.261 Q2188.41 191.803 2188.41 198.932 Q2188.41 206.039 2190.21 209.604 Q2192.04 213.145 2195.65 213.145 Q2199.29 213.145 2201.09 209.604 Q2202.92 206.039 2202.92 198.932 Q2202.92 191.803 2201.09 188.261 Q2199.29 184.696 2195.65 184.696 M2195.65 180.993 Q2201.46 180.993 2204.52 185.599 Q2207.6 190.182 2207.6 198.932 Q2207.6 207.659 2204.52 212.266 Q2201.46 216.849 2195.65 216.849 Q2189.84 216.849 2186.76 212.266 Q2183.71 207.659 2183.71 198.932 Q2183.71 190.182 2186.76 185.599 Q2189.84 180.993 2195.65 180.993 Z" fill="#000000" fill-rule="nonzero" fill-opacity="1" /><path clip-path="url(#clip460)" d="M2245.21 200.969 Q2243.2 200.969 2242.04 202.682 Q2240.91 204.395 2240.91 207.451 Q2240.91 210.46 2242.04 212.196 Q2243.2 213.909 2245.21 213.909 Q2247.18 213.909 2248.31 212.196 Q2249.47 210.46 2249.47 207.451 Q2249.47 204.418 2248.31 202.705 Q2247.18 200.969 2245.21 200.969 M2245.21 198.03 Q2248.87 198.03 2251.02 200.576 Q2253.17 203.122 2253.17 207.451 Q2253.17 211.779 2251 214.326 Q2248.85 216.849 2245.21 216.849 Q2241.51 216.849 2239.36 214.326 Q2237.2 211.779 2237.2 207.451 Q2237.2 203.099 2239.36 200.576 Q2241.53 198.03 2245.21 198.03 M2221.32 183.932 Q2219.33 183.932 2218.17 185.668 Q2217.04 187.381 2217.04 190.391 Q2217.04 193.446 2218.17 195.159 Q2219.31 196.872 2221.32 196.872 Q2223.34 196.872 2224.47 195.159 Q2225.63 193.446 2225.63 190.391 Q2225.63 187.405 2224.47 185.668 Q2223.31 183.932 2221.32 183.932 M2242.23 180.993 L2245.93 180.993 L2224.31 216.849 L2220.61 216.849 L2242.23 180.993 M2221.32 180.993 Q2224.98 180.993 2227.16 183.539 Q2229.33 186.062 2229.33 190.391 Q2229.33 194.766 2227.16 197.289 Q2225 199.812 2221.32 199.812 Q2217.64 199.812 2215.49 197.289 Q2213.36 194.742 2213.36 190.391 Q2213.36 186.085 2215.51 183.539 Q2217.67 180.993 2221.32 180.993 Z" fill="#000000" fill-rule="nonzero" fill-opacity="1" /></svg>
