<?xml version="1.0" encoding="utf-8"?>
<svg xmlns="http://www.w3.org/2000/svg" xmlns:xlink="http://www.w3.org/1999/xlink" width="600" height="400" viewBox="0 0 2400 1600">
<defs>
  <clipPath id="clip160">
    <rect x="0" y="0" width="2400" height="1600"/>
  </clipPath>
</defs>
<path clip-path="url(#clip160)" d="M0 1600 L2400 1600 L2400 0 L0 0  Z" fill="#ffffff" fill-rule="evenodd" fill-opacity="1"/>
<defs>
  <clipPath id="clip161">
    <rect x="480" y="0" width="1681" height="1600"/>
  </clipPath>
</defs>
<path clip-path="url(#clip160)" d="M155.765 1423.18 L2352.76 1423.18 L2352.76 47.2441 L155.765 47.2441  Z" fill="#ffffff" fill-rule="evenodd" fill-opacity="1"/>
<defs>
  <clipPath id="clip162">
    <rect x="155" y="47" width="2198" height="1377"/>
  </clipPath>
</defs>
<polyline clip-path="url(#clip162)" style="stroke:#000000; stroke-linecap:round; stroke-linejoin:round; stroke-width:2; stroke-opacity:0.1; fill:none" points="155.765,1423.18 155.765,47.2441 "/>
<polyline clip-path="url(#clip162)" style="stroke:#000000; stroke-linecap:round; stroke-linejoin:round; stroke-width:2; stroke-opacity:0.1; fill:none" points="595.163,1423.18 595.163,47.2441 "/>
<polyline clip-path="url(#clip162)" style="stroke:#000000; stroke-linecap:round; stroke-linejoin:round; stroke-width:2; stroke-opacity:0.1; fill:none" points="1034.56,1423.18 1034.56,47.2441 "/>
<polyline clip-path="url(#clip162)" style="stroke:#000000; stroke-linecap:round; stroke-linejoin:round; stroke-width:2; stroke-opacity:0.1; fill:none" points="1473.96,1423.18 1473.96,47.2441 "/>
<polyline clip-path="url(#clip162)" style="stroke:#000000; stroke-linecap:round; stroke-linejoin:round; stroke-width:2; stroke-opacity:0.1; fill:none" points="1913.36,1423.18 1913.36,47.2441 "/>
<polyline clip-path="url(#clip162)" style="stroke:#000000; stroke-linecap:round; stroke-linejoin:round; stroke-width:2; stroke-opacity:0.1; fill:none" points="2352.76,1423.18 2352.76,47.2441 "/>
<polyline clip-path="url(#clip162)" style="stroke:#000000; stroke-linecap:round; stroke-linejoin:round; stroke-width:2; stroke-opacity:0.1; fill:none" points="155.765,1384.24 2352.76,1384.24 "/>
<polyline clip-path="url(#clip162)" style="stroke:#000000; stroke-linecap:round; stroke-linejoin:round; stroke-width:2; stroke-opacity:0.1; fill:none" points="155.765,1100.37 2352.76,1100.37 "/>
<polyline clip-path="url(#clip162)" style="stroke:#000000; stroke-linecap:round; stroke-linejoin:round; stroke-width:2; stroke-opacity:0.1; fill:none" points="155.765,816.496 2352.76,816.496 "/>
<polyline clip-path="url(#clip162)" style="stroke:#000000; stroke-linecap:round; stroke-linejoin:round; stroke-width:2; stroke-opacity:0.1; fill:none" points="155.765,532.625 2352.76,532.625 "/>
<polyline clip-path="url(#clip162)" style="stroke:#000000; stroke-linecap:round; stroke-linejoin:round; stroke-width:2; stroke-opacity:0.1; fill:none" points="155.765,248.753 2352.76,248.753 "/>
<polyline clip-path="url(#clip160)" style="stroke:#000000; stroke-linecap:round; stroke-linejoin:round; stroke-width:4; stroke-opacity:1; fill:none" points="155.765,1423.18 2352.76,1423.18 "/>
<polyline clip-path="url(#clip160)" style="stroke:#000000; stroke-linecap:round; stroke-linejoin:round; stroke-width:4; stroke-opacity:1; fill:none" points="155.765,1423.18 155.765,1404.28 "/>
<polyline clip-path="url(#clip160)" style="stroke:#000000; stroke-linecap:round; stroke-linejoin:round; stroke-width:4; stroke-opacity:1; fill:none" points="595.163,1423.18 595.163,1404.28 "/>
<polyline clip-path="url(#clip160)" style="stroke:#000000; stroke-linecap:round; stroke-linejoin:round; stroke-width:4; stroke-opacity:1; fill:none" points="1034.56,1423.18 1034.56,1404.28 "/>
<polyline clip-path="url(#clip160)" style="stroke:#000000; stroke-linecap:round; stroke-linejoin:round; stroke-width:4; stroke-opacity:1; fill:none" points="1473.96,1423.18 1473.96,1404.28 "/>
<polyline clip-path="url(#clip160)" style="stroke:#000000; stroke-linecap:round; stroke-linejoin:round; stroke-width:4; stroke-opacity:1; fill:none" points="1913.36,1423.18 1913.36,1404.28 "/>
<polyline clip-path="url(#clip160)" style="stroke:#000000; stroke-linecap:round; stroke-linejoin:round; stroke-width:4; stroke-opacity:1; fill:none" points="2352.76,1423.18 2352.76,1404.28 "/>
<path clip-path="url(#clip160)" d="M133.149 1454.1 Q129.538 1454.1 127.71 1457.66 Q125.904 1461.2 125.904 1468.33 Q125.904 1475.44 127.71 1479.01 Q129.538 1482.55 133.149 1482.55 Q136.784 1482.55 138.589 1479.01 Q140.418 1475.44 140.418 1468.33 Q140.418 1461.2 138.589 1457.66 Q136.784 1454.1 133.149 1454.1 M133.149 1450.39 Q138.959 1450.39 142.015 1455 Q145.094 1459.58 145.094 1468.33 Q145.094 1477.06 142.015 1481.67 Q138.959 1486.25 133.149 1486.25 Q127.339 1486.25 124.26 1481.67 Q121.205 1477.06 121.205 1468.33 Q121.205 1459.58 124.26 1455 Q127.339 1450.39 133.149 1450.39 Z" fill="#000000" fill-rule="nonzero" fill-opacity="1" /><path clip-path="url(#clip160)" d="M153.311 1479.7 L158.195 1479.7 L158.195 1485.58 L153.311 1485.58 L153.311 1479.7 Z" fill="#000000" fill-rule="nonzero" fill-opacity="1" /><path clip-path="url(#clip160)" d="M178.381 1454.1 Q174.769 1454.1 172.941 1457.66 Q171.135 1461.2 171.135 1468.33 Q171.135 1475.44 172.941 1479.01 Q174.769 1482.55 178.381 1482.55 Q182.015 1482.55 183.82 1479.01 Q185.649 1475.44 185.649 1468.33 Q185.649 1461.2 183.82 1457.66 Q182.015 1454.1 178.381 1454.1 M178.381 1450.39 Q184.191 1450.39 187.246 1455 Q190.325 1459.58 190.325 1468.33 Q190.325 1477.06 187.246 1481.67 Q184.191 1486.25 178.381 1486.25 Q172.57 1486.25 169.492 1481.67 Q166.436 1477.06 166.436 1468.33 Q166.436 1459.58 169.492 1455 Q172.57 1450.39 178.381 1450.39 Z" fill="#000000" fill-rule="nonzero" fill-opacity="1" /><path clip-path="url(#clip160)" d="M573.346 1454.1 Q569.735 1454.1 567.906 1457.66 Q566.101 1461.2 566.101 1468.33 Q566.101 1475.44 567.906 1479.01 Q569.735 1482.55 573.346 1482.55 Q576.98 1482.55 578.786 1479.01 Q580.615 1475.44 580.615 1468.33 Q580.615 1461.2 578.786 1457.66 Q576.98 1454.1 573.346 1454.1 M573.346 1450.39 Q579.156 1450.39 582.212 1455 Q585.29 1459.58 585.29 1468.33 Q585.29 1477.06 582.212 1481.67 Q579.156 1486.25 573.346 1486.25 Q567.536 1486.25 564.457 1481.67 Q561.402 1477.06 561.402 1468.33 Q561.402 1459.58 564.457 1455 Q567.536 1450.39 573.346 1450.39 Z" fill="#000000" fill-rule="nonzero" fill-opacity="1" /><path clip-path="url(#clip160)" d="M593.508 1479.7 L598.392 1479.7 L598.392 1485.58 L593.508 1485.58 L593.508 1479.7 Z" fill="#000000" fill-rule="nonzero" fill-opacity="1" /><path clip-path="url(#clip160)" d="M612.605 1481.64 L628.924 1481.64 L628.924 1485.58 L606.98 1485.58 L606.98 1481.64 Q609.642 1478.89 614.226 1474.26 Q618.832 1469.61 620.013 1468.27 Q622.258 1465.74 623.137 1464.01 Q624.04 1462.25 624.04 1460.56 Q624.04 1457.8 622.096 1456.07 Q620.175 1454.33 617.073 1454.33 Q614.874 1454.33 612.42 1455.09 Q609.989 1455.86 607.212 1457.41 L607.212 1452.69 Q610.036 1451.55 612.489 1450.97 Q614.943 1450.39 616.98 1450.39 Q622.35 1450.39 625.545 1453.08 Q628.739 1455.77 628.739 1460.26 Q628.739 1462.39 627.929 1464.31 Q627.142 1466.2 625.036 1468.8 Q624.457 1469.47 621.355 1472.69 Q618.253 1475.88 612.605 1481.64 Z" fill="#000000" fill-rule="nonzero" fill-opacity="1" /><path clip-path="url(#clip160)" d="M1011.7 1454.1 Q1008.09 1454.1 1006.26 1457.66 Q1004.46 1461.2 1004.46 1468.33 Q1004.46 1475.44 1006.26 1479.01 Q1008.09 1482.55 1011.7 1482.55 Q1015.34 1482.55 1017.14 1479.01 Q1018.97 1475.44 1018.97 1468.33 Q1018.97 1461.2 1017.14 1457.66 Q1015.34 1454.1 1011.7 1454.1 M1011.7 1450.39 Q1017.51 1450.39 1020.57 1455 Q1023.65 1459.58 1023.65 1468.33 Q1023.65 1477.06 1020.57 1481.67 Q1017.51 1486.25 1011.7 1486.25 Q1005.89 1486.25 1002.81 1481.67 Q999.758 1477.06 999.758 1468.33 Q999.758 1459.58 1002.81 1455 Q1005.89 1450.39 1011.7 1450.39 Z" fill="#000000" fill-rule="nonzero" fill-opacity="1" /><path clip-path="url(#clip160)" d="M1031.86 1479.7 L1036.75 1479.7 L1036.75 1485.58 L1031.86 1485.58 L1031.86 1479.7 Z" fill="#000000" fill-rule="nonzero" fill-opacity="1" /><path clip-path="url(#clip160)" d="M1059.78 1455.09 L1047.98 1473.54 L1059.78 1473.54 L1059.78 1455.09 M1058.55 1451.02 L1064.43 1451.02 L1064.43 1473.54 L1069.36 1473.54 L1069.36 1477.43 L1064.43 1477.43 L1064.43 1485.58 L1059.78 1485.58 L1059.78 1477.43 L1044.18 1477.43 L1044.18 1472.92 L1058.55 1451.02 Z" fill="#000000" fill-rule="nonzero" fill-opacity="1" /><path clip-path="url(#clip160)" d="M1451.26 1454.1 Q1447.65 1454.1 1445.82 1457.66 Q1444.02 1461.2 1444.02 1468.33 Q1444.02 1475.44 1445.82 1479.01 Q1447.65 1482.55 1451.26 1482.55 Q1454.9 1482.55 1456.7 1479.01 Q1458.53 1475.44 1458.53 1468.33 Q1458.53 1461.2 1456.7 1457.66 Q1454.9 1454.1 1451.26 1454.1 M1451.26 1450.39 Q1457.07 1450.39 1460.13 1455 Q1463.21 1459.58 1463.21 1468.33 Q1463.21 1477.06 1460.13 1481.67 Q1457.07 1486.25 1451.26 1486.25 Q1445.45 1486.25 1442.37 1481.67 Q1439.32 1477.06 1439.32 1468.33 Q1439.32 1459.58 1442.37 1455 Q1445.45 1450.39 1451.26 1450.39 Z" fill="#000000" fill-rule="nonzero" fill-opacity="1" /><path clip-path="url(#clip160)" d="M1471.42 1479.7 L1476.31 1479.7 L1476.31 1485.58 L1471.42 1485.58 L1471.42 1479.7 Z" fill="#000000" fill-rule="nonzero" fill-opacity="1" /><path clip-path="url(#clip160)" d="M1497.07 1466.44 Q1493.92 1466.44 1492.07 1468.59 Q1490.24 1470.74 1490.24 1474.49 Q1490.24 1478.22 1492.07 1480.39 Q1493.92 1482.55 1497.07 1482.55 Q1500.22 1482.55 1502.05 1480.39 Q1503.9 1478.22 1503.9 1474.49 Q1503.9 1470.74 1502.05 1468.59 Q1500.22 1466.44 1497.07 1466.44 M1506.36 1451.78 L1506.36 1456.04 Q1504.6 1455.21 1502.79 1454.77 Q1501.01 1454.33 1499.25 1454.33 Q1494.62 1454.33 1492.17 1457.45 Q1489.73 1460.58 1489.39 1466.9 Q1490.75 1464.89 1492.81 1463.82 Q1494.87 1462.73 1497.35 1462.73 Q1502.56 1462.73 1505.57 1465.9 Q1508.6 1469.05 1508.6 1474.49 Q1508.6 1479.82 1505.45 1483.03 Q1502.3 1486.25 1497.07 1486.25 Q1491.08 1486.25 1487.91 1481.67 Q1484.73 1477.06 1484.73 1468.33 Q1484.73 1460.14 1488.62 1455.28 Q1492.51 1450.39 1499.06 1450.39 Q1500.82 1450.39 1502.61 1450.74 Q1504.41 1451.09 1506.36 1451.78 Z" fill="#000000" fill-rule="nonzero" fill-opacity="1" /><path clip-path="url(#clip160)" d="M1890.79 1454.1 Q1887.18 1454.1 1885.35 1457.66 Q1883.54 1461.2 1883.54 1468.33 Q1883.54 1475.44 1885.35 1479.01 Q1887.18 1482.55 1890.79 1482.55 Q1894.42 1482.55 1896.23 1479.01 Q1898.06 1475.44 1898.06 1468.33 Q1898.06 1461.2 1896.23 1457.66 Q1894.42 1454.1 1890.79 1454.1 M1890.79 1450.39 Q1896.6 1450.39 1899.65 1455 Q1902.73 1459.58 1902.73 1468.33 Q1902.73 1477.06 1899.65 1481.67 Q1896.6 1486.25 1890.79 1486.25 Q1884.98 1486.25 1881.9 1481.67 Q1878.84 1477.06 1878.84 1468.33 Q1878.84 1459.58 1881.9 1455 Q1884.98 1450.39 1890.79 1450.39 Z" fill="#000000" fill-rule="nonzero" fill-opacity="1" /><path clip-path="url(#clip160)" d="M1910.95 1479.7 L1915.83 1479.7 L1915.83 1485.58 L1910.95 1485.58 L1910.95 1479.7 Z" fill="#000000" fill-rule="nonzero" fill-opacity="1" /><path clip-path="url(#clip160)" d="M1936.02 1469.17 Q1932.69 1469.17 1930.77 1470.95 Q1928.87 1472.73 1928.87 1475.86 Q1928.87 1478.98 1930.77 1480.77 Q1932.69 1482.55 1936.02 1482.55 Q1939.35 1482.55 1941.27 1480.77 Q1943.2 1478.96 1943.2 1475.86 Q1943.2 1472.73 1941.27 1470.95 Q1939.38 1469.17 1936.02 1469.17 M1931.34 1467.18 Q1928.33 1466.44 1926.64 1464.38 Q1924.98 1462.32 1924.98 1459.35 Q1924.98 1455.21 1927.92 1452.8 Q1930.88 1450.39 1936.02 1450.39 Q1941.18 1450.39 1944.12 1452.8 Q1947.06 1455.21 1947.06 1459.35 Q1947.06 1462.32 1945.37 1464.38 Q1943.7 1466.44 1940.72 1467.18 Q1944.1 1467.96 1945.97 1470.26 Q1947.87 1472.55 1947.87 1475.86 Q1947.87 1480.88 1944.79 1483.57 Q1941.74 1486.25 1936.02 1486.25 Q1930.3 1486.25 1927.22 1483.57 Q1924.17 1480.88 1924.17 1475.86 Q1924.17 1472.55 1926.07 1470.26 Q1927.96 1467.96 1931.34 1467.18 M1929.63 1459.79 Q1929.63 1462.48 1931.3 1463.98 Q1932.99 1465.49 1936.02 1465.49 Q1939.03 1465.49 1940.72 1463.98 Q1942.43 1462.48 1942.43 1459.79 Q1942.43 1457.11 1940.72 1455.6 Q1939.03 1454.1 1936.02 1454.1 Q1932.99 1454.1 1931.3 1455.6 Q1929.63 1457.11 1929.63 1459.79 Z" fill="#000000" fill-rule="nonzero" fill-opacity="1" /><path clip-path="url(#clip160)" d="M2319.91 1481.64 L2327.55 1481.64 L2327.55 1455.28 L2319.24 1456.95 L2319.24 1452.69 L2327.5 1451.02 L2332.18 1451.02 L2332.18 1481.64 L2339.82 1481.64 L2339.82 1485.58 L2319.91 1485.58 L2319.91 1481.64 Z" fill="#000000" fill-rule="nonzero" fill-opacity="1" /><path clip-path="url(#clip160)" d="M2349.26 1479.7 L2354.14 1479.7 L2354.14 1485.58 L2349.26 1485.58 L2349.26 1479.7 Z" fill="#000000" fill-rule="nonzero" fill-opacity="1" /><path clip-path="url(#clip160)" d="M2374.33 1454.1 Q2370.72 1454.1 2368.89 1457.66 Q2367.08 1461.2 2367.08 1468.33 Q2367.08 1475.44 2368.89 1479.01 Q2370.72 1482.55 2374.33 1482.55 Q2377.96 1482.55 2379.77 1479.01 Q2381.6 1475.44 2381.6 1468.33 Q2381.6 1461.2 2379.77 1457.66 Q2377.96 1454.1 2374.33 1454.1 M2374.33 1450.39 Q2380.14 1450.39 2383.2 1455 Q2386.27 1459.58 2386.27 1468.33 Q2386.27 1477.06 2383.2 1481.67 Q2380.14 1486.25 2374.33 1486.25 Q2368.52 1486.25 2365.44 1481.67 Q2362.39 1477.06 2362.39 1468.33 Q2362.39 1459.58 2365.44 1455 Q2368.52 1450.39 2374.33 1450.39 Z" fill="#000000" fill-rule="nonzero" fill-opacity="1" /><path clip-path="url(#clip160)" d="M1253.32 1522.27 L1253.32 1532.4 L1265.38 1532.4 L1265.38 1536.95 L1253.32 1536.95 L1253.32 1556.3 Q1253.32 1560.66 1254.5 1561.9 Q1255.71 1563.14 1259.37 1563.14 L1265.38 1563.14 L1265.38 1568.04 L1259.37 1568.04 Q1252.59 1568.04 1250.01 1565.53 Q1247.43 1562.98 1247.43 1556.3 L1247.43 1536.95 L1243.14 1536.95 L1243.14 1532.4 L1247.43 1532.4 L1247.43 1522.27 L1253.32 1522.27 Z" fill="#000000" fill-rule="nonzero" fill-opacity="1" /><polyline clip-path="url(#clip160)" style="stroke:#000000; stroke-linecap:round; stroke-linejoin:round; stroke-width:4; stroke-opacity:1; fill:none" points="155.765,1423.18 155.765,47.2441 "/>
<polyline clip-path="url(#clip160)" style="stroke:#000000; stroke-linecap:round; stroke-linejoin:round; stroke-width:4; stroke-opacity:1; fill:none" points="155.765,1384.24 174.663,1384.24 "/>
<polyline clip-path="url(#clip160)" style="stroke:#000000; stroke-linecap:round; stroke-linejoin:round; stroke-width:4; stroke-opacity:1; fill:none" points="155.765,1100.37 174.663,1100.37 "/>
<polyline clip-path="url(#clip160)" style="stroke:#000000; stroke-linecap:round; stroke-linejoin:round; stroke-width:4; stroke-opacity:1; fill:none" points="155.765,816.496 174.663,816.496 "/>
<polyline clip-path="url(#clip160)" style="stroke:#000000; stroke-linecap:round; stroke-linejoin:round; stroke-width:4; stroke-opacity:1; fill:none" points="155.765,532.625 174.663,532.625 "/>
<polyline clip-path="url(#clip160)" style="stroke:#000000; stroke-linecap:round; stroke-linejoin:round; stroke-width:4; stroke-opacity:1; fill:none" points="155.765,248.753 174.663,248.753 "/>
<path clip-path="url(#clip160)" d="M63.5847 1370.04 Q59.9736 1370.04 58.1449 1373.6 Q56.3393 1377.14 56.3393 1384.27 Q56.3393 1391.38 58.1449 1394.94 Q59.9736 1398.49 63.5847 1398.49 Q67.2189 1398.49 69.0244 1394.94 Q70.8531 1391.38 70.8531 1384.27 Q70.8531 1377.14 69.0244 1373.6 Q67.2189 1370.04 63.5847 1370.04 M63.5847 1366.33 Q69.3948 1366.33 72.4503 1370.94 Q75.529 1375.52 75.529 1384.27 Q75.529 1393 72.4503 1397.61 Q69.3948 1402.19 63.5847 1402.19 Q57.7745 1402.19 54.6958 1397.61 Q51.6403 1393 51.6403 1384.27 Q51.6403 1375.52 54.6958 1370.94 Q57.7745 1366.33 63.5847 1366.33 Z" fill="#000000" fill-rule="nonzero" fill-opacity="1" /><path clip-path="url(#clip160)" d="M83.7466 1395.64 L88.6308 1395.64 L88.6308 1401.52 L83.7466 1401.52 L83.7466 1395.64 Z" fill="#000000" fill-rule="nonzero" fill-opacity="1" /><path clip-path="url(#clip160)" d="M98.8622 1366.96 L117.219 1366.96 L117.219 1370.89 L103.145 1370.89 L103.145 1379.37 Q104.163 1379.02 105.182 1378.86 Q106.2 1378.67 107.219 1378.67 Q113.006 1378.67 116.385 1381.84 Q119.765 1385.01 119.765 1390.43 Q119.765 1396.01 116.293 1399.11 Q112.82 1402.19 106.501 1402.19 Q104.325 1402.19 102.057 1401.82 Q99.8113 1401.45 97.4039 1400.71 L97.4039 1396.01 Q99.4872 1397.14 101.709 1397.7 Q103.932 1398.25 106.408 1398.25 Q110.413 1398.25 112.751 1396.15 Q115.089 1394.04 115.089 1390.43 Q115.089 1386.82 112.751 1384.71 Q110.413 1382.61 106.408 1382.61 Q104.534 1382.61 102.659 1383.02 Q100.807 1383.44 98.8622 1384.32 L98.8622 1366.96 Z" fill="#000000" fill-rule="nonzero" fill-opacity="1" /><path clip-path="url(#clip160)" d="M53.3995 1113.71 L61.0384 1113.71 L61.0384 1087.35 L52.7282 1089.01 L52.7282 1084.75 L60.9921 1083.09 L65.668 1083.09 L65.668 1113.71 L73.3068 1113.71 L73.3068 1117.65 L53.3995 1117.65 L53.3995 1113.71 Z" fill="#000000" fill-rule="nonzero" fill-opacity="1" /><path clip-path="url(#clip160)" d="M82.7512 1111.77 L87.6354 1111.77 L87.6354 1117.65 L82.7512 1117.65 L82.7512 1111.77 Z" fill="#000000" fill-rule="nonzero" fill-opacity="1" /><path clip-path="url(#clip160)" d="M107.821 1086.17 Q104.209 1086.17 102.381 1089.73 Q100.575 1093.27 100.575 1100.4 Q100.575 1107.51 102.381 1111.07 Q104.209 1114.61 107.821 1114.61 Q111.455 1114.61 113.26 1111.07 Q115.089 1107.51 115.089 1100.4 Q115.089 1093.27 113.26 1089.73 Q111.455 1086.17 107.821 1086.17 M107.821 1082.46 Q113.631 1082.46 116.686 1087.07 Q119.765 1091.65 119.765 1100.4 Q119.765 1109.13 116.686 1113.74 Q113.631 1118.32 107.821 1118.32 Q102.01 1118.32 98.9317 1113.74 Q95.8761 1109.13 95.8761 1100.4 Q95.8761 1091.65 98.9317 1087.07 Q102.01 1082.46 107.821 1082.46 Z" fill="#000000" fill-rule="nonzero" fill-opacity="1" /><path clip-path="url(#clip160)" d="M54.3949 829.841 L62.0337 829.841 L62.0337 803.475 L53.7236 805.142 L53.7236 800.882 L61.9874 799.216 L66.6633 799.216 L66.6633 829.841 L74.3022 829.841 L74.3022 833.776 L54.3949 833.776 L54.3949 829.841 Z" fill="#000000" fill-rule="nonzero" fill-opacity="1" /><path clip-path="url(#clip160)" d="M83.7466 827.896 L88.6308 827.896 L88.6308 833.776 L83.7466 833.776 L83.7466 827.896 Z" fill="#000000" fill-rule="nonzero" fill-opacity="1" /><path clip-path="url(#clip160)" d="M98.8622 799.216 L117.219 799.216 L117.219 803.151 L103.145 803.151 L103.145 811.623 Q104.163 811.276 105.182 811.114 Q106.2 810.929 107.219 810.929 Q113.006 810.929 116.385 814.1 Q119.765 817.271 119.765 822.688 Q119.765 828.267 116.293 831.368 Q112.82 834.447 106.501 834.447 Q104.325 834.447 102.057 834.077 Q99.8113 833.706 97.4039 832.966 L97.4039 828.267 Q99.4872 829.401 101.709 829.956 Q103.932 830.512 106.408 830.512 Q110.413 830.512 112.751 828.405 Q115.089 826.299 115.089 822.688 Q115.089 819.077 112.751 816.97 Q110.413 814.864 106.408 814.864 Q104.534 814.864 102.659 815.281 Q100.807 815.697 98.8622 816.577 L98.8622 799.216 Z" fill="#000000" fill-rule="nonzero" fill-opacity="1" /><path clip-path="url(#clip160)" d="M56.6171 545.969 L72.9365 545.969 L72.9365 549.905 L50.9921 549.905 L50.9921 545.969 Q53.6541 543.215 58.2375 538.585 Q62.8439 533.932 64.0245 532.59 Q66.2698 530.067 67.1494 528.331 Q68.0522 526.571 68.0522 524.882 Q68.0522 522.127 66.1078 520.391 Q64.1865 518.655 61.0847 518.655 Q58.8856 518.655 56.4319 519.419 Q54.0014 520.182 51.2236 521.733 L51.2236 517.011 Q54.0477 515.877 56.5014 515.298 Q58.955 514.72 60.9921 514.72 Q66.3624 514.72 69.5568 517.405 Q72.7513 520.09 72.7513 524.581 Q72.7513 526.71 71.9411 528.632 Q71.1541 530.53 69.0476 533.122 Q68.4689 533.794 65.367 537.011 Q62.2652 540.206 56.6171 545.969 Z" fill="#000000" fill-rule="nonzero" fill-opacity="1" /><path clip-path="url(#clip160)" d="M82.7512 544.025 L87.6354 544.025 L87.6354 549.905 L82.7512 549.905 L82.7512 544.025 Z" fill="#000000" fill-rule="nonzero" fill-opacity="1" /><path clip-path="url(#clip160)" d="M107.821 518.423 Q104.209 518.423 102.381 521.988 Q100.575 525.53 100.575 532.659 Q100.575 539.766 102.381 543.331 Q104.209 546.872 107.821 546.872 Q111.455 546.872 113.26 543.331 Q115.089 539.766 115.089 532.659 Q115.089 525.53 113.26 521.988 Q111.455 518.423 107.821 518.423 M107.821 514.72 Q113.631 514.72 116.686 519.326 Q119.765 523.909 119.765 532.659 Q119.765 541.386 116.686 545.993 Q113.631 550.576 107.821 550.576 Q102.01 550.576 98.9317 545.993 Q95.8761 541.386 95.8761 532.659 Q95.8761 523.909 98.9317 519.326 Q102.01 514.72 107.821 514.72 Z" fill="#000000" fill-rule="nonzero" fill-opacity="1" /><path clip-path="url(#clip160)" d="M57.6125 262.098 L73.9318 262.098 L73.9318 266.033 L51.9875 266.033 L51.9875 262.098 Q54.6495 259.344 59.2328 254.714 Q63.8393 250.061 65.0198 248.719 Q67.2652 246.195 68.1448 244.459 Q69.0476 242.7 69.0476 241.01 Q69.0476 238.256 67.1032 236.52 Q65.1819 234.783 62.08 234.783 Q59.881 234.783 57.4273 235.547 Q54.9967 236.311 52.219 237.862 L52.219 233.14 Q55.043 232.006 57.4967 231.427 Q59.9504 230.848 61.9874 230.848 Q67.3578 230.848 70.5522 233.533 Q73.7466 236.219 73.7466 240.709 Q73.7466 242.839 72.9365 244.76 Q72.1494 246.658 70.0429 249.251 Q69.4642 249.922 66.3624 253.14 Q63.2606 256.334 57.6125 262.098 Z" fill="#000000" fill-rule="nonzero" fill-opacity="1" /><path clip-path="url(#clip160)" d="M83.7466 260.154 L88.6308 260.154 L88.6308 266.033 L83.7466 266.033 L83.7466 260.154 Z" fill="#000000" fill-rule="nonzero" fill-opacity="1" /><path clip-path="url(#clip160)" d="M98.8622 231.473 L117.219 231.473 L117.219 235.408 L103.145 235.408 L103.145 243.881 Q104.163 243.533 105.182 243.371 Q106.2 243.186 107.219 243.186 Q113.006 243.186 116.385 246.358 Q119.765 249.529 119.765 254.945 Q119.765 260.524 116.293 263.626 Q112.82 266.705 106.501 266.705 Q104.325 266.705 102.057 266.334 Q99.8113 265.964 97.4039 265.223 L97.4039 260.524 Q99.4872 261.658 101.709 262.214 Q103.932 262.769 106.408 262.769 Q110.413 262.769 112.751 260.663 Q115.089 258.557 115.089 254.945 Q115.089 251.334 112.751 249.228 Q110.413 247.121 106.408 247.121 Q104.534 247.121 102.659 247.538 Q100.807 247.955 98.8622 248.834 L98.8622 231.473 Z" fill="#000000" fill-rule="nonzero" fill-opacity="1" /><polyline clip-path="url(#clip162)" style="stroke:#009af9; stroke-linecap:round; stroke-linejoin:round; stroke-width:4; stroke-opacity:1; fill:none" points="155.765,1384.24 293.077,1287.28 430.389,1145.4 567.701,990.952 705.013,855.201 842.325,506.996 979.637,667.492 1116.95,220.23 1254.26,352.429 1391.57,396.158 1528.88,505.192 1666.2,86.1857 1803.51,247.518 1940.82,346.643 2078.13,828.569 2215.44,890.876 2352.76,622.202 "/>
<path clip-path="url(#clip160)" d="M228.998 196.789 L537.794 196.789 L537.794 93.1086 L228.998 93.1086  Z" fill="#ffffff" fill-rule="evenodd" fill-opacity="1"/>
<polyline clip-path="url(#clip160)" style="stroke:#000000; stroke-linecap:round; stroke-linejoin:round; stroke-width:4; stroke-opacity:1; fill:none" points="228.998,196.789 537.794,196.789 537.794,93.1086 228.998,93.1086 228.998,196.789 "/>
<polyline clip-path="url(#clip160)" style="stroke:#009af9; stroke-linecap:round; stroke-linejoin:round; stroke-width:4; stroke-opacity:1; fill:none" points="253.409,144.949 399.875,144.949 "/>
<path clip-path="url(#clip160)" d="M424.286 151.997 L424.286 136.303 L428.545 136.303 L428.545 151.835 Q428.545 155.516 429.98 157.368 Q431.416 159.196 434.286 159.196 Q437.735 159.196 439.726 156.997 Q441.74 154.798 441.74 151.002 L441.74 136.303 L445.999 136.303 L445.999 162.229 L441.74 162.229 L441.74 158.247 Q440.189 160.608 438.129 161.766 Q436.092 162.9 433.383 162.9 Q428.916 162.9 426.601 160.122 Q424.286 157.344 424.286 151.997 M435.004 135.678 L435.004 135.678 Z" fill="#000000" fill-rule="nonzero" fill-opacity="1" /><path clip-path="url(#clip160)" d="M454.378 126.21 L464.193 126.21 L464.193 129.52 L458.638 129.52 L458.638 165.168 L464.193 165.168 L464.193 168.479 L454.378 168.479 L454.378 126.21 Z" fill="#000000" fill-rule="nonzero" fill-opacity="1" /><path clip-path="url(#clip160)" d="M474.679 158.293 L482.318 158.293 L482.318 131.928 L474.008 133.595 L474.008 129.335 L482.272 127.669 L486.948 127.669 L486.948 158.293 L494.587 158.293 L494.587 162.229 L474.679 162.229 L474.679 158.293 Z" fill="#000000" fill-rule="nonzero" fill-opacity="1" /><path clip-path="url(#clip160)" d="M513.383 126.21 L513.383 168.479 L503.568 168.479 L503.568 165.168 L509.1 165.168 L509.1 129.52 L503.568 129.52 L503.568 126.21 L513.383 126.21 Z" fill="#000000" fill-rule="nonzero" fill-opacity="1" /></svg>
