<?xml version="1.0" encoding="utf-8"?>
<svg xmlns="http://www.w3.org/2000/svg" xmlns:xlink="http://www.w3.org/1999/xlink" width="600" height="400" viewBox="0 0 2400 1600">
<defs>
  <clipPath id="clip400">
    <rect x="0" y="0" width="2400" height="1600"/>
  </clipPath>
</defs>
<path clip-path="url(#clip400)" d="M0 1600 L2400 1600 L2400 0 L0 0  Z" fill="#ffffff" fill-rule="evenodd" fill-opacity="1"/>
<defs>
  <clipPath id="clip401">
    <rect x="480" y="0" width="1681" height="1600"/>
  </clipPath>
</defs>
<path clip-path="url(#clip400)" d="M186.274 1423.18 L2352.76 1423.18 L2352.76 47.2441 L186.274 47.2441  Z" fill="#ffffff" fill-rule="evenodd" fill-opacity="1"/>
<defs>
  <clipPath id="clip402">
    <rect x="186" y="47" width="2167" height="1377"/>
  </clipPath>
</defs>
<polyline clip-path="url(#clip402)" style="stroke:#000000; stroke-linecap:round; stroke-linejoin:round; stroke-width:2; stroke-opacity:0.1; fill:none" points="186.274,1423.18 186.274,47.2441 "/>
<polyline clip-path="url(#clip402)" style="stroke:#000000; stroke-linecap:round; stroke-linejoin:round; stroke-width:2; stroke-opacity:0.1; fill:none" points="619.57,1423.18 619.57,47.2441 "/>
<polyline clip-path="url(#clip402)" style="stroke:#000000; stroke-linecap:round; stroke-linejoin:round; stroke-width:2; stroke-opacity:0.1; fill:none" points="1052.87,1423.18 1052.87,47.2441 "/>
<polyline clip-path="url(#clip402)" style="stroke:#000000; stroke-linecap:round; stroke-linejoin:round; stroke-width:2; stroke-opacity:0.1; fill:none" points="1486.16,1423.18 1486.16,47.2441 "/>
<polyline clip-path="url(#clip402)" style="stroke:#000000; stroke-linecap:round; stroke-linejoin:round; stroke-width:2; stroke-opacity:0.1; fill:none" points="1919.46,1423.18 1919.46,47.2441 "/>
<polyline clip-path="url(#clip402)" style="stroke:#000000; stroke-linecap:round; stroke-linejoin:round; stroke-width:2; stroke-opacity:0.1; fill:none" points="2352.76,1423.18 2352.76,47.2441 "/>
<polyline clip-path="url(#clip402)" style="stroke:#000000; stroke-linecap:round; stroke-linejoin:round; stroke-width:2; stroke-opacity:0.1; fill:none" points="186.274,1242.04 2352.76,1242.04 "/>
<polyline clip-path="url(#clip402)" style="stroke:#000000; stroke-linecap:round; stroke-linejoin:round; stroke-width:2; stroke-opacity:0.1; fill:none" points="186.274,1021.62 2352.76,1021.62 "/>
<polyline clip-path="url(#clip402)" style="stroke:#000000; stroke-linecap:round; stroke-linejoin:round; stroke-width:2; stroke-opacity:0.1; fill:none" points="186.274,801.205 2352.76,801.205 "/>
<polyline clip-path="url(#clip402)" style="stroke:#000000; stroke-linecap:round; stroke-linejoin:round; stroke-width:2; stroke-opacity:0.1; fill:none" points="186.274,580.786 2352.76,580.786 "/>
<polyline clip-path="url(#clip402)" style="stroke:#000000; stroke-linecap:round; stroke-linejoin:round; stroke-width:2; stroke-opacity:0.1; fill:none" points="186.274,360.367 2352.76,360.367 "/>
<polyline clip-path="url(#clip402)" style="stroke:#000000; stroke-linecap:round; stroke-linejoin:round; stroke-width:2; stroke-opacity:0.1; fill:none" points="186.274,139.949 2352.76,139.949 "/>
<polyline clip-path="url(#clip400)" style="stroke:#000000; stroke-linecap:round; stroke-linejoin:round; stroke-width:4; stroke-opacity:1; fill:none" points="186.274,1423.18 2352.76,1423.18 "/>
<polyline clip-path="url(#clip400)" style="stroke:#000000; stroke-linecap:round; stroke-linejoin:round; stroke-width:4; stroke-opacity:1; fill:none" points="186.274,1423.18 186.274,1404.28 "/>
<polyline clip-path="url(#clip400)" style="stroke:#000000; stroke-linecap:round; stroke-linejoin:round; stroke-width:4; stroke-opacity:1; fill:none" points="619.57,1423.18 619.57,1404.28 "/>
<polyline clip-path="url(#clip400)" style="stroke:#000000; stroke-linecap:round; stroke-linejoin:round; stroke-width:4; stroke-opacity:1; fill:none" points="1052.87,1423.18 1052.87,1404.28 "/>
<polyline clip-path="url(#clip400)" style="stroke:#000000; stroke-linecap:round; stroke-linejoin:round; stroke-width:4; stroke-opacity:1; fill:none" points="1486.16,1423.18 1486.16,1404.28 "/>
<polyline clip-path="url(#clip400)" style="stroke:#000000; stroke-linecap:round; stroke-linejoin:round; stroke-width:4; stroke-opacity:1; fill:none" points="1919.46,1423.18 1919.46,1404.28 "/>
<polyline clip-path="url(#clip400)" style="stroke:#000000; stroke-linecap:round; stroke-linejoin:round; stroke-width:4; stroke-opacity:1; fill:none" points="2352.76,1423.18 2352.76,1404.28 "/>
<path clip-path="url(#clip400)" d="M163.658 1454.1 Q160.047 1454.1 158.219 1457.66 Q156.413 1461.2 156.413 1468.33 Q156.413 1475.44 158.219 1479.01 Q160.047 1482.55 163.658 1482.55 Q167.293 1482.55 169.098 1479.01 Q170.927 1475.44 170.927 1468.33 Q170.927 1461.2 169.098 1457.66 Q167.293 1454.1 163.658 1454.1 M163.658 1450.39 Q169.469 1450.39 172.524 1455 Q175.603 1459.58 175.603 1468.33 Q175.603 1477.06 172.524 1481.67 Q169.469 1486.25 163.658 1486.25 Q157.848 1486.25 154.77 1481.67 Q151.714 1477.06 151.714 1468.33 Q151.714 1459.58 154.77 1455 Q157.848 1450.39 163.658 1450.39 Z" fill="#000000" fill-rule="nonzero" fill-opacity="1" /><path clip-path="url(#clip400)" d="M183.82 1479.7 L188.705 1479.7 L188.705 1485.58 L183.82 1485.58 L183.82 1479.7 Z" fill="#000000" fill-rule="nonzero" fill-opacity="1" /><path clip-path="url(#clip400)" d="M208.89 1454.1 Q205.279 1454.1 203.45 1457.66 Q201.644 1461.2 201.644 1468.33 Q201.644 1475.44 203.45 1479.01 Q205.279 1482.55 208.89 1482.55 Q212.524 1482.55 214.329 1479.01 Q216.158 1475.44 216.158 1468.33 Q216.158 1461.2 214.329 1457.66 Q212.524 1454.1 208.89 1454.1 M208.89 1450.39 Q214.7 1450.39 217.755 1455 Q220.834 1459.58 220.834 1468.33 Q220.834 1477.06 217.755 1481.67 Q214.7 1486.25 208.89 1486.25 Q203.079 1486.25 200.001 1481.67 Q196.945 1477.06 196.945 1468.33 Q196.945 1459.58 200.001 1455 Q203.079 1450.39 208.89 1450.39 Z" fill="#000000" fill-rule="nonzero" fill-opacity="1" /><path clip-path="url(#clip400)" d="M597.753 1454.1 Q594.142 1454.1 592.314 1457.66 Q590.508 1461.2 590.508 1468.33 Q590.508 1475.44 592.314 1479.01 Q594.142 1482.55 597.753 1482.55 Q601.388 1482.55 603.193 1479.01 Q605.022 1475.44 605.022 1468.33 Q605.022 1461.2 603.193 1457.66 Q601.388 1454.1 597.753 1454.1 M597.753 1450.39 Q603.564 1450.39 606.619 1455 Q609.698 1459.58 609.698 1468.33 Q609.698 1477.06 606.619 1481.67 Q603.564 1486.25 597.753 1486.25 Q591.943 1486.25 588.865 1481.67 Q585.809 1477.06 585.809 1468.33 Q585.809 1459.58 588.865 1455 Q591.943 1450.39 597.753 1450.39 Z" fill="#000000" fill-rule="nonzero" fill-opacity="1" /><path clip-path="url(#clip400)" d="M617.915 1479.7 L622.8 1479.7 L622.8 1485.58 L617.915 1485.58 L617.915 1479.7 Z" fill="#000000" fill-rule="nonzero" fill-opacity="1" /><path clip-path="url(#clip400)" d="M637.012 1481.64 L653.332 1481.64 L653.332 1485.58 L631.387 1485.58 L631.387 1481.64 Q634.049 1478.89 638.633 1474.26 Q643.239 1469.61 644.42 1468.27 Q646.665 1465.74 647.545 1464.01 Q648.448 1462.25 648.448 1460.56 Q648.448 1457.8 646.503 1456.07 Q644.582 1454.33 641.48 1454.33 Q639.281 1454.33 636.827 1455.09 Q634.397 1455.86 631.619 1457.41 L631.619 1452.69 Q634.443 1451.55 636.897 1450.97 Q639.35 1450.39 641.387 1450.39 Q646.758 1450.39 649.952 1453.08 Q653.147 1455.77 653.147 1460.26 Q653.147 1462.39 652.336 1464.31 Q651.549 1466.2 649.443 1468.8 Q648.864 1469.47 645.762 1472.69 Q642.661 1475.88 637.012 1481.64 Z" fill="#000000" fill-rule="nonzero" fill-opacity="1" /><path clip-path="url(#clip400)" d="M1030.01 1454.1 Q1026.4 1454.1 1024.57 1457.66 Q1022.76 1461.2 1022.76 1468.33 Q1022.76 1475.44 1024.57 1479.01 Q1026.4 1482.55 1030.01 1482.55 Q1033.64 1482.55 1035.45 1479.01 Q1037.28 1475.44 1037.28 1468.33 Q1037.28 1461.2 1035.45 1457.66 Q1033.64 1454.1 1030.01 1454.1 M1030.01 1450.39 Q1035.82 1450.39 1038.87 1455 Q1041.95 1459.58 1041.95 1468.33 Q1041.95 1477.06 1038.87 1481.67 Q1035.82 1486.25 1030.01 1486.25 Q1024.2 1486.25 1021.12 1481.67 Q1018.06 1477.06 1018.06 1468.33 Q1018.06 1459.58 1021.12 1455 Q1024.2 1450.39 1030.01 1450.39 Z" fill="#000000" fill-rule="nonzero" fill-opacity="1" /><path clip-path="url(#clip400)" d="M1050.17 1479.7 L1055.05 1479.7 L1055.05 1485.58 L1050.17 1485.58 L1050.17 1479.7 Z" fill="#000000" fill-rule="nonzero" fill-opacity="1" /><path clip-path="url(#clip400)" d="M1078.09 1455.09 L1066.28 1473.54 L1078.09 1473.54 L1078.09 1455.09 M1076.86 1451.02 L1082.74 1451.02 L1082.74 1473.54 L1087.67 1473.54 L1087.67 1477.43 L1082.74 1477.43 L1082.74 1485.58 L1078.09 1485.58 L1078.09 1477.43 L1062.48 1477.43 L1062.48 1472.92 L1076.86 1451.02 Z" fill="#000000" fill-rule="nonzero" fill-opacity="1" /><path clip-path="url(#clip400)" d="M1463.47 1454.1 Q1459.86 1454.1 1458.03 1457.66 Q1456.22 1461.2 1456.22 1468.33 Q1456.22 1475.44 1458.03 1479.01 Q1459.86 1482.55 1463.47 1482.55 Q1467.1 1482.55 1468.91 1479.01 Q1470.73 1475.44 1470.73 1468.33 Q1470.73 1461.2 1468.91 1457.66 Q1467.1 1454.1 1463.47 1454.1 M1463.47 1450.39 Q1469.28 1450.39 1472.33 1455 Q1475.41 1459.58 1475.41 1468.33 Q1475.41 1477.06 1472.33 1481.67 Q1469.28 1486.25 1463.47 1486.25 Q1457.66 1486.25 1454.58 1481.67 Q1451.52 1477.06 1451.52 1468.33 Q1451.52 1459.58 1454.58 1455 Q1457.66 1450.39 1463.47 1450.39 Z" fill="#000000" fill-rule="nonzero" fill-opacity="1" /><path clip-path="url(#clip400)" d="M1483.63 1479.7 L1488.51 1479.7 L1488.51 1485.58 L1483.63 1485.58 L1483.63 1479.7 Z" fill="#000000" fill-rule="nonzero" fill-opacity="1" /><path clip-path="url(#clip400)" d="M1509.28 1466.44 Q1506.13 1466.44 1504.28 1468.59 Q1502.45 1470.74 1502.45 1474.49 Q1502.45 1478.22 1504.28 1480.39 Q1506.13 1482.55 1509.28 1482.55 Q1512.42 1482.55 1514.25 1480.39 Q1516.11 1478.22 1516.11 1474.49 Q1516.11 1470.74 1514.25 1468.59 Q1512.42 1466.44 1509.28 1466.44 M1518.56 1451.78 L1518.56 1456.04 Q1516.8 1455.21 1514.99 1454.77 Q1513.21 1454.33 1511.45 1454.33 Q1506.82 1454.33 1504.37 1457.45 Q1501.94 1460.58 1501.59 1466.9 Q1502.96 1464.89 1505.02 1463.82 Q1507.08 1462.73 1509.55 1462.73 Q1514.76 1462.73 1517.77 1465.9 Q1520.8 1469.05 1520.8 1474.49 Q1520.8 1479.82 1517.66 1483.03 Q1514.51 1486.25 1509.28 1486.25 Q1503.28 1486.25 1500.11 1481.67 Q1496.94 1477.06 1496.94 1468.33 Q1496.94 1460.14 1500.83 1455.28 Q1504.72 1450.39 1511.27 1450.39 Q1513.03 1450.39 1514.81 1450.74 Q1516.61 1451.09 1518.56 1451.78 Z" fill="#000000" fill-rule="nonzero" fill-opacity="1" /><path clip-path="url(#clip400)" d="M1896.89 1454.1 Q1893.28 1454.1 1891.45 1457.66 Q1889.64 1461.2 1889.64 1468.33 Q1889.64 1475.44 1891.45 1479.01 Q1893.28 1482.55 1896.89 1482.55 Q1900.52 1482.55 1902.33 1479.01 Q1904.16 1475.44 1904.16 1468.33 Q1904.16 1461.2 1902.33 1457.66 Q1900.52 1454.1 1896.89 1454.1 M1896.89 1450.39 Q1902.7 1450.39 1905.76 1455 Q1908.83 1459.58 1908.83 1468.33 Q1908.83 1477.06 1905.76 1481.67 Q1902.7 1486.25 1896.89 1486.25 Q1891.08 1486.25 1888 1481.67 Q1884.95 1477.06 1884.95 1468.33 Q1884.95 1459.58 1888 1455 Q1891.08 1450.39 1896.89 1450.39 Z" fill="#000000" fill-rule="nonzero" fill-opacity="1" /><path clip-path="url(#clip400)" d="M1917.05 1479.7 L1921.94 1479.7 L1921.94 1485.58 L1917.05 1485.58 L1917.05 1479.7 Z" fill="#000000" fill-rule="nonzero" fill-opacity="1" /><path clip-path="url(#clip400)" d="M1942.12 1469.17 Q1938.79 1469.17 1936.87 1470.95 Q1934.97 1472.73 1934.97 1475.86 Q1934.97 1478.98 1936.87 1480.77 Q1938.79 1482.55 1942.12 1482.55 Q1945.45 1482.55 1947.38 1480.77 Q1949.3 1478.96 1949.3 1475.86 Q1949.3 1472.73 1947.38 1470.95 Q1945.48 1469.17 1942.12 1469.17 M1937.45 1467.18 Q1934.44 1466.44 1932.75 1464.38 Q1931.08 1462.32 1931.08 1459.35 Q1931.08 1455.21 1934.02 1452.8 Q1936.98 1450.39 1942.12 1450.39 Q1947.28 1450.39 1950.22 1452.8 Q1953.16 1455.21 1953.16 1459.35 Q1953.16 1462.32 1951.47 1464.38 Q1949.81 1466.44 1946.82 1467.18 Q1950.2 1467.96 1952.08 1470.26 Q1953.97 1472.55 1953.97 1475.86 Q1953.97 1480.88 1950.89 1483.57 Q1947.84 1486.25 1942.12 1486.25 Q1936.4 1486.25 1933.33 1483.57 Q1930.27 1480.88 1930.27 1475.86 Q1930.27 1472.55 1932.17 1470.26 Q1934.07 1467.96 1937.45 1467.18 M1935.73 1459.79 Q1935.73 1462.48 1937.4 1463.98 Q1939.09 1465.49 1942.12 1465.49 Q1945.13 1465.49 1946.82 1463.98 Q1948.53 1462.48 1948.53 1459.79 Q1948.53 1457.11 1946.82 1455.6 Q1945.13 1454.1 1942.12 1454.1 Q1939.09 1454.1 1937.4 1455.6 Q1935.73 1457.11 1935.73 1459.79 Z" fill="#000000" fill-rule="nonzero" fill-opacity="1" /><path clip-path="url(#clip400)" d="M2319.91 1481.64 L2327.55 1481.64 L2327.55 1455.28 L2319.24 1456.95 L2319.24 1452.69 L2327.5 1451.02 L2332.18 1451.02 L2332.18 1481.64 L2339.82 1481.64 L2339.82 1485.58 L2319.91 1485.58 L2319.91 1481.64 Z" fill="#000000" fill-rule="nonzero" fill-opacity="1" /><path clip-path="url(#clip400)" d="M2349.26 1479.7 L2354.14 1479.7 L2354.14 1485.58 L2349.26 1485.58 L2349.26 1479.7 Z" fill="#000000" fill-rule="nonzero" fill-opacity="1" /><path clip-path="url(#clip400)" d="M2374.33 1454.1 Q2370.72 1454.1 2368.89 1457.66 Q2367.08 1461.2 2367.08 1468.33 Q2367.08 1475.44 2368.89 1479.01 Q2370.72 1482.55 2374.33 1482.55 Q2377.96 1482.55 2379.77 1479.01 Q2381.6 1475.44 2381.6 1468.33 Q2381.6 1461.2 2379.77 1457.66 Q2377.96 1454.1 2374.33 1454.1 M2374.33 1450.39 Q2380.14 1450.39 2383.2 1455 Q2386.27 1459.58 2386.27 1468.33 Q2386.27 1477.06 2383.2 1481.67 Q2380.14 1486.25 2374.33 1486.25 Q2368.52 1486.25 2365.44 1481.67 Q2362.39 1477.06 2362.39 1468.33 Q2362.39 1459.58 2365.44 1455 Q2368.52 1450.39 2374.33 1450.39 Z" fill="#000000" fill-rule="nonzero" fill-opacity="1" /><path clip-path="url(#clip400)" d="M1268.58 1522.27 L1268.58 1532.4 L1280.64 1532.4 L1280.64 1536.95 L1268.58 1536.95 L1268.58 1556.3 Q1268.58 1560.66 1269.75 1561.9 Q1270.96 1563.14 1274.62 1563.14 L1280.64 1563.14 L1280.64 1568.04 L1274.62 1568.04 Q1267.84 1568.04 1265.27 1565.53 Q1262.69 1562.98 1262.69 1556.3 L1262.69 1536.95 L1258.39 1536.95 L1258.39 1532.4 L1262.69 1532.4 L1262.69 1522.27 L1268.58 1522.27 Z" fill="#000000" fill-rule="nonzero" fill-opacity="1" /><polyline clip-path="url(#clip400)" style="stroke:#000000; stroke-linecap:round; stroke-linejoin:round; stroke-width:4; stroke-opacity:1; fill:none" points="186.274,1423.18 186.274,47.2441 "/>
<polyline clip-path="url(#clip400)" style="stroke:#000000; stroke-linecap:round; stroke-linejoin:round; stroke-width:4; stroke-opacity:1; fill:none" points="186.274,1242.04 205.172,1242.04 "/>
<polyline clip-path="url(#clip400)" style="stroke:#000000; stroke-linecap:round; stroke-linejoin:round; stroke-width:4; stroke-opacity:1; fill:none" points="186.274,1021.62 205.172,1021.62 "/>
<polyline clip-path="url(#clip400)" style="stroke:#000000; stroke-linecap:round; stroke-linejoin:round; stroke-width:4; stroke-opacity:1; fill:none" points="186.274,801.205 205.172,801.205 "/>
<polyline clip-path="url(#clip400)" style="stroke:#000000; stroke-linecap:round; stroke-linejoin:round; stroke-width:4; stroke-opacity:1; fill:none" points="186.274,580.786 205.172,580.786 "/>
<polyline clip-path="url(#clip400)" style="stroke:#000000; stroke-linecap:round; stroke-linejoin:round; stroke-width:4; stroke-opacity:1; fill:none" points="186.274,360.367 205.172,360.367 "/>
<polyline clip-path="url(#clip400)" style="stroke:#000000; stroke-linecap:round; stroke-linejoin:round; stroke-width:4; stroke-opacity:1; fill:none" points="186.274,139.949 205.172,139.949 "/>
<path clip-path="url(#clip400)" d="M62.9365 1227.84 Q59.3254 1227.84 57.4967 1231.41 Q55.6912 1234.95 55.6912 1242.08 Q55.6912 1249.18 57.4967 1252.75 Q59.3254 1256.29 62.9365 1256.29 Q66.5707 1256.29 68.3763 1252.75 Q70.205 1249.18 70.205 1242.08 Q70.205 1234.95 68.3763 1231.41 Q66.5707 1227.84 62.9365 1227.84 M62.9365 1224.14 Q68.7467 1224.14 71.8022 1228.74 Q74.8809 1233.33 74.8809 1242.08 Q74.8809 1250.8 71.8022 1255.41 Q68.7467 1259.99 62.9365 1259.99 Q57.1264 1259.99 54.0477 1255.41 Q50.9921 1250.8 50.9921 1242.08 Q50.9921 1233.33 54.0477 1228.74 Q57.1264 1224.14 62.9365 1224.14 Z" fill="#000000" fill-rule="nonzero" fill-opacity="1" /><path clip-path="url(#clip400)" d="M83.0984 1253.44 L87.9827 1253.44 L87.9827 1259.32 L83.0984 1259.32 L83.0984 1253.44 Z" fill="#000000" fill-rule="nonzero" fill-opacity="1" /><path clip-path="url(#clip400)" d="M111.015 1228.84 L99.2095 1247.29 L111.015 1247.29 L111.015 1228.84 M109.788 1224.76 L115.668 1224.76 L115.668 1247.29 L120.598 1247.29 L120.598 1251.17 L115.668 1251.17 L115.668 1259.32 L111.015 1259.32 L111.015 1251.17 L95.4132 1251.17 L95.4132 1246.66 L109.788 1224.76 Z" fill="#000000" fill-rule="nonzero" fill-opacity="1" /><path clip-path="url(#clip400)" d="M138.33 1227.84 Q134.719 1227.84 132.89 1231.41 Q131.084 1234.95 131.084 1242.08 Q131.084 1249.18 132.89 1252.75 Q134.719 1256.29 138.33 1256.29 Q141.964 1256.29 143.769 1252.75 Q145.598 1249.18 145.598 1242.08 Q145.598 1234.95 143.769 1231.41 Q141.964 1227.84 138.33 1227.84 M138.33 1224.14 Q144.14 1224.14 147.195 1228.74 Q150.274 1233.33 150.274 1242.08 Q150.274 1250.8 147.195 1255.41 Q144.14 1259.99 138.33 1259.99 Q132.519 1259.99 129.441 1255.41 Q126.385 1250.8 126.385 1242.08 Q126.385 1233.33 129.441 1228.74 Q132.519 1224.14 138.33 1224.14 Z" fill="#000000" fill-rule="nonzero" fill-opacity="1" /><path clip-path="url(#clip400)" d="M63.9319 1007.42 Q60.3208 1007.42 58.4921 1010.99 Q56.6865 1014.53 56.6865 1021.66 Q56.6865 1028.76 58.4921 1032.33 Q60.3208 1035.87 63.9319 1035.87 Q67.5661 1035.87 69.3717 1032.33 Q71.2004 1028.76 71.2004 1021.66 Q71.2004 1014.53 69.3717 1010.99 Q67.5661 1007.42 63.9319 1007.42 M63.9319 1003.72 Q69.742 1003.72 72.7976 1008.33 Q75.8763 1012.91 75.8763 1021.66 Q75.8763 1030.39 72.7976 1034.99 Q69.742 1039.58 63.9319 1039.58 Q58.1217 1039.58 55.043 1034.99 Q51.9875 1030.39 51.9875 1021.66 Q51.9875 1012.91 55.043 1008.33 Q58.1217 1003.72 63.9319 1003.72 Z" fill="#000000" fill-rule="nonzero" fill-opacity="1" /><path clip-path="url(#clip400)" d="M84.0938 1033.02 L88.978 1033.02 L88.978 1038.9 L84.0938 1038.9 L84.0938 1033.02 Z" fill="#000000" fill-rule="nonzero" fill-opacity="1" /><path clip-path="url(#clip400)" d="M112.01 1008.42 L100.205 1026.87 L112.01 1026.87 L112.01 1008.42 M110.783 1004.34 L116.663 1004.34 L116.663 1026.87 L121.594 1026.87 L121.594 1030.76 L116.663 1030.76 L116.663 1038.9 L112.01 1038.9 L112.01 1030.76 L96.4085 1030.76 L96.4085 1026.24 L110.783 1004.34 Z" fill="#000000" fill-rule="nonzero" fill-opacity="1" /><path clip-path="url(#clip400)" d="M129.371 1004.34 L147.728 1004.34 L147.728 1008.28 L133.654 1008.28 L133.654 1016.75 Q134.672 1016.4 135.691 1016.24 Q136.709 1016.06 137.728 1016.06 Q143.515 1016.06 146.894 1019.23 Q150.274 1022.4 150.274 1027.82 Q150.274 1033.39 146.802 1036.5 Q143.33 1039.58 137.01 1039.58 Q134.834 1039.58 132.566 1039.2 Q130.32 1038.83 127.913 1038.09 L127.913 1033.39 Q129.996 1034.53 132.219 1035.08 Q134.441 1035.64 136.918 1035.64 Q140.922 1035.64 143.26 1033.53 Q145.598 1031.43 145.598 1027.82 Q145.598 1024.2 143.26 1022.1 Q140.922 1019.99 136.918 1019.99 Q135.043 1019.99 133.168 1020.41 Q131.316 1020.83 129.371 1021.7 L129.371 1004.34 Z" fill="#000000" fill-rule="nonzero" fill-opacity="1" /><path clip-path="url(#clip400)" d="M62.9365 787.004 Q59.3254 787.004 57.4967 790.568 Q55.6912 794.11 55.6912 801.24 Q55.6912 808.346 57.4967 811.911 Q59.3254 815.453 62.9365 815.453 Q66.5707 815.453 68.3763 811.911 Q70.205 808.346 70.205 801.24 Q70.205 794.11 68.3763 790.568 Q66.5707 787.004 62.9365 787.004 M62.9365 783.3 Q68.7467 783.3 71.8022 787.906 Q74.8809 792.49 74.8809 801.24 Q74.8809 809.967 71.8022 814.573 Q68.7467 819.156 62.9365 819.156 Q57.1264 819.156 54.0477 814.573 Q50.9921 809.967 50.9921 801.24 Q50.9921 792.49 54.0477 787.906 Q57.1264 783.3 62.9365 783.3 Z" fill="#000000" fill-rule="nonzero" fill-opacity="1" /><path clip-path="url(#clip400)" d="M83.0984 812.605 L87.9827 812.605 L87.9827 818.485 L83.0984 818.485 L83.0984 812.605 Z" fill="#000000" fill-rule="nonzero" fill-opacity="1" /><path clip-path="url(#clip400)" d="M98.2141 783.925 L116.57 783.925 L116.57 787.86 L102.496 787.86 L102.496 796.332 Q103.515 795.985 104.534 795.823 Q105.552 795.638 106.571 795.638 Q112.358 795.638 115.737 798.809 Q119.117 801.98 119.117 807.397 Q119.117 812.976 115.645 816.078 Q112.172 819.156 105.853 819.156 Q103.677 819.156 101.409 818.786 Q99.1632 818.416 96.7558 817.675 L96.7558 812.976 Q98.8391 814.11 101.061 814.666 Q103.284 815.221 105.76 815.221 Q109.765 815.221 112.103 813.115 Q114.441 811.008 114.441 807.397 Q114.441 803.786 112.103 801.68 Q109.765 799.573 105.76 799.573 Q103.885 799.573 102.01 799.99 Q100.159 800.406 98.2141 801.286 L98.2141 783.925 Z" fill="#000000" fill-rule="nonzero" fill-opacity="1" /><path clip-path="url(#clip400)" d="M138.33 787.004 Q134.719 787.004 132.89 790.568 Q131.084 794.11 131.084 801.24 Q131.084 808.346 132.89 811.911 Q134.719 815.453 138.33 815.453 Q141.964 815.453 143.769 811.911 Q145.598 808.346 145.598 801.24 Q145.598 794.11 143.769 790.568 Q141.964 787.004 138.33 787.004 M138.33 783.3 Q144.14 783.3 147.195 787.906 Q150.274 792.49 150.274 801.24 Q150.274 809.967 147.195 814.573 Q144.14 819.156 138.33 819.156 Q132.519 819.156 129.441 814.573 Q126.385 809.967 126.385 801.24 Q126.385 792.49 129.441 787.906 Q132.519 783.3 138.33 783.3 Z" fill="#000000" fill-rule="nonzero" fill-opacity="1" /><path clip-path="url(#clip400)" d="M63.9319 566.585 Q60.3208 566.585 58.4921 570.15 Q56.6865 573.691 56.6865 580.821 Q56.6865 587.927 58.4921 591.492 Q60.3208 595.034 63.9319 595.034 Q67.5661 595.034 69.3717 591.492 Q71.2004 587.927 71.2004 580.821 Q71.2004 573.691 69.3717 570.15 Q67.5661 566.585 63.9319 566.585 M63.9319 562.881 Q69.742 562.881 72.7976 567.488 Q75.8763 572.071 75.8763 580.821 Q75.8763 589.548 72.7976 594.154 Q69.742 598.738 63.9319 598.738 Q58.1217 598.738 55.043 594.154 Q51.9875 589.548 51.9875 580.821 Q51.9875 572.071 55.043 567.488 Q58.1217 562.881 63.9319 562.881 Z" fill="#000000" fill-rule="nonzero" fill-opacity="1" /><path clip-path="url(#clip400)" d="M84.0938 592.187 L88.978 592.187 L88.978 598.066 L84.0938 598.066 L84.0938 592.187 Z" fill="#000000" fill-rule="nonzero" fill-opacity="1" /><path clip-path="url(#clip400)" d="M99.2095 563.506 L117.566 563.506 L117.566 567.441 L103.492 567.441 L103.492 575.914 Q104.51 575.566 105.529 575.404 Q106.547 575.219 107.566 575.219 Q113.353 575.219 116.733 578.39 Q120.112 581.562 120.112 586.978 Q120.112 592.557 116.64 595.659 Q113.168 598.738 106.848 598.738 Q104.672 598.738 102.404 598.367 Q100.159 597.997 97.7511 597.256 L97.7511 592.557 Q99.8345 593.691 102.057 594.247 Q104.279 594.802 106.756 594.802 Q110.76 594.802 113.098 592.696 Q115.436 590.589 115.436 586.978 Q115.436 583.367 113.098 581.261 Q110.76 579.154 106.756 579.154 Q104.881 579.154 103.006 579.571 Q101.154 579.988 99.2095 580.867 L99.2095 563.506 Z" fill="#000000" fill-rule="nonzero" fill-opacity="1" /><path clip-path="url(#clip400)" d="M129.371 563.506 L147.728 563.506 L147.728 567.441 L133.654 567.441 L133.654 575.914 Q134.672 575.566 135.691 575.404 Q136.709 575.219 137.728 575.219 Q143.515 575.219 146.894 578.39 Q150.274 581.562 150.274 586.978 Q150.274 592.557 146.802 595.659 Q143.33 598.738 137.01 598.738 Q134.834 598.738 132.566 598.367 Q130.32 597.997 127.913 597.256 L127.913 592.557 Q129.996 593.691 132.219 594.247 Q134.441 594.802 136.918 594.802 Q140.922 594.802 143.26 592.696 Q145.598 590.589 145.598 586.978 Q145.598 583.367 143.26 581.261 Q140.922 579.154 136.918 579.154 Q135.043 579.154 133.168 579.571 Q131.316 579.988 129.371 580.867 L129.371 563.506 Z" fill="#000000" fill-rule="nonzero" fill-opacity="1" /><path clip-path="url(#clip400)" d="M62.9365 346.166 Q59.3254 346.166 57.4967 349.731 Q55.6912 353.273 55.6912 360.402 Q55.6912 367.509 57.4967 371.073 Q59.3254 374.615 62.9365 374.615 Q66.5707 374.615 68.3763 371.073 Q70.205 367.509 70.205 360.402 Q70.205 353.273 68.3763 349.731 Q66.5707 346.166 62.9365 346.166 M62.9365 342.462 Q68.7467 342.462 71.8022 347.069 Q74.8809 351.652 74.8809 360.402 Q74.8809 369.129 71.8022 373.735 Q68.7467 378.319 62.9365 378.319 Q57.1264 378.319 54.0477 373.735 Q50.9921 369.129 50.9921 360.402 Q50.9921 351.652 54.0477 347.069 Q57.1264 342.462 62.9365 342.462 Z" fill="#000000" fill-rule="nonzero" fill-opacity="1" /><path clip-path="url(#clip400)" d="M83.0984 371.768 L87.9827 371.768 L87.9827 377.647 L83.0984 377.647 L83.0984 371.768 Z" fill="#000000" fill-rule="nonzero" fill-opacity="1" /><path clip-path="url(#clip400)" d="M108.746 358.504 Q105.598 358.504 103.746 360.657 Q101.918 362.81 101.918 366.56 Q101.918 370.286 103.746 372.462 Q105.598 374.615 108.746 374.615 Q111.895 374.615 113.723 372.462 Q115.575 370.286 115.575 366.56 Q115.575 362.81 113.723 360.657 Q111.895 358.504 108.746 358.504 M118.029 343.851 L118.029 348.111 Q116.27 347.277 114.464 346.837 Q112.682 346.398 110.922 346.398 Q106.293 346.398 103.839 349.523 Q101.409 352.648 101.061 358.967 Q102.427 356.953 104.487 355.888 Q106.547 354.8 109.024 354.8 Q114.233 354.8 117.242 357.972 Q120.274 361.12 120.274 366.56 Q120.274 371.884 117.126 375.101 Q113.978 378.319 108.746 378.319 Q102.751 378.319 99.5798 373.735 Q96.4085 369.129 96.4085 360.402 Q96.4085 352.208 100.297 347.347 Q104.186 342.462 110.737 342.462 Q112.496 342.462 114.279 342.81 Q116.084 343.157 118.029 343.851 Z" fill="#000000" fill-rule="nonzero" fill-opacity="1" /><path clip-path="url(#clip400)" d="M138.33 346.166 Q134.719 346.166 132.89 349.731 Q131.084 353.273 131.084 360.402 Q131.084 367.509 132.89 371.073 Q134.719 374.615 138.33 374.615 Q141.964 374.615 143.769 371.073 Q145.598 367.509 145.598 360.402 Q145.598 353.273 143.769 349.731 Q141.964 346.166 138.33 346.166 M138.33 342.462 Q144.14 342.462 147.195 347.069 Q150.274 351.652 150.274 360.402 Q150.274 369.129 147.195 373.735 Q144.14 378.319 138.33 378.319 Q132.519 378.319 129.441 373.735 Q126.385 369.129 126.385 360.402 Q126.385 351.652 129.441 347.069 Q132.519 342.462 138.33 342.462 Z" fill="#000000" fill-rule="nonzero" fill-opacity="1" /><path clip-path="url(#clip400)" d="M63.9319 125.747 Q60.3208 125.747 58.4921 129.312 Q56.6865 132.854 56.6865 139.983 Q56.6865 147.09 58.4921 150.655 Q60.3208 154.196 63.9319 154.196 Q67.5661 154.196 69.3717 150.655 Q71.2004 147.09 71.2004 139.983 Q71.2004 132.854 69.3717 129.312 Q67.5661 125.747 63.9319 125.747 M63.9319 122.044 Q69.742 122.044 72.7976 126.65 Q75.8763 131.233 75.8763 139.983 Q75.8763 148.71 72.7976 153.317 Q69.742 157.9 63.9319 157.9 Q58.1217 157.9 55.043 153.317 Q51.9875 148.71 51.9875 139.983 Q51.9875 131.233 55.043 126.65 Q58.1217 122.044 63.9319 122.044 Z" fill="#000000" fill-rule="nonzero" fill-opacity="1" /><path clip-path="url(#clip400)" d="M84.0938 151.349 L88.978 151.349 L88.978 157.229 L84.0938 157.229 L84.0938 151.349 Z" fill="#000000" fill-rule="nonzero" fill-opacity="1" /><path clip-path="url(#clip400)" d="M109.742 138.085 Q106.594 138.085 104.742 140.238 Q102.913 142.391 102.913 146.141 Q102.913 149.868 104.742 152.044 Q106.594 154.196 109.742 154.196 Q112.89 154.196 114.719 152.044 Q116.57 149.868 116.57 146.141 Q116.57 142.391 114.719 140.238 Q112.89 138.085 109.742 138.085 M119.024 123.433 L119.024 127.692 Q117.265 126.859 115.459 126.419 Q113.677 125.979 111.918 125.979 Q107.288 125.979 104.834 129.104 Q102.404 132.229 102.057 138.548 Q103.422 136.534 105.483 135.47 Q107.543 134.382 110.02 134.382 Q115.228 134.382 118.237 137.553 Q121.27 140.701 121.27 146.141 Q121.27 151.465 118.121 154.682 Q114.973 157.9 109.742 157.9 Q103.746 157.9 100.575 153.317 Q97.4039 148.71 97.4039 139.983 Q97.4039 131.789 101.293 126.928 Q105.182 122.044 111.733 122.044 Q113.492 122.044 115.274 122.391 Q117.08 122.738 119.024 123.433 Z" fill="#000000" fill-rule="nonzero" fill-opacity="1" /><path clip-path="url(#clip400)" d="M129.371 122.669 L147.728 122.669 L147.728 126.604 L133.654 126.604 L133.654 135.076 Q134.672 134.729 135.691 134.567 Q136.709 134.382 137.728 134.382 Q143.515 134.382 146.894 137.553 Q150.274 140.724 150.274 146.141 Q150.274 151.719 146.802 154.821 Q143.33 157.9 137.01 157.9 Q134.834 157.9 132.566 157.53 Q130.32 157.159 127.913 156.419 L127.913 151.719 Q129.996 152.854 132.219 153.409 Q134.441 153.965 136.918 153.965 Q140.922 153.965 143.26 151.858 Q145.598 149.752 145.598 146.141 Q145.598 142.53 143.26 140.423 Q140.922 138.317 136.918 138.317 Q135.043 138.317 133.168 138.733 Q131.316 139.15 129.371 140.03 L129.371 122.669 Z" fill="#000000" fill-rule="nonzero" fill-opacity="1" /><polyline clip-path="url(#clip402)" style="stroke:#009af9; stroke-linecap:round; stroke-linejoin:round; stroke-width:4; stroke-opacity:1; fill:none" points="186.274,801.205 321.679,669.117 348.76,1161.16 379.226,758.578 413.501,910.132 445.236,713.141 480.938,706.433 521.103,762.86 563.816,341.998 611.867,578.759 651.705,803.791 696.523,1024.69 746.923,893.273 803.623,588.762 867.41,86.1857 939.171,752.511 995.518,834.994 1058.91,1342.27 1118.65,1344.43 1185.87,1308.88 1260.13,1237.26 1342.19,911.463 1434.5,892.662 1506.71,1231.71 1582.42,1233.52 1667.6,1376.33 1744.22,1313.13 1830.41,1250.28 1915.9,901.287 2012.08,347.91 2120.28,432.25 2196.11,1223.19 2281.43,991.63 2352.76,1325.62 "/>
<polyline clip-path="url(#clip402)" style="stroke:#e26f46; stroke-linecap:round; stroke-linejoin:round; stroke-width:4; stroke-opacity:1; fill:none" points="186.274,801.205 321.679,671.729 348.76,1162.38 379.226,759.777 413.501,911.599 445.236,714.691 480.938,708.237 521.103,765.027 563.816,344.157 611.867,581.543 651.705,806.819 696.523,1027.99 746.923,896.928 803.623,592.678 867.41,90.1074 939.171,755.208 995.518,838.423 1058.91,1344.19 1118.65,1346.88 1185.87,1311.96 1260.13,1241.03 1342.19,915.411 1434.5,898.218 1506.71,1237.55 1582.42,1240.3 1667.6,1384.24 1744.22,1321.96 1830.41,1260.3 1915.9,912.64 2012.08,360.647 2120.28,448.04 2196.11,1228.89 2281.43,998.05 2352.76,1332 "/>
<path clip-path="url(#clip400)" d="M258.49 248.629 L684.165 248.629 L684.165 93.1086 L258.49 93.1086  Z" fill="#ffffff" fill-rule="evenodd" fill-opacity="1"/>
<polyline clip-path="url(#clip400)" style="stroke:#000000; stroke-linecap:round; stroke-linejoin:round; stroke-width:4; stroke-opacity:1; fill:none" points="258.49,248.629 684.165,248.629 684.165,93.1086 258.49,93.1086 258.49,248.629 "/>
<polyline clip-path="url(#clip400)" style="stroke:#009af9; stroke-linecap:round; stroke-linejoin:round; stroke-width:4; stroke-opacity:1; fill:none" points="282.562,144.949 426.994,144.949 "/>
<path clip-path="url(#clip400)" d="M451.066 151.997 L451.066 136.303 L455.325 136.303 L455.325 151.835 Q455.325 155.516 456.761 157.368 Q458.196 159.196 461.066 159.196 Q464.515 159.196 466.506 156.997 Q468.52 154.798 468.52 151.002 L468.52 136.303 L472.779 136.303 L472.779 162.229 L468.52 162.229 L468.52 158.247 Q466.969 160.608 464.909 161.766 Q462.872 162.9 460.163 162.9 Q455.696 162.9 453.381 160.122 Q451.066 157.344 451.066 151.997 M461.784 135.678 L461.784 135.678 Z" fill="#000000" fill-rule="nonzero" fill-opacity="1" /><path clip-path="url(#clip400)" d="M481.159 126.21 L490.973 126.21 L490.973 129.52 L485.418 129.52 L485.418 165.168 L490.973 165.168 L490.973 168.479 L481.159 168.479 L481.159 126.21 Z" fill="#000000" fill-rule="nonzero" fill-opacity="1" /><path clip-path="url(#clip400)" d="M501.459 158.293 L509.098 158.293 L509.098 131.928 L500.788 133.595 L500.788 129.335 L509.052 127.669 L513.728 127.669 L513.728 158.293 L521.367 158.293 L521.367 162.229 L501.459 162.229 L501.459 158.293 Z" fill="#000000" fill-rule="nonzero" fill-opacity="1" /><path clip-path="url(#clip400)" d="M540.163 126.21 L540.163 168.479 L530.348 168.479 L530.348 165.168 L535.881 165.168 L535.881 129.52 L530.348 129.52 L530.348 126.21 L540.163 126.21 Z" fill="#000000" fill-rule="nonzero" fill-opacity="1" /><polyline clip-path="url(#clip400)" style="stroke:#e26f46; stroke-linecap:round; stroke-linejoin:round; stroke-width:4; stroke-opacity:1; fill:none" points="282.562,196.789 426.994,196.789 "/>
<path clip-path="url(#clip400)" d="M451.066 179.509 L480.302 179.509 L480.302 183.444 L468.034 183.444 L468.034 214.069 L463.335 214.069 L463.335 183.444 L451.066 183.444 L451.066 179.509 Z" fill="#000000" fill-rule="nonzero" fill-opacity="1" /><path clip-path="url(#clip400)" d="M492.686 192.124 Q491.969 191.708 491.112 191.522 Q490.279 191.314 489.26 191.314 Q485.649 191.314 483.705 193.675 Q481.784 196.013 481.784 200.411 L481.784 214.069 L477.501 214.069 L477.501 188.143 L481.784 188.143 L481.784 192.171 Q483.126 189.809 485.279 188.675 Q487.432 187.518 490.51 187.518 Q490.95 187.518 491.483 187.587 Q492.015 187.634 492.663 187.749 L492.686 192.124 Z" fill="#000000" fill-rule="nonzero" fill-opacity="1" /><path clip-path="url(#clip400)" d="M496.714 203.837 L496.714 188.143 L500.973 188.143 L500.973 203.675 Q500.973 207.356 502.409 209.208 Q503.844 211.036 506.714 211.036 Q510.163 211.036 512.154 208.837 Q514.168 206.638 514.168 202.842 L514.168 188.143 L518.427 188.143 L518.427 214.069 L514.168 214.069 L514.168 210.087 Q512.617 212.448 510.557 213.606 Q508.52 214.74 505.811 214.74 Q501.344 214.74 499.029 211.962 Q496.714 209.184 496.714 203.837 M507.432 187.518 L507.432 187.518 Z" fill="#000000" fill-rule="nonzero" fill-opacity="1" /><path clip-path="url(#clip400)" d="M549.376 200.041 L549.376 202.124 L529.793 202.124 Q530.07 206.522 532.432 208.837 Q534.816 211.129 539.052 211.129 Q541.506 211.129 543.797 210.527 Q546.112 209.925 548.381 208.721 L548.381 212.749 Q546.089 213.721 543.681 214.231 Q541.274 214.74 538.797 214.74 Q532.594 214.74 528.959 211.129 Q525.348 207.518 525.348 201.36 Q525.348 194.995 528.774 191.268 Q532.223 187.518 538.057 187.518 Q543.288 187.518 546.32 190.897 Q549.376 194.254 549.376 200.041 M545.117 198.791 Q545.07 195.296 543.149 193.212 Q541.251 191.129 538.103 191.129 Q534.538 191.129 532.385 193.143 Q530.256 195.157 529.932 198.814 L545.117 198.791 Z" fill="#000000" fill-rule="nonzero" fill-opacity="1" /><path clip-path="url(#clip400)" d="M570.996 203.837 L570.996 188.143 L575.255 188.143 L575.255 203.675 Q575.255 207.356 576.691 209.208 Q578.126 211.036 580.996 211.036 Q584.445 211.036 586.436 208.837 Q588.45 206.638 588.45 202.842 L588.45 188.143 L592.709 188.143 L592.709 214.069 L588.45 214.069 L588.45 210.087 Q586.899 212.448 584.839 213.606 Q582.802 214.74 580.093 214.74 Q575.626 214.74 573.311 211.962 Q570.996 209.184 570.996 203.837 M581.714 187.518 L581.714 187.518 Z" fill="#000000" fill-rule="nonzero" fill-opacity="1" /><path clip-path="url(#clip400)" d="M601.089 178.05 L610.903 178.05 L610.903 181.36 L605.348 181.36 L605.348 217.008 L610.903 217.008 L610.903 220.319 L601.089 220.319 L601.089 178.05 Z" fill="#000000" fill-rule="nonzero" fill-opacity="1" /><path clip-path="url(#clip400)" d="M621.389 210.133 L629.028 210.133 L629.028 183.768 L620.718 185.435 L620.718 181.175 L628.982 179.509 L633.658 179.509 L633.658 210.133 L641.297 210.133 L641.297 214.069 L621.389 214.069 L621.389 210.133 Z" fill="#000000" fill-rule="nonzero" fill-opacity="1" /><path clip-path="url(#clip400)" d="M660.093 178.05 L660.093 220.319 L650.278 220.319 L650.278 217.008 L655.811 217.008 L655.811 181.36 L650.278 181.36 L650.278 178.05 L660.093 178.05 Z" fill="#000000" fill-rule="nonzero" fill-opacity="1" /></svg>
