<?xml version="1.0" encoding="utf-8"?>
<svg xmlns="http://www.w3.org/2000/svg" xmlns:xlink="http://www.w3.org/1999/xlink" width="600" height="400" viewBox="0 0 2400 1600">
<defs>
  <clipPath id="clip340">
    <rect x="0" y="0" width="2400" height="1600"/>
  </clipPath>
</defs>
<path clip-path="url(#clip340)" d="M0 1600 L2400 1600 L2400 0 L0 0  Z" fill="#ffffff" fill-rule="evenodd" fill-opacity="1"/>
<defs>
  <clipPath id="clip341">
    <rect x="480" y="0" width="1681" height="1600"/>
  </clipPath>
</defs>
<path clip-path="url(#clip340)" d="M156.598 1423.18 L2352.76 1423.18 L2352.76 47.2441 L156.598 47.2441  Z" fill="#ffffff" fill-rule="evenodd" fill-opacity="1"/>
<defs>
  <clipPath id="clip342">
    <rect x="156" y="47" width="2197" height="1377"/>
  </clipPath>
</defs>
<polyline clip-path="url(#clip342)" style="stroke:#000000; stroke-linecap:round; stroke-linejoin:round; stroke-width:2; stroke-opacity:0.1; fill:none" points="156.598,1423.18 156.598,47.2441 "/>
<polyline clip-path="url(#clip342)" style="stroke:#000000; stroke-linecap:round; stroke-linejoin:round; stroke-width:2; stroke-opacity:0.1; fill:none" points="595.83,1423.18 595.83,47.2441 "/>
<polyline clip-path="url(#clip342)" style="stroke:#000000; stroke-linecap:round; stroke-linejoin:round; stroke-width:2; stroke-opacity:0.1; fill:none" points="1035.06,1423.18 1035.06,47.2441 "/>
<polyline clip-path="url(#clip342)" style="stroke:#000000; stroke-linecap:round; stroke-linejoin:round; stroke-width:2; stroke-opacity:0.1; fill:none" points="1474.29,1423.18 1474.29,47.2441 "/>
<polyline clip-path="url(#clip342)" style="stroke:#000000; stroke-linecap:round; stroke-linejoin:round; stroke-width:2; stroke-opacity:0.1; fill:none" points="1913.52,1423.18 1913.52,47.2441 "/>
<polyline clip-path="url(#clip342)" style="stroke:#000000; stroke-linecap:round; stroke-linejoin:round; stroke-width:2; stroke-opacity:0.1; fill:none" points="2352.76,1423.18 2352.76,47.2441 "/>
<polyline clip-path="url(#clip342)" style="stroke:#000000; stroke-linecap:round; stroke-linejoin:round; stroke-width:2; stroke-opacity:0.1; fill:none" points="156.598,1245.05 2352.76,1245.05 "/>
<polyline clip-path="url(#clip342)" style="stroke:#000000; stroke-linecap:round; stroke-linejoin:round; stroke-width:2; stroke-opacity:0.1; fill:none" points="156.598,969.049 2352.76,969.049 "/>
<polyline clip-path="url(#clip342)" style="stroke:#000000; stroke-linecap:round; stroke-linejoin:round; stroke-width:2; stroke-opacity:0.1; fill:none" points="156.598,693.048 2352.76,693.048 "/>
<polyline clip-path="url(#clip342)" style="stroke:#000000; stroke-linecap:round; stroke-linejoin:round; stroke-width:2; stroke-opacity:0.1; fill:none" points="156.598,417.048 2352.76,417.048 "/>
<polyline clip-path="url(#clip342)" style="stroke:#000000; stroke-linecap:round; stroke-linejoin:round; stroke-width:2; stroke-opacity:0.1; fill:none" points="156.598,141.047 2352.76,141.047 "/>
<polyline clip-path="url(#clip340)" style="stroke:#000000; stroke-linecap:round; stroke-linejoin:round; stroke-width:4; stroke-opacity:1; fill:none" points="156.598,1423.18 2352.76,1423.18 "/>
<polyline clip-path="url(#clip340)" style="stroke:#000000; stroke-linecap:round; stroke-linejoin:round; stroke-width:4; stroke-opacity:1; fill:none" points="156.598,1423.18 156.598,1404.28 "/>
<polyline clip-path="url(#clip340)" style="stroke:#000000; stroke-linecap:round; stroke-linejoin:round; stroke-width:4; stroke-opacity:1; fill:none" points="595.83,1423.18 595.83,1404.28 "/>
<polyline clip-path="url(#clip340)" style="stroke:#000000; stroke-linecap:round; stroke-linejoin:round; stroke-width:4; stroke-opacity:1; fill:none" points="1035.06,1423.18 1035.06,1404.28 "/>
<polyline clip-path="url(#clip340)" style="stroke:#000000; stroke-linecap:round; stroke-linejoin:round; stroke-width:4; stroke-opacity:1; fill:none" points="1474.29,1423.18 1474.29,1404.28 "/>
<polyline clip-path="url(#clip340)" style="stroke:#000000; stroke-linecap:round; stroke-linejoin:round; stroke-width:4; stroke-opacity:1; fill:none" points="1913.52,1423.18 1913.52,1404.28 "/>
<polyline clip-path="url(#clip340)" style="stroke:#000000; stroke-linecap:round; stroke-linejoin:round; stroke-width:4; stroke-opacity:1; fill:none" points="2352.76,1423.18 2352.76,1404.28 "/>
<path clip-path="url(#clip340)" d="M133.983 1454.1 Q130.372 1454.1 128.543 1457.66 Q126.737 1461.2 126.737 1468.33 Q126.737 1475.44 128.543 1479.01 Q130.372 1482.55 133.983 1482.55 Q137.617 1482.55 139.422 1479.01 Q141.251 1475.44 141.251 1468.33 Q141.251 1461.2 139.422 1457.66 Q137.617 1454.1 133.983 1454.1 M133.983 1450.39 Q139.793 1450.39 142.848 1455 Q145.927 1459.58 145.927 1468.33 Q145.927 1477.06 142.848 1481.67 Q139.793 1486.25 133.983 1486.25 Q128.172 1486.25 125.094 1481.67 Q122.038 1477.06 122.038 1468.33 Q122.038 1459.58 125.094 1455 Q128.172 1450.39 133.983 1450.39 Z" fill="#000000" fill-rule="nonzero" fill-opacity="1" /><path clip-path="url(#clip340)" d="M154.145 1479.7 L159.029 1479.7 L159.029 1485.58 L154.145 1485.58 L154.145 1479.7 Z" fill="#000000" fill-rule="nonzero" fill-opacity="1" /><path clip-path="url(#clip340)" d="M179.214 1454.1 Q175.603 1454.1 173.774 1457.66 Q171.969 1461.2 171.969 1468.33 Q171.969 1475.44 173.774 1479.01 Q175.603 1482.55 179.214 1482.55 Q182.848 1482.55 184.654 1479.01 Q186.482 1475.44 186.482 1468.33 Q186.482 1461.2 184.654 1457.66 Q182.848 1454.1 179.214 1454.1 M179.214 1450.39 Q185.024 1450.39 188.08 1455 Q191.158 1459.58 191.158 1468.33 Q191.158 1477.06 188.08 1481.67 Q185.024 1486.25 179.214 1486.25 Q173.404 1486.25 170.325 1481.67 Q167.269 1477.06 167.269 1468.33 Q167.269 1459.58 170.325 1455 Q173.404 1450.39 179.214 1450.39 Z" fill="#000000" fill-rule="nonzero" fill-opacity="1" /><path clip-path="url(#clip340)" d="M574.013 1454.1 Q570.402 1454.1 568.573 1457.66 Q566.767 1461.2 566.767 1468.33 Q566.767 1475.44 568.573 1479.01 Q570.402 1482.55 574.013 1482.55 Q577.647 1482.55 579.453 1479.01 Q581.281 1475.44 581.281 1468.33 Q581.281 1461.2 579.453 1457.66 Q577.647 1454.1 574.013 1454.1 M574.013 1450.39 Q579.823 1450.39 582.878 1455 Q585.957 1459.58 585.957 1468.33 Q585.957 1477.06 582.878 1481.67 Q579.823 1486.25 574.013 1486.25 Q568.203 1486.25 565.124 1481.67 Q562.068 1477.06 562.068 1468.33 Q562.068 1459.58 565.124 1455 Q568.203 1450.39 574.013 1450.39 Z" fill="#000000" fill-rule="nonzero" fill-opacity="1" /><path clip-path="url(#clip340)" d="M594.175 1479.7 L599.059 1479.7 L599.059 1485.58 L594.175 1485.58 L594.175 1479.7 Z" fill="#000000" fill-rule="nonzero" fill-opacity="1" /><path clip-path="url(#clip340)" d="M613.272 1481.64 L629.591 1481.64 L629.591 1485.58 L607.647 1485.58 L607.647 1481.64 Q610.309 1478.89 614.892 1474.26 Q619.499 1469.61 620.679 1468.27 Q622.925 1465.74 623.804 1464.01 Q624.707 1462.25 624.707 1460.56 Q624.707 1457.8 622.762 1456.07 Q620.841 1454.33 617.739 1454.33 Q615.54 1454.33 613.087 1455.09 Q610.656 1455.86 607.878 1457.41 L607.878 1452.69 Q610.702 1451.55 613.156 1450.97 Q615.61 1450.39 617.647 1450.39 Q623.017 1450.39 626.212 1453.08 Q629.406 1455.77 629.406 1460.26 Q629.406 1462.39 628.596 1464.31 Q627.809 1466.2 625.702 1468.8 Q625.124 1469.47 622.022 1472.69 Q618.92 1475.88 613.272 1481.64 Z" fill="#000000" fill-rule="nonzero" fill-opacity="1" /><path clip-path="url(#clip340)" d="M1012.2 1454.1 Q1008.59 1454.1 1006.76 1457.66 Q1004.96 1461.2 1004.96 1468.33 Q1004.96 1475.44 1006.76 1479.01 Q1008.59 1482.55 1012.2 1482.55 Q1015.84 1482.55 1017.64 1479.01 Q1019.47 1475.44 1019.47 1468.33 Q1019.47 1461.2 1017.64 1457.66 Q1015.84 1454.1 1012.2 1454.1 M1012.2 1450.39 Q1018.01 1450.39 1021.07 1455 Q1024.15 1459.58 1024.15 1468.33 Q1024.15 1477.06 1021.07 1481.67 Q1018.01 1486.25 1012.2 1486.25 Q1006.39 1486.25 1003.31 1481.67 Q1000.26 1477.06 1000.26 1468.33 Q1000.26 1459.58 1003.31 1455 Q1006.39 1450.39 1012.2 1450.39 Z" fill="#000000" fill-rule="nonzero" fill-opacity="1" /><path clip-path="url(#clip340)" d="M1032.36 1479.7 L1037.25 1479.7 L1037.25 1485.58 L1032.36 1485.58 L1032.36 1479.7 Z" fill="#000000" fill-rule="nonzero" fill-opacity="1" /><path clip-path="url(#clip340)" d="M1060.28 1455.09 L1048.48 1473.54 L1060.28 1473.54 L1060.28 1455.09 M1059.05 1451.02 L1064.93 1451.02 L1064.93 1473.54 L1069.86 1473.54 L1069.86 1477.43 L1064.93 1477.43 L1064.93 1485.58 L1060.28 1485.58 L1060.28 1477.43 L1044.68 1477.43 L1044.68 1472.92 L1059.05 1451.02 Z" fill="#000000" fill-rule="nonzero" fill-opacity="1" /><path clip-path="url(#clip340)" d="M1451.6 1454.1 Q1447.99 1454.1 1446.16 1457.66 Q1444.35 1461.2 1444.35 1468.33 Q1444.35 1475.44 1446.16 1479.01 Q1447.99 1482.55 1451.6 1482.55 Q1455.23 1482.55 1457.04 1479.01 Q1458.86 1475.44 1458.86 1468.33 Q1458.86 1461.2 1457.04 1457.66 Q1455.23 1454.1 1451.6 1454.1 M1451.6 1450.39 Q1457.41 1450.39 1460.46 1455 Q1463.54 1459.58 1463.54 1468.33 Q1463.54 1477.06 1460.46 1481.67 Q1457.41 1486.25 1451.6 1486.25 Q1445.79 1486.25 1442.71 1481.67 Q1439.65 1477.06 1439.65 1468.33 Q1439.65 1459.58 1442.71 1455 Q1445.79 1450.39 1451.6 1450.39 Z" fill="#000000" fill-rule="nonzero" fill-opacity="1" /><path clip-path="url(#clip340)" d="M1471.76 1479.7 L1476.64 1479.7 L1476.64 1485.58 L1471.76 1485.58 L1471.76 1479.7 Z" fill="#000000" fill-rule="nonzero" fill-opacity="1" /><path clip-path="url(#clip340)" d="M1497.41 1466.44 Q1494.26 1466.44 1492.41 1468.59 Q1490.58 1470.74 1490.58 1474.49 Q1490.58 1478.22 1492.41 1480.39 Q1494.26 1482.55 1497.41 1482.55 Q1500.55 1482.55 1502.38 1480.39 Q1504.23 1478.22 1504.23 1474.49 Q1504.23 1470.74 1502.38 1468.59 Q1500.55 1466.44 1497.41 1466.44 M1506.69 1451.78 L1506.69 1456.04 Q1504.93 1455.21 1503.12 1454.77 Q1501.34 1454.33 1499.58 1454.33 Q1494.95 1454.33 1492.5 1457.45 Q1490.07 1460.58 1489.72 1466.9 Q1491.09 1464.89 1493.15 1463.82 Q1495.21 1462.73 1497.68 1462.73 Q1502.89 1462.73 1505.9 1465.9 Q1508.93 1469.05 1508.93 1474.49 Q1508.93 1479.82 1505.79 1483.03 Q1502.64 1486.25 1497.41 1486.25 Q1491.41 1486.25 1488.24 1481.67 Q1485.07 1477.06 1485.07 1468.33 Q1485.07 1460.14 1488.96 1455.28 Q1492.85 1450.39 1499.4 1450.39 Q1501.16 1450.39 1502.94 1450.74 Q1504.74 1451.09 1506.69 1451.78 Z" fill="#000000" fill-rule="nonzero" fill-opacity="1" /><path clip-path="url(#clip340)" d="M1890.96 1454.1 Q1887.34 1454.1 1885.52 1457.66 Q1883.71 1461.2 1883.71 1468.33 Q1883.71 1475.44 1885.52 1479.01 Q1887.34 1482.55 1890.96 1482.55 Q1894.59 1482.55 1896.39 1479.01 Q1898.22 1475.44 1898.22 1468.33 Q1898.22 1461.2 1896.39 1457.66 Q1894.59 1454.1 1890.96 1454.1 M1890.96 1450.39 Q1896.77 1450.39 1899.82 1455 Q1902.9 1459.58 1902.9 1468.33 Q1902.9 1477.06 1899.82 1481.67 Q1896.77 1486.25 1890.96 1486.25 Q1885.14 1486.25 1882.07 1481.67 Q1879.01 1477.06 1879.01 1468.33 Q1879.01 1459.58 1882.07 1455 Q1885.14 1450.39 1890.96 1450.39 Z" fill="#000000" fill-rule="nonzero" fill-opacity="1" /><path clip-path="url(#clip340)" d="M1911.12 1479.7 L1916 1479.7 L1916 1485.58 L1911.12 1485.58 L1911.12 1479.7 Z" fill="#000000" fill-rule="nonzero" fill-opacity="1" /><path clip-path="url(#clip340)" d="M1936.19 1469.17 Q1932.85 1469.17 1930.93 1470.95 Q1929.03 1472.73 1929.03 1475.86 Q1929.03 1478.98 1930.93 1480.77 Q1932.85 1482.55 1936.19 1482.55 Q1939.52 1482.55 1941.44 1480.77 Q1943.36 1478.96 1943.36 1475.86 Q1943.36 1472.73 1941.44 1470.95 Q1939.54 1469.17 1936.19 1469.17 M1931.51 1467.18 Q1928.5 1466.44 1926.81 1464.38 Q1925.14 1462.32 1925.14 1459.35 Q1925.14 1455.21 1928.08 1452.8 Q1931.05 1450.39 1936.19 1450.39 Q1941.35 1450.39 1944.29 1452.8 Q1947.23 1455.21 1947.23 1459.35 Q1947.23 1462.32 1945.54 1464.38 Q1943.87 1466.44 1940.89 1467.18 Q1944.26 1467.96 1946.14 1470.26 Q1948.04 1472.55 1948.04 1475.86 Q1948.04 1480.88 1944.96 1483.57 Q1941.9 1486.25 1936.19 1486.25 Q1930.47 1486.25 1927.39 1483.57 Q1924.33 1480.88 1924.33 1475.86 Q1924.33 1472.55 1926.23 1470.26 Q1928.13 1467.96 1931.51 1467.18 M1929.8 1459.79 Q1929.8 1462.48 1931.46 1463.98 Q1933.15 1465.49 1936.19 1465.49 Q1939.2 1465.49 1940.89 1463.98 Q1942.6 1462.48 1942.6 1459.79 Q1942.6 1457.11 1940.89 1455.6 Q1939.2 1454.1 1936.19 1454.1 Q1933.15 1454.1 1931.46 1455.6 Q1929.8 1457.11 1929.8 1459.79 Z" fill="#000000" fill-rule="nonzero" fill-opacity="1" /><path clip-path="url(#clip340)" d="M2319.91 1481.64 L2327.55 1481.64 L2327.55 1455.28 L2319.24 1456.95 L2319.24 1452.69 L2327.5 1451.02 L2332.18 1451.02 L2332.18 1481.64 L2339.82 1481.64 L2339.82 1485.58 L2319.91 1485.58 L2319.91 1481.64 Z" fill="#000000" fill-rule="nonzero" fill-opacity="1" /><path clip-path="url(#clip340)" d="M2349.26 1479.7 L2354.14 1479.7 L2354.14 1485.58 L2349.26 1485.58 L2349.26 1479.7 Z" fill="#000000" fill-rule="nonzero" fill-opacity="1" /><path clip-path="url(#clip340)" d="M2374.33 1454.1 Q2370.72 1454.1 2368.89 1457.66 Q2367.08 1461.2 2367.08 1468.33 Q2367.08 1475.44 2368.89 1479.01 Q2370.72 1482.55 2374.33 1482.55 Q2377.96 1482.55 2379.77 1479.01 Q2381.6 1475.44 2381.6 1468.33 Q2381.6 1461.2 2379.77 1457.66 Q2377.96 1454.1 2374.33 1454.1 M2374.33 1450.39 Q2380.14 1450.39 2383.2 1455 Q2386.27 1459.58 2386.27 1468.33 Q2386.27 1477.06 2383.2 1481.67 Q2380.14 1486.25 2374.33 1486.25 Q2368.52 1486.25 2365.44 1481.67 Q2362.39 1477.06 2362.39 1468.33 Q2362.39 1459.58 2365.44 1455 Q2368.52 1450.39 2374.33 1450.39 Z" fill="#000000" fill-rule="nonzero" fill-opacity="1" /><path clip-path="url(#clip340)" d="M1253.74 1522.27 L1253.74 1532.4 L1265.8 1532.4 L1265.8 1536.95 L1253.74 1536.95 L1253.74 1556.3 Q1253.74 1560.66 1254.92 1561.9 Q1256.13 1563.14 1259.79 1563.14 L1265.8 1563.14 L1265.8 1568.04 L1259.79 1568.04 Q1253.01 1568.04 1250.43 1565.53 Q1247.85 1562.98 1247.85 1556.3 L1247.85 1536.95 L1243.55 1536.95 L1243.55 1532.4 L1247.85 1532.4 L1247.85 1522.27 L1253.74 1522.27 Z" fill="#000000" fill-rule="nonzero" fill-opacity="1" /><polyline clip-path="url(#clip340)" style="stroke:#000000; stroke-linecap:round; stroke-linejoin:round; stroke-width:4; stroke-opacity:1; fill:none" points="156.598,1423.18 156.598,47.2441 "/>
<polyline clip-path="url(#clip340)" style="stroke:#000000; stroke-linecap:round; stroke-linejoin:round; stroke-width:4; stroke-opacity:1; fill:none" points="156.598,1245.05 175.496,1245.05 "/>
<polyline clip-path="url(#clip340)" style="stroke:#000000; stroke-linecap:round; stroke-linejoin:round; stroke-width:4; stroke-opacity:1; fill:none" points="156.598,969.049 175.496,969.049 "/>
<polyline clip-path="url(#clip340)" style="stroke:#000000; stroke-linecap:round; stroke-linejoin:round; stroke-width:4; stroke-opacity:1; fill:none" points="156.598,693.048 175.496,693.048 "/>
<polyline clip-path="url(#clip340)" style="stroke:#000000; stroke-linecap:round; stroke-linejoin:round; stroke-width:4; stroke-opacity:1; fill:none" points="156.598,417.048 175.496,417.048 "/>
<polyline clip-path="url(#clip340)" style="stroke:#000000; stroke-linecap:round; stroke-linejoin:round; stroke-width:4; stroke-opacity:1; fill:none" points="156.598,141.047 175.496,141.047 "/>
<path clip-path="url(#clip340)" d="M64.6495 1230.85 Q61.0384 1230.85 59.2097 1234.41 Q57.4041 1237.96 57.4041 1245.08 Q57.4041 1252.19 59.2097 1255.76 Q61.0384 1259.3 64.6495 1259.3 Q68.2837 1259.3 70.0892 1255.76 Q71.9179 1252.19 71.9179 1245.08 Q71.9179 1237.96 70.0892 1234.41 Q68.2837 1230.85 64.6495 1230.85 M64.6495 1227.15 Q70.4596 1227.15 73.5152 1231.75 Q76.5938 1236.33 76.5938 1245.08 Q76.5938 1253.81 73.5152 1258.42 Q70.4596 1263 64.6495 1263 Q58.8393 1263 55.7606 1258.42 Q52.7051 1253.81 52.7051 1245.08 Q52.7051 1236.33 55.7606 1231.75 Q58.8393 1227.15 64.6495 1227.15 Z" fill="#000000" fill-rule="nonzero" fill-opacity="1" /><path clip-path="url(#clip340)" d="M84.8114 1256.45 L89.6956 1256.45 L89.6956 1262.33 L84.8114 1262.33 L84.8114 1256.45 Z" fill="#000000" fill-rule="nonzero" fill-opacity="1" /><path clip-path="url(#clip340)" d="M100.691 1258.39 L108.33 1258.39 L108.33 1232.03 L100.02 1233.7 L100.02 1229.44 L108.283 1227.77 L112.959 1227.77 L112.959 1258.39 L120.598 1258.39 L120.598 1262.33 L100.691 1262.33 L100.691 1258.39 Z" fill="#000000" fill-rule="nonzero" fill-opacity="1" /><path clip-path="url(#clip340)" d="M65.0198 954.848 Q61.4087 954.848 59.58 958.413 Q57.7745 961.954 57.7745 969.084 Q57.7745 976.19 59.58 979.755 Q61.4087 983.297 65.0198 983.297 Q68.6541 983.297 70.4596 979.755 Q72.2883 976.19 72.2883 969.084 Q72.2883 961.954 70.4596 958.413 Q68.6541 954.848 65.0198 954.848 M65.0198 951.144 Q70.83 951.144 73.8855 955.751 Q76.9642 960.334 76.9642 969.084 Q76.9642 977.811 73.8855 982.417 Q70.83 987.001 65.0198 987.001 Q59.2097 987.001 56.131 982.417 Q53.0754 977.811 53.0754 969.084 Q53.0754 960.334 56.131 955.751 Q59.2097 951.144 65.0198 951.144 Z" fill="#000000" fill-rule="nonzero" fill-opacity="1" /><path clip-path="url(#clip340)" d="M85.1818 980.45 L90.066 980.45 L90.066 986.329 L85.1818 986.329 L85.1818 980.45 Z" fill="#000000" fill-rule="nonzero" fill-opacity="1" /><path clip-path="url(#clip340)" d="M104.279 982.394 L120.598 982.394 L120.598 986.329 L98.6539 986.329 L98.6539 982.394 Q101.316 979.64 105.899 975.01 Q110.506 970.357 111.686 969.015 Q113.932 966.491 114.811 964.755 Q115.714 962.996 115.714 961.306 Q115.714 958.552 113.77 956.816 Q111.848 955.079 108.746 955.079 Q106.547 955.079 104.094 955.843 Q101.663 956.607 98.8854 958.158 L98.8854 953.436 Q101.709 952.302 104.163 951.723 Q106.617 951.144 108.654 951.144 Q114.024 951.144 117.219 953.829 Q120.413 956.515 120.413 961.005 Q120.413 963.135 119.603 965.056 Q118.816 966.954 116.709 969.547 Q116.131 970.218 113.029 973.436 Q109.927 976.63 104.279 982.394 Z" fill="#000000" fill-rule="nonzero" fill-opacity="1" /><path clip-path="url(#clip340)" d="M64.0708 678.847 Q60.4597 678.847 58.631 682.412 Q56.8254 685.954 56.8254 693.083 Q56.8254 700.19 58.631 703.754 Q60.4597 707.296 64.0708 707.296 Q67.705 707.296 69.5105 703.754 Q71.3392 700.19 71.3392 693.083 Q71.3392 685.954 69.5105 682.412 Q67.705 678.847 64.0708 678.847 M64.0708 675.143 Q69.8809 675.143 72.9365 679.75 Q76.0151 684.333 76.0151 693.083 Q76.0151 701.81 72.9365 706.416 Q69.8809 711 64.0708 711 Q58.2606 711 55.1819 706.416 Q52.1264 701.81 52.1264 693.083 Q52.1264 684.333 55.1819 679.75 Q58.2606 675.143 64.0708 675.143 Z" fill="#000000" fill-rule="nonzero" fill-opacity="1" /><path clip-path="url(#clip340)" d="M84.2327 704.449 L89.1169 704.449 L89.1169 710.328 L84.2327 710.328 L84.2327 704.449 Z" fill="#000000" fill-rule="nonzero" fill-opacity="1" /><path clip-path="url(#clip340)" d="M113.469 691.694 Q116.825 692.412 118.7 694.68 Q120.598 696.949 120.598 700.282 Q120.598 705.398 117.08 708.199 Q113.561 711 107.08 711 Q104.904 711 102.589 710.56 Q100.297 710.143 97.8437 709.287 L97.8437 704.773 Q99.7882 705.907 102.103 706.486 Q104.418 707.065 106.941 707.065 Q111.339 707.065 113.631 705.328 Q115.945 703.592 115.945 700.282 Q115.945 697.227 113.793 695.514 Q111.663 693.778 107.844 693.778 L103.816 693.778 L103.816 689.935 L108.029 689.935 Q111.478 689.935 113.307 688.569 Q115.135 687.18 115.135 684.588 Q115.135 681.926 113.237 680.514 Q111.362 679.079 107.844 679.079 Q105.922 679.079 103.723 679.495 Q101.524 679.912 98.8854 680.792 L98.8854 676.625 Q101.547 675.884 103.862 675.514 Q106.2 675.143 108.26 675.143 Q113.584 675.143 116.686 677.574 Q119.788 679.981 119.788 684.102 Q119.788 686.972 118.145 688.963 Q116.501 690.93 113.469 691.694 Z" fill="#000000" fill-rule="nonzero" fill-opacity="1" /><path clip-path="url(#clip340)" d="M62.9365 402.846 Q59.3254 402.846 57.4967 406.411 Q55.6912 409.953 55.6912 417.082 Q55.6912 424.189 57.4967 427.754 Q59.3254 431.295 62.9365 431.295 Q66.5707 431.295 68.3763 427.754 Q70.205 424.189 70.205 417.082 Q70.205 409.953 68.3763 406.411 Q66.5707 402.846 62.9365 402.846 M62.9365 399.143 Q68.7467 399.143 71.8022 403.749 Q74.8809 408.332 74.8809 417.082 Q74.8809 425.809 71.8022 430.416 Q68.7467 434.999 62.9365 434.999 Q57.1264 434.999 54.0477 430.416 Q50.9921 425.809 50.9921 417.082 Q50.9921 408.332 54.0477 403.749 Q57.1264 399.143 62.9365 399.143 Z" fill="#000000" fill-rule="nonzero" fill-opacity="1" /><path clip-path="url(#clip340)" d="M83.0984 428.448 L87.9827 428.448 L87.9827 434.328 L83.0984 434.328 L83.0984 428.448 Z" fill="#000000" fill-rule="nonzero" fill-opacity="1" /><path clip-path="url(#clip340)" d="M111.015 403.842 L99.2095 422.291 L111.015 422.291 L111.015 403.842 M109.788 399.768 L115.668 399.768 L115.668 422.291 L120.598 422.291 L120.598 426.179 L115.668 426.179 L115.668 434.328 L111.015 434.328 L111.015 426.179 L95.4132 426.179 L95.4132 421.666 L109.788 399.768 Z" fill="#000000" fill-rule="nonzero" fill-opacity="1" /><path clip-path="url(#clip340)" d="M64.418 126.845 Q60.8069 126.845 58.9782 130.41 Q57.1726 133.952 57.1726 141.081 Q57.1726 148.188 58.9782 151.753 Q60.8069 155.294 64.418 155.294 Q68.0522 155.294 69.8578 151.753 Q71.6865 148.188 71.6865 141.081 Q71.6865 133.952 69.8578 130.41 Q68.0522 126.845 64.418 126.845 M64.418 123.142 Q70.2281 123.142 73.2837 127.748 Q76.3624 132.332 76.3624 141.081 Q76.3624 149.808 73.2837 154.415 Q70.2281 158.998 64.418 158.998 Q58.6078 158.998 55.5291 154.415 Q52.4736 149.808 52.4736 141.081 Q52.4736 132.332 55.5291 127.748 Q58.6078 123.142 64.418 123.142 Z" fill="#000000" fill-rule="nonzero" fill-opacity="1" /><path clip-path="url(#clip340)" d="M84.5799 152.447 L89.4641 152.447 L89.4641 158.327 L84.5799 158.327 L84.5799 152.447 Z" fill="#000000" fill-rule="nonzero" fill-opacity="1" /><path clip-path="url(#clip340)" d="M99.6956 123.767 L118.052 123.767 L118.052 127.702 L103.978 127.702 L103.978 136.174 Q104.996 135.827 106.015 135.665 Q107.033 135.48 108.052 135.48 Q113.839 135.48 117.219 138.651 Q120.598 141.822 120.598 147.239 Q120.598 152.818 117.126 155.919 Q113.654 158.998 107.334 158.998 Q105.159 158.998 102.89 158.628 Q100.645 158.257 98.2372 157.517 L98.2372 152.818 Q100.321 153.952 102.543 154.507 Q104.765 155.063 107.242 155.063 Q111.246 155.063 113.584 152.956 Q115.922 150.85 115.922 147.239 Q115.922 143.628 113.584 141.521 Q111.246 139.415 107.242 139.415 Q105.367 139.415 103.492 139.831 Q101.64 140.248 99.6956 141.128 L99.6956 123.767 Z" fill="#000000" fill-rule="nonzero" fill-opacity="1" /><polyline clip-path="url(#clip342)" style="stroke:#009af9; stroke-linecap:round; stroke-linejoin:round; stroke-width:4; stroke-opacity:1; fill:none" points="156.598,141.047 157.374,86.1858 158.186,96.1677 159.099,105.965 160.127,159.556 161.282,89.0511 162.583,93.4151 164.046,137.361 165.691,142.648 167.543,160.782 169.626,188.087 171.969,167.579 174.605,202.762 177.571,153.717 180.907,151.642 184.661,249.937 188.883,272.451 193.634,331.688 198.978,406.968 204.99,298.605 211.754,417.256 219.363,441.712 227.924,410.364 237.554,460.99 248.388,411.802 260.577,322.293 274.289,372.616 289.715,381.808 307.07,384.203 326.594,364.542 348.558,440.816 373.268,641.93 401.066,753.828 432.34,920.21 467.522,929.109 507.102,1059.79 551.63,1055.46 601.724,1068.72 658.079,1188 721.479,1222.32 792.804,1299.63 873.045,1272.53 963.316,1274.99 1064.87,1330.88 1179.12,1317.39 1307.65,1343.47 1448.77,1336.61 1607.54,1294.87 1786.15,1276.58 1959.69,1310.82 2123.25,1352.74 2307.24,1381.6 2352.76,1380.63 "/>
<polyline clip-path="url(#clip342)" style="stroke:#e26f46; stroke-linecap:round; stroke-linejoin:round; stroke-width:4; stroke-opacity:1; fill:none" points="156.598,141.047 157.374,86.1857 158.186,96.1677 159.099,105.965 160.127,159.556 161.282,89.0505 162.583,93.4147 164.046,137.361 165.691,142.648 167.543,160.783 169.626,188.089 171.969,167.58 174.605,202.764 177.571,153.719 180.907,151.646 184.661,249.936 188.883,272.453 193.634,331.692 198.978,406.973 204.99,298.604 211.754,417.242 219.363,441.706 227.924,410.358 237.554,460.998 248.388,411.808 260.577,322.288 274.289,372.64 289.715,381.858 307.07,384.282 326.594,364.648 348.558,440.986 373.268,641.855 401.066,753.802 432.34,919.875 467.522,928.853 507.102,1059.34 551.63,1055.09 601.724,1068.49 658.079,1187.39 721.479,1221.94 792.804,1299.14 873.045,1271.99 963.316,1274.65 1064.87,1330.75 1179.12,1317.37 1307.65,1343.9 1448.77,1337.32 1607.54,1295.64 1786.15,1277.84 1959.69,1312.88 2123.25,1355.05 2307.24,1384.24 2352.76,1383.31 "/>
<path clip-path="url(#clip340)" d="M1850.91 248.629 L2279.55 248.629 L2279.55 93.1086 L1850.91 93.1086  Z" fill="#ffffff" fill-rule="evenodd" fill-opacity="1"/>
<polyline clip-path="url(#clip340)" style="stroke:#000000; stroke-linecap:round; stroke-linejoin:round; stroke-width:4; stroke-opacity:1; fill:none" points="1850.91,248.629 2279.55,248.629 2279.55,93.1086 1850.91,93.1086 1850.91,248.629 "/>
<polyline clip-path="url(#clip340)" style="stroke:#009af9; stroke-linecap:round; stroke-linejoin:round; stroke-width:4; stroke-opacity:1; fill:none" points="1875.31,144.949 2021.72,144.949 "/>
<path clip-path="url(#clip340)" d="M2046.12 151.997 L2046.12 136.303 L2050.38 136.303 L2050.38 151.835 Q2050.38 155.516 2051.82 157.368 Q2053.25 159.196 2056.12 159.196 Q2059.57 159.196 2061.56 156.997 Q2063.58 154.798 2063.58 151.002 L2063.58 136.303 L2067.84 136.303 L2067.84 162.229 L2063.58 162.229 L2063.58 158.247 Q2062.02 160.608 2059.96 161.766 Q2057.93 162.9 2055.22 162.9 Q2050.75 162.9 2048.44 160.122 Q2046.12 157.344 2046.12 151.997 M2056.84 135.678 L2056.84 135.678 Z" fill="#000000" fill-rule="nonzero" fill-opacity="1" /><path clip-path="url(#clip340)" d="M2076.21 126.21 L2086.03 126.21 L2086.03 129.52 L2080.47 129.52 L2080.47 165.168 L2086.03 165.168 L2086.03 168.479 L2076.21 168.479 L2076.21 126.21 Z" fill="#000000" fill-rule="nonzero" fill-opacity="1" /><path clip-path="url(#clip340)" d="M2096.52 158.293 L2104.15 158.293 L2104.15 131.928 L2095.84 133.595 L2095.84 129.335 L2104.11 127.669 L2108.78 127.669 L2108.78 158.293 L2116.42 158.293 L2116.42 162.229 L2096.52 162.229 L2096.52 158.293 Z" fill="#000000" fill-rule="nonzero" fill-opacity="1" /><path clip-path="url(#clip340)" d="M2135.22 126.21 L2135.22 168.479 L2125.4 168.479 L2125.4 165.168 L2130.94 165.168 L2130.94 129.52 L2125.4 129.52 L2125.4 126.21 L2135.22 126.21 Z" fill="#000000" fill-rule="nonzero" fill-opacity="1" /><polyline clip-path="url(#clip340)" style="stroke:#e26f46; stroke-linecap:round; stroke-linejoin:round; stroke-width:4; stroke-opacity:1; fill:none" points="1875.31,196.789 2021.72,196.789 "/>
<path clip-path="url(#clip340)" d="M2046.12 179.509 L2075.36 179.509 L2075.36 183.444 L2063.09 183.444 L2063.09 214.069 L2058.39 214.069 L2058.39 183.444 L2046.12 183.444 L2046.12 179.509 Z" fill="#000000" fill-rule="nonzero" fill-opacity="1" /><path clip-path="url(#clip340)" d="M2087.74 192.124 Q2087.02 191.708 2086.17 191.522 Q2085.33 191.314 2084.32 191.314 Q2080.71 191.314 2078.76 193.675 Q2076.84 196.013 2076.84 200.411 L2076.84 214.069 L2072.56 214.069 L2072.56 188.143 L2076.84 188.143 L2076.84 192.171 Q2078.18 189.809 2080.34 188.675 Q2082.49 187.518 2085.57 187.518 Q2086.01 187.518 2086.54 187.587 Q2087.07 187.634 2087.72 187.749 L2087.74 192.124 Z" fill="#000000" fill-rule="nonzero" fill-opacity="1" /><path clip-path="url(#clip340)" d="M2091.77 203.837 L2091.77 188.143 L2096.03 188.143 L2096.03 203.675 Q2096.03 207.356 2097.46 209.208 Q2098.9 211.036 2101.77 211.036 Q2105.22 211.036 2107.21 208.837 Q2109.22 206.638 2109.22 202.842 L2109.22 188.143 L2113.48 188.143 L2113.48 214.069 L2109.22 214.069 L2109.22 210.087 Q2107.67 212.448 2105.61 213.606 Q2103.58 214.74 2100.87 214.74 Q2096.4 214.74 2094.08 211.962 Q2091.77 209.184 2091.77 203.837 M2102.49 187.518 L2102.49 187.518 Z" fill="#000000" fill-rule="nonzero" fill-opacity="1" /><path clip-path="url(#clip340)" d="M2144.43 200.041 L2144.43 202.124 L2124.85 202.124 Q2125.13 206.522 2127.49 208.837 Q2129.87 211.129 2134.11 211.129 Q2136.56 211.129 2138.85 210.527 Q2141.17 209.925 2143.44 208.721 L2143.44 212.749 Q2141.14 213.721 2138.74 214.231 Q2136.33 214.74 2133.85 214.74 Q2127.65 214.74 2124.02 211.129 Q2120.4 207.518 2120.4 201.36 Q2120.4 194.995 2123.83 191.268 Q2127.28 187.518 2133.11 187.518 Q2138.34 187.518 2141.38 190.897 Q2144.43 194.254 2144.43 200.041 M2140.17 198.791 Q2140.13 195.296 2138.21 193.212 Q2136.31 191.129 2133.16 191.129 Q2129.59 191.129 2127.44 193.143 Q2125.31 195.157 2124.99 198.814 L2140.17 198.791 Z" fill="#000000" fill-rule="nonzero" fill-opacity="1" /><path clip-path="url(#clip340)" d="M2166.05 203.837 L2166.05 188.143 L2170.31 188.143 L2170.31 203.675 Q2170.31 207.356 2171.75 209.208 Q2173.18 211.036 2176.05 211.036 Q2179.5 211.036 2181.49 208.837 Q2183.51 206.638 2183.51 202.842 L2183.51 188.143 L2187.76 188.143 L2187.76 214.069 L2183.51 214.069 L2183.51 210.087 Q2181.95 212.448 2179.89 213.606 Q2177.86 214.74 2175.15 214.74 Q2170.68 214.74 2168.37 211.962 Q2166.05 209.184 2166.05 203.837 M2176.77 187.518 L2176.77 187.518 Z" fill="#000000" fill-rule="nonzero" fill-opacity="1" /><path clip-path="url(#clip340)" d="M2196.14 178.05 L2205.96 178.05 L2205.96 181.36 L2200.4 181.36 L2200.4 217.008 L2205.96 217.008 L2205.96 220.319 L2196.14 220.319 L2196.14 178.05 Z" fill="#000000" fill-rule="nonzero" fill-opacity="1" /><path clip-path="url(#clip340)" d="M2216.45 210.133 L2224.08 210.133 L2224.08 183.768 L2215.77 185.435 L2215.77 181.175 L2224.04 179.509 L2228.71 179.509 L2228.71 210.133 L2236.35 210.133 L2236.35 214.069 L2216.45 214.069 L2216.45 210.133 Z" fill="#000000" fill-rule="nonzero" fill-opacity="1" /><path clip-path="url(#clip340)" d="M2255.15 178.05 L2255.15 220.319 L2245.33 220.319 L2245.33 217.008 L2250.87 217.008 L2250.87 181.36 L2245.33 181.36 L2245.33 178.05 L2255.15 178.05 Z" fill="#000000" fill-rule="nonzero" fill-opacity="1" /></svg>
