<?xml version="1.0" encoding="utf-8"?>
<svg xmlns="http://www.w3.org/2000/svg" xmlns:xlink="http://www.w3.org/1999/xlink" width="600" height="400" viewBox="0 0 2400 1600">
<defs>
  <clipPath id="clip580">
    <rect x="0" y="0" width="2400" height="1600"/>
  </clipPath>
</defs>
<path clip-path="url(#clip580)" d="M0 1600 L2400 1600 L2400 0 L0 0  Z" fill="#ffffff" fill-rule="evenodd" fill-opacity="1"/>
<defs>
  <clipPath id="clip581">
    <rect x="480" y="0" width="1681" height="1600"/>
  </clipPath>
</defs>
<path clip-path="url(#clip580)" d="M156.112 1423.18 L2352.76 1423.18 L2352.76 47.2441 L156.112 47.2441  Z" fill="#ffffff" fill-rule="evenodd" fill-opacity="1"/>
<defs>
  <clipPath id="clip582">
    <rect x="156" y="47" width="2198" height="1377"/>
  </clipPath>
</defs>
<polyline clip-path="url(#clip582)" style="stroke:#000000; stroke-linecap:round; stroke-linejoin:round; stroke-width:2; stroke-opacity:0.1; fill:none" points="156.112,1423.18 156.112,47.2441 "/>
<polyline clip-path="url(#clip582)" style="stroke:#000000; stroke-linecap:round; stroke-linejoin:round; stroke-width:2; stroke-opacity:0.1; fill:none" points="595.441,1423.18 595.441,47.2441 "/>
<polyline clip-path="url(#clip582)" style="stroke:#000000; stroke-linecap:round; stroke-linejoin:round; stroke-width:2; stroke-opacity:0.1; fill:none" points="1034.77,1423.18 1034.77,47.2441 "/>
<polyline clip-path="url(#clip582)" style="stroke:#000000; stroke-linecap:round; stroke-linejoin:round; stroke-width:2; stroke-opacity:0.1; fill:none" points="1474.1,1423.18 1474.1,47.2441 "/>
<polyline clip-path="url(#clip582)" style="stroke:#000000; stroke-linecap:round; stroke-linejoin:round; stroke-width:2; stroke-opacity:0.1; fill:none" points="1913.43,1423.18 1913.43,47.2441 "/>
<polyline clip-path="url(#clip582)" style="stroke:#000000; stroke-linecap:round; stroke-linejoin:round; stroke-width:2; stroke-opacity:0.1; fill:none" points="2352.76,1423.18 2352.76,47.2441 "/>
<polyline clip-path="url(#clip582)" style="stroke:#000000; stroke-linecap:round; stroke-linejoin:round; stroke-width:2; stroke-opacity:0.1; fill:none" points="156.112,1412.43 2352.76,1412.43 "/>
<polyline clip-path="url(#clip582)" style="stroke:#000000; stroke-linecap:round; stroke-linejoin:round; stroke-width:2; stroke-opacity:0.1; fill:none" points="156.112,1103.95 2352.76,1103.95 "/>
<polyline clip-path="url(#clip582)" style="stroke:#000000; stroke-linecap:round; stroke-linejoin:round; stroke-width:2; stroke-opacity:0.1; fill:none" points="156.112,795.482 2352.76,795.482 "/>
<polyline clip-path="url(#clip582)" style="stroke:#000000; stroke-linecap:round; stroke-linejoin:round; stroke-width:2; stroke-opacity:0.1; fill:none" points="156.112,487.009 2352.76,487.009 "/>
<polyline clip-path="url(#clip582)" style="stroke:#000000; stroke-linecap:round; stroke-linejoin:round; stroke-width:2; stroke-opacity:0.1; fill:none" points="156.112,178.536 2352.76,178.536 "/>
<polyline clip-path="url(#clip580)" style="stroke:#000000; stroke-linecap:round; stroke-linejoin:round; stroke-width:4; stroke-opacity:1; fill:none" points="156.112,1423.18 2352.76,1423.18 "/>
<polyline clip-path="url(#clip580)" style="stroke:#000000; stroke-linecap:round; stroke-linejoin:round; stroke-width:4; stroke-opacity:1; fill:none" points="156.112,1423.18 156.112,1404.28 "/>
<polyline clip-path="url(#clip580)" style="stroke:#000000; stroke-linecap:round; stroke-linejoin:round; stroke-width:4; stroke-opacity:1; fill:none" points="595.441,1423.18 595.441,1404.28 "/>
<polyline clip-path="url(#clip580)" style="stroke:#000000; stroke-linecap:round; stroke-linejoin:round; stroke-width:4; stroke-opacity:1; fill:none" points="1034.77,1423.18 1034.77,1404.28 "/>
<polyline clip-path="url(#clip580)" style="stroke:#000000; stroke-linecap:round; stroke-linejoin:round; stroke-width:4; stroke-opacity:1; fill:none" points="1474.1,1423.18 1474.1,1404.28 "/>
<polyline clip-path="url(#clip580)" style="stroke:#000000; stroke-linecap:round; stroke-linejoin:round; stroke-width:4; stroke-opacity:1; fill:none" points="1913.43,1423.18 1913.43,1404.28 "/>
<polyline clip-path="url(#clip580)" style="stroke:#000000; stroke-linecap:round; stroke-linejoin:round; stroke-width:4; stroke-opacity:1; fill:none" points="2352.76,1423.18 2352.76,1404.28 "/>
<path clip-path="url(#clip580)" d="M133.497 1454.1 Q129.885 1454.1 128.057 1457.66 Q126.251 1461.2 126.251 1468.33 Q126.251 1475.44 128.057 1479.01 Q129.885 1482.55 133.497 1482.55 Q137.131 1482.55 138.936 1479.01 Q140.765 1475.44 140.765 1468.33 Q140.765 1461.2 138.936 1457.66 Q137.131 1454.1 133.497 1454.1 M133.497 1450.39 Q139.307 1450.39 142.362 1455 Q145.441 1459.58 145.441 1468.33 Q145.441 1477.06 142.362 1481.67 Q139.307 1486.25 133.497 1486.25 Q127.686 1486.25 124.608 1481.67 Q121.552 1477.06 121.552 1468.33 Q121.552 1459.58 124.608 1455 Q127.686 1450.39 133.497 1450.39 Z" fill="#000000" fill-rule="nonzero" fill-opacity="1" /><path clip-path="url(#clip580)" d="M153.658 1479.7 L158.543 1479.7 L158.543 1485.58 L153.658 1485.58 L153.658 1479.7 Z" fill="#000000" fill-rule="nonzero" fill-opacity="1" /><path clip-path="url(#clip580)" d="M178.728 1454.1 Q175.117 1454.1 173.288 1457.66 Q171.482 1461.2 171.482 1468.33 Q171.482 1475.44 173.288 1479.01 Q175.117 1482.55 178.728 1482.55 Q182.362 1482.55 184.168 1479.01 Q185.996 1475.44 185.996 1468.33 Q185.996 1461.2 184.168 1457.66 Q182.362 1454.1 178.728 1454.1 M178.728 1450.39 Q184.538 1450.39 187.593 1455 Q190.672 1459.58 190.672 1468.33 Q190.672 1477.06 187.593 1481.67 Q184.538 1486.25 178.728 1486.25 Q172.918 1486.25 169.839 1481.67 Q166.783 1477.06 166.783 1468.33 Q166.783 1459.58 169.839 1455 Q172.918 1450.39 178.728 1450.39 Z" fill="#000000" fill-rule="nonzero" fill-opacity="1" /><path clip-path="url(#clip580)" d="M573.624 1454.1 Q570.013 1454.1 568.184 1457.66 Q566.379 1461.2 566.379 1468.33 Q566.379 1475.44 568.184 1479.01 Q570.013 1482.55 573.624 1482.55 Q577.258 1482.55 579.064 1479.01 Q580.892 1475.44 580.892 1468.33 Q580.892 1461.2 579.064 1457.66 Q577.258 1454.1 573.624 1454.1 M573.624 1450.39 Q579.434 1450.39 582.49 1455 Q585.568 1459.58 585.568 1468.33 Q585.568 1477.06 582.49 1481.67 Q579.434 1486.25 573.624 1486.25 Q567.814 1486.25 564.735 1481.67 Q561.679 1477.06 561.679 1468.33 Q561.679 1459.58 564.735 1455 Q567.814 1450.39 573.624 1450.39 Z" fill="#000000" fill-rule="nonzero" fill-opacity="1" /><path clip-path="url(#clip580)" d="M593.786 1479.7 L598.67 1479.7 L598.67 1485.58 L593.786 1485.58 L593.786 1479.7 Z" fill="#000000" fill-rule="nonzero" fill-opacity="1" /><path clip-path="url(#clip580)" d="M612.883 1481.64 L629.202 1481.64 L629.202 1485.58 L607.258 1485.58 L607.258 1481.64 Q609.92 1478.89 614.503 1474.26 Q619.11 1469.61 620.29 1468.27 Q622.536 1465.74 623.415 1464.01 Q624.318 1462.25 624.318 1460.56 Q624.318 1457.8 622.374 1456.07 Q620.452 1454.33 617.35 1454.33 Q615.151 1454.33 612.698 1455.09 Q610.267 1455.86 607.489 1457.41 L607.489 1452.69 Q610.313 1451.55 612.767 1450.97 Q615.221 1450.39 617.258 1450.39 Q622.628 1450.39 625.823 1453.08 Q629.017 1455.77 629.017 1460.26 Q629.017 1462.39 628.207 1464.31 Q627.42 1466.2 625.313 1468.8 Q624.735 1469.47 621.633 1472.69 Q618.531 1475.88 612.883 1481.64 Z" fill="#000000" fill-rule="nonzero" fill-opacity="1" /><path clip-path="url(#clip580)" d="M1011.91 1454.1 Q1008.3 1454.1 1006.47 1457.66 Q1004.67 1461.2 1004.67 1468.33 Q1004.67 1475.44 1006.47 1479.01 Q1008.3 1482.55 1011.91 1482.55 Q1015.55 1482.55 1017.35 1479.01 Q1019.18 1475.44 1019.18 1468.33 Q1019.18 1461.2 1017.35 1457.66 Q1015.55 1454.1 1011.91 1454.1 M1011.91 1450.39 Q1017.72 1450.39 1020.78 1455 Q1023.86 1459.58 1023.86 1468.33 Q1023.86 1477.06 1020.78 1481.67 Q1017.72 1486.25 1011.91 1486.25 Q1006.1 1486.25 1003.02 1481.67 Q999.967 1477.06 999.967 1468.33 Q999.967 1459.58 1003.02 1455 Q1006.1 1450.39 1011.91 1450.39 Z" fill="#000000" fill-rule="nonzero" fill-opacity="1" /><path clip-path="url(#clip580)" d="M1032.07 1479.7 L1036.96 1479.7 L1036.96 1485.58 L1032.07 1485.58 L1032.07 1479.7 Z" fill="#000000" fill-rule="nonzero" fill-opacity="1" /><path clip-path="url(#clip580)" d="M1059.99 1455.09 L1048.18 1473.54 L1059.99 1473.54 L1059.99 1455.09 M1058.76 1451.02 L1064.64 1451.02 L1064.64 1473.54 L1069.57 1473.54 L1069.57 1477.43 L1064.64 1477.43 L1064.64 1485.58 L1059.99 1485.58 L1059.99 1477.43 L1044.39 1477.43 L1044.39 1472.92 L1058.76 1451.02 Z" fill="#000000" fill-rule="nonzero" fill-opacity="1" /><path clip-path="url(#clip580)" d="M1451.4 1454.1 Q1447.79 1454.1 1445.96 1457.66 Q1444.16 1461.2 1444.16 1468.33 Q1444.16 1475.44 1445.96 1479.01 Q1447.79 1482.55 1451.4 1482.55 Q1455.04 1482.55 1456.84 1479.01 Q1458.67 1475.44 1458.67 1468.33 Q1458.67 1461.2 1456.84 1457.66 Q1455.04 1454.1 1451.4 1454.1 M1451.4 1450.39 Q1457.21 1450.39 1460.27 1455 Q1463.35 1459.58 1463.35 1468.33 Q1463.35 1477.06 1460.27 1481.67 Q1457.21 1486.25 1451.4 1486.25 Q1445.59 1486.25 1442.51 1481.67 Q1439.46 1477.06 1439.46 1468.33 Q1439.46 1459.58 1442.51 1455 Q1445.59 1450.39 1451.4 1450.39 Z" fill="#000000" fill-rule="nonzero" fill-opacity="1" /><path clip-path="url(#clip580)" d="M1471.56 1479.7 L1476.45 1479.7 L1476.45 1485.58 L1471.56 1485.58 L1471.56 1479.7 Z" fill="#000000" fill-rule="nonzero" fill-opacity="1" /><path clip-path="url(#clip580)" d="M1497.21 1466.44 Q1494.06 1466.44 1492.21 1468.59 Q1490.38 1470.74 1490.38 1474.49 Q1490.38 1478.22 1492.21 1480.39 Q1494.06 1482.55 1497.21 1482.55 Q1500.36 1482.55 1502.19 1480.39 Q1504.04 1478.22 1504.04 1474.49 Q1504.04 1470.74 1502.19 1468.59 Q1500.36 1466.44 1497.21 1466.44 M1506.49 1451.78 L1506.49 1456.04 Q1504.73 1455.21 1502.93 1454.77 Q1501.15 1454.33 1499.39 1454.33 Q1494.76 1454.33 1492.3 1457.45 Q1489.87 1460.58 1489.53 1466.9 Q1490.89 1464.89 1492.95 1463.82 Q1495.01 1462.73 1497.49 1462.73 Q1502.7 1462.73 1505.71 1465.9 Q1508.74 1469.05 1508.74 1474.49 Q1508.74 1479.82 1505.59 1483.03 Q1502.44 1486.25 1497.21 1486.25 Q1491.22 1486.25 1488.05 1481.67 Q1484.87 1477.06 1484.87 1468.33 Q1484.87 1460.14 1488.76 1455.28 Q1492.65 1450.39 1499.2 1450.39 Q1500.96 1450.39 1502.74 1450.74 Q1504.55 1451.09 1506.49 1451.78 Z" fill="#000000" fill-rule="nonzero" fill-opacity="1" /><path clip-path="url(#clip580)" d="M1890.86 1454.1 Q1887.25 1454.1 1885.42 1457.66 Q1883.61 1461.2 1883.61 1468.33 Q1883.61 1475.44 1885.42 1479.01 Q1887.25 1482.55 1890.86 1482.55 Q1894.49 1482.55 1896.3 1479.01 Q1898.13 1475.44 1898.13 1468.33 Q1898.13 1461.2 1896.3 1457.66 Q1894.49 1454.1 1890.86 1454.1 M1890.86 1450.39 Q1896.67 1450.39 1899.72 1455 Q1902.8 1459.58 1902.8 1468.33 Q1902.8 1477.06 1899.72 1481.67 Q1896.67 1486.25 1890.86 1486.25 Q1885.05 1486.25 1881.97 1481.67 Q1878.91 1477.06 1878.91 1468.33 Q1878.91 1459.58 1881.97 1455 Q1885.05 1450.39 1890.86 1450.39 Z" fill="#000000" fill-rule="nonzero" fill-opacity="1" /><path clip-path="url(#clip580)" d="M1911.02 1479.7 L1915.9 1479.7 L1915.9 1485.58 L1911.02 1485.58 L1911.02 1479.7 Z" fill="#000000" fill-rule="nonzero" fill-opacity="1" /><path clip-path="url(#clip580)" d="M1936.09 1469.17 Q1932.76 1469.17 1930.83 1470.95 Q1928.94 1472.73 1928.94 1475.86 Q1928.94 1478.98 1930.83 1480.77 Q1932.76 1482.55 1936.09 1482.55 Q1939.42 1482.55 1941.34 1480.77 Q1943.26 1478.96 1943.26 1475.86 Q1943.26 1472.73 1941.34 1470.95 Q1939.45 1469.17 1936.09 1469.17 M1931.41 1467.18 Q1928.4 1466.44 1926.71 1464.38 Q1925.05 1462.32 1925.05 1459.35 Q1925.05 1455.21 1927.99 1452.8 Q1930.95 1450.39 1936.09 1450.39 Q1941.25 1450.39 1944.19 1452.8 Q1947.13 1455.21 1947.13 1459.35 Q1947.13 1462.32 1945.44 1464.38 Q1943.77 1466.44 1940.79 1467.18 Q1944.17 1467.96 1946.04 1470.26 Q1947.94 1472.55 1947.94 1475.86 Q1947.94 1480.88 1944.86 1483.57 Q1941.81 1486.25 1936.09 1486.25 Q1930.37 1486.25 1927.29 1483.57 Q1924.24 1480.88 1924.24 1475.86 Q1924.24 1472.55 1926.14 1470.26 Q1928.03 1467.96 1931.41 1467.18 M1929.7 1459.79 Q1929.7 1462.48 1931.37 1463.98 Q1933.06 1465.49 1936.09 1465.49 Q1939.1 1465.49 1940.79 1463.98 Q1942.5 1462.48 1942.5 1459.79 Q1942.5 1457.11 1940.79 1455.6 Q1939.1 1454.1 1936.09 1454.1 Q1933.06 1454.1 1931.37 1455.6 Q1929.7 1457.11 1929.7 1459.79 Z" fill="#000000" fill-rule="nonzero" fill-opacity="1" /><path clip-path="url(#clip580)" d="M2319.91 1481.64 L2327.55 1481.64 L2327.55 1455.28 L2319.24 1456.95 L2319.24 1452.69 L2327.5 1451.02 L2332.18 1451.02 L2332.18 1481.64 L2339.82 1481.64 L2339.82 1485.58 L2319.91 1485.58 L2319.91 1481.64 Z" fill="#000000" fill-rule="nonzero" fill-opacity="1" /><path clip-path="url(#clip580)" d="M2349.26 1479.7 L2354.14 1479.7 L2354.14 1485.58 L2349.26 1485.58 L2349.26 1479.7 Z" fill="#000000" fill-rule="nonzero" fill-opacity="1" /><path clip-path="url(#clip580)" d="M2374.33 1454.1 Q2370.72 1454.1 2368.89 1457.66 Q2367.08 1461.2 2367.08 1468.33 Q2367.08 1475.44 2368.89 1479.01 Q2370.72 1482.55 2374.33 1482.55 Q2377.96 1482.55 2379.77 1479.01 Q2381.6 1475.44 2381.6 1468.33 Q2381.6 1461.2 2379.77 1457.66 Q2377.96 1454.1 2374.33 1454.1 M2374.33 1450.39 Q2380.14 1450.39 2383.2 1455 Q2386.27 1459.58 2386.27 1468.33 Q2386.27 1477.06 2383.2 1481.67 Q2380.14 1486.25 2374.33 1486.25 Q2368.52 1486.25 2365.44 1481.67 Q2362.39 1477.06 2362.39 1468.33 Q2362.39 1459.58 2365.44 1455 Q2368.52 1450.39 2374.33 1450.39 Z" fill="#000000" fill-rule="nonzero" fill-opacity="1" /><path clip-path="url(#clip580)" d="M1253.5 1522.27 L1253.5 1532.4 L1265.56 1532.4 L1265.56 1536.95 L1253.5 1536.95 L1253.5 1556.3 Q1253.5 1560.66 1254.67 1561.9 Q1255.88 1563.14 1259.54 1563.14 L1265.56 1563.14 L1265.56 1568.04 L1259.54 1568.04 Q1252.76 1568.04 1250.18 1565.53 Q1247.61 1562.98 1247.61 1556.3 L1247.61 1536.95 L1243.31 1536.95 L1243.31 1532.4 L1247.61 1532.4 L1247.61 1522.27 L1253.5 1522.27 Z" fill="#000000" fill-rule="nonzero" fill-opacity="1" /><polyline clip-path="url(#clip580)" style="stroke:#000000; stroke-linecap:round; stroke-linejoin:round; stroke-width:4; stroke-opacity:1; fill:none" points="156.112,1423.18 156.112,47.2441 "/>
<polyline clip-path="url(#clip580)" style="stroke:#000000; stroke-linecap:round; stroke-linejoin:round; stroke-width:4; stroke-opacity:1; fill:none" points="156.112,1412.43 175.01,1412.43 "/>
<polyline clip-path="url(#clip580)" style="stroke:#000000; stroke-linecap:round; stroke-linejoin:round; stroke-width:4; stroke-opacity:1; fill:none" points="156.112,1103.95 175.01,1103.95 "/>
<polyline clip-path="url(#clip580)" style="stroke:#000000; stroke-linecap:round; stroke-linejoin:round; stroke-width:4; stroke-opacity:1; fill:none" points="156.112,795.482 175.01,795.482 "/>
<polyline clip-path="url(#clip580)" style="stroke:#000000; stroke-linecap:round; stroke-linejoin:round; stroke-width:4; stroke-opacity:1; fill:none" points="156.112,487.009 175.01,487.009 "/>
<polyline clip-path="url(#clip580)" style="stroke:#000000; stroke-linecap:round; stroke-linejoin:round; stroke-width:4; stroke-opacity:1; fill:none" points="156.112,178.536 175.01,178.536 "/>
<path clip-path="url(#clip580)" d="M62.9365 1398.23 Q59.3254 1398.23 57.4967 1401.79 Q55.6912 1405.33 55.6912 1412.46 Q55.6912 1419.57 57.4967 1423.13 Q59.3254 1426.67 62.9365 1426.67 Q66.5707 1426.67 68.3763 1423.13 Q70.205 1419.57 70.205 1412.46 Q70.205 1405.33 68.3763 1401.79 Q66.5707 1398.23 62.9365 1398.23 M62.9365 1394.52 Q68.7467 1394.52 71.8022 1399.13 Q74.8809 1403.71 74.8809 1412.46 Q74.8809 1421.19 71.8022 1425.8 Q68.7467 1430.38 62.9365 1430.38 Q57.1264 1430.38 54.0477 1425.8 Q50.9921 1421.19 50.9921 1412.46 Q50.9921 1403.71 54.0477 1399.13 Q57.1264 1394.52 62.9365 1394.52 Z" fill="#000000" fill-rule="nonzero" fill-opacity="1" /><path clip-path="url(#clip580)" d="M83.0984 1423.83 L87.9827 1423.83 L87.9827 1429.71 L83.0984 1429.71 L83.0984 1423.83 Z" fill="#000000" fill-rule="nonzero" fill-opacity="1" /><path clip-path="url(#clip580)" d="M108.168 1398.23 Q104.557 1398.23 102.728 1401.79 Q100.922 1405.33 100.922 1412.46 Q100.922 1419.57 102.728 1423.13 Q104.557 1426.67 108.168 1426.67 Q111.802 1426.67 113.608 1423.13 Q115.436 1419.57 115.436 1412.46 Q115.436 1405.33 113.608 1401.79 Q111.802 1398.23 108.168 1398.23 M108.168 1394.52 Q113.978 1394.52 117.033 1399.13 Q120.112 1403.71 120.112 1412.46 Q120.112 1421.19 117.033 1425.8 Q113.978 1430.38 108.168 1430.38 Q102.358 1430.38 99.2789 1425.8 Q96.2234 1421.19 96.2234 1412.46 Q96.2234 1403.71 99.2789 1399.13 Q102.358 1394.52 108.168 1394.52 Z" fill="#000000" fill-rule="nonzero" fill-opacity="1" /><path clip-path="url(#clip580)" d="M63.9319 1089.75 Q60.3208 1089.75 58.4921 1093.32 Q56.6865 1096.86 56.6865 1103.99 Q56.6865 1111.1 58.4921 1114.66 Q60.3208 1118.2 63.9319 1118.2 Q67.5661 1118.2 69.3717 1114.66 Q71.2004 1111.1 71.2004 1103.99 Q71.2004 1096.86 69.3717 1093.32 Q67.5661 1089.75 63.9319 1089.75 M63.9319 1086.05 Q69.742 1086.05 72.7976 1090.66 Q75.8763 1095.24 75.8763 1103.99 Q75.8763 1112.72 72.7976 1117.32 Q69.742 1121.91 63.9319 1121.91 Q58.1217 1121.91 55.043 1117.32 Q51.9875 1112.72 51.9875 1103.99 Q51.9875 1095.24 55.043 1090.66 Q58.1217 1086.05 63.9319 1086.05 Z" fill="#000000" fill-rule="nonzero" fill-opacity="1" /><path clip-path="url(#clip580)" d="M84.0938 1115.35 L88.978 1115.35 L88.978 1121.23 L84.0938 1121.23 L84.0938 1115.35 Z" fill="#000000" fill-rule="nonzero" fill-opacity="1" /><path clip-path="url(#clip580)" d="M99.2095 1086.67 L117.566 1086.67 L117.566 1090.61 L103.492 1090.61 L103.492 1099.08 Q104.51 1098.73 105.529 1098.57 Q106.547 1098.39 107.566 1098.39 Q113.353 1098.39 116.733 1101.56 Q120.112 1104.73 120.112 1110.15 Q120.112 1115.73 116.64 1118.83 Q113.168 1121.91 106.848 1121.91 Q104.672 1121.91 102.404 1121.54 Q100.159 1121.17 97.7511 1120.42 L97.7511 1115.73 Q99.8345 1116.86 102.057 1117.42 Q104.279 1117.97 106.756 1117.97 Q110.76 1117.97 113.098 1115.86 Q115.436 1113.76 115.436 1110.15 Q115.436 1106.54 113.098 1104.43 Q110.76 1102.32 106.756 1102.32 Q104.881 1102.32 103.006 1102.74 Q101.154 1103.16 99.2095 1104.04 L99.2095 1086.67 Z" fill="#000000" fill-rule="nonzero" fill-opacity="1" /><path clip-path="url(#clip580)" d="M53.7467 808.827 L61.3856 808.827 L61.3856 782.461 L53.0754 784.128 L53.0754 779.868 L61.3393 778.202 L66.0152 778.202 L66.0152 808.827 L73.654 808.827 L73.654 812.762 L53.7467 812.762 L53.7467 808.827 Z" fill="#000000" fill-rule="nonzero" fill-opacity="1" /><path clip-path="url(#clip580)" d="M83.0984 806.882 L87.9827 806.882 L87.9827 812.762 L83.0984 812.762 L83.0984 806.882 Z" fill="#000000" fill-rule="nonzero" fill-opacity="1" /><path clip-path="url(#clip580)" d="M108.168 781.28 Q104.557 781.28 102.728 784.845 Q100.922 788.387 100.922 795.516 Q100.922 802.623 102.728 806.188 Q104.557 809.729 108.168 809.729 Q111.802 809.729 113.608 806.188 Q115.436 802.623 115.436 795.516 Q115.436 788.387 113.608 784.845 Q111.802 781.28 108.168 781.28 M108.168 777.577 Q113.978 777.577 117.033 782.183 Q120.112 786.766 120.112 795.516 Q120.112 804.243 117.033 808.85 Q113.978 813.433 108.168 813.433 Q102.358 813.433 99.2789 808.85 Q96.2234 804.243 96.2234 795.516 Q96.2234 786.766 99.2789 782.183 Q102.358 777.577 108.168 777.577 Z" fill="#000000" fill-rule="nonzero" fill-opacity="1" /><path clip-path="url(#clip580)" d="M54.7421 500.354 L62.381 500.354 L62.381 473.988 L54.0708 475.655 L54.0708 471.396 L62.3347 469.729 L67.0106 469.729 L67.0106 500.354 L74.6494 500.354 L74.6494 504.289 L54.7421 504.289 L54.7421 500.354 Z" fill="#000000" fill-rule="nonzero" fill-opacity="1" /><path clip-path="url(#clip580)" d="M84.0938 498.409 L88.978 498.409 L88.978 504.289 L84.0938 504.289 L84.0938 498.409 Z" fill="#000000" fill-rule="nonzero" fill-opacity="1" /><path clip-path="url(#clip580)" d="M99.2095 469.729 L117.566 469.729 L117.566 473.664 L103.492 473.664 L103.492 482.136 Q104.51 481.789 105.529 481.627 Q106.547 481.442 107.566 481.442 Q113.353 481.442 116.733 484.613 Q120.112 487.784 120.112 493.201 Q120.112 498.78 116.64 501.882 Q113.168 504.96 106.848 504.96 Q104.672 504.96 102.404 504.59 Q100.159 504.219 97.7511 503.479 L97.7511 498.78 Q99.8345 499.914 102.057 500.47 Q104.279 501.025 106.756 501.025 Q110.76 501.025 113.098 498.919 Q115.436 496.812 115.436 493.201 Q115.436 489.59 113.098 487.483 Q110.76 485.377 106.756 485.377 Q104.881 485.377 103.006 485.794 Q101.154 486.21 99.2095 487.09 L99.2095 469.729 Z" fill="#000000" fill-rule="nonzero" fill-opacity="1" /><path clip-path="url(#clip580)" d="M56.9643 191.881 L73.2837 191.881 L73.2837 195.816 L51.3393 195.816 L51.3393 191.881 Q54.0014 189.126 58.5847 184.497 Q63.1911 179.844 64.3717 178.501 Q66.617 175.978 67.4967 174.242 Q68.3994 172.483 68.3994 170.793 Q68.3994 168.039 66.455 166.302 Q64.5337 164.566 61.4319 164.566 Q59.2328 164.566 56.7791 165.33 Q54.3486 166.094 51.5708 167.645 L51.5708 162.923 Q54.3949 161.789 56.8486 161.21 Q59.3023 160.631 61.3393 160.631 Q66.7096 160.631 69.9041 163.316 Q73.0985 166.002 73.0985 170.492 Q73.0985 172.622 72.2883 174.543 Q71.5013 176.441 69.3948 179.034 Q68.8161 179.705 65.7143 182.923 Q62.6124 186.117 56.9643 191.881 Z" fill="#000000" fill-rule="nonzero" fill-opacity="1" /><path clip-path="url(#clip580)" d="M83.0984 189.937 L87.9827 189.937 L87.9827 195.816 L83.0984 195.816 L83.0984 189.937 Z" fill="#000000" fill-rule="nonzero" fill-opacity="1" /><path clip-path="url(#clip580)" d="M108.168 164.335 Q104.557 164.335 102.728 167.9 Q100.922 171.441 100.922 178.571 Q100.922 185.677 102.728 189.242 Q104.557 192.784 108.168 192.784 Q111.802 192.784 113.608 189.242 Q115.436 185.677 115.436 178.571 Q115.436 171.441 113.608 167.9 Q111.802 164.335 108.168 164.335 M108.168 160.631 Q113.978 160.631 117.033 165.238 Q120.112 169.821 120.112 178.571 Q120.112 187.298 117.033 191.904 Q113.978 196.487 108.168 196.487 Q102.358 196.487 99.2789 191.904 Q96.2234 187.298 96.2234 178.571 Q96.2234 169.821 99.2789 165.238 Q102.358 160.631 108.168 160.631 Z" fill="#000000" fill-rule="nonzero" fill-opacity="1" /><polyline clip-path="url(#clip582)" style="stroke:#009af9; stroke-linecap:round; stroke-linejoin:round; stroke-width:4; stroke-opacity:1; fill:none" points="156.112,1230.4 156.994,1227.89 157.973,1225.47 159.075,1227.35 160.314,1229.08 161.708,1232.03 163.276,1219.43 165.041,1216.93 167.026,1214.71 169.259,1219.36 171.771,1214.71 174.597,1224.99 177.776,1220.34 181.353,1213.88 185.377,1209.7 189.904,1214.48 194.997,1223.15 200.726,1218.22 207.172,1213.19 214.423,1198.88 222.581,1183.23 231.758,1161.94 242.082,1163.04 253.698,1132.31 266.765,1142.02 281.465,1152.4 298.003,1156.82 316.608,1175.51 337.539,1159.32 361.086,1160.69 387.576,1162.76 417.378,1129.42 450.905,1105.36 488.115,1113.79 529.975,1006.91 577.068,1019.49 620.629,1033.53 669.635,1027.74 724.766,1027.93 784.04,1056.02 844.484,1140.7 906.262,1107.4 975.761,1150.37 1035.18,1150.84 1102.02,1102.64 1177.21,1092.45 1248.48,1150.92 1314.87,1172.83 1389.55,1201.51 1463.65,1236.19 1539.73,1252.92 1625.32,1247.13 1721.6,1255.1 1814.08,1233.42 1918.11,1215.24 2024.49,1122.94 2144.16,1129.17 2228.45,1141.11 2323.26,1149.85 2352.76,1088.35 "/>
<polyline clip-path="url(#clip582)" style="stroke:#e26f46; stroke-linecap:round; stroke-linejoin:round; stroke-width:4; stroke-opacity:1; fill:none" points="156.112,1233.13 156.994,1230.66 157.973,1228.28 159.075,1230.13 160.314,1231.84 161.708,1234.74 163.276,1222.33 165.041,1219.86 167.026,1217.68 169.259,1222.26 171.771,1217.68 174.597,1227.81 177.776,1223.22 181.353,1216.86 185.377,1212.74 189.904,1217.45 194.997,1225.99 200.726,1221.13 207.172,1216.18 214.423,1202.08 222.581,1186.67 231.758,1165.69 242.082,1166.78 253.698,1136.51 266.765,1146.07 281.465,1156.3 298.003,1160.65 316.608,1179.06 337.539,1163.12 361.086,1164.47 387.576,1166.51 417.378,1133.67 450.905,1109.96 488.115,1118.27 529.975,1012.99 577.068,1025.39 620.629,1039.21 669.635,1033.51 724.766,1033.7 784.04,1061.37 844.484,1144.78 906.262,1111.98 975.761,1154.31 1035.18,1154.76 1102.02,1107.29 1177.21,1097.25 1248.48,1154.84 1314.87,1176.42 1389.55,1204.67 1463.65,1238.84 1539.73,1255.31 1625.32,1249.61 1721.6,1257.46 1814.08,1236.11 1918.11,1218.2 2024.49,1127.28 2144.16,1133.42 2228.45,1145.18 2323.26,1153.79 2352.76,1093.21 "/>
<polyline clip-path="url(#clip582)" style="stroke:#3da44d; stroke-linecap:round; stroke-linejoin:round; stroke-width:4; stroke-opacity:1; fill:none" points="156.112,1379.81 156.994,1379.36 157.973,1378.93 159.075,1379.27 160.314,1379.58 161.708,1380.11 163.276,1377.85 165.041,1377.4 167.026,1377 169.259,1377.84 171.771,1377 174.597,1378.84 177.776,1378.01 181.353,1376.85 185.377,1376.1 189.904,1376.96 194.997,1378.51 200.726,1377.63 207.172,1376.73 214.423,1374.16 222.581,1371.36 231.758,1367.55 242.082,1367.74 253.698,1362.24 266.765,1363.98 281.465,1365.84 298.003,1366.63 316.608,1369.98 337.539,1367.08 361.086,1367.32 387.576,1367.69 417.378,1361.72 450.905,1357.41 488.115,1358.92 529.975,1339.77 577.068,1342.02 620.629,1344.54 669.635,1343.5 724.766,1343.54 784.04,1348.57 844.484,1363.74 906.262,1357.77 975.761,1365.47 1035.18,1365.56 1102.02,1356.92 1177.21,1355.09 1248.48,1365.57 1314.87,1369.5 1389.55,1374.64 1463.65,1380.85 1539.73,1383.85 1625.32,1382.81 1721.6,1384.24 1814.08,1380.35 1918.11,1377.1 2024.49,1360.56 2144.16,1361.67 2228.45,1363.81 2323.26,1365.38 2352.76,1354.36 "/>
<polyline clip-path="url(#clip582)" style="stroke:#c271d2; stroke-linecap:round; stroke-linejoin:round; stroke-width:4; stroke-opacity:1; fill:none" points="156.112,817.115 156.994,808.902 157.973,800.989 159.075,807.137 160.314,812.808 161.708,822.448 163.276,781.233 165.041,773.039 167.026,765.797 169.259,781.017 171.771,765.803 174.597,799.431 177.776,784.214 181.353,763.088 185.377,749.395 189.904,765.047 194.997,793.386 200.726,777.262 207.172,760.831 214.423,714.006 222.581,662.836 231.758,593.198 242.082,596.794 253.698,496.293 266.765,528.048 281.465,562.004 298.003,576.456 316.608,637.587 337.539,584.648 361.086,589.135 387.576,595.896 417.378,486.855 450.905,408.155 488.115,435.72 529.975,86.1857 577.068,127.338 620.629,173.241 669.635,154.312 724.766,154.945 784.04,246.807 844.484,523.743 906.262,414.837 975.761,555.383 1035.18,556.903 1102.02,399.275 1177.21,365.93 1248.48,557.175 1314.87,628.825 1389.55,722.616 1463.65,836.055 1539.73,890.751 1625.32,871.821 1721.6,897.891 1814.08,826.994 1918.11,767.529 2024.49,465.66 2144.16,486.023 2228.45,525.094 2323.26,553.685 2352.76,352.524 "/>
<polyline clip-path="url(#clip582)" style="stroke:#ac8d18; stroke-linecap:round; stroke-linejoin:round; stroke-width:4; stroke-opacity:1; fill:none" points="156.112,1229.97 156.994,1227.46 157.973,1225.03 159.075,1226.92 160.314,1228.65 161.708,1231.61 163.276,1218.98 165.041,1216.47 167.026,1214.25 169.259,1218.91 171.771,1214.25 174.597,1224.55 177.776,1219.89 181.353,1213.42 185.377,1209.22 189.904,1214.02 194.997,1222.7 200.726,1217.76 207.172,1212.72 214.423,1198.37 222.581,1182.69 231.758,1161.35 242.082,1162.45 253.698,1131.65 266.765,1141.38 281.465,1151.79 298.003,1156.22 316.608,1174.95 337.539,1158.73 361.086,1160.1 387.576,1162.17 417.378,1128.75 450.905,1104.63 488.115,1113.08 529.975,1005.96 577.068,1018.57 620.629,1032.64 669.635,1026.84 724.766,1027.03 784.04,1055.18 844.484,1140.06 906.262,1106.68 975.761,1149.76 1035.18,1150.22 1102.02,1101.91 1177.21,1091.69 1248.48,1150.31 1314.87,1172.27 1389.55,1201.01 1463.65,1235.78 1539.73,1252.54 1625.32,1246.74 1721.6,1254.73 1814.08,1233 1918.11,1214.78 2024.49,1122.26 2144.16,1128.5 2228.45,1140.47 2323.26,1149.24 2352.76,1087.58 "/>
<polyline clip-path="url(#clip582)" style="stroke:#00a9ad; stroke-linecap:round; stroke-linejoin:round; stroke-width:4; stroke-opacity:1; fill:none" points="156.112,1374.16 156.994,1373.63 157.973,1373.12 159.075,1373.52 160.314,1373.88 161.708,1374.5 163.276,1371.85 165.041,1371.33 167.026,1370.86 169.259,1371.84 171.771,1370.86 174.597,1373.02 177.776,1372.05 181.353,1370.69 185.377,1369.81 189.904,1370.81 194.997,1372.63 200.726,1371.6 207.172,1370.54 214.423,1367.53 222.581,1364.24 231.758,1359.77 242.082,1360 253.698,1353.54 266.765,1355.58 281.465,1357.76 298.003,1358.69 316.608,1362.62 337.539,1359.22 361.086,1359.51 387.576,1359.94 417.378,1352.93 450.905,1347.87 488.115,1349.64 529.975,1327.18 577.068,1329.82 620.629,1332.77 669.635,1331.55 724.766,1331.6 784.04,1337.5 844.484,1355.3 906.262,1348.3 975.761,1357.34 1035.18,1357.43 1102.02,1347.3 1177.21,1345.16 1248.48,1357.45 1314.87,1362.06 1389.55,1368.09 1463.65,1375.38 1539.73,1378.89 1625.32,1377.68 1721.6,1379.35 1814.08,1374.8 1918.11,1370.97 2024.49,1351.57 2144.16,1352.88 2228.45,1355.39 2323.26,1357.23 2352.76,1344.3 "/>
<polyline clip-path="url(#clip582)" style="stroke:#ed5d92; stroke-linecap:round; stroke-linejoin:round; stroke-width:4; stroke-opacity:1; fill:none" points="156.112,1306.9 156.994,1305.44 157.973,1304.04 159.075,1305.13 160.314,1306.13 161.708,1307.84 163.276,1300.54 165.041,1299.08 167.026,1297.8 169.259,1300.5 171.771,1297.8 174.597,1303.76 177.776,1301.07 181.353,1297.32 185.377,1294.89 189.904,1297.67 194.997,1302.69 200.726,1299.83 207.172,1296.92 214.423,1288.62 222.581,1279.55 231.758,1267.2 242.082,1267.84 253.698,1250.03 266.765,1255.66 281.465,1261.68 298.003,1264.24 316.608,1275.07 337.539,1265.69 361.086,1266.48 387.576,1267.68 417.378,1248.35 450.905,1234.4 488.115,1239.29 529.975,1177.33 577.068,1184.62 620.629,1192.76 669.635,1189.4 724.766,1189.52 784.04,1205.8 844.484,1254.89 906.262,1235.59 975.761,1260.5 1035.18,1260.77 1102.02,1232.83 1177.21,1226.92 1248.48,1260.82 1314.87,1273.52 1389.55,1290.15 1463.65,1310.26 1539.73,1319.95 1625.32,1316.6 1721.6,1321.22 1814.08,1308.65 1918.11,1298.11 2024.49,1244.6 2144.16,1248.21 2228.45,1255.13 2323.26,1260.2 2352.76,1224.54 "/>
<polyline clip-path="url(#clip582)" style="stroke:#c68125; stroke-linecap:round; stroke-linejoin:round; stroke-width:4; stroke-opacity:1; fill:none" points="156.112,1105.14 156.994,1100.9 157.973,1096.81 159.075,1099.99 160.314,1102.91 161.708,1107.89 163.276,1086.62 165.041,1082.39 167.026,1078.65 169.259,1086.5 171.771,1078.65 174.597,1096.01 177.776,1088.15 181.353,1077.25 185.377,1070.18 189.904,1078.26 194.997,1092.89 200.726,1084.57 207.172,1076.08 214.423,1051.91 222.581,1025.5 231.758,989.555 242.082,991.412 253.698,939.535 266.765,955.926 281.465,973.454 298.003,980.914 316.608,1012.47 337.539,985.142 361.086,987.458 387.576,990.948 417.378,934.663 450.905,894.04 488.115,908.268 529.975,727.845 577.068,749.087 620.629,772.781 669.635,763.01 724.766,763.337 784.04,810.755 844.484,953.704 906.262,897.489 975.761,970.036 1035.18,970.821 1102.02,889.456 1177.21,872.244 1248.48,970.961 1314.87,1007.95 1389.55,1056.36 1463.65,1114.91 1539.73,1143.15 1625.32,1133.38 1721.6,1146.83 1814.08,1110.24 1918.11,1079.54 2024.49,923.723 2144.16,934.234 2228.45,954.402 2323.26,969.16 2352.76,865.324 "/>
<path clip-path="url(#clip580)" d="M1970.77 559.669 L2279.53 559.669 L2279.53 93.1086 L1970.77 93.1086  Z" fill="#ffffff" fill-rule="evenodd" fill-opacity="1"/>
<polyline clip-path="url(#clip580)" style="stroke:#000000; stroke-linecap:round; stroke-linejoin:round; stroke-width:4; stroke-opacity:1; fill:none" points="1970.77,559.669 2279.53,559.669 2279.53,93.1086 1970.77,93.1086 1970.77,559.669 "/>
<polyline clip-path="url(#clip580)" style="stroke:#009af9; stroke-linecap:round; stroke-linejoin:round; stroke-width:4; stroke-opacity:1; fill:none" points="1995.18,144.949 2141.62,144.949 "/>
<path clip-path="url(#clip580)" d="M2166.03 151.997 L2166.03 136.303 L2170.29 136.303 L2170.29 151.835 Q2170.29 155.516 2171.72 157.368 Q2173.16 159.196 2176.03 159.196 Q2179.48 159.196 2181.47 156.997 Q2183.48 154.798 2183.48 151.002 L2183.48 136.303 L2187.74 136.303 L2187.74 162.229 L2183.48 162.229 L2183.48 158.247 Q2181.93 160.608 2179.87 161.766 Q2177.84 162.9 2175.13 162.9 Q2170.66 162.9 2168.35 160.122 Q2166.03 157.344 2166.03 151.997 M2176.75 135.678 L2176.75 135.678 Z" fill="#000000" fill-rule="nonzero" fill-opacity="1" /><path clip-path="url(#clip580)" d="M2196.12 126.21 L2205.94 126.21 L2205.94 129.52 L2200.38 129.52 L2200.38 165.168 L2205.94 165.168 L2205.94 168.479 L2196.12 168.479 L2196.12 126.21 Z" fill="#000000" fill-rule="nonzero" fill-opacity="1" /><path clip-path="url(#clip580)" d="M2216.42 158.293 L2224.06 158.293 L2224.06 131.928 L2215.75 133.595 L2215.75 129.335 L2224.02 127.669 L2228.69 127.669 L2228.69 158.293 L2236.33 158.293 L2236.33 162.229 L2216.42 162.229 L2216.42 158.293 Z" fill="#000000" fill-rule="nonzero" fill-opacity="1" /><path clip-path="url(#clip580)" d="M2255.13 126.21 L2255.13 168.479 L2245.31 168.479 L2245.31 165.168 L2250.84 165.168 L2250.84 129.52 L2245.31 129.52 L2245.31 126.21 L2255.13 126.21 Z" fill="#000000" fill-rule="nonzero" fill-opacity="1" /><polyline clip-path="url(#clip580)" style="stroke:#e26f46; stroke-linecap:round; stroke-linejoin:round; stroke-width:4; stroke-opacity:1; fill:none" points="1995.18,196.789 2141.62,196.789 "/>
<path clip-path="url(#clip580)" d="M2166.03 203.837 L2166.03 188.143 L2170.29 188.143 L2170.29 203.675 Q2170.29 207.356 2171.72 209.208 Q2173.16 211.036 2176.03 211.036 Q2179.48 211.036 2181.47 208.837 Q2183.48 206.638 2183.48 202.842 L2183.48 188.143 L2187.74 188.143 L2187.74 214.069 L2183.48 214.069 L2183.48 210.087 Q2181.93 212.448 2179.87 213.606 Q2177.84 214.74 2175.13 214.74 Q2170.66 214.74 2168.35 211.962 Q2166.03 209.184 2166.03 203.837 M2176.75 187.518 L2176.75 187.518 Z" fill="#000000" fill-rule="nonzero" fill-opacity="1" /><path clip-path="url(#clip580)" d="M2196.12 178.05 L2205.94 178.05 L2205.94 181.36 L2200.38 181.36 L2200.38 217.008 L2205.94 217.008 L2205.94 220.319 L2196.12 220.319 L2196.12 178.05 Z" fill="#000000" fill-rule="nonzero" fill-opacity="1" /><path clip-path="url(#clip580)" d="M2219.64 210.133 L2235.96 210.133 L2235.96 214.069 L2214.02 214.069 L2214.02 210.133 Q2216.68 207.379 2221.26 202.749 Q2225.87 198.096 2227.05 196.754 Q2229.29 194.231 2230.17 192.495 Q2231.08 190.735 2231.08 189.046 Q2231.08 186.291 2229.13 184.555 Q2227.21 182.819 2224.11 182.819 Q2221.91 182.819 2219.46 183.583 Q2217.03 184.347 2214.25 185.897 L2214.25 181.175 Q2217.07 180.041 2219.53 179.462 Q2221.98 178.884 2224.02 178.884 Q2229.39 178.884 2232.58 181.569 Q2235.78 184.254 2235.78 188.745 Q2235.78 190.874 2234.97 192.796 Q2234.18 194.694 2232.07 197.286 Q2231.49 197.958 2228.39 201.175 Q2225.29 204.37 2219.64 210.133 Z" fill="#000000" fill-rule="nonzero" fill-opacity="1" /><path clip-path="url(#clip580)" d="M2255.13 178.05 L2255.13 220.319 L2245.31 220.319 L2245.31 217.008 L2250.84 217.008 L2250.84 181.36 L2245.31 181.36 L2245.31 178.05 L2255.13 178.05 Z" fill="#000000" fill-rule="nonzero" fill-opacity="1" /><polyline clip-path="url(#clip580)" style="stroke:#3da44d; stroke-linecap:round; stroke-linejoin:round; stroke-width:4; stroke-opacity:1; fill:none" points="1995.18,248.629 2141.62,248.629 "/>
<path clip-path="url(#clip580)" d="M2166.03 255.677 L2166.03 239.983 L2170.29 239.983 L2170.29 255.515 Q2170.29 259.196 2171.72 261.048 Q2173.16 262.876 2176.03 262.876 Q2179.48 262.876 2181.47 260.677 Q2183.48 258.478 2183.48 254.682 L2183.48 239.983 L2187.74 239.983 L2187.74 265.909 L2183.48 265.909 L2183.48 261.927 Q2181.93 264.288 2179.87 265.446 Q2177.84 266.58 2175.13 266.58 Q2170.66 266.58 2168.35 263.802 Q2166.03 261.024 2166.03 255.677 M2176.75 239.358 L2176.75 239.358 Z" fill="#000000" fill-rule="nonzero" fill-opacity="1" /><path clip-path="url(#clip580)" d="M2196.12 229.89 L2205.94 229.89 L2205.94 233.2 L2200.38 233.2 L2200.38 268.848 L2205.94 268.848 L2205.94 272.159 L2196.12 272.159 L2196.12 229.89 Z" fill="#000000" fill-rule="nonzero" fill-opacity="1" /><path clip-path="url(#clip580)" d="M2229.78 247.274 Q2233.14 247.992 2235.01 250.261 Q2236.91 252.529 2236.91 255.862 Q2236.91 260.978 2233.39 263.779 Q2229.87 266.58 2223.39 266.58 Q2221.22 266.58 2218.9 266.14 Q2216.61 265.723 2214.16 264.867 L2214.16 260.353 Q2216.1 261.487 2218.41 262.066 Q2220.73 262.645 2223.25 262.645 Q2227.65 262.645 2229.94 260.909 Q2232.26 259.173 2232.26 255.862 Q2232.26 252.807 2230.1 251.094 Q2227.97 249.358 2224.16 249.358 L2220.13 249.358 L2220.13 245.515 L2224.34 245.515 Q2227.79 245.515 2229.62 244.149 Q2231.45 242.761 2231.45 240.168 Q2231.45 237.506 2229.55 236.094 Q2227.67 234.659 2224.16 234.659 Q2222.23 234.659 2220.03 235.075 Q2217.84 235.492 2215.2 236.372 L2215.2 232.205 Q2217.86 231.464 2220.17 231.094 Q2222.51 230.724 2224.57 230.724 Q2229.9 230.724 2233 233.154 Q2236.1 235.562 2236.1 239.682 Q2236.1 242.552 2234.46 244.543 Q2232.81 246.511 2229.78 247.274 Z" fill="#000000" fill-rule="nonzero" fill-opacity="1" /><path clip-path="url(#clip580)" d="M2255.13 229.89 L2255.13 272.159 L2245.31 272.159 L2245.31 268.848 L2250.84 268.848 L2250.84 233.2 L2245.31 233.2 L2245.31 229.89 L2255.13 229.89 Z" fill="#000000" fill-rule="nonzero" fill-opacity="1" /><polyline clip-path="url(#clip580)" style="stroke:#c271d2; stroke-linecap:round; stroke-linejoin:round; stroke-width:4; stroke-opacity:1; fill:none" points="1995.18,300.469 2141.62,300.469 "/>
<path clip-path="url(#clip580)" d="M2166.03 307.517 L2166.03 291.823 L2170.29 291.823 L2170.29 307.355 Q2170.29 311.036 2171.72 312.888 Q2173.16 314.716 2176.03 314.716 Q2179.48 314.716 2181.47 312.517 Q2183.48 310.318 2183.48 306.522 L2183.48 291.823 L2187.74 291.823 L2187.74 317.749 L2183.48 317.749 L2183.48 313.767 Q2181.93 316.128 2179.87 317.286 Q2177.84 318.42 2175.13 318.42 Q2170.66 318.42 2168.35 315.642 Q2166.03 312.864 2166.03 307.517 M2176.75 291.198 L2176.75 291.198 Z" fill="#000000" fill-rule="nonzero" fill-opacity="1" /><path clip-path="url(#clip580)" d="M2196.12 281.73 L2205.94 281.73 L2205.94 285.04 L2200.38 285.04 L2200.38 320.688 L2205.94 320.688 L2205.94 323.999 L2196.12 323.999 L2196.12 281.73 Z" fill="#000000" fill-rule="nonzero" fill-opacity="1" /><path clip-path="url(#clip580)" d="M2228.46 287.263 L2216.66 305.712 L2228.46 305.712 L2228.46 287.263 M2227.23 283.189 L2233.11 283.189 L2233.11 305.712 L2238.04 305.712 L2238.04 309.601 L2233.11 309.601 L2233.11 317.749 L2228.46 317.749 L2228.46 309.601 L2212.86 309.601 L2212.86 305.087 L2227.23 283.189 Z" fill="#000000" fill-rule="nonzero" fill-opacity="1" /><path clip-path="url(#clip580)" d="M2255.13 281.73 L2255.13 323.999 L2245.31 323.999 L2245.31 320.688 L2250.84 320.688 L2250.84 285.04 L2245.31 285.04 L2245.31 281.73 L2255.13 281.73 Z" fill="#000000" fill-rule="nonzero" fill-opacity="1" /><polyline clip-path="url(#clip580)" style="stroke:#ac8d18; stroke-linecap:round; stroke-linejoin:round; stroke-width:4; stroke-opacity:1; fill:none" points="1995.18,352.309 2141.62,352.309 "/>
<path clip-path="url(#clip580)" d="M2166.03 359.357 L2166.03 343.663 L2170.29 343.663 L2170.29 359.195 Q2170.29 362.876 2171.72 364.728 Q2173.16 366.556 2176.03 366.556 Q2179.48 366.556 2181.47 364.357 Q2183.48 362.158 2183.48 358.362 L2183.48 343.663 L2187.74 343.663 L2187.74 369.589 L2183.48 369.589 L2183.48 365.607 Q2181.93 367.968 2179.87 369.126 Q2177.84 370.26 2175.13 370.26 Q2170.66 370.26 2168.35 367.482 Q2166.03 364.704 2166.03 359.357 M2176.75 343.038 L2176.75 343.038 Z" fill="#000000" fill-rule="nonzero" fill-opacity="1" /><path clip-path="url(#clip580)" d="M2196.12 333.57 L2205.94 333.57 L2205.94 336.88 L2200.38 336.88 L2200.38 372.528 L2205.94 372.528 L2205.94 375.839 L2196.12 375.839 L2196.12 333.57 Z" fill="#000000" fill-rule="nonzero" fill-opacity="1" /><path clip-path="url(#clip580)" d="M2215.66 335.029 L2234.02 335.029 L2234.02 338.964 L2219.94 338.964 L2219.94 347.436 Q2220.96 347.089 2221.98 346.927 Q2223 346.742 2224.02 346.742 Q2229.8 346.742 2233.18 349.913 Q2236.56 353.084 2236.56 358.501 Q2236.56 364.079 2233.09 367.181 Q2229.62 370.26 2223.3 370.26 Q2221.12 370.26 2218.85 369.89 Q2216.61 369.519 2214.2 368.778 L2214.2 364.079 Q2216.28 365.214 2218.51 365.769 Q2220.73 366.325 2223.21 366.325 Q2227.21 366.325 2229.55 364.218 Q2231.89 362.112 2231.89 358.501 Q2231.89 354.89 2229.55 352.783 Q2227.21 350.677 2223.21 350.677 Q2221.33 350.677 2219.46 351.093 Q2217.6 351.51 2215.66 352.39 L2215.66 335.029 Z" fill="#000000" fill-rule="nonzero" fill-opacity="1" /><path clip-path="url(#clip580)" d="M2255.13 333.57 L2255.13 375.839 L2245.31 375.839 L2245.31 372.528 L2250.84 372.528 L2250.84 336.88 L2245.31 336.88 L2245.31 333.57 L2255.13 333.57 Z" fill="#000000" fill-rule="nonzero" fill-opacity="1" /><polyline clip-path="url(#clip580)" style="stroke:#00a9ad; stroke-linecap:round; stroke-linejoin:round; stroke-width:4; stroke-opacity:1; fill:none" points="1995.18,404.149 2141.62,404.149 "/>
<path clip-path="url(#clip580)" d="M2166.03 411.197 L2166.03 395.503 L2170.29 395.503 L2170.29 411.035 Q2170.29 414.716 2171.72 416.568 Q2173.16 418.396 2176.03 418.396 Q2179.48 418.396 2181.47 416.197 Q2183.48 413.998 2183.48 410.202 L2183.48 395.503 L2187.74 395.503 L2187.74 421.429 L2183.48 421.429 L2183.48 417.447 Q2181.93 419.808 2179.87 420.966 Q2177.84 422.1 2175.13 422.1 Q2170.66 422.1 2168.35 419.322 Q2166.03 416.544 2166.03 411.197 M2176.75 394.878 L2176.75 394.878 Z" fill="#000000" fill-rule="nonzero" fill-opacity="1" /><path clip-path="url(#clip580)" d="M2196.12 385.41 L2205.94 385.41 L2205.94 388.72 L2200.38 388.72 L2200.38 424.368 L2205.94 424.368 L2205.94 427.679 L2196.12 427.679 L2196.12 385.41 Z" fill="#000000" fill-rule="nonzero" fill-opacity="1" /><path clip-path="url(#clip580)" d="M2226.19 402.285 Q2223.04 402.285 2221.19 404.438 Q2219.36 406.591 2219.36 410.341 Q2219.36 414.068 2221.19 416.243 Q2223.04 418.396 2226.19 418.396 Q2229.34 418.396 2231.17 416.243 Q2233.02 414.068 2233.02 410.341 Q2233.02 406.591 2231.17 404.438 Q2229.34 402.285 2226.19 402.285 M2235.47 387.633 L2235.47 391.892 Q2233.72 391.058 2231.91 390.619 Q2230.13 390.179 2228.37 390.179 Q2223.74 390.179 2221.28 393.304 Q2218.85 396.429 2218.51 402.748 Q2219.87 400.734 2221.93 399.669 Q2223.99 398.582 2226.47 398.582 Q2231.68 398.582 2234.69 401.753 Q2237.72 404.901 2237.72 410.341 Q2237.72 415.665 2234.57 418.882 Q2231.42 422.1 2226.19 422.1 Q2220.2 422.1 2217.03 417.517 Q2213.85 412.91 2213.85 404.183 Q2213.85 395.989 2217.74 391.128 Q2221.63 386.244 2228.18 386.244 Q2229.94 386.244 2231.72 386.591 Q2233.53 386.938 2235.47 387.633 Z" fill="#000000" fill-rule="nonzero" fill-opacity="1" /><path clip-path="url(#clip580)" d="M2255.13 385.41 L2255.13 427.679 L2245.31 427.679 L2245.31 424.368 L2250.84 424.368 L2250.84 388.72 L2245.31 388.72 L2245.31 385.41 L2255.13 385.41 Z" fill="#000000" fill-rule="nonzero" fill-opacity="1" /><polyline clip-path="url(#clip580)" style="stroke:#ed5d92; stroke-linecap:round; stroke-linejoin:round; stroke-width:4; stroke-opacity:1; fill:none" points="1995.18,455.989 2141.62,455.989 "/>
<path clip-path="url(#clip580)" d="M2166.03 463.037 L2166.03 447.343 L2170.29 447.343 L2170.29 462.875 Q2170.29 466.556 2171.72 468.408 Q2173.16 470.236 2176.03 470.236 Q2179.48 470.236 2181.47 468.037 Q2183.48 465.838 2183.48 462.042 L2183.48 447.343 L2187.74 447.343 L2187.74 473.269 L2183.48 473.269 L2183.48 469.287 Q2181.93 471.648 2179.87 472.806 Q2177.84 473.94 2175.13 473.94 Q2170.66 473.94 2168.35 471.162 Q2166.03 468.384 2166.03 463.037 M2176.75 446.718 L2176.75 446.718 Z" fill="#000000" fill-rule="nonzero" fill-opacity="1" /><path clip-path="url(#clip580)" d="M2196.12 437.25 L2205.94 437.25 L2205.94 440.56 L2200.38 440.56 L2200.38 476.208 L2205.94 476.208 L2205.94 479.519 L2196.12 479.519 L2196.12 437.25 Z" fill="#000000" fill-rule="nonzero" fill-opacity="1" /><path clip-path="url(#clip580)" d="M2214.43 438.709 L2236.66 438.709 L2236.66 440.699 L2224.11 473.269 L2219.22 473.269 L2231.03 442.644 L2214.43 442.644 L2214.43 438.709 Z" fill="#000000" fill-rule="nonzero" fill-opacity="1" /><path clip-path="url(#clip580)" d="M2255.13 437.25 L2255.13 479.519 L2245.31 479.519 L2245.31 476.208 L2250.84 476.208 L2250.84 440.56 L2245.31 440.56 L2245.31 437.25 L2255.13 437.25 Z" fill="#000000" fill-rule="nonzero" fill-opacity="1" /><polyline clip-path="url(#clip580)" style="stroke:#c68125; stroke-linecap:round; stroke-linejoin:round; stroke-width:4; stroke-opacity:1; fill:none" points="1995.18,507.829 2141.62,507.829 "/>
<path clip-path="url(#clip580)" d="M2166.03 514.877 L2166.03 499.183 L2170.29 499.183 L2170.29 514.715 Q2170.29 518.396 2171.72 520.248 Q2173.16 522.076 2176.03 522.076 Q2179.48 522.076 2181.47 519.877 Q2183.48 517.678 2183.48 513.882 L2183.48 499.183 L2187.74 499.183 L2187.74 525.109 L2183.48 525.109 L2183.48 521.127 Q2181.93 523.488 2179.87 524.646 Q2177.84 525.78 2175.13 525.78 Q2170.66 525.78 2168.35 523.002 Q2166.03 520.224 2166.03 514.877 M2176.75 498.558 L2176.75 498.558 Z" fill="#000000" fill-rule="nonzero" fill-opacity="1" /><path clip-path="url(#clip580)" d="M2196.12 489.09 L2205.94 489.09 L2205.94 492.4 L2200.38 492.4 L2200.38 528.048 L2205.94 528.048 L2205.94 531.359 L2196.12 531.359 L2196.12 489.09 Z" fill="#000000" fill-rule="nonzero" fill-opacity="1" /><path clip-path="url(#clip580)" d="M2225.61 508.697 Q2222.28 508.697 2220.36 510.479 Q2218.46 512.261 2218.46 515.386 Q2218.46 518.511 2220.36 520.294 Q2222.28 522.076 2225.61 522.076 Q2228.95 522.076 2230.87 520.294 Q2232.79 518.488 2232.79 515.386 Q2232.79 512.261 2230.87 510.479 Q2228.97 508.697 2225.61 508.697 M2220.94 506.706 Q2217.93 505.965 2216.24 503.905 Q2214.57 501.845 2214.57 498.882 Q2214.57 494.738 2217.51 492.331 Q2220.47 489.924 2225.61 489.924 Q2230.78 489.924 2233.72 492.331 Q2236.66 494.738 2236.66 498.882 Q2236.66 501.845 2234.97 503.905 Q2233.3 505.965 2230.31 506.706 Q2233.69 507.493 2235.57 509.785 Q2237.47 512.076 2237.47 515.386 Q2237.47 520.41 2234.39 523.095 Q2231.33 525.78 2225.61 525.78 Q2219.9 525.78 2216.82 523.095 Q2213.76 520.41 2213.76 515.386 Q2213.76 512.076 2215.66 509.785 Q2217.56 507.493 2220.94 506.706 M2219.22 499.322 Q2219.22 502.007 2220.89 503.512 Q2222.58 505.016 2225.61 505.016 Q2228.62 505.016 2230.31 503.512 Q2232.03 502.007 2232.03 499.322 Q2232.03 496.637 2230.31 495.132 Q2228.62 493.627 2225.61 493.627 Q2222.58 493.627 2220.89 495.132 Q2219.22 496.637 2219.22 499.322 Z" fill="#000000" fill-rule="nonzero" fill-opacity="1" /><path clip-path="url(#clip580)" d="M2255.13 489.09 L2255.13 531.359 L2245.31 531.359 L2245.31 528.048 L2250.84 528.048 L2250.84 492.4 L2245.31 492.4 L2245.31 489.09 L2255.13 489.09 Z" fill="#000000" fill-rule="nonzero" fill-opacity="1" /></svg>
