<?xml version="1.0" encoding="utf-8"?>
<svg xmlns="http://www.w3.org/2000/svg" xmlns:xlink="http://www.w3.org/1999/xlink" width="600" height="400" viewBox="0 0 2400 1600">
<defs>
  <clipPath id="clip340">
    <rect x="0" y="0" width="2400" height="1600"/>
  </clipPath>
</defs>
<path clip-path="url(#clip340)" d="M0 1600 L2400 1600 L2400 0 L0 0  Z" fill="#ffffff" fill-rule="evenodd" fill-opacity="1"/>
<defs>
  <clipPath id="clip341">
    <rect x="480" y="0" width="1681" height="1600"/>
  </clipPath>
</defs>
<path clip-path="url(#clip340)" d="M178.867 1423.18 L2352.76 1423.18 L2352.76 47.2441 L178.867 47.2441  Z" fill="#ffffff" fill-rule="evenodd" fill-opacity="1"/>
<defs>
  <clipPath id="clip342">
    <rect x="178" y="47" width="2175" height="1377"/>
  </clipPath>
</defs>
<polyline clip-path="url(#clip342)" style="stroke:#000000; stroke-linecap:round; stroke-linejoin:round; stroke-width:2; stroke-opacity:0.1; fill:none" points="178.867,1423.18 178.867,47.2441 "/>
<polyline clip-path="url(#clip342)" style="stroke:#000000; stroke-linecap:round; stroke-linejoin:round; stroke-width:2; stroke-opacity:0.1; fill:none" points="489.422,1423.18 489.422,47.2441 "/>
<polyline clip-path="url(#clip342)" style="stroke:#000000; stroke-linecap:round; stroke-linejoin:round; stroke-width:2; stroke-opacity:0.1; fill:none" points="799.978,1423.18 799.978,47.2441 "/>
<polyline clip-path="url(#clip342)" style="stroke:#000000; stroke-linecap:round; stroke-linejoin:round; stroke-width:2; stroke-opacity:0.1; fill:none" points="1110.53,1423.18 1110.53,47.2441 "/>
<polyline clip-path="url(#clip342)" style="stroke:#000000; stroke-linecap:round; stroke-linejoin:round; stroke-width:2; stroke-opacity:0.1; fill:none" points="1421.09,1423.18 1421.09,47.2441 "/>
<polyline clip-path="url(#clip342)" style="stroke:#000000; stroke-linecap:round; stroke-linejoin:round; stroke-width:2; stroke-opacity:0.1; fill:none" points="1731.64,1423.18 1731.64,47.2441 "/>
<polyline clip-path="url(#clip342)" style="stroke:#000000; stroke-linecap:round; stroke-linejoin:round; stroke-width:2; stroke-opacity:0.1; fill:none" points="2042.2,1423.18 2042.2,47.2441 "/>
<polyline clip-path="url(#clip342)" style="stroke:#000000; stroke-linecap:round; stroke-linejoin:round; stroke-width:2; stroke-opacity:0.1; fill:none" points="2352.76,1423.18 2352.76,47.2441 "/>
<polyline clip-path="url(#clip340)" style="stroke:#000000; stroke-linecap:round; stroke-linejoin:round; stroke-width:4; stroke-opacity:1; fill:none" points="178.867,1423.18 2352.76,1423.18 "/>
<polyline clip-path="url(#clip340)" style="stroke:#000000; stroke-linecap:round; stroke-linejoin:round; stroke-width:4; stroke-opacity:1; fill:none" points="178.867,1423.18 178.867,1404.28 "/>
<polyline clip-path="url(#clip340)" style="stroke:#000000; stroke-linecap:round; stroke-linejoin:round; stroke-width:4; stroke-opacity:1; fill:none" points="489.422,1423.18 489.422,1404.28 "/>
<polyline clip-path="url(#clip340)" style="stroke:#000000; stroke-linecap:round; stroke-linejoin:round; stroke-width:4; stroke-opacity:1; fill:none" points="799.978,1423.18 799.978,1404.28 "/>
<polyline clip-path="url(#clip340)" style="stroke:#000000; stroke-linecap:round; stroke-linejoin:round; stroke-width:4; stroke-opacity:1; fill:none" points="1110.53,1423.18 1110.53,1404.28 "/>
<polyline clip-path="url(#clip340)" style="stroke:#000000; stroke-linecap:round; stroke-linejoin:round; stroke-width:4; stroke-opacity:1; fill:none" points="1421.09,1423.18 1421.09,1404.28 "/>
<polyline clip-path="url(#clip340)" style="stroke:#000000; stroke-linecap:round; stroke-linejoin:round; stroke-width:4; stroke-opacity:1; fill:none" points="1731.64,1423.18 1731.64,1404.28 "/>
<polyline clip-path="url(#clip340)" style="stroke:#000000; stroke-linecap:round; stroke-linejoin:round; stroke-width:4; stroke-opacity:1; fill:none" points="2042.2,1423.18 2042.2,1404.28 "/>
<polyline clip-path="url(#clip340)" style="stroke:#000000; stroke-linecap:round; stroke-linejoin:round; stroke-width:4; stroke-opacity:1; fill:none" points="2352.76,1423.18 2352.76,1404.28 "/>
<path clip-path="url(#clip340)" d="M178.867 1454.1 Q175.256 1454.1 173.427 1457.66 Q171.621 1461.2 171.621 1468.33 Q171.621 1475.44 173.427 1479.01 Q175.256 1482.55 178.867 1482.55 Q182.501 1482.55 184.306 1479.01 Q186.135 1475.44 186.135 1468.33 Q186.135 1461.2 184.306 1457.66 Q182.501 1454.1 178.867 1454.1 M178.867 1450.39 Q184.677 1450.39 187.732 1455 Q190.811 1459.58 190.811 1468.33 Q190.811 1477.06 187.732 1481.67 Q184.677 1486.25 178.867 1486.25 Q173.056 1486.25 169.978 1481.67 Q166.922 1477.06 166.922 1468.33 Q166.922 1459.58 169.978 1455 Q173.056 1450.39 178.867 1450.39 Z" fill="#000000" fill-rule="nonzero" fill-opacity="1" /><path clip-path="url(#clip340)" d="M449.029 1481.64 L456.668 1481.64 L456.668 1455.28 L448.358 1456.95 L448.358 1452.69 L456.621 1451.02 L461.297 1451.02 L461.297 1481.64 L468.936 1481.64 L468.936 1485.58 L449.029 1485.58 L449.029 1481.64 Z" fill="#000000" fill-rule="nonzero" fill-opacity="1" /><path clip-path="url(#clip340)" d="M488.381 1454.1 Q484.769 1454.1 482.941 1457.66 Q481.135 1461.2 481.135 1468.33 Q481.135 1475.44 482.941 1479.01 Q484.769 1482.55 488.381 1482.55 Q492.015 1482.55 493.82 1479.01 Q495.649 1475.44 495.649 1468.33 Q495.649 1461.2 493.82 1457.66 Q492.015 1454.1 488.381 1454.1 M488.381 1450.39 Q494.191 1450.39 497.246 1455 Q500.325 1459.58 500.325 1468.33 Q500.325 1477.06 497.246 1481.67 Q494.191 1486.25 488.381 1486.25 Q482.57 1486.25 479.492 1481.67 Q476.436 1477.06 476.436 1468.33 Q476.436 1459.58 479.492 1455 Q482.57 1450.39 488.381 1450.39 Z" fill="#000000" fill-rule="nonzero" fill-opacity="1" /><path clip-path="url(#clip340)" d="M518.542 1454.1 Q514.931 1454.1 513.103 1457.66 Q511.297 1461.2 511.297 1468.33 Q511.297 1475.44 513.103 1479.01 Q514.931 1482.55 518.542 1482.55 Q522.177 1482.55 523.982 1479.01 Q525.811 1475.44 525.811 1468.33 Q525.811 1461.2 523.982 1457.66 Q522.177 1454.1 518.542 1454.1 M518.542 1450.39 Q524.353 1450.39 527.408 1455 Q530.487 1459.58 530.487 1468.33 Q530.487 1477.06 527.408 1481.67 Q524.353 1486.25 518.542 1486.25 Q512.732 1486.25 509.654 1481.67 Q506.598 1477.06 506.598 1468.33 Q506.598 1459.58 509.654 1455 Q512.732 1450.39 518.542 1450.39 Z" fill="#000000" fill-rule="nonzero" fill-opacity="1" /><path clip-path="url(#clip340)" d="M763.67 1481.64 L779.99 1481.64 L779.99 1485.58 L758.045 1485.58 L758.045 1481.64 Q760.707 1478.89 765.291 1474.26 Q769.897 1469.61 771.078 1468.27 Q773.323 1465.74 774.203 1464.01 Q775.105 1462.25 775.105 1460.56 Q775.105 1457.8 773.161 1456.07 Q771.24 1454.33 768.138 1454.33 Q765.939 1454.33 763.485 1455.09 Q761.054 1455.86 758.277 1457.41 L758.277 1452.69 Q761.101 1451.55 763.554 1450.97 Q766.008 1450.39 768.045 1450.39 Q773.415 1450.39 776.61 1453.08 Q779.804 1455.77 779.804 1460.26 Q779.804 1462.39 778.994 1464.31 Q778.207 1466.2 776.101 1468.8 Q775.522 1469.47 772.42 1472.69 Q769.318 1475.88 763.67 1481.64 Z" fill="#000000" fill-rule="nonzero" fill-opacity="1" /><path clip-path="url(#clip340)" d="M799.804 1454.1 Q796.193 1454.1 794.364 1457.66 Q792.559 1461.2 792.559 1468.33 Q792.559 1475.44 794.364 1479.01 Q796.193 1482.55 799.804 1482.55 Q803.438 1482.55 805.244 1479.01 Q807.073 1475.44 807.073 1468.33 Q807.073 1461.2 805.244 1457.66 Q803.438 1454.1 799.804 1454.1 M799.804 1450.39 Q805.614 1450.39 808.67 1455 Q811.749 1459.58 811.749 1468.33 Q811.749 1477.06 808.67 1481.67 Q805.614 1486.25 799.804 1486.25 Q793.994 1486.25 790.915 1481.67 Q787.86 1477.06 787.86 1468.33 Q787.86 1459.58 790.915 1455 Q793.994 1450.39 799.804 1450.39 Z" fill="#000000" fill-rule="nonzero" fill-opacity="1" /><path clip-path="url(#clip340)" d="M829.966 1454.1 Q826.355 1454.1 824.526 1457.66 Q822.721 1461.2 822.721 1468.33 Q822.721 1475.44 824.526 1479.01 Q826.355 1482.55 829.966 1482.55 Q833.6 1482.55 835.406 1479.01 Q837.235 1475.44 837.235 1468.33 Q837.235 1461.2 835.406 1457.66 Q833.6 1454.1 829.966 1454.1 M829.966 1450.39 Q835.776 1450.39 838.832 1455 Q841.91 1459.58 841.91 1468.33 Q841.91 1477.06 838.832 1481.67 Q835.776 1486.25 829.966 1486.25 Q824.156 1486.25 821.077 1481.67 Q818.022 1477.06 818.022 1468.33 Q818.022 1459.58 821.077 1455 Q824.156 1450.39 829.966 1450.39 Z" fill="#000000" fill-rule="nonzero" fill-opacity="1" /><path clip-path="url(#clip340)" d="M1084.3 1466.95 Q1087.65 1467.66 1089.53 1469.93 Q1091.42 1472.2 1091.42 1475.53 Q1091.42 1480.65 1087.91 1483.45 Q1084.39 1486.25 1077.91 1486.25 Q1075.73 1486.25 1073.42 1485.81 Q1071.12 1485.39 1068.67 1484.54 L1068.67 1480.02 Q1070.61 1481.16 1072.93 1481.74 Q1075.24 1482.32 1077.77 1482.32 Q1082.17 1482.32 1084.46 1480.58 Q1086.77 1478.84 1086.77 1475.53 Q1086.77 1472.48 1084.62 1470.77 Q1082.49 1469.03 1078.67 1469.03 L1074.64 1469.03 L1074.64 1465.19 L1078.86 1465.19 Q1082.3 1465.19 1084.13 1463.82 Q1085.96 1462.43 1085.96 1459.84 Q1085.96 1457.18 1084.06 1455.77 Q1082.19 1454.33 1078.67 1454.33 Q1076.75 1454.33 1074.55 1454.75 Q1072.35 1455.16 1069.71 1456.04 L1069.71 1451.88 Q1072.37 1451.14 1074.69 1450.77 Q1077.03 1450.39 1079.09 1450.39 Q1084.41 1450.39 1087.51 1452.83 Q1090.61 1455.23 1090.61 1459.35 Q1090.61 1462.22 1088.97 1464.21 Q1087.33 1466.18 1084.3 1466.95 Z" fill="#000000" fill-rule="nonzero" fill-opacity="1" /><path clip-path="url(#clip340)" d="M1110.29 1454.1 Q1106.68 1454.1 1104.85 1457.66 Q1103.05 1461.2 1103.05 1468.33 Q1103.05 1475.44 1104.85 1479.01 Q1106.68 1482.55 1110.29 1482.55 Q1113.92 1482.55 1115.73 1479.01 Q1117.56 1475.44 1117.56 1468.33 Q1117.56 1461.2 1115.73 1457.66 Q1113.92 1454.1 1110.29 1454.1 M1110.29 1450.39 Q1116.1 1450.39 1119.16 1455 Q1122.23 1459.58 1122.23 1468.33 Q1122.23 1477.06 1119.16 1481.67 Q1116.1 1486.25 1110.29 1486.25 Q1104.48 1486.25 1101.4 1481.67 Q1098.35 1477.06 1098.35 1468.33 Q1098.35 1459.58 1101.4 1455 Q1104.48 1450.39 1110.29 1450.39 Z" fill="#000000" fill-rule="nonzero" fill-opacity="1" /><path clip-path="url(#clip340)" d="M1140.45 1454.1 Q1136.84 1454.1 1135.01 1457.66 Q1133.21 1461.2 1133.21 1468.33 Q1133.21 1475.44 1135.01 1479.01 Q1136.84 1482.55 1140.45 1482.55 Q1144.09 1482.55 1145.89 1479.01 Q1147.72 1475.44 1147.72 1468.33 Q1147.72 1461.2 1145.89 1457.66 Q1144.09 1454.1 1140.45 1454.1 M1140.45 1450.39 Q1146.26 1450.39 1149.32 1455 Q1152.4 1459.58 1152.4 1468.33 Q1152.4 1477.06 1149.32 1481.67 Q1146.26 1486.25 1140.45 1486.25 Q1134.64 1486.25 1131.56 1481.67 Q1128.51 1477.06 1128.51 1468.33 Q1128.51 1459.58 1131.56 1455 Q1134.64 1450.39 1140.45 1450.39 Z" fill="#000000" fill-rule="nonzero" fill-opacity="1" /><path clip-path="url(#clip340)" d="M1394.18 1455.09 L1382.37 1473.54 L1394.18 1473.54 L1394.18 1455.09 M1392.95 1451.02 L1398.83 1451.02 L1398.83 1473.54 L1403.76 1473.54 L1403.76 1477.43 L1398.83 1477.43 L1398.83 1485.58 L1394.18 1485.58 L1394.18 1477.43 L1378.58 1477.43 L1378.58 1472.92 L1392.95 1451.02 Z" fill="#000000" fill-rule="nonzero" fill-opacity="1" /><path clip-path="url(#clip340)" d="M1421.49 1454.1 Q1417.88 1454.1 1416.05 1457.66 Q1414.25 1461.2 1414.25 1468.33 Q1414.25 1475.44 1416.05 1479.01 Q1417.88 1482.55 1421.49 1482.55 Q1425.13 1482.55 1426.93 1479.01 Q1428.76 1475.44 1428.76 1468.33 Q1428.76 1461.2 1426.93 1457.66 Q1425.13 1454.1 1421.49 1454.1 M1421.49 1450.39 Q1427.3 1450.39 1430.36 1455 Q1433.44 1459.58 1433.44 1468.33 Q1433.44 1477.06 1430.36 1481.67 Q1427.3 1486.25 1421.49 1486.25 Q1415.68 1486.25 1412.61 1481.67 Q1409.55 1477.06 1409.55 1468.33 Q1409.55 1459.58 1412.61 1455 Q1415.68 1450.39 1421.49 1450.39 Z" fill="#000000" fill-rule="nonzero" fill-opacity="1" /><path clip-path="url(#clip340)" d="M1451.66 1454.1 Q1448.04 1454.1 1446.22 1457.66 Q1444.41 1461.2 1444.41 1468.33 Q1444.41 1475.44 1446.22 1479.01 Q1448.04 1482.55 1451.66 1482.55 Q1455.29 1482.55 1457.1 1479.01 Q1458.92 1475.44 1458.92 1468.33 Q1458.92 1461.2 1457.1 1457.66 Q1455.29 1454.1 1451.66 1454.1 M1451.66 1450.39 Q1457.47 1450.39 1460.52 1455 Q1463.6 1459.58 1463.6 1468.33 Q1463.6 1477.06 1460.52 1481.67 Q1457.47 1486.25 1451.66 1486.25 Q1445.85 1486.25 1442.77 1481.67 Q1439.71 1477.06 1439.71 1468.33 Q1439.71 1459.58 1442.77 1455 Q1445.85 1450.39 1451.66 1450.39 Z" fill="#000000" fill-rule="nonzero" fill-opacity="1" /><path clip-path="url(#clip340)" d="M1691.26 1451.02 L1709.62 1451.02 L1709.62 1454.96 L1695.55 1454.96 L1695.55 1463.43 Q1696.56 1463.08 1697.58 1462.92 Q1698.6 1462.73 1699.62 1462.73 Q1705.41 1462.73 1708.79 1465.9 Q1712.17 1469.08 1712.17 1474.49 Q1712.17 1480.07 1708.69 1483.17 Q1705.22 1486.25 1698.9 1486.25 Q1696.73 1486.25 1694.46 1485.88 Q1692.21 1485.51 1689.8 1484.77 L1689.8 1480.07 Q1691.89 1481.2 1694.11 1481.76 Q1696.33 1482.32 1698.81 1482.32 Q1702.81 1482.32 1705.15 1480.21 Q1707.49 1478.1 1707.49 1474.49 Q1707.49 1470.88 1705.15 1468.77 Q1702.81 1466.67 1698.81 1466.67 Q1696.93 1466.67 1695.06 1467.08 Q1693.21 1467.5 1691.26 1468.38 L1691.26 1451.02 Z" fill="#000000" fill-rule="nonzero" fill-opacity="1" /><path clip-path="url(#clip340)" d="M1731.38 1454.1 Q1727.77 1454.1 1725.94 1457.66 Q1724.13 1461.2 1724.13 1468.33 Q1724.13 1475.44 1725.94 1479.01 Q1727.77 1482.55 1731.38 1482.55 Q1735.01 1482.55 1736.82 1479.01 Q1738.65 1475.44 1738.65 1468.33 Q1738.65 1461.2 1736.82 1457.66 Q1735.01 1454.1 1731.38 1454.1 M1731.38 1450.39 Q1737.19 1450.39 1740.24 1455 Q1743.32 1459.58 1743.32 1468.33 Q1743.32 1477.06 1740.24 1481.67 Q1737.19 1486.25 1731.38 1486.25 Q1725.57 1486.25 1722.49 1481.67 Q1719.43 1477.06 1719.43 1468.33 Q1719.43 1459.58 1722.49 1455 Q1725.57 1450.39 1731.38 1450.39 Z" fill="#000000" fill-rule="nonzero" fill-opacity="1" /><path clip-path="url(#clip340)" d="M1761.54 1454.1 Q1757.93 1454.1 1756.1 1457.66 Q1754.3 1461.2 1754.3 1468.33 Q1754.3 1475.44 1756.1 1479.01 Q1757.93 1482.55 1761.54 1482.55 Q1765.17 1482.55 1766.98 1479.01 Q1768.81 1475.44 1768.81 1468.33 Q1768.81 1461.2 1766.98 1457.66 Q1765.17 1454.1 1761.54 1454.1 M1761.54 1450.39 Q1767.35 1450.39 1770.41 1455 Q1773.48 1459.58 1773.48 1468.33 Q1773.48 1477.06 1770.41 1481.67 Q1767.35 1486.25 1761.54 1486.25 Q1755.73 1486.25 1752.65 1481.67 Q1749.6 1477.06 1749.6 1468.33 Q1749.6 1459.58 1752.65 1455 Q1755.73 1450.39 1761.54 1450.39 Z" fill="#000000" fill-rule="nonzero" fill-opacity="1" /><path clip-path="url(#clip340)" d="M2012.52 1466.44 Q2009.38 1466.44 2007.52 1468.59 Q2005.7 1470.74 2005.7 1474.49 Q2005.7 1478.22 2007.52 1480.39 Q2009.38 1482.55 2012.52 1482.55 Q2015.67 1482.55 2017.5 1480.39 Q2019.35 1478.22 2019.35 1474.49 Q2019.35 1470.74 2017.5 1468.59 Q2015.67 1466.44 2012.52 1466.44 M2021.81 1451.78 L2021.81 1456.04 Q2020.05 1455.21 2018.24 1454.77 Q2016.46 1454.33 2014.7 1454.33 Q2010.07 1454.33 2007.62 1457.45 Q2005.19 1460.58 2004.84 1466.9 Q2006.21 1464.89 2008.27 1463.82 Q2010.33 1462.73 2012.8 1462.73 Q2018.01 1462.73 2021.02 1465.9 Q2024.05 1469.05 2024.05 1474.49 Q2024.05 1479.82 2020.9 1483.03 Q2017.76 1486.25 2012.52 1486.25 Q2006.53 1486.25 2003.36 1481.67 Q2000.19 1477.06 2000.19 1468.33 Q2000.19 1460.14 2004.08 1455.28 Q2007.96 1450.39 2014.52 1450.39 Q2016.27 1450.39 2018.06 1450.74 Q2019.86 1451.09 2021.81 1451.78 Z" fill="#000000" fill-rule="nonzero" fill-opacity="1" /><path clip-path="url(#clip340)" d="M2042.11 1454.1 Q2038.5 1454.1 2036.67 1457.66 Q2034.86 1461.2 2034.86 1468.33 Q2034.86 1475.44 2036.67 1479.01 Q2038.5 1482.55 2042.11 1482.55 Q2045.74 1482.55 2047.55 1479.01 Q2049.38 1475.44 2049.38 1468.33 Q2049.38 1461.2 2047.55 1457.66 Q2045.74 1454.1 2042.11 1454.1 M2042.11 1450.39 Q2047.92 1450.39 2050.97 1455 Q2054.05 1459.58 2054.05 1468.33 Q2054.05 1477.06 2050.97 1481.67 Q2047.92 1486.25 2042.11 1486.25 Q2036.3 1486.25 2033.22 1481.67 Q2030.16 1477.06 2030.16 1468.33 Q2030.16 1459.58 2033.22 1455 Q2036.3 1450.39 2042.11 1450.39 Z" fill="#000000" fill-rule="nonzero" fill-opacity="1" /><path clip-path="url(#clip340)" d="M2072.27 1454.1 Q2068.66 1454.1 2066.83 1457.66 Q2065.02 1461.2 2065.02 1468.33 Q2065.02 1475.44 2066.83 1479.01 Q2068.66 1482.55 2072.27 1482.55 Q2075.9 1482.55 2077.71 1479.01 Q2079.54 1475.44 2079.54 1468.33 Q2079.54 1461.2 2077.71 1457.66 Q2075.9 1454.1 2072.27 1454.1 M2072.27 1450.39 Q2078.08 1450.39 2081.14 1455 Q2084.21 1459.58 2084.21 1468.33 Q2084.21 1477.06 2081.14 1481.67 Q2078.08 1486.25 2072.27 1486.25 Q2066.46 1486.25 2063.38 1481.67 Q2060.33 1477.06 2060.33 1468.33 Q2060.33 1459.58 2063.38 1455 Q2066.46 1450.39 2072.27 1450.39 Z" fill="#000000" fill-rule="nonzero" fill-opacity="1" /><path clip-path="url(#clip340)" d="M2311.03 1451.02 L2333.25 1451.02 L2333.25 1453.01 L2320.71 1485.58 L2315.82 1485.58 L2327.63 1454.96 L2311.03 1454.96 L2311.03 1451.02 Z" fill="#000000" fill-rule="nonzero" fill-opacity="1" /><path clip-path="url(#clip340)" d="M2352.37 1454.1 Q2348.76 1454.1 2346.93 1457.66 Q2345.13 1461.2 2345.13 1468.33 Q2345.13 1475.44 2346.93 1479.01 Q2348.76 1482.55 2352.37 1482.55 Q2356.01 1482.55 2357.81 1479.01 Q2359.64 1475.44 2359.64 1468.33 Q2359.64 1461.2 2357.81 1457.66 Q2356.01 1454.1 2352.37 1454.1 M2352.37 1450.39 Q2358.18 1450.39 2361.24 1455 Q2364.32 1459.58 2364.32 1468.33 Q2364.32 1477.06 2361.24 1481.67 Q2358.18 1486.25 2352.37 1486.25 Q2346.56 1486.25 2343.49 1481.67 Q2340.43 1477.06 2340.43 1468.33 Q2340.43 1459.58 2343.49 1455 Q2346.56 1450.39 2352.37 1450.39 Z" fill="#000000" fill-rule="nonzero" fill-opacity="1" /><path clip-path="url(#clip340)" d="M2382.54 1454.1 Q2378.92 1454.1 2377.1 1457.66 Q2375.29 1461.2 2375.29 1468.33 Q2375.29 1475.44 2377.1 1479.01 Q2378.92 1482.55 2382.54 1482.55 Q2386.17 1482.55 2387.98 1479.01 Q2389.8 1475.44 2389.8 1468.33 Q2389.8 1461.2 2387.98 1457.66 Q2386.17 1454.1 2382.54 1454.1 M2382.54 1450.39 Q2388.35 1450.39 2391.4 1455 Q2394.48 1459.58 2394.48 1468.33 Q2394.48 1477.06 2391.4 1481.67 Q2388.35 1486.25 2382.54 1486.25 Q2376.73 1486.25 2373.65 1481.67 Q2370.59 1477.06 2370.59 1468.33 Q2370.59 1459.58 2373.65 1455 Q2376.73 1450.39 2382.54 1450.39 Z" fill="#000000" fill-rule="nonzero" fill-opacity="1" /><path clip-path="url(#clip340)" d="M1264.87 1522.27 L1264.87 1532.4 L1276.94 1532.4 L1276.94 1536.95 L1264.87 1536.95 L1264.87 1556.3 Q1264.87 1560.66 1266.05 1561.9 Q1267.26 1563.14 1270.92 1563.14 L1276.94 1563.14 L1276.94 1568.04 L1270.92 1568.04 Q1264.14 1568.04 1261.56 1565.53 Q1258.98 1562.98 1258.98 1556.3 L1258.98 1536.95 L1254.69 1536.95 L1254.69 1532.4 L1258.98 1532.4 L1258.98 1522.27 L1264.87 1522.27 Z" fill="#000000" fill-rule="nonzero" fill-opacity="1" /><polyline clip-path="url(#clip342)" style="stroke:#000000; stroke-linecap:round; stroke-linejoin:round; stroke-width:2; stroke-opacity:0.1; fill:none" points="178.867,1227.5 2352.76,1227.5 "/>
<polyline clip-path="url(#clip342)" style="stroke:#000000; stroke-linecap:round; stroke-linejoin:round; stroke-width:2; stroke-opacity:0.1; fill:none" points="178.867,847.065 2352.76,847.065 "/>
<polyline clip-path="url(#clip342)" style="stroke:#000000; stroke-linecap:round; stroke-linejoin:round; stroke-width:2; stroke-opacity:0.1; fill:none" points="178.867,466.625 2352.76,466.625 "/>
<polyline clip-path="url(#clip342)" style="stroke:#000000; stroke-linecap:round; stroke-linejoin:round; stroke-width:2; stroke-opacity:0.1; fill:none" points="178.867,86.1857 2352.76,86.1857 "/>
<polyline clip-path="url(#clip340)" style="stroke:#000000; stroke-linecap:round; stroke-linejoin:round; stroke-width:4; stroke-opacity:1; fill:none" points="178.867,1423.18 178.867,47.2441 "/>
<polyline clip-path="url(#clip340)" style="stroke:#000000; stroke-linecap:round; stroke-linejoin:round; stroke-width:4; stroke-opacity:1; fill:none" points="178.867,1227.5 197.764,1227.5 "/>
<polyline clip-path="url(#clip340)" style="stroke:#000000; stroke-linecap:round; stroke-linejoin:round; stroke-width:4; stroke-opacity:1; fill:none" points="178.867,847.065 197.764,847.065 "/>
<polyline clip-path="url(#clip340)" style="stroke:#000000; stroke-linecap:round; stroke-linejoin:round; stroke-width:4; stroke-opacity:1; fill:none" points="178.867,466.625 197.764,466.625 "/>
<polyline clip-path="url(#clip340)" style="stroke:#000000; stroke-linecap:round; stroke-linejoin:round; stroke-width:4; stroke-opacity:1; fill:none" points="178.867,86.1857 197.764,86.1857 "/>
<path clip-path="url(#clip340)" d="M51.6403 1227.96 L81.316 1227.96 L81.316 1231.89 L51.6403 1231.89 L51.6403 1227.96 Z" fill="#000000" fill-rule="nonzero" fill-opacity="1" /><path clip-path="url(#clip340)" d="M101.987 1225.64 Q98.8391 1225.64 96.9872 1227.79 Q95.1586 1229.95 95.1586 1233.7 Q95.1586 1237.42 96.9872 1239.6 Q98.8391 1241.75 101.987 1241.75 Q105.135 1241.75 106.964 1239.6 Q108.816 1237.42 108.816 1233.7 Q108.816 1229.95 106.964 1227.79 Q105.135 1225.64 101.987 1225.64 M111.27 1210.99 L111.27 1215.25 Q109.51 1214.41 107.705 1213.97 Q105.922 1213.53 104.163 1213.53 Q99.5335 1213.53 97.0798 1216.66 Q94.6493 1219.78 94.3021 1226.1 Q95.6678 1224.09 97.728 1223.02 Q99.7882 1221.94 102.265 1221.94 Q107.473 1221.94 110.483 1225.11 Q113.515 1228.26 113.515 1233.7 Q113.515 1239.02 110.367 1242.24 Q107.219 1245.46 101.987 1245.46 Q95.9919 1245.46 92.8206 1240.87 Q89.6493 1236.27 89.6493 1227.54 Q89.6493 1219.34 93.5382 1214.48 Q97.4271 1209.6 103.978 1209.6 Q105.737 1209.6 107.52 1209.95 Q109.325 1210.29 111.27 1210.99 Z" fill="#000000" fill-rule="nonzero" fill-opacity="1" /><path clip-path="url(#clip340)" d="M135.737 1226.15 Q139.094 1226.87 140.968 1229.14 Q142.867 1231.4 142.867 1234.74 Q142.867 1239.85 139.348 1242.65 Q135.83 1245.46 129.348 1245.46 Q127.172 1245.46 124.857 1245.02 Q122.566 1244.6 120.112 1243.74 L120.112 1239.23 Q122.057 1240.36 124.371 1240.94 Q126.686 1241.52 129.209 1241.52 Q133.607 1241.52 135.899 1239.78 Q138.214 1238.05 138.214 1234.74 Q138.214 1231.68 136.061 1229.97 Q133.931 1228.23 130.112 1228.23 L126.084 1228.23 L126.084 1224.39 L130.297 1224.39 Q133.746 1224.39 135.575 1223.02 Q137.404 1221.64 137.404 1219.04 Q137.404 1216.38 135.506 1214.97 Q133.631 1213.53 130.112 1213.53 Q128.191 1213.53 125.992 1213.95 Q123.793 1214.37 121.154 1215.25 L121.154 1211.08 Q123.816 1210.34 126.131 1209.97 Q128.469 1209.6 130.529 1209.6 Q135.853 1209.6 138.955 1212.03 Q142.056 1214.44 142.056 1218.56 Q142.056 1221.43 140.413 1223.42 Q138.769 1225.39 135.737 1226.15 Z" fill="#000000" fill-rule="nonzero" fill-opacity="1" /><path clip-path="url(#clip340)" d="M52.5893 847.516 L82.2651 847.516 L82.2651 851.451 L52.5893 851.451 L52.5893 847.516 Z" fill="#000000" fill-rule="nonzero" fill-opacity="1" /><path clip-path="url(#clip340)" d="M102.936 845.201 Q99.7882 845.201 97.9363 847.354 Q96.1076 849.507 96.1076 853.257 Q96.1076 856.983 97.9363 859.159 Q99.7882 861.312 102.936 861.312 Q106.084 861.312 107.913 859.159 Q109.765 856.983 109.765 853.257 Q109.765 849.507 107.913 847.354 Q106.084 845.201 102.936 845.201 M112.219 830.548 L112.219 834.808 Q110.459 833.974 108.654 833.535 Q106.871 833.095 105.112 833.095 Q100.483 833.095 98.0289 836.22 Q95.5984 839.345 95.2511 845.664 Q96.6169 843.65 98.6771 842.585 Q100.737 841.497 103.214 841.497 Q108.422 841.497 111.432 844.669 Q114.464 847.817 114.464 853.257 Q114.464 858.581 111.316 861.798 Q108.168 865.016 102.936 865.016 Q96.941 865.016 93.7697 860.433 Q90.5984 855.826 90.5984 847.099 Q90.5984 838.905 94.4873 834.044 Q98.3761 829.16 104.927 829.16 Q106.686 829.16 108.469 829.507 Q110.274 829.854 112.219 830.548 Z" fill="#000000" fill-rule="nonzero" fill-opacity="1" /><path clip-path="url(#clip340)" d="M126.547 860.409 L142.867 860.409 L142.867 864.345 L120.922 864.345 L120.922 860.409 Q123.584 857.655 128.168 853.025 Q132.774 848.372 133.955 847.03 Q136.2 844.507 137.08 842.771 Q137.982 841.011 137.982 839.322 Q137.982 836.567 136.038 834.831 Q134.117 833.095 131.015 833.095 Q128.816 833.095 126.362 833.859 Q123.932 834.622 121.154 836.173 L121.154 831.451 Q123.978 830.317 126.432 829.738 Q128.885 829.16 130.922 829.16 Q136.293 829.16 139.487 831.845 Q142.681 834.53 142.681 839.021 Q142.681 841.15 141.871 843.072 Q141.084 844.97 138.978 847.562 Q138.399 848.234 135.297 851.451 Q132.195 854.646 126.547 860.409 Z" fill="#000000" fill-rule="nonzero" fill-opacity="1" /><path clip-path="url(#clip340)" d="M52.219 467.076 L81.8947 467.076 L81.8947 471.012 L52.219 471.012 L52.219 467.076 Z" fill="#000000" fill-rule="nonzero" fill-opacity="1" /><path clip-path="url(#clip340)" d="M102.566 464.762 Q99.4178 464.762 97.566 466.914 Q95.7373 469.067 95.7373 472.817 Q95.7373 476.544 97.566 478.72 Q99.4178 480.873 102.566 480.873 Q105.714 480.873 107.543 478.72 Q109.395 476.544 109.395 472.817 Q109.395 469.067 107.543 466.914 Q105.714 464.762 102.566 464.762 M111.848 450.109 L111.848 454.368 Q110.089 453.535 108.283 453.095 Q106.501 452.655 104.742 452.655 Q100.112 452.655 97.6585 455.78 Q95.228 458.905 94.8808 465.225 Q96.2465 463.211 98.3067 462.146 Q100.367 461.058 102.844 461.058 Q108.052 461.058 111.061 464.229 Q114.094 467.377 114.094 472.817 Q114.094 478.141 110.946 481.359 Q107.797 484.576 102.566 484.576 Q96.5706 484.576 93.3993 479.993 Q90.228 475.387 90.228 466.66 Q90.228 458.465 94.1169 453.604 Q98.0058 448.72 104.557 448.72 Q106.316 448.72 108.098 449.067 Q109.904 449.415 111.848 450.109 Z" fill="#000000" fill-rule="nonzero" fill-opacity="1" /><path clip-path="url(#clip340)" d="M122.959 479.97 L130.598 479.97 L130.598 453.604 L122.288 455.271 L122.288 451.012 L130.552 449.345 L135.228 449.345 L135.228 479.97 L142.867 479.97 L142.867 483.905 L122.959 483.905 L122.959 479.97 Z" fill="#000000" fill-rule="nonzero" fill-opacity="1" /><path clip-path="url(#clip340)" d="M50.9921 86.6371 L80.6679 86.6371 L80.6679 90.5722 L50.9921 90.5722 L50.9921 86.6371 Z" fill="#000000" fill-rule="nonzero" fill-opacity="1" /><path clip-path="url(#clip340)" d="M101.339 84.3223 Q98.1909 84.3223 96.3391 86.475 Q94.5104 88.6278 94.5104 92.3778 Q94.5104 96.1046 96.3391 98.2805 Q98.1909 100.433 101.339 100.433 Q104.487 100.433 106.316 98.2805 Q108.168 96.1046 108.168 92.3778 Q108.168 88.6278 106.316 86.475 Q104.487 84.3223 101.339 84.3223 M110.621 69.6696 L110.621 73.9288 Q108.862 73.0955 107.057 72.6557 Q105.274 72.2158 103.515 72.2158 Q98.8854 72.2158 96.4317 75.3408 Q94.0012 78.4658 93.6539 84.7852 Q95.0197 82.7713 97.0798 81.7065 Q99.14 80.6186 101.617 80.6186 Q106.825 80.6186 109.834 83.7899 Q112.867 86.938 112.867 92.3778 Q112.867 97.7018 109.719 100.919 Q106.571 104.137 101.339 104.137 Q95.3437 104.137 92.1725 99.5537 Q89.0012 94.9472 89.0012 86.2204 Q89.0012 78.026 92.89 73.1649 Q96.7789 68.2807 103.33 68.2807 Q105.089 68.2807 106.871 68.6279 Q108.677 68.9751 110.621 69.6696 Z" fill="#000000" fill-rule="nonzero" fill-opacity="1" /><path clip-path="url(#clip340)" d="M130.922 71.9844 Q127.311 71.9844 125.482 75.5492 Q123.677 79.0908 123.677 86.2204 Q123.677 93.3268 125.482 96.8916 Q127.311 100.433 130.922 100.433 Q134.556 100.433 136.362 96.8916 Q138.191 93.3268 138.191 86.2204 Q138.191 79.0908 136.362 75.5492 Q134.556 71.9844 130.922 71.9844 M130.922 68.2807 Q136.732 68.2807 139.788 72.8871 Q142.867 77.4704 142.867 86.2204 Q142.867 94.9472 139.788 99.5537 Q136.732 104.137 130.922 104.137 Q125.112 104.137 122.033 99.5537 Q118.978 94.9472 118.978 86.2204 Q118.978 77.4704 122.033 72.8871 Q125.112 68.2807 130.922 68.2807 Z" fill="#000000" fill-rule="nonzero" fill-opacity="1" /><polyline clip-path="url(#clip342)" style="stroke:#009af9; stroke-linecap:round; stroke-linejoin:round; stroke-width:4; stroke-opacity:1; fill:none" points="178.867,86.1857 180.54,160.137 182.214,232.409 183.887,304.48 185.561,375.95 187.234,446.247 188.908,514.897 190.581,581.337 192.255,645.347 193.928,706.479 195.602,764.588 197.275,819.647 198.949,871.161 200.622,919.844 202.296,964.711 203.969,1006.74 205.643,1045.56 207.316,1081.12 208.99,1114.18 210.663,1144.14 212.337,1171.58 214.01,1196.76 215.684,1219.29 217.357,1239.93 219.031,1258.52 220.704,1275.07 222.378,1290.21 224.051,1303.48 225.725,1315.43 227.398,1326.06 229.072,1335.35 230.745,1343.59 232.419,1350.83 234.092,1357.05 235.766,1361.92 237.439,1366.25 239.113,1370.12 240.786,1373.52 242.46,1376.45 244.134,1378.92 245.807,1380.91 247.481,1382.45 249.154,1383.51 250.828,1384.11 252.501,1384.24 254.175,1383.9 255.848,1383.11 257.522,1382.11 259.195,1380.96 260.869,1379.64 262.542,1378.17 264.216,1376.55 265.889,1374.73 267.563,1372.76 269.236,1370.76 270.91,1368.73 272.583,1366.68 274.257,1364.6 275.93,1362.49 277.604,1360.35 279.277,1358.19 280.951,1356 282.624,1353.78 284.298,1351.54 285.971,1349.27 287.645,1346.97 289.318,1344.64 290.992,1342.29 292.665,1339.91 294.339,1337.56 296.012,1335.23 297.686,1332.94 299.359,1330.68 301.033,1328.45 302.706,1326.26 304.38,1324.1 306.053,1321.96 307.727,1319.87 309.4,1317.8 311.074,1315.76 312.747,1313.76 314.421,1311.82 316.094,1309.93 317.768,1308.07 319.441,1306.24 321.115,1304.45 322.788,1302.7 324.462,1300.98 326.135,1299.3 327.809,1297.65 329.483,1296.04 331.156,1294.46 332.83,1292.92 334.503,1291.41 336.177,1289.94 337.85,1288.5 339.524,1287.1 341.197,1285.74 342.871,1284.4 344.544,1283.11 346.218,1281.85 347.891,1280.63 349.565,1279.44 351.238,1278.28 352.912,1277.17 354.585,1276.12 356.259,1275.1 357.932,1274.11 359.606,1273.14 361.279,1272.19 362.953,1271.27 364.626,1270.37 366.3,1269.5 367.973,1268.65 369.647,1267.82 371.32,1267.02 372.994,1266.24 374.667,1265.49 376.341,1264.76 378.014,1264.06 379.688,1263.38 381.361,1262.73 383.035,1262.1 384.708,1261.49 386.382,1260.91 388.055,1260.35 389.729,1259.82 391.402,1259.31 393.076,1258.85 394.749,1258.42 396.423,1258.01 398.096,1257.6 399.77,1257.2 401.443,1256.81 403.117,1256.43 404.79,1256.06 406.464,1255.69 408.137,1255.34 409.811,1255 411.485,1254.67 413.158,1254.34 414.832,1254.03 416.505,1253.73 418.179,1253.43 419.852,1253.15 421.526,1252.87 423.199,1252.61 424.873,1252.35 426.546,1252.1 428.22,1251.87 429.893,1251.64 431.567,1251.42 433.24,1251.21 434.914,1251.02 436.587,1250.83 438.261,1250.65 439.934,1250.48 441.608,1250.32 443.281,1250.17 444.955,1250.02 446.628,1249.89 448.302,1249.77 449.975,1249.66 451.649,1249.56 453.322,1249.46 454.996,1249.38 456.669,1249.31 458.343,1249.23 460.016,1249.16 461.69,1249.1 463.363,1249.03 465.037,1248.97 466.71,1248.91 468.384,1248.85 470.057,1248.8 471.731,1248.75 473.404,1248.7 475.078,1248.65 476.751,1248.61 478.425,1248.57 480.098,1248.53 481.772,1248.49 483.445,1248.46 485.119,1248.42 486.792,1248.4 488.466,1248.37 490.139,1225.07 491.813,1174.27 493.486,1128.43 495.16,1086.27 496.834,1047.1 498.507,1010.81 500.181,977.471 501.854,946.351 503.528,917.403 505.201,890.625 506.875,866.041 508.548,843.275 510.222,822.178 511.895,802.748 513.569,785.126 515.242,769.023 516.916,754.169 518.589,740.565 520.263,728.21 521.936,717.104 523.61,707.247 525.283,698.639 526.957,691.389 528.63,685.246 530.304,680.047 531.977,675.79 533.651,672.476 535.324,670.105 536.998,668.678 538.671,668.193 540.345,668.651 542.018,670.228 543.692,672.446 545.365,675.279 547.039,678.729 548.712,682.795 550.386,687.476 552.059,692.774 553.733,698.687 555.406,705.216 557.08,712.361 558.753,720.301 560.427,728.662 562.1,737.22 563.774,745.975 565.447,754.927 567.121,764.076 568.794,773.422 570.468,782.964 572.141,792.704 573.815,802.64 575.488,812.773 577.162,823.103 578.835,833.79 580.509,844.536 582.183,855.136 583.856,865.588 585.53,875.893 587.203,886.051 588.877,896.062 590.55,905.926 592.224,915.642 593.897,925.211 595.571,934.634 597.244,943.909 598.918,953.037 600.591,962.017 602.265,970.851 603.938,979.559 605.612,988.088 607.285,996.397 608.959,1004.49 610.632,1012.35 612.306,1020 613.979,1027.43 615.653,1034.64 617.326,1041.62 619,1048.39 620.673,1054.94 622.347,1061.26 624.02,1067.37 625.694,1073.26 627.367,1078.92 629.041,1084.33 630.714,1089.6 632.388,1094.71 634.061,1099.68 635.735,1104.49 637.408,1109.14 639.082,1113.65 640.755,1118.01 642.429,1122.21 644.102,1126.26 645.776,1130.16 647.449,1133.91 649.123,1137.5 650.796,1140.94 652.47,1144.24 654.143,1147.38 655.817,1150.37 657.49,1153.17 659.164,1155.88 660.837,1158.52 662.511,1161.08 664.184,1163.56 665.858,1165.97 667.532,1168.31 669.205,1170.57 670.879,1172.75 672.552,1174.86 674.226,1176.9 675.899,1178.86 677.573,1180.75 679.246,1182.56 680.92,1184.3 682.593,1185.96 684.267,1187.55 685.94,1189.06 687.614,1190.48 689.287,1191.83 690.961,1193.14 692.634,1194.42 694.308,1195.68 695.981,1196.9 697.655,1198.09 699.328,1199.25 701.002,1200.38 702.675,1201.48 704.349,1202.55 706.022,1203.58 707.696,1204.59 709.369,1205.57 711.043,1206.51 712.716,1207.43 714.39,1208.31 716.063,1209.17 717.737,1209.99 719.41,1210.78 721.084,1211.55 722.757,1212.28 724.431,1212.97 726.104,1213.64 727.778,1214.29 729.451,1214.93 731.125,1215.56 732.798,1216.18 734.472,1216.79 736.145,1217.38 737.819,1217.97 739.492,1218.54 741.166,1219.1 742.839,1219.64 744.513,1220.18 746.186,1220.7 747.86,1221.21 749.533,1221.71 751.207,1222.2 752.881,1222.68 754.554,1223.14 756.228,1223.6 757.901,1224.04 759.575,1224.46 761.248,1224.88 762.922,1225.29 764.595,1225.68 766.269,1226.06 767.942,1226.44 769.616,1226.81 771.289,1227.18 772.963,1227.54 774.636,1227.89 776.31,1228.24 777.983,1228.58 779.657,1228.92 781.33,1229.25 783.004,1229.58 784.677,1229.9 786.351,1230.21 788.024,1230.52 789.698,1230.82 791.371,1231.12 793.045,1231.41 794.718,1231.7 796.392,1231.98 798.065,1232.25 799.739,1232.52 801.412,1187.42 803.086,1139.27 804.759,1095.75 806.433,1055.39 808.106,1018.07 809.78,983.36 811.453,951.241 813.127,921.746 814.8,894.3 816.474,868.79 818.147,845.216 819.821,823.688 821.494,803.887 823.168,785.515 824.841,768.572 826.515,753.059 828.188,738.975 829.862,726.32 831.535,715.23 833.209,705.232 834.882,696.306 836.556,688.452 838.23,681.671 839.903,675.962 841.577,671.326 843.25,667.761 844.924,665.402 846.597,663.983 848.271,663.327 849.944,663.435 851.618,664.305 853.291,665.939 854.965,668.335 856.638,671.495 858.312,675.417 859.985,680.103 861.659,685.711 863.332,691.898 865.006,698.458 866.679,705.393 868.353,712.702 870.026,720.386 871.7,728.443 873.373,736.875 875.047,745.68 876.72,754.86 878.394,764.414 880.067,774.53 881.741,784.935 883.414,795.3 885.088,805.625 886.761,815.911 888.435,826.156 890.108,836.362 891.782,846.528 893.455,856.654 895.129,866.74 896.802,876.787 898.476,886.793 900.149,896.76 901.823,906.687 903.496,916.576 905.17,926.462 906.843,936.13 908.517,945.58 910.19,954.812 911.864,963.825 913.537,972.62 915.211,981.197 916.884,989.555 918.558,997.695 920.231,1005.62 921.905,1013.32 923.579,1020.81 925.252,1028.07 926.926,1035.12 928.599,1041.94 930.273,1048.57 931.946,1055.01 933.62,1061.26 935.293,1067.33 936.967,1073.22 938.64,1078.92 940.314,1084.44 941.987,1089.78 943.661,1094.92 945.334,1099.89 947.008,1104.67 948.681,1109.27 950.355,1113.68 952.028,1117.9 953.702,1121.95 955.375,1125.79 957.049,1129.45 958.722,1133 960.396,1136.46 962.069,1139.81 963.743,1143.06 965.416,1146.2 967.09,1149.25 968.763,1152.19 970.437,1155.04 972.11,1157.78 973.784,1160.41 975.457,1162.95 977.131,1165.39 978.804,1167.72 980.478,1169.95 982.151,1172.08 983.825,1174.11 985.498,1176.01 987.172,1177.82 988.845,1179.59 990.519,1181.32 992.192,1183 993.866,1184.63 995.539,1186.22 997.213,1187.77 998.886,1189.27 1000.56,1190.73 1002.23,1192.14 1003.91,1193.51 1005.58,1194.83 1007.25,1196.11 1008.93,1197.34 1010.6,1198.53 1012.27,1199.68 1013.95,1200.78 1015.62,1201.83 1017.3,1202.84 1018.97,1203.81 1020.64,1204.72 1022.32,1205.6 1023.99,1206.46 1025.66,1207.31 1027.34,1208.14 1029.01,1208.95 1030.68,1209.74 1032.36,1210.52 1034.03,1211.28 1035.7,1212.02 1037.38,1212.74 1039.05,1213.45 1040.72,1214.14 1042.4,1214.81 1044.07,1215.46 1045.74,1216.1 1047.42,1216.72 1049.09,1217.32 1050.77,1217.91 1052.44,1218.47 1054.11,1219.02 1055.79,1219.55 1057.46,1220.07 1059.13,1220.56 1060.81,1221.04 1062.48,1221.52 1064.15,1221.99 1065.83,1222.45 1067.5,1222.9 1069.17,1223.35 1070.85,1223.79 1072.52,1224.22 1074.19,1224.64 1075.87,1225.06 1077.54,1225.47 1079.21,1225.87 1080.89,1226.26 1082.56,1226.65 1084.24,1227.03 1085.91,1227.4 1087.58,1227.77 1089.26,1228.12 1090.93,1228.47 1092.6,1228.82 1094.28,1229.15 1095.95,1229.48 1097.62,1229.8 1099.3,1230.11 1100.97,1230.41 1102.64,1230.71 1104.32,1231.01 1105.99,1231.3 1107.66,1231.58 1109.34,1231.86 1111.01,1216.75 1112.69,1166.25 1114.36,1120.52 1116.03,1078.86 1117.71,1040.13 1119.38,1004.2 1121.05,971.21 1122.73,940.518 1124.4,911.931 1126.07,885.45 1127.75,861.074 1129.42,838.717 1131.09,817.984 1132.77,798.872 1134.44,781.402 1136.11,765.724 1137.79,751.254 1139.46,737.992 1141.13,725.939 1142.81,715.094 1144.48,705.457 1146.16,697.028 1147.83,689.808 1149.5,683.906 1151.18,679.022 1152.85,675.048 1154.52,671.986 1156.2,669.836 1157.87,668.597 1159.54,668.269 1161.22,668.852 1162.89,670.492 1164.56,672.923 1166.24,675.932 1167.91,679.52 1169.58,683.687 1171.26,688.432 1172.93,693.756 1174.6,699.658 1176.28,706.139 1177.95,713.199 1179.63,720.837 1181.3,729.221 1182.97,737.895 1184.65,746.737 1186.32,755.746 1187.99,764.922 1189.67,774.265 1191.34,783.776 1193.01,793.454 1194.69,803.298 1196.36,813.311 1198.03,823.49 1199.71,833.86 1201.38,844.573 1203.05,855.133 1204.73,865.54 1206.4,875.792 1208.08,885.891 1209.75,895.837 1211.42,905.629 1213.1,915.267 1214.77,924.752 1216.44,934.083 1218.12,943.261 1219.79,952.285 1221.46,961.155 1223.14,969.872 1224.81,978.435 1226.48,986.867 1228.16,995.099 1229.83,1003.12 1231.5,1010.92 1233.18,1018.51 1234.85,1025.88 1236.52,1033.04 1238.2,1039.98 1239.87,1046.7 1241.55,1053.22 1243.22,1059.51 1244.89,1065.6 1246.57,1071.46 1248.24,1077.12 1249.91,1082.53 1251.59,1087.75 1253.26,1092.82 1254.93,1097.75 1256.61,1102.53 1258.28,1107.17 1259.95,1111.66 1261.63,1116 1263.3,1120.2 1264.97,1124.25 1266.65,1128.15 1268.32,1131.91 1270,1135.52 1271.67,1138.99 1273.34,1142.31 1275.02,1145.48 1276.69,1148.5 1278.36,1151.38 1280.04,1154.09 1281.71,1156.71 1283.38,1159.27 1285.06,1161.75 1286.73,1164.17 1288.4,1166.51 1290.08,1168.77 1291.75,1170.97 1293.42,1173.09 1295.1,1175.14 1296.77,1177.12 1298.44,1179.03 1300.12,1180.87 1301.79,1182.63 1303.47,1184.32 1305.14,1185.94 1306.81,1187.49 1308.49,1188.96 1310.16,1190.34 1311.83,1191.67 1313.51,1192.96 1315.18,1194.23 1316.85,1195.47 1318.53,1196.67 1320.2,1197.85 1321.87,1199 1323.55,1200.12 1325.22,1201.2 1326.89,1202.26 1328.57,1203.29 1330.24,1204.29 1331.91,1205.25 1333.59,1206.19 1335.26,1207.1 1336.94,1207.98 1338.61,1208.83 1340.28,1209.64 1341.96,1210.43 1343.63,1211.19 1345.3,1211.92 1346.98,1212.61 1348.65,1213.28 1350.32,1213.94 1352,1214.58 1353.67,1215.21 1355.34,1215.84 1357.02,1216.45 1358.69,1217.04 1360.36,1217.63 1362.04,1218.21 1363.71,1218.77 1365.39,1219.32 1367.06,1219.86 1368.73,1220.39 1370.41,1220.9 1372.08,1221.4 1373.75,1221.9 1375.43,1222.38 1377.1,1222.84 1378.77,1223.3 1380.45,1223.74 1382.12,1224.18 1383.79,1224.6 1385.47,1225.01 1387.14,1225.4 1388.81,1225.79 1390.49,1226.17 1392.16,1226.55 1393.83,1226.92 1395.51,1227.29 1397.18,1227.65 1398.86,1228 1400.53,1228.35 1402.2,1228.69 1403.88,1229.03 1405.55,1229.36 1407.22,1229.69 1408.9,1230.01 1410.57,1230.32 1412.24,1230.63 1413.92,1230.93 1415.59,1231.22 1417.26,1231.51 1418.94,1231.8 1420.61,1232.07 1422.28,1194.6 1423.96,1146.16 1425.63,1102.42 1427.3,1061.98 1428.98,1024.56 1430.65,989.787 1432.33,957.578 1434,927.993 1435.67,900.529 1437.35,874.984 1439.02,851.359 1440.69,829.726 1442.37,809.94 1444.04,791.571 1445.71,774.619 1447.39,759.083 1449.06,744.964 1450.73,732.262 1452.41,721.109 1454.08,711.12 1455.75,702.191 1457.43,694.322 1459.1,687.513 1460.78,681.764 1462.45,677.074 1464.12,673.445 1465.8,670.95 1467.47,669.524 1469.14,668.847 1470.82,668.92 1472.49,669.741 1474.16,671.313 1475.84,673.633 1477.51,676.703 1479.18,680.523 1480.86,685.092 1482.53,690.521 1484.2,696.655 1485.88,703.15 1487.55,710.007 1489.22,717.224 1490.9,724.803 1492.57,732.744 1494.25,741.046 1495.92,749.709 1497.59,758.733 1499.27,768.119 1500.94,777.935 1502.61,788.261 1504.29,798.542 1505.96,808.78 1507.63,818.974 1509.31,829.124 1510.98,839.23 1512.65,849.292 1514.33,859.309 1516,869.283 1517.67,879.213 1519.35,889.099 1521.02,898.94 1522.7,908.738 1524.37,918.492 1526.04,928.248 1527.72,937.827 1529.39,947.191 1531.06,956.339 1532.74,965.272 1534.41,973.989 1536.08,982.491 1537.76,990.777 1539.43,998.848 1541.1,1006.7 1542.78,1014.34 1544.45,1021.77 1546.12,1028.98 1547.8,1035.97 1549.47,1042.75 1551.14,1049.31 1552.82,1055.69 1554.49,1061.89 1556.17,1067.92 1557.84,1073.76 1559.51,1079.42 1561.19,1084.9 1562.86,1090.2 1564.53,1095.32 1566.21,1100.25 1567.88,1105.01 1569.55,1109.59 1571.23,1113.98 1572.9,1118.2 1574.57,1122.24 1576.25,1126.09 1577.92,1129.73 1579.59,1133.26 1581.27,1136.69 1582.94,1140.01 1584.61,1143.24 1586.29,1146.37 1587.96,1149.4 1589.64,1152.33 1591.31,1155.16 1592.98,1157.89 1594.66,1160.53 1596.33,1163.06 1598,1165.49 1599.68,1167.83 1601.35,1170.06 1603.02,1172.2 1604.7,1174.23 1606.37,1176.17 1608.04,1177.97 1609.72,1179.73 1611.39,1181.44 1613.06,1183.11 1614.74,1184.73 1616.41,1186.32 1618.09,1187.85 1619.76,1189.35 1621.43,1190.8 1623.11,1192.21 1624.78,1193.57 1626.45,1194.9 1628.13,1196.17 1629.8,1197.41 1631.47,1198.6 1633.15,1199.75 1634.82,1200.85 1636.49,1201.91 1638.17,1202.93 1639.84,1203.9 1641.51,1204.83 1643.19,1205.7 1644.86,1206.56 1646.53,1207.4 1648.21,1208.23 1649.88,1209.04 1651.56,1209.83 1653.23,1210.6 1654.9,1211.36 1656.58,1212.1 1658.25,1212.82 1659.92,1213.53 1661.6,1214.21 1663.27,1214.89 1664.94,1215.54 1666.62,1216.18 1668.29,1216.8 1669.96,1217.4 1671.64,1217.99 1673.31,1218.55 1674.98,1219.11 1676.66,1219.64 1678.33,1220.16 1680,1220.65 1681.68,1221.13 1683.35,1221.61 1685.03,1222.07 1686.7,1222.53 1688.37,1222.99 1690.05,1223.43 1691.72,1223.87 1693.39,1224.3 1695.07,1224.72 1696.74,1225.13 1698.41,1225.54 1700.09,1225.94 1701.76,1226.34 1703.43,1226.72 1705.11,1227.1 1706.78,1227.47 1708.45,1227.84 1710.13,1228.19 1711.8,1228.54 1713.48,1228.88 1715.15,1229.22 1716.82,1229.55 1718.5,1229.87 1720.17,1230.18 1721.84,1230.49 1723.52,1230.78 1725.19,1231.08 1726.86,1231.37 1728.54,1231.65 1730.21,1231.93 1731.88,1224.46 1733.56,1173.27 1735.23,1126.85 1736.9,1084.71 1738.58,1045.56 1740.25,1009.23 1741.92,975.849 1743.6,944.822 1745.27,915.92 1746.95,889.144 1748.62,864.495 1750.29,841.87 1751.97,820.885 1753.64,801.542 1755.31,783.907 1756.99,767.984 1758.66,753.285 1760.33,739.81 1762.01,727.56 1763.68,716.533 1765.35,706.73 1767.03,698.152 1768.7,690.797 1770.37,684.781 1772.05,679.715 1773.72,675.574 1775.4,672.36 1777.07,670.072 1778.74,668.711 1780.42,668.275 1782.09,668.766 1783.76,670.369 1785.44,672.621 1787.11,675.472 1788.78,678.922 1790.46,682.969 1792.13,687.616 1793.8,692.86 1795.48,698.703 1797.15,705.144 1798.82,712.184 1800.5,719.876 1802.17,728.219 1803.84,736.751 1805.52,745.474 1807.19,754.387 1808.87,763.489 1810.54,772.782 1812.21,782.265 1813.89,791.938 1815.56,801.8 1817.23,811.853 1818.91,822.096 1820.58,832.727 1822.25,843.361 1823.93,853.852 1825.6,864.2 1827.27,874.405 1828.95,884.466 1830.62,894.385 1832.29,904.161 1833.97,913.794 1835.64,923.283 1837.31,932.63 1838.99,941.834 1840.66,950.894 1842.34,959.812 1844.01,968.586 1845.68,977.236 1847.36,985.717 1849.03,993.982 1850.7,1002.03 1852.38,1009.86 1854.05,1017.48 1855.72,1024.88 1857.4,1032.06 1859.07,1039.02 1860.74,1045.77 1862.42,1052.3 1864.09,1058.62 1865.76,1064.72 1867.44,1070.6 1869.11,1076.25 1870.79,1081.68 1872.46,1086.96 1874.13,1092.09 1875.81,1097.07 1877.48,1101.89 1879.15,1106.57 1880.83,1111.1 1882.5,1115.47 1884.17,1119.69 1885.85,1123.76 1887.52,1127.69 1889.19,1131.46 1890.87,1135.07 1892.54,1138.54 1894.21,1141.86 1895.89,1145.02 1897.56,1148.04 1899.23,1150.87 1900.91,1153.62 1902.58,1156.28 1904.26,1158.88 1905.93,1161.39 1907.6,1163.83 1909.28,1166.2 1910.95,1168.49 1912.62,1170.71 1914.3,1172.85 1915.97,1174.91 1917.64,1176.9 1919.32,1178.81 1920.99,1180.65 1922.66,1182.41 1924.34,1184.1 1926.01,1185.71 1927.68,1187.25 1929.36,1188.69 1931.03,1190.07 1932.7,1191.42 1934.38,1192.74 1936.05,1194.02 1937.73,1195.28 1939.4,1196.5 1941.07,1197.7 1942.75,1198.86 1944.42,1199.99 1946.09,1201.08 1947.77,1202.15 1949.44,1203.18 1951.11,1204.19 1952.79,1205.16 1954.46,1206.1 1956.13,1207.01 1957.81,1207.89 1959.48,1208.73 1961.15,1209.55 1962.83,1210.33 1964.5,1211.08 1966.18,1211.79 1967.85,1212.48 1969.52,1213.16 1971.2,1213.82 1972.87,1214.48 1974.54,1215.12 1976.22,1215.75 1977.89,1216.36 1979.56,1216.97 1981.24,1217.56 1982.91,1218.14 1984.58,1218.7 1986.26,1219.26 1987.93,1219.8 1989.6,1220.33 1991.28,1220.85 1992.95,1221.35 1994.62,1221.84 1996.3,1222.32 1997.97,1222.79 1999.65,1223.24 2001.32,1223.69 2002.99,1224.12 2004.67,1224.53 2006.34,1224.93 2008.01,1225.33 2009.69,1225.72 2011.36,1226.11 2013.03,1226.48 2014.71,1226.86 2016.38,1227.23 2018.05,1227.59 2019.73,1227.95 2021.4,1228.3 2023.07,1228.64 2024.75,1228.98 2026.42,1229.32 2028.09,1229.64 2029.77,1229.97 2031.44,1230.28 2033.12,1230.59 2034.79,1230.9 2036.46,1231.2 2038.14,1231.49 2039.81,1231.78 2041.48,1232.06 2043.16,1232.34 2044.83,1232.61 2046.5,1232.88 2048.18,1233.14 2049.85,1233.39 2051.52,1233.63 2053.2,1233.88 2054.87,1234.12 2056.54,1234.35 2058.22,1234.59 2059.89,1234.82 2061.57,1235.04 2063.24,1235.27 2064.91,1235.49 2066.59,1235.7 2068.26,1235.92 2069.93,1236.13 2071.61,1236.34 2073.28,1236.54 2074.95,1236.74 2076.63,1236.94 2078.3,1237.14 2079.97,1237.33 2081.65,1237.52 2083.32,1237.7 2084.99,1237.88 2086.67,1238.06 2088.34,1238.24 2090.01,1238.41 2091.69,1238.58 2093.36,1238.75 2095.04,1238.91 2096.71,1239.07 2098.38,1239.22 2100.06,1239.37 2101.73,1239.52 2103.4,1239.67 2105.08,1239.81 2106.75,1239.96 2108.42,1240.1 2110.1,1240.24 2111.77,1240.37 2113.44,1240.51 2115.12,1240.64 2116.79,1240.77 2118.46,1240.9 2120.14,1241.03 2121.81,1241.15 2123.49,1241.28 2125.16,1241.4 2126.83,1241.52 2128.51,1241.64 2130.18,1241.75 2131.85,1241.87 2133.53,1241.98 2135.2,1242.09 2136.87,1242.2 2138.55,1242.3 2140.22,1242.41 2141.89,1242.51 2143.57,1242.61 2145.24,1242.71 2146.91,1242.81 2148.59,1242.9 2150.26,1242.99 2151.93,1243.09 2153.61,1243.18 2155.28,1243.26 2156.96,1243.35 2158.63,1243.43 2160.3,1243.51 2161.98,1243.59 2163.65,1243.67 2165.32,1243.75 2167,1243.82 2168.67,1243.9 2170.34,1243.97 2172.02,1244.04 2173.69,1244.12 2175.36,1244.19 2177.04,1244.26 2178.71,1244.33 2180.38,1244.39 2182.06,1244.46 2183.73,1244.53 2185.4,1244.59 2187.08,1244.66 2188.75,1244.72 2190.43,1244.78 2192.1,1244.84 2193.77,1244.9 2195.45,1244.96 2197.12,1245.02 2198.79,1245.08 2200.47,1245.13 2202.14,1245.19 2203.81,1245.24 2205.49,1245.29 2207.16,1245.35 2208.83,1245.4 2210.51,1245.45 2212.18,1245.5 2213.85,1245.54 2215.53,1245.59 2217.2,1245.64 2218.88,1245.68 2220.55,1245.72 2222.22,1245.77 2223.9,1245.81 2225.57,1245.85 2227.24,1245.89 2228.92,1245.93 2230.59,1245.96 2232.26,1246 2233.94,1246.04 2235.61,1246.07 2237.28,1246.11 2238.96,1246.14 2240.63,1246.18 2242.3,1246.21 2243.98,1246.25 2245.65,1246.28 2247.32,1246.31 2249,1246.34 2250.67,1246.38 2252.35,1246.41 2254.02,1246.44 2255.69,1246.47 2257.37,1246.5 2259.04,1246.53 2260.71,1246.56 2262.39,1246.59 2264.06,1246.61 2265.73,1246.64 2267.41,1246.67 2269.08,1246.7 2270.75,1246.72 2272.43,1246.75 2274.1,1246.77 2275.77,1246.8 2277.45,1246.82 2279.12,1246.85 2280.79,1246.87 2282.47,1246.9 2284.14,1246.92 2285.82,1246.94 2287.49,1246.96 2289.16,1246.98 2290.84,1247 2292.51,1247.03 2294.18,1247.05 2295.86,1247.07 2297.53,1247.08 2299.2,1247.1 2300.88,1247.12 2302.55,1247.14 2304.22,1247.16 2305.9,1247.17 2307.57,1247.19 2309.24,1247.21 2310.92,1247.22 2312.59,1247.24 2314.27,1247.25 2315.94,1247.27 2317.61,1247.28 2319.29,1247.3 2320.96,1247.31 2322.63,1247.32 2324.31,1247.34 2325.98,1247.35 2327.65,1247.36 2329.33,1247.38 2331,1247.39 2332.67,1247.4 2334.35,1247.42 2336.02,1247.43 2337.69,1247.44 2339.37,1247.45 2341.04,1247.46 2342.71,1247.47 2344.39,1247.48 2346.06,1247.5 2347.74,1247.51 2349.41,1247.52 2351.08,1247.53 2352.76,1247.54 "/>
<path clip-path="url(#clip340)" d="M1955.22 196.789 L2280.29 196.789 L2280.29 93.1086 L1955.22 93.1086  Z" fill="#ffffff" fill-rule="evenodd" fill-opacity="1"/>
<polyline clip-path="url(#clip340)" style="stroke:#000000; stroke-linecap:round; stroke-linejoin:round; stroke-width:4; stroke-opacity:1; fill:none" points="1955.22,196.789 2280.29,196.789 2280.29,93.1086 1955.22,93.1086 1955.22,196.789 "/>
<polyline clip-path="url(#clip340)" style="stroke:#009af9; stroke-linecap:round; stroke-linejoin:round; stroke-width:4; stroke-opacity:1; fill:none" points="1979.37,144.949 2124.3,144.949 "/>
<path clip-path="url(#clip340)" d="M2148.45 151.997 L2148.45 136.303 L2152.71 136.303 L2152.71 151.835 Q2152.71 155.516 2154.15 157.368 Q2155.58 159.196 2158.45 159.196 Q2161.9 159.196 2163.89 156.997 Q2165.91 154.798 2165.91 151.002 L2165.91 136.303 L2170.17 136.303 L2170.17 162.229 L2165.91 162.229 L2165.91 158.247 Q2164.36 160.608 2162.3 161.766 Q2160.26 162.9 2157.55 162.9 Q2153.08 162.9 2150.77 160.122 Q2148.45 157.344 2148.45 151.997 M2159.17 135.678 L2159.17 135.678 Z" fill="#000000" fill-rule="nonzero" fill-opacity="1" /><path clip-path="url(#clip340)" d="M2180.35 158.293 L2187.99 158.293 L2187.99 131.928 L2179.68 133.595 L2179.68 129.335 L2187.94 127.669 L2192.62 127.669 L2192.62 158.293 L2200.26 158.293 L2200.26 162.229 L2180.35 162.229 L2180.35 158.293 Z" fill="#000000" fill-rule="nonzero" fill-opacity="1" /><path clip-path="url(#clip340)" d="M2219.33 126.257 Q2216.23 131.581 2214.73 136.789 Q2213.22 141.997 2213.22 147.344 Q2213.22 152.692 2214.73 157.946 Q2216.25 163.178 2219.33 168.479 L2215.63 168.479 Q2212.16 163.039 2210.42 157.784 Q2208.71 152.53 2208.71 147.344 Q2208.71 142.182 2210.42 136.951 Q2212.13 131.72 2215.63 126.257 L2219.33 126.257 Z" fill="#000000" fill-rule="nonzero" fill-opacity="1" /><path clip-path="url(#clip340)" d="M2231.81 128.942 L2231.81 136.303 L2240.58 136.303 L2240.58 139.613 L2231.81 139.613 L2231.81 153.687 Q2231.81 156.858 2232.67 157.761 Q2233.55 158.664 2236.21 158.664 L2240.58 158.664 L2240.58 162.229 L2236.21 162.229 Q2231.28 162.229 2229.4 160.4 Q2227.53 158.548 2227.53 153.687 L2227.53 139.613 L2224.4 139.613 L2224.4 136.303 L2227.53 136.303 L2227.53 128.942 L2231.81 128.942 Z" fill="#000000" fill-rule="nonzero" fill-opacity="1" /><path clip-path="url(#clip340)" d="M2245.51 126.257 L2249.22 126.257 Q2252.69 131.72 2254.4 136.951 Q2256.14 142.182 2256.14 147.344 Q2256.14 152.53 2254.4 157.784 Q2252.69 163.039 2249.22 168.479 L2245.51 168.479 Q2248.59 163.178 2250.1 157.946 Q2251.62 152.692 2251.62 147.344 Q2251.62 141.997 2250.1 136.789 Q2248.59 131.581 2245.51 126.257 Z" fill="#000000" fill-rule="nonzero" fill-opacity="1" /></svg>
