<?xml version="1.0" encoding="utf-8"?>
<svg xmlns="http://www.w3.org/2000/svg" xmlns:xlink="http://www.w3.org/1999/xlink" width="600" height="400" viewBox="0 0 2400 1600">
<defs>
  <clipPath id="clip400">
    <rect x="0" y="0" width="2400" height="1600"/>
  </clipPath>
</defs>
<path clip-path="url(#clip400)" d="M0 1600 L2400 1600 L2400 0 L0 0  Z" fill="#ffffff" fill-rule="evenodd" fill-opacity="1"/>
<defs>
  <clipPath id="clip401">
    <rect x="480" y="0" width="1681" height="1600"/>
  </clipPath>
</defs>
<path clip-path="url(#clip400)" d="M216.922 1423.18 L2352.76 1423.18 L2352.76 47.2441 L216.922 47.2441  Z" fill="#ffffff" fill-rule="evenodd" fill-opacity="1"/>
<defs>
  <clipPath id="clip402">
    <rect x="216" y="47" width="2137" height="1377"/>
  </clipPath>
</defs>
<polyline clip-path="url(#clip402)" style="stroke:#000000; stroke-linecap:round; stroke-linejoin:round; stroke-width:2; stroke-opacity:0.1; fill:none" points="216.922,1423.18 216.922,47.2441 "/>
<polyline clip-path="url(#clip402)" style="stroke:#000000; stroke-linecap:round; stroke-linejoin:round; stroke-width:2; stroke-opacity:0.1; fill:none" points="522.041,1423.18 522.041,47.2441 "/>
<polyline clip-path="url(#clip402)" style="stroke:#000000; stroke-linecap:round; stroke-linejoin:round; stroke-width:2; stroke-opacity:0.1; fill:none" points="827.16,1423.18 827.16,47.2441 "/>
<polyline clip-path="url(#clip402)" style="stroke:#000000; stroke-linecap:round; stroke-linejoin:round; stroke-width:2; stroke-opacity:0.1; fill:none" points="1132.28,1423.18 1132.28,47.2441 "/>
<polyline clip-path="url(#clip402)" style="stroke:#000000; stroke-linecap:round; stroke-linejoin:round; stroke-width:2; stroke-opacity:0.1; fill:none" points="1437.4,1423.18 1437.4,47.2441 "/>
<polyline clip-path="url(#clip402)" style="stroke:#000000; stroke-linecap:round; stroke-linejoin:round; stroke-width:2; stroke-opacity:0.1; fill:none" points="1742.52,1423.18 1742.52,47.2441 "/>
<polyline clip-path="url(#clip402)" style="stroke:#000000; stroke-linecap:round; stroke-linejoin:round; stroke-width:2; stroke-opacity:0.1; fill:none" points="2047.64,1423.18 2047.64,47.2441 "/>
<polyline clip-path="url(#clip402)" style="stroke:#000000; stroke-linecap:round; stroke-linejoin:round; stroke-width:2; stroke-opacity:0.1; fill:none" points="2352.76,1423.18 2352.76,47.2441 "/>
<polyline clip-path="url(#clip400)" style="stroke:#000000; stroke-linecap:round; stroke-linejoin:round; stroke-width:4; stroke-opacity:1; fill:none" points="216.922,1423.18 2352.76,1423.18 "/>
<polyline clip-path="url(#clip400)" style="stroke:#000000; stroke-linecap:round; stroke-linejoin:round; stroke-width:4; stroke-opacity:1; fill:none" points="216.922,1423.18 216.922,1404.28 "/>
<polyline clip-path="url(#clip400)" style="stroke:#000000; stroke-linecap:round; stroke-linejoin:round; stroke-width:4; stroke-opacity:1; fill:none" points="522.041,1423.18 522.041,1404.28 "/>
<polyline clip-path="url(#clip400)" style="stroke:#000000; stroke-linecap:round; stroke-linejoin:round; stroke-width:4; stroke-opacity:1; fill:none" points="827.16,1423.18 827.16,1404.28 "/>
<polyline clip-path="url(#clip400)" style="stroke:#000000; stroke-linecap:round; stroke-linejoin:round; stroke-width:4; stroke-opacity:1; fill:none" points="1132.28,1423.18 1132.28,1404.28 "/>
<polyline clip-path="url(#clip400)" style="stroke:#000000; stroke-linecap:round; stroke-linejoin:round; stroke-width:4; stroke-opacity:1; fill:none" points="1437.4,1423.18 1437.4,1404.28 "/>
<polyline clip-path="url(#clip400)" style="stroke:#000000; stroke-linecap:round; stroke-linejoin:round; stroke-width:4; stroke-opacity:1; fill:none" points="1742.52,1423.18 1742.52,1404.28 "/>
<polyline clip-path="url(#clip400)" style="stroke:#000000; stroke-linecap:round; stroke-linejoin:round; stroke-width:4; stroke-opacity:1; fill:none" points="2047.64,1423.18 2047.64,1404.28 "/>
<polyline clip-path="url(#clip400)" style="stroke:#000000; stroke-linecap:round; stroke-linejoin:round; stroke-width:4; stroke-opacity:1; fill:none" points="2352.76,1423.18 2352.76,1404.28 "/>
<path clip-path="url(#clip400)" d="M216.922 1454.1 Q213.311 1454.1 211.482 1457.66 Q209.677 1461.2 209.677 1468.33 Q209.677 1475.44 211.482 1479.01 Q213.311 1482.55 216.922 1482.55 Q220.556 1482.55 222.362 1479.01 Q224.19 1475.44 224.19 1468.33 Q224.19 1461.2 222.362 1457.66 Q220.556 1454.1 216.922 1454.1 M216.922 1450.39 Q222.732 1450.39 225.788 1455 Q228.866 1459.58 228.866 1468.33 Q228.866 1477.06 225.788 1481.67 Q222.732 1486.25 216.922 1486.25 Q211.112 1486.25 208.033 1481.67 Q204.978 1477.06 204.978 1468.33 Q204.978 1459.58 208.033 1455 Q211.112 1450.39 216.922 1450.39 Z" fill="#000000" fill-rule="nonzero" fill-opacity="1" /><path clip-path="url(#clip400)" d="M481.648 1481.64 L489.287 1481.64 L489.287 1455.28 L480.977 1456.95 L480.977 1452.69 L489.24 1451.02 L493.916 1451.02 L493.916 1481.64 L501.555 1481.64 L501.555 1485.58 L481.648 1485.58 L481.648 1481.64 Z" fill="#000000" fill-rule="nonzero" fill-opacity="1" /><path clip-path="url(#clip400)" d="M520.999 1454.1 Q517.388 1454.1 515.56 1457.66 Q513.754 1461.2 513.754 1468.33 Q513.754 1475.44 515.56 1479.01 Q517.388 1482.55 520.999 1482.55 Q524.634 1482.55 526.439 1479.01 Q528.268 1475.44 528.268 1468.33 Q528.268 1461.2 526.439 1457.66 Q524.634 1454.1 520.999 1454.1 M520.999 1450.39 Q526.81 1450.39 529.865 1455 Q532.944 1459.58 532.944 1468.33 Q532.944 1477.06 529.865 1481.67 Q526.81 1486.25 520.999 1486.25 Q515.189 1486.25 512.111 1481.67 Q509.055 1477.06 509.055 1468.33 Q509.055 1459.58 512.111 1455 Q515.189 1450.39 520.999 1450.39 Z" fill="#000000" fill-rule="nonzero" fill-opacity="1" /><path clip-path="url(#clip400)" d="M551.161 1454.1 Q547.55 1454.1 545.722 1457.66 Q543.916 1461.2 543.916 1468.33 Q543.916 1475.44 545.722 1479.01 Q547.55 1482.55 551.161 1482.55 Q554.796 1482.55 556.601 1479.01 Q558.43 1475.44 558.43 1468.33 Q558.43 1461.2 556.601 1457.66 Q554.796 1454.1 551.161 1454.1 M551.161 1450.39 Q556.971 1450.39 560.027 1455 Q563.106 1459.58 563.106 1468.33 Q563.106 1477.06 560.027 1481.67 Q556.971 1486.25 551.161 1486.25 Q545.351 1486.25 542.272 1481.67 Q539.217 1477.06 539.217 1468.33 Q539.217 1459.58 542.272 1455 Q545.351 1450.39 551.161 1450.39 Z" fill="#000000" fill-rule="nonzero" fill-opacity="1" /><path clip-path="url(#clip400)" d="M790.853 1481.64 L807.172 1481.64 L807.172 1485.58 L785.228 1485.58 L785.228 1481.64 Q787.89 1478.89 792.473 1474.26 Q797.079 1469.61 798.26 1468.27 Q800.505 1465.74 801.385 1464.01 Q802.288 1462.25 802.288 1460.56 Q802.288 1457.8 800.343 1456.07 Q798.422 1454.33 795.32 1454.33 Q793.121 1454.33 790.667 1455.09 Q788.237 1455.86 785.459 1457.41 L785.459 1452.69 Q788.283 1451.55 790.737 1450.97 Q793.191 1450.39 795.228 1450.39 Q800.598 1450.39 803.792 1453.08 Q806.987 1455.77 806.987 1460.26 Q806.987 1462.39 806.177 1464.31 Q805.39 1466.2 803.283 1468.8 Q802.704 1469.47 799.603 1472.69 Q796.501 1475.88 790.853 1481.64 Z" fill="#000000" fill-rule="nonzero" fill-opacity="1" /><path clip-path="url(#clip400)" d="M826.987 1454.1 Q823.376 1454.1 821.547 1457.66 Q819.741 1461.2 819.741 1468.33 Q819.741 1475.44 821.547 1479.01 Q823.376 1482.55 826.987 1482.55 Q830.621 1482.55 832.426 1479.01 Q834.255 1475.44 834.255 1468.33 Q834.255 1461.2 832.426 1457.66 Q830.621 1454.1 826.987 1454.1 M826.987 1450.39 Q832.797 1450.39 835.852 1455 Q838.931 1459.58 838.931 1468.33 Q838.931 1477.06 835.852 1481.67 Q832.797 1486.25 826.987 1486.25 Q821.176 1486.25 818.098 1481.67 Q815.042 1477.06 815.042 1468.33 Q815.042 1459.58 818.098 1455 Q821.176 1450.39 826.987 1450.39 Z" fill="#000000" fill-rule="nonzero" fill-opacity="1" /><path clip-path="url(#clip400)" d="M857.149 1454.1 Q853.537 1454.1 851.709 1457.66 Q849.903 1461.2 849.903 1468.33 Q849.903 1475.44 851.709 1479.01 Q853.537 1482.55 857.149 1482.55 Q860.783 1482.55 862.588 1479.01 Q864.417 1475.44 864.417 1468.33 Q864.417 1461.2 862.588 1457.66 Q860.783 1454.1 857.149 1454.1 M857.149 1450.39 Q862.959 1450.39 866.014 1455 Q869.093 1459.58 869.093 1468.33 Q869.093 1477.06 866.014 1481.67 Q862.959 1486.25 857.149 1486.25 Q851.338 1486.25 848.26 1481.67 Q845.204 1477.06 845.204 1468.33 Q845.204 1459.58 848.26 1455 Q851.338 1450.39 857.149 1450.39 Z" fill="#000000" fill-rule="nonzero" fill-opacity="1" /><path clip-path="url(#clip400)" d="M1106.04 1466.95 Q1109.4 1467.66 1111.27 1469.93 Q1113.17 1472.2 1113.17 1475.53 Q1113.17 1480.65 1109.65 1483.45 Q1106.13 1486.25 1099.65 1486.25 Q1097.48 1486.25 1095.16 1485.81 Q1092.87 1485.39 1090.42 1484.54 L1090.42 1480.02 Q1092.36 1481.16 1094.68 1481.74 Q1096.99 1482.32 1099.51 1482.32 Q1103.91 1482.32 1106.2 1480.58 Q1108.52 1478.84 1108.52 1475.53 Q1108.52 1472.48 1106.37 1470.77 Q1104.24 1469.03 1100.42 1469.03 L1096.39 1469.03 L1096.39 1465.19 L1100.6 1465.19 Q1104.05 1465.19 1105.88 1463.82 Q1107.71 1462.43 1107.71 1459.84 Q1107.71 1457.18 1105.81 1455.77 Q1103.93 1454.33 1100.42 1454.33 Q1098.49 1454.33 1096.3 1454.75 Q1094.1 1455.16 1091.46 1456.04 L1091.46 1451.88 Q1094.12 1451.14 1096.43 1450.77 Q1098.77 1450.39 1100.83 1450.39 Q1106.16 1450.39 1109.26 1452.83 Q1112.36 1455.23 1112.36 1459.35 Q1112.36 1462.22 1110.72 1464.21 Q1109.07 1466.18 1106.04 1466.95 Z" fill="#000000" fill-rule="nonzero" fill-opacity="1" /><path clip-path="url(#clip400)" d="M1132.04 1454.1 Q1128.43 1454.1 1126.6 1457.66 Q1124.79 1461.2 1124.79 1468.33 Q1124.79 1475.44 1126.6 1479.01 Q1128.43 1482.55 1132.04 1482.55 Q1135.67 1482.55 1137.48 1479.01 Q1139.3 1475.44 1139.3 1468.33 Q1139.3 1461.2 1137.48 1457.66 Q1135.67 1454.1 1132.04 1454.1 M1132.04 1450.39 Q1137.85 1450.39 1140.9 1455 Q1143.98 1459.58 1143.98 1468.33 Q1143.98 1477.06 1140.9 1481.67 Q1137.85 1486.25 1132.04 1486.25 Q1126.23 1486.25 1123.15 1481.67 Q1120.09 1477.06 1120.09 1468.33 Q1120.09 1459.58 1123.15 1455 Q1126.23 1450.39 1132.04 1450.39 Z" fill="#000000" fill-rule="nonzero" fill-opacity="1" /><path clip-path="url(#clip400)" d="M1162.2 1454.1 Q1158.59 1454.1 1156.76 1457.66 Q1154.95 1461.2 1154.95 1468.33 Q1154.95 1475.44 1156.76 1479.01 Q1158.59 1482.55 1162.2 1482.55 Q1165.83 1482.55 1167.64 1479.01 Q1169.47 1475.44 1169.47 1468.33 Q1169.47 1461.2 1167.64 1457.66 Q1165.83 1454.1 1162.2 1454.1 M1162.2 1450.39 Q1168.01 1450.39 1171.06 1455 Q1174.14 1459.58 1174.14 1468.33 Q1174.14 1477.06 1171.06 1481.67 Q1168.01 1486.25 1162.2 1486.25 Q1156.39 1486.25 1153.31 1481.67 Q1150.25 1477.06 1150.25 1468.33 Q1150.25 1459.58 1153.31 1455 Q1156.39 1450.39 1162.2 1450.39 Z" fill="#000000" fill-rule="nonzero" fill-opacity="1" /><path clip-path="url(#clip400)" d="M1410.49 1455.09 L1398.68 1473.54 L1410.49 1473.54 L1410.49 1455.09 M1409.26 1451.02 L1415.14 1451.02 L1415.14 1473.54 L1420.07 1473.54 L1420.07 1477.43 L1415.14 1477.43 L1415.14 1485.58 L1410.49 1485.58 L1410.49 1477.43 L1394.89 1477.43 L1394.89 1472.92 L1409.26 1451.02 Z" fill="#000000" fill-rule="nonzero" fill-opacity="1" /><path clip-path="url(#clip400)" d="M1437.8 1454.1 Q1434.19 1454.1 1432.36 1457.66 Q1430.56 1461.2 1430.56 1468.33 Q1430.56 1475.44 1432.36 1479.01 Q1434.19 1482.55 1437.8 1482.55 Q1441.44 1482.55 1443.24 1479.01 Q1445.07 1475.44 1445.07 1468.33 Q1445.07 1461.2 1443.24 1457.66 Q1441.44 1454.1 1437.8 1454.1 M1437.8 1450.39 Q1443.61 1450.39 1446.67 1455 Q1449.75 1459.58 1449.75 1468.33 Q1449.75 1477.06 1446.67 1481.67 Q1443.61 1486.25 1437.8 1486.25 Q1431.99 1486.25 1428.91 1481.67 Q1425.86 1477.06 1425.86 1468.33 Q1425.86 1459.58 1428.91 1455 Q1431.99 1450.39 1437.8 1450.39 Z" fill="#000000" fill-rule="nonzero" fill-opacity="1" /><path clip-path="url(#clip400)" d="M1467.97 1454.1 Q1464.35 1454.1 1462.53 1457.66 Q1460.72 1461.2 1460.72 1468.33 Q1460.72 1475.44 1462.53 1479.01 Q1464.35 1482.55 1467.97 1482.55 Q1471.6 1482.55 1473.41 1479.01 Q1475.23 1475.44 1475.23 1468.33 Q1475.23 1461.2 1473.41 1457.66 Q1471.6 1454.1 1467.97 1454.1 M1467.97 1450.39 Q1473.78 1450.39 1476.83 1455 Q1479.91 1459.58 1479.91 1468.33 Q1479.91 1477.06 1476.83 1481.67 Q1473.78 1486.25 1467.97 1486.25 Q1462.16 1486.25 1459.08 1481.67 Q1456.02 1477.06 1456.02 1468.33 Q1456.02 1459.58 1459.08 1455 Q1462.16 1450.39 1467.97 1450.39 Z" fill="#000000" fill-rule="nonzero" fill-opacity="1" /><path clip-path="url(#clip400)" d="M1702.14 1451.02 L1720.49 1451.02 L1720.49 1454.96 L1706.42 1454.96 L1706.42 1463.43 Q1707.44 1463.08 1708.46 1462.92 Q1709.47 1462.73 1710.49 1462.73 Q1716.28 1462.73 1719.66 1465.9 Q1723.04 1469.08 1723.04 1474.49 Q1723.04 1480.07 1719.57 1483.17 Q1716.09 1486.25 1709.77 1486.25 Q1707.6 1486.25 1705.33 1485.88 Q1703.08 1485.51 1700.68 1484.77 L1700.68 1480.07 Q1702.76 1481.2 1704.98 1481.76 Q1707.21 1482.32 1709.68 1482.32 Q1713.69 1482.32 1716.02 1480.21 Q1718.36 1478.1 1718.36 1474.49 Q1718.36 1470.88 1716.02 1468.77 Q1713.69 1466.67 1709.68 1466.67 Q1707.81 1466.67 1705.93 1467.08 Q1704.08 1467.5 1702.14 1468.38 L1702.14 1451.02 Z" fill="#000000" fill-rule="nonzero" fill-opacity="1" /><path clip-path="url(#clip400)" d="M1742.25 1454.1 Q1738.64 1454.1 1736.81 1457.66 Q1735.01 1461.2 1735.01 1468.33 Q1735.01 1475.44 1736.81 1479.01 Q1738.64 1482.55 1742.25 1482.55 Q1745.89 1482.55 1747.69 1479.01 Q1749.52 1475.44 1749.52 1468.33 Q1749.52 1461.2 1747.69 1457.66 Q1745.89 1454.1 1742.25 1454.1 M1742.25 1450.39 Q1748.06 1450.39 1751.12 1455 Q1754.2 1459.58 1754.2 1468.33 Q1754.2 1477.06 1751.12 1481.67 Q1748.06 1486.25 1742.25 1486.25 Q1736.44 1486.25 1733.36 1481.67 Q1730.31 1477.06 1730.31 1468.33 Q1730.31 1459.58 1733.36 1455 Q1736.44 1450.39 1742.25 1450.39 Z" fill="#000000" fill-rule="nonzero" fill-opacity="1" /><path clip-path="url(#clip400)" d="M1772.41 1454.1 Q1768.8 1454.1 1766.97 1457.66 Q1765.17 1461.2 1765.17 1468.33 Q1765.17 1475.44 1766.97 1479.01 Q1768.8 1482.55 1772.41 1482.55 Q1776.05 1482.55 1777.85 1479.01 Q1779.68 1475.44 1779.68 1468.33 Q1779.68 1461.2 1777.85 1457.66 Q1776.05 1454.1 1772.41 1454.1 M1772.41 1450.39 Q1778.22 1450.39 1781.28 1455 Q1784.36 1459.58 1784.36 1468.33 Q1784.36 1477.06 1781.28 1481.67 Q1778.22 1486.25 1772.41 1486.25 Q1766.6 1486.25 1763.52 1481.67 Q1760.47 1477.06 1760.47 1468.33 Q1760.47 1459.58 1763.52 1455 Q1766.6 1450.39 1772.41 1450.39 Z" fill="#000000" fill-rule="nonzero" fill-opacity="1" /><path clip-path="url(#clip400)" d="M2017.96 1466.44 Q2014.81 1466.44 2012.96 1468.59 Q2011.13 1470.74 2011.13 1474.49 Q2011.13 1478.22 2012.96 1480.39 Q2014.81 1482.55 2017.96 1482.55 Q2021.11 1482.55 2022.94 1480.39 Q2024.79 1478.22 2024.79 1474.49 Q2024.79 1470.74 2022.94 1468.59 Q2021.11 1466.44 2017.96 1466.44 M2027.24 1451.78 L2027.24 1456.04 Q2025.48 1455.21 2023.68 1454.77 Q2021.9 1454.33 2020.14 1454.33 Q2015.51 1454.33 2013.05 1457.45 Q2010.62 1460.58 2010.28 1466.9 Q2011.64 1464.89 2013.7 1463.82 Q2015.76 1462.73 2018.24 1462.73 Q2023.45 1462.73 2026.46 1465.9 Q2029.49 1469.05 2029.49 1474.49 Q2029.49 1479.82 2026.34 1483.03 Q2023.19 1486.25 2017.96 1486.25 Q2011.97 1486.25 2008.79 1481.67 Q2005.62 1477.06 2005.62 1468.33 Q2005.62 1460.14 2009.51 1455.28 Q2013.4 1450.39 2019.95 1450.39 Q2021.71 1450.39 2023.49 1450.74 Q2025.3 1451.09 2027.24 1451.78 Z" fill="#000000" fill-rule="nonzero" fill-opacity="1" /><path clip-path="url(#clip400)" d="M2047.54 1454.1 Q2043.93 1454.1 2042.1 1457.66 Q2040.3 1461.2 2040.3 1468.33 Q2040.3 1475.44 2042.1 1479.01 Q2043.93 1482.55 2047.54 1482.55 Q2051.18 1482.55 2052.98 1479.01 Q2054.81 1475.44 2054.81 1468.33 Q2054.81 1461.2 2052.98 1457.66 Q2051.18 1454.1 2047.54 1454.1 M2047.54 1450.39 Q2053.35 1450.39 2056.41 1455 Q2059.49 1459.58 2059.49 1468.33 Q2059.49 1477.06 2056.41 1481.67 Q2053.35 1486.25 2047.54 1486.25 Q2041.73 1486.25 2038.66 1481.67 Q2035.6 1477.06 2035.6 1468.33 Q2035.6 1459.58 2038.66 1455 Q2041.73 1450.39 2047.54 1450.39 Z" fill="#000000" fill-rule="nonzero" fill-opacity="1" /><path clip-path="url(#clip400)" d="M2077.71 1454.1 Q2074.09 1454.1 2072.27 1457.66 Q2070.46 1461.2 2070.46 1468.33 Q2070.46 1475.44 2072.27 1479.01 Q2074.09 1482.55 2077.71 1482.55 Q2081.34 1482.55 2083.15 1479.01 Q2084.97 1475.44 2084.97 1468.33 Q2084.97 1461.2 2083.15 1457.66 Q2081.34 1454.1 2077.71 1454.1 M2077.71 1450.39 Q2083.52 1450.39 2086.57 1455 Q2089.65 1459.58 2089.65 1468.33 Q2089.65 1477.06 2086.57 1481.67 Q2083.52 1486.25 2077.71 1486.25 Q2071.9 1486.25 2068.82 1481.67 Q2065.76 1477.06 2065.76 1468.33 Q2065.76 1459.58 2068.82 1455 Q2071.9 1450.39 2077.71 1450.39 Z" fill="#000000" fill-rule="nonzero" fill-opacity="1" /><path clip-path="url(#clip400)" d="M2311.03 1451.02 L2333.25 1451.02 L2333.25 1453.01 L2320.71 1485.58 L2315.82 1485.58 L2327.63 1454.96 L2311.03 1454.96 L2311.03 1451.02 Z" fill="#000000" fill-rule="nonzero" fill-opacity="1" /><path clip-path="url(#clip400)" d="M2352.37 1454.1 Q2348.76 1454.1 2346.93 1457.66 Q2345.13 1461.2 2345.13 1468.33 Q2345.13 1475.44 2346.93 1479.01 Q2348.76 1482.55 2352.37 1482.55 Q2356.01 1482.55 2357.81 1479.01 Q2359.64 1475.44 2359.64 1468.33 Q2359.64 1461.2 2357.81 1457.66 Q2356.01 1454.1 2352.37 1454.1 M2352.37 1450.39 Q2358.18 1450.39 2361.24 1455 Q2364.32 1459.58 2364.32 1468.33 Q2364.32 1477.06 2361.24 1481.67 Q2358.18 1486.25 2352.37 1486.25 Q2346.56 1486.25 2343.49 1481.67 Q2340.43 1477.06 2340.43 1468.33 Q2340.43 1459.58 2343.49 1455 Q2346.56 1450.39 2352.37 1450.39 Z" fill="#000000" fill-rule="nonzero" fill-opacity="1" /><path clip-path="url(#clip400)" d="M2382.54 1454.1 Q2378.92 1454.1 2377.1 1457.66 Q2375.29 1461.2 2375.29 1468.33 Q2375.29 1475.44 2377.1 1479.01 Q2378.92 1482.55 2382.54 1482.55 Q2386.17 1482.55 2387.98 1479.01 Q2389.8 1475.44 2389.8 1468.33 Q2389.8 1461.2 2387.98 1457.66 Q2386.17 1454.1 2382.54 1454.1 M2382.54 1450.39 Q2388.35 1450.39 2391.4 1455 Q2394.48 1459.58 2394.48 1468.33 Q2394.48 1477.06 2391.4 1481.67 Q2388.35 1486.25 2382.54 1486.25 Q2376.73 1486.25 2373.65 1481.67 Q2370.59 1477.06 2370.59 1468.33 Q2370.59 1459.58 2373.65 1455 Q2376.73 1450.39 2382.54 1450.39 Z" fill="#000000" fill-rule="nonzero" fill-opacity="1" /><path clip-path="url(#clip400)" d="M1283.9 1522.27 L1283.9 1532.4 L1295.96 1532.4 L1295.96 1536.95 L1283.9 1536.95 L1283.9 1556.3 Q1283.9 1560.66 1285.08 1561.9 Q1286.29 1563.14 1289.95 1563.14 L1295.96 1563.14 L1295.96 1568.04 L1289.95 1568.04 Q1283.17 1568.04 1280.59 1565.53 Q1278.01 1562.98 1278.01 1556.3 L1278.01 1536.95 L1273.71 1536.95 L1273.71 1532.4 L1278.01 1532.4 L1278.01 1522.27 L1283.9 1522.27 Z" fill="#000000" fill-rule="nonzero" fill-opacity="1" /><polyline clip-path="url(#clip402)" style="stroke:#000000; stroke-linecap:round; stroke-linejoin:round; stroke-width:2; stroke-opacity:0.1; fill:none" points="216.922,1384.24 2352.76,1384.24 "/>
<polyline clip-path="url(#clip402)" style="stroke:#000000; stroke-linecap:round; stroke-linejoin:round; stroke-width:2; stroke-opacity:0.1; fill:none" points="216.922,1093.46 2352.76,1093.46 "/>
<polyline clip-path="url(#clip402)" style="stroke:#000000; stroke-linecap:round; stroke-linejoin:round; stroke-width:2; stroke-opacity:0.1; fill:none" points="216.922,802.685 2352.76,802.685 "/>
<polyline clip-path="url(#clip402)" style="stroke:#000000; stroke-linecap:round; stroke-linejoin:round; stroke-width:2; stroke-opacity:0.1; fill:none" points="216.922,511.909 2352.76,511.909 "/>
<polyline clip-path="url(#clip402)" style="stroke:#000000; stroke-linecap:round; stroke-linejoin:round; stroke-width:2; stroke-opacity:0.1; fill:none" points="216.922,221.133 2352.76,221.133 "/>
<polyline clip-path="url(#clip400)" style="stroke:#000000; stroke-linecap:round; stroke-linejoin:round; stroke-width:4; stroke-opacity:1; fill:none" points="216.922,1423.18 216.922,47.2441 "/>
<polyline clip-path="url(#clip400)" style="stroke:#000000; stroke-linecap:round; stroke-linejoin:round; stroke-width:4; stroke-opacity:1; fill:none" points="216.922,1384.24 235.82,1384.24 "/>
<polyline clip-path="url(#clip400)" style="stroke:#000000; stroke-linecap:round; stroke-linejoin:round; stroke-width:4; stroke-opacity:1; fill:none" points="216.922,1093.46 235.82,1093.46 "/>
<polyline clip-path="url(#clip400)" style="stroke:#000000; stroke-linecap:round; stroke-linejoin:round; stroke-width:4; stroke-opacity:1; fill:none" points="216.922,802.685 235.82,802.685 "/>
<polyline clip-path="url(#clip400)" style="stroke:#000000; stroke-linecap:round; stroke-linejoin:round; stroke-width:4; stroke-opacity:1; fill:none" points="216.922,511.909 235.82,511.909 "/>
<polyline clip-path="url(#clip400)" style="stroke:#000000; stroke-linecap:round; stroke-linejoin:round; stroke-width:4; stroke-opacity:1; fill:none" points="216.922,221.133 235.82,221.133 "/>
<path clip-path="url(#clip400)" d="M63.4226 1370.04 Q59.8115 1370.04 57.9828 1373.6 Q56.1773 1377.14 56.1773 1384.27 Q56.1773 1391.38 57.9828 1394.94 Q59.8115 1398.49 63.4226 1398.49 Q67.0569 1398.49 68.8624 1394.94 Q70.6911 1391.38 70.6911 1384.27 Q70.6911 1377.14 68.8624 1373.6 Q67.0569 1370.04 63.4226 1370.04 M63.4226 1366.33 Q69.2328 1366.33 72.2883 1370.94 Q75.367 1375.52 75.367 1384.27 Q75.367 1393 72.2883 1397.61 Q69.2328 1402.19 63.4226 1402.19 Q57.6125 1402.19 54.5338 1397.61 Q51.4782 1393 51.4782 1384.27 Q51.4782 1375.52 54.5338 1370.94 Q57.6125 1366.33 63.4226 1366.33 Z" fill="#000000" fill-rule="nonzero" fill-opacity="1" /><path clip-path="url(#clip400)" d="M83.5845 1395.64 L88.4688 1395.64 L88.4688 1401.52 L83.5845 1401.52 L83.5845 1395.64 Z" fill="#000000" fill-rule="nonzero" fill-opacity="1" /><path clip-path="url(#clip400)" d="M108.654 1370.04 Q105.043 1370.04 103.214 1373.6 Q101.409 1377.14 101.409 1384.27 Q101.409 1391.38 103.214 1394.94 Q105.043 1398.49 108.654 1398.49 Q112.288 1398.49 114.094 1394.94 Q115.922 1391.38 115.922 1384.27 Q115.922 1377.14 114.094 1373.6 Q112.288 1370.04 108.654 1370.04 M108.654 1366.33 Q114.464 1366.33 117.52 1370.94 Q120.598 1375.52 120.598 1384.27 Q120.598 1393 117.52 1397.61 Q114.464 1402.19 108.654 1402.19 Q102.844 1402.19 99.765 1397.61 Q96.7095 1393 96.7095 1384.27 Q96.7095 1375.52 99.765 1370.94 Q102.844 1366.33 108.654 1366.33 Z" fill="#000000" fill-rule="nonzero" fill-opacity="1" /><path clip-path="url(#clip400)" d="M138.816 1370.04 Q135.205 1370.04 133.376 1373.6 Q131.57 1377.14 131.57 1384.27 Q131.57 1391.38 133.376 1394.94 Q135.205 1398.49 138.816 1398.49 Q142.45 1398.49 144.256 1394.94 Q146.084 1391.38 146.084 1384.27 Q146.084 1377.14 144.256 1373.6 Q142.45 1370.04 138.816 1370.04 M138.816 1366.33 Q144.626 1366.33 147.681 1370.94 Q150.76 1375.52 150.76 1384.27 Q150.76 1393 147.681 1397.61 Q144.626 1402.19 138.816 1402.19 Q133.006 1402.19 129.927 1397.61 Q126.871 1393 126.871 1384.27 Q126.871 1375.52 129.927 1370.94 Q133.006 1366.33 138.816 1366.33 Z" fill="#000000" fill-rule="nonzero" fill-opacity="1" /><path clip-path="url(#clip400)" d="M168.978 1370.04 Q165.367 1370.04 163.538 1373.6 Q161.732 1377.14 161.732 1384.27 Q161.732 1391.38 163.538 1394.94 Q165.367 1398.49 168.978 1398.49 Q172.612 1398.49 174.417 1394.94 Q176.246 1391.38 176.246 1384.27 Q176.246 1377.14 174.417 1373.6 Q172.612 1370.04 168.978 1370.04 M168.978 1366.33 Q174.788 1366.33 177.843 1370.94 Q180.922 1375.52 180.922 1384.27 Q180.922 1393 177.843 1397.61 Q174.788 1402.19 168.978 1402.19 Q163.167 1402.19 160.089 1397.61 Q157.033 1393 157.033 1384.27 Q157.033 1375.52 160.089 1370.94 Q163.167 1366.33 168.978 1366.33 Z" fill="#000000" fill-rule="nonzero" fill-opacity="1" /><path clip-path="url(#clip400)" d="M64.6495 1079.26 Q61.0384 1079.26 59.2097 1082.83 Q57.4041 1086.37 57.4041 1093.5 Q57.4041 1100.6 59.2097 1104.17 Q61.0384 1107.71 64.6495 1107.71 Q68.2837 1107.71 70.0892 1104.17 Q71.9179 1100.6 71.9179 1093.5 Q71.9179 1086.37 70.0892 1082.83 Q68.2837 1079.26 64.6495 1079.26 M64.6495 1075.56 Q70.4596 1075.56 73.5152 1080.16 Q76.5938 1084.75 76.5938 1093.5 Q76.5938 1102.22 73.5152 1106.83 Q70.4596 1111.41 64.6495 1111.41 Q58.8393 1111.41 55.7606 1106.83 Q52.7051 1102.22 52.7051 1093.5 Q52.7051 1084.75 55.7606 1080.16 Q58.8393 1075.56 64.6495 1075.56 Z" fill="#000000" fill-rule="nonzero" fill-opacity="1" /><path clip-path="url(#clip400)" d="M84.8114 1104.86 L89.6956 1104.86 L89.6956 1110.74 L84.8114 1110.74 L84.8114 1104.86 Z" fill="#000000" fill-rule="nonzero" fill-opacity="1" /><path clip-path="url(#clip400)" d="M109.881 1079.26 Q106.27 1079.26 104.441 1082.83 Q102.635 1086.37 102.635 1093.5 Q102.635 1100.6 104.441 1104.17 Q106.27 1107.71 109.881 1107.71 Q113.515 1107.71 115.32 1104.17 Q117.149 1100.6 117.149 1093.5 Q117.149 1086.37 115.32 1082.83 Q113.515 1079.26 109.881 1079.26 M109.881 1075.56 Q115.691 1075.56 118.746 1080.16 Q121.825 1084.75 121.825 1093.5 Q121.825 1102.22 118.746 1106.83 Q115.691 1111.41 109.881 1111.41 Q104.071 1111.41 100.992 1106.83 Q97.9363 1102.22 97.9363 1093.5 Q97.9363 1084.75 100.992 1080.16 Q104.071 1075.56 109.881 1075.56 Z" fill="#000000" fill-rule="nonzero" fill-opacity="1" /><path clip-path="url(#clip400)" d="M140.043 1079.26 Q136.431 1079.26 134.603 1082.83 Q132.797 1086.37 132.797 1093.5 Q132.797 1100.6 134.603 1104.17 Q136.431 1107.71 140.043 1107.71 Q143.677 1107.71 145.482 1104.17 Q147.311 1100.6 147.311 1093.5 Q147.311 1086.37 145.482 1082.83 Q143.677 1079.26 140.043 1079.26 M140.043 1075.56 Q145.853 1075.56 148.908 1080.16 Q151.987 1084.75 151.987 1093.5 Q151.987 1102.22 148.908 1106.83 Q145.853 1111.41 140.043 1111.41 Q134.232 1111.41 131.154 1106.83 Q128.098 1102.22 128.098 1093.5 Q128.098 1084.75 131.154 1080.16 Q134.232 1075.56 140.043 1075.56 Z" fill="#000000" fill-rule="nonzero" fill-opacity="1" /><path clip-path="url(#clip400)" d="M161.015 1106.81 L168.654 1106.81 L168.654 1080.44 L160.343 1082.11 L160.343 1077.85 L168.607 1076.18 L173.283 1076.18 L173.283 1106.81 L180.922 1106.81 L180.922 1110.74 L161.015 1110.74 L161.015 1106.81 Z" fill="#000000" fill-rule="nonzero" fill-opacity="1" /><path clip-path="url(#clip400)" d="M65.0198 788.484 Q61.4087 788.484 59.58 792.049 Q57.7745 795.591 57.7745 802.72 Q57.7745 809.827 59.58 813.391 Q61.4087 816.933 65.0198 816.933 Q68.6541 816.933 70.4596 813.391 Q72.2883 809.827 72.2883 802.72 Q72.2883 795.591 70.4596 792.049 Q68.6541 788.484 65.0198 788.484 M65.0198 784.78 Q70.83 784.78 73.8855 789.387 Q76.9642 793.97 76.9642 802.72 Q76.9642 811.447 73.8855 816.053 Q70.83 820.637 65.0198 820.637 Q59.2097 820.637 56.131 816.053 Q53.0754 811.447 53.0754 802.72 Q53.0754 793.97 56.131 789.387 Q59.2097 784.78 65.0198 784.78 Z" fill="#000000" fill-rule="nonzero" fill-opacity="1" /><path clip-path="url(#clip400)" d="M85.1818 814.086 L90.066 814.086 L90.066 819.965 L85.1818 819.965 L85.1818 814.086 Z" fill="#000000" fill-rule="nonzero" fill-opacity="1" /><path clip-path="url(#clip400)" d="M110.251 788.484 Q106.64 788.484 104.811 792.049 Q103.006 795.591 103.006 802.72 Q103.006 809.827 104.811 813.391 Q106.64 816.933 110.251 816.933 Q113.885 816.933 115.691 813.391 Q117.52 809.827 117.52 802.72 Q117.52 795.591 115.691 792.049 Q113.885 788.484 110.251 788.484 M110.251 784.78 Q116.061 784.78 119.117 789.387 Q122.195 793.97 122.195 802.72 Q122.195 811.447 119.117 816.053 Q116.061 820.637 110.251 820.637 Q104.441 820.637 101.362 816.053 Q98.3067 811.447 98.3067 802.72 Q98.3067 793.97 101.362 789.387 Q104.441 784.78 110.251 784.78 Z" fill="#000000" fill-rule="nonzero" fill-opacity="1" /><path clip-path="url(#clip400)" d="M140.413 788.484 Q136.802 788.484 134.973 792.049 Q133.168 795.591 133.168 802.72 Q133.168 809.827 134.973 813.391 Q136.802 816.933 140.413 816.933 Q144.047 816.933 145.853 813.391 Q147.681 809.827 147.681 802.72 Q147.681 795.591 145.853 792.049 Q144.047 788.484 140.413 788.484 M140.413 784.78 Q146.223 784.78 149.279 789.387 Q152.357 793.97 152.357 802.72 Q152.357 811.447 149.279 816.053 Q146.223 820.637 140.413 820.637 Q134.603 820.637 131.524 816.053 Q128.469 811.447 128.469 802.72 Q128.469 793.97 131.524 789.387 Q134.603 784.78 140.413 784.78 Z" fill="#000000" fill-rule="nonzero" fill-opacity="1" /><path clip-path="url(#clip400)" d="M164.603 816.03 L180.922 816.03 L180.922 819.965 L158.978 819.965 L158.978 816.03 Q161.64 813.276 166.223 808.646 Q170.829 803.993 172.01 802.651 Q174.255 800.128 175.135 798.391 Q176.038 796.632 176.038 794.942 Q176.038 792.188 174.093 790.452 Q172.172 788.716 169.07 788.716 Q166.871 788.716 164.417 789.479 Q161.987 790.243 159.209 791.794 L159.209 787.072 Q162.033 785.938 164.487 785.359 Q166.941 784.78 168.978 784.78 Q174.348 784.78 177.542 787.466 Q180.737 790.151 180.737 794.641 Q180.737 796.771 179.927 798.692 Q179.14 800.59 177.033 803.183 Q176.454 803.854 173.353 807.072 Q170.251 810.266 164.603 816.03 Z" fill="#000000" fill-rule="nonzero" fill-opacity="1" /><path clip-path="url(#clip400)" d="M64.0708 497.708 Q60.4597 497.708 58.631 501.272 Q56.8254 504.814 56.8254 511.944 Q56.8254 519.05 58.631 522.615 Q60.4597 526.157 64.0708 526.157 Q67.705 526.157 69.5105 522.615 Q71.3392 519.05 71.3392 511.944 Q71.3392 504.814 69.5105 501.272 Q67.705 497.708 64.0708 497.708 M64.0708 494.004 Q69.8809 494.004 72.9365 498.61 Q76.0151 503.194 76.0151 511.944 Q76.0151 520.67 72.9365 525.277 Q69.8809 529.86 64.0708 529.86 Q58.2606 529.86 55.1819 525.277 Q52.1264 520.67 52.1264 511.944 Q52.1264 503.194 55.1819 498.61 Q58.2606 494.004 64.0708 494.004 Z" fill="#000000" fill-rule="nonzero" fill-opacity="1" /><path clip-path="url(#clip400)" d="M84.2327 523.309 L89.1169 523.309 L89.1169 529.189 L84.2327 529.189 L84.2327 523.309 Z" fill="#000000" fill-rule="nonzero" fill-opacity="1" /><path clip-path="url(#clip400)" d="M109.302 497.708 Q105.691 497.708 103.862 501.272 Q102.057 504.814 102.057 511.944 Q102.057 519.05 103.862 522.615 Q105.691 526.157 109.302 526.157 Q112.936 526.157 114.742 522.615 Q116.57 519.05 116.57 511.944 Q116.57 504.814 114.742 501.272 Q112.936 497.708 109.302 497.708 M109.302 494.004 Q115.112 494.004 118.168 498.61 Q121.246 503.194 121.246 511.944 Q121.246 520.67 118.168 525.277 Q115.112 529.86 109.302 529.86 Q103.492 529.86 100.413 525.277 Q97.3576 520.67 97.3576 511.944 Q97.3576 503.194 100.413 498.61 Q103.492 494.004 109.302 494.004 Z" fill="#000000" fill-rule="nonzero" fill-opacity="1" /><path clip-path="url(#clip400)" d="M139.464 497.708 Q135.853 497.708 134.024 501.272 Q132.219 504.814 132.219 511.944 Q132.219 519.05 134.024 522.615 Q135.853 526.157 139.464 526.157 Q143.098 526.157 144.904 522.615 Q146.732 519.05 146.732 511.944 Q146.732 504.814 144.904 501.272 Q143.098 497.708 139.464 497.708 M139.464 494.004 Q145.274 494.004 148.33 498.61 Q151.408 503.194 151.408 511.944 Q151.408 520.67 148.33 525.277 Q145.274 529.86 139.464 529.86 Q133.654 529.86 130.575 525.277 Q127.519 520.67 127.519 511.944 Q127.519 503.194 130.575 498.61 Q133.654 494.004 139.464 494.004 Z" fill="#000000" fill-rule="nonzero" fill-opacity="1" /><path clip-path="url(#clip400)" d="M173.792 510.555 Q177.149 511.272 179.024 513.541 Q180.922 515.809 180.922 519.143 Q180.922 524.258 177.403 527.059 Q173.885 529.86 167.404 529.86 Q165.228 529.86 162.913 529.42 Q160.621 529.004 158.167 528.147 L158.167 523.633 Q160.112 524.768 162.427 525.346 Q164.742 525.925 167.265 525.925 Q171.663 525.925 173.954 524.189 Q176.269 522.453 176.269 519.143 Q176.269 516.087 174.116 514.374 Q171.987 512.638 168.167 512.638 L164.14 512.638 L164.14 508.796 L168.353 508.796 Q171.802 508.796 173.63 507.43 Q175.459 506.041 175.459 503.448 Q175.459 500.786 173.561 499.374 Q171.686 497.939 168.167 497.939 Q166.246 497.939 164.047 498.356 Q161.848 498.772 159.209 499.652 L159.209 495.485 Q161.871 494.745 164.186 494.374 Q166.524 494.004 168.584 494.004 Q173.908 494.004 177.01 496.435 Q180.112 498.842 180.112 502.962 Q180.112 505.833 178.468 507.823 Q176.825 509.791 173.792 510.555 Z" fill="#000000" fill-rule="nonzero" fill-opacity="1" /><path clip-path="url(#clip400)" d="M62.9365 206.931 Q59.3254 206.931 57.4967 210.496 Q55.6912 214.038 55.6912 221.167 Q55.6912 228.274 57.4967 231.838 Q59.3254 235.38 62.9365 235.38 Q66.5707 235.38 68.3763 231.838 Q70.205 228.274 70.205 221.167 Q70.205 214.038 68.3763 210.496 Q66.5707 206.931 62.9365 206.931 M62.9365 203.228 Q68.7467 203.228 71.8022 207.834 Q74.8809 212.417 74.8809 221.167 Q74.8809 229.894 71.8022 234.501 Q68.7467 239.084 62.9365 239.084 Q57.1264 239.084 54.0477 234.501 Q50.9921 229.894 50.9921 221.167 Q50.9921 212.417 54.0477 207.834 Q57.1264 203.228 62.9365 203.228 Z" fill="#000000" fill-rule="nonzero" fill-opacity="1" /><path clip-path="url(#clip400)" d="M83.0984 232.533 L87.9827 232.533 L87.9827 238.413 L83.0984 238.413 L83.0984 232.533 Z" fill="#000000" fill-rule="nonzero" fill-opacity="1" /><path clip-path="url(#clip400)" d="M108.168 206.931 Q104.557 206.931 102.728 210.496 Q100.922 214.038 100.922 221.167 Q100.922 228.274 102.728 231.838 Q104.557 235.38 108.168 235.38 Q111.802 235.38 113.608 231.838 Q115.436 228.274 115.436 221.167 Q115.436 214.038 113.608 210.496 Q111.802 206.931 108.168 206.931 M108.168 203.228 Q113.978 203.228 117.033 207.834 Q120.112 212.417 120.112 221.167 Q120.112 229.894 117.033 234.501 Q113.978 239.084 108.168 239.084 Q102.358 239.084 99.2789 234.501 Q96.2234 229.894 96.2234 221.167 Q96.2234 212.417 99.2789 207.834 Q102.358 203.228 108.168 203.228 Z" fill="#000000" fill-rule="nonzero" fill-opacity="1" /><path clip-path="url(#clip400)" d="M138.33 206.931 Q134.719 206.931 132.89 210.496 Q131.084 214.038 131.084 221.167 Q131.084 228.274 132.89 231.838 Q134.719 235.38 138.33 235.38 Q141.964 235.38 143.769 231.838 Q145.598 228.274 145.598 221.167 Q145.598 214.038 143.769 210.496 Q141.964 206.931 138.33 206.931 M138.33 203.228 Q144.14 203.228 147.195 207.834 Q150.274 212.417 150.274 221.167 Q150.274 229.894 147.195 234.501 Q144.14 239.084 138.33 239.084 Q132.519 239.084 129.441 234.501 Q126.385 229.894 126.385 221.167 Q126.385 212.417 129.441 207.834 Q132.519 203.228 138.33 203.228 Z" fill="#000000" fill-rule="nonzero" fill-opacity="1" /><path clip-path="url(#clip400)" d="M171.339 207.927 L159.533 226.376 L171.339 226.376 L171.339 207.927 M170.112 203.853 L175.991 203.853 L175.991 226.376 L180.922 226.376 L180.922 230.264 L175.991 230.264 L175.991 238.413 L171.339 238.413 L171.339 230.264 L155.737 230.264 L155.737 225.751 L170.112 203.853 Z" fill="#000000" fill-rule="nonzero" fill-opacity="1" /><polyline clip-path="url(#clip402)" style="stroke:#009af9; stroke-linecap:round; stroke-linejoin:round; stroke-width:4; stroke-opacity:1; fill:none" points="216.922,1384.24 218.566,1384.24 220.21,1384.24 221.855,1384.24 223.499,1384.24 225.143,1384.24 226.787,1384.24 228.431,1384.24 230.076,1384.24 231.72,1384.24 233.364,1384.24 235.008,1384.24 236.653,1384.24 238.297,1384.24 239.941,1384.24 241.585,1384.24 243.229,1384.24 244.874,1384.24 246.518,1384.24 248.162,1384.24 249.806,1384.24 251.45,1384.24 253.095,1384.24 254.739,1384.24 256.383,1384.24 258.027,1384.24 259.672,1384.24 261.316,1384.24 262.96,1384.24 264.604,1384.24 266.248,1384.24 267.893,1384.24 269.537,1384.24 271.181,1384.24 272.825,1384.24 274.469,1384.24 276.114,1384.24 277.758,1384.24 279.402,1384.24 281.046,1384.24 282.691,1384.24 284.335,1384.24 285.979,1384.24 287.623,1384.24 289.267,1384.24 290.912,1384.24 292.556,1384.24 294.2,1384.24 295.844,1384.24 297.488,1384.24 299.133,1384.24 300.777,1384.24 302.421,1384.24 304.065,1384.24 305.71,1384.24 307.354,1384.24 308.998,1384.24 310.642,1384.24 312.286,1384.24 313.931,1384.24 315.575,1384.24 317.219,1384.24 318.863,1384.24 320.507,1384.24 322.152,1384.24 323.796,1384.24 325.44,1384.24 327.084,1384.24 328.729,1384.24 330.373,1384.24 332.017,1384.24 333.661,1384.24 335.305,1384.24 336.95,1384.24 338.594,1384.24 340.238,1384.24 341.882,1384.24 343.526,1384.24 345.171,1384.24 346.815,1384.24 348.459,1384.24 350.103,1384.24 351.748,1384.24 353.392,1384.24 355.036,1384.24 356.68,1384.24 358.324,1384.24 359.969,1384.24 361.613,1384.24 363.257,1384.24 364.901,1384.24 366.545,1384.24 368.19,1384.24 369.834,1384.24 371.478,1384.24 373.122,1384.24 374.767,1384.24 376.411,1384.24 378.055,1384.24 379.699,1384.24 381.343,1384.24 382.988,1384.24 384.632,1384.24 386.276,1384.24 387.92,1384.24 389.564,1384.24 391.209,1384.24 392.853,1384.24 394.497,1384.24 396.141,1384.24 397.786,1384.24 399.43,1384.24 401.074,1384.24 402.718,1384.24 404.362,1384.24 406.007,1384.24 407.651,1384.24 409.295,1384.24 410.939,1384.24 412.583,1384.24 414.228,1384.24 415.872,1384.24 417.516,1384.24 419.16,1384.24 420.805,1384.24 422.449,1384.24 424.093,1384.24 425.737,1384.24 427.381,1384.24 429.026,1384.24 430.67,1384.24 432.314,1384.24 433.958,1384.24 435.602,1384.24 437.247,1384.24 438.891,1384.24 440.535,1384.24 442.179,1384.24 443.824,1384.24 445.468,1384.24 447.112,1384.24 448.756,1384.24 450.4,1384.24 452.045,1384.24 453.689,1384.24 455.333,1384.24 456.977,1384.24 458.621,1384.24 460.266,1384.24 461.91,1384.24 463.554,1384.24 465.198,1384.24 466.843,1384.24 468.487,1384.24 470.131,1384.24 471.775,1384.24 473.419,1384.24 475.064,1384.24 476.708,1384.24 478.352,1384.24 479.996,1384.24 481.64,1384.24 483.285,1384.24 484.929,1384.24 486.573,1384.24 488.217,1384.24 489.862,1384.24 491.506,1384.24 493.15,1384.24 494.794,1384.24 496.438,1384.24 498.083,1384.24 499.727,1384.24 501.371,1384.24 503.015,1384.24 504.659,1384.24 506.304,1384.24 507.948,1384.24 509.592,1384.24 511.236,1384.24 512.88,1384.24 514.525,1384.24 516.169,1384.24 517.813,1384.24 519.457,1384.24 521.102,1384.24 522.746,121.846 524.39,144.322 526.034,166.397 527.678,188.077 529.323,209.373 530.967,230.291 532.611,250.83 534.255,271.013 535.899,290.841 537.544,310.314 539.188,329.431 540.832,348.211 542.476,366.662 544.121,384.784 545.765,402.567 547.409,420.036 549.053,437.21 550.697,454.09 552.342,470.675 553.986,486.966 555.63,502.963 557.274,518.666 558.918,534.064 560.563,549.192 562.207,564.065 563.851,578.686 565.495,593.053 567.14,607.166 568.784,621.026 570.428,634.632 572.072,647.985 573.716,661.069 575.361,673.937 577.005,686.591 578.649,699.033 580.293,711.26 581.937,723.275 583.582,735.076 585.226,746.664 586.87,758.038 588.514,769.199 590.159,780.131 591.803,790.869 593.447,801.432 595.091,811.821 596.735,822.036 598.38,832.077 600.024,841.943 601.668,851.636 603.312,861.154 604.956,870.498 606.601,879.667 608.245,888.663 609.889,897.464 611.533,906.103 613.178,914.607 614.822,922.974 616.466,931.205 618.11,939.3 619.754,947.258 621.399,955.081 623.043,962.767 624.687,970.317 626.331,977.731 627.975,985.009 629.62,992.15 631.264,999.156 632.908,1006.02 634.552,1012.75 636.197,1019.34 637.841,1025.83 639.485,1032.22 641.129,1038.5 642.773,1044.67 644.418,1050.75 646.062,1056.72 647.706,1062.58 649.35,1068.34 650.994,1073.99 652.639,1079.54 654.283,1084.99 655.927,1090.33 657.571,1095.56 659.216,1100.68 660.86,1105.71 662.504,1110.66 664.148,1115.54 665.792,1120.34 667.437,1125.05 669.081,1129.7 670.725,1134.26 672.369,1138.74 674.013,1143.15 675.658,1147.48 677.302,1151.73 678.946,1155.9 680.59,1159.99 682.235,1164 683.879,1167.94 685.523,1171.8 687.167,1175.56 688.811,1179.26 690.456,1182.9 692.1,1186.48 693.744,1190.01 695.388,1193.48 697.032,1196.9 698.677,1200.26 700.321,1203.56 701.965,1206.8 703.609,1209.99 705.254,1213.12 706.898,1216.2 708.542,1219.22 710.186,1222.18 711.83,1225.08 713.475,1227.93 715.119,1230.72 716.763,1233.45 718.407,1236.11 720.051,1238.73 721.696,1241.32 723.34,1243.86 724.984,1246.37 726.628,1248.83 728.273,1251.26 729.917,1253.65 731.561,1255.99 733.205,1258.3 734.849,1260.57 736.494,1262.8 738.138,1264.99 739.782,1267.14 741.426,1269.25 743.07,1271.33 744.715,1273.36 746.359,1275.35 748.003,1277.31 749.647,1279.22 751.292,1281.1 752.936,1282.93 754.58,1284.72 756.224,1286.48 757.868,1288.21 759.513,1289.92 761.157,1291.6 762.801,1293.26 764.445,1294.89 766.089,1296.5 767.734,1298.07 769.378,1299.63 771.022,1301.15 772.666,1302.65 774.311,1304.13 775.955,1305.58 777.599,1307 779.243,1308.39 780.887,1309.76 782.532,1311.11 784.176,1312.43 785.82,1313.72 787.464,1314.98 789.108,1316.22 790.753,1317.44 792.397,1318.62 794.041,1319.78 795.685,1320.92 797.33,1322.05 798.974,1323.15 800.618,1324.25 802.262,1325.32 803.906,1326.38 805.551,1327.42 807.195,1328.44 808.839,1329.44 810.483,1330.43 812.127,1331.4 813.772,1332.36 815.416,1333.29 817.06,1334.21 818.704,1335.11 820.349,1336 821.993,1336.86 823.637,1337.71 825.281,1338.55 826.925,1339.36 828.57,93.8339 830.214,116.809 831.858,139.373 833.502,161.536 835.146,183.301 836.791,204.686 838.435,225.689 840.079,246.311 841.723,266.573 843.368,286.479 845.012,306.03 846.656,325.219 848.3,344.068 849.944,362.596 851.589,380.802 853.233,398.685 854.877,416.247 856.521,433.487 858.165,450.394 859.81,467.018 861.454,483.362 863.098,499.424 864.742,515.205 866.386,530.705 868.031,545.924 869.675,560.862 871.319,575.505 872.963,589.89 874.608,604.036 876.252,617.945 877.896,631.616 879.54,645.049 881.184,658.244 882.829,671.201 884.473,683.92 886.117,696.402 887.761,708.631 889.405,720.643 891.05,732.459 892.694,744.079 894.338,755.501 895.982,766.727 897.627,777.757 899.271,788.59 900.915,799.226 902.559,809.666 904.203,819.91 905.848,829.937 907.492,839.777 909.136,849.46 910.78,858.988 912.424,868.36 914.069,877.576 915.713,886.637 917.357,895.542 919.001,904.291 920.646,912.884 922.29,921.322 923.934,929.604 925.578,937.73 927.222,945.7 928.867,953.515 930.511,961.153 932.155,968.672 933.799,976.07 935.443,983.348 937.088,990.506 938.732,997.545 940.376,1004.46 942.02,1011.26 943.665,1017.94 945.309,1024.5 946.953,1030.93 948.597,1037.25 950.241,1043.45 951.886,1049.53 953.53,1055.47 955.174,1061.3 956.818,1067.04 958.462,1072.69 960.107,1078.25 961.751,1083.71 963.395,1089.09 965.039,1094.38 966.684,1099.57 968.328,1104.68 969.972,1109.69 971.616,1114.62 973.26,1119.45 974.905,1124.19 976.549,1128.84 978.193,1133.4 979.837,1137.86 981.481,1142.23 983.126,1146.52 984.77,1150.75 986.414,1154.91 988.058,1159.01 989.703,1163.04 991.347,1167 992.991,1170.89 994.635,1174.72 996.279,1178.48 997.924,1182.18 999.568,1185.8 1001.21,1189.37 1002.86,1192.86 1004.5,1196.29 1006.14,1199.65 1007.79,1202.94 1009.43,1206.16 1011.08,1209.31 1012.72,1212.41 1014.37,1215.46 1016.01,1218.47 1017.65,1221.43 1019.3,1224.35 1020.94,1227.21 1022.59,1230.03 1024.23,1232.8 1025.88,1235.53 1027.52,1238.2 1029.16,1240.83 1030.81,1243.42 1032.45,1245.95 1034.1,1248.44 1035.74,1250.89 1037.38,1253.28 1039.03,1255.63 1040.67,1257.93 1042.32,1260.18 1043.96,1262.37 1045.61,1264.53 1047.25,1266.65 1048.89,1268.74 1050.54,1270.8 1052.18,1272.82 1053.83,1274.82 1055.47,1276.78 1057.12,1278.71 1058.76,1280.61 1060.4,1282.48 1062.05,1284.31 1063.69,1286.12 1065.34,1287.89 1066.98,1289.63 1068.62,1291.34 1070.27,1293.01 1071.91,1294.66 1073.56,1296.27 1075.2,1297.85 1076.85,1299.4 1078.49,1300.91 1080.13,1302.4 1081.78,1303.84 1083.42,1305.25 1085.07,1306.65 1086.71,1308.03 1088.36,1309.39 1090,1310.73 1091.64,1312.04 1093.29,1313.34 1094.93,1314.61 1096.58,1315.87 1098.22,1317.1 1099.86,1318.32 1101.51,1319.51 1103.15,1320.68 1104.8,1321.84 1106.44,1322.97 1108.09,1324.08 1109.73,1325.17 1111.37,1326.24 1113.02,1327.29 1114.66,1328.32 1116.31,1329.32 1117.95,1330.31 1119.6,1331.28 1121.24,1332.22 1122.88,1333.15 1124.53,1334.06 1126.17,1334.95 1127.82,1335.83 1129.46,1336.69 1131.1,1337.54 1132.75,89.3036 1134.39,112.358 1136.04,135.004 1137.68,157.243 1139.33,179.087 1140.97,200.544 1142.61,221.612 1144.26,242.313 1145.9,262.653 1147.55,282.631 1149.19,302.247 1150.84,321.507 1152.48,340.431 1154.12,359.021 1155.77,377.274 1157.41,395.181 1159.06,412.791 1160.7,430.102 1162.35,447.114 1163.99,463.828 1165.63,480.244 1167.28,496.362 1168.92,512.182 1170.57,527.694 1172.21,542.939 1173.85,557.926 1175.5,572.656 1177.14,587.129 1178.79,601.345 1180.43,615.304 1182.08,629.005 1183.72,642.435 1185.36,655.624 1187.01,668.598 1188.65,681.355 1190.3,693.896 1191.94,706.221 1193.59,718.329 1195.23,730.221 1196.87,741.897 1198.52,753.357 1200.16,764.6 1201.81,775.61 1203.45,786.432 1205.09,797.078 1206.74,807.547 1208.38,817.839 1210.03,827.954 1211.67,837.893 1213.32,847.656 1214.96,857.241 1216.6,866.651 1218.25,875.883 1219.89,884.936 1221.54,893.787 1223.18,902.5 1224.83,911.075 1226.47,919.512 1228.11,927.811 1229.76,935.971 1231.4,943.994 1233.05,951.878 1234.69,959.624 1236.33,967.232 1237.98,974.702 1239.62,982.033 1241.27,989.227 1242.91,996.282 1244.56,1003.2 1246.2,1009.96 1247.84,1016.61 1249.49,1023.15 1251.13,1029.59 1252.78,1035.92 1254.42,1042.15 1256.07,1048.26 1257.71,1054.28 1259.35,1060.18 1261,1065.98 1262.64,1071.68 1264.29,1077.27 1265.93,1082.75 1267.57,1088.13 1269.22,1093.38 1270.86,1098.54 1272.51,1103.61 1274.15,1108.61 1275.8,1113.52 1277.44,1118.36 1279.08,1123.12 1280.73,1127.8 1282.37,1132.4 1284.02,1136.92 1285.66,1141.36 1287.31,1145.72 1288.95,1150 1290.59,1154.2 1292.24,1158.32 1293.88,1162.37 1295.53,1166.33 1297.17,1170.22 1298.81,1174 1300.46,1177.73 1302.1,1181.4 1303.75,1185.01 1305.39,1188.57 1307.04,1192.07 1308.68,1195.51 1310.32,1198.89 1311.97,1202.22 1313.61,1205.49 1315.26,1208.7 1316.9,1211.85 1318.55,1214.95 1320.19,1217.99 1321.83,1220.97 1323.48,1223.9 1325.12,1226.76 1326.77,1229.57 1328.41,1232.31 1330.05,1235 1331.7,1237.64 1333.34,1240.25 1334.99,1242.81 1336.63,1245.34 1338.28,1247.82 1339.92,1250.27 1341.56,1252.68 1343.21,1255.04 1344.85,1257.37 1346.5,1259.66 1348.14,1261.9 1349.79,1264.11 1351.43,1266.28 1353.07,1268.4 1354.72,1270.49 1356.36,1272.54 1358.01,1274.55 1359.65,1276.52 1361.29,1278.44 1362.94,1280.33 1364.58,1282.17 1366.23,1283.97 1367.87,1285.75 1369.52,1287.5 1371.16,1289.22 1372.8,1290.92 1374.45,1292.59 1376.09,1294.23 1377.74,1295.85 1379.38,1297.44 1381.03,1299 1382.67,1300.54 1384.31,1302.05 1385.96,1303.54 1387.6,1305 1389.25,1306.43 1390.89,1307.83 1392.53,1309.21 1394.18,1310.57 1395.82,1311.89 1397.47,1313.19 1399.11,1314.47 1400.76,1315.71 1402.4,1316.93 1404.04,1318.12 1405.69,1319.29 1407.33,1320.44 1408.98,1321.58 1410.62,1322.7 1412.27,1323.8 1413.91,1324.88 1415.55,1325.95 1417.2,1327 1418.84,1328.03 1420.49,1329.04 1422.13,1330.03 1423.78,1331.01 1425.42,1331.97 1427.06,1332.91 1428.71,1333.84 1430.35,1334.74 1432,1335.63 1433.64,1336.51 1435.28,1337.36 1436.93,1338.2 1438.57,99.524 1440.22,122.398 1441.86,144.863 1443.51,166.927 1445.15,188.597 1446.79,209.886 1448.44,230.798 1450.08,251.329 1451.73,271.5 1453.37,291.318 1455.02,310.783 1456.66,329.892 1458.3,348.655 1459.95,367.099 1461.59,385.223 1463.24,403.028 1464.88,420.514 1466.52,437.68 1468.17,454.516 1469.81,471.063 1471.46,487.331 1473.1,503.32 1474.75,519.032 1476.39,534.464 1478.03,549.618 1479.68,564.493 1481.32,579.082 1482.97,593.398 1484.61,607.477 1486.26,621.321 1487.9,634.929 1489.54,648.302 1491.19,661.438 1492.83,674.339 1494.48,687.004 1496.12,699.433 1497.76,711.616 1499.41,723.571 1501.05,735.331 1502.7,746.896 1504.34,758.267 1505.99,769.442 1507.63,780.423 1509.27,791.209 1510.92,801.801 1512.56,812.197 1514.21,822.399 1515.85,832.4 1517.5,842.189 1519.14,851.824 1520.78,861.305 1522.43,870.632 1524.07,879.804 1525.72,888.822 1527.36,897.686 1529,906.396 1530.65,914.951 1532.29,923.352 1533.94,931.599 1535.58,939.692 1537.23,947.63 1538.87,955.414 1540.51,963.025 1542.16,970.506 1543.8,977.868 1545.45,985.111 1547.09,992.236 1548.74,999.241 1550.38,1006.13 1552.02,1012.9 1553.67,1019.54 1555.31,1026.07 1556.96,1032.48 1558.6,1038.78 1560.24,1044.95 1561.89,1051 1563.53,1056.93 1565.18,1062.73 1566.82,1068.44 1568.47,1074.06 1570.11,1079.59 1571.75,1085.04 1573.4,1090.39 1575.04,1095.65 1576.69,1100.82 1578.33,1105.9 1579.98,1110.89 1581.62,1115.8 1583.26,1120.61 1584.91,1125.33 1586.55,1129.96 1588.2,1134.51 1589.84,1138.96 1591.48,1143.31 1593.13,1147.58 1594.77,1151.78 1596.42,1155.92 1598.06,1160 1599.71,1164.01 1601.35,1167.95 1602.99,1171.82 1604.64,1175.64 1606.28,1179.38 1607.93,1183.06 1609.57,1186.67 1611.22,1190.22 1612.86,1193.7 1614.5,1197.12 1616.15,1200.47 1617.79,1203.75 1619.44,1206.97 1621.08,1210.1 1622.72,1213.18 1624.37,1216.22 1626.01,1219.21 1627.66,1222.15 1629.3,1225.05 1630.95,1227.9 1632.59,1230.7 1634.23,1233.46 1635.88,1236.17 1637.52,1238.84 1639.17,1241.46 1640.81,1244.03 1642.46,1246.56 1644.1,1249.04 1645.74,1251.47 1647.39,1253.85 1649.03,1256.19 1650.68,1258.49 1652.32,1260.74 1653.96,1262.93 1655.61,1265.07 1657.25,1267.18 1658.9,1269.26 1660.54,1271.3 1662.19,1273.32 1663.83,1275.3 1665.47,1277.25 1667.12,1279.17 1668.76,1281.06 1670.41,1282.92 1672.05,1284.75 1673.7,1286.54 1675.34,1288.31 1676.98,1290.04 1678.63,1291.74 1680.27,1293.41 1681.92,1295.05 1683.56,1296.65 1685.21,1298.23 1686.85,1299.77 1688.49,1301.29 1690.14,1302.77 1691.78,1304.21 1693.43,1305.62 1695.07,1307.01 1696.71,1308.38 1698.36,1309.73 1700,1311.05 1701.65,1312.36 1703.29,1313.65 1704.94,1314.92 1706.58,1316.17 1708.22,1317.4 1709.87,1318.6 1711.51,1319.79 1713.16,1320.96 1714.8,1322.1 1716.45,1323.23 1718.09,1324.34 1719.73,1325.42 1721.38,1326.49 1723.02,1327.53 1724.67,1328.56 1726.31,1329.56 1727.95,1330.55 1729.6,1331.51 1731.24,1332.46 1732.89,1333.38 1734.53,1334.29 1736.18,1335.18 1737.82,1336.05 1739.46,1336.91 1741.11,1337.75 1742.75,86.1857 1744.4,109.295 1746.04,131.995 1747.69,154.288 1749.33,176.184 1750.97,197.693 1752.62,218.813 1754.26,239.563 1755.91,259.951 1757.55,279.977 1759.19,299.64 1760.84,318.946 1762.48,337.917 1764.13,356.55 1765.77,374.843 1767.42,392.797 1769.06,410.451 1770.7,427.806 1772.35,444.86 1773.99,461.613 1775.64,478.067 1777.28,494.221 1778.93,510.075 1780.57,525.622 1782.21,540.908 1783.86,555.934 1785.5,570.701 1787.15,585.209 1788.79,599.458 1790.43,613.448 1792.08,627.178 1793.72,640.631 1795.37,653.86 1797.01,666.871 1798.66,679.663 1800.3,692.237 1801.94,704.593 1803.59,716.73 1805.23,728.649 1806.88,740.349 1808.52,751.831 1810.17,763.09 1811.81,774.125 1813.45,784.981 1815.1,795.659 1816.74,806.158 1818.39,816.478 1820.03,826.619 1821.67,836.582 1823.32,846.366 1824.96,855.971 1826.61,865.397 1828.25,874.645 1829.9,883.689 1831.54,892.574 1833.18,901.32 1834.83,909.925 1836.47,918.39 1838.12,926.715 1839.76,934.901 1841.41,942.946 1843.05,950.851 1844.69,958.616 1846.34,966.241 1847.98,973.726 1849.63,981.071 1851.27,988.275 1852.91,995.34 1854.56,1002.25 1856.2,1009.03 1857.85,1015.71 1859.49,1022.27 1861.14,1028.73 1862.78,1035.08 1864.42,1041.33 1866.07,1047.46 1867.71,1053.49 1869.36,1059.41 1871,1065.22 1872.65,1070.93 1874.29,1076.53 1875.93,1082.02 1877.58,1087.39 1879.22,1092.65 1880.87,1097.82 1882.51,1102.92 1884.15,1107.94 1885.8,1112.87 1887.44,1117.72 1889.09,1122.5 1890.73,1127.19 1892.38,1131.8 1894.02,1136.33 1895.66,1140.79 1897.31,1145.16 1898.95,1149.44 1900.6,1153.65 1902.24,1157.78 1903.89,1161.83 1905.53,1165.79 1907.17,1169.66 1908.82,1173.47 1910.46,1177.21 1912.11,1180.9 1913.75,1184.53 1915.39,1188.1 1917.04,1191.61 1918.68,1195.06 1920.33,1198.46 1921.97,1201.79 1923.62,1205.07 1925.26,1208.29 1926.9,1211.45 1928.55,1214.55 1930.19,1217.59 1931.84,1220.58 1933.48,1223.5 1935.13,1226.37 1936.77,1229.17 1938.41,1231.91 1940.06,1234.61 1941.7,1237.27 1943.35,1239.89 1944.99,1242.46 1946.64,1245 1948.28,1247.5 1949.92,1249.95 1951.57,1252.37 1953.21,1254.74 1954.86,1257.08 1956.5,1259.37 1958.14,1261.62 1959.79,1263.83 1961.43,1266.01 1963.08,1268.14 1964.72,1270.23 1966.37,1272.28 1968.01,1274.28 1969.65,1276.25 1971.3,1278.18 1972.94,1280.05 1974.59,1281.89 1976.23,1283.7 1977.88,1285.49 1979.52,1287.25 1981.16,1288.98 1982.81,1290.69 1984.45,1292.37 1986.1,1294.02 1987.74,1295.64 1989.38,1297.24 1991.03,1298.81 1992.67,1300.35 1994.32,1301.87 1995.96,1303.35 1997.61,1304.82 1999.25,1306.25 2000.89,1307.66 2002.54,1309.04 2004.18,1310.39 2005.83,1311.72 2007.47,1313.02 2009.12,1314.29 2010.76,1315.52 2012.4,1316.73 2014.05,1317.92 2015.69,1319.1 2017.34,1320.26 2018.98,1321.4 2020.62,1322.52 2022.27,1323.63 2023.91,1324.72 2025.56,1325.79 2027.2,1326.84 2028.85,1327.88 2030.49,1328.9 2032.13,1329.9 2033.78,1330.89 2035.42,1331.86 2037.07,1332.81 2038.71,1333.74 2040.36,1334.66 2042,1335.56 2043.64,1336.44 2045.29,1337.31 2046.93,1338.16 2048.58,1338.99 2050.22,1339.8 2051.86,1340.6 2053.51,1341.38 2055.15,1342.14 2056.8,1342.87 2058.44,1343.6 2060.09,1344.32 2061.73,1345.03 2063.37,1345.73 2065.02,1346.42 2066.66,1347.09 2068.31,1347.76 2069.95,1348.42 2071.6,1349.06 2073.24,1349.7 2074.88,1350.33 2076.53,1350.94 2078.17,1351.55 2079.82,1352.14 2081.46,1352.73 2083.1,1353.3 2084.75,1353.87 2086.39,1354.42 2088.04,1354.97 2089.68,1355.5 2091.33,1356.02 2092.97,1356.54 2094.61,1357.04 2096.26,1357.53 2097.9,1358.01 2099.55,1358.49 2101.19,1358.95 2102.84,1359.4 2104.48,1359.83 2106.12,1360.26 2107.77,1360.68 2109.41,1361.1 2111.06,1361.51 2112.7,1361.91 2114.34,1362.31 2115.99,1362.7 2117.63,1363.09 2119.28,1363.47 2120.92,1363.84 2122.57,1364.21 2124.21,1364.58 2125.85,1364.93 2127.5,1365.29 2129.14,1365.63 2130.79,1365.97 2132.43,1366.31 2134.08,1366.64 2135.72,1366.96 2137.36,1367.28 2139.01,1367.59 2140.65,1367.9 2142.3,1368.2 2143.94,1368.5 2145.58,1368.79 2147.23,1369.07 2148.87,1369.35 2150.52,1369.62 2152.16,1369.89 2153.81,1370.15 2155.45,1370.41 2157.09,1370.66 2158.74,1370.9 2160.38,1371.14 2162.03,1371.37 2163.67,1371.59 2165.32,1371.81 2166.96,1372.03 2168.6,1372.24 2170.25,1372.45 2171.89,1372.66 2173.54,1372.87 2175.18,1373.07 2176.83,1373.27 2178.47,1373.47 2180.11,1373.67 2181.76,1373.86 2183.4,1374.05 2185.05,1374.23 2186.69,1374.42 2188.33,1374.6 2189.98,1374.78 2191.62,1374.95 2193.27,1375.12 2194.91,1375.29 2196.56,1375.46 2198.2,1375.62 2199.84,1375.78 2201.49,1375.94 2203.13,1376.1 2204.78,1376.25 2206.42,1376.4 2208.07,1376.54 2209.71,1376.69 2211.35,1376.83 2213,1376.97 2214.64,1377.1 2216.29,1377.23 2217.93,1377.36 2219.57,1377.49 2221.22,1377.61 2222.86,1377.73 2224.51,1377.85 2226.15,1377.97 2227.8,1378.08 2229.44,1378.18 2231.08,1378.29 2232.73,1378.39 2234.37,1378.49 2236.02,1378.59 2237.66,1378.69 2239.31,1378.79 2240.95,1378.88 2242.59,1378.98 2244.24,1379.07 2245.88,1379.17 2247.53,1379.26 2249.17,1379.35 2250.81,1379.44 2252.46,1379.52 2254.1,1379.61 2255.75,1379.7 2257.39,1379.78 2259.04,1379.86 2260.68,1379.94 2262.32,1380.02 2263.97,1380.1 2265.61,1380.18 2267.26,1380.26 2268.9,1380.33 2270.55,1380.41 2272.19,1380.48 2273.83,1380.55 2275.48,1380.62 2277.12,1380.69 2278.77,1380.76 2280.41,1380.83 2282.05,1380.89 2283.7,1380.96 2285.34,1381.02 2286.99,1381.08 2288.63,1381.14 2290.28,1381.2 2291.92,1381.26 2293.56,1381.32 2295.21,1381.37 2296.85,1381.43 2298.5,1381.48 2300.14,1381.53 2301.79,1381.58 2303.43,1381.63 2305.07,1381.68 2306.72,1381.73 2308.36,1381.77 2310.01,1381.82 2311.65,1381.86 2313.29,1381.9 2314.94,1381.94 2316.58,1381.98 2318.23,1382.02 2319.87,1382.06 2321.52,1382.1 2323.16,1382.14 2324.8,1382.18 2326.45,1382.21 2328.09,1382.25 2329.74,1382.29 2331.38,1382.32 2333.03,1382.36 2334.67,1382.39 2336.31,1382.42 2337.96,1382.46 2339.6,1382.49 2341.25,1382.52 2342.89,1382.55 2344.53,1382.58 2346.18,1382.61 2347.82,1382.64 2349.47,1382.67 2351.11,1382.7 2352.76,1382.73 "/>
<path clip-path="url(#clip400)" d="M1960.29 196.789 L2281.56 196.789 L2281.56 93.1086 L1960.29 93.1086  Z" fill="#ffffff" fill-rule="evenodd" fill-opacity="1"/>
<polyline clip-path="url(#clip400)" style="stroke:#000000; stroke-linecap:round; stroke-linejoin:round; stroke-width:4; stroke-opacity:1; fill:none" points="1960.29,196.789 2281.56,196.789 2281.56,93.1086 1960.29,93.1086 1960.29,196.789 "/>
<polyline clip-path="url(#clip400)" style="stroke:#009af9; stroke-linecap:round; stroke-linejoin:round; stroke-width:4; stroke-opacity:1; fill:none" points="1984.02,144.949 2126.41,144.949 "/>
<path clip-path="url(#clip400)" d="M2150.15 151.997 L2150.15 136.303 L2154.4 136.303 L2154.4 151.835 Q2154.4 155.516 2155.84 157.368 Q2157.27 159.196 2160.15 159.196 Q2163.59 159.196 2165.59 156.997 Q2167.6 154.798 2167.6 151.002 L2167.6 136.303 L2171.86 136.303 L2171.86 162.229 L2167.6 162.229 L2167.6 158.247 Q2166.05 160.608 2163.99 161.766 Q2161.95 162.9 2159.24 162.9 Q2154.77 162.9 2152.46 160.122 Q2150.15 157.344 2150.15 151.997 M2160.86 135.678 L2160.86 135.678 Z" fill="#000000" fill-rule="nonzero" fill-opacity="1" /><path clip-path="url(#clip400)" d="M2180.05 127.669 L2202.27 127.669 L2202.27 129.659 L2189.73 162.229 L2184.84 162.229 L2196.65 131.604 L2180.05 131.604 L2180.05 127.669 Z" fill="#000000" fill-rule="nonzero" fill-opacity="1" /><path clip-path="url(#clip400)" d="M2221.02 126.257 Q2217.92 131.581 2216.42 136.789 Q2214.91 141.997 2214.91 147.344 Q2214.91 152.692 2216.42 157.946 Q2217.95 163.178 2221.02 168.479 L2217.32 168.479 Q2213.85 163.039 2212.11 157.784 Q2210.4 152.53 2210.4 147.344 Q2210.4 142.182 2212.11 136.951 Q2213.83 131.72 2217.32 126.257 L2221.02 126.257 Z" fill="#000000" fill-rule="nonzero" fill-opacity="1" /><path clip-path="url(#clip400)" d="M2233.5 128.942 L2233.5 136.303 L2242.27 136.303 L2242.27 139.613 L2233.5 139.613 L2233.5 153.687 Q2233.5 156.858 2234.36 157.761 Q2235.24 158.664 2237.9 158.664 L2242.27 158.664 L2242.27 162.229 L2237.9 162.229 Q2232.97 162.229 2231.09 160.4 Q2229.22 158.548 2229.22 153.687 L2229.22 139.613 L2226.09 139.613 L2226.09 136.303 L2229.22 136.303 L2229.22 128.942 L2233.5 128.942 Z" fill="#000000" fill-rule="nonzero" fill-opacity="1" /><path clip-path="url(#clip400)" d="M2247.21 126.257 L2250.91 126.257 Q2254.38 131.72 2256.09 136.951 Q2257.83 142.182 2257.83 147.344 Q2257.83 152.53 2256.09 157.784 Q2254.38 163.039 2250.91 168.479 L2247.21 168.479 Q2250.28 163.178 2251.79 157.946 Q2253.32 152.692 2253.32 147.344 Q2253.32 141.997 2251.79 136.789 Q2250.28 131.581 2247.21 126.257 Z" fill="#000000" fill-rule="nonzero" fill-opacity="1" /></svg>
