<?xml version="1.0" encoding="utf-8"?>
<svg xmlns="http://www.w3.org/2000/svg" xmlns:xlink="http://www.w3.org/1999/xlink" width="600" height="400" viewBox="0 0 2400 1600">
<defs>
  <clipPath id="clip830">
    <rect x="0" y="0" width="2400" height="1600"/>
  </clipPath>
</defs>
<path clip-path="url(#clip830)" d="M0 1600 L2400 1600 L2400 0 L0 0  Z" fill="#ffffff" fill-rule="evenodd" fill-opacity="1"/>
<defs>
  <clipPath id="clip831">
    <rect x="186" y="47" width="2167" height="1377"/>
  </clipPath>
</defs>
<path clip-path="url(#clip830)" d="M186.274 1423.18 L2352.76 1423.18 L2352.76 47.2441 L186.274 47.2441  Z" fill="#ffffff" fill-rule="evenodd" fill-opacity="1"/>
<polyline clip-path="url(#clip831)" style="stroke:#000000; stroke-linecap:round; stroke-linejoin:round; stroke-width:2; stroke-opacity:0.1; fill:none" points="186.274,1423.18 186.274,47.2441 "/>
<polyline clip-path="url(#clip831)" style="stroke:#000000; stroke-linecap:round; stroke-linejoin:round; stroke-width:2; stroke-opacity:0.1; fill:none" points="619.57,1423.18 619.57,47.2441 "/>
<polyline clip-path="url(#clip831)" style="stroke:#000000; stroke-linecap:round; stroke-linejoin:round; stroke-width:2; stroke-opacity:0.1; fill:none" points="1052.87,1423.18 1052.87,47.2441 "/>
<polyline clip-path="url(#clip831)" style="stroke:#000000; stroke-linecap:round; stroke-linejoin:round; stroke-width:2; stroke-opacity:0.1; fill:none" points="1486.16,1423.18 1486.16,47.2441 "/>
<polyline clip-path="url(#clip831)" style="stroke:#000000; stroke-linecap:round; stroke-linejoin:round; stroke-width:2; stroke-opacity:0.1; fill:none" points="1919.46,1423.18 1919.46,47.2441 "/>
<polyline clip-path="url(#clip831)" style="stroke:#000000; stroke-linecap:round; stroke-linejoin:round; stroke-width:2; stroke-opacity:0.1; fill:none" points="2352.76,1423.18 2352.76,47.2441 "/>
<polyline clip-path="url(#clip831)" style="stroke:#000000; stroke-linecap:round; stroke-linejoin:round; stroke-width:2; stroke-opacity:0.1; fill:none" points="186.274,1389.56 2352.76,1389.56 "/>
<polyline clip-path="url(#clip831)" style="stroke:#000000; stroke-linecap:round; stroke-linejoin:round; stroke-width:2; stroke-opacity:0.1; fill:none" points="186.274,1100.2 2352.76,1100.2 "/>
<polyline clip-path="url(#clip831)" style="stroke:#000000; stroke-linecap:round; stroke-linejoin:round; stroke-width:2; stroke-opacity:0.1; fill:none" points="186.274,810.839 2352.76,810.839 "/>
<polyline clip-path="url(#clip831)" style="stroke:#000000; stroke-linecap:round; stroke-linejoin:round; stroke-width:2; stroke-opacity:0.1; fill:none" points="186.274,521.48 2352.76,521.48 "/>
<polyline clip-path="url(#clip831)" style="stroke:#000000; stroke-linecap:round; stroke-linejoin:round; stroke-width:2; stroke-opacity:0.1; fill:none" points="186.274,232.122 2352.76,232.122 "/>
<polyline clip-path="url(#clip830)" style="stroke:#000000; stroke-linecap:round; stroke-linejoin:round; stroke-width:4; stroke-opacity:1; fill:none" points="186.274,1423.18 2352.76,1423.18 "/>
<polyline clip-path="url(#clip830)" style="stroke:#000000; stroke-linecap:round; stroke-linejoin:round; stroke-width:4; stroke-opacity:1; fill:none" points="186.274,1423.18 186.274,1404.28 "/>
<polyline clip-path="url(#clip830)" style="stroke:#000000; stroke-linecap:round; stroke-linejoin:round; stroke-width:4; stroke-opacity:1; fill:none" points="619.57,1423.18 619.57,1404.28 "/>
<polyline clip-path="url(#clip830)" style="stroke:#000000; stroke-linecap:round; stroke-linejoin:round; stroke-width:4; stroke-opacity:1; fill:none" points="1052.87,1423.18 1052.87,1404.28 "/>
<polyline clip-path="url(#clip830)" style="stroke:#000000; stroke-linecap:round; stroke-linejoin:round; stroke-width:4; stroke-opacity:1; fill:none" points="1486.16,1423.18 1486.16,1404.28 "/>
<polyline clip-path="url(#clip830)" style="stroke:#000000; stroke-linecap:round; stroke-linejoin:round; stroke-width:4; stroke-opacity:1; fill:none" points="1919.46,1423.18 1919.46,1404.28 "/>
<polyline clip-path="url(#clip830)" style="stroke:#000000; stroke-linecap:round; stroke-linejoin:round; stroke-width:4; stroke-opacity:1; fill:none" points="2352.76,1423.18 2352.76,1404.28 "/>
<path clip-path="url(#clip830)" d="M186.274 1454.1 Q182.663 1454.1 180.834 1457.66 Q179.029 1461.2 179.029 1468.33 Q179.029 1475.44 180.834 1479.01 Q182.663 1482.55 186.274 1482.55 Q189.908 1482.55 191.714 1479.01 Q193.542 1475.44 193.542 1468.33 Q193.542 1461.2 191.714 1457.66 Q189.908 1454.1 186.274 1454.1 M186.274 1450.39 Q192.084 1450.39 195.14 1455 Q198.218 1459.58 198.218 1468.33 Q198.218 1477.06 195.14 1481.67 Q192.084 1486.25 186.274 1486.25 Q180.464 1486.25 177.385 1481.67 Q174.33 1477.06 174.33 1468.33 Q174.33 1459.58 177.385 1455 Q180.464 1450.39 186.274 1450.39 Z" fill="#000000" fill-rule="nonzero" fill-opacity="1" /><path clip-path="url(#clip830)" d="M609.952 1481.64 L617.591 1481.64 L617.591 1455.28 L609.281 1456.95 L609.281 1452.69 L617.545 1451.02 L622.221 1451.02 L622.221 1481.64 L629.86 1481.64 L629.86 1485.58 L609.952 1485.58 L609.952 1481.64 Z" fill="#000000" fill-rule="nonzero" fill-opacity="1" /><path clip-path="url(#clip830)" d="M1047.52 1481.64 L1063.84 1481.64 L1063.84 1485.58 L1041.89 1485.58 L1041.89 1481.64 Q1044.56 1478.89 1049.14 1474.26 Q1053.75 1469.61 1054.93 1468.27 Q1057.17 1465.74 1058.05 1464.01 Q1058.95 1462.25 1058.95 1460.56 Q1058.95 1457.8 1057.01 1456.07 Q1055.09 1454.33 1051.99 1454.33 Q1049.79 1454.33 1047.33 1455.09 Q1044.9 1455.86 1042.13 1457.41 L1042.13 1452.69 Q1044.95 1451.55 1047.4 1450.97 Q1049.86 1450.39 1051.89 1450.39 Q1057.26 1450.39 1060.46 1453.08 Q1063.65 1455.77 1063.65 1460.26 Q1063.65 1462.39 1062.84 1464.31 Q1062.06 1466.2 1059.95 1468.8 Q1059.37 1469.47 1056.27 1472.69 Q1053.17 1475.88 1047.52 1481.64 Z" fill="#000000" fill-rule="nonzero" fill-opacity="1" /><path clip-path="url(#clip830)" d="M1490.41 1466.95 Q1493.77 1467.66 1495.64 1469.93 Q1497.54 1472.2 1497.54 1475.53 Q1497.54 1480.65 1494.02 1483.45 Q1490.5 1486.25 1484.02 1486.25 Q1481.85 1486.25 1479.53 1485.81 Q1477.24 1485.39 1474.79 1484.54 L1474.79 1480.02 Q1476.73 1481.16 1479.05 1481.74 Q1481.36 1482.32 1483.88 1482.32 Q1488.28 1482.32 1490.57 1480.58 Q1492.89 1478.84 1492.89 1475.53 Q1492.89 1472.48 1490.73 1470.77 Q1488.61 1469.03 1484.79 1469.03 L1480.76 1469.03 L1480.76 1465.19 L1484.97 1465.19 Q1488.42 1465.19 1490.25 1463.82 Q1492.08 1462.43 1492.08 1459.84 Q1492.08 1457.18 1490.18 1455.77 Q1488.3 1454.33 1484.79 1454.33 Q1482.86 1454.33 1480.67 1454.75 Q1478.47 1455.16 1475.83 1456.04 L1475.83 1451.88 Q1478.49 1451.14 1480.8 1450.77 Q1483.14 1450.39 1485.2 1450.39 Q1490.53 1450.39 1493.63 1452.83 Q1496.73 1455.23 1496.73 1459.35 Q1496.73 1462.22 1495.09 1464.21 Q1493.44 1466.18 1490.41 1466.95 Z" fill="#000000" fill-rule="nonzero" fill-opacity="1" /><path clip-path="url(#clip830)" d="M1922.47 1455.09 L1910.66 1473.54 L1922.47 1473.54 L1922.47 1455.09 M1921.24 1451.02 L1927.12 1451.02 L1927.12 1473.54 L1932.05 1473.54 L1932.05 1477.43 L1927.12 1477.43 L1927.12 1485.58 L1922.47 1485.58 L1922.47 1477.43 L1906.87 1477.43 L1906.87 1472.92 L1921.24 1451.02 Z" fill="#000000" fill-rule="nonzero" fill-opacity="1" /><path clip-path="url(#clip830)" d="M2343.03 1451.02 L2361.39 1451.02 L2361.39 1454.96 L2347.32 1454.96 L2347.32 1463.43 Q2348.33 1463.08 2349.35 1462.92 Q2350.37 1462.73 2351.39 1462.73 Q2357.18 1462.73 2360.56 1465.9 Q2363.94 1469.08 2363.94 1474.49 Q2363.94 1480.07 2360.46 1483.17 Q2356.99 1486.25 2350.67 1486.25 Q2348.5 1486.25 2346.23 1485.88 Q2343.98 1485.51 2341.58 1484.77 L2341.58 1480.07 Q2343.66 1481.2 2345.88 1481.76 Q2348.1 1482.32 2350.58 1482.32 Q2354.58 1482.32 2356.92 1480.21 Q2359.26 1478.1 2359.26 1474.49 Q2359.26 1470.88 2356.92 1468.77 Q2354.58 1466.67 2350.58 1466.67 Q2348.71 1466.67 2346.83 1467.08 Q2344.98 1467.5 2343.03 1468.38 L2343.03 1451.02 Z" fill="#000000" fill-rule="nonzero" fill-opacity="1" /><path clip-path="url(#clip830)" d="M1268.58 1522.27 L1268.58 1532.4 L1280.64 1532.4 L1280.64 1536.95 L1268.58 1536.95 L1268.58 1556.3 Q1268.58 1560.66 1269.75 1561.9 Q1270.96 1563.14 1274.62 1563.14 L1280.64 1563.14 L1280.64 1568.04 L1274.62 1568.04 Q1267.84 1568.04 1265.27 1565.53 Q1262.69 1562.98 1262.69 1556.3 L1262.69 1536.95 L1258.39 1536.95 L1258.39 1532.4 L1262.69 1532.4 L1262.69 1522.27 L1268.58 1522.27 Z" fill="#000000" fill-rule="nonzero" fill-opacity="1" /><polyline clip-path="url(#clip830)" style="stroke:#000000; stroke-linecap:round; stroke-linejoin:round; stroke-width:4; stroke-opacity:1; fill:none" points="186.274,1423.18 186.274,47.2441 "/>
<polyline clip-path="url(#clip830)" style="stroke:#000000; stroke-linecap:round; stroke-linejoin:round; stroke-width:4; stroke-opacity:1; fill:none" points="186.274,1389.56 205.172,1389.56 "/>
<polyline clip-path="url(#clip830)" style="stroke:#000000; stroke-linecap:round; stroke-linejoin:round; stroke-width:4; stroke-opacity:1; fill:none" points="186.274,1100.2 205.172,1100.2 "/>
<polyline clip-path="url(#clip830)" style="stroke:#000000; stroke-linecap:round; stroke-linejoin:round; stroke-width:4; stroke-opacity:1; fill:none" points="186.274,810.839 205.172,810.839 "/>
<polyline clip-path="url(#clip830)" style="stroke:#000000; stroke-linecap:round; stroke-linejoin:round; stroke-width:4; stroke-opacity:1; fill:none" points="186.274,521.48 205.172,521.48 "/>
<polyline clip-path="url(#clip830)" style="stroke:#000000; stroke-linecap:round; stroke-linejoin:round; stroke-width:4; stroke-opacity:1; fill:none" points="186.274,232.122 205.172,232.122 "/>
<path clip-path="url(#clip830)" d="M62.9365 1375.35 Q59.3254 1375.35 57.4967 1378.92 Q55.6912 1382.46 55.6912 1389.59 Q55.6912 1396.7 57.4967 1400.26 Q59.3254 1403.8 62.9365 1403.8 Q66.5707 1403.8 68.3763 1400.26 Q70.205 1396.7 70.205 1389.59 Q70.205 1382.46 68.3763 1378.92 Q66.5707 1375.35 62.9365 1375.35 M62.9365 1371.65 Q68.7467 1371.65 71.8022 1376.26 Q74.8809 1380.84 74.8809 1389.59 Q74.8809 1398.32 71.8022 1402.92 Q68.7467 1407.51 62.9365 1407.51 Q57.1264 1407.51 54.0477 1402.92 Q50.9921 1398.32 50.9921 1389.59 Q50.9921 1380.84 54.0477 1376.26 Q57.1264 1371.65 62.9365 1371.65 Z" fill="#000000" fill-rule="nonzero" fill-opacity="1" /><path clip-path="url(#clip830)" d="M83.0984 1400.96 L87.9827 1400.96 L87.9827 1406.84 L83.0984 1406.84 L83.0984 1400.96 Z" fill="#000000" fill-rule="nonzero" fill-opacity="1" /><path clip-path="url(#clip830)" d="M108.168 1375.35 Q104.557 1375.35 102.728 1378.92 Q100.922 1382.46 100.922 1389.59 Q100.922 1396.7 102.728 1400.26 Q104.557 1403.8 108.168 1403.8 Q111.802 1403.8 113.608 1400.26 Q115.436 1396.7 115.436 1389.59 Q115.436 1382.46 113.608 1378.92 Q111.802 1375.35 108.168 1375.35 M108.168 1371.65 Q113.978 1371.65 117.033 1376.26 Q120.112 1380.84 120.112 1389.59 Q120.112 1398.32 117.033 1402.92 Q113.978 1407.51 108.168 1407.51 Q102.358 1407.51 99.2789 1402.92 Q96.2234 1398.32 96.2234 1389.59 Q96.2234 1380.84 99.2789 1376.26 Q102.358 1371.65 108.168 1371.65 Z" fill="#000000" fill-rule="nonzero" fill-opacity="1" /><path clip-path="url(#clip830)" d="M138.33 1375.35 Q134.719 1375.35 132.89 1378.92 Q131.084 1382.46 131.084 1389.59 Q131.084 1396.7 132.89 1400.26 Q134.719 1403.8 138.33 1403.8 Q141.964 1403.8 143.769 1400.26 Q145.598 1396.7 145.598 1389.59 Q145.598 1382.46 143.769 1378.92 Q141.964 1375.35 138.33 1375.35 M138.33 1371.65 Q144.14 1371.65 147.195 1376.26 Q150.274 1380.84 150.274 1389.59 Q150.274 1398.32 147.195 1402.92 Q144.14 1407.51 138.33 1407.51 Q132.519 1407.51 129.441 1402.92 Q126.385 1398.32 126.385 1389.59 Q126.385 1380.84 129.441 1376.26 Q132.519 1371.65 138.33 1371.65 Z" fill="#000000" fill-rule="nonzero" fill-opacity="1" /><path clip-path="url(#clip830)" d="M63.9319 1086 Q60.3208 1086 58.4921 1089.56 Q56.6865 1093.1 56.6865 1100.23 Q56.6865 1107.34 58.4921 1110.9 Q60.3208 1114.44 63.9319 1114.44 Q67.5661 1114.44 69.3717 1110.9 Q71.2004 1107.34 71.2004 1100.23 Q71.2004 1093.1 69.3717 1089.56 Q67.5661 1086 63.9319 1086 M63.9319 1082.29 Q69.742 1082.29 72.7976 1086.9 Q75.8763 1091.48 75.8763 1100.23 Q75.8763 1108.96 72.7976 1113.57 Q69.742 1118.15 63.9319 1118.15 Q58.1217 1118.15 55.043 1113.57 Q51.9875 1108.96 51.9875 1100.23 Q51.9875 1091.48 55.043 1086.9 Q58.1217 1082.29 63.9319 1082.29 Z" fill="#000000" fill-rule="nonzero" fill-opacity="1" /><path clip-path="url(#clip830)" d="M84.0938 1111.6 L88.978 1111.6 L88.978 1117.48 L84.0938 1117.48 L84.0938 1111.6 Z" fill="#000000" fill-rule="nonzero" fill-opacity="1" /><path clip-path="url(#clip830)" d="M103.191 1113.54 L119.51 1113.54 L119.51 1117.48 L97.566 1117.48 L97.566 1113.54 Q100.228 1110.79 104.811 1106.16 Q109.418 1101.5 110.598 1100.16 Q112.844 1097.64 113.723 1095.9 Q114.626 1094.14 114.626 1092.45 Q114.626 1089.7 112.682 1087.96 Q110.76 1086.23 107.658 1086.23 Q105.459 1086.23 103.006 1086.99 Q100.575 1087.75 97.7974 1089.31 L97.7974 1084.58 Q100.621 1083.45 103.075 1082.87 Q105.529 1082.29 107.566 1082.29 Q112.936 1082.29 116.131 1084.98 Q119.325 1087.66 119.325 1092.15 Q119.325 1094.28 118.515 1096.2 Q117.728 1098.1 115.621 1100.69 Q115.043 1101.37 111.941 1104.58 Q108.839 1107.78 103.191 1113.54 Z" fill="#000000" fill-rule="nonzero" fill-opacity="1" /><path clip-path="url(#clip830)" d="M129.371 1082.92 L147.728 1082.92 L147.728 1086.85 L133.654 1086.85 L133.654 1095.32 Q134.672 1094.98 135.691 1094.82 Q136.709 1094.63 137.728 1094.63 Q143.515 1094.63 146.894 1097.8 Q150.274 1100.97 150.274 1106.39 Q150.274 1111.97 146.802 1115.07 Q143.33 1118.15 137.01 1118.15 Q134.834 1118.15 132.566 1117.78 Q130.32 1117.41 127.913 1116.67 L127.913 1111.97 Q129.996 1113.1 132.219 1113.66 Q134.441 1114.21 136.918 1114.21 Q140.922 1114.21 143.26 1112.11 Q145.598 1110 145.598 1106.39 Q145.598 1102.78 143.26 1100.67 Q140.922 1098.57 136.918 1098.57 Q135.043 1098.57 133.168 1098.98 Q131.316 1099.4 129.371 1100.28 L129.371 1082.92 Z" fill="#000000" fill-rule="nonzero" fill-opacity="1" /><path clip-path="url(#clip830)" d="M62.9365 796.637 Q59.3254 796.637 57.4967 800.202 Q55.6912 803.744 55.6912 810.873 Q55.6912 817.98 57.4967 821.545 Q59.3254 825.086 62.9365 825.086 Q66.5707 825.086 68.3763 821.545 Q70.205 817.98 70.205 810.873 Q70.205 803.744 68.3763 800.202 Q66.5707 796.637 62.9365 796.637 M62.9365 792.934 Q68.7467 792.934 71.8022 797.54 Q74.8809 802.123 74.8809 810.873 Q74.8809 819.6 71.8022 824.207 Q68.7467 828.79 62.9365 828.79 Q57.1264 828.79 54.0477 824.207 Q50.9921 819.6 50.9921 810.873 Q50.9921 802.123 54.0477 797.54 Q57.1264 792.934 62.9365 792.934 Z" fill="#000000" fill-rule="nonzero" fill-opacity="1" /><path clip-path="url(#clip830)" d="M83.0984 822.239 L87.9827 822.239 L87.9827 828.119 L83.0984 828.119 L83.0984 822.239 Z" fill="#000000" fill-rule="nonzero" fill-opacity="1" /><path clip-path="url(#clip830)" d="M98.2141 793.559 L116.57 793.559 L116.57 797.494 L102.496 797.494 L102.496 805.966 Q103.515 805.619 104.534 805.457 Q105.552 805.271 106.571 805.271 Q112.358 805.271 115.737 808.443 Q119.117 811.614 119.117 817.031 Q119.117 822.609 115.645 825.711 Q112.172 828.79 105.853 828.79 Q103.677 828.79 101.409 828.42 Q99.1632 828.049 96.7558 827.308 L96.7558 822.609 Q98.8391 823.744 101.061 824.299 Q103.284 824.855 105.76 824.855 Q109.765 824.855 112.103 822.748 Q114.441 820.642 114.441 817.031 Q114.441 813.42 112.103 811.313 Q109.765 809.207 105.76 809.207 Q103.885 809.207 102.01 809.623 Q100.159 810.04 98.2141 810.92 L98.2141 793.559 Z" fill="#000000" fill-rule="nonzero" fill-opacity="1" /><path clip-path="url(#clip830)" d="M138.33 796.637 Q134.719 796.637 132.89 800.202 Q131.084 803.744 131.084 810.873 Q131.084 817.98 132.89 821.545 Q134.719 825.086 138.33 825.086 Q141.964 825.086 143.769 821.545 Q145.598 817.98 145.598 810.873 Q145.598 803.744 143.769 800.202 Q141.964 796.637 138.33 796.637 M138.33 792.934 Q144.14 792.934 147.195 797.54 Q150.274 802.123 150.274 810.873 Q150.274 819.6 147.195 824.207 Q144.14 828.79 138.33 828.79 Q132.519 828.79 129.441 824.207 Q126.385 819.6 126.385 810.873 Q126.385 802.123 129.441 797.54 Q132.519 792.934 138.33 792.934 Z" fill="#000000" fill-rule="nonzero" fill-opacity="1" /><path clip-path="url(#clip830)" d="M63.9319 507.279 Q60.3208 507.279 58.4921 510.844 Q56.6865 514.385 56.6865 521.515 Q56.6865 528.621 58.4921 532.186 Q60.3208 535.728 63.9319 535.728 Q67.5661 535.728 69.3717 532.186 Q71.2004 528.621 71.2004 521.515 Q71.2004 514.385 69.3717 510.844 Q67.5661 507.279 63.9319 507.279 M63.9319 503.575 Q69.742 503.575 72.7976 508.182 Q75.8763 512.765 75.8763 521.515 Q75.8763 530.242 72.7976 534.848 Q69.742 539.431 63.9319 539.431 Q58.1217 539.431 55.043 534.848 Q51.9875 530.242 51.9875 521.515 Q51.9875 512.765 55.043 508.182 Q58.1217 503.575 63.9319 503.575 Z" fill="#000000" fill-rule="nonzero" fill-opacity="1" /><path clip-path="url(#clip830)" d="M84.0938 532.881 L88.978 532.881 L88.978 538.76 L84.0938 538.76 L84.0938 532.881 Z" fill="#000000" fill-rule="nonzero" fill-opacity="1" /><path clip-path="url(#clip830)" d="M97.9826 504.2 L120.205 504.2 L120.205 506.191 L107.658 538.76 L102.774 538.76 L114.58 508.135 L97.9826 508.135 L97.9826 504.2 Z" fill="#000000" fill-rule="nonzero" fill-opacity="1" /><path clip-path="url(#clip830)" d="M129.371 504.2 L147.728 504.2 L147.728 508.135 L133.654 508.135 L133.654 516.608 Q134.672 516.26 135.691 516.098 Q136.709 515.913 137.728 515.913 Q143.515 515.913 146.894 519.084 Q150.274 522.256 150.274 527.672 Q150.274 533.251 146.802 536.353 Q143.33 539.431 137.01 539.431 Q134.834 539.431 132.566 539.061 Q130.32 538.691 127.913 537.95 L127.913 533.251 Q129.996 534.385 132.219 534.941 Q134.441 535.496 136.918 535.496 Q140.922 535.496 143.26 533.39 Q145.598 531.283 145.598 527.672 Q145.598 524.061 143.26 521.955 Q140.922 519.848 136.918 519.848 Q135.043 519.848 133.168 520.265 Q131.316 520.682 129.371 521.561 L129.371 504.2 Z" fill="#000000" fill-rule="nonzero" fill-opacity="1" /><path clip-path="url(#clip830)" d="M53.7467 245.467 L61.3856 245.467 L61.3856 219.101 L53.0754 220.768 L53.0754 216.508 L61.3393 214.842 L66.0152 214.842 L66.0152 245.467 L73.654 245.467 L73.654 249.402 L53.7467 249.402 L53.7467 245.467 Z" fill="#000000" fill-rule="nonzero" fill-opacity="1" /><path clip-path="url(#clip830)" d="M83.0984 243.522 L87.9827 243.522 L87.9827 249.402 L83.0984 249.402 L83.0984 243.522 Z" fill="#000000" fill-rule="nonzero" fill-opacity="1" /><path clip-path="url(#clip830)" d="M108.168 217.92 Q104.557 217.92 102.728 221.485 Q100.922 225.027 100.922 232.156 Q100.922 239.263 102.728 242.828 Q104.557 246.369 108.168 246.369 Q111.802 246.369 113.608 242.828 Q115.436 239.263 115.436 232.156 Q115.436 225.027 113.608 221.485 Q111.802 217.92 108.168 217.92 M108.168 214.217 Q113.978 214.217 117.033 218.823 Q120.112 223.407 120.112 232.156 Q120.112 240.883 117.033 245.49 Q113.978 250.073 108.168 250.073 Q102.358 250.073 99.2789 245.49 Q96.2234 240.883 96.2234 232.156 Q96.2234 223.407 99.2789 218.823 Q102.358 214.217 108.168 214.217 Z" fill="#000000" fill-rule="nonzero" fill-opacity="1" /><path clip-path="url(#clip830)" d="M138.33 217.92 Q134.719 217.92 132.89 221.485 Q131.084 225.027 131.084 232.156 Q131.084 239.263 132.89 242.828 Q134.719 246.369 138.33 246.369 Q141.964 246.369 143.769 242.828 Q145.598 239.263 145.598 232.156 Q145.598 225.027 143.769 221.485 Q141.964 217.92 138.33 217.92 M138.33 214.217 Q144.14 214.217 147.195 218.823 Q150.274 223.407 150.274 232.156 Q150.274 240.883 147.195 245.49 Q144.14 250.073 138.33 250.073 Q132.519 250.073 129.441 245.49 Q126.385 240.883 126.385 232.156 Q126.385 223.407 129.441 218.823 Q132.519 214.217 138.33 214.217 Z" fill="#000000" fill-rule="nonzero" fill-opacity="1" /><polyline clip-path="url(#clip831)" style="stroke:#009af9; stroke-linecap:round; stroke-linejoin:round; stroke-width:4; stroke-opacity:1; fill:none" points="186.274,232.122 190.607,232.122 194.94,229.854 199.273,225.939 203.606,226.24 207.939,227.821 212.272,235.183 216.605,246.698 220.938,259.545 225.271,266.629 229.604,271.778 233.937,272.695 238.27,275.676 242.603,279.546 246.935,283.262 251.268,283.798 255.601,280.942 259.934,275.28 264.267,265.52 268.6,255.634 272.933,240.798 277.266,221.916 281.599,209.539 285.932,191.713 290.265,175.499 294.598,161.43 298.931,148.496 303.264,134.428 307.597,125.236 311.93,114.779 316.263,106.115 320.596,99.4434 324.929,95.4879 329.262,93.7408 333.595,88.3738 337.928,86.1857 342.261,90.1187 346.594,95.1041 350.927,95.8157 355.26,96.7418 359.593,97.1839 363.926,98.4776 368.258,98.1033 372.591,99.9719 376.924,103.8 381.257,108.136 385.59,110.079 389.923,108.117 394.256,114.965 398.589,130.23 402.922,148.892 407.255,170.007 411.588,193.271 415.921,216.613 420.254,239.069 424.587,260.127 428.92,280.865 433.253,298.823 437.586,310.858 441.919,322.457 446.252,332.984 450.585,339.531 454.918,349.416 459.251,359.068 463.584,368.093 467.917,377.87 472.25,388.093 476.583,397.297 480.916,407.974 485.249,417.608 489.581,427.025 493.914,438.076 498.247,450.41 502.58,461.527 506.913,473.53 511.246,485.278 515.579,496.771 519.912,503.664 524.245,509.722 528.578,518.481 532.911,527.306 537.244,534.076 541.577,542.088 545.91,547.268 550.243,554.014 554.576,558.514 558.909,565.976 563.242,574.526 567.575,582.633 571.908,592.587 576.241,602.957 580.574,612.358 584.907,622.701 589.24,633.138 593.573,643.833 597.906,652.42 602.239,659.888 606.571,669.225 610.904,677.226 615.237,683.918 619.57,691.403 623.903,697.19 628.236,704.698 632.569,715.211 636.902,725.379 641.235,735.735 645.568,744.442 649.901,751.817 654.234,758.208 658.567,764.459 662.9,768.687 667.233,772.381 671.566,774.737 675.899,778.091 680.232,780.441 684.565,780.714 688.898,782.116 693.231,783.636 697.564,787.16 701.897,789.827 706.23,792.621 710.563,795.419 714.896,796.382 719.229,796.626 723.562,799.621 727.894,800.404 732.227,799.741 736.56,799.568 740.893,801.488 745.226,802.494 749.559,802.058 753.892,800.514 758.225,801.418 762.558,802.832 766.891,804.23 771.224,805.222 775.557,803.589 779.89,801.538 784.223,798.787 788.556,795.516 792.889,790.803 797.222,785.918 801.555,781.236 805.888,778.459 810.221,777.467 814.554,780.215 818.887,784.571 823.22,787.371 827.553,789.412 831.886,794.301 836.219,799.363 840.552,805.754 844.885,813.349 849.217,821.541 853.55,829.345 857.883,837.509 862.216,847.563 866.549,857.748 870.882,866.906 875.215,876.908 879.548,885.916 883.881,894.35 888.214,901.599 892.547,908.176 896.88,916.41 901.213,924.11 905.546,931.631 909.879,940.215 914.212,948.612 918.545,956.87 922.878,965.211 927.211,972.982 931.544,979.777 935.877,984.811 940.21,989.01 944.543,994.927 948.876,1000.58 953.209,1005.47 957.542,1010.14 961.875,1014.09 966.207,1017.99 970.54,1022.36 974.873,1026.89 979.206,1032.19 983.539,1038.26 987.872,1044.88 992.205,1051.4 996.538,1057.71 1000.87,1063.42 1005.2,1068.69 1009.54,1074.14 1013.87,1079.44 1018.2,1084.7 1022.54,1089.94 1026.87,1095.09 1031.2,1100.32 1035.53,1105.86 1039.87,1111.3 1044.2,1116.76 1048.53,1121.94 1052.87,1127.02 1057.2,1132.11 1061.53,1136.68 1065.87,1140.97 1070.2,1144.85 1074.53,1149.07 1078.86,1153.31 1083.2,1157.64 1087.53,1162.13 1091.86,1166.48 1096.2,1170.69 1100.53,1174.93 1104.86,1179.14 1109.2,1183.18 1113.53,1187.17 1117.86,1191.15 1122.19,1195.1 1126.53,1198.67 1130.86,1202.41 1135.19,1206.15 1139.53,1209.82 1143.86,1213.4 1148.19,1216.91 1152.52,1220.27 1156.86,1223.44 1161.19,1226.62 1165.52,1229.67 1169.86,1232.41 1174.19,1235.26 1178.52,1238.03 1182.86,1240.71 1187.19,1243.45 1191.52,1246.1 1195.85,1248.8 1200.19,1251.16 1204.52,1253.33 1208.85,1255.3 1213.19,1257.26 1217.52,1258.62 1221.85,1260.15 1226.19,1261.14 1230.52,1261.56 1234.85,1261.65 1239.18,1261.18 1243.52,1260.46 1247.85,1259.44 1252.18,1258.65 1256.52,1257.87 1260.85,1257.49 1265.18,1257.21 1269.51,1256.6 1273.85,1255.82 1278.18,1255.19 1282.51,1254.58 1286.85,1253.98 1291.18,1254.11 1295.51,1253.9 1299.85,1253.68 1304.18,1253.33 1308.51,1252.94 1312.84,1253.18 1317.18,1253.55 1321.51,1253.08 1325.84,1252.92 1330.18,1252.34 1334.51,1251.98 1338.84,1251.57 1343.18,1250.51 1347.51,1249.87 1351.84,1250.07 1356.17,1249.98 1360.51,1250.68 1364.84,1251.79 1369.17,1253.1 1373.51,1254.33 1377.84,1255.32 1382.17,1255.86 1386.5,1256.31 1390.84,1256.11 1395.17,1256.26 1399.5,1255.81 1403.84,1254.82 1408.17,1254.24 1412.5,1253.2 1416.84,1252.47 1421.17,1251.11 1425.5,1249.96 1429.83,1249.17 1434.17,1248.51 1438.5,1247.79 1442.83,1246.54 1447.17,1245.07 1451.5,1244 1455.83,1243.89 1460.17,1243.09 1464.5,1241.51 1468.83,1239.97 1473.16,1239.01 1477.5,1238.36 1481.83,1237.79 1486.16,1237.46 1490.5,1236.83 1494.83,1236.49 1499.16,1236.23 1503.49,1235.83 1507.83,1235.6 1512.16,1235.17 1516.49,1234.42 1520.83,1233.85 1525.16,1234.01 1529.49,1233.76 1533.83,1233.59 1538.16,1233.64 1542.49,1233.65 1546.82,1232.6 1551.16,1231.27 1555.49,1230.12 1559.82,1228.8 1564.16,1228.06 1568.49,1227.9 1572.82,1228.25 1577.16,1228.71 1581.49,1229.56 1585.82,1231.1 1590.15,1232.25 1594.49,1233.32 1598.82,1234.52 1603.15,1235.66 1607.49,1236.88 1611.82,1238.38 1616.15,1239.85 1620.49,1241.81 1624.82,1243.63 1629.15,1245.42 1633.48,1247.41 1637.82,1249.24 1642.15,1250.83 1646.48,1252.49 1650.82,1254.08 1655.15,1256 1659.48,1257.99 1663.81,1259.96 1668.15,1262.22 1672.48,1264.33 1676.81,1266.55 1681.15,1268.81 1685.48,1271.02 1689.81,1273.12 1694.15,1275.18 1698.48,1277.05 1702.81,1278.82 1707.14,1280.42 1711.48,1282.34 1715.81,1284.43 1720.14,1286.44 1724.48,1288.4 1728.81,1290.35 1733.14,1292.28 1737.48,1294.1 1741.81,1295.89 1746.14,1297.64 1750.47,1299.14 1754.81,1300.68 1759.14,1302.37 1763.47,1304.03 1767.81,1305.6 1772.14,1307.06 1776.47,1308.26 1780.8,1309.5 1785.14,1310.56 1789.47,1311.66 1793.8,1312.9 1798.14,1314.06 1802.47,1314.97 1806.8,1315.75 1811.14,1316.61 1815.47,1317.7 1819.8,1318.75 1824.13,1319.64 1828.47,1320.47 1832.8,1321.55 1837.13,1322.52 1841.47,1323.27 1845.8,1323.64 1850.13,1323.92 1854.47,1324.32 1858.8,1324.62 1863.13,1324.94 1867.46,1325.12 1871.8,1325.44 1876.13,1325.7 1880.46,1325.89 1884.8,1325.7 1889.13,1325.41 1893.46,1325.37 1897.79,1325.31 1902.13,1325.79 1906.46,1326.27 1910.79,1326.59 1915.13,1326.91 1919.46,1327.54 1923.79,1328.27 1928.13,1329.02 1932.46,1329.77 1936.79,1330.25 1941.12,1330.9 1945.46,1331.39 1949.79,1331.91 1954.12,1332.37 1958.46,1332.64 1962.79,1333.16 1967.12,1333.5 1971.46,1333.87 1975.79,1334.29 1980.12,1334.67 1984.45,1335.03 1988.79,1335.28 1993.12,1335.47 1997.45,1335.69 2001.79,1335.92 2006.12,1336 2010.45,1336.02 2014.78,1336.09 2019.12,1336.2 2023.45,1336.05 2027.78,1335.73 2032.12,1335.35 2036.45,1334.85 2040.78,1334.29 2045.12,1333.64 2049.45,1333.02 2053.78,1332.29 2058.11,1331.48 2062.45,1330.55 2066.78,1329.65 2071.11,1328.82 2075.45,1327.87 2079.78,1326.88 2084.11,1325.96 2088.45,1324.94 2092.78,1323.91 2097.11,1322.89 2101.44,1321.85 2105.78,1320.73 2110.11,1319.66 2114.44,1319.01 2118.78,1318.1 2123.11,1317.13 2127.44,1316.12 2131.77,1314.97 2136.11,1313.76 2140.44,1312.45 2144.77,1311.21 2149.11,1310.1 2153.44,1309 2157.77,1307.98 2162.11,1306.7 2166.44,1305.42 2170.77,1304.1 2175.1,1302.81 2179.44,1301.66 2183.77,1300.27 2188.1,1298.76 2192.44,1297.41 2196.77,1295.9 2201.1,1294.39 2205.44,1293 2209.77,1291.63 2214.1,1290.33 2218.43,1289.34 2222.77,1288.51 2227.1,1288.25 2231.43,1287.97 2235.77,1287.94 2240.1,1287.79 2244.43,1287.77 2248.76,1288.03 2253.1,1287.86 2257.43,1288.05 2261.76,1288.65 2266.1,1289.57 2270.43,1290.74 2274.76,1291.79 2279.1,1292.42 2283.43,1293.17 2287.76,1293.53 2292.09,1294.12 2296.43,1294.24 2300.76,1294.81 2305.09,1295.74 2309.43,1296.77 2313.76,1297.77 2318.09,1298.79 2322.43,1299.62 2326.76,1300.29 2331.09,1301.18 2335.42,1302.37 2339.76,1303.16 2344.09,1303.97 2348.42,1304.69 2352.76,1305.16 "/>
<polyline clip-path="url(#clip831)" style="stroke:#e26f46; stroke-linecap:round; stroke-linejoin:round; stroke-width:4; stroke-opacity:1; fill:none" points="186.274,232.122 190.607,255.27 194.94,277.781 199.273,299.433 203.606,320.484 207.939,340.888 212.272,360.196 216.605,378.99 220.938,398.726 225.271,418.412 229.604,437.793 233.937,456.304 238.27,474.625 242.603,491.16 246.935,509.122 251.268,526.729 255.601,543.909 259.934,560.583 264.267,577.125 268.6,593.371 272.933,609.29 277.266,624.869 281.599,640.118 285.932,655.1 290.265,669.71 294.598,683.952 298.931,698.058 303.264,711.874 307.597,725.389 311.93,738.363 316.263,751.38 320.596,764.142 324.929,776.645 329.262,788.797 333.595,800.619 337.928,812.035 342.261,823.108 346.594,833.263 350.927,842.806 355.26,852.399 359.593,861.262 363.926,869.482 368.258,878.724 372.591,888.219 376.924,897.992 381.257,907.351 385.59,916.871 389.923,926.067 394.256,934.876 398.589,943.403 402.922,951.38 407.255,959.43 411.588,966.145 415.921,973.402 420.254,980.726 424.587,988.466 428.92,996.177 433.253,1003.59 437.586,1011.3 441.919,1018.67 446.252,1026.02 450.585,1033.29 454.918,1040.39 459.251,1047.28 463.584,1053.63 467.917,1059.9 472.25,1066.39 476.583,1072.83 480.916,1078.93 485.249,1084.94 489.581,1090.87 493.914,1096.7 498.247,1102.33 502.58,1107.87 506.913,1112.86 511.246,1117.82 515.579,1121.85 519.912,1125.57 524.245,1128.45 528.578,1131.14 532.911,1133.75 537.244,1135.38 541.577,1137.04 545.91,1139.64 550.243,1142 554.576,1144.71 558.909,1147.39 563.242,1150.16 567.575,1152.55 571.908,1155 576.241,1158.45 580.574,1160.23 584.907,1162.41 589.24,1164.41 593.573,1166.21 597.906,1167.34 602.239,1168.17 606.571,1169.12 610.904,1170.04 615.237,1171.08 619.57,1172.22 623.903,1172.81 628.236,1173.51 632.569,1173.33 636.902,1173.26 641.235,1172.98 645.568,1174.03 649.901,1173.36 654.234,1173.05 658.567,1173.11 662.9,1172.96 667.233,1172.82 671.566,1172.32 675.899,1172.19 680.232,1172.19 684.565,1171.59 688.898,1170.84 693.231,1169.02 697.564,1167.06 701.897,1166.75 706.23,1167.43 710.563,1167.54 714.896,1168.07 719.229,1168.26 723.562,1168.97 727.894,1168.78 732.227,1168.3 736.56,1168.26 740.893,1167.92 745.226,1167.52 749.559,1168.17 753.892,1168.23 758.225,1167.66 762.558,1166.82 766.891,1165.88 771.224,1164.87 775.557,1164.08 779.89,1163.67 784.223,1163.17 788.556,1163.46 792.889,1163.53 797.222,1164.22 801.555,1164.8 805.888,1164.21 810.221,1162.97 814.554,1161.45 818.887,1159.37 823.22,1156.55 827.553,1153.98 831.886,1150.84 836.219,1148.36 840.552,1145.42 844.885,1142.09 849.217,1138.96 853.55,1135.7 857.883,1131.76 862.216,1127.05 866.549,1122.16 870.882,1117.38 875.215,1112.55 879.548,1107.99 883.881,1103.27 888.214,1098.42 892.547,1093.56 896.88,1088.37 901.213,1082.94 905.546,1077.2 909.879,1071.5 914.212,1065.88 918.545,1060.92 922.878,1055.72 927.211,1051.19 931.544,1046.27 935.877,1041.24 940.21,1035.68 944.543,1030.84 948.876,1025.58 953.209,1020.95 957.542,1017.3 961.875,1014.1 966.207,1011.18 970.54,1006.61 974.873,1003.84 979.206,999.061 983.539,995.39 987.872,990.088 992.205,986.261 996.538,982.296 1000.87,979.001 1005.2,976.254 1009.54,974.209 1013.87,972.719 1018.2,971.946 1022.54,969.785 1026.87,967.047 1031.2,964.681 1035.53,962.355 1039.87,960.119 1044.2,958.693 1048.53,958.325 1052.87,957.467 1057.2,956.854 1061.53,955.707 1065.87,956.297 1070.2,958.073 1074.53,959.962 1078.86,961.516 1083.2,962.797 1087.53,964.16 1091.86,965.759 1096.2,967.281 1100.53,970.098 1104.86,973.98 1109.2,977.818 1113.53,981.382 1117.86,986.363 1122.19,991.031 1126.53,994.683 1130.86,998.383 1135.19,1003.04 1139.53,1006.54 1143.86,1009.07 1148.19,1011.54 1152.52,1012.15 1156.86,1012.6 1161.19,1010.79 1165.52,1010.72 1169.86,1011.13 1174.19,1012.97 1178.52,1015.72 1182.86,1019.45 1187.19,1022.33 1191.52,1027.61 1195.85,1031.58 1200.19,1036.85 1204.52,1042.65 1208.85,1047.94 1213.19,1054.18 1217.52,1060.81 1221.85,1067.37 1226.19,1073.8 1230.52,1080.12 1234.85,1086.3 1239.18,1092.11 1243.52,1098 1247.85,1103.77 1252.18,1109.46 1256.52,1115 1260.85,1120.49 1265.18,1125.87 1269.51,1131.13 1273.85,1136.29 1278.18,1141.36 1282.51,1146.31 1286.85,1150.97 1291.18,1155.2 1295.51,1159.17 1299.85,1162.68 1304.18,1166.25 1308.51,1170.12 1312.84,1174.19 1317.18,1177.98 1321.51,1181.93 1325.84,1185.38 1330.18,1189.04 1334.51,1192.67 1338.84,1196.41 1343.18,1199.96 1347.51,1203.39 1351.84,1206.52 1356.17,1210.01 1360.51,1213.24 1364.84,1216.57 1369.17,1219.57 1373.51,1222.22 1377.84,1224.6 1382.17,1226.76 1386.5,1228.75 1390.84,1230.64 1395.17,1232.53 1399.5,1234.19 1403.84,1235.35 1408.17,1236.61 1412.5,1238.64 1416.84,1240.28 1421.17,1242.15 1425.5,1244.3 1429.83,1246.78 1434.17,1249.48 1438.5,1251.96 1442.83,1254.4 1447.17,1256.81 1451.5,1259.24 1455.83,1261.51 1460.17,1263.67 1464.5,1265.98 1468.83,1268.27 1473.16,1270.52 1477.5,1272.69 1481.83,1274.81 1486.16,1276.83 1490.5,1279.05 1494.83,1281.26 1499.16,1283.36 1503.49,1285.46 1507.83,1287.44 1512.16,1289.35 1516.49,1291.29 1520.83,1293.17 1525.16,1295.1 1529.49,1296.96 1533.83,1298.79 1538.16,1300.55 1542.49,1302.28 1546.82,1303.98 1551.16,1305.68 1555.49,1307.36 1559.82,1308.97 1564.16,1310.53 1568.49,1312.1 1572.82,1313.65 1577.16,1315.13 1581.49,1316.61 1585.82,1318.07 1590.15,1319.48 1594.49,1320.84 1598.82,1322.16 1603.15,1323.28 1607.49,1324.2 1611.82,1325.1 1616.15,1326.03 1620.49,1327.11 1624.82,1328.19 1629.15,1329.3 1633.48,1330.41 1637.82,1331.54 1642.15,1332.64 1646.48,1333.74 1650.82,1334.83 1655.15,1335.87 1659.48,1336.88 1663.81,1337.82 1668.15,1338.78 1672.48,1339.76 1676.81,1340.69 1681.15,1341.61 1685.48,1342.42 1689.81,1343.22 1694.15,1344.03 1698.48,1344.77 1702.81,1345.54 1707.14,1346.29 1711.48,1346.89 1715.81,1347.44 1720.14,1348.02 1724.48,1348.68 1728.81,1349.44 1733.14,1350.13 1737.48,1350.82 1741.81,1351.53 1746.14,1352.22 1750.47,1352.92 1754.81,1353.63 1759.14,1354.34 1763.47,1355.04 1767.81,1355.73 1772.14,1356.4 1776.47,1357.06 1780.8,1357.69 1785.14,1358.31 1789.47,1358.92 1793.8,1359.53 1798.14,1360.12 1802.47,1360.69 1806.8,1361.24 1811.14,1361.81 1815.47,1362.36 1819.8,1362.9 1824.13,1363.44 1828.47,1363.96 1832.8,1364.46 1837.13,1364.95 1841.47,1365.41 1845.8,1365.83 1850.13,1366.26 1854.47,1366.65 1858.8,1367.04 1863.13,1367.36 1867.46,1367.6 1871.8,1367.89 1876.13,1368.1 1880.46,1368.31 1884.8,1368.51 1889.13,1368.72 1893.46,1368.94 1897.79,1369.18 1902.13,1369.39 1906.46,1369.53 1910.79,1369.52 1915.13,1369.49 1919.46,1369.45 1923.79,1369.48 1928.13,1369.54 1932.46,1369.63 1936.79,1369.68 1941.12,1369.75 1945.46,1369.89 1949.79,1370.02 1954.12,1370.16 1958.46,1370.28 1962.79,1370.4 1967.12,1370.48 1971.46,1370.56 1975.79,1370.61 1980.12,1370.62 1984.45,1370.77 1988.79,1370.84 1993.12,1370.95 1997.45,1370.98 2001.79,1371.02 2006.12,1371.03 2010.45,1371.02 2014.78,1371.01 2019.12,1371.02 2023.45,1371.05 2027.78,1371.11 2032.12,1371.18 2036.45,1371.35 2040.78,1371.52 2045.12,1371.73 2049.45,1371.94 2053.78,1372.16 2058.11,1372.42 2062.45,1372.68 2066.78,1372.86 2071.11,1373.04 2075.45,1373.26 2079.78,1373.51 2084.11,1373.81 2088.45,1374.07 2092.78,1374.34 2097.11,1374.58 2101.44,1374.85 2105.78,1375.12 2110.11,1375.39 2114.44,1375.63 2118.78,1375.9 2123.11,1376.18 2127.44,1376.44 2131.77,1376.68 2136.11,1376.94 2140.44,1377.19 2144.77,1377.44 2149.11,1377.68 2153.44,1377.91 2157.77,1378.14 2162.11,1378.37 2166.44,1378.59 2170.77,1378.8 2175.1,1379.01 2179.44,1379.22 2183.77,1379.41 2188.1,1379.6 2192.44,1379.79 2196.77,1379.98 2201.1,1380.16 2205.44,1380.32 2209.77,1380.46 2214.1,1380.62 2218.43,1380.78 2222.77,1380.95 2227.1,1381.08 2231.43,1381.21 2235.77,1381.35 2240.1,1381.52 2244.43,1381.67 2248.76,1381.82 2253.1,1381.97 2257.43,1382.12 2261.76,1382.27 2266.1,1382.41 2270.43,1382.55 2274.76,1382.69 2279.1,1382.82 2283.43,1382.94 2287.76,1383.04 2292.09,1383.14 2296.43,1383.23 2300.76,1383.33 2305.09,1383.43 2309.43,1383.51 2313.76,1383.59 2318.09,1383.67 2322.43,1383.75 2326.76,1383.83 2331.09,1383.91 2335.42,1383.99 2339.76,1384.07 2344.09,1384.13 2348.42,1384.19 2352.76,1384.24 "/>
<path clip-path="url(#clip830)" d="M1974.79 248.629 L2280.54 248.629 L2280.54 93.1086 L1974.79 93.1086  Z" fill="#ffffff" fill-rule="evenodd" fill-opacity="1"/>
<polyline clip-path="url(#clip830)" style="stroke:#000000; stroke-linecap:round; stroke-linejoin:round; stroke-width:4; stroke-opacity:1; fill:none" points="1974.79,248.629 2280.54,248.629 2280.54,93.1086 1974.79,93.1086 1974.79,248.629 "/>
<polyline clip-path="url(#clip830)" style="stroke:#009af9; stroke-linecap:round; stroke-linejoin:round; stroke-width:4; stroke-opacity:1; fill:none" points="1998.87,144.949 2143.3,144.949 "/>
<path clip-path="url(#clip830)" d="M2167.37 151.997 L2167.37 136.303 L2171.63 136.303 L2171.63 151.835 Q2171.63 155.516 2173.07 157.368 Q2174.5 159.196 2177.37 159.196 Q2180.82 159.196 2182.81 156.997 Q2184.82 154.798 2184.82 151.002 L2184.82 136.303 L2189.08 136.303 L2189.08 162.229 L2184.82 162.229 L2184.82 158.247 Q2183.27 160.608 2181.21 161.766 Q2179.18 162.9 2176.47 162.9 Q2172 162.9 2169.69 160.122 Q2167.37 157.344 2167.37 151.997 M2178.09 135.678 L2178.09 135.678 Z" fill="#000000" fill-rule="nonzero" fill-opacity="1" /><path clip-path="url(#clip830)" d="M2197.46 126.21 L2207.28 126.21 L2207.28 129.52 L2201.72 129.52 L2201.72 165.168 L2207.28 165.168 L2207.28 168.479 L2197.46 168.479 L2197.46 126.21 Z" fill="#000000" fill-rule="nonzero" fill-opacity="1" /><path clip-path="url(#clip830)" d="M2217.76 158.293 L2225.4 158.293 L2225.4 131.928 L2217.09 133.595 L2217.09 129.335 L2225.36 127.669 L2230.03 127.669 L2230.03 158.293 L2237.67 158.293 L2237.67 162.229 L2217.76 162.229 L2217.76 158.293 Z" fill="#000000" fill-rule="nonzero" fill-opacity="1" /><path clip-path="url(#clip830)" d="M2256.47 126.21 L2256.47 168.479 L2246.65 168.479 L2246.65 165.168 L2252.19 165.168 L2252.19 129.52 L2246.65 129.52 L2246.65 126.21 L2256.47 126.21 Z" fill="#000000" fill-rule="nonzero" fill-opacity="1" /><polyline clip-path="url(#clip830)" style="stroke:#e26f46; stroke-linecap:round; stroke-linejoin:round; stroke-width:4; stroke-opacity:1; fill:none" points="1998.87,196.789 2143.3,196.789 "/>
<path clip-path="url(#clip830)" d="M2167.37 203.837 L2167.37 188.143 L2171.63 188.143 L2171.63 203.675 Q2171.63 207.356 2173.07 209.208 Q2174.5 211.036 2177.37 211.036 Q2180.82 211.036 2182.81 208.837 Q2184.82 206.638 2184.82 202.842 L2184.82 188.143 L2189.08 188.143 L2189.08 214.069 L2184.82 214.069 L2184.82 210.087 Q2183.27 212.448 2181.21 213.606 Q2179.18 214.74 2176.47 214.74 Q2172 214.74 2169.69 211.962 Q2167.37 209.184 2167.37 203.837 M2178.09 187.518 L2178.09 187.518 Z" fill="#000000" fill-rule="nonzero" fill-opacity="1" /><path clip-path="url(#clip830)" d="M2197.46 178.05 L2207.28 178.05 L2207.28 181.36 L2201.72 181.36 L2201.72 217.008 L2207.28 217.008 L2207.28 220.319 L2197.46 220.319 L2197.46 178.05 Z" fill="#000000" fill-rule="nonzero" fill-opacity="1" /><path clip-path="url(#clip830)" d="M2220.98 210.133 L2237.3 210.133 L2237.3 214.069 L2215.36 214.069 L2215.36 210.133 Q2218.02 207.379 2222.6 202.749 Q2227.21 198.096 2228.39 196.754 Q2230.63 194.231 2231.51 192.495 Q2232.42 190.735 2232.42 189.046 Q2232.42 186.291 2230.47 184.555 Q2228.55 182.819 2225.45 182.819 Q2223.25 182.819 2220.8 183.583 Q2218.37 184.347 2215.59 185.897 L2215.59 181.175 Q2218.41 180.041 2220.87 179.462 Q2223.32 178.884 2225.36 178.884 Q2230.73 178.884 2233.92 181.569 Q2237.12 184.254 2237.12 188.745 Q2237.12 190.874 2236.31 192.796 Q2235.52 194.694 2233.41 197.286 Q2232.83 197.958 2229.73 201.175 Q2226.63 204.37 2220.98 210.133 Z" fill="#000000" fill-rule="nonzero" fill-opacity="1" /><path clip-path="url(#clip830)" d="M2256.47 178.05 L2256.47 220.319 L2246.65 220.319 L2246.65 217.008 L2252.19 217.008 L2252.19 181.36 L2246.65 181.36 L2246.65 178.05 L2256.47 178.05 Z" fill="#000000" fill-rule="nonzero" fill-opacity="1" /></svg>
