<?xml version="1.0" encoding="utf-8"?>
<svg xmlns="http://www.w3.org/2000/svg" xmlns:xlink="http://www.w3.org/1999/xlink" width="600" height="400" viewBox="0 0 2400 1600">
<defs>
  <clipPath id="clip800">
    <rect x="0" y="0" width="2400" height="1600"/>
  </clipPath>
</defs>
<path clip-path="url(#clip800)" d="M0 1600 L2400 1600 L2400 0 L0 0  Z" fill="#ffffff" fill-rule="evenodd" fill-opacity="1"/>
<defs>
  <clipPath id="clip801">
    <rect x="140" y="47" width="2213" height="1377"/>
  </clipPath>
</defs>
<path clip-path="url(#clip800)" d="M140.696 1423.18 L2352.76 1423.18 L2352.76 47.2441 L140.696 47.2441  Z" fill="#ffffff" fill-rule="evenodd" fill-opacity="1"/>
<polyline clip-path="url(#clip801)" style="stroke:#000000; stroke-linecap:round; stroke-linejoin:round; stroke-width:2; stroke-opacity:0.1; fill:none" points="140.696,1423.18 140.696,47.2441 "/>
<polyline clip-path="url(#clip801)" style="stroke:#000000; stroke-linecap:round; stroke-linejoin:round; stroke-width:2; stroke-opacity:0.1; fill:none" points="583.108,1423.18 583.108,47.2441 "/>
<polyline clip-path="url(#clip801)" style="stroke:#000000; stroke-linecap:round; stroke-linejoin:round; stroke-width:2; stroke-opacity:0.1; fill:none" points="1025.52,1423.18 1025.52,47.2441 "/>
<polyline clip-path="url(#clip801)" style="stroke:#000000; stroke-linecap:round; stroke-linejoin:round; stroke-width:2; stroke-opacity:0.1; fill:none" points="1467.93,1423.18 1467.93,47.2441 "/>
<polyline clip-path="url(#clip801)" style="stroke:#000000; stroke-linecap:round; stroke-linejoin:round; stroke-width:2; stroke-opacity:0.1; fill:none" points="1910.34,1423.18 1910.34,47.2441 "/>
<polyline clip-path="url(#clip801)" style="stroke:#000000; stroke-linecap:round; stroke-linejoin:round; stroke-width:2; stroke-opacity:0.1; fill:none" points="2352.76,1423.18 2352.76,47.2441 "/>
<polyline clip-path="url(#clip801)" style="stroke:#000000; stroke-linecap:round; stroke-linejoin:round; stroke-width:2; stroke-opacity:0.1; fill:none" points="140.696,1087.85 2352.76,1087.85 "/>
<polyline clip-path="url(#clip801)" style="stroke:#000000; stroke-linecap:round; stroke-linejoin:round; stroke-width:2; stroke-opacity:0.1; fill:none" points="140.696,744.566 2352.76,744.566 "/>
<polyline clip-path="url(#clip801)" style="stroke:#000000; stroke-linecap:round; stroke-linejoin:round; stroke-width:2; stroke-opacity:0.1; fill:none" points="140.696,401.285 2352.76,401.285 "/>
<polyline clip-path="url(#clip801)" style="stroke:#000000; stroke-linecap:round; stroke-linejoin:round; stroke-width:2; stroke-opacity:0.1; fill:none" points="140.696,58.004 2352.76,58.004 "/>
<polyline clip-path="url(#clip800)" style="stroke:#000000; stroke-linecap:round; stroke-linejoin:round; stroke-width:4; stroke-opacity:1; fill:none" points="140.696,1423.18 2352.76,1423.18 "/>
<polyline clip-path="url(#clip800)" style="stroke:#000000; stroke-linecap:round; stroke-linejoin:round; stroke-width:4; stroke-opacity:1; fill:none" points="140.696,1423.18 140.696,1404.28 "/>
<polyline clip-path="url(#clip800)" style="stroke:#000000; stroke-linecap:round; stroke-linejoin:round; stroke-width:4; stroke-opacity:1; fill:none" points="583.108,1423.18 583.108,1404.28 "/>
<polyline clip-path="url(#clip800)" style="stroke:#000000; stroke-linecap:round; stroke-linejoin:round; stroke-width:4; stroke-opacity:1; fill:none" points="1025.52,1423.18 1025.52,1404.28 "/>
<polyline clip-path="url(#clip800)" style="stroke:#000000; stroke-linecap:round; stroke-linejoin:round; stroke-width:4; stroke-opacity:1; fill:none" points="1467.93,1423.18 1467.93,1404.28 "/>
<polyline clip-path="url(#clip800)" style="stroke:#000000; stroke-linecap:round; stroke-linejoin:round; stroke-width:4; stroke-opacity:1; fill:none" points="1910.34,1423.18 1910.34,1404.28 "/>
<polyline clip-path="url(#clip800)" style="stroke:#000000; stroke-linecap:round; stroke-linejoin:round; stroke-width:4; stroke-opacity:1; fill:none" points="2352.76,1423.18 2352.76,1404.28 "/>
<path clip-path="url(#clip800)" d="M140.696 1454.1 Q137.084 1454.1 135.256 1457.66 Q133.45 1461.2 133.45 1468.33 Q133.45 1475.44 135.256 1479.01 Q137.084 1482.55 140.696 1482.55 Q144.33 1482.55 146.135 1479.01 Q147.964 1475.44 147.964 1468.33 Q147.964 1461.2 146.135 1457.66 Q144.33 1454.1 140.696 1454.1 M140.696 1450.39 Q146.506 1450.39 149.561 1455 Q152.64 1459.58 152.64 1468.33 Q152.64 1477.06 149.561 1481.67 Q146.506 1486.25 140.696 1486.25 Q134.885 1486.25 131.807 1481.67 Q128.751 1477.06 128.751 1468.33 Q128.751 1459.58 131.807 1455 Q134.885 1450.39 140.696 1450.39 Z" fill="#000000" fill-rule="nonzero" fill-opacity="1" /><path clip-path="url(#clip800)" d="M573.49 1481.64 L581.128 1481.64 L581.128 1455.28 L572.818 1456.95 L572.818 1452.69 L581.082 1451.02 L585.758 1451.02 L585.758 1481.64 L593.397 1481.64 L593.397 1485.58 L573.49 1485.58 L573.49 1481.64 Z" fill="#000000" fill-rule="nonzero" fill-opacity="1" /><path clip-path="url(#clip800)" d="M1020.17 1481.64 L1036.49 1481.64 L1036.49 1485.58 L1014.55 1485.58 L1014.55 1481.64 Q1017.21 1478.89 1021.79 1474.26 Q1026.4 1469.61 1027.58 1468.27 Q1029.83 1465.74 1030.7 1464.01 Q1031.61 1462.25 1031.61 1460.56 Q1031.61 1457.8 1029.66 1456.07 Q1027.74 1454.33 1024.64 1454.33 Q1022.44 1454.33 1019.99 1455.09 Q1017.56 1455.86 1014.78 1457.41 L1014.78 1452.69 Q1017.6 1451.55 1020.06 1450.97 Q1022.51 1450.39 1024.55 1450.39 Q1029.92 1450.39 1033.11 1453.08 Q1036.31 1455.77 1036.31 1460.26 Q1036.31 1462.39 1035.5 1464.31 Q1034.71 1466.2 1032.6 1468.8 Q1032.02 1469.47 1028.92 1472.69 Q1025.82 1475.88 1020.17 1481.64 Z" fill="#000000" fill-rule="nonzero" fill-opacity="1" /><path clip-path="url(#clip800)" d="M1472.18 1466.95 Q1475.54 1467.66 1477.41 1469.93 Q1479.31 1472.2 1479.31 1475.53 Q1479.31 1480.65 1475.79 1483.45 Q1472.27 1486.25 1465.79 1486.25 Q1463.61 1486.25 1461.3 1485.81 Q1459.01 1485.39 1456.55 1484.54 L1456.55 1480.02 Q1458.5 1481.16 1460.81 1481.74 Q1463.13 1482.32 1465.65 1482.32 Q1470.05 1482.32 1472.34 1480.58 Q1474.66 1478.84 1474.66 1475.53 Q1474.66 1472.48 1472.5 1470.77 Q1470.37 1469.03 1466.55 1469.03 L1462.53 1469.03 L1462.53 1465.19 L1466.74 1465.19 Q1470.19 1465.19 1472.02 1463.82 Q1473.85 1462.43 1473.85 1459.84 Q1473.85 1457.18 1471.95 1455.77 Q1470.07 1454.33 1466.55 1454.33 Q1464.63 1454.33 1462.43 1454.75 Q1460.24 1455.16 1457.6 1456.04 L1457.6 1451.88 Q1460.26 1451.14 1462.57 1450.77 Q1464.91 1450.39 1466.97 1450.39 Q1472.3 1450.39 1475.4 1452.83 Q1478.5 1455.23 1478.5 1459.35 Q1478.5 1462.22 1476.86 1464.21 Q1475.21 1466.18 1472.18 1466.95 Z" fill="#000000" fill-rule="nonzero" fill-opacity="1" /><path clip-path="url(#clip800)" d="M1913.35 1455.09 L1901.55 1473.54 L1913.35 1473.54 L1913.35 1455.09 M1912.13 1451.02 L1918.01 1451.02 L1918.01 1473.54 L1922.94 1473.54 L1922.94 1477.43 L1918.01 1477.43 L1918.01 1485.58 L1913.35 1485.58 L1913.35 1477.43 L1897.75 1477.43 L1897.75 1472.92 L1912.13 1451.02 Z" fill="#000000" fill-rule="nonzero" fill-opacity="1" /><path clip-path="url(#clip800)" d="M2343.03 1451.02 L2361.39 1451.02 L2361.39 1454.96 L2347.32 1454.96 L2347.32 1463.43 Q2348.33 1463.08 2349.35 1462.92 Q2350.37 1462.73 2351.39 1462.73 Q2357.18 1462.73 2360.56 1465.9 Q2363.94 1469.08 2363.94 1474.49 Q2363.94 1480.07 2360.46 1483.17 Q2356.99 1486.25 2350.67 1486.25 Q2348.5 1486.25 2346.23 1485.88 Q2343.98 1485.51 2341.58 1484.77 L2341.58 1480.07 Q2343.66 1481.2 2345.88 1481.76 Q2348.1 1482.32 2350.58 1482.32 Q2354.58 1482.32 2356.92 1480.21 Q2359.26 1478.1 2359.26 1474.49 Q2359.26 1470.88 2356.92 1468.77 Q2354.58 1466.67 2350.58 1466.67 Q2348.71 1466.67 2346.83 1467.08 Q2344.98 1467.5 2343.03 1468.38 L2343.03 1451.02 Z" fill="#000000" fill-rule="nonzero" fill-opacity="1" /><path clip-path="url(#clip800)" d="M1245.79 1522.27 L1245.79 1532.4 L1257.85 1532.4 L1257.85 1536.95 L1245.79 1536.95 L1245.79 1556.3 Q1245.79 1560.66 1246.96 1561.9 Q1248.17 1563.14 1251.83 1563.14 L1257.85 1563.14 L1257.85 1568.04 L1251.83 1568.04 Q1245.05 1568.04 1242.48 1565.53 Q1239.9 1562.98 1239.9 1556.3 L1239.9 1536.95 L1235.6 1536.95 L1235.6 1532.4 L1239.9 1532.4 L1239.9 1522.27 L1245.79 1522.27 Z" fill="#000000" fill-rule="nonzero" fill-opacity="1" /><polyline clip-path="url(#clip800)" style="stroke:#000000; stroke-linecap:round; stroke-linejoin:round; stroke-width:4; stroke-opacity:1; fill:none" points="140.696,1423.18 140.696,47.2441 "/>
<polyline clip-path="url(#clip800)" style="stroke:#000000; stroke-linecap:round; stroke-linejoin:round; stroke-width:4; stroke-opacity:1; fill:none" points="140.696,1087.85 159.593,1087.85 "/>
<polyline clip-path="url(#clip800)" style="stroke:#000000; stroke-linecap:round; stroke-linejoin:round; stroke-width:4; stroke-opacity:1; fill:none" points="140.696,744.566 159.593,744.566 "/>
<polyline clip-path="url(#clip800)" style="stroke:#000000; stroke-linecap:round; stroke-linejoin:round; stroke-width:4; stroke-opacity:1; fill:none" points="140.696,401.285 159.593,401.285 "/>
<polyline clip-path="url(#clip800)" style="stroke:#000000; stroke-linecap:round; stroke-linejoin:round; stroke-width:4; stroke-opacity:1; fill:none" points="140.696,58.004 159.593,58.004 "/>
<path clip-path="url(#clip800)" d="M83.7929 1070.57 L102.149 1070.57 L102.149 1074.5 L88.0753 1074.5 L88.0753 1082.97 Q89.0938 1082.63 90.1123 1082.47 Q91.1308 1082.28 92.1493 1082.28 Q97.9363 1082.28 101.316 1085.45 Q104.696 1088.62 104.696 1094.04 Q104.696 1099.62 101.223 1102.72 Q97.7511 1105.8 91.4317 1105.8 Q89.2558 1105.8 86.9873 1105.43 Q84.7419 1105.06 82.3346 1104.32 L82.3346 1099.62 Q84.4179 1100.75 86.6401 1101.31 Q88.8623 1101.86 91.3391 1101.86 Q95.3437 1101.86 97.6817 1099.76 Q100.02 1097.65 100.02 1094.04 Q100.02 1090.43 97.6817 1088.32 Q95.3437 1086.22 91.3391 1086.22 Q89.4641 1086.22 87.5892 1086.63 Q85.7373 1087.05 83.7929 1087.93 L83.7929 1070.57 Z" fill="#000000" fill-rule="nonzero" fill-opacity="1" /><path clip-path="url(#clip800)" d="M53.3995 757.911 L61.0384 757.911 L61.0384 731.545 L52.7282 733.212 L52.7282 728.953 L60.9921 727.286 L65.668 727.286 L65.668 757.911 L73.3068 757.911 L73.3068 761.846 L53.3995 761.846 L53.3995 757.911 Z" fill="#000000" fill-rule="nonzero" fill-opacity="1" /><path clip-path="url(#clip800)" d="M92.7512 730.365 Q89.1401 730.365 87.3114 733.93 Q85.5058 737.471 85.5058 744.601 Q85.5058 751.707 87.3114 755.272 Q89.1401 758.814 92.7512 758.814 Q96.3854 758.814 98.1909 755.272 Q100.02 751.707 100.02 744.601 Q100.02 737.471 98.1909 733.93 Q96.3854 730.365 92.7512 730.365 M92.7512 726.661 Q98.5613 726.661 101.617 731.268 Q104.696 735.851 104.696 744.601 Q104.696 753.328 101.617 757.934 Q98.5613 762.518 92.7512 762.518 Q86.941 762.518 83.8623 757.934 Q80.8068 753.328 80.8068 744.601 Q80.8068 735.851 83.8623 731.268 Q86.941 726.661 92.7512 726.661 Z" fill="#000000" fill-rule="nonzero" fill-opacity="1" /><path clip-path="url(#clip800)" d="M54.3949 414.63 L62.0337 414.63 L62.0337 388.264 L53.7236 389.931 L53.7236 385.672 L61.9874 384.005 L66.6633 384.005 L66.6633 414.63 L74.3022 414.63 L74.3022 418.565 L54.3949 418.565 L54.3949 414.63 Z" fill="#000000" fill-rule="nonzero" fill-opacity="1" /><path clip-path="url(#clip800)" d="M83.7929 384.005 L102.149 384.005 L102.149 387.94 L88.0753 387.94 L88.0753 396.412 Q89.0938 396.065 90.1123 395.903 Q91.1308 395.718 92.1493 395.718 Q97.9363 395.718 101.316 398.889 Q104.696 402.061 104.696 407.477 Q104.696 413.056 101.223 416.158 Q97.7511 419.236 91.4317 419.236 Q89.2558 419.236 86.9873 418.866 Q84.7419 418.496 82.3346 417.755 L82.3346 413.056 Q84.4179 414.19 86.6401 414.746 Q88.8623 415.301 91.3391 415.301 Q95.3437 415.301 97.6817 413.195 Q100.02 411.088 100.02 407.477 Q100.02 403.866 97.6817 401.76 Q95.3437 399.653 91.3391 399.653 Q89.4641 399.653 87.5892 400.07 Q85.7373 400.487 83.7929 401.366 L83.7929 384.005 Z" fill="#000000" fill-rule="nonzero" fill-opacity="1" /><path clip-path="url(#clip800)" d="M56.6171 71.3488 L72.9365 71.3488 L72.9365 75.284 L50.9921 75.284 L50.9921 71.3488 Q53.6541 68.5942 58.2375 63.9646 Q62.8439 59.3119 64.0245 57.9693 Q66.2698 55.4461 67.1494 53.71 Q68.0522 51.9508 68.0522 50.261 Q68.0522 47.5064 66.1078 45.7703 Q64.1865 44.0342 61.0847 44.0342 Q58.8856 44.0342 56.4319 44.7981 Q54.0014 45.5619 51.2236 47.1129 L51.2236 42.3907 Q54.0477 41.2564 56.5014 40.6777 Q58.955 40.099 60.9921 40.099 Q66.3624 40.099 69.5568 42.7842 Q72.7513 45.4693 72.7513 49.9601 Q72.7513 52.0897 71.9411 54.011 Q71.1541 55.9091 69.0476 58.5017 Q68.4689 59.173 65.367 62.3906 Q62.2652 65.585 56.6171 71.3488 Z" fill="#000000" fill-rule="nonzero" fill-opacity="1" /><path clip-path="url(#clip800)" d="M92.7512 43.8027 Q89.1401 43.8027 87.3114 47.3675 Q85.5058 50.9091 85.5058 58.0387 Q85.5058 65.1452 87.3114 68.71 Q89.1401 72.2516 92.7512 72.2516 Q96.3854 72.2516 98.1909 68.71 Q100.02 65.1452 100.02 58.0387 Q100.02 50.9091 98.1909 47.3675 Q96.3854 43.8027 92.7512 43.8027 M92.7512 40.099 Q98.5613 40.099 101.617 44.7055 Q104.696 49.2888 104.696 58.0387 Q104.696 66.7655 101.617 71.372 Q98.5613 75.9553 92.7512 75.9553 Q86.941 75.9553 83.8623 71.372 Q80.8068 66.7655 80.8068 58.0387 Q80.8068 49.2888 83.8623 44.7055 Q86.941 40.099 92.7512 40.099 Z" fill="#000000" fill-rule="nonzero" fill-opacity="1" /><polyline clip-path="url(#clip801)" style="stroke:#009af9; stroke-linecap:round; stroke-linejoin:round; stroke-width:4; stroke-opacity:1; fill:none" points="140.696,1362.47 145.12,1362.47 149.544,1362.37 153.968,1362.3 158.392,1362.18 162.816,1361.96 167.24,1361.64 171.664,1361.34 176.089,1361.29 180.513,1361.3 184.937,1361.44 189.361,1361.48 193.785,1361.39 198.209,1361.22 202.633,1361 207.057,1360.73 211.481,1360.36 215.906,1359.9 220.33,1359.48 224.754,1358.99 229.178,1358.51 233.602,1358.18 238.026,1357.81 242.45,1357.81 246.874,1357.81 251.299,1357.68 255.723,1357.69 260.147,1357.7 264.571,1357.74 268.995,1357.61 273.419,1357.05 277.843,1356.36 282.267,1355.59 286.692,1355.1 291.116,1354.54 295.54,1353.94 299.964,1353.25 304.388,1352.63 308.812,1352.07 313.236,1351.62 317.66,1351.21 322.084,1351.06 326.509,1350.99 330.933,1350.88 335.357,1350.93 339.781,1351.08 344.205,1351.23 348.629,1351.47 353.053,1351.76 357.477,1351.84 361.902,1351.9 366.326,1352.1 370.75,1352.15 375.174,1352.01 379.598,1351.7 384.022,1351.27 388.446,1350.95 392.87,1350.56 397.295,1350.1 401.719,1349.91 406.143,1349.7 410.567,1349.44 414.991,1349.17 419.415,1348.63 423.839,1348.29 428.263,1347.66 432.688,1347.14 437.112,1346.48 441.536,1345.86 445.96,1345.33 450.384,1344.61 454.808,1343.9 459.232,1343.25 463.656,1342.56 468.08,1341.86 472.505,1341.08 476.929,1340.29 481.353,1339.43 485.777,1338.54 490.201,1337.41 494.625,1336.64 499.049,1335.87 503.473,1335.2 507.898,1334.34 512.322,1333.67 516.746,1332.91 521.17,1332.35 525.594,1331.77 530.018,1331.05 534.442,1330.17 538.866,1329.06 543.291,1327.77 547.715,1326.52 552.139,1325.31 556.563,1324.04 560.987,1322.56 565.411,1321.15 569.835,1319.85 574.259,1318.45 578.683,1317.11 583.108,1315.63 587.532,1314 591.956,1312.39 596.38,1310.32 600.804,1308.19 605.228,1306.05 609.652,1303.86 614.076,1301.71 618.501,1299.71 622.925,1297.64 627.349,1295.54 631.773,1293.64 636.197,1291.49 640.621,1289.17 645.045,1286.8 649.469,1284.32 653.894,1281.65 658.318,1278.83 662.742,1275.83 667.166,1272.72 671.59,1269.55 676.014,1266.33 680.438,1263.04 684.862,1259.69 689.287,1256.26 693.711,1252.77 698.135,1249.21 702.559,1245.58 706.983,1241.9 711.407,1238.12 715.831,1234.28 720.255,1230.44 724.679,1226.46 729.104,1222.7 733.528,1219.38 737.952,1216.2 742.376,1212.67 746.8,1209.31 751.224,1206.22 755.648,1203.32 760.072,1199.91 764.497,1196.4 768.921,1193.16 773.345,1189.77 777.769,1185.93 782.193,1182.28 786.617,1178.46 791.041,1174.66 795.465,1170.41 799.89,1165.87 804.314,1161.18 808.738,1156.26 813.162,1151.13 817.586,1145.73 822.01,1140.11 826.434,1134.43 830.858,1128.52 835.282,1122.49 839.707,1116.34 844.131,1110.08 848.555,1103.7 852.979,1097.21 857.403,1090.67 861.827,1083.99 866.251,1077.08 870.675,1070.07 875.1,1062.86 879.524,1055.5 883.948,1048 888.372,1040.73 892.796,1033.61 897.22,1026.46 901.644,1018.86 906.068,1010.92 910.493,1002.77 914.917,995.044 919.341,987.223 923.765,978.864 928.189,970.413 932.613,962.459 937.037,953.75 941.461,944.564 945.886,935.277 950.31,926.126 954.734,917.083 959.158,907.897 963.582,899.186 968.006,890.738 972.43,881.942 976.854,873.882 981.278,865.015 985.703,857.013 990.127,848.389 994.551,839.893 998.975,831.06 1003.4,822.416 1007.82,812.932 1012.25,804.371 1016.67,796.371 1021.1,786.576 1025.52,775.412 1029.94,763.445 1034.37,752.103 1038.79,741.068 1043.22,729.633 1047.64,717.087 1052.06,705.318 1056.49,692.067 1060.91,678.539 1065.34,664.808 1069.76,650.916 1074.19,636.393 1078.61,621.249 1083.03,605.822 1087.46,589.85 1091.88,573.681 1096.31,556.706 1100.73,539.412 1105.15,522.167 1109.58,504.506 1114,486.205 1118.43,467.336 1122.85,448.269 1127.27,429.426 1131.7,410.218 1136.12,391.808 1140.55,372.923 1144.97,354.21 1149.4,336.505 1153.82,318.611 1158.24,300.45 1162.67,283.571 1167.09,268.728 1171.52,256.703 1175.94,244.459 1180.36,234.071 1184.79,223.052 1189.21,214.147 1193.64,207.492 1198.06,200.397 1202.48,194.314 1206.91,189.711 1211.33,180.724 1215.76,170.574 1220.18,164.46 1224.61,159.738 1229.03,153.046 1233.45,146.687 1237.88,137.583 1242.3,132.392 1246.73,129.994 1251.15,124.172 1255.57,119.466 1260,116.779 1264.42,115.613 1268.85,113.115 1273.27,108.625 1277.69,102.946 1282.12,95.928 1286.54,90.3959 1290.97,86.1857 1295.39,88.5881 1299.82,92.9757 1304.24,100.881 1308.66,112.26 1313.09,123.07 1317.51,132.126 1321.94,139.135 1326.36,150.158 1330.78,156.971 1335.21,167.304 1339.63,178.241 1344.06,190.978 1348.48,205.086 1352.9,219.117 1357.33,234.29 1361.75,248.176 1366.18,263.192 1370.6,274.008 1375.03,284.946 1379.45,297.63 1383.87,312.173 1388.3,325.549 1392.72,335.602 1397.15,349.879 1401.57,363.812 1405.99,378.804 1410.42,394.968 1414.84,410.67 1419.27,425.25 1423.69,440.905 1428.11,453.216 1432.54,466.473 1436.96,478.66 1441.39,490.805 1445.81,503.784 1450.24,517.17 1454.66,531.598 1459.08,546.225 1463.51,561.563 1467.93,576.46 1472.36,588.99 1476.78,598.747 1481.2,607.298 1485.63,613.389 1490.05,619.945 1494.48,625.441 1498.9,628.188 1503.32,630.97 1507.75,631.902 1512.17,631.385 1516.6,629.51 1521.02,627.988 1525.45,629.391 1529.87,629.898 1534.29,631.322 1538.72,631.879 1543.14,632.926 1547.57,635.195 1551.99,635.873 1556.41,637.124 1560.84,639.5 1565.26,645.333 1569.69,653.48 1574.11,662.091 1578.53,669.996 1582.96,681.047 1587.38,693.224 1591.81,705.708 1596.23,718.456 1600.66,731.366 1605.08,744.235 1609.5,757.613 1613.93,770.636 1618.35,783.207 1622.78,795.038 1627.2,806.237 1631.62,817.121 1636.05,828.382 1640.47,839.306 1644.9,850.404 1649.32,861.299 1653.74,872.202 1658.17,882.176 1662.59,892.798 1667.02,903.493 1671.44,913.77 1675.87,923.997 1680.29,933.844 1684.71,942.975 1689.14,951.568 1693.56,959.71 1697.99,967.192 1702.41,974.019 1706.83,981.696 1711.26,988.684 1715.68,995.467 1720.11,1002.15 1724.53,1009.5 1728.95,1017.04 1733.38,1023.49 1737.8,1029.84 1742.23,1035.76 1746.65,1040.67 1751.08,1045.54 1755.5,1051.06 1759.92,1057 1764.35,1062.75 1768.77,1067.84 1773.2,1072 1777.62,1076.73 1782.04,1081.38 1786.47,1086.12 1790.89,1089.99 1795.32,1093.68 1799.74,1098.15 1804.16,1102.02 1808.59,1106.04 1813.01,1110.02 1817.44,1113.42 1821.86,1116.62 1826.29,1119.9 1830.71,1123.7 1835.13,1127.48 1839.56,1131.58 1843.98,1136.07 1848.41,1140.32 1852.83,1144.49 1857.25,1148.8 1861.68,1153.01 1866.1,1157.03 1870.53,1161.29 1874.95,1165.24 1879.37,1168.56 1883.8,1172.07 1888.22,1175.45 1892.65,1179.02 1897.07,1182.43 1901.5,1185.73 1905.92,1189.12 1910.34,1192.23 1914.77,1195.1 1919.19,1197.75 1923.62,1199.97 1928.04,1202.27 1932.46,1203.58 1936.89,1205.07 1941.31,1206.38 1945.74,1207.68 1950.16,1209.23 1954.59,1210.68 1959.01,1212.31 1963.43,1213.79 1967.86,1215.82 1972.28,1217.67 1976.71,1219.53 1981.13,1221.25 1985.55,1222.9 1989.98,1224.29 1994.4,1225.8 1998.83,1226.67 2003.25,1227.56 2007.67,1228.49 2012.1,1229.64 2016.52,1231.11 2020.95,1233.34 2025.37,1235.9 2029.8,1238.3 2034.22,1240.66 2038.64,1243.15 2043.07,1246.51 2047.49,1249.94 2051.92,1253.26 2056.34,1256.61 2060.76,1259.85 2065.19,1262.94 2069.61,1265.86 2074.04,1268.7 2078.46,1271.63 2082.88,1274.47 2087.31,1277.27 2091.73,1280.13 2096.16,1282.98 2100.58,1285.79 2105.01,1288.65 2109.43,1291.46 2113.85,1294.13 2118.28,1296.79 2122.7,1299.43 2127.13,1301.9 2131.55,1304.39 2135.97,1306.82 2140.4,1309.29 2144.82,1311.72 2149.25,1314.02 2153.67,1316.31 2158.09,1318.59 2162.52,1320.82 2166.94,1323.03 2171.37,1325.19 2175.79,1327.3 2180.22,1329.37 2184.64,1331.41 2189.06,1333.4 2193.49,1335.34 2197.91,1337.25 2202.34,1339.11 2206.76,1340.94 2211.18,1342.71 2215.61,1344.45 2220.03,1346.04 2224.46,1347.63 2228.88,1349.22 2233.3,1350.79 2237.73,1352.38 2242.15,1353.94 2246.58,1355.49 2251,1356.98 2255.43,1358.45 2259.85,1359.87 2264.27,1361.27 2268.7,1362.67 2273.12,1364.04 2277.55,1365.36 2281.97,1366.68 2286.39,1367.97 2290.82,1369.23 2295.24,1370.46 2299.67,1371.67 2304.09,1372.86 2308.51,1374.02 2312.94,1375.16 2317.36,1376.27 2321.79,1377.31 2326.21,1378.31 2330.64,1379.34 2335.06,1380.35 2339.48,1381.35 2343.91,1382.32 2348.33,1383.29 2352.76,1384.24 "/>
<path clip-path="url(#clip800)" d="M1968.72 196.789 L2279.02 196.789 L2279.02 93.1086 L1968.72 93.1086  Z" fill="#ffffff" fill-rule="evenodd" fill-opacity="1"/>
<polyline clip-path="url(#clip800)" style="stroke:#000000; stroke-linecap:round; stroke-linejoin:round; stroke-width:4; stroke-opacity:1; fill:none" points="1968.72,196.789 2279.02,196.789 2279.02,93.1086 1968.72,93.1086 1968.72,196.789 "/>
<polyline clip-path="url(#clip800)" style="stroke:#009af9; stroke-linecap:round; stroke-linejoin:round; stroke-width:4; stroke-opacity:1; fill:none" points="1993.3,144.949 2140.77,144.949 "/>
<path clip-path="url(#clip800)" d="M2165.35 151.997 L2165.35 136.303 L2169.6 136.303 L2169.6 151.835 Q2169.6 155.516 2171.04 157.368 Q2172.47 159.196 2175.35 159.196 Q2178.79 159.196 2180.79 156.997 Q2182.8 154.798 2182.8 151.002 L2182.8 136.303 L2187.06 136.303 L2187.06 162.229 L2182.8 162.229 L2182.8 158.247 Q2181.25 160.608 2179.19 161.766 Q2177.15 162.9 2174.44 162.9 Q2169.97 162.9 2167.66 160.122 Q2165.35 157.344 2165.35 151.997 M2176.06 135.678 L2176.06 135.678 Z" fill="#000000" fill-rule="nonzero" fill-opacity="1" /><path clip-path="url(#clip800)" d="M2195.44 126.21 L2205.25 126.21 L2205.25 129.52 L2199.7 129.52 L2199.7 165.168 L2205.25 165.168 L2205.25 168.479 L2195.44 168.479 L2195.44 126.21 Z" fill="#000000" fill-rule="nonzero" fill-opacity="1" /><path clip-path="url(#clip800)" d="M2215.74 158.293 L2223.38 158.293 L2223.38 131.928 L2215.07 133.595 L2215.07 129.335 L2223.33 127.669 L2228.01 127.669 L2228.01 158.293 L2235.65 158.293 L2235.65 162.229 L2215.74 162.229 L2215.74 158.293 Z" fill="#000000" fill-rule="nonzero" fill-opacity="1" /><path clip-path="url(#clip800)" d="M2254.44 126.21 L2254.44 168.479 L2244.63 168.479 L2244.63 165.168 L2250.16 165.168 L2250.16 129.52 L2244.63 129.52 L2244.63 126.21 L2254.44 126.21 Z" fill="#000000" fill-rule="nonzero" fill-opacity="1" /></svg>
