<?xml version="1.0" encoding="utf-8"?>
<svg xmlns="http://www.w3.org/2000/svg" xmlns:xlink="http://www.w3.org/1999/xlink" width="600" height="400" viewBox="0 0 2400 1600">
<defs>
  <clipPath id="clip860">
    <rect x="0" y="0" width="2400" height="1600"/>
  </clipPath>
</defs>
<path clip-path="url(#clip860)" d="M0 1600 L2400 1600 L2400 0 L0 0  Z" fill="#ffffff" fill-rule="evenodd" fill-opacity="1"/>
<defs>
  <clipPath id="clip861">
    <rect x="184" y="47" width="2170" height="1377"/>
  </clipPath>
</defs>
<path clip-path="url(#clip860)" d="M184.191 1423.18 L2352.76 1423.18 L2352.76 47.2441 L184.191 47.2441  Z" fill="#ffffff" fill-rule="evenodd" fill-opacity="1"/>
<polyline clip-path="url(#clip861)" style="stroke:#000000; stroke-linecap:round; stroke-linejoin:round; stroke-width:2; stroke-opacity:0.1; fill:none" points="184.191,1423.18 184.191,47.2441 "/>
<polyline clip-path="url(#clip861)" style="stroke:#000000; stroke-linecap:round; stroke-linejoin:round; stroke-width:2; stroke-opacity:0.1; fill:none" points="617.904,1423.18 617.904,47.2441 "/>
<polyline clip-path="url(#clip861)" style="stroke:#000000; stroke-linecap:round; stroke-linejoin:round; stroke-width:2; stroke-opacity:0.1; fill:none" points="1051.62,1423.18 1051.62,47.2441 "/>
<polyline clip-path="url(#clip861)" style="stroke:#000000; stroke-linecap:round; stroke-linejoin:round; stroke-width:2; stroke-opacity:0.1; fill:none" points="1485.33,1423.18 1485.33,47.2441 "/>
<polyline clip-path="url(#clip861)" style="stroke:#000000; stroke-linecap:round; stroke-linejoin:round; stroke-width:2; stroke-opacity:0.1; fill:none" points="1919.04,1423.18 1919.04,47.2441 "/>
<polyline clip-path="url(#clip861)" style="stroke:#000000; stroke-linecap:round; stroke-linejoin:round; stroke-width:2; stroke-opacity:0.1; fill:none" points="2352.76,1423.18 2352.76,47.2441 "/>
<polyline clip-path="url(#clip861)" style="stroke:#000000; stroke-linecap:round; stroke-linejoin:round; stroke-width:2; stroke-opacity:0.1; fill:none" points="184.191,1205.97 2352.76,1205.97 "/>
<polyline clip-path="url(#clip861)" style="stroke:#000000; stroke-linecap:round; stroke-linejoin:round; stroke-width:2; stroke-opacity:0.1; fill:none" points="184.191,965.231 2352.76,965.231 "/>
<polyline clip-path="url(#clip861)" style="stroke:#000000; stroke-linecap:round; stroke-linejoin:round; stroke-width:2; stroke-opacity:0.1; fill:none" points="184.191,724.497 2352.76,724.497 "/>
<polyline clip-path="url(#clip861)" style="stroke:#000000; stroke-linecap:round; stroke-linejoin:round; stroke-width:2; stroke-opacity:0.1; fill:none" points="184.191,483.763 2352.76,483.763 "/>
<polyline clip-path="url(#clip861)" style="stroke:#000000; stroke-linecap:round; stroke-linejoin:round; stroke-width:2; stroke-opacity:0.1; fill:none" points="184.191,243.029 2352.76,243.029 "/>
<polyline clip-path="url(#clip860)" style="stroke:#000000; stroke-linecap:round; stroke-linejoin:round; stroke-width:4; stroke-opacity:1; fill:none" points="184.191,1423.18 2352.76,1423.18 "/>
<polyline clip-path="url(#clip860)" style="stroke:#000000; stroke-linecap:round; stroke-linejoin:round; stroke-width:4; stroke-opacity:1; fill:none" points="184.191,1423.18 184.191,1404.28 "/>
<polyline clip-path="url(#clip860)" style="stroke:#000000; stroke-linecap:round; stroke-linejoin:round; stroke-width:4; stroke-opacity:1; fill:none" points="617.904,1423.18 617.904,1404.28 "/>
<polyline clip-path="url(#clip860)" style="stroke:#000000; stroke-linecap:round; stroke-linejoin:round; stroke-width:4; stroke-opacity:1; fill:none" points="1051.62,1423.18 1051.62,1404.28 "/>
<polyline clip-path="url(#clip860)" style="stroke:#000000; stroke-linecap:round; stroke-linejoin:round; stroke-width:4; stroke-opacity:1; fill:none" points="1485.33,1423.18 1485.33,1404.28 "/>
<polyline clip-path="url(#clip860)" style="stroke:#000000; stroke-linecap:round; stroke-linejoin:round; stroke-width:4; stroke-opacity:1; fill:none" points="1919.04,1423.18 1919.04,1404.28 "/>
<polyline clip-path="url(#clip860)" style="stroke:#000000; stroke-linecap:round; stroke-linejoin:round; stroke-width:4; stroke-opacity:1; fill:none" points="2352.76,1423.18 2352.76,1404.28 "/>
<path clip-path="url(#clip860)" d="M184.191 1454.1 Q180.58 1454.1 178.751 1457.66 Q176.945 1461.2 176.945 1468.33 Q176.945 1475.44 178.751 1479.01 Q180.58 1482.55 184.191 1482.55 Q187.825 1482.55 189.63 1479.01 Q191.459 1475.44 191.459 1468.33 Q191.459 1461.2 189.63 1457.66 Q187.825 1454.1 184.191 1454.1 M184.191 1450.39 Q190.001 1450.39 193.056 1455 Q196.135 1459.58 196.135 1468.33 Q196.135 1477.06 193.056 1481.67 Q190.001 1486.25 184.191 1486.25 Q178.381 1486.25 175.302 1481.67 Q172.246 1477.06 172.246 1468.33 Q172.246 1459.58 175.302 1455 Q178.381 1450.39 184.191 1450.39 Z" fill="#000000" fill-rule="nonzero" fill-opacity="1" /><path clip-path="url(#clip860)" d="M608.286 1481.64 L615.925 1481.64 L615.925 1455.28 L607.614 1456.95 L607.614 1452.69 L615.878 1451.02 L620.554 1451.02 L620.554 1481.64 L628.193 1481.64 L628.193 1485.58 L608.286 1485.58 L608.286 1481.64 Z" fill="#000000" fill-rule="nonzero" fill-opacity="1" /><path clip-path="url(#clip860)" d="M1046.27 1481.64 L1062.59 1481.64 L1062.59 1485.58 L1040.64 1485.58 L1040.64 1481.64 Q1043.31 1478.89 1047.89 1474.26 Q1052.5 1469.61 1053.68 1468.27 Q1055.92 1465.74 1056.8 1464.01 Q1057.7 1462.25 1057.7 1460.56 Q1057.7 1457.8 1055.76 1456.07 Q1053.84 1454.33 1050.74 1454.33 Q1048.54 1454.33 1046.08 1455.09 Q1043.65 1455.86 1040.88 1457.41 L1040.88 1452.69 Q1043.7 1451.55 1046.15 1450.97 Q1048.61 1450.39 1050.64 1450.39 Q1056.01 1450.39 1059.21 1453.08 Q1062.4 1455.77 1062.4 1460.26 Q1062.4 1462.39 1061.59 1464.31 Q1060.81 1466.2 1058.7 1468.8 Q1058.12 1469.47 1055.02 1472.69 Q1051.92 1475.88 1046.27 1481.64 Z" fill="#000000" fill-rule="nonzero" fill-opacity="1" /><path clip-path="url(#clip860)" d="M1489.58 1466.95 Q1492.93 1467.66 1494.81 1469.93 Q1496.71 1472.2 1496.71 1475.53 Q1496.71 1480.65 1493.19 1483.45 Q1489.67 1486.25 1483.19 1486.25 Q1481.01 1486.25 1478.7 1485.81 Q1476.41 1485.39 1473.95 1484.54 L1473.95 1480.02 Q1475.9 1481.16 1478.21 1481.74 Q1480.53 1482.32 1483.05 1482.32 Q1487.45 1482.32 1489.74 1480.58 Q1492.05 1478.84 1492.05 1475.53 Q1492.05 1472.48 1489.9 1470.77 Q1487.77 1469.03 1483.95 1469.03 L1479.92 1469.03 L1479.92 1465.19 L1484.14 1465.19 Q1487.59 1465.19 1489.42 1463.82 Q1491.24 1462.43 1491.24 1459.84 Q1491.24 1457.18 1489.35 1455.77 Q1487.47 1454.33 1483.95 1454.33 Q1482.03 1454.33 1479.83 1454.75 Q1477.63 1455.16 1474.99 1456.04 L1474.99 1451.88 Q1477.66 1451.14 1479.97 1450.77 Q1482.31 1450.39 1484.37 1450.39 Q1489.69 1450.39 1492.8 1452.83 Q1495.9 1455.23 1495.9 1459.35 Q1495.9 1462.22 1494.25 1464.21 Q1492.61 1466.18 1489.58 1466.95 Z" fill="#000000" fill-rule="nonzero" fill-opacity="1" /><path clip-path="url(#clip860)" d="M1922.05 1455.09 L1910.25 1473.54 L1922.05 1473.54 L1922.05 1455.09 M1920.83 1451.02 L1926.7 1451.02 L1926.7 1473.54 L1931.64 1473.54 L1931.64 1477.43 L1926.7 1477.43 L1926.7 1485.58 L1922.05 1485.58 L1922.05 1477.43 L1906.45 1477.43 L1906.45 1472.92 L1920.83 1451.02 Z" fill="#000000" fill-rule="nonzero" fill-opacity="1" /><path clip-path="url(#clip860)" d="M2343.03 1451.02 L2361.39 1451.02 L2361.39 1454.96 L2347.32 1454.96 L2347.32 1463.43 Q2348.33 1463.08 2349.35 1462.92 Q2350.37 1462.73 2351.39 1462.73 Q2357.18 1462.73 2360.56 1465.9 Q2363.94 1469.08 2363.94 1474.49 Q2363.94 1480.07 2360.46 1483.17 Q2356.99 1486.25 2350.67 1486.25 Q2348.5 1486.25 2346.23 1485.88 Q2343.98 1485.51 2341.58 1484.77 L2341.58 1480.07 Q2343.66 1481.2 2345.88 1481.76 Q2348.1 1482.32 2350.58 1482.32 Q2354.58 1482.32 2356.92 1480.21 Q2359.26 1478.1 2359.26 1474.49 Q2359.26 1470.88 2356.92 1468.77 Q2354.58 1466.67 2350.58 1466.67 Q2348.71 1466.67 2346.83 1467.08 Q2344.98 1467.5 2343.03 1468.38 L2343.03 1451.02 Z" fill="#000000" fill-rule="nonzero" fill-opacity="1" /><path clip-path="url(#clip860)" d="M1267.53 1522.27 L1267.53 1532.4 L1279.6 1532.4 L1279.6 1536.95 L1267.53 1536.95 L1267.53 1556.3 Q1267.53 1560.66 1268.71 1561.9 Q1269.92 1563.14 1273.58 1563.14 L1279.6 1563.14 L1279.6 1568.04 L1273.58 1568.04 Q1266.8 1568.04 1264.22 1565.53 Q1261.65 1562.98 1261.65 1556.3 L1261.65 1536.95 L1257.35 1536.95 L1257.35 1532.4 L1261.65 1532.4 L1261.65 1522.27 L1267.53 1522.27 Z" fill="#000000" fill-rule="nonzero" fill-opacity="1" /><polyline clip-path="url(#clip860)" style="stroke:#000000; stroke-linecap:round; stroke-linejoin:round; stroke-width:4; stroke-opacity:1; fill:none" points="184.191,1423.18 184.191,47.2441 "/>
<polyline clip-path="url(#clip860)" style="stroke:#000000; stroke-linecap:round; stroke-linejoin:round; stroke-width:4; stroke-opacity:1; fill:none" points="184.191,1205.97 203.088,1205.97 "/>
<polyline clip-path="url(#clip860)" style="stroke:#000000; stroke-linecap:round; stroke-linejoin:round; stroke-width:4; stroke-opacity:1; fill:none" points="184.191,965.231 203.088,965.231 "/>
<polyline clip-path="url(#clip860)" style="stroke:#000000; stroke-linecap:round; stroke-linejoin:round; stroke-width:4; stroke-opacity:1; fill:none" points="184.191,724.497 203.088,724.497 "/>
<polyline clip-path="url(#clip860)" style="stroke:#000000; stroke-linecap:round; stroke-linejoin:round; stroke-width:4; stroke-opacity:1; fill:none" points="184.191,483.763 203.088,483.763 "/>
<polyline clip-path="url(#clip860)" style="stroke:#000000; stroke-linecap:round; stroke-linejoin:round; stroke-width:4; stroke-opacity:1; fill:none" points="184.191,243.029 203.088,243.029 "/>
<path clip-path="url(#clip860)" d="M86.0382 1219.31 L102.358 1219.31 L102.358 1223.25 L80.4133 1223.25 L80.4133 1219.31 Q83.0753 1216.56 87.6586 1211.93 Q92.2651 1207.27 93.4456 1205.93 Q95.691 1203.41 96.5706 1201.67 Q97.4734 1199.91 97.4734 1198.22 Q97.4734 1195.47 95.5289 1193.73 Q93.6076 1192 90.5058 1192 Q88.3067 1192 85.8531 1192.76 Q83.4225 1193.52 80.6447 1195.07 L80.6447 1190.35 Q83.4688 1189.22 85.9225 1188.64 Q88.3762 1188.06 90.4132 1188.06 Q95.7836 1188.06 98.978 1190.75 Q102.172 1193.43 102.172 1197.92 Q102.172 1200.05 101.362 1201.97 Q100.575 1203.87 98.4687 1206.46 Q97.89 1207.13 94.7882 1210.35 Q91.6864 1213.55 86.0382 1219.31 Z" fill="#000000" fill-rule="nonzero" fill-opacity="1" /><path clip-path="url(#clip860)" d="M112.172 1217.37 L117.057 1217.37 L117.057 1223.25 L112.172 1223.25 L112.172 1217.37 Z" fill="#000000" fill-rule="nonzero" fill-opacity="1" /><path clip-path="url(#clip860)" d="M127.288 1188.69 L145.644 1188.69 L145.644 1192.62 L131.57 1192.62 L131.57 1201.09 Q132.589 1200.75 133.607 1200.58 Q134.626 1200.4 135.644 1200.4 Q141.431 1200.4 144.811 1203.57 Q148.191 1206.74 148.191 1212.16 Q148.191 1217.74 144.718 1220.84 Q141.246 1223.92 134.927 1223.92 Q132.751 1223.92 130.482 1223.55 Q128.237 1223.18 125.83 1222.44 L125.83 1217.74 Q127.913 1218.87 130.135 1219.43 Q132.357 1219.98 134.834 1219.98 Q138.839 1219.98 141.177 1217.87 Q143.515 1215.77 143.515 1212.16 Q143.515 1208.55 141.177 1206.44 Q138.839 1204.33 134.834 1204.33 Q132.959 1204.33 131.084 1204.75 Q129.232 1205.17 127.288 1206.05 L127.288 1188.69 Z" fill="#000000" fill-rule="nonzero" fill-opacity="1" /><path clip-path="url(#clip860)" d="M81.0614 947.951 L99.4178 947.951 L99.4178 951.886 L85.3438 951.886 L85.3438 960.359 Q86.3623 960.011 87.3808 959.849 Q88.3993 959.664 89.4178 959.664 Q95.2049 959.664 98.5845 962.835 Q101.964 966.007 101.964 971.423 Q101.964 977.002 98.4919 980.104 Q95.0197 983.183 88.7003 983.183 Q86.5243 983.183 84.2558 982.812 Q82.0105 982.442 79.6031 981.701 L79.6031 977.002 Q81.6864 978.136 83.9086 978.692 Q86.1308 979.247 88.6077 979.247 Q92.6123 979.247 94.9502 977.141 Q97.2882 975.034 97.2882 971.423 Q97.2882 967.812 94.9502 965.706 Q92.6123 963.599 88.6077 963.599 Q86.7327 963.599 84.8577 964.016 Q83.0058 964.433 81.0614 965.312 L81.0614 947.951 Z" fill="#000000" fill-rule="nonzero" fill-opacity="1" /><path clip-path="url(#clip860)" d="M111.177 976.632 L116.061 976.632 L116.061 982.511 L111.177 982.511 L111.177 976.632 Z" fill="#000000" fill-rule="nonzero" fill-opacity="1" /><path clip-path="url(#clip860)" d="M136.246 951.03 Q132.635 951.03 130.807 954.595 Q129.001 958.136 129.001 965.266 Q129.001 972.372 130.807 975.937 Q132.635 979.479 136.246 979.479 Q139.881 979.479 141.686 975.937 Q143.515 972.372 143.515 965.266 Q143.515 958.136 141.686 954.595 Q139.881 951.03 136.246 951.03 M136.246 947.326 Q142.056 947.326 145.112 951.933 Q148.191 956.516 148.191 965.266 Q148.191 973.993 145.112 978.599 Q142.056 983.183 136.246 983.183 Q130.436 983.183 127.357 978.599 Q124.302 973.993 124.302 965.266 Q124.302 956.516 127.357 951.933 Q130.436 947.326 136.246 947.326 Z" fill="#000000" fill-rule="nonzero" fill-opacity="1" /><path clip-path="url(#clip860)" d="M80.8299 707.217 L103.052 707.217 L103.052 709.208 L90.5058 741.777 L85.6216 741.777 L97.4271 711.152 L80.8299 711.152 L80.8299 707.217 Z" fill="#000000" fill-rule="nonzero" fill-opacity="1" /><path clip-path="url(#clip860)" d="M112.172 735.898 L117.057 735.898 L117.057 741.777 L112.172 741.777 L112.172 735.898 Z" fill="#000000" fill-rule="nonzero" fill-opacity="1" /><path clip-path="url(#clip860)" d="M127.288 707.217 L145.644 707.217 L145.644 711.152 L131.57 711.152 L131.57 719.625 Q132.589 719.277 133.607 719.115 Q134.626 718.93 135.644 718.93 Q141.431 718.93 144.811 722.101 Q148.191 725.273 148.191 730.689 Q148.191 736.268 144.718 739.37 Q141.246 742.448 134.927 742.448 Q132.751 742.448 130.482 742.078 Q128.237 741.708 125.83 740.967 L125.83 736.268 Q127.913 737.402 130.135 737.958 Q132.357 738.513 134.834 738.513 Q138.839 738.513 141.177 736.407 Q143.515 734.3 143.515 730.689 Q143.515 727.078 141.177 724.972 Q138.839 722.865 134.834 722.865 Q132.959 722.865 131.084 723.282 Q129.232 723.699 127.288 724.578 L127.288 707.217 Z" fill="#000000" fill-rule="nonzero" fill-opacity="1" /><path clip-path="url(#clip860)" d="M51.6634 497.108 L59.3023 497.108 L59.3023 470.742 L50.9921 472.409 L50.9921 468.15 L59.256 466.483 L63.9319 466.483 L63.9319 497.108 L71.5707 497.108 L71.5707 501.043 L51.6634 501.043 L51.6634 497.108 Z" fill="#000000" fill-rule="nonzero" fill-opacity="1" /><path clip-path="url(#clip860)" d="M91.0151 469.562 Q87.404 469.562 85.5753 473.127 Q83.7697 476.668 83.7697 483.798 Q83.7697 490.904 85.5753 494.469 Q87.404 498.011 91.0151 498.011 Q94.6493 498.011 96.4548 494.469 Q98.2835 490.904 98.2835 483.798 Q98.2835 476.668 96.4548 473.127 Q94.6493 469.562 91.0151 469.562 M91.0151 465.858 Q96.8252 465.858 99.8808 470.465 Q102.959 475.048 102.959 483.798 Q102.959 492.525 99.8808 497.131 Q96.8252 501.714 91.0151 501.714 Q85.2049 501.714 82.1262 497.131 Q79.0707 492.525 79.0707 483.798 Q79.0707 475.048 82.1262 470.465 Q85.2049 465.858 91.0151 465.858 Z" fill="#000000" fill-rule="nonzero" fill-opacity="1" /><path clip-path="url(#clip860)" d="M111.177 495.164 L116.061 495.164 L116.061 501.043 L111.177 501.043 L111.177 495.164 Z" fill="#000000" fill-rule="nonzero" fill-opacity="1" /><path clip-path="url(#clip860)" d="M136.246 469.562 Q132.635 469.562 130.807 473.127 Q129.001 476.668 129.001 483.798 Q129.001 490.904 130.807 494.469 Q132.635 498.011 136.246 498.011 Q139.881 498.011 141.686 494.469 Q143.515 490.904 143.515 483.798 Q143.515 476.668 141.686 473.127 Q139.881 469.562 136.246 469.562 M136.246 465.858 Q142.056 465.858 145.112 470.465 Q148.191 475.048 148.191 483.798 Q148.191 492.525 145.112 497.131 Q142.056 501.714 136.246 501.714 Q130.436 501.714 127.357 497.131 Q124.302 492.525 124.302 483.798 Q124.302 475.048 127.357 470.465 Q130.436 465.858 136.246 465.858 Z" fill="#000000" fill-rule="nonzero" fill-opacity="1" /><path clip-path="url(#clip860)" d="M52.6588 256.374 L60.2976 256.374 L60.2976 230.008 L51.9875 231.675 L51.9875 227.416 L60.2513 225.749 L64.9272 225.749 L64.9272 256.374 L72.5661 256.374 L72.5661 260.309 L52.6588 260.309 L52.6588 256.374 Z" fill="#000000" fill-rule="nonzero" fill-opacity="1" /><path clip-path="url(#clip860)" d="M86.0382 256.374 L102.358 256.374 L102.358 260.309 L80.4133 260.309 L80.4133 256.374 Q83.0753 253.619 87.6586 248.99 Q92.2651 244.337 93.4456 242.994 Q95.691 240.471 96.5706 238.735 Q97.4734 236.976 97.4734 235.286 Q97.4734 232.532 95.5289 230.795 Q93.6076 229.059 90.5058 229.059 Q88.3067 229.059 85.8531 229.823 Q83.4225 230.587 80.6447 232.138 L80.6447 227.416 Q83.4688 226.282 85.9225 225.703 Q88.3762 225.124 90.4132 225.124 Q95.7836 225.124 98.978 227.809 Q102.172 230.495 102.172 234.985 Q102.172 237.115 101.362 239.036 Q100.575 240.934 98.4687 243.527 Q97.89 244.198 94.7882 247.416 Q91.6864 250.61 86.0382 256.374 Z" fill="#000000" fill-rule="nonzero" fill-opacity="1" /><path clip-path="url(#clip860)" d="M112.172 254.43 L117.057 254.43 L117.057 260.309 L112.172 260.309 L112.172 254.43 Z" fill="#000000" fill-rule="nonzero" fill-opacity="1" /><path clip-path="url(#clip860)" d="M127.288 225.749 L145.644 225.749 L145.644 229.684 L131.57 229.684 L131.57 238.157 Q132.589 237.809 133.607 237.647 Q134.626 237.462 135.644 237.462 Q141.431 237.462 144.811 240.633 Q148.191 243.805 148.191 249.221 Q148.191 254.8 144.718 257.902 Q141.246 260.98 134.927 260.98 Q132.751 260.98 130.482 260.61 Q128.237 260.24 125.83 259.499 L125.83 254.8 Q127.913 255.934 130.135 256.49 Q132.357 257.045 134.834 257.045 Q138.839 257.045 141.177 254.939 Q143.515 252.832 143.515 249.221 Q143.515 245.61 141.177 243.504 Q138.839 241.397 134.834 241.397 Q132.959 241.397 131.084 241.814 Q129.232 242.231 127.288 243.11 L127.288 225.749 Z" fill="#000000" fill-rule="nonzero" fill-opacity="1" /><polyline clip-path="url(#clip861)" style="stroke:#009af9; stroke-linecap:round; stroke-linejoin:round; stroke-width:4; stroke-opacity:1; fill:none" points="184.191,1350.41 188.528,1350.41 192.865,1350.43 197.202,1350.44 201.539,1350.51 205.876,1350.5 210.213,1350.49 214.551,1350.49 218.888,1350.48 223.225,1350.49 227.562,1350.52 231.899,1350.52 236.236,1350.53 240.573,1350.52 244.911,1350.53 249.248,1350.49 253.585,1350.51 257.922,1350.72 262.259,1351.24 266.596,1351.95 270.933,1352.5 275.27,1352.73 279.608,1352.74 283.945,1352.75 288.282,1352.96 292.619,1352.86 296.956,1352.82 301.293,1352.89 305.63,1352.94 309.967,1352.78 314.305,1352.52 318.642,1352.11 322.979,1351.71 327.316,1351.29 331.653,1350.89 335.99,1350.81 340.327,1350.84 344.665,1350.88 349.002,1350.98 353.339,1350.73 357.676,1350.41 362.013,1350.11 366.35,1349.7 370.687,1349.39 375.024,1349.28 379.362,1349.27 383.699,1349.46 388.036,1349.4 392.373,1349.17 396.71,1349.08 401.047,1349.15 405.384,1349.27 409.721,1349.35 414.059,1349.43 418.396,1349.64 422.733,1349.9 427.07,1350.28 431.407,1350.64 435.744,1351.12 440.081,1351.73 444.419,1352.29 448.756,1352.94 453.093,1353.05 457.43,1353.19 461.767,1353.26 466.104,1353.25 470.441,1353.41 474.778,1353.51 479.116,1353.68 483.453,1353.67 487.79,1353.56 492.127,1353.7 496.464,1353.91 500.801,1353.94 505.138,1354.16 509.475,1354.42 513.813,1354.6 518.15,1354.72 522.487,1354.8 526.824,1354.72 531.161,1354.76 535.498,1354.71 539.835,1355.03 544.173,1355.18 548.51,1355.4 552.847,1355.72 557.184,1356.24 561.521,1356.56 565.858,1357.08 570.195,1357.69 574.532,1358.36 578.87,1359.03 583.207,1359.52 587.544,1360.02 591.881,1360.64 596.218,1361.15 600.555,1361.44 604.892,1361.85 609.229,1362.23 613.567,1362.64 617.904,1362.96 622.241,1363.19 626.578,1363.53 630.915,1363.85 635.252,1364.15 639.589,1364.49 643.927,1364.91 648.264,1365.4 652.601,1365.98 656.938,1366.57 661.275,1366.91 665.612,1367.45 669.949,1367.92 674.286,1368.47 678.624,1368.93 682.961,1369.53 687.298,1370.24 691.635,1370.91 695.972,1371.31 700.309,1371.66 704.646,1371.81 708.983,1371.88 713.321,1371.76 717.658,1371.7 721.995,1371.65 726.332,1371.71 730.669,1371.94 735.006,1372.16 739.343,1372.41 743.681,1372.76 748.018,1373.3 752.355,1373.83 756.692,1374.24 761.029,1374.45 765.366,1374.4 769.703,1374.32 774.04,1374.27 778.378,1374.28 782.715,1374.35 787.052,1374.55 791.389,1374.48 795.726,1374.41 800.063,1374.17 804.4,1373.84 808.737,1373.4 813.075,1372.95 817.412,1372.61 821.749,1372.2 826.086,1371.6 830.423,1370.77 834.76,1370.01 839.097,1369.18 843.435,1368.62 847.772,1368.19 852.109,1367.76 856.446,1367.29 860.783,1367.04 865.12,1366.85 869.457,1366.75 873.794,1366.75 878.132,1366.65 882.469,1366.69 886.806,1366.52 891.143,1366.11 895.48,1365.62 899.817,1365.1 904.154,1364.45 908.491,1363.75 912.829,1363.05 917.166,1362.15 921.503,1361.22 925.84,1359.98 930.177,1358.66 934.514,1357.55 938.851,1356.32 943.189,1355.22 947.526,1353.87 951.863,1352.48 956.2,1351.1 960.537,1349.63 964.874,1348.24 969.211,1346.59 973.548,1345.1 977.886,1343.56 982.223,1341.74 986.56,1339.78 990.897,1337.71 995.234,1335.45 999.571,1332.87 1003.91,1330.62 1008.25,1328.28 1012.58,1325.99 1016.92,1323.64 1021.26,1322.04 1025.59,1320.09 1029.93,1317.73 1034.27,1315.21 1038.61,1312.43 1042.94,1309.66 1047.28,1307.26 1051.62,1304.71 1055.95,1302.05 1060.29,1299.34 1064.63,1296.56 1068.97,1293.99 1073.3,1291.3 1077.64,1288.55 1081.98,1286.42 1086.31,1283.96 1090.65,1281.81 1094.99,1279.74 1099.33,1277.64 1103.66,1275.05 1108,1272.99 1112.34,1270.83 1116.67,1269.13 1121.01,1267.94 1125.35,1266.4 1129.69,1264.4 1134.02,1262.39 1138.36,1260.11 1142.7,1257.81 1147.03,1255.6 1151.37,1253.82 1155.71,1253.12 1160.05,1251.88 1164.38,1249.93 1168.72,1247.81 1173.06,1244.98 1177.39,1242.06 1181.73,1238.61 1186.07,1234.33 1190.4,1230.08 1194.74,1226.34 1199.08,1222.93 1203.42,1218.81 1207.75,1214.36 1212.09,1209.83 1216.43,1204.85 1220.76,1200.08 1225.1,1194.65 1229.44,1189.09 1233.78,1183.43 1238.11,1178.68 1242.45,1174.6 1246.79,1170.02 1251.12,1167.67 1255.46,1164.76 1259.8,1160.65 1264.14,1158.94 1268.47,1159.16 1272.81,1160.69 1277.15,1161.84 1281.48,1162.85 1285.82,1163.62 1290.16,1164.19 1294.5,1163.81 1298.83,1162.01 1303.17,1159.77 1307.51,1156.97 1311.84,1153.96 1316.18,1152.63 1320.52,1151.41 1324.86,1151.19 1329.19,1151.05 1333.53,1151 1337.87,1151.69 1342.2,1153.24 1346.54,1154.1 1350.88,1154.57 1355.22,1155.13 1359.55,1155.53 1363.89,1155.03 1368.23,1154.88 1372.56,1154.75 1376.9,1154.87 1381.24,1155.53 1385.58,1155.95 1389.91,1156 1394.25,1155.92 1398.59,1155.82 1402.92,1156.2 1407.26,1157.13 1411.6,1157.97 1415.94,1158.56 1420.27,1159.15 1424.61,1159.7 1428.95,1160.04 1433.28,1160.34 1437.62,1160.61 1441.96,1160.68 1446.3,1160.67 1450.63,1160.59 1454.97,1160.43 1459.31,1160.43 1463.64,1160.54 1467.98,1160.71 1472.32,1161.44 1476.66,1161.69 1480.99,1161.77 1485.33,1161.32 1489.67,1160.95 1494,1160.75 1498.34,1160.44 1502.68,1160.59 1507.02,1160.61 1511.35,1160.61 1515.69,1160.66 1520.03,1160.75 1524.36,1161.28 1528.7,1161.96 1533.04,1162.41 1537.38,1162.83 1541.71,1163.45 1546.05,1163.65 1550.39,1164.06 1554.72,1164.27 1559.06,1164.2 1563.4,1164.1 1567.74,1164.67 1572.07,1165.06 1576.41,1165.67 1580.75,1165.44 1585.08,1164.82 1589.42,1164.02 1593.76,1162.75 1598.1,1161.98 1602.43,1161.49 1606.77,1160.95 1611.11,1160.66 1615.44,1160.64 1619.78,1160.6 1624.12,1160.7 1628.46,1160.67 1632.79,1160.31 1637.13,1160.2 1641.47,1160.29 1645.8,1160.35 1650.14,1160.43 1654.48,1160.45 1658.82,1160.44 1663.15,1160.6 1667.49,1161.25 1671.83,1162.51 1676.16,1162.76 1680.5,1162.89 1684.84,1162.09 1689.17,1161.11 1693.51,1160.32 1697.85,1159.39 1702.19,1157.89 1706.52,1156.17 1710.86,1153.86 1715.2,1151.01 1719.53,1147.46 1723.87,1144.35 1728.21,1142.33 1732.55,1139.91 1736.88,1137.75 1741.22,1135.59 1745.56,1133.9 1749.89,1132.06 1754.23,1129.83 1758.57,1126.17 1762.91,1122.39 1767.24,1118.65 1771.58,1115.2 1775.92,1111.92 1780.25,1108.26 1784.59,1104.62 1788.93,1101.1 1793.27,1096.7 1797.6,1091.52 1801.94,1086.36 1806.28,1079.6 1810.61,1072.98 1814.95,1067.35 1819.29,1062.73 1823.63,1057.78 1827.96,1053.65 1832.3,1049.93 1836.64,1045.71 1840.97,1041.2 1845.31,1036.22 1849.65,1031.14 1853.99,1027.21 1858.32,1023.5 1862.66,1020.23 1867,1017.09 1871.33,1013.96 1875.67,1010.52 1880.01,1006.21 1884.35,1003.41 1888.68,999.984 1893.02,996.92 1897.36,993.88 1901.69,990.331 1906.03,984.769 1910.37,979.205 1914.71,974.637 1919.04,971.04 1923.38,968.06 1927.72,964.342 1932.05,960.905 1936.39,956.617 1940.73,952.095 1945.07,947.615 1949.4,943.272 1953.74,938.228 1958.08,933.65 1962.41,928.977 1966.75,924.55 1971.09,918.956 1975.43,913.962 1979.76,908.611 1984.1,902.564 1988.44,898.72 1992.77,894.45 1997.11,891.57 2001.45,888.738 2005.79,885.836 2010.12,882.965 2014.46,880.85 2018.8,878.198 2023.13,876.283 2027.47,874.438 2031.81,872.686 2036.15,871.097 2040.48,872.094 2044.82,873.07 2049.16,874.172 2053.49,875.41 2057.83,877.243 2062.17,880.804 2066.51,884.534 2070.84,886.772 2075.18,888.839 2079.52,891.576 2083.85,894.048 2088.19,896.642 2092.53,899.189 2096.87,902.555 2101.2,905.018 2105.54,908.254 2109.88,911.118 2114.21,912.8 2118.55,914.146 2122.89,915.083 2127.23,916.073 2131.56,917.947 2135.9,920.119 2140.24,922.402 2144.57,924.341 2148.91,925.954 2153.25,928.919 2157.59,930.388 2161.92,932.487 2166.26,934.272 2170.6,937.202 2174.93,940.203 2179.27,943.507 2183.61,947.264 2187.94,951.97 2192.28,955.423 2196.62,959.833 2200.96,962.039 2205.29,964.348 2209.63,967.299 2213.97,969.607 2218.3,973.275 2222.64,977.819 2226.98,982.605 2231.32,988.85 2235.65,997.991 2239.99,1007.32 2244.33,1015.76 2248.66,1022.17 2253,1026.33 2257.34,1030.37 2261.68,1031.78 2266.01,1032.52 2270.35,1034.28 2274.69,1036 2279.02,1037.14 2283.36,1039.1 2287.7,1039.87 2292.04,1040.04 2296.37,1039.76 2300.71,1039.33 2305.05,1038.66 2309.38,1037.13 2313.72,1034.78 2318.06,1032.02 2322.4,1030.06 2326.73,1028.15 2331.07,1025.86 2335.41,1023.34 2339.74,1020.89 2344.08,1017.84 2348.42,1015.84 2352.76,1012.73 "/>
<polyline clip-path="url(#clip861)" style="stroke:#e26f46; stroke-linecap:round; stroke-linejoin:round; stroke-width:4; stroke-opacity:1; fill:none" points="184.191,1350.41 188.528,1352.33 192.865,1354.21 197.202,1356.02 201.539,1357.75 205.876,1359.43 210.213,1361.11 214.551,1362.56 218.888,1363.97 223.225,1365.21 227.562,1366.58 231.899,1367.74 236.236,1368.66 240.573,1369.7 244.911,1370.67 249.248,1371.45 253.585,1372.28 257.922,1373.23 262.259,1374.05 266.596,1374.65 270.933,1375.29 275.27,1375.9 279.608,1376.44 283.945,1376.85 288.282,1377.18 292.619,1377.54 296.956,1377.6 301.293,1377.52 305.63,1377.49 309.967,1377.92 314.305,1378.42 318.642,1378.93 322.979,1379.33 327.316,1379.58 331.653,1379.97 335.99,1380.11 340.327,1380.2 344.665,1380.32 349.002,1380.55 353.339,1380.86 357.676,1380.9 362.013,1380.91 366.35,1381.06 370.687,1381.23 375.024,1381.57 379.362,1381.59 383.699,1381.68 388.036,1381.98 392.373,1382.28 396.71,1382.73 401.047,1382.84 405.384,1383.1 409.721,1383.29 414.059,1383.14 418.396,1383.04 422.733,1382.91 427.07,1382.9 431.407,1383.13 435.744,1383.43 440.081,1383.82 444.419,1384.2 448.756,1384.24 453.093,1383.93 457.43,1383.62 461.767,1383.33 466.104,1383.1 470.441,1382.7 474.778,1382.46 479.116,1382.04 483.453,1381.58 487.79,1380.98 492.127,1380.24 496.464,1379.51 500.801,1378.94 505.138,1378.26 509.475,1377.57 513.813,1376.91 518.15,1376.24 522.487,1375.52 526.824,1374.79 531.161,1374.3 535.498,1374.03 539.835,1373.89 544.173,1373.7 548.51,1373.46 552.847,1373.2 557.184,1373.12 561.521,1373.14 565.858,1372.96 570.195,1372.93 574.532,1372.65 578.87,1372.7 583.207,1372.66 587.544,1372.4 591.881,1371.98 596.218,1371.71 600.555,1371.27 604.892,1370.74 609.229,1369.83 613.567,1368.74 617.904,1367.44 622.241,1366.08 626.578,1364.9 630.915,1363.69 635.252,1362.36 639.589,1360.92 643.927,1359.34 648.264,1357.69 652.601,1356 656.938,1354.24 661.275,1352.44 665.612,1350.6 669.949,1348.72 674.286,1346.78 678.624,1344.79 682.961,1342.83 687.298,1340.81 691.635,1338.75 695.972,1336.75 700.309,1334.59 704.646,1332.35 708.983,1330.09 713.321,1327.76 717.658,1325.38 721.995,1322.96 726.332,1320.49 730.669,1317.97 735.006,1315.39 739.343,1312.78 743.681,1310.11 748.018,1307.41 752.355,1304.63 756.692,1301.79 761.029,1298.92 765.366,1296.04 769.703,1293.2 774.04,1290.46 778.378,1287.49 782.715,1284.36 787.052,1281.45 791.389,1278.72 795.726,1276.25 800.063,1273.81 804.4,1271.43 808.737,1269.01 813.075,1266.82 817.412,1264.31 821.749,1261.82 826.086,1258.94 830.423,1256.33 834.76,1253.32 839.097,1250.38 843.435,1247.58 847.772,1244.89 852.109,1242.27 856.446,1239.01 860.783,1236.31 865.12,1233.74 869.457,1230.98 873.794,1228.82 878.132,1225.85 882.469,1223.17 886.806,1220.05 891.143,1216.43 895.48,1212.95 899.817,1210.27 904.154,1207.62 908.491,1204.76 912.829,1201.98 917.166,1199.04 921.503,1195.25 925.84,1190.81 930.177,1186.27 934.514,1181.57 938.851,1176.5 943.189,1171.13 947.526,1165.69 951.863,1160.09 956.2,1154.4 960.537,1148.64 964.874,1143 969.211,1137.17 973.548,1131.15 977.886,1125.09 982.223,1119.09 986.56,1113.23 990.897,1106.84 995.234,1100.06 999.571,1093.18 1003.91,1086.15 1008.25,1078.95 1012.58,1071.63 1016.92,1064.13 1021.26,1056.5 1025.59,1049.04 1029.93,1041.19 1034.27,1033.27 1038.61,1025.05 1042.94,1016.77 1047.28,1008.28 1051.62,999.869 1055.95,991.231 1060.29,982.563 1064.63,973.753 1068.97,964.419 1073.3,954.808 1077.64,945.026 1081.98,935.393 1086.31,925.183 1090.65,914.756 1094.99,904.126 1099.33,893.301 1103.66,882.284 1108,871.037 1112.34,859.551 1116.67,848.232 1121.01,836.679 1125.35,825.176 1129.69,814.181 1134.02,803.139 1138.36,791.336 1142.7,779.409 1147.03,769.039 1151.37,757.507 1155.71,745.065 1160.05,732.33 1164.38,718.66 1168.72,704.852 1173.06,690.382 1177.39,675.413 1181.73,660.006 1186.07,644.706 1190.4,629.278 1194.74,612.934 1199.08,596.885 1203.42,580.791 1207.75,565.882 1212.09,549.128 1216.43,531.505 1220.76,514.477 1225.1,496.919 1229.44,478.921 1233.78,463.134 1238.11,447.347 1242.45,430.577 1246.79,413.673 1251.12,394.25 1255.46,374.538 1259.8,354.252 1264.14,333.506 1268.47,311.315 1272.81,289.617 1277.15,266.664 1281.48,243.46 1285.82,219.887 1290.16,197.218 1294.5,175.237 1298.83,158.011 1303.17,140.787 1307.51,127.301 1311.84,116.618 1316.18,111.174 1320.52,104.04 1324.86,102.866 1329.19,98.0144 1333.53,94.8771 1337.87,92.7769 1342.2,86.8785 1346.54,86.1857 1350.88,86.4162 1355.22,89.2387 1359.55,94.2803 1363.89,96.2036 1368.23,100.615 1372.56,106.299 1376.9,112.469 1381.24,127.214 1385.58,145.918 1389.91,163.365 1394.25,176.123 1398.59,189.592 1402.92,204.112 1407.26,218.728 1411.6,234.777 1415.94,244.139 1420.27,253.95 1424.61,263.956 1428.95,273.196 1433.28,284.118 1437.62,295.623 1441.96,314.446 1446.3,334.088 1450.63,354.635 1454.97,373.64 1459.31,390.709 1463.64,409.361 1467.98,427.249 1472.32,444.995 1476.66,462.91 1480.99,478.036 1485.33,490.514 1489.67,505.459 1494,521.16 1498.34,536.528 1502.68,552.124 1507.02,569.072 1511.35,585.199 1515.69,601.914 1520.03,618.368 1524.36,634.181 1528.7,650.095 1533.04,665.917 1537.38,681.215 1541.71,695.963 1546.05,710.158 1550.39,723.027 1554.72,736.301 1559.06,749.183 1563.4,762.576 1567.74,776.101 1572.07,789.509 1576.41,802.325 1580.75,813.05 1585.08,823.153 1589.42,833.401 1593.76,843.902 1598.1,854.372 1602.43,864.214 1606.77,874.652 1611.11,885.851 1615.44,896.876 1619.78,907.156 1624.12,916.756 1628.46,926.114 1632.79,935.175 1637.13,942.32 1641.47,950.248 1645.8,958.528 1650.14,966.331 1654.48,973.291 1658.82,979.502 1663.15,986.24 1667.49,993.846 1671.83,1000.98 1676.16,1005.34 1680.5,1010.05 1684.84,1014.2 1689.17,1017.61 1693.51,1019.5 1697.85,1020.34 1702.19,1020.11 1706.52,1017.7 1710.86,1014.81 1715.2,1012.19 1719.53,1009.76 1723.87,1006.6 1728.21,1001.77 1732.55,997.907 1736.88,994.787 1741.22,992.439 1745.56,989.271 1749.89,987.043 1754.23,982.866 1758.57,980.409 1762.91,975.542 1767.24,971.377 1771.58,968.024 1775.92,964.752 1780.25,961.211 1784.59,958.546 1788.93,957.252 1793.27,956.007 1797.6,953.042 1801.94,949.325 1806.28,944.875 1810.61,941.289 1814.95,936.449 1819.29,931.336 1823.63,927.078 1827.96,922.601 1832.3,918.8 1836.64,916.109 1840.97,915.571 1845.31,914.64 1849.65,915.505 1853.99,916.044 1858.32,917.774 1862.66,920.636 1867,925.339 1871.33,929.78 1875.67,935.103 1880.01,940.461 1884.35,947.479 1888.68,954.193 1893.02,961.25 1897.36,968.214 1901.69,974.822 1906.03,980.615 1910.37,985.481 1914.71,991.601 1919.04,996.772 1923.38,1003.08 1927.72,1010.6 1932.05,1017.73 1936.39,1024.41 1940.73,1031.49 1945.07,1038.87 1949.4,1045.77 1953.74,1052.83 1958.08,1060.49 1962.41,1068.08 1966.75,1074.58 1971.09,1081.4 1975.43,1088.28 1979.76,1095.22 1984.1,1101.78 1988.44,1108.66 1992.77,1115.27 1997.11,1121.87 2001.45,1128.37 2005.79,1134.72 2010.12,1140.61 2014.46,1145.84 2018.8,1151.63 2023.13,1157.48 2027.47,1162.98 2031.81,1168.62 2036.15,1174.05 2040.48,1179.28 2044.82,1184.38 2049.16,1189.48 2053.49,1194.54 2057.83,1199.2 2062.17,1204.02 2066.51,1208.79 2070.84,1213.39 2075.18,1217.87 2079.52,1222.23 2083.85,1226.67 2088.19,1231.05 2092.53,1235.25 2096.87,1239.15 2101.2,1243.2 2105.54,1247.11 2109.88,1251.02 2114.21,1254.75 2118.55,1258.54 2122.89,1262.05 2127.23,1265.63 2131.56,1268.94 2135.9,1272.27 2140.24,1275.36 2144.57,1278.44 2148.91,1281.44 2153.25,1284.33 2157.59,1287.1 2161.92,1290.02 2166.26,1292.72 2170.6,1295.36 2174.93,1297.97 2179.27,1300.71 2183.61,1303.55 2187.94,1306.41 2192.28,1309.2 2196.62,1311.95 2200.96,1314.6 2205.29,1317.23 2209.63,1319.64 2213.97,1322.16 2218.3,1324.61 2222.64,1326.81 2226.98,1329.03 2231.32,1331.02 2235.65,1332.98 2239.99,1335.09 2244.33,1337.01 2248.66,1338.89 2253,1340.72 2257.34,1342.75 2261.68,1344.6 2266.01,1346.33 2270.35,1347.84 2274.69,1349.21 2279.02,1350.61 2283.36,1352.12 2287.7,1353.5 2292.04,1354.77 2296.37,1355.64 2300.71,1356.46 2305.05,1357.47 2309.38,1358.54 2313.72,1359.45 2318.06,1360.33 2322.4,1361.15 2326.73,1361.96 2331.07,1362.49 2335.41,1363.15 2339.74,1363.66 2344.08,1363.89 2348.42,1363.96 2352.76,1363.94 "/>
<path clip-path="url(#clip860)" d="M1974.52 248.629 L2280.47 248.629 L2280.47 93.1086 L1974.52 93.1086  Z" fill="#ffffff" fill-rule="evenodd" fill-opacity="1"/>
<polyline clip-path="url(#clip860)" style="stroke:#000000; stroke-linecap:round; stroke-linejoin:round; stroke-width:4; stroke-opacity:1; fill:none" points="1974.52,248.629 2280.47,248.629 2280.47,93.1086 1974.52,93.1086 1974.52,248.629 "/>
<polyline clip-path="url(#clip860)" style="stroke:#009af9; stroke-linecap:round; stroke-linejoin:round; stroke-width:4; stroke-opacity:1; fill:none" points="1998.61,144.949 2143.18,144.949 "/>
<path clip-path="url(#clip860)" d="M2167.28 151.997 L2167.28 136.303 L2171.54 136.303 L2171.54 151.835 Q2171.54 155.516 2172.97 157.368 Q2174.41 159.196 2177.28 159.196 Q2180.73 159.196 2182.72 156.997 Q2184.73 154.798 2184.73 151.002 L2184.73 136.303 L2188.99 136.303 L2188.99 162.229 L2184.73 162.229 L2184.73 158.247 Q2183.18 160.608 2181.12 161.766 Q2179.08 162.9 2176.38 162.9 Q2171.91 162.9 2169.59 160.122 Q2167.28 157.344 2167.28 151.997 M2178 135.678 L2178 135.678 Z" fill="#000000" fill-rule="nonzero" fill-opacity="1" /><path clip-path="url(#clip860)" d="M2197.37 126.21 L2207.19 126.21 L2207.19 129.52 L2201.63 129.52 L2201.63 165.168 L2207.19 165.168 L2207.19 168.479 L2197.37 168.479 L2197.37 126.21 Z" fill="#000000" fill-rule="nonzero" fill-opacity="1" /><path clip-path="url(#clip860)" d="M2217.67 158.293 L2225.31 158.293 L2225.31 131.928 L2217 133.595 L2217 129.335 L2225.26 127.669 L2229.94 127.669 L2229.94 158.293 L2237.58 158.293 L2237.58 162.229 L2217.67 162.229 L2217.67 158.293 Z" fill="#000000" fill-rule="nonzero" fill-opacity="1" /><path clip-path="url(#clip860)" d="M2256.38 126.21 L2256.38 168.479 L2246.56 168.479 L2246.56 165.168 L2252.09 165.168 L2252.09 129.52 L2246.56 129.52 L2246.56 126.21 L2256.38 126.21 Z" fill="#000000" fill-rule="nonzero" fill-opacity="1" /><polyline clip-path="url(#clip860)" style="stroke:#e26f46; stroke-linecap:round; stroke-linejoin:round; stroke-width:4; stroke-opacity:1; fill:none" points="1998.61,196.789 2143.18,196.789 "/>
<path clip-path="url(#clip860)" d="M2167.28 203.837 L2167.28 188.143 L2171.54 188.143 L2171.54 203.675 Q2171.54 207.356 2172.97 209.208 Q2174.41 211.036 2177.28 211.036 Q2180.73 211.036 2182.72 208.837 Q2184.73 206.638 2184.73 202.842 L2184.73 188.143 L2188.99 188.143 L2188.99 214.069 L2184.73 214.069 L2184.73 210.087 Q2183.18 212.448 2181.12 213.606 Q2179.08 214.74 2176.38 214.74 Q2171.91 214.74 2169.59 211.962 Q2167.28 209.184 2167.28 203.837 M2178 187.518 L2178 187.518 Z" fill="#000000" fill-rule="nonzero" fill-opacity="1" /><path clip-path="url(#clip860)" d="M2197.37 178.05 L2207.19 178.05 L2207.19 181.36 L2201.63 181.36 L2201.63 217.008 L2207.19 217.008 L2207.19 220.319 L2197.37 220.319 L2197.37 178.05 Z" fill="#000000" fill-rule="nonzero" fill-opacity="1" /><path clip-path="url(#clip860)" d="M2220.89 210.133 L2237.21 210.133 L2237.21 214.069 L2215.26 214.069 L2215.26 210.133 Q2217.93 207.379 2222.51 202.749 Q2227.12 198.096 2228.3 196.754 Q2230.54 194.231 2231.42 192.495 Q2232.32 190.735 2232.32 189.046 Q2232.32 186.291 2230.38 184.555 Q2228.46 182.819 2225.36 182.819 Q2223.16 182.819 2220.7 183.583 Q2218.27 184.347 2215.5 185.897 L2215.5 181.175 Q2218.32 180.041 2220.77 179.462 Q2223.23 178.884 2225.26 178.884 Q2230.63 178.884 2233.83 181.569 Q2237.02 184.254 2237.02 188.745 Q2237.02 190.874 2236.21 192.796 Q2235.43 194.694 2233.32 197.286 Q2232.74 197.958 2229.64 201.175 Q2226.54 204.37 2220.89 210.133 Z" fill="#000000" fill-rule="nonzero" fill-opacity="1" /><path clip-path="url(#clip860)" d="M2256.38 178.05 L2256.38 220.319 L2246.56 220.319 L2246.56 217.008 L2252.09 217.008 L2252.09 181.36 L2246.56 181.36 L2246.56 178.05 L2256.38 178.05 Z" fill="#000000" fill-rule="nonzero" fill-opacity="1" /></svg>
