<?xml version="1.0" encoding="utf-8"?>
<svg xmlns="http://www.w3.org/2000/svg" xmlns:xlink="http://www.w3.org/1999/xlink" width="600" height="400" viewBox="0 0 2400 1600">
<defs>
  <clipPath id="clip570">
    <rect x="0" y="0" width="2400" height="1600"/>
  </clipPath>
</defs>
<path clip-path="url(#clip570)" d="M0 1600 L2400 1600 L2400 0 L0 0  Z" fill="#ffffff" fill-rule="evenodd" fill-opacity="1"/>
<defs>
  <clipPath id="clip571">
    <rect x="186" y="47" width="2167" height="1377"/>
  </clipPath>
</defs>
<path clip-path="url(#clip570)" d="M186.274 1423.18 L2352.76 1423.18 L2352.76 47.2441 L186.274 47.2441  Z" fill="#ffffff" fill-rule="evenodd" fill-opacity="1"/>
<polyline clip-path="url(#clip571)" style="stroke:#000000; stroke-linecap:round; stroke-linejoin:round; stroke-width:2; stroke-opacity:0.1; fill:none" points="186.274,1423.18 186.274,47.2441 "/>
<polyline clip-path="url(#clip571)" style="stroke:#000000; stroke-linecap:round; stroke-linejoin:round; stroke-width:2; stroke-opacity:0.1; fill:none" points="495.771,1423.18 495.771,47.2441 "/>
<polyline clip-path="url(#clip571)" style="stroke:#000000; stroke-linecap:round; stroke-linejoin:round; stroke-width:2; stroke-opacity:0.1; fill:none" points="805.269,1423.18 805.269,47.2441 "/>
<polyline clip-path="url(#clip571)" style="stroke:#000000; stroke-linecap:round; stroke-linejoin:round; stroke-width:2; stroke-opacity:0.1; fill:none" points="1114.77,1423.18 1114.77,47.2441 "/>
<polyline clip-path="url(#clip571)" style="stroke:#000000; stroke-linecap:round; stroke-linejoin:round; stroke-width:2; stroke-opacity:0.1; fill:none" points="1424.26,1423.18 1424.26,47.2441 "/>
<polyline clip-path="url(#clip571)" style="stroke:#000000; stroke-linecap:round; stroke-linejoin:round; stroke-width:2; stroke-opacity:0.1; fill:none" points="1733.76,1423.18 1733.76,47.2441 "/>
<polyline clip-path="url(#clip571)" style="stroke:#000000; stroke-linecap:round; stroke-linejoin:round; stroke-width:2; stroke-opacity:0.1; fill:none" points="2043.26,1423.18 2043.26,47.2441 "/>
<polyline clip-path="url(#clip571)" style="stroke:#000000; stroke-linecap:round; stroke-linejoin:round; stroke-width:2; stroke-opacity:0.1; fill:none" points="2352.76,1423.18 2352.76,47.2441 "/>
<polyline clip-path="url(#clip571)" style="stroke:#000000; stroke-linecap:round; stroke-linejoin:round; stroke-width:2; stroke-opacity:0.1; fill:none" points="186.274,1384.24 2352.76,1384.24 "/>
<polyline clip-path="url(#clip571)" style="stroke:#000000; stroke-linecap:round; stroke-linejoin:round; stroke-width:2; stroke-opacity:0.1; fill:none" points="186.274,1059.73 2352.76,1059.73 "/>
<polyline clip-path="url(#clip571)" style="stroke:#000000; stroke-linecap:round; stroke-linejoin:round; stroke-width:2; stroke-opacity:0.1; fill:none" points="186.274,735.212 2352.76,735.212 "/>
<polyline clip-path="url(#clip571)" style="stroke:#000000; stroke-linecap:round; stroke-linejoin:round; stroke-width:2; stroke-opacity:0.1; fill:none" points="186.274,410.699 2352.76,410.699 "/>
<polyline clip-path="url(#clip571)" style="stroke:#000000; stroke-linecap:round; stroke-linejoin:round; stroke-width:2; stroke-opacity:0.1; fill:none" points="186.274,86.1857 2352.76,86.1857 "/>
<polyline clip-path="url(#clip570)" style="stroke:#000000; stroke-linecap:round; stroke-linejoin:round; stroke-width:4; stroke-opacity:1; fill:none" points="186.274,1423.18 2352.76,1423.18 "/>
<polyline clip-path="url(#clip570)" style="stroke:#000000; stroke-linecap:round; stroke-linejoin:round; stroke-width:4; stroke-opacity:1; fill:none" points="186.274,1423.18 186.274,1404.28 "/>
<polyline clip-path="url(#clip570)" style="stroke:#000000; stroke-linecap:round; stroke-linejoin:round; stroke-width:4; stroke-opacity:1; fill:none" points="495.771,1423.18 495.771,1404.28 "/>
<polyline clip-path="url(#clip570)" style="stroke:#000000; stroke-linecap:round; stroke-linejoin:round; stroke-width:4; stroke-opacity:1; fill:none" points="805.269,1423.18 805.269,1404.28 "/>
<polyline clip-path="url(#clip570)" style="stroke:#000000; stroke-linecap:round; stroke-linejoin:round; stroke-width:4; stroke-opacity:1; fill:none" points="1114.77,1423.18 1114.77,1404.28 "/>
<polyline clip-path="url(#clip570)" style="stroke:#000000; stroke-linecap:round; stroke-linejoin:round; stroke-width:4; stroke-opacity:1; fill:none" points="1424.26,1423.18 1424.26,1404.28 "/>
<polyline clip-path="url(#clip570)" style="stroke:#000000; stroke-linecap:round; stroke-linejoin:round; stroke-width:4; stroke-opacity:1; fill:none" points="1733.76,1423.18 1733.76,1404.28 "/>
<polyline clip-path="url(#clip570)" style="stroke:#000000; stroke-linecap:round; stroke-linejoin:round; stroke-width:4; stroke-opacity:1; fill:none" points="2043.26,1423.18 2043.26,1404.28 "/>
<polyline clip-path="url(#clip570)" style="stroke:#000000; stroke-linecap:round; stroke-linejoin:round; stroke-width:4; stroke-opacity:1; fill:none" points="2352.76,1423.18 2352.76,1404.28 "/>
<path clip-path="url(#clip570)" d="M186.274 1454.1 Q182.663 1454.1 180.834 1457.66 Q179.029 1461.2 179.029 1468.33 Q179.029 1475.44 180.834 1479.01 Q182.663 1482.55 186.274 1482.55 Q189.908 1482.55 191.714 1479.01 Q193.542 1475.44 193.542 1468.33 Q193.542 1461.2 191.714 1457.66 Q189.908 1454.1 186.274 1454.1 M186.274 1450.39 Q192.084 1450.39 195.14 1455 Q198.218 1459.58 198.218 1468.33 Q198.218 1477.06 195.14 1481.67 Q192.084 1486.25 186.274 1486.25 Q180.464 1486.25 177.385 1481.67 Q174.33 1477.06 174.33 1468.33 Q174.33 1459.58 177.385 1455 Q180.464 1450.39 186.274 1450.39 Z" fill="#000000" fill-rule="nonzero" fill-opacity="1" /><path clip-path="url(#clip570)" d="M455.378 1481.64 L463.017 1481.64 L463.017 1455.28 L454.707 1456.95 L454.707 1452.69 L462.971 1451.02 L467.647 1451.02 L467.647 1481.64 L475.285 1481.64 L475.285 1485.58 L455.378 1485.58 L455.378 1481.64 Z" fill="#000000" fill-rule="nonzero" fill-opacity="1" /><path clip-path="url(#clip570)" d="M494.73 1454.1 Q491.119 1454.1 489.29 1457.66 Q487.484 1461.2 487.484 1468.33 Q487.484 1475.44 489.29 1479.01 Q491.119 1482.55 494.73 1482.55 Q498.364 1482.55 500.17 1479.01 Q501.998 1475.44 501.998 1468.33 Q501.998 1461.2 500.17 1457.66 Q498.364 1454.1 494.73 1454.1 M494.73 1450.39 Q500.54 1450.39 503.595 1455 Q506.674 1459.58 506.674 1468.33 Q506.674 1477.06 503.595 1481.67 Q500.54 1486.25 494.73 1486.25 Q488.92 1486.25 485.841 1481.67 Q482.785 1477.06 482.785 1468.33 Q482.785 1459.58 485.841 1455 Q488.92 1450.39 494.73 1450.39 Z" fill="#000000" fill-rule="nonzero" fill-opacity="1" /><path clip-path="url(#clip570)" d="M524.892 1454.1 Q521.281 1454.1 519.452 1457.66 Q517.646 1461.2 517.646 1468.33 Q517.646 1475.44 519.452 1479.01 Q521.281 1482.55 524.892 1482.55 Q528.526 1482.55 530.331 1479.01 Q532.16 1475.44 532.16 1468.33 Q532.16 1461.2 530.331 1457.66 Q528.526 1454.1 524.892 1454.1 M524.892 1450.39 Q530.702 1450.39 533.757 1455 Q536.836 1459.58 536.836 1468.33 Q536.836 1477.06 533.757 1481.67 Q530.702 1486.25 524.892 1486.25 Q519.081 1486.25 516.003 1481.67 Q512.947 1477.06 512.947 1468.33 Q512.947 1459.58 516.003 1455 Q519.081 1450.39 524.892 1450.39 Z" fill="#000000" fill-rule="nonzero" fill-opacity="1" /><path clip-path="url(#clip570)" d="M768.961 1481.64 L785.281 1481.64 L785.281 1485.58 L763.336 1485.58 L763.336 1481.64 Q765.998 1478.89 770.582 1474.26 Q775.188 1469.61 776.369 1468.27 Q778.614 1465.74 779.494 1464.01 Q780.396 1462.25 780.396 1460.56 Q780.396 1457.8 778.452 1456.07 Q776.531 1454.33 773.429 1454.33 Q771.23 1454.33 768.776 1455.09 Q766.345 1455.86 763.568 1457.41 L763.568 1452.69 Q766.392 1451.55 768.845 1450.97 Q771.299 1450.39 773.336 1450.39 Q778.706 1450.39 781.901 1453.08 Q785.095 1455.77 785.095 1460.26 Q785.095 1462.39 784.285 1464.31 Q783.498 1466.2 781.392 1468.8 Q780.813 1469.47 777.711 1472.69 Q774.609 1475.88 768.961 1481.64 Z" fill="#000000" fill-rule="nonzero" fill-opacity="1" /><path clip-path="url(#clip570)" d="M805.095 1454.1 Q801.484 1454.1 799.655 1457.66 Q797.85 1461.2 797.85 1468.33 Q797.85 1475.44 799.655 1479.01 Q801.484 1482.55 805.095 1482.55 Q808.729 1482.55 810.535 1479.01 Q812.364 1475.44 812.364 1468.33 Q812.364 1461.2 810.535 1457.66 Q808.729 1454.1 805.095 1454.1 M805.095 1450.39 Q810.905 1450.39 813.961 1455 Q817.04 1459.58 817.04 1468.33 Q817.04 1477.06 813.961 1481.67 Q810.905 1486.25 805.095 1486.25 Q799.285 1486.25 796.206 1481.67 Q793.151 1477.06 793.151 1468.33 Q793.151 1459.58 796.206 1455 Q799.285 1450.39 805.095 1450.39 Z" fill="#000000" fill-rule="nonzero" fill-opacity="1" /><path clip-path="url(#clip570)" d="M835.257 1454.1 Q831.646 1454.1 829.817 1457.66 Q828.012 1461.2 828.012 1468.33 Q828.012 1475.44 829.817 1479.01 Q831.646 1482.55 835.257 1482.55 Q838.891 1482.55 840.697 1479.01 Q842.526 1475.44 842.526 1468.33 Q842.526 1461.2 840.697 1457.66 Q838.891 1454.1 835.257 1454.1 M835.257 1450.39 Q841.067 1450.39 844.123 1455 Q847.201 1459.58 847.201 1468.33 Q847.201 1477.06 844.123 1481.67 Q841.067 1486.25 835.257 1486.25 Q829.447 1486.25 826.368 1481.67 Q823.313 1477.06 823.313 1468.33 Q823.313 1459.58 826.368 1455 Q829.447 1450.39 835.257 1450.39 Z" fill="#000000" fill-rule="nonzero" fill-opacity="1" /><path clip-path="url(#clip570)" d="M1088.53 1466.95 Q1091.88 1467.66 1093.76 1469.93 Q1095.66 1472.2 1095.66 1475.53 Q1095.66 1480.65 1092.14 1483.45 Q1088.62 1486.25 1082.14 1486.25 Q1079.96 1486.25 1077.65 1485.81 Q1075.36 1485.39 1072.9 1484.54 L1072.9 1480.02 Q1074.85 1481.16 1077.16 1481.74 Q1079.48 1482.32 1082 1482.32 Q1086.4 1482.32 1088.69 1480.58 Q1091 1478.84 1091 1475.53 Q1091 1472.48 1088.85 1470.77 Q1086.72 1469.03 1082.9 1469.03 L1078.88 1469.03 L1078.88 1465.19 L1083.09 1465.19 Q1086.54 1465.19 1088.37 1463.82 Q1090.19 1462.43 1090.19 1459.84 Q1090.19 1457.18 1088.3 1455.77 Q1086.42 1454.33 1082.9 1454.33 Q1080.98 1454.33 1078.78 1454.75 Q1076.58 1455.16 1073.94 1456.04 L1073.94 1451.88 Q1076.61 1451.14 1078.92 1450.77 Q1081.26 1450.39 1083.32 1450.39 Q1088.64 1450.39 1091.75 1452.83 Q1094.85 1455.23 1094.85 1459.35 Q1094.85 1462.22 1093.2 1464.21 Q1091.56 1466.18 1088.53 1466.95 Z" fill="#000000" fill-rule="nonzero" fill-opacity="1" /><path clip-path="url(#clip570)" d="M1114.52 1454.1 Q1110.91 1454.1 1109.08 1457.66 Q1107.28 1461.2 1107.28 1468.33 Q1107.28 1475.44 1109.08 1479.01 Q1110.91 1482.55 1114.52 1482.55 Q1118.16 1482.55 1119.96 1479.01 Q1121.79 1475.44 1121.79 1468.33 Q1121.79 1461.2 1119.96 1457.66 Q1118.16 1454.1 1114.52 1454.1 M1114.52 1450.39 Q1120.33 1450.39 1123.39 1455 Q1126.47 1459.58 1126.47 1468.33 Q1126.47 1477.06 1123.39 1481.67 Q1120.33 1486.25 1114.52 1486.25 Q1108.71 1486.25 1105.63 1481.67 Q1102.58 1477.06 1102.58 1468.33 Q1102.58 1459.58 1105.63 1455 Q1108.71 1450.39 1114.52 1450.39 Z" fill="#000000" fill-rule="nonzero" fill-opacity="1" /><path clip-path="url(#clip570)" d="M1144.69 1454.1 Q1141.07 1454.1 1139.25 1457.66 Q1137.44 1461.2 1137.44 1468.33 Q1137.44 1475.44 1139.25 1479.01 Q1141.07 1482.55 1144.69 1482.55 Q1148.32 1482.55 1150.12 1479.01 Q1151.95 1475.44 1151.95 1468.33 Q1151.95 1461.2 1150.12 1457.66 Q1148.32 1454.1 1144.69 1454.1 M1144.69 1450.39 Q1150.5 1450.39 1153.55 1455 Q1156.63 1459.58 1156.63 1468.33 Q1156.63 1477.06 1153.55 1481.67 Q1150.5 1486.25 1144.69 1486.25 Q1138.87 1486.25 1135.8 1481.67 Q1132.74 1477.06 1132.74 1468.33 Q1132.74 1459.58 1135.8 1455 Q1138.87 1450.39 1144.69 1450.39 Z" fill="#000000" fill-rule="nonzero" fill-opacity="1" /><path clip-path="url(#clip570)" d="M1397.35 1455.09 L1385.55 1473.54 L1397.35 1473.54 L1397.35 1455.09 M1396.13 1451.02 L1402.01 1451.02 L1402.01 1473.54 L1406.94 1473.54 L1406.94 1477.43 L1402.01 1477.43 L1402.01 1485.58 L1397.35 1485.58 L1397.35 1477.43 L1381.75 1477.43 L1381.75 1472.92 L1396.13 1451.02 Z" fill="#000000" fill-rule="nonzero" fill-opacity="1" /><path clip-path="url(#clip570)" d="M1424.67 1454.1 Q1421.06 1454.1 1419.23 1457.66 Q1417.42 1461.2 1417.42 1468.33 Q1417.42 1475.44 1419.23 1479.01 Q1421.06 1482.55 1424.67 1482.55 Q1428.3 1482.55 1430.11 1479.01 Q1431.94 1475.44 1431.94 1468.33 Q1431.94 1461.2 1430.11 1457.66 Q1428.3 1454.1 1424.67 1454.1 M1424.67 1450.39 Q1430.48 1450.39 1433.53 1455 Q1436.61 1459.58 1436.61 1468.33 Q1436.61 1477.06 1433.53 1481.67 Q1430.48 1486.25 1424.67 1486.25 Q1418.86 1486.25 1415.78 1481.67 Q1412.72 1477.06 1412.72 1468.33 Q1412.72 1459.58 1415.78 1455 Q1418.86 1450.39 1424.67 1450.39 Z" fill="#000000" fill-rule="nonzero" fill-opacity="1" /><path clip-path="url(#clip570)" d="M1454.83 1454.1 Q1451.22 1454.1 1449.39 1457.66 Q1447.59 1461.2 1447.59 1468.33 Q1447.59 1475.44 1449.39 1479.01 Q1451.22 1482.55 1454.83 1482.55 Q1458.46 1482.55 1460.27 1479.01 Q1462.1 1475.44 1462.1 1468.33 Q1462.1 1461.2 1460.27 1457.66 Q1458.46 1454.1 1454.83 1454.1 M1454.83 1450.39 Q1460.64 1450.39 1463.7 1455 Q1466.78 1459.58 1466.78 1468.33 Q1466.78 1477.06 1463.7 1481.67 Q1460.64 1486.25 1454.83 1486.25 Q1449.02 1486.25 1445.94 1481.67 Q1442.89 1477.06 1442.89 1468.33 Q1442.89 1459.58 1445.94 1455 Q1449.02 1450.39 1454.83 1450.39 Z" fill="#000000" fill-rule="nonzero" fill-opacity="1" /><path clip-path="url(#clip570)" d="M1693.38 1451.02 L1711.74 1451.02 L1711.74 1454.96 L1697.66 1454.96 L1697.66 1463.43 Q1698.68 1463.08 1699.7 1462.92 Q1700.72 1462.73 1701.74 1462.73 Q1707.52 1462.73 1710.9 1465.9 Q1714.28 1469.08 1714.28 1474.49 Q1714.28 1480.07 1710.81 1483.17 Q1707.34 1486.25 1701.02 1486.25 Q1698.84 1486.25 1696.57 1485.88 Q1694.33 1485.51 1691.92 1484.77 L1691.92 1480.07 Q1694 1481.2 1696.23 1481.76 Q1698.45 1482.32 1700.93 1482.32 Q1704.93 1482.32 1707.27 1480.21 Q1709.61 1478.1 1709.61 1474.49 Q1709.61 1470.88 1707.27 1468.77 Q1704.93 1466.67 1700.93 1466.67 Q1699.05 1466.67 1697.18 1467.08 Q1695.32 1467.5 1693.38 1468.38 L1693.38 1451.02 Z" fill="#000000" fill-rule="nonzero" fill-opacity="1" /><path clip-path="url(#clip570)" d="M1733.49 1454.1 Q1729.88 1454.1 1728.06 1457.66 Q1726.25 1461.2 1726.25 1468.33 Q1726.25 1475.44 1728.06 1479.01 Q1729.88 1482.55 1733.49 1482.55 Q1737.13 1482.55 1738.93 1479.01 Q1740.76 1475.44 1740.76 1468.33 Q1740.76 1461.2 1738.93 1457.66 Q1737.13 1454.1 1733.49 1454.1 M1733.49 1450.39 Q1739.31 1450.39 1742.36 1455 Q1745.44 1459.58 1745.44 1468.33 Q1745.44 1477.06 1742.36 1481.67 Q1739.31 1486.25 1733.49 1486.25 Q1727.68 1486.25 1724.61 1481.67 Q1721.55 1477.06 1721.55 1468.33 Q1721.55 1459.58 1724.61 1455 Q1727.68 1450.39 1733.49 1450.39 Z" fill="#000000" fill-rule="nonzero" fill-opacity="1" /><path clip-path="url(#clip570)" d="M1763.66 1454.1 Q1760.05 1454.1 1758.22 1457.66 Q1756.41 1461.2 1756.41 1468.33 Q1756.41 1475.44 1758.22 1479.01 Q1760.05 1482.55 1763.66 1482.55 Q1767.29 1482.55 1769.1 1479.01 Q1770.93 1475.44 1770.93 1468.33 Q1770.93 1461.2 1769.1 1457.66 Q1767.29 1454.1 1763.66 1454.1 M1763.66 1450.39 Q1769.47 1450.39 1772.52 1455 Q1775.6 1459.58 1775.6 1468.33 Q1775.6 1477.06 1772.52 1481.67 Q1769.47 1486.25 1763.66 1486.25 Q1757.85 1486.25 1754.77 1481.67 Q1751.71 1477.06 1751.71 1468.33 Q1751.71 1459.58 1754.77 1455 Q1757.85 1450.39 1763.66 1450.39 Z" fill="#000000" fill-rule="nonzero" fill-opacity="1" /><path clip-path="url(#clip570)" d="M2013.58 1466.44 Q2010.43 1466.44 2008.58 1468.59 Q2006.75 1470.74 2006.75 1474.49 Q2006.75 1478.22 2008.58 1480.39 Q2010.43 1482.55 2013.58 1482.55 Q2016.73 1482.55 2018.56 1480.39 Q2020.41 1478.22 2020.41 1474.49 Q2020.41 1470.74 2018.56 1468.59 Q2016.73 1466.44 2013.58 1466.44 M2022.87 1451.78 L2022.87 1456.04 Q2021.11 1455.21 2019.3 1454.77 Q2017.52 1454.33 2015.76 1454.33 Q2011.13 1454.33 2008.68 1457.45 Q2006.24 1460.58 2005.9 1466.9 Q2007.26 1464.89 2009.32 1463.82 Q2011.38 1462.73 2013.86 1462.73 Q2019.07 1462.73 2022.08 1465.9 Q2025.11 1469.05 2025.11 1474.49 Q2025.11 1479.82 2021.96 1483.03 Q2018.81 1486.25 2013.58 1486.25 Q2007.59 1486.25 2004.42 1481.67 Q2001.24 1477.06 2001.24 1468.33 Q2001.24 1460.14 2005.13 1455.28 Q2009.02 1450.39 2015.57 1450.39 Q2017.33 1450.39 2019.12 1450.74 Q2020.92 1451.09 2022.87 1451.78 Z" fill="#000000" fill-rule="nonzero" fill-opacity="1" /><path clip-path="url(#clip570)" d="M2043.17 1454.1 Q2039.55 1454.1 2037.73 1457.66 Q2035.92 1461.2 2035.92 1468.33 Q2035.92 1475.44 2037.73 1479.01 Q2039.55 1482.55 2043.17 1482.55 Q2046.8 1482.55 2048.61 1479.01 Q2050.43 1475.44 2050.43 1468.33 Q2050.43 1461.2 2048.61 1457.66 Q2046.8 1454.1 2043.17 1454.1 M2043.17 1450.39 Q2048.98 1450.39 2052.03 1455 Q2055.11 1459.58 2055.11 1468.33 Q2055.11 1477.06 2052.03 1481.67 Q2048.98 1486.25 2043.17 1486.25 Q2037.36 1486.25 2034.28 1481.67 Q2031.22 1477.06 2031.22 1468.33 Q2031.22 1459.58 2034.28 1455 Q2037.36 1450.39 2043.17 1450.39 Z" fill="#000000" fill-rule="nonzero" fill-opacity="1" /><path clip-path="url(#clip570)" d="M2073.33 1454.1 Q2069.72 1454.1 2067.89 1457.66 Q2066.08 1461.2 2066.08 1468.33 Q2066.08 1475.44 2067.89 1479.01 Q2069.72 1482.55 2073.33 1482.55 Q2076.96 1482.55 2078.77 1479.01 Q2080.6 1475.44 2080.6 1468.33 Q2080.6 1461.2 2078.77 1457.66 Q2076.96 1454.1 2073.33 1454.1 M2073.33 1450.39 Q2079.14 1450.39 2082.19 1455 Q2085.27 1459.58 2085.27 1468.33 Q2085.27 1477.06 2082.19 1481.67 Q2079.14 1486.25 2073.33 1486.25 Q2067.52 1486.25 2064.44 1481.67 Q2061.38 1477.06 2061.38 1468.33 Q2061.38 1459.58 2064.44 1455 Q2067.52 1450.39 2073.33 1450.39 Z" fill="#000000" fill-rule="nonzero" fill-opacity="1" /><path clip-path="url(#clip570)" d="M2311.03 1451.02 L2333.25 1451.02 L2333.25 1453.01 L2320.71 1485.58 L2315.82 1485.58 L2327.63 1454.96 L2311.03 1454.96 L2311.03 1451.02 Z" fill="#000000" fill-rule="nonzero" fill-opacity="1" /><path clip-path="url(#clip570)" d="M2352.37 1454.1 Q2348.76 1454.1 2346.93 1457.66 Q2345.13 1461.2 2345.13 1468.33 Q2345.13 1475.44 2346.93 1479.01 Q2348.76 1482.55 2352.37 1482.55 Q2356.01 1482.55 2357.81 1479.01 Q2359.64 1475.44 2359.64 1468.33 Q2359.64 1461.2 2357.81 1457.66 Q2356.01 1454.1 2352.37 1454.1 M2352.37 1450.39 Q2358.18 1450.39 2361.24 1455 Q2364.32 1459.58 2364.32 1468.33 Q2364.32 1477.06 2361.24 1481.67 Q2358.18 1486.25 2352.37 1486.25 Q2346.56 1486.25 2343.49 1481.67 Q2340.43 1477.06 2340.43 1468.33 Q2340.43 1459.58 2343.49 1455 Q2346.56 1450.39 2352.37 1450.39 Z" fill="#000000" fill-rule="nonzero" fill-opacity="1" /><path clip-path="url(#clip570)" d="M2382.54 1454.1 Q2378.92 1454.1 2377.1 1457.66 Q2375.29 1461.2 2375.29 1468.33 Q2375.29 1475.44 2377.1 1479.01 Q2378.92 1482.55 2382.54 1482.55 Q2386.17 1482.55 2387.98 1479.01 Q2389.8 1475.44 2389.8 1468.33 Q2389.8 1461.2 2387.98 1457.66 Q2386.17 1454.1 2382.54 1454.1 M2382.54 1450.39 Q2388.35 1450.39 2391.4 1455 Q2394.48 1459.58 2394.48 1468.33 Q2394.48 1477.06 2391.4 1481.67 Q2388.35 1486.25 2382.54 1486.25 Q2376.73 1486.25 2373.65 1481.67 Q2370.59 1477.06 2370.59 1468.33 Q2370.59 1459.58 2373.65 1455 Q2376.73 1450.39 2382.54 1450.39 Z" fill="#000000" fill-rule="nonzero" fill-opacity="1" /><path clip-path="url(#clip570)" d="M1268.58 1522.27 L1268.58 1532.4 L1280.64 1532.4 L1280.64 1536.95 L1268.58 1536.95 L1268.58 1556.3 Q1268.58 1560.66 1269.75 1561.9 Q1270.96 1563.14 1274.62 1563.14 L1280.64 1563.14 L1280.64 1568.04 L1274.62 1568.04 Q1267.84 1568.04 1265.27 1565.53 Q1262.69 1562.98 1262.69 1556.3 L1262.69 1536.95 L1258.39 1536.95 L1258.39 1532.4 L1262.69 1532.4 L1262.69 1522.27 L1268.58 1522.27 Z" fill="#000000" fill-rule="nonzero" fill-opacity="1" /><polyline clip-path="url(#clip570)" style="stroke:#000000; stroke-linecap:round; stroke-linejoin:round; stroke-width:4; stroke-opacity:1; fill:none" points="186.274,1423.18 186.274,47.2441 "/>
<polyline clip-path="url(#clip570)" style="stroke:#000000; stroke-linecap:round; stroke-linejoin:round; stroke-width:4; stroke-opacity:1; fill:none" points="186.274,1384.24 205.172,1384.24 "/>
<polyline clip-path="url(#clip570)" style="stroke:#000000; stroke-linecap:round; stroke-linejoin:round; stroke-width:4; stroke-opacity:1; fill:none" points="186.274,1059.73 205.172,1059.73 "/>
<polyline clip-path="url(#clip570)" style="stroke:#000000; stroke-linecap:round; stroke-linejoin:round; stroke-width:4; stroke-opacity:1; fill:none" points="186.274,735.212 205.172,735.212 "/>
<polyline clip-path="url(#clip570)" style="stroke:#000000; stroke-linecap:round; stroke-linejoin:round; stroke-width:4; stroke-opacity:1; fill:none" points="186.274,410.699 205.172,410.699 "/>
<polyline clip-path="url(#clip570)" style="stroke:#000000; stroke-linecap:round; stroke-linejoin:round; stroke-width:4; stroke-opacity:1; fill:none" points="186.274,86.1857 205.172,86.1857 "/>
<path clip-path="url(#clip570)" d="M62.9365 1370.04 Q59.3254 1370.04 57.4967 1373.6 Q55.6912 1377.14 55.6912 1384.27 Q55.6912 1391.38 57.4967 1394.94 Q59.3254 1398.49 62.9365 1398.49 Q66.5707 1398.49 68.3763 1394.94 Q70.205 1391.38 70.205 1384.27 Q70.205 1377.14 68.3763 1373.6 Q66.5707 1370.04 62.9365 1370.04 M62.9365 1366.33 Q68.7467 1366.33 71.8022 1370.94 Q74.8809 1375.52 74.8809 1384.27 Q74.8809 1393 71.8022 1397.61 Q68.7467 1402.19 62.9365 1402.19 Q57.1264 1402.19 54.0477 1397.61 Q50.9921 1393 50.9921 1384.27 Q50.9921 1375.52 54.0477 1370.94 Q57.1264 1366.33 62.9365 1366.33 Z" fill="#000000" fill-rule="nonzero" fill-opacity="1" /><path clip-path="url(#clip570)" d="M83.0984 1395.64 L87.9827 1395.64 L87.9827 1401.52 L83.0984 1401.52 L83.0984 1395.64 Z" fill="#000000" fill-rule="nonzero" fill-opacity="1" /><path clip-path="url(#clip570)" d="M108.168 1370.04 Q104.557 1370.04 102.728 1373.6 Q100.922 1377.14 100.922 1384.27 Q100.922 1391.38 102.728 1394.94 Q104.557 1398.49 108.168 1398.49 Q111.802 1398.49 113.608 1394.94 Q115.436 1391.38 115.436 1384.27 Q115.436 1377.14 113.608 1373.6 Q111.802 1370.04 108.168 1370.04 M108.168 1366.33 Q113.978 1366.33 117.033 1370.94 Q120.112 1375.52 120.112 1384.27 Q120.112 1393 117.033 1397.61 Q113.978 1402.19 108.168 1402.19 Q102.358 1402.19 99.2789 1397.61 Q96.2234 1393 96.2234 1384.27 Q96.2234 1375.52 99.2789 1370.94 Q102.358 1366.33 108.168 1366.33 Z" fill="#000000" fill-rule="nonzero" fill-opacity="1" /><path clip-path="url(#clip570)" d="M138.33 1370.04 Q134.719 1370.04 132.89 1373.6 Q131.084 1377.14 131.084 1384.27 Q131.084 1391.38 132.89 1394.94 Q134.719 1398.49 138.33 1398.49 Q141.964 1398.49 143.769 1394.94 Q145.598 1391.38 145.598 1384.27 Q145.598 1377.14 143.769 1373.6 Q141.964 1370.04 138.33 1370.04 M138.33 1366.33 Q144.14 1366.33 147.195 1370.94 Q150.274 1375.52 150.274 1384.27 Q150.274 1393 147.195 1397.61 Q144.14 1402.19 138.33 1402.19 Q132.519 1402.19 129.441 1397.61 Q126.385 1393 126.385 1384.27 Q126.385 1375.52 129.441 1370.94 Q132.519 1366.33 138.33 1366.33 Z" fill="#000000" fill-rule="nonzero" fill-opacity="1" /><path clip-path="url(#clip570)" d="M63.9319 1045.52 Q60.3208 1045.52 58.4921 1049.09 Q56.6865 1052.63 56.6865 1059.76 Q56.6865 1066.87 58.4921 1070.43 Q60.3208 1073.97 63.9319 1073.97 Q67.5661 1073.97 69.3717 1070.43 Q71.2004 1066.87 71.2004 1059.76 Q71.2004 1052.63 69.3717 1049.09 Q67.5661 1045.52 63.9319 1045.52 M63.9319 1041.82 Q69.742 1041.82 72.7976 1046.43 Q75.8763 1051.01 75.8763 1059.76 Q75.8763 1068.49 72.7976 1073.09 Q69.742 1077.68 63.9319 1077.68 Q58.1217 1077.68 55.043 1073.09 Q51.9875 1068.49 51.9875 1059.76 Q51.9875 1051.01 55.043 1046.43 Q58.1217 1041.82 63.9319 1041.82 Z" fill="#000000" fill-rule="nonzero" fill-opacity="1" /><path clip-path="url(#clip570)" d="M84.0938 1071.13 L88.978 1071.13 L88.978 1077.01 L84.0938 1077.01 L84.0938 1071.13 Z" fill="#000000" fill-rule="nonzero" fill-opacity="1" /><path clip-path="url(#clip570)" d="M103.191 1073.07 L119.51 1073.07 L119.51 1077.01 L97.566 1077.01 L97.566 1073.07 Q100.228 1070.32 104.811 1065.69 Q109.418 1061.03 110.598 1059.69 Q112.844 1057.17 113.723 1055.43 Q114.626 1053.67 114.626 1051.98 Q114.626 1049.23 112.682 1047.49 Q110.76 1045.76 107.658 1045.76 Q105.459 1045.76 103.006 1046.52 Q100.575 1047.28 97.7974 1048.83 L97.7974 1044.11 Q100.621 1042.98 103.075 1042.4 Q105.529 1041.82 107.566 1041.82 Q112.936 1041.82 116.131 1044.51 Q119.325 1047.19 119.325 1051.68 Q119.325 1053.81 118.515 1055.73 Q117.728 1057.63 115.621 1060.22 Q115.043 1060.89 111.941 1064.11 Q108.839 1067.31 103.191 1073.07 Z" fill="#000000" fill-rule="nonzero" fill-opacity="1" /><path clip-path="url(#clip570)" d="M129.371 1042.45 L147.728 1042.45 L147.728 1046.38 L133.654 1046.38 L133.654 1054.85 Q134.672 1054.51 135.691 1054.34 Q136.709 1054.16 137.728 1054.16 Q143.515 1054.16 146.894 1057.33 Q150.274 1060.5 150.274 1065.92 Q150.274 1071.5 146.802 1074.6 Q143.33 1077.68 137.01 1077.68 Q134.834 1077.68 132.566 1077.31 Q130.32 1076.94 127.913 1076.19 L127.913 1071.5 Q129.996 1072.63 132.219 1073.19 Q134.441 1073.74 136.918 1073.74 Q140.922 1073.74 143.26 1071.63 Q145.598 1069.53 145.598 1065.92 Q145.598 1062.31 143.26 1060.2 Q140.922 1058.09 136.918 1058.09 Q135.043 1058.09 133.168 1058.51 Q131.316 1058.93 129.371 1059.81 L129.371 1042.45 Z" fill="#000000" fill-rule="nonzero" fill-opacity="1" /><path clip-path="url(#clip570)" d="M62.9365 721.011 Q59.3254 721.011 57.4967 724.575 Q55.6912 728.117 55.6912 735.247 Q55.6912 742.353 57.4967 745.918 Q59.3254 749.46 62.9365 749.46 Q66.5707 749.46 68.3763 745.918 Q70.205 742.353 70.205 735.247 Q70.205 728.117 68.3763 724.575 Q66.5707 721.011 62.9365 721.011 M62.9365 717.307 Q68.7467 717.307 71.8022 721.913 Q74.8809 726.497 74.8809 735.247 Q74.8809 743.973 71.8022 748.58 Q68.7467 753.163 62.9365 753.163 Q57.1264 753.163 54.0477 748.58 Q50.9921 743.973 50.9921 735.247 Q50.9921 726.497 54.0477 721.913 Q57.1264 717.307 62.9365 717.307 Z" fill="#000000" fill-rule="nonzero" fill-opacity="1" /><path clip-path="url(#clip570)" d="M83.0984 746.612 L87.9827 746.612 L87.9827 752.492 L83.0984 752.492 L83.0984 746.612 Z" fill="#000000" fill-rule="nonzero" fill-opacity="1" /><path clip-path="url(#clip570)" d="M98.2141 717.932 L116.57 717.932 L116.57 721.867 L102.496 721.867 L102.496 730.339 Q103.515 729.992 104.534 729.83 Q105.552 729.645 106.571 729.645 Q112.358 729.645 115.737 732.816 Q119.117 735.987 119.117 741.404 Q119.117 746.983 115.645 750.085 Q112.172 753.163 105.853 753.163 Q103.677 753.163 101.409 752.793 Q99.1632 752.423 96.7558 751.682 L96.7558 746.983 Q98.8391 748.117 101.061 748.673 Q103.284 749.228 105.76 749.228 Q109.765 749.228 112.103 747.122 Q114.441 745.015 114.441 741.404 Q114.441 737.793 112.103 735.687 Q109.765 733.58 105.76 733.58 Q103.885 733.58 102.01 733.997 Q100.159 734.413 98.2141 735.293 L98.2141 717.932 Z" fill="#000000" fill-rule="nonzero" fill-opacity="1" /><path clip-path="url(#clip570)" d="M138.33 721.011 Q134.719 721.011 132.89 724.575 Q131.084 728.117 131.084 735.247 Q131.084 742.353 132.89 745.918 Q134.719 749.46 138.33 749.46 Q141.964 749.46 143.769 745.918 Q145.598 742.353 145.598 735.247 Q145.598 728.117 143.769 724.575 Q141.964 721.011 138.33 721.011 M138.33 717.307 Q144.14 717.307 147.195 721.913 Q150.274 726.497 150.274 735.247 Q150.274 743.973 147.195 748.58 Q144.14 753.163 138.33 753.163 Q132.519 753.163 129.441 748.58 Q126.385 743.973 126.385 735.247 Q126.385 726.497 129.441 721.913 Q132.519 717.307 138.33 717.307 Z" fill="#000000" fill-rule="nonzero" fill-opacity="1" /><path clip-path="url(#clip570)" d="M63.9319 396.498 Q60.3208 396.498 58.4921 400.062 Q56.6865 403.604 56.6865 410.734 Q56.6865 417.84 58.4921 421.405 Q60.3208 424.946 63.9319 424.946 Q67.5661 424.946 69.3717 421.405 Q71.2004 417.84 71.2004 410.734 Q71.2004 403.604 69.3717 400.062 Q67.5661 396.498 63.9319 396.498 M63.9319 392.794 Q69.742 392.794 72.7976 397.4 Q75.8763 401.984 75.8763 410.734 Q75.8763 419.46 72.7976 424.067 Q69.742 428.65 63.9319 428.65 Q58.1217 428.65 55.043 424.067 Q51.9875 419.46 51.9875 410.734 Q51.9875 401.984 55.043 397.4 Q58.1217 392.794 63.9319 392.794 Z" fill="#000000" fill-rule="nonzero" fill-opacity="1" /><path clip-path="url(#clip570)" d="M84.0938 422.099 L88.978 422.099 L88.978 427.979 L84.0938 427.979 L84.0938 422.099 Z" fill="#000000" fill-rule="nonzero" fill-opacity="1" /><path clip-path="url(#clip570)" d="M97.9826 393.419 L120.205 393.419 L120.205 395.41 L107.658 427.979 L102.774 427.979 L114.58 397.354 L97.9826 397.354 L97.9826 393.419 Z" fill="#000000" fill-rule="nonzero" fill-opacity="1" /><path clip-path="url(#clip570)" d="M129.371 393.419 L147.728 393.419 L147.728 397.354 L133.654 397.354 L133.654 405.826 Q134.672 405.479 135.691 405.317 Q136.709 405.132 137.728 405.132 Q143.515 405.132 146.894 408.303 Q150.274 411.474 150.274 416.891 Q150.274 422.47 146.802 425.571 Q143.33 428.65 137.01 428.65 Q134.834 428.65 132.566 428.28 Q130.32 427.909 127.913 427.169 L127.913 422.47 Q129.996 423.604 132.219 424.159 Q134.441 424.715 136.918 424.715 Q140.922 424.715 143.26 422.608 Q145.598 420.502 145.598 416.891 Q145.598 413.28 143.26 411.173 Q140.922 409.067 136.918 409.067 Q135.043 409.067 133.168 409.484 Q131.316 409.9 129.371 410.78 L129.371 393.419 Z" fill="#000000" fill-rule="nonzero" fill-opacity="1" /><path clip-path="url(#clip570)" d="M53.7467 99.5305 L61.3856 99.5305 L61.3856 73.1649 L53.0754 74.8316 L53.0754 70.5723 L61.3393 68.9057 L66.0152 68.9057 L66.0152 99.5305 L73.654 99.5305 L73.654 103.466 L53.7467 103.466 L53.7467 99.5305 Z" fill="#000000" fill-rule="nonzero" fill-opacity="1" /><path clip-path="url(#clip570)" d="M83.0984 97.5861 L87.9827 97.5861 L87.9827 103.466 L83.0984 103.466 L83.0984 97.5861 Z" fill="#000000" fill-rule="nonzero" fill-opacity="1" /><path clip-path="url(#clip570)" d="M108.168 71.9844 Q104.557 71.9844 102.728 75.5492 Q100.922 79.0908 100.922 86.2204 Q100.922 93.3268 102.728 96.8916 Q104.557 100.433 108.168 100.433 Q111.802 100.433 113.608 96.8916 Q115.436 93.3268 115.436 86.2204 Q115.436 79.0908 113.608 75.5492 Q111.802 71.9844 108.168 71.9844 M108.168 68.2807 Q113.978 68.2807 117.033 72.8871 Q120.112 77.4704 120.112 86.2204 Q120.112 94.9472 117.033 99.5537 Q113.978 104.137 108.168 104.137 Q102.358 104.137 99.2789 99.5537 Q96.2234 94.9472 96.2234 86.2204 Q96.2234 77.4704 99.2789 72.8871 Q102.358 68.2807 108.168 68.2807 Z" fill="#000000" fill-rule="nonzero" fill-opacity="1" /><path clip-path="url(#clip570)" d="M138.33 71.9844 Q134.719 71.9844 132.89 75.5492 Q131.084 79.0908 131.084 86.2204 Q131.084 93.3268 132.89 96.8916 Q134.719 100.433 138.33 100.433 Q141.964 100.433 143.769 96.8916 Q145.598 93.3268 145.598 86.2204 Q145.598 79.0908 143.769 75.5492 Q141.964 71.9844 138.33 71.9844 M138.33 68.2807 Q144.14 68.2807 147.195 72.8871 Q150.274 77.4704 150.274 86.2204 Q150.274 94.9472 147.195 99.5537 Q144.14 104.137 138.33 104.137 Q132.519 104.137 129.441 99.5537 Q126.385 94.9472 126.385 86.2204 Q126.385 77.4704 129.441 72.8871 Q132.519 68.2807 138.33 68.2807 Z" fill="#000000" fill-rule="nonzero" fill-opacity="1" /><polyline clip-path="url(#clip571)" style="stroke:#009af9; stroke-linecap:round; stroke-linejoin:round; stroke-width:4; stroke-opacity:1; fill:none" points="186.274,1384.24 188.443,1384.24 190.611,1384.24 192.78,1384.24 194.949,1384.24 197.117,1384.24 199.286,1384.24 201.455,1384.24 203.623,1384.24 205.792,1384.24 207.961,1384.24 210.129,1384.24 212.298,1384.24 214.466,1384.24 216.635,1384.24 218.804,1384.24 220.972,1384.24 223.141,1384.24 225.31,1384.24 227.478,1384.24 229.647,1384.24 231.816,1384.24 233.984,1384.24 236.153,1384.24 238.322,1384.24 240.49,1384.24 242.659,1384.24 244.828,1384.24 246.996,1384.24 249.165,1384.24 251.334,1384.24 253.502,1384.24 255.671,1384.24 257.839,1384.24 260.008,1384.24 262.177,1384.24 264.345,1384.24 266.514,1384.24 268.683,1384.24 270.851,1384.24 273.02,1384.24 275.189,1384.24 277.357,1384.24 279.526,1384.24 281.695,1384.24 283.863,1384.24 286.032,1384.24 288.201,1384.24 290.369,1384.24 292.538,1384.24 294.707,1384.24 296.875,1384.24 299.044,1384.24 301.212,1384.24 303.381,1384.24 305.55,1384.24 307.718,1384.24 309.887,1384.24 312.056,1384.24 314.224,1384.24 316.393,1384.24 318.562,1384.24 320.73,1384.24 322.899,1384.24 325.068,1384.24 327.236,1384.24 329.405,1384.24 331.574,1384.24 333.742,1384.24 335.911,1384.24 338.08,1384.24 340.248,1384.24 342.417,1384.24 344.585,1384.24 346.754,1384.24 348.923,1384.24 351.091,1384.24 353.26,1384.24 355.429,1384.24 357.597,1384.24 359.766,1384.24 361.935,1384.24 364.103,1384.24 366.272,1384.24 368.441,1384.24 370.609,1384.24 372.778,1384.24 374.947,1384.24 377.115,1384.24 379.284,1384.24 381.453,1384.24 383.621,1384.24 385.79,1384.24 387.959,1384.24 390.127,1384.24 392.296,1384.24 394.464,1384.24 396.633,1384.24 398.802,1384.24 400.97,1384.24 403.139,1384.24 405.308,1384.24 407.476,1384.24 409.645,1384.24 411.814,1384.24 413.982,1384.24 416.151,1384.24 418.32,1384.24 420.488,1384.24 422.657,1384.24 424.826,1384.24 426.994,1384.24 429.163,1384.24 431.332,1384.24 433.5,1384.24 435.669,1384.24 437.837,1384.24 440.006,1384.24 442.175,1384.24 444.343,1384.24 446.512,1384.24 448.681,1384.24 450.849,1384.24 453.018,1384.24 455.187,1384.24 457.355,1384.24 459.524,1384.24 461.693,1384.24 463.861,1384.24 466.03,1384.24 468.199,1384.24 470.367,1384.24 472.536,1384.24 474.705,1384.24 476.873,1384.24 479.042,1384.24 481.21,1384.24 483.379,1384.24 485.548,1384.24 487.716,1384.24 489.885,1384.24 492.054,1384.24 494.222,1384.24 496.391,736.51 498.56,741.033 500.728,745.524 502.897,749.984 505.066,754.413 507.234,758.811 509.403,763.178 511.572,767.514 513.74,771.821 515.909,776.097 518.078,780.344 520.246,784.561 522.415,788.748 524.583,792.906 526.752,797.035 528.921,801.136 531.089,805.208 533.258,809.252 535.427,813.267 537.595,817.254 539.764,821.212 541.933,825.144 544.101,829.048 546.27,832.926 548.439,836.776 550.607,840.6 552.776,844.396 554.945,848.165 557.113,851.908 559.282,855.625 561.451,859.317 563.619,862.984 565.788,866.625 567.956,870.24 570.125,873.83 572.294,877.395 574.462,880.933 576.631,884.446 578.8,887.936 580.968,891.402 583.137,894.845 585.306,898.264 587.474,901.659 589.643,905.03 591.812,908.378 593.98,911.702 596.149,915.003 598.318,918.279 600.486,921.531 602.655,924.761 604.824,927.97 606.992,931.157 609.161,934.322 611.33,937.465 613.498,940.587 615.667,943.687 617.835,946.765 620.004,949.822 622.173,952.857 624.341,955.87 626.51,958.862 628.679,961.83 630.847,964.779 633.016,967.708 635.185,970.617 637.353,973.506 639.522,976.376 641.691,979.226 643.859,982.056 646.028,984.867 648.197,987.658 650.365,990.43 652.534,993.181 654.703,995.914 656.871,998.626 659.04,1001.32 661.208,1003.99 663.377,1006.64 665.546,1009.28 667.714,1011.9 669.883,1014.5 672.052,1017.08 674.22,1019.65 676.389,1022.2 678.558,1024.73 680.726,1027.24 682.895,1029.74 685.064,1032.22 687.232,1034.68 689.401,1037.12 691.57,1039.54 693.738,1041.95 695.907,1044.34 698.076,1046.71 700.244,1049.07 702.413,1051.41 704.581,1053.73 706.75,1056.04 708.919,1058.33 711.087,1060.61 713.256,1062.88 715.425,1065.12 717.593,1067.35 719.762,1069.57 721.931,1071.77 724.099,1073.95 726.268,1076.12 728.437,1078.28 730.605,1080.42 732.774,1082.54 734.943,1084.65 737.111,1086.74 739.28,1088.81 741.449,1090.87 743.617,1092.92 745.786,1094.96 747.954,1096.98 750.123,1098.98 752.292,1100.98 754.46,1102.96 756.629,1104.93 758.798,1106.88 760.966,1108.82 763.135,1110.75 765.304,1112.66 767.472,1114.56 769.641,1116.45 771.81,1118.32 773.978,1120.18 776.147,1122.02 778.316,1123.86 780.484,1125.68 782.653,1127.48 784.822,1129.27 786.99,1131.05 789.159,1132.82 791.328,1134.58 793.496,1136.32 795.665,1138.05 797.833,1139.77 800.002,1141.48 802.171,1143.18 804.339,1144.86 806.508,618.95 808.677,624.291 810.845,629.596 813.014,634.866 815.183,640.101 817.351,645.3 819.52,650.463 821.689,655.591 823.857,660.684 826.026,665.741 828.195,670.763 830.363,675.749 832.532,680.7 834.701,685.615 836.869,690.495 839.038,695.339 841.206,700.149 843.375,704.926 845.544,709.67 847.712,714.381 849.881,719.059 852.05,723.704 854.218,728.311 856.387,732.888 858.556,737.434 860.724,741.951 862.893,746.437 865.062,750.894 867.23,755.32 869.399,759.717 871.568,764.083 873.736,768.419 875.905,772.726 878.074,777.002 880.242,781.249 882.411,785.465 884.579,789.651 886.748,793.808 888.917,797.934 891.085,802.03 893.254,806.097 895.423,810.133 897.591,814.141 899.76,818.122 901.929,822.076 904.097,826.003 906.266,829.902 908.435,833.774 910.603,837.62 912.772,841.437 914.941,845.228 917.109,848.987 919.278,852.721 921.447,856.43 923.615,860.115 925.784,863.775 927.952,867.412 930.121,871.024 932.29,874.612 934.458,878.175 936.627,881.714 938.796,885.229 940.964,888.72 943.133,892.187 945.302,895.629 947.47,899.047 949.639,902.44 951.808,905.81 953.976,909.155 956.145,912.475 958.314,915.772 960.482,919.044 962.651,922.291 964.82,925.515 966.988,928.718 969.157,931.899 971.326,935.059 973.494,938.197 975.663,941.314 977.831,944.409 980,947.483 982.169,950.536 984.337,953.567 986.506,956.576 988.675,959.564 990.843,962.531 993.012,965.476 995.181,968.395 997.349,971.295 999.518,974.176 1001.69,977.038 1003.86,979.882 1006.02,982.706 1008.19,985.513 1010.36,988.3 1012.53,991.069 1014.7,993.82 1016.87,996.551 1019.04,999.264 1021.2,1001.96 1023.37,1004.63 1025.54,1007.29 1027.71,1009.93 1029.88,1012.55 1032.05,1015.15 1034.22,1017.73 1036.39,1020.3 1038.55,1022.84 1040.72,1025.37 1042.89,1027.87 1045.06,1030.36 1047.23,1032.83 1049.4,1035.28 1051.57,1037.71 1053.73,1040.13 1055.9,1042.54 1058.07,1044.92 1060.24,1047.3 1062.41,1049.65 1064.58,1051.99 1066.75,1054.32 1068.91,1056.62 1071.08,1058.92 1073.25,1061.19 1075.42,1063.45 1077.59,1065.7 1079.76,1067.93 1081.93,1070.14 1084.1,1072.34 1086.26,1074.52 1088.43,1076.69 1090.6,1078.84 1092.77,1080.97 1094.94,1083.09 1097.11,1085.2 1099.28,1087.28 1101.44,1089.36 1103.61,1091.42 1105.78,1093.46 1107.95,1095.49 1110.12,1097.51 1112.29,1099.51 1114.46,1101.5 1116.63,598.711 1118.79,604.191 1120.96,609.636 1123.13,615.044 1125.3,620.417 1127.47,625.754 1129.64,631.055 1131.81,636.32 1133.97,641.55 1136.14,646.743 1138.31,651.901 1140.48,657.022 1142.65,662.108 1144.82,667.158 1146.99,672.173 1149.15,677.151 1151.32,682.094 1153.49,687 1155.66,691.871 1157.83,696.706 1160,701.506 1162.17,706.274 1164.34,711.008 1166.5,715.71 1168.67,720.379 1170.84,725.015 1173.01,729.616 1175.18,734.182 1177.35,738.719 1179.52,743.226 1181.68,747.703 1183.85,752.15 1186.02,756.567 1188.19,760.954 1190.36,765.312 1192.53,769.639 1194.7,773.937 1196.87,778.204 1199.03,782.442 1201.2,786.65 1203.37,790.828 1205.54,794.976 1207.71,799.094 1209.88,803.182 1212.05,807.241 1214.21,811.268 1216.38,815.268 1218.55,819.241 1220.72,823.187 1222.89,827.106 1225.06,830.998 1227.23,834.864 1229.39,838.702 1231.56,842.514 1233.73,846.299 1235.9,850.057 1238.07,853.788 1240.24,857.492 1242.41,861.164 1244.58,864.813 1246.74,868.438 1248.91,872.039 1251.08,875.616 1253.25,879.17 1255.42,882.7 1257.59,886.207 1259.76,889.69 1261.92,893.149 1264.09,896.584 1266.26,899.996 1268.43,903.385 1270.6,906.749 1272.77,910.09 1274.94,913.407 1277.11,916.701 1279.27,919.971 1281.44,923.217 1283.61,926.44 1285.78,929.639 1287.95,932.814 1290.12,935.962 1292.29,939.088 1294.45,942.194 1296.62,945.28 1298.79,948.346 1300.96,951.391 1303.13,954.416 1305.3,957.421 1307.47,960.406 1309.63,963.37 1311.8,966.314 1313.97,969.238 1316.14,972.142 1318.31,975.026 1320.48,977.889 1322.65,980.732 1324.82,983.555 1326.98,986.357 1329.15,989.139 1331.32,991.901 1333.49,994.643 1335.66,997.365 1337.83,1000.06 1340,1002.74 1342.16,1005.4 1344.33,1008.04 1346.5,1010.67 1348.67,1013.28 1350.84,1015.87 1353.01,1018.44 1355.18,1021 1357.35,1023.54 1359.51,1026.07 1361.68,1028.57 1363.85,1031.06 1366.02,1033.54 1368.19,1035.99 1370.36,1038.43 1372.53,1040.85 1374.69,1043.26 1376.86,1045.65 1379.03,1048.02 1381.2,1050.38 1383.37,1052.71 1385.54,1055.03 1387.71,1057.34 1389.88,1059.63 1392.04,1061.9 1394.21,1064.15 1396.38,1066.39 1398.55,1068.6 1400.72,1070.81 1402.89,1073 1405.06,1075.17 1407.22,1077.33 1409.39,1079.47 1411.56,1081.6 1413.73,1083.72 1415.9,1085.82 1418.07,1087.9 1420.24,1089.97 1422.4,1092.03 1424.57,590.774 1426.74,596.306 1428.91,601.802 1431.08,607.262 1433.25,612.687 1435.42,618.076 1437.59,623.43 1439.75,628.748 1441.92,634.03 1444.09,639.276 1446.26,644.487 1448.43,649.663 1450.6,654.802 1452.77,659.906 1454.93,664.975 1457.1,670.007 1459.27,675.004 1461.44,679.966 1463.61,684.892 1465.78,689.782 1467.95,694.636 1470.12,699.455 1472.28,704.239 1474.45,708.986 1476.62,713.701 1478.79,718.383 1480.96,723.034 1483.13,727.652 1485.3,732.238 1487.46,736.792 1489.63,741.314 1491.8,745.804 1493.97,750.256 1496.14,754.677 1498.31,759.069 1500.48,763.433 1502.64,767.768 1504.81,772.075 1506.98,776.353 1509.15,780.603 1511.32,784.824 1513.49,789.017 1515.66,793.181 1517.83,797.317 1519.99,801.424 1522.16,805.502 1524.33,809.552 1526.5,813.574 1528.67,817.567 1530.84,821.531 1533.01,825.467 1535.17,829.375 1537.34,833.254 1539.51,837.104 1541.68,840.926 1543.85,844.718 1546.02,848.483 1548.19,852.223 1550.36,855.938 1552.52,859.629 1554.69,863.294 1556.86,866.935 1559.03,870.55 1561.2,874.14 1563.37,877.706 1565.54,881.246 1567.7,884.762 1569.87,888.252 1572.04,891.718 1574.21,895.159 1576.38,898.574 1578.55,901.958 1580.72,905.319 1582.88,908.659 1585.05,911.977 1587.22,915.274 1589.39,918.55 1591.56,921.804 1593.73,925.037 1595.9,928.249 1598.07,931.439 1600.23,934.608 1602.4,937.756 1604.57,940.882 1606.74,943.987 1608.91,947.07 1611.08,950.132 1613.25,953.173 1615.41,956.192 1617.58,959.19 1619.75,962.166 1621.92,965.122 1624.09,968.055 1626.26,970.968 1628.43,973.859 1630.6,976.728 1632.76,979.577 1634.93,982.404 1637.1,985.205 1639.27,987.985 1641.44,990.748 1643.61,993.494 1645.78,996.221 1647.94,998.931 1650.11,1001.62 1652.28,1004.3 1654.45,1006.96 1656.62,1009.59 1658.79,1012.22 1660.96,1014.82 1663.13,1017.41 1665.29,1019.98 1667.46,1022.53 1669.63,1025.06 1671.8,1027.58 1673.97,1030.07 1676.14,1032.55 1678.31,1035.02 1680.47,1037.46 1682.64,1039.89 1684.81,1042.3 1686.98,1044.69 1689.15,1047.07 1691.32,1049.42 1693.49,1051.76 1695.65,1054.08 1697.82,1056.39 1699.99,1058.68 1702.16,1060.95 1704.33,1063.21 1706.5,1065.45 1708.67,1067.68 1710.84,1069.89 1713,1072.09 1715.17,1074.27 1717.34,1076.44 1719.51,1078.59 1721.68,1080.73 1723.85,1082.85 1726.02,1084.95 1728.18,1087.05 1730.35,1089.12 1732.52,1091.18 1734.69,591.65 1736.86,597.175 1739.03,602.665 1741.2,608.119 1743.37,613.538 1745.53,618.922 1747.7,624.27 1749.87,629.582 1752.04,634.859 1754.21,640.1 1756.38,645.306 1758.55,650.477 1760.71,655.612 1762.88,660.711 1765.05,665.775 1767.22,670.804 1769.39,675.797 1771.56,680.754 1773.73,685.676 1775.89,690.562 1778.06,695.413 1780.23,700.229 1782.4,705.009 1784.57,709.753 1786.74,714.462 1788.91,719.138 1791.08,723.782 1793.24,728.395 1795.41,732.976 1797.58,737.526 1799.75,742.044 1801.92,746.53 1804.09,750.985 1806.26,755.409 1808.42,759.8 1810.59,764.157 1812.76,768.479 1814.93,772.773 1817.1,777.039 1819.27,781.278 1821.44,785.489 1823.61,789.672 1825.77,793.828 1827.94,797.957 1830.11,802.058 1832.28,806.131 1834.45,810.177 1836.62,814.195 1838.79,818.185 1840.95,822.148 1843.12,826.084 1845.29,829.992 1847.46,833.872 1849.63,837.725 1851.8,841.55 1853.97,845.347 1856.13,849.117 1858.3,852.86 1860.47,856.575 1862.64,860.262 1864.81,863.922 1866.98,867.551 1869.15,871.156 1871.32,874.737 1873.48,878.295 1875.65,881.83 1877.82,885.34 1879.99,888.827 1882.16,892.29 1884.33,895.73 1886.5,899.146 1888.66,902.538 1890.83,905.906 1893,909.251 1895.17,912.572 1897.34,915.869 1899.51,919.143 1901.68,922.393 1903.85,925.619 1906.01,928.82 1908.18,931.99 1910.35,935.141 1912.52,938.272 1914.69,941.383 1916.86,944.475 1919.03,947.546 1921.19,950.598 1923.36,953.63 1925.53,956.642 1927.7,959.634 1929.87,962.606 1932.04,965.559 1934.21,968.491 1936.37,971.404 1938.54,974.297 1940.71,977.17 1942.88,980.024 1945.05,982.857 1947.22,985.671 1949.39,988.464 1951.56,991.238 1953.72,993.992 1955.89,996.727 1958.06,999.441 1960.23,1002.14 1962.4,1004.81 1964.57,1007.47 1966.74,1010.1 1968.9,1012.72 1971.07,1015.31 1973.24,1017.88 1975.41,1020.43 1977.58,1022.97 1979.75,1025.49 1981.92,1027.99 1984.09,1030.48 1986.25,1032.95 1988.42,1035.41 1990.59,1037.85 1992.76,1040.27 1994.93,1042.68 1997.1,1045.07 1999.27,1047.44 2001.43,1049.8 2003.6,1052.15 2005.77,1054.47 2007.94,1056.78 2010.11,1059.08 2012.28,1061.36 2014.45,1063.62 2016.62,1065.87 2018.78,1068.1 2020.95,1070.32 2023.12,1072.52 2025.29,1074.7 2027.46,1076.87 2029.63,1079.02 2031.8,1081.15 2033.96,1083.27 2036.13,1085.37 2038.3,1087.46 2040.47,1089.52 2042.64,1091.57 2044.81,1093.61 2046.98,1095.63 2049.14,1097.64 2051.31,1099.64 2053.48,1101.63 2055.65,1103.61 2057.82,1105.57 2059.99,1107.52 2062.16,1109.46 2064.33,1111.38 2066.49,1113.29 2068.66,1115.19 2070.83,1117.08 2073,1118.96 2075.17,1120.82 2077.34,1122.67 2079.51,1124.5 2081.67,1126.33 2083.84,1128.14 2086.01,1129.94 2088.18,1131.73 2090.35,1133.5 2092.52,1135.26 2094.69,1137.01 2096.86,1138.75 2099.02,1140.47 2101.19,1142.19 2103.36,1143.89 2105.53,1145.57 2107.7,1147.25 2109.87,1148.91 2112.04,1150.56 2114.2,1152.2 2116.37,1153.82 2118.54,1155.43 2120.71,1157.03 2122.88,1158.62 2125.05,1160.18 2127.22,1161.74 2129.38,1163.29 2131.55,1164.83 2133.72,1166.36 2135.89,1167.88 2138.06,1169.39 2140.23,1170.89 2142.4,1172.38 2144.57,1173.87 2146.73,1175.34 2148.9,1176.8 2151.07,1178.26 2153.24,1179.7 2155.41,1181.13 2157.58,1182.56 2159.75,1183.98 2161.91,1185.38 2164.08,1186.78 2166.25,1188.17 2168.42,1189.54 2170.59,1190.91 2172.76,1192.27 2174.93,1193.62 2177.1,1194.96 2179.26,1196.29 2181.43,1197.61 2183.6,1198.92 2185.77,1200.22 2187.94,1201.51 2190.11,1202.8 2192.28,1204.07 2194.44,1205.33 2196.61,1206.59 2198.78,1207.83 2200.95,1209.07 2203.12,1210.29 2205.29,1211.51 2207.46,1212.71 2209.62,1213.9 2211.79,1215.09 2213.96,1216.26 2216.13,1217.43 2218.3,1218.59 2220.47,1219.75 2222.64,1220.9 2224.81,1222.04 2226.97,1223.17 2229.14,1224.3 2231.31,1225.42 2233.48,1226.53 2235.65,1227.63 2237.82,1228.73 2239.99,1229.82 2242.15,1230.91 2244.32,1231.98 2246.49,1233.05 2248.66,1234.12 2250.83,1235.17 2253,1236.22 2255.17,1237.26 2257.34,1238.3 2259.5,1239.32 2261.67,1240.34 2263.84,1241.36 2266.01,1242.36 2268.18,1243.36 2270.35,1244.35 2272.52,1245.34 2274.68,1246.31 2276.85,1247.28 2279.02,1248.25 2281.19,1249.2 2283.36,1250.15 2285.53,1251.09 2287.7,1252.03 2289.87,1252.96 2292.03,1253.88 2294.2,1254.79 2296.37,1255.7 2298.54,1256.6 2300.71,1257.49 2302.88,1258.37 2305.05,1259.25 2307.21,1260.12 2309.38,1260.99 2311.55,1261.85 2313.72,1262.7 2315.89,1263.55 2318.06,1264.4 2320.23,1265.24 2322.39,1266.07 2324.56,1266.89 2326.73,1267.72 2328.9,1268.53 2331.07,1269.34 2333.24,1270.14 2335.41,1270.94 2337.58,1271.74 2339.74,1272.52 2341.91,1273.3 2344.08,1274.08 2346.25,1274.85 2348.42,1275.62 2350.59,1276.37 2352.76,1277.13 "/>
<polyline clip-path="url(#clip571)" style="stroke:#e26f46; stroke-linecap:round; stroke-linejoin:round; stroke-width:4; stroke-opacity:1; fill:none" points="186.274,86.1857 188.443,86.1857 190.611,86.1857 192.78,86.1857 194.949,86.1857 197.117,86.1857 199.286,86.1857 201.455,86.1857 203.623,86.1857 205.792,86.1857 207.961,86.1857 210.129,86.1857 212.298,86.1857 214.466,86.1857 216.635,86.1857 218.804,86.1857 220.972,86.1857 223.141,86.1857 225.31,86.1857 227.478,86.1857 229.647,86.1857 231.816,86.1857 233.984,86.1857 236.153,86.1857 238.322,86.1857 240.49,86.1857 242.659,86.1857 244.828,86.1857 246.996,86.1857 249.165,86.1857 251.334,86.1857 253.502,86.1857 255.671,86.1857 257.839,86.1857 260.008,86.1857 262.177,86.1857 264.345,86.1857 266.514,86.1857 268.683,86.1857 270.851,86.1857 273.02,86.1857 275.189,86.1857 277.357,86.1857 279.526,86.1857 281.695,86.1857 283.863,86.1857 286.032,86.1857 288.201,86.1857 290.369,86.1857 292.538,86.1857 294.707,86.1857 296.875,86.1857 299.044,86.1857 301.212,86.1857 303.381,86.1857 305.55,86.1857 307.718,86.1857 309.887,86.1857 312.056,86.1857 314.224,86.1857 316.393,86.1857 318.562,86.1857 320.73,86.1857 322.899,86.1857 325.068,86.1857 327.236,86.1857 329.405,86.1857 331.574,86.1857 333.742,86.1857 335.911,86.1857 338.08,86.1857 340.248,86.1857 342.417,86.1857 344.585,86.1857 346.754,86.1857 348.923,86.1857 351.091,86.1857 353.26,86.1857 355.429,86.1857 357.597,86.1857 359.766,86.1857 361.935,86.1857 364.103,86.1857 366.272,86.1857 368.441,86.1857 370.609,86.1857 372.778,86.1857 374.947,86.1857 377.115,86.1857 379.284,86.1857 381.453,86.1857 383.621,86.1857 385.79,86.1857 387.959,86.1857 390.127,86.1857 392.296,86.1857 394.464,86.1857 396.633,86.1857 398.802,86.1857 400.97,86.1857 403.139,86.1857 405.308,86.1857 407.476,86.1857 409.645,86.1857 411.814,86.1857 413.982,86.1857 416.151,86.1857 418.32,86.1857 420.488,86.1857 422.657,86.1857 424.826,86.1857 426.994,86.1857 429.163,86.1857 431.332,86.1857 433.5,86.1857 435.669,86.1857 437.837,86.1857 440.006,86.1857 442.175,86.1857 444.343,86.1857 446.512,86.1857 448.681,86.1857 450.849,86.1857 453.018,86.1857 455.187,86.1857 457.355,86.1857 459.524,86.1857 461.693,86.1857 463.861,86.1857 466.03,86.1857 468.199,86.1857 470.367,86.1857 472.536,86.1857 474.705,86.1857 476.873,86.1857 479.042,86.1857 481.21,86.1857 483.379,86.1857 485.548,86.1857 487.716,86.1857 489.885,86.1857 492.054,86.1857 494.222,86.1857 496.391,735.082 498.56,734.628 500.728,734.173 502.897,733.719 505.066,733.266 507.234,732.813 509.403,732.36 511.572,731.907 513.74,731.455 515.909,731.003 518.078,730.551 520.246,730.1 522.415,729.649 524.583,729.198 526.752,728.748 528.921,728.298 531.089,727.848 533.258,727.398 535.427,726.949 537.595,726.5 539.764,726.052 541.933,725.604 544.101,725.156 546.27,724.708 548.439,724.261 550.607,723.814 552.776,723.367 554.945,722.921 557.113,722.475 559.282,722.029 561.451,721.584 563.619,721.139 565.788,720.694 567.956,720.25 570.125,719.806 572.294,719.362 574.462,718.918 576.631,718.475 578.8,718.032 580.968,717.59 583.137,717.147 585.306,716.705 587.474,716.264 589.643,715.822 591.812,715.381 593.98,714.941 596.149,714.5 598.318,714.06 600.486,713.62 602.655,713.181 604.824,712.742 606.992,712.303 609.161,711.864 611.33,711.426 613.498,710.988 615.667,710.55 617.835,710.113 620.004,709.676 622.173,709.239 624.341,708.803 626.51,708.367 628.679,707.931 630.847,707.495 633.016,707.06 635.185,706.625 637.353,706.191 639.522,705.756 641.691,705.322 643.859,704.889 646.028,704.455 648.197,704.022 650.365,703.589 652.534,703.157 654.703,702.725 656.871,702.293 659.04,701.861 661.208,701.43 663.377,700.999 665.546,700.569 667.714,700.138 669.883,699.708 672.052,699.278 674.22,698.849 676.389,698.42 678.558,697.991 680.726,697.562 682.895,697.134 685.064,696.706 687.232,696.279 689.401,695.851 691.57,695.424 693.738,694.997 695.907,694.571 698.076,694.145 700.244,693.719 702.413,693.293 704.581,692.868 706.75,692.443 708.919,692.019 711.087,691.594 713.256,691.17 715.425,690.746 717.593,690.323 719.762,689.9 721.931,689.477 724.099,689.054 726.268,688.632 728.437,688.21 730.605,687.788 732.774,687.367 734.943,686.946 737.111,686.525 739.28,686.104 741.449,685.684 743.617,685.264 745.786,684.845 747.954,684.425 750.123,684.006 752.292,683.588 754.46,683.169 756.629,682.751 758.798,682.333 760.966,681.915 763.135,681.498 765.304,681.081 767.472,680.664 769.641,680.248 771.81,679.832 773.978,679.416 776.147,679.001 778.316,678.585 780.484,678.17 782.653,677.756 784.822,677.341 786.99,676.927 789.159,676.514 791.328,676.1 793.496,675.687 795.665,675.274 797.833,674.861 800.002,674.449 802.171,674.037 804.339,673.625 806.508,1093.78 808.677,1093.08 810.845,1092.37 813.014,1091.67 815.183,1090.96 817.351,1090.26 819.52,1089.56 821.689,1088.85 823.857,1088.15 826.026,1087.45 828.195,1086.75 830.363,1086.05 832.532,1085.35 834.701,1084.65 836.869,1083.95 839.038,1083.25 841.206,1082.55 843.375,1081.85 845.544,1081.15 847.712,1080.46 849.881,1079.76 852.05,1079.06 854.218,1078.37 856.387,1077.67 858.556,1076.98 860.724,1076.29 862.893,1075.59 865.062,1074.9 867.23,1074.21 869.399,1073.51 871.568,1072.82 873.736,1072.13 875.905,1071.44 878.074,1070.75 880.242,1070.06 882.411,1069.37 884.579,1068.68 886.748,1068 888.917,1067.31 891.085,1066.62 893.254,1065.93 895.423,1065.25 897.591,1064.56 899.76,1063.88 901.929,1063.19 904.097,1062.51 906.266,1061.82 908.435,1061.14 910.603,1060.46 912.772,1059.77 914.941,1059.09 917.109,1058.41 919.278,1057.73 921.447,1057.05 923.615,1056.37 925.784,1055.69 927.952,1055.01 930.121,1054.33 932.29,1053.65 934.458,1052.98 936.627,1052.3 938.796,1051.62 940.964,1050.95 943.133,1050.27 945.302,1049.6 947.47,1048.92 949.639,1048.25 951.808,1047.57 953.976,1046.9 956.145,1046.23 958.314,1045.55 960.482,1044.88 962.651,1044.21 964.82,1043.54 966.988,1042.87 969.157,1042.2 971.326,1041.53 973.494,1040.86 975.663,1040.19 977.831,1039.52 980,1038.85 982.169,1038.19 984.337,1037.52 986.506,1036.85 988.675,1036.19 990.843,1035.52 993.012,1034.86 995.181,1034.19 997.349,1033.53 999.518,1032.87 1001.69,1032.2 1003.86,1031.54 1006.02,1030.88 1008.19,1030.22 1010.36,1029.55 1012.53,1028.89 1014.7,1028.23 1016.87,1027.57 1019.04,1026.91 1021.2,1026.26 1023.37,1025.6 1025.54,1024.94 1027.71,1024.28 1029.88,1023.62 1032.05,1022.97 1034.22,1022.31 1036.39,1021.66 1038.55,1021 1040.72,1020.35 1042.89,1019.69 1045.06,1019.04 1047.23,1018.38 1049.4,1017.73 1051.57,1017.08 1053.73,1016.43 1055.9,1015.77 1058.07,1015.12 1060.24,1014.47 1062.41,1013.82 1064.58,1013.17 1066.75,1012.52 1068.91,1011.87 1071.08,1011.23 1073.25,1010.58 1075.42,1009.93 1077.59,1009.28 1079.76,1008.64 1081.93,1007.99 1084.1,1007.35 1086.26,1006.7 1088.43,1006.06 1090.6,1005.41 1092.77,1004.77 1094.94,1004.12 1097.11,1003.48 1099.28,1002.84 1101.44,1002.2 1103.61,1001.55 1105.78,1000.91 1107.95,1000.27 1110.12,999.632 1112.29,998.992 1114.46,998.353 1116.63,1232.56 1118.79,1231.75 1120.96,1230.95 1123.13,1230.15 1125.3,1229.35 1127.47,1228.55 1129.64,1227.75 1131.81,1226.95 1133.97,1226.15 1136.14,1225.35 1138.31,1224.55 1140.48,1223.75 1142.65,1222.96 1144.82,1222.16 1146.99,1221.36 1149.15,1220.57 1151.32,1219.77 1153.49,1218.98 1155.66,1218.19 1157.83,1217.39 1160,1216.6 1162.17,1215.81 1164.34,1215.02 1166.5,1214.23 1168.67,1213.44 1170.84,1212.65 1173.01,1211.86 1175.18,1211.07 1177.35,1210.28 1179.52,1209.5 1181.68,1208.71 1183.85,1207.92 1186.02,1207.14 1188.19,1206.35 1190.36,1205.57 1192.53,1204.78 1194.7,1204 1196.87,1203.22 1199.03,1202.43 1201.2,1201.65 1203.37,1200.87 1205.54,1200.09 1207.71,1199.31 1209.88,1198.53 1212.05,1197.75 1214.21,1196.97 1216.38,1196.19 1218.55,1195.42 1220.72,1194.64 1222.89,1193.86 1225.06,1193.09 1227.23,1192.31 1229.39,1191.54 1231.56,1190.76 1233.73,1189.99 1235.9,1189.22 1238.07,1188.44 1240.24,1187.67 1242.41,1186.9 1244.58,1186.13 1246.74,1185.36 1248.91,1184.59 1251.08,1183.82 1253.25,1183.05 1255.42,1182.28 1257.59,1181.51 1259.76,1180.75 1261.92,1179.98 1264.09,1179.21 1266.26,1178.45 1268.43,1177.68 1270.6,1176.92 1272.77,1176.15 1274.94,1175.39 1277.11,1174.63 1279.27,1173.87 1281.44,1173.1 1283.61,1172.34 1285.78,1171.58 1287.95,1170.82 1290.12,1170.06 1292.29,1169.3 1294.45,1168.54 1296.62,1167.79 1298.79,1167.03 1300.96,1166.27 1303.13,1165.51 1305.3,1164.76 1307.47,1164 1309.63,1163.25 1311.8,1162.49 1313.97,1161.74 1316.14,1160.99 1318.31,1160.23 1320.48,1159.48 1322.65,1158.73 1324.82,1157.98 1326.98,1157.23 1329.15,1156.48 1331.32,1155.73 1333.49,1154.98 1335.66,1154.23 1337.83,1153.48 1340,1152.73 1342.16,1151.99 1344.33,1151.24 1346.5,1150.49 1348.67,1149.75 1350.84,1149 1353.01,1148.26 1355.18,1147.52 1357.35,1146.77 1359.51,1146.03 1361.68,1145.29 1363.85,1144.54 1366.02,1143.8 1368.19,1143.06 1370.36,1142.32 1372.53,1141.58 1374.69,1140.84 1376.86,1140.1 1379.03,1139.37 1381.2,1138.63 1383.37,1137.89 1385.54,1137.15 1387.71,1136.42 1389.88,1135.68 1392.04,1134.95 1394.21,1134.21 1396.38,1133.48 1398.55,1132.75 1400.72,1132.01 1402.89,1131.28 1405.06,1130.55 1407.22,1129.82 1409.39,1129.09 1411.56,1128.35 1413.73,1127.62 1415.9,1126.9 1418.07,1126.17 1420.24,1125.44 1422.4,1124.71 1424.57,1283.15 1426.74,1282.31 1428.91,1281.47 1431.08,1280.64 1433.25,1279.8 1435.42,1278.96 1437.59,1278.13 1439.75,1277.29 1441.92,1276.46 1444.09,1275.62 1446.26,1274.79 1448.43,1273.96 1450.6,1273.13 1452.77,1272.3 1454.93,1271.46 1457.1,1270.63 1459.27,1269.8 1461.44,1268.98 1463.61,1268.15 1465.78,1267.32 1467.95,1266.49 1470.12,1265.66 1472.28,1264.84 1474.45,1264.01 1476.62,1263.19 1478.79,1262.36 1480.96,1261.54 1483.13,1260.72 1485.3,1259.89 1487.46,1259.07 1489.63,1258.25 1491.8,1257.43 1493.97,1256.61 1496.14,1255.79 1498.31,1254.97 1500.48,1254.15 1502.64,1253.33 1504.81,1252.52 1506.98,1251.7 1509.15,1250.88 1511.32,1250.07 1513.49,1249.25 1515.66,1248.44 1517.83,1247.62 1519.99,1246.81 1522.16,1246 1524.33,1245.18 1526.5,1244.37 1528.67,1243.56 1530.84,1242.75 1533.01,1241.94 1535.17,1241.13 1537.34,1240.32 1539.51,1239.51 1541.68,1238.7 1543.85,1237.9 1546.02,1237.09 1548.19,1236.28 1550.36,1235.48 1552.52,1234.67 1554.69,1233.87 1556.86,1233.07 1559.03,1232.26 1561.2,1231.46 1563.37,1230.66 1565.54,1229.86 1567.7,1229.05 1569.87,1228.25 1572.04,1227.45 1574.21,1226.65 1576.38,1225.86 1578.55,1225.06 1580.72,1224.26 1582.88,1223.46 1585.05,1222.67 1587.22,1221.87 1589.39,1221.07 1591.56,1220.28 1593.73,1219.48 1595.9,1218.69 1598.07,1217.9 1600.23,1217.1 1602.4,1216.31 1604.57,1215.52 1606.74,1214.73 1608.91,1213.94 1611.08,1213.15 1613.25,1212.36 1615.41,1211.57 1617.58,1210.78 1619.75,1210 1621.92,1209.21 1624.09,1208.42 1626.26,1207.64 1628.43,1206.85 1630.6,1206.06 1632.76,1205.28 1634.93,1204.5 1637.1,1203.71 1639.27,1202.93 1641.44,1202.15 1643.61,1201.37 1645.78,1200.59 1647.94,1199.8 1650.11,1199.02 1652.28,1198.25 1654.45,1197.47 1656.62,1196.69 1658.79,1195.91 1660.96,1195.13 1663.13,1194.36 1665.29,1193.58 1667.46,1192.8 1669.63,1192.03 1671.8,1191.25 1673.97,1190.48 1676.14,1189.71 1678.31,1188.93 1680.47,1188.16 1682.64,1187.39 1684.81,1186.62 1686.98,1185.85 1689.15,1185.08 1691.32,1184.31 1693.49,1183.54 1695.65,1182.77 1697.82,1182 1699.99,1181.23 1702.16,1180.47 1704.33,1179.7 1706.5,1178.93 1708.67,1178.17 1710.84,1177.4 1713,1176.64 1715.17,1175.88 1717.34,1175.11 1719.51,1174.35 1721.68,1173.59 1723.85,1172.83 1726.02,1172.06 1728.18,1171.3 1730.35,1170.54 1732.52,1169.78 1734.69,1300.59 1736.86,1299.74 1739.03,1298.89 1741.2,1298.04 1743.37,1297.19 1745.53,1296.34 1747.7,1295.49 1749.87,1294.65 1752.04,1293.8 1754.21,1292.96 1756.38,1292.11 1758.55,1291.27 1760.71,1290.42 1762.88,1289.58 1765.05,1288.73 1767.22,1287.89 1769.39,1287.05 1771.56,1286.21 1773.73,1285.37 1775.89,1284.53 1778.06,1283.69 1780.23,1282.85 1782.4,1282.01 1784.57,1281.17 1786.74,1280.34 1788.91,1279.5 1791.08,1278.67 1793.24,1277.83 1795.41,1277 1797.58,1276.16 1799.75,1275.33 1801.92,1274.49 1804.09,1273.66 1806.26,1272.83 1808.42,1272 1810.59,1271.17 1812.76,1270.34 1814.93,1269.51 1817.1,1268.68 1819.27,1267.85 1821.44,1267.02 1823.61,1266.2 1825.77,1265.37 1827.94,1264.54 1830.11,1263.72 1832.28,1262.89 1834.45,1262.07 1836.62,1261.25 1838.79,1260.42 1840.95,1259.6 1843.12,1258.78 1845.29,1257.96 1847.46,1257.14 1849.63,1256.32 1851.8,1255.5 1853.97,1254.68 1856.13,1253.86 1858.3,1253.04 1860.47,1252.22 1862.64,1251.41 1864.81,1250.59 1866.98,1249.78 1869.15,1248.96 1871.32,1248.15 1873.48,1247.33 1875.65,1246.52 1877.82,1245.71 1879.99,1244.89 1882.16,1244.08 1884.33,1243.27 1886.5,1242.46 1888.66,1241.65 1890.83,1240.84 1893,1240.03 1895.17,1239.22 1897.34,1238.42 1899.51,1237.61 1901.68,1236.8 1903.85,1236 1906.01,1235.19 1908.18,1234.39 1910.35,1233.58 1912.52,1232.78 1914.69,1231.98 1916.86,1231.17 1919.03,1230.37 1921.19,1229.57 1923.36,1228.77 1925.53,1227.97 1927.7,1227.17 1929.87,1226.37 1932.04,1225.57 1934.21,1224.77 1936.37,1223.98 1938.54,1223.18 1940.71,1222.38 1942.88,1221.59 1945.05,1220.79 1947.22,1220 1949.39,1219.2 1951.56,1218.41 1953.72,1217.62 1955.89,1216.82 1958.06,1216.03 1960.23,1215.24 1962.4,1214.45 1964.57,1213.66 1966.74,1212.87 1968.9,1212.08 1971.07,1211.29 1973.24,1210.5 1975.41,1209.71 1977.58,1208.93 1979.75,1208.14 1981.92,1207.36 1984.09,1206.57 1986.25,1205.79 1988.42,1205 1990.59,1204.22 1992.76,1203.43 1994.93,1202.65 1997.1,1201.87 1999.27,1201.09 2001.43,1200.31 2003.6,1199.53 2005.77,1198.75 2007.94,1197.97 2010.11,1197.19 2012.28,1196.41 2014.45,1195.63 2016.62,1194.86 2018.78,1194.08 2020.95,1193.3 2023.12,1192.53 2025.29,1191.75 2027.46,1190.98 2029.63,1190.2 2031.8,1189.43 2033.96,1188.66 2036.13,1187.89 2038.3,1187.11 2040.47,1186.34 2042.64,1185.57 2044.81,1184.8 2046.98,1184.03 2049.14,1183.26 2051.31,1182.5 2053.48,1181.73 2055.65,1180.96 2057.82,1180.19 2059.99,1179.43 2062.16,1178.66 2064.33,1177.9 2066.49,1177.13 2068.66,1176.37 2070.83,1175.6 2073,1174.84 2075.17,1174.08 2077.34,1173.32 2079.51,1172.55 2081.67,1171.79 2083.84,1171.03 2086.01,1170.27 2088.18,1169.51 2090.35,1168.75 2092.52,1168 2094.69,1167.24 2096.86,1166.48 2099.02,1165.72 2101.19,1164.97 2103.36,1164.21 2105.53,1163.46 2107.7,1162.7 2109.87,1161.95 2112.04,1161.2 2114.2,1160.44 2116.37,1159.69 2118.54,1158.94 2120.71,1158.19 2122.88,1157.44 2125.05,1156.68 2127.22,1155.94 2129.38,1155.19 2131.55,1154.44 2133.72,1153.69 2135.89,1152.94 2138.06,1152.19 2140.23,1151.45 2142.4,1150.7 2144.57,1149.96 2146.73,1149.21 2148.9,1148.47 2151.07,1147.72 2153.24,1146.98 2155.41,1146.23 2157.58,1145.49 2159.75,1144.75 2161.91,1144.01 2164.08,1143.27 2166.25,1142.53 2168.42,1141.79 2170.59,1141.05 2172.76,1140.31 2174.93,1139.57 2177.1,1138.83 2179.26,1138.1 2181.43,1137.36 2183.6,1136.62 2185.77,1135.89 2187.94,1135.15 2190.11,1134.42 2192.28,1133.68 2194.44,1132.95 2196.61,1132.21 2198.78,1131.48 2200.95,1130.75 2203.12,1130.02 2205.29,1129.29 2207.46,1128.56 2209.62,1127.83 2211.79,1127.1 2213.96,1126.37 2216.13,1125.64 2218.3,1124.91 2220.47,1124.18 2222.64,1123.46 2224.81,1122.73 2226.97,1122 2229.14,1121.28 2231.31,1120.55 2233.48,1119.83 2235.65,1119.1 2237.82,1118.38 2239.99,1117.66 2242.15,1116.94 2244.32,1116.21 2246.49,1115.49 2248.66,1114.77 2250.83,1114.05 2253,1113.33 2255.17,1112.61 2257.34,1111.89 2259.5,1111.17 2261.67,1110.46 2263.84,1109.74 2266.01,1109.02 2268.18,1108.3 2270.35,1107.59 2272.52,1106.87 2274.68,1106.16 2276.85,1105.44 2279.02,1104.73 2281.19,1104.02 2283.36,1103.3 2285.53,1102.59 2287.7,1101.88 2289.87,1101.17 2292.03,1100.46 2294.2,1099.75 2296.37,1099.04 2298.54,1098.33 2300.71,1097.62 2302.88,1096.91 2305.05,1096.2 2307.21,1095.49 2309.38,1094.79 2311.55,1094.08 2313.72,1093.37 2315.89,1092.67 2318.06,1091.96 2320.23,1091.26 2322.39,1090.55 2324.56,1089.85 2326.73,1089.15 2328.9,1088.45 2331.07,1087.74 2333.24,1087.04 2335.41,1086.34 2337.58,1085.64 2339.74,1084.94 2341.91,1084.24 2344.08,1083.54 2346.25,1082.84 2348.42,1082.14 2350.59,1081.45 2352.76,1080.75 "/>
<path clip-path="url(#clip570)" d="M1974.79 248.629 L2280.54 248.629 L2280.54 93.1086 L1974.79 93.1086  Z" fill="#ffffff" fill-rule="evenodd" fill-opacity="1"/>
<polyline clip-path="url(#clip570)" style="stroke:#000000; stroke-linecap:round; stroke-linejoin:round; stroke-width:4; stroke-opacity:1; fill:none" points="1974.79,248.629 2280.54,248.629 2280.54,93.1086 1974.79,93.1086 1974.79,248.629 "/>
<polyline clip-path="url(#clip570)" style="stroke:#009af9; stroke-linecap:round; stroke-linejoin:round; stroke-width:4; stroke-opacity:1; fill:none" points="1998.87,144.949 2143.3,144.949 "/>
<path clip-path="url(#clip570)" d="M2167.37 151.997 L2167.37 136.303 L2171.63 136.303 L2171.63 151.835 Q2171.63 155.516 2173.07 157.368 Q2174.5 159.196 2177.37 159.196 Q2180.82 159.196 2182.81 156.997 Q2184.82 154.798 2184.82 151.002 L2184.82 136.303 L2189.08 136.303 L2189.08 162.229 L2184.82 162.229 L2184.82 158.247 Q2183.27 160.608 2181.21 161.766 Q2179.18 162.9 2176.47 162.9 Q2172 162.9 2169.69 160.122 Q2167.37 157.344 2167.37 151.997 M2178.09 135.678 L2178.09 135.678 Z" fill="#000000" fill-rule="nonzero" fill-opacity="1" /><path clip-path="url(#clip570)" d="M2197.46 126.21 L2207.28 126.21 L2207.28 129.52 L2201.72 129.52 L2201.72 165.168 L2207.28 165.168 L2207.28 168.479 L2197.46 168.479 L2197.46 126.21 Z" fill="#000000" fill-rule="nonzero" fill-opacity="1" /><path clip-path="url(#clip570)" d="M2217 127.669 L2235.36 127.669 L2235.36 131.604 L2221.28 131.604 L2221.28 140.076 Q2222.3 139.729 2223.32 139.567 Q2224.34 139.382 2225.36 139.382 Q2231.14 139.382 2234.52 142.553 Q2237.9 145.724 2237.9 151.141 Q2237.9 156.719 2234.43 159.821 Q2230.96 162.9 2224.64 162.9 Q2222.46 162.9 2220.19 162.53 Q2217.95 162.159 2215.54 161.418 L2215.54 156.719 Q2217.63 157.854 2219.85 158.409 Q2222.07 158.965 2224.55 158.965 Q2228.55 158.965 2230.89 156.858 Q2233.23 154.752 2233.23 151.141 Q2233.23 147.53 2230.89 145.423 Q2228.55 143.317 2224.55 143.317 Q2222.67 143.317 2220.8 143.733 Q2218.94 144.15 2217 145.03 L2217 127.669 Z" fill="#000000" fill-rule="nonzero" fill-opacity="1" /><path clip-path="url(#clip570)" d="M2256.47 126.21 L2256.47 168.479 L2246.65 168.479 L2246.65 165.168 L2252.19 165.168 L2252.19 129.52 L2246.65 129.52 L2246.65 126.21 L2256.47 126.21 Z" fill="#000000" fill-rule="nonzero" fill-opacity="1" /><polyline clip-path="url(#clip570)" style="stroke:#e26f46; stroke-linecap:round; stroke-linejoin:round; stroke-width:4; stroke-opacity:1; fill:none" points="1998.87,196.789 2143.3,196.789 "/>
<path clip-path="url(#clip570)" d="M2167.37 203.837 L2167.37 188.143 L2171.63 188.143 L2171.63 203.675 Q2171.63 207.356 2173.07 209.208 Q2174.5 211.036 2177.37 211.036 Q2180.82 211.036 2182.81 208.837 Q2184.82 206.638 2184.82 202.842 L2184.82 188.143 L2189.08 188.143 L2189.08 214.069 L2184.82 214.069 L2184.82 210.087 Q2183.27 212.448 2181.21 213.606 Q2179.18 214.74 2176.47 214.74 Q2172 214.74 2169.69 211.962 Q2167.37 209.184 2167.37 203.837 M2178.09 187.518 L2178.09 187.518 Z" fill="#000000" fill-rule="nonzero" fill-opacity="1" /><path clip-path="url(#clip570)" d="M2197.46 178.05 L2207.28 178.05 L2207.28 181.36 L2201.72 181.36 L2201.72 217.008 L2207.28 217.008 L2207.28 220.319 L2197.46 220.319 L2197.46 178.05 Z" fill="#000000" fill-rule="nonzero" fill-opacity="1" /><path clip-path="url(#clip570)" d="M2227.53 194.925 Q2224.38 194.925 2222.53 197.078 Q2220.7 199.231 2220.7 202.981 Q2220.7 206.708 2222.53 208.883 Q2224.38 211.036 2227.53 211.036 Q2230.68 211.036 2232.51 208.883 Q2234.36 206.708 2234.36 202.981 Q2234.36 199.231 2232.51 197.078 Q2230.68 194.925 2227.53 194.925 M2236.82 180.273 L2236.82 184.532 Q2235.06 183.698 2233.25 183.259 Q2231.47 182.819 2229.71 182.819 Q2225.08 182.819 2222.63 185.944 Q2220.19 189.069 2219.85 195.388 Q2221.21 193.374 2223.27 192.309 Q2225.33 191.222 2227.81 191.222 Q2233.02 191.222 2236.03 194.393 Q2239.06 197.541 2239.06 202.981 Q2239.06 208.305 2235.91 211.522 Q2232.76 214.74 2227.53 214.74 Q2221.54 214.74 2218.37 210.157 Q2215.19 205.55 2215.19 196.823 Q2215.19 188.629 2219.08 183.768 Q2222.97 178.884 2229.52 178.884 Q2231.28 178.884 2233.07 179.231 Q2234.87 179.578 2236.82 180.273 Z" fill="#000000" fill-rule="nonzero" fill-opacity="1" /><path clip-path="url(#clip570)" d="M2256.47 178.05 L2256.47 220.319 L2246.65 220.319 L2246.65 217.008 L2252.19 217.008 L2252.19 181.36 L2246.65 181.36 L2246.65 178.05 L2256.47 178.05 Z" fill="#000000" fill-rule="nonzero" fill-opacity="1" /></svg>
