<?xml version="1.0" encoding="utf-8"?>
<svg xmlns="http://www.w3.org/2000/svg" xmlns:xlink="http://www.w3.org/1999/xlink" width="600" height="400" viewBox="0 0 2400 1600">
<defs>
  <clipPath id="clip330">
    <rect x="0" y="0" width="2400" height="1600"/>
  </clipPath>
</defs>
<path clip-path="url(#clip330)" d="M0 1600 L2400 1600 L2400 0 L0 0  Z" fill="#ffffff" fill-rule="evenodd" fill-opacity="1"/>
<defs>
  <clipPath id="clip331">
    <rect x="178" y="47" width="2175" height="1377"/>
  </clipPath>
</defs>
<path clip-path="url(#clip330)" d="M178.867 1423.18 L2352.76 1423.18 L2352.76 47.2441 L178.867 47.2441  Z" fill="#ffffff" fill-rule="evenodd" fill-opacity="1"/>
<polyline clip-path="url(#clip331)" style="stroke:#000000; stroke-linecap:round; stroke-linejoin:round; stroke-width:2; stroke-opacity:0.1; fill:none" points="178.867,1423.18 178.867,47.2441 "/>
<polyline clip-path="url(#clip331)" style="stroke:#000000; stroke-linecap:round; stroke-linejoin:round; stroke-width:2; stroke-opacity:0.1; fill:none" points="722.339,1423.18 722.339,47.2441 "/>
<polyline clip-path="url(#clip331)" style="stroke:#000000; stroke-linecap:round; stroke-linejoin:round; stroke-width:2; stroke-opacity:0.1; fill:none" points="1265.81,1423.18 1265.81,47.2441 "/>
<polyline clip-path="url(#clip331)" style="stroke:#000000; stroke-linecap:round; stroke-linejoin:round; stroke-width:2; stroke-opacity:0.1; fill:none" points="1809.28,1423.18 1809.28,47.2441 "/>
<polyline clip-path="url(#clip331)" style="stroke:#000000; stroke-linecap:round; stroke-linejoin:round; stroke-width:2; stroke-opacity:0.1; fill:none" points="2352.76,1423.18 2352.76,47.2441 "/>
<polyline clip-path="url(#clip331)" style="stroke:#000000; stroke-linecap:round; stroke-linejoin:round; stroke-width:2; stroke-opacity:0.1; fill:none" points="178.867,1229.19 2352.76,1229.19 "/>
<polyline clip-path="url(#clip331)" style="stroke:#000000; stroke-linecap:round; stroke-linejoin:round; stroke-width:2; stroke-opacity:0.1; fill:none" points="178.867,848.186 2352.76,848.186 "/>
<polyline clip-path="url(#clip331)" style="stroke:#000000; stroke-linecap:round; stroke-linejoin:round; stroke-width:2; stroke-opacity:0.1; fill:none" points="178.867,467.186 2352.76,467.186 "/>
<polyline clip-path="url(#clip331)" style="stroke:#000000; stroke-linecap:round; stroke-linejoin:round; stroke-width:2; stroke-opacity:0.1; fill:none" points="178.867,86.1857 2352.76,86.1857 "/>
<polyline clip-path="url(#clip330)" style="stroke:#000000; stroke-linecap:round; stroke-linejoin:round; stroke-width:4; stroke-opacity:1; fill:none" points="178.867,1423.18 2352.76,1423.18 "/>
<polyline clip-path="url(#clip330)" style="stroke:#000000; stroke-linecap:round; stroke-linejoin:round; stroke-width:4; stroke-opacity:1; fill:none" points="178.867,1423.18 178.867,1404.28 "/>
<polyline clip-path="url(#clip330)" style="stroke:#000000; stroke-linecap:round; stroke-linejoin:round; stroke-width:4; stroke-opacity:1; fill:none" points="722.339,1423.18 722.339,1404.28 "/>
<polyline clip-path="url(#clip330)" style="stroke:#000000; stroke-linecap:round; stroke-linejoin:round; stroke-width:4; stroke-opacity:1; fill:none" points="1265.81,1423.18 1265.81,1404.28 "/>
<polyline clip-path="url(#clip330)" style="stroke:#000000; stroke-linecap:round; stroke-linejoin:round; stroke-width:4; stroke-opacity:1; fill:none" points="1809.28,1423.18 1809.28,1404.28 "/>
<polyline clip-path="url(#clip330)" style="stroke:#000000; stroke-linecap:round; stroke-linejoin:round; stroke-width:4; stroke-opacity:1; fill:none" points="2352.76,1423.18 2352.76,1404.28 "/>
<path clip-path="url(#clip330)" d="M178.867 1454.1 Q175.256 1454.1 173.427 1457.66 Q171.621 1461.2 171.621 1468.33 Q171.621 1475.44 173.427 1479.01 Q175.256 1482.55 178.867 1482.55 Q182.501 1482.55 184.306 1479.01 Q186.135 1475.44 186.135 1468.33 Q186.135 1461.2 184.306 1457.66 Q182.501 1454.1 178.867 1454.1 M178.867 1450.39 Q184.677 1450.39 187.732 1455 Q190.811 1459.58 190.811 1468.33 Q190.811 1477.06 187.732 1481.67 Q184.677 1486.25 178.867 1486.25 Q173.056 1486.25 169.978 1481.67 Q166.922 1477.06 166.922 1468.33 Q166.922 1459.58 169.978 1455 Q173.056 1450.39 178.867 1450.39 Z" fill="#000000" fill-rule="nonzero" fill-opacity="1" /><path clip-path="url(#clip330)" d="M697.038 1451.02 L715.395 1451.02 L715.395 1454.96 L701.321 1454.96 L701.321 1463.43 Q702.339 1463.08 703.358 1462.92 Q704.376 1462.73 705.395 1462.73 Q711.182 1462.73 714.561 1465.9 Q717.941 1469.08 717.941 1474.49 Q717.941 1480.07 714.469 1483.17 Q710.996 1486.25 704.677 1486.25 Q702.501 1486.25 700.233 1485.88 Q697.987 1485.51 695.58 1484.77 L695.58 1480.07 Q697.663 1481.2 699.885 1481.76 Q702.108 1482.32 704.584 1482.32 Q708.589 1482.32 710.927 1480.21 Q713.265 1478.1 713.265 1474.49 Q713.265 1470.88 710.927 1468.77 Q708.589 1466.67 704.584 1466.67 Q702.709 1466.67 700.834 1467.08 Q698.983 1467.5 697.038 1468.38 L697.038 1451.02 Z" fill="#000000" fill-rule="nonzero" fill-opacity="1" /><path clip-path="url(#clip330)" d="M737.154 1454.1 Q733.543 1454.1 731.714 1457.66 Q729.908 1461.2 729.908 1468.33 Q729.908 1475.44 731.714 1479.01 Q733.543 1482.55 737.154 1482.55 Q740.788 1482.55 742.593 1479.01 Q744.422 1475.44 744.422 1468.33 Q744.422 1461.2 742.593 1457.66 Q740.788 1454.1 737.154 1454.1 M737.154 1450.39 Q742.964 1450.39 746.019 1455 Q749.098 1459.58 749.098 1468.33 Q749.098 1477.06 746.019 1481.67 Q742.964 1486.25 737.154 1486.25 Q731.344 1486.25 728.265 1481.67 Q725.209 1477.06 725.209 1468.33 Q725.209 1459.58 728.265 1455 Q731.344 1450.39 737.154 1450.39 Z" fill="#000000" fill-rule="nonzero" fill-opacity="1" /><path clip-path="url(#clip330)" d="M1225.42 1481.64 L1233.06 1481.64 L1233.06 1455.28 L1224.75 1456.95 L1224.75 1452.69 L1233.01 1451.02 L1237.69 1451.02 L1237.69 1481.64 L1245.33 1481.64 L1245.33 1485.58 L1225.42 1485.58 L1225.42 1481.64 Z" fill="#000000" fill-rule="nonzero" fill-opacity="1" /><path clip-path="url(#clip330)" d="M1264.77 1454.1 Q1261.16 1454.1 1259.33 1457.66 Q1257.52 1461.2 1257.52 1468.33 Q1257.52 1475.44 1259.33 1479.01 Q1261.16 1482.55 1264.77 1482.55 Q1268.4 1482.55 1270.21 1479.01 Q1272.04 1475.44 1272.04 1468.33 Q1272.04 1461.2 1270.21 1457.66 Q1268.4 1454.1 1264.77 1454.1 M1264.77 1450.39 Q1270.58 1450.39 1273.64 1455 Q1276.71 1459.58 1276.71 1468.33 Q1276.71 1477.06 1273.64 1481.67 Q1270.58 1486.25 1264.77 1486.25 Q1258.96 1486.25 1255.88 1481.67 Q1252.83 1477.06 1252.83 1468.33 Q1252.83 1459.58 1255.88 1455 Q1258.96 1450.39 1264.77 1450.39 Z" fill="#000000" fill-rule="nonzero" fill-opacity="1" /><path clip-path="url(#clip330)" d="M1294.93 1454.1 Q1291.32 1454.1 1289.49 1457.66 Q1287.69 1461.2 1287.69 1468.33 Q1287.69 1475.44 1289.49 1479.01 Q1291.32 1482.55 1294.93 1482.55 Q1298.57 1482.55 1300.37 1479.01 Q1302.2 1475.44 1302.2 1468.33 Q1302.2 1461.2 1300.37 1457.66 Q1298.57 1454.1 1294.93 1454.1 M1294.93 1450.39 Q1300.74 1450.39 1303.8 1455 Q1306.88 1459.58 1306.88 1468.33 Q1306.88 1477.06 1303.8 1481.67 Q1300.74 1486.25 1294.93 1486.25 Q1289.12 1486.25 1286.04 1481.67 Q1282.99 1477.06 1282.99 1468.33 Q1282.99 1459.58 1286.04 1455 Q1289.12 1450.39 1294.93 1450.39 Z" fill="#000000" fill-rule="nonzero" fill-opacity="1" /><path clip-path="url(#clip330)" d="M1768.89 1481.64 L1776.53 1481.64 L1776.53 1455.28 L1768.22 1456.95 L1768.22 1452.69 L1776.48 1451.02 L1781.16 1451.02 L1781.16 1481.64 L1788.8 1481.64 L1788.8 1485.58 L1768.89 1485.58 L1768.89 1481.64 Z" fill="#000000" fill-rule="nonzero" fill-opacity="1" /><path clip-path="url(#clip330)" d="M1798.29 1451.02 L1816.64 1451.02 L1816.64 1454.96 L1802.57 1454.96 L1802.57 1463.43 Q1803.59 1463.08 1804.61 1462.92 Q1805.63 1462.73 1806.64 1462.73 Q1812.43 1462.73 1815.81 1465.9 Q1819.19 1469.08 1819.19 1474.49 Q1819.19 1480.07 1815.72 1483.17 Q1812.25 1486.25 1805.93 1486.25 Q1803.75 1486.25 1801.48 1485.88 Q1799.24 1485.51 1796.83 1484.77 L1796.83 1480.07 Q1798.91 1481.2 1801.14 1481.76 Q1803.36 1482.32 1805.83 1482.32 Q1809.84 1482.32 1812.18 1480.21 Q1814.52 1478.1 1814.52 1474.49 Q1814.52 1470.88 1812.18 1468.77 Q1809.84 1466.67 1805.83 1466.67 Q1803.96 1466.67 1802.08 1467.08 Q1800.23 1467.5 1798.29 1468.38 L1798.29 1451.02 Z" fill="#000000" fill-rule="nonzero" fill-opacity="1" /><path clip-path="url(#clip330)" d="M1838.4 1454.1 Q1834.79 1454.1 1832.96 1457.66 Q1831.16 1461.2 1831.16 1468.33 Q1831.16 1475.44 1832.96 1479.01 Q1834.79 1482.55 1838.4 1482.55 Q1842.04 1482.55 1843.84 1479.01 Q1845.67 1475.44 1845.67 1468.33 Q1845.67 1461.2 1843.84 1457.66 Q1842.04 1454.1 1838.4 1454.1 M1838.4 1450.39 Q1844.21 1450.39 1847.27 1455 Q1850.35 1459.58 1850.35 1468.33 Q1850.35 1477.06 1847.27 1481.67 Q1844.21 1486.25 1838.4 1486.25 Q1832.59 1486.25 1829.51 1481.67 Q1826.46 1477.06 1826.46 1468.33 Q1826.46 1459.58 1829.51 1455 Q1832.59 1450.39 1838.4 1450.39 Z" fill="#000000" fill-rule="nonzero" fill-opacity="1" /><path clip-path="url(#clip330)" d="M2316.45 1481.64 L2332.77 1481.64 L2332.77 1485.58 L2310.82 1485.58 L2310.82 1481.64 Q2313.49 1478.89 2318.07 1474.26 Q2322.68 1469.61 2323.86 1468.27 Q2326.1 1465.74 2326.98 1464.01 Q2327.88 1462.25 2327.88 1460.56 Q2327.88 1457.8 2325.94 1456.07 Q2324.02 1454.33 2320.92 1454.33 Q2318.72 1454.33 2316.26 1455.09 Q2313.83 1455.86 2311.05 1457.41 L2311.05 1452.69 Q2313.88 1451.55 2316.33 1450.97 Q2318.79 1450.39 2320.82 1450.39 Q2326.19 1450.39 2329.39 1453.08 Q2332.58 1455.77 2332.58 1460.26 Q2332.58 1462.39 2331.77 1464.31 Q2330.99 1466.2 2328.88 1468.8 Q2328.3 1469.47 2325.2 1472.69 Q2322.1 1475.88 2316.45 1481.64 Z" fill="#000000" fill-rule="nonzero" fill-opacity="1" /><path clip-path="url(#clip330)" d="M2352.58 1454.1 Q2348.97 1454.1 2347.14 1457.66 Q2345.34 1461.2 2345.34 1468.33 Q2345.34 1475.44 2347.14 1479.01 Q2348.97 1482.55 2352.58 1482.55 Q2356.22 1482.55 2358.02 1479.01 Q2359.85 1475.44 2359.85 1468.33 Q2359.85 1461.2 2358.02 1457.66 Q2356.22 1454.1 2352.58 1454.1 M2352.58 1450.39 Q2358.39 1450.39 2361.45 1455 Q2364.53 1459.58 2364.53 1468.33 Q2364.53 1477.06 2361.45 1481.67 Q2358.39 1486.25 2352.58 1486.25 Q2346.77 1486.25 2343.69 1481.67 Q2340.64 1477.06 2340.64 1468.33 Q2340.64 1459.58 2343.69 1455 Q2346.77 1450.39 2352.58 1450.39 Z" fill="#000000" fill-rule="nonzero" fill-opacity="1" /><path clip-path="url(#clip330)" d="M2382.74 1454.1 Q2379.13 1454.1 2377.3 1457.66 Q2375.5 1461.2 2375.5 1468.33 Q2375.5 1475.44 2377.3 1479.01 Q2379.13 1482.55 2382.74 1482.55 Q2386.38 1482.55 2388.18 1479.01 Q2390.01 1475.44 2390.01 1468.33 Q2390.01 1461.2 2388.18 1457.66 Q2386.38 1454.1 2382.74 1454.1 M2382.74 1450.39 Q2388.55 1450.39 2391.61 1455 Q2394.69 1459.58 2394.69 1468.33 Q2394.69 1477.06 2391.61 1481.67 Q2388.55 1486.25 2382.74 1486.25 Q2376.93 1486.25 2373.86 1481.67 Q2370.8 1477.06 2370.8 1468.33 Q2370.8 1459.58 2373.86 1455 Q2376.93 1450.39 2382.74 1450.39 Z" fill="#000000" fill-rule="nonzero" fill-opacity="1" /><path clip-path="url(#clip330)" d="M1264.87 1522.27 L1264.87 1532.4 L1276.94 1532.4 L1276.94 1536.95 L1264.87 1536.95 L1264.87 1556.3 Q1264.87 1560.66 1266.05 1561.9 Q1267.26 1563.14 1270.92 1563.14 L1276.94 1563.14 L1276.94 1568.04 L1270.92 1568.04 Q1264.14 1568.04 1261.56 1565.53 Q1258.98 1562.98 1258.98 1556.3 L1258.98 1536.95 L1254.69 1536.95 L1254.69 1532.4 L1258.98 1532.4 L1258.98 1522.27 L1264.87 1522.27 Z" fill="#000000" fill-rule="nonzero" fill-opacity="1" /><polyline clip-path="url(#clip330)" style="stroke:#000000; stroke-linecap:round; stroke-linejoin:round; stroke-width:4; stroke-opacity:1; fill:none" points="178.867,1423.18 178.867,47.2441 "/>
<polyline clip-path="url(#clip330)" style="stroke:#000000; stroke-linecap:round; stroke-linejoin:round; stroke-width:4; stroke-opacity:1; fill:none" points="178.867,1229.19 197.764,1229.19 "/>
<polyline clip-path="url(#clip330)" style="stroke:#000000; stroke-linecap:round; stroke-linejoin:round; stroke-width:4; stroke-opacity:1; fill:none" points="178.867,848.186 197.764,848.186 "/>
<polyline clip-path="url(#clip330)" style="stroke:#000000; stroke-linecap:round; stroke-linejoin:round; stroke-width:4; stroke-opacity:1; fill:none" points="178.867,467.186 197.764,467.186 "/>
<polyline clip-path="url(#clip330)" style="stroke:#000000; stroke-linecap:round; stroke-linejoin:round; stroke-width:4; stroke-opacity:1; fill:none" points="178.867,86.1857 197.764,86.1857 "/>
<path clip-path="url(#clip330)" d="M51.6403 1229.64 L81.316 1229.64 L81.316 1233.57 L51.6403 1233.57 L51.6403 1229.64 Z" fill="#000000" fill-rule="nonzero" fill-opacity="1" /><path clip-path="url(#clip330)" d="M101.987 1227.32 Q98.8391 1227.32 96.9872 1229.48 Q95.1586 1231.63 95.1586 1235.38 Q95.1586 1239.1 96.9872 1241.28 Q98.8391 1243.43 101.987 1243.43 Q105.135 1243.43 106.964 1241.28 Q108.816 1239.1 108.816 1235.38 Q108.816 1231.63 106.964 1229.48 Q105.135 1227.32 101.987 1227.32 M111.27 1212.67 L111.27 1216.93 Q109.51 1216.1 107.705 1215.66 Q105.922 1215.22 104.163 1215.22 Q99.5335 1215.22 97.0798 1218.34 Q94.6493 1221.47 94.3021 1227.79 Q95.6678 1225.77 97.728 1224.71 Q99.7882 1223.62 102.265 1223.62 Q107.473 1223.62 110.483 1226.79 Q113.515 1229.94 113.515 1235.38 Q113.515 1240.7 110.367 1243.92 Q107.219 1247.14 101.987 1247.14 Q95.9919 1247.14 92.8206 1242.55 Q89.6493 1237.95 89.6493 1229.22 Q89.6493 1221.03 93.5382 1216.16 Q97.4271 1211.28 103.978 1211.28 Q105.737 1211.28 107.52 1211.63 Q109.325 1211.98 111.27 1212.67 Z" fill="#000000" fill-rule="nonzero" fill-opacity="1" /><path clip-path="url(#clip330)" d="M135.737 1227.83 Q139.094 1228.55 140.968 1230.82 Q142.867 1233.09 142.867 1236.42 Q142.867 1241.54 139.348 1244.34 Q135.83 1247.14 129.348 1247.14 Q127.172 1247.14 124.857 1246.7 Q122.566 1246.28 120.112 1245.42 L120.112 1240.91 Q122.057 1242.04 124.371 1242.62 Q126.686 1243.2 129.209 1243.2 Q133.607 1243.2 135.899 1241.47 Q138.214 1239.73 138.214 1236.42 Q138.214 1233.36 136.061 1231.65 Q133.931 1229.91 130.112 1229.91 L126.084 1229.91 L126.084 1226.07 L130.297 1226.07 Q133.746 1226.07 135.575 1224.71 Q137.404 1223.32 137.404 1220.73 Q137.404 1218.06 135.506 1216.65 Q133.631 1215.22 130.112 1215.22 Q128.191 1215.22 125.992 1215.63 Q123.793 1216.05 121.154 1216.93 L121.154 1212.76 Q123.816 1212.02 126.131 1211.65 Q128.469 1211.28 130.529 1211.28 Q135.853 1211.28 138.955 1213.71 Q142.056 1216.12 142.056 1220.24 Q142.056 1223.11 140.413 1225.1 Q138.769 1227.07 135.737 1227.83 Z" fill="#000000" fill-rule="nonzero" fill-opacity="1" /><path clip-path="url(#clip330)" d="M52.5893 848.637 L82.2651 848.637 L82.2651 852.572 L52.5893 852.572 L52.5893 848.637 Z" fill="#000000" fill-rule="nonzero" fill-opacity="1" /><path clip-path="url(#clip330)" d="M102.936 846.322 Q99.7882 846.322 97.9363 848.475 Q96.1076 850.628 96.1076 854.378 Q96.1076 858.105 97.9363 860.281 Q99.7882 862.433 102.936 862.433 Q106.084 862.433 107.913 860.281 Q109.765 858.105 109.765 854.378 Q109.765 850.628 107.913 848.475 Q106.084 846.322 102.936 846.322 M112.219 831.67 L112.219 835.929 Q110.459 835.095 108.654 834.656 Q106.871 834.216 105.112 834.216 Q100.483 834.216 98.0289 837.341 Q95.5984 840.466 95.2511 846.785 Q96.6169 844.771 98.6771 843.707 Q100.737 842.619 103.214 842.619 Q108.422 842.619 111.432 845.79 Q114.464 848.938 114.464 854.378 Q114.464 859.702 111.316 862.919 Q108.168 866.137 102.936 866.137 Q96.941 866.137 93.7697 861.554 Q90.5984 856.947 90.5984 848.22 Q90.5984 840.026 94.4873 835.165 Q98.3761 830.281 104.927 830.281 Q106.686 830.281 108.469 830.628 Q110.274 830.975 112.219 831.67 Z" fill="#000000" fill-rule="nonzero" fill-opacity="1" /><path clip-path="url(#clip330)" d="M126.547 861.531 L142.867 861.531 L142.867 865.466 L120.922 865.466 L120.922 861.531 Q123.584 858.776 128.168 854.146 Q132.774 849.494 133.955 848.151 Q136.2 845.628 137.08 843.892 Q137.982 842.132 137.982 840.443 Q137.982 837.688 136.038 835.952 Q134.117 834.216 131.015 834.216 Q128.816 834.216 126.362 834.98 Q123.932 835.744 121.154 837.295 L121.154 832.572 Q123.978 831.438 126.432 830.859 Q128.885 830.281 130.922 830.281 Q136.293 830.281 139.487 832.966 Q142.681 835.651 142.681 840.142 Q142.681 842.271 141.871 844.193 Q141.084 846.091 138.978 848.683 Q138.399 849.355 135.297 852.572 Q132.195 855.767 126.547 861.531 Z" fill="#000000" fill-rule="nonzero" fill-opacity="1" /><path clip-path="url(#clip330)" d="M52.219 467.637 L81.8947 467.637 L81.8947 471.572 L52.219 471.572 L52.219 467.637 Z" fill="#000000" fill-rule="nonzero" fill-opacity="1" /><path clip-path="url(#clip330)" d="M102.566 465.322 Q99.4178 465.322 97.566 467.475 Q95.7373 469.628 95.7373 473.378 Q95.7373 477.105 97.566 479.281 Q99.4178 481.433 102.566 481.433 Q105.714 481.433 107.543 479.281 Q109.395 477.105 109.395 473.378 Q109.395 469.628 107.543 467.475 Q105.714 465.322 102.566 465.322 M111.848 450.67 L111.848 454.929 Q110.089 454.095 108.283 453.656 Q106.501 453.216 104.742 453.216 Q100.112 453.216 97.6585 456.341 Q95.228 459.466 94.8808 465.785 Q96.2465 463.771 98.3067 462.707 Q100.367 461.619 102.844 461.619 Q108.052 461.619 111.061 464.79 Q114.094 467.938 114.094 473.378 Q114.094 478.702 110.946 481.919 Q107.797 485.137 102.566 485.137 Q96.5706 485.137 93.3993 480.554 Q90.228 475.947 90.228 467.22 Q90.228 459.026 94.1169 454.165 Q98.0058 449.281 104.557 449.281 Q106.316 449.281 108.098 449.628 Q109.904 449.975 111.848 450.67 Z" fill="#000000" fill-rule="nonzero" fill-opacity="1" /><path clip-path="url(#clip330)" d="M122.959 480.531 L130.598 480.531 L130.598 454.165 L122.288 455.832 L122.288 451.572 L130.552 449.906 L135.228 449.906 L135.228 480.531 L142.867 480.531 L142.867 484.466 L122.959 484.466 L122.959 480.531 Z" fill="#000000" fill-rule="nonzero" fill-opacity="1" /><path clip-path="url(#clip330)" d="M50.9921 86.6371 L80.6679 86.6371 L80.6679 90.5722 L50.9921 90.5722 L50.9921 86.6371 Z" fill="#000000" fill-rule="nonzero" fill-opacity="1" /><path clip-path="url(#clip330)" d="M101.339 84.3223 Q98.1909 84.3223 96.3391 86.475 Q94.5104 88.6278 94.5104 92.3778 Q94.5104 96.1046 96.3391 98.2805 Q98.1909 100.433 101.339 100.433 Q104.487 100.433 106.316 98.2805 Q108.168 96.1046 108.168 92.3778 Q108.168 88.6278 106.316 86.475 Q104.487 84.3223 101.339 84.3223 M110.621 69.6696 L110.621 73.9288 Q108.862 73.0955 107.057 72.6557 Q105.274 72.2158 103.515 72.2158 Q98.8854 72.2158 96.4317 75.3408 Q94.0012 78.4658 93.6539 84.7852 Q95.0197 82.7713 97.0798 81.7065 Q99.14 80.6186 101.617 80.6186 Q106.825 80.6186 109.834 83.7899 Q112.867 86.938 112.867 92.3778 Q112.867 97.7018 109.719 100.919 Q106.571 104.137 101.339 104.137 Q95.3437 104.137 92.1725 99.5537 Q89.0012 94.9472 89.0012 86.2204 Q89.0012 78.026 92.89 73.1649 Q96.7789 68.2807 103.33 68.2807 Q105.089 68.2807 106.871 68.6279 Q108.677 68.9751 110.621 69.6696 Z" fill="#000000" fill-rule="nonzero" fill-opacity="1" /><path clip-path="url(#clip330)" d="M130.922 71.9844 Q127.311 71.9844 125.482 75.5492 Q123.677 79.0908 123.677 86.2204 Q123.677 93.3268 125.482 96.8916 Q127.311 100.433 130.922 100.433 Q134.556 100.433 136.362 96.8916 Q138.191 93.3268 138.191 86.2204 Q138.191 79.0908 136.362 75.5492 Q134.556 71.9844 130.922 71.9844 M130.922 68.2807 Q136.732 68.2807 139.788 72.8871 Q142.867 77.4704 142.867 86.2204 Q142.867 94.9472 139.788 99.5537 Q136.732 104.137 130.922 104.137 Q125.112 104.137 122.033 99.5537 Q118.978 94.9472 118.978 86.2204 Q118.978 77.4704 122.033 72.8871 Q125.112 68.2807 130.922 68.2807 Z" fill="#000000" fill-rule="nonzero" fill-opacity="1" /><polyline clip-path="url(#clip331)" style="stroke:#009af9; stroke-linecap:round; stroke-linejoin:round; stroke-width:4; stroke-opacity:1; fill:none" points="178.867,86.1857 181.043,114.26 183.219,141.554 185.395,168.553 187.571,195.454 189.747,222.326 191.923,249.185 194.099,276.016 196.275,302.794 198.451,329.493 200.627,356.083 202.803,382.536 204.979,408.812 207.155,434.89 209.332,460.761 211.508,486.397 213.684,511.742 215.86,536.774 218.036,561.512 220.212,585.94 222.388,610.006 224.564,633.659 226.74,656.947 228.916,679.886 231.092,702.435 233.268,724.504 235.444,746.102 237.62,767.325 239.796,788.181 241.973,808.582 244.149,828.4 246.325,847.762 248.501,866.781 250.677,885.426 252.853,903.521 255.029,921.012 257.205,938.131 259.381,954.945 261.557,971.33 263.733,987.061 265.909,1002.33 268.085,1017.32 270.261,1031.97 272.437,1046.06 274.614,1059.6 276.79,1072.84 278.966,1085.81 281.142,1098.33 283.318,1110.28 285.494,1121.89 287.67,1133.27 289.846,1144.3 292.022,1154.82 294.198,1165.01 296.374,1174.87 298.55,1184.43 300.726,1193.66 302.902,1202.58 305.078,1211.19 307.254,1219.48 309.431,1227.45 311.607,1235.12 313.783,1242.51 315.959,1249.56 318.135,1256.39 320.311,1262.98 322.487,1269.33 324.663,1275.45 326.839,1281.34 329.015,1287 331.191,1292.42 333.367,1297.6 335.543,1302.55 337.719,1307.27 339.895,1311.78 342.072,1316.11 344.248,1320.26 346.424,1324.24 348.6,1328.04 350.776,1331.66 352.952,1335.1 355.128,1338.3 357.304,1341.37 359.48,1344.33 361.656,1347.17 363.832,1349.89 366.008,1352.49 368.184,1354.97 370.36,1357.34 372.536,1359.58 374.713,1361.71 376.889,1363.71 379.065,1365.6 381.241,1367.37 383.417,1369.03 385.593,1370.56 387.769,1371.97 389.945,1373.25 392.121,1374.42 394.297,1375.52 396.473,1376.56 398.649,1377.54 400.825,1378.45 403.001,1379.29 405.177,1380.07 407.353,1380.78 409.53,1381.43 411.706,1382.01 413.882,1382.52 416.058,1382.97 418.234,1383.35 420.41,1383.67 422.586,1383.92 424.762,1384.11 426.938,1384.18 429.114,1384.22 431.29,1384.24 433.466,1384.22 435.642,1384.18 437.818,1384.11 439.994,1384.01 442.171,1383.88 444.347,1383.72 446.523,1383.54 448.699,1383.32 450.875,1383.08 453.051,1382.8 455.227,1382.5 457.403,1382.17 459.579,1381.81 461.755,1381.42 463.931,1381 466.107,1380.55 468.283,1380.08 470.459,1379.57 472.635,1379.04 474.812,1378.48 476.988,1377.88 479.164,1377.26 481.34,1376.59 483.516,1375.92 485.692,1375.23 487.868,1374.54 490.044,1373.84 492.22,1373.14 494.396,1372.42 496.572,1371.7 498.748,1370.98 500.924,1370.24 503.1,1369.5 505.276,1368.75 507.452,1367.99 509.629,1367.23 511.805,1366.46 513.981,1365.68 516.157,1364.89 518.333,1364.1 520.509,1363.3 522.685,1362.49 524.861,1361.68 527.037,1360.85 529.213,1360.02 531.389,1359.19 533.565,1358.34 535.741,1357.49 537.917,1356.63 540.093,1355.76 542.27,1354.88 544.446,1354.01 546.622,1353.14 548.798,1352.27 550.974,1351.4 553.15,1350.54 555.326,1349.68 557.502,1348.82 559.678,1347.96 561.854,1347.1 564.03,1346.25 566.206,1345.4 568.382,1344.55 570.558,1343.71 572.734,1342.86 574.911,1342.02 577.087,1341.18 579.263,1340.35 581.439,1339.51 583.615,1338.68 585.791,1337.85 587.967,1337.02 590.143,1336.2 592.319,1335.37 594.495,1334.55 596.671,1333.73 598.847,1332.92 601.023,1332.1 603.199,1331.29 605.375,1330.48 607.552,1329.67 609.728,1328.87 611.904,1328.06 614.08,1327.26 616.256,1326.46 618.432,1325.67 620.608,1324.87 622.784,1324.08 624.96,1323.3 627.136,1322.52 629.312,1321.75 631.488,1320.98 633.664,1320.22 635.84,1319.46 638.016,1318.71 640.192,1317.96 642.369,1317.22 644.545,1316.48 646.721,1315.75 648.897,1315.02 651.073,1314.3 653.249,1313.59 655.425,1312.87 657.601,1312.17 659.777,1311.47 661.953,1310.77 664.129,1310.08 666.305,1309.39 668.481,1308.71 670.657,1308.03 672.833,1307.36 675.01,1306.7 677.186,1306.04 679.362,1305.38 681.538,1304.73 683.714,1304.08 685.89,1303.44 688.066,1302.81 690.242,1302.18 692.418,1301.55 694.594,1300.93 696.77,1300.32 698.946,1299.71 701.122,1299.1 703.298,1298.5 705.474,1297.91 707.651,1297.32 709.827,1296.73 712.003,1296.15 714.179,1295.58 716.355,1295.01 718.531,1294.45 720.707,1293.89 722.883,1293.35 725.059,1292.82 727.235,1292.29 729.411,1291.76 731.587,1291.24 733.763,1290.72 735.939,1290.2 738.115,1289.69 740.291,1289.19 742.468,1288.68 744.644,1288.19 746.82,1287.69 748.996,1287.2 751.172,1286.72 753.348,1286.24 755.524,1285.76 757.7,1285.29 759.876,1284.82 762.052,1284.36 764.228,1283.9 766.404,1283.44 768.58,1282.99 770.756,1282.54 772.932,1282.1 775.109,1281.66 777.285,1281.23 779.461,1280.8 781.637,1280.37 783.813,1279.95 785.989,1279.53 788.165,1279.12 790.341,1278.71 792.517,1278.31 794.693,1277.91 796.869,1277.51 799.045,1277.12 801.221,1276.73 803.397,1276.35 805.573,1275.97 807.75,1275.6 809.926,1275.22 812.102,1274.86 814.278,1274.5 816.454,1274.14 818.63,1273.79 820.806,1273.44 822.982,1273.09 825.158,1272.75 827.334,1272.41 829.51,1272.08 831.686,1271.75 833.862,1271.43 836.038,1271.11 838.214,1270.79 840.39,1270.48 842.567,1270.18 844.743,1269.87 846.919,1269.57 849.095,1269.28 851.271,1268.99 853.447,1268.71 855.623,1268.44 857.799,1268.18 859.975,1267.91 862.151,1267.65 864.327,1267.4 866.503,1267.14 868.679,1266.89 870.855,1266.64 873.031,1266.39 875.208,1266.14 877.384,1265.9 879.56,1265.65 881.736,1265.41 883.912,1265.18 886.088,1264.94 888.264,1264.71 890.44,1264.48 892.616,1264.25 894.792,1264.03 896.968,1263.8 899.144,1263.58 901.32,1263.36 903.496,1263.15 905.672,1262.93 907.849,1262.72 910.025,1262.51 912.201,1262.3 914.377,1262.1 916.553,1261.9 918.729,1261.7 920.905,1261.5 923.081,1261.3 925.257,1261.11 927.433,1260.92 929.609,1260.73 931.785,1260.54 933.961,1260.36 936.137,1260.18 938.313,1260 940.49,1259.82 942.666,1259.65 944.842,1259.48 947.018,1259.31 949.194,1259.14 951.37,1258.97 953.546,1258.81 955.722,1258.65 957.898,1258.49 960.074,1258.33 962.25,1258.18 964.426,1258.03 966.602,1257.88 968.778,1257.73 970.954,1257.59 973.13,1257.45 975.307,1257.31 977.483,1257.17 979.659,1257.03 981.835,1256.9 984.011,1256.77 986.187,1256.64 988.363,1256.52 990.539,1256.39 992.715,1256.27 994.891,1256.15 997.067,1256.04 999.243,1255.92 1001.42,1255.81 1003.6,1255.7 1005.77,1255.59 1007.95,1255.49 1010.12,1255.39 1012.3,1255.29 1014.48,1255.19 1016.65,1255.11 1018.83,1255.02 1021,1254.94 1023.18,1254.85 1025.36,1254.77 1027.53,1254.69 1029.71,1254.6 1031.88,1254.52 1034.06,1254.44 1036.24,1254.36 1038.41,1254.28 1040.59,1254.2 1042.76,1254.13 1044.94,1254.05 1047.12,1253.97 1049.29,1253.9 1051.47,1253.82 1053.64,1253.75 1055.82,1253.68 1058,1253.6 1060.17,1253.53 1062.35,1253.46 1064.53,1253.39 1066.7,1253.32 1068.88,1253.25 1071.05,1253.19 1073.23,1253.12 1075.41,1253.05 1077.58,1252.99 1079.76,1252.92 1081.93,1252.86 1084.11,1252.79 1086.29,1252.73 1088.46,1252.67 1090.64,1252.61 1092.81,1252.55 1094.99,1252.49 1097.17,1252.43 1099.34,1252.37 1101.52,1252.31 1103.69,1252.26 1105.87,1252.2 1108.05,1252.15 1110.22,1252.09 1112.4,1252.04 1114.57,1251.98 1116.75,1251.93 1118.93,1251.88 1121.1,1251.83 1123.28,1251.78 1125.46,1251.73 1127.63,1251.68 1129.81,1251.63 1131.98,1251.59 1134.16,1251.54 1136.34,1251.49 1138.51,1251.45 1140.69,1251.41 1142.86,1251.36 1145.04,1251.32 1147.22,1251.28 1149.39,1251.24 1151.57,1251.2 1153.74,1251.16 1155.92,1251.12 1158.1,1251.08 1160.27,1251.04 1162.45,1251.01 1164.62,1250.97 1166.8,1250.93 1168.98,1250.9 1171.15,1250.87 1173.33,1250.83 1175.5,1250.8 1177.68,1250.77 1179.86,1250.74 1182.03,1250.71 1184.21,1250.68 1186.38,1250.65 1188.56,1250.62 1190.74,1250.6 1192.91,1250.57 1195.09,1250.55 1197.27,1250.52 1199.44,1250.5 1201.62,1250.47 1203.79,1250.45 1205.97,1250.43 1208.15,1250.41 1210.32,1250.39 1212.5,1250.37 1214.67,1250.35 1216.85,1250.33 1219.03,1250.31 1221.2,1250.3 1223.38,1250.28 1225.55,1250.27 1227.73,1250.25 1229.91,1250.24 1232.08,1250.23 1234.26,1250.21 1236.43,1250.2 1238.61,1250.19 1240.79,1250.18 1242.96,1250.17 1245.14,1250.16 1247.31,1250.15 1249.49,1250.14 1251.67,1250.12 1253.84,1250.11 1256.02,1250.11 1258.2,1250.1 1260.37,1250.09 1262.55,1250.08 1264.72,1250.07 1266.9,1250.06 1269.08,1221.25 1271.25,1185.73 1273.43,1151.84 1275.6,1119.29 1277.78,1087.93 1279.96,1057.56 1282.13,1028.13 1284.31,999.659 1286.48,972.137 1288.66,945.409 1290.84,919.443 1293.01,894.239 1295.19,869.904 1297.36,846.335 1299.54,823.324 1301.72,800.871 1303.89,778.975 1306.07,757.638 1308.24,736.859 1310.42,716.638 1312.6,696.974 1314.77,677.907 1316.95,659.363 1319.12,641.216 1321.3,623.467 1323.48,606.116 1325.65,589.162 1327.83,572.606 1330.01,556.448 1332.18,540.688 1334.36,525.359 1336.53,510.457 1338.71,495.855 1340.89,481.554 1343.06,467.553 1345.24,453.852 1347.41,440.452 1349.59,427.352 1351.77,414.552 1353.94,402.053 1356.12,389.855 1358.29,377.993 1360.47,366.421 1362.65,355.094 1364.82,344.012 1367,333.175 1369.17,322.583 1371.35,312.237 1373.53,302.135 1375.7,292.279 1377.88,282.668 1380.05,273.302 1382.23,264.181 1384.41,255.338 1386.58,246.72 1388.76,238.326 1390.94,230.157 1393.11,222.212 1395.29,214.491 1397.46,206.995 1399.64,199.723 1401.82,192.676 1403.99,185.853 1406.17,179.254 1408.34,172.88 1410.52,166.739 1412.7,160.83 1414.87,155.15 1417.05,149.698 1419.22,144.475 1421.4,139.481 1423.58,134.716 1425.75,130.179 1427.93,125.87 1430.1,121.791 1432.28,117.94 1434.46,114.318 1436.63,110.924 1438.81,107.757 1440.98,104.836 1443.16,102.164 1445.34,99.74 1447.51,97.5652 1449.69,95.6393 1451.86,93.9623 1454.04,92.5341 1456.22,91.3548 1458.39,90.4243 1460.57,89.7427 1462.75,89.31 1464.92,89.1261 1467.1,89.1908 1469.27,89.5111 1471.45,90.0982 1473.63,90.9521 1475.8,92.0727 1477.98,93.4601 1480.15,95.1144 1482.33,97.0354 1484.51,99.2231 1486.68,101.678 1488.86,104.399 1491.03,107.387 1493.21,110.642 1495.39,114.164 1497.56,117.952 1499.74,122.038 1501.91,126.406 1504.09,131.022 1506.27,135.888 1508.44,141.003 1510.62,146.366 1512.79,151.979 1514.97,157.841 1517.15,163.951 1519.32,170.311 1521.5,176.919 1523.68,183.777 1525.85,190.883 1528.03,198.239 1530.2,205.843 1532.38,213.697 1534.56,221.932 1536.73,230.418 1538.91,239.056 1541.08,247.849 1543.26,256.795 1545.44,265.895 1547.61,275.148 1549.79,284.554 1551.96,294.115 1554.14,303.828 1556.32,313.696 1558.49,323.716 1560.67,333.891 1562.84,344.219 1565.02,354.7 1567.2,365.335 1569.37,376.124 1571.55,387.066 1573.72,398.221 1575.9,409.976 1578.08,421.703 1580.25,433.401 1582.43,445.071 1584.6,456.711 1586.78,468.324 1588.96,479.907 1591.13,491.462 1593.31,502.989 1595.49,514.487 1597.66,525.956 1599.84,537.397 1602.01,548.809 1604.19,560.192 1606.37,571.547 1608.54,582.874 1610.72,594.172 1612.89,605.441 1615.07,616.681 1617.25,627.893 1619.42,639.077 1621.6,650.232 1623.77,661.358 1625.95,672.456 1628.13,683.525 1630.3,694.696 1632.48,705.831 1634.65,716.831 1636.83,727.695 1639.01,738.423 1641.18,749.016 1643.36,759.473 1645.53,769.794 1647.71,779.98 1649.89,790.03 1652.06,799.945 1654.24,809.723 1656.41,819.367 1658.59,828.874 1660.77,838.246 1662.94,847.482 1665.12,856.582 1667.3,865.547 1669.47,874.376 1671.65,883.07 1673.82,891.627 1676,900.05 1678.18,908.336 1680.35,916.487 1682.53,924.502 1684.7,932.39 1686.88,940.202 1689.06,947.889 1691.23,955.451 1693.41,962.888 1695.58,970.2 1697.76,977.388 1699.94,984.451 1702.11,991.389 1704.29,998.203 1706.46,1004.89 1708.64,1011.46 1710.82,1017.89 1712.99,1024.21 1715.17,1030.4 1717.34,1036.46 1719.52,1042.4 1721.7,1048.22 1723.87,1053.91 1726.05,1059.48 1728.23,1064.92 1730.4,1070.23 1732.58,1075.43 1734.75,1080.49 1736.93,1085.43 1739.11,1090.25 1741.28,1094.94 1743.46,1099.51 1745.63,1103.96 1747.81,1108.27 1749.99,1112.44 1752.16,1116.53 1754.34,1120.55 1756.51,1124.5 1758.69,1128.38 1760.87,1132.19 1763.04,1135.92 1765.22,1139.59 1767.39,1143.18 1769.57,1146.69 1771.75,1150.14 1773.92,1153.51 1776.1,1156.82 1778.27,1160.05 1780.45,1163.21 1782.63,1166.29 1784.8,1169.31 1786.98,1172.25 1789.15,1175.12 1791.33,1177.92 1793.51,1180.65 1795.68,1183.3 1797.86,1185.89 1800.04,1188.4 1802.21,1190.84 1804.39,1193.2 1806.56,1195.5 1808.74,1197.72 1810.92,1199.87 1813.09,1201.95 1815.27,1203.96 1817.44,1205.89 1819.62,1207.76 1821.8,1209.55 1823.97,1211.21 1826.15,1212.85 1828.32,1214.45 1830.5,1216.03 1832.68,1217.58 1834.85,1219.1 1837.03,1220.59 1839.2,1222.05 1841.38,1223.49 1843.56,1224.9 1845.73,1226.27 1847.91,1227.62 1850.08,1228.94 1852.26,1230.24 1854.44,1231.5 1856.61,1232.74 1858.79,1233.94 1860.97,1235.12 1863.14,1236.27 1865.32,1237.39 1867.49,1238.49 1869.67,1239.55 1871.85,1240.59 1874.02,1241.6 1876.2,1242.58 1878.37,1243.53 1880.55,1244.45 1882.73,1245.34 1884.9,1246.21 1887.08,1247.04 1889.25,1247.85 1891.43,1248.63 1893.61,1249.38 1895.78,1250.11 1897.96,1250.8 1900.13,1251.47 1902.31,1252.11 1904.49,1252.71 1906.66,1253.29 1908.84,1253.85 1911.01,1254.37 1913.19,1254.87 1915.37,1255.33 1917.54,1255.77 1919.72,1256.18 1921.89,1256.56 1924.07,1256.9 1926.25,1257.22 1928.42,1257.53 1930.6,1257.83 1932.78,1258.13 1934.95,1258.42 1937.13,1258.69 1939.3,1258.97 1941.48,1259.23 1943.66,1259.49 1945.83,1259.74 1948.01,1259.98 1950.18,1260.21 1952.36,1260.44 1954.54,1260.66 1956.71,1260.87 1958.89,1261.08 1961.06,1261.27 1963.24,1261.46 1965.42,1261.64 1967.59,1261.82 1969.77,1261.98 1971.94,1262.14 1974.12,1262.29 1976.3,1262.44 1978.47,1262.57 1980.65,1262.7 1982.82,1262.82 1985,1262.93 1987.18,1263.04 1989.35,1263.14 1991.53,1263.23 1993.71,1263.31 1995.88,1263.39 1998.06,1263.45 2000.23,1263.51 2002.41,1263.57 2004.59,1263.61 2006.76,1263.65 2008.94,1263.68 2011.11,1263.7 2013.29,1263.72 2015.47,1263.72 2017.64,1263.72 2019.82,1263.71 2021.99,1263.7 2024.17,1263.68 2026.35,1263.65 2028.52,1263.61 2030.7,1263.57 2032.87,1263.54 2035.05,1263.5 2037.23,1263.46 2039.4,1263.42 2041.58,1263.37 2043.75,1263.33 2045.93,1263.29 2048.11,1263.24 2050.28,1263.19 2052.46,1263.14 2054.63,1263.09 2056.81,1263.04 2058.99,1262.99 2061.16,1262.94 2063.34,1262.88 2065.52,1262.82 2067.69,1262.77 2069.87,1262.71 2072.04,1262.65 2074.22,1262.59 2076.4,1262.52 2078.57,1262.46 2080.75,1262.39 2082.92,1262.33 2085.1,1262.26 2087.28,1262.19 2089.45,1262.12 2091.63,1262.05 2093.8,1261.98 2095.98,1261.9 2098.16,1261.83 2100.33,1261.75 2102.51,1261.67 2104.68,1261.59 2106.86,1261.51 2109.04,1261.43 2111.21,1261.35 2113.39,1261.26 2115.56,1261.18 2117.74,1261.09 2119.92,1261 2122.09,1260.91 2124.27,1260.82 2126.45,1260.73 2128.62,1260.64 2130.8,1260.54 2132.97,1260.45 2135.15,1260.35 2137.33,1260.25 2139.5,1260.15 2141.68,1260.05 2143.85,1259.96 2146.03,1259.87 2148.21,1259.78 2150.38,1259.69 2152.56,1259.6 2154.73,1259.52 2156.91,1259.43 2159.09,1259.34 2161.26,1259.25 2163.44,1259.16 2165.61,1259.08 2167.79,1258.99 2169.97,1258.9 2172.14,1258.82 2174.32,1258.73 2176.49,1258.65 2178.67,1258.56 2180.85,1258.48 2183.02,1258.39 2185.2,1258.31 2187.37,1258.22 2189.55,1258.14 2191.73,1258.06 2193.9,1257.97 2196.08,1257.89 2198.26,1257.81 2200.43,1257.72 2202.61,1257.64 2204.78,1257.56 2206.96,1257.48 2209.14,1257.4 2211.31,1257.32 2213.49,1257.24 2215.66,1257.16 2217.84,1257.08 2220.02,1257 2222.19,1256.92 2224.37,1256.84 2226.54,1256.76 2228.72,1256.68 2230.9,1256.6 2233.07,1256.52 2235.25,1256.45 2237.42,1256.37 2239.6,1256.29 2241.78,1256.21 2243.95,1256.14 2246.13,1256.06 2248.3,1255.99 2250.48,1255.91 2252.66,1255.83 2254.83,1255.76 2257.01,1255.68 2259.19,1255.61 2261.36,1255.54 2263.54,1255.46 2265.71,1255.39 2267.89,1255.31 2270.07,1255.24 2272.24,1255.17 2274.42,1255.1 2276.59,1255.02 2278.77,1254.95 2280.95,1254.88 2283.12,1254.81 2285.3,1254.74 2287.47,1254.67 2289.65,1254.61 2291.83,1254.54 2294,1254.47 2296.18,1254.41 2298.35,1254.34 2300.53,1254.28 2302.71,1254.21 2304.88,1254.15 2307.06,1254.09 2309.23,1254.02 2311.41,1253.96 2313.59,1253.9 2315.76,1253.84 2317.94,1253.78 2320.11,1253.73 2322.29,1253.67 2324.47,1253.61 2326.64,1253.56 2328.82,1253.5 2331,1253.45 2333.17,1253.39 2335.35,1253.34 2337.52,1253.29 2339.7,1253.24 2341.88,1253.18 2344.05,1253.13 2346.23,1253.08 2348.4,1253.04 2350.58,1252.99 2352.76,1252.94 "/>
<path clip-path="url(#clip330)" d="M1973.81 196.789 L2280.29 196.789 L2280.29 93.1086 L1973.81 93.1086  Z" fill="#ffffff" fill-rule="evenodd" fill-opacity="1"/>
<polyline clip-path="url(#clip330)" style="stroke:#000000; stroke-linecap:round; stroke-linejoin:round; stroke-width:4; stroke-opacity:1; fill:none" points="1973.81,196.789 2280.29,196.789 2280.29,93.1086 1973.81,93.1086 1973.81,196.789 "/>
<polyline clip-path="url(#clip330)" style="stroke:#009af9; stroke-linecap:round; stroke-linejoin:round; stroke-width:4; stroke-opacity:1; fill:none" points="1997.96,144.949 2142.89,144.949 "/>
<path clip-path="url(#clip330)" d="M2167.04 151.997 L2167.04 136.303 L2171.3 136.303 L2171.3 151.835 Q2171.3 155.516 2172.74 157.368 Q2174.17 159.196 2177.04 159.196 Q2180.49 159.196 2182.48 156.997 Q2184.5 154.798 2184.5 151.002 L2184.5 136.303 L2188.75 136.303 L2188.75 162.229 L2184.5 162.229 L2184.5 158.247 Q2182.94 160.608 2180.88 161.766 Q2178.85 162.9 2176.14 162.9 Q2171.67 162.9 2169.36 160.122 Q2167.04 157.344 2167.04 151.997 M2177.76 135.678 L2177.76 135.678 Z" fill="#000000" fill-rule="nonzero" fill-opacity="1" /><path clip-path="url(#clip330)" d="M2197.13 126.21 L2206.95 126.21 L2206.95 129.52 L2201.39 129.52 L2201.39 165.168 L2206.95 165.168 L2206.95 168.479 L2197.13 168.479 L2197.13 126.21 Z" fill="#000000" fill-rule="nonzero" fill-opacity="1" /><path clip-path="url(#clip330)" d="M2217.44 158.293 L2225.07 158.293 L2225.07 131.928 L2216.76 133.595 L2216.76 129.335 L2225.03 127.669 L2229.7 127.669 L2229.7 158.293 L2237.34 158.293 L2237.34 162.229 L2217.44 162.229 L2217.44 158.293 Z" fill="#000000" fill-rule="nonzero" fill-opacity="1" /><path clip-path="url(#clip330)" d="M2256.14 126.21 L2256.14 168.479 L2246.32 168.479 L2246.32 165.168 L2251.86 165.168 L2251.86 129.52 L2246.32 129.52 L2246.32 126.21 L2256.14 126.21 Z" fill="#000000" fill-rule="nonzero" fill-opacity="1" /></svg>
