<?xml version="1.0" encoding="utf-8"?>
<svg xmlns="http://www.w3.org/2000/svg" xmlns:xlink="http://www.w3.org/1999/xlink" width="600" height="400" viewBox="0 0 2400 1600">
<defs>
  <clipPath id="clip150">
    <rect x="0" y="0" width="2400" height="1600"/>
  </clipPath>
</defs>
<path clip-path="url(#clip150)" d="M0 1600 L2400 1600 L2400 0 L0 0  Z" fill="#ffffff" fill-rule="evenodd" fill-opacity="1"/>
<defs>
  <clipPath id="clip151">
    <rect x="178" y="47" width="2175" height="1377"/>
  </clipPath>
</defs>
<path clip-path="url(#clip150)" d="M178.867 1423.18 L2352.76 1423.18 L2352.76 47.2441 L178.867 47.2441  Z" fill="#ffffff" fill-rule="evenodd" fill-opacity="1"/>
<polyline clip-path="url(#clip151)" style="stroke:#000000; stroke-linecap:round; stroke-linejoin:round; stroke-width:2; stroke-opacity:0.1; fill:none" points="178.867,1423.18 178.867,47.2441 "/>
<polyline clip-path="url(#clip151)" style="stroke:#000000; stroke-linecap:round; stroke-linejoin:round; stroke-width:2; stroke-opacity:0.1; fill:none" points="722.339,1423.18 722.339,47.2441 "/>
<polyline clip-path="url(#clip151)" style="stroke:#000000; stroke-linecap:round; stroke-linejoin:round; stroke-width:2; stroke-opacity:0.1; fill:none" points="1265.81,1423.18 1265.81,47.2441 "/>
<polyline clip-path="url(#clip151)" style="stroke:#000000; stroke-linecap:round; stroke-linejoin:round; stroke-width:2; stroke-opacity:0.1; fill:none" points="1809.28,1423.18 1809.28,47.2441 "/>
<polyline clip-path="url(#clip151)" style="stroke:#000000; stroke-linecap:round; stroke-linejoin:round; stroke-width:2; stroke-opacity:0.1; fill:none" points="2352.76,1423.18 2352.76,47.2441 "/>
<polyline clip-path="url(#clip151)" style="stroke:#000000; stroke-linecap:round; stroke-linejoin:round; stroke-width:2; stroke-opacity:0.1; fill:none" points="178.867,1384.24 2352.76,1384.24 "/>
<polyline clip-path="url(#clip151)" style="stroke:#000000; stroke-linecap:round; stroke-linejoin:round; stroke-width:2; stroke-opacity:0.1; fill:none" points="178.867,1059.54 2352.76,1059.54 "/>
<polyline clip-path="url(#clip151)" style="stroke:#000000; stroke-linecap:round; stroke-linejoin:round; stroke-width:2; stroke-opacity:0.1; fill:none" points="178.867,734.835 2352.76,734.835 "/>
<polyline clip-path="url(#clip151)" style="stroke:#000000; stroke-linecap:round; stroke-linejoin:round; stroke-width:2; stroke-opacity:0.1; fill:none" points="178.867,410.133 2352.76,410.133 "/>
<polyline clip-path="url(#clip151)" style="stroke:#000000; stroke-linecap:round; stroke-linejoin:round; stroke-width:2; stroke-opacity:0.1; fill:none" points="178.867,85.4311 2352.76,85.4311 "/>
<polyline clip-path="url(#clip150)" style="stroke:#000000; stroke-linecap:round; stroke-linejoin:round; stroke-width:4; stroke-opacity:1; fill:none" points="178.867,1423.18 2352.76,1423.18 "/>
<polyline clip-path="url(#clip150)" style="stroke:#000000; stroke-linecap:round; stroke-linejoin:round; stroke-width:4; stroke-opacity:1; fill:none" points="178.867,1423.18 178.867,1404.28 "/>
<polyline clip-path="url(#clip150)" style="stroke:#000000; stroke-linecap:round; stroke-linejoin:round; stroke-width:4; stroke-opacity:1; fill:none" points="722.339,1423.18 722.339,1404.28 "/>
<polyline clip-path="url(#clip150)" style="stroke:#000000; stroke-linecap:round; stroke-linejoin:round; stroke-width:4; stroke-opacity:1; fill:none" points="1265.81,1423.18 1265.81,1404.28 "/>
<polyline clip-path="url(#clip150)" style="stroke:#000000; stroke-linecap:round; stroke-linejoin:round; stroke-width:4; stroke-opacity:1; fill:none" points="1809.28,1423.18 1809.28,1404.28 "/>
<polyline clip-path="url(#clip150)" style="stroke:#000000; stroke-linecap:round; stroke-linejoin:round; stroke-width:4; stroke-opacity:1; fill:none" points="2352.76,1423.18 2352.76,1404.28 "/>
<path clip-path="url(#clip150)" d="M178.867 1454.1 Q175.256 1454.1 173.427 1457.66 Q171.621 1461.2 171.621 1468.33 Q171.621 1475.44 173.427 1479.01 Q175.256 1482.55 178.867 1482.55 Q182.501 1482.55 184.306 1479.01 Q186.135 1475.44 186.135 1468.33 Q186.135 1461.2 184.306 1457.66 Q182.501 1454.1 178.867 1454.1 M178.867 1450.39 Q184.677 1450.39 187.732 1455 Q190.811 1459.58 190.811 1468.33 Q190.811 1477.06 187.732 1481.67 Q184.677 1486.25 178.867 1486.25 Q173.056 1486.25 169.978 1481.67 Q166.922 1477.06 166.922 1468.33 Q166.922 1459.58 169.978 1455 Q173.056 1450.39 178.867 1450.39 Z" fill="#000000" fill-rule="nonzero" fill-opacity="1" /><path clip-path="url(#clip150)" d="M697.027 1481.64 L704.665 1481.64 L704.665 1455.28 L696.355 1456.95 L696.355 1452.69 L704.619 1451.02 L709.295 1451.02 L709.295 1481.64 L716.934 1481.64 L716.934 1485.58 L697.027 1485.58 L697.027 1481.64 Z" fill="#000000" fill-rule="nonzero" fill-opacity="1" /><path clip-path="url(#clip150)" d="M736.378 1454.1 Q732.767 1454.1 730.938 1457.66 Q729.133 1461.2 729.133 1468.33 Q729.133 1475.44 730.938 1479.01 Q732.767 1482.55 736.378 1482.55 Q740.012 1482.55 741.818 1479.01 Q743.647 1475.44 743.647 1468.33 Q743.647 1461.2 741.818 1457.66 Q740.012 1454.1 736.378 1454.1 M736.378 1450.39 Q742.188 1450.39 745.244 1455 Q748.323 1459.58 748.323 1468.33 Q748.323 1477.06 745.244 1481.67 Q742.188 1486.25 736.378 1486.25 Q730.568 1486.25 727.489 1481.67 Q724.434 1477.06 724.434 1468.33 Q724.434 1459.58 727.489 1455 Q730.568 1450.39 736.378 1450.39 Z" fill="#000000" fill-rule="nonzero" fill-opacity="1" /><path clip-path="url(#clip150)" d="M1244.58 1481.64 L1260.9 1481.64 L1260.9 1485.58 L1238.96 1485.58 L1238.96 1481.64 Q1241.62 1478.89 1246.2 1474.26 Q1250.81 1469.61 1251.99 1468.27 Q1254.24 1465.74 1255.12 1464.01 Q1256.02 1462.25 1256.02 1460.56 Q1256.02 1457.8 1254.08 1456.07 Q1252.15 1454.33 1249.05 1454.33 Q1246.85 1454.33 1244.4 1455.09 Q1241.97 1455.86 1239.19 1457.41 L1239.19 1452.69 Q1242.02 1451.55 1244.47 1450.97 Q1246.92 1450.39 1248.96 1450.39 Q1254.33 1450.39 1257.52 1453.08 Q1260.72 1455.77 1260.72 1460.26 Q1260.72 1462.39 1259.91 1464.31 Q1259.12 1466.2 1257.02 1468.8 Q1256.44 1469.47 1253.33 1472.69 Q1250.23 1475.88 1244.58 1481.64 Z" fill="#000000" fill-rule="nonzero" fill-opacity="1" /><path clip-path="url(#clip150)" d="M1280.72 1454.1 Q1277.11 1454.1 1275.28 1457.66 Q1273.47 1461.2 1273.47 1468.33 Q1273.47 1475.44 1275.28 1479.01 Q1277.11 1482.55 1280.72 1482.55 Q1284.35 1482.55 1286.16 1479.01 Q1287.99 1475.44 1287.99 1468.33 Q1287.99 1461.2 1286.16 1457.66 Q1284.35 1454.1 1280.72 1454.1 M1280.72 1450.39 Q1286.53 1450.39 1289.58 1455 Q1292.66 1459.58 1292.66 1468.33 Q1292.66 1477.06 1289.58 1481.67 Q1286.53 1486.25 1280.72 1486.25 Q1274.91 1486.25 1271.83 1481.67 Q1268.77 1477.06 1268.77 1468.33 Q1268.77 1459.58 1271.83 1455 Q1274.91 1450.39 1280.72 1450.39 Z" fill="#000000" fill-rule="nonzero" fill-opacity="1" /><path clip-path="url(#clip150)" d="M1798.13 1466.95 Q1801.48 1467.66 1803.36 1469.93 Q1805.26 1472.2 1805.26 1475.53 Q1805.26 1480.65 1801.74 1483.45 Q1798.22 1486.25 1791.74 1486.25 Q1789.56 1486.25 1787.25 1485.81 Q1784.96 1485.39 1782.5 1484.54 L1782.5 1480.02 Q1784.45 1481.16 1786.76 1481.74 Q1789.08 1482.32 1791.6 1482.32 Q1796 1482.32 1798.29 1480.58 Q1800.6 1478.84 1800.6 1475.53 Q1800.6 1472.48 1798.45 1470.77 Q1796.32 1469.03 1792.5 1469.03 L1788.47 1469.03 L1788.47 1465.19 L1792.69 1465.19 Q1796.14 1465.19 1797.96 1463.82 Q1799.79 1462.43 1799.79 1459.84 Q1799.79 1457.18 1797.89 1455.77 Q1796.02 1454.33 1792.5 1454.33 Q1790.58 1454.33 1788.38 1454.75 Q1786.18 1455.16 1783.54 1456.04 L1783.54 1451.88 Q1786.21 1451.14 1788.52 1450.77 Q1790.86 1450.39 1792.92 1450.39 Q1798.24 1450.39 1801.34 1452.83 Q1804.45 1455.23 1804.45 1459.35 Q1804.45 1462.22 1802.8 1464.21 Q1801.16 1466.18 1798.13 1466.95 Z" fill="#000000" fill-rule="nonzero" fill-opacity="1" /><path clip-path="url(#clip150)" d="M1824.12 1454.1 Q1820.51 1454.1 1818.68 1457.66 Q1816.88 1461.2 1816.88 1468.33 Q1816.88 1475.44 1818.68 1479.01 Q1820.51 1482.55 1824.12 1482.55 Q1827.76 1482.55 1829.56 1479.01 Q1831.39 1475.44 1831.39 1468.33 Q1831.39 1461.2 1829.56 1457.66 Q1827.76 1454.1 1824.12 1454.1 M1824.12 1450.39 Q1829.93 1450.39 1832.99 1455 Q1836.07 1459.58 1836.07 1468.33 Q1836.07 1477.06 1832.99 1481.67 Q1829.93 1486.25 1824.12 1486.25 Q1818.31 1486.25 1815.23 1481.67 Q1812.18 1477.06 1812.18 1468.33 Q1812.18 1459.58 1815.23 1455 Q1818.31 1450.39 1824.12 1450.39 Z" fill="#000000" fill-rule="nonzero" fill-opacity="1" /><path clip-path="url(#clip150)" d="M2340.93 1455.09 L2329.12 1473.54 L2340.93 1473.54 L2340.93 1455.09 M2339.7 1451.02 L2345.58 1451.02 L2345.58 1473.54 L2350.51 1473.54 L2350.51 1477.43 L2345.58 1477.43 L2345.58 1485.58 L2340.93 1485.58 L2340.93 1477.43 L2325.33 1477.43 L2325.33 1472.92 L2339.7 1451.02 Z" fill="#000000" fill-rule="nonzero" fill-opacity="1" /><path clip-path="url(#clip150)" d="M2368.24 1454.1 Q2364.63 1454.1 2362.8 1457.66 Q2361 1461.2 2361 1468.33 Q2361 1475.44 2362.8 1479.01 Q2364.63 1482.55 2368.24 1482.55 Q2371.88 1482.55 2373.68 1479.01 Q2375.51 1475.44 2375.51 1468.33 Q2375.51 1461.2 2373.68 1457.66 Q2371.88 1454.1 2368.24 1454.1 M2368.24 1450.39 Q2374.05 1450.39 2377.11 1455 Q2380.19 1459.58 2380.19 1468.33 Q2380.19 1477.06 2377.11 1481.67 Q2374.05 1486.25 2368.24 1486.25 Q2362.43 1486.25 2359.35 1481.67 Q2356.3 1477.06 2356.3 1468.33 Q2356.3 1459.58 2359.35 1455 Q2362.43 1450.39 2368.24 1450.39 Z" fill="#000000" fill-rule="nonzero" fill-opacity="1" /><path clip-path="url(#clip150)" d="M1264.87 1522.27 L1264.87 1532.4 L1276.94 1532.4 L1276.94 1536.95 L1264.87 1536.95 L1264.87 1556.3 Q1264.87 1560.66 1266.05 1561.9 Q1267.26 1563.14 1270.92 1563.14 L1276.94 1563.14 L1276.94 1568.04 L1270.92 1568.04 Q1264.14 1568.04 1261.56 1565.53 Q1258.98 1562.98 1258.98 1556.3 L1258.98 1536.95 L1254.69 1536.95 L1254.69 1532.4 L1258.98 1532.4 L1258.98 1522.27 L1264.87 1522.27 Z" fill="#000000" fill-rule="nonzero" fill-opacity="1" /><polyline clip-path="url(#clip150)" style="stroke:#000000; stroke-linecap:round; stroke-linejoin:round; stroke-width:4; stroke-opacity:1; fill:none" points="178.867,1423.18 178.867,47.2441 "/>
<polyline clip-path="url(#clip150)" style="stroke:#000000; stroke-linecap:round; stroke-linejoin:round; stroke-width:4; stroke-opacity:1; fill:none" points="178.867,1384.24 197.764,1384.24 "/>
<polyline clip-path="url(#clip150)" style="stroke:#000000; stroke-linecap:round; stroke-linejoin:round; stroke-width:4; stroke-opacity:1; fill:none" points="178.867,1059.54 197.764,1059.54 "/>
<polyline clip-path="url(#clip150)" style="stroke:#000000; stroke-linecap:round; stroke-linejoin:round; stroke-width:4; stroke-opacity:1; fill:none" points="178.867,734.835 197.764,734.835 "/>
<polyline clip-path="url(#clip150)" style="stroke:#000000; stroke-linecap:round; stroke-linejoin:round; stroke-width:4; stroke-opacity:1; fill:none" points="178.867,410.133 197.764,410.133 "/>
<polyline clip-path="url(#clip150)" style="stroke:#000000; stroke-linecap:round; stroke-linejoin:round; stroke-width:4; stroke-opacity:1; fill:none" points="178.867,85.4311 197.764,85.4311 "/>
<path clip-path="url(#clip150)" d="M51.9875 1384.69 L81.6633 1384.69 L81.6633 1388.62 L51.9875 1388.62 L51.9875 1384.69 Z" fill="#000000" fill-rule="nonzero" fill-opacity="1" /><path clip-path="url(#clip150)" d="M90.5752 1366.96 L112.797 1366.96 L112.797 1368.95 L100.251 1401.52 L95.3669 1401.52 L107.172 1370.89 L90.5752 1370.89 L90.5752 1366.96 Z" fill="#000000" fill-rule="nonzero" fill-opacity="1" /><path clip-path="url(#clip150)" d="M121.964 1366.96 L140.32 1366.96 L140.32 1370.89 L126.246 1370.89 L126.246 1379.37 Q127.265 1379.02 128.283 1378.86 Q129.302 1378.67 130.32 1378.67 Q136.107 1378.67 139.487 1381.84 Q142.867 1385.01 142.867 1390.43 Q142.867 1396.01 139.394 1399.11 Q135.922 1402.19 129.603 1402.19 Q127.427 1402.19 125.158 1401.82 Q122.913 1401.45 120.506 1400.71 L120.506 1396.01 Q122.589 1397.14 124.811 1397.7 Q127.033 1398.25 129.51 1398.25 Q133.515 1398.25 135.853 1396.15 Q138.191 1394.04 138.191 1390.43 Q138.191 1386.82 135.853 1384.71 Q133.515 1382.61 129.51 1382.61 Q127.635 1382.61 125.76 1383.02 Q123.908 1383.44 121.964 1384.32 L121.964 1366.96 Z" fill="#000000" fill-rule="nonzero" fill-opacity="1" /><path clip-path="url(#clip150)" d="M50.9921 1059.99 L80.6679 1059.99 L80.6679 1063.92 L50.9921 1063.92 L50.9921 1059.99 Z" fill="#000000" fill-rule="nonzero" fill-opacity="1" /><path clip-path="url(#clip150)" d="M89.5799 1042.26 L111.802 1042.26 L111.802 1044.25 L99.2558 1076.82 L94.3715 1076.82 L106.177 1046.19 L89.5799 1046.19 L89.5799 1042.26 Z" fill="#000000" fill-rule="nonzero" fill-opacity="1" /><path clip-path="url(#clip150)" d="M130.922 1045.34 Q127.311 1045.34 125.482 1048.9 Q123.677 1052.44 123.677 1059.57 Q123.677 1066.68 125.482 1070.24 Q127.311 1073.78 130.922 1073.78 Q134.556 1073.78 136.362 1070.24 Q138.191 1066.68 138.191 1059.57 Q138.191 1052.44 136.362 1048.9 Q134.556 1045.34 130.922 1045.34 M130.922 1041.63 Q136.732 1041.63 139.788 1046.24 Q142.867 1050.82 142.867 1059.57 Q142.867 1068.3 139.788 1072.9 Q136.732 1077.49 130.922 1077.49 Q125.112 1077.49 122.033 1072.9 Q118.978 1068.3 118.978 1059.57 Q118.978 1050.82 122.033 1046.24 Q125.112 1041.63 130.922 1041.63 Z" fill="#000000" fill-rule="nonzero" fill-opacity="1" /><path clip-path="url(#clip150)" d="M51.9875 735.286 L81.6633 735.286 L81.6633 739.221 L51.9875 739.221 L51.9875 735.286 Z" fill="#000000" fill-rule="nonzero" fill-opacity="1" /><path clip-path="url(#clip150)" d="M102.334 732.971 Q99.1863 732.971 97.3345 735.124 Q95.5058 737.277 95.5058 741.027 Q95.5058 744.754 97.3345 746.93 Q99.1863 749.082 102.334 749.082 Q105.483 749.082 107.311 746.93 Q109.163 744.754 109.163 741.027 Q109.163 737.277 107.311 735.124 Q105.483 732.971 102.334 732.971 M111.617 718.319 L111.617 722.578 Q109.858 721.744 108.052 721.305 Q106.27 720.865 104.51 720.865 Q99.8808 720.865 97.4271 723.99 Q94.9965 727.115 94.6493 733.434 Q96.015 731.42 98.0752 730.356 Q100.135 729.268 102.612 729.268 Q107.821 729.268 110.83 732.439 Q113.862 735.587 113.862 741.027 Q113.862 746.351 110.714 749.568 Q107.566 752.786 102.334 752.786 Q96.3391 752.786 93.1678 748.203 Q89.9965 743.596 89.9965 734.869 Q89.9965 726.675 93.8854 721.814 Q97.7743 716.93 104.325 716.93 Q106.084 716.93 107.867 717.277 Q109.672 717.624 111.617 718.319 Z" fill="#000000" fill-rule="nonzero" fill-opacity="1" /><path clip-path="url(#clip150)" d="M121.964 717.555 L140.32 717.555 L140.32 721.49 L126.246 721.49 L126.246 729.962 Q127.265 729.615 128.283 729.453 Q129.302 729.268 130.32 729.268 Q136.107 729.268 139.487 732.439 Q142.867 735.61 142.867 741.027 Q142.867 746.605 139.394 749.707 Q135.922 752.786 129.603 752.786 Q127.427 752.786 125.158 752.416 Q122.913 752.045 120.506 751.304 L120.506 746.605 Q122.589 747.74 124.811 748.295 Q127.033 748.851 129.51 748.851 Q133.515 748.851 135.853 746.744 Q138.191 744.638 138.191 741.027 Q138.191 737.416 135.853 735.309 Q133.515 733.203 129.51 733.203 Q127.635 733.203 125.76 733.619 Q123.908 734.036 121.964 734.916 L121.964 717.555 Z" fill="#000000" fill-rule="nonzero" fill-opacity="1" /><path clip-path="url(#clip150)" d="M50.9921 410.584 L80.6679 410.584 L80.6679 414.519 L50.9921 414.519 L50.9921 410.584 Z" fill="#000000" fill-rule="nonzero" fill-opacity="1" /><path clip-path="url(#clip150)" d="M101.339 408.269 Q98.1909 408.269 96.3391 410.422 Q94.5104 412.575 94.5104 416.325 Q94.5104 420.052 96.3391 422.228 Q98.1909 424.38 101.339 424.38 Q104.487 424.38 106.316 422.228 Q108.168 420.052 108.168 416.325 Q108.168 412.575 106.316 410.422 Q104.487 408.269 101.339 408.269 M110.621 393.617 L110.621 397.876 Q108.862 397.043 107.057 396.603 Q105.274 396.163 103.515 396.163 Q98.8854 396.163 96.4317 399.288 Q94.0012 402.413 93.6539 408.732 Q95.0197 406.719 97.0798 405.654 Q99.14 404.566 101.617 404.566 Q106.825 404.566 109.834 407.737 Q112.867 410.885 112.867 416.325 Q112.867 421.649 109.719 424.867 Q106.571 428.084 101.339 428.084 Q95.3437 428.084 92.1725 423.501 Q89.0012 418.894 89.0012 410.168 Q89.0012 401.973 92.89 397.112 Q96.7789 392.228 103.33 392.228 Q105.089 392.228 106.871 392.575 Q108.677 392.922 110.621 393.617 Z" fill="#000000" fill-rule="nonzero" fill-opacity="1" /><path clip-path="url(#clip150)" d="M130.922 395.932 Q127.311 395.932 125.482 399.496 Q123.677 403.038 123.677 410.168 Q123.677 417.274 125.482 420.839 Q127.311 424.38 130.922 424.38 Q134.556 424.38 136.362 420.839 Q138.191 417.274 138.191 410.168 Q138.191 403.038 136.362 399.496 Q134.556 395.932 130.922 395.932 M130.922 392.228 Q136.732 392.228 139.788 396.834 Q142.867 401.418 142.867 410.168 Q142.867 418.894 139.788 423.501 Q136.732 428.084 130.922 428.084 Q125.112 428.084 122.033 423.501 Q118.978 418.894 118.978 410.168 Q118.978 401.418 122.033 396.834 Q125.112 392.228 130.922 392.228 Z" fill="#000000" fill-rule="nonzero" fill-opacity="1" /><path clip-path="url(#clip150)" d="M51.9875 85.8825 L81.6633 85.8825 L81.6633 89.8176 L51.9875 89.8176 L51.9875 85.8825 Z" fill="#000000" fill-rule="nonzero" fill-opacity="1" /><path clip-path="url(#clip150)" d="M91.8021 68.1511 L110.158 68.1511 L110.158 72.0862 L96.0845 72.0862 L96.0845 80.5584 Q97.103 80.2112 98.1215 80.0492 Q99.14 79.864 100.159 79.864 Q105.946 79.864 109.325 83.0353 Q112.705 86.2065 112.705 91.6232 Q112.705 97.2018 109.233 100.304 Q105.76 103.382 99.4409 103.382 Q97.265 103.382 94.9965 103.012 Q92.7512 102.642 90.3438 101.901 L90.3438 97.2018 Q92.4271 98.3361 94.6493 98.8916 Q96.8715 99.4472 99.3483 99.4472 Q103.353 99.4472 105.691 97.3407 Q108.029 95.2343 108.029 91.6232 Q108.029 88.0121 105.691 85.9056 Q103.353 83.7991 99.3483 83.7991 Q97.4734 83.7991 95.5984 84.2158 Q93.7465 84.6325 91.8021 85.5121 L91.8021 68.1511 Z" fill="#000000" fill-rule="nonzero" fill-opacity="1" /><path clip-path="url(#clip150)" d="M121.964 68.1511 L140.32 68.1511 L140.32 72.0862 L126.246 72.0862 L126.246 80.5584 Q127.265 80.2112 128.283 80.0492 Q129.302 79.864 130.32 79.864 Q136.107 79.864 139.487 83.0353 Q142.867 86.2065 142.867 91.6232 Q142.867 97.2018 139.394 100.304 Q135.922 103.382 129.603 103.382 Q127.427 103.382 125.158 103.012 Q122.913 102.642 120.506 101.901 L120.506 97.2018 Q122.589 98.3361 124.811 98.8916 Q127.033 99.4472 129.51 99.4472 Q133.515 99.4472 135.853 97.3407 Q138.191 95.2343 138.191 91.6232 Q138.191 88.0121 135.853 85.9056 Q133.515 83.7991 129.51 83.7991 Q127.635 83.7991 125.76 84.2158 Q123.908 84.6325 121.964 85.5121 L121.964 68.1511 Z" fill="#000000" fill-rule="nonzero" fill-opacity="1" /><polyline clip-path="url(#clip151)" style="stroke:#009af9; stroke-linecap:round; stroke-linejoin:round; stroke-width:4; stroke-opacity:1; fill:none" points="178.867,1384.24 181.043,1384.24 183.219,1384.24 185.395,1384.24 187.571,1384.24 189.747,1384.24 191.923,1384.24 194.099,1384.24 196.275,1384.24 198.451,1384.24 200.627,1384.24 202.803,1384.24 204.979,1384.24 207.155,1384.24 209.332,1384.24 211.508,1384.24 213.684,1384.24 215.86,1384.24 218.036,1384.24 220.212,1384.24 222.388,1384.24 224.564,1384.24 226.74,1384.24 228.916,1384.24 231.092,1384.24 233.268,1384.24 235.444,1384.24 237.62,1384.24 239.796,1384.24 241.973,1384.24 244.149,1384.24 246.325,1384.24 248.501,1384.24 250.677,1384.24 252.853,1384.24 255.029,1384.24 257.205,1384.24 259.381,1384.24 261.557,1384.24 263.733,1384.24 265.909,1384.24 268.085,1384.24 270.261,1384.24 272.437,1384.24 274.614,1384.24 276.79,1384.24 278.966,1384.24 281.142,1384.24 283.318,1384.24 285.494,1384.24 287.67,1383.85 289.846,1376.06 292.022,1368.31 294.198,1360.59 296.374,1352.89 298.55,1345.23 300.726,1337.6 302.902,1329.99 305.078,1322.42 307.254,1314.88 309.431,1307.36 311.607,1299.88 313.783,1292.42 315.959,1285 318.135,1277.6 320.311,1270.23 322.487,1262.89 324.663,1255.58 326.839,1248.3 329.015,1241.05 331.191,1233.82 333.367,1226.63 335.543,1219.46 337.719,1212.32 339.895,1205.21 342.072,1198.13 344.248,1191.07 346.424,1184.05 348.6,1177.05 350.776,1170.08 352.952,1163.13 355.128,1156.22 357.304,1149.33 359.48,1142.47 361.656,1135.63 363.832,1128.82 366.008,1122.04 368.184,1115.29 370.36,1108.56 372.536,1101.86 374.713,1095.19 376.889,1088.55 379.065,1081.93 381.241,1075.33 383.417,1068.76 385.593,1062.22 387.769,1055.71 389.945,1049.22 392.121,1042.76 394.297,1036.32 396.473,1029.91 398.649,1023.52 400.825,1017.16 403.001,1010.83 405.177,1004.52 407.353,998.232 409.53,991.972 411.706,985.738 413.882,979.529 416.058,973.345 418.234,967.185 420.41,961.051 422.586,954.941 424.762,948.855 426.938,942.794 429.114,936.757 431.29,930.745 433.466,924.756 435.642,918.792 437.818,912.852 439.994,906.936 442.171,901.043 444.347,895.175 446.523,889.329 448.699,883.508 450.875,877.71 453.051,871.935 455.227,866.184 457.403,860.456 459.579,854.751 461.755,849.069 463.931,843.41 466.107,837.774 468.283,832.16 470.459,826.57 472.635,821.001 474.812,815.456 476.988,809.933 479.164,804.432 481.34,798.953 483.516,793.497 485.692,788.063 487.868,782.651 490.044,777.26 492.22,771.892 494.396,766.545 496.572,761.22 498.748,755.917 500.924,750.635 503.1,745.374 505.276,740.135 507.452,734.917 509.629,729.721 511.805,724.545 513.981,719.39 516.157,714.257 518.333,709.144 520.509,704.052 522.685,698.98 524.861,693.929 527.037,688.899 529.213,683.889 531.389,678.9 533.565,673.931 535.741,668.982 537.917,664.053 540.093,659.144 542.27,654.255 544.446,649.386 546.622,644.537 548.798,639.707 550.974,634.897 553.15,630.107 555.326,625.336 557.502,620.585 559.678,615.853 561.854,611.14 564.03,606.446 566.206,601.772 568.382,597.116 570.558,592.479 572.734,587.861 574.911,583.262 577.087,578.682 579.263,574.12 581.439,569.577 583.615,565.053 585.791,560.546 587.967,556.058 590.143,551.589 592.319,547.137 594.495,542.704 596.671,538.288 598.847,533.891 601.023,529.511 603.199,525.149 605.375,520.805 607.552,516.479 609.728,512.17 611.904,507.878 614.08,503.604 616.256,499.348 618.432,495.108 620.608,490.886 622.784,486.681 624.96,482.493 627.136,478.322 629.312,474.168 631.488,470.031 633.664,465.91 635.84,461.806 638.016,457.719 640.192,453.648 642.369,449.594 644.545,445.556 646.721,441.535 648.897,437.53 651.073,433.541 653.249,429.568 655.425,425.611 657.601,421.67 659.777,417.745 661.953,413.836 664.129,409.943 666.305,406.065 668.481,402.203 670.657,398.357 672.833,394.526 675.01,390.711 677.186,386.91 679.362,383.126 681.538,379.356 683.714,375.602 685.89,371.862 688.066,368.138 690.242,364.428 692.418,360.734 694.594,357.054 696.77,353.389 698.946,349.739 701.122,346.103 703.298,342.482 705.474,338.875 707.651,335.283 709.827,331.705 712.003,328.142 714.179,324.592 716.355,321.057 718.531,317.536 720.707,314.029 722.883,310.536 725.059,307.056 727.235,303.591 729.411,300.139 731.587,296.701 733.763,293.277 735.939,289.866 738.115,286.469 740.291,283.085 742.468,279.715 744.644,276.358 746.82,273.014 748.996,269.683 751.172,266.366 753.348,263.061 755.524,259.77 757.7,256.492 759.876,253.226 762.052,249.973 764.228,246.733 766.404,243.506 768.58,240.292 770.756,237.089 772.932,233.9 775.109,230.723 777.285,227.558 779.461,224.406 781.637,221.266 783.813,218.138 785.989,215.022 788.165,211.919 790.341,208.827 792.517,205.748 794.693,202.68 796.869,199.625 799.045,196.581 801.221,193.549 803.397,190.528 805.573,187.519 807.75,184.522 809.926,181.536 812.102,178.562 814.278,175.599 816.454,172.648 818.63,169.708 820.806,166.779 822.982,163.861 825.158,160.954 827.334,158.059 829.51,155.174 831.686,152.3 833.862,149.438 836.038,146.587 838.214,143.748 840.39,140.92 842.567,138.103 844.743,135.298 846.919,132.503 849.095,129.72 851.271,126.948 853.447,124.187 855.623,121.438 857.799,118.699 859.975,115.971 862.151,113.254 864.327,110.547 866.503,107.852 868.679,105.167 870.855,102.494 873.031,99.8304 875.208,97.1778 877.384,94.5359 879.56,91.9045 881.736,89.2836 883.912,86.6732 886.088,1380.16 888.264,1372.39 890.44,1364.66 892.616,1356.95 894.792,1349.27 896.968,1341.63 899.144,1334.01 901.32,1326.43 903.496,1318.88 905.672,1311.35 907.849,1303.86 910.025,1296.39 912.201,1288.96 914.377,1281.56 916.553,1274.18 918.729,1266.84 920.905,1259.52 923.081,1252.23 925.257,1244.98 927.433,1237.75 929.609,1230.55 931.785,1223.38 933.961,1216.23 936.137,1209.12 938.313,1202.04 940.49,1194.98 942.666,1187.95 944.842,1180.95 947.018,1173.98 949.194,1167.03 951.37,1160.11 953.546,1153.22 955.722,1146.36 957.898,1139.53 960.074,1132.72 962.25,1125.94 964.426,1119.19 966.602,1112.46 968.778,1105.76 970.954,1099.09 973.13,1092.45 975.307,1085.83 977.483,1079.23 979.659,1072.67 981.835,1066.13 984.011,1059.61 986.187,1053.13 988.363,1046.66 990.539,1040.23 992.715,1033.82 994.891,1024.51 997.067,1010.38 999.243,996.301 1001.42,982.281 1003.6,968.317 1005.77,954.409 1007.95,940.556 1010.12,926.759 1012.3,913.017 1014.48,899.33 1016.65,885.697 1018.83,872.119 1021,858.595 1023.18,845.126 1025.36,831.71 1027.53,818.347 1029.71,805.038 1031.88,791.783 1034.06,778.58 1036.24,765.43 1038.41,752.332 1040.59,739.287 1042.76,726.294 1044.94,713.353 1047.12,700.464 1049.29,687.626 1051.47,674.84 1053.64,662.104 1055.82,649.42 1058,636.786 1060.17,624.203 1062.35,611.67 1064.53,599.187 1066.7,586.754 1068.88,574.371 1071.05,562.037 1073.23,549.752 1075.41,537.517 1077.58,525.33 1079.76,513.192 1081.93,501.103 1084.11,489.062 1086.29,477.069 1088.46,465.124 1090.64,453.227 1092.81,441.377 1094.99,429.575 1097.17,417.82 1099.34,406.112 1101.52,394.45 1103.69,382.835 1105.87,371.267 1108.05,359.745 1110.22,348.269 1112.4,336.838 1114.57,325.454 1116.75,314.115 1118.93,302.821 1121.1,291.572 1123.28,280.368 1125.46,269.209 1127.63,258.095 1129.81,247.025 1131.98,235.999 1134.16,225.018 1136.34,214.08 1138.51,203.186 1140.69,192.335 1142.86,181.528 1145.04,170.764 1147.22,160.043 1149.39,149.365 1151.57,138.729 1153.74,128.136 1155.92,117.586 1158.1,107.077 1160.27,96.6104 1162.45,86.1857 1164.62,1369.8 1166.8,1354.28 1168.98,1338.83 1171.15,1323.44 1173.33,1308.12 1175.5,1292.85 1177.68,1277.65 1179.86,1262.5 1182.03,1247.42 1184.21,1232.39 1186.38,1217.43 1188.56,1202.53 1190.74,1187.68 1192.91,1172.9 1195.09,1158.17 1197.27,1143.5 1199.44,1128.9 1201.62,1114.35 1203.79,1099.85 1205.97,1085.42 1208.15,1071.04 1210.32,1056.72 1212.5,1042.46 1214.67,1028.26 1216.85,1014.11 1219.03,1000.02 1221.2,985.985 1223.38,972.006 1225.55,958.083 1227.73,944.216 1229.91,930.404 1232.08,916.647 1234.26,902.945 1236.43,889.299 1238.61,875.706 1240.79,862.168 1242.96,848.684 1245.14,835.254 1247.31,821.878 1249.49,808.555 1251.67,795.285 1253.84,782.069 1256.02,768.905 1258.2,755.794 1260.37,742.735 1262.55,729.729 1264.72,716.774 1266.9,703.871 1269.08,691.02 1271.25,678.22 1273.43,665.472 1275.6,652.774 1277.78,640.127 1279.96,627.53 1282.13,614.984 1284.31,602.488 1286.48,590.042 1288.66,577.646 1290.84,565.299 1293.01,553.002 1295.19,540.754 1297.36,528.554 1299.54,516.404 1301.72,504.302 1303.89,492.248 1306.07,480.242 1308.24,468.285 1310.42,456.375 1312.6,444.513 1314.77,432.698 1316.95,420.931 1319.12,409.21 1321.3,397.536 1323.48,385.909 1325.65,374.329 1327.83,362.794 1330.01,351.306 1332.18,339.864 1334.36,328.467 1336.53,317.116 1338.71,305.81 1340.89,294.549 1343.06,283.334 1345.24,272.163 1347.41,261.037 1349.59,249.955 1351.77,238.917 1353.94,227.924 1356.12,216.974 1358.29,206.069 1360.47,195.207 1362.65,184.388 1364.82,173.612 1367,162.88 1369.17,152.19 1371.35,141.544 1373.53,130.939 1375.7,120.377 1377.88,109.858 1380.05,99.38 1382.23,88.9442 1384.41,1373.91 1386.58,1358.38 1388.76,1342.92 1390.94,1327.51 1393.11,1312.17 1395.29,1296.88 1397.46,1281.66 1399.64,1266.5 1401.82,1251.4 1403.99,1236.36 1406.17,1221.38 1408.34,1206.46 1410.52,1191.6 1412.7,1176.8 1414.87,1162.06 1417.05,1147.38 1419.22,1132.75 1421.4,1118.19 1423.58,1103.68 1425.75,1089.23 1427.93,1074.84 1430.1,1060.51 1432.28,1046.23 1434.46,1032.01 1436.63,1017.85 1438.81,1003.74 1440.98,989.69 1443.16,975.696 1445.34,961.758 1447.51,947.876 1449.69,934.049 1451.86,920.278 1454.04,906.562 1456.22,892.9 1458.39,879.293 1460.57,865.741 1462.75,852.242 1464.92,838.798 1467.1,825.407 1469.27,812.07 1471.45,798.787 1473.63,785.556 1475.8,772.378 1477.98,759.253 1480.15,746.18 1482.33,733.16 1484.51,720.192 1486.68,707.275 1488.86,694.41 1491.03,681.597 1493.21,668.835 1495.39,656.124 1497.56,643.463 1499.74,630.854 1501.91,618.294 1504.09,605.785 1506.27,593.326 1508.44,580.917 1510.62,568.557 1512.79,556.247 1514.97,543.985 1517.15,531.773 1519.32,519.61 1521.5,507.495 1523.68,495.429 1525.85,483.411 1528.03,471.441 1530.2,459.519 1532.38,447.644 1534.56,435.817 1536.73,424.037 1538.91,412.304 1541.08,400.618 1543.26,388.979 1545.44,377.386 1547.61,365.84 1549.79,354.34 1551.96,342.886 1554.14,331.477 1556.32,320.114 1558.49,308.796 1560.67,297.524 1562.84,286.297 1565.02,275.114 1567.2,263.976 1569.37,252.883 1571.55,241.834 1573.72,230.829 1575.9,219.868 1578.08,208.951 1580.25,198.078 1582.43,187.248 1584.6,176.461 1586.78,165.717 1588.96,155.016 1591.13,144.358 1593.31,133.743 1595.49,123.17 1597.66,112.639 1599.84,102.15 1602.01,91.7034 1604.19,1378.04 1606.37,1362.49 1608.54,1347.01 1610.72,1331.59 1612.89,1316.23 1615.07,1300.93 1617.25,1285.69 1619.42,1270.52 1621.6,1255.4 1623.77,1240.35 1625.95,1225.35 1628.13,1210.41 1630.3,1195.54 1632.48,1180.72 1634.65,1165.96 1636.83,1151.27 1639.01,1136.63 1641.18,1122.05 1643.36,1107.52 1645.53,1093.06 1647.71,1078.65 1649.89,1064.3 1652.06,1050.01 1654.24,1035.77 1656.41,1021.6 1658.59,1007.47 1660.77,993.41 1662.94,979.401 1665.12,965.449 1667.3,951.552 1669.47,937.71 1671.65,923.924 1673.82,910.193 1676,896.517 1678.18,882.896 1680.35,869.329 1682.53,855.816 1684.7,842.358 1686.88,828.953 1689.06,815.601 1691.23,802.304 1693.41,789.059 1695.58,775.867 1697.76,762.728 1699.94,749.642 1702.11,736.607 1704.29,723.625 1706.46,710.695 1708.64,697.817 1710.82,684.99 1712.99,672.214 1715.17,659.489 1717.34,646.815 1719.52,634.192 1721.7,621.619 1723.87,609.097 1726.05,596.625 1728.23,584.202 1730.4,571.829 1732.58,559.506 1734.75,547.232 1736.93,535.007 1739.11,522.83 1741.28,510.703 1743.46,498.624 1745.63,486.593 1747.81,474.61 1749.99,462.675 1752.16,450.788 1754.34,438.948 1756.51,427.156 1758.69,415.411 1760.87,403.712 1763.04,392.061 1765.22,380.456 1767.39,368.897 1769.57,357.385 1771.75,345.918 1773.92,334.498 1776.1,323.122 1778.27,311.793 1780.45,300.509 1782.63,289.269 1784.8,278.075 1786.98,266.925 1789.15,255.82 1791.33,244.76 1793.51,233.743 1795.68,222.77 1797.86,211.842 1800.04,200.957 1802.21,190.115 1804.39,179.317 1806.56,168.562 1808.74,157.85 1810.92,147.18 1813.09,136.553 1815.27,125.969 1817.44,115.427 1819.62,104.927 1821.8,94.4693 1823.97,1382.17 1826.15,1366.61 1828.32,1351.11 1830.5,1335.67 1832.68,1320.3 1834.85,1304.98 1837.03,1289.73 1839.2,1274.54 1841.38,1259.4 1843.56,1244.33 1845.73,1229.32 1847.91,1214.37 1850.08,1199.48 1852.26,1184.64 1854.44,1169.87 1856.61,1155.16 1858.79,1140.5 1860.97,1125.91 1863.14,1111.37 1865.32,1096.89 1867.49,1082.47 1869.67,1068.1 1871.85,1053.79 1874.02,1039.54 1876.2,1025.35 1878.37,1011.21 1880.55,997.134 1882.73,983.11 1884.9,969.143 1887.08,955.231 1889.25,941.375 1891.43,927.574 1893.61,913.829 1895.78,900.138 1897.96,886.502 1900.13,872.921 1902.31,859.394 1904.49,845.921 1906.66,832.502 1908.84,819.136 1911.01,805.824 1913.19,792.566 1915.37,779.36 1917.54,766.207 1919.72,753.106 1921.89,740.058 1924.07,727.062 1926.25,714.118 1928.42,701.226 1930.6,688.386 1932.78,675.596 1934.95,662.858 1937.13,650.171 1939.3,637.534 1941.48,624.948 1943.66,612.412 1945.83,599.927 1948.01,587.491 1950.18,575.105 1952.36,562.769 1954.54,550.481 1956.71,538.243 1958.89,526.054 1961.06,513.914 1963.24,501.822 1965.42,489.778 1967.59,477.783 1969.77,465.835 1971.94,453.935 1974.12,442.083 1976.3,430.278 1978.47,418.52 1980.65,406.81 1982.82,395.146 1985,383.528 1987.18,371.957 1989.35,360.433 1991.53,348.954 1993.71,337.521 1995.88,326.134 1998.06,314.793 2000.23,303.496 2002.41,292.245 2004.59,281.039 2006.76,269.877 2008.94,258.76 2011.11,247.688 2013.29,236.66 2015.47,225.676 2017.64,214.735 2019.82,203.839 2021.99,192.986 2024.17,182.176 2026.35,171.409 2028.52,160.686 2030.7,150.005 2032.87,139.367 2035.05,128.772 2037.23,118.218 2039.4,107.707 2041.58,97.2382 2043.75,86.8109 2045.93,1370.73 2048.11,1355.21 2050.28,1339.76 2052.46,1324.37 2054.63,1309.04 2056.81,1293.77 2058.99,1278.56 2061.16,1263.41 2063.34,1248.32 2065.52,1233.29 2067.69,1218.33 2069.87,1203.42 2072.04,1188.57 2074.22,1173.78 2076.4,1159.05 2078.57,1144.38 2080.75,1129.77 2082.92,1115.22 2085.1,1100.72 2087.28,1086.28 2089.45,1071.9 2091.63,1057.58 2093.8,1043.32 2095.98,1029.11 2098.16,1014.96 2100.33,1000.86 2102.51,986.823 2104.68,972.841 2106.86,958.914 2109.04,945.043 2111.21,931.228 2113.39,917.468 2115.56,903.763 2117.74,890.112 2119.92,876.517 2122.09,862.975 2124.27,849.488 2126.45,836.055 2128.62,822.675 2130.8,809.349 2132.97,796.076 2135.15,782.856 2137.33,769.689 2139.5,756.575 2141.68,743.513 2143.85,730.503 2146.03,717.545 2148.21,704.64 2150.38,691.785 2152.56,678.982 2154.73,666.231 2156.91,653.53 2159.09,640.88 2161.26,628.281 2163.44,615.731 2165.61,603.233 2167.79,590.784 2169.97,578.384 2172.14,566.035 2174.32,553.735 2176.49,541.483 2178.67,529.281 2180.85,517.128 2183.02,505.023 2185.2,492.967 2187.37,480.959 2189.55,468.998 2191.73,457.086 2193.9,445.221 2196.08,433.404 2198.26,421.633 2200.43,409.91 2202.61,398.234 2204.78,386.604 2206.96,375.021 2209.14,363.484 2211.31,351.993 2213.49,340.548 2215.66,329.149 2217.84,317.795 2220.02,306.487 2222.19,295.224 2224.37,284.006 2226.54,272.832 2228.72,261.704 2230.9,250.62 2233.07,239.58 2235.25,228.584 2237.42,217.632 2239.6,206.724 2241.78,195.859 2243.95,185.038 2246.13,174.26 2248.3,163.525 2250.48,152.833 2252.66,142.184 2254.83,131.577 2257.01,121.012 2259.19,110.49 2261.36,100.01 2263.54,89.5717 2265.71,1374.85 2267.89,1359.32 2270.07,1343.85 2272.24,1328.44 2274.42,1313.1 2276.59,1297.81 2278.77,1282.59 2280.95,1267.42 2283.12,1252.32 2285.3,1237.28 2287.47,1222.29 2289.65,1207.37 2291.83,1192.51 2294,1177.7 2296.18,1162.96 2298.35,1148.27 2300.53,1133.64 2302.71,1119.08 2304.88,1104.57 2307.06,1090.11 2309.23,1075.72 2311.41,1061.38 2313.59,1047.1 2315.76,1032.88 2317.94,1018.71 2320.11,1004.6 2322.29,990.549 2324.47,976.552 2326.64,962.611 2328.82,948.726 2331,934.896 2333.17,921.122 2335.35,907.402 2337.52,893.738 2339.7,880.127 2341.88,866.572 2344.05,853.07 2346.23,839.623 2348.4,826.229 2350.58,812.889 2352.76,799.602 "/>
<path clip-path="url(#clip150)" d="M251.33 196.789 L557.815 196.789 L557.815 93.1086 L251.33 93.1086  Z" fill="#ffffff" fill-rule="evenodd" fill-opacity="1"/>
<polyline clip-path="url(#clip150)" style="stroke:#000000; stroke-linecap:round; stroke-linejoin:round; stroke-width:4; stroke-opacity:1; fill:none" points="251.33,196.789 557.815,196.789 557.815,93.1086 251.33,93.1086 251.33,196.789 "/>
<polyline clip-path="url(#clip150)" style="stroke:#009af9; stroke-linecap:round; stroke-linejoin:round; stroke-width:4; stroke-opacity:1; fill:none" points="275.484,144.949 420.41,144.949 "/>
<path clip-path="url(#clip150)" d="M444.564 151.997 L444.564 136.303 L448.823 136.303 L448.823 151.835 Q448.823 155.516 450.259 157.368 Q451.694 159.196 454.564 159.196 Q458.013 159.196 460.004 156.997 Q462.018 154.798 462.018 151.002 L462.018 136.303 L466.277 136.303 L466.277 162.229 L462.018 162.229 L462.018 158.247 Q460.467 160.608 458.407 161.766 Q456.37 162.9 453.661 162.9 Q449.194 162.9 446.879 160.122 Q444.564 157.344 444.564 151.997 M455.282 135.678 L455.282 135.678 Z" fill="#000000" fill-rule="nonzero" fill-opacity="1" /><path clip-path="url(#clip150)" d="M474.657 126.21 L484.471 126.21 L484.471 129.52 L478.916 129.52 L478.916 165.168 L484.471 165.168 L484.471 168.479 L474.657 168.479 L474.657 126.21 Z" fill="#000000" fill-rule="nonzero" fill-opacity="1" /><path clip-path="url(#clip150)" d="M494.957 158.293 L502.596 158.293 L502.596 131.928 L494.286 133.595 L494.286 129.335 L502.55 127.669 L507.226 127.669 L507.226 158.293 L514.865 158.293 L514.865 162.229 L494.957 162.229 L494.957 158.293 Z" fill="#000000" fill-rule="nonzero" fill-opacity="1" /><path clip-path="url(#clip150)" d="M533.661 126.21 L533.661 168.479 L523.846 168.479 L523.846 165.168 L529.379 165.168 L529.379 129.52 L523.846 129.52 L523.846 126.21 L533.661 126.21 Z" fill="#000000" fill-rule="nonzero" fill-opacity="1" /></svg>
