<?xml version="1.0" encoding="utf-8"?>
<svg xmlns="http://www.w3.org/2000/svg" xmlns:xlink="http://www.w3.org/1999/xlink" width="600" height="400" viewBox="0 0 2400 1600">
<defs>
  <clipPath id="clip390">
    <rect x="0" y="0" width="2400" height="1600"/>
  </clipPath>
</defs>
<path clip-path="url(#clip390)" d="M0 1600 L2400 1600 L2400 0 L0 0  Z" fill="#ffffff" fill-rule="evenodd" fill-opacity="1"/>
<defs>
  <clipPath id="clip391">
    <rect x="178" y="47" width="2175" height="1377"/>
  </clipPath>
</defs>
<path clip-path="url(#clip390)" d="M178.867 1423.18 L2352.76 1423.18 L2352.76 47.2441 L178.867 47.2441  Z" fill="#ffffff" fill-rule="evenodd" fill-opacity="1"/>
<polyline clip-path="url(#clip391)" style="stroke:#000000; stroke-linecap:round; stroke-linejoin:round; stroke-width:2; stroke-opacity:0.1; fill:none" points="178.867,1423.18 178.867,47.2441 "/>
<polyline clip-path="url(#clip391)" style="stroke:#000000; stroke-linecap:round; stroke-linejoin:round; stroke-width:2; stroke-opacity:0.1; fill:none" points="489.422,1423.18 489.422,47.2441 "/>
<polyline clip-path="url(#clip391)" style="stroke:#000000; stroke-linecap:round; stroke-linejoin:round; stroke-width:2; stroke-opacity:0.1; fill:none" points="799.978,1423.18 799.978,47.2441 "/>
<polyline clip-path="url(#clip391)" style="stroke:#000000; stroke-linecap:round; stroke-linejoin:round; stroke-width:2; stroke-opacity:0.1; fill:none" points="1110.53,1423.18 1110.53,47.2441 "/>
<polyline clip-path="url(#clip391)" style="stroke:#000000; stroke-linecap:round; stroke-linejoin:round; stroke-width:2; stroke-opacity:0.1; fill:none" points="1421.09,1423.18 1421.09,47.2441 "/>
<polyline clip-path="url(#clip391)" style="stroke:#000000; stroke-linecap:round; stroke-linejoin:round; stroke-width:2; stroke-opacity:0.1; fill:none" points="1731.64,1423.18 1731.64,47.2441 "/>
<polyline clip-path="url(#clip391)" style="stroke:#000000; stroke-linecap:round; stroke-linejoin:round; stroke-width:2; stroke-opacity:0.1; fill:none" points="2042.2,1423.18 2042.2,47.2441 "/>
<polyline clip-path="url(#clip391)" style="stroke:#000000; stroke-linecap:round; stroke-linejoin:round; stroke-width:2; stroke-opacity:0.1; fill:none" points="2352.76,1423.18 2352.76,47.2441 "/>
<polyline clip-path="url(#clip391)" style="stroke:#000000; stroke-linecap:round; stroke-linejoin:round; stroke-width:2; stroke-opacity:0.1; fill:none" points="178.867,1228.42 2352.76,1228.42 "/>
<polyline clip-path="url(#clip391)" style="stroke:#000000; stroke-linecap:round; stroke-linejoin:round; stroke-width:2; stroke-opacity:0.1; fill:none" points="178.867,847.677 2352.76,847.677 "/>
<polyline clip-path="url(#clip391)" style="stroke:#000000; stroke-linecap:round; stroke-linejoin:round; stroke-width:2; stroke-opacity:0.1; fill:none" points="178.867,466.931 2352.76,466.931 "/>
<polyline clip-path="url(#clip391)" style="stroke:#000000; stroke-linecap:round; stroke-linejoin:round; stroke-width:2; stroke-opacity:0.1; fill:none" points="178.867,86.1857 2352.76,86.1857 "/>
<polyline clip-path="url(#clip390)" style="stroke:#000000; stroke-linecap:round; stroke-linejoin:round; stroke-width:4; stroke-opacity:1; fill:none" points="178.867,1423.18 2352.76,1423.18 "/>
<polyline clip-path="url(#clip390)" style="stroke:#000000; stroke-linecap:round; stroke-linejoin:round; stroke-width:4; stroke-opacity:1; fill:none" points="178.867,1423.18 178.867,1404.28 "/>
<polyline clip-path="url(#clip390)" style="stroke:#000000; stroke-linecap:round; stroke-linejoin:round; stroke-width:4; stroke-opacity:1; fill:none" points="489.422,1423.18 489.422,1404.28 "/>
<polyline clip-path="url(#clip390)" style="stroke:#000000; stroke-linecap:round; stroke-linejoin:round; stroke-width:4; stroke-opacity:1; fill:none" points="799.978,1423.18 799.978,1404.28 "/>
<polyline clip-path="url(#clip390)" style="stroke:#000000; stroke-linecap:round; stroke-linejoin:round; stroke-width:4; stroke-opacity:1; fill:none" points="1110.53,1423.18 1110.53,1404.28 "/>
<polyline clip-path="url(#clip390)" style="stroke:#000000; stroke-linecap:round; stroke-linejoin:round; stroke-width:4; stroke-opacity:1; fill:none" points="1421.09,1423.18 1421.09,1404.28 "/>
<polyline clip-path="url(#clip390)" style="stroke:#000000; stroke-linecap:round; stroke-linejoin:round; stroke-width:4; stroke-opacity:1; fill:none" points="1731.64,1423.18 1731.64,1404.28 "/>
<polyline clip-path="url(#clip390)" style="stroke:#000000; stroke-linecap:round; stroke-linejoin:round; stroke-width:4; stroke-opacity:1; fill:none" points="2042.2,1423.18 2042.2,1404.28 "/>
<polyline clip-path="url(#clip390)" style="stroke:#000000; stroke-linecap:round; stroke-linejoin:round; stroke-width:4; stroke-opacity:1; fill:none" points="2352.76,1423.18 2352.76,1404.28 "/>
<path clip-path="url(#clip390)" d="M178.867 1454.1 Q175.256 1454.1 173.427 1457.66 Q171.621 1461.2 171.621 1468.33 Q171.621 1475.44 173.427 1479.01 Q175.256 1482.55 178.867 1482.55 Q182.501 1482.55 184.306 1479.01 Q186.135 1475.44 186.135 1468.33 Q186.135 1461.2 184.306 1457.66 Q182.501 1454.1 178.867 1454.1 M178.867 1450.39 Q184.677 1450.39 187.732 1455 Q190.811 1459.58 190.811 1468.33 Q190.811 1477.06 187.732 1481.67 Q184.677 1486.25 178.867 1486.25 Q173.056 1486.25 169.978 1481.67 Q166.922 1477.06 166.922 1468.33 Q166.922 1459.58 169.978 1455 Q173.056 1450.39 178.867 1450.39 Z" fill="#000000" fill-rule="nonzero" fill-opacity="1" /><path clip-path="url(#clip390)" d="M449.029 1481.64 L456.668 1481.64 L456.668 1455.28 L448.358 1456.95 L448.358 1452.69 L456.621 1451.02 L461.297 1451.02 L461.297 1481.64 L468.936 1481.64 L468.936 1485.58 L449.029 1485.58 L449.029 1481.64 Z" fill="#000000" fill-rule="nonzero" fill-opacity="1" /><path clip-path="url(#clip390)" d="M488.381 1454.1 Q484.769 1454.1 482.941 1457.66 Q481.135 1461.2 481.135 1468.33 Q481.135 1475.44 482.941 1479.01 Q484.769 1482.55 488.381 1482.55 Q492.015 1482.55 493.82 1479.01 Q495.649 1475.44 495.649 1468.33 Q495.649 1461.2 493.82 1457.66 Q492.015 1454.1 488.381 1454.1 M488.381 1450.39 Q494.191 1450.39 497.246 1455 Q500.325 1459.58 500.325 1468.33 Q500.325 1477.06 497.246 1481.67 Q494.191 1486.25 488.381 1486.25 Q482.57 1486.25 479.492 1481.67 Q476.436 1477.06 476.436 1468.33 Q476.436 1459.58 479.492 1455 Q482.57 1450.39 488.381 1450.39 Z" fill="#000000" fill-rule="nonzero" fill-opacity="1" /><path clip-path="url(#clip390)" d="M518.542 1454.1 Q514.931 1454.1 513.103 1457.66 Q511.297 1461.2 511.297 1468.33 Q511.297 1475.44 513.103 1479.01 Q514.931 1482.55 518.542 1482.55 Q522.177 1482.55 523.982 1479.01 Q525.811 1475.44 525.811 1468.33 Q525.811 1461.2 523.982 1457.66 Q522.177 1454.1 518.542 1454.1 M518.542 1450.39 Q524.353 1450.39 527.408 1455 Q530.487 1459.58 530.487 1468.33 Q530.487 1477.06 527.408 1481.67 Q524.353 1486.25 518.542 1486.25 Q512.732 1486.25 509.654 1481.67 Q506.598 1477.06 506.598 1468.33 Q506.598 1459.58 509.654 1455 Q512.732 1450.39 518.542 1450.39 Z" fill="#000000" fill-rule="nonzero" fill-opacity="1" /><path clip-path="url(#clip390)" d="M763.67 1481.64 L779.99 1481.64 L779.99 1485.58 L758.045 1485.58 L758.045 1481.64 Q760.707 1478.89 765.291 1474.26 Q769.897 1469.61 771.078 1468.27 Q773.323 1465.74 774.203 1464.01 Q775.105 1462.25 775.105 1460.56 Q775.105 1457.8 773.161 1456.07 Q771.24 1454.33 768.138 1454.33 Q765.939 1454.33 763.485 1455.09 Q761.054 1455.86 758.277 1457.41 L758.277 1452.69 Q761.101 1451.55 763.554 1450.97 Q766.008 1450.39 768.045 1450.39 Q773.415 1450.39 776.61 1453.08 Q779.804 1455.77 779.804 1460.26 Q779.804 1462.39 778.994 1464.31 Q778.207 1466.2 776.101 1468.8 Q775.522 1469.47 772.42 1472.69 Q769.318 1475.88 763.67 1481.64 Z" fill="#000000" fill-rule="nonzero" fill-opacity="1" /><path clip-path="url(#clip390)" d="M799.804 1454.1 Q796.193 1454.1 794.364 1457.66 Q792.559 1461.2 792.559 1468.33 Q792.559 1475.44 794.364 1479.01 Q796.193 1482.55 799.804 1482.55 Q803.438 1482.55 805.244 1479.01 Q807.073 1475.44 807.073 1468.33 Q807.073 1461.2 805.244 1457.66 Q803.438 1454.1 799.804 1454.1 M799.804 1450.39 Q805.614 1450.39 808.67 1455 Q811.749 1459.58 811.749 1468.33 Q811.749 1477.06 808.67 1481.67 Q805.614 1486.25 799.804 1486.25 Q793.994 1486.25 790.915 1481.67 Q787.86 1477.06 787.86 1468.33 Q787.86 1459.58 790.915 1455 Q793.994 1450.39 799.804 1450.39 Z" fill="#000000" fill-rule="nonzero" fill-opacity="1" /><path clip-path="url(#clip390)" d="M829.966 1454.1 Q826.355 1454.1 824.526 1457.66 Q822.721 1461.2 822.721 1468.33 Q822.721 1475.44 824.526 1479.01 Q826.355 1482.55 829.966 1482.55 Q833.6 1482.55 835.406 1479.01 Q837.235 1475.44 837.235 1468.33 Q837.235 1461.2 835.406 1457.66 Q833.6 1454.1 829.966 1454.1 M829.966 1450.39 Q835.776 1450.39 838.832 1455 Q841.91 1459.58 841.91 1468.33 Q841.91 1477.06 838.832 1481.67 Q835.776 1486.25 829.966 1486.25 Q824.156 1486.25 821.077 1481.67 Q818.022 1477.06 818.022 1468.33 Q818.022 1459.58 821.077 1455 Q824.156 1450.39 829.966 1450.39 Z" fill="#000000" fill-rule="nonzero" fill-opacity="1" /><path clip-path="url(#clip390)" d="M1084.3 1466.95 Q1087.65 1467.66 1089.53 1469.93 Q1091.42 1472.2 1091.42 1475.53 Q1091.42 1480.65 1087.91 1483.45 Q1084.39 1486.25 1077.91 1486.25 Q1075.73 1486.25 1073.42 1485.81 Q1071.12 1485.39 1068.67 1484.54 L1068.67 1480.02 Q1070.61 1481.16 1072.93 1481.74 Q1075.24 1482.32 1077.77 1482.32 Q1082.17 1482.32 1084.46 1480.58 Q1086.77 1478.84 1086.77 1475.53 Q1086.77 1472.48 1084.62 1470.77 Q1082.49 1469.03 1078.67 1469.03 L1074.64 1469.03 L1074.64 1465.19 L1078.86 1465.19 Q1082.3 1465.19 1084.13 1463.82 Q1085.96 1462.43 1085.96 1459.84 Q1085.96 1457.18 1084.06 1455.77 Q1082.19 1454.33 1078.67 1454.33 Q1076.75 1454.33 1074.55 1454.75 Q1072.35 1455.16 1069.71 1456.04 L1069.71 1451.88 Q1072.37 1451.14 1074.69 1450.77 Q1077.03 1450.39 1079.09 1450.39 Q1084.41 1450.39 1087.51 1452.83 Q1090.61 1455.23 1090.61 1459.35 Q1090.61 1462.22 1088.97 1464.21 Q1087.33 1466.18 1084.3 1466.95 Z" fill="#000000" fill-rule="nonzero" fill-opacity="1" /><path clip-path="url(#clip390)" d="M1110.29 1454.1 Q1106.68 1454.1 1104.85 1457.66 Q1103.05 1461.2 1103.05 1468.33 Q1103.05 1475.44 1104.85 1479.01 Q1106.68 1482.55 1110.29 1482.55 Q1113.92 1482.55 1115.73 1479.01 Q1117.56 1475.44 1117.56 1468.33 Q1117.56 1461.2 1115.73 1457.66 Q1113.92 1454.1 1110.29 1454.1 M1110.29 1450.39 Q1116.1 1450.39 1119.16 1455 Q1122.23 1459.58 1122.23 1468.33 Q1122.23 1477.06 1119.16 1481.67 Q1116.1 1486.25 1110.29 1486.25 Q1104.48 1486.25 1101.4 1481.67 Q1098.35 1477.06 1098.35 1468.33 Q1098.35 1459.58 1101.4 1455 Q1104.48 1450.39 1110.29 1450.39 Z" fill="#000000" fill-rule="nonzero" fill-opacity="1" /><path clip-path="url(#clip390)" d="M1140.45 1454.1 Q1136.84 1454.1 1135.01 1457.66 Q1133.21 1461.2 1133.21 1468.33 Q1133.21 1475.44 1135.01 1479.01 Q1136.84 1482.55 1140.45 1482.55 Q1144.09 1482.55 1145.89 1479.01 Q1147.72 1475.44 1147.72 1468.33 Q1147.72 1461.2 1145.89 1457.66 Q1144.09 1454.1 1140.45 1454.1 M1140.45 1450.39 Q1146.26 1450.39 1149.32 1455 Q1152.4 1459.58 1152.4 1468.33 Q1152.4 1477.06 1149.32 1481.67 Q1146.26 1486.25 1140.45 1486.25 Q1134.64 1486.25 1131.56 1481.67 Q1128.51 1477.06 1128.51 1468.33 Q1128.51 1459.58 1131.56 1455 Q1134.64 1450.39 1140.45 1450.39 Z" fill="#000000" fill-rule="nonzero" fill-opacity="1" /><path clip-path="url(#clip390)" d="M1394.18 1455.09 L1382.37 1473.54 L1394.18 1473.54 L1394.18 1455.09 M1392.95 1451.02 L1398.83 1451.02 L1398.83 1473.54 L1403.76 1473.54 L1403.76 1477.43 L1398.83 1477.43 L1398.83 1485.58 L1394.18 1485.58 L1394.18 1477.43 L1378.58 1477.43 L1378.58 1472.92 L1392.95 1451.02 Z" fill="#000000" fill-rule="nonzero" fill-opacity="1" /><path clip-path="url(#clip390)" d="M1421.49 1454.1 Q1417.88 1454.1 1416.05 1457.66 Q1414.25 1461.2 1414.25 1468.33 Q1414.25 1475.44 1416.05 1479.01 Q1417.88 1482.55 1421.49 1482.55 Q1425.13 1482.55 1426.93 1479.01 Q1428.76 1475.44 1428.76 1468.33 Q1428.76 1461.2 1426.93 1457.66 Q1425.13 1454.1 1421.49 1454.1 M1421.49 1450.39 Q1427.3 1450.39 1430.36 1455 Q1433.44 1459.58 1433.44 1468.33 Q1433.44 1477.06 1430.36 1481.67 Q1427.3 1486.25 1421.49 1486.25 Q1415.68 1486.25 1412.61 1481.67 Q1409.55 1477.06 1409.55 1468.33 Q1409.55 1459.58 1412.61 1455 Q1415.68 1450.39 1421.49 1450.39 Z" fill="#000000" fill-rule="nonzero" fill-opacity="1" /><path clip-path="url(#clip390)" d="M1451.66 1454.1 Q1448.04 1454.1 1446.22 1457.66 Q1444.41 1461.2 1444.41 1468.33 Q1444.41 1475.44 1446.22 1479.01 Q1448.04 1482.55 1451.66 1482.55 Q1455.29 1482.55 1457.1 1479.01 Q1458.92 1475.44 1458.92 1468.33 Q1458.92 1461.2 1457.1 1457.66 Q1455.29 1454.1 1451.66 1454.1 M1451.66 1450.39 Q1457.47 1450.39 1460.52 1455 Q1463.6 1459.58 1463.6 1468.33 Q1463.6 1477.06 1460.52 1481.67 Q1457.47 1486.25 1451.66 1486.25 Q1445.85 1486.25 1442.77 1481.67 Q1439.71 1477.06 1439.71 1468.33 Q1439.71 1459.58 1442.77 1455 Q1445.85 1450.39 1451.66 1450.39 Z" fill="#000000" fill-rule="nonzero" fill-opacity="1" /><path clip-path="url(#clip390)" d="M1691.26 1451.02 L1709.62 1451.02 L1709.62 1454.96 L1695.55 1454.96 L1695.55 1463.43 Q1696.56 1463.08 1697.58 1462.92 Q1698.6 1462.73 1699.62 1462.73 Q1705.41 1462.73 1708.79 1465.9 Q1712.17 1469.08 1712.17 1474.49 Q1712.17 1480.07 1708.69 1483.17 Q1705.22 1486.25 1698.9 1486.25 Q1696.73 1486.25 1694.46 1485.88 Q1692.21 1485.51 1689.8 1484.77 L1689.8 1480.07 Q1691.89 1481.2 1694.11 1481.76 Q1696.33 1482.32 1698.81 1482.32 Q1702.81 1482.32 1705.15 1480.21 Q1707.49 1478.1 1707.49 1474.49 Q1707.49 1470.88 1705.15 1468.77 Q1702.81 1466.67 1698.81 1466.67 Q1696.93 1466.67 1695.06 1467.08 Q1693.21 1467.5 1691.26 1468.38 L1691.26 1451.02 Z" fill="#000000" fill-rule="nonzero" fill-opacity="1" /><path clip-path="url(#clip390)" d="M1731.38 1454.1 Q1727.77 1454.1 1725.94 1457.66 Q1724.13 1461.2 1724.13 1468.33 Q1724.13 1475.44 1725.94 1479.01 Q1727.77 1482.55 1731.38 1482.55 Q1735.01 1482.55 1736.82 1479.01 Q1738.65 1475.44 1738.65 1468.33 Q1738.65 1461.2 1736.82 1457.66 Q1735.01 1454.1 1731.38 1454.1 M1731.38 1450.39 Q1737.19 1450.39 1740.24 1455 Q1743.32 1459.58 1743.32 1468.33 Q1743.32 1477.06 1740.24 1481.67 Q1737.19 1486.25 1731.38 1486.25 Q1725.57 1486.25 1722.49 1481.67 Q1719.43 1477.06 1719.43 1468.33 Q1719.43 1459.58 1722.49 1455 Q1725.57 1450.39 1731.38 1450.39 Z" fill="#000000" fill-rule="nonzero" fill-opacity="1" /><path clip-path="url(#clip390)" d="M1761.54 1454.1 Q1757.93 1454.1 1756.1 1457.66 Q1754.3 1461.2 1754.3 1468.33 Q1754.3 1475.44 1756.1 1479.01 Q1757.93 1482.55 1761.54 1482.55 Q1765.17 1482.55 1766.98 1479.01 Q1768.81 1475.44 1768.81 1468.33 Q1768.81 1461.2 1766.98 1457.66 Q1765.17 1454.1 1761.54 1454.1 M1761.54 1450.39 Q1767.35 1450.39 1770.41 1455 Q1773.48 1459.58 1773.48 1468.33 Q1773.48 1477.06 1770.41 1481.67 Q1767.35 1486.25 1761.54 1486.25 Q1755.73 1486.25 1752.65 1481.67 Q1749.6 1477.06 1749.6 1468.33 Q1749.6 1459.58 1752.65 1455 Q1755.73 1450.39 1761.54 1450.39 Z" fill="#000000" fill-rule="nonzero" fill-opacity="1" /><path clip-path="url(#clip390)" d="M2012.52 1466.44 Q2009.38 1466.44 2007.52 1468.59 Q2005.7 1470.74 2005.7 1474.49 Q2005.7 1478.22 2007.52 1480.39 Q2009.38 1482.55 2012.52 1482.55 Q2015.67 1482.55 2017.5 1480.39 Q2019.35 1478.22 2019.35 1474.49 Q2019.35 1470.74 2017.5 1468.59 Q2015.67 1466.44 2012.52 1466.44 M2021.81 1451.78 L2021.81 1456.04 Q2020.05 1455.21 2018.24 1454.77 Q2016.46 1454.33 2014.7 1454.33 Q2010.07 1454.33 2007.62 1457.45 Q2005.19 1460.58 2004.84 1466.9 Q2006.21 1464.89 2008.27 1463.82 Q2010.33 1462.73 2012.8 1462.73 Q2018.01 1462.73 2021.02 1465.9 Q2024.05 1469.05 2024.05 1474.49 Q2024.05 1479.82 2020.9 1483.03 Q2017.76 1486.25 2012.52 1486.25 Q2006.53 1486.25 2003.36 1481.67 Q2000.19 1477.06 2000.19 1468.33 Q2000.19 1460.14 2004.08 1455.28 Q2007.96 1450.39 2014.52 1450.39 Q2016.27 1450.39 2018.06 1450.74 Q2019.86 1451.09 2021.81 1451.78 Z" fill="#000000" fill-rule="nonzero" fill-opacity="1" /><path clip-path="url(#clip390)" d="M2042.11 1454.1 Q2038.5 1454.1 2036.67 1457.66 Q2034.86 1461.2 2034.86 1468.33 Q2034.86 1475.44 2036.67 1479.01 Q2038.5 1482.55 2042.11 1482.55 Q2045.74 1482.55 2047.55 1479.01 Q2049.38 1475.44 2049.38 1468.33 Q2049.38 1461.2 2047.55 1457.66 Q2045.74 1454.1 2042.11 1454.1 M2042.11 1450.39 Q2047.92 1450.39 2050.97 1455 Q2054.05 1459.58 2054.05 1468.33 Q2054.05 1477.06 2050.97 1481.67 Q2047.92 1486.25 2042.11 1486.25 Q2036.3 1486.25 2033.22 1481.67 Q2030.16 1477.06 2030.16 1468.33 Q2030.16 1459.58 2033.22 1455 Q2036.3 1450.39 2042.11 1450.39 Z" fill="#000000" fill-rule="nonzero" fill-opacity="1" /><path clip-path="url(#clip390)" d="M2072.27 1454.1 Q2068.66 1454.1 2066.83 1457.66 Q2065.02 1461.2 2065.02 1468.33 Q2065.02 1475.44 2066.83 1479.01 Q2068.66 1482.55 2072.27 1482.55 Q2075.9 1482.55 2077.71 1479.01 Q2079.54 1475.44 2079.54 1468.33 Q2079.54 1461.2 2077.71 1457.66 Q2075.9 1454.1 2072.27 1454.1 M2072.27 1450.39 Q2078.08 1450.39 2081.14 1455 Q2084.21 1459.58 2084.21 1468.33 Q2084.21 1477.06 2081.14 1481.67 Q2078.08 1486.25 2072.27 1486.25 Q2066.46 1486.25 2063.38 1481.67 Q2060.33 1477.06 2060.33 1468.33 Q2060.33 1459.58 2063.38 1455 Q2066.46 1450.39 2072.27 1450.39 Z" fill="#000000" fill-rule="nonzero" fill-opacity="1" /><path clip-path="url(#clip390)" d="M2311.03 1451.02 L2333.25 1451.02 L2333.25 1453.01 L2320.71 1485.58 L2315.82 1485.58 L2327.63 1454.96 L2311.03 1454.96 L2311.03 1451.02 Z" fill="#000000" fill-rule="nonzero" fill-opacity="1" /><path clip-path="url(#clip390)" d="M2352.37 1454.1 Q2348.76 1454.1 2346.93 1457.66 Q2345.13 1461.2 2345.13 1468.33 Q2345.13 1475.44 2346.93 1479.01 Q2348.76 1482.55 2352.37 1482.55 Q2356.01 1482.55 2357.81 1479.01 Q2359.64 1475.44 2359.64 1468.33 Q2359.64 1461.2 2357.81 1457.66 Q2356.01 1454.1 2352.37 1454.1 M2352.37 1450.39 Q2358.18 1450.39 2361.24 1455 Q2364.32 1459.58 2364.32 1468.33 Q2364.32 1477.06 2361.24 1481.67 Q2358.18 1486.25 2352.37 1486.25 Q2346.56 1486.25 2343.49 1481.67 Q2340.43 1477.06 2340.43 1468.33 Q2340.43 1459.58 2343.49 1455 Q2346.56 1450.39 2352.37 1450.39 Z" fill="#000000" fill-rule="nonzero" fill-opacity="1" /><path clip-path="url(#clip390)" d="M2382.54 1454.1 Q2378.92 1454.1 2377.1 1457.66 Q2375.29 1461.2 2375.29 1468.33 Q2375.29 1475.44 2377.1 1479.01 Q2378.92 1482.55 2382.54 1482.55 Q2386.17 1482.55 2387.98 1479.01 Q2389.8 1475.44 2389.8 1468.33 Q2389.8 1461.2 2387.98 1457.66 Q2386.17 1454.1 2382.54 1454.1 M2382.54 1450.39 Q2388.35 1450.39 2391.4 1455 Q2394.48 1459.58 2394.48 1468.33 Q2394.48 1477.06 2391.4 1481.67 Q2388.35 1486.25 2382.54 1486.25 Q2376.73 1486.25 2373.65 1481.67 Q2370.59 1477.06 2370.59 1468.33 Q2370.59 1459.58 2373.65 1455 Q2376.73 1450.39 2382.54 1450.39 Z" fill="#000000" fill-rule="nonzero" fill-opacity="1" /><path clip-path="url(#clip390)" d="M1264.87 1522.27 L1264.87 1532.4 L1276.94 1532.4 L1276.94 1536.95 L1264.87 1536.95 L1264.87 1556.3 Q1264.87 1560.66 1266.05 1561.9 Q1267.26 1563.14 1270.92 1563.14 L1276.94 1563.14 L1276.94 1568.04 L1270.92 1568.04 Q1264.14 1568.04 1261.56 1565.53 Q1258.98 1562.98 1258.98 1556.3 L1258.98 1536.95 L1254.69 1536.95 L1254.69 1532.4 L1258.98 1532.4 L1258.98 1522.27 L1264.87 1522.27 Z" fill="#000000" fill-rule="nonzero" fill-opacity="1" /><polyline clip-path="url(#clip390)" style="stroke:#000000; stroke-linecap:round; stroke-linejoin:round; stroke-width:4; stroke-opacity:1; fill:none" points="178.867,1423.18 178.867,47.2441 "/>
<polyline clip-path="url(#clip390)" style="stroke:#000000; stroke-linecap:round; stroke-linejoin:round; stroke-width:4; stroke-opacity:1; fill:none" points="178.867,1228.42 197.764,1228.42 "/>
<polyline clip-path="url(#clip390)" style="stroke:#000000; stroke-linecap:round; stroke-linejoin:round; stroke-width:4; stroke-opacity:1; fill:none" points="178.867,847.677 197.764,847.677 "/>
<polyline clip-path="url(#clip390)" style="stroke:#000000; stroke-linecap:round; stroke-linejoin:round; stroke-width:4; stroke-opacity:1; fill:none" points="178.867,466.931 197.764,466.931 "/>
<polyline clip-path="url(#clip390)" style="stroke:#000000; stroke-linecap:round; stroke-linejoin:round; stroke-width:4; stroke-opacity:1; fill:none" points="178.867,86.1857 197.764,86.1857 "/>
<path clip-path="url(#clip390)" d="M51.6403 1228.87 L81.316 1228.87 L81.316 1232.81 L51.6403 1232.81 L51.6403 1228.87 Z" fill="#000000" fill-rule="nonzero" fill-opacity="1" /><path clip-path="url(#clip390)" d="M101.987 1226.56 Q98.8391 1226.56 96.9872 1228.71 Q95.1586 1230.86 95.1586 1234.61 Q95.1586 1238.34 96.9872 1240.52 Q98.8391 1242.67 101.987 1242.67 Q105.135 1242.67 106.964 1240.52 Q108.816 1238.34 108.816 1234.61 Q108.816 1230.86 106.964 1228.71 Q105.135 1226.56 101.987 1226.56 M111.27 1211.91 L111.27 1216.17 Q109.51 1215.33 107.705 1214.89 Q105.922 1214.45 104.163 1214.45 Q99.5335 1214.45 97.0798 1217.58 Q94.6493 1220.7 94.3021 1227.02 Q95.6678 1225.01 97.728 1223.94 Q99.7882 1222.86 102.265 1222.86 Q107.473 1222.86 110.483 1226.03 Q113.515 1229.17 113.515 1234.61 Q113.515 1239.94 110.367 1243.16 Q107.219 1246.37 101.987 1246.37 Q95.9919 1246.37 92.8206 1241.79 Q89.6493 1237.18 89.6493 1228.46 Q89.6493 1220.26 93.5382 1215.4 Q97.4271 1210.52 103.978 1210.52 Q105.737 1210.52 107.52 1210.86 Q109.325 1211.21 111.27 1211.91 Z" fill="#000000" fill-rule="nonzero" fill-opacity="1" /><path clip-path="url(#clip390)" d="M135.737 1227.07 Q139.094 1227.79 140.968 1230.05 Q142.867 1232.32 142.867 1235.66 Q142.867 1240.77 139.348 1243.57 Q135.83 1246.37 129.348 1246.37 Q127.172 1246.37 124.857 1245.93 Q122.566 1245.52 120.112 1244.66 L120.112 1240.15 Q122.057 1241.28 124.371 1241.86 Q126.686 1242.44 129.209 1242.44 Q133.607 1242.44 135.899 1240.7 Q138.214 1238.97 138.214 1235.66 Q138.214 1232.6 136.061 1230.89 Q133.931 1229.15 130.112 1229.15 L126.084 1229.15 L126.084 1225.31 L130.297 1225.31 Q133.746 1225.31 135.575 1223.94 Q137.404 1222.55 137.404 1219.96 Q137.404 1217.3 135.506 1215.89 Q133.631 1214.45 130.112 1214.45 Q128.191 1214.45 125.992 1214.87 Q123.793 1215.29 121.154 1216.17 L121.154 1212 Q123.816 1211.26 126.131 1210.89 Q128.469 1210.52 130.529 1210.52 Q135.853 1210.52 138.955 1212.95 Q142.056 1215.36 142.056 1219.48 Q142.056 1222.35 140.413 1224.34 Q138.769 1226.3 135.737 1227.07 Z" fill="#000000" fill-rule="nonzero" fill-opacity="1" /><path clip-path="url(#clip390)" d="M52.5893 848.128 L82.2651 848.128 L82.2651 852.063 L52.5893 852.063 L52.5893 848.128 Z" fill="#000000" fill-rule="nonzero" fill-opacity="1" /><path clip-path="url(#clip390)" d="M102.936 845.813 Q99.7882 845.813 97.9363 847.966 Q96.1076 850.119 96.1076 853.869 Q96.1076 857.596 97.9363 859.771 Q99.7882 861.924 102.936 861.924 Q106.084 861.924 107.913 859.771 Q109.765 857.596 109.765 853.869 Q109.765 850.119 107.913 847.966 Q106.084 845.813 102.936 845.813 M112.219 831.161 L112.219 835.42 Q110.459 834.586 108.654 834.147 Q106.871 833.707 105.112 833.707 Q100.483 833.707 98.0289 836.832 Q95.5984 839.957 95.2511 846.276 Q96.6169 844.262 98.6771 843.197 Q100.737 842.11 103.214 842.11 Q108.422 842.11 111.432 845.281 Q114.464 848.429 114.464 853.869 Q114.464 859.193 111.316 862.41 Q108.168 865.628 102.936 865.628 Q96.941 865.628 93.7697 861.045 Q90.5984 856.438 90.5984 847.711 Q90.5984 839.517 94.4873 834.656 Q98.3761 829.772 104.927 829.772 Q106.686 829.772 108.469 830.119 Q110.274 830.466 112.219 831.161 Z" fill="#000000" fill-rule="nonzero" fill-opacity="1" /><path clip-path="url(#clip390)" d="M126.547 861.021 L142.867 861.021 L142.867 864.957 L120.922 864.957 L120.922 861.021 Q123.584 858.267 128.168 853.637 Q132.774 848.984 133.955 847.642 Q136.2 845.119 137.08 843.383 Q137.982 841.623 137.982 839.934 Q137.982 837.179 136.038 835.443 Q134.117 833.707 131.015 833.707 Q128.816 833.707 126.362 834.471 Q123.932 835.235 121.154 836.785 L121.154 832.063 Q123.978 830.929 126.432 830.35 Q128.885 829.772 130.922 829.772 Q136.293 829.772 139.487 832.457 Q142.681 835.142 142.681 839.633 Q142.681 841.762 141.871 843.684 Q141.084 845.582 138.978 848.174 Q138.399 848.846 135.297 852.063 Q132.195 855.258 126.547 861.021 Z" fill="#000000" fill-rule="nonzero" fill-opacity="1" /><path clip-path="url(#clip390)" d="M52.219 467.383 L81.8947 467.383 L81.8947 471.318 L52.219 471.318 L52.219 467.383 Z" fill="#000000" fill-rule="nonzero" fill-opacity="1" /><path clip-path="url(#clip390)" d="M102.566 465.068 Q99.4178 465.068 97.566 467.22 Q95.7373 469.373 95.7373 473.123 Q95.7373 476.85 97.566 479.026 Q99.4178 481.179 102.566 481.179 Q105.714 481.179 107.543 479.026 Q109.395 476.85 109.395 473.123 Q109.395 469.373 107.543 467.22 Q105.714 465.068 102.566 465.068 M111.848 450.415 L111.848 454.674 Q110.089 453.841 108.283 453.401 Q106.501 452.961 104.742 452.961 Q100.112 452.961 97.6585 456.086 Q95.228 459.211 94.8808 465.531 Q96.2465 463.517 98.3067 462.452 Q100.367 461.364 102.844 461.364 Q108.052 461.364 111.061 464.535 Q114.094 467.683 114.094 473.123 Q114.094 478.447 110.946 481.665 Q107.797 484.882 102.566 484.882 Q96.5706 484.882 93.3993 480.299 Q90.228 475.693 90.228 466.966 Q90.228 458.771 94.1169 453.91 Q98.0058 449.026 104.557 449.026 Q106.316 449.026 108.098 449.373 Q109.904 449.721 111.848 450.415 Z" fill="#000000" fill-rule="nonzero" fill-opacity="1" /><path clip-path="url(#clip390)" d="M122.959 480.276 L130.598 480.276 L130.598 453.91 L122.288 455.577 L122.288 451.318 L130.552 449.651 L135.228 449.651 L135.228 480.276 L142.867 480.276 L142.867 484.211 L122.959 484.211 L122.959 480.276 Z" fill="#000000" fill-rule="nonzero" fill-opacity="1" /><path clip-path="url(#clip390)" d="M50.9921 86.6371 L80.6679 86.6371 L80.6679 90.5722 L50.9921 90.5722 L50.9921 86.6371 Z" fill="#000000" fill-rule="nonzero" fill-opacity="1" /><path clip-path="url(#clip390)" d="M101.339 84.3223 Q98.1909 84.3223 96.3391 86.475 Q94.5104 88.6278 94.5104 92.3778 Q94.5104 96.1046 96.3391 98.2805 Q98.1909 100.433 101.339 100.433 Q104.487 100.433 106.316 98.2805 Q108.168 96.1046 108.168 92.3778 Q108.168 88.6278 106.316 86.475 Q104.487 84.3223 101.339 84.3223 M110.621 69.6696 L110.621 73.9288 Q108.862 73.0955 107.057 72.6557 Q105.274 72.2158 103.515 72.2158 Q98.8854 72.2158 96.4317 75.3408 Q94.0012 78.4658 93.6539 84.7852 Q95.0197 82.7713 97.0798 81.7065 Q99.14 80.6186 101.617 80.6186 Q106.825 80.6186 109.834 83.7899 Q112.867 86.938 112.867 92.3778 Q112.867 97.7018 109.719 100.919 Q106.571 104.137 101.339 104.137 Q95.3437 104.137 92.1725 99.5537 Q89.0012 94.9472 89.0012 86.2204 Q89.0012 78.026 92.89 73.1649 Q96.7789 68.2807 103.33 68.2807 Q105.089 68.2807 106.871 68.6279 Q108.677 68.9751 110.621 69.6696 Z" fill="#000000" fill-rule="nonzero" fill-opacity="1" /><path clip-path="url(#clip390)" d="M130.922 71.9844 Q127.311 71.9844 125.482 75.5492 Q123.677 79.0908 123.677 86.2204 Q123.677 93.3268 125.482 96.8916 Q127.311 100.433 130.922 100.433 Q134.556 100.433 136.362 96.8916 Q138.191 93.3268 138.191 86.2204 Q138.191 79.0908 136.362 75.5492 Q134.556 71.9844 130.922 71.9844 M130.922 68.2807 Q136.732 68.2807 139.788 72.8871 Q142.867 77.4704 142.867 86.2204 Q142.867 94.9472 139.788 99.5537 Q136.732 104.137 130.922 104.137 Q125.112 104.137 122.033 99.5537 Q118.978 94.9472 118.978 86.2204 Q118.978 77.4704 122.033 72.8871 Q125.112 68.2807 130.922 68.2807 Z" fill="#000000" fill-rule="nonzero" fill-opacity="1" /><polyline clip-path="url(#clip391)" style="stroke:#009af9; stroke-linecap:round; stroke-linejoin:round; stroke-width:4; stroke-opacity:1; fill:none" points="178.867,86.1857 180.845,173.382 182.823,258.815 184.801,343.814 186.779,427.55 188.757,509.133 190.735,587.733 192.713,662.806 194.691,733.969 196.669,800.57 198.647,862.762 200.625,920.599 202.603,973.57 204.581,1022.21 206.559,1066.53 208.538,1106.58 210.516,1142.89 212.494,1175.61 214.472,1204.74 216.45,1230.65 218.428,1253.57 220.406,1273.77 222.384,1291.87 224.362,1307.86 226.34,1321.75 228.318,1333.52 230.296,1343.54 232.274,1352.23 234.252,1359.57 236.23,1365.47 238.208,1370.28 240.187,1374.38 242.165,1377.77 244.143,1380.45 246.121,1382.42 248.099,1383.69 250.077,1384.24 252.055,1384.1 254.033,1383.67 256.011,1382.97 257.989,1382 259.967,1380.75 261.945,1379.23 263.923,1377.44 265.901,1375.33 267.879,1373.07 269.857,1370.76 271.836,1368.39 273.814,1365.97 275.792,1363.5 277.77,1360.97 279.748,1358.39 281.726,1355.76 283.704,1353.07 285.682,1350.32 287.66,1347.52 289.638,1344.72 291.616,1341.96 293.594,1339.23 295.572,1336.54 297.55,1333.89 299.528,1331.27 301.506,1328.69 303.484,1326.15 305.463,1323.64 307.441,1321.17 309.419,1318.73 311.397,1316.34 313.375,1314.01 315.353,1311.74 317.331,1309.52 319.309,1307.35 321.287,1305.23 323.265,1303.16 325.243,1301.14 327.221,1299.17 329.199,1297.25 331.177,1295.39 333.155,1293.57 335.133,1291.8 337.112,1290.09 339.09,1288.42 341.068,1286.81 343.046,1285.24 345.024,1283.73 347.002,1282.27 348.98,1280.9 350.958,1279.58 352.936,1278.29 354.914,1277.04 356.892,1275.82 358.87,1274.64 360.848,1273.49 362.826,1272.38 364.804,1271.31 366.782,1270.27 368.761,1269.26 370.739,1268.29 372.717,1267.36 374.695,1266.46 376.673,1265.6 378.651,1264.77 380.629,1263.98 382.607,1263.23 384.585,1262.51 386.563,1261.82 388.541,1261.17 390.519,1260.58 392.497,1260.03 394.475,1259.51 396.453,1258.99 398.431,1258.5 400.409,1258.01 402.388,1257.54 404.366,1257.09 406.344,1256.65 408.322,1256.23 410.3,1255.82 412.278,1255.42 414.256,1255.04 416.234,1254.68 418.212,1254.32 420.19,1253.99 422.168,1253.67 424.146,1253.36 426.124,1253.07 428.102,1252.79 430.08,1252.53 432.058,1252.28 434.037,1252.04 436.015,1251.82 437.993,1251.62 439.971,1251.43 441.949,1251.26 443.927,1251.09 445.905,1250.95 447.883,1250.82 449.861,1250.71 451.839,1250.6 453.817,1250.49 455.795,1250.39 457.773,1250.3 459.751,1250.21 461.729,1250.12 463.707,1250.03 465.686,1249.96 467.664,1249.88 469.642,1249.81 471.62,1249.74 473.598,1249.68 475.576,1249.62 477.554,1249.56 479.532,1249.51 481.51,1249.46 483.488,1249.42 485.466,1249.38 487.444,1249.35 489.422,1249.32 491.4,1214.08 493.378,1182.08 495.356,1153.31 497.334,1127.71 499.313,1104.38 501.291,1083.2 503.269,1063.96 505.247,1046.64 507.225,1031.3 509.203,1017.45 511.181,1004.97 513.159,993.86 515.137,984.128 517.115,975.8 519.093,968.822 521.071,962.759 523.049,957.61 525.027,953.375 527.005,950.054 528.983,947.647 530.962,946.179 532.94,945.64 534.918,945.625 536.896,946.137 538.874,947.174 540.852,948.737 542.83,950.826 544.808,953.44 546.786,956.58 548.764,960.34 550.742,964.392 552.72,968.634 554.698,973.066 556.676,977.687 558.654,982.498 560.632,987.499 562.611,992.69 564.589,998.071 566.567,1003.64 568.545,1009.47 570.523,1015.35 572.501,1021.19 574.479,1026.98 576.457,1032.73 578.435,1038.43 580.413,1044.08 582.391,1049.7 584.369,1055.26 586.347,1060.79 588.325,1066.26 590.303,1071.7 592.281,1077.09 594.259,1082.43 596.238,1087.64 598.216,1092.74 600.194,1097.71 602.172,1102.55 604.15,1107.27 606.128,1111.87 608.106,1116.35 610.084,1120.7 612.062,1124.92 614.04,1129.03 616.018,1133.01 617.996,1136.86 619.974,1140.59 621.952,1144.18 623.93,1147.66 625.908,1151.04 627.887,1154.32 629.865,1157.5 631.843,1160.58 633.821,1163.57 635.799,1166.45 637.777,1169.24 639.755,1171.93 641.733,1174.53 643.711,1177.02 645.689,1179.42 647.667,1181.72 649.645,1183.92 651.623,1186.02 653.601,1188.01 655.579,1189.91 657.557,1191.76 659.536,1193.56 661.514,1195.3 663.492,1196.99 665.47,1198.63 667.448,1200.22 669.426,1201.75 671.404,1203.23 673.382,1204.66 675.36,1206.03 677.338,1207.35 679.316,1208.62 681.294,1209.84 683.272,1211 685.25,1212.11 687.228,1213.17 689.206,1214.17 691.184,1215.11 693.163,1216.03 695.141,1216.93 697.119,1217.8 699.097,1218.65 701.075,1219.48 703.053,1220.28 705.031,1221.06 707.009,1221.82 708.987,1222.56 710.965,1223.27 712.943,1223.96 714.921,1224.62 716.899,1225.27 718.877,1225.89 720.855,1226.49 722.833,1227.06 724.812,1227.61 726.79,1228.14 728.768,1228.64 730.746,1229.12 732.724,1229.58 734.702,1230.03 736.68,1230.47 738.658,1230.9 740.636,1231.32 742.614,1231.74 744.592,1232.14 746.57,1232.54 748.548,1232.92 750.526,1233.3 752.504,1233.66 754.482,1234.02 756.461,1234.37 758.439,1234.71 760.417,1235.04 762.395,1235.36 764.373,1235.67 766.351,1235.97 768.329,1236.26 770.307,1236.54 772.285,1236.82 774.263,1237.08 776.241,1237.34 778.219,1237.58 780.197,1237.83 782.175,1238.06 784.153,1238.3 786.131,1238.52 788.109,1238.75 790.088,1238.96 792.066,1239.18 794.044,1239.39 796.022,1239.59 798,1239.79 799.978,1239.98 801.956,1192.24 803.934,1149.43 805.912,1111.29 807.89,1076.45 809.868,1044.65 811.846,1015.7 813.824,989.67 815.802,965.926 817.78,944.316 819.758,924.84 821.737,907.599 823.715,892.225 825.693,878.376 827.671,866.054 829.649,855.258 831.627,845.989 833.605,838.319 835.583,832.091 837.561,826.908 839.539,822.769 841.517,819.673 843.495,817.622 845.473,816.616 847.451,816.653 849.429,817.843 851.407,819.832 853.386,822.428 855.364,825.631 857.342,829.441 859.32,833.858 861.298,838.883 863.276,844.515 865.254,850.795 867.232,857.754 869.21,864.886 871.188,872.191 873.166,879.67 875.144,887.322 877.122,895.147 879.1,903.145 881.078,911.316 883.056,919.661 885.034,928.178 887.013,936.941 888.991,945.766 890.969,954.461 892.947,963.026 894.925,971.461 896.903,979.767 898.881,987.944 900.859,995.99 902.837,1003.91 904.815,1011.69 906.793,1019.35 908.771,1026.88 910.749,1034.28 912.727,1041.55 914.705,1048.64 916.683,1055.53 918.662,1062.23 920.64,1068.73 922.618,1075.03 924.596,1081.14 926.574,1087.05 928.552,1092.77 930.53,1098.29 932.508,1103.62 934.486,1108.75 936.464,1113.68 938.442,1118.42 940.42,1122.94 942.398,1127.32 944.376,1131.56 946.354,1135.66 948.332,1139.63 950.311,1143.46 952.289,1147.16 954.267,1150.72 956.245,1154.15 958.223,1157.44 960.201,1160.59 962.179,1163.61 964.157,1166.5 966.135,1169.24 968.113,1171.86 970.091,1174.31 972.069,1176.65 974.047,1178.93 976.025,1181.13 978.003,1183.27 979.981,1185.34 981.959,1187.34 983.938,1189.28 985.916,1191.14 987.894,1192.94 989.872,1194.67 991.85,1196.33 993.828,1197.92 995.806,1199.44 997.784,1200.9 999.762,1202.29 1001.74,1203.61 1003.72,1204.86 1005.7,1206.02 1007.67,1207.16 1009.65,1208.27 1011.63,1209.35 1013.61,1210.4 1015.59,1211.42 1017.56,1212.42 1019.54,1213.38 1021.52,1214.32 1023.5,1215.22 1025.48,1216.1 1027.45,1216.95 1029.43,1217.77 1031.41,1218.56 1033.39,1219.33 1035.37,1220.06 1037.35,1220.77 1039.32,1221.44 1041.3,1222.09 1043.28,1222.7 1045.26,1223.29 1047.24,1223.87 1049.21,1224.43 1051.19,1224.99 1053.17,1225.53 1055.15,1226.06 1057.13,1226.58 1059.1,1227.09 1061.08,1227.59 1063.06,1228.07 1065.04,1228.54 1067.02,1229 1068.99,1229.45 1070.97,1229.88 1072.95,1230.31 1074.93,1230.72 1076.91,1231.12 1078.88,1231.51 1080.86,1231.89 1082.84,1232.25 1084.82,1232.61 1086.8,1232.95 1088.77,1233.28 1090.75,1233.61 1092.73,1233.93 1094.71,1234.24 1096.69,1234.55 1098.67,1234.85 1100.64,1235.15 1102.62,1235.44 1104.6,1235.72 1106.58,1235.99 1108.56,1236.26 1110.53,1236.52 1112.51,1183.99 1114.49,1137.11 1116.47,1095.15 1118.45,1056.75 1120.42,1021.66 1122.4,989.805 1124.38,960.982 1126.36,934.572 1128.34,910.573 1130.31,889.045 1132.29,869.796 1134.27,852.311 1136.25,836.587 1138.23,822.626 1140.2,810.427 1142.18,800.136 1144.16,791.265 1146.14,783.644 1148.12,777.272 1150.09,772.149 1152.07,768.275 1154.05,765.651 1156.03,764.276 1158.01,764.26 1159.98,765.061 1161.96,766.669 1163.94,769.082 1165.92,772.301 1167.9,776.325 1169.88,781.156 1171.85,786.804 1173.83,793.433 1175.81,800.382 1177.79,807.653 1179.77,815.243 1181.74,823.154 1183.72,831.385 1185.7,839.937 1187.68,848.81 1189.66,858.002 1191.63,867.516 1193.61,877.478 1195.59,887.454 1197.57,897.34 1199.55,907.136 1201.52,916.841 1203.5,926.455 1205.48,935.979 1207.46,945.412 1209.44,954.754 1211.41,964.007 1213.39,973.168 1215.37,982.239 1217.35,991.253 1219.33,1000.05 1221.3,1008.61 1223.28,1016.94 1225.26,1025.04 1227.24,1032.91 1229.22,1040.54 1231.2,1047.95 1233.17,1055.12 1235.15,1062.05 1237.13,1068.76 1239.11,1075.23 1241.09,1081.47 1243.06,1087.47 1245.04,1093.25 1247.02,1098.85 1249,1104.27 1250.98,1109.51 1252.95,1114.56 1254.93,1119.44 1256.91,1124.13 1258.89,1128.64 1260.87,1132.98 1262.84,1137.13 1264.82,1141.1 1266.8,1144.88 1268.78,1148.49 1270.76,1151.92 1272.73,1155.12 1274.71,1158.23 1276.69,1161.25 1278.67,1164.16 1280.65,1166.98 1282.62,1169.7 1284.6,1172.33 1286.58,1174.86 1288.56,1177.29 1290.54,1179.63 1292.52,1181.87 1294.49,1184.01 1296.47,1186.05 1298.45,1188 1300.43,1189.85 1302.41,1191.6 1304.38,1193.24 1306.36,1194.8 1308.34,1196.32 1310.32,1197.8 1312.3,1199.23 1314.27,1200.62 1316.25,1201.97 1318.23,1203.28 1320.21,1204.54 1322.19,1205.77 1324.16,1206.95 1326.14,1208.09 1328.12,1209.19 1330.1,1210.24 1332.08,1211.26 1334.05,1212.23 1336.03,1213.16 1338.01,1214.05 1339.99,1214.89 1341.97,1215.68 1343.94,1216.46 1345.92,1217.22 1347.9,1217.96 1349.88,1218.69 1351.86,1219.4 1353.83,1220.09 1355.81,1220.77 1357.79,1221.42 1359.77,1222.07 1361.75,1222.69 1363.73,1223.3 1365.7,1223.89 1367.68,1224.46 1369.66,1225.02 1371.64,1225.56 1373.62,1226.08 1375.59,1226.58 1377.57,1227.07 1379.55,1227.54 1381.53,1227.99 1383.51,1228.43 1385.48,1228.86 1387.46,1229.28 1389.44,1229.69 1391.42,1230.1 1393.4,1230.49 1395.37,1230.88 1397.35,1231.27 1399.33,1231.64 1401.31,1232.01 1403.29,1232.36 1405.26,1232.71 1407.24,1233.06 1409.22,1233.39 1411.2,1233.72 1413.18,1234.04 1415.15,1234.35 1417.13,1234.65 1419.11,1234.95 1421.09,1235.23 1423.07,1180.61 1425.05,1131.95 1427.02,1088.29 1429,1048.36 1430.98,1011.87 1432.96,978.578 1434.94,948.544 1436.91,921.109 1438.89,896.051 1440.87,873.37 1442.85,853.217 1444.83,835.047 1446.8,818.587 1448.78,803.835 1450.76,790.793 1452.74,779.461 1454.72,769.9 1456.69,762.034 1458.67,755.38 1460.65,749.94 1462.63,745.714 1464.61,742.7 1466.58,740.9 1468.56,740.313 1470.54,741.053 1472.52,742.837 1474.5,745.374 1476.47,748.665 1478.45,752.708 1480.43,757.505 1482.41,763.055 1484.39,769.358 1486.37,776.414 1488.34,784.433 1490.32,792.743 1492.3,801.293 1494.28,810.083 1496.26,819.112 1498.23,828.382 1500.21,837.891 1502.19,847.64 1504.17,857.629 1506.15,867.857 1508.12,878.414 1510.1,889.123 1512.08,899.677 1514.06,910.075 1516.04,920.317 1518.01,930.403 1519.99,940.334 1521.97,950.11 1523.95,959.729 1525.93,969.193 1527.9,978.501 1529.88,987.654 1531.86,996.651 1533.84,1005.51 1535.82,1014.14 1537.79,1022.52 1539.77,1030.65 1541.75,1038.53 1543.73,1046.17 1545.71,1053.55 1547.68,1060.69 1549.66,1067.58 1551.64,1074.23 1553.62,1080.62 1555.6,1086.77 1557.58,1092.67 1559.55,1098.3 1561.53,1103.71 1563.51,1108.96 1565.49,1114.03 1567.47,1118.92 1569.44,1123.65 1571.42,1128.2 1573.4,1132.57 1575.38,1136.78 1577.36,1140.81 1579.33,1144.66 1581.31,1148.35 1583.29,1151.86 1585.27,1155.19 1587.25,1158.36 1589.22,1161.32 1591.2,1164.15 1593.18,1166.9 1595.16,1169.56 1597.14,1172.14 1599.11,1174.62 1601.09,1177.02 1603.07,1179.34 1605.05,1181.56 1607.03,1183.7 1609,1185.75 1610.98,1187.72 1612.96,1189.6 1614.94,1191.39 1616.92,1193.09 1618.9,1194.71 1620.87,1196.24 1622.85,1197.66 1624.83,1199.04 1626.81,1200.39 1628.79,1201.7 1630.76,1202.97 1632.74,1204.21 1634.72,1205.41 1636.7,1206.57 1638.68,1207.7 1640.65,1208.79 1642.63,1209.85 1644.61,1210.87 1646.59,1211.85 1648.57,1212.79 1650.54,1213.7 1652.52,1214.57 1654.5,1215.41 1656.48,1216.21 1658.46,1216.97 1660.43,1217.69 1662.41,1218.39 1664.39,1219.08 1666.37,1219.76 1668.35,1220.42 1670.32,1221.06 1672.3,1221.7 1674.28,1222.31 1676.26,1222.91 1678.24,1223.5 1680.22,1224.07 1682.19,1224.63 1684.17,1225.17 1686.15,1225.7 1688.13,1226.22 1690.11,1226.71 1692.08,1227.2 1694.06,1227.67 1696.04,1228.12 1698.02,1228.56 1700,1228.98 1701.97,1229.39 1703.95,1229.8 1705.93,1230.19 1707.91,1230.58 1709.89,1230.96 1711.86,1231.34 1713.84,1231.7 1715.82,1232.06 1717.8,1232.41 1719.78,1232.76 1721.75,1233.09 1723.73,1233.42 1725.71,1233.74 1727.69,1234.06 1729.67,1234.36 1731.64,1234.66 1733.62,1179.1 1735.6,1129.65 1737.58,1085.21 1739.56,1044.59 1741.53,1007.42 1743.51,973.607 1745.49,943.047 1747.47,914.997 1749.45,889.456 1751.43,866.49 1753.4,845.913 1755.38,827.167 1757.36,810.252 1759.34,795.168 1761.32,781.914 1763.29,770.618 1765.27,760.918 1767.25,752.538 1769.23,745.477 1771.21,739.735 1773.18,735.313 1775.16,732.21 1777.14,730.426 1779.12,730.098 1781.1,730.676 1783.07,732.126 1785.05,734.448 1787.03,737.642 1789.01,741.707 1790.99,746.645 1792.96,752.454 1794.94,759.337 1796.92,766.708 1798.9,774.437 1800.88,782.524 1802.85,790.97 1804.83,799.774 1806.81,808.936 1808.79,818.457 1810.77,828.336 1812.75,838.573 1814.72,849.327 1816.7,860.148 1818.68,870.872 1820.66,881.498 1822.64,892.026 1824.61,902.457 1826.59,912.79 1828.57,923.025 1830.55,933.162 1832.53,943.202 1834.5,953.143 1836.48,962.987 1838.46,972.77 1840.44,982.352 1842.42,991.678 1844.39,1000.75 1846.37,1009.56 1848.35,1018.11 1850.33,1026.41 1852.31,1034.45 1854.28,1042.23 1856.26,1049.76 1858.24,1057.03 1860.22,1064.04 1862.2,1070.79 1864.17,1077.28 1866.15,1083.53 1868.13,1089.59 1870.11,1095.44 1872.09,1101.1 1874.07,1106.55 1876.04,1111.8 1878.02,1116.86 1880,1121.71 1881.98,1126.36 1883.96,1130.81 1885.93,1135.06 1887.91,1139.11 1889.89,1142.96 1891.87,1146.6 1893.85,1150.03 1895.82,1153.36 1897.8,1156.58 1899.78,1159.69 1901.76,1162.69 1903.74,1165.59 1905.71,1168.38 1907.69,1171.07 1909.67,1173.65 1911.65,1176.12 1913.63,1178.48 1915.6,1180.74 1917.58,1182.89 1919.56,1184.93 1921.54,1186.87 1923.52,1188.69 1925.49,1190.4 1927.47,1192.05 1929.45,1193.66 1931.43,1195.22 1933.41,1196.74 1935.38,1198.21 1937.36,1199.63 1939.34,1201.01 1941.32,1202.34 1943.3,1203.63 1945.28,1204.87 1947.25,1206.06 1949.23,1207.21 1951.21,1208.31 1953.19,1209.37 1955.17,1210.38 1957.14,1211.34 1959.12,1212.26 1961.1,1213.11 1963.08,1213.95 1965.06,1214.77 1967.03,1215.57 1969.01,1216.35 1970.99,1217.11 1972.97,1217.86 1974.95,1218.58 1976.92,1219.29 1978.9,1219.98 1980.88,1220.65 1982.86,1221.3 1984.84,1221.94 1986.81,1222.55 1988.79,1223.15 1990.77,1223.73 1992.75,1224.29 1994.73,1224.83 1996.7,1225.35 1998.68,1225.86 2000.66,1226.34 2002.64,1226.8 2004.62,1227.26 2006.6,1227.72 2008.57,1228.16 2010.55,1228.6 2012.53,1229.02 2014.51,1229.44 2016.49,1229.85 2018.46,1230.25 2020.44,1230.65 2022.42,1231.04 2024.4,1231.41 2026.38,1231.78 2028.35,1232.14 2030.33,1232.5 2032.31,1232.84 2034.29,1233.18 2036.27,1233.51 2038.24,1233.83 2040.22,1234.14 2042.2,1234.44 2044.18,1234.74 2046.16,1235.02 2048.13,1235.3 2050.11,1235.58 2052.09,1235.85 2054.07,1236.12 2056.05,1236.38 2058.02,1236.64 2060,1236.89 2061.98,1237.14 2063.96,1237.38 2065.94,1237.62 2067.92,1237.86 2069.89,1238.09 2071.87,1238.31 2073.85,1238.54 2075.83,1238.76 2077.81,1238.97 2079.78,1239.18 2081.76,1239.38 2083.74,1239.58 2085.72,1239.78 2087.7,1239.97 2089.67,1240.16 2091.65,1240.34 2093.63,1240.52 2095.61,1240.69 2097.59,1240.86 2099.56,1241.02 2101.54,1241.19 2103.52,1241.35 2105.5,1241.5 2107.48,1241.66 2109.45,1241.81 2111.43,1241.96 2113.41,1242.11 2115.39,1242.25 2117.37,1242.39 2119.34,1242.53 2121.32,1242.67 2123.3,1242.8 2125.28,1242.93 2127.26,1243.06 2129.23,1243.19 2131.21,1243.31 2133.19,1243.44 2135.17,1243.56 2137.15,1243.67 2139.13,1243.79 2141.1,1243.9 2143.08,1244.01 2145.06,1244.11 2147.04,1244.22 2149.02,1244.32 2150.99,1244.42 2152.97,1244.51 2154.95,1244.61 2156.93,1244.7 2158.91,1244.78 2160.88,1244.87 2162.86,1244.96 2164.84,1245.04 2166.82,1245.12 2168.8,1245.21 2170.77,1245.29 2172.75,1245.37 2174.73,1245.44 2176.71,1245.52 2178.69,1245.59 2180.66,1245.67 2182.64,1245.74 2184.62,1245.81 2186.6,1245.88 2188.58,1245.95 2190.55,1246.02 2192.53,1246.08 2194.51,1246.15 2196.49,1246.21 2198.47,1246.27 2200.45,1246.33 2202.42,1246.39 2204.4,1246.45 2206.38,1246.51 2208.36,1246.56 2210.34,1246.61 2212.31,1246.67 2214.29,1246.72 2216.27,1246.77 2218.25,1246.82 2220.23,1246.86 2222.2,1246.91 2224.18,1246.95 2226.16,1247 2228.14,1247.04 2230.12,1247.08 2232.09,1247.12 2234.07,1247.16 2236.05,1247.19 2238.03,1247.23 2240.01,1247.27 2241.98,1247.31 2243.96,1247.34 2245.94,1247.38 2247.92,1247.42 2249.9,1247.45 2251.87,1247.48 2253.85,1247.52 2255.83,1247.55 2257.81,1247.58 2259.79,1247.61 2261.77,1247.65 2263.74,1247.68 2265.72,1247.71 2267.7,1247.74 2269.68,1247.76 2271.66,1247.79 2273.63,1247.82 2275.61,1247.85 2277.59,1247.87 2279.57,1247.9 2281.55,1247.93 2283.52,1247.95 2285.5,1247.98 2287.48,1248 2289.46,1248.02 2291.44,1248.04 2293.41,1248.07 2295.39,1248.09 2297.37,1248.11 2299.35,1248.13 2301.33,1248.15 2303.3,1248.17 2305.28,1248.19 2307.26,1248.2 2309.24,1248.22 2311.22,1248.24 2313.19,1248.25 2315.17,1248.27 2317.15,1248.29 2319.13,1248.3 2321.11,1248.32 2323.08,1248.33 2325.06,1248.35 2327.04,1248.36 2329.02,1248.37 2331,1248.39 2332.98,1248.4 2334.95,1248.41 2336.93,1248.43 2338.91,1248.44 2340.89,1248.45 2342.87,1248.46 2344.84,1248.48 2346.82,1248.49 2348.8,1248.5 2350.78,1248.51 2352.76,1248.52 "/>
<path clip-path="url(#clip390)" d="M1973.81 196.789 L2280.29 196.789 L2280.29 93.1086 L1973.81 93.1086  Z" fill="#ffffff" fill-rule="evenodd" fill-opacity="1"/>
<polyline clip-path="url(#clip390)" style="stroke:#000000; stroke-linecap:round; stroke-linejoin:round; stroke-width:4; stroke-opacity:1; fill:none" points="1973.81,196.789 2280.29,196.789 2280.29,93.1086 1973.81,93.1086 1973.81,196.789 "/>
<polyline clip-path="url(#clip390)" style="stroke:#009af9; stroke-linecap:round; stroke-linejoin:round; stroke-width:4; stroke-opacity:1; fill:none" points="1997.96,144.949 2142.89,144.949 "/>
<path clip-path="url(#clip390)" d="M2167.04 151.997 L2167.04 136.303 L2171.3 136.303 L2171.3 151.835 Q2171.3 155.516 2172.74 157.368 Q2174.17 159.196 2177.04 159.196 Q2180.49 159.196 2182.48 156.997 Q2184.5 154.798 2184.5 151.002 L2184.5 136.303 L2188.75 136.303 L2188.75 162.229 L2184.5 162.229 L2184.5 158.247 Q2182.94 160.608 2180.88 161.766 Q2178.85 162.9 2176.14 162.9 Q2171.67 162.9 2169.36 160.122 Q2167.04 157.344 2167.04 151.997 M2177.76 135.678 L2177.76 135.678 Z" fill="#000000" fill-rule="nonzero" fill-opacity="1" /><path clip-path="url(#clip390)" d="M2197.13 126.21 L2206.95 126.21 L2206.95 129.52 L2201.39 129.52 L2201.39 165.168 L2206.95 165.168 L2206.95 168.479 L2197.13 168.479 L2197.13 126.21 Z" fill="#000000" fill-rule="nonzero" fill-opacity="1" /><path clip-path="url(#clip390)" d="M2217.44 158.293 L2225.07 158.293 L2225.07 131.928 L2216.76 133.595 L2216.76 129.335 L2225.03 127.669 L2229.7 127.669 L2229.7 158.293 L2237.34 158.293 L2237.34 162.229 L2217.44 162.229 L2217.44 158.293 Z" fill="#000000" fill-rule="nonzero" fill-opacity="1" /><path clip-path="url(#clip390)" d="M2256.14 126.21 L2256.14 168.479 L2246.32 168.479 L2246.32 165.168 L2251.86 165.168 L2251.86 129.52 L2246.32 129.52 L2246.32 126.21 L2256.14 126.21 Z" fill="#000000" fill-rule="nonzero" fill-opacity="1" /></svg>
