<?xml version="1.0" encoding="utf-8"?>
<svg xmlns="http://www.w3.org/2000/svg" xmlns:xlink="http://www.w3.org/1999/xlink" width="600" height="400" viewBox="0 0 2400 1600">
<defs>
  <clipPath id="clip360">
    <rect x="0" y="0" width="2400" height="1600"/>
  </clipPath>
</defs>
<path clip-path="url(#clip360)" d="M0 1600 L2400 1600 L2400 0 L0 0  Z" fill="#ffffff" fill-rule="evenodd" fill-opacity="1"/>
<defs>
  <clipPath id="clip361">
    <rect x="178" y="47" width="2175" height="1377"/>
  </clipPath>
</defs>
<path clip-path="url(#clip360)" d="M178.867 1423.18 L2352.76 1423.18 L2352.76 47.2441 L178.867 47.2441  Z" fill="#ffffff" fill-rule="evenodd" fill-opacity="1"/>
<polyline clip-path="url(#clip361)" style="stroke:#000000; stroke-linecap:round; stroke-linejoin:round; stroke-width:2; stroke-opacity:0.1; fill:none" points="178.867,1423.18 178.867,47.2441 "/>
<polyline clip-path="url(#clip361)" style="stroke:#000000; stroke-linecap:round; stroke-linejoin:round; stroke-width:2; stroke-opacity:0.1; fill:none" points="722.339,1423.18 722.339,47.2441 "/>
<polyline clip-path="url(#clip361)" style="stroke:#000000; stroke-linecap:round; stroke-linejoin:round; stroke-width:2; stroke-opacity:0.1; fill:none" points="1265.81,1423.18 1265.81,47.2441 "/>
<polyline clip-path="url(#clip361)" style="stroke:#000000; stroke-linecap:round; stroke-linejoin:round; stroke-width:2; stroke-opacity:0.1; fill:none" points="1809.28,1423.18 1809.28,47.2441 "/>
<polyline clip-path="url(#clip361)" style="stroke:#000000; stroke-linecap:round; stroke-linejoin:round; stroke-width:2; stroke-opacity:0.1; fill:none" points="2352.76,1423.18 2352.76,47.2441 "/>
<polyline clip-path="url(#clip361)" style="stroke:#000000; stroke-linecap:round; stroke-linejoin:round; stroke-width:2; stroke-opacity:0.1; fill:none" points="178.867,1321.88 2352.76,1321.88 "/>
<polyline clip-path="url(#clip361)" style="stroke:#000000; stroke-linecap:round; stroke-linejoin:round; stroke-width:2; stroke-opacity:0.1; fill:none" points="178.867,1006.81 2352.76,1006.81 "/>
<polyline clip-path="url(#clip361)" style="stroke:#000000; stroke-linecap:round; stroke-linejoin:round; stroke-width:2; stroke-opacity:0.1; fill:none" points="178.867,691.742 2352.76,691.742 "/>
<polyline clip-path="url(#clip361)" style="stroke:#000000; stroke-linecap:round; stroke-linejoin:round; stroke-width:2; stroke-opacity:0.1; fill:none" points="178.867,376.672 2352.76,376.672 "/>
<polyline clip-path="url(#clip361)" style="stroke:#000000; stroke-linecap:round; stroke-linejoin:round; stroke-width:2; stroke-opacity:0.1; fill:none" points="178.867,61.6015 2352.76,61.6015 "/>
<polyline clip-path="url(#clip360)" style="stroke:#000000; stroke-linecap:round; stroke-linejoin:round; stroke-width:4; stroke-opacity:1; fill:none" points="178.867,1423.18 2352.76,1423.18 "/>
<polyline clip-path="url(#clip360)" style="stroke:#000000; stroke-linecap:round; stroke-linejoin:round; stroke-width:4; stroke-opacity:1; fill:none" points="178.867,1423.18 178.867,1404.28 "/>
<polyline clip-path="url(#clip360)" style="stroke:#000000; stroke-linecap:round; stroke-linejoin:round; stroke-width:4; stroke-opacity:1; fill:none" points="722.339,1423.18 722.339,1404.28 "/>
<polyline clip-path="url(#clip360)" style="stroke:#000000; stroke-linecap:round; stroke-linejoin:round; stroke-width:4; stroke-opacity:1; fill:none" points="1265.81,1423.18 1265.81,1404.28 "/>
<polyline clip-path="url(#clip360)" style="stroke:#000000; stroke-linecap:round; stroke-linejoin:round; stroke-width:4; stroke-opacity:1; fill:none" points="1809.28,1423.18 1809.28,1404.28 "/>
<polyline clip-path="url(#clip360)" style="stroke:#000000; stroke-linecap:round; stroke-linejoin:round; stroke-width:4; stroke-opacity:1; fill:none" points="2352.76,1423.18 2352.76,1404.28 "/>
<path clip-path="url(#clip360)" d="M178.867 1454.1 Q175.256 1454.1 173.427 1457.66 Q171.621 1461.2 171.621 1468.33 Q171.621 1475.44 173.427 1479.01 Q175.256 1482.55 178.867 1482.55 Q182.501 1482.55 184.306 1479.01 Q186.135 1475.44 186.135 1468.33 Q186.135 1461.2 184.306 1457.66 Q182.501 1454.1 178.867 1454.1 M178.867 1450.39 Q184.677 1450.39 187.732 1455 Q190.811 1459.58 190.811 1468.33 Q190.811 1477.06 187.732 1481.67 Q184.677 1486.25 178.867 1486.25 Q173.056 1486.25 169.978 1481.67 Q166.922 1477.06 166.922 1468.33 Q166.922 1459.58 169.978 1455 Q173.056 1450.39 178.867 1450.39 Z" fill="#000000" fill-rule="nonzero" fill-opacity="1" /><path clip-path="url(#clip360)" d="M697.038 1451.02 L715.395 1451.02 L715.395 1454.96 L701.321 1454.96 L701.321 1463.43 Q702.339 1463.08 703.358 1462.92 Q704.376 1462.73 705.395 1462.73 Q711.182 1462.73 714.561 1465.9 Q717.941 1469.08 717.941 1474.49 Q717.941 1480.07 714.469 1483.17 Q710.996 1486.25 704.677 1486.25 Q702.501 1486.25 700.233 1485.88 Q697.987 1485.51 695.58 1484.77 L695.58 1480.07 Q697.663 1481.2 699.885 1481.76 Q702.108 1482.32 704.584 1482.32 Q708.589 1482.32 710.927 1480.21 Q713.265 1478.1 713.265 1474.49 Q713.265 1470.88 710.927 1468.77 Q708.589 1466.67 704.584 1466.67 Q702.709 1466.67 700.834 1467.08 Q698.983 1467.5 697.038 1468.38 L697.038 1451.02 Z" fill="#000000" fill-rule="nonzero" fill-opacity="1" /><path clip-path="url(#clip360)" d="M737.154 1454.1 Q733.543 1454.1 731.714 1457.66 Q729.908 1461.2 729.908 1468.33 Q729.908 1475.44 731.714 1479.01 Q733.543 1482.55 737.154 1482.55 Q740.788 1482.55 742.593 1479.01 Q744.422 1475.44 744.422 1468.33 Q744.422 1461.2 742.593 1457.66 Q740.788 1454.1 737.154 1454.1 M737.154 1450.39 Q742.964 1450.39 746.019 1455 Q749.098 1459.58 749.098 1468.33 Q749.098 1477.06 746.019 1481.67 Q742.964 1486.25 737.154 1486.25 Q731.344 1486.25 728.265 1481.67 Q725.209 1477.06 725.209 1468.33 Q725.209 1459.58 728.265 1455 Q731.344 1450.39 737.154 1450.39 Z" fill="#000000" fill-rule="nonzero" fill-opacity="1" /><path clip-path="url(#clip360)" d="M1225.42 1481.64 L1233.06 1481.64 L1233.06 1455.28 L1224.75 1456.95 L1224.75 1452.69 L1233.01 1451.02 L1237.69 1451.02 L1237.69 1481.64 L1245.33 1481.64 L1245.33 1485.58 L1225.42 1485.58 L1225.42 1481.64 Z" fill="#000000" fill-rule="nonzero" fill-opacity="1" /><path clip-path="url(#clip360)" d="M1264.77 1454.1 Q1261.16 1454.1 1259.33 1457.66 Q1257.52 1461.2 1257.52 1468.33 Q1257.52 1475.44 1259.33 1479.01 Q1261.16 1482.55 1264.77 1482.55 Q1268.4 1482.55 1270.21 1479.01 Q1272.04 1475.44 1272.04 1468.33 Q1272.04 1461.2 1270.21 1457.66 Q1268.4 1454.1 1264.77 1454.1 M1264.77 1450.39 Q1270.58 1450.39 1273.64 1455 Q1276.71 1459.58 1276.71 1468.33 Q1276.71 1477.06 1273.64 1481.67 Q1270.58 1486.25 1264.77 1486.25 Q1258.96 1486.25 1255.88 1481.67 Q1252.83 1477.06 1252.83 1468.33 Q1252.83 1459.58 1255.88 1455 Q1258.96 1450.39 1264.77 1450.39 Z" fill="#000000" fill-rule="nonzero" fill-opacity="1" /><path clip-path="url(#clip360)" d="M1294.93 1454.1 Q1291.32 1454.1 1289.49 1457.66 Q1287.69 1461.2 1287.69 1468.33 Q1287.69 1475.44 1289.49 1479.01 Q1291.32 1482.55 1294.93 1482.55 Q1298.57 1482.55 1300.37 1479.01 Q1302.2 1475.44 1302.2 1468.33 Q1302.2 1461.2 1300.37 1457.66 Q1298.57 1454.1 1294.93 1454.1 M1294.93 1450.39 Q1300.74 1450.39 1303.8 1455 Q1306.88 1459.58 1306.88 1468.33 Q1306.88 1477.06 1303.8 1481.67 Q1300.74 1486.25 1294.93 1486.25 Q1289.12 1486.25 1286.04 1481.67 Q1282.99 1477.06 1282.99 1468.33 Q1282.99 1459.58 1286.04 1455 Q1289.12 1450.39 1294.93 1450.39 Z" fill="#000000" fill-rule="nonzero" fill-opacity="1" /><path clip-path="url(#clip360)" d="M1768.89 1481.64 L1776.53 1481.64 L1776.53 1455.28 L1768.22 1456.95 L1768.22 1452.69 L1776.48 1451.02 L1781.16 1451.02 L1781.16 1481.64 L1788.8 1481.64 L1788.8 1485.58 L1768.89 1485.58 L1768.89 1481.64 Z" fill="#000000" fill-rule="nonzero" fill-opacity="1" /><path clip-path="url(#clip360)" d="M1798.29 1451.02 L1816.64 1451.02 L1816.64 1454.96 L1802.57 1454.96 L1802.57 1463.43 Q1803.59 1463.08 1804.61 1462.92 Q1805.63 1462.73 1806.64 1462.73 Q1812.43 1462.73 1815.81 1465.9 Q1819.19 1469.08 1819.19 1474.49 Q1819.19 1480.07 1815.72 1483.17 Q1812.25 1486.25 1805.93 1486.25 Q1803.75 1486.25 1801.48 1485.88 Q1799.24 1485.51 1796.83 1484.77 L1796.83 1480.07 Q1798.91 1481.2 1801.14 1481.76 Q1803.36 1482.32 1805.83 1482.32 Q1809.84 1482.32 1812.18 1480.21 Q1814.52 1478.1 1814.52 1474.49 Q1814.52 1470.88 1812.18 1468.77 Q1809.84 1466.67 1805.83 1466.67 Q1803.96 1466.67 1802.08 1467.08 Q1800.23 1467.5 1798.29 1468.38 L1798.29 1451.02 Z" fill="#000000" fill-rule="nonzero" fill-opacity="1" /><path clip-path="url(#clip360)" d="M1838.4 1454.1 Q1834.79 1454.1 1832.96 1457.66 Q1831.16 1461.2 1831.16 1468.33 Q1831.16 1475.44 1832.96 1479.01 Q1834.79 1482.55 1838.4 1482.55 Q1842.04 1482.55 1843.84 1479.01 Q1845.67 1475.44 1845.67 1468.33 Q1845.67 1461.2 1843.84 1457.66 Q1842.04 1454.1 1838.4 1454.1 M1838.4 1450.39 Q1844.21 1450.39 1847.27 1455 Q1850.35 1459.58 1850.35 1468.33 Q1850.35 1477.06 1847.27 1481.67 Q1844.21 1486.25 1838.4 1486.25 Q1832.59 1486.25 1829.51 1481.67 Q1826.46 1477.06 1826.46 1468.33 Q1826.46 1459.58 1829.51 1455 Q1832.59 1450.39 1838.4 1450.39 Z" fill="#000000" fill-rule="nonzero" fill-opacity="1" /><path clip-path="url(#clip360)" d="M2316.45 1481.64 L2332.77 1481.64 L2332.77 1485.58 L2310.82 1485.58 L2310.82 1481.64 Q2313.49 1478.89 2318.07 1474.26 Q2322.68 1469.61 2323.86 1468.27 Q2326.1 1465.74 2326.98 1464.01 Q2327.88 1462.25 2327.88 1460.56 Q2327.88 1457.8 2325.94 1456.07 Q2324.02 1454.33 2320.92 1454.33 Q2318.72 1454.33 2316.26 1455.09 Q2313.83 1455.86 2311.05 1457.41 L2311.05 1452.69 Q2313.88 1451.55 2316.33 1450.97 Q2318.79 1450.39 2320.82 1450.39 Q2326.19 1450.39 2329.39 1453.08 Q2332.58 1455.77 2332.58 1460.26 Q2332.58 1462.39 2331.77 1464.31 Q2330.99 1466.2 2328.88 1468.8 Q2328.3 1469.47 2325.2 1472.69 Q2322.1 1475.88 2316.45 1481.64 Z" fill="#000000" fill-rule="nonzero" fill-opacity="1" /><path clip-path="url(#clip360)" d="M2352.58 1454.1 Q2348.97 1454.1 2347.14 1457.66 Q2345.34 1461.2 2345.34 1468.33 Q2345.34 1475.44 2347.14 1479.01 Q2348.97 1482.55 2352.58 1482.55 Q2356.22 1482.55 2358.02 1479.01 Q2359.85 1475.44 2359.85 1468.33 Q2359.85 1461.2 2358.02 1457.66 Q2356.22 1454.1 2352.58 1454.1 M2352.58 1450.39 Q2358.39 1450.39 2361.45 1455 Q2364.53 1459.58 2364.53 1468.33 Q2364.53 1477.06 2361.45 1481.67 Q2358.39 1486.25 2352.58 1486.25 Q2346.77 1486.25 2343.69 1481.67 Q2340.64 1477.06 2340.64 1468.33 Q2340.64 1459.58 2343.69 1455 Q2346.77 1450.39 2352.58 1450.39 Z" fill="#000000" fill-rule="nonzero" fill-opacity="1" /><path clip-path="url(#clip360)" d="M2382.74 1454.1 Q2379.13 1454.1 2377.3 1457.66 Q2375.5 1461.2 2375.5 1468.33 Q2375.5 1475.44 2377.3 1479.01 Q2379.13 1482.55 2382.74 1482.55 Q2386.38 1482.55 2388.18 1479.01 Q2390.01 1475.44 2390.01 1468.33 Q2390.01 1461.2 2388.18 1457.66 Q2386.38 1454.1 2382.74 1454.1 M2382.74 1450.39 Q2388.55 1450.39 2391.61 1455 Q2394.69 1459.58 2394.69 1468.33 Q2394.69 1477.06 2391.61 1481.67 Q2388.55 1486.25 2382.74 1486.25 Q2376.93 1486.25 2373.86 1481.67 Q2370.8 1477.06 2370.8 1468.33 Q2370.8 1459.58 2373.86 1455 Q2376.93 1450.39 2382.74 1450.39 Z" fill="#000000" fill-rule="nonzero" fill-opacity="1" /><path clip-path="url(#clip360)" d="M1264.87 1522.27 L1264.87 1532.4 L1276.94 1532.4 L1276.94 1536.95 L1264.87 1536.95 L1264.87 1556.3 Q1264.87 1560.66 1266.05 1561.9 Q1267.26 1563.14 1270.92 1563.14 L1276.94 1563.14 L1276.94 1568.04 L1270.92 1568.04 Q1264.14 1568.04 1261.56 1565.53 Q1258.98 1562.98 1258.98 1556.3 L1258.98 1536.95 L1254.69 1536.95 L1254.69 1532.4 L1258.98 1532.4 L1258.98 1522.27 L1264.87 1522.27 Z" fill="#000000" fill-rule="nonzero" fill-opacity="1" /><polyline clip-path="url(#clip360)" style="stroke:#000000; stroke-linecap:round; stroke-linejoin:round; stroke-width:4; stroke-opacity:1; fill:none" points="178.867,1423.18 178.867,47.2441 "/>
<polyline clip-path="url(#clip360)" style="stroke:#000000; stroke-linecap:round; stroke-linejoin:round; stroke-width:4; stroke-opacity:1; fill:none" points="178.867,1321.88 197.764,1321.88 "/>
<polyline clip-path="url(#clip360)" style="stroke:#000000; stroke-linecap:round; stroke-linejoin:round; stroke-width:4; stroke-opacity:1; fill:none" points="178.867,1006.81 197.764,1006.81 "/>
<polyline clip-path="url(#clip360)" style="stroke:#000000; stroke-linecap:round; stroke-linejoin:round; stroke-width:4; stroke-opacity:1; fill:none" points="178.867,691.742 197.764,691.742 "/>
<polyline clip-path="url(#clip360)" style="stroke:#000000; stroke-linecap:round; stroke-linejoin:round; stroke-width:4; stroke-opacity:1; fill:none" points="178.867,376.672 197.764,376.672 "/>
<polyline clip-path="url(#clip360)" style="stroke:#000000; stroke-linecap:round; stroke-linejoin:round; stroke-width:4; stroke-opacity:1; fill:none" points="178.867,61.6015 197.764,61.6015 "/>
<path clip-path="url(#clip360)" d="M50.9921 1322.33 L80.6679 1322.33 L80.6679 1326.27 L50.9921 1326.27 L50.9921 1322.33 Z" fill="#000000" fill-rule="nonzero" fill-opacity="1" /><path clip-path="url(#clip360)" d="M101.339 1320.02 Q98.1909 1320.02 96.3391 1322.17 Q94.5104 1324.32 94.5104 1328.07 Q94.5104 1331.8 96.3391 1333.98 Q98.1909 1336.13 101.339 1336.13 Q104.487 1336.13 106.316 1333.98 Q108.168 1331.8 108.168 1328.07 Q108.168 1324.32 106.316 1322.17 Q104.487 1320.02 101.339 1320.02 M110.621 1305.37 L110.621 1309.63 Q108.862 1308.79 107.057 1308.35 Q105.274 1307.91 103.515 1307.91 Q98.8854 1307.91 96.4317 1311.04 Q94.0012 1314.16 93.6539 1320.48 Q95.0197 1318.47 97.0798 1317.4 Q99.14 1316.32 101.617 1316.32 Q106.825 1316.32 109.834 1319.49 Q112.867 1322.63 112.867 1328.07 Q112.867 1333.4 109.719 1336.62 Q106.571 1339.83 101.339 1339.83 Q95.3437 1339.83 92.1725 1335.25 Q89.0012 1330.64 89.0012 1321.92 Q89.0012 1313.72 92.89 1308.86 Q96.7789 1303.98 103.33 1303.98 Q105.089 1303.98 106.871 1304.32 Q108.677 1304.67 110.621 1305.37 Z" fill="#000000" fill-rule="nonzero" fill-opacity="1" /><path clip-path="url(#clip360)" d="M130.922 1307.68 Q127.311 1307.68 125.482 1311.25 Q123.677 1314.79 123.677 1321.92 Q123.677 1329.02 125.482 1332.59 Q127.311 1336.13 130.922 1336.13 Q134.556 1336.13 136.362 1332.59 Q138.191 1329.02 138.191 1321.92 Q138.191 1314.79 136.362 1311.25 Q134.556 1307.68 130.922 1307.68 M130.922 1303.98 Q136.732 1303.98 139.788 1308.58 Q142.867 1313.17 142.867 1321.92 Q142.867 1330.64 139.788 1335.25 Q136.732 1339.83 130.922 1339.83 Q125.112 1339.83 122.033 1335.25 Q118.978 1330.64 118.978 1321.92 Q118.978 1313.17 122.033 1308.58 Q125.112 1303.98 130.922 1303.98 Z" fill="#000000" fill-rule="nonzero" fill-opacity="1" /><path clip-path="url(#clip360)" d="M50.9921 1007.26 L80.6679 1007.26 L80.6679 1011.2 L50.9921 1011.2 L50.9921 1007.26 Z" fill="#000000" fill-rule="nonzero" fill-opacity="1" /><path clip-path="url(#clip360)" d="M103.608 993.606 L91.8021 1012.06 L103.608 1012.06 L103.608 993.606 M102.381 989.532 L108.26 989.532 L108.26 1012.06 L113.191 1012.06 L113.191 1015.94 L108.26 1015.94 L108.26 1024.09 L103.608 1024.09 L103.608 1015.94 L88.0058 1015.94 L88.0058 1011.43 L102.381 989.532 Z" fill="#000000" fill-rule="nonzero" fill-opacity="1" /><path clip-path="url(#clip360)" d="M130.922 992.611 Q127.311 992.611 125.482 996.176 Q123.677 999.717 123.677 1006.85 Q123.677 1013.95 125.482 1017.52 Q127.311 1021.06 130.922 1021.06 Q134.556 1021.06 136.362 1017.52 Q138.191 1013.95 138.191 1006.85 Q138.191 999.717 136.362 996.176 Q134.556 992.611 130.922 992.611 M130.922 988.907 Q136.732 988.907 139.788 993.514 Q142.867 998.097 142.867 1006.85 Q142.867 1015.57 139.788 1020.18 Q136.732 1024.76 130.922 1024.76 Q125.112 1024.76 122.033 1020.18 Q118.978 1015.57 118.978 1006.85 Q118.978 998.097 122.033 993.514 Q125.112 988.907 130.922 988.907 Z" fill="#000000" fill-rule="nonzero" fill-opacity="1" /><path clip-path="url(#clip360)" d="M50.9921 692.193 L80.6679 692.193 L80.6679 696.129 L50.9921 696.129 L50.9921 692.193 Z" fill="#000000" fill-rule="nonzero" fill-opacity="1" /><path clip-path="url(#clip360)" d="M94.7882 705.087 L111.108 705.087 L111.108 709.022 L89.1632 709.022 L89.1632 705.087 Q91.8252 702.332 96.4085 697.703 Q101.015 693.05 102.196 691.707 Q104.441 689.184 105.321 687.448 Q106.223 685.689 106.223 683.999 Q106.223 681.244 104.279 679.508 Q102.358 677.772 99.2558 677.772 Q97.0567 677.772 94.603 678.536 Q92.1725 679.3 89.3947 680.851 L89.3947 676.129 Q92.2188 674.994 94.6724 674.416 Q97.1261 673.837 99.1632 673.837 Q104.534 673.837 107.728 676.522 Q110.922 679.207 110.922 683.698 Q110.922 685.828 110.112 687.749 Q109.325 689.647 107.219 692.24 Q106.64 692.911 103.538 696.129 Q100.436 699.323 94.7882 705.087 Z" fill="#000000" fill-rule="nonzero" fill-opacity="1" /><path clip-path="url(#clip360)" d="M130.922 677.541 Q127.311 677.541 125.482 681.106 Q123.677 684.647 123.677 691.777 Q123.677 698.883 125.482 702.448 Q127.311 705.99 130.922 705.99 Q134.556 705.99 136.362 702.448 Q138.191 698.883 138.191 691.777 Q138.191 684.647 136.362 681.106 Q134.556 677.541 130.922 677.541 M130.922 673.837 Q136.732 673.837 139.788 678.444 Q142.867 683.027 142.867 691.777 Q142.867 700.504 139.788 705.11 Q136.732 709.693 130.922 709.693 Q125.112 709.693 122.033 705.11 Q118.978 700.504 118.978 691.777 Q118.978 683.027 122.033 678.444 Q125.112 673.837 130.922 673.837 Z" fill="#000000" fill-rule="nonzero" fill-opacity="1" /><path clip-path="url(#clip360)" d="M130.922 362.47 Q127.311 362.47 125.482 366.035 Q123.677 369.577 123.677 376.707 Q123.677 383.813 125.482 387.378 Q127.311 390.919 130.922 390.919 Q134.556 390.919 136.362 387.378 Q138.191 383.813 138.191 376.707 Q138.191 369.577 136.362 366.035 Q134.556 362.47 130.922 362.47 M130.922 358.767 Q136.732 358.767 139.788 363.373 Q142.867 367.957 142.867 376.707 Q142.867 385.433 139.788 390.04 Q136.732 394.623 130.922 394.623 Q125.112 394.623 122.033 390.04 Q118.978 385.433 118.978 376.707 Q118.978 367.957 122.033 363.373 Q125.112 358.767 130.922 358.767 Z" fill="#000000" fill-rule="nonzero" fill-opacity="1" /><path clip-path="url(#clip360)" d="M94.7882 74.9464 L111.108 74.9464 L111.108 78.8815 L89.1632 78.8815 L89.1632 74.9464 Q91.8252 72.1917 96.4085 67.5621 Q101.015 62.9094 102.196 61.5668 Q104.441 59.0437 105.321 57.3076 Q106.223 55.5483 106.223 53.8585 Q106.223 51.1039 104.279 49.3678 Q102.358 47.6317 99.2558 47.6317 Q97.0567 47.6317 94.603 48.3956 Q92.1725 49.1595 89.3947 50.7104 L89.3947 45.9882 Q92.2188 44.8539 94.6724 44.2752 Q97.1261 43.6965 99.1632 43.6965 Q104.534 43.6965 107.728 46.3817 Q110.922 49.0669 110.922 53.5576 Q110.922 55.6872 110.112 57.6085 Q109.325 59.5066 107.219 62.0992 Q106.64 62.7705 103.538 65.9881 Q100.436 69.1825 94.7882 74.9464 Z" fill="#000000" fill-rule="nonzero" fill-opacity="1" /><path clip-path="url(#clip360)" d="M130.922 47.4002 Q127.311 47.4002 125.482 50.965 Q123.677 54.5067 123.677 61.6362 Q123.677 68.7427 125.482 72.3075 Q127.311 75.8491 130.922 75.8491 Q134.556 75.8491 136.362 72.3075 Q138.191 68.7427 138.191 61.6362 Q138.191 54.5067 136.362 50.965 Q134.556 47.4002 130.922 47.4002 M130.922 43.6965 Q136.732 43.6965 139.788 48.303 Q142.867 52.8863 142.867 61.6362 Q142.867 70.3631 139.788 74.9695 Q136.732 79.5528 130.922 79.5528 Q125.112 79.5528 122.033 74.9695 Q118.978 70.3631 118.978 61.6362 Q118.978 52.8863 122.033 48.303 Q125.112 43.6965 130.922 43.6965 Z" fill="#000000" fill-rule="nonzero" fill-opacity="1" /><polyline clip-path="url(#clip361)" style="stroke:#009af9; stroke-linecap:round; stroke-linejoin:round; stroke-width:4; stroke-opacity:1; fill:none" points="178.867,1321.88 181.043,1323.04 183.219,1324.17 185.395,1325.29 187.571,1326.4 189.747,1327.51 191.923,1328.62 194.099,1329.73 196.275,1330.84 198.451,1331.94 200.627,1333.04 202.803,1334.14 204.979,1335.22 207.155,1336.3 209.332,1337.37 211.508,1338.43 213.684,1339.48 215.86,1340.51 218.036,1341.54 220.212,1342.55 222.388,1343.54 224.564,1344.52 226.74,1345.48 228.916,1346.43 231.092,1347.36 233.268,1348.28 235.444,1349.17 237.62,1350.05 239.796,1350.91 241.973,1351.75 244.149,1352.57 246.325,1353.37 248.501,1354.16 250.677,1354.93 252.853,1355.68 255.029,1356.4 257.205,1357.11 259.381,1357.8 261.557,1358.48 263.733,1359.13 265.909,1359.76 268.085,1360.38 270.261,1360.99 272.437,1361.57 274.614,1362.13 276.79,1362.68 278.966,1363.21 281.142,1363.73 283.318,1364.23 285.494,1364.71 287.67,1365.18 289.846,1365.63 292.022,1366.07 294.198,1366.49 296.374,1366.9 298.55,1367.29 300.726,1367.67 302.902,1368.04 305.078,1368.4 307.254,1368.74 309.431,1369.07 311.607,1369.39 313.783,1369.69 315.959,1369.99 318.135,1370.27 320.311,1370.54 322.487,1370.8 324.663,1371.06 326.839,1371.3 329.015,1371.53 331.191,1371.76 333.367,1371.97 335.543,1372.18 337.719,1372.37 339.895,1372.56 342.072,1372.74 344.248,1372.91 346.424,1373.07 348.6,1373.23 350.776,1373.38 352.952,1373.52 355.128,1373.65 357.304,1373.78 359.48,1373.9 361.656,1374.02 363.832,1374.13 366.008,1374.24 368.184,1374.34 370.36,1374.44 372.536,1374.53 374.713,1374.62 376.889,1374.71 379.065,1374.78 381.241,1374.86 383.417,1374.93 385.593,1374.99 387.769,1375.05 389.945,1375.1 392.121,1375.15 394.297,1375.19 396.473,1375.24 398.649,1375.28 400.825,1375.31 403.001,1375.35 405.177,1375.38 407.353,1375.41 409.53,1375.44 411.706,1375.46 413.882,1375.48 416.058,1375.5 418.234,1375.52 420.41,1375.53 422.586,1375.54 424.762,1375.55 426.938,1375.55 429.114,1375.55 431.29,1375.55 433.466,1375.55 435.642,1375.55 437.818,1375.55 439.994,1375.54 442.171,1375.54 444.347,1375.53 446.523,1375.53 448.699,1375.52 450.875,1375.51 453.051,1375.49 455.227,1375.48 457.403,1375.47 459.579,1375.45 461.755,1375.44 463.931,1375.42 466.107,1375.4 468.283,1375.38 470.459,1375.36 472.635,1375.34 474.812,1375.32 476.988,1375.29 479.164,1375.27 481.34,1375.24 483.516,1375.21 485.692,1375.18 487.868,1375.15 490.044,1375.12 492.22,1375.1 494.396,1375.07 496.572,1375.04 498.748,1375.01 500.924,1374.98 503.1,1374.94 505.276,1374.91 507.452,1374.88 509.629,1374.85 511.805,1374.82 513.981,1374.79 516.157,1374.75 518.333,1374.72 520.509,1374.69 522.685,1374.66 524.861,1374.62 527.037,1374.59 529.213,1374.55 531.389,1374.52 533.565,1374.48 535.741,1374.45 537.917,1374.41 540.093,1374.38 542.27,1374.34 544.446,1374.3 546.622,1374.27 548.798,1374.23 550.974,1374.2 553.15,1374.16 555.326,1374.13 557.502,1374.09 559.678,1374.05 561.854,1374.02 564.03,1373.98 566.206,1373.95 568.382,1373.91 570.558,1373.88 572.734,1373.84 574.911,1373.81 577.087,1373.77 579.263,1373.74 581.439,1373.7 583.615,1373.67 585.791,1373.64 587.967,1373.6 590.143,1373.57 592.319,1373.53 594.495,1373.5 596.671,1373.47 598.847,1373.43 601.023,1373.4 603.199,1373.36 605.375,1373.33 607.552,1373.3 609.728,1373.26 611.904,1373.23 614.08,1373.2 616.256,1373.17 618.432,1373.13 620.608,1373.1 622.784,1373.07 624.96,1373.03 627.136,1373 629.312,1372.97 631.488,1372.94 633.664,1372.91 635.84,1372.88 638.016,1372.84 640.192,1372.81 642.369,1372.78 644.545,1372.75 646.721,1372.72 648.897,1372.69 651.073,1372.66 653.249,1372.63 655.425,1372.6 657.601,1372.57 659.777,1372.55 661.953,1372.52 664.129,1372.49 666.305,1372.46 668.481,1372.43 670.657,1372.4 672.833,1372.38 675.01,1372.35 677.186,1372.32 679.362,1372.29 681.538,1372.27 683.714,1372.24 685.89,1372.21 688.066,1372.19 690.242,1372.16 692.418,1372.14 694.594,1372.11 696.77,1372.08 698.946,1372.06 701.122,1372.03 703.298,1372.01 705.474,1371.98 707.651,1371.96 709.827,1371.94 712.003,1371.91 714.179,1371.89 716.355,1371.86 718.531,1371.84 720.707,1371.82 722.883,1371.8 725.059,1371.77 727.235,1371.75 729.411,1371.73 731.587,1371.71 733.763,1371.69 735.939,1371.67 738.115,1371.64 740.291,1371.62 742.468,1371.6 744.644,1371.58 746.82,1371.56 748.996,1371.54 751.172,1371.52 753.348,1371.5 755.524,1371.48 757.7,1371.46 759.876,1371.44 762.052,1371.42 764.228,1371.41 766.404,1371.39 768.58,1371.37 770.756,1371.35 772.932,1371.33 775.109,1371.31 777.285,1371.3 779.461,1371.28 781.637,1371.26 783.813,1371.24 785.989,1371.22 788.165,1371.21 790.341,1371.19 792.517,1371.17 794.693,1371.16 796.869,1371.14 799.045,1371.13 801.221,1371.11 803.397,1371.09 805.573,1371.08 807.75,1371.06 809.926,1371.05 812.102,1371.03 814.278,1371.02 816.454,1371 818.63,1370.99 820.806,1370.97 822.982,1370.96 825.158,1370.94 827.334,1370.93 829.51,1370.92 831.686,1370.9 833.862,1370.89 836.038,1370.88 838.214,1370.86 840.39,1370.85 842.567,1370.84 844.743,1370.83 846.919,1370.81 849.095,1370.8 851.271,1370.79 853.447,1370.78 855.623,1370.77 857.799,1370.76 859.975,1370.74 862.151,1370.73 864.327,1370.72 866.503,1370.71 868.679,1370.7 870.855,1370.69 873.031,1370.68 875.208,1370.67 877.384,1370.66 879.56,1370.65 881.736,1370.64 883.912,1370.63 886.088,1370.62 888.264,1370.61 890.44,1370.6 892.616,1370.59 894.792,1370.58 896.968,1370.57 899.144,1370.57 901.32,1370.56 903.496,1370.55 905.672,1370.54 907.849,1370.53 910.025,1370.52 912.201,1370.51 914.377,1370.5 916.553,1370.5 918.729,1370.49 920.905,1370.48 923.081,1370.47 925.257,1370.46 927.433,1370.46 929.609,1370.45 931.785,1370.44 933.961,1370.43 936.137,1370.42 938.313,1370.42 940.49,1370.41 942.666,1370.4 944.842,1370.4 947.018,1370.39 949.194,1370.38 951.37,1370.37 953.546,1370.37 955.722,1370.36 957.898,1370.35 960.074,1370.35 962.25,1370.34 964.426,1370.34 966.602,1370.33 968.778,1370.32 970.954,1370.32 973.13,1370.31 975.307,1370.31 977.483,1370.3 979.659,1370.29 981.835,1370.29 984.011,1370.28 986.187,1370.28 988.363,1370.27 990.539,1370.27 992.715,1370.26 994.891,1370.26 997.067,1370.25 999.243,1370.25 1001.42,1370.24 1003.6,1370.24 1005.77,1370.24 1007.95,1370.23 1010.12,1370.23 1012.3,1370.22 1014.48,1370.22 1016.65,1370.21 1018.83,1370.21 1021,1370.21 1023.18,1370.2 1025.36,1370.2 1027.53,1370.2 1029.71,1370.19 1031.88,1370.19 1034.06,1370.19 1036.24,1370.18 1038.41,1370.18 1040.59,1370.18 1042.76,1370.17 1044.94,1370.17 1047.12,1370.17 1049.29,1370.16 1051.47,1370.16 1053.64,1370.16 1055.82,1370.16 1058,1370.15 1060.17,1370.15 1062.35,1370.15 1064.53,1370.14 1066.7,1370.14 1068.88,1370.14 1071.05,1370.14 1073.23,1370.13 1075.41,1370.13 1077.58,1370.13 1079.76,1370.12 1081.93,1370.12 1084.11,1370.12 1086.29,1370.12 1088.46,1370.11 1090.64,1370.11 1092.81,1370.11 1094.99,1370.11 1097.17,1370.1 1099.34,1370.1 1101.52,1370.1 1103.69,1370.1 1105.87,1370.09 1108.05,1370.09 1110.22,1370.09 1112.4,1370.09 1114.57,1370.09 1116.75,1370.08 1118.93,1370.08 1121.1,1370.08 1123.28,1370.08 1125.46,1370.08 1127.63,1370.07 1129.81,1370.07 1131.98,1370.07 1134.16,1370.07 1136.34,1370.07 1138.51,1370.06 1140.69,1370.06 1142.86,1370.06 1145.04,1370.06 1147.22,1370.06 1149.39,1370.05 1151.57,1370.05 1153.74,1370.05 1155.92,1370.05 1158.1,1370.05 1160.27,1370.05 1162.45,1370.05 1164.62,1370.04 1166.8,1370.04 1168.98,1370.04 1171.15,1370.04 1173.33,1370.04 1175.5,1370.04 1177.68,1370.04 1179.86,1370.03 1182.03,1370.03 1184.21,1370.03 1186.38,1370.03 1188.56,1370.03 1190.74,1370.03 1192.91,1370.03 1195.09,1370.03 1197.27,1370.03 1199.44,1370.02 1201.62,1370.02 1203.79,1370.02 1205.97,1370.02 1208.15,1370.02 1210.32,1370.02 1212.5,1370.02 1214.67,1370.02 1216.85,1370.02 1219.03,1370.02 1221.2,1370.02 1223.38,1370.02 1225.55,1370.01 1227.73,1370.01 1229.91,1370.01 1232.08,1370.01 1234.26,1370.01 1236.43,1370.01 1238.61,1370.01 1240.79,1370.01 1242.96,1370.01 1245.14,1370.01 1247.31,1370.01 1249.49,1370.01 1251.67,1370.01 1253.84,1370.01 1256.02,1370.01 1258.2,1370.01 1260.37,1370.01 1262.55,1370.01 1264.72,1370.01 1266.9,1370.01 1269.08,1368.81 1271.25,1367.35 1273.43,1365.94 1275.6,1364.6 1277.78,1363.3 1279.96,1362.05 1282.13,1360.83 1284.31,1359.65 1286.48,1358.51 1288.66,1357.41 1290.84,1356.34 1293.01,1355.29 1295.19,1354.29 1297.36,1353.31 1299.54,1352.36 1301.72,1351.43 1303.89,1350.53 1306.07,1349.65 1308.24,1348.79 1310.42,1347.95 1312.6,1347.14 1314.77,1346.35 1316.95,1345.58 1319.12,1344.83 1321.3,1344.1 1323.48,1343.38 1325.65,1342.68 1327.83,1342 1330.01,1341.33 1332.18,1340.68 1334.36,1340.04 1336.53,1339.43 1338.71,1338.82 1340.89,1338.23 1343.06,1337.65 1345.24,1337.08 1347.41,1336.53 1349.59,1335.99 1351.77,1335.46 1353.94,1334.94 1356.12,1334.44 1358.29,1333.95 1360.47,1333.47 1362.65,1333 1364.82,1332.54 1367,1332.1 1369.17,1331.66 1371.35,1331.23 1373.53,1330.81 1375.7,1330.4 1377.88,1330.01 1380.05,1329.62 1382.23,1329.24 1384.41,1328.88 1386.58,1328.52 1388.76,1328.17 1390.94,1327.84 1393.11,1327.51 1395.29,1327.19 1397.46,1326.88 1399.64,1326.58 1401.82,1326.29 1403.99,1326 1406.17,1325.73 1408.34,1325.47 1410.52,1325.21 1412.7,1324.97 1414.87,1324.73 1417.05,1324.51 1419.22,1324.29 1421.4,1324.09 1423.58,1323.89 1425.75,1323.7 1427.93,1323.52 1430.1,1323.35 1432.28,1323.2 1434.46,1323.05 1436.63,1322.91 1438.81,1322.77 1440.98,1322.65 1443.16,1322.54 1445.34,1322.44 1447.51,1322.35 1449.69,1322.27 1451.86,1322.2 1454.04,1322.15 1456.22,1322.1 1458.39,1322.06 1460.57,1322.03 1462.75,1322.01 1464.92,1322 1467.1,1322.01 1469.27,1322.02 1471.45,1322.04 1473.63,1322.08 1475.8,1322.13 1477.98,1322.18 1480.15,1322.25 1482.33,1322.33 1484.51,1322.42 1486.68,1322.52 1488.86,1322.64 1491.03,1322.76 1493.21,1322.89 1495.39,1323.04 1497.56,1323.2 1499.74,1323.37 1501.91,1323.55 1504.09,1323.74 1506.27,1323.94 1508.44,1324.15 1510.62,1324.37 1512.79,1324.6 1514.97,1324.85 1517.15,1325.1 1519.32,1325.36 1521.5,1325.63 1523.68,1325.92 1525.85,1326.21 1528.03,1326.52 1530.2,1326.83 1532.38,1327.15 1534.56,1327.5 1536.73,1327.85 1538.91,1328.2 1541.08,1328.57 1543.26,1328.94 1545.44,1329.31 1547.61,1329.7 1549.79,1330.08 1551.96,1330.48 1554.14,1330.88 1556.32,1331.29 1558.49,1331.7 1560.67,1332.12 1562.84,1332.55 1565.02,1332.99 1567.2,1333.42 1569.37,1333.87 1571.55,1334.32 1573.72,1334.78 1575.9,1335.27 1578.08,1335.76 1580.25,1336.24 1582.43,1336.72 1584.6,1337.2 1586.78,1337.68 1588.96,1338.16 1591.13,1338.64 1593.31,1339.12 1595.49,1339.59 1597.66,1340.07 1599.84,1340.54 1602.01,1341.01 1604.19,1341.48 1606.37,1341.95 1608.54,1342.42 1610.72,1342.89 1612.89,1343.35 1615.07,1343.82 1617.25,1344.28 1619.42,1344.74 1621.6,1345.2 1623.77,1345.66 1625.95,1346.12 1628.13,1346.58 1630.3,1347.04 1632.48,1347.5 1634.65,1347.96 1636.83,1348.41 1639.01,1348.85 1641.18,1349.29 1643.36,1349.72 1645.53,1350.15 1647.71,1350.57 1649.89,1350.99 1652.06,1351.39 1654.24,1351.8 1656.41,1352.2 1658.59,1352.59 1660.77,1352.98 1662.94,1353.36 1665.12,1353.74 1667.3,1354.11 1669.47,1354.47 1671.65,1354.83 1673.82,1355.19 1676,1355.53 1678.18,1355.88 1680.35,1356.21 1682.53,1356.55 1684.7,1356.87 1686.88,1357.19 1689.06,1357.51 1691.23,1357.82 1693.41,1358.13 1695.58,1358.43 1697.76,1358.73 1699.94,1359.02 1702.11,1359.31 1704.29,1359.59 1706.46,1359.87 1708.64,1360.14 1710.82,1360.41 1712.99,1360.67 1715.17,1360.92 1717.34,1361.17 1719.52,1361.42 1721.7,1361.66 1723.87,1361.9 1726.05,1362.13 1728.23,1362.35 1730.4,1362.57 1732.58,1362.79 1734.75,1363 1736.93,1363.2 1739.11,1363.4 1741.28,1363.59 1743.46,1363.78 1745.63,1363.97 1747.81,1364.14 1749.99,1364.32 1752.16,1364.49 1754.34,1364.65 1756.51,1364.81 1758.69,1364.98 1760.87,1365.13 1763.04,1365.29 1765.22,1365.44 1767.39,1365.59 1769.57,1365.73 1771.75,1365.87 1773.92,1366.01 1776.1,1366.15 1778.27,1366.28 1780.45,1366.42 1782.63,1366.54 1784.8,1366.67 1786.98,1366.79 1789.15,1366.91 1791.33,1367.02 1793.51,1367.14 1795.68,1367.25 1797.86,1367.35 1800.04,1367.46 1802.21,1367.56 1804.39,1367.66 1806.56,1367.75 1808.74,1367.84 1810.92,1367.93 1813.09,1368.02 1815.27,1368.1 1817.44,1368.18 1819.62,1368.26 1821.8,1368.33 1823.97,1368.4 1826.15,1368.47 1828.32,1368.53 1830.5,1368.6 1832.68,1368.66 1834.85,1368.73 1837.03,1368.79 1839.2,1368.85 1841.38,1368.91 1843.56,1368.97 1845.73,1369.02 1847.91,1369.08 1850.08,1369.13 1852.26,1369.19 1854.44,1369.24 1856.61,1369.29 1858.79,1369.34 1860.97,1369.39 1863.14,1369.44 1865.32,1369.48 1867.49,1369.53 1869.67,1369.57 1871.85,1369.61 1874.02,1369.66 1876.2,1369.7 1878.37,1369.74 1880.55,1369.77 1882.73,1369.81 1884.9,1369.85 1887.08,1369.88 1889.25,1369.92 1891.43,1369.95 1893.61,1369.98 1895.78,1370.01 1897.96,1370.04 1900.13,1370.06 1902.31,1370.09 1904.49,1370.12 1906.66,1370.14 1908.84,1370.16 1911.01,1370.18 1913.19,1370.2 1915.37,1370.22 1917.54,1370.24 1919.72,1370.26 1921.89,1370.28 1924.07,1370.29 1926.25,1370.3 1928.42,1370.32 1930.6,1370.33 1932.78,1370.34 1934.95,1370.35 1937.13,1370.36 1939.3,1370.37 1941.48,1370.39 1943.66,1370.4 1945.83,1370.41 1948.01,1370.42 1950.18,1370.43 1952.36,1370.44 1954.54,1370.44 1956.71,1370.45 1958.89,1370.46 1961.06,1370.47 1963.24,1370.48 1965.42,1370.49 1967.59,1370.49 1969.77,1370.5 1971.94,1370.51 1974.12,1370.51 1976.3,1370.52 1978.47,1370.52 1980.65,1370.53 1982.82,1370.53 1985,1370.54 1987.18,1370.54 1989.35,1370.55 1991.53,1370.55 1993.71,1370.55 1995.88,1370.56 1998.06,1370.56 2000.23,1370.56 2002.41,1370.56 2004.59,1370.57 2006.76,1370.57 2008.94,1370.57 2011.11,1370.57 2013.29,1370.57 2015.47,1370.57 2017.64,1370.57 2019.82,1370.57 2021.99,1370.57 2024.17,1370.57 2026.35,1370.57 2028.52,1370.57 2030.7,1370.57 2032.87,1370.56 2035.05,1370.56 2037.23,1370.56 2039.4,1370.56 2041.58,1370.56 2043.75,1370.55 2045.93,1370.55 2048.11,1370.55 2050.28,1370.55 2052.46,1370.55 2054.63,1370.55 2056.81,1370.54 2058.99,1370.54 2061.16,1370.54 2063.34,1370.54 2065.52,1370.53 2067.69,1370.53 2069.87,1370.53 2072.04,1370.53 2074.22,1370.52 2076.4,1370.52 2078.57,1370.52 2080.75,1370.52 2082.92,1370.51 2085.1,1370.51 2087.28,1370.51 2089.45,1370.5 2091.63,1370.5 2093.8,1370.5 2095.98,1370.5 2098.16,1370.49 2100.33,1370.49 2102.51,1370.49 2104.68,1370.48 2106.86,1370.48 2109.04,1370.48 2111.21,1370.47 2113.39,1370.47 2115.56,1370.47 2117.74,1370.46 2119.92,1370.46 2122.09,1370.45 2124.27,1370.45 2126.45,1370.45 2128.62,1370.44 2130.8,1370.44 2132.97,1370.44 2135.15,1370.43 2137.33,1370.43 2139.5,1370.42 2141.68,1370.42 2143.85,1370.42 2146.03,1370.41 2148.21,1370.41 2150.38,1370.4 2152.56,1370.4 2154.73,1370.4 2156.91,1370.39 2159.09,1370.39 2161.26,1370.39 2163.44,1370.38 2165.61,1370.38 2167.79,1370.38 2169.97,1370.37 2172.14,1370.37 2174.32,1370.36 2176.49,1370.36 2178.67,1370.36 2180.85,1370.35 2183.02,1370.35 2185.2,1370.35 2187.37,1370.34 2189.55,1370.34 2191.73,1370.34 2193.9,1370.33 2196.08,1370.33 2198.26,1370.33 2200.43,1370.32 2202.61,1370.32 2204.78,1370.32 2206.96,1370.31 2209.14,1370.31 2211.31,1370.31 2213.49,1370.3 2215.66,1370.3 2217.84,1370.3 2220.02,1370.29 2222.19,1370.29 2224.37,1370.29 2226.54,1370.28 2228.72,1370.28 2230.9,1370.28 2233.07,1370.27 2235.25,1370.27 2237.42,1370.27 2239.6,1370.26 2241.78,1370.26 2243.95,1370.26 2246.13,1370.25 2248.3,1370.25 2250.48,1370.25 2252.66,1370.25 2254.83,1370.24 2257.01,1370.24 2259.19,1370.24 2261.36,1370.23 2263.54,1370.23 2265.71,1370.23 2267.89,1370.22 2270.07,1370.22 2272.24,1370.22 2274.42,1370.21 2276.59,1370.21 2278.77,1370.21 2280.95,1370.21 2283.12,1370.2 2285.3,1370.2 2287.47,1370.2 2289.65,1370.19 2291.83,1370.19 2294,1370.19 2296.18,1370.19 2298.35,1370.18 2300.53,1370.18 2302.71,1370.18 2304.88,1370.18 2307.06,1370.17 2309.23,1370.17 2311.41,1370.17 2313.59,1370.17 2315.76,1370.16 2317.94,1370.16 2320.11,1370.16 2322.29,1370.16 2324.47,1370.15 2326.64,1370.15 2328.82,1370.15 2331,1370.15 2333.17,1370.14 2335.35,1370.14 2337.52,1370.14 2339.7,1370.14 2341.88,1370.14 2344.05,1370.13 2346.23,1370.13 2348.4,1370.13 2350.58,1370.13 2352.76,1370.13 "/>
<polyline clip-path="url(#clip361)" style="stroke:#e26f46; stroke-linecap:round; stroke-linejoin:round; stroke-width:4; stroke-opacity:1; fill:none" points="178.867,1321.88 180.421,1322.72 181.974,1323.53 183.528,1324.33 185.082,1325.13 186.636,1325.92 188.19,1326.72 189.744,1327.51 191.298,1328.3 192.852,1329.1 194.406,1329.89 195.959,1330.68 197.513,1331.47 199.067,1332.25 200.621,1333.04 202.175,1333.82 203.729,1334.6 205.283,1335.37 206.837,1336.14 208.391,1336.91 209.944,1337.67 211.498,1338.43 213.052,1339.18 214.606,1339.92 216.16,1340.66 217.714,1341.39 219.268,1342.11 220.822,1342.83 222.375,1343.54 223.929,1344.24 225.483,1344.93 227.037,1345.61 228.591,1346.29 230.145,1346.96 231.699,1347.62 233.253,1348.27 234.807,1348.91 236.36,1349.54 237.914,1350.16 239.468,1350.78 241.022,1351.39 242.576,1351.98 244.13,1352.56 245.684,1353.14 247.238,1353.7 248.792,1354.26 250.345,1354.81 251.899,1355.35 253.453,1355.88 255.007,1356.39 256.561,1356.9 258.115,1357.4 259.669,1357.89 261.223,1358.38 262.777,1358.85 264.33,1359.31 265.884,1359.76 267.438,1360.2 268.992,1360.64 270.546,1361.07 272.1,1361.48 273.654,1361.89 275.208,1362.28 276.762,1362.67 278.315,1363.06 279.869,1363.43 281.423,1363.8 282.977,1364.15 284.531,1364.5 286.085,1364.84 287.639,1365.17 289.193,1365.5 290.747,1365.82 292.3,1366.12 293.854,1366.42 295.408,1366.72 296.962,1367.01 298.516,1367.29 300.07,1367.56 301.624,1367.83 303.178,1368.09 304.732,1368.34 306.285,1368.59 307.839,1368.83 309.393,1369.07 310.947,1369.29 312.501,1369.52 314.055,1369.73 315.609,1369.94 317.163,1370.14 318.717,1370.34 320.27,1370.54 321.824,1370.72 323.378,1370.91 324.932,1371.09 326.486,1371.26 328.04,1371.43 329.594,1371.59 331.148,1371.75 332.702,1371.91 334.255,1372.06 335.809,1372.2 337.363,1372.34 338.917,1372.48 340.471,1372.61 342.025,1372.73 343.579,1372.86 345.133,1372.98 346.687,1373.09 348.24,1373.21 349.794,1373.31 351.348,1373.42 352.902,1373.52 354.456,1373.61 356.01,1373.71 357.564,1373.8 359.118,1373.88 360.672,1373.97 362.225,1374.05 363.779,1374.13 365.333,1374.21 366.887,1374.28 368.441,1374.36 369.995,1374.43 371.549,1374.49 373.103,1374.56 374.657,1374.62 376.21,1374.68 377.764,1374.74 379.318,1374.79 380.872,1374.84 382.426,1374.89 383.98,1374.94 385.534,1374.99 387.088,1375.03 388.642,1375.07 390.195,1375.11 391.749,1375.14 393.303,1375.17 394.857,1375.21 396.411,1375.24 397.965,1375.26 399.519,1375.29 401.073,1375.32 402.627,1375.34 404.18,1375.37 405.734,1375.39 407.288,1375.41 408.842,1375.43 410.396,1375.45 411.95,1375.46 413.504,1375.48 415.058,1375.49 416.611,1375.51 418.165,1375.52 419.719,1375.53 421.273,1375.54 422.827,1375.54 424.381,1375.55 425.935,1375.55 427.489,1375.55 429.043,1375.55 430.596,1375.55 432.15,1375.55 433.704,1375.55 435.258,1375.55 436.812,1375.55 438.366,1375.55 439.92,1375.54 441.474,1375.54 443.028,1375.54 444.581,1375.53 446.135,1375.53 447.689,1375.52 449.243,1375.51 450.797,1375.51 452.351,1375.5 453.905,1375.49 455.459,1375.48 457.013,1375.47 458.566,1375.46 460.12,1375.45 461.674,1375.44 463.228,1375.43 464.782,1375.41 466.336,1375.4 467.89,1375.39 469.444,1375.37 470.998,1375.36 472.551,1375.34 474.105,1375.32 475.659,1375.31 477.213,1375.29 478.767,1375.27 480.321,1375.25 481.875,1375.23 483.429,1375.21 484.983,1375.19 486.536,1375.17 488.09,1375.15 489.644,1375.13 491.198,1375.11 492.752,1375.09 494.306,1375.07 495.86,1375.05 497.414,1375.02 498.968,1375 500.521,1374.98 502.075,1374.96 503.629,1374.94 505.183,1374.92 506.737,1374.89 508.291,1374.87 509.845,1374.85 511.399,1374.83 512.953,1374.8 514.506,1374.78 516.06,1374.76 517.614,1374.73 519.168,1374.71 520.722,1374.69 522.276,1374.66 523.83,1374.64 525.384,1374.61 526.938,1374.59 528.491,1374.56 530.045,1374.54 531.599,1374.52 533.153,1374.49 534.707,1374.47 536.261,1374.44 537.815,1374.41 539.369,1374.39 540.923,1374.36 542.476,1374.34 544.03,1374.31 545.584,1374.29 547.138,1374.26 548.692,1374.23 550.246,1374.21 551.8,1374.18 553.354,1374.16 554.908,1374.13 556.461,1374.11 558.015,1374.08 559.569,1374.06 561.123,1374.03 562.677,1374.01 564.231,1373.98 565.785,1373.96 567.339,1373.93 568.893,1373.91 570.446,1373.88 572,1373.86 573.554,1373.83 575.108,1373.81 576.662,1373.78 578.216,1373.76 579.77,1373.73 581.324,1373.71 582.878,1373.68 584.431,1373.66 585.985,1373.63 587.539,1373.61 589.093,1373.58 590.647,1373.56 592.201,1373.54 593.755,1373.51 595.309,1373.49 596.862,1373.46 598.416,1373.44 599.97,1373.41 601.524,1373.39 603.078,1373.37 604.632,1373.34 606.186,1373.32 607.74,1373.3 609.294,1373.27 610.847,1373.25 612.401,1373.22 613.955,1373.2 615.509,1373.18 617.063,1373.15 618.617,1373.13 620.171,1373.11 621.725,1373.08 623.279,1373.06 624.832,1373.04 626.386,1373.01 627.94,1372.99 629.494,1372.97 631.048,1372.95 632.602,1372.92 634.156,1372.9 635.71,1372.88 637.264,1372.86 638.817,1372.83 640.371,1372.81 641.925,1372.79 643.479,1372.77 645.033,1372.75 646.587,1372.72 648.141,1372.7 649.695,1372.68 651.249,1372.66 652.802,1372.64 654.356,1372.62 655.91,1372.6 657.464,1372.58 659.018,1372.56 660.572,1372.53 662.126,1372.51 663.68,1372.49 665.234,1372.47 666.787,1372.45 668.341,1372.43 669.895,1372.41 671.449,1372.39 673.003,1372.37 674.557,1372.35 676.111,1372.33 677.665,1372.31 679.219,1372.3 680.772,1372.28 682.326,1372.26 683.88,1372.24 685.434,1372.22 686.988,1372.2 688.542,1372.18 690.096,1372.16 691.65,1372.14 693.204,1372.13 694.757,1372.11 696.311,1372.09 697.865,1372.07 699.419,1372.05 700.973,1372.04 702.527,1372.02 704.081,1372 705.635,1371.98 707.189,1371.97 708.742,1371.95 710.296,1371.93 711.85,1371.91 713.404,1371.9 714.958,1371.88 716.512,1371.86 718.066,1371.85 719.62,1371.83 721.174,1371.81 722.727,1371.8 724.281,1371.78 725.835,1371.77 727.389,1371.75 728.943,1371.74 730.497,1371.72 732.051,1371.7 733.605,1371.69 735.159,1371.67 736.712,1371.66 738.266,1371.64 739.82,1371.63 741.374,1371.61 742.928,1371.6 744.482,1371.58 746.036,1371.57 747.59,1371.56 749.144,1371.54 750.697,1371.53 752.251,1371.51 753.805,1371.5 755.359,1371.48 756.913,1371.47 758.467,1371.46 760.021,1371.44 761.575,1371.43 763.129,1371.41 764.682,1371.4 766.236,1371.39 767.79,1371.37 769.344,1371.36 770.898,1371.35 772.452,1371.34 774.006,1371.32 775.56,1371.31 777.114,1371.3 778.667,1371.28 780.221,1371.27 781.775,1371.26 783.329,1371.25 784.883,1371.23 786.437,1371.22 787.991,1371.21 789.545,1371.2 791.098,1371.19 792.652,1371.17 794.206,1371.16 795.76,1371.15 797.314,1371.14 798.868,1371.13 800.422,1371.11 801.976,1371.1 803.53,1371.09 805.083,1371.08 806.637,1371.07 808.191,1371.06 809.745,1371.05 811.299,1371.04 812.853,1371.03 814.407,1371.02 815.961,1371.01 817.515,1370.99 819.068,1370.98 820.622,1370.97 822.176,1370.96 823.73,1370.95 825.284,1370.94 826.838,1370.93 828.392,1370.92 829.946,1370.91 831.5,1370.9 833.053,1370.89 834.607,1370.89 836.161,1370.88 837.715,1370.87 839.269,1370.86 840.823,1370.85 842.377,1370.84 843.931,1370.83 845.485,1370.82 847.038,1370.81 848.592,1370.8 850.146,1370.8 851.7,1370.79 853.254,1370.78 854.808,1370.77 856.362,1370.76 857.916,1370.75 859.47,1370.75 861.023,1370.74 862.577,1370.73 864.131,1370.72 865.685,1370.72 867.239,1370.71 868.793,1370.7 870.347,1370.69 871.901,1370.69 873.455,1370.68 875.008,1370.67 876.562,1370.66 878.116,1370.66 879.67,1370.65 881.224,1370.64 882.778,1370.64 884.332,1370.63 885.886,1370.62 887.44,1370.62 888.993,1370.61 890.547,1370.6 892.101,1370.6 893.655,1370.59 895.209,1370.58 896.763,1370.58 898.317,1370.57 899.871,1370.56 901.425,1370.56 902.978,1370.55 904.532,1370.54 906.086,1370.54 907.64,1370.53 909.194,1370.52 910.748,1370.52 912.302,1370.51 913.856,1370.51 915.41,1370.5 916.963,1370.49 918.517,1370.49 920.071,1370.48 921.625,1370.48 923.179,1370.47 924.733,1370.47 926.287,1370.46 927.841,1370.45 929.395,1370.45 930.948,1370.44 932.502,1370.44 934.056,1370.43 935.61,1370.43 937.164,1370.42 938.718,1370.42 940.272,1370.41 941.826,1370.41 943.38,1370.4 944.933,1370.4 946.487,1370.39 948.041,1370.39 949.595,1370.38 951.149,1370.38 952.703,1370.37 954.257,1370.37 955.811,1370.36 957.365,1370.36 958.918,1370.35 960.472,1370.35 962.026,1370.34 963.58,1370.34 965.134,1370.33 966.688,1370.33 968.242,1370.33 969.796,1370.32 971.349,1370.32 972.903,1370.31 974.457,1370.31 976.011,1370.3 977.565,1370.3 979.119,1370.3 980.673,1370.29 982.227,1370.29 983.781,1370.28 985.334,1370.28 986.888,1370.28 988.442,1370.27 989.996,1370.27 991.55,1370.27 993.104,1370.26 994.658,1370.26 996.212,1370.26 997.766,1370.25 999.319,1370.25 1000.87,1370.25 1002.43,1370.24 1003.98,1370.24 1005.54,1370.24 1007.09,1370.23 1008.64,1370.23 1010.2,1370.23 1011.75,1370.22 1013.3,1370.22 1014.86,1370.22 1016.41,1370.22 1017.97,1370.21 1019.52,1370.21 1021.07,1370.21 1022.63,1370.21 1024.18,1370.2 1025.74,1370.2 1027.29,1370.2 1028.84,1370.2 1030.4,1370.19 1031.95,1370.19 1033.51,1370.19 1035.06,1370.19 1036.61,1370.18 1038.17,1370.18 1039.72,1370.18 1041.27,1370.18 1042.83,1370.17 1044.38,1370.17 1045.94,1370.17 1047.49,1370.17 1049.04,1370.17 1050.6,1370.16 1052.15,1370.16 1053.71,1370.16 1055.26,1370.16 1056.81,1370.15 1058.37,1370.15 1059.92,1370.15 1061.48,1370.15 1063.03,1370.15 1064.58,1370.14 1066.14,1370.14 1067.69,1370.14 1069.24,1370.14 1070.8,1370.14 1072.35,1370.13 1073.91,1370.13 1075.46,1370.13 1077.01,1370.13 1078.57,1370.13 1080.12,1370.12 1081.68,1370.12 1083.23,1370.12 1084.78,1370.12 1086.34,1370.12 1087.89,1370.11 1089.44,1370.11 1091,1370.11 1092.55,1370.11 1094.11,1370.11 1095.66,1370.11 1097.21,1370.1 1098.77,1370.1 1100.32,1370.1 1101.88,1370.1 1103.43,1370.1 1104.98,1370.1 1106.54,1370.09 1108.09,1370.09 1109.65,1370.09 1111.2,1370.09 1112.75,1370.09 1114.31,1370.09 1115.86,1370.08 1117.41,1370.08 1118.97,1370.08 1120.52,1370.08 1122.08,1370.08 1123.63,1370.08 1125.18,1370.08 1126.74,1370.07 1128.29,1370.07 1129.85,1370.07 1131.4,1370.07 1132.95,1370.07 1134.51,1370.07 1136.06,1370.07 1137.62,1370.06 1139.17,1370.06 1140.72,1370.06 1142.28,1370.06 1143.83,1370.06 1145.38,1370.06 1146.94,1370.06 1148.49,1370.06 1150.05,1370.05 1151.6,1370.05 1153.15,1370.05 1154.71,1370.05 1156.26,1370.05 1157.82,1370.05 1159.37,1370.05 1160.92,1370.05 1162.48,1370.05 1164.03,1370.04 1165.59,1370.04 1167.14,1370.04 1168.69,1370.04 1170.25,1370.04 1171.8,1370.04 1173.35,1370.04 1174.91,1370.04 1176.46,1370.04 1178.02,1370.04 1179.57,1370.03 1181.12,1370.03 1182.68,1370.03 1184.23,1370.03 1185.79,1370.03 1187.34,1370.03 1188.89,1370.03 1190.45,1370.03 1192,1370.03 1193.56,1370.03 1195.11,1370.03 1196.66,1370.03 1198.22,1370.02 1199.77,1370.02 1201.32,1370.02 1202.88,1370.02 1204.43,1370.02 1205.99,1370.02 1207.54,1370.02 1209.09,1370.02 1210.65,1370.02 1212.2,1370.02 1213.76,1370.02 1215.31,1370.02 1216.86,1370.02 1218.42,1370.02 1219.97,1370.02 1221.53,1370.02 1223.08,1370.02 1224.63,1370.02 1226.19,1370.01 1227.74,1370.01 1229.29,1370.01 1230.85,1370.01 1232.4,1370.01 1233.96,1370.01 1235.51,1370.01 1237.06,1370.01 1238.62,1370.01 1240.17,1370.01 1241.73,1370.01 1243.28,1370.01 1244.83,1370.01 1246.39,1370.01 1247.94,1370.01 1249.5,1370.01 1251.05,1370.01 1252.6,1370.01 1254.16,1370.01 1255.71,1370.01 1257.26,1370.01 1258.82,1370.01 1260.37,1370.01 1261.93,1370.01 1263.48,1370.01 1265.03,1370.01 1266.59,1370.39 1268.14,1367.78 1269.7,1366.48 1271.25,1365.22 1272.8,1364 1274.36,1362.81 1275.91,1361.64 1277.47,1360.51 1279.02,1359.4 1280.57,1358.31 1282.13,1357.25 1283.68,1356.21 1285.23,1355.19 1286.79,1354.19 1288.34,1353.21 1289.9,1352.26 1291.45,1351.32 1293,1350.41 1294.56,1349.5 1296.11,1348.62 1297.67,1347.74 1299.22,1346.88 1300.77,1346.04 1302.33,1345.2 1303.88,1344.39 1305.44,1343.58 1306.99,1342.79 1308.54,1342.02 1310.1,1341.25 1311.65,1340.49 1313.2,1339.74 1314.76,1339.01 1316.31,1338.28 1317.87,1337.56 1319.42,1336.86 1320.97,1336.17 1322.53,1335.48 1324.08,1334.81 1325.64,1334.13 1327.19,1333.47 1328.74,1332.8 1330.3,1332.15 1331.85,1331.5 1333.41,1330.85 1334.96,1330.22 1336.51,1329.58 1338.07,1328.96 1339.62,1328.34 1341.17,1327.72 1342.73,1327.11 1344.28,1326.51 1345.84,1325.91 1347.39,1325.32 1348.94,1324.73 1350.5,1324.14 1352.05,1323.55 1353.61,1322.96 1355.16,1322.38 1356.71,1321.79 1358.27,1321.21 1359.82,1320.63 1361.38,1320.06 1362.93,1319.48 1364.48,1318.91 1366.04,1318.33 1367.59,1317.76 1369.14,1317.2 1370.7,1316.65 1372.25,1316.09 1373.81,1315.53 1375.36,1314.97 1376.91,1314.4 1378.47,1313.83 1380.02,1313.26 1381.58,1312.68 1383.13,1312.11 1384.68,1311.52 1386.24,1310.94 1387.79,1310.35 1389.35,1309.76 1390.9,1309.16 1392.45,1308.56 1394.01,1307.96 1395.56,1307.36 1397.11,1306.75 1398.67,1306.14 1400.22,1305.52 1401.78,1304.91 1403.33,1304.31 1404.88,1303.71 1406.44,1303.1 1407.99,1302.47 1409.55,1301.83 1411.1,1301.17 1412.65,1300.49 1414.21,1299.79 1415.76,1299.08 1417.32,1298.35 1418.87,1297.61 1420.42,1296.85 1421.98,1296.07 1423.53,1295.27 1425.08,1294.46 1426.64,1293.63 1428.19,1292.78 1429.75,1291.92 1431.3,1291.04 1432.85,1290.14 1434.41,1289.23 1435.96,1288.29 1437.52,1287.35 1439.07,1286.41 1440.62,1285.45 1442.18,1284.43 1443.73,1283.34 1445.29,1282.19 1446.84,1280.96 1448.39,1279.68 1449.95,1278.32 1451.5,1276.9 1453.05,1275.41 1454.61,1273.86 1456.16,1272.24 1457.72,1270.55 1459.27,1268.8 1460.82,1266.98 1462.38,1265.1 1463.93,1263.06 1465.49,1260.82 1467.04,1258.4 1468.59,1255.78 1470.15,1252.96 1471.7,1249.96 1473.26,1246.78 1474.81,1243.23 1476.36,1239.24 1477.92,1234.81 1479.47,1229.94 1481.02,1224.94 1482.58,1218.94 1484.13,1211.6 1485.69,1202.95 1487.24,1192.97 1488.79,1181.66 1490.35,1168.87 1491.9,1150.08 1493.46,1125.23 1495.01,1093.71 1496.56,1046.32 1498.12,967.395 1499.67,816.062 1501.23,488.397 1502.78,110.193 1504.33,86.1857 1505.89,135.896 1507.44,188.484 1508.99,239.396 1510.55,288.28 1512.1,335.148 1513.66,380.055 1515.21,423.056 1516.76,464.203 1518.32,503.543 1519.87,541.118 1521.43,576.957 1522.98,611.097 1524.53,643.566 1526.09,674.387 1527.64,703.59 1529.2,731.212 1530.75,757.282 1532.3,781.854 1533.86,804.981 1535.41,826.722 1536.96,847.172 1538.52,866.383 1540.07,884.476 1541.63,901.51 1543.18,917.603 1544.73,932.822 1546.29,947.276 1547.84,961.014 1549.4,974.152 1550.95,986.703 1552.5,998.785 1554.06,1010.4 1555.61,1021.63 1557.17,1032.51 1558.72,1043.05 1560.27,1053.31 1561.83,1063.31 1563.38,1073.04 1564.93,1082.55 1566.49,1091.85 1568.04,1100.93 1569.6,1109.83 1571.15,1118.53 1572.7,1127.04 1574.26,1135.37 1575.81,1143.52 1577.37,1151.48 1578.92,1159.27 1580.47,1166.87 1582.03,1174.29 1583.58,1181.54 1585.14,1188.6 1586.69,1195.48 1588.24,1202.17 1589.8,1208.69 1591.35,1215.02 1592.9,1221.18 1594.46,1227.15 1596.01,1232.95 1597.57,1238.57 1599.12,1244.02 1600.67,1249.3 1602.23,1254.41 1603.78,1259.36 1605.34,1264.14 1606.89,1268.77 1608.44,1273.23 1610,1277.55 1611.55,1281.72 1613.11,1285.74 1614.66,1289.62 1616.21,1293.37 1617.77,1296.98 1619.32,1300.46 1620.87,1303.82 1622.43,1307.05 1623.98,1310.17 1625.54,1313.17 1627.09,1316.06 1628.64,1318.85 1630.2,1321.53 1631.75,1324.11 1633.31,1326.59 1634.86,1328.98 1636.41,1331.28 1637.97,1333.49 1639.52,1335.62 1641.08,1337.67 1642.63,1339.64 1644.18,1341.53 1645.74,1343.35 1647.29,1345.09 1648.84,1346.78 1650.4,1348.4 1651.95,1349.95 1653.51,1351.44 1655.06,1352.87 1656.61,1354.25 1658.17,1355.57 1659.72,1356.85 1661.28,1358.07 1662.83,1359.24 1664.38,1360.36 1665.94,1361.44 1667.49,1362.48 1669.05,1363.48 1670.6,1364.44 1672.15,1365.36 1673.71,1366.24 1675.26,1367.08 1676.81,1367.89 1678.37,1368.67 1679.92,1369.42 1681.48,1370.14 1683.03,1370.83 1684.58,1371.48 1686.14,1372.11 1687.69,1372.71 1689.25,1373.29 1690.8,1373.84 1692.35,1374.38 1693.91,1374.89 1695.46,1375.38 1697.02,1375.85 1698.57,1376.3 1700.12,1376.72 1701.68,1377.13 1703.23,1377.51 1704.78,1377.89 1706.34,1378.25 1707.89,1378.59 1709.45,1378.92 1711,1379.23 1712.55,1379.53 1714.11,1379.82 1715.66,1380.09 1717.22,1380.34 1718.77,1380.59 1720.32,1380.82 1721.88,1381.04 1723.43,1381.25 1724.99,1381.46 1726.54,1381.65 1728.09,1381.84 1729.65,1382.01 1731.2,1382.18 1732.75,1382.33 1734.31,1382.47 1735.86,1382.61 1737.42,1382.74 1738.97,1382.87 1740.52,1382.98 1742.08,1383.09 1743.63,1383.2 1745.19,1383.3 1746.74,1383.39 1748.29,1383.48 1749.85,1383.56 1751.4,1383.63 1752.96,1383.7 1754.51,1383.76 1756.06,1383.82 1757.62,1383.87 1759.17,1383.92 1760.72,1383.97 1762.28,1384.01 1763.83,1384.05 1765.39,1384.09 1766.94,1384.12 1768.49,1384.14 1770.05,1384.17 1771.6,1384.18 1773.16,1384.2 1774.71,1384.21 1776.26,1384.22 1777.82,1384.23 1779.37,1384.23 1780.93,1384.24 1782.48,1384.24 1784.03,1384.24 1785.59,1384.23 1787.14,1384.23 1788.69,1384.22 1790.25,1384.2 1791.8,1384.19 1793.36,1384.17 1794.91,1384.16 1796.46,1384.14 1798.02,1384.12 1799.57,1384.09 1801.13,1384.07 1802.68,1384.05 1804.23,1384.02 1805.79,1383.99 1807.34,1383.96 1808.9,1383.93 1810.45,1383.9 1812,1383.87 1813.56,1383.83 1815.11,1383.79 1816.66,1383.76 1818.22,1383.72 1819.77,1383.68 1821.33,1383.64 1822.88,1383.6 1824.43,1383.56 1825.99,1383.52 1827.54,1383.48 1829.1,1383.43 1830.65,1383.39 1832.2,1383.34 1833.76,1383.3 1835.31,1383.25 1836.87,1383.2 1838.42,1383.15 1839.97,1383.11 1841.53,1383.06 1843.08,1383.01 1844.63,1382.96 1846.19,1382.91 1847.74,1382.86 1849.3,1382.81 1850.85,1382.76 1852.4,1382.71 1853.96,1382.65 1855.51,1382.6 1857.07,1382.55 1858.62,1382.5 1860.17,1382.44 1861.73,1382.39 1863.28,1382.33 1864.84,1382.28 1866.39,1382.23 1867.94,1382.17 1869.5,1382.12 1871.05,1382.06 1872.6,1382.01 1874.16,1381.95 1875.71,1381.9 1877.27,1381.84 1878.82,1381.79 1880.37,1381.73 1881.93,1381.68 1883.48,1381.62 1885.04,1381.56 1886.59,1381.51 1888.14,1381.45 1889.7,1381.39 1891.25,1381.34 1892.81,1381.28 1894.36,1381.23 1895.91,1381.17 1897.47,1381.11 1899.02,1381.06 1900.57,1381 1902.13,1380.95 1903.68,1380.89 1905.24,1380.83 1906.79,1380.78 1908.34,1380.72 1909.9,1380.66 1911.45,1380.61 1913.01,1380.55 1914.56,1380.5 1916.11,1380.44 1917.67,1380.38 1919.22,1380.33 1920.78,1380.27 1922.33,1380.22 1923.88,1380.16 1925.44,1380.11 1926.99,1380.05 1928.54,1380 1930.1,1379.94 1931.65,1379.89 1933.21,1379.83 1934.76,1379.78 1936.31,1379.72 1937.87,1379.67 1939.42,1379.61 1940.98,1379.56 1942.53,1379.5 1944.08,1379.45 1945.64,1379.4 1947.19,1379.34 1948.75,1379.29 1950.3,1379.23 1951.85,1379.18 1953.41,1379.13 1954.96,1379.08 1956.51,1379.02 1958.07,1378.97 1959.62,1378.92 1961.18,1378.86 1962.73,1378.81 1964.28,1378.76 1965.84,1378.71 1967.39,1378.66 1968.95,1378.6 1970.5,1378.55 1972.05,1378.5 1973.61,1378.45 1975.16,1378.4 1976.72,1378.35 1978.27,1378.3 1979.82,1378.25 1981.38,1378.2 1982.93,1378.15 1984.48,1378.1 1986.04,1378.05 1987.59,1378 1989.15,1377.95 1990.7,1377.9 1992.25,1377.85 1993.81,1377.8 1995.36,1377.75 1996.92,1377.7 1998.47,1377.65 2000.02,1377.61 2001.58,1377.56 2003.13,1377.51 2004.68,1377.46 2006.24,1377.41 2007.79,1377.37 2009.35,1377.32 2010.9,1377.27 2012.45,1377.23 2014.01,1377.18 2015.56,1377.13 2017.12,1377.09 2018.67,1377.04 2020.22,1377 2021.78,1376.95 2023.33,1376.9 2024.89,1376.86 2026.44,1376.81 2027.99,1376.77 2029.55,1376.72 2031.1,1376.68 2032.65,1376.64 2034.21,1376.59 2035.76,1376.55 2037.32,1376.5 2038.87,1376.46 2040.42,1376.42 2041.98,1376.38 2043.53,1376.33 2045.09,1376.29 2046.64,1376.25 2048.19,1376.2 2049.75,1376.16 2051.3,1376.12 2052.86,1376.08 2054.41,1376.04 2055.96,1376 2057.52,1375.95 2059.07,1375.91 2060.62,1375.87 2062.18,1375.83 2063.73,1375.79 2065.29,1375.75 2066.84,1375.71 2068.39,1375.67 2069.95,1375.63 2071.5,1375.59 2073.06,1375.55 2074.61,1375.52 2076.16,1375.48 2077.72,1375.44 2079.27,1375.4 2080.83,1375.36 2082.38,1375.32 2083.93,1375.29 2085.49,1375.25 2087.04,1375.21 2088.59,1375.17 2090.15,1375.14 2091.7,1375.1 2093.26,1375.06 2094.81,1375.03 2096.36,1374.99 2097.92,1374.95 2099.47,1374.92 2101.03,1374.88 2102.58,1374.85 2104.13,1374.81 2105.69,1374.78 2107.24,1374.74 2108.8,1374.71 2110.35,1374.67 2111.9,1374.64 2113.46,1374.6 2115.01,1374.57 2116.56,1374.53 2118.12,1374.5 2119.67,1374.47 2121.23,1374.43 2122.78,1374.4 2124.33,1374.37 2125.89,1374.33 2127.44,1374.3 2129,1374.27 2130.55,1374.24 2132.1,1374.21 2133.66,1374.18 2135.21,1374.14 2136.77,1374.11 2138.32,1374.08 2139.87,1374.05 2141.43,1374.02 2142.98,1373.99 2144.53,1373.96 2146.09,1373.93 2147.64,1373.9 2149.2,1373.87 2150.75,1373.84 2152.3,1373.81 2153.86,1373.78 2155.41,1373.75 2156.97,1373.72 2158.52,1373.69 2160.07,1373.66 2161.63,1373.63 2163.18,1373.6 2164.74,1373.58 2166.29,1373.55 2167.84,1373.52 2169.4,1373.49 2170.95,1373.46 2172.5,1373.44 2174.06,1373.41 2175.61,1373.38 2177.17,1373.35 2178.72,1373.33 2180.27,1373.3 2181.83,1373.27 2183.38,1373.25 2184.94,1373.22 2186.49,1373.2 2188.04,1373.17 2189.6,1373.14 2191.15,1373.12 2192.71,1373.09 2194.26,1373.07 2195.81,1373.04 2197.37,1373.02 2198.92,1372.99 2200.47,1372.97 2202.03,1372.94 2203.58,1372.92 2205.14,1372.9 2206.69,1372.87 2208.24,1372.85 2209.8,1372.83 2211.35,1372.8 2212.91,1372.78 2214.46,1372.76 2216.01,1372.73 2217.57,1372.71 2219.12,1372.69 2220.68,1372.67 2222.23,1372.64 2223.78,1372.62 2225.34,1372.6 2226.89,1372.58 2228.44,1372.56 2230,1372.53 2231.55,1372.51 2233.11,1372.49 2234.66,1372.47 2236.21,1372.45 2237.77,1372.43 2239.32,1372.41 2240.88,1372.39 2242.43,1372.37 2243.98,1372.34 2245.54,1372.32 2247.09,1372.3 2248.65,1372.28 2250.2,1372.26 2251.75,1372.24 2253.31,1372.22 2254.86,1372.2 2256.41,1372.19 2257.97,1372.17 2259.52,1372.15 2261.08,1372.13 2262.63,1372.11 2264.18,1372.09 2265.74,1372.07 2267.29,1372.05 2268.85,1372.03 2270.4,1372.02 2271.95,1372 2273.51,1371.98 2275.06,1371.96 2276.62,1371.94 2278.17,1371.93 2279.72,1371.91 2281.28,1371.89 2282.83,1371.87 2284.38,1371.86 2285.94,1371.84 2287.49,1371.82 2289.05,1371.81 2290.6,1371.79 2292.15,1371.77 2293.71,1371.76 2295.26,1371.74 2296.82,1371.73 2298.37,1371.71 2299.92,1371.69 2301.48,1371.68 2303.03,1371.66 2304.59,1371.65 2306.14,1371.63 2307.69,1371.62 2309.25,1371.6 2310.8,1371.59 2312.35,1371.57 2313.91,1371.56 2315.46,1371.54 2317.02,1371.53 2318.57,1371.51 2320.12,1371.5 2321.68,1371.48 2323.23,1371.47 2324.79,1371.46 2326.34,1371.44 2327.89,1371.43 2329.45,1371.41 2331,1371.4 2332.56,1371.39 2334.11,1371.37 2335.66,1371.36 2337.22,1371.35 2338.77,1371.33 2340.32,1371.32 2341.88,1371.31 2343.43,1371.3 2344.99,1371.28 2346.54,1371.27 2348.09,1371.26 2349.65,1371.25 2351.2,1371.23 2352.76,1371.22 "/>
<path clip-path="url(#clip360)" d="M1973.81 248.629 L2280.29 248.629 L2280.29 93.1086 L1973.81 93.1086  Z" fill="#ffffff" fill-rule="evenodd" fill-opacity="1"/>
<polyline clip-path="url(#clip360)" style="stroke:#000000; stroke-linecap:round; stroke-linejoin:round; stroke-width:4; stroke-opacity:1; fill:none" points="1973.81,248.629 2280.29,248.629 2280.29,93.1086 1973.81,93.1086 1973.81,248.629 "/>
<polyline clip-path="url(#clip360)" style="stroke:#009af9; stroke-linecap:round; stroke-linejoin:round; stroke-width:4; stroke-opacity:1; fill:none" points="1997.96,144.949 2142.89,144.949 "/>
<path clip-path="url(#clip360)" d="M2167.04 151.997 L2167.04 136.303 L2171.3 136.303 L2171.3 151.835 Q2171.3 155.516 2172.74 157.368 Q2174.17 159.196 2177.04 159.196 Q2180.49 159.196 2182.48 156.997 Q2184.5 154.798 2184.5 151.002 L2184.5 136.303 L2188.75 136.303 L2188.75 162.229 L2184.5 162.229 L2184.5 158.247 Q2182.94 160.608 2180.88 161.766 Q2178.85 162.9 2176.14 162.9 Q2171.67 162.9 2169.36 160.122 Q2167.04 157.344 2167.04 151.997 M2177.76 135.678 L2177.76 135.678 Z" fill="#000000" fill-rule="nonzero" fill-opacity="1" /><path clip-path="url(#clip360)" d="M2197.13 126.21 L2206.95 126.21 L2206.95 129.52 L2201.39 129.52 L2201.39 165.168 L2206.95 165.168 L2206.95 168.479 L2197.13 168.479 L2197.13 126.21 Z" fill="#000000" fill-rule="nonzero" fill-opacity="1" /><path clip-path="url(#clip360)" d="M2217.44 158.293 L2225.07 158.293 L2225.07 131.928 L2216.76 133.595 L2216.76 129.335 L2225.03 127.669 L2229.7 127.669 L2229.7 158.293 L2237.34 158.293 L2237.34 162.229 L2217.44 162.229 L2217.44 158.293 Z" fill="#000000" fill-rule="nonzero" fill-opacity="1" /><path clip-path="url(#clip360)" d="M2256.14 126.21 L2256.14 168.479 L2246.32 168.479 L2246.32 165.168 L2251.86 165.168 L2251.86 129.52 L2246.32 129.52 L2246.32 126.21 L2256.14 126.21 Z" fill="#000000" fill-rule="nonzero" fill-opacity="1" /><polyline clip-path="url(#clip360)" style="stroke:#e26f46; stroke-linecap:round; stroke-linejoin:round; stroke-width:4; stroke-opacity:1; fill:none" points="1997.96,196.789 2142.89,196.789 "/>
<path clip-path="url(#clip360)" d="M2167.04 203.837 L2167.04 188.143 L2171.3 188.143 L2171.3 203.675 Q2171.3 207.356 2172.74 209.208 Q2174.17 211.036 2177.04 211.036 Q2180.49 211.036 2182.48 208.837 Q2184.5 206.638 2184.5 202.842 L2184.5 188.143 L2188.75 188.143 L2188.75 214.069 L2184.5 214.069 L2184.5 210.087 Q2182.94 212.448 2180.88 213.606 Q2178.85 214.74 2176.14 214.74 Q2171.67 214.74 2169.36 211.962 Q2167.04 209.184 2167.04 203.837 M2177.76 187.518 L2177.76 187.518 Z" fill="#000000" fill-rule="nonzero" fill-opacity="1" /><path clip-path="url(#clip360)" d="M2197.13 178.05 L2206.95 178.05 L2206.95 181.36 L2201.39 181.36 L2201.39 217.008 L2206.95 217.008 L2206.95 220.319 L2197.13 220.319 L2197.13 178.05 Z" fill="#000000" fill-rule="nonzero" fill-opacity="1" /><path clip-path="url(#clip360)" d="M2217.44 210.133 L2225.07 210.133 L2225.07 183.768 L2216.76 185.435 L2216.76 181.175 L2225.03 179.509 L2229.7 179.509 L2229.7 210.133 L2237.34 210.133 L2237.34 214.069 L2217.44 214.069 L2217.44 210.133 Z" fill="#000000" fill-rule="nonzero" fill-opacity="1" /><path clip-path="url(#clip360)" d="M2256.14 178.05 L2256.14 220.319 L2246.32 220.319 L2246.32 217.008 L2251.86 217.008 L2251.86 181.36 L2246.32 181.36 L2246.32 178.05 L2256.14 178.05 Z" fill="#000000" fill-rule="nonzero" fill-opacity="1" /></svg>
