<?xml version="1.0" encoding="utf-8"?>
<svg xmlns="http://www.w3.org/2000/svg" xmlns:xlink="http://www.w3.org/1999/xlink" width="600" height="400" viewBox="0 0 2400 1600">
<defs>
  <clipPath id="clip540">
    <rect x="0" y="0" width="2400" height="1600"/>
  </clipPath>
</defs>
<path clip-path="url(#clip540)" d="M0 1600 L2400 1600 L2400 0 L0 0  Z" fill="#ffffff" fill-rule="evenodd" fill-opacity="1"/>
<defs>
  <clipPath id="clip541">
    <rect x="246" y="47" width="2107" height="1377"/>
  </clipPath>
</defs>
<path clip-path="url(#clip540)" d="M246.598 1423.18 L2352.76 1423.18 L2352.76 47.2441 L246.598 47.2441  Z" fill="#ffffff" fill-rule="evenodd" fill-opacity="1"/>
<polyline clip-path="url(#clip541)" style="stroke:#000000; stroke-linecap:round; stroke-linejoin:round; stroke-width:2; stroke-opacity:0.1; fill:none" points="246.598,1423.18 246.598,47.2441 "/>
<polyline clip-path="url(#clip541)" style="stroke:#000000; stroke-linecap:round; stroke-linejoin:round; stroke-width:2; stroke-opacity:0.1; fill:none" points="547.477,1423.18 547.477,47.2441 "/>
<polyline clip-path="url(#clip541)" style="stroke:#000000; stroke-linecap:round; stroke-linejoin:round; stroke-width:2; stroke-opacity:0.1; fill:none" points="848.357,1423.18 848.357,47.2441 "/>
<polyline clip-path="url(#clip541)" style="stroke:#000000; stroke-linecap:round; stroke-linejoin:round; stroke-width:2; stroke-opacity:0.1; fill:none" points="1149.24,1423.18 1149.24,47.2441 "/>
<polyline clip-path="url(#clip541)" style="stroke:#000000; stroke-linecap:round; stroke-linejoin:round; stroke-width:2; stroke-opacity:0.1; fill:none" points="1450.12,1423.18 1450.12,47.2441 "/>
<polyline clip-path="url(#clip541)" style="stroke:#000000; stroke-linecap:round; stroke-linejoin:round; stroke-width:2; stroke-opacity:0.1; fill:none" points="1751,1423.18 1751,47.2441 "/>
<polyline clip-path="url(#clip541)" style="stroke:#000000; stroke-linecap:round; stroke-linejoin:round; stroke-width:2; stroke-opacity:0.1; fill:none" points="2051.88,1423.18 2051.88,47.2441 "/>
<polyline clip-path="url(#clip541)" style="stroke:#000000; stroke-linecap:round; stroke-linejoin:round; stroke-width:2; stroke-opacity:0.1; fill:none" points="2352.76,1423.18 2352.76,47.2441 "/>
<polyline clip-path="url(#clip541)" style="stroke:#000000; stroke-linecap:round; stroke-linejoin:round; stroke-width:2; stroke-opacity:0.1; fill:none" points="246.598,1384.24 2352.76,1384.24 "/>
<polyline clip-path="url(#clip541)" style="stroke:#000000; stroke-linecap:round; stroke-linejoin:round; stroke-width:2; stroke-opacity:0.1; fill:none" points="246.598,1122.89 2352.76,1122.89 "/>
<polyline clip-path="url(#clip541)" style="stroke:#000000; stroke-linecap:round; stroke-linejoin:round; stroke-width:2; stroke-opacity:0.1; fill:none" points="246.598,861.542 2352.76,861.542 "/>
<polyline clip-path="url(#clip541)" style="stroke:#000000; stroke-linecap:round; stroke-linejoin:round; stroke-width:2; stroke-opacity:0.1; fill:none" points="246.598,600.194 2352.76,600.194 "/>
<polyline clip-path="url(#clip541)" style="stroke:#000000; stroke-linecap:round; stroke-linejoin:round; stroke-width:2; stroke-opacity:0.1; fill:none" points="246.598,338.846 2352.76,338.846 "/>
<polyline clip-path="url(#clip541)" style="stroke:#000000; stroke-linecap:round; stroke-linejoin:round; stroke-width:2; stroke-opacity:0.1; fill:none" points="246.598,77.4977 2352.76,77.4977 "/>
<polyline clip-path="url(#clip540)" style="stroke:#000000; stroke-linecap:round; stroke-linejoin:round; stroke-width:4; stroke-opacity:1; fill:none" points="246.598,1423.18 2352.76,1423.18 "/>
<polyline clip-path="url(#clip540)" style="stroke:#000000; stroke-linecap:round; stroke-linejoin:round; stroke-width:4; stroke-opacity:1; fill:none" points="246.598,1423.18 246.598,1404.28 "/>
<polyline clip-path="url(#clip540)" style="stroke:#000000; stroke-linecap:round; stroke-linejoin:round; stroke-width:4; stroke-opacity:1; fill:none" points="547.477,1423.18 547.477,1404.28 "/>
<polyline clip-path="url(#clip540)" style="stroke:#000000; stroke-linecap:round; stroke-linejoin:round; stroke-width:4; stroke-opacity:1; fill:none" points="848.357,1423.18 848.357,1404.28 "/>
<polyline clip-path="url(#clip540)" style="stroke:#000000; stroke-linecap:round; stroke-linejoin:round; stroke-width:4; stroke-opacity:1; fill:none" points="1149.24,1423.18 1149.24,1404.28 "/>
<polyline clip-path="url(#clip540)" style="stroke:#000000; stroke-linecap:round; stroke-linejoin:round; stroke-width:4; stroke-opacity:1; fill:none" points="1450.12,1423.18 1450.12,1404.28 "/>
<polyline clip-path="url(#clip540)" style="stroke:#000000; stroke-linecap:round; stroke-linejoin:round; stroke-width:4; stroke-opacity:1; fill:none" points="1751,1423.18 1751,1404.28 "/>
<polyline clip-path="url(#clip540)" style="stroke:#000000; stroke-linecap:round; stroke-linejoin:round; stroke-width:4; stroke-opacity:1; fill:none" points="2051.88,1423.18 2051.88,1404.28 "/>
<polyline clip-path="url(#clip540)" style="stroke:#000000; stroke-linecap:round; stroke-linejoin:round; stroke-width:4; stroke-opacity:1; fill:none" points="2352.76,1423.18 2352.76,1404.28 "/>
<path clip-path="url(#clip540)" d="M246.598 1454.1 Q242.987 1454.1 241.158 1457.66 Q239.352 1461.2 239.352 1468.33 Q239.352 1475.44 241.158 1479.01 Q242.987 1482.55 246.598 1482.55 Q250.232 1482.55 252.038 1479.01 Q253.866 1475.44 253.866 1468.33 Q253.866 1461.2 252.038 1457.66 Q250.232 1454.1 246.598 1454.1 M246.598 1450.39 Q252.408 1450.39 255.463 1455 Q258.542 1459.58 258.542 1468.33 Q258.542 1477.06 255.463 1481.67 Q252.408 1486.25 246.598 1486.25 Q240.788 1486.25 237.709 1481.67 Q234.653 1477.06 234.653 1468.33 Q234.653 1459.58 237.709 1455 Q240.788 1450.39 246.598 1450.39 Z" fill="#000000" fill-rule="nonzero" fill-opacity="1" /><path clip-path="url(#clip540)" d="M507.084 1481.64 L514.723 1481.64 L514.723 1455.28 L506.413 1456.95 L506.413 1452.69 L514.677 1451.02 L519.353 1451.02 L519.353 1481.64 L526.991 1481.64 L526.991 1485.58 L507.084 1485.58 L507.084 1481.64 Z" fill="#000000" fill-rule="nonzero" fill-opacity="1" /><path clip-path="url(#clip540)" d="M546.436 1454.1 Q542.825 1454.1 540.996 1457.66 Q539.19 1461.2 539.19 1468.33 Q539.19 1475.44 540.996 1479.01 Q542.825 1482.55 546.436 1482.55 Q550.07 1482.55 551.876 1479.01 Q553.704 1475.44 553.704 1468.33 Q553.704 1461.2 551.876 1457.66 Q550.07 1454.1 546.436 1454.1 M546.436 1450.39 Q552.246 1450.39 555.302 1455 Q558.38 1459.58 558.38 1468.33 Q558.38 1477.06 555.302 1481.67 Q552.246 1486.25 546.436 1486.25 Q540.626 1486.25 537.547 1481.67 Q534.491 1477.06 534.491 1468.33 Q534.491 1459.58 537.547 1455 Q540.626 1450.39 546.436 1450.39 Z" fill="#000000" fill-rule="nonzero" fill-opacity="1" /><path clip-path="url(#clip540)" d="M576.598 1454.1 Q572.987 1454.1 571.158 1457.66 Q569.352 1461.2 569.352 1468.33 Q569.352 1475.44 571.158 1479.01 Q572.987 1482.55 576.598 1482.55 Q580.232 1482.55 582.037 1479.01 Q583.866 1475.44 583.866 1468.33 Q583.866 1461.2 582.037 1457.66 Q580.232 1454.1 576.598 1454.1 M576.598 1450.39 Q582.408 1450.39 585.463 1455 Q588.542 1459.58 588.542 1468.33 Q588.542 1477.06 585.463 1481.67 Q582.408 1486.25 576.598 1486.25 Q570.788 1486.25 567.709 1481.67 Q564.653 1477.06 564.653 1468.33 Q564.653 1459.58 567.709 1455 Q570.788 1450.39 576.598 1450.39 Z" fill="#000000" fill-rule="nonzero" fill-opacity="1" /><path clip-path="url(#clip540)" d="M812.05 1481.64 L828.369 1481.64 L828.369 1485.58 L806.425 1485.58 L806.425 1481.64 Q809.087 1478.89 813.67 1474.26 Q818.276 1469.61 819.457 1468.27 Q821.702 1465.74 822.582 1464.01 Q823.485 1462.25 823.485 1460.56 Q823.485 1457.8 821.54 1456.07 Q819.619 1454.33 816.517 1454.33 Q814.318 1454.33 811.864 1455.09 Q809.434 1455.86 806.656 1457.41 L806.656 1452.69 Q809.48 1451.55 811.934 1450.97 Q814.387 1450.39 816.425 1450.39 Q821.795 1450.39 824.989 1453.08 Q828.184 1455.77 828.184 1460.26 Q828.184 1462.39 827.374 1464.31 Q826.587 1466.2 824.48 1468.8 Q823.901 1469.47 820.8 1472.69 Q817.698 1475.88 812.05 1481.64 Z" fill="#000000" fill-rule="nonzero" fill-opacity="1" /><path clip-path="url(#clip540)" d="M848.184 1454.1 Q844.573 1454.1 842.744 1457.66 Q840.938 1461.2 840.938 1468.33 Q840.938 1475.44 842.744 1479.01 Q844.573 1482.55 848.184 1482.55 Q851.818 1482.55 853.623 1479.01 Q855.452 1475.44 855.452 1468.33 Q855.452 1461.2 853.623 1457.66 Q851.818 1454.1 848.184 1454.1 M848.184 1450.39 Q853.994 1450.39 857.049 1455 Q860.128 1459.58 860.128 1468.33 Q860.128 1477.06 857.049 1481.67 Q853.994 1486.25 848.184 1486.25 Q842.373 1486.25 839.295 1481.67 Q836.239 1477.06 836.239 1468.33 Q836.239 1459.58 839.295 1455 Q842.373 1450.39 848.184 1450.39 Z" fill="#000000" fill-rule="nonzero" fill-opacity="1" /><path clip-path="url(#clip540)" d="M878.345 1454.1 Q874.734 1454.1 872.906 1457.66 Q871.1 1461.2 871.1 1468.33 Q871.1 1475.44 872.906 1479.01 Q874.734 1482.55 878.345 1482.55 Q881.98 1482.55 883.785 1479.01 Q885.614 1475.44 885.614 1468.33 Q885.614 1461.2 883.785 1457.66 Q881.98 1454.1 878.345 1454.1 M878.345 1450.39 Q884.156 1450.39 887.211 1455 Q890.29 1459.58 890.29 1468.33 Q890.29 1477.06 887.211 1481.67 Q884.156 1486.25 878.345 1486.25 Q872.535 1486.25 869.457 1481.67 Q866.401 1477.06 866.401 1468.33 Q866.401 1459.58 869.457 1455 Q872.535 1450.39 878.345 1450.39 Z" fill="#000000" fill-rule="nonzero" fill-opacity="1" /><path clip-path="url(#clip540)" d="M1123 1466.95 Q1126.36 1467.66 1128.23 1469.93 Q1130.13 1472.2 1130.13 1475.53 Q1130.13 1480.65 1126.61 1483.45 Q1123.09 1486.25 1116.61 1486.25 Q1114.43 1486.25 1112.12 1485.81 Q1109.83 1485.39 1107.37 1484.54 L1107.37 1480.02 Q1109.32 1481.16 1111.63 1481.74 Q1113.95 1482.32 1116.47 1482.32 Q1120.87 1482.32 1123.16 1480.58 Q1125.48 1478.84 1125.48 1475.53 Q1125.48 1472.48 1123.32 1470.77 Q1121.19 1469.03 1117.37 1469.03 L1113.35 1469.03 L1113.35 1465.19 L1117.56 1465.19 Q1121.01 1465.19 1122.84 1463.82 Q1124.67 1462.43 1124.67 1459.84 Q1124.67 1457.18 1122.77 1455.77 Q1120.89 1454.33 1117.37 1454.33 Q1115.45 1454.33 1113.25 1454.75 Q1111.05 1455.16 1108.42 1456.04 L1108.42 1451.88 Q1111.08 1451.14 1113.39 1450.77 Q1115.73 1450.39 1117.79 1450.39 Q1123.11 1450.39 1126.22 1452.83 Q1129.32 1455.23 1129.32 1459.35 Q1129.32 1462.22 1127.67 1464.21 Q1126.03 1466.18 1123 1466.95 Z" fill="#000000" fill-rule="nonzero" fill-opacity="1" /><path clip-path="url(#clip540)" d="M1148.99 1454.1 Q1145.38 1454.1 1143.55 1457.66 Q1141.75 1461.2 1141.75 1468.33 Q1141.75 1475.44 1143.55 1479.01 Q1145.38 1482.55 1148.99 1482.55 Q1152.63 1482.55 1154.43 1479.01 Q1156.26 1475.44 1156.26 1468.33 Q1156.26 1461.2 1154.43 1457.66 Q1152.63 1454.1 1148.99 1454.1 M1148.99 1450.39 Q1154.8 1450.39 1157.86 1455 Q1160.94 1459.58 1160.94 1468.33 Q1160.94 1477.06 1157.86 1481.67 Q1154.8 1486.25 1148.99 1486.25 Q1143.18 1486.25 1140.11 1481.67 Q1137.05 1477.06 1137.05 1468.33 Q1137.05 1459.58 1140.11 1455 Q1143.18 1450.39 1148.99 1450.39 Z" fill="#000000" fill-rule="nonzero" fill-opacity="1" /><path clip-path="url(#clip540)" d="M1179.16 1454.1 Q1175.54 1454.1 1173.72 1457.66 Q1171.91 1461.2 1171.91 1468.33 Q1171.91 1475.44 1173.72 1479.01 Q1175.54 1482.55 1179.16 1482.55 Q1182.79 1482.55 1184.6 1479.01 Q1186.42 1475.44 1186.42 1468.33 Q1186.42 1461.2 1184.6 1457.66 Q1182.79 1454.1 1179.16 1454.1 M1179.16 1450.39 Q1184.97 1450.39 1188.02 1455 Q1191.1 1459.58 1191.1 1468.33 Q1191.1 1477.06 1188.02 1481.67 Q1184.97 1486.25 1179.16 1486.25 Q1173.35 1486.25 1170.27 1481.67 Q1167.21 1477.06 1167.21 1468.33 Q1167.21 1459.58 1170.27 1455 Q1173.35 1450.39 1179.16 1450.39 Z" fill="#000000" fill-rule="nonzero" fill-opacity="1" /><path clip-path="url(#clip540)" d="M1423.21 1455.09 L1411.4 1473.54 L1423.21 1473.54 L1423.21 1455.09 M1421.98 1451.02 L1427.86 1451.02 L1427.86 1473.54 L1432.79 1473.54 L1432.79 1477.43 L1427.86 1477.43 L1427.86 1485.58 L1423.21 1485.58 L1423.21 1477.43 L1407.61 1477.43 L1407.61 1472.92 L1421.98 1451.02 Z" fill="#000000" fill-rule="nonzero" fill-opacity="1" /><path clip-path="url(#clip540)" d="M1450.52 1454.1 Q1446.91 1454.1 1445.08 1457.66 Q1443.28 1461.2 1443.28 1468.33 Q1443.28 1475.44 1445.08 1479.01 Q1446.91 1482.55 1450.52 1482.55 Q1454.16 1482.55 1455.96 1479.01 Q1457.79 1475.44 1457.79 1468.33 Q1457.79 1461.2 1455.96 1457.66 Q1454.16 1454.1 1450.52 1454.1 M1450.52 1450.39 Q1456.33 1450.39 1459.39 1455 Q1462.47 1459.58 1462.47 1468.33 Q1462.47 1477.06 1459.39 1481.67 Q1456.33 1486.25 1450.52 1486.25 Q1444.71 1486.25 1441.63 1481.67 Q1438.58 1477.06 1438.58 1468.33 Q1438.58 1459.58 1441.63 1455 Q1444.71 1450.39 1450.52 1450.39 Z" fill="#000000" fill-rule="nonzero" fill-opacity="1" /><path clip-path="url(#clip540)" d="M1480.68 1454.1 Q1477.07 1454.1 1475.24 1457.66 Q1473.44 1461.2 1473.44 1468.33 Q1473.44 1475.44 1475.24 1479.01 Q1477.07 1482.55 1480.68 1482.55 Q1484.32 1482.55 1486.12 1479.01 Q1487.95 1475.44 1487.95 1468.33 Q1487.95 1461.2 1486.12 1457.66 Q1484.32 1454.1 1480.68 1454.1 M1480.68 1450.39 Q1486.49 1450.39 1489.55 1455 Q1492.63 1459.58 1492.63 1468.33 Q1492.63 1477.06 1489.55 1481.67 Q1486.49 1486.25 1480.68 1486.25 Q1474.87 1486.25 1471.79 1481.67 Q1468.74 1477.06 1468.74 1468.33 Q1468.74 1459.58 1471.79 1455 Q1474.87 1450.39 1480.68 1450.39 Z" fill="#000000" fill-rule="nonzero" fill-opacity="1" /><path clip-path="url(#clip540)" d="M1710.61 1451.02 L1728.97 1451.02 L1728.97 1454.96 L1714.9 1454.96 L1714.9 1463.43 Q1715.92 1463.08 1716.93 1462.92 Q1717.95 1462.73 1718.97 1462.73 Q1724.76 1462.73 1728.14 1465.9 Q1731.52 1469.08 1731.52 1474.49 Q1731.52 1480.07 1728.05 1483.17 Q1724.57 1486.25 1718.25 1486.25 Q1716.08 1486.25 1713.81 1485.88 Q1711.56 1485.51 1709.16 1484.77 L1709.16 1480.07 Q1711.24 1481.2 1713.46 1481.76 Q1715.68 1482.32 1718.16 1482.32 Q1722.17 1482.32 1724.5 1480.21 Q1726.84 1478.1 1726.84 1474.49 Q1726.84 1470.88 1724.5 1468.77 Q1722.17 1466.67 1718.16 1466.67 Q1716.29 1466.67 1714.41 1467.08 Q1712.56 1467.5 1710.61 1468.38 L1710.61 1451.02 Z" fill="#000000" fill-rule="nonzero" fill-opacity="1" /><path clip-path="url(#clip540)" d="M1750.73 1454.1 Q1747.12 1454.1 1745.29 1457.66 Q1743.48 1461.2 1743.48 1468.33 Q1743.48 1475.44 1745.29 1479.01 Q1747.12 1482.55 1750.73 1482.55 Q1754.36 1482.55 1756.17 1479.01 Q1758 1475.44 1758 1468.33 Q1758 1461.2 1756.17 1457.66 Q1754.36 1454.1 1750.73 1454.1 M1750.73 1450.39 Q1756.54 1450.39 1759.6 1455 Q1762.67 1459.58 1762.67 1468.33 Q1762.67 1477.06 1759.6 1481.67 Q1756.54 1486.25 1750.73 1486.25 Q1744.92 1486.25 1741.84 1481.67 Q1738.79 1477.06 1738.79 1468.33 Q1738.79 1459.58 1741.84 1455 Q1744.92 1450.39 1750.73 1450.39 Z" fill="#000000" fill-rule="nonzero" fill-opacity="1" /><path clip-path="url(#clip540)" d="M1780.89 1454.1 Q1777.28 1454.1 1775.45 1457.66 Q1773.65 1461.2 1773.65 1468.33 Q1773.65 1475.44 1775.45 1479.01 Q1777.28 1482.55 1780.89 1482.55 Q1784.53 1482.55 1786.33 1479.01 Q1788.16 1475.44 1788.16 1468.33 Q1788.16 1461.2 1786.33 1457.66 Q1784.53 1454.1 1780.89 1454.1 M1780.89 1450.39 Q1786.7 1450.39 1789.76 1455 Q1792.84 1459.58 1792.84 1468.33 Q1792.84 1477.06 1789.76 1481.67 Q1786.7 1486.25 1780.89 1486.25 Q1775.08 1486.25 1772 1481.67 Q1768.95 1477.06 1768.95 1468.33 Q1768.95 1459.58 1772 1455 Q1775.08 1450.39 1780.89 1450.39 Z" fill="#000000" fill-rule="nonzero" fill-opacity="1" /><path clip-path="url(#clip540)" d="M2022.2 1466.44 Q2019.05 1466.44 2017.2 1468.59 Q2015.37 1470.74 2015.37 1474.49 Q2015.37 1478.22 2017.2 1480.39 Q2019.05 1482.55 2022.2 1482.55 Q2025.35 1482.55 2027.18 1480.39 Q2029.03 1478.22 2029.03 1474.49 Q2029.03 1470.74 2027.18 1468.59 Q2025.35 1466.44 2022.2 1466.44 M2031.48 1451.78 L2031.48 1456.04 Q2029.72 1455.21 2027.92 1454.77 Q2026.14 1454.33 2024.38 1454.33 Q2019.75 1454.33 2017.29 1457.45 Q2014.86 1460.58 2014.52 1466.9 Q2015.88 1464.89 2017.94 1463.82 Q2020 1462.73 2022.48 1462.73 Q2027.69 1462.73 2030.7 1465.9 Q2033.73 1469.05 2033.73 1474.49 Q2033.73 1479.82 2030.58 1483.03 Q2027.43 1486.25 2022.2 1486.25 Q2016.21 1486.25 2013.03 1481.67 Q2009.86 1477.06 2009.86 1468.33 Q2009.86 1460.14 2013.75 1455.28 Q2017.64 1450.39 2024.19 1450.39 Q2025.95 1450.39 2027.73 1450.74 Q2029.54 1451.09 2031.48 1451.78 Z" fill="#000000" fill-rule="nonzero" fill-opacity="1" /><path clip-path="url(#clip540)" d="M2051.78 1454.1 Q2048.17 1454.1 2046.34 1457.66 Q2044.54 1461.2 2044.54 1468.33 Q2044.54 1475.44 2046.34 1479.01 Q2048.17 1482.55 2051.78 1482.55 Q2055.42 1482.55 2057.22 1479.01 Q2059.05 1475.44 2059.05 1468.33 Q2059.05 1461.2 2057.22 1457.66 Q2055.42 1454.1 2051.78 1454.1 M2051.78 1450.39 Q2057.59 1450.39 2060.65 1455 Q2063.73 1459.58 2063.73 1468.33 Q2063.73 1477.06 2060.65 1481.67 Q2057.59 1486.25 2051.78 1486.25 Q2045.97 1486.25 2042.89 1481.67 Q2039.84 1477.06 2039.84 1468.33 Q2039.84 1459.58 2042.89 1455 Q2045.97 1450.39 2051.78 1450.39 Z" fill="#000000" fill-rule="nonzero" fill-opacity="1" /><path clip-path="url(#clip540)" d="M2081.95 1454.1 Q2078.33 1454.1 2076.51 1457.66 Q2074.7 1461.2 2074.7 1468.33 Q2074.7 1475.44 2076.51 1479.01 Q2078.33 1482.55 2081.95 1482.55 Q2085.58 1482.55 2087.39 1479.01 Q2089.21 1475.44 2089.21 1468.33 Q2089.21 1461.2 2087.39 1457.66 Q2085.58 1454.1 2081.95 1454.1 M2081.95 1450.39 Q2087.76 1450.39 2090.81 1455 Q2093.89 1459.58 2093.89 1468.33 Q2093.89 1477.06 2090.81 1481.67 Q2087.76 1486.25 2081.95 1486.25 Q2076.14 1486.25 2073.06 1481.67 Q2070 1477.06 2070 1468.33 Q2070 1459.58 2073.06 1455 Q2076.14 1450.39 2081.95 1450.39 Z" fill="#000000" fill-rule="nonzero" fill-opacity="1" /><path clip-path="url(#clip540)" d="M2311.03 1451.02 L2333.25 1451.02 L2333.25 1453.01 L2320.71 1485.58 L2315.82 1485.58 L2327.63 1454.96 L2311.03 1454.96 L2311.03 1451.02 Z" fill="#000000" fill-rule="nonzero" fill-opacity="1" /><path clip-path="url(#clip540)" d="M2352.37 1454.1 Q2348.76 1454.1 2346.93 1457.66 Q2345.13 1461.2 2345.13 1468.33 Q2345.13 1475.44 2346.93 1479.01 Q2348.76 1482.55 2352.37 1482.55 Q2356.01 1482.55 2357.81 1479.01 Q2359.64 1475.44 2359.64 1468.33 Q2359.64 1461.2 2357.81 1457.66 Q2356.01 1454.1 2352.37 1454.1 M2352.37 1450.39 Q2358.18 1450.39 2361.24 1455 Q2364.32 1459.58 2364.32 1468.33 Q2364.32 1477.06 2361.24 1481.67 Q2358.18 1486.25 2352.37 1486.25 Q2346.56 1486.25 2343.49 1481.67 Q2340.43 1477.06 2340.43 1468.33 Q2340.43 1459.58 2343.49 1455 Q2346.56 1450.39 2352.37 1450.39 Z" fill="#000000" fill-rule="nonzero" fill-opacity="1" /><path clip-path="url(#clip540)" d="M2382.54 1454.1 Q2378.92 1454.1 2377.1 1457.66 Q2375.29 1461.2 2375.29 1468.33 Q2375.29 1475.44 2377.1 1479.01 Q2378.92 1482.55 2382.54 1482.55 Q2386.17 1482.55 2387.98 1479.01 Q2389.8 1475.44 2389.8 1468.33 Q2389.8 1461.2 2387.98 1457.66 Q2386.17 1454.1 2382.54 1454.1 M2382.54 1450.39 Q2388.35 1450.39 2391.4 1455 Q2394.48 1459.58 2394.48 1468.33 Q2394.48 1477.06 2391.4 1481.67 Q2388.35 1486.25 2382.54 1486.25 Q2376.73 1486.25 2373.65 1481.67 Q2370.59 1477.06 2370.59 1468.33 Q2370.59 1459.58 2373.65 1455 Q2376.73 1450.39 2382.54 1450.39 Z" fill="#000000" fill-rule="nonzero" fill-opacity="1" /><path clip-path="url(#clip540)" d="M1298.74 1522.27 L1298.74 1532.4 L1310.8 1532.4 L1310.8 1536.95 L1298.74 1536.95 L1298.74 1556.3 Q1298.74 1560.66 1299.92 1561.9 Q1301.13 1563.14 1304.79 1563.14 L1310.8 1563.14 L1310.8 1568.04 L1304.79 1568.04 Q1298.01 1568.04 1295.43 1565.53 Q1292.85 1562.98 1292.85 1556.3 L1292.85 1536.95 L1288.55 1536.95 L1288.55 1532.4 L1292.85 1532.4 L1292.85 1522.27 L1298.74 1522.27 Z" fill="#000000" fill-rule="nonzero" fill-opacity="1" /><polyline clip-path="url(#clip540)" style="stroke:#000000; stroke-linecap:round; stroke-linejoin:round; stroke-width:4; stroke-opacity:1; fill:none" points="246.598,1423.18 246.598,47.2441 "/>
<polyline clip-path="url(#clip540)" style="stroke:#000000; stroke-linecap:round; stroke-linejoin:round; stroke-width:4; stroke-opacity:1; fill:none" points="246.598,1384.24 265.495,1384.24 "/>
<polyline clip-path="url(#clip540)" style="stroke:#000000; stroke-linecap:round; stroke-linejoin:round; stroke-width:4; stroke-opacity:1; fill:none" points="246.598,1122.89 265.495,1122.89 "/>
<polyline clip-path="url(#clip540)" style="stroke:#000000; stroke-linecap:round; stroke-linejoin:round; stroke-width:4; stroke-opacity:1; fill:none" points="246.598,861.542 265.495,861.542 "/>
<polyline clip-path="url(#clip540)" style="stroke:#000000; stroke-linecap:round; stroke-linejoin:round; stroke-width:4; stroke-opacity:1; fill:none" points="246.598,600.194 265.495,600.194 "/>
<polyline clip-path="url(#clip540)" style="stroke:#000000; stroke-linecap:round; stroke-linejoin:round; stroke-width:4; stroke-opacity:1; fill:none" points="246.598,338.846 265.495,338.846 "/>
<polyline clip-path="url(#clip540)" style="stroke:#000000; stroke-linecap:round; stroke-linejoin:round; stroke-width:4; stroke-opacity:1; fill:none" points="246.598,77.4977 265.495,77.4977 "/>
<path clip-path="url(#clip540)" d="M62.9365 1370.04 Q59.3254 1370.04 57.4967 1373.6 Q55.6912 1377.14 55.6912 1384.27 Q55.6912 1391.38 57.4967 1394.94 Q59.3254 1398.49 62.9365 1398.49 Q66.5707 1398.49 68.3763 1394.94 Q70.205 1391.38 70.205 1384.27 Q70.205 1377.14 68.3763 1373.6 Q66.5707 1370.04 62.9365 1370.04 M62.9365 1366.33 Q68.7467 1366.33 71.8022 1370.94 Q74.8809 1375.52 74.8809 1384.27 Q74.8809 1393 71.8022 1397.61 Q68.7467 1402.19 62.9365 1402.19 Q57.1264 1402.19 54.0477 1397.61 Q50.9921 1393 50.9921 1384.27 Q50.9921 1375.52 54.0477 1370.94 Q57.1264 1366.33 62.9365 1366.33 Z" fill="#000000" fill-rule="nonzero" fill-opacity="1" /><path clip-path="url(#clip540)" d="M83.0984 1395.64 L87.9827 1395.64 L87.9827 1401.52 L83.0984 1401.52 L83.0984 1395.64 Z" fill="#000000" fill-rule="nonzero" fill-opacity="1" /><path clip-path="url(#clip540)" d="M108.168 1370.04 Q104.557 1370.04 102.728 1373.6 Q100.922 1377.14 100.922 1384.27 Q100.922 1391.38 102.728 1394.94 Q104.557 1398.49 108.168 1398.49 Q111.802 1398.49 113.608 1394.94 Q115.436 1391.38 115.436 1384.27 Q115.436 1377.14 113.608 1373.6 Q111.802 1370.04 108.168 1370.04 M108.168 1366.33 Q113.978 1366.33 117.033 1370.94 Q120.112 1375.52 120.112 1384.27 Q120.112 1393 117.033 1397.61 Q113.978 1402.19 108.168 1402.19 Q102.358 1402.19 99.2789 1397.61 Q96.2234 1393 96.2234 1384.27 Q96.2234 1375.52 99.2789 1370.94 Q102.358 1366.33 108.168 1366.33 Z" fill="#000000" fill-rule="nonzero" fill-opacity="1" /><path clip-path="url(#clip540)" d="M138.33 1370.04 Q134.719 1370.04 132.89 1373.6 Q131.084 1377.14 131.084 1384.27 Q131.084 1391.38 132.89 1394.94 Q134.719 1398.49 138.33 1398.49 Q141.964 1398.49 143.769 1394.94 Q145.598 1391.38 145.598 1384.27 Q145.598 1377.14 143.769 1373.6 Q141.964 1370.04 138.33 1370.04 M138.33 1366.33 Q144.14 1366.33 147.195 1370.94 Q150.274 1375.52 150.274 1384.27 Q150.274 1393 147.195 1397.61 Q144.14 1402.19 138.33 1402.19 Q132.519 1402.19 129.441 1397.61 Q126.385 1393 126.385 1384.27 Q126.385 1375.52 129.441 1370.94 Q132.519 1366.33 138.33 1366.33 Z" fill="#000000" fill-rule="nonzero" fill-opacity="1" /><path clip-path="url(#clip540)" d="M168.491 1370.04 Q164.88 1370.04 163.052 1373.6 Q161.246 1377.14 161.246 1384.27 Q161.246 1391.38 163.052 1394.94 Q164.88 1398.49 168.491 1398.49 Q172.126 1398.49 173.931 1394.94 Q175.76 1391.38 175.76 1384.27 Q175.76 1377.14 173.931 1373.6 Q172.126 1370.04 168.491 1370.04 M168.491 1366.33 Q174.302 1366.33 177.357 1370.94 Q180.436 1375.52 180.436 1384.27 Q180.436 1393 177.357 1397.61 Q174.302 1402.19 168.491 1402.19 Q162.681 1402.19 159.603 1397.61 Q156.547 1393 156.547 1384.27 Q156.547 1375.52 159.603 1370.94 Q162.681 1366.33 168.491 1366.33 Z" fill="#000000" fill-rule="nonzero" fill-opacity="1" /><path clip-path="url(#clip540)" d="M198.653 1370.04 Q195.042 1370.04 193.214 1373.6 Q191.408 1377.14 191.408 1384.27 Q191.408 1391.38 193.214 1394.94 Q195.042 1398.49 198.653 1398.49 Q202.288 1398.49 204.093 1394.94 Q205.922 1391.38 205.922 1384.27 Q205.922 1377.14 204.093 1373.6 Q202.288 1370.04 198.653 1370.04 M198.653 1366.33 Q204.464 1366.33 207.519 1370.94 Q210.598 1375.52 210.598 1384.27 Q210.598 1393 207.519 1397.61 Q204.464 1402.19 198.653 1402.19 Q192.843 1402.19 189.765 1397.61 Q186.709 1393 186.709 1384.27 Q186.709 1375.52 189.765 1370.94 Q192.843 1366.33 198.653 1366.33 Z" fill="#000000" fill-rule="nonzero" fill-opacity="1" /><path clip-path="url(#clip540)" d="M63.9319 1108.69 Q60.3208 1108.69 58.4921 1112.25 Q56.6865 1115.8 56.6865 1122.92 Q56.6865 1130.03 58.4921 1133.6 Q60.3208 1137.14 63.9319 1137.14 Q67.5661 1137.14 69.3717 1133.6 Q71.2004 1130.03 71.2004 1122.92 Q71.2004 1115.8 69.3717 1112.25 Q67.5661 1108.69 63.9319 1108.69 M63.9319 1104.99 Q69.742 1104.99 72.7976 1109.59 Q75.8763 1114.17 75.8763 1122.92 Q75.8763 1131.65 72.7976 1136.26 Q69.742 1140.84 63.9319 1140.84 Q58.1217 1140.84 55.043 1136.26 Q51.9875 1131.65 51.9875 1122.92 Q51.9875 1114.17 55.043 1109.59 Q58.1217 1104.99 63.9319 1104.99 Z" fill="#000000" fill-rule="nonzero" fill-opacity="1" /><path clip-path="url(#clip540)" d="M84.0938 1134.29 L88.978 1134.29 L88.978 1140.17 L84.0938 1140.17 L84.0938 1134.29 Z" fill="#000000" fill-rule="nonzero" fill-opacity="1" /><path clip-path="url(#clip540)" d="M109.163 1108.69 Q105.552 1108.69 103.723 1112.25 Q101.918 1115.8 101.918 1122.92 Q101.918 1130.03 103.723 1133.6 Q105.552 1137.14 109.163 1137.14 Q112.797 1137.14 114.603 1133.6 Q116.432 1130.03 116.432 1122.92 Q116.432 1115.8 114.603 1112.25 Q112.797 1108.69 109.163 1108.69 M109.163 1104.99 Q114.973 1104.99 118.029 1109.59 Q121.107 1114.17 121.107 1122.92 Q121.107 1131.65 118.029 1136.26 Q114.973 1140.84 109.163 1140.84 Q103.353 1140.84 100.274 1136.26 Q97.2187 1131.65 97.2187 1122.92 Q97.2187 1114.17 100.274 1109.59 Q103.353 1104.99 109.163 1104.99 Z" fill="#000000" fill-rule="nonzero" fill-opacity="1" /><path clip-path="url(#clip540)" d="M139.325 1108.69 Q135.714 1108.69 133.885 1112.25 Q132.08 1115.8 132.08 1122.92 Q132.08 1130.03 133.885 1133.6 Q135.714 1137.14 139.325 1137.14 Q142.959 1137.14 144.765 1133.6 Q146.593 1130.03 146.593 1122.92 Q146.593 1115.8 144.765 1112.25 Q142.959 1108.69 139.325 1108.69 M139.325 1104.99 Q145.135 1104.99 148.191 1109.59 Q151.269 1114.17 151.269 1122.92 Q151.269 1131.65 148.191 1136.26 Q145.135 1140.84 139.325 1140.84 Q133.515 1140.84 130.436 1136.26 Q127.381 1131.65 127.381 1122.92 Q127.381 1114.17 130.436 1109.59 Q133.515 1104.99 139.325 1104.99 Z" fill="#000000" fill-rule="nonzero" fill-opacity="1" /><path clip-path="url(#clip540)" d="M169.487 1108.69 Q165.876 1108.69 164.047 1112.25 Q162.242 1115.8 162.242 1122.92 Q162.242 1130.03 164.047 1133.6 Q165.876 1137.14 169.487 1137.14 Q173.121 1137.14 174.927 1133.6 Q176.755 1130.03 176.755 1122.92 Q176.755 1115.8 174.927 1112.25 Q173.121 1108.69 169.487 1108.69 M169.487 1104.99 Q175.297 1104.99 178.353 1109.59 Q181.431 1114.17 181.431 1122.92 Q181.431 1131.65 178.353 1136.26 Q175.297 1140.84 169.487 1140.84 Q163.677 1140.84 160.598 1136.26 Q157.542 1131.65 157.542 1122.92 Q157.542 1114.17 160.598 1109.59 Q163.677 1104.99 169.487 1104.99 Z" fill="#000000" fill-rule="nonzero" fill-opacity="1" /><path clip-path="url(#clip540)" d="M189.695 1105.61 L208.051 1105.61 L208.051 1109.55 L193.977 1109.55 L193.977 1118.02 Q194.996 1117.67 196.014 1117.51 Q197.033 1117.32 198.052 1117.32 Q203.839 1117.32 207.218 1120.49 Q210.598 1123.67 210.598 1129.08 Q210.598 1134.66 207.126 1137.76 Q203.653 1140.84 197.334 1140.84 Q195.158 1140.84 192.89 1140.47 Q190.644 1140.1 188.237 1139.36 L188.237 1134.66 Q190.32 1135.8 192.542 1136.35 Q194.765 1136.91 197.241 1136.91 Q201.246 1136.91 203.584 1134.8 Q205.922 1132.69 205.922 1129.08 Q205.922 1125.47 203.584 1123.36 Q201.246 1121.26 197.241 1121.26 Q195.366 1121.26 193.491 1121.67 Q191.64 1122.09 189.695 1122.97 L189.695 1105.61 Z" fill="#000000" fill-rule="nonzero" fill-opacity="1" /><path clip-path="url(#clip540)" d="M62.9365 847.341 Q59.3254 847.341 57.4967 850.906 Q55.6912 854.447 55.6912 861.577 Q55.6912 868.683 57.4967 872.248 Q59.3254 875.79 62.9365 875.79 Q66.5707 875.79 68.3763 872.248 Q70.205 868.683 70.205 861.577 Q70.205 854.447 68.3763 850.906 Q66.5707 847.341 62.9365 847.341 M62.9365 843.637 Q68.7467 843.637 71.8022 848.244 Q74.8809 852.827 74.8809 861.577 Q74.8809 870.304 71.8022 874.91 Q68.7467 879.493 62.9365 879.493 Q57.1264 879.493 54.0477 874.91 Q50.9921 870.304 50.9921 861.577 Q50.9921 852.827 54.0477 848.244 Q57.1264 843.637 62.9365 843.637 Z" fill="#000000" fill-rule="nonzero" fill-opacity="1" /><path clip-path="url(#clip540)" d="M83.0984 872.942 L87.9827 872.942 L87.9827 878.822 L83.0984 878.822 L83.0984 872.942 Z" fill="#000000" fill-rule="nonzero" fill-opacity="1" /><path clip-path="url(#clip540)" d="M108.168 847.341 Q104.557 847.341 102.728 850.906 Q100.922 854.447 100.922 861.577 Q100.922 868.683 102.728 872.248 Q104.557 875.79 108.168 875.79 Q111.802 875.79 113.608 872.248 Q115.436 868.683 115.436 861.577 Q115.436 854.447 113.608 850.906 Q111.802 847.341 108.168 847.341 M108.168 843.637 Q113.978 843.637 117.033 848.244 Q120.112 852.827 120.112 861.577 Q120.112 870.304 117.033 874.91 Q113.978 879.493 108.168 879.493 Q102.358 879.493 99.2789 874.91 Q96.2234 870.304 96.2234 861.577 Q96.2234 852.827 99.2789 848.244 Q102.358 843.637 108.168 843.637 Z" fill="#000000" fill-rule="nonzero" fill-opacity="1" /><path clip-path="url(#clip540)" d="M138.33 847.341 Q134.719 847.341 132.89 850.906 Q131.084 854.447 131.084 861.577 Q131.084 868.683 132.89 872.248 Q134.719 875.79 138.33 875.79 Q141.964 875.79 143.769 872.248 Q145.598 868.683 145.598 861.577 Q145.598 854.447 143.769 850.906 Q141.964 847.341 138.33 847.341 M138.33 843.637 Q144.14 843.637 147.195 848.244 Q150.274 852.827 150.274 861.577 Q150.274 870.304 147.195 874.91 Q144.14 879.493 138.33 879.493 Q132.519 879.493 129.441 874.91 Q126.385 870.304 126.385 861.577 Q126.385 852.827 129.441 848.244 Q132.519 843.637 138.33 843.637 Z" fill="#000000" fill-rule="nonzero" fill-opacity="1" /><path clip-path="url(#clip540)" d="M159.302 874.887 L166.941 874.887 L166.941 848.521 L158.63 850.188 L158.63 845.929 L166.894 844.262 L171.57 844.262 L171.57 874.887 L179.209 874.887 L179.209 878.822 L159.302 878.822 L159.302 874.887 Z" fill="#000000" fill-rule="nonzero" fill-opacity="1" /><path clip-path="url(#clip540)" d="M198.653 847.341 Q195.042 847.341 193.214 850.906 Q191.408 854.447 191.408 861.577 Q191.408 868.683 193.214 872.248 Q195.042 875.79 198.653 875.79 Q202.288 875.79 204.093 872.248 Q205.922 868.683 205.922 861.577 Q205.922 854.447 204.093 850.906 Q202.288 847.341 198.653 847.341 M198.653 843.637 Q204.464 843.637 207.519 848.244 Q210.598 852.827 210.598 861.577 Q210.598 870.304 207.519 874.91 Q204.464 879.493 198.653 879.493 Q192.843 879.493 189.765 874.91 Q186.709 870.304 186.709 861.577 Q186.709 852.827 189.765 848.244 Q192.843 843.637 198.653 843.637 Z" fill="#000000" fill-rule="nonzero" fill-opacity="1" /><path clip-path="url(#clip540)" d="M63.9319 585.993 Q60.3208 585.993 58.4921 589.557 Q56.6865 593.099 56.6865 600.229 Q56.6865 607.335 58.4921 610.9 Q60.3208 614.442 63.9319 614.442 Q67.5661 614.442 69.3717 610.9 Q71.2004 607.335 71.2004 600.229 Q71.2004 593.099 69.3717 589.557 Q67.5661 585.993 63.9319 585.993 M63.9319 582.289 Q69.742 582.289 72.7976 586.895 Q75.8763 591.479 75.8763 600.229 Q75.8763 608.955 72.7976 613.562 Q69.742 618.145 63.9319 618.145 Q58.1217 618.145 55.043 613.562 Q51.9875 608.955 51.9875 600.229 Q51.9875 591.479 55.043 586.895 Q58.1217 582.289 63.9319 582.289 Z" fill="#000000" fill-rule="nonzero" fill-opacity="1" /><path clip-path="url(#clip540)" d="M84.0938 611.594 L88.978 611.594 L88.978 617.474 L84.0938 617.474 L84.0938 611.594 Z" fill="#000000" fill-rule="nonzero" fill-opacity="1" /><path clip-path="url(#clip540)" d="M109.163 585.993 Q105.552 585.993 103.723 589.557 Q101.918 593.099 101.918 600.229 Q101.918 607.335 103.723 610.9 Q105.552 614.442 109.163 614.442 Q112.797 614.442 114.603 610.9 Q116.432 607.335 116.432 600.229 Q116.432 593.099 114.603 589.557 Q112.797 585.993 109.163 585.993 M109.163 582.289 Q114.973 582.289 118.029 586.895 Q121.107 591.479 121.107 600.229 Q121.107 608.955 118.029 613.562 Q114.973 618.145 109.163 618.145 Q103.353 618.145 100.274 613.562 Q97.2187 608.955 97.2187 600.229 Q97.2187 591.479 100.274 586.895 Q103.353 582.289 109.163 582.289 Z" fill="#000000" fill-rule="nonzero" fill-opacity="1" /><path clip-path="url(#clip540)" d="M139.325 585.993 Q135.714 585.993 133.885 589.557 Q132.08 593.099 132.08 600.229 Q132.08 607.335 133.885 610.9 Q135.714 614.442 139.325 614.442 Q142.959 614.442 144.765 610.9 Q146.593 607.335 146.593 600.229 Q146.593 593.099 144.765 589.557 Q142.959 585.993 139.325 585.993 M139.325 582.289 Q145.135 582.289 148.191 586.895 Q151.269 591.479 151.269 600.229 Q151.269 608.955 148.191 613.562 Q145.135 618.145 139.325 618.145 Q133.515 618.145 130.436 613.562 Q127.381 608.955 127.381 600.229 Q127.381 591.479 130.436 586.895 Q133.515 582.289 139.325 582.289 Z" fill="#000000" fill-rule="nonzero" fill-opacity="1" /><path clip-path="url(#clip540)" d="M160.297 613.539 L167.936 613.539 L167.936 587.173 L159.626 588.84 L159.626 584.581 L167.89 582.914 L172.566 582.914 L172.566 613.539 L180.204 613.539 L180.204 617.474 L160.297 617.474 L160.297 613.539 Z" fill="#000000" fill-rule="nonzero" fill-opacity="1" /><path clip-path="url(#clip540)" d="M189.695 582.914 L208.051 582.914 L208.051 586.849 L193.977 586.849 L193.977 595.321 Q194.996 594.974 196.014 594.812 Q197.033 594.627 198.052 594.627 Q203.839 594.627 207.218 597.798 Q210.598 600.969 210.598 606.386 Q210.598 611.965 207.126 615.067 Q203.653 618.145 197.334 618.145 Q195.158 618.145 192.89 617.775 Q190.644 617.404 188.237 616.664 L188.237 611.965 Q190.32 613.099 192.542 613.655 Q194.765 614.21 197.241 614.21 Q201.246 614.21 203.584 612.104 Q205.922 609.997 205.922 606.386 Q205.922 602.775 203.584 600.668 Q201.246 598.562 197.241 598.562 Q195.366 598.562 193.491 598.979 Q191.64 599.395 189.695 600.275 L189.695 582.914 Z" fill="#000000" fill-rule="nonzero" fill-opacity="1" /><path clip-path="url(#clip540)" d="M62.9365 324.645 Q59.3254 324.645 57.4967 328.209 Q55.6912 331.751 55.6912 338.881 Q55.6912 345.987 57.4967 349.552 Q59.3254 353.093 62.9365 353.093 Q66.5707 353.093 68.3763 349.552 Q70.205 345.987 70.205 338.881 Q70.205 331.751 68.3763 328.209 Q66.5707 324.645 62.9365 324.645 M62.9365 320.941 Q68.7467 320.941 71.8022 325.547 Q74.8809 330.131 74.8809 338.881 Q74.8809 347.607 71.8022 352.214 Q68.7467 356.797 62.9365 356.797 Q57.1264 356.797 54.0477 352.214 Q50.9921 347.607 50.9921 338.881 Q50.9921 330.131 54.0477 325.547 Q57.1264 320.941 62.9365 320.941 Z" fill="#000000" fill-rule="nonzero" fill-opacity="1" /><path clip-path="url(#clip540)" d="M83.0984 350.246 L87.9827 350.246 L87.9827 356.126 L83.0984 356.126 L83.0984 350.246 Z" fill="#000000" fill-rule="nonzero" fill-opacity="1" /><path clip-path="url(#clip540)" d="M108.168 324.645 Q104.557 324.645 102.728 328.209 Q100.922 331.751 100.922 338.881 Q100.922 345.987 102.728 349.552 Q104.557 353.093 108.168 353.093 Q111.802 353.093 113.608 349.552 Q115.436 345.987 115.436 338.881 Q115.436 331.751 113.608 328.209 Q111.802 324.645 108.168 324.645 M108.168 320.941 Q113.978 320.941 117.033 325.547 Q120.112 330.131 120.112 338.881 Q120.112 347.607 117.033 352.214 Q113.978 356.797 108.168 356.797 Q102.358 356.797 99.2789 352.214 Q96.2234 347.607 96.2234 338.881 Q96.2234 330.131 99.2789 325.547 Q102.358 320.941 108.168 320.941 Z" fill="#000000" fill-rule="nonzero" fill-opacity="1" /><path clip-path="url(#clip540)" d="M138.33 324.645 Q134.719 324.645 132.89 328.209 Q131.084 331.751 131.084 338.881 Q131.084 345.987 132.89 349.552 Q134.719 353.093 138.33 353.093 Q141.964 353.093 143.769 349.552 Q145.598 345.987 145.598 338.881 Q145.598 331.751 143.769 328.209 Q141.964 324.645 138.33 324.645 M138.33 320.941 Q144.14 320.941 147.195 325.547 Q150.274 330.131 150.274 338.881 Q150.274 347.607 147.195 352.214 Q144.14 356.797 138.33 356.797 Q132.519 356.797 129.441 352.214 Q126.385 347.607 126.385 338.881 Q126.385 330.131 129.441 325.547 Q132.519 320.941 138.33 320.941 Z" fill="#000000" fill-rule="nonzero" fill-opacity="1" /><path clip-path="url(#clip540)" d="M162.519 352.191 L178.839 352.191 L178.839 356.126 L156.894 356.126 L156.894 352.191 Q159.556 349.436 164.14 344.806 Q168.746 340.154 169.927 338.811 Q172.172 336.288 173.052 334.552 Q173.954 332.793 173.954 331.103 Q173.954 328.348 172.01 326.612 Q170.089 324.876 166.987 324.876 Q164.788 324.876 162.334 325.64 Q159.904 326.404 157.126 327.955 L157.126 323.232 Q159.95 322.098 162.404 321.52 Q164.857 320.941 166.894 320.941 Q172.265 320.941 175.459 323.626 Q178.653 326.311 178.653 330.802 Q178.653 332.932 177.843 334.853 Q177.056 336.751 174.95 339.344 Q174.371 340.015 171.269 343.232 Q168.167 346.427 162.519 352.191 Z" fill="#000000" fill-rule="nonzero" fill-opacity="1" /><path clip-path="url(#clip540)" d="M198.653 324.645 Q195.042 324.645 193.214 328.209 Q191.408 331.751 191.408 338.881 Q191.408 345.987 193.214 349.552 Q195.042 353.093 198.653 353.093 Q202.288 353.093 204.093 349.552 Q205.922 345.987 205.922 338.881 Q205.922 331.751 204.093 328.209 Q202.288 324.645 198.653 324.645 M198.653 320.941 Q204.464 320.941 207.519 325.547 Q210.598 330.131 210.598 338.881 Q210.598 347.607 207.519 352.214 Q204.464 356.797 198.653 356.797 Q192.843 356.797 189.765 352.214 Q186.709 347.607 186.709 338.881 Q186.709 330.131 189.765 325.547 Q192.843 320.941 198.653 320.941 Z" fill="#000000" fill-rule="nonzero" fill-opacity="1" /><path clip-path="url(#clip540)" d="M63.9319 63.2964 Q60.3208 63.2964 58.4921 66.8612 Q56.6865 70.4029 56.6865 77.5324 Q56.6865 84.6389 58.4921 88.2037 Q60.3208 91.7453 63.9319 91.7453 Q67.5661 91.7453 69.3717 88.2037 Q71.2004 84.6389 71.2004 77.5324 Q71.2004 70.4029 69.3717 66.8612 Q67.5661 63.2964 63.9319 63.2964 M63.9319 59.5927 Q69.742 59.5927 72.7976 64.1992 Q75.8763 68.7825 75.8763 77.5324 Q75.8763 86.2592 72.7976 90.8657 Q69.742 95.449 63.9319 95.449 Q58.1217 95.449 55.043 90.8657 Q51.9875 86.2592 51.9875 77.5324 Q51.9875 68.7825 55.043 64.1992 Q58.1217 59.5927 63.9319 59.5927 Z" fill="#000000" fill-rule="nonzero" fill-opacity="1" /><path clip-path="url(#clip540)" d="M84.0938 88.8981 L88.978 88.8981 L88.978 94.7777 L84.0938 94.7777 L84.0938 88.8981 Z" fill="#000000" fill-rule="nonzero" fill-opacity="1" /><path clip-path="url(#clip540)" d="M109.163 63.2964 Q105.552 63.2964 103.723 66.8612 Q101.918 70.4029 101.918 77.5324 Q101.918 84.6389 103.723 88.2037 Q105.552 91.7453 109.163 91.7453 Q112.797 91.7453 114.603 88.2037 Q116.432 84.6389 116.432 77.5324 Q116.432 70.4029 114.603 66.8612 Q112.797 63.2964 109.163 63.2964 M109.163 59.5927 Q114.973 59.5927 118.029 64.1992 Q121.107 68.7825 121.107 77.5324 Q121.107 86.2592 118.029 90.8657 Q114.973 95.449 109.163 95.449 Q103.353 95.449 100.274 90.8657 Q97.2187 86.2592 97.2187 77.5324 Q97.2187 68.7825 100.274 64.1992 Q103.353 59.5927 109.163 59.5927 Z" fill="#000000" fill-rule="nonzero" fill-opacity="1" /><path clip-path="url(#clip540)" d="M139.325 63.2964 Q135.714 63.2964 133.885 66.8612 Q132.08 70.4029 132.08 77.5324 Q132.08 84.6389 133.885 88.2037 Q135.714 91.7453 139.325 91.7453 Q142.959 91.7453 144.765 88.2037 Q146.593 84.6389 146.593 77.5324 Q146.593 70.4029 144.765 66.8612 Q142.959 63.2964 139.325 63.2964 M139.325 59.5927 Q145.135 59.5927 148.191 64.1992 Q151.269 68.7825 151.269 77.5324 Q151.269 86.2592 148.191 90.8657 Q145.135 95.449 139.325 95.449 Q133.515 95.449 130.436 90.8657 Q127.381 86.2592 127.381 77.5324 Q127.381 68.7825 130.436 64.1992 Q133.515 59.5927 139.325 59.5927 Z" fill="#000000" fill-rule="nonzero" fill-opacity="1" /><path clip-path="url(#clip540)" d="M163.515 90.8426 L179.834 90.8426 L179.834 94.7777 L157.89 94.7777 L157.89 90.8426 Q160.552 88.0879 165.135 83.4583 Q169.741 78.8056 170.922 77.463 Q173.167 74.9399 174.047 73.2038 Q174.95 71.4445 174.95 69.7547 Q174.95 67.0001 173.005 65.264 Q171.084 63.5279 167.982 63.5279 Q165.783 63.5279 163.329 64.2918 Q160.899 65.0557 158.121 66.6066 L158.121 61.8844 Q160.945 60.7501 163.399 60.1714 Q165.853 59.5927 167.89 59.5927 Q173.26 59.5927 176.454 62.2779 Q179.649 64.9631 179.649 69.4538 Q179.649 71.5834 178.839 73.5047 Q178.052 75.4028 175.945 77.9954 Q175.366 78.6667 172.265 81.8843 Q169.163 85.0787 163.515 90.8426 Z" fill="#000000" fill-rule="nonzero" fill-opacity="1" /><path clip-path="url(#clip540)" d="M189.695 60.2177 L208.051 60.2177 L208.051 64.1529 L193.977 64.1529 L193.977 72.6251 Q194.996 72.2778 196.014 72.1158 Q197.033 71.9306 198.052 71.9306 Q203.839 71.9306 207.218 75.1019 Q210.598 78.2732 210.598 83.6898 Q210.598 89.2685 207.126 92.3703 Q203.653 95.449 197.334 95.449 Q195.158 95.449 192.89 95.0786 Q190.644 94.7083 188.237 93.9675 L188.237 89.2685 Q190.32 90.4027 192.542 90.9583 Q194.765 91.5139 197.241 91.5139 Q201.246 91.5139 203.584 89.4074 Q205.922 87.3009 205.922 83.6898 Q205.922 80.0787 203.584 77.9723 Q201.246 75.8658 197.241 75.8658 Q195.366 75.8658 193.491 76.2825 Q191.64 76.6991 189.695 77.5787 L189.695 60.2177 Z" fill="#000000" fill-rule="nonzero" fill-opacity="1" /><polyline clip-path="url(#clip541)" style="stroke:#009af9; stroke-linecap:round; stroke-linejoin:round; stroke-width:4; stroke-opacity:1; fill:none" points="246.598,1384.24 248.706,1384.24 250.814,1384.24 252.923,1384.24 255.031,1384.24 257.139,1384.24 259.247,1384.24 261.356,1384.24 263.464,1384.24 265.572,1384.24 267.68,1384.24 269.789,1384.24 271.897,1384.24 274.005,1384.24 276.113,1384.24 278.222,1384.24 280.33,1384.24 282.438,1384.24 284.547,1384.24 286.655,1384.24 288.763,1384.24 290.871,1384.24 292.98,1384.24 295.088,1384.24 297.196,1384.24 299.304,1384.24 301.413,1384.24 303.521,1384.24 305.629,1384.24 307.737,1384.24 309.846,1384.24 311.954,1384.24 314.062,1384.24 316.171,1384.24 318.279,1384.24 320.387,1384.24 322.495,1384.24 324.604,1384.24 326.712,1384.24 328.82,1384.24 330.928,1384.24 333.037,1384.24 335.145,1384.24 337.253,1384.24 339.361,1384.24 341.47,1384.24 343.578,1384.24 345.686,1384.24 347.795,1384.24 349.903,1384.24 352.011,1384.24 354.119,1384.24 356.228,1384.24 358.336,1384.24 360.444,1384.24 362.552,1384.24 364.661,1384.24 366.769,1384.24 368.877,1384.24 370.985,1384.24 373.094,1384.24 375.202,1384.24 377.31,1384.24 379.419,1384.24 381.527,1384.24 383.635,1384.24 385.743,1384.24 387.852,1384.24 389.96,1384.24 392.068,1384.24 394.176,1384.24 396.285,1384.24 398.393,1384.24 400.501,1384.24 402.609,1384.24 404.718,1384.24 406.826,1384.24 408.934,1384.24 411.043,1384.24 413.151,1384.24 415.259,1384.24 417.367,1384.24 419.476,1384.24 421.584,1384.24 423.692,1384.24 425.8,1384.24 427.909,1384.24 430.017,1384.24 432.125,1384.24 434.233,1384.24 436.342,1384.24 438.45,1384.24 440.558,1384.24 442.667,1384.24 444.775,1384.24 446.883,1384.24 448.991,1384.24 451.1,1384.24 453.208,1384.24 455.316,1384.24 457.424,1384.24 459.533,1384.24 461.641,1384.24 463.749,1384.24 465.857,1384.24 467.966,1384.24 470.074,1384.24 472.182,1384.24 474.291,1384.24 476.399,1384.24 478.507,1384.24 480.615,1384.24 482.724,1384.24 484.832,1384.24 486.94,1384.24 489.048,1384.24 491.157,1384.24 493.265,1384.24 495.373,1384.24 497.481,1384.24 499.59,1384.24 501.698,1384.24 503.806,1384.24 505.915,1384.24 508.023,1384.24 510.131,1384.24 512.239,1384.24 514.348,1384.24 516.456,1384.24 518.564,1384.24 520.672,1384.24 522.781,1384.24 524.889,1384.24 526.997,1384.24 529.105,1384.24 531.214,1384.24 533.322,1384.24 535.43,1384.24 537.539,1384.24 539.647,1384.24 541.755,1384.24 543.863,1384.24 545.972,1384.24 548.08,86.1857 550.188,116.156 552.296,145.446 554.405,174.055 556.513,201.994 558.621,229.286 560.729,255.957 562.838,282.012 564.946,307.447 567.054,332.315 569.163,356.624 571.271,380.376 573.379,403.569 575.487,426.193 577.596,448.312 579.704,469.943 581.812,491.087 583.92,511.745 586.029,531.915 588.137,551.588 590.245,570.791 592.353,589.583 594.462,607.962 596.57,625.928 598.678,643.482 600.787,660.623 602.895,677.352 605.003,693.647 607.111,709.575 609.22,725.164 611.328,740.415 613.436,755.328 615.544,769.902 617.653,784.139 619.761,798.038 621.869,811.598 623.977,824.798 626.086,837.679 628.194,850.295 630.302,862.646 632.411,874.733 634.519,886.554 636.627,898.11 638.735,909.401 640.844,920.427 642.952,931.188 645.06,941.684 647.168,951.914 649.277,961.845 651.385,971.575 653.493,981.107 655.601,990.44 657.71,999.576 659.818,1008.51 661.926,1017.25 664.035,1025.79 666.143,1034.13 668.251,1042.28 670.359,1050.22 672.468,1057.97 674.576,1065.52 676.684,1072.83 678.792,1080 680.901,1087.02 683.009,1093.89 685.117,1100.63 687.225,1107.22 689.334,1113.66 691.442,1119.97 693.55,1126.13 695.658,1132.15 697.767,1138.03 699.875,1143.76 701.983,1149.35 704.092,1154.8 706.2,1160.1 708.308,1165.23 710.416,1170.26 712.525,1175.2 714.633,1180.04 716.741,1184.77 718.849,1189.41 720.958,1193.95 723.066,1198.4 725.174,1202.74 727.282,1206.98 729.391,1211.13 731.499,1215.17 733.607,1219.12 735.716,1222.97 737.824,1226.72 739.932,1230.37 742.04,1233.91 744.149,1237.35 746.257,1240.72 748.365,1244.03 750.473,1247.28 752.582,1250.46 754.69,1253.57 756.798,1256.62 758.906,1259.61 761.015,1262.53 763.123,1265.38 765.231,1268.17 767.34,1270.89 769.448,1273.55 771.556,1276.15 773.664,1278.68 775.773,1281.14 777.881,1283.54 779.989,1285.87 782.097,1288.12 784.206,1290.32 786.314,1292.47 788.422,1294.59 790.53,1296.66 792.639,1298.69 794.747,1300.69 796.855,1302.64 798.964,1304.55 801.072,1306.42 803.18,1308.25 805.288,1310.04 807.397,1311.79 809.505,1313.5 811.613,1315.17 813.721,1316.8 815.83,1318.38 817.938,1319.93 820.046,1321.44 822.154,1322.9 824.263,1324.33 826.371,1325.71 828.479,1327.06 830.588,1328.38 832.696,1329.67 834.804,1330.93 836.912,1332.17 839.021,1333.38 841.129,1334.56 843.237,1335.71 845.345,1336.84 847.454,1337.93 849.562,503.033 851.67,523.276 853.778,543.119 855.887,562.563 857.995,581.607 860.103,600.251 862.212,618.496 864.32,636.341 866.428,653.787 868.536,670.832 870.645,687.479 872.753,703.725 874.861,719.572 876.969,735.019 879.078,750.067 881.186,764.711 883.294,779.008 885.402,792.993 887.511,806.665 889.619,820.025 891.727,833.072 893.836,845.807 895.944,858.119 898.052,870.175 900.16,882.002 902.269,893.6 904.377,904.969 906.485,916.109 908.593,927.02 910.702,937.701 912.81,948.153 914.918,958.376 917.026,968.37 919.135,978.134 921.243,987.67 923.351,996.976 925.46,1006.05 927.568,1014.9 929.676,1023.52 931.784,1031.91 933.893,1040.07 936.001,1048 938.109,1055.75 940.217,1063.34 942.326,1070.77 944.434,1078.04 946.542,1085.14 948.65,1092.07 950.759,1098.85 952.867,1105.46 954.975,1111.9 957.084,1118.12 959.192,1124.21 961.3,1130.18 963.408,1136.03 965.517,1141.78 967.625,1147.41 969.733,1152.93 971.841,1158.33 973.95,1163.63 976.058,1168.81 978.166,1173.87 980.274,1178.83 982.383,1183.67 984.491,1188.4 986.599,1193.02 988.708,1197.52 990.816,1201.91 992.924,1206.19 995.032,1210.35 997.141,1214.4 999.249,1218.34 1001.36,1222.15 1003.47,1225.88 1005.57,1229.53 1007.68,1233.11 1009.79,1236.61 1011.9,1240.04 1014.01,1243.4 1016.11,1246.68 1018.22,1249.89 1020.33,1253.02 1022.44,1256.08 1024.55,1259.07 1026.66,1261.98 1028.76,1264.81 1030.87,1267.58 1032.98,1270.23 1035.09,1272.83 1037.2,1275.38 1039.31,1277.89 1041.41,1280.34 1043.52,1282.76 1045.63,1285.12 1047.74,1287.44 1049.85,1289.71 1051.96,1291.93 1054.06,1294.11 1056.17,1296.24 1058.28,1298.32 1060.39,1300.36 1062.5,1302.35 1064.61,1304.29 1066.71,1306.18 1068.82,1308.03 1070.93,1309.83 1073.04,1311.59 1075.15,1313.3 1077.25,1314.96 1079.36,1316.57 1081.47,1318.14 1083.58,1319.64 1085.69,1321.11 1087.8,1322.56 1089.9,1323.98 1092.01,1325.37 1094.12,1326.74 1096.23,1328.08 1098.34,1329.39 1100.45,1330.68 1102.55,1331.94 1104.66,1333.17 1106.77,1334.38 1108.88,1335.56 1110.99,1336.72 1113.1,1337.84 1115.2,1338.94 1117.31,1340.02 1119.42,1341.06 1121.53,1342.08 1123.64,1343.08 1125.74,1344.05 1127.85,1344.99 1129.96,1345.9 1132.07,1346.79 1134.18,1347.65 1136.29,1348.49 1138.39,1349.32 1140.5,1350.13 1142.61,1350.92 1144.72,1351.69 1146.83,1352.44 1148.94,1353.18 1151.04,890.044 1153.15,901.363 1155.26,912.468 1157.37,923.359 1159.48,934.036 1161.59,944.5 1163.69,954.749 1165.8,964.785 1167.91,974.607 1170.02,984.215 1172.13,993.609 1174.23,1002.79 1176.34,1011.76 1178.45,1020.51 1180.56,1029.05 1182.67,1037.37 1184.78,1045.48 1186.88,1053.38 1188.99,1061.06 1191.1,1068.53 1193.21,1075.81 1195.32,1082.94 1197.43,1089.91 1199.53,1096.72 1201.64,1103.37 1203.75,1109.86 1205.86,1116.17 1207.97,1122.3 1210.08,1128.32 1212.18,1134.22 1214.29,1140.01 1216.4,1145.68 1218.51,1151.23 1220.62,1156.67 1222.73,1161.99 1224.83,1167.19 1226.94,1172.28 1229.05,1177.26 1231.16,1182.11 1233.27,1186.85 1235.37,1191.48 1237.48,1195.99 1239.59,1200.38 1241.7,1204.66 1243.81,1208.82 1245.92,1212.85 1248.02,1216.8 1250.13,1220.66 1252.24,1224.45 1254.35,1228.15 1256.46,1231.78 1258.57,1235.32 1260.67,1238.79 1262.78,1242.17 1264.89,1245.47 1267,1248.69 1269.11,1251.83 1271.22,1254.89 1273.32,1257.84 1275.43,1260.72 1277.54,1263.56 1279.65,1266.34 1281.76,1269.07 1283.86,1271.75 1285.97,1274.37 1288.08,1276.94 1290.19,1279.46 1292.3,1281.92 1294.41,1284.33 1296.51,1286.69 1298.62,1289 1300.73,1291.25 1302.84,1293.44 1304.95,1295.59 1307.06,1297.68 1309.16,1299.72 1311.27,1301.7 1313.38,1303.63 1315.49,1305.51 1317.6,1307.34 1319.71,1309.09 1321.81,1310.81 1323.92,1312.49 1326.03,1314.14 1328.14,1315.76 1330.25,1317.35 1332.35,1318.91 1334.46,1320.44 1336.57,1321.94 1338.68,1323.4 1340.79,1324.83 1342.9,1326.23 1345,1327.6 1347.11,1328.94 1349.22,1330.25 1351.33,1331.52 1353.44,1332.77 1355.55,1333.98 1357.65,1335.16 1359.76,1336.31 1361.87,1337.43 1363.98,1338.52 1366.09,1339.56 1368.2,1340.57 1370.3,1341.56 1372.41,1342.54 1374.52,1343.5 1376.63,1344.44 1378.74,1345.36 1380.85,1346.27 1382.95,1347.16 1385.06,1348.03 1387.17,1348.89 1389.28,1349.72 1391.39,1350.54 1393.49,1351.35 1395.6,1352.13 1397.71,1352.9 1399.82,1353.65 1401.93,1354.38 1404.04,1355.1 1406.14,1355.8 1408.25,1356.48 1410.36,1357.14 1412.47,1357.79 1414.58,1358.42 1416.69,1359.03 1418.79,1359.62 1420.9,1360.2 1423.01,1360.76 1425.12,1361.3 1427.23,1361.83 1429.34,1362.35 1431.44,1362.85 1433.55,1363.35 1435.66,1363.83 1437.77,1364.31 1439.88,1364.77 1441.98,1365.22 1444.09,1365.67 1446.2,1366.1 1448.31,1366.52 1450.42,1047.48 1452.53,1055.14 1454.63,1062.66 1456.74,1070.05 1458.85,1077.3 1460.96,1084.41 1463.07,1091.38 1465.18,1098.21 1467.28,1104.9 1469.39,1111.45 1471.5,1117.87 1473.61,1124.15 1475.72,1130.29 1477.83,1136.29 1479.93,1142.15 1482.04,1147.87 1484.15,1153.46 1486.26,1158.9 1488.37,1164.21 1490.47,1169.38 1492.58,1174.41 1494.69,1179.3 1496.8,1184.06 1498.91,1188.67 1501.02,1193.18 1503.12,1197.6 1505.23,1201.92 1507.34,1206.14 1509.45,1210.27 1511.56,1214.3 1513.67,1218.23 1515.77,1222.07 1517.88,1225.77 1519.99,1229.38 1522.1,1232.93 1524.21,1236.41 1526.32,1239.83 1528.42,1243.18 1530.53,1246.47 1532.64,1249.69 1534.75,1252.84 1536.86,1255.93 1538.97,1258.95 1541.07,1261.91 1543.18,1264.8 1545.29,1267.63 1547.4,1270.39 1549.51,1273.08 1551.61,1275.71 1553.72,1278.28 1555.83,1280.78 1557.94,1283.21 1560.05,1285.58 1562.16,1287.88 1564.26,1290.11 1566.37,1292.27 1568.48,1294.39 1570.59,1296.46 1572.7,1298.49 1574.81,1300.48 1576.91,1302.42 1579.02,1304.33 1581.13,1306.19 1583.24,1308.01 1585.35,1309.79 1587.46,1311.53 1589.56,1313.23 1591.67,1314.88 1593.78,1316.5 1595.89,1318.07 1598,1319.6 1600.1,1321.06 1602.21,1322.5 1604.32,1323.91 1606.43,1325.29 1608.54,1326.65 1610.65,1327.98 1612.75,1329.29 1614.86,1330.58 1616.97,1331.84 1619.08,1333.07 1621.19,1334.28 1623.3,1335.46 1625.4,1336.62 1627.51,1337.76 1629.62,1338.87 1631.73,1339.95 1633.84,1341.01 1635.95,1342.04 1638.05,1343.05 1640.16,1344.04 1642.27,1345 1644.38,1345.93 1646.49,1346.84 1648.59,1347.72 1650.7,1348.58 1652.81,1349.42 1654.92,1350.23 1657.03,1351 1659.14,1351.75 1661.24,1352.49 1663.35,1353.22 1665.46,1353.93 1667.57,1354.64 1669.68,1355.32 1671.79,1356 1673.89,1356.66 1676,1357.31 1678.11,1357.95 1680.22,1358.57 1682.33,1359.18 1684.44,1359.77 1686.54,1360.36 1688.65,1360.93 1690.76,1361.49 1692.87,1362.03 1694.98,1362.56 1697.09,1363.08 1699.19,1363.58 1701.3,1364.08 1703.41,1364.56 1705.52,1365.02 1707.63,1365.47 1709.73,1365.91 1711.84,1366.34 1713.95,1366.75 1716.06,1367.15 1718.17,1367.55 1720.28,1367.93 1722.38,1368.31 1724.49,1368.68 1726.6,1369.04 1728.71,1369.39 1730.82,1369.74 1732.93,1370.08 1735.03,1370.41 1737.14,1370.74 1739.25,1371.05 1741.36,1371.36 1743.47,1371.66 1745.58,1371.96 1747.68,1372.24 1749.79,1372.52 1751.9,1110.41 1754.01,1116.64 1756.12,1122.76 1758.22,1128.76 1760.33,1134.66 1762.44,1140.44 1764.55,1146.11 1766.66,1151.67 1768.77,1157.12 1770.87,1162.45 1772.98,1167.68 1775.09,1172.79 1777.2,1177.79 1779.31,1182.68 1781.42,1187.46 1783.52,1192.12 1785.63,1196.68 1787.74,1201.12 1789.85,1205.45 1791.96,1209.67 1794.07,1213.77 1796.17,1217.77 1798.28,1221.65 1800.39,1225.42 1802.5,1229.08 1804.61,1232.66 1806.71,1236.16 1808.82,1239.59 1810.93,1242.94 1813.04,1246.22 1815.15,1249.42 1817.26,1252.55 1819.36,1255.61 1821.47,1258.59 1823.58,1261.5 1825.69,1264.32 1827.8,1267.04 1829.91,1269.71 1832.01,1272.34 1834.12,1274.91 1836.23,1277.44 1838.34,1279.93 1840.45,1282.36 1842.56,1284.74 1844.66,1287.08 1846.77,1289.37 1848.88,1291.61 1850.99,1293.81 1853.1,1295.96 1855.21,1298.05 1857.31,1300.1 1859.42,1302.11 1861.53,1304.06 1863.64,1305.97 1865.75,1307.83 1867.85,1309.64 1869.96,1311.4 1872.07,1313.12 1874.18,1314.79 1876.29,1316.41 1878.4,1317.98 1880.5,1319.49 1882.61,1320.98 1884.72,1322.43 1886.83,1323.86 1888.94,1325.26 1891.05,1326.63 1893.15,1327.97 1895.26,1329.29 1897.37,1330.58 1899.48,1331.83 1901.59,1333.06 1903.7,1334.26 1905.8,1335.44 1907.91,1336.58 1910.02,1337.7 1912.13,1338.78 1914.24,1339.84 1916.34,1340.87 1918.45,1341.87 1920.56,1342.82 1922.67,1343.76 1924.78,1344.68 1926.89,1345.59 1928.99,1346.48 1931.1,1347.35 1933.21,1348.21 1935.32,1349.05 1937.43,1349.88 1939.54,1350.69 1941.64,1351.48 1943.75,1352.26 1945.86,1353.03 1947.97,1353.77 1950.08,1354.5 1952.19,1355.22 1954.29,1355.92 1956.4,1356.6 1958.51,1357.27 1960.62,1357.92 1962.73,1358.55 1964.83,1359.17 1966.94,1359.78 1969.05,1360.36 1971.16,1360.94 1973.27,1361.49 1975.38,1362.03 1977.48,1362.55 1979.59,1363.06 1981.7,1363.55 1983.81,1364.02 1985.92,1364.48 1988.03,1364.93 1990.13,1365.37 1992.24,1365.8 1994.35,1366.23 1996.46,1366.65 1998.57,1367.06 2000.68,1367.46 2002.78,1367.85 2004.89,1368.24 2007,1368.62 2009.11,1368.99 2011.22,1369.36 2013.33,1369.71 2015.43,1370.06 2017.54,1370.4 2019.65,1370.74 2021.76,1371.06 2023.87,1371.38 2025.97,1371.69 2028.08,1371.99 2030.19,1372.29 2032.3,1372.58 2034.41,1372.86 2036.52,1373.13 2038.62,1373.39 2040.73,1373.65 2042.84,1373.9 2044.95,1374.14 2047.06,1374.37 2049.17,1374.59 2051.27,1374.8 2053.38,1375.02 2055.49,1375.23 2057.6,1375.43 2059.71,1375.63 2061.82,1375.83 2063.92,1376.03 2066.03,1376.22 2068.14,1376.41 2070.25,1376.59 2072.36,1376.78 2074.46,1376.95 2076.57,1377.13 2078.68,1377.3 2080.79,1377.47 2082.9,1377.63 2085.01,1377.8 2087.11,1377.95 2089.22,1378.11 2091.33,1378.26 2093.44,1378.41 2095.55,1378.55 2097.66,1378.7 2099.76,1378.83 2101.87,1378.97 2103.98,1379.1 2106.09,1379.23 2108.2,1379.35 2110.31,1379.47 2112.41,1379.59 2114.52,1379.7 2116.63,1379.82 2118.74,1379.92 2120.85,1380.03 2122.95,1380.13 2125.06,1380.23 2127.17,1380.32 2129.28,1380.41 2131.39,1380.49 2133.5,1380.58 2135.6,1380.66 2137.71,1380.74 2139.82,1380.82 2141.93,1380.9 2144.04,1380.98 2146.15,1381.05 2148.25,1381.13 2150.36,1381.2 2152.47,1381.27 2154.58,1381.34 2156.69,1381.41 2158.8,1381.48 2160.9,1381.55 2163.01,1381.61 2165.12,1381.68 2167.23,1381.74 2169.34,1381.8 2171.44,1381.86 2173.55,1381.92 2175.66,1381.98 2177.77,1382.03 2179.88,1382.09 2181.99,1382.14 2184.09,1382.19 2186.2,1382.24 2188.31,1382.29 2190.42,1382.34 2192.53,1382.39 2194.64,1382.43 2196.74,1382.48 2198.85,1382.52 2200.96,1382.56 2203.07,1382.6 2205.18,1382.64 2207.29,1382.68 2209.39,1382.72 2211.5,1382.75 2213.61,1382.79 2215.72,1382.82 2217.83,1382.85 2219.94,1382.88 2222.04,1382.91 2224.15,1382.94 2226.26,1382.97 2228.37,1383 2230.48,1383.03 2232.58,1383.06 2234.69,1383.09 2236.8,1383.11 2238.91,1383.14 2241.02,1383.17 2243.13,1383.19 2245.23,1383.22 2247.34,1383.24 2249.45,1383.27 2251.56,1383.29 2253.67,1383.31 2255.78,1383.34 2257.88,1383.36 2259.99,1383.38 2262.1,1383.4 2264.21,1383.42 2266.32,1383.45 2268.43,1383.47 2270.53,1383.49 2272.64,1383.5 2274.75,1383.52 2276.86,1383.54 2278.97,1383.56 2281.07,1383.58 2283.18,1383.59 2285.29,1383.61 2287.4,1383.63 2289.51,1383.64 2291.62,1383.66 2293.72,1383.67 2295.83,1383.68 2297.94,1383.7 2300.05,1383.71 2302.16,1383.72 2304.27,1383.73 2306.37,1383.75 2308.48,1383.76 2310.59,1383.77 2312.7,1383.78 2314.81,1383.79 2316.92,1383.8 2319.02,1383.81 2321.13,1383.82 2323.24,1383.83 2325.35,1383.84 2327.46,1383.85 2329.56,1383.86 2331.67,1383.87 2333.78,1383.88 2335.89,1383.88 2338,1383.89 2340.11,1383.9 2342.21,1383.91 2344.32,1383.92 2346.43,1383.92 2348.54,1383.93 2350.65,1383.94 2352.76,1383.95 "/>
<path clip-path="url(#clip540)" d="M1982.84 196.789 L2282.55 196.789 L2282.55 93.1086 L1982.84 93.1086  Z" fill="#ffffff" fill-rule="evenodd" fill-opacity="1"/>
<polyline clip-path="url(#clip540)" style="stroke:#000000; stroke-linecap:round; stroke-linejoin:round; stroke-width:4; stroke-opacity:1; fill:none" points="1982.84,196.789 2282.55,196.789 2282.55,93.1086 1982.84,93.1086 1982.84,196.789 "/>
<polyline clip-path="url(#clip540)" style="stroke:#009af9; stroke-linecap:round; stroke-linejoin:round; stroke-width:4; stroke-opacity:1; fill:none" points="2006.24,144.949 2146.65,144.949 "/>
<path clip-path="url(#clip540)" d="M2170.05 151.997 L2170.05 136.303 L2174.31 136.303 L2174.31 151.835 Q2174.31 155.516 2175.75 157.368 Q2177.18 159.196 2180.05 159.196 Q2183.5 159.196 2185.49 156.997 Q2187.51 154.798 2187.51 151.002 L2187.51 136.303 L2191.76 136.303 L2191.76 162.229 L2187.51 162.229 L2187.51 158.247 Q2185.95 160.608 2183.89 161.766 Q2181.86 162.9 2179.15 162.9 Q2174.68 162.9 2172.37 160.122 Q2170.05 157.344 2170.05 151.997 M2180.77 135.678 L2180.77 135.678 Z" fill="#000000" fill-rule="nonzero" fill-opacity="1" /><path clip-path="url(#clip540)" d="M2200.14 126.21 L2209.96 126.21 L2209.96 129.52 L2204.4 129.52 L2204.4 165.168 L2209.96 165.168 L2209.96 168.479 L2200.14 168.479 L2200.14 126.21 Z" fill="#000000" fill-rule="nonzero" fill-opacity="1" /><path clip-path="url(#clip540)" d="M2218.45 127.669 L2240.68 127.669 L2240.68 129.659 L2228.13 162.229 L2223.25 162.229 L2235.05 131.604 L2218.45 131.604 L2218.45 127.669 Z" fill="#000000" fill-rule="nonzero" fill-opacity="1" /><path clip-path="url(#clip540)" d="M2259.15 126.21 L2259.15 168.479 L2249.33 168.479 L2249.33 165.168 L2254.87 165.168 L2254.87 129.52 L2249.33 129.52 L2249.33 126.21 L2259.15 126.21 Z" fill="#000000" fill-rule="nonzero" fill-opacity="1" /></svg>
