<?xml version="1.0" encoding="utf-8"?>
<svg xmlns="http://www.w3.org/2000/svg" xmlns:xlink="http://www.w3.org/1999/xlink" width="600" height="400" viewBox="0 0 2400 1600">
<defs>
  <clipPath id="clip450">
    <rect x="0" y="0" width="2400" height="1600"/>
  </clipPath>
</defs>
<path clip-path="url(#clip450)" d="M0 1600 L2400 1600 L2400 0 L0 0  Z" fill="#ffffff" fill-rule="evenodd" fill-opacity="1"/>
<defs>
  <clipPath id="clip451">
    <rect x="219" y="47" width="2134" height="1377"/>
  </clipPath>
</defs>
<path clip-path="url(#clip450)" d="M219.866 1423.18 L2352.76 1423.18 L2352.76 47.2441 L219.866 47.2441  Z" fill="#ffffff" fill-rule="evenodd" fill-opacity="1"/>
<polyline clip-path="url(#clip451)" style="stroke:#000000; stroke-linecap:round; stroke-linejoin:round; stroke-width:2; stroke-opacity:0.1; fill:none" points="280.231,1423.18 280.231,47.2441 "/>
<polyline clip-path="url(#clip451)" style="stroke:#000000; stroke-linecap:round; stroke-linejoin:round; stroke-width:2; stroke-opacity:0.1; fill:none" points="783.271,1423.18 783.271,47.2441 "/>
<polyline clip-path="url(#clip451)" style="stroke:#000000; stroke-linecap:round; stroke-linejoin:round; stroke-width:2; stroke-opacity:0.1; fill:none" points="1286.31,1423.18 1286.31,47.2441 "/>
<polyline clip-path="url(#clip451)" style="stroke:#000000; stroke-linecap:round; stroke-linejoin:round; stroke-width:2; stroke-opacity:0.1; fill:none" points="1789.35,1423.18 1789.35,47.2441 "/>
<polyline clip-path="url(#clip451)" style="stroke:#000000; stroke-linecap:round; stroke-linejoin:round; stroke-width:2; stroke-opacity:0.1; fill:none" points="2292.39,1423.18 2292.39,47.2441 "/>
<polyline clip-path="url(#clip451)" style="stroke:#000000; stroke-linecap:round; stroke-linejoin:round; stroke-width:2; stroke-opacity:0.1; fill:none" points="219.866,1156.52 2352.76,1156.52 "/>
<polyline clip-path="url(#clip451)" style="stroke:#000000; stroke-linecap:round; stroke-linejoin:round; stroke-width:2; stroke-opacity:0.1; fill:none" points="219.866,887.807 2352.76,887.807 "/>
<polyline clip-path="url(#clip451)" style="stroke:#000000; stroke-linecap:round; stroke-linejoin:round; stroke-width:2; stroke-opacity:0.1; fill:none" points="219.866,619.09 2352.76,619.09 "/>
<polyline clip-path="url(#clip451)" style="stroke:#000000; stroke-linecap:round; stroke-linejoin:round; stroke-width:2; stroke-opacity:0.1; fill:none" points="219.866,350.372 2352.76,350.372 "/>
<polyline clip-path="url(#clip451)" style="stroke:#000000; stroke-linecap:round; stroke-linejoin:round; stroke-width:2; stroke-opacity:0.1; fill:none" points="219.866,81.6552 2352.76,81.6552 "/>
<polyline clip-path="url(#clip450)" style="stroke:#000000; stroke-linecap:round; stroke-linejoin:round; stroke-width:4; stroke-opacity:1; fill:none" points="219.866,1423.18 2352.76,1423.18 "/>
<polyline clip-path="url(#clip450)" style="stroke:#000000; stroke-linecap:round; stroke-linejoin:round; stroke-width:4; stroke-opacity:1; fill:none" points="280.231,1423.18 280.231,1404.28 "/>
<polyline clip-path="url(#clip450)" style="stroke:#000000; stroke-linecap:round; stroke-linejoin:round; stroke-width:4; stroke-opacity:1; fill:none" points="783.271,1423.18 783.271,1404.28 "/>
<polyline clip-path="url(#clip450)" style="stroke:#000000; stroke-linecap:round; stroke-linejoin:round; stroke-width:4; stroke-opacity:1; fill:none" points="1286.31,1423.18 1286.31,1404.28 "/>
<polyline clip-path="url(#clip450)" style="stroke:#000000; stroke-linecap:round; stroke-linejoin:round; stroke-width:4; stroke-opacity:1; fill:none" points="1789.35,1423.18 1789.35,1404.28 "/>
<polyline clip-path="url(#clip450)" style="stroke:#000000; stroke-linecap:round; stroke-linejoin:round; stroke-width:4; stroke-opacity:1; fill:none" points="2292.39,1423.18 2292.39,1404.28 "/>
<path clip-path="url(#clip450)" d="M257.615 1454.1 Q254.004 1454.1 252.176 1457.66 Q250.37 1461.2 250.37 1468.33 Q250.37 1475.44 252.176 1479.01 Q254.004 1482.55 257.615 1482.55 Q261.25 1482.55 263.055 1479.01 Q264.884 1475.44 264.884 1468.33 Q264.884 1461.2 263.055 1457.66 Q261.25 1454.1 257.615 1454.1 M257.615 1450.39 Q263.426 1450.39 266.481 1455 Q269.56 1459.58 269.56 1468.33 Q269.56 1477.06 266.481 1481.67 Q263.426 1486.25 257.615 1486.25 Q251.805 1486.25 248.727 1481.67 Q245.671 1477.06 245.671 1468.33 Q245.671 1459.58 248.727 1455 Q251.805 1450.39 257.615 1450.39 Z" fill="#000000" fill-rule="nonzero" fill-opacity="1" /><path clip-path="url(#clip450)" d="M277.777 1479.7 L282.662 1479.7 L282.662 1485.58 L277.777 1485.58 L277.777 1479.7 Z" fill="#000000" fill-rule="nonzero" fill-opacity="1" /><path clip-path="url(#clip450)" d="M302.847 1454.1 Q299.236 1454.1 297.407 1457.66 Q295.601 1461.2 295.601 1468.33 Q295.601 1475.44 297.407 1479.01 Q299.236 1482.55 302.847 1482.55 Q306.481 1482.55 308.286 1479.01 Q310.115 1475.44 310.115 1468.33 Q310.115 1461.2 308.286 1457.66 Q306.481 1454.1 302.847 1454.1 M302.847 1450.39 Q308.657 1450.39 311.712 1455 Q314.791 1459.58 314.791 1468.33 Q314.791 1477.06 311.712 1481.67 Q308.657 1486.25 302.847 1486.25 Q297.037 1486.25 293.958 1481.67 Q290.902 1477.06 290.902 1468.33 Q290.902 1459.58 293.958 1455 Q297.037 1450.39 302.847 1450.39 Z" fill="#000000" fill-rule="nonzero" fill-opacity="1" /><path clip-path="url(#clip450)" d="M755.007 1481.64 L771.327 1481.64 L771.327 1485.58 L749.382 1485.58 L749.382 1481.64 Q752.044 1478.89 756.628 1474.26 Q761.234 1469.61 762.415 1468.27 Q764.66 1465.74 765.54 1464.01 Q766.442 1462.25 766.442 1460.56 Q766.442 1457.8 764.498 1456.07 Q762.577 1454.33 759.475 1454.33 Q757.276 1454.33 754.822 1455.09 Q752.392 1455.86 749.614 1457.41 L749.614 1452.69 Q752.438 1451.55 754.892 1450.97 Q757.345 1450.39 759.382 1450.39 Q764.753 1450.39 767.947 1453.08 Q771.142 1455.77 771.142 1460.26 Q771.142 1462.39 770.331 1464.31 Q769.544 1466.2 767.438 1468.8 Q766.859 1469.47 763.757 1472.69 Q760.655 1475.88 755.007 1481.64 Z" fill="#000000" fill-rule="nonzero" fill-opacity="1" /><path clip-path="url(#clip450)" d="M781.141 1479.7 L786.026 1479.7 L786.026 1485.58 L781.141 1485.58 L781.141 1479.7 Z" fill="#000000" fill-rule="nonzero" fill-opacity="1" /><path clip-path="url(#clip450)" d="M796.257 1451.02 L814.614 1451.02 L814.614 1454.96 L800.54 1454.96 L800.54 1463.43 Q801.558 1463.08 802.577 1462.92 Q803.595 1462.73 804.614 1462.73 Q810.401 1462.73 813.78 1465.9 Q817.16 1469.08 817.16 1474.49 Q817.16 1480.07 813.688 1483.17 Q810.215 1486.25 803.896 1486.25 Q801.72 1486.25 799.452 1485.88 Q797.206 1485.51 794.799 1484.77 L794.799 1480.07 Q796.882 1481.2 799.104 1481.76 Q801.327 1482.32 803.803 1482.32 Q807.808 1482.32 810.146 1480.21 Q812.484 1478.1 812.484 1474.49 Q812.484 1470.88 810.146 1468.77 Q807.808 1466.67 803.803 1466.67 Q801.928 1466.67 800.053 1467.08 Q798.202 1467.5 796.257 1468.38 L796.257 1451.02 Z" fill="#000000" fill-rule="nonzero" fill-opacity="1" /><path clip-path="url(#clip450)" d="M1253.48 1451.02 L1271.83 1451.02 L1271.83 1454.96 L1257.76 1454.96 L1257.76 1463.43 Q1258.78 1463.08 1259.8 1462.92 Q1260.81 1462.73 1261.83 1462.73 Q1267.62 1462.73 1271 1465.9 Q1274.38 1469.08 1274.38 1474.49 Q1274.38 1480.07 1270.91 1483.17 Q1267.43 1486.25 1261.11 1486.25 Q1258.94 1486.25 1256.67 1485.88 Q1254.42 1485.51 1252.02 1484.77 L1252.02 1480.07 Q1254.1 1481.2 1256.32 1481.76 Q1258.55 1482.32 1261.02 1482.32 Q1265.03 1482.32 1267.36 1480.21 Q1269.7 1478.1 1269.7 1474.49 Q1269.7 1470.88 1267.36 1468.77 Q1265.03 1466.67 1261.02 1466.67 Q1259.15 1466.67 1257.27 1467.08 Q1255.42 1467.5 1253.48 1468.38 L1253.48 1451.02 Z" fill="#000000" fill-rule="nonzero" fill-opacity="1" /><path clip-path="url(#clip450)" d="M1283.59 1479.7 L1288.48 1479.7 L1288.48 1485.58 L1283.59 1485.58 L1283.59 1479.7 Z" fill="#000000" fill-rule="nonzero" fill-opacity="1" /><path clip-path="url(#clip450)" d="M1308.66 1454.1 Q1305.05 1454.1 1303.22 1457.66 Q1301.42 1461.2 1301.42 1468.33 Q1301.42 1475.44 1303.22 1479.01 Q1305.05 1482.55 1308.66 1482.55 Q1312.29 1482.55 1314.1 1479.01 Q1315.93 1475.44 1315.93 1468.33 Q1315.93 1461.2 1314.1 1457.66 Q1312.29 1454.1 1308.66 1454.1 M1308.66 1450.39 Q1314.47 1450.39 1317.53 1455 Q1320.6 1459.58 1320.6 1468.33 Q1320.6 1477.06 1317.53 1481.67 Q1314.47 1486.25 1308.66 1486.25 Q1302.85 1486.25 1299.77 1481.67 Q1296.72 1477.06 1296.72 1468.33 Q1296.72 1459.58 1299.77 1455 Q1302.85 1450.39 1308.66 1450.39 Z" fill="#000000" fill-rule="nonzero" fill-opacity="1" /><path clip-path="url(#clip450)" d="M1755.67 1451.02 L1777.89 1451.02 L1777.89 1453.01 L1765.35 1485.58 L1760.46 1485.58 L1772.27 1454.96 L1755.67 1454.96 L1755.67 1451.02 Z" fill="#000000" fill-rule="nonzero" fill-opacity="1" /><path clip-path="url(#clip450)" d="M1787.01 1479.7 L1791.9 1479.7 L1791.9 1485.58 L1787.01 1485.58 L1787.01 1479.7 Z" fill="#000000" fill-rule="nonzero" fill-opacity="1" /><path clip-path="url(#clip450)" d="M1802.13 1451.02 L1820.49 1451.02 L1820.49 1454.96 L1806.41 1454.96 L1806.41 1463.43 Q1807.43 1463.08 1808.45 1462.92 Q1809.47 1462.73 1810.49 1462.73 Q1816.27 1462.73 1819.65 1465.9 Q1823.03 1469.08 1823.03 1474.49 Q1823.03 1480.07 1819.56 1483.17 Q1816.09 1486.25 1809.77 1486.25 Q1807.59 1486.25 1805.32 1485.88 Q1803.08 1485.51 1800.67 1484.77 L1800.67 1480.07 Q1802.75 1481.2 1804.98 1481.76 Q1807.2 1482.32 1809.68 1482.32 Q1813.68 1482.32 1816.02 1480.21 Q1818.36 1478.1 1818.36 1474.49 Q1818.36 1470.88 1816.02 1468.77 Q1813.68 1466.67 1809.68 1466.67 Q1807.8 1466.67 1805.93 1467.08 Q1804.07 1467.5 1802.13 1468.38 L1802.13 1451.02 Z" fill="#000000" fill-rule="nonzero" fill-opacity="1" /><path clip-path="url(#clip450)" d="M2244.46 1481.64 L2252.1 1481.64 L2252.1 1455.28 L2243.79 1456.95 L2243.79 1452.69 L2252.06 1451.02 L2256.73 1451.02 L2256.73 1481.64 L2264.37 1481.64 L2264.37 1485.58 L2244.46 1485.58 L2244.46 1481.64 Z" fill="#000000" fill-rule="nonzero" fill-opacity="1" /><path clip-path="url(#clip450)" d="M2283.81 1454.1 Q2280.2 1454.1 2278.37 1457.66 Q2276.57 1461.2 2276.57 1468.33 Q2276.57 1475.44 2278.37 1479.01 Q2280.2 1482.55 2283.81 1482.55 Q2287.45 1482.55 2289.25 1479.01 Q2291.08 1475.44 2291.08 1468.33 Q2291.08 1461.2 2289.25 1457.66 Q2287.45 1454.1 2283.81 1454.1 M2283.81 1450.39 Q2289.62 1450.39 2292.68 1455 Q2295.76 1459.58 2295.76 1468.33 Q2295.76 1477.06 2292.68 1481.67 Q2289.62 1486.25 2283.81 1486.25 Q2278 1486.25 2274.93 1481.67 Q2271.87 1477.06 2271.87 1468.33 Q2271.87 1459.58 2274.93 1455 Q2278 1450.39 2283.81 1450.39 Z" fill="#000000" fill-rule="nonzero" fill-opacity="1" /><path clip-path="url(#clip450)" d="M2303.98 1479.7 L2308.86 1479.7 L2308.86 1485.58 L2303.98 1485.58 L2303.98 1479.7 Z" fill="#000000" fill-rule="nonzero" fill-opacity="1" /><path clip-path="url(#clip450)" d="M2329.05 1454.1 Q2325.43 1454.1 2323.61 1457.66 Q2321.8 1461.2 2321.8 1468.33 Q2321.8 1475.44 2323.61 1479.01 Q2325.43 1482.55 2329.05 1482.55 Q2332.68 1482.55 2334.49 1479.01 Q2336.31 1475.44 2336.31 1468.33 Q2336.31 1461.2 2334.49 1457.66 Q2332.68 1454.1 2329.05 1454.1 M2329.05 1450.39 Q2334.86 1450.39 2337.91 1455 Q2340.99 1459.58 2340.99 1468.33 Q2340.99 1477.06 2337.91 1481.67 Q2334.86 1486.25 2329.05 1486.25 Q2323.24 1486.25 2320.16 1481.67 Q2317.1 1477.06 2317.1 1468.33 Q2317.1 1459.58 2320.16 1455 Q2323.24 1450.39 2329.05 1450.39 Z" fill="#000000" fill-rule="nonzero" fill-opacity="1" /><path clip-path="url(#clip450)" d="M1208.19 1520.52 L1248.39 1520.52 L1248.39 1525.93 L1231.52 1525.93 L1231.52 1568.04 L1225.06 1568.04 L1225.06 1525.93 L1208.19 1525.93 L1208.19 1520.52 Z" fill="#000000" fill-rule="nonzero" fill-opacity="1" /><path clip-path="url(#clip450)" d="M1252.33 1532.4 L1258.19 1532.4 L1258.19 1568.04 L1252.33 1568.04 L1252.33 1532.4 M1252.33 1518.52 L1258.19 1518.52 L1258.19 1525.93 L1252.33 1525.93 L1252.33 1518.52 Z" fill="#000000" fill-rule="nonzero" fill-opacity="1" /><path clip-path="url(#clip450)" d="M1298.2 1539.24 Q1300.4 1535.29 1303.45 1533.41 Q1306.51 1531.54 1310.64 1531.54 Q1316.21 1531.54 1319.24 1535.45 Q1322.26 1539.33 1322.26 1546.53 L1322.26 1568.04 L1316.37 1568.04 L1316.37 1546.72 Q1316.37 1541.59 1314.56 1539.11 Q1312.74 1536.63 1309.02 1536.63 Q1304.47 1536.63 1301.83 1539.65 Q1299.19 1542.68 1299.19 1547.9 L1299.19 1568.04 L1293.3 1568.04 L1293.3 1546.72 Q1293.3 1541.56 1291.48 1539.11 Q1289.67 1536.63 1285.88 1536.63 Q1281.39 1536.63 1278.75 1539.68 Q1276.11 1542.71 1276.11 1547.9 L1276.11 1568.04 L1270.22 1568.04 L1270.22 1532.4 L1276.11 1532.4 L1276.11 1537.93 Q1278.12 1534.66 1280.92 1533.1 Q1283.72 1531.54 1287.57 1531.54 Q1291.45 1531.54 1294.16 1533.51 Q1296.89 1535.48 1298.2 1539.24 Z" fill="#000000" fill-rule="nonzero" fill-opacity="1" /><path clip-path="url(#clip450)" d="M1364.43 1548.76 L1364.43 1551.62 L1337.51 1551.62 Q1337.89 1557.67 1341.14 1560.85 Q1344.41 1564 1350.24 1564 Q1353.61 1564 1356.76 1563.17 Q1359.95 1562.35 1363.07 1560.69 L1363.07 1566.23 Q1359.91 1567.57 1356.6 1568.27 Q1353.29 1568.97 1349.89 1568.97 Q1341.36 1568.97 1336.36 1564 Q1331.4 1559.04 1331.4 1550.57 Q1331.4 1541.82 1336.11 1536.69 Q1340.85 1531.54 1348.87 1531.54 Q1356.06 1531.54 1360.23 1536.18 Q1364.43 1540.8 1364.43 1548.76 M1358.58 1547.04 Q1358.51 1542.23 1355.87 1539.37 Q1353.26 1536.5 1348.93 1536.5 Q1344.03 1536.5 1341.07 1539.27 Q1338.14 1542.04 1337.7 1547.07 L1358.58 1547.04 Z" fill="#000000" fill-rule="nonzero" fill-opacity="1" /><polyline clip-path="url(#clip450)" style="stroke:#000000; stroke-linecap:round; stroke-linejoin:round; stroke-width:4; stroke-opacity:1; fill:none" points="219.866,1423.18 219.866,47.2441 "/>
<polyline clip-path="url(#clip450)" style="stroke:#000000; stroke-linecap:round; stroke-linejoin:round; stroke-width:4; stroke-opacity:1; fill:none" points="219.866,1156.52 238.764,1156.52 "/>
<polyline clip-path="url(#clip450)" style="stroke:#000000; stroke-linecap:round; stroke-linejoin:round; stroke-width:4; stroke-opacity:1; fill:none" points="219.866,887.807 238.764,887.807 "/>
<polyline clip-path="url(#clip450)" style="stroke:#000000; stroke-linecap:round; stroke-linejoin:round; stroke-width:4; stroke-opacity:1; fill:none" points="219.866,619.09 238.764,619.09 "/>
<polyline clip-path="url(#clip450)" style="stroke:#000000; stroke-linecap:round; stroke-linejoin:round; stroke-width:4; stroke-opacity:1; fill:none" points="219.866,350.372 238.764,350.372 "/>
<polyline clip-path="url(#clip450)" style="stroke:#000000; stroke-linecap:round; stroke-linejoin:round; stroke-width:4; stroke-opacity:1; fill:none" points="219.866,81.6552 238.764,81.6552 "/>
<path clip-path="url(#clip450)" d="M128.288 1142.32 Q124.677 1142.32 122.848 1145.89 Q121.043 1149.43 121.043 1156.56 Q121.043 1163.67 122.848 1167.23 Q124.677 1170.77 128.288 1170.77 Q131.922 1170.77 133.728 1167.23 Q135.556 1163.67 135.556 1156.56 Q135.556 1149.43 133.728 1145.89 Q131.922 1142.32 128.288 1142.32 M128.288 1138.62 Q134.098 1138.62 137.154 1143.23 Q140.232 1147.81 140.232 1156.56 Q140.232 1165.29 137.154 1169.89 Q134.098 1174.48 128.288 1174.48 Q122.478 1174.48 119.399 1169.89 Q116.343 1165.29 116.343 1156.56 Q116.343 1147.81 119.399 1143.23 Q122.478 1138.62 128.288 1138.62 Z" fill="#000000" fill-rule="nonzero" fill-opacity="1" /><path clip-path="url(#clip450)" d="M148.45 1167.92 L153.334 1167.92 L153.334 1173.8 L148.45 1173.8 L148.45 1167.92 Z" fill="#000000" fill-rule="nonzero" fill-opacity="1" /><path clip-path="url(#clip450)" d="M167.547 1169.87 L183.866 1169.87 L183.866 1173.8 L161.922 1173.8 L161.922 1169.87 Q164.584 1167.11 169.167 1162.48 Q173.774 1157.83 174.954 1156.49 Q177.2 1153.97 178.079 1152.23 Q178.982 1150.47 178.982 1148.78 Q178.982 1146.03 177.038 1144.29 Q175.116 1142.55 172.014 1142.55 Q169.815 1142.55 167.362 1143.32 Q164.931 1144.08 162.153 1145.63 L162.153 1140.91 Q164.977 1139.78 167.431 1139.2 Q169.885 1138.62 171.922 1138.62 Q177.292 1138.62 180.487 1141.3 Q183.681 1143.99 183.681 1148.48 Q183.681 1150.61 182.871 1152.53 Q182.084 1154.43 179.977 1157.02 Q179.399 1157.69 176.297 1160.91 Q173.195 1164.1 167.547 1169.87 Z" fill="#000000" fill-rule="nonzero" fill-opacity="1" /><path clip-path="url(#clip450)" d="M126.205 873.605 Q122.593 873.605 120.765 877.17 Q118.959 880.712 118.959 887.841 Q118.959 894.948 120.765 898.513 Q122.593 902.054 126.205 902.054 Q129.839 902.054 131.644 898.513 Q133.473 894.948 133.473 887.841 Q133.473 880.712 131.644 877.17 Q129.839 873.605 126.205 873.605 M126.205 869.902 Q132.015 869.902 135.07 874.508 Q138.149 879.091 138.149 887.841 Q138.149 896.568 135.07 901.175 Q132.015 905.758 126.205 905.758 Q120.394 905.758 117.316 901.175 Q114.26 896.568 114.26 887.841 Q114.26 879.091 117.316 874.508 Q120.394 869.902 126.205 869.902 Z" fill="#000000" fill-rule="nonzero" fill-opacity="1" /><path clip-path="url(#clip450)" d="M146.366 899.207 L151.251 899.207 L151.251 905.087 L146.366 905.087 L146.366 899.207 Z" fill="#000000" fill-rule="nonzero" fill-opacity="1" /><path clip-path="url(#clip450)" d="M174.283 874.601 L162.477 893.05 L174.283 893.05 L174.283 874.601 M173.056 870.527 L178.936 870.527 L178.936 893.05 L183.866 893.05 L183.866 896.939 L178.936 896.939 L178.936 905.087 L174.283 905.087 L174.283 896.939 L158.681 896.939 L158.681 892.425 L173.056 870.527 Z" fill="#000000" fill-rule="nonzero" fill-opacity="1" /><path clip-path="url(#clip450)" d="M126.529 604.888 Q122.918 604.888 121.089 608.453 Q119.283 611.995 119.283 619.124 Q119.283 626.231 121.089 629.795 Q122.918 633.337 126.529 633.337 Q130.163 633.337 131.968 629.795 Q133.797 626.231 133.797 619.124 Q133.797 611.995 131.968 608.453 Q130.163 604.888 126.529 604.888 M126.529 601.185 Q132.339 601.185 135.394 605.791 Q138.473 610.374 138.473 619.124 Q138.473 627.851 135.394 632.458 Q132.339 637.041 126.529 637.041 Q120.718 637.041 117.64 632.458 Q114.584 627.851 114.584 619.124 Q114.584 610.374 117.64 605.791 Q120.718 601.185 126.529 601.185 Z" fill="#000000" fill-rule="nonzero" fill-opacity="1" /><path clip-path="url(#clip450)" d="M146.691 630.49 L151.575 630.49 L151.575 636.37 L146.691 636.37 L146.691 630.49 Z" fill="#000000" fill-rule="nonzero" fill-opacity="1" /><path clip-path="url(#clip450)" d="M172.339 617.226 Q169.19 617.226 167.339 619.379 Q165.51 621.532 165.51 625.282 Q165.51 629.008 167.339 631.184 Q169.19 633.337 172.339 633.337 Q175.487 633.337 177.315 631.184 Q179.167 629.008 179.167 625.282 Q179.167 621.532 177.315 619.379 Q175.487 617.226 172.339 617.226 M181.621 602.573 L181.621 606.833 Q179.862 605.999 178.056 605.56 Q176.274 605.12 174.514 605.12 Q169.885 605.12 167.431 608.245 Q165.001 611.37 164.653 617.689 Q166.019 615.675 168.079 614.61 Q170.139 613.522 172.616 613.522 Q177.825 613.522 180.834 616.694 Q183.866 619.842 183.866 625.282 Q183.866 630.606 180.718 633.823 Q177.57 637.041 172.339 637.041 Q166.343 637.041 163.172 632.458 Q160.001 627.851 160.001 619.124 Q160.001 610.93 163.89 606.069 Q167.778 601.185 174.329 601.185 Q176.089 601.185 177.871 601.532 Q179.676 601.879 181.621 602.573 Z" fill="#000000" fill-rule="nonzero" fill-opacity="1" /><path clip-path="url(#clip450)" d="M126.783 336.171 Q123.172 336.171 121.343 339.736 Q119.538 343.277 119.538 350.407 Q119.538 357.514 121.343 361.078 Q123.172 364.62 126.783 364.62 Q130.417 364.62 132.223 361.078 Q134.052 357.514 134.052 350.407 Q134.052 343.277 132.223 339.736 Q130.417 336.171 126.783 336.171 M126.783 332.467 Q132.593 332.467 135.649 337.074 Q138.728 341.657 138.728 350.407 Q138.728 359.134 135.649 363.74 Q132.593 368.324 126.783 368.324 Q120.973 368.324 117.894 363.74 Q114.839 359.134 114.839 350.407 Q114.839 341.657 117.894 337.074 Q120.973 332.467 126.783 332.467 Z" fill="#000000" fill-rule="nonzero" fill-opacity="1" /><path clip-path="url(#clip450)" d="M146.945 361.773 L151.829 361.773 L151.829 367.652 L146.945 367.652 L146.945 361.773 Z" fill="#000000" fill-rule="nonzero" fill-opacity="1" /><path clip-path="url(#clip450)" d="M172.014 351.24 Q168.681 351.24 166.76 353.023 Q164.862 354.805 164.862 357.93 Q164.862 361.055 166.76 362.838 Q168.681 364.62 172.014 364.62 Q175.348 364.62 177.269 362.838 Q179.19 361.032 179.19 357.93 Q179.19 354.805 177.269 353.023 Q175.371 351.24 172.014 351.24 M167.339 349.25 Q164.329 348.509 162.64 346.449 Q160.973 344.389 160.973 341.426 Q160.973 337.282 163.913 334.875 Q166.876 332.467 172.014 332.467 Q177.176 332.467 180.116 334.875 Q183.056 337.282 183.056 341.426 Q183.056 344.389 181.366 346.449 Q179.7 348.509 176.714 349.25 Q180.093 350.037 181.968 352.328 Q183.866 354.62 183.866 357.93 Q183.866 362.953 180.788 365.638 Q177.732 368.324 172.014 368.324 Q166.297 368.324 163.218 365.638 Q160.163 362.953 160.163 357.93 Q160.163 354.62 162.061 352.328 Q163.959 350.037 167.339 349.25 M165.626 341.865 Q165.626 344.551 167.292 346.055 Q168.982 347.56 172.014 347.56 Q175.024 347.56 176.714 346.055 Q178.426 344.551 178.426 341.865 Q178.426 339.18 176.714 337.676 Q175.024 336.171 172.014 336.171 Q168.982 336.171 167.292 337.676 Q165.626 339.18 165.626 341.865 Z" fill="#000000" fill-rule="nonzero" fill-opacity="1" /><path clip-path="url(#clip450)" d="M117.501 95 L125.14 95 L125.14 68.6344 L116.83 70.3011 L116.83 66.0418 L125.093 64.3752 L129.769 64.3752 L129.769 95 L137.408 95 L137.408 98.9352 L117.501 98.9352 L117.501 95 Z" fill="#000000" fill-rule="nonzero" fill-opacity="1" /><path clip-path="url(#clip450)" d="M146.853 93.0556 L151.737 93.0556 L151.737 98.9352 L146.853 98.9352 L146.853 93.0556 Z" fill="#000000" fill-rule="nonzero" fill-opacity="1" /><path clip-path="url(#clip450)" d="M171.922 67.4539 Q168.311 67.4539 166.482 71.0187 Q164.677 74.5603 164.677 81.6899 Q164.677 88.7964 166.482 92.3612 Q168.311 95.9028 171.922 95.9028 Q175.556 95.9028 177.362 92.3612 Q179.19 88.7964 179.19 81.6899 Q179.19 74.5603 177.362 71.0187 Q175.556 67.4539 171.922 67.4539 M171.922 63.7502 Q177.732 63.7502 180.788 68.3567 Q183.866 72.94 183.866 81.6899 Q183.866 90.4167 180.788 95.0232 Q177.732 99.6065 171.922 99.6065 Q166.112 99.6065 163.033 95.0232 Q159.978 90.4167 159.978 81.6899 Q159.978 72.94 163.033 68.3567 Q166.112 63.7502 171.922 63.7502 Z" fill="#000000" fill-rule="nonzero" fill-opacity="1" /><path clip-path="url(#clip450)" d="M22.818 1055.17 L46.4666 1063.89 L46.4666 1046.42 L22.818 1055.17 M16.4842 1058.8 L16.4842 1051.51 L64.0042 1033.4 L64.0042 1040.08 L51.8138 1044.41 L51.8138 1065.83 L64.0042 1070.16 L64.0042 1076.94 L16.4842 1058.8 Z" fill="#000000" fill-rule="nonzero" fill-opacity="1" /><path clip-path="url(#clip450)" d="M35.1993 998.959 Q31.2526 996.763 29.3747 993.707 Q27.4968 990.652 27.4968 986.514 Q27.4968 980.944 31.4117 977.92 Q35.2948 974.897 42.4881 974.897 L64.0042 974.897 L64.0042 980.785 L42.679 980.785 Q37.5546 980.785 35.072 982.599 Q32.5894 984.413 32.5894 988.137 Q32.5894 992.689 35.6131 995.331 Q38.6368 997.972 43.8567 997.972 L64.0042 997.972 L64.0042 1003.86 L42.679 1003.86 Q37.5228 1003.86 35.072 1005.67 Q32.5894 1007.49 32.5894 1011.28 Q32.5894 1015.76 35.6449 1018.41 Q38.6686 1021.05 43.8567 1021.05 L64.0042 1021.05 L64.0042 1026.94 L28.3562 1026.94 L28.3562 1021.05 L33.8944 1021.05 Q30.616 1019.04 29.0564 1016.24 Q27.4968 1013.44 27.4968 1009.59 Q27.4968 1005.71 29.4702 1003 Q31.4436 1000.26 35.1993 998.959 Z" fill="#000000" fill-rule="nonzero" fill-opacity="1" /><path clip-path="url(#clip450)" d="M32.4621 949.402 Q32.4621 954.113 36.1542 956.85 Q39.8145 959.587 46.212 959.587 Q52.6095 959.587 56.3017 956.882 Q59.9619 954.145 59.9619 949.402 Q59.9619 944.723 56.2698 941.986 Q52.5777 939.249 46.212 939.249 Q39.8781 939.249 36.186 941.986 Q32.4621 944.723 32.4621 949.402 M27.4968 949.402 Q27.4968 941.763 32.4621 937.403 Q37.4273 933.042 46.212 933.042 Q54.9649 933.042 59.9619 937.403 Q64.9272 941.763 64.9272 949.402 Q64.9272 957.073 59.9619 961.433 Q54.9649 965.762 46.212 965.762 Q37.4273 965.762 32.4621 961.433 Q27.4968 957.073 27.4968 949.402 Z" fill="#000000" fill-rule="nonzero" fill-opacity="1" /><path clip-path="url(#clip450)" d="M49.9359 923.939 L28.3562 923.939 L28.3562 918.083 L49.7131 918.083 Q54.7739 918.083 57.3202 916.109 Q59.8346 914.136 59.8346 910.189 Q59.8346 905.447 56.8109 902.71 Q53.7872 899.941 48.5673 899.941 L28.3562 899.941 L28.3562 894.084 L64.0042 894.084 L64.0042 899.941 L58.5296 899.941 Q61.7762 902.073 63.3676 904.906 Q64.9272 907.707 64.9272 911.431 Q64.9272 917.574 61.1078 920.756 Q57.2883 923.939 49.9359 923.939 M27.4968 909.203 L27.4968 909.203 Z" fill="#000000" fill-rule="nonzero" fill-opacity="1" /><path clip-path="url(#clip450)" d="M42.4881 852.389 L64.0042 852.389 L64.0042 858.245 L42.679 858.245 Q37.6183 858.245 35.1038 860.219 Q32.5894 862.192 32.5894 866.139 Q32.5894 870.881 35.6131 873.618 Q38.6368 876.356 43.8567 876.356 L64.0042 876.356 L64.0042 882.244 L28.3562 882.244 L28.3562 876.356 L33.8944 876.356 Q30.6797 874.255 29.0883 871.422 Q27.4968 868.558 27.4968 864.834 Q27.4968 858.691 31.3163 855.54 Q35.1038 852.389 42.4881 852.389 Z" fill="#000000" fill-rule="nonzero" fill-opacity="1" /><path clip-path="url(#clip450)" d="M18.2347 834.915 L28.3562 834.915 L28.3562 822.852 L32.9077 822.852 L32.9077 834.915 L52.2594 834.915 Q56.6199 834.915 57.8613 833.737 Q59.1026 832.528 59.1026 828.867 L59.1026 822.852 L64.0042 822.852 L64.0042 828.867 Q64.0042 835.647 61.4897 838.225 Q58.9434 840.803 52.2594 840.803 L32.9077 840.803 L32.9077 845.1 L28.3562 845.1 L28.3562 840.803 L18.2347 840.803 L18.2347 834.915 Z" fill="#000000" fill-rule="nonzero" fill-opacity="1" /><path clip-path="url(#clip450)" d="M32.4621 780.615 Q32.4621 785.326 36.1542 788.063 Q39.8145 790.801 46.212 790.801 Q52.6095 790.801 56.3017 788.095 Q59.9619 785.358 59.9619 780.615 Q59.9619 775.937 56.2698 773.199 Q52.5777 770.462 46.212 770.462 Q39.8781 770.462 36.186 773.199 Q32.4621 775.937 32.4621 780.615 M27.4968 780.615 Q27.4968 772.977 32.4621 768.616 Q37.4273 764.256 46.212 764.256 Q54.9649 764.256 59.9619 768.616 Q64.9272 772.977 64.9272 780.615 Q64.9272 788.286 59.9619 792.647 Q54.9649 796.975 46.212 796.975 Q37.4273 796.975 32.4621 792.647 Q27.4968 788.286 27.4968 780.615 Z" fill="#000000" fill-rule="nonzero" fill-opacity="1" /><path clip-path="url(#clip450)" d="M14.479 736.501 L19.3487 736.501 L19.3487 742.103 Q19.3487 745.254 20.6219 746.495 Q21.895 747.705 25.2052 747.705 L28.3562 747.705 L28.3562 738.061 L32.9077 738.061 L32.9077 747.705 L64.0042 747.705 L64.0042 753.593 L32.9077 753.593 L32.9077 759.195 L28.3562 759.195 L28.3562 753.593 L25.8736 753.593 Q19.9216 753.593 17.2162 750.824 Q14.479 748.055 14.479 742.039 L14.479 736.501 Z" fill="#000000" fill-rule="nonzero" fill-opacity="1" /><path clip-path="url(#clip450)" d="M16.4842 712.916 L16.4842 706.009 L34.149 694.201 L16.4842 682.329 L16.4842 675.422 L39.3052 690.7 L64.0042 674.404 L64.0042 681.31 L43.793 694.678 L64.0042 708.142 L64.0042 715.08 L38.6368 698.116 L16.4842 712.916 Z" fill="#000000" fill-rule="nonzero" fill-opacity="1" /><path clip-path="url(#clip450)" d="M28.3562 645.503 L28.3562 639.647 L64.0042 639.647 L64.0042 645.503 L28.3562 645.503 M14.479 645.503 L14.479 639.647 L21.895 639.647 L21.895 645.503 L14.479 645.503 Z" fill="#000000" fill-rule="nonzero" fill-opacity="1" /><path clip-path="url(#clip450)" d="M42.4881 597.76 L64.0042 597.76 L64.0042 603.617 L42.679 603.617 Q37.6183 603.617 35.1038 605.59 Q32.5894 607.564 32.5894 611.51 Q32.5894 616.253 35.6131 618.99 Q38.6368 621.727 43.8567 621.727 L64.0042 621.727 L64.0042 627.616 L28.3562 627.616 L28.3562 621.727 L33.8944 621.727 Q30.6797 619.627 29.0883 616.794 Q27.4968 613.929 27.4968 610.205 Q27.4968 604.062 31.3163 600.911 Q35.1038 597.76 42.4881 597.76 Z" fill="#000000" fill-rule="nonzero" fill-opacity="1" /><path clip-path="url(#clip450)" d="M20.1444 529.52 L26.9239 529.52 Q23.9002 532.767 22.4043 536.459 Q20.9083 540.119 20.9083 544.257 Q20.9083 552.405 25.9054 556.733 Q30.8707 561.062 40.2919 561.062 Q49.6813 561.062 54.6784 556.733 Q59.6436 552.405 59.6436 544.257 Q59.6436 540.119 58.1477 536.459 Q56.6518 532.767 53.6281 529.52 L60.3439 529.52 Q62.6355 532.894 63.7814 536.681 Q64.9272 540.437 64.9272 544.639 Q64.9272 555.428 58.3387 561.635 Q51.7183 567.842 40.2919 567.842 Q28.8336 567.842 22.2451 561.635 Q15.6248 555.428 15.6248 544.639 Q15.6248 540.374 16.7706 536.618 Q17.8846 532.83 20.1444 529.52 Z" fill="#000000" fill-rule="nonzero" fill-opacity="1" /><path clip-path="url(#clip450)" d="M44.7161 489.352 L47.5806 489.352 L47.5806 516.279 Q53.6281 515.897 56.8109 512.651 Q59.9619 509.373 59.9619 503.548 Q59.9619 500.174 59.1344 497.023 Q58.3069 493.84 56.6518 490.721 L62.1899 490.721 Q63.5267 493.872 64.227 497.182 Q64.9272 500.492 64.9272 503.898 Q64.9272 512.428 59.9619 517.425 Q54.9967 522.39 46.5303 522.39 Q37.7774 522.39 32.6531 517.68 Q27.4968 512.937 27.4968 504.917 Q27.4968 497.723 32.1438 493.554 Q36.7589 489.352 44.7161 489.352 M42.9973 495.209 Q38.1912 495.273 35.3266 497.914 Q32.4621 500.524 32.4621 504.853 Q32.4621 509.755 35.2312 512.715 Q38.0002 515.643 43.0292 516.088 L42.9973 495.209 Z" fill="#000000" fill-rule="nonzero" fill-opacity="1" /><path clip-path="url(#clip450)" d="M14.479 479.74 L14.479 473.884 L64.0042 473.884 L64.0042 479.74 L14.479 479.74 Z" fill="#000000" fill-rule="nonzero" fill-opacity="1" /><path clip-path="url(#clip450)" d="M14.479 461.63 L14.479 455.773 L64.0042 455.773 L64.0042 461.63 L14.479 461.63 Z" fill="#000000" fill-rule="nonzero" fill-opacity="1" /><path clip-path="url(#clip450)" d="M58.5933 420.857 L58.5933 410.354 L22.3406 410.354 L24.6323 421.78 L18.7758 421.78 L16.4842 410.418 L16.4842 403.988 L58.5933 403.988 L58.5933 393.485 L64.0042 393.485 L64.0042 420.857 L58.5933 420.857 Z" fill="#000000" fill-rule="nonzero" fill-opacity="1" /><polyline clip-path="url(#clip451)" style="stroke:#009af9; stroke-linecap:round; stroke-linejoin:round; stroke-width:12; stroke-opacity:1; fill:none" points="280.231,1156.52 300.556,1148.26 320.881,1139.73 341.206,1130.95 361.53,1121.9 381.855,1112.56 402.18,1102.94 422.505,1093.03 442.83,1082.81 463.155,1072.27 483.48,1061.41 503.804,1050.22 524.129,1038.68 544.454,1026.78 564.779,1014.53 585.104,1001.89 605.429,988.864 625.753,975.438 646.078,961.598 666.403,947.334 686.728,932.63 707.053,917.474 727.378,901.851 747.703,885.749 768.027,869.15 788.352,852.041 808.677,834.406 829.002,816.227 849.327,797.49 869.652,778.176 889.977,758.267 910.301,737.747 930.626,716.594 950.951,694.792 971.276,672.318 991.601,649.154 1011.93,625.276 1032.25,600.664 1052.58,575.295 1072.9,549.145 1093.23,522.19 1113.55,494.406 1133.87,465.767 1154.2,436.246 1174.52,405.818 1194.85,374.453 1215.17,342.124 1235.5,308.8 1255.82,274.45 1276.15,239.044 1296.47,202.549 1316.8,164.93 1337.12,126.155 1357.45,86.1857 1377.77,1384.24 1398.1,1382.98 1418.42,1381.68 1438.75,1380.34 1459.07,1378.95 1479.4,1377.53 1499.72,1376.06 1520.05,1374.55 1540.37,1372.99 1560.7,1371.38 1581.02,1369.73 1601.35,1368.02 1621.67,1366.26 1642,1364.44 1662.32,1362.57 1682.65,1360.64 1702.97,1358.66 1723.3,1356.61 1743.62,1354.5 1763.95,1352.32 1784.27,1350.08 1804.59,1347.76 1824.92,1345.38 1845.24,1342.92 1865.57,1340.39 1885.89,1337.78 1906.22,1335.09 1926.54,1332.31 1946.87,1329.45 1967.19,1326.51 1987.52,1323.47 2007.84,1320.34 2028.17,1317.11 2048.49,1313.78 2068.82,1310.36 2089.14,1306.82 2109.47,1303.18 2129.79,1299.42 2150.12,1295.55 2170.44,1291.56 2190.77,1287.45 2211.09,1283.21 2231.42,1278.84 2251.74,1274.33 2272.07,1269.69 2292.39,1264.9 "/>
<path clip-path="url(#clip450)" d="M2015.94 196.789 L2281.66 196.789 L2281.66 93.1086 L2015.94 93.1086  Z" fill="#ffffff" fill-rule="evenodd" fill-opacity="1"/>
<polyline clip-path="url(#clip450)" style="stroke:#000000; stroke-linecap:round; stroke-linejoin:round; stroke-width:4; stroke-opacity:1; fill:none" points="2015.94,196.789 2281.66,196.789 2281.66,93.1086 2015.94,93.1086 2015.94,196.789 "/>
<polyline clip-path="url(#clip450)" style="stroke:#009af9; stroke-linecap:round; stroke-linejoin:round; stroke-width:12; stroke-opacity:1; fill:none" points="2039.64,144.949 2181.83,144.949 "/>
<path clip-path="url(#clip450)" d="M2219.37 164.636 Q2217.57 169.266 2215.85 170.678 Q2214.14 172.09 2211.27 172.09 L2207.87 172.09 L2207.87 168.525 L2210.37 168.525 Q2212.13 168.525 2213.1 167.692 Q2214.07 166.858 2215.25 163.756 L2216.02 161.812 L2205.53 136.303 L2210.04 136.303 L2218.15 156.581 L2226.25 136.303 L2230.76 136.303 L2219.37 164.636 Z" fill="#000000" fill-rule="nonzero" fill-opacity="1" /><path clip-path="url(#clip450)" d="M2238.05 158.293 L2245.69 158.293 L2245.69 131.928 L2237.38 133.595 L2237.38 129.335 L2245.65 127.669 L2250.32 127.669 L2250.32 158.293 L2257.96 158.293 L2257.96 162.229 L2238.05 162.229 L2238.05 158.293 Z" fill="#000000" fill-rule="nonzero" fill-opacity="1" /></svg>
