<?xml version="1.0" encoding="utf-8"?>
<svg xmlns="http://www.w3.org/2000/svg" xmlns:xlink="http://www.w3.org/1999/xlink" width="600" height="400" viewBox="0 0 2400 1600">
<defs>
  <clipPath id="clip650">
    <rect x="0" y="0" width="2400" height="1600"/>
  </clipPath>
</defs>
<path clip-path="url(#clip650)" d="M0 1600 L2400 1600 L2400 0 L0 0  Z" fill="#ffffff" fill-rule="evenodd" fill-opacity="1"/>
<defs>
  <clipPath id="clip651">
    <rect x="480" y="0" width="1681" height="1600"/>
  </clipPath>
</defs>
<path clip-path="url(#clip650)" d="M156.274 1423.18 L2352.76 1423.18 L2352.76 47.2441 L156.274 47.2441  Z" fill="#ffffff" fill-rule="evenodd" fill-opacity="1"/>
<defs>
  <clipPath id="clip652">
    <rect x="156" y="47" width="2197" height="1377"/>
  </clipPath>
</defs>
<polyline clip-path="url(#clip652)" style="stroke:#000000; stroke-linecap:round; stroke-linejoin:round; stroke-width:2; stroke-opacity:0.1; fill:none" points="156.274,1423.18 156.274,47.2441 "/>
<polyline clip-path="url(#clip652)" style="stroke:#000000; stroke-linecap:round; stroke-linejoin:round; stroke-width:2; stroke-opacity:0.1; fill:none" points="595.571,1423.18 595.571,47.2441 "/>
<polyline clip-path="url(#clip652)" style="stroke:#000000; stroke-linecap:round; stroke-linejoin:round; stroke-width:2; stroke-opacity:0.1; fill:none" points="1034.87,1423.18 1034.87,47.2441 "/>
<polyline clip-path="url(#clip652)" style="stroke:#000000; stroke-linecap:round; stroke-linejoin:round; stroke-width:2; stroke-opacity:0.1; fill:none" points="1474.16,1423.18 1474.16,47.2441 "/>
<polyline clip-path="url(#clip652)" style="stroke:#000000; stroke-linecap:round; stroke-linejoin:round; stroke-width:2; stroke-opacity:0.1; fill:none" points="1913.46,1423.18 1913.46,47.2441 "/>
<polyline clip-path="url(#clip652)" style="stroke:#000000; stroke-linecap:round; stroke-linejoin:round; stroke-width:2; stroke-opacity:0.1; fill:none" points="2352.76,1423.18 2352.76,47.2441 "/>
<polyline clip-path="url(#clip650)" style="stroke:#000000; stroke-linecap:round; stroke-linejoin:round; stroke-width:4; stroke-opacity:1; fill:none" points="156.274,1423.18 2352.76,1423.18 "/>
<polyline clip-path="url(#clip650)" style="stroke:#000000; stroke-linecap:round; stroke-linejoin:round; stroke-width:4; stroke-opacity:1; fill:none" points="156.274,1423.18 156.274,1404.28 "/>
<polyline clip-path="url(#clip650)" style="stroke:#000000; stroke-linecap:round; stroke-linejoin:round; stroke-width:4; stroke-opacity:1; fill:none" points="595.571,1423.18 595.571,1404.28 "/>
<polyline clip-path="url(#clip650)" style="stroke:#000000; stroke-linecap:round; stroke-linejoin:round; stroke-width:4; stroke-opacity:1; fill:none" points="1034.87,1423.18 1034.87,1404.28 "/>
<polyline clip-path="url(#clip650)" style="stroke:#000000; stroke-linecap:round; stroke-linejoin:round; stroke-width:4; stroke-opacity:1; fill:none" points="1474.16,1423.18 1474.16,1404.28 "/>
<polyline clip-path="url(#clip650)" style="stroke:#000000; stroke-linecap:round; stroke-linejoin:round; stroke-width:4; stroke-opacity:1; fill:none" points="1913.46,1423.18 1913.46,1404.28 "/>
<polyline clip-path="url(#clip650)" style="stroke:#000000; stroke-linecap:round; stroke-linejoin:round; stroke-width:4; stroke-opacity:1; fill:none" points="2352.76,1423.18 2352.76,1404.28 "/>
<path clip-path="url(#clip650)" d="M133.659 1454.1 Q130.047 1454.1 128.219 1457.66 Q126.413 1461.2 126.413 1468.33 Q126.413 1475.44 128.219 1479.01 Q130.047 1482.55 133.659 1482.55 Q137.293 1482.55 139.098 1479.01 Q140.927 1475.44 140.927 1468.33 Q140.927 1461.2 139.098 1457.66 Q137.293 1454.1 133.659 1454.1 M133.659 1450.39 Q139.469 1450.39 142.524 1455 Q145.603 1459.58 145.603 1468.33 Q145.603 1477.06 142.524 1481.67 Q139.469 1486.25 133.659 1486.25 Q127.848 1486.25 124.77 1481.67 Q121.714 1477.06 121.714 1468.33 Q121.714 1459.58 124.77 1455 Q127.848 1450.39 133.659 1450.39 Z" fill="#000000" fill-rule="nonzero" fill-opacity="1" /><path clip-path="url(#clip650)" d="M153.82 1479.7 L158.705 1479.7 L158.705 1485.58 L153.82 1485.58 L153.82 1479.7 Z" fill="#000000" fill-rule="nonzero" fill-opacity="1" /><path clip-path="url(#clip650)" d="M178.89 1454.1 Q175.279 1454.1 173.45 1457.66 Q171.644 1461.2 171.644 1468.33 Q171.644 1475.44 173.45 1479.01 Q175.279 1482.55 178.89 1482.55 Q182.524 1482.55 184.33 1479.01 Q186.158 1475.44 186.158 1468.33 Q186.158 1461.2 184.33 1457.66 Q182.524 1454.1 178.89 1454.1 M178.89 1450.39 Q184.7 1450.39 187.755 1455 Q190.834 1459.58 190.834 1468.33 Q190.834 1477.06 187.755 1481.67 Q184.7 1486.25 178.89 1486.25 Q173.08 1486.25 170.001 1481.67 Q166.945 1477.06 166.945 1468.33 Q166.945 1459.58 170.001 1455 Q173.08 1450.39 178.89 1450.39 Z" fill="#000000" fill-rule="nonzero" fill-opacity="1" /><path clip-path="url(#clip650)" d="M573.753 1454.1 Q570.142 1454.1 568.314 1457.66 Q566.508 1461.2 566.508 1468.33 Q566.508 1475.44 568.314 1479.01 Q570.142 1482.55 573.753 1482.55 Q577.388 1482.55 579.193 1479.01 Q581.022 1475.44 581.022 1468.33 Q581.022 1461.2 579.193 1457.66 Q577.388 1454.1 573.753 1454.1 M573.753 1450.39 Q579.564 1450.39 582.619 1455 Q585.698 1459.58 585.698 1468.33 Q585.698 1477.06 582.619 1481.67 Q579.564 1486.25 573.753 1486.25 Q567.943 1486.25 564.865 1481.67 Q561.809 1477.06 561.809 1468.33 Q561.809 1459.58 564.865 1455 Q567.943 1450.39 573.753 1450.39 Z" fill="#000000" fill-rule="nonzero" fill-opacity="1" /><path clip-path="url(#clip650)" d="M593.915 1479.7 L598.8 1479.7 L598.8 1485.58 L593.915 1485.58 L593.915 1479.7 Z" fill="#000000" fill-rule="nonzero" fill-opacity="1" /><path clip-path="url(#clip650)" d="M613.013 1481.64 L629.332 1481.64 L629.332 1485.58 L607.388 1485.58 L607.388 1481.64 Q610.05 1478.89 614.633 1474.26 Q619.239 1469.61 620.42 1468.27 Q622.665 1465.74 623.545 1464.01 Q624.448 1462.25 624.448 1460.56 Q624.448 1457.8 622.503 1456.07 Q620.582 1454.33 617.48 1454.33 Q615.281 1454.33 612.827 1455.09 Q610.397 1455.86 607.619 1457.41 L607.619 1452.69 Q610.443 1451.55 612.897 1450.97 Q615.35 1450.39 617.388 1450.39 Q622.758 1450.39 625.952 1453.08 Q629.147 1455.77 629.147 1460.26 Q629.147 1462.39 628.337 1464.31 Q627.55 1466.2 625.443 1468.8 Q624.864 1469.47 621.763 1472.69 Q618.661 1475.88 613.013 1481.64 Z" fill="#000000" fill-rule="nonzero" fill-opacity="1" /><path clip-path="url(#clip650)" d="M1012.01 1454.1 Q1008.4 1454.1 1006.57 1457.66 Q1004.76 1461.2 1004.76 1468.33 Q1004.76 1475.44 1006.57 1479.01 Q1008.4 1482.55 1012.01 1482.55 Q1015.64 1482.55 1017.45 1479.01 Q1019.28 1475.44 1019.28 1468.33 Q1019.28 1461.2 1017.45 1457.66 Q1015.64 1454.1 1012.01 1454.1 M1012.01 1450.39 Q1017.82 1450.39 1020.87 1455 Q1023.95 1459.58 1023.95 1468.33 Q1023.95 1477.06 1020.87 1481.67 Q1017.82 1486.25 1012.01 1486.25 Q1006.2 1486.25 1003.12 1481.67 Q1000.06 1477.06 1000.06 1468.33 Q1000.06 1459.58 1003.12 1455 Q1006.2 1450.39 1012.01 1450.39 Z" fill="#000000" fill-rule="nonzero" fill-opacity="1" /><path clip-path="url(#clip650)" d="M1032.17 1479.7 L1037.05 1479.7 L1037.05 1485.58 L1032.17 1485.58 L1032.17 1479.7 Z" fill="#000000" fill-rule="nonzero" fill-opacity="1" /><path clip-path="url(#clip650)" d="M1060.09 1455.09 L1048.28 1473.54 L1060.09 1473.54 L1060.09 1455.09 M1058.86 1451.02 L1064.74 1451.02 L1064.74 1473.54 L1069.67 1473.54 L1069.67 1477.43 L1064.74 1477.43 L1064.74 1485.58 L1060.09 1485.58 L1060.09 1477.43 L1044.48 1477.43 L1044.48 1472.92 L1058.86 1451.02 Z" fill="#000000" fill-rule="nonzero" fill-opacity="1" /><path clip-path="url(#clip650)" d="M1451.47 1454.1 Q1447.86 1454.1 1446.03 1457.66 Q1444.22 1461.2 1444.22 1468.33 Q1444.22 1475.44 1446.03 1479.01 Q1447.86 1482.55 1451.47 1482.55 Q1455.1 1482.55 1456.91 1479.01 Q1458.74 1475.44 1458.74 1468.33 Q1458.74 1461.2 1456.91 1457.66 Q1455.1 1454.1 1451.47 1454.1 M1451.47 1450.39 Q1457.28 1450.39 1460.33 1455 Q1463.41 1459.58 1463.41 1468.33 Q1463.41 1477.06 1460.33 1481.67 Q1457.28 1486.25 1451.47 1486.25 Q1445.66 1486.25 1442.58 1481.67 Q1439.52 1477.06 1439.52 1468.33 Q1439.52 1459.58 1442.58 1455 Q1445.66 1450.39 1451.47 1450.39 Z" fill="#000000" fill-rule="nonzero" fill-opacity="1" /><path clip-path="url(#clip650)" d="M1471.63 1479.7 L1476.51 1479.7 L1476.51 1485.58 L1471.63 1485.58 L1471.63 1479.7 Z" fill="#000000" fill-rule="nonzero" fill-opacity="1" /><path clip-path="url(#clip650)" d="M1497.28 1466.44 Q1494.13 1466.44 1492.28 1468.59 Q1490.45 1470.74 1490.45 1474.49 Q1490.45 1478.22 1492.28 1480.39 Q1494.13 1482.55 1497.28 1482.55 Q1500.42 1482.55 1502.25 1480.39 Q1504.11 1478.22 1504.11 1474.49 Q1504.11 1470.74 1502.25 1468.59 Q1500.42 1466.44 1497.28 1466.44 M1506.56 1451.78 L1506.56 1456.04 Q1504.8 1455.21 1502.99 1454.77 Q1501.21 1454.33 1499.45 1454.33 Q1494.82 1454.33 1492.37 1457.45 Q1489.94 1460.58 1489.59 1466.9 Q1490.96 1464.89 1493.02 1463.82 Q1495.08 1462.73 1497.55 1462.73 Q1502.76 1462.73 1505.77 1465.9 Q1508.8 1469.05 1508.8 1474.49 Q1508.8 1479.82 1505.66 1483.03 Q1502.51 1486.25 1497.28 1486.25 Q1491.28 1486.25 1488.11 1481.67 Q1484.94 1477.06 1484.94 1468.33 Q1484.94 1460.14 1488.83 1455.28 Q1492.72 1450.39 1499.27 1450.39 Q1501.03 1450.39 1502.81 1450.74 Q1504.61 1451.09 1506.56 1451.78 Z" fill="#000000" fill-rule="nonzero" fill-opacity="1" /><path clip-path="url(#clip650)" d="M1890.89 1454.1 Q1887.28 1454.1 1885.45 1457.66 Q1883.64 1461.2 1883.64 1468.33 Q1883.64 1475.44 1885.45 1479.01 Q1887.28 1482.55 1890.89 1482.55 Q1894.52 1482.55 1896.33 1479.01 Q1898.16 1475.44 1898.16 1468.33 Q1898.16 1461.2 1896.33 1457.66 Q1894.52 1454.1 1890.89 1454.1 M1890.89 1450.39 Q1896.7 1450.39 1899.76 1455 Q1902.83 1459.58 1902.83 1468.33 Q1902.83 1477.06 1899.76 1481.67 Q1896.7 1486.25 1890.89 1486.25 Q1885.08 1486.25 1882 1481.67 Q1878.95 1477.06 1878.95 1468.33 Q1878.95 1459.58 1882 1455 Q1885.08 1450.39 1890.89 1450.39 Z" fill="#000000" fill-rule="nonzero" fill-opacity="1" /><path clip-path="url(#clip650)" d="M1911.05 1479.7 L1915.94 1479.7 L1915.94 1485.58 L1911.05 1485.58 L1911.05 1479.7 Z" fill="#000000" fill-rule="nonzero" fill-opacity="1" /><path clip-path="url(#clip650)" d="M1936.12 1469.17 Q1932.79 1469.17 1930.87 1470.95 Q1928.97 1472.73 1928.97 1475.86 Q1928.97 1478.98 1930.87 1480.77 Q1932.79 1482.55 1936.12 1482.55 Q1939.45 1482.55 1941.38 1480.77 Q1943.3 1478.96 1943.3 1475.86 Q1943.3 1472.73 1941.38 1470.95 Q1939.48 1469.17 1936.12 1469.17 M1931.45 1467.18 Q1928.44 1466.44 1926.75 1464.38 Q1925.08 1462.32 1925.08 1459.35 Q1925.08 1455.21 1928.02 1452.8 Q1930.98 1450.39 1936.12 1450.39 Q1941.28 1450.39 1944.22 1452.8 Q1947.16 1455.21 1947.16 1459.35 Q1947.16 1462.32 1945.47 1464.38 Q1943.81 1466.44 1940.82 1467.18 Q1944.2 1467.96 1946.08 1470.26 Q1947.97 1472.55 1947.97 1475.86 Q1947.97 1480.88 1944.89 1483.57 Q1941.84 1486.25 1936.12 1486.25 Q1930.4 1486.25 1927.33 1483.57 Q1924.27 1480.88 1924.27 1475.86 Q1924.27 1472.55 1926.17 1470.26 Q1928.07 1467.96 1931.45 1467.18 M1929.73 1459.79 Q1929.73 1462.48 1931.4 1463.98 Q1933.09 1465.49 1936.12 1465.49 Q1939.13 1465.49 1940.82 1463.98 Q1942.53 1462.48 1942.53 1459.79 Q1942.53 1457.11 1940.82 1455.6 Q1939.13 1454.1 1936.12 1454.1 Q1933.09 1454.1 1931.4 1455.6 Q1929.73 1457.11 1929.73 1459.79 Z" fill="#000000" fill-rule="nonzero" fill-opacity="1" /><path clip-path="url(#clip650)" d="M2319.91 1481.64 L2327.55 1481.64 L2327.55 1455.28 L2319.24 1456.95 L2319.24 1452.69 L2327.5 1451.02 L2332.18 1451.02 L2332.18 1481.64 L2339.82 1481.64 L2339.82 1485.58 L2319.91 1485.58 L2319.91 1481.64 Z" fill="#000000" fill-rule="nonzero" fill-opacity="1" /><path clip-path="url(#clip650)" d="M2349.26 1479.7 L2354.14 1479.7 L2354.14 1485.58 L2349.26 1485.58 L2349.26 1479.7 Z" fill="#000000" fill-rule="nonzero" fill-opacity="1" /><path clip-path="url(#clip650)" d="M2374.33 1454.1 Q2370.72 1454.1 2368.89 1457.66 Q2367.08 1461.2 2367.08 1468.33 Q2367.08 1475.44 2368.89 1479.01 Q2370.72 1482.55 2374.33 1482.55 Q2377.96 1482.55 2379.77 1479.01 Q2381.6 1475.44 2381.6 1468.33 Q2381.6 1461.2 2379.77 1457.66 Q2377.96 1454.1 2374.33 1454.1 M2374.33 1450.39 Q2380.14 1450.39 2383.2 1455 Q2386.27 1459.58 2386.27 1468.33 Q2386.27 1477.06 2383.2 1481.67 Q2380.14 1486.25 2374.33 1486.25 Q2368.52 1486.25 2365.44 1481.67 Q2362.39 1477.06 2362.39 1468.33 Q2362.39 1459.58 2365.44 1455 Q2368.52 1450.39 2374.33 1450.39 Z" fill="#000000" fill-rule="nonzero" fill-opacity="1" /><path clip-path="url(#clip650)" d="M1253.58 1522.27 L1253.58 1532.4 L1265.64 1532.4 L1265.64 1536.95 L1253.58 1536.95 L1253.58 1556.3 Q1253.58 1560.66 1254.75 1561.9 Q1255.96 1563.14 1259.62 1563.14 L1265.64 1563.14 L1265.64 1568.04 L1259.62 1568.04 Q1252.84 1568.04 1250.27 1565.53 Q1247.69 1562.98 1247.69 1556.3 L1247.69 1536.95 L1243.39 1536.95 L1243.39 1532.4 L1247.69 1532.4 L1247.69 1522.27 L1253.58 1522.27 Z" fill="#000000" fill-rule="nonzero" fill-opacity="1" /><polyline clip-path="url(#clip652)" style="stroke:#000000; stroke-linecap:round; stroke-linejoin:round; stroke-width:2; stroke-opacity:0.1; fill:none" points="156.274,1284.57 2352.76,1284.57 "/>
<polyline clip-path="url(#clip652)" style="stroke:#000000; stroke-linecap:round; stroke-linejoin:round; stroke-width:2; stroke-opacity:0.1; fill:none" points="156.274,967.815 2352.76,967.815 "/>
<polyline clip-path="url(#clip652)" style="stroke:#000000; stroke-linecap:round; stroke-linejoin:round; stroke-width:2; stroke-opacity:0.1; fill:none" points="156.274,651.063 2352.76,651.063 "/>
<polyline clip-path="url(#clip652)" style="stroke:#000000; stroke-linecap:round; stroke-linejoin:round; stroke-width:2; stroke-opacity:0.1; fill:none" points="156.274,334.311 2352.76,334.311 "/>
<polyline clip-path="url(#clip650)" style="stroke:#000000; stroke-linecap:round; stroke-linejoin:round; stroke-width:4; stroke-opacity:1; fill:none" points="156.274,1423.18 156.274,47.2441 "/>
<polyline clip-path="url(#clip650)" style="stroke:#000000; stroke-linecap:round; stroke-linejoin:round; stroke-width:4; stroke-opacity:1; fill:none" points="156.274,1284.57 175.172,1284.57 "/>
<polyline clip-path="url(#clip650)" style="stroke:#000000; stroke-linecap:round; stroke-linejoin:round; stroke-width:4; stroke-opacity:1; fill:none" points="156.274,967.815 175.172,967.815 "/>
<polyline clip-path="url(#clip650)" style="stroke:#000000; stroke-linecap:round; stroke-linejoin:round; stroke-width:4; stroke-opacity:1; fill:none" points="156.274,651.063 175.172,651.063 "/>
<polyline clip-path="url(#clip650)" style="stroke:#000000; stroke-linecap:round; stroke-linejoin:round; stroke-width:4; stroke-opacity:1; fill:none" points="156.274,334.311 175.172,334.311 "/>
<path clip-path="url(#clip650)" d="M64.0939 1270.36 Q60.4828 1270.36 58.6541 1273.93 Q56.8486 1277.47 56.8486 1284.6 Q56.8486 1291.71 58.6541 1295.27 Q60.4828 1298.81 64.0939 1298.81 Q67.7281 1298.81 69.5337 1295.27 Q71.3624 1291.71 71.3624 1284.6 Q71.3624 1277.47 69.5337 1273.93 Q67.7281 1270.36 64.0939 1270.36 M64.0939 1266.66 Q69.9041 1266.66 72.9596 1271.27 Q76.0383 1275.85 76.0383 1284.6 Q76.0383 1293.33 72.9596 1297.93 Q69.9041 1302.52 64.0939 1302.52 Q58.2838 1302.52 55.2051 1297.93 Q52.1495 1293.33 52.1495 1284.6 Q52.1495 1275.85 55.2051 1271.27 Q58.2838 1266.66 64.0939 1266.66 Z" fill="#000000" fill-rule="nonzero" fill-opacity="1" /><path clip-path="url(#clip650)" d="M84.2558 1295.97 L89.1401 1295.97 L89.1401 1301.85 L84.2558 1301.85 L84.2558 1295.97 Z" fill="#000000" fill-rule="nonzero" fill-opacity="1" /><path clip-path="url(#clip650)" d="M99.3715 1267.29 L117.728 1267.29 L117.728 1271.22 L103.654 1271.22 L103.654 1279.69 Q104.672 1279.35 105.691 1279.18 Q106.709 1279 107.728 1279 Q113.515 1279 116.895 1282.17 Q120.274 1285.34 120.274 1290.76 Q120.274 1296.34 116.802 1299.44 Q113.33 1302.52 107.01 1302.52 Q104.834 1302.52 102.566 1302.15 Q100.321 1301.78 97.9132 1301.04 L97.9132 1296.34 Q99.9965 1297.47 102.219 1298.03 Q104.441 1298.58 106.918 1298.58 Q110.922 1298.58 113.26 1296.48 Q115.598 1294.37 115.598 1290.76 Q115.598 1287.15 113.26 1285.04 Q110.922 1282.93 106.918 1282.93 Q105.043 1282.93 103.168 1283.35 Q101.316 1283.77 99.3715 1284.65 L99.3715 1267.29 Z" fill="#000000" fill-rule="nonzero" fill-opacity="1" /><path clip-path="url(#clip650)" d="M62.9365 953.613 Q59.3254 953.613 57.4967 957.178 Q55.6912 960.72 55.6912 967.849 Q55.6912 974.956 57.4967 978.521 Q59.3254 982.062 62.9365 982.062 Q66.5707 982.062 68.3763 978.521 Q70.205 974.956 70.205 967.849 Q70.205 960.72 68.3763 957.178 Q66.5707 953.613 62.9365 953.613 M62.9365 949.91 Q68.7467 949.91 71.8022 954.516 Q74.8809 959.099 74.8809 967.849 Q74.8809 976.576 71.8022 981.183 Q68.7467 985.766 62.9365 985.766 Q57.1264 985.766 54.0477 981.183 Q50.9921 976.576 50.9921 967.849 Q50.9921 959.099 54.0477 954.516 Q57.1264 949.91 62.9365 949.91 Z" fill="#000000" fill-rule="nonzero" fill-opacity="1" /><path clip-path="url(#clip650)" d="M83.0984 979.215 L87.9827 979.215 L87.9827 985.095 L83.0984 985.095 L83.0984 979.215 Z" fill="#000000" fill-rule="nonzero" fill-opacity="1" /><path clip-path="url(#clip650)" d="M108.746 965.951 Q105.598 965.951 103.746 968.104 Q101.918 970.257 101.918 974.007 Q101.918 977.734 103.746 979.909 Q105.598 982.062 108.746 982.062 Q111.895 982.062 113.723 979.909 Q115.575 977.734 115.575 974.007 Q115.575 970.257 113.723 968.104 Q111.895 965.951 108.746 965.951 M118.029 951.298 L118.029 955.558 Q116.27 954.724 114.464 954.285 Q112.682 953.845 110.922 953.845 Q106.293 953.845 103.839 956.97 Q101.409 960.095 101.061 966.414 Q102.427 964.4 104.487 963.335 Q106.547 962.247 109.024 962.247 Q114.233 962.247 117.242 965.419 Q120.274 968.567 120.274 974.007 Q120.274 979.331 117.126 982.548 Q113.978 985.766 108.746 985.766 Q102.751 985.766 99.5798 981.183 Q96.4085 976.576 96.4085 967.849 Q96.4085 959.655 100.297 954.794 Q104.186 949.91 110.737 949.91 Q112.496 949.91 114.279 950.257 Q116.084 950.604 118.029 951.298 Z" fill="#000000" fill-rule="nonzero" fill-opacity="1" /><path clip-path="url(#clip650)" d="M64.0013 636.862 Q60.3902 636.862 58.5615 640.426 Q56.756 643.968 56.756 651.098 Q56.756 658.204 58.5615 661.769 Q60.3902 665.311 64.0013 665.311 Q67.6356 665.311 69.4411 661.769 Q71.2698 658.204 71.2698 651.098 Q71.2698 643.968 69.4411 640.426 Q67.6356 636.862 64.0013 636.862 M64.0013 633.158 Q69.8115 633.158 72.867 637.764 Q75.9457 642.348 75.9457 651.098 Q75.9457 659.824 72.867 664.431 Q69.8115 669.014 64.0013 669.014 Q58.1912 669.014 55.1125 664.431 Q52.0569 659.824 52.0569 651.098 Q52.0569 642.348 55.1125 637.764 Q58.1912 633.158 64.0013 633.158 Z" fill="#000000" fill-rule="nonzero" fill-opacity="1" /><path clip-path="url(#clip650)" d="M84.1632 662.463 L89.0475 662.463 L89.0475 668.343 L84.1632 668.343 L84.1632 662.463 Z" fill="#000000" fill-rule="nonzero" fill-opacity="1" /><path clip-path="url(#clip650)" d="M98.0521 633.783 L120.274 633.783 L120.274 635.774 L107.728 668.343 L102.844 668.343 L114.649 637.718 L98.0521 637.718 L98.0521 633.783 Z" fill="#000000" fill-rule="nonzero" fill-opacity="1" /><path clip-path="url(#clip650)" d="M63.1911 320.11 Q59.58 320.11 57.7513 323.675 Q55.9458 327.216 55.9458 334.346 Q55.9458 341.452 57.7513 345.017 Q59.58 348.559 63.1911 348.559 Q66.8254 348.559 68.6309 345.017 Q70.4596 341.452 70.4596 334.346 Q70.4596 327.216 68.6309 323.675 Q66.8254 320.11 63.1911 320.11 M63.1911 316.406 Q69.0013 316.406 72.0568 321.013 Q75.1355 325.596 75.1355 334.346 Q75.1355 343.073 72.0568 347.679 Q69.0013 352.263 63.1911 352.263 Q57.381 352.263 54.3023 347.679 Q51.2468 343.073 51.2468 334.346 Q51.2468 325.596 54.3023 321.013 Q57.381 316.406 63.1911 316.406 Z" fill="#000000" fill-rule="nonzero" fill-opacity="1" /><path clip-path="url(#clip650)" d="M83.3531 345.712 L88.2373 345.712 L88.2373 351.591 L83.3531 351.591 L83.3531 345.712 Z" fill="#000000" fill-rule="nonzero" fill-opacity="1" /><path clip-path="url(#clip650)" d="M108.422 335.179 Q105.089 335.179 103.168 336.962 Q101.27 338.744 101.27 341.869 Q101.27 344.994 103.168 346.776 Q105.089 348.559 108.422 348.559 Q111.756 348.559 113.677 346.776 Q115.598 344.971 115.598 341.869 Q115.598 338.744 113.677 336.962 Q111.779 335.179 108.422 335.179 M103.746 333.189 Q100.737 332.448 99.0474 330.388 Q97.3808 328.328 97.3808 325.365 Q97.3808 321.221 100.321 318.814 Q103.284 316.406 108.422 316.406 Q113.584 316.406 116.524 318.814 Q119.464 321.221 119.464 325.365 Q119.464 328.328 117.774 330.388 Q116.108 332.448 113.121 333.189 Q116.501 333.976 118.376 336.267 Q120.274 338.559 120.274 341.869 Q120.274 346.892 117.195 349.577 Q114.14 352.263 108.422 352.263 Q102.705 352.263 99.6261 349.577 Q96.5706 346.892 96.5706 341.869 Q96.5706 338.559 98.4687 336.267 Q100.367 333.976 103.746 333.189 M102.034 325.804 Q102.034 328.49 103.7 329.994 Q105.39 331.499 108.422 331.499 Q111.432 331.499 113.121 329.994 Q114.834 328.49 114.834 325.804 Q114.834 323.119 113.121 321.615 Q111.432 320.11 108.422 320.11 Q105.39 320.11 103.7 321.615 Q102.034 323.119 102.034 325.804 Z" fill="#000000" fill-rule="nonzero" fill-opacity="1" /><polyline clip-path="url(#clip652)" style="stroke:#009af9; stroke-linecap:round; stroke-linejoin:round; stroke-width:4; stroke-opacity:1; fill:none" points="156.274,1284.57 293.554,1251.17 430.834,1294.36 568.114,857.342 705.395,930.423 842.675,1348.92 979.955,1370.5 1117.23,1219.42 1254.52,1054.2 1391.8,1068.34 1529.08,86.1857 1666.36,944.962 1803.64,1328.96 1940.92,776.48 2078.2,1300.38 2215.48,858.156 2352.76,1186.13 "/>
<polyline clip-path="url(#clip652)" style="stroke:#e26f46; stroke-linecap:round; stroke-linejoin:round; stroke-width:4; stroke-opacity:1; fill:none" points="156.274,1284.57 293.554,1253.67 430.834,1300.04 568.114,862.866 705.395,939.93 842.675,1359.94 979.955,1384.24 1117.23,1235.66 1254.52,1073.3 1391.8,1090.61 1529.08,114.443 1666.36,961.868 1803.64,1346.46 1940.92,797.408 2078.2,1318.43 2215.48,879.513 2352.76,1208.76 "/>
<path clip-path="url(#clip650)" d="M1850.87 248.629 L2279.54 248.629 L2279.54 93.1086 L1850.87 93.1086  Z" fill="#ffffff" fill-rule="evenodd" fill-opacity="1"/>
<polyline clip-path="url(#clip650)" style="stroke:#000000; stroke-linecap:round; stroke-linejoin:round; stroke-width:4; stroke-opacity:1; fill:none" points="1850.87,248.629 2279.54,248.629 2279.54,93.1086 1850.87,93.1086 1850.87,248.629 "/>
<polyline clip-path="url(#clip650)" style="stroke:#009af9; stroke-linecap:round; stroke-linejoin:round; stroke-width:4; stroke-opacity:1; fill:none" points="1875.27,144.949 2021.7,144.949 "/>
<path clip-path="url(#clip650)" d="M2046.11 151.997 L2046.11 136.303 L2050.37 136.303 L2050.37 151.835 Q2050.37 155.516 2051.8 157.368 Q2053.24 159.196 2056.11 159.196 Q2059.56 159.196 2061.55 156.997 Q2063.56 154.798 2063.56 151.002 L2063.56 136.303 L2067.82 136.303 L2067.82 162.229 L2063.56 162.229 L2063.56 158.247 Q2062.01 160.608 2059.95 161.766 Q2057.91 162.9 2055.21 162.9 Q2050.74 162.9 2048.42 160.122 Q2046.11 157.344 2046.11 151.997 M2056.83 135.678 L2056.83 135.678 Z" fill="#000000" fill-rule="nonzero" fill-opacity="1" /><path clip-path="url(#clip650)" d="M2076.2 126.21 L2086.02 126.21 L2086.02 129.52 L2080.46 129.52 L2080.46 165.168 L2086.02 165.168 L2086.02 168.479 L2076.2 168.479 L2076.2 126.21 Z" fill="#000000" fill-rule="nonzero" fill-opacity="1" /><path clip-path="url(#clip650)" d="M2096.5 158.293 L2104.14 158.293 L2104.14 131.928 L2095.83 133.595 L2095.83 129.335 L2104.09 127.669 L2108.77 127.669 L2108.77 158.293 L2116.41 158.293 L2116.41 162.229 L2096.5 162.229 L2096.5 158.293 Z" fill="#000000" fill-rule="nonzero" fill-opacity="1" /><path clip-path="url(#clip650)" d="M2135.2 126.21 L2135.2 168.479 L2125.39 168.479 L2125.39 165.168 L2130.92 165.168 L2130.92 129.52 L2125.39 129.52 L2125.39 126.21 L2135.2 126.21 Z" fill="#000000" fill-rule="nonzero" fill-opacity="1" /><polyline clip-path="url(#clip650)" style="stroke:#e26f46; stroke-linecap:round; stroke-linejoin:round; stroke-width:4; stroke-opacity:1; fill:none" points="1875.27,196.789 2021.7,196.789 "/>
<path clip-path="url(#clip650)" d="M2046.11 179.509 L2075.34 179.509 L2075.34 183.444 L2063.08 183.444 L2063.08 214.069 L2058.38 214.069 L2058.38 183.444 L2046.11 183.444 L2046.11 179.509 Z" fill="#000000" fill-rule="nonzero" fill-opacity="1" /><path clip-path="url(#clip650)" d="M2087.73 192.124 Q2087.01 191.708 2086.15 191.522 Q2085.32 191.314 2084.3 191.314 Q2080.69 191.314 2078.75 193.675 Q2076.83 196.013 2076.83 200.411 L2076.83 214.069 L2072.54 214.069 L2072.54 188.143 L2076.83 188.143 L2076.83 192.171 Q2078.17 189.809 2080.32 188.675 Q2082.47 187.518 2085.55 187.518 Q2085.99 187.518 2086.52 187.587 Q2087.06 187.634 2087.7 187.749 L2087.73 192.124 Z" fill="#000000" fill-rule="nonzero" fill-opacity="1" /><path clip-path="url(#clip650)" d="M2091.76 203.837 L2091.76 188.143 L2096.01 188.143 L2096.01 203.675 Q2096.01 207.356 2097.45 209.208 Q2098.89 211.036 2101.76 211.036 Q2105.2 211.036 2107.2 208.837 Q2109.21 206.638 2109.21 202.842 L2109.21 188.143 L2113.47 188.143 L2113.47 214.069 L2109.21 214.069 L2109.21 210.087 Q2107.66 212.448 2105.6 213.606 Q2103.56 214.74 2100.85 214.74 Q2096.39 214.74 2094.07 211.962 Q2091.76 209.184 2091.76 203.837 M2102.47 187.518 L2102.47 187.518 Z" fill="#000000" fill-rule="nonzero" fill-opacity="1" /><path clip-path="url(#clip650)" d="M2144.42 200.041 L2144.42 202.124 L2124.83 202.124 Q2125.11 206.522 2127.47 208.837 Q2129.86 211.129 2134.09 211.129 Q2136.55 211.129 2138.84 210.527 Q2141.15 209.925 2143.42 208.721 L2143.42 212.749 Q2141.13 213.721 2138.72 214.231 Q2136.32 214.74 2133.84 214.74 Q2127.64 214.74 2124 211.129 Q2120.39 207.518 2120.39 201.36 Q2120.39 194.995 2123.82 191.268 Q2127.26 187.518 2133.1 187.518 Q2138.33 187.518 2141.36 190.897 Q2144.42 194.254 2144.42 200.041 M2140.16 198.791 Q2140.11 195.296 2138.19 193.212 Q2136.29 191.129 2133.14 191.129 Q2129.58 191.129 2127.43 193.143 Q2125.3 195.157 2124.97 198.814 L2140.16 198.791 Z" fill="#000000" fill-rule="nonzero" fill-opacity="1" /><path clip-path="url(#clip650)" d="M2166.04 203.837 L2166.04 188.143 L2170.3 188.143 L2170.3 203.675 Q2170.3 207.356 2171.73 209.208 Q2173.17 211.036 2176.04 211.036 Q2179.49 211.036 2181.48 208.837 Q2183.49 206.638 2183.49 202.842 L2183.49 188.143 L2187.75 188.143 L2187.75 214.069 L2183.49 214.069 L2183.49 210.087 Q2181.94 212.448 2179.88 213.606 Q2177.84 214.74 2175.13 214.74 Q2170.67 214.74 2168.35 211.962 Q2166.04 209.184 2166.04 203.837 M2176.76 187.518 L2176.76 187.518 Z" fill="#000000" fill-rule="nonzero" fill-opacity="1" /><path clip-path="url(#clip650)" d="M2196.13 178.05 L2205.94 178.05 L2205.94 181.36 L2200.39 181.36 L2200.39 217.008 L2205.94 217.008 L2205.94 220.319 L2196.13 220.319 L2196.13 178.05 Z" fill="#000000" fill-rule="nonzero" fill-opacity="1" /><path clip-path="url(#clip650)" d="M2216.43 210.133 L2224.07 210.133 L2224.07 183.768 L2215.76 185.435 L2215.76 181.175 L2224.02 179.509 L2228.7 179.509 L2228.7 210.133 L2236.34 210.133 L2236.34 214.069 L2216.43 214.069 L2216.43 210.133 Z" fill="#000000" fill-rule="nonzero" fill-opacity="1" /><path clip-path="url(#clip650)" d="M2255.13 178.05 L2255.13 220.319 L2245.32 220.319 L2245.32 217.008 L2250.85 217.008 L2250.85 181.36 L2245.32 181.36 L2245.32 178.05 L2255.13 178.05 Z" fill="#000000" fill-rule="nonzero" fill-opacity="1" /></svg>
