<?xml version="1.0" encoding="utf-8"?>
<svg xmlns="http://www.w3.org/2000/svg" xmlns:xlink="http://www.w3.org/1999/xlink" width="600" height="400" viewBox="0 0 2400 1600">
<defs>
  <clipPath id="clip770">
    <rect x="0" y="0" width="2400" height="1600"/>
  </clipPath>
</defs>
<path clip-path="url(#clip770)" d="M0 1600 L2400 1600 L2400 0 L0 0  Z" fill="#ffffff" fill-rule="evenodd" fill-opacity="1"/>
<defs>
  <clipPath id="clip771">
    <rect x="480" y="0" width="1681" height="1600"/>
  </clipPath>
</defs>
<path clip-path="url(#clip770)" d="M156.274 1423.18 L2352.76 1423.18 L2352.76 47.2441 L156.274 47.2441  Z" fill="#ffffff" fill-rule="evenodd" fill-opacity="1"/>
<defs>
  <clipPath id="clip772">
    <rect x="156" y="47" width="2197" height="1377"/>
  </clipPath>
</defs>
<polyline clip-path="url(#clip772)" style="stroke:#000000; stroke-linecap:round; stroke-linejoin:round; stroke-width:2; stroke-opacity:0.1; fill:none" points="156.274,1423.18 156.274,47.2441 "/>
<polyline clip-path="url(#clip772)" style="stroke:#000000; stroke-linecap:round; stroke-linejoin:round; stroke-width:2; stroke-opacity:0.1; fill:none" points="595.571,1423.18 595.571,47.2441 "/>
<polyline clip-path="url(#clip772)" style="stroke:#000000; stroke-linecap:round; stroke-linejoin:round; stroke-width:2; stroke-opacity:0.1; fill:none" points="1034.87,1423.18 1034.87,47.2441 "/>
<polyline clip-path="url(#clip772)" style="stroke:#000000; stroke-linecap:round; stroke-linejoin:round; stroke-width:2; stroke-opacity:0.1; fill:none" points="1474.16,1423.18 1474.16,47.2441 "/>
<polyline clip-path="url(#clip772)" style="stroke:#000000; stroke-linecap:round; stroke-linejoin:round; stroke-width:2; stroke-opacity:0.1; fill:none" points="1913.46,1423.18 1913.46,47.2441 "/>
<polyline clip-path="url(#clip772)" style="stroke:#000000; stroke-linecap:round; stroke-linejoin:round; stroke-width:2; stroke-opacity:0.1; fill:none" points="2352.76,1423.18 2352.76,47.2441 "/>
<polyline clip-path="url(#clip770)" style="stroke:#000000; stroke-linecap:round; stroke-linejoin:round; stroke-width:4; stroke-opacity:1; fill:none" points="156.274,1423.18 2352.76,1423.18 "/>
<polyline clip-path="url(#clip770)" style="stroke:#000000; stroke-linecap:round; stroke-linejoin:round; stroke-width:4; stroke-opacity:1; fill:none" points="156.274,1423.18 156.274,1404.28 "/>
<polyline clip-path="url(#clip770)" style="stroke:#000000; stroke-linecap:round; stroke-linejoin:round; stroke-width:4; stroke-opacity:1; fill:none" points="595.571,1423.18 595.571,1404.28 "/>
<polyline clip-path="url(#clip770)" style="stroke:#000000; stroke-linecap:round; stroke-linejoin:round; stroke-width:4; stroke-opacity:1; fill:none" points="1034.87,1423.18 1034.87,1404.28 "/>
<polyline clip-path="url(#clip770)" style="stroke:#000000; stroke-linecap:round; stroke-linejoin:round; stroke-width:4; stroke-opacity:1; fill:none" points="1474.16,1423.18 1474.16,1404.28 "/>
<polyline clip-path="url(#clip770)" style="stroke:#000000; stroke-linecap:round; stroke-linejoin:round; stroke-width:4; stroke-opacity:1; fill:none" points="1913.46,1423.18 1913.46,1404.28 "/>
<polyline clip-path="url(#clip770)" style="stroke:#000000; stroke-linecap:round; stroke-linejoin:round; stroke-width:4; stroke-opacity:1; fill:none" points="2352.76,1423.18 2352.76,1404.28 "/>
<path clip-path="url(#clip770)" d="M133.659 1454.1 Q130.047 1454.1 128.219 1457.66 Q126.413 1461.2 126.413 1468.33 Q126.413 1475.44 128.219 1479.01 Q130.047 1482.55 133.659 1482.55 Q137.293 1482.55 139.098 1479.01 Q140.927 1475.44 140.927 1468.33 Q140.927 1461.2 139.098 1457.66 Q137.293 1454.1 133.659 1454.1 M133.659 1450.39 Q139.469 1450.39 142.524 1455 Q145.603 1459.58 145.603 1468.33 Q145.603 1477.06 142.524 1481.67 Q139.469 1486.25 133.659 1486.25 Q127.848 1486.25 124.77 1481.67 Q121.714 1477.06 121.714 1468.33 Q121.714 1459.58 124.77 1455 Q127.848 1450.39 133.659 1450.39 Z" fill="#000000" fill-rule="nonzero" fill-opacity="1" /><path clip-path="url(#clip770)" d="M153.82 1479.7 L158.705 1479.7 L158.705 1485.58 L153.82 1485.58 L153.82 1479.7 Z" fill="#000000" fill-rule="nonzero" fill-opacity="1" /><path clip-path="url(#clip770)" d="M178.89 1454.1 Q175.279 1454.1 173.45 1457.66 Q171.644 1461.2 171.644 1468.33 Q171.644 1475.44 173.45 1479.01 Q175.279 1482.55 178.89 1482.55 Q182.524 1482.55 184.33 1479.01 Q186.158 1475.44 186.158 1468.33 Q186.158 1461.2 184.33 1457.66 Q182.524 1454.1 178.89 1454.1 M178.89 1450.39 Q184.7 1450.39 187.755 1455 Q190.834 1459.58 190.834 1468.33 Q190.834 1477.06 187.755 1481.67 Q184.7 1486.25 178.89 1486.25 Q173.08 1486.25 170.001 1481.67 Q166.945 1477.06 166.945 1468.33 Q166.945 1459.58 170.001 1455 Q173.08 1450.39 178.89 1450.39 Z" fill="#000000" fill-rule="nonzero" fill-opacity="1" /><path clip-path="url(#clip770)" d="M573.753 1454.1 Q570.142 1454.1 568.314 1457.66 Q566.508 1461.2 566.508 1468.33 Q566.508 1475.44 568.314 1479.01 Q570.142 1482.55 573.753 1482.55 Q577.388 1482.55 579.193 1479.01 Q581.022 1475.44 581.022 1468.33 Q581.022 1461.2 579.193 1457.66 Q577.388 1454.1 573.753 1454.1 M573.753 1450.39 Q579.564 1450.39 582.619 1455 Q585.698 1459.58 585.698 1468.33 Q585.698 1477.06 582.619 1481.67 Q579.564 1486.25 573.753 1486.25 Q567.943 1486.25 564.865 1481.67 Q561.809 1477.06 561.809 1468.33 Q561.809 1459.58 564.865 1455 Q567.943 1450.39 573.753 1450.39 Z" fill="#000000" fill-rule="nonzero" fill-opacity="1" /><path clip-path="url(#clip770)" d="M593.915 1479.7 L598.8 1479.7 L598.8 1485.58 L593.915 1485.58 L593.915 1479.7 Z" fill="#000000" fill-rule="nonzero" fill-opacity="1" /><path clip-path="url(#clip770)" d="M613.013 1481.64 L629.332 1481.64 L629.332 1485.58 L607.388 1485.58 L607.388 1481.64 Q610.05 1478.89 614.633 1474.26 Q619.239 1469.61 620.42 1468.27 Q622.665 1465.74 623.545 1464.01 Q624.448 1462.25 624.448 1460.56 Q624.448 1457.8 622.503 1456.07 Q620.582 1454.33 617.48 1454.33 Q615.281 1454.33 612.827 1455.09 Q610.397 1455.86 607.619 1457.41 L607.619 1452.69 Q610.443 1451.55 612.897 1450.97 Q615.35 1450.39 617.388 1450.39 Q622.758 1450.39 625.952 1453.08 Q629.147 1455.77 629.147 1460.26 Q629.147 1462.39 628.337 1464.31 Q627.55 1466.2 625.443 1468.8 Q624.864 1469.47 621.763 1472.69 Q618.661 1475.88 613.013 1481.64 Z" fill="#000000" fill-rule="nonzero" fill-opacity="1" /><path clip-path="url(#clip770)" d="M1012.01 1454.1 Q1008.4 1454.1 1006.57 1457.66 Q1004.76 1461.2 1004.76 1468.33 Q1004.76 1475.44 1006.57 1479.01 Q1008.4 1482.55 1012.01 1482.55 Q1015.64 1482.55 1017.45 1479.01 Q1019.28 1475.44 1019.28 1468.33 Q1019.28 1461.2 1017.45 1457.66 Q1015.64 1454.1 1012.01 1454.1 M1012.01 1450.39 Q1017.82 1450.39 1020.87 1455 Q1023.95 1459.58 1023.95 1468.33 Q1023.95 1477.06 1020.87 1481.67 Q1017.82 1486.25 1012.01 1486.25 Q1006.2 1486.25 1003.12 1481.67 Q1000.06 1477.06 1000.06 1468.33 Q1000.06 1459.58 1003.12 1455 Q1006.2 1450.39 1012.01 1450.39 Z" fill="#000000" fill-rule="nonzero" fill-opacity="1" /><path clip-path="url(#clip770)" d="M1032.17 1479.7 L1037.05 1479.7 L1037.05 1485.58 L1032.17 1485.58 L1032.17 1479.7 Z" fill="#000000" fill-rule="nonzero" fill-opacity="1" /><path clip-path="url(#clip770)" d="M1060.09 1455.09 L1048.28 1473.54 L1060.09 1473.54 L1060.09 1455.09 M1058.86 1451.02 L1064.74 1451.02 L1064.74 1473.54 L1069.67 1473.54 L1069.67 1477.43 L1064.74 1477.43 L1064.74 1485.58 L1060.09 1485.58 L1060.09 1477.43 L1044.48 1477.43 L1044.48 1472.92 L1058.86 1451.02 Z" fill="#000000" fill-rule="nonzero" fill-opacity="1" /><path clip-path="url(#clip770)" d="M1451.47 1454.1 Q1447.86 1454.1 1446.03 1457.66 Q1444.22 1461.2 1444.22 1468.33 Q1444.22 1475.44 1446.03 1479.01 Q1447.86 1482.55 1451.47 1482.55 Q1455.1 1482.55 1456.91 1479.01 Q1458.74 1475.44 1458.74 1468.33 Q1458.74 1461.2 1456.91 1457.66 Q1455.1 1454.1 1451.47 1454.1 M1451.47 1450.39 Q1457.28 1450.39 1460.33 1455 Q1463.41 1459.58 1463.41 1468.33 Q1463.41 1477.06 1460.33 1481.67 Q1457.28 1486.25 1451.47 1486.25 Q1445.66 1486.25 1442.58 1481.67 Q1439.52 1477.06 1439.52 1468.33 Q1439.52 1459.58 1442.58 1455 Q1445.66 1450.39 1451.47 1450.39 Z" fill="#000000" fill-rule="nonzero" fill-opacity="1" /><path clip-path="url(#clip770)" d="M1471.63 1479.7 L1476.51 1479.7 L1476.51 1485.58 L1471.63 1485.58 L1471.63 1479.7 Z" fill="#000000" fill-rule="nonzero" fill-opacity="1" /><path clip-path="url(#clip770)" d="M1497.28 1466.44 Q1494.13 1466.44 1492.28 1468.59 Q1490.45 1470.74 1490.45 1474.49 Q1490.45 1478.22 1492.28 1480.39 Q1494.13 1482.55 1497.28 1482.55 Q1500.42 1482.55 1502.25 1480.39 Q1504.11 1478.22 1504.11 1474.49 Q1504.11 1470.74 1502.25 1468.59 Q1500.42 1466.44 1497.28 1466.44 M1506.56 1451.78 L1506.56 1456.04 Q1504.8 1455.21 1502.99 1454.77 Q1501.21 1454.33 1499.45 1454.33 Q1494.82 1454.33 1492.37 1457.45 Q1489.94 1460.58 1489.59 1466.9 Q1490.96 1464.89 1493.02 1463.82 Q1495.08 1462.73 1497.55 1462.73 Q1502.76 1462.73 1505.77 1465.9 Q1508.8 1469.05 1508.8 1474.49 Q1508.8 1479.82 1505.66 1483.03 Q1502.51 1486.25 1497.28 1486.25 Q1491.28 1486.25 1488.11 1481.67 Q1484.94 1477.06 1484.94 1468.33 Q1484.94 1460.14 1488.83 1455.28 Q1492.72 1450.39 1499.27 1450.39 Q1501.03 1450.39 1502.81 1450.74 Q1504.61 1451.09 1506.56 1451.78 Z" fill="#000000" fill-rule="nonzero" fill-opacity="1" /><path clip-path="url(#clip770)" d="M1890.89 1454.1 Q1887.28 1454.1 1885.45 1457.66 Q1883.64 1461.2 1883.64 1468.33 Q1883.64 1475.44 1885.45 1479.01 Q1887.28 1482.55 1890.89 1482.55 Q1894.52 1482.55 1896.33 1479.01 Q1898.16 1475.44 1898.16 1468.33 Q1898.16 1461.2 1896.33 1457.66 Q1894.52 1454.1 1890.89 1454.1 M1890.89 1450.39 Q1896.7 1450.39 1899.76 1455 Q1902.83 1459.58 1902.83 1468.33 Q1902.83 1477.06 1899.76 1481.67 Q1896.7 1486.25 1890.89 1486.25 Q1885.08 1486.25 1882 1481.67 Q1878.95 1477.06 1878.95 1468.33 Q1878.95 1459.58 1882 1455 Q1885.08 1450.39 1890.89 1450.39 Z" fill="#000000" fill-rule="nonzero" fill-opacity="1" /><path clip-path="url(#clip770)" d="M1911.05 1479.7 L1915.94 1479.7 L1915.94 1485.58 L1911.05 1485.58 L1911.05 1479.7 Z" fill="#000000" fill-rule="nonzero" fill-opacity="1" /><path clip-path="url(#clip770)" d="M1936.12 1469.17 Q1932.79 1469.17 1930.87 1470.95 Q1928.97 1472.73 1928.97 1475.86 Q1928.97 1478.98 1930.87 1480.77 Q1932.79 1482.55 1936.12 1482.55 Q1939.45 1482.55 1941.38 1480.77 Q1943.3 1478.96 1943.3 1475.86 Q1943.3 1472.73 1941.38 1470.95 Q1939.48 1469.17 1936.12 1469.17 M1931.45 1467.18 Q1928.44 1466.44 1926.75 1464.38 Q1925.08 1462.32 1925.08 1459.35 Q1925.08 1455.21 1928.02 1452.8 Q1930.98 1450.39 1936.12 1450.39 Q1941.28 1450.39 1944.22 1452.8 Q1947.16 1455.21 1947.16 1459.35 Q1947.16 1462.32 1945.47 1464.38 Q1943.81 1466.44 1940.82 1467.18 Q1944.2 1467.96 1946.08 1470.26 Q1947.97 1472.55 1947.97 1475.86 Q1947.97 1480.88 1944.89 1483.57 Q1941.84 1486.25 1936.12 1486.25 Q1930.4 1486.25 1927.33 1483.57 Q1924.27 1480.88 1924.27 1475.86 Q1924.27 1472.55 1926.17 1470.26 Q1928.07 1467.96 1931.45 1467.18 M1929.73 1459.79 Q1929.73 1462.48 1931.4 1463.98 Q1933.09 1465.49 1936.12 1465.49 Q1939.13 1465.49 1940.82 1463.98 Q1942.53 1462.48 1942.53 1459.79 Q1942.53 1457.11 1940.82 1455.6 Q1939.13 1454.1 1936.12 1454.1 Q1933.09 1454.1 1931.4 1455.6 Q1929.73 1457.11 1929.73 1459.79 Z" fill="#000000" fill-rule="nonzero" fill-opacity="1" /><path clip-path="url(#clip770)" d="M2319.91 1481.64 L2327.55 1481.64 L2327.55 1455.28 L2319.24 1456.95 L2319.24 1452.69 L2327.5 1451.02 L2332.18 1451.02 L2332.18 1481.64 L2339.82 1481.64 L2339.82 1485.58 L2319.91 1485.58 L2319.91 1481.64 Z" fill="#000000" fill-rule="nonzero" fill-opacity="1" /><path clip-path="url(#clip770)" d="M2349.26 1479.7 L2354.14 1479.7 L2354.14 1485.58 L2349.26 1485.58 L2349.26 1479.7 Z" fill="#000000" fill-rule="nonzero" fill-opacity="1" /><path clip-path="url(#clip770)" d="M2374.33 1454.1 Q2370.72 1454.1 2368.89 1457.66 Q2367.08 1461.2 2367.08 1468.33 Q2367.08 1475.44 2368.89 1479.01 Q2370.72 1482.55 2374.33 1482.55 Q2377.96 1482.55 2379.77 1479.01 Q2381.6 1475.44 2381.6 1468.33 Q2381.6 1461.2 2379.77 1457.66 Q2377.96 1454.1 2374.33 1454.1 M2374.33 1450.39 Q2380.14 1450.39 2383.2 1455 Q2386.27 1459.58 2386.27 1468.33 Q2386.27 1477.06 2383.2 1481.67 Q2380.14 1486.25 2374.33 1486.25 Q2368.52 1486.25 2365.44 1481.67 Q2362.39 1477.06 2362.39 1468.33 Q2362.39 1459.58 2365.44 1455 Q2368.52 1450.39 2374.33 1450.39 Z" fill="#000000" fill-rule="nonzero" fill-opacity="1" /><path clip-path="url(#clip770)" d="M1253.58 1522.27 L1253.58 1532.4 L1265.64 1532.4 L1265.64 1536.95 L1253.58 1536.95 L1253.58 1556.3 Q1253.58 1560.66 1254.75 1561.9 Q1255.96 1563.14 1259.62 1563.14 L1265.64 1563.14 L1265.64 1568.04 L1259.62 1568.04 Q1252.84 1568.04 1250.27 1565.53 Q1247.69 1562.98 1247.69 1556.3 L1247.69 1536.95 L1243.39 1536.95 L1243.39 1532.4 L1247.69 1532.4 L1247.69 1522.27 L1253.58 1522.27 Z" fill="#000000" fill-rule="nonzero" fill-opacity="1" /><polyline clip-path="url(#clip772)" style="stroke:#000000; stroke-linecap:round; stroke-linejoin:round; stroke-width:2; stroke-opacity:0.1; fill:none" points="156.274,1294.12 2352.76,1294.12 "/>
<polyline clip-path="url(#clip772)" style="stroke:#000000; stroke-linecap:round; stroke-linejoin:round; stroke-width:2; stroke-opacity:0.1; fill:none" points="156.274,1113.88 2352.76,1113.88 "/>
<polyline clip-path="url(#clip772)" style="stroke:#000000; stroke-linecap:round; stroke-linejoin:round; stroke-width:2; stroke-opacity:0.1; fill:none" points="156.274,933.647 2352.76,933.647 "/>
<polyline clip-path="url(#clip772)" style="stroke:#000000; stroke-linecap:round; stroke-linejoin:round; stroke-width:2; stroke-opacity:0.1; fill:none" points="156.274,753.41 2352.76,753.41 "/>
<polyline clip-path="url(#clip772)" style="stroke:#000000; stroke-linecap:round; stroke-linejoin:round; stroke-width:2; stroke-opacity:0.1; fill:none" points="156.274,573.174 2352.76,573.174 "/>
<polyline clip-path="url(#clip772)" style="stroke:#000000; stroke-linecap:round; stroke-linejoin:round; stroke-width:2; stroke-opacity:0.1; fill:none" points="156.274,392.937 2352.76,392.937 "/>
<polyline clip-path="url(#clip772)" style="stroke:#000000; stroke-linecap:round; stroke-linejoin:round; stroke-width:2; stroke-opacity:0.1; fill:none" points="156.274,212.701 2352.76,212.701 "/>
<polyline clip-path="url(#clip770)" style="stroke:#000000; stroke-linecap:round; stroke-linejoin:round; stroke-width:4; stroke-opacity:1; fill:none" points="156.274,1423.18 156.274,47.2441 "/>
<polyline clip-path="url(#clip770)" style="stroke:#000000; stroke-linecap:round; stroke-linejoin:round; stroke-width:4; stroke-opacity:1; fill:none" points="156.274,1294.12 175.172,1294.12 "/>
<polyline clip-path="url(#clip770)" style="stroke:#000000; stroke-linecap:round; stroke-linejoin:round; stroke-width:4; stroke-opacity:1; fill:none" points="156.274,1113.88 175.172,1113.88 "/>
<polyline clip-path="url(#clip770)" style="stroke:#000000; stroke-linecap:round; stroke-linejoin:round; stroke-width:4; stroke-opacity:1; fill:none" points="156.274,933.647 175.172,933.647 "/>
<polyline clip-path="url(#clip770)" style="stroke:#000000; stroke-linecap:round; stroke-linejoin:round; stroke-width:4; stroke-opacity:1; fill:none" points="156.274,753.41 175.172,753.41 "/>
<polyline clip-path="url(#clip770)" style="stroke:#000000; stroke-linecap:round; stroke-linejoin:round; stroke-width:4; stroke-opacity:1; fill:none" points="156.274,573.174 175.172,573.174 "/>
<polyline clip-path="url(#clip770)" style="stroke:#000000; stroke-linecap:round; stroke-linejoin:round; stroke-width:4; stroke-opacity:1; fill:none" points="156.274,392.937 175.172,392.937 "/>
<polyline clip-path="url(#clip770)" style="stroke:#000000; stroke-linecap:round; stroke-linejoin:round; stroke-width:4; stroke-opacity:1; fill:none" points="156.274,212.701 175.172,212.701 "/>
<path clip-path="url(#clip770)" d="M62.9365 1279.92 Q59.3254 1279.92 57.4967 1283.48 Q55.6912 1287.03 55.6912 1294.15 Q55.6912 1301.26 57.4967 1304.83 Q59.3254 1308.37 62.9365 1308.37 Q66.5707 1308.37 68.3763 1304.83 Q70.205 1301.26 70.205 1294.15 Q70.205 1287.03 68.3763 1283.48 Q66.5707 1279.92 62.9365 1279.92 M62.9365 1276.22 Q68.7467 1276.22 71.8022 1280.82 Q74.8809 1285.4 74.8809 1294.15 Q74.8809 1302.88 71.8022 1307.49 Q68.7467 1312.07 62.9365 1312.07 Q57.1264 1312.07 54.0477 1307.49 Q50.9921 1302.88 50.9921 1294.15 Q50.9921 1285.4 54.0477 1280.82 Q57.1264 1276.22 62.9365 1276.22 Z" fill="#000000" fill-rule="nonzero" fill-opacity="1" /><path clip-path="url(#clip770)" d="M83.0984 1305.52 L87.9827 1305.52 L87.9827 1311.4 L83.0984 1311.4 L83.0984 1305.52 Z" fill="#000000" fill-rule="nonzero" fill-opacity="1" /><path clip-path="url(#clip770)" d="M108.746 1292.26 Q105.598 1292.26 103.746 1294.41 Q101.918 1296.56 101.918 1300.31 Q101.918 1304.04 103.746 1306.21 Q105.598 1308.37 108.746 1308.37 Q111.895 1308.37 113.723 1306.21 Q115.575 1304.04 115.575 1300.31 Q115.575 1296.56 113.723 1294.41 Q111.895 1292.26 108.746 1292.26 M118.029 1277.6 L118.029 1281.86 Q116.27 1281.03 114.464 1280.59 Q112.682 1280.15 110.922 1280.15 Q106.293 1280.15 103.839 1283.28 Q101.409 1286.4 101.061 1292.72 Q102.427 1290.71 104.487 1289.64 Q106.547 1288.55 109.024 1288.55 Q114.233 1288.55 117.242 1291.72 Q120.274 1294.87 120.274 1300.31 Q120.274 1305.64 117.126 1308.85 Q113.978 1312.07 108.746 1312.07 Q102.751 1312.07 99.5798 1307.49 Q96.4085 1302.88 96.4085 1294.15 Q96.4085 1285.96 100.297 1281.1 Q104.186 1276.22 110.737 1276.22 Q112.496 1276.22 114.279 1276.56 Q116.084 1276.91 118.029 1277.6 Z" fill="#000000" fill-rule="nonzero" fill-opacity="1" /><path clip-path="url(#clip770)" d="M63.1911 1099.68 Q59.58 1099.68 57.7513 1103.25 Q55.9458 1106.79 55.9458 1113.92 Q55.9458 1121.02 57.7513 1124.59 Q59.58 1128.13 63.1911 1128.13 Q66.8254 1128.13 68.6309 1124.59 Q70.4596 1121.02 70.4596 1113.92 Q70.4596 1106.79 68.6309 1103.25 Q66.8254 1099.68 63.1911 1099.68 M63.1911 1095.98 Q69.0013 1095.98 72.0568 1100.58 Q75.1355 1105.17 75.1355 1113.92 Q75.1355 1122.65 72.0568 1127.25 Q69.0013 1131.83 63.1911 1131.83 Q57.381 1131.83 54.3023 1127.25 Q51.2468 1122.65 51.2468 1113.92 Q51.2468 1105.17 54.3023 1100.58 Q57.381 1095.98 63.1911 1095.98 Z" fill="#000000" fill-rule="nonzero" fill-opacity="1" /><path clip-path="url(#clip770)" d="M83.3531 1125.28 L88.2373 1125.28 L88.2373 1131.16 L83.3531 1131.16 L83.3531 1125.28 Z" fill="#000000" fill-rule="nonzero" fill-opacity="1" /><path clip-path="url(#clip770)" d="M108.422 1114.75 Q105.089 1114.75 103.168 1116.53 Q101.27 1118.32 101.27 1121.44 Q101.27 1124.57 103.168 1126.35 Q105.089 1128.13 108.422 1128.13 Q111.756 1128.13 113.677 1126.35 Q115.598 1124.54 115.598 1121.44 Q115.598 1118.32 113.677 1116.53 Q111.779 1114.75 108.422 1114.75 M103.746 1112.76 Q100.737 1112.02 99.0474 1109.96 Q97.3808 1107.9 97.3808 1104.94 Q97.3808 1100.79 100.321 1098.39 Q103.284 1095.98 108.422 1095.98 Q113.584 1095.98 116.524 1098.39 Q119.464 1100.79 119.464 1104.94 Q119.464 1107.9 117.774 1109.96 Q116.108 1112.02 113.121 1112.76 Q116.501 1113.55 118.376 1115.84 Q120.274 1118.13 120.274 1121.44 Q120.274 1126.46 117.195 1129.15 Q114.14 1131.83 108.422 1131.83 Q102.705 1131.83 99.6261 1129.15 Q96.5706 1126.46 96.5706 1121.44 Q96.5706 1118.13 98.4687 1115.84 Q100.367 1113.55 103.746 1112.76 M102.034 1105.38 Q102.034 1108.06 103.7 1109.57 Q105.39 1111.07 108.422 1111.07 Q111.432 1111.07 113.121 1109.57 Q114.834 1108.06 114.834 1105.38 Q114.834 1102.69 113.121 1101.19 Q111.432 1099.68 108.422 1099.68 Q105.39 1099.68 103.7 1101.19 Q102.034 1102.69 102.034 1105.38 Z" fill="#000000" fill-rule="nonzero" fill-opacity="1" /><path clip-path="url(#clip770)" d="M53.9088 946.992 L61.5476 946.992 L61.5476 920.626 L53.2375 922.293 L53.2375 918.034 L61.5013 916.367 L66.1772 916.367 L66.1772 946.992 L73.8161 946.992 L73.8161 950.927 L53.9088 950.927 L53.9088 946.992 Z" fill="#000000" fill-rule="nonzero" fill-opacity="1" /><path clip-path="url(#clip770)" d="M83.2605 945.047 L88.1447 945.047 L88.1447 950.927 L83.2605 950.927 L83.2605 945.047 Z" fill="#000000" fill-rule="nonzero" fill-opacity="1" /><path clip-path="url(#clip770)" d="M108.33 919.446 Q104.719 919.446 102.89 923.01 Q101.084 926.552 101.084 933.682 Q101.084 940.788 102.89 944.353 Q104.719 947.895 108.33 947.895 Q111.964 947.895 113.77 944.353 Q115.598 940.788 115.598 933.682 Q115.598 926.552 113.77 923.01 Q111.964 919.446 108.33 919.446 M108.33 915.742 Q114.14 915.742 117.195 920.348 Q120.274 924.932 120.274 933.682 Q120.274 942.409 117.195 947.015 Q114.14 951.598 108.33 951.598 Q102.52 951.598 99.4409 947.015 Q96.3854 942.409 96.3854 933.682 Q96.3854 924.932 99.4409 920.348 Q102.52 915.742 108.33 915.742 Z" fill="#000000" fill-rule="nonzero" fill-opacity="1" /><path clip-path="url(#clip770)" d="M55.506 766.755 L63.1448 766.755 L63.1448 740.39 L54.8347 742.056 L54.8347 737.797 L63.0985 736.13 L67.7744 736.13 L67.7744 766.755 L75.4133 766.755 L75.4133 770.69 L55.506 770.69 L55.506 766.755 Z" fill="#000000" fill-rule="nonzero" fill-opacity="1" /><path clip-path="url(#clip770)" d="M84.8577 764.811 L89.7419 764.811 L89.7419 770.69 L84.8577 770.69 L84.8577 764.811 Z" fill="#000000" fill-rule="nonzero" fill-opacity="1" /><path clip-path="url(#clip770)" d="M103.955 766.755 L120.274 766.755 L120.274 770.69 L98.3298 770.69 L98.3298 766.755 Q100.992 764.001 105.575 759.371 Q110.182 754.718 111.362 753.376 Q113.608 750.853 114.487 749.116 Q115.39 747.357 115.39 745.667 Q115.39 742.913 113.445 741.177 Q111.524 739.441 108.422 739.441 Q106.223 739.441 103.77 740.205 Q101.339 740.968 98.5613 742.519 L98.5613 737.797 Q101.385 736.663 103.839 736.084 Q106.293 735.505 108.33 735.505 Q113.7 735.505 116.895 738.191 Q120.089 740.876 120.089 745.367 Q120.089 747.496 119.279 749.417 Q118.492 751.316 116.385 753.908 Q115.807 754.579 112.705 757.797 Q109.603 760.991 103.955 766.755 Z" fill="#000000" fill-rule="nonzero" fill-opacity="1" /><path clip-path="url(#clip770)" d="M53.4227 586.519 L61.0615 586.519 L61.0615 560.153 L52.7514 561.82 L52.7514 557.561 L61.0152 555.894 L65.6911 555.894 L65.6911 586.519 L73.33 586.519 L73.33 590.454 L53.4227 590.454 L53.4227 586.519 Z" fill="#000000" fill-rule="nonzero" fill-opacity="1" /><path clip-path="url(#clip770)" d="M82.7744 584.574 L87.6586 584.574 L87.6586 590.454 L82.7744 590.454 L82.7744 584.574 Z" fill="#000000" fill-rule="nonzero" fill-opacity="1" /><path clip-path="url(#clip770)" d="M110.691 559.968 L98.8854 578.417 L110.691 578.417 L110.691 559.968 M109.464 555.894 L115.344 555.894 L115.344 578.417 L120.274 578.417 L120.274 582.306 L115.344 582.306 L115.344 590.454 L110.691 590.454 L110.691 582.306 L95.0891 582.306 L95.0891 577.792 L109.464 555.894 Z" fill="#000000" fill-rule="nonzero" fill-opacity="1" /><path clip-path="url(#clip770)" d="M53.7467 406.282 L61.3856 406.282 L61.3856 379.917 L53.0754 381.583 L53.0754 377.324 L61.3393 375.657 L66.0152 375.657 L66.0152 406.282 L73.654 406.282 L73.654 410.217 L53.7467 410.217 L53.7467 406.282 Z" fill="#000000" fill-rule="nonzero" fill-opacity="1" /><path clip-path="url(#clip770)" d="M83.0984 404.338 L87.9827 404.338 L87.9827 410.217 L83.0984 410.217 L83.0984 404.338 Z" fill="#000000" fill-rule="nonzero" fill-opacity="1" /><path clip-path="url(#clip770)" d="M108.746 391.074 Q105.598 391.074 103.746 393.227 Q101.918 395.38 101.918 399.13 Q101.918 402.856 103.746 405.032 Q105.598 407.185 108.746 407.185 Q111.895 407.185 113.723 405.032 Q115.575 402.856 115.575 399.13 Q115.575 395.38 113.723 393.227 Q111.895 391.074 108.746 391.074 M118.029 376.421 L118.029 380.681 Q116.27 379.847 114.464 379.407 Q112.682 378.968 110.922 378.968 Q106.293 378.968 103.839 382.093 Q101.409 385.218 101.061 391.537 Q102.427 389.523 104.487 388.458 Q106.547 387.37 109.024 387.37 Q114.233 387.37 117.242 390.542 Q120.274 393.69 120.274 399.13 Q120.274 404.454 117.126 407.671 Q113.978 410.889 108.746 410.889 Q102.751 410.889 99.5798 406.305 Q96.4085 401.699 96.4085 392.972 Q96.4085 384.778 100.297 379.917 Q104.186 375.032 110.737 375.032 Q112.496 375.032 114.279 375.38 Q116.084 375.727 118.029 376.421 Z" fill="#000000" fill-rule="nonzero" fill-opacity="1" /><path clip-path="url(#clip770)" d="M54.0014 226.046 L61.6402 226.046 L61.6402 199.68 L53.3301 201.347 L53.3301 197.088 L61.5939 195.421 L66.2698 195.421 L66.2698 226.046 L73.9087 226.046 L73.9087 229.981 L54.0014 229.981 L54.0014 226.046 Z" fill="#000000" fill-rule="nonzero" fill-opacity="1" /><path clip-path="url(#clip770)" d="M83.3531 224.101 L88.2373 224.101 L88.2373 229.981 L83.3531 229.981 L83.3531 224.101 Z" fill="#000000" fill-rule="nonzero" fill-opacity="1" /><path clip-path="url(#clip770)" d="M108.422 213.569 Q105.089 213.569 103.168 215.351 Q101.27 217.134 101.27 220.259 Q101.27 223.384 103.168 225.166 Q105.089 226.949 108.422 226.949 Q111.756 226.949 113.677 225.166 Q115.598 223.361 115.598 220.259 Q115.598 217.134 113.677 215.351 Q111.779 213.569 108.422 213.569 M103.746 211.578 Q100.737 210.837 99.0474 208.777 Q97.3808 206.717 97.3808 203.754 Q97.3808 199.611 100.321 197.203 Q103.284 194.796 108.422 194.796 Q113.584 194.796 116.524 197.203 Q119.464 199.611 119.464 203.754 Q119.464 206.717 117.774 208.777 Q116.108 210.837 113.121 211.578 Q116.501 212.365 118.376 214.657 Q120.274 216.949 120.274 220.259 Q120.274 225.282 117.195 227.967 Q114.14 230.652 108.422 230.652 Q102.705 230.652 99.6261 227.967 Q96.5706 225.282 96.5706 220.259 Q96.5706 216.949 98.4687 214.657 Q100.367 212.365 103.746 211.578 M102.034 204.194 Q102.034 206.879 103.7 208.384 Q105.39 209.888 108.422 209.888 Q111.432 209.888 113.121 208.384 Q114.834 206.879 114.834 204.194 Q114.834 201.509 113.121 200.004 Q111.432 198.5 108.422 198.5 Q105.39 198.5 103.7 200.004 Q102.034 201.509 102.034 204.194 Z" fill="#000000" fill-rule="nonzero" fill-opacity="1" /><polyline clip-path="url(#clip772)" style="stroke:#009af9; stroke-linecap:round; stroke-linejoin:round; stroke-width:4; stroke-opacity:1; fill:none" points="156.274,1384.24 293.554,1199.14 321.01,1227.72 351.898,1268.24 386.647,1286.57 425.74,1220.56 469.719,1219.03 513.431,1289.28 557.817,1123.06 607.752,789.567 652.689,591.94 703.244,785.492 743.378,810.051 788.527,761.886 839.321,980.545 883.909,970.081 934.071,1002.3 981.859,835.129 1035.62,990.843 1081.19,903.917 1132.45,955.489 1174.13,829.272 1221.02,742.568 1273.17,974.259 1317.43,962.1 1367.22,781.972 1423.24,808.188 1470.35,1086.23 1522.15,1016.25 1580.43,1144.69 1629.72,931.805 1685.18,721.745 1747.57,490.423 1815.4,92.0943 1881.42,163.519 1928.19,588.512 1980.81,807.264 2024.58,856.968 2073.82,994.686 2119.53,833.161 2170.95,723.767 2221.49,746.106 2272.91,371.845 2330.76,784.788 2352.76,755.11 "/>
<polyline clip-path="url(#clip772)" style="stroke:#e26f46; stroke-linecap:round; stroke-linejoin:round; stroke-width:4; stroke-opacity:1; fill:none" points="156.274,1384.24 293.554,1198.09 321.01,1226.78 351.898,1267.43 386.647,1285.86 425.74,1219.74 469.719,1218.3 513.431,1288.78 557.817,1122.2 607.752,787.751 652.689,589.576 703.244,783.74 743.378,808.52 788.527,760.371 839.321,979.199 883.909,968.848 934.071,1001.37 981.859,833.809 1035.62,989.971 1081.19,902.929 1132.45,954.857 1174.13,828.456 1221.02,741.69 1273.17,973.348 1317.43,961.3 1367.22,780.787 1423.24,807.383 1470.35,1084.45 1522.15,1014.3 1580.43,1143.29 1629.72,929.679 1685.18,718.811 1747.57,486.519 1815.4,86.1857 1881.42,158.727 1928.19,583.521 1980.81,803.298 2024.58,853.434 2073.82,991.879 2119.53,829.642 2170.95,719.826 2221.49,742.539 2272.91,366.472 2330.76,778.885 2352.76,749.064 "/>
<path clip-path="url(#clip770)" d="M229.49 248.629 L658.165 248.629 L658.165 93.1086 L229.49 93.1086  Z" fill="#ffffff" fill-rule="evenodd" fill-opacity="1"/>
<polyline clip-path="url(#clip770)" style="stroke:#000000; stroke-linecap:round; stroke-linejoin:round; stroke-width:4; stroke-opacity:1; fill:none" points="229.49,248.629 658.165,248.629 658.165,93.1086 229.49,93.1086 229.49,248.629 "/>
<polyline clip-path="url(#clip770)" style="stroke:#009af9; stroke-linecap:round; stroke-linejoin:round; stroke-width:4; stroke-opacity:1; fill:none" points="253.896,144.949 400.328,144.949 "/>
<path clip-path="url(#clip770)" d="M424.733 151.997 L424.733 136.303 L428.992 136.303 L428.992 151.835 Q428.992 155.516 430.427 157.368 Q431.863 159.196 434.733 159.196 Q438.182 159.196 440.173 156.997 Q442.187 154.798 442.187 151.002 L442.187 136.303 L446.446 136.303 L446.446 162.229 L442.187 162.229 L442.187 158.247 Q440.636 160.608 438.576 161.766 Q436.539 162.9 433.83 162.9 Q429.363 162.9 427.048 160.122 Q424.733 157.344 424.733 151.997 M435.451 135.678 L435.451 135.678 Z" fill="#000000" fill-rule="nonzero" fill-opacity="1" /><path clip-path="url(#clip770)" d="M454.825 126.21 L464.64 126.21 L464.64 129.52 L459.085 129.52 L459.085 165.168 L464.64 165.168 L464.64 168.479 L454.825 168.479 L454.825 126.21 Z" fill="#000000" fill-rule="nonzero" fill-opacity="1" /><path clip-path="url(#clip770)" d="M475.126 158.293 L482.765 158.293 L482.765 131.928 L474.455 133.595 L474.455 129.335 L482.719 127.669 L487.395 127.669 L487.395 158.293 L495.034 158.293 L495.034 162.229 L475.126 162.229 L475.126 158.293 Z" fill="#000000" fill-rule="nonzero" fill-opacity="1" /><path clip-path="url(#clip770)" d="M513.83 126.21 L513.83 168.479 L504.015 168.479 L504.015 165.168 L509.547 165.168 L509.547 129.52 L504.015 129.52 L504.015 126.21 L513.83 126.21 Z" fill="#000000" fill-rule="nonzero" fill-opacity="1" /><polyline clip-path="url(#clip770)" style="stroke:#e26f46; stroke-linecap:round; stroke-linejoin:round; stroke-width:4; stroke-opacity:1; fill:none" points="253.896,196.789 400.328,196.789 "/>
<path clip-path="url(#clip770)" d="M424.733 179.509 L453.969 179.509 L453.969 183.444 L441.701 183.444 L441.701 214.069 L437.001 214.069 L437.001 183.444 L424.733 183.444 L424.733 179.509 Z" fill="#000000" fill-rule="nonzero" fill-opacity="1" /><path clip-path="url(#clip770)" d="M466.353 192.124 Q465.636 191.708 464.779 191.522 Q463.946 191.314 462.927 191.314 Q459.316 191.314 457.372 193.675 Q455.45 196.013 455.45 200.411 L455.45 214.069 L451.168 214.069 L451.168 188.143 L455.45 188.143 L455.45 192.171 Q456.793 189.809 458.946 188.675 Q461.099 187.518 464.177 187.518 Q464.617 187.518 465.149 187.587 Q465.682 187.634 466.33 187.749 L466.353 192.124 Z" fill="#000000" fill-rule="nonzero" fill-opacity="1" /><path clip-path="url(#clip770)" d="M470.381 203.837 L470.381 188.143 L474.64 188.143 L474.64 203.675 Q474.64 207.356 476.075 209.208 Q477.511 211.036 480.381 211.036 Q483.83 211.036 485.821 208.837 Q487.835 206.638 487.835 202.842 L487.835 188.143 L492.094 188.143 L492.094 214.069 L487.835 214.069 L487.835 210.087 Q486.284 212.448 484.223 213.606 Q482.186 214.74 479.478 214.74 Q475.011 214.74 472.696 211.962 Q470.381 209.184 470.381 203.837 M481.098 187.518 L481.098 187.518 Z" fill="#000000" fill-rule="nonzero" fill-opacity="1" /><path clip-path="url(#clip770)" d="M523.043 200.041 L523.043 202.124 L503.459 202.124 Q503.737 206.522 506.098 208.837 Q508.483 211.129 512.719 211.129 Q515.172 211.129 517.464 210.527 Q519.779 209.925 522.047 208.721 L522.047 212.749 Q519.756 213.721 517.348 214.231 Q514.941 214.74 512.464 214.74 Q506.26 214.74 502.626 211.129 Q499.015 207.518 499.015 201.36 Q499.015 194.995 502.441 191.268 Q505.89 187.518 511.723 187.518 Q516.955 187.518 519.987 190.897 Q523.043 194.254 523.043 200.041 M518.783 198.791 Q518.737 195.296 516.816 193.212 Q514.918 191.129 511.77 191.129 Q508.205 191.129 506.052 193.143 Q503.922 195.157 503.598 198.814 L518.783 198.791 Z" fill="#000000" fill-rule="nonzero" fill-opacity="1" /><path clip-path="url(#clip770)" d="M544.663 203.837 L544.663 188.143 L548.922 188.143 L548.922 203.675 Q548.922 207.356 550.357 209.208 Q551.793 211.036 554.663 211.036 Q558.112 211.036 560.103 208.837 Q562.117 206.638 562.117 202.842 L562.117 188.143 L566.376 188.143 L566.376 214.069 L562.117 214.069 L562.117 210.087 Q560.566 212.448 558.505 213.606 Q556.468 214.74 553.76 214.74 Q549.293 214.74 546.978 211.962 Q544.663 209.184 544.663 203.837 M555.38 187.518 L555.38 187.518 Z" fill="#000000" fill-rule="nonzero" fill-opacity="1" /><path clip-path="url(#clip770)" d="M574.755 178.05 L584.57 178.05 L584.57 181.36 L579.015 181.36 L579.015 217.008 L584.57 217.008 L584.57 220.319 L574.755 220.319 L574.755 178.05 Z" fill="#000000" fill-rule="nonzero" fill-opacity="1" /><path clip-path="url(#clip770)" d="M595.056 210.133 L602.695 210.133 L602.695 183.768 L594.385 185.435 L594.385 181.175 L602.649 179.509 L607.325 179.509 L607.325 210.133 L614.964 210.133 L614.964 214.069 L595.056 214.069 L595.056 210.133 Z" fill="#000000" fill-rule="nonzero" fill-opacity="1" /><path clip-path="url(#clip770)" d="M633.76 178.05 L633.76 220.319 L623.945 220.319 L623.945 217.008 L629.477 217.008 L629.477 181.36 L623.945 181.36 L623.945 178.05 L633.76 178.05 Z" fill="#000000" fill-rule="nonzero" fill-opacity="1" /></svg>
