<?xml version="1.0" encoding="utf-8"?>
<svg xmlns="http://www.w3.org/2000/svg" xmlns:xlink="http://www.w3.org/1999/xlink" width="600" height="400" viewBox="0 0 2400 1600">
<defs>
  <clipPath id="clip510">
    <rect x="0" y="0" width="2400" height="1600"/>
  </clipPath>
</defs>
<path clip-path="url(#clip510)" d="M0 1600 L2400 1600 L2400 0 L0 0  Z" fill="#ffffff" fill-rule="evenodd" fill-opacity="1"/>
<defs>
  <clipPath id="clip511">
    <rect x="480" y="0" width="1681" height="1600"/>
  </clipPath>
</defs>
<path clip-path="url(#clip510)" d="M186.274 1423.18 L2352.76 1423.18 L2352.76 47.2441 L186.274 47.2441  Z" fill="#ffffff" fill-rule="evenodd" fill-opacity="1"/>
<defs>
  <clipPath id="clip512">
    <rect x="186" y="47" width="2167" height="1377"/>
  </clipPath>
</defs>
<polyline clip-path="url(#clip512)" style="stroke:#000000; stroke-linecap:round; stroke-linejoin:round; stroke-width:2; stroke-opacity:0.1; fill:none" points="186.274,1423.18 186.274,47.2441 "/>
<polyline clip-path="url(#clip512)" style="stroke:#000000; stroke-linecap:round; stroke-linejoin:round; stroke-width:2; stroke-opacity:0.1; fill:none" points="619.57,1423.18 619.57,47.2441 "/>
<polyline clip-path="url(#clip512)" style="stroke:#000000; stroke-linecap:round; stroke-linejoin:round; stroke-width:2; stroke-opacity:0.1; fill:none" points="1052.87,1423.18 1052.87,47.2441 "/>
<polyline clip-path="url(#clip512)" style="stroke:#000000; stroke-linecap:round; stroke-linejoin:round; stroke-width:2; stroke-opacity:0.1; fill:none" points="1486.16,1423.18 1486.16,47.2441 "/>
<polyline clip-path="url(#clip512)" style="stroke:#000000; stroke-linecap:round; stroke-linejoin:round; stroke-width:2; stroke-opacity:0.1; fill:none" points="1919.46,1423.18 1919.46,47.2441 "/>
<polyline clip-path="url(#clip512)" style="stroke:#000000; stroke-linecap:round; stroke-linejoin:round; stroke-width:2; stroke-opacity:0.1; fill:none" points="2352.76,1423.18 2352.76,47.2441 "/>
<polyline clip-path="url(#clip512)" style="stroke:#000000; stroke-linecap:round; stroke-linejoin:round; stroke-width:2; stroke-opacity:0.1; fill:none" points="186.274,1385.14 2352.76,1385.14 "/>
<polyline clip-path="url(#clip512)" style="stroke:#000000; stroke-linecap:round; stroke-linejoin:round; stroke-width:2; stroke-opacity:0.1; fill:none" points="186.274,1098.35 2352.76,1098.35 "/>
<polyline clip-path="url(#clip512)" style="stroke:#000000; stroke-linecap:round; stroke-linejoin:round; stroke-width:2; stroke-opacity:0.1; fill:none" points="186.274,811.558 2352.76,811.558 "/>
<polyline clip-path="url(#clip512)" style="stroke:#000000; stroke-linecap:round; stroke-linejoin:round; stroke-width:2; stroke-opacity:0.1; fill:none" points="186.274,524.769 2352.76,524.769 "/>
<polyline clip-path="url(#clip512)" style="stroke:#000000; stroke-linecap:round; stroke-linejoin:round; stroke-width:2; stroke-opacity:0.1; fill:none" points="186.274,237.981 2352.76,237.981 "/>
<polyline clip-path="url(#clip510)" style="stroke:#000000; stroke-linecap:round; stroke-linejoin:round; stroke-width:4; stroke-opacity:1; fill:none" points="186.274,1423.18 2352.76,1423.18 "/>
<polyline clip-path="url(#clip510)" style="stroke:#000000; stroke-linecap:round; stroke-linejoin:round; stroke-width:4; stroke-opacity:1; fill:none" points="186.274,1423.18 186.274,1404.28 "/>
<polyline clip-path="url(#clip510)" style="stroke:#000000; stroke-linecap:round; stroke-linejoin:round; stroke-width:4; stroke-opacity:1; fill:none" points="619.57,1423.18 619.57,1404.28 "/>
<polyline clip-path="url(#clip510)" style="stroke:#000000; stroke-linecap:round; stroke-linejoin:round; stroke-width:4; stroke-opacity:1; fill:none" points="1052.87,1423.18 1052.87,1404.28 "/>
<polyline clip-path="url(#clip510)" style="stroke:#000000; stroke-linecap:round; stroke-linejoin:round; stroke-width:4; stroke-opacity:1; fill:none" points="1486.16,1423.18 1486.16,1404.28 "/>
<polyline clip-path="url(#clip510)" style="stroke:#000000; stroke-linecap:round; stroke-linejoin:round; stroke-width:4; stroke-opacity:1; fill:none" points="1919.46,1423.18 1919.46,1404.28 "/>
<polyline clip-path="url(#clip510)" style="stroke:#000000; stroke-linecap:round; stroke-linejoin:round; stroke-width:4; stroke-opacity:1; fill:none" points="2352.76,1423.18 2352.76,1404.28 "/>
<path clip-path="url(#clip510)" d="M186.274 1454.1 Q182.663 1454.1 180.834 1457.66 Q179.029 1461.2 179.029 1468.33 Q179.029 1475.44 180.834 1479.01 Q182.663 1482.55 186.274 1482.55 Q189.908 1482.55 191.714 1479.01 Q193.542 1475.44 193.542 1468.33 Q193.542 1461.2 191.714 1457.66 Q189.908 1454.1 186.274 1454.1 M186.274 1450.39 Q192.084 1450.39 195.14 1455 Q198.218 1459.58 198.218 1468.33 Q198.218 1477.06 195.14 1481.67 Q192.084 1486.25 186.274 1486.25 Q180.464 1486.25 177.385 1481.67 Q174.33 1477.06 174.33 1468.33 Q174.33 1459.58 177.385 1455 Q180.464 1450.39 186.274 1450.39 Z" fill="#000000" fill-rule="nonzero" fill-opacity="1" /><path clip-path="url(#clip510)" d="M609.952 1481.64 L617.591 1481.64 L617.591 1455.28 L609.281 1456.95 L609.281 1452.69 L617.545 1451.02 L622.221 1451.02 L622.221 1481.64 L629.86 1481.64 L629.86 1485.58 L609.952 1485.58 L609.952 1481.64 Z" fill="#000000" fill-rule="nonzero" fill-opacity="1" /><path clip-path="url(#clip510)" d="M1047.52 1481.64 L1063.84 1481.64 L1063.84 1485.58 L1041.89 1485.58 L1041.89 1481.64 Q1044.56 1478.89 1049.14 1474.26 Q1053.75 1469.61 1054.93 1468.27 Q1057.17 1465.74 1058.05 1464.01 Q1058.95 1462.25 1058.95 1460.56 Q1058.95 1457.8 1057.01 1456.07 Q1055.09 1454.33 1051.99 1454.33 Q1049.79 1454.33 1047.33 1455.09 Q1044.9 1455.86 1042.13 1457.41 L1042.13 1452.69 Q1044.95 1451.55 1047.4 1450.97 Q1049.86 1450.39 1051.89 1450.39 Q1057.26 1450.39 1060.46 1453.08 Q1063.65 1455.77 1063.65 1460.26 Q1063.65 1462.39 1062.84 1464.31 Q1062.06 1466.2 1059.95 1468.8 Q1059.37 1469.47 1056.27 1472.69 Q1053.17 1475.88 1047.52 1481.64 Z" fill="#000000" fill-rule="nonzero" fill-opacity="1" /><path clip-path="url(#clip510)" d="M1490.41 1466.95 Q1493.77 1467.66 1495.64 1469.93 Q1497.54 1472.2 1497.54 1475.53 Q1497.54 1480.65 1494.02 1483.45 Q1490.5 1486.25 1484.02 1486.25 Q1481.85 1486.25 1479.53 1485.81 Q1477.24 1485.39 1474.79 1484.54 L1474.79 1480.02 Q1476.73 1481.16 1479.05 1481.74 Q1481.36 1482.32 1483.88 1482.32 Q1488.28 1482.32 1490.57 1480.58 Q1492.89 1478.84 1492.89 1475.53 Q1492.89 1472.48 1490.73 1470.77 Q1488.61 1469.03 1484.79 1469.03 L1480.76 1469.03 L1480.76 1465.19 L1484.97 1465.19 Q1488.42 1465.19 1490.25 1463.82 Q1492.08 1462.43 1492.08 1459.84 Q1492.08 1457.18 1490.18 1455.77 Q1488.3 1454.33 1484.79 1454.33 Q1482.86 1454.33 1480.67 1454.75 Q1478.47 1455.16 1475.83 1456.04 L1475.83 1451.88 Q1478.49 1451.14 1480.8 1450.77 Q1483.14 1450.39 1485.2 1450.39 Q1490.53 1450.39 1493.63 1452.83 Q1496.73 1455.23 1496.73 1459.35 Q1496.73 1462.22 1495.09 1464.21 Q1493.44 1466.18 1490.41 1466.95 Z" fill="#000000" fill-rule="nonzero" fill-opacity="1" /><path clip-path="url(#clip510)" d="M1922.47 1455.09 L1910.66 1473.54 L1922.47 1473.54 L1922.47 1455.09 M1921.24 1451.02 L1927.12 1451.02 L1927.12 1473.54 L1932.05 1473.54 L1932.05 1477.43 L1927.12 1477.43 L1927.12 1485.58 L1922.47 1485.58 L1922.47 1477.43 L1906.87 1477.43 L1906.87 1472.92 L1921.24 1451.02 Z" fill="#000000" fill-rule="nonzero" fill-opacity="1" /><path clip-path="url(#clip510)" d="M2343.03 1451.02 L2361.39 1451.02 L2361.39 1454.96 L2347.32 1454.96 L2347.32 1463.43 Q2348.33 1463.08 2349.35 1462.92 Q2350.37 1462.73 2351.39 1462.73 Q2357.18 1462.73 2360.56 1465.9 Q2363.94 1469.08 2363.94 1474.49 Q2363.94 1480.07 2360.46 1483.17 Q2356.99 1486.25 2350.67 1486.25 Q2348.5 1486.25 2346.23 1485.88 Q2343.98 1485.51 2341.58 1484.77 L2341.58 1480.07 Q2343.66 1481.2 2345.88 1481.76 Q2348.1 1482.32 2350.58 1482.32 Q2354.58 1482.32 2356.92 1480.21 Q2359.26 1478.1 2359.26 1474.49 Q2359.26 1470.88 2356.92 1468.77 Q2354.58 1466.67 2350.58 1466.67 Q2348.71 1466.67 2346.83 1467.08 Q2344.98 1467.5 2343.03 1468.38 L2343.03 1451.02 Z" fill="#000000" fill-rule="nonzero" fill-opacity="1" /><path clip-path="url(#clip510)" d="M1268.58 1522.27 L1268.58 1532.4 L1280.64 1532.4 L1280.64 1536.95 L1268.58 1536.95 L1268.58 1556.3 Q1268.58 1560.66 1269.75 1561.9 Q1270.96 1563.14 1274.62 1563.14 L1280.64 1563.14 L1280.64 1568.04 L1274.62 1568.04 Q1267.84 1568.04 1265.27 1565.53 Q1262.69 1562.98 1262.69 1556.3 L1262.69 1536.95 L1258.39 1536.95 L1258.39 1532.4 L1262.69 1532.4 L1262.69 1522.27 L1268.58 1522.27 Z" fill="#000000" fill-rule="nonzero" fill-opacity="1" /><polyline clip-path="url(#clip510)" style="stroke:#000000; stroke-linecap:round; stroke-linejoin:round; stroke-width:4; stroke-opacity:1; fill:none" points="186.274,1423.18 186.274,47.2441 "/>
<polyline clip-path="url(#clip510)" style="stroke:#000000; stroke-linecap:round; stroke-linejoin:round; stroke-width:4; stroke-opacity:1; fill:none" points="186.274,1385.14 205.172,1385.14 "/>
<polyline clip-path="url(#clip510)" style="stroke:#000000; stroke-linecap:round; stroke-linejoin:round; stroke-width:4; stroke-opacity:1; fill:none" points="186.274,1098.35 205.172,1098.35 "/>
<polyline clip-path="url(#clip510)" style="stroke:#000000; stroke-linecap:round; stroke-linejoin:round; stroke-width:4; stroke-opacity:1; fill:none" points="186.274,811.558 205.172,811.558 "/>
<polyline clip-path="url(#clip510)" style="stroke:#000000; stroke-linecap:round; stroke-linejoin:round; stroke-width:4; stroke-opacity:1; fill:none" points="186.274,524.769 205.172,524.769 "/>
<polyline clip-path="url(#clip510)" style="stroke:#000000; stroke-linecap:round; stroke-linejoin:round; stroke-width:4; stroke-opacity:1; fill:none" points="186.274,237.981 205.172,237.981 "/>
<path clip-path="url(#clip510)" d="M62.9365 1370.93 Q59.3254 1370.93 57.4967 1374.5 Q55.6912 1378.04 55.6912 1385.17 Q55.6912 1392.28 57.4967 1395.84 Q59.3254 1399.38 62.9365 1399.38 Q66.5707 1399.38 68.3763 1395.84 Q70.205 1392.28 70.205 1385.17 Q70.205 1378.04 68.3763 1374.5 Q66.5707 1370.93 62.9365 1370.93 M62.9365 1367.23 Q68.7467 1367.23 71.8022 1371.84 Q74.8809 1376.42 74.8809 1385.17 Q74.8809 1393.9 71.8022 1398.5 Q68.7467 1403.09 62.9365 1403.09 Q57.1264 1403.09 54.0477 1398.5 Q50.9921 1393.9 50.9921 1385.17 Q50.9921 1376.42 54.0477 1371.84 Q57.1264 1367.23 62.9365 1367.23 Z" fill="#000000" fill-rule="nonzero" fill-opacity="1" /><path clip-path="url(#clip510)" d="M83.0984 1396.54 L87.9827 1396.54 L87.9827 1402.42 L83.0984 1402.42 L83.0984 1396.54 Z" fill="#000000" fill-rule="nonzero" fill-opacity="1" /><path clip-path="url(#clip510)" d="M108.168 1370.93 Q104.557 1370.93 102.728 1374.5 Q100.922 1378.04 100.922 1385.17 Q100.922 1392.28 102.728 1395.84 Q104.557 1399.38 108.168 1399.38 Q111.802 1399.38 113.608 1395.84 Q115.436 1392.28 115.436 1385.17 Q115.436 1378.04 113.608 1374.5 Q111.802 1370.93 108.168 1370.93 M108.168 1367.23 Q113.978 1367.23 117.033 1371.84 Q120.112 1376.42 120.112 1385.17 Q120.112 1393.9 117.033 1398.5 Q113.978 1403.09 108.168 1403.09 Q102.358 1403.09 99.2789 1398.5 Q96.2234 1393.9 96.2234 1385.17 Q96.2234 1376.42 99.2789 1371.84 Q102.358 1367.23 108.168 1367.23 Z" fill="#000000" fill-rule="nonzero" fill-opacity="1" /><path clip-path="url(#clip510)" d="M138.33 1370.93 Q134.719 1370.93 132.89 1374.5 Q131.084 1378.04 131.084 1385.17 Q131.084 1392.28 132.89 1395.84 Q134.719 1399.38 138.33 1399.38 Q141.964 1399.38 143.769 1395.84 Q145.598 1392.28 145.598 1385.17 Q145.598 1378.04 143.769 1374.5 Q141.964 1370.93 138.33 1370.93 M138.33 1367.23 Q144.14 1367.23 147.195 1371.84 Q150.274 1376.42 150.274 1385.17 Q150.274 1393.9 147.195 1398.5 Q144.14 1403.09 138.33 1403.09 Q132.519 1403.09 129.441 1398.5 Q126.385 1393.9 126.385 1385.17 Q126.385 1376.42 129.441 1371.84 Q132.519 1367.23 138.33 1367.23 Z" fill="#000000" fill-rule="nonzero" fill-opacity="1" /><path clip-path="url(#clip510)" d="M63.9319 1084.15 Q60.3208 1084.15 58.4921 1087.71 Q56.6865 1091.25 56.6865 1098.38 Q56.6865 1105.49 58.4921 1109.05 Q60.3208 1112.59 63.9319 1112.59 Q67.5661 1112.59 69.3717 1109.05 Q71.2004 1105.49 71.2004 1098.38 Q71.2004 1091.25 69.3717 1087.71 Q67.5661 1084.15 63.9319 1084.15 M63.9319 1080.44 Q69.742 1080.44 72.7976 1085.05 Q75.8763 1089.63 75.8763 1098.38 Q75.8763 1107.11 72.7976 1111.71 Q69.742 1116.3 63.9319 1116.3 Q58.1217 1116.3 55.043 1111.71 Q51.9875 1107.11 51.9875 1098.38 Q51.9875 1089.63 55.043 1085.05 Q58.1217 1080.44 63.9319 1080.44 Z" fill="#000000" fill-rule="nonzero" fill-opacity="1" /><path clip-path="url(#clip510)" d="M84.0938 1109.75 L88.978 1109.75 L88.978 1115.63 L84.0938 1115.63 L84.0938 1109.75 Z" fill="#000000" fill-rule="nonzero" fill-opacity="1" /><path clip-path="url(#clip510)" d="M103.191 1111.69 L119.51 1111.69 L119.51 1115.63 L97.566 1115.63 L97.566 1111.69 Q100.228 1108.94 104.811 1104.31 Q109.418 1099.65 110.598 1098.31 Q112.844 1095.79 113.723 1094.05 Q114.626 1092.29 114.626 1090.6 Q114.626 1087.85 112.682 1086.11 Q110.76 1084.38 107.658 1084.38 Q105.459 1084.38 103.006 1085.14 Q100.575 1085.9 97.7974 1087.46 L97.7974 1082.73 Q100.621 1081.6 103.075 1081.02 Q105.529 1080.44 107.566 1080.44 Q112.936 1080.44 116.131 1083.13 Q119.325 1085.81 119.325 1090.3 Q119.325 1092.43 118.515 1094.35 Q117.728 1096.25 115.621 1098.84 Q115.043 1099.52 111.941 1102.73 Q108.839 1105.93 103.191 1111.69 Z" fill="#000000" fill-rule="nonzero" fill-opacity="1" /><path clip-path="url(#clip510)" d="M129.371 1081.07 L147.728 1081.07 L147.728 1085 L133.654 1085 L133.654 1093.47 Q134.672 1093.13 135.691 1092.97 Q136.709 1092.78 137.728 1092.78 Q143.515 1092.78 146.894 1095.95 Q150.274 1099.12 150.274 1104.54 Q150.274 1110.12 146.802 1113.22 Q143.33 1116.3 137.01 1116.3 Q134.834 1116.3 132.566 1115.93 Q130.32 1115.56 127.913 1114.82 L127.913 1110.12 Q129.996 1111.25 132.219 1111.81 Q134.441 1112.36 136.918 1112.36 Q140.922 1112.36 143.26 1110.26 Q145.598 1108.15 145.598 1104.54 Q145.598 1100.93 143.26 1098.82 Q140.922 1096.72 136.918 1096.72 Q135.043 1096.72 133.168 1097.13 Q131.316 1097.55 129.371 1098.43 L129.371 1081.07 Z" fill="#000000" fill-rule="nonzero" fill-opacity="1" /><path clip-path="url(#clip510)" d="M62.9365 797.357 Q59.3254 797.357 57.4967 800.922 Q55.6912 804.463 55.6912 811.593 Q55.6912 818.699 57.4967 822.264 Q59.3254 825.806 62.9365 825.806 Q66.5707 825.806 68.3763 822.264 Q70.205 818.699 70.205 811.593 Q70.205 804.463 68.3763 800.922 Q66.5707 797.357 62.9365 797.357 M62.9365 793.653 Q68.7467 793.653 71.8022 798.26 Q74.8809 802.843 74.8809 811.593 Q74.8809 820.32 71.8022 824.926 Q68.7467 829.509 62.9365 829.509 Q57.1264 829.509 54.0477 824.926 Q50.9921 820.32 50.9921 811.593 Q50.9921 802.843 54.0477 798.26 Q57.1264 793.653 62.9365 793.653 Z" fill="#000000" fill-rule="nonzero" fill-opacity="1" /><path clip-path="url(#clip510)" d="M83.0984 822.959 L87.9827 822.959 L87.9827 828.838 L83.0984 828.838 L83.0984 822.959 Z" fill="#000000" fill-rule="nonzero" fill-opacity="1" /><path clip-path="url(#clip510)" d="M98.2141 794.278 L116.57 794.278 L116.57 798.213 L102.496 798.213 L102.496 806.685 Q103.515 806.338 104.534 806.176 Q105.552 805.991 106.571 805.991 Q112.358 805.991 115.737 809.162 Q119.117 812.334 119.117 817.75 Q119.117 823.329 115.645 826.431 Q112.172 829.509 105.853 829.509 Q103.677 829.509 101.409 829.139 Q99.1632 828.769 96.7558 828.028 L96.7558 823.329 Q98.8391 824.463 101.061 825.019 Q103.284 825.574 105.76 825.574 Q109.765 825.574 112.103 823.468 Q114.441 821.361 114.441 817.75 Q114.441 814.139 112.103 812.033 Q109.765 809.926 105.76 809.926 Q103.885 809.926 102.01 810.343 Q100.159 810.76 98.2141 811.639 L98.2141 794.278 Z" fill="#000000" fill-rule="nonzero" fill-opacity="1" /><path clip-path="url(#clip510)" d="M138.33 797.357 Q134.719 797.357 132.89 800.922 Q131.084 804.463 131.084 811.593 Q131.084 818.699 132.89 822.264 Q134.719 825.806 138.33 825.806 Q141.964 825.806 143.769 822.264 Q145.598 818.699 145.598 811.593 Q145.598 804.463 143.769 800.922 Q141.964 797.357 138.33 797.357 M138.33 793.653 Q144.14 793.653 147.195 798.26 Q150.274 802.843 150.274 811.593 Q150.274 820.32 147.195 824.926 Q144.14 829.509 138.33 829.509 Q132.519 829.509 129.441 824.926 Q126.385 820.32 126.385 811.593 Q126.385 802.843 129.441 798.26 Q132.519 793.653 138.33 793.653 Z" fill="#000000" fill-rule="nonzero" fill-opacity="1" /><path clip-path="url(#clip510)" d="M63.9319 510.568 Q60.3208 510.568 58.4921 514.133 Q56.6865 517.675 56.6865 524.804 Q56.6865 531.911 58.4921 535.475 Q60.3208 539.017 63.9319 539.017 Q67.5661 539.017 69.3717 535.475 Q71.2004 531.911 71.2004 524.804 Q71.2004 517.675 69.3717 514.133 Q67.5661 510.568 63.9319 510.568 M63.9319 506.864 Q69.742 506.864 72.7976 511.471 Q75.8763 516.054 75.8763 524.804 Q75.8763 533.531 72.7976 538.137 Q69.742 542.721 63.9319 542.721 Q58.1217 542.721 55.043 538.137 Q51.9875 533.531 51.9875 524.804 Q51.9875 516.054 55.043 511.471 Q58.1217 506.864 63.9319 506.864 Z" fill="#000000" fill-rule="nonzero" fill-opacity="1" /><path clip-path="url(#clip510)" d="M84.0938 536.17 L88.978 536.17 L88.978 542.049 L84.0938 542.049 L84.0938 536.17 Z" fill="#000000" fill-rule="nonzero" fill-opacity="1" /><path clip-path="url(#clip510)" d="M97.9826 507.489 L120.205 507.489 L120.205 509.48 L107.658 542.049 L102.774 542.049 L114.58 511.425 L97.9826 511.425 L97.9826 507.489 Z" fill="#000000" fill-rule="nonzero" fill-opacity="1" /><path clip-path="url(#clip510)" d="M129.371 507.489 L147.728 507.489 L147.728 511.425 L133.654 511.425 L133.654 519.897 Q134.672 519.549 135.691 519.387 Q136.709 519.202 137.728 519.202 Q143.515 519.202 146.894 522.374 Q150.274 525.545 150.274 530.961 Q150.274 536.54 146.802 539.642 Q143.33 542.721 137.01 542.721 Q134.834 542.721 132.566 542.35 Q130.32 541.98 127.913 541.239 L127.913 536.54 Q129.996 537.674 132.219 538.23 Q134.441 538.786 136.918 538.786 Q140.922 538.786 143.26 536.679 Q145.598 534.573 145.598 530.961 Q145.598 527.35 143.26 525.244 Q140.922 523.137 136.918 523.137 Q135.043 523.137 133.168 523.554 Q131.316 523.971 129.371 524.85 L129.371 507.489 Z" fill="#000000" fill-rule="nonzero" fill-opacity="1" /><path clip-path="url(#clip510)" d="M53.7467 251.325 L61.3856 251.325 L61.3856 224.96 L53.0754 226.626 L53.0754 222.367 L61.3393 220.701 L66.0152 220.701 L66.0152 251.325 L73.654 251.325 L73.654 255.261 L53.7467 255.261 L53.7467 251.325 Z" fill="#000000" fill-rule="nonzero" fill-opacity="1" /><path clip-path="url(#clip510)" d="M83.0984 249.381 L87.9827 249.381 L87.9827 255.261 L83.0984 255.261 L83.0984 249.381 Z" fill="#000000" fill-rule="nonzero" fill-opacity="1" /><path clip-path="url(#clip510)" d="M108.168 223.779 Q104.557 223.779 102.728 227.344 Q100.922 230.886 100.922 238.015 Q100.922 245.122 102.728 248.687 Q104.557 252.228 108.168 252.228 Q111.802 252.228 113.608 248.687 Q115.436 245.122 115.436 238.015 Q115.436 230.886 113.608 227.344 Q111.802 223.779 108.168 223.779 M108.168 220.076 Q113.978 220.076 117.033 224.682 Q120.112 229.265 120.112 238.015 Q120.112 246.742 117.033 251.349 Q113.978 255.932 108.168 255.932 Q102.358 255.932 99.2789 251.349 Q96.2234 246.742 96.2234 238.015 Q96.2234 229.265 99.2789 224.682 Q102.358 220.076 108.168 220.076 Z" fill="#000000" fill-rule="nonzero" fill-opacity="1" /><path clip-path="url(#clip510)" d="M138.33 223.779 Q134.719 223.779 132.89 227.344 Q131.084 230.886 131.084 238.015 Q131.084 245.122 132.89 248.687 Q134.719 252.228 138.33 252.228 Q141.964 252.228 143.769 248.687 Q145.598 245.122 145.598 238.015 Q145.598 230.886 143.769 227.344 Q141.964 223.779 138.33 223.779 M138.33 220.076 Q144.14 220.076 147.195 224.682 Q150.274 229.265 150.274 238.015 Q150.274 246.742 147.195 251.349 Q144.14 255.932 138.33 255.932 Q132.519 255.932 129.441 251.349 Q126.385 246.742 126.385 238.015 Q126.385 229.265 129.441 224.682 Q132.519 220.076 138.33 220.076 Z" fill="#000000" fill-rule="nonzero" fill-opacity="1" /><polyline clip-path="url(#clip512)" style="stroke:#009af9; stroke-linecap:round; stroke-linejoin:round; stroke-width:4; stroke-opacity:1; fill:none" points="186.274,237.981 190.607,237.981 194.94,237.945 199.273,237.897 203.606,237.445 207.939,237.059 212.272,235.924 216.605,234.702 220.938,233.59 225.271,231.025 229.604,226.847 233.937,223.92 238.27,222.594 242.603,222.762 246.935,219.92 251.268,214.845 255.601,209.392 259.934,206.65 264.267,203.585 268.6,202.26 272.933,198.769 277.266,198.935 281.599,201.433 285.932,202.355 290.265,198.104 294.598,195.878 298.931,191.613 303.264,184.903 307.597,177.853 311.93,171.36 316.263,166.473 320.596,160.148 324.929,151.862 329.262,147.902 333.595,144.143 337.928,141.238 342.261,136.092 346.594,132.069 350.927,130.347 355.26,129.377 359.593,124.75 363.926,120.492 368.258,119.271 372.591,118.207 376.924,114.367 381.257,108.88 385.59,108.003 389.923,109.009 394.256,111.884 398.589,114.462 402.922,113.996 407.255,114.892 411.588,116.369 415.921,119.372 420.254,124.656 424.587,128.033 428.92,128.434 433.253,123.543 437.586,119.3 441.919,117.693 446.252,118.371 450.585,119.452 454.918,120.189 459.251,120.316 463.584,118.32 467.917,116.182 472.25,114.67 476.583,111.003 480.916,108.614 485.249,106.299 489.581,104.782 493.914,104.273 498.247,104.138 502.58,101.677 506.913,100.196 511.246,98.5216 515.579,97.2937 519.912,96.8271 524.245,97.3381 528.578,97.3351 532.911,97.3693 537.244,96.6784 541.577,93.6119 545.91,89.297 550.243,87.1919 554.576,86.3169 558.909,86.2371 563.242,86.1857 567.575,88.0492 571.908,92.502 576.241,97.2196 580.574,102.497 584.907,108.421 589.24,112.972 593.573,118.32 597.906,128.134 602.239,139.189 606.571,151.984 610.904,166.447 615.237,183.353 619.57,198.239 623.903,216.119 628.236,233.869 632.569,247.301 636.902,260.99 641.235,277.441 645.568,290.188 649.901,298.465 654.234,306.198 658.567,315.64 662.9,322.388 667.233,325.749 671.566,330.945 675.899,335.16 680.232,337.627 684.565,342.072 688.898,346.73 693.231,349.752 697.564,355.171 701.897,359.361 706.23,361.531 710.563,366.789 714.896,370.111 719.229,372.029 723.562,374.847 727.894,380.037 732.227,384.822 736.56,390.864 740.893,395.833 745.226,402.414 749.559,410.527 753.892,418.652 758.225,423.249 762.558,427.945 766.891,432.364 771.224,437.356 775.557,447.086 779.89,454.917 784.223,466.199 788.556,480.582 792.889,493.511 797.222,505.951 801.555,518.848 805.888,529.853 810.221,538.371 814.554,548.55 818.887,556.371 823.22,565.937 827.553,577.32 831.886,590.028 836.219,602.045 840.552,611.611 844.885,618.613 849.217,624.389 853.55,628.913 857.883,632.674 862.216,637.464 866.549,642.853 870.882,647.542 875.215,649.615 879.548,651.872 883.881,653.713 888.214,657.826 892.547,661.018 896.88,664.169 901.213,666.507 905.546,669.883 909.879,672.71 914.212,675.102 918.545,676.754 922.878,678.374 927.211,682.05 931.544,685.778 935.877,689.874 940.21,694.953 944.543,698.438 948.876,703.921 953.209,708.461 957.542,714.586 961.875,724.303 966.207,734.403 970.54,747.013 974.873,759.101 979.206,770.881 983.539,786.765 987.872,803.068 992.205,821.01 996.538,838.547 1000.87,855.12 1005.2,869.755 1009.54,884.109 1013.87,896.463 1018.2,908.968 1022.54,919.34 1026.87,929.024 1031.2,936.597 1035.53,944.524 1039.87,951.604 1044.2,959.958 1048.53,966.399 1052.87,975.027 1057.2,984.108 1061.53,992.053 1065.87,999.686 1070.2,1006.26 1074.53,1014.24 1078.86,1022.48 1083.2,1030.02 1087.53,1039.45 1091.86,1048.36 1096.2,1057.51 1100.53,1067.68 1104.86,1077.88 1109.2,1088.01 1113.53,1097.12 1117.86,1104.88 1122.19,1112.12 1126.53,1118.84 1130.86,1124.66 1135.19,1130.26 1139.53,1135.17 1143.86,1140.03 1148.19,1143.94 1152.52,1147.96 1156.86,1151.5 1161.19,1153.86 1165.52,1156.56 1169.86,1158.96 1174.19,1161.94 1178.52,1164.83 1182.86,1167.6 1187.19,1169.46 1191.52,1171.16 1195.85,1172.46 1200.19,1174.08 1204.52,1175.92 1208.85,1177.19 1213.19,1178.63 1217.52,1180.98 1221.85,1182.95 1226.19,1184.55 1230.52,1186.35 1234.85,1188.14 1239.18,1190.54 1243.52,1193.05 1247.85,1195.94 1252.18,1198.68 1256.52,1200.77 1260.85,1203.44 1265.18,1205.54 1269.51,1207.64 1273.85,1209.99 1278.18,1212.08 1282.51,1213.92 1286.85,1215.42 1291.18,1217.09 1295.51,1218.02 1299.85,1219.41 1304.18,1221.15 1308.51,1222.81 1312.84,1223.96 1317.18,1223.94 1321.51,1223.58 1325.84,1223.03 1330.18,1222.7 1334.51,1223.28 1338.84,1223.74 1343.18,1223.13 1347.51,1222.22 1351.84,1220.73 1356.17,1219.85 1360.51,1219.96 1364.84,1219.08 1369.17,1218.78 1373.51,1218.93 1377.84,1218.47 1382.17,1217.12 1386.5,1216.03 1390.84,1214.23 1395.17,1212.91 1399.5,1212.13 1403.84,1210.75 1408.17,1210.2 1412.5,1209.36 1416.84,1208.68 1421.17,1208.13 1425.5,1206.79 1429.83,1205.81 1434.17,1205.28 1438.5,1204.59 1442.83,1203.87 1447.17,1202.76 1451.5,1201.79 1455.83,1200.95 1460.17,1200.45 1464.5,1200.15 1468.83,1199.98 1473.16,1199.56 1477.5,1198.97 1481.83,1198.81 1486.16,1198.38 1490.5,1197.7 1494.83,1197.28 1499.16,1197.16 1503.49,1196.34 1507.83,1195.24 1512.16,1194.35 1516.49,1193.9 1520.83,1193.91 1525.16,1194.38 1529.49,1194.69 1533.83,1195.41 1538.16,1195.72 1542.49,1195.6 1546.82,1195.18 1551.16,1194.99 1555.49,1194.61 1559.82,1194.44 1564.16,1194.44 1568.49,1194.45 1572.82,1194.5 1577.16,1194.78 1581.49,1195.05 1585.82,1195.32 1590.15,1195.76 1594.49,1195.91 1598.82,1195.99 1603.15,1196.23 1607.49,1196.25 1611.82,1196.59 1616.15,1196.95 1620.49,1197.1 1624.82,1196.84 1629.15,1197.05 1633.48,1197.52 1637.82,1197.99 1642.15,1198.53 1646.48,1199.27 1650.82,1200.47 1655.15,1201.39 1659.48,1202.28 1663.81,1203.01 1668.15,1204.04 1672.48,1205.12 1676.81,1205.91 1681.15,1206.71 1685.48,1207.05 1689.81,1207.48 1694.15,1208.4 1698.48,1209.46 1702.81,1210.61 1707.14,1211.77 1711.48,1213.84 1715.81,1216.3 1720.14,1218.25 1724.48,1220.19 1728.81,1221.72 1733.14,1223.38 1737.48,1225.36 1741.81,1227.41 1746.14,1229.98 1750.47,1232.53 1754.81,1235.29 1759.14,1238.52 1763.47,1242.03 1767.81,1245.42 1772.14,1249.02 1776.47,1252.41 1780.8,1255.73 1785.14,1258.95 1789.47,1261.53 1793.8,1263.82 1798.14,1266.04 1802.47,1268.24 1806.8,1270.21 1811.14,1272.12 1815.47,1274 1819.8,1275.79 1824.13,1277.73 1828.47,1279.46 1832.8,1281.2 1837.13,1283 1841.47,1284.31 1845.8,1285.59 1850.13,1286.8 1854.47,1287.88 1858.8,1288.7 1863.13,1289.57 1867.46,1290.5 1871.8,1291.44 1876.13,1292.32 1880.46,1292.96 1884.8,1293.76 1889.13,1294.68 1893.46,1295.53 1897.79,1296.28 1902.13,1297.09 1906.46,1297.97 1910.79,1298.98 1915.13,1299.85 1919.46,1300.78 1923.79,1301.72 1928.13,1302.63 1932.46,1303.35 1936.79,1304.43 1941.12,1305.5 1945.46,1306.47 1949.79,1307.45 1954.12,1308.48 1958.46,1309.58 1962.79,1310.7 1967.12,1311.47 1971.46,1312.43 1975.79,1313.33 1980.12,1314.18 1984.45,1314.96 1988.79,1315.74 1993.12,1316.56 1997.45,1317.26 2001.79,1318 2006.12,1318.78 2010.45,1319.47 2014.78,1320.16 2019.12,1320.78 2023.45,1321.28 2027.78,1321.67 2032.12,1321.96 2036.45,1322.3 2040.78,1322.91 2045.12,1323.58 2049.45,1324.25 2053.78,1325.14 2058.11,1326.04 2062.45,1326.79 2066.78,1327.75 2071.11,1328.78 2075.45,1329.85 2079.78,1331.08 2084.11,1332.28 2088.45,1333.26 2092.78,1334.44 2097.11,1335.53 2101.44,1336.27 2105.78,1336.96 2110.11,1337.48 2114.44,1338.28 2118.78,1339.35 2123.11,1340.42 2127.44,1341.44 2131.77,1342.3 2136.11,1343.18 2140.44,1344.02 2144.77,1344.79 2149.11,1345.64 2153.44,1346.5 2157.77,1347.35 2162.11,1348.15 2166.44,1348.99 2170.77,1349.89 2175.1,1350.79 2179.44,1351.64 2183.77,1352.48 2188.1,1353.28 2192.44,1354.07 2196.77,1354.88 2201.1,1355.74 2205.44,1356.69 2209.77,1357.62 2214.1,1358.35 2218.43,1359.06 2222.77,1359.83 2227.1,1360.55 2231.43,1361.31 2235.77,1362.13 2240.1,1362.94 2244.43,1363.77 2248.76,1364.53 2253.1,1365.19 2257.43,1365.72 2261.76,1366.18 2266.1,1366.68 2270.43,1367.2 2274.76,1367.76 2279.1,1368.35 2283.43,1368.88 2287.76,1369.47 2292.09,1370 2296.43,1370.47 2300.76,1370.89 2305.09,1371.26 2309.43,1371.55 2313.76,1371.83 2318.09,1372.19 2322.43,1372.5 2326.76,1372.9 2331.09,1373.33 2335.42,1373.76 2339.76,1374.2 2344.09,1374.67 2348.42,1375.04 2352.76,1375.37 "/>
<polyline clip-path="url(#clip512)" style="stroke:#e26f46; stroke-linecap:round; stroke-linejoin:round; stroke-width:4; stroke-opacity:1; fill:none" points="186.274,237.981 190.607,260.924 194.94,283.068 199.273,304.974 203.606,325.771 207.939,346.742 212.272,367.477 216.605,387.311 220.938,407.267 225.271,426.516 229.604,444.043 233.937,460.859 238.27,477.017 242.603,493.724 246.935,509.819 251.268,526.984 255.601,544.092 259.934,560.511 264.267,576.44 268.6,591.164 272.933,605.384 277.266,618.128 281.599,629.408 285.932,640.236 290.265,651.903 294.598,665.146 298.931,678.673 303.264,692.214 307.597,704.772 311.93,717.229 316.263,728.809 320.596,740.628 324.929,752.98 329.262,765.441 333.595,777.268 337.928,788.334 342.261,799.169 346.594,807.982 350.927,817.358 355.26,826.382 359.593,835.949 363.926,846.653 368.258,857.393 372.591,867.898 376.924,878.216 381.257,888.287 385.59,898.224 389.923,907.958 394.256,917.444 398.589,926.121 402.922,933.461 407.255,941.152 411.588,947.899 415.921,955.175 420.254,961.684 424.587,968.814 428.92,975.373 433.253,981.613 437.586,988.019 441.919,994.19 446.252,999.12 450.585,1003.4 454.918,1007.47 459.251,1011.01 463.584,1014.74 467.917,1017.66 472.25,1019.29 476.583,1020.8 480.916,1021.99 485.249,1021.76 489.581,1021.97 493.914,1022.31 498.247,1022.99 502.58,1023.55 506.913,1024.89 511.246,1026.32 515.579,1028.97 519.912,1031.31 524.245,1032.89 528.578,1034.68 532.911,1037.21 537.244,1040.28 541.577,1043.32 545.91,1047.79 550.243,1052.88 554.576,1058.17 558.909,1063.06 563.242,1067.64 567.575,1071.9 571.908,1076.23 576.241,1080.75 580.574,1085.33 584.907,1090.46 589.24,1095.32 593.573,1099.8 597.906,1104.75 602.239,1108.92 606.571,1112.85 610.904,1115.41 615.237,1118.15 619.57,1120.59 623.903,1123.08 628.236,1126.33 632.569,1128.42 636.902,1131.36 641.235,1135.03 645.568,1138.93 649.901,1142.36 654.234,1145.99 658.567,1149.14 662.9,1153.13 667.233,1157.47 671.566,1161.7 675.899,1166.03 680.232,1169.97 684.565,1173.99 688.898,1177.74 693.231,1180.85 697.564,1183.98 701.897,1186.55 706.23,1188.73 710.563,1190.89 714.896,1192.69 719.229,1194.55 723.562,1195.91 727.894,1196.17 732.227,1196.38 736.56,1196.2 740.893,1196.42 745.226,1196.56 749.559,1196.73 753.892,1196.19 758.225,1194.58 762.558,1192.65 766.891,1191.23 771.224,1190.27 775.557,1189.84 779.89,1189.42 784.223,1188.54 788.556,1188.66 792.889,1189.49 797.222,1190.61 801.555,1191.93 805.888,1194.16 810.221,1196.16 814.554,1198.62 818.887,1201.18 823.22,1203.37 827.553,1205.93 831.886,1208.41 836.219,1211.44 840.552,1214.81 844.885,1218.17 849.217,1221.5 853.55,1224.77 857.883,1227.93 862.216,1230.95 866.549,1233.86 870.882,1236.66 875.215,1239.59 879.548,1242.47 883.881,1245.31 888.214,1248.1 892.547,1250.84 896.88,1253.53 901.213,1256.14 905.546,1258.71 909.879,1261.23 914.212,1263.7 918.545,1266.13 922.878,1268.51 927.211,1270.82 931.544,1273.03 935.877,1275.21 940.21,1277.31 944.543,1279.3 948.876,1281.25 953.209,1283.01 957.542,1284.72 961.875,1286.65 966.207,1288.59 970.54,1290.47 974.873,1292.25 979.206,1294.02 983.539,1295.74 987.872,1297.32 992.205,1298.89 996.538,1300.5 1000.87,1301.95 1005.2,1303.32 1009.54,1304.69 1013.87,1305.75 1018.2,1306.88 1022.54,1307.87 1026.87,1308.89 1031.2,1309.88 1035.53,1310.81 1039.87,1311.86 1044.2,1312.9 1048.53,1313.79 1052.87,1314.61 1057.2,1315.44 1061.53,1316.39 1065.87,1317.31 1070.2,1318.27 1074.53,1319.31 1078.86,1320.6 1083.2,1321.83 1087.53,1323.04 1091.86,1324.17 1096.2,1325.3 1100.53,1326.42 1104.86,1327.45 1109.2,1328.5 1113.53,1329.61 1117.86,1330.72 1122.19,1331.81 1126.53,1332.87 1130.86,1333.87 1135.19,1334.86 1139.53,1335.83 1143.86,1336.81 1148.19,1337.76 1152.52,1338.71 1156.86,1339.64 1161.19,1340.55 1165.52,1341.42 1169.86,1342.28 1174.19,1343.13 1178.52,1343.97 1182.86,1344.8 1187.19,1345.57 1191.52,1346.3 1195.85,1346.99 1200.19,1347.73 1204.52,1348.46 1208.85,1349.18 1213.19,1349.89 1217.52,1350.6 1221.85,1351.28 1226.19,1351.94 1230.52,1352.55 1234.85,1353.19 1239.18,1353.74 1243.52,1354.31 1247.85,1354.9 1252.18,1355.48 1256.52,1356.05 1260.85,1356.63 1265.18,1357.2 1269.51,1357.76 1273.85,1358.31 1278.18,1358.84 1282.51,1359.36 1286.85,1359.88 1291.18,1360.38 1295.51,1360.87 1299.85,1361.35 1304.18,1361.83 1308.51,1362.29 1312.84,1362.74 1317.18,1363.13 1321.51,1363.53 1325.84,1363.94 1330.18,1364.36 1334.51,1364.78 1338.84,1365.18 1343.18,1365.58 1347.51,1365.97 1351.84,1366.35 1356.17,1366.72 1360.51,1367.08 1364.84,1367.44 1369.17,1367.79 1373.51,1368.11 1377.84,1368.45 1382.17,1368.78 1386.5,1369.1 1390.84,1369.4 1395.17,1369.66 1399.5,1369.9 1403.84,1370.15 1408.17,1370.41 1412.5,1370.65 1416.84,1370.88 1421.17,1371.06 1425.5,1371.26 1429.83,1371.46 1434.17,1371.66 1438.5,1371.87 1442.83,1372.09 1447.17,1372.3 1451.5,1372.54 1455.83,1372.78 1460.17,1373.01 1464.5,1373.24 1468.83,1373.46 1473.16,1373.67 1477.5,1373.88 1481.83,1374.09 1486.16,1374.29 1490.5,1374.48 1494.83,1374.64 1499.16,1374.82 1503.49,1374.98 1507.83,1375.16 1512.16,1375.33 1516.49,1375.49 1520.83,1375.65 1525.16,1375.82 1529.49,1375.99 1533.83,1376.15 1538.16,1376.3 1542.49,1376.46 1546.82,1376.61 1551.16,1376.76 1555.49,1376.91 1559.82,1377.06 1564.16,1377.21 1568.49,1377.35 1572.82,1377.49 1577.16,1377.64 1581.49,1377.77 1585.82,1377.9 1590.15,1378.03 1594.49,1378.17 1598.82,1378.31 1603.15,1378.44 1607.49,1378.57 1611.82,1378.69 1616.15,1378.82 1620.49,1378.95 1624.82,1379.07 1629.15,1379.19 1633.48,1379.3 1637.82,1379.41 1642.15,1379.5 1646.48,1379.59 1650.82,1379.68 1655.15,1379.79 1659.48,1379.89 1663.81,1380 1668.15,1380.1 1672.48,1380.2 1676.81,1380.3 1681.15,1380.39 1685.48,1380.47 1689.81,1380.56 1694.15,1380.65 1698.48,1380.73 1702.81,1380.81 1707.14,1380.88 1711.48,1380.96 1715.81,1381.05 1720.14,1381.13 1724.48,1381.2 1728.81,1381.27 1733.14,1381.35 1737.48,1381.43 1741.81,1381.5 1746.14,1381.57 1750.47,1381.64 1754.81,1381.71 1759.14,1381.78 1763.47,1381.84 1767.81,1381.91 1772.14,1381.97 1776.47,1382.03 1780.8,1382.09 1785.14,1382.14 1789.47,1382.19 1793.8,1382.25 1798.14,1382.3 1802.47,1382.35 1806.8,1382.41 1811.14,1382.46 1815.47,1382.51 1819.8,1382.56 1824.13,1382.61 1828.47,1382.66 1832.8,1382.71 1837.13,1382.75 1841.47,1382.78 1845.8,1382.82 1850.13,1382.86 1854.47,1382.89 1858.8,1382.93 1863.13,1382.97 1867.46,1383.01 1871.8,1383.04 1876.13,1383.07 1880.46,1383.1 1884.8,1383.13 1889.13,1383.15 1893.46,1383.18 1897.79,1383.19 1902.13,1383.19 1906.46,1383.19 1910.79,1383.2 1915.13,1383.2 1919.46,1383.2 1923.79,1383.2 1928.13,1383.2 1932.46,1383.21 1936.79,1383.22 1941.12,1383.22 1945.46,1383.22 1949.79,1383.21 1954.12,1383.2 1958.46,1383.2 1962.79,1383.18 1967.12,1383.17 1971.46,1383.16 1975.79,1383.15 1980.12,1383.14 1984.45,1383.12 1988.79,1383.12 1993.12,1383.13 1997.45,1383.13 2001.79,1383.13 2006.12,1383.13 2010.45,1383.13 2014.78,1383.13 2019.12,1383.13 2023.45,1383.13 2027.78,1383.13 2032.12,1383.12 2036.45,1383.12 2040.78,1383.11 2045.12,1383.11 2049.45,1383.11 2053.78,1383.11 2058.11,1383.1 2062.45,1383.09 2066.78,1383.08 2071.11,1383.08 2075.45,1383.07 2079.78,1383.06 2084.11,1383.06 2088.45,1383.06 2092.78,1383.07 2097.11,1383.08 2101.44,1383.09 2105.78,1383.1 2110.11,1383.13 2114.44,1383.15 2118.78,1383.18 2123.11,1383.2 2127.44,1383.22 2131.77,1383.25 2136.11,1383.28 2140.44,1383.3 2144.77,1383.33 2149.11,1383.35 2153.44,1383.38 2157.77,1383.41 2162.11,1383.44 2166.44,1383.48 2170.77,1383.51 2175.1,1383.54 2179.44,1383.57 2183.77,1383.6 2188.1,1383.63 2192.44,1383.66 2196.77,1383.69 2201.1,1383.72 2205.44,1383.75 2209.77,1383.77 2214.1,1383.8 2218.43,1383.82 2222.77,1383.85 2227.1,1383.87 2231.43,1383.9 2235.77,1383.92 2240.1,1383.95 2244.43,1383.97 2248.76,1383.99 2253.1,1384.02 2257.43,1384.04 2261.76,1384.06 2266.1,1384.08 2270.43,1384.1 2274.76,1384.12 2279.1,1384.13 2283.43,1384.15 2287.76,1384.16 2292.09,1384.17 2296.43,1384.18 2300.76,1384.18 2305.09,1384.18 2309.43,1384.19 2313.76,1384.2 2318.09,1384.2 2322.43,1384.2 2326.76,1384.21 2331.09,1384.22 2335.42,1384.23 2339.76,1384.23 2344.09,1384.24 2348.42,1384.24 2352.76,1384.24 "/>
<path clip-path="url(#clip510)" d="M1974.79 248.629 L2280.54 248.629 L2280.54 93.1086 L1974.79 93.1086  Z" fill="#ffffff" fill-rule="evenodd" fill-opacity="1"/>
<polyline clip-path="url(#clip510)" style="stroke:#000000; stroke-linecap:round; stroke-linejoin:round; stroke-width:4; stroke-opacity:1; fill:none" points="1974.79,248.629 2280.54,248.629 2280.54,93.1086 1974.79,93.1086 1974.79,248.629 "/>
<polyline clip-path="url(#clip510)" style="stroke:#009af9; stroke-linecap:round; stroke-linejoin:round; stroke-width:4; stroke-opacity:1; fill:none" points="1998.87,144.949 2143.3,144.949 "/>
<path clip-path="url(#clip510)" d="M2167.37 151.997 L2167.37 136.303 L2171.63 136.303 L2171.63 151.835 Q2171.63 155.516 2173.07 157.368 Q2174.5 159.196 2177.37 159.196 Q2180.82 159.196 2182.81 156.997 Q2184.82 154.798 2184.82 151.002 L2184.82 136.303 L2189.08 136.303 L2189.08 162.229 L2184.82 162.229 L2184.82 158.247 Q2183.27 160.608 2181.21 161.766 Q2179.18 162.9 2176.47 162.9 Q2172 162.9 2169.69 160.122 Q2167.37 157.344 2167.37 151.997 M2178.09 135.678 L2178.09 135.678 Z" fill="#000000" fill-rule="nonzero" fill-opacity="1" /><path clip-path="url(#clip510)" d="M2197.46 126.21 L2207.28 126.21 L2207.28 129.52 L2201.72 129.52 L2201.72 165.168 L2207.28 165.168 L2207.28 168.479 L2197.46 168.479 L2197.46 126.21 Z" fill="#000000" fill-rule="nonzero" fill-opacity="1" /><path clip-path="url(#clip510)" d="M2217.76 158.293 L2225.4 158.293 L2225.4 131.928 L2217.09 133.595 L2217.09 129.335 L2225.36 127.669 L2230.03 127.669 L2230.03 158.293 L2237.67 158.293 L2237.67 162.229 L2217.76 162.229 L2217.76 158.293 Z" fill="#000000" fill-rule="nonzero" fill-opacity="1" /><path clip-path="url(#clip510)" d="M2256.47 126.21 L2256.47 168.479 L2246.65 168.479 L2246.65 165.168 L2252.19 165.168 L2252.19 129.52 L2246.65 129.52 L2246.65 126.21 L2256.47 126.21 Z" fill="#000000" fill-rule="nonzero" fill-opacity="1" /><polyline clip-path="url(#clip510)" style="stroke:#e26f46; stroke-linecap:round; stroke-linejoin:round; stroke-width:4; stroke-opacity:1; fill:none" points="1998.87,196.789 2143.3,196.789 "/>
<path clip-path="url(#clip510)" d="M2167.37 203.837 L2167.37 188.143 L2171.63 188.143 L2171.63 203.675 Q2171.63 207.356 2173.07 209.208 Q2174.5 211.036 2177.37 211.036 Q2180.82 211.036 2182.81 208.837 Q2184.82 206.638 2184.82 202.842 L2184.82 188.143 L2189.08 188.143 L2189.08 214.069 L2184.82 214.069 L2184.82 210.087 Q2183.27 212.448 2181.21 213.606 Q2179.18 214.74 2176.47 214.74 Q2172 214.74 2169.69 211.962 Q2167.37 209.184 2167.37 203.837 M2178.09 187.518 L2178.09 187.518 Z" fill="#000000" fill-rule="nonzero" fill-opacity="1" /><path clip-path="url(#clip510)" d="M2197.46 178.05 L2207.28 178.05 L2207.28 181.36 L2201.72 181.36 L2201.72 217.008 L2207.28 217.008 L2207.28 220.319 L2197.46 220.319 L2197.46 178.05 Z" fill="#000000" fill-rule="nonzero" fill-opacity="1" /><path clip-path="url(#clip510)" d="M2220.98 210.133 L2237.3 210.133 L2237.3 214.069 L2215.36 214.069 L2215.36 210.133 Q2218.02 207.379 2222.6 202.749 Q2227.21 198.096 2228.39 196.754 Q2230.63 194.231 2231.51 192.495 Q2232.42 190.735 2232.42 189.046 Q2232.42 186.291 2230.47 184.555 Q2228.55 182.819 2225.45 182.819 Q2223.25 182.819 2220.8 183.583 Q2218.37 184.347 2215.59 185.897 L2215.59 181.175 Q2218.41 180.041 2220.87 179.462 Q2223.32 178.884 2225.36 178.884 Q2230.73 178.884 2233.92 181.569 Q2237.12 184.254 2237.12 188.745 Q2237.12 190.874 2236.31 192.796 Q2235.52 194.694 2233.41 197.286 Q2232.83 197.958 2229.73 201.175 Q2226.63 204.37 2220.98 210.133 Z" fill="#000000" fill-rule="nonzero" fill-opacity="1" /><path clip-path="url(#clip510)" d="M2256.47 178.05 L2256.47 220.319 L2246.65 220.319 L2246.65 217.008 L2252.19 217.008 L2252.19 181.36 L2246.65 181.36 L2246.65 178.05 L2256.47 178.05 Z" fill="#000000" fill-rule="nonzero" fill-opacity="1" /></svg>
