<?xml version="1.0" encoding="utf-8"?>
<svg xmlns="http://www.w3.org/2000/svg" xmlns:xlink="http://www.w3.org/1999/xlink" width="600" height="400" viewBox="0 0 2400 1600">
<defs>
  <clipPath id="clip450">
    <rect x="0" y="0" width="2400" height="1600"/>
  </clipPath>
</defs>
<path clip-path="url(#clip450)" d="M0 1600 L2400 1600 L2400 0 L0 0  Z" fill="#ffffff" fill-rule="evenodd" fill-opacity="1"/>
<defs>
  <clipPath id="clip451">
    <rect x="480" y="0" width="1681" height="1600"/>
  </clipPath>
</defs>
<path clip-path="url(#clip450)" d="M156.598 1423.18 L2352.76 1423.18 L2352.76 47.2441 L156.598 47.2441  Z" fill="#ffffff" fill-rule="evenodd" fill-opacity="1"/>
<defs>
  <clipPath id="clip452">
    <rect x="156" y="47" width="2197" height="1377"/>
  </clipPath>
</defs>
<polyline clip-path="url(#clip452)" style="stroke:#000000; stroke-linecap:round; stroke-linejoin:round; stroke-width:2; stroke-opacity:0.1; fill:none" points="156.598,1423.18 156.598,47.2441 "/>
<polyline clip-path="url(#clip452)" style="stroke:#000000; stroke-linecap:round; stroke-linejoin:round; stroke-width:2; stroke-opacity:0.1; fill:none" points="595.83,1423.18 595.83,47.2441 "/>
<polyline clip-path="url(#clip452)" style="stroke:#000000; stroke-linecap:round; stroke-linejoin:round; stroke-width:2; stroke-opacity:0.1; fill:none" points="1035.06,1423.18 1035.06,47.2441 "/>
<polyline clip-path="url(#clip452)" style="stroke:#000000; stroke-linecap:round; stroke-linejoin:round; stroke-width:2; stroke-opacity:0.1; fill:none" points="1474.29,1423.18 1474.29,47.2441 "/>
<polyline clip-path="url(#clip452)" style="stroke:#000000; stroke-linecap:round; stroke-linejoin:round; stroke-width:2; stroke-opacity:0.1; fill:none" points="1913.52,1423.18 1913.52,47.2441 "/>
<polyline clip-path="url(#clip452)" style="stroke:#000000; stroke-linecap:round; stroke-linejoin:round; stroke-width:2; stroke-opacity:0.1; fill:none" points="2352.76,1423.18 2352.76,47.2441 "/>
<polyline clip-path="url(#clip452)" style="stroke:#000000; stroke-linecap:round; stroke-linejoin:round; stroke-width:2; stroke-opacity:0.1; fill:none" points="156.598,1220.46 2352.76,1220.46 "/>
<polyline clip-path="url(#clip452)" style="stroke:#000000; stroke-linecap:round; stroke-linejoin:round; stroke-width:2; stroke-opacity:0.1; fill:none" points="156.598,980.8 2352.76,980.8 "/>
<polyline clip-path="url(#clip452)" style="stroke:#000000; stroke-linecap:round; stroke-linejoin:round; stroke-width:2; stroke-opacity:0.1; fill:none" points="156.598,741.139 2352.76,741.139 "/>
<polyline clip-path="url(#clip452)" style="stroke:#000000; stroke-linecap:round; stroke-linejoin:round; stroke-width:2; stroke-opacity:0.1; fill:none" points="156.598,501.477 2352.76,501.477 "/>
<polyline clip-path="url(#clip452)" style="stroke:#000000; stroke-linecap:round; stroke-linejoin:round; stroke-width:2; stroke-opacity:0.1; fill:none" points="156.598,261.816 2352.76,261.816 "/>
<polyline clip-path="url(#clip450)" style="stroke:#000000; stroke-linecap:round; stroke-linejoin:round; stroke-width:4; stroke-opacity:1; fill:none" points="156.598,1423.18 2352.76,1423.18 "/>
<polyline clip-path="url(#clip450)" style="stroke:#000000; stroke-linecap:round; stroke-linejoin:round; stroke-width:4; stroke-opacity:1; fill:none" points="156.598,1423.18 156.598,1404.28 "/>
<polyline clip-path="url(#clip450)" style="stroke:#000000; stroke-linecap:round; stroke-linejoin:round; stroke-width:4; stroke-opacity:1; fill:none" points="595.83,1423.18 595.83,1404.28 "/>
<polyline clip-path="url(#clip450)" style="stroke:#000000; stroke-linecap:round; stroke-linejoin:round; stroke-width:4; stroke-opacity:1; fill:none" points="1035.06,1423.18 1035.06,1404.28 "/>
<polyline clip-path="url(#clip450)" style="stroke:#000000; stroke-linecap:round; stroke-linejoin:round; stroke-width:4; stroke-opacity:1; fill:none" points="1474.29,1423.18 1474.29,1404.28 "/>
<polyline clip-path="url(#clip450)" style="stroke:#000000; stroke-linecap:round; stroke-linejoin:round; stroke-width:4; stroke-opacity:1; fill:none" points="1913.52,1423.18 1913.52,1404.28 "/>
<polyline clip-path="url(#clip450)" style="stroke:#000000; stroke-linecap:round; stroke-linejoin:round; stroke-width:4; stroke-opacity:1; fill:none" points="2352.76,1423.18 2352.76,1404.28 "/>
<path clip-path="url(#clip450)" d="M156.598 1454.1 Q152.987 1454.1 151.158 1457.66 Q149.353 1461.2 149.353 1468.33 Q149.353 1475.44 151.158 1479.01 Q152.987 1482.55 156.598 1482.55 Q160.232 1482.55 162.038 1479.01 Q163.867 1475.44 163.867 1468.33 Q163.867 1461.2 162.038 1457.66 Q160.232 1454.1 156.598 1454.1 M156.598 1450.39 Q162.408 1450.39 165.464 1455 Q168.543 1459.58 168.543 1468.33 Q168.543 1477.06 165.464 1481.67 Q162.408 1486.25 156.598 1486.25 Q150.788 1486.25 147.709 1481.67 Q144.654 1477.06 144.654 1468.33 Q144.654 1459.58 147.709 1455 Q150.788 1450.39 156.598 1450.39 Z" fill="#000000" fill-rule="nonzero" fill-opacity="1" /><path clip-path="url(#clip450)" d="M586.212 1481.64 L593.851 1481.64 L593.851 1455.28 L585.54 1456.95 L585.54 1452.69 L593.804 1451.02 L598.48 1451.02 L598.48 1481.64 L606.119 1481.64 L606.119 1485.58 L586.212 1485.58 L586.212 1481.64 Z" fill="#000000" fill-rule="nonzero" fill-opacity="1" /><path clip-path="url(#clip450)" d="M1029.71 1481.64 L1046.03 1481.64 L1046.03 1485.58 L1024.09 1485.58 L1024.09 1481.64 Q1026.75 1478.89 1031.33 1474.26 Q1035.94 1469.61 1037.12 1468.27 Q1039.37 1465.74 1040.25 1464.01 Q1041.15 1462.25 1041.15 1460.56 Q1041.15 1457.8 1039.2 1456.07 Q1037.28 1454.33 1034.18 1454.33 Q1031.98 1454.33 1029.53 1455.09 Q1027.1 1455.86 1024.32 1457.41 L1024.32 1452.69 Q1027.14 1451.55 1029.6 1450.97 Q1032.05 1450.39 1034.09 1450.39 Q1039.46 1450.39 1042.65 1453.08 Q1045.85 1455.77 1045.85 1460.26 Q1045.85 1462.39 1045.04 1464.31 Q1044.25 1466.2 1042.14 1468.8 Q1041.57 1469.47 1038.46 1472.69 Q1035.36 1475.88 1029.71 1481.64 Z" fill="#000000" fill-rule="nonzero" fill-opacity="1" /><path clip-path="url(#clip450)" d="M1478.54 1466.95 Q1481.9 1467.66 1483.77 1469.93 Q1485.67 1472.2 1485.67 1475.53 Q1485.67 1480.65 1482.15 1483.45 Q1478.63 1486.25 1472.15 1486.25 Q1469.98 1486.25 1467.66 1485.81 Q1465.37 1485.39 1462.92 1484.54 L1462.92 1480.02 Q1464.86 1481.16 1467.17 1481.74 Q1469.49 1482.32 1472.01 1482.32 Q1476.41 1482.32 1478.7 1480.58 Q1481.02 1478.84 1481.02 1475.53 Q1481.02 1472.48 1478.86 1470.77 Q1476.73 1469.03 1472.92 1469.03 L1468.89 1469.03 L1468.89 1465.19 L1473.1 1465.19 Q1476.55 1465.19 1478.38 1463.82 Q1480.21 1462.43 1480.21 1459.84 Q1480.21 1457.18 1478.31 1455.77 Q1476.43 1454.33 1472.92 1454.33 Q1470.99 1454.33 1468.8 1454.75 Q1466.6 1455.16 1463.96 1456.04 L1463.96 1451.88 Q1466.62 1451.14 1468.93 1450.77 Q1471.27 1450.39 1473.33 1450.39 Q1478.66 1450.39 1481.76 1452.83 Q1484.86 1455.23 1484.86 1459.35 Q1484.86 1462.22 1483.22 1464.21 Q1481.57 1466.18 1478.54 1466.95 Z" fill="#000000" fill-rule="nonzero" fill-opacity="1" /><path clip-path="url(#clip450)" d="M1916.53 1455.09 L1904.73 1473.54 L1916.53 1473.54 L1916.53 1455.09 M1915.31 1451.02 L1921.19 1451.02 L1921.19 1473.54 L1926.12 1473.54 L1926.12 1477.43 L1921.19 1477.43 L1921.19 1485.58 L1916.53 1485.58 L1916.53 1477.43 L1900.93 1477.43 L1900.93 1472.92 L1915.31 1451.02 Z" fill="#000000" fill-rule="nonzero" fill-opacity="1" /><path clip-path="url(#clip450)" d="M2343.03 1451.02 L2361.39 1451.02 L2361.39 1454.96 L2347.32 1454.96 L2347.32 1463.43 Q2348.33 1463.08 2349.35 1462.92 Q2350.37 1462.73 2351.39 1462.73 Q2357.18 1462.73 2360.56 1465.9 Q2363.94 1469.08 2363.94 1474.49 Q2363.94 1480.07 2360.46 1483.17 Q2356.99 1486.25 2350.67 1486.25 Q2348.5 1486.25 2346.23 1485.88 Q2343.98 1485.51 2341.58 1484.77 L2341.58 1480.07 Q2343.66 1481.2 2345.88 1481.76 Q2348.1 1482.32 2350.58 1482.32 Q2354.58 1482.32 2356.92 1480.21 Q2359.26 1478.1 2359.26 1474.49 Q2359.26 1470.88 2356.92 1468.77 Q2354.58 1466.67 2350.58 1466.67 Q2348.71 1466.67 2346.83 1467.08 Q2344.98 1467.5 2343.03 1468.38 L2343.03 1451.02 Z" fill="#000000" fill-rule="nonzero" fill-opacity="1" /><path clip-path="url(#clip450)" d="M1253.74 1522.27 L1253.74 1532.4 L1265.8 1532.4 L1265.8 1536.95 L1253.74 1536.95 L1253.74 1556.3 Q1253.74 1560.66 1254.92 1561.9 Q1256.13 1563.14 1259.79 1563.14 L1265.8 1563.14 L1265.8 1568.04 L1259.79 1568.04 Q1253.01 1568.04 1250.43 1565.53 Q1247.85 1562.98 1247.85 1556.3 L1247.85 1536.95 L1243.55 1536.95 L1243.55 1532.4 L1247.85 1532.4 L1247.85 1522.27 L1253.74 1522.27 Z" fill="#000000" fill-rule="nonzero" fill-opacity="1" /><polyline clip-path="url(#clip450)" style="stroke:#000000; stroke-linecap:round; stroke-linejoin:round; stroke-width:4; stroke-opacity:1; fill:none" points="156.598,1423.18 156.598,47.2441 "/>
<polyline clip-path="url(#clip450)" style="stroke:#000000; stroke-linecap:round; stroke-linejoin:round; stroke-width:4; stroke-opacity:1; fill:none" points="156.598,1220.46 175.496,1220.46 "/>
<polyline clip-path="url(#clip450)" style="stroke:#000000; stroke-linecap:round; stroke-linejoin:round; stroke-width:4; stroke-opacity:1; fill:none" points="156.598,980.8 175.496,980.8 "/>
<polyline clip-path="url(#clip450)" style="stroke:#000000; stroke-linecap:round; stroke-linejoin:round; stroke-width:4; stroke-opacity:1; fill:none" points="156.598,741.139 175.496,741.139 "/>
<polyline clip-path="url(#clip450)" style="stroke:#000000; stroke-linecap:round; stroke-linejoin:round; stroke-width:4; stroke-opacity:1; fill:none" points="156.598,501.477 175.496,501.477 "/>
<polyline clip-path="url(#clip450)" style="stroke:#000000; stroke-linecap:round; stroke-linejoin:round; stroke-width:4; stroke-opacity:1; fill:none" points="156.598,261.816 175.496,261.816 "/>
<path clip-path="url(#clip450)" d="M65.0198 1206.26 Q61.4087 1206.26 59.58 1209.82 Q57.7745 1213.37 57.7745 1220.5 Q57.7745 1227.6 59.58 1231.17 Q61.4087 1234.71 65.0198 1234.71 Q68.6541 1234.71 70.4596 1231.17 Q72.2883 1227.6 72.2883 1220.5 Q72.2883 1213.37 70.4596 1209.82 Q68.6541 1206.26 65.0198 1206.26 M65.0198 1202.56 Q70.83 1202.56 73.8855 1207.16 Q76.9642 1211.75 76.9642 1220.5 Q76.9642 1229.22 73.8855 1233.83 Q70.83 1238.41 65.0198 1238.41 Q59.2097 1238.41 56.131 1233.83 Q53.0754 1229.22 53.0754 1220.5 Q53.0754 1211.75 56.131 1207.16 Q59.2097 1202.56 65.0198 1202.56 Z" fill="#000000" fill-rule="nonzero" fill-opacity="1" /><path clip-path="url(#clip450)" d="M85.1818 1231.86 L90.066 1231.86 L90.066 1237.74 L85.1818 1237.74 L85.1818 1231.86 Z" fill="#000000" fill-rule="nonzero" fill-opacity="1" /><path clip-path="url(#clip450)" d="M104.279 1233.81 L120.598 1233.81 L120.598 1237.74 L98.6539 1237.74 L98.6539 1233.81 Q101.316 1231.05 105.899 1226.42 Q110.506 1221.77 111.686 1220.43 Q113.932 1217.9 114.811 1216.17 Q115.714 1214.41 115.714 1212.72 Q115.714 1209.96 113.77 1208.23 Q111.848 1206.49 108.746 1206.49 Q106.547 1206.49 104.094 1207.26 Q101.663 1208.02 98.8854 1209.57 L98.8854 1204.85 Q101.709 1203.71 104.163 1203.14 Q106.617 1202.56 108.654 1202.56 Q114.024 1202.56 117.219 1205.24 Q120.413 1207.93 120.413 1212.42 Q120.413 1214.55 119.603 1216.47 Q118.816 1218.37 116.709 1220.96 Q116.131 1221.63 113.029 1224.85 Q109.927 1228.04 104.279 1233.81 Z" fill="#000000" fill-rule="nonzero" fill-opacity="1" /><path clip-path="url(#clip450)" d="M62.9365 966.599 Q59.3254 966.599 57.4967 970.163 Q55.6912 973.705 55.6912 980.835 Q55.6912 987.941 57.4967 991.506 Q59.3254 995.048 62.9365 995.048 Q66.5707 995.048 68.3763 991.506 Q70.205 987.941 70.205 980.835 Q70.205 973.705 68.3763 970.163 Q66.5707 966.599 62.9365 966.599 M62.9365 962.895 Q68.7467 962.895 71.8022 967.501 Q74.8809 972.085 74.8809 980.835 Q74.8809 989.561 71.8022 994.168 Q68.7467 998.751 62.9365 998.751 Q57.1264 998.751 54.0477 994.168 Q50.9921 989.561 50.9921 980.835 Q50.9921 972.085 54.0477 967.501 Q57.1264 962.895 62.9365 962.895 Z" fill="#000000" fill-rule="nonzero" fill-opacity="1" /><path clip-path="url(#clip450)" d="M83.0984 992.2 L87.9827 992.2 L87.9827 998.08 L83.0984 998.08 L83.0984 992.2 Z" fill="#000000" fill-rule="nonzero" fill-opacity="1" /><path clip-path="url(#clip450)" d="M111.015 967.594 L99.2095 986.043 L111.015 986.043 L111.015 967.594 M109.788 963.52 L115.668 963.52 L115.668 986.043 L120.598 986.043 L120.598 989.932 L115.668 989.932 L115.668 998.08 L111.015 998.08 L111.015 989.932 L95.4132 989.932 L95.4132 985.418 L109.788 963.52 Z" fill="#000000" fill-rule="nonzero" fill-opacity="1" /><path clip-path="url(#clip450)" d="M63.2606 726.937 Q59.6495 726.937 57.8208 730.502 Q56.0152 734.044 56.0152 741.173 Q56.0152 748.28 57.8208 751.845 Q59.6495 755.386 63.2606 755.386 Q66.8948 755.386 68.7004 751.845 Q70.5291 748.28 70.5291 741.173 Q70.5291 734.044 68.7004 730.502 Q66.8948 726.937 63.2606 726.937 M63.2606 723.234 Q69.0707 723.234 72.1263 727.84 Q75.205 732.423 75.205 741.173 Q75.205 749.9 72.1263 754.507 Q69.0707 759.09 63.2606 759.09 Q57.4504 759.09 54.3717 754.507 Q51.3162 749.9 51.3162 741.173 Q51.3162 732.423 54.3717 727.84 Q57.4504 723.234 63.2606 723.234 Z" fill="#000000" fill-rule="nonzero" fill-opacity="1" /><path clip-path="url(#clip450)" d="M83.4225 752.539 L88.3067 752.539 L88.3067 758.419 L83.4225 758.419 L83.4225 752.539 Z" fill="#000000" fill-rule="nonzero" fill-opacity="1" /><path clip-path="url(#clip450)" d="M109.071 739.275 Q105.922 739.275 104.071 741.428 Q102.242 743.581 102.242 747.331 Q102.242 751.058 104.071 753.233 Q105.922 755.386 109.071 755.386 Q112.219 755.386 114.047 753.233 Q115.899 751.058 115.899 747.331 Q115.899 743.581 114.047 741.428 Q112.219 739.275 109.071 739.275 M118.353 724.622 L118.353 728.882 Q116.594 728.048 114.788 727.609 Q113.006 727.169 111.246 727.169 Q106.617 727.169 104.163 730.294 Q101.733 733.419 101.385 739.738 Q102.751 737.724 104.811 736.659 Q106.871 735.571 109.348 735.571 Q114.557 735.571 117.566 738.743 Q120.598 741.891 120.598 747.331 Q120.598 752.655 117.45 755.872 Q114.302 759.09 109.071 759.09 Q103.075 759.09 99.9039 754.507 Q96.7326 749.9 96.7326 741.173 Q96.7326 732.979 100.621 728.118 Q104.51 723.234 111.061 723.234 Q112.82 723.234 114.603 723.581 Q116.408 723.928 118.353 724.622 Z" fill="#000000" fill-rule="nonzero" fill-opacity="1" /><path clip-path="url(#clip450)" d="M63.5152 487.276 Q59.9041 487.276 58.0754 490.841 Q56.2699 494.382 56.2699 501.512 Q56.2699 508.618 58.0754 512.183 Q59.9041 515.725 63.5152 515.725 Q67.1494 515.725 68.955 512.183 Q70.7837 508.618 70.7837 501.512 Q70.7837 494.382 68.955 490.841 Q67.1494 487.276 63.5152 487.276 M63.5152 483.572 Q69.3254 483.572 72.3809 488.179 Q75.4596 492.762 75.4596 501.512 Q75.4596 510.239 72.3809 514.845 Q69.3254 519.428 63.5152 519.428 Q57.7051 519.428 54.6264 514.845 Q51.5708 510.239 51.5708 501.512 Q51.5708 492.762 54.6264 488.179 Q57.7051 483.572 63.5152 483.572 Z" fill="#000000" fill-rule="nonzero" fill-opacity="1" /><path clip-path="url(#clip450)" d="M83.6771 512.878 L88.5614 512.878 L88.5614 518.757 L83.6771 518.757 L83.6771 512.878 Z" fill="#000000" fill-rule="nonzero" fill-opacity="1" /><path clip-path="url(#clip450)" d="M108.746 502.345 Q105.413 502.345 103.492 504.128 Q101.594 505.91 101.594 509.035 Q101.594 512.16 103.492 513.942 Q105.413 515.725 108.746 515.725 Q112.08 515.725 114.001 513.942 Q115.922 512.137 115.922 509.035 Q115.922 505.91 114.001 504.128 Q112.103 502.345 108.746 502.345 M104.071 500.355 Q101.061 499.614 99.3715 497.554 Q97.7048 495.493 97.7048 492.53 Q97.7048 488.387 100.645 485.98 Q103.608 483.572 108.746 483.572 Q113.908 483.572 116.848 485.98 Q119.788 488.387 119.788 492.53 Q119.788 495.493 118.098 497.554 Q116.432 499.614 113.445 500.355 Q116.825 501.142 118.7 503.433 Q120.598 505.725 120.598 509.035 Q120.598 514.058 117.52 516.743 Q114.464 519.428 108.746 519.428 Q103.029 519.428 99.9502 516.743 Q96.8947 514.058 96.8947 509.035 Q96.8947 505.725 98.7928 503.433 Q100.691 501.142 104.071 500.355 M102.358 492.97 Q102.358 495.655 104.024 497.16 Q105.714 498.665 108.746 498.665 Q111.756 498.665 113.445 497.16 Q115.158 495.655 115.158 492.97 Q115.158 490.285 113.445 488.781 Q111.756 487.276 108.746 487.276 Q105.714 487.276 104.024 488.781 Q102.358 490.285 102.358 492.97 Z" fill="#000000" fill-rule="nonzero" fill-opacity="1" /><path clip-path="url(#clip450)" d="M54.2328 275.161 L61.8717 275.161 L61.8717 248.795 L53.5616 250.462 L53.5616 246.202 L61.8254 244.536 L66.5013 244.536 L66.5013 275.161 L74.1402 275.161 L74.1402 279.096 L54.2328 279.096 L54.2328 275.161 Z" fill="#000000" fill-rule="nonzero" fill-opacity="1" /><path clip-path="url(#clip450)" d="M83.5845 273.216 L88.4688 273.216 L88.4688 279.096 L83.5845 279.096 L83.5845 273.216 Z" fill="#000000" fill-rule="nonzero" fill-opacity="1" /><path clip-path="url(#clip450)" d="M108.654 247.615 Q105.043 247.615 103.214 251.179 Q101.409 254.721 101.409 261.851 Q101.409 268.957 103.214 272.522 Q105.043 276.063 108.654 276.063 Q112.288 276.063 114.094 272.522 Q115.922 268.957 115.922 261.851 Q115.922 254.721 114.094 251.179 Q112.288 247.615 108.654 247.615 M108.654 243.911 Q114.464 243.911 117.52 248.517 Q120.598 253.101 120.598 261.851 Q120.598 270.577 117.52 275.184 Q114.464 279.767 108.654 279.767 Q102.844 279.767 99.765 275.184 Q96.7095 270.577 96.7095 261.851 Q96.7095 253.101 99.765 248.517 Q102.844 243.911 108.654 243.911 Z" fill="#000000" fill-rule="nonzero" fill-opacity="1" /><polyline clip-path="url(#clip452)" style="stroke:#009af9; stroke-linecap:round; stroke-linejoin:round; stroke-width:4; stroke-opacity:1; fill:none" points="156.598,261.816 160.991,261.816 165.383,260.167 169.775,256.019 174.167,250.286 178.56,244.951 182.952,242.109 187.344,238.429 191.737,232.833 196.129,231.928 200.521,230.418 204.914,229.627 209.306,226.98 213.698,221.004 218.091,218.893 222.483,217.21 226.875,210.461 231.268,204.169 235.66,199.55 240.052,193.641 244.445,186.119 248.837,177.111 253.229,169.014 257.621,164.527 262.014,156.872 266.406,147.253 270.798,139.618 275.191,132.115 279.583,121.719 283.975,111.804 288.368,102.346 292.76,99.0781 297.152,96.9261 301.545,94.8369 305.937,92.9082 310.329,93.3384 314.722,94.8972 319.114,98.1395 323.506,99.0391 327.899,98.804 332.291,96.5424 336.683,94.9978 341.075,93.9197 345.468,90.5412 349.86,89.216 354.252,88.1537 358.645,86.1857 363.037,87.4786 367.429,89.7374 371.822,91.0265 376.214,91.7515 380.606,98.9823 384.999,105.439 389.391,110.764 393.783,113.795 398.176,120.323 402.568,125.474 406.96,130.87 411.353,144.099 415.745,157.802 420.137,173.524 424.529,193.258 428.922,212.239 433.314,231.667 437.706,251.727 442.099,271.108 446.491,290.175 450.883,307.888 455.276,326 459.668,344.494 464.06,362.747 468.453,381.346 472.845,398.12 477.237,415.331 481.63,430.686 486.022,444.63 490.414,459.004 494.807,471.877 499.199,484.779 503.591,498.517 507.983,511.575 512.376,524.191 516.768,538.422 521.16,553.843 525.553,569.897 529.945,586.334 534.337,602.631 538.73,619.184 543.122,634.192 547.514,648.191 551.907,659.532 556.299,672 560.691,682.495 565.084,691.083 569.476,699.68 573.868,707.443 578.261,715.52 582.653,725.694 587.045,735.974 591.437,746.232 595.83,757.199 600.222,768.238 604.614,780.612 609.007,792.788 613.399,805.053 617.791,816.912 622.184,828.422 626.576,839.208 630.968,849.731 635.361,859.406 639.753,868.935 644.145,877.04 648.538,883.404 652.93,889.164 657.322,895.542 661.714,901.842 666.107,906.931 670.499,911.485 674.891,916.918 679.284,921.979 683.676,926.454 688.068,931.005 692.461,936.966 696.853,942.017 701.245,948.098 705.638,955.209 710.03,962.8 714.422,970.696 718.815,978.577 723.207,984.972 727.599,989.537 731.992,995.358 736.384,1001.76 740.776,1007.66 745.168,1013.51 749.561,1018.35 753.953,1022.44 758.345,1026.72 762.738,1031.11 767.13,1035.03 771.522,1037.54 775.915,1041.41 780.307,1045.32 784.699,1049.79 789.092,1054.79 793.484,1059.39 797.876,1064.14 802.269,1070.26 806.661,1075.92 811.053,1081.1 815.446,1086.6 819.838,1092.35 824.23,1097.52 828.622,1101.78 833.015,1105.19 837.407,1107.98 841.799,1110.77 846.192,1114.31 850.584,1117.37 854.976,1120.63 859.369,1123.54 863.761,1126.37 868.153,1128.93 872.546,1130.59 876.938,1132.44 881.33,1134.21 885.723,1135.27 890.115,1136.71 894.507,1138.14 898.9,1140.03 903.292,1141.94 907.684,1143.82 912.076,1145.42 916.469,1147.92 920.861,1150.19 925.253,1151.74 929.646,1153.39 934.038,1155.45 938.43,1157.52 942.823,1159.64 947.215,1161.4 951.607,1162.87 956,1164 960.392,1165.08 964.784,1166.22 969.177,1168.08 973.569,1170.47 977.961,1172.72 982.354,1175.87 986.746,1179.15 991.138,1182.44 995.53,1186.54 999.923,1190.86 1004.32,1195.5 1008.71,1200.23 1013.1,1205.19 1017.49,1209.93 1021.88,1214.66 1026.28,1219.43 1030.67,1224.07 1035.06,1228.13 1039.45,1232.46 1043.85,1236.71 1048.24,1241.07 1052.63,1245.39 1057.02,1249.67 1061.42,1253.86 1065.81,1257.99 1070.2,1262.01 1074.59,1265.97 1078.98,1269.85 1083.38,1273.63 1087.77,1277.32 1092.16,1280.94 1096.55,1284.22 1100.95,1287.43 1105.34,1290.55 1109.73,1293.64 1114.12,1296.74 1118.52,1299.71 1122.91,1302.66 1127.3,1305.47 1131.69,1308.22 1136.08,1311.11 1140.48,1313.93 1144.87,1316.81 1149.26,1319.63 1153.65,1322.42 1158.05,1325.11 1162.44,1327.81 1166.83,1330.45 1171.22,1333.04 1175.62,1335.58 1180.01,1337.99 1184.4,1340.33 1188.79,1342.61 1193.18,1344.94 1197.58,1347.21 1201.97,1349.45 1206.36,1351.61 1210.75,1353.58 1215.15,1355.52 1219.54,1357.37 1223.93,1359.24 1228.32,1361.12 1232.72,1362.96 1237.11,1364.77 1241.5,1366.57 1245.89,1368.2 1250.28,1369.82 1254.68,1371.32 1259.07,1372.79 1263.46,1374.11 1267.85,1375.17 1272.25,1376.26 1276.64,1377.43 1281.03,1378.58 1285.42,1379.59 1289.82,1380.52 1294.21,1381.35 1298.6,1382.08 1302.99,1382.74 1307.38,1383.51 1311.78,1383.87 1316.17,1384.05 1320.56,1383.97 1324.95,1383.74 1329.35,1383.91 1333.74,1383.98 1338.13,1383.97 1342.52,1384.03 1346.92,1384.11 1351.31,1384.24 1355.7,1384.21 1360.09,1383.85 1364.48,1383.33 1368.88,1382.74 1373.27,1382.3 1377.66,1381.84 1382.05,1381.25 1386.45,1380.48 1390.84,1379.63 1395.23,1378.94 1399.62,1378.45 1404.02,1377.92 1408.41,1377.49 1412.8,1376.84 1417.19,1376.17 1421.59,1375.83 1425.98,1375.53 1430.37,1375.39 1434.76,1375.16 1439.15,1375 1443.55,1374.94 1447.94,1374.98 1452.33,1375.06 1456.72,1374.97 1461.12,1374.76 1465.51,1374.57 1469.9,1374.28 1474.29,1373.73 1478.69,1373.08 1483.08,1372.72 1487.47,1372.38 1491.86,1372.03 1496.25,1371.63 1500.65,1371.18 1505.04,1370.84 1509.43,1370.59 1513.82,1370.43 1518.22,1370.36 1522.61,1370.31 1527,1370.44 1531.39,1370.35 1535.79,1370.34 1540.18,1369.87 1544.57,1369.14 1548.96,1368.32 1553.35,1367.33 1557.75,1366.52 1562.14,1365.92 1566.53,1365.28 1570.92,1364.55 1575.32,1363.73 1579.71,1363.1 1584.1,1362.48 1588.49,1362.23 1592.89,1362.28 1597.28,1362.03 1601.67,1361.93 1606.06,1361.86 1610.45,1361.65 1614.85,1360.95 1619.24,1360.05 1623.63,1359.3 1628.02,1358.36 1632.42,1357.31 1636.81,1356.35 1641.2,1355.12 1645.59,1354.29 1649.99,1353.54 1654.38,1353.26 1658.77,1353.12 1663.16,1353.34 1667.55,1353.5 1671.95,1353.5 1676.34,1353.65 1680.73,1353.41 1685.12,1353.07 1689.52,1352.85 1693.91,1352.45 1698.3,1352.36 1702.69,1352.04 1707.09,1351.94 1711.48,1352.17 1715.87,1352.5 1720.26,1352.64 1724.65,1352.83 1729.05,1352.9 1733.44,1352.94 1737.83,1353.15 1742.22,1353.47 1746.62,1353.51 1751.01,1353.2 1755.4,1352.9 1759.79,1352.7 1764.19,1352.36 1768.58,1351.98 1772.97,1351.39 1777.36,1350.9 1781.75,1350.85 1786.15,1350.74 1790.54,1350.56 1794.93,1350.58 1799.32,1350.84 1803.72,1350.79 1808.11,1350.74 1812.5,1350.58 1816.89,1350.46 1821.29,1350.53 1825.68,1350.41 1830.07,1350.8 1834.46,1351.25 1838.86,1351.88 1843.25,1352.41 1847.64,1352.7 1852.03,1352.76 1856.42,1352.89 1860.82,1352.84 1865.21,1352.98 1869.6,1352.85 1873.99,1352.77 1878.39,1352.77 1882.78,1352.65 1887.17,1352.07 1891.56,1351.54 1895.96,1351.16 1900.35,1350.78 1904.74,1350.25 1909.13,1349.92 1913.52,1349.88 1917.92,1349.7 1922.31,1349.68 1926.7,1349.22 1931.09,1348.38 1935.49,1347.82 1939.88,1347.46 1944.27,1347.12 1948.66,1346.83 1953.06,1346.32 1957.45,1345.84 1961.84,1345.14 1966.23,1344.49 1970.62,1343.41 1975.02,1341.99 1979.41,1340.53 1983.8,1339.19 1988.19,1338 1992.59,1336.89 1996.98,1335.69 2001.37,1334.4 2005.76,1333.35 2010.16,1332.35 2014.55,1331.13 2018.94,1329.92 2023.33,1328.67 2027.72,1327.59 2032.12,1326.74 2036.51,1326.45 2040.9,1326.16 2045.29,1326.4 2049.69,1326.57 2054.08,1326.45 2058.47,1326.59 2062.86,1326.8 2067.26,1326.87 2071.65,1327.32 2076.04,1327.47 2080.43,1327.53 2084.82,1327.71 2089.22,1327.73 2093.61,1328.02 2098,1328.43 2102.39,1328.86 2106.79,1329.35 2111.18,1329.9 2115.57,1330.36 2119.96,1330.8 2124.36,1331.51 2128.75,1331.96 2133.14,1332.28 2137.53,1332.62 2141.92,1332.87 2146.32,1333.12 2150.71,1333.96 2155.1,1334.38 2159.49,1334.87 2163.89,1335.13 2168.28,1335.25 2172.67,1335.32 2177.06,1335.76 2181.46,1336.42 2185.85,1336.88 2190.24,1337.54 2194.63,1338.6 2199.02,1339.7 2203.42,1340.95 2207.81,1342.22 2212.2,1343.6 2216.59,1344.88 2220.99,1346.01 2225.38,1347.19 2229.77,1348.12 2234.16,1349.01 2238.56,1349.9 2242.95,1350.74 2247.34,1351.3 2251.73,1351.85 2256.12,1352.62 2260.52,1353.22 2264.91,1353.69 2269.3,1354.01 2273.69,1354.52 2278.09,1354.9 2282.48,1355.09 2286.87,1355.31 2291.26,1355.71 2295.66,1356.16 2300.05,1356.78 2304.44,1357.6 2308.83,1358.2 2313.23,1358.67 2317.62,1359.1 2322.01,1359.48 2326.4,1360.06 2330.79,1360.85 2335.19,1361.89 2339.58,1362.79 2343.97,1363.85 2348.36,1364.99 2352.76,1366.01 "/>
<path clip-path="url(#clip450)" d="M1970.84 196.789 L2279.55 196.789 L2279.55 93.1086 L1970.84 93.1086  Z" fill="#ffffff" fill-rule="evenodd" fill-opacity="1"/>
<polyline clip-path="url(#clip450)" style="stroke:#000000; stroke-linecap:round; stroke-linejoin:round; stroke-width:4; stroke-opacity:1; fill:none" points="1970.84,196.789 2279.55,196.789 2279.55,93.1086 1970.84,93.1086 1970.84,196.789 "/>
<polyline clip-path="url(#clip450)" style="stroke:#009af9; stroke-linecap:round; stroke-linejoin:round; stroke-width:4; stroke-opacity:1; fill:none" points="1995.24,144.949 2141.65,144.949 "/>
<path clip-path="url(#clip450)" d="M2166.05 151.997 L2166.05 136.303 L2170.31 136.303 L2170.31 151.835 Q2170.31 155.516 2171.75 157.368 Q2173.18 159.196 2176.05 159.196 Q2179.5 159.196 2181.49 156.997 Q2183.51 154.798 2183.51 151.002 L2183.51 136.303 L2187.76 136.303 L2187.76 162.229 L2183.51 162.229 L2183.51 158.247 Q2181.95 160.608 2179.89 161.766 Q2177.86 162.9 2175.15 162.9 Q2170.68 162.9 2168.37 160.122 Q2166.05 157.344 2166.05 151.997 M2176.77 135.678 L2176.77 135.678 Z" fill="#000000" fill-rule="nonzero" fill-opacity="1" /><path clip-path="url(#clip450)" d="M2196.14 126.21 L2205.96 126.21 L2205.96 129.52 L2200.4 129.52 L2200.4 165.168 L2205.96 165.168 L2205.96 168.479 L2196.14 168.479 L2196.14 126.21 Z" fill="#000000" fill-rule="nonzero" fill-opacity="1" /><path clip-path="url(#clip450)" d="M2216.45 158.293 L2224.08 158.293 L2224.08 131.928 L2215.77 133.595 L2215.77 129.335 L2224.04 127.669 L2228.71 127.669 L2228.71 158.293 L2236.35 158.293 L2236.35 162.229 L2216.45 162.229 L2216.45 158.293 Z" fill="#000000" fill-rule="nonzero" fill-opacity="1" /><path clip-path="url(#clip450)" d="M2255.15 126.21 L2255.15 168.479 L2245.33 168.479 L2245.33 165.168 L2250.87 165.168 L2250.87 129.52 L2245.33 129.52 L2245.33 126.21 L2255.15 126.21 Z" fill="#000000" fill-rule="nonzero" fill-opacity="1" /></svg>
