<?xml version="1.0" encoding="utf-8"?>
<svg xmlns="http://www.w3.org/2000/svg" xmlns:xlink="http://www.w3.org/1999/xlink" width="600" height="400" viewBox="0 0 2400 1600">
<defs>
  <clipPath id="clip480">
    <rect x="0" y="0" width="2400" height="1600"/>
  </clipPath>
</defs>
<path clip-path="url(#clip480)" d="M0 1600 L2400 1600 L2400 0 L0 0  Z" fill="#ffffff" fill-rule="evenodd" fill-opacity="1"/>
<defs>
  <clipPath id="clip481">
    <rect x="480" y="0" width="1681" height="1600"/>
  </clipPath>
</defs>
<path clip-path="url(#clip480)" d="M156.112 1423.18 L2352.76 1423.18 L2352.76 47.2441 L156.112 47.2441  Z" fill="#ffffff" fill-rule="evenodd" fill-opacity="1"/>
<defs>
  <clipPath id="clip482">
    <rect x="156" y="47" width="2198" height="1377"/>
  </clipPath>
</defs>
<polyline clip-path="url(#clip482)" style="stroke:#000000; stroke-linecap:round; stroke-linejoin:round; stroke-width:2; stroke-opacity:0.1; fill:none" points="156.112,1423.18 156.112,47.2441 "/>
<polyline clip-path="url(#clip482)" style="stroke:#000000; stroke-linecap:round; stroke-linejoin:round; stroke-width:2; stroke-opacity:0.1; fill:none" points="595.441,1423.18 595.441,47.2441 "/>
<polyline clip-path="url(#clip482)" style="stroke:#000000; stroke-linecap:round; stroke-linejoin:round; stroke-width:2; stroke-opacity:0.1; fill:none" points="1034.77,1423.18 1034.77,47.2441 "/>
<polyline clip-path="url(#clip482)" style="stroke:#000000; stroke-linecap:round; stroke-linejoin:round; stroke-width:2; stroke-opacity:0.1; fill:none" points="1474.1,1423.18 1474.1,47.2441 "/>
<polyline clip-path="url(#clip482)" style="stroke:#000000; stroke-linecap:round; stroke-linejoin:round; stroke-width:2; stroke-opacity:0.1; fill:none" points="1913.43,1423.18 1913.43,47.2441 "/>
<polyline clip-path="url(#clip482)" style="stroke:#000000; stroke-linecap:round; stroke-linejoin:round; stroke-width:2; stroke-opacity:0.1; fill:none" points="2352.76,1423.18 2352.76,47.2441 "/>
<polyline clip-path="url(#clip482)" style="stroke:#000000; stroke-linecap:round; stroke-linejoin:round; stroke-width:2; stroke-opacity:0.1; fill:none" points="156.112,1410.16 2352.76,1410.16 "/>
<polyline clip-path="url(#clip482)" style="stroke:#000000; stroke-linecap:round; stroke-linejoin:round; stroke-width:2; stroke-opacity:0.1; fill:none" points="156.112,1179.42 2352.76,1179.42 "/>
<polyline clip-path="url(#clip482)" style="stroke:#000000; stroke-linecap:round; stroke-linejoin:round; stroke-width:2; stroke-opacity:0.1; fill:none" points="156.112,948.673 2352.76,948.673 "/>
<polyline clip-path="url(#clip482)" style="stroke:#000000; stroke-linecap:round; stroke-linejoin:round; stroke-width:2; stroke-opacity:0.1; fill:none" points="156.112,717.929 2352.76,717.929 "/>
<polyline clip-path="url(#clip482)" style="stroke:#000000; stroke-linecap:round; stroke-linejoin:round; stroke-width:2; stroke-opacity:0.1; fill:none" points="156.112,487.185 2352.76,487.185 "/>
<polyline clip-path="url(#clip482)" style="stroke:#000000; stroke-linecap:round; stroke-linejoin:round; stroke-width:2; stroke-opacity:0.1; fill:none" points="156.112,256.441 2352.76,256.441 "/>
<polyline clip-path="url(#clip480)" style="stroke:#000000; stroke-linecap:round; stroke-linejoin:round; stroke-width:4; stroke-opacity:1; fill:none" points="156.112,1423.18 2352.76,1423.18 "/>
<polyline clip-path="url(#clip480)" style="stroke:#000000; stroke-linecap:round; stroke-linejoin:round; stroke-width:4; stroke-opacity:1; fill:none" points="156.112,1423.18 156.112,1404.28 "/>
<polyline clip-path="url(#clip480)" style="stroke:#000000; stroke-linecap:round; stroke-linejoin:round; stroke-width:4; stroke-opacity:1; fill:none" points="595.441,1423.18 595.441,1404.28 "/>
<polyline clip-path="url(#clip480)" style="stroke:#000000; stroke-linecap:round; stroke-linejoin:round; stroke-width:4; stroke-opacity:1; fill:none" points="1034.77,1423.18 1034.77,1404.28 "/>
<polyline clip-path="url(#clip480)" style="stroke:#000000; stroke-linecap:round; stroke-linejoin:round; stroke-width:4; stroke-opacity:1; fill:none" points="1474.1,1423.18 1474.1,1404.28 "/>
<polyline clip-path="url(#clip480)" style="stroke:#000000; stroke-linecap:round; stroke-linejoin:round; stroke-width:4; stroke-opacity:1; fill:none" points="1913.43,1423.18 1913.43,1404.28 "/>
<polyline clip-path="url(#clip480)" style="stroke:#000000; stroke-linecap:round; stroke-linejoin:round; stroke-width:4; stroke-opacity:1; fill:none" points="2352.76,1423.18 2352.76,1404.28 "/>
<path clip-path="url(#clip480)" d="M156.112 1454.1 Q152.501 1454.1 150.672 1457.66 Q148.867 1461.2 148.867 1468.33 Q148.867 1475.44 150.672 1479.01 Q152.501 1482.55 156.112 1482.55 Q159.746 1482.55 161.552 1479.01 Q163.381 1475.44 163.381 1468.33 Q163.381 1461.2 161.552 1457.66 Q159.746 1454.1 156.112 1454.1 M156.112 1450.39 Q161.922 1450.39 164.978 1455 Q168.057 1459.58 168.057 1468.33 Q168.057 1477.06 164.978 1481.67 Q161.922 1486.25 156.112 1486.25 Q150.302 1486.25 147.223 1481.67 Q144.168 1477.06 144.168 1468.33 Q144.168 1459.58 147.223 1455 Q150.302 1450.39 156.112 1450.39 Z" fill="#000000" fill-rule="nonzero" fill-opacity="1" /><path clip-path="url(#clip480)" d="M585.823 1481.64 L593.462 1481.64 L593.462 1455.28 L585.152 1456.95 L585.152 1452.69 L593.415 1451.02 L598.091 1451.02 L598.091 1481.64 L605.73 1481.64 L605.73 1485.58 L585.823 1485.58 L585.823 1481.64 Z" fill="#000000" fill-rule="nonzero" fill-opacity="1" /><path clip-path="url(#clip480)" d="M1029.42 1481.64 L1045.74 1481.64 L1045.74 1485.58 L1023.8 1485.58 L1023.8 1481.64 Q1026.46 1478.89 1031.04 1474.26 Q1035.65 1469.61 1036.83 1468.27 Q1039.08 1465.74 1039.95 1464.01 Q1040.86 1462.25 1040.86 1460.56 Q1040.86 1457.8 1038.91 1456.07 Q1036.99 1454.33 1033.89 1454.33 Q1031.69 1454.33 1029.24 1455.09 Q1026.81 1455.86 1024.03 1457.41 L1024.03 1452.69 Q1026.85 1451.55 1029.31 1450.97 Q1031.76 1450.39 1033.8 1450.39 Q1039.17 1450.39 1042.36 1453.08 Q1045.56 1455.77 1045.56 1460.26 Q1045.56 1462.39 1044.75 1464.31 Q1043.96 1466.2 1041.85 1468.8 Q1041.27 1469.47 1038.17 1472.69 Q1035.07 1475.88 1029.42 1481.64 Z" fill="#000000" fill-rule="nonzero" fill-opacity="1" /><path clip-path="url(#clip480)" d="M1478.35 1466.95 Q1481.7 1467.66 1483.58 1469.93 Q1485.48 1472.2 1485.48 1475.53 Q1485.48 1480.65 1481.96 1483.45 Q1478.44 1486.25 1471.96 1486.25 Q1469.78 1486.25 1467.47 1485.81 Q1465.17 1485.39 1462.72 1484.54 L1462.72 1480.02 Q1464.67 1481.16 1466.98 1481.74 Q1469.3 1482.32 1471.82 1482.32 Q1476.22 1482.32 1478.51 1480.58 Q1480.82 1478.84 1480.82 1475.53 Q1480.82 1472.48 1478.67 1470.77 Q1476.54 1469.03 1472.72 1469.03 L1468.69 1469.03 L1468.69 1465.19 L1472.91 1465.19 Q1476.36 1465.19 1478.18 1463.82 Q1480.01 1462.43 1480.01 1459.84 Q1480.01 1457.18 1478.11 1455.77 Q1476.24 1454.33 1472.72 1454.33 Q1470.8 1454.33 1468.6 1454.75 Q1466.4 1455.16 1463.76 1456.04 L1463.76 1451.88 Q1466.42 1451.14 1468.74 1450.77 Q1471.08 1450.39 1473.14 1450.39 Q1478.46 1450.39 1481.56 1452.83 Q1484.67 1455.23 1484.67 1459.35 Q1484.67 1462.22 1483.02 1464.21 Q1481.38 1466.18 1478.35 1466.95 Z" fill="#000000" fill-rule="nonzero" fill-opacity="1" /><path clip-path="url(#clip480)" d="M1916.44 1455.09 L1904.63 1473.54 L1916.44 1473.54 L1916.44 1455.09 M1915.21 1451.02 L1921.09 1451.02 L1921.09 1473.54 L1926.02 1473.54 L1926.02 1477.43 L1921.09 1477.43 L1921.09 1485.58 L1916.44 1485.58 L1916.44 1477.43 L1900.83 1477.43 L1900.83 1472.92 L1915.21 1451.02 Z" fill="#000000" fill-rule="nonzero" fill-opacity="1" /><path clip-path="url(#clip480)" d="M2343.03 1451.02 L2361.39 1451.02 L2361.39 1454.96 L2347.32 1454.96 L2347.32 1463.43 Q2348.33 1463.08 2349.35 1462.92 Q2350.37 1462.73 2351.39 1462.73 Q2357.18 1462.73 2360.56 1465.9 Q2363.94 1469.08 2363.94 1474.49 Q2363.94 1480.07 2360.46 1483.17 Q2356.99 1486.25 2350.67 1486.25 Q2348.5 1486.25 2346.23 1485.88 Q2343.98 1485.51 2341.58 1484.77 L2341.58 1480.07 Q2343.66 1481.2 2345.88 1481.76 Q2348.1 1482.32 2350.58 1482.32 Q2354.58 1482.32 2356.92 1480.21 Q2359.26 1478.1 2359.26 1474.49 Q2359.26 1470.88 2356.92 1468.77 Q2354.58 1466.67 2350.58 1466.67 Q2348.71 1466.67 2346.83 1467.08 Q2344.98 1467.5 2343.03 1468.38 L2343.03 1451.02 Z" fill="#000000" fill-rule="nonzero" fill-opacity="1" /><path clip-path="url(#clip480)" d="M1253.5 1522.27 L1253.5 1532.4 L1265.56 1532.4 L1265.56 1536.95 L1253.5 1536.95 L1253.5 1556.3 Q1253.5 1560.66 1254.67 1561.9 Q1255.88 1563.14 1259.54 1563.14 L1265.56 1563.14 L1265.56 1568.04 L1259.54 1568.04 Q1252.76 1568.04 1250.18 1565.53 Q1247.61 1562.98 1247.61 1556.3 L1247.61 1536.95 L1243.31 1536.95 L1243.31 1532.4 L1247.61 1532.4 L1247.61 1522.27 L1253.5 1522.27 Z" fill="#000000" fill-rule="nonzero" fill-opacity="1" /><polyline clip-path="url(#clip480)" style="stroke:#000000; stroke-linecap:round; stroke-linejoin:round; stroke-width:4; stroke-opacity:1; fill:none" points="156.112,1423.18 156.112,47.2441 "/>
<polyline clip-path="url(#clip480)" style="stroke:#000000; stroke-linecap:round; stroke-linejoin:round; stroke-width:4; stroke-opacity:1; fill:none" points="156.112,1410.16 175.01,1410.16 "/>
<polyline clip-path="url(#clip480)" style="stroke:#000000; stroke-linecap:round; stroke-linejoin:round; stroke-width:4; stroke-opacity:1; fill:none" points="156.112,1179.42 175.01,1179.42 "/>
<polyline clip-path="url(#clip480)" style="stroke:#000000; stroke-linecap:round; stroke-linejoin:round; stroke-width:4; stroke-opacity:1; fill:none" points="156.112,948.673 175.01,948.673 "/>
<polyline clip-path="url(#clip480)" style="stroke:#000000; stroke-linecap:round; stroke-linejoin:round; stroke-width:4; stroke-opacity:1; fill:none" points="156.112,717.929 175.01,717.929 "/>
<polyline clip-path="url(#clip480)" style="stroke:#000000; stroke-linecap:round; stroke-linejoin:round; stroke-width:4; stroke-opacity:1; fill:none" points="156.112,487.185 175.01,487.185 "/>
<polyline clip-path="url(#clip480)" style="stroke:#000000; stroke-linecap:round; stroke-linejoin:round; stroke-width:4; stroke-opacity:1; fill:none" points="156.112,256.441 175.01,256.441 "/>
<path clip-path="url(#clip480)" d="M62.9365 1395.96 Q59.3254 1395.96 57.4967 1399.53 Q55.6912 1403.07 55.6912 1410.2 Q55.6912 1417.3 57.4967 1420.87 Q59.3254 1424.41 62.9365 1424.41 Q66.5707 1424.41 68.3763 1420.87 Q70.205 1417.3 70.205 1410.2 Q70.205 1403.07 68.3763 1399.53 Q66.5707 1395.96 62.9365 1395.96 M62.9365 1392.26 Q68.7467 1392.26 71.8022 1396.86 Q74.8809 1401.45 74.8809 1410.2 Q74.8809 1418.92 71.8022 1423.53 Q68.7467 1428.11 62.9365 1428.11 Q57.1264 1428.11 54.0477 1423.53 Q50.9921 1418.92 50.9921 1410.2 Q50.9921 1401.45 54.0477 1396.86 Q57.1264 1392.26 62.9365 1392.26 Z" fill="#000000" fill-rule="nonzero" fill-opacity="1" /><path clip-path="url(#clip480)" d="M83.0984 1421.56 L87.9827 1421.56 L87.9827 1427.44 L83.0984 1427.44 L83.0984 1421.56 Z" fill="#000000" fill-rule="nonzero" fill-opacity="1" /><path clip-path="url(#clip480)" d="M108.168 1395.96 Q104.557 1395.96 102.728 1399.53 Q100.922 1403.07 100.922 1410.2 Q100.922 1417.3 102.728 1420.87 Q104.557 1424.41 108.168 1424.41 Q111.802 1424.41 113.608 1420.87 Q115.436 1417.3 115.436 1410.2 Q115.436 1403.07 113.608 1399.53 Q111.802 1395.96 108.168 1395.96 M108.168 1392.26 Q113.978 1392.26 117.033 1396.86 Q120.112 1401.45 120.112 1410.2 Q120.112 1418.92 117.033 1423.53 Q113.978 1428.11 108.168 1428.11 Q102.358 1428.11 99.2789 1423.53 Q96.2234 1418.92 96.2234 1410.2 Q96.2234 1401.45 99.2789 1396.86 Q102.358 1392.26 108.168 1392.26 Z" fill="#000000" fill-rule="nonzero" fill-opacity="1" /><path clip-path="url(#clip480)" d="M63.9319 1165.22 Q60.3208 1165.22 58.4921 1168.78 Q56.6865 1172.32 56.6865 1179.45 Q56.6865 1186.56 58.4921 1190.12 Q60.3208 1193.66 63.9319 1193.66 Q67.5661 1193.66 69.3717 1190.12 Q71.2004 1186.56 71.2004 1179.45 Q71.2004 1172.32 69.3717 1168.78 Q67.5661 1165.22 63.9319 1165.22 M63.9319 1161.51 Q69.742 1161.51 72.7976 1166.12 Q75.8763 1170.7 75.8763 1179.45 Q75.8763 1188.18 72.7976 1192.79 Q69.742 1197.37 63.9319 1197.37 Q58.1217 1197.37 55.043 1192.79 Q51.9875 1188.18 51.9875 1179.45 Q51.9875 1170.7 55.043 1166.12 Q58.1217 1161.51 63.9319 1161.51 Z" fill="#000000" fill-rule="nonzero" fill-opacity="1" /><path clip-path="url(#clip480)" d="M84.0938 1190.82 L88.978 1190.82 L88.978 1196.7 L84.0938 1196.7 L84.0938 1190.82 Z" fill="#000000" fill-rule="nonzero" fill-opacity="1" /><path clip-path="url(#clip480)" d="M99.2095 1162.14 L117.566 1162.14 L117.566 1166.07 L103.492 1166.07 L103.492 1174.54 Q104.51 1174.2 105.529 1174.04 Q106.547 1173.85 107.566 1173.85 Q113.353 1173.85 116.733 1177.02 Q120.112 1180.19 120.112 1185.61 Q120.112 1191.19 116.64 1194.29 Q113.168 1197.37 106.848 1197.37 Q104.672 1197.37 102.404 1197 Q100.159 1196.63 97.7511 1195.89 L97.7511 1191.19 Q99.8345 1192.32 102.057 1192.88 Q104.279 1193.43 106.756 1193.43 Q110.76 1193.43 113.098 1191.33 Q115.436 1189.22 115.436 1185.61 Q115.436 1182 113.098 1179.89 Q110.76 1177.79 106.756 1177.79 Q104.881 1177.79 103.006 1178.2 Q101.154 1178.62 99.2095 1179.5 L99.2095 1162.14 Z" fill="#000000" fill-rule="nonzero" fill-opacity="1" /><path clip-path="url(#clip480)" d="M53.7467 962.018 L61.3856 962.018 L61.3856 935.652 L53.0754 937.319 L53.0754 933.06 L61.3393 931.393 L66.0152 931.393 L66.0152 962.018 L73.654 962.018 L73.654 965.953 L53.7467 965.953 L53.7467 962.018 Z" fill="#000000" fill-rule="nonzero" fill-opacity="1" /><path clip-path="url(#clip480)" d="M83.0984 960.074 L87.9827 960.074 L87.9827 965.953 L83.0984 965.953 L83.0984 960.074 Z" fill="#000000" fill-rule="nonzero" fill-opacity="1" /><path clip-path="url(#clip480)" d="M108.168 934.472 Q104.557 934.472 102.728 938.037 Q100.922 941.578 100.922 948.708 Q100.922 955.814 102.728 959.379 Q104.557 962.921 108.168 962.921 Q111.802 962.921 113.608 959.379 Q115.436 955.814 115.436 948.708 Q115.436 941.578 113.608 938.037 Q111.802 934.472 108.168 934.472 M108.168 930.768 Q113.978 930.768 117.033 935.375 Q120.112 939.958 120.112 948.708 Q120.112 957.435 117.033 962.041 Q113.978 966.624 108.168 966.624 Q102.358 966.624 99.2789 962.041 Q96.2234 957.435 96.2234 948.708 Q96.2234 939.958 99.2789 935.375 Q102.358 930.768 108.168 930.768 Z" fill="#000000" fill-rule="nonzero" fill-opacity="1" /><path clip-path="url(#clip480)" d="M54.7421 731.274 L62.381 731.274 L62.381 704.908 L54.0708 706.575 L54.0708 702.316 L62.3347 700.649 L67.0106 700.649 L67.0106 731.274 L74.6494 731.274 L74.6494 735.209 L54.7421 735.209 L54.7421 731.274 Z" fill="#000000" fill-rule="nonzero" fill-opacity="1" /><path clip-path="url(#clip480)" d="M84.0938 729.329 L88.978 729.329 L88.978 735.209 L84.0938 735.209 L84.0938 729.329 Z" fill="#000000" fill-rule="nonzero" fill-opacity="1" /><path clip-path="url(#clip480)" d="M99.2095 700.649 L117.566 700.649 L117.566 704.584 L103.492 704.584 L103.492 713.056 Q104.51 712.709 105.529 712.547 Q106.547 712.362 107.566 712.362 Q113.353 712.362 116.733 715.533 Q120.112 718.704 120.112 724.121 Q120.112 729.7 116.64 732.802 Q113.168 735.88 106.848 735.88 Q104.672 735.88 102.404 735.51 Q100.159 735.14 97.7511 734.399 L97.7511 729.7 Q99.8345 730.834 102.057 731.39 Q104.279 731.945 106.756 731.945 Q110.76 731.945 113.098 729.839 Q115.436 727.732 115.436 724.121 Q115.436 720.51 113.098 718.404 Q110.76 716.297 106.756 716.297 Q104.881 716.297 103.006 716.714 Q101.154 717.13 99.2095 718.01 L99.2095 700.649 Z" fill="#000000" fill-rule="nonzero" fill-opacity="1" /><path clip-path="url(#clip480)" d="M56.9643 500.53 L73.2837 500.53 L73.2837 504.465 L51.3393 504.465 L51.3393 500.53 Q54.0014 497.775 58.5847 493.145 Q63.1911 488.493 64.3717 487.15 Q66.617 484.627 67.4967 482.891 Q68.3994 481.132 68.3994 479.442 Q68.3994 476.687 66.455 474.951 Q64.5337 473.215 61.4319 473.215 Q59.2328 473.215 56.7791 473.979 Q54.3486 474.743 51.5708 476.294 L51.5708 471.571 Q54.3949 470.437 56.8486 469.859 Q59.3023 469.28 61.3393 469.28 Q66.7096 469.28 69.9041 471.965 Q73.0985 474.65 73.0985 479.141 Q73.0985 481.271 72.2883 483.192 Q71.5013 485.09 69.3948 487.683 Q68.8161 488.354 65.7143 491.571 Q62.6124 494.766 56.9643 500.53 Z" fill="#000000" fill-rule="nonzero" fill-opacity="1" /><path clip-path="url(#clip480)" d="M83.0984 498.585 L87.9827 498.585 L87.9827 504.465 L83.0984 504.465 L83.0984 498.585 Z" fill="#000000" fill-rule="nonzero" fill-opacity="1" /><path clip-path="url(#clip480)" d="M108.168 472.984 Q104.557 472.984 102.728 476.548 Q100.922 480.09 100.922 487.22 Q100.922 494.326 102.728 497.891 Q104.557 501.432 108.168 501.432 Q111.802 501.432 113.608 497.891 Q115.436 494.326 115.436 487.22 Q115.436 480.09 113.608 476.548 Q111.802 472.984 108.168 472.984 M108.168 469.28 Q113.978 469.28 117.033 473.886 Q120.112 478.47 120.112 487.22 Q120.112 495.946 117.033 500.553 Q113.978 505.136 108.168 505.136 Q102.358 505.136 99.2789 500.553 Q96.2234 495.946 96.2234 487.22 Q96.2234 478.47 99.2789 473.886 Q102.358 469.28 108.168 469.28 Z" fill="#000000" fill-rule="nonzero" fill-opacity="1" /><path clip-path="url(#clip480)" d="M57.9597 269.785 L74.279 269.785 L74.279 273.721 L52.3347 273.721 L52.3347 269.785 Q54.9967 267.031 59.58 262.401 Q64.1865 257.749 65.367 256.406 Q67.6124 253.883 68.492 252.147 Q69.3948 250.387 69.3948 248.698 Q69.3948 245.943 67.4504 244.207 Q65.5291 242.471 62.4272 242.471 Q60.2282 242.471 57.7745 243.235 Q55.344 243.999 52.5662 245.549 L52.5662 240.827 Q55.3903 239.693 57.8439 239.114 Q60.2976 238.536 62.3347 238.536 Q67.705 238.536 70.8994 241.221 Q74.0939 243.906 74.0939 248.397 Q74.0939 250.526 73.2837 252.448 Q72.4966 254.346 70.3902 256.938 Q69.8115 257.61 66.7096 260.827 Q63.6078 264.022 57.9597 269.785 Z" fill="#000000" fill-rule="nonzero" fill-opacity="1" /><path clip-path="url(#clip480)" d="M84.0938 267.841 L88.978 267.841 L88.978 273.721 L84.0938 273.721 L84.0938 267.841 Z" fill="#000000" fill-rule="nonzero" fill-opacity="1" /><path clip-path="url(#clip480)" d="M99.2095 239.161 L117.566 239.161 L117.566 243.096 L103.492 243.096 L103.492 251.568 Q104.51 251.221 105.529 251.059 Q106.547 250.874 107.566 250.874 Q113.353 250.874 116.733 254.045 Q120.112 257.216 120.112 262.633 Q120.112 268.211 116.64 271.313 Q113.168 274.392 106.848 274.392 Q104.672 274.392 102.404 274.022 Q100.159 273.651 97.7511 272.91 L97.7511 268.211 Q99.8345 269.346 102.057 269.901 Q104.279 270.457 106.756 270.457 Q110.76 270.457 113.098 268.35 Q115.436 266.244 115.436 262.633 Q115.436 259.022 113.098 256.915 Q110.76 254.809 106.756 254.809 Q104.881 254.809 103.006 255.225 Q101.154 255.642 99.2095 256.522 L99.2095 239.161 Z" fill="#000000" fill-rule="nonzero" fill-opacity="1" /><polyline clip-path="url(#clip482)" style="stroke:#009af9; stroke-linecap:round; stroke-linejoin:round; stroke-width:4; stroke-opacity:1; fill:none" points="156.112,948.673 160.505,948.673 164.899,949.285 169.292,949.576 173.685,950.931 178.079,953.483 182.472,955.329 186.865,953.867 191.258,952 195.652,949.511 200.045,947.996 204.438,944.666 208.832,940.626 213.225,935.232 217.618,929.923 222.011,923.895 226.405,920.057 230.798,915.573 235.191,909.715 239.585,904.849 243.978,899.245 248.371,894.947 252.764,890.586 257.158,886.006 261.551,881.333 265.944,875.608 270.338,869.747 274.731,862.773 279.124,854.393 283.517,846.146 287.911,837.794 292.304,829.877 296.697,821.242 301.091,814.395 305.484,810.737 309.877,806.56 314.27,804.52 318.664,803.185 323.057,800.709 327.45,799.009 331.844,799.945 336.237,801.812 340.63,804.146 345.023,807.543 349.417,812.23 353.81,817.508 358.203,823.906 362.597,827.493 366.99,831.341 371.383,834.7 375.777,835.242 380.17,834.687 384.563,834.577 388.956,834.938 393.35,836.029 397.743,838.126 402.136,838.95 406.53,838.372 410.923,837.925 415.316,834.789 419.709,833.157 424.103,832.52 428.496,831.338 432.889,831.528 437.283,831.191 441.676,830.179 446.069,828.802 450.462,826.036 454.856,823.454 459.249,824.143 463.642,826.419 468.036,827.396 472.429,829.807 476.822,831.434 481.215,834.69 485.609,835.917 490.002,836.603 494.395,837.125 498.789,837.365 503.182,839.737 507.575,839.141 511.968,838.603 516.362,833.643 520.755,831.088 525.148,829.313 529.542,826.778 533.935,823.248 538.328,820.141 542.721,819.041 547.115,818.402 551.508,819.522 555.901,819.307 560.295,817.843 564.688,817.001 569.081,816.893 573.474,819.24 577.868,822.861 582.261,826.377 586.654,829.818 591.048,833.714 595.441,840.467 599.834,846.434 604.227,851.831 608.621,856.55 613.014,860.07 617.407,865.96 621.801,873.101 626.194,879.839 630.587,886.802 634.98,893.52 639.374,899.499 643.767,905.485 648.16,912.881 652.554,920.141 656.947,927.892 661.34,936.328 665.733,945.416 670.127,954.059 674.52,961.877 678.913,969.642 683.307,977.414 687.7,984.987 692.093,990.811 696.486,997.098 700.88,1003.21 705.273,1009.61 709.666,1015.98 714.06,1023.13 718.453,1029.88 722.846,1037.06 727.24,1043.98 731.633,1051.31 736.026,1058.48 740.419,1065.34 744.813,1072.18 749.206,1078.89 753.599,1085.47 757.993,1091.85 762.386,1098.16 766.779,1103.72 771.172,1109.06 775.566,1114.63 779.959,1119.93 784.352,1125.43 788.746,1131.1 793.139,1136.66 797.532,1141.97 801.925,1147.33 806.319,1152.47 810.712,1157.31 815.105,1161.7 819.499,1166.08 823.892,1170.1 828.285,1173.67 832.678,1177.48 837.072,1180.82 841.465,1183.32 845.858,1185.11 850.252,1187.39 854.645,1189.98 859.038,1193.39 863.431,1196.07 867.825,1198.68 872.218,1200.12 876.611,1202.66 881.005,1205.69 885.398,1208.31 889.791,1210.95 894.184,1212.31 898.578,1213.25 902.971,1214.99 907.364,1215.67 911.758,1215.9 916.151,1215.9 920.544,1216.46 924.937,1216.85 929.331,1216.47 933.724,1215.3 938.117,1213.89 942.511,1212.58 946.904,1211.51 951.297,1210.55 955.69,1209.68 960.084,1209.18 964.477,1208.66 968.87,1208.31 973.264,1207.43 977.657,1207.25 982.05,1206.77 986.443,1206.2 990.837,1205.34 995.23,1205.33 999.623,1204.34 1004.02,1203.65 1008.41,1203.81 1012.8,1203.41 1017.2,1203.31 1021.59,1201.89 1025.98,1199.98 1030.38,1198.55 1034.77,1196.89 1039.16,1195.33 1043.56,1193.53 1047.95,1191.68 1052.34,1189.77 1056.74,1188.35 1061.13,1186.43 1065.52,1184.19 1069.92,1182.1 1074.31,1180.28 1078.7,1178 1083.1,1175.11 1087.49,1171.96 1091.88,1168.64 1096.28,1165.37 1100.67,1161.59 1105.06,1157.6 1109.46,1153.92 1113.85,1150.28 1118.24,1146.01 1122.64,1141.39 1127.03,1136.73 1131.42,1132.26 1135.82,1127.75 1140.21,1123.96 1144.6,1119.35 1149,1114.19 1153.39,1109 1157.78,1103.29 1162.17,1097.2 1166.57,1090.95 1170.96,1084.66 1175.35,1078.16 1179.75,1071.73 1184.14,1065.31 1188.53,1058.5 1192.93,1051.68 1197.32,1045.1 1201.71,1038.43 1206.11,1031.73 1210.5,1024.52 1214.89,1017.61 1219.29,1010.63 1223.68,1003.42 1228.07,996.837 1232.47,990.956 1236.86,983.993 1241.25,977.093 1245.65,969.317 1250.04,961.607 1254.43,954.431 1258.83,946.127 1263.22,937.344 1267.61,928.101 1272.01,918.564 1276.4,908.858 1280.79,898.847 1285.19,888.794 1289.58,878.474 1293.97,868.091 1298.37,857.331 1302.76,846.944 1307.15,836.188 1311.55,825.385 1315.94,813.708 1320.33,801.9 1324.73,789.773 1329.12,777.47 1333.51,765.65 1337.91,752.94 1342.3,739.88 1346.69,726.954 1351.09,713.965 1355.48,700.218 1359.87,686.261 1364.27,671.949 1368.66,657.261 1373.05,642.987 1377.45,627.682 1381.84,612.079 1386.23,596.142 1390.63,579.936 1395.02,563.591 1399.41,546.801 1403.81,529.563 1408.2,512.047 1412.59,494.494 1416.99,476.196 1421.38,457.534 1425.77,438.596 1430.17,419.813 1434.56,400.136 1438.95,379.948 1443.35,359.76 1447.74,340.243 1452.13,320.013 1456.53,302.227 1460.92,285.572 1465.31,267.95 1469.71,255.377 1474.1,238.791 1478.49,222.225 1482.88,201.911 1487.28,186.508 1491.67,172.855 1496.06,159.453 1500.46,144.77 1504.85,135.597 1509.24,132.75 1513.64,135.601 1518.03,137.831 1522.42,137.83 1526.82,137.349 1531.21,128.696 1535.6,120.128 1540,108.775 1544.39,99.786 1548.78,94.7434 1553.18,90.4919 1557.57,86.1857 1561.96,87.8513 1566.36,89.4262 1570.75,96.7154 1575.14,110.686 1579.54,127.065 1583.93,144.489 1588.32,164.598 1592.72,185.926 1597.11,206.401 1601.5,225.054 1605.9,241.982 1610.29,261.099 1614.68,276.784 1619.08,292.864 1623.47,311.203 1627.86,329.925 1632.26,349.2 1636.65,366.454 1641.04,382.278 1645.44,398.378 1649.83,413.132 1654.22,427.34 1658.62,436.18 1663.01,445.244 1667.4,452.259 1671.8,459.43 1676.19,465.676 1680.58,470.27 1684.98,472.939 1689.37,477.643 1693.76,478.968 1698.16,477.963 1702.55,478.5 1706.94,474.475 1711.34,468.746 1715.73,464.272 1720.12,459.816 1724.52,456.639 1728.91,456.56 1733.3,458.629 1737.7,462.036 1742.09,470.54 1746.48,478.336 1750.88,488.565 1755.27,495.693 1759.66,504.052 1764.06,511.854 1768.45,517.923 1772.84,523.431 1777.24,528.887 1781.63,534.646 1786.02,539.475 1790.42,541.114 1794.81,548.405 1799.2,555.218 1803.59,560.017 1807.99,564.03 1812.38,569.438 1816.77,574.289 1821.17,581.763 1825.56,588.459 1829.95,597.342 1834.35,605.52 1838.74,610.467 1843.13,618.337 1847.53,624.262 1851.92,630.484 1856.31,636.517 1860.71,638.459 1865.1,636.689 1869.49,633.278 1873.89,626.57 1878.28,620.527 1882.67,618.251 1887.07,615.826 1891.46,609.88 1895.85,605.798 1900.25,602.876 1904.64,597.273 1909.03,590.29 1913.43,587.155 1917.82,586.213 1922.21,586.323 1926.61,585.497 1931,587.53 1935.39,587.922 1939.79,589.029 1944.18,591.26 1948.57,598.542 1952.97,605.537 1957.36,614.206 1961.75,623.68 1966.15,633.09 1970.54,641.122 1974.93,651.963 1979.33,659.443 1983.72,668.925 1988.11,679.525 1992.51,687.71 1996.9,695.395 2001.29,702.26 2005.69,708.019 2010.08,711.288 2014.47,713.349 2018.87,713.816 2023.26,709.164 2027.65,706.589 2032.05,703.102 2036.44,699.927 2040.83,699.31 2045.23,695.757 2049.62,695.826 2054.01,697.022 2058.41,696.497 2062.8,695.426 2067.19,695.014 2071.59,694.505 2075.98,695.4 2080.37,696.521 2084.77,696.857 2089.16,697.669 2093.55,698.839 2097.95,700.512 2102.34,699.867 2106.73,697.105 2111.13,695.877 2115.52,695.062 2119.91,691.016 2124.3,688.445 2128.7,683.405 2133.09,678.261 2137.48,673.3 2141.88,667.56 2146.27,662.759 2150.66,656.797 2155.06,649.807 2159.45,642.466 2163.84,633.079 2168.24,625.73 2172.63,617.784 2177.02,607.771 2181.42,601.633 2185.81,597.533 2190.2,594.664 2194.6,593.907 2198.99,588.689 2203.38,585.569 2207.78,584.892 2212.17,582.391 2216.56,582.615 2220.96,581.272 2225.35,578.103 2229.74,578.637 2234.14,579.843 2238.53,579.776 2242.92,580.764 2247.32,583.729 2251.71,587.525 2256.1,591.78 2260.5,595.987 2264.89,599.173 2269.28,599.545 2273.68,600.985 2278.07,600.541 2282.46,600.29 2286.86,600.239 2291.25,600.685 2295.64,601.725 2300.04,601.782 2304.43,603.439 2308.82,602.84 2313.22,603.107 2317.61,605.008 2322,607.096 2326.4,607.065 2330.79,610.29 2335.18,612.458 2339.58,610.865 2343.97,609.782 2348.36,608.785 2352.76,610.536 "/>
<polyline clip-path="url(#clip482)" style="stroke:#e26f46; stroke-linecap:round; stroke-linejoin:round; stroke-width:4; stroke-opacity:1; fill:none" points="156.112,948.673 160.505,957.903 164.899,966.948 169.292,975.776 173.685,984.452 178.079,992.96 182.472,1001.3 186.865,1009.44 191.258,1017.21 195.652,1025.07 200.045,1032.65 204.438,1039.81 208.832,1046.7 213.225,1053.08 217.618,1058.65 222.011,1063.67 226.405,1068.21 230.798,1072.1 235.191,1075.08 239.585,1078.3 243.978,1081.51 248.371,1084.56 252.764,1088.12 257.158,1091.63 261.551,1096.42 265.944,1101.49 270.338,1107.48 274.731,1113.52 279.124,1119.38 283.517,1125.15 287.911,1130.6 292.304,1136.08 296.697,1141.07 301.091,1145.66 305.484,1150.02 309.877,1154.52 314.27,1158.23 318.664,1161.66 323.057,1165.92 327.45,1169.89 331.844,1173.69 336.237,1177.52 340.63,1180.85 345.023,1183.47 349.417,1186.24 353.81,1189.34 358.203,1191.7 362.597,1193.15 366.99,1194.66 371.383,1195.22 375.777,1195.66 380.17,1196.18 384.563,1197.11 388.956,1198 393.35,1198.58 397.743,1200.08 402.136,1201.98 406.53,1203.82 410.923,1205.41 415.316,1206.92 419.709,1208.75 424.103,1210.95 428.496,1213.36 432.889,1215.39 437.283,1216.74 441.676,1217.9 446.069,1218.45 450.462,1218.57 454.856,1218.37 459.249,1217.6 463.642,1217.4 468.036,1216.79 472.429,1214.58 476.822,1212.15 481.215,1210.3 485.609,1208.64 490.002,1207.37 494.395,1205.9 498.789,1205.16 503.182,1203.88 507.575,1201.77 511.968,1200.28 516.362,1199.58 520.755,1198.11 525.148,1196.42 529.542,1194.01 533.935,1192.13 538.328,1191.36 542.721,1189.64 547.115,1188.7 551.508,1187.19 555.901,1185.75 560.295,1185.32 564.688,1183.97 569.081,1182.3 573.474,1181.06 577.868,1179.88 582.261,1177.97 586.654,1175.98 591.048,1174.04 595.441,1172.23 599.834,1170.17 604.227,1167.29 608.621,1164.89 613.014,1161.74 617.407,1158.64 621.801,1155.49 626.194,1151.8 630.587,1148.33 634.98,1143.85 639.374,1139.43 643.767,1135.51 648.16,1132.07 652.554,1128.39 656.947,1126.21 661.34,1124.3 665.733,1121.1 670.127,1119.5 674.52,1119.95 678.913,1120.91 683.307,1121.96 687.7,1122.78 692.093,1123.88 696.486,1126.29 700.88,1130.44 705.273,1134.36 709.666,1139.39 714.06,1143.57 718.453,1147.43 722.846,1150.54 727.24,1154.39 731.633,1158.7 736.026,1163.48 740.419,1168.33 744.813,1173.11 749.206,1177.85 753.599,1182.46 757.993,1186.94 762.386,1191.26 766.779,1195.44 771.172,1199.48 775.566,1203.67 779.959,1207.77 784.352,1211.57 788.746,1215.27 793.139,1219.04 797.532,1222.36 801.925,1225.17 806.319,1227.88 810.712,1230.94 815.105,1233.99 819.499,1237.03 823.892,1239.97 828.285,1242.96 832.678,1245.96 837.072,1248.39 841.465,1250.48 845.858,1251.75 850.252,1252.43 854.645,1252.98 859.038,1254.19 863.431,1255.69 867.825,1257.02 872.218,1258.25 876.611,1260.13 881.005,1261.79 885.398,1263.38 889.791,1264.55 894.184,1266.08 898.578,1267.37 902.971,1269 907.364,1270.8 911.758,1272.14 916.151,1273.72 920.544,1275.62 924.937,1277.16 929.331,1278.18 933.724,1279.09 938.117,1279.7 942.511,1280.03 946.904,1280.56 951.297,1280.55 955.69,1280.84 960.084,1280.64 964.477,1280.56 968.87,1279.92 973.264,1279.1 977.657,1278.47 982.05,1277.53 986.443,1276.89 990.837,1276.32 995.23,1275.75 999.623,1274.72 1004.02,1273.76 1008.41,1273.03 1012.8,1272.24 1017.2,1272.18 1021.59,1271.93 1025.98,1271.99 1030.38,1272.12 1034.77,1271.97 1039.16,1272.45 1043.56,1272.15 1047.95,1271.82 1052.34,1271.31 1056.74,1270.81 1061.13,1269.82 1065.52,1268.78 1069.92,1267.83 1074.31,1267.75 1078.7,1267.78 1083.1,1267.88 1087.49,1268.61 1091.88,1269.69 1096.28,1270.63 1100.67,1271.81 1105.06,1273.14 1109.46,1274.29 1113.85,1275.25 1118.24,1276.18 1122.64,1277.21 1127.03,1278.68 1131.42,1280.23 1135.82,1281.96 1140.21,1283.47 1144.6,1284.62 1149,1285.13 1153.39,1285.71 1157.78,1285.54 1162.17,1284.7 1166.57,1283.4 1170.96,1282.09 1175.35,1280.56 1179.75,1279.23 1184.14,1278.61 1188.53,1278.3 1192.93,1278.35 1197.32,1278.42 1201.71,1279.06 1206.11,1279.57 1210.5,1279.83 1214.89,1279.62 1219.29,1279.33 1223.68,1279.31 1228.07,1279.04 1232.47,1278.35 1236.86,1277.77 1241.25,1277.38 1245.65,1277.19 1250.04,1276.9 1254.43,1277.2 1258.83,1277.29 1263.22,1277.61 1267.61,1278.08 1272.01,1278.66 1276.4,1279.01 1280.79,1279.45 1285.19,1280.03 1289.58,1280.17 1293.97,1280.75 1298.37,1281.17 1302.76,1281.19 1307.15,1280.5 1311.55,1280.54 1315.94,1280.73 1320.33,1281 1324.73,1281.27 1329.12,1281.62 1333.51,1282.6 1337.91,1283.71 1342.3,1284.64 1346.69,1285.95 1351.09,1287.56 1355.48,1289.33 1359.87,1291.14 1364.27,1292.79 1368.66,1294.57 1373.05,1295.6 1377.45,1296.98 1381.84,1298.61 1386.23,1299.97 1390.63,1301.42 1395.02,1302.53 1399.41,1303.58 1403.81,1305.18 1408.2,1306.78 1412.59,1308.2 1416.99,1309.66 1421.38,1311.16 1425.77,1312.64 1430.17,1314.3 1434.56,1315.63 1438.95,1316.99 1443.35,1318.34 1447.74,1319.55 1452.13,1320.26 1456.53,1321.07 1460.92,1322.14 1465.31,1323.37 1469.71,1324.76 1474.1,1326.27 1478.49,1327.63 1482.88,1329.08 1487.28,1330.5 1491.67,1331.81 1496.06,1333.17 1500.46,1334.53 1504.85,1335.78 1509.24,1336.89 1513.64,1338.09 1518.03,1339.33 1522.42,1340.45 1526.82,1341.5 1531.21,1342.56 1535.6,1343.63 1540,1344.73 1544.39,1345.66 1548.78,1346.63 1553.18,1347.61 1557.57,1348.63 1561.96,1349.76 1566.36,1350.81 1570.75,1351.86 1575.14,1352.84 1579.54,1353.63 1583.93,1354.46 1588.32,1355.19 1592.72,1355.61 1597.11,1355.77 1601.5,1355.97 1605.9,1356.36 1610.29,1356.45 1614.68,1356.6 1619.08,1356.81 1623.47,1357.09 1627.86,1357.41 1632.26,1357.91 1636.65,1358.58 1641.04,1359.14 1645.44,1359.58 1649.83,1359.77 1654.22,1360.21 1658.62,1360.41 1663.01,1360.64 1667.4,1360.8 1671.8,1360.95 1676.19,1361.11 1680.58,1361.37 1684.98,1361.72 1689.37,1362.21 1693.76,1362.7 1698.16,1363.12 1702.55,1363.5 1706.94,1363.94 1711.34,1364.56 1715.73,1365.2 1720.12,1365.87 1724.52,1366.48 1728.91,1367.16 1733.3,1367.84 1737.7,1368.53 1742.09,1369.18 1746.48,1369.87 1750.88,1370.5 1755.27,1371.1 1759.66,1371.72 1764.06,1372.25 1768.45,1372.85 1772.84,1373.36 1777.24,1373.84 1781.63,1374.34 1786.02,1374.86 1790.42,1375.31 1794.81,1375.78 1799.2,1376.16 1803.59,1376.41 1807.99,1376.64 1812.38,1376.77 1816.77,1376.8 1821.17,1376.79 1825.56,1376.61 1829.95,1376.39 1834.35,1376.04 1838.74,1375.63 1843.13,1375.24 1847.53,1374.93 1851.92,1374.54 1856.31,1374.26 1860.71,1374.06 1865.1,1374.03 1869.49,1374 1873.89,1373.88 1878.28,1373.72 1882.67,1373.68 1887.07,1373.6 1891.46,1373.55 1895.85,1373.7 1900.25,1373.87 1904.64,1374.02 1909.03,1374.14 1913.43,1374.34 1917.82,1374.52 1922.21,1374.76 1926.61,1375.2 1931,1375.63 1935.39,1376.09 1939.79,1376.5 1944.18,1376.96 1948.57,1377.4 1952.97,1377.89 1957.36,1378.37 1961.75,1378.78 1966.15,1379.26 1970.54,1379.77 1974.93,1380.17 1979.33,1380.58 1983.72,1380.78 1988.11,1381.04 1992.51,1381.34 1996.9,1381.64 2001.29,1381.9 2005.69,1382.18 2010.08,1382.38 2014.47,1382.5 2018.87,1382.53 2023.26,1382.64 2027.65,1382.78 2032.05,1382.9 2036.44,1383.11 2040.83,1383.34 2045.23,1383.53 2049.62,1383.65 2054.01,1383.7 2058.41,1383.76 2062.8,1383.75 2067.19,1383.87 2071.59,1383.99 2075.98,1384.12 2080.37,1384.21 2084.77,1384.24 2089.16,1384.18 2093.55,1384.13 2097.95,1383.98 2102.34,1383.9 2106.73,1383.8 2111.13,1383.65 2115.52,1383.5 2119.91,1383.35 2124.3,1383.25 2128.7,1383.09 2133.09,1382.92 2137.48,1382.73 2141.88,1382.64 2146.27,1382.48 2150.66,1382.38 2155.06,1382.21 2159.45,1382.06 2163.84,1382.11 2168.24,1382.11 2172.63,1382.06 2177.02,1382.01 2181.42,1382.03 2185.81,1382.09 2190.2,1382.08 2194.6,1382.02 2198.99,1381.95 2203.38,1381.74 2207.78,1381.42 2212.17,1381.14 2216.56,1380.78 2220.96,1380.44 2225.35,1380.08 2229.74,1379.72 2234.14,1379.31 2238.53,1378.94 2242.92,1378.55 2247.32,1378.17 2251.71,1377.77 2256.1,1377.36 2260.5,1377 2264.89,1376.49 2269.28,1375.97 2273.68,1375.42 2278.07,1374.79 2282.46,1374.2 2286.86,1373.62 2291.25,1373.07 2295.64,1372.5 2300.04,1371.91 2304.43,1371.34 2308.82,1370.75 2313.22,1370.14 2317.61,1369.62 2322,1369.05 2326.4,1368.68 2330.79,1368.35 2335.18,1367.86 2339.58,1367.48 2343.97,1367.08 2348.36,1366.48 2352.76,1365.83 "/>
<path clip-path="url(#clip480)" d="M1970.77 248.629 L2279.53 248.629 L2279.53 93.1086 L1970.77 93.1086  Z" fill="#ffffff" fill-rule="evenodd" fill-opacity="1"/>
<polyline clip-path="url(#clip480)" style="stroke:#000000; stroke-linecap:round; stroke-linejoin:round; stroke-width:4; stroke-opacity:1; fill:none" points="1970.77,248.629 2279.53,248.629 2279.53,93.1086 1970.77,93.1086 1970.77,248.629 "/>
<polyline clip-path="url(#clip480)" style="stroke:#009af9; stroke-linecap:round; stroke-linejoin:round; stroke-width:4; stroke-opacity:1; fill:none" points="1995.18,144.949 2141.62,144.949 "/>
<path clip-path="url(#clip480)" d="M2166.03 151.997 L2166.03 136.303 L2170.29 136.303 L2170.29 151.835 Q2170.29 155.516 2171.72 157.368 Q2173.16 159.196 2176.03 159.196 Q2179.48 159.196 2181.47 156.997 Q2183.48 154.798 2183.48 151.002 L2183.48 136.303 L2187.74 136.303 L2187.74 162.229 L2183.48 162.229 L2183.48 158.247 Q2181.93 160.608 2179.87 161.766 Q2177.84 162.9 2175.13 162.9 Q2170.66 162.9 2168.35 160.122 Q2166.03 157.344 2166.03 151.997 M2176.75 135.678 L2176.75 135.678 Z" fill="#000000" fill-rule="nonzero" fill-opacity="1" /><path clip-path="url(#clip480)" d="M2196.12 126.21 L2205.94 126.21 L2205.94 129.52 L2200.38 129.52 L2200.38 165.168 L2205.94 165.168 L2205.94 168.479 L2196.12 168.479 L2196.12 126.21 Z" fill="#000000" fill-rule="nonzero" fill-opacity="1" /><path clip-path="url(#clip480)" d="M2216.42 158.293 L2224.06 158.293 L2224.06 131.928 L2215.75 133.595 L2215.75 129.335 L2224.02 127.669 L2228.69 127.669 L2228.69 158.293 L2236.33 158.293 L2236.33 162.229 L2216.42 162.229 L2216.42 158.293 Z" fill="#000000" fill-rule="nonzero" fill-opacity="1" /><path clip-path="url(#clip480)" d="M2255.13 126.21 L2255.13 168.479 L2245.31 168.479 L2245.31 165.168 L2250.84 165.168 L2250.84 129.52 L2245.31 129.52 L2245.31 126.21 L2255.13 126.21 Z" fill="#000000" fill-rule="nonzero" fill-opacity="1" /><polyline clip-path="url(#clip480)" style="stroke:#e26f46; stroke-linecap:round; stroke-linejoin:round; stroke-width:4; stroke-opacity:1; fill:none" points="1995.18,196.789 2141.62,196.789 "/>
<path clip-path="url(#clip480)" d="M2166.03 203.837 L2166.03 188.143 L2170.29 188.143 L2170.29 203.675 Q2170.29 207.356 2171.72 209.208 Q2173.16 211.036 2176.03 211.036 Q2179.48 211.036 2181.47 208.837 Q2183.48 206.638 2183.48 202.842 L2183.48 188.143 L2187.74 188.143 L2187.74 214.069 L2183.48 214.069 L2183.48 210.087 Q2181.93 212.448 2179.87 213.606 Q2177.84 214.74 2175.13 214.74 Q2170.66 214.74 2168.35 211.962 Q2166.03 209.184 2166.03 203.837 M2176.75 187.518 L2176.75 187.518 Z" fill="#000000" fill-rule="nonzero" fill-opacity="1" /><path clip-path="url(#clip480)" d="M2196.12 178.05 L2205.94 178.05 L2205.94 181.36 L2200.38 181.36 L2200.38 217.008 L2205.94 217.008 L2205.94 220.319 L2196.12 220.319 L2196.12 178.05 Z" fill="#000000" fill-rule="nonzero" fill-opacity="1" /><path clip-path="url(#clip480)" d="M2219.64 210.133 L2235.96 210.133 L2235.96 214.069 L2214.02 214.069 L2214.02 210.133 Q2216.68 207.379 2221.26 202.749 Q2225.87 198.096 2227.05 196.754 Q2229.29 194.231 2230.17 192.495 Q2231.08 190.735 2231.08 189.046 Q2231.08 186.291 2229.13 184.555 Q2227.21 182.819 2224.11 182.819 Q2221.91 182.819 2219.46 183.583 Q2217.03 184.347 2214.25 185.897 L2214.25 181.175 Q2217.07 180.041 2219.53 179.462 Q2221.98 178.884 2224.02 178.884 Q2229.39 178.884 2232.58 181.569 Q2235.78 184.254 2235.78 188.745 Q2235.78 190.874 2234.97 192.796 Q2234.18 194.694 2232.07 197.286 Q2231.49 197.958 2228.39 201.175 Q2225.29 204.37 2219.64 210.133 Z" fill="#000000" fill-rule="nonzero" fill-opacity="1" /><path clip-path="url(#clip480)" d="M2255.13 178.05 L2255.13 220.319 L2245.31 220.319 L2245.31 217.008 L2250.84 217.008 L2250.84 181.36 L2245.31 181.36 L2245.31 178.05 L2255.13 178.05 Z" fill="#000000" fill-rule="nonzero" fill-opacity="1" /></svg>
