<?xml version="1.0" encoding="utf-8"?>
<svg xmlns="http://www.w3.org/2000/svg" xmlns:xlink="http://www.w3.org/1999/xlink" width="600" height="400" viewBox="0 0 2400 1600">
<defs>
  <clipPath id="clip440">
    <rect x="0" y="0" width="2400" height="1600"/>
  </clipPath>
</defs>
<path clip-path="url(#clip440)" d="M0 1600 L2400 1600 L2400 0 L0 0  Z" fill="#ffffff" fill-rule="evenodd" fill-opacity="1"/>
<defs>
  <clipPath id="clip441">
    <rect x="156" y="47" width="2197" height="1377"/>
  </clipPath>
</defs>
<path clip-path="url(#clip440)" d="M156.274 1423.18 L2352.76 1423.18 L2352.76 47.2441 L156.274 47.2441  Z" fill="#ffffff" fill-rule="evenodd" fill-opacity="1"/>
<polyline clip-path="url(#clip441)" style="stroke:#000000; stroke-linecap:round; stroke-linejoin:round; stroke-width:2; stroke-opacity:0.1; fill:none" points="156.274,1423.18 156.274,47.2441 "/>
<polyline clip-path="url(#clip441)" style="stroke:#000000; stroke-linecap:round; stroke-linejoin:round; stroke-width:2; stroke-opacity:0.1; fill:none" points="595.571,1423.18 595.571,47.2441 "/>
<polyline clip-path="url(#clip441)" style="stroke:#000000; stroke-linecap:round; stroke-linejoin:round; stroke-width:2; stroke-opacity:0.1; fill:none" points="1034.87,1423.18 1034.87,47.2441 "/>
<polyline clip-path="url(#clip441)" style="stroke:#000000; stroke-linecap:round; stroke-linejoin:round; stroke-width:2; stroke-opacity:0.1; fill:none" points="1474.16,1423.18 1474.16,47.2441 "/>
<polyline clip-path="url(#clip441)" style="stroke:#000000; stroke-linecap:round; stroke-linejoin:round; stroke-width:2; stroke-opacity:0.1; fill:none" points="1913.46,1423.18 1913.46,47.2441 "/>
<polyline clip-path="url(#clip441)" style="stroke:#000000; stroke-linecap:round; stroke-linejoin:round; stroke-width:2; stroke-opacity:0.1; fill:none" points="2352.76,1423.18 2352.76,47.2441 "/>
<polyline clip-path="url(#clip441)" style="stroke:#000000; stroke-linecap:round; stroke-linejoin:round; stroke-width:2; stroke-opacity:0.1; fill:none" points="156.274,1280.52 2352.76,1280.52 "/>
<polyline clip-path="url(#clip441)" style="stroke:#000000; stroke-linecap:round; stroke-linejoin:round; stroke-width:2; stroke-opacity:0.1; fill:none" points="156.274,1093.64 2352.76,1093.64 "/>
<polyline clip-path="url(#clip441)" style="stroke:#000000; stroke-linecap:round; stroke-linejoin:round; stroke-width:2; stroke-opacity:0.1; fill:none" points="156.274,906.765 2352.76,906.765 "/>
<polyline clip-path="url(#clip441)" style="stroke:#000000; stroke-linecap:round; stroke-linejoin:round; stroke-width:2; stroke-opacity:0.1; fill:none" points="156.274,719.886 2352.76,719.886 "/>
<polyline clip-path="url(#clip441)" style="stroke:#000000; stroke-linecap:round; stroke-linejoin:round; stroke-width:2; stroke-opacity:0.1; fill:none" points="156.274,533.008 2352.76,533.008 "/>
<polyline clip-path="url(#clip441)" style="stroke:#000000; stroke-linecap:round; stroke-linejoin:round; stroke-width:2; stroke-opacity:0.1; fill:none" points="156.274,346.129 2352.76,346.129 "/>
<polyline clip-path="url(#clip441)" style="stroke:#000000; stroke-linecap:round; stroke-linejoin:round; stroke-width:2; stroke-opacity:0.1; fill:none" points="156.274,159.25 2352.76,159.25 "/>
<polyline clip-path="url(#clip440)" style="stroke:#000000; stroke-linecap:round; stroke-linejoin:round; stroke-width:4; stroke-opacity:1; fill:none" points="156.274,1423.18 2352.76,1423.18 "/>
<polyline clip-path="url(#clip440)" style="stroke:#000000; stroke-linecap:round; stroke-linejoin:round; stroke-width:4; stroke-opacity:1; fill:none" points="156.274,1423.18 156.274,1404.28 "/>
<polyline clip-path="url(#clip440)" style="stroke:#000000; stroke-linecap:round; stroke-linejoin:round; stroke-width:4; stroke-opacity:1; fill:none" points="595.571,1423.18 595.571,1404.28 "/>
<polyline clip-path="url(#clip440)" style="stroke:#000000; stroke-linecap:round; stroke-linejoin:round; stroke-width:4; stroke-opacity:1; fill:none" points="1034.87,1423.18 1034.87,1404.28 "/>
<polyline clip-path="url(#clip440)" style="stroke:#000000; stroke-linecap:round; stroke-linejoin:round; stroke-width:4; stroke-opacity:1; fill:none" points="1474.16,1423.18 1474.16,1404.28 "/>
<polyline clip-path="url(#clip440)" style="stroke:#000000; stroke-linecap:round; stroke-linejoin:round; stroke-width:4; stroke-opacity:1; fill:none" points="1913.46,1423.18 1913.46,1404.28 "/>
<polyline clip-path="url(#clip440)" style="stroke:#000000; stroke-linecap:round; stroke-linejoin:round; stroke-width:4; stroke-opacity:1; fill:none" points="2352.76,1423.18 2352.76,1404.28 "/>
<path clip-path="url(#clip440)" d="M133.659 1454.1 Q130.047 1454.1 128.219 1457.66 Q126.413 1461.2 126.413 1468.33 Q126.413 1475.44 128.219 1479.01 Q130.047 1482.55 133.659 1482.55 Q137.293 1482.55 139.098 1479.01 Q140.927 1475.44 140.927 1468.33 Q140.927 1461.2 139.098 1457.66 Q137.293 1454.1 133.659 1454.1 M133.659 1450.39 Q139.469 1450.39 142.524 1455 Q145.603 1459.58 145.603 1468.33 Q145.603 1477.06 142.524 1481.67 Q139.469 1486.25 133.659 1486.25 Q127.848 1486.25 124.77 1481.67 Q121.714 1477.06 121.714 1468.33 Q121.714 1459.58 124.77 1455 Q127.848 1450.39 133.659 1450.39 Z" fill="#000000" fill-rule="nonzero" fill-opacity="1" /><path clip-path="url(#clip440)" d="M153.82 1479.7 L158.705 1479.7 L158.705 1485.58 L153.82 1485.58 L153.82 1479.7 Z" fill="#000000" fill-rule="nonzero" fill-opacity="1" /><path clip-path="url(#clip440)" d="M178.89 1454.1 Q175.279 1454.1 173.45 1457.66 Q171.644 1461.2 171.644 1468.33 Q171.644 1475.44 173.45 1479.01 Q175.279 1482.55 178.89 1482.55 Q182.524 1482.55 184.33 1479.01 Q186.158 1475.44 186.158 1468.33 Q186.158 1461.2 184.33 1457.66 Q182.524 1454.1 178.89 1454.1 M178.89 1450.39 Q184.7 1450.39 187.755 1455 Q190.834 1459.58 190.834 1468.33 Q190.834 1477.06 187.755 1481.67 Q184.7 1486.25 178.89 1486.25 Q173.08 1486.25 170.001 1481.67 Q166.945 1477.06 166.945 1468.33 Q166.945 1459.58 170.001 1455 Q173.08 1450.39 178.89 1450.39 Z" fill="#000000" fill-rule="nonzero" fill-opacity="1" /><path clip-path="url(#clip440)" d="M573.753 1454.1 Q570.142 1454.1 568.314 1457.66 Q566.508 1461.2 566.508 1468.33 Q566.508 1475.44 568.314 1479.01 Q570.142 1482.55 573.753 1482.55 Q577.388 1482.55 579.193 1479.01 Q581.022 1475.44 581.022 1468.33 Q581.022 1461.2 579.193 1457.66 Q577.388 1454.1 573.753 1454.1 M573.753 1450.39 Q579.564 1450.39 582.619 1455 Q585.698 1459.58 585.698 1468.33 Q585.698 1477.06 582.619 1481.67 Q579.564 1486.25 573.753 1486.25 Q567.943 1486.25 564.865 1481.67 Q561.809 1477.06 561.809 1468.33 Q561.809 1459.58 564.865 1455 Q567.943 1450.39 573.753 1450.39 Z" fill="#000000" fill-rule="nonzero" fill-opacity="1" /><path clip-path="url(#clip440)" d="M593.915 1479.7 L598.8 1479.7 L598.8 1485.58 L593.915 1485.58 L593.915 1479.7 Z" fill="#000000" fill-rule="nonzero" fill-opacity="1" /><path clip-path="url(#clip440)" d="M613.013 1481.64 L629.332 1481.64 L629.332 1485.58 L607.388 1485.58 L607.388 1481.64 Q610.05 1478.89 614.633 1474.26 Q619.239 1469.61 620.42 1468.27 Q622.665 1465.74 623.545 1464.01 Q624.448 1462.25 624.448 1460.56 Q624.448 1457.8 622.503 1456.07 Q620.582 1454.33 617.48 1454.33 Q615.281 1454.33 612.827 1455.09 Q610.397 1455.86 607.619 1457.41 L607.619 1452.69 Q610.443 1451.55 612.897 1450.97 Q615.35 1450.39 617.388 1450.39 Q622.758 1450.39 625.952 1453.08 Q629.147 1455.77 629.147 1460.26 Q629.147 1462.39 628.337 1464.31 Q627.55 1466.2 625.443 1468.8 Q624.864 1469.47 621.763 1472.69 Q618.661 1475.88 613.013 1481.64 Z" fill="#000000" fill-rule="nonzero" fill-opacity="1" /><path clip-path="url(#clip440)" d="M1012.01 1454.1 Q1008.4 1454.1 1006.57 1457.66 Q1004.76 1461.2 1004.76 1468.33 Q1004.76 1475.44 1006.57 1479.01 Q1008.4 1482.55 1012.01 1482.55 Q1015.64 1482.55 1017.45 1479.01 Q1019.28 1475.44 1019.28 1468.33 Q1019.28 1461.2 1017.45 1457.66 Q1015.64 1454.1 1012.01 1454.1 M1012.01 1450.39 Q1017.82 1450.39 1020.87 1455 Q1023.95 1459.58 1023.95 1468.33 Q1023.95 1477.06 1020.87 1481.67 Q1017.82 1486.25 1012.01 1486.25 Q1006.2 1486.25 1003.12 1481.67 Q1000.06 1477.06 1000.06 1468.33 Q1000.06 1459.58 1003.12 1455 Q1006.2 1450.39 1012.01 1450.39 Z" fill="#000000" fill-rule="nonzero" fill-opacity="1" /><path clip-path="url(#clip440)" d="M1032.17 1479.7 L1037.05 1479.7 L1037.05 1485.58 L1032.17 1485.58 L1032.17 1479.7 Z" fill="#000000" fill-rule="nonzero" fill-opacity="1" /><path clip-path="url(#clip440)" d="M1060.09 1455.09 L1048.28 1473.54 L1060.09 1473.54 L1060.09 1455.09 M1058.86 1451.02 L1064.74 1451.02 L1064.74 1473.54 L1069.67 1473.54 L1069.67 1477.43 L1064.74 1477.43 L1064.74 1485.58 L1060.09 1485.58 L1060.09 1477.43 L1044.48 1477.43 L1044.48 1472.92 L1058.86 1451.02 Z" fill="#000000" fill-rule="nonzero" fill-opacity="1" /><path clip-path="url(#clip440)" d="M1451.47 1454.1 Q1447.86 1454.1 1446.03 1457.66 Q1444.22 1461.2 1444.22 1468.33 Q1444.22 1475.44 1446.03 1479.01 Q1447.86 1482.55 1451.47 1482.55 Q1455.1 1482.55 1456.91 1479.01 Q1458.74 1475.44 1458.74 1468.33 Q1458.74 1461.2 1456.91 1457.66 Q1455.1 1454.1 1451.47 1454.1 M1451.47 1450.39 Q1457.28 1450.39 1460.33 1455 Q1463.41 1459.58 1463.41 1468.33 Q1463.41 1477.06 1460.33 1481.67 Q1457.28 1486.25 1451.47 1486.25 Q1445.66 1486.25 1442.58 1481.67 Q1439.52 1477.06 1439.52 1468.33 Q1439.52 1459.58 1442.58 1455 Q1445.66 1450.39 1451.47 1450.39 Z" fill="#000000" fill-rule="nonzero" fill-opacity="1" /><path clip-path="url(#clip440)" d="M1471.63 1479.7 L1476.51 1479.7 L1476.51 1485.58 L1471.63 1485.58 L1471.63 1479.7 Z" fill="#000000" fill-rule="nonzero" fill-opacity="1" /><path clip-path="url(#clip440)" d="M1497.28 1466.44 Q1494.13 1466.44 1492.28 1468.59 Q1490.45 1470.74 1490.45 1474.49 Q1490.45 1478.22 1492.28 1480.39 Q1494.13 1482.55 1497.28 1482.55 Q1500.42 1482.55 1502.25 1480.39 Q1504.11 1478.22 1504.11 1474.49 Q1504.11 1470.74 1502.25 1468.59 Q1500.42 1466.44 1497.28 1466.44 M1506.56 1451.78 L1506.56 1456.04 Q1504.8 1455.21 1502.99 1454.77 Q1501.21 1454.33 1499.45 1454.33 Q1494.82 1454.33 1492.37 1457.45 Q1489.94 1460.58 1489.59 1466.9 Q1490.96 1464.89 1493.02 1463.82 Q1495.08 1462.73 1497.55 1462.73 Q1502.76 1462.73 1505.77 1465.9 Q1508.8 1469.05 1508.8 1474.49 Q1508.8 1479.82 1505.66 1483.03 Q1502.51 1486.25 1497.28 1486.25 Q1491.28 1486.25 1488.11 1481.67 Q1484.94 1477.06 1484.94 1468.33 Q1484.94 1460.14 1488.83 1455.28 Q1492.72 1450.39 1499.27 1450.39 Q1501.03 1450.39 1502.81 1450.74 Q1504.61 1451.09 1506.56 1451.78 Z" fill="#000000" fill-rule="nonzero" fill-opacity="1" /><path clip-path="url(#clip440)" d="M1890.89 1454.1 Q1887.28 1454.1 1885.45 1457.66 Q1883.64 1461.2 1883.64 1468.33 Q1883.64 1475.44 1885.45 1479.01 Q1887.28 1482.55 1890.89 1482.55 Q1894.52 1482.55 1896.33 1479.01 Q1898.16 1475.44 1898.16 1468.33 Q1898.16 1461.2 1896.33 1457.66 Q1894.52 1454.1 1890.89 1454.1 M1890.89 1450.39 Q1896.7 1450.39 1899.76 1455 Q1902.83 1459.58 1902.83 1468.33 Q1902.83 1477.06 1899.76 1481.67 Q1896.7 1486.25 1890.89 1486.25 Q1885.08 1486.25 1882 1481.67 Q1878.95 1477.06 1878.95 1468.33 Q1878.95 1459.58 1882 1455 Q1885.08 1450.39 1890.89 1450.39 Z" fill="#000000" fill-rule="nonzero" fill-opacity="1" /><path clip-path="url(#clip440)" d="M1911.05 1479.7 L1915.94 1479.7 L1915.94 1485.58 L1911.05 1485.58 L1911.05 1479.7 Z" fill="#000000" fill-rule="nonzero" fill-opacity="1" /><path clip-path="url(#clip440)" d="M1936.12 1469.17 Q1932.79 1469.17 1930.87 1470.95 Q1928.97 1472.73 1928.97 1475.86 Q1928.97 1478.98 1930.87 1480.77 Q1932.79 1482.55 1936.12 1482.55 Q1939.45 1482.55 1941.38 1480.77 Q1943.3 1478.96 1943.3 1475.86 Q1943.3 1472.73 1941.38 1470.95 Q1939.48 1469.17 1936.12 1469.17 M1931.45 1467.18 Q1928.44 1466.44 1926.75 1464.38 Q1925.08 1462.32 1925.08 1459.35 Q1925.08 1455.21 1928.02 1452.8 Q1930.98 1450.39 1936.12 1450.39 Q1941.28 1450.39 1944.22 1452.8 Q1947.16 1455.21 1947.16 1459.35 Q1947.16 1462.32 1945.47 1464.38 Q1943.81 1466.44 1940.82 1467.18 Q1944.2 1467.96 1946.08 1470.26 Q1947.97 1472.55 1947.97 1475.86 Q1947.97 1480.88 1944.89 1483.57 Q1941.84 1486.25 1936.12 1486.25 Q1930.4 1486.25 1927.33 1483.57 Q1924.27 1480.88 1924.27 1475.86 Q1924.27 1472.55 1926.17 1470.26 Q1928.07 1467.96 1931.45 1467.18 M1929.73 1459.79 Q1929.73 1462.48 1931.4 1463.98 Q1933.09 1465.49 1936.12 1465.49 Q1939.13 1465.49 1940.82 1463.98 Q1942.53 1462.48 1942.53 1459.79 Q1942.53 1457.11 1940.82 1455.6 Q1939.13 1454.1 1936.12 1454.1 Q1933.09 1454.1 1931.4 1455.6 Q1929.73 1457.11 1929.73 1459.79 Z" fill="#000000" fill-rule="nonzero" fill-opacity="1" /><path clip-path="url(#clip440)" d="M2319.91 1481.64 L2327.55 1481.64 L2327.55 1455.28 L2319.24 1456.95 L2319.24 1452.69 L2327.5 1451.02 L2332.18 1451.02 L2332.18 1481.64 L2339.82 1481.64 L2339.82 1485.58 L2319.91 1485.58 L2319.91 1481.64 Z" fill="#000000" fill-rule="nonzero" fill-opacity="1" /><path clip-path="url(#clip440)" d="M2349.26 1479.7 L2354.14 1479.7 L2354.14 1485.58 L2349.26 1485.58 L2349.26 1479.7 Z" fill="#000000" fill-rule="nonzero" fill-opacity="1" /><path clip-path="url(#clip440)" d="M2374.33 1454.1 Q2370.72 1454.1 2368.89 1457.66 Q2367.08 1461.2 2367.08 1468.33 Q2367.08 1475.44 2368.89 1479.01 Q2370.72 1482.55 2374.33 1482.55 Q2377.96 1482.55 2379.77 1479.01 Q2381.6 1475.44 2381.6 1468.33 Q2381.6 1461.2 2379.77 1457.66 Q2377.96 1454.1 2374.33 1454.1 M2374.33 1450.39 Q2380.14 1450.39 2383.2 1455 Q2386.27 1459.58 2386.27 1468.33 Q2386.27 1477.06 2383.2 1481.67 Q2380.14 1486.25 2374.33 1486.25 Q2368.52 1486.25 2365.44 1481.67 Q2362.39 1477.06 2362.39 1468.33 Q2362.39 1459.58 2365.44 1455 Q2368.52 1450.39 2374.33 1450.39 Z" fill="#000000" fill-rule="nonzero" fill-opacity="1" /><path clip-path="url(#clip440)" d="M1253.58 1522.27 L1253.58 1532.4 L1265.64 1532.4 L1265.64 1536.95 L1253.58 1536.95 L1253.58 1556.3 Q1253.58 1560.66 1254.75 1561.9 Q1255.96 1563.14 1259.62 1563.14 L1265.64 1563.14 L1265.64 1568.04 L1259.62 1568.04 Q1252.84 1568.04 1250.27 1565.53 Q1247.69 1562.98 1247.69 1556.3 L1247.69 1536.95 L1243.39 1536.95 L1243.39 1532.4 L1247.69 1532.4 L1247.69 1522.27 L1253.58 1522.27 Z" fill="#000000" fill-rule="nonzero" fill-opacity="1" /><polyline clip-path="url(#clip440)" style="stroke:#000000; stroke-linecap:round; stroke-linejoin:round; stroke-width:4; stroke-opacity:1; fill:none" points="156.274,1423.18 156.274,47.2441 "/>
<polyline clip-path="url(#clip440)" style="stroke:#000000; stroke-linecap:round; stroke-linejoin:round; stroke-width:4; stroke-opacity:1; fill:none" points="156.274,1280.52 175.172,1280.52 "/>
<polyline clip-path="url(#clip440)" style="stroke:#000000; stroke-linecap:round; stroke-linejoin:round; stroke-width:4; stroke-opacity:1; fill:none" points="156.274,1093.64 175.172,1093.64 "/>
<polyline clip-path="url(#clip440)" style="stroke:#000000; stroke-linecap:round; stroke-linejoin:round; stroke-width:4; stroke-opacity:1; fill:none" points="156.274,906.765 175.172,906.765 "/>
<polyline clip-path="url(#clip440)" style="stroke:#000000; stroke-linecap:round; stroke-linejoin:round; stroke-width:4; stroke-opacity:1; fill:none" points="156.274,719.886 175.172,719.886 "/>
<polyline clip-path="url(#clip440)" style="stroke:#000000; stroke-linecap:round; stroke-linejoin:round; stroke-width:4; stroke-opacity:1; fill:none" points="156.274,533.008 175.172,533.008 "/>
<polyline clip-path="url(#clip440)" style="stroke:#000000; stroke-linecap:round; stroke-linejoin:round; stroke-width:4; stroke-opacity:1; fill:none" points="156.274,346.129 175.172,346.129 "/>
<polyline clip-path="url(#clip440)" style="stroke:#000000; stroke-linecap:round; stroke-linejoin:round; stroke-width:4; stroke-opacity:1; fill:none" points="156.274,159.25 175.172,159.25 "/>
<path clip-path="url(#clip440)" d="M62.9365 1266.32 Q59.3254 1266.32 57.4967 1269.89 Q55.6912 1273.43 55.6912 1280.56 Q55.6912 1287.66 57.4967 1291.23 Q59.3254 1294.77 62.9365 1294.77 Q66.5707 1294.77 68.3763 1291.23 Q70.205 1287.66 70.205 1280.56 Q70.205 1273.43 68.3763 1269.89 Q66.5707 1266.32 62.9365 1266.32 M62.9365 1262.62 Q68.7467 1262.62 71.8022 1267.22 Q74.8809 1271.81 74.8809 1280.56 Q74.8809 1289.28 71.8022 1293.89 Q68.7467 1298.47 62.9365 1298.47 Q57.1264 1298.47 54.0477 1293.89 Q50.9921 1289.28 50.9921 1280.56 Q50.9921 1271.81 54.0477 1267.22 Q57.1264 1262.62 62.9365 1262.62 Z" fill="#000000" fill-rule="nonzero" fill-opacity="1" /><path clip-path="url(#clip440)" d="M83.0984 1291.92 L87.9827 1291.92 L87.9827 1297.8 L83.0984 1297.8 L83.0984 1291.92 Z" fill="#000000" fill-rule="nonzero" fill-opacity="1" /><path clip-path="url(#clip440)" d="M108.746 1278.66 Q105.598 1278.66 103.746 1280.81 Q101.918 1282.96 101.918 1286.71 Q101.918 1290.44 103.746 1292.62 Q105.598 1294.77 108.746 1294.77 Q111.895 1294.77 113.723 1292.62 Q115.575 1290.44 115.575 1286.71 Q115.575 1282.96 113.723 1280.81 Q111.895 1278.66 108.746 1278.66 M118.029 1264.01 L118.029 1268.27 Q116.27 1267.43 114.464 1266.99 Q112.682 1266.55 110.922 1266.55 Q106.293 1266.55 103.839 1269.68 Q101.409 1272.8 101.061 1279.12 Q102.427 1277.11 104.487 1276.04 Q106.547 1274.96 109.024 1274.96 Q114.233 1274.96 117.242 1278.13 Q120.274 1281.27 120.274 1286.71 Q120.274 1292.04 117.126 1295.26 Q113.978 1298.47 108.746 1298.47 Q102.751 1298.47 99.5798 1293.89 Q96.4085 1289.28 96.4085 1280.56 Q96.4085 1272.36 100.297 1267.5 Q104.186 1262.62 110.737 1262.62 Q112.496 1262.62 114.279 1262.96 Q116.084 1263.31 118.029 1264.01 Z" fill="#000000" fill-rule="nonzero" fill-opacity="1" /><path clip-path="url(#clip440)" d="M63.1911 1079.44 Q59.58 1079.44 57.7513 1083.01 Q55.9458 1086.55 55.9458 1093.68 Q55.9458 1100.79 57.7513 1104.35 Q59.58 1107.89 63.1911 1107.89 Q66.8254 1107.89 68.6309 1104.35 Q70.4596 1100.79 70.4596 1093.68 Q70.4596 1086.55 68.6309 1083.01 Q66.8254 1079.44 63.1911 1079.44 M63.1911 1075.74 Q69.0013 1075.74 72.0568 1080.35 Q75.1355 1084.93 75.1355 1093.68 Q75.1355 1102.41 72.0568 1107.01 Q69.0013 1111.6 63.1911 1111.6 Q57.381 1111.6 54.3023 1107.01 Q51.2468 1102.41 51.2468 1093.68 Q51.2468 1084.93 54.3023 1080.35 Q57.381 1075.74 63.1911 1075.74 Z" fill="#000000" fill-rule="nonzero" fill-opacity="1" /><path clip-path="url(#clip440)" d="M83.3531 1105.04 L88.2373 1105.04 L88.2373 1110.92 L83.3531 1110.92 L83.3531 1105.04 Z" fill="#000000" fill-rule="nonzero" fill-opacity="1" /><path clip-path="url(#clip440)" d="M108.422 1094.51 Q105.089 1094.51 103.168 1096.29 Q101.27 1098.08 101.27 1101.2 Q101.27 1104.33 103.168 1106.11 Q105.089 1107.89 108.422 1107.89 Q111.756 1107.89 113.677 1106.11 Q115.598 1104.3 115.598 1101.2 Q115.598 1098.08 113.677 1096.29 Q111.779 1094.51 108.422 1094.51 M103.746 1092.52 Q100.737 1091.78 99.0474 1089.72 Q97.3808 1087.66 97.3808 1084.7 Q97.3808 1080.55 100.321 1078.15 Q103.284 1075.74 108.422 1075.74 Q113.584 1075.74 116.524 1078.15 Q119.464 1080.55 119.464 1084.7 Q119.464 1087.66 117.774 1089.72 Q116.108 1091.78 113.121 1092.52 Q116.501 1093.31 118.376 1095.6 Q120.274 1097.89 120.274 1101.2 Q120.274 1106.22 117.195 1108.91 Q114.14 1111.6 108.422 1111.6 Q102.705 1111.6 99.6261 1108.91 Q96.5706 1106.22 96.5706 1101.2 Q96.5706 1097.89 98.4687 1095.6 Q100.367 1093.31 103.746 1092.52 M102.034 1085.14 Q102.034 1087.82 103.7 1089.33 Q105.39 1090.83 108.422 1090.83 Q111.432 1090.83 113.121 1089.33 Q114.834 1087.82 114.834 1085.14 Q114.834 1082.45 113.121 1080.95 Q111.432 1079.44 108.422 1079.44 Q105.39 1079.44 103.7 1080.95 Q102.034 1082.45 102.034 1085.14 Z" fill="#000000" fill-rule="nonzero" fill-opacity="1" /><path clip-path="url(#clip440)" d="M53.9088 920.11 L61.5476 920.11 L61.5476 893.744 L53.2375 895.411 L53.2375 891.152 L61.5013 889.485 L66.1772 889.485 L66.1772 920.11 L73.8161 920.11 L73.8161 924.045 L53.9088 924.045 L53.9088 920.11 Z" fill="#000000" fill-rule="nonzero" fill-opacity="1" /><path clip-path="url(#clip440)" d="M83.2605 918.165 L88.1447 918.165 L88.1447 924.045 L83.2605 924.045 L83.2605 918.165 Z" fill="#000000" fill-rule="nonzero" fill-opacity="1" /><path clip-path="url(#clip440)" d="M108.33 892.564 Q104.719 892.564 102.89 896.129 Q101.084 899.67 101.084 906.8 Q101.084 913.906 102.89 917.471 Q104.719 921.013 108.33 921.013 Q111.964 921.013 113.77 917.471 Q115.598 913.906 115.598 906.8 Q115.598 899.67 113.77 896.129 Q111.964 892.564 108.33 892.564 M108.33 888.86 Q114.14 888.86 117.195 893.467 Q120.274 898.05 120.274 906.8 Q120.274 915.527 117.195 920.133 Q114.14 924.716 108.33 924.716 Q102.52 924.716 99.4409 920.133 Q96.3854 915.527 96.3854 906.8 Q96.3854 898.05 99.4409 893.467 Q102.52 888.86 108.33 888.86 Z" fill="#000000" fill-rule="nonzero" fill-opacity="1" /><path clip-path="url(#clip440)" d="M55.506 733.231 L63.1448 733.231 L63.1448 706.866 L54.8347 708.532 L54.8347 704.273 L63.0985 702.606 L67.7744 702.606 L67.7744 733.231 L75.4133 733.231 L75.4133 737.166 L55.506 737.166 L55.506 733.231 Z" fill="#000000" fill-rule="nonzero" fill-opacity="1" /><path clip-path="url(#clip440)" d="M84.8577 731.287 L89.7419 731.287 L89.7419 737.166 L84.8577 737.166 L84.8577 731.287 Z" fill="#000000" fill-rule="nonzero" fill-opacity="1" /><path clip-path="url(#clip440)" d="M103.955 733.231 L120.274 733.231 L120.274 737.166 L98.3298 737.166 L98.3298 733.231 Q100.992 730.477 105.575 725.847 Q110.182 721.194 111.362 719.852 Q113.608 717.328 114.487 715.592 Q115.39 713.833 115.39 712.143 Q115.39 709.389 113.445 707.653 Q111.524 705.916 108.422 705.916 Q106.223 705.916 103.77 706.68 Q101.339 707.444 98.5613 708.995 L98.5613 704.273 Q101.385 703.139 103.839 702.56 Q106.293 701.981 108.33 701.981 Q113.7 701.981 116.895 704.666 Q120.089 707.352 120.089 711.842 Q120.089 713.972 119.279 715.893 Q118.492 717.791 116.385 720.384 Q115.807 721.055 112.705 724.273 Q109.603 727.467 103.955 733.231 Z" fill="#000000" fill-rule="nonzero" fill-opacity="1" /><path clip-path="url(#clip440)" d="M53.4227 546.352 L61.0615 546.352 L61.0615 519.987 L52.7514 521.653 L52.7514 517.394 L61.0152 515.728 L65.6911 515.728 L65.6911 546.352 L73.33 546.352 L73.33 550.288 L53.4227 550.288 L53.4227 546.352 Z" fill="#000000" fill-rule="nonzero" fill-opacity="1" /><path clip-path="url(#clip440)" d="M82.7744 544.408 L87.6586 544.408 L87.6586 550.288 L82.7744 550.288 L82.7744 544.408 Z" fill="#000000" fill-rule="nonzero" fill-opacity="1" /><path clip-path="url(#clip440)" d="M110.691 519.802 L98.8854 538.251 L110.691 538.251 L110.691 519.802 M109.464 515.728 L115.344 515.728 L115.344 538.251 L120.274 538.251 L120.274 542.139 L115.344 542.139 L115.344 550.288 L110.691 550.288 L110.691 542.139 L95.0891 542.139 L95.0891 537.626 L109.464 515.728 Z" fill="#000000" fill-rule="nonzero" fill-opacity="1" /><path clip-path="url(#clip440)" d="M53.7467 359.474 L61.3856 359.474 L61.3856 333.108 L53.0754 334.775 L53.0754 330.515 L61.3393 328.849 L66.0152 328.849 L66.0152 359.474 L73.654 359.474 L73.654 363.409 L53.7467 363.409 L53.7467 359.474 Z" fill="#000000" fill-rule="nonzero" fill-opacity="1" /><path clip-path="url(#clip440)" d="M83.0984 357.529 L87.9827 357.529 L87.9827 363.409 L83.0984 363.409 L83.0984 357.529 Z" fill="#000000" fill-rule="nonzero" fill-opacity="1" /><path clip-path="url(#clip440)" d="M108.746 344.265 Q105.598 344.265 103.746 346.418 Q101.918 348.571 101.918 352.321 Q101.918 356.048 103.746 358.224 Q105.598 360.376 108.746 360.376 Q111.895 360.376 113.723 358.224 Q115.575 356.048 115.575 352.321 Q115.575 348.571 113.723 346.418 Q111.895 344.265 108.746 344.265 M118.029 329.613 L118.029 333.872 Q116.27 333.039 114.464 332.599 Q112.682 332.159 110.922 332.159 Q106.293 332.159 103.839 335.284 Q101.409 338.409 101.061 344.728 Q102.427 342.714 104.487 341.65 Q106.547 340.562 109.024 340.562 Q114.233 340.562 117.242 343.733 Q120.274 346.881 120.274 352.321 Q120.274 357.645 117.126 360.862 Q113.978 364.08 108.746 364.08 Q102.751 364.08 99.5798 359.497 Q96.4085 354.89 96.4085 346.164 Q96.4085 337.969 100.297 333.108 Q104.186 328.224 110.737 328.224 Q112.496 328.224 114.279 328.571 Q116.084 328.918 118.029 329.613 Z" fill="#000000" fill-rule="nonzero" fill-opacity="1" /><path clip-path="url(#clip440)" d="M54.0014 172.595 L61.6402 172.595 L61.6402 146.229 L53.3301 147.896 L53.3301 143.637 L61.5939 141.97 L66.2698 141.97 L66.2698 172.595 L73.9087 172.595 L73.9087 176.53 L54.0014 176.53 L54.0014 172.595 Z" fill="#000000" fill-rule="nonzero" fill-opacity="1" /><path clip-path="url(#clip440)" d="M83.3531 170.65 L88.2373 170.65 L88.2373 176.53 L83.3531 176.53 L83.3531 170.65 Z" fill="#000000" fill-rule="nonzero" fill-opacity="1" /><path clip-path="url(#clip440)" d="M108.422 160.118 Q105.089 160.118 103.168 161.9 Q101.27 163.683 101.27 166.808 Q101.27 169.933 103.168 171.715 Q105.089 173.498 108.422 173.498 Q111.756 173.498 113.677 171.715 Q115.598 169.91 115.598 166.808 Q115.598 163.683 113.677 161.9 Q111.779 160.118 108.422 160.118 M103.746 158.127 Q100.737 157.387 99.0474 155.326 Q97.3808 153.266 97.3808 150.303 Q97.3808 146.16 100.321 143.752 Q103.284 141.345 108.422 141.345 Q113.584 141.345 116.524 143.752 Q119.464 146.16 119.464 150.303 Q119.464 153.266 117.774 155.326 Q116.108 157.387 113.121 158.127 Q116.501 158.914 118.376 161.206 Q120.274 163.498 120.274 166.808 Q120.274 171.831 117.195 174.516 Q114.14 177.201 108.422 177.201 Q102.705 177.201 99.6261 174.516 Q96.5706 171.831 96.5706 166.808 Q96.5706 163.498 98.4687 161.206 Q100.367 158.914 103.746 158.127 M102.034 150.743 Q102.034 153.428 103.7 154.933 Q105.39 156.438 108.422 156.438 Q111.432 156.438 113.121 154.933 Q114.834 153.428 114.834 150.743 Q114.834 148.058 113.121 146.553 Q111.432 145.049 108.422 145.049 Q105.39 145.049 103.7 146.553 Q102.034 148.058 102.034 150.743 Z" fill="#000000" fill-rule="nonzero" fill-opacity="1" /><polyline clip-path="url(#clip441)" style="stroke:#009af9; stroke-linecap:round; stroke-linejoin:round; stroke-width:4; stroke-opacity:1; fill:none" points="156.274,1373.96 293.554,1384.24 430.834,1379.56 568.114,1264.74 705.395,1289.34 842.675,1176.38 979.955,1152.38 1117.23,858.772 1254.52,764.583 1391.8,687.622 1529.08,520.347 1666.36,437.952 1803.64,503.991 1940.92,298.299 2078.2,86.1857 2215.48,196.578 2352.76,189.104 "/>
<path clip-path="url(#clip440)" d="M229.49 196.789 L538.235 196.789 L538.235 93.1086 L229.49 93.1086  Z" fill="#ffffff" fill-rule="evenodd" fill-opacity="1"/>
<polyline clip-path="url(#clip440)" style="stroke:#000000; stroke-linecap:round; stroke-linejoin:round; stroke-width:4; stroke-opacity:1; fill:none" points="229.49,196.789 538.235,196.789 538.235,93.1086 229.49,93.1086 229.49,196.789 "/>
<polyline clip-path="url(#clip440)" style="stroke:#009af9; stroke-linecap:round; stroke-linejoin:round; stroke-width:4; stroke-opacity:1; fill:none" points="253.896,144.949 400.328,144.949 "/>
<path clip-path="url(#clip440)" d="M424.733 151.997 L424.733 136.303 L428.992 136.303 L428.992 151.835 Q428.992 155.516 430.427 157.368 Q431.863 159.196 434.733 159.196 Q438.182 159.196 440.173 156.997 Q442.187 154.798 442.187 151.002 L442.187 136.303 L446.446 136.303 L446.446 162.229 L442.187 162.229 L442.187 158.247 Q440.636 160.608 438.576 161.766 Q436.539 162.9 433.83 162.9 Q429.363 162.9 427.048 160.122 Q424.733 157.344 424.733 151.997 M435.451 135.678 L435.451 135.678 Z" fill="#000000" fill-rule="nonzero" fill-opacity="1" /><path clip-path="url(#clip440)" d="M454.825 126.21 L464.64 126.21 L464.64 129.52 L459.085 129.52 L459.085 165.168 L464.64 165.168 L464.64 168.479 L454.825 168.479 L454.825 126.21 Z" fill="#000000" fill-rule="nonzero" fill-opacity="1" /><path clip-path="url(#clip440)" d="M475.126 158.293 L482.765 158.293 L482.765 131.928 L474.455 133.595 L474.455 129.335 L482.719 127.669 L487.395 127.669 L487.395 158.293 L495.034 158.293 L495.034 162.229 L475.126 162.229 L475.126 158.293 Z" fill="#000000" fill-rule="nonzero" fill-opacity="1" /><path clip-path="url(#clip440)" d="M513.83 126.21 L513.83 168.479 L504.015 168.479 L504.015 165.168 L509.547 165.168 L509.547 129.52 L504.015 129.52 L504.015 126.21 L513.83 126.21 Z" fill="#000000" fill-rule="nonzero" fill-opacity="1" /></svg>
