<?xml version="1.0" encoding="utf-8"?>
<svg xmlns="http://www.w3.org/2000/svg" xmlns:xlink="http://www.w3.org/1999/xlink" width="600" height="400" viewBox="0 0 2400 1600">
<defs>
  <clipPath id="clip470">
    <rect x="0" y="0" width="2400" height="1600"/>
  </clipPath>
</defs>
<path clip-path="url(#clip470)" d="M0 1600 L2400 1600 L2400 0 L0 0  Z" fill="#ffffff" fill-rule="evenodd" fill-opacity="1"/>
<defs>
  <clipPath id="clip471">
    <rect x="155" y="47" width="2198" height="1377"/>
  </clipPath>
</defs>
<path clip-path="url(#clip470)" d="M155.765 1423.18 L2352.76 1423.18 L2352.76 47.2441 L155.765 47.2441  Z" fill="#ffffff" fill-rule="evenodd" fill-opacity="1"/>
<polyline clip-path="url(#clip471)" style="stroke:#000000; stroke-linecap:round; stroke-linejoin:round; stroke-width:2; stroke-opacity:0.1; fill:none" points="155.765,1423.18 155.765,47.2441 "/>
<polyline clip-path="url(#clip471)" style="stroke:#000000; stroke-linecap:round; stroke-linejoin:round; stroke-width:2; stroke-opacity:0.1; fill:none" points="595.163,1423.18 595.163,47.2441 "/>
<polyline clip-path="url(#clip471)" style="stroke:#000000; stroke-linecap:round; stroke-linejoin:round; stroke-width:2; stroke-opacity:0.1; fill:none" points="1034.56,1423.18 1034.56,47.2441 "/>
<polyline clip-path="url(#clip471)" style="stroke:#000000; stroke-linecap:round; stroke-linejoin:round; stroke-width:2; stroke-opacity:0.1; fill:none" points="1473.96,1423.18 1473.96,47.2441 "/>
<polyline clip-path="url(#clip471)" style="stroke:#000000; stroke-linecap:round; stroke-linejoin:round; stroke-width:2; stroke-opacity:0.1; fill:none" points="1913.36,1423.18 1913.36,47.2441 "/>
<polyline clip-path="url(#clip471)" style="stroke:#000000; stroke-linecap:round; stroke-linejoin:round; stroke-width:2; stroke-opacity:0.1; fill:none" points="2352.76,1423.18 2352.76,47.2441 "/>
<polyline clip-path="url(#clip471)" style="stroke:#000000; stroke-linecap:round; stroke-linejoin:round; stroke-width:2; stroke-opacity:0.1; fill:none" points="155.765,1336.86 2352.76,1336.86 "/>
<polyline clip-path="url(#clip471)" style="stroke:#000000; stroke-linecap:round; stroke-linejoin:round; stroke-width:2; stroke-opacity:0.1; fill:none" points="155.765,977.708 2352.76,977.708 "/>
<polyline clip-path="url(#clip471)" style="stroke:#000000; stroke-linecap:round; stroke-linejoin:round; stroke-width:2; stroke-opacity:0.1; fill:none" points="155.765,618.561 2352.76,618.561 "/>
<polyline clip-path="url(#clip471)" style="stroke:#000000; stroke-linecap:round; stroke-linejoin:round; stroke-width:2; stroke-opacity:0.1; fill:none" points="155.765,259.413 2352.76,259.413 "/>
<polyline clip-path="url(#clip470)" style="stroke:#000000; stroke-linecap:round; stroke-linejoin:round; stroke-width:4; stroke-opacity:1; fill:none" points="155.765,1423.18 2352.76,1423.18 "/>
<polyline clip-path="url(#clip470)" style="stroke:#000000; stroke-linecap:round; stroke-linejoin:round; stroke-width:4; stroke-opacity:1; fill:none" points="155.765,1423.18 155.765,1404.28 "/>
<polyline clip-path="url(#clip470)" style="stroke:#000000; stroke-linecap:round; stroke-linejoin:round; stroke-width:4; stroke-opacity:1; fill:none" points="595.163,1423.18 595.163,1404.28 "/>
<polyline clip-path="url(#clip470)" style="stroke:#000000; stroke-linecap:round; stroke-linejoin:round; stroke-width:4; stroke-opacity:1; fill:none" points="1034.56,1423.18 1034.56,1404.28 "/>
<polyline clip-path="url(#clip470)" style="stroke:#000000; stroke-linecap:round; stroke-linejoin:round; stroke-width:4; stroke-opacity:1; fill:none" points="1473.96,1423.18 1473.96,1404.28 "/>
<polyline clip-path="url(#clip470)" style="stroke:#000000; stroke-linecap:round; stroke-linejoin:round; stroke-width:4; stroke-opacity:1; fill:none" points="1913.36,1423.18 1913.36,1404.28 "/>
<polyline clip-path="url(#clip470)" style="stroke:#000000; stroke-linecap:round; stroke-linejoin:round; stroke-width:4; stroke-opacity:1; fill:none" points="2352.76,1423.18 2352.76,1404.28 "/>
<path clip-path="url(#clip470)" d="M133.149 1454.1 Q129.538 1454.1 127.71 1457.66 Q125.904 1461.2 125.904 1468.33 Q125.904 1475.44 127.71 1479.01 Q129.538 1482.55 133.149 1482.55 Q136.784 1482.55 138.589 1479.01 Q140.418 1475.44 140.418 1468.33 Q140.418 1461.2 138.589 1457.66 Q136.784 1454.1 133.149 1454.1 M133.149 1450.39 Q138.959 1450.39 142.015 1455 Q145.094 1459.58 145.094 1468.33 Q145.094 1477.06 142.015 1481.67 Q138.959 1486.25 133.149 1486.25 Q127.339 1486.25 124.26 1481.67 Q121.205 1477.06 121.205 1468.33 Q121.205 1459.58 124.26 1455 Q127.339 1450.39 133.149 1450.39 Z" fill="#000000" fill-rule="nonzero" fill-opacity="1" /><path clip-path="url(#clip470)" d="M153.311 1479.7 L158.195 1479.7 L158.195 1485.58 L153.311 1485.58 L153.311 1479.7 Z" fill="#000000" fill-rule="nonzero" fill-opacity="1" /><path clip-path="url(#clip470)" d="M178.381 1454.1 Q174.769 1454.1 172.941 1457.66 Q171.135 1461.2 171.135 1468.33 Q171.135 1475.44 172.941 1479.01 Q174.769 1482.55 178.381 1482.55 Q182.015 1482.55 183.82 1479.01 Q185.649 1475.44 185.649 1468.33 Q185.649 1461.2 183.82 1457.66 Q182.015 1454.1 178.381 1454.1 M178.381 1450.39 Q184.191 1450.39 187.246 1455 Q190.325 1459.58 190.325 1468.33 Q190.325 1477.06 187.246 1481.67 Q184.191 1486.25 178.381 1486.25 Q172.57 1486.25 169.492 1481.67 Q166.436 1477.06 166.436 1468.33 Q166.436 1459.58 169.492 1455 Q172.57 1450.39 178.381 1450.39 Z" fill="#000000" fill-rule="nonzero" fill-opacity="1" /><path clip-path="url(#clip470)" d="M573.346 1454.1 Q569.735 1454.1 567.906 1457.66 Q566.101 1461.2 566.101 1468.33 Q566.101 1475.44 567.906 1479.01 Q569.735 1482.55 573.346 1482.55 Q576.98 1482.55 578.786 1479.01 Q580.615 1475.44 580.615 1468.33 Q580.615 1461.2 578.786 1457.66 Q576.98 1454.1 573.346 1454.1 M573.346 1450.39 Q579.156 1450.39 582.212 1455 Q585.29 1459.58 585.29 1468.33 Q585.29 1477.06 582.212 1481.67 Q579.156 1486.25 573.346 1486.25 Q567.536 1486.25 564.457 1481.67 Q561.402 1477.06 561.402 1468.33 Q561.402 1459.58 564.457 1455 Q567.536 1450.39 573.346 1450.39 Z" fill="#000000" fill-rule="nonzero" fill-opacity="1" /><path clip-path="url(#clip470)" d="M593.508 1479.7 L598.392 1479.7 L598.392 1485.58 L593.508 1485.58 L593.508 1479.7 Z" fill="#000000" fill-rule="nonzero" fill-opacity="1" /><path clip-path="url(#clip470)" d="M612.605 1481.64 L628.924 1481.64 L628.924 1485.58 L606.98 1485.58 L606.98 1481.64 Q609.642 1478.89 614.226 1474.26 Q618.832 1469.61 620.013 1468.27 Q622.258 1465.74 623.137 1464.01 Q624.04 1462.25 624.04 1460.56 Q624.04 1457.8 622.096 1456.07 Q620.175 1454.33 617.073 1454.33 Q614.874 1454.33 612.42 1455.09 Q609.989 1455.86 607.212 1457.41 L607.212 1452.69 Q610.036 1451.55 612.489 1450.97 Q614.943 1450.39 616.98 1450.39 Q622.35 1450.39 625.545 1453.08 Q628.739 1455.77 628.739 1460.26 Q628.739 1462.39 627.929 1464.31 Q627.142 1466.2 625.036 1468.8 Q624.457 1469.47 621.355 1472.69 Q618.253 1475.88 612.605 1481.64 Z" fill="#000000" fill-rule="nonzero" fill-opacity="1" /><path clip-path="url(#clip470)" d="M1011.7 1454.1 Q1008.09 1454.1 1006.26 1457.66 Q1004.46 1461.2 1004.46 1468.33 Q1004.46 1475.44 1006.26 1479.01 Q1008.09 1482.55 1011.7 1482.55 Q1015.34 1482.55 1017.14 1479.01 Q1018.97 1475.44 1018.97 1468.33 Q1018.97 1461.2 1017.14 1457.66 Q1015.34 1454.1 1011.7 1454.1 M1011.7 1450.39 Q1017.51 1450.39 1020.57 1455 Q1023.65 1459.58 1023.65 1468.33 Q1023.65 1477.06 1020.57 1481.67 Q1017.51 1486.25 1011.7 1486.25 Q1005.89 1486.25 1002.81 1481.67 Q999.758 1477.06 999.758 1468.33 Q999.758 1459.58 1002.81 1455 Q1005.89 1450.39 1011.7 1450.39 Z" fill="#000000" fill-rule="nonzero" fill-opacity="1" /><path clip-path="url(#clip470)" d="M1031.86 1479.7 L1036.75 1479.7 L1036.75 1485.58 L1031.86 1485.58 L1031.86 1479.7 Z" fill="#000000" fill-rule="nonzero" fill-opacity="1" /><path clip-path="url(#clip470)" d="M1059.78 1455.09 L1047.98 1473.54 L1059.78 1473.54 L1059.78 1455.09 M1058.55 1451.02 L1064.43 1451.02 L1064.43 1473.54 L1069.36 1473.54 L1069.36 1477.43 L1064.43 1477.43 L1064.43 1485.58 L1059.78 1485.58 L1059.78 1477.43 L1044.18 1477.43 L1044.18 1472.92 L1058.55 1451.02 Z" fill="#000000" fill-rule="nonzero" fill-opacity="1" /><path clip-path="url(#clip470)" d="M1451.26 1454.1 Q1447.65 1454.1 1445.82 1457.66 Q1444.02 1461.2 1444.02 1468.33 Q1444.02 1475.44 1445.82 1479.01 Q1447.65 1482.55 1451.26 1482.55 Q1454.9 1482.55 1456.7 1479.01 Q1458.53 1475.44 1458.53 1468.33 Q1458.53 1461.2 1456.7 1457.66 Q1454.9 1454.1 1451.26 1454.1 M1451.26 1450.39 Q1457.07 1450.39 1460.13 1455 Q1463.21 1459.58 1463.21 1468.33 Q1463.21 1477.06 1460.13 1481.67 Q1457.07 1486.25 1451.26 1486.25 Q1445.45 1486.25 1442.37 1481.67 Q1439.32 1477.06 1439.32 1468.33 Q1439.32 1459.58 1442.37 1455 Q1445.45 1450.39 1451.26 1450.39 Z" fill="#000000" fill-rule="nonzero" fill-opacity="1" /><path clip-path="url(#clip470)" d="M1471.42 1479.7 L1476.31 1479.7 L1476.31 1485.58 L1471.42 1485.58 L1471.42 1479.7 Z" fill="#000000" fill-rule="nonzero" fill-opacity="1" /><path clip-path="url(#clip470)" d="M1497.07 1466.44 Q1493.92 1466.44 1492.07 1468.59 Q1490.24 1470.74 1490.24 1474.49 Q1490.24 1478.22 1492.07 1480.39 Q1493.92 1482.55 1497.07 1482.55 Q1500.22 1482.55 1502.05 1480.39 Q1503.9 1478.22 1503.9 1474.49 Q1503.9 1470.74 1502.05 1468.59 Q1500.22 1466.44 1497.07 1466.44 M1506.36 1451.78 L1506.36 1456.04 Q1504.6 1455.21 1502.79 1454.77 Q1501.01 1454.33 1499.25 1454.33 Q1494.62 1454.33 1492.17 1457.45 Q1489.73 1460.58 1489.39 1466.9 Q1490.75 1464.89 1492.81 1463.82 Q1494.87 1462.73 1497.35 1462.73 Q1502.56 1462.73 1505.57 1465.9 Q1508.6 1469.05 1508.6 1474.49 Q1508.6 1479.82 1505.45 1483.03 Q1502.3 1486.25 1497.07 1486.25 Q1491.08 1486.25 1487.91 1481.67 Q1484.73 1477.06 1484.73 1468.33 Q1484.73 1460.14 1488.62 1455.28 Q1492.51 1450.39 1499.06 1450.39 Q1500.82 1450.39 1502.61 1450.74 Q1504.41 1451.09 1506.36 1451.78 Z" fill="#000000" fill-rule="nonzero" fill-opacity="1" /><path clip-path="url(#clip470)" d="M1890.79 1454.1 Q1887.18 1454.1 1885.35 1457.66 Q1883.54 1461.2 1883.54 1468.33 Q1883.54 1475.44 1885.35 1479.01 Q1887.18 1482.55 1890.79 1482.55 Q1894.42 1482.55 1896.23 1479.01 Q1898.06 1475.44 1898.06 1468.33 Q1898.06 1461.2 1896.23 1457.66 Q1894.42 1454.1 1890.79 1454.1 M1890.79 1450.39 Q1896.6 1450.39 1899.65 1455 Q1902.73 1459.58 1902.73 1468.33 Q1902.73 1477.06 1899.65 1481.67 Q1896.6 1486.25 1890.79 1486.25 Q1884.98 1486.25 1881.9 1481.67 Q1878.84 1477.06 1878.84 1468.33 Q1878.84 1459.58 1881.9 1455 Q1884.98 1450.39 1890.79 1450.39 Z" fill="#000000" fill-rule="nonzero" fill-opacity="1" /><path clip-path="url(#clip470)" d="M1910.95 1479.7 L1915.83 1479.7 L1915.83 1485.58 L1910.95 1485.58 L1910.95 1479.7 Z" fill="#000000" fill-rule="nonzero" fill-opacity="1" /><path clip-path="url(#clip470)" d="M1936.02 1469.17 Q1932.69 1469.17 1930.77 1470.95 Q1928.87 1472.73 1928.87 1475.86 Q1928.87 1478.98 1930.77 1480.77 Q1932.69 1482.55 1936.02 1482.55 Q1939.35 1482.55 1941.27 1480.77 Q1943.2 1478.96 1943.2 1475.86 Q1943.2 1472.73 1941.27 1470.95 Q1939.38 1469.17 1936.02 1469.17 M1931.34 1467.18 Q1928.33 1466.44 1926.64 1464.38 Q1924.98 1462.32 1924.98 1459.35 Q1924.98 1455.21 1927.92 1452.8 Q1930.88 1450.39 1936.02 1450.39 Q1941.18 1450.39 1944.12 1452.8 Q1947.06 1455.21 1947.06 1459.35 Q1947.06 1462.32 1945.37 1464.38 Q1943.7 1466.44 1940.72 1467.18 Q1944.1 1467.96 1945.97 1470.26 Q1947.87 1472.55 1947.87 1475.86 Q1947.87 1480.88 1944.79 1483.57 Q1941.74 1486.25 1936.02 1486.25 Q1930.3 1486.25 1927.22 1483.57 Q1924.17 1480.88 1924.17 1475.86 Q1924.17 1472.55 1926.07 1470.26 Q1927.96 1467.96 1931.34 1467.18 M1929.63 1459.79 Q1929.63 1462.48 1931.3 1463.98 Q1932.99 1465.49 1936.02 1465.49 Q1939.03 1465.49 1940.72 1463.98 Q1942.43 1462.48 1942.43 1459.79 Q1942.43 1457.11 1940.72 1455.6 Q1939.03 1454.1 1936.02 1454.1 Q1932.99 1454.1 1931.3 1455.6 Q1929.63 1457.11 1929.63 1459.79 Z" fill="#000000" fill-rule="nonzero" fill-opacity="1" /><path clip-path="url(#clip470)" d="M2319.91 1481.64 L2327.55 1481.64 L2327.55 1455.28 L2319.24 1456.95 L2319.24 1452.69 L2327.5 1451.02 L2332.18 1451.02 L2332.18 1481.64 L2339.82 1481.64 L2339.82 1485.58 L2319.91 1485.58 L2319.91 1481.64 Z" fill="#000000" fill-rule="nonzero" fill-opacity="1" /><path clip-path="url(#clip470)" d="M2349.26 1479.7 L2354.14 1479.7 L2354.14 1485.58 L2349.26 1485.58 L2349.26 1479.7 Z" fill="#000000" fill-rule="nonzero" fill-opacity="1" /><path clip-path="url(#clip470)" d="M2374.33 1454.1 Q2370.72 1454.1 2368.89 1457.66 Q2367.08 1461.2 2367.08 1468.33 Q2367.08 1475.44 2368.89 1479.01 Q2370.72 1482.55 2374.33 1482.55 Q2377.96 1482.55 2379.77 1479.01 Q2381.6 1475.44 2381.6 1468.33 Q2381.6 1461.2 2379.77 1457.66 Q2377.96 1454.1 2374.33 1454.1 M2374.33 1450.39 Q2380.14 1450.39 2383.2 1455 Q2386.27 1459.58 2386.27 1468.33 Q2386.27 1477.06 2383.2 1481.67 Q2380.14 1486.25 2374.33 1486.25 Q2368.52 1486.25 2365.44 1481.67 Q2362.39 1477.06 2362.39 1468.33 Q2362.39 1459.58 2365.44 1455 Q2368.52 1450.39 2374.33 1450.39 Z" fill="#000000" fill-rule="nonzero" fill-opacity="1" /><path clip-path="url(#clip470)" d="M1253.32 1522.27 L1253.32 1532.4 L1265.38 1532.4 L1265.38 1536.95 L1253.32 1536.95 L1253.32 1556.3 Q1253.32 1560.66 1254.5 1561.9 Q1255.71 1563.14 1259.37 1563.14 L1265.38 1563.14 L1265.38 1568.04 L1259.37 1568.04 Q1252.59 1568.04 1250.01 1565.53 Q1247.43 1562.98 1247.43 1556.3 L1247.43 1536.95 L1243.14 1536.95 L1243.14 1532.4 L1247.43 1532.4 L1247.43 1522.27 L1253.32 1522.27 Z" fill="#000000" fill-rule="nonzero" fill-opacity="1" /><polyline clip-path="url(#clip470)" style="stroke:#000000; stroke-linecap:round; stroke-linejoin:round; stroke-width:4; stroke-opacity:1; fill:none" points="155.765,1423.18 155.765,47.2441 "/>
<polyline clip-path="url(#clip470)" style="stroke:#000000; stroke-linecap:round; stroke-linejoin:round; stroke-width:4; stroke-opacity:1; fill:none" points="155.765,1336.86 174.663,1336.86 "/>
<polyline clip-path="url(#clip470)" style="stroke:#000000; stroke-linecap:round; stroke-linejoin:round; stroke-width:4; stroke-opacity:1; fill:none" points="155.765,977.708 174.663,977.708 "/>
<polyline clip-path="url(#clip470)" style="stroke:#000000; stroke-linecap:round; stroke-linejoin:round; stroke-width:4; stroke-opacity:1; fill:none" points="155.765,618.561 174.663,618.561 "/>
<polyline clip-path="url(#clip470)" style="stroke:#000000; stroke-linecap:round; stroke-linejoin:round; stroke-width:4; stroke-opacity:1; fill:none" points="155.765,259.413 174.663,259.413 "/>
<path clip-path="url(#clip470)" d="M63.5847 1322.66 Q59.9736 1322.66 58.1449 1326.22 Q56.3393 1329.76 56.3393 1336.89 Q56.3393 1344 58.1449 1347.56 Q59.9736 1351.1 63.5847 1351.1 Q67.2189 1351.1 69.0244 1347.56 Q70.8531 1344 70.8531 1336.89 Q70.8531 1329.76 69.0244 1326.22 Q67.2189 1322.66 63.5847 1322.66 M63.5847 1318.95 Q69.3948 1318.95 72.4503 1323.56 Q75.529 1328.14 75.529 1336.89 Q75.529 1345.62 72.4503 1350.22 Q69.3948 1354.81 63.5847 1354.81 Q57.7745 1354.81 54.6958 1350.22 Q51.6403 1345.62 51.6403 1336.89 Q51.6403 1328.14 54.6958 1323.56 Q57.7745 1318.95 63.5847 1318.95 Z" fill="#000000" fill-rule="nonzero" fill-opacity="1" /><path clip-path="url(#clip470)" d="M83.7466 1348.26 L88.6308 1348.26 L88.6308 1354.14 L83.7466 1354.14 L83.7466 1348.26 Z" fill="#000000" fill-rule="nonzero" fill-opacity="1" /><path clip-path="url(#clip470)" d="M98.8622 1319.58 L117.219 1319.58 L117.219 1323.51 L103.145 1323.51 L103.145 1331.98 Q104.163 1331.64 105.182 1331.47 Q106.2 1331.29 107.219 1331.29 Q113.006 1331.29 116.385 1334.46 Q119.765 1337.63 119.765 1343.05 Q119.765 1348.63 116.293 1351.73 Q112.82 1354.81 106.501 1354.81 Q104.325 1354.81 102.057 1354.44 Q99.8113 1354.07 97.4039 1353.33 L97.4039 1348.63 Q99.4872 1349.76 101.709 1350.32 Q103.932 1350.87 106.408 1350.87 Q110.413 1350.87 112.751 1348.77 Q115.089 1346.66 115.089 1343.05 Q115.089 1339.44 112.751 1337.33 Q110.413 1335.22 106.408 1335.22 Q104.534 1335.22 102.659 1335.64 Q100.807 1336.06 98.8622 1336.94 L98.8622 1319.58 Z" fill="#000000" fill-rule="nonzero" fill-opacity="1" /><path clip-path="url(#clip470)" d="M53.3995 991.053 L61.0384 991.053 L61.0384 964.688 L52.7282 966.354 L52.7282 962.095 L60.9921 960.428 L65.668 960.428 L65.668 991.053 L73.3068 991.053 L73.3068 994.988 L53.3995 994.988 L53.3995 991.053 Z" fill="#000000" fill-rule="nonzero" fill-opacity="1" /><path clip-path="url(#clip470)" d="M82.7512 989.109 L87.6354 989.109 L87.6354 994.988 L82.7512 994.988 L82.7512 989.109 Z" fill="#000000" fill-rule="nonzero" fill-opacity="1" /><path clip-path="url(#clip470)" d="M107.821 963.507 Q104.209 963.507 102.381 967.072 Q100.575 970.614 100.575 977.743 Q100.575 984.85 102.381 988.414 Q104.209 991.956 107.821 991.956 Q111.455 991.956 113.26 988.414 Q115.089 984.85 115.089 977.743 Q115.089 970.614 113.26 967.072 Q111.455 963.507 107.821 963.507 M107.821 959.803 Q113.631 959.803 116.686 964.41 Q119.765 968.993 119.765 977.743 Q119.765 986.47 116.686 991.076 Q113.631 995.66 107.821 995.66 Q102.01 995.66 98.9317 991.076 Q95.8761 986.47 95.8761 977.743 Q95.8761 968.993 98.9317 964.41 Q102.01 959.803 107.821 959.803 Z" fill="#000000" fill-rule="nonzero" fill-opacity="1" /><path clip-path="url(#clip470)" d="M54.3949 631.905 L62.0337 631.905 L62.0337 605.54 L53.7236 607.207 L53.7236 602.947 L61.9874 601.281 L66.6633 601.281 L66.6633 631.905 L74.3022 631.905 L74.3022 635.841 L54.3949 635.841 L54.3949 631.905 Z" fill="#000000" fill-rule="nonzero" fill-opacity="1" /><path clip-path="url(#clip470)" d="M83.7466 629.961 L88.6308 629.961 L88.6308 635.841 L83.7466 635.841 L83.7466 629.961 Z" fill="#000000" fill-rule="nonzero" fill-opacity="1" /><path clip-path="url(#clip470)" d="M98.8622 601.281 L117.219 601.281 L117.219 605.216 L103.145 605.216 L103.145 613.688 Q104.163 613.341 105.182 613.179 Q106.2 612.994 107.219 612.994 Q113.006 612.994 116.385 616.165 Q119.765 619.336 119.765 624.753 Q119.765 630.331 116.293 633.433 Q112.82 636.512 106.501 636.512 Q104.325 636.512 102.057 636.142 Q99.8113 635.771 97.4039 635.03 L97.4039 630.331 Q99.4872 631.466 101.709 632.021 Q103.932 632.577 106.408 632.577 Q110.413 632.577 112.751 630.47 Q115.089 628.364 115.089 624.753 Q115.089 621.142 112.751 619.035 Q110.413 616.929 106.408 616.929 Q104.534 616.929 102.659 617.345 Q100.807 617.762 98.8622 618.642 L98.8622 601.281 Z" fill="#000000" fill-rule="nonzero" fill-opacity="1" /><path clip-path="url(#clip470)" d="M56.6171 272.758 L72.9365 272.758 L72.9365 276.693 L50.9921 276.693 L50.9921 272.758 Q53.6541 270.003 58.2375 265.373 Q62.8439 260.721 64.0245 259.378 Q66.2698 256.855 67.1494 255.119 Q68.0522 253.36 68.0522 251.67 Q68.0522 248.915 66.1078 247.179 Q64.1865 245.443 61.0847 245.443 Q58.8856 245.443 56.4319 246.207 Q54.0014 246.971 51.2236 248.522 L51.2236 243.799 Q54.0477 242.665 56.5014 242.087 Q58.955 241.508 60.9921 241.508 Q66.3624 241.508 69.5568 244.193 Q72.7513 246.878 72.7513 251.369 Q72.7513 253.498 71.9411 255.42 Q71.1541 257.318 69.0476 259.91 Q68.4689 260.582 65.367 263.799 Q62.2652 266.994 56.6171 272.758 Z" fill="#000000" fill-rule="nonzero" fill-opacity="1" /><path clip-path="url(#clip470)" d="M82.7512 270.813 L87.6354 270.813 L87.6354 276.693 L82.7512 276.693 L82.7512 270.813 Z" fill="#000000" fill-rule="nonzero" fill-opacity="1" /><path clip-path="url(#clip470)" d="M107.821 245.211 Q104.209 245.211 102.381 248.776 Q100.575 252.318 100.575 259.448 Q100.575 266.554 102.381 270.119 Q104.209 273.66 107.821 273.66 Q111.455 273.66 113.26 270.119 Q115.089 266.554 115.089 259.448 Q115.089 252.318 113.26 248.776 Q111.455 245.211 107.821 245.211 M107.821 241.508 Q113.631 241.508 116.686 246.114 Q119.765 250.698 119.765 259.448 Q119.765 268.174 116.686 272.781 Q113.631 277.364 107.821 277.364 Q102.01 277.364 98.9317 272.781 Q95.8761 268.174 95.8761 259.448 Q95.8761 250.698 98.9317 246.114 Q102.01 241.508 107.821 241.508 Z" fill="#000000" fill-rule="nonzero" fill-opacity="1" /><polyline clip-path="url(#clip471)" style="stroke:#009af9; stroke-linecap:round; stroke-linejoin:round; stroke-width:4; stroke-opacity:1; fill:none" points="155.765,1336.86 293.077,1376.45 430.389,1310 567.701,1212.42 705.013,1175.06 842.325,1162.12 979.637,1055.57 1116.95,838.505 1254.26,565.357 1391.57,648.906 1528.88,346.212 1666.2,750.418 1803.51,571.995 1940.82,710.176 2078.13,488.74 2215.44,86.1857 2352.76,646.247 "/>
<polyline clip-path="url(#clip471)" style="stroke:#e26f46; stroke-linecap:round; stroke-linejoin:round; stroke-width:4; stroke-opacity:1; fill:none" points="155.765,1336.86 293.077,1384.24 430.389,1323.99 567.701,1231.73 705.013,1209.87 842.325,1212.98 979.637,1124.43 1116.95,918.504 1254.26,659.744 1391.57,763.168 1528.88,488.805 1666.2,828.734 1803.51,680.856 1940.82,825.908 2078.13,640.289 2215.44,267.808 2352.76,718.489 "/>
<path clip-path="url(#clip470)" d="M228.998 248.629 L657.724 248.629 L657.724 93.1086 L228.998 93.1086  Z" fill="#ffffff" fill-rule="evenodd" fill-opacity="1"/>
<polyline clip-path="url(#clip470)" style="stroke:#000000; stroke-linecap:round; stroke-linejoin:round; stroke-width:4; stroke-opacity:1; fill:none" points="228.998,248.629 657.724,248.629 657.724,93.1086 228.998,93.1086 228.998,248.629 "/>
<polyline clip-path="url(#clip470)" style="stroke:#009af9; stroke-linecap:round; stroke-linejoin:round; stroke-width:4; stroke-opacity:1; fill:none" points="253.409,144.949 399.875,144.949 "/>
<path clip-path="url(#clip470)" d="M424.286 151.997 L424.286 136.303 L428.545 136.303 L428.545 151.835 Q428.545 155.516 429.98 157.368 Q431.416 159.196 434.286 159.196 Q437.735 159.196 439.726 156.997 Q441.74 154.798 441.74 151.002 L441.74 136.303 L445.999 136.303 L445.999 162.229 L441.74 162.229 L441.74 158.247 Q440.189 160.608 438.129 161.766 Q436.092 162.9 433.383 162.9 Q428.916 162.9 426.601 160.122 Q424.286 157.344 424.286 151.997 M435.004 135.678 L435.004 135.678 Z" fill="#000000" fill-rule="nonzero" fill-opacity="1" /><path clip-path="url(#clip470)" d="M454.378 126.21 L464.193 126.21 L464.193 129.52 L458.638 129.52 L458.638 165.168 L464.193 165.168 L464.193 168.479 L454.378 168.479 L454.378 126.21 Z" fill="#000000" fill-rule="nonzero" fill-opacity="1" /><path clip-path="url(#clip470)" d="M474.679 158.293 L482.318 158.293 L482.318 131.928 L474.008 133.595 L474.008 129.335 L482.272 127.669 L486.948 127.669 L486.948 158.293 L494.587 158.293 L494.587 162.229 L474.679 162.229 L474.679 158.293 Z" fill="#000000" fill-rule="nonzero" fill-opacity="1" /><path clip-path="url(#clip470)" d="M513.383 126.21 L513.383 168.479 L503.568 168.479 L503.568 165.168 L509.1 165.168 L509.1 129.52 L503.568 129.52 L503.568 126.21 L513.383 126.21 Z" fill="#000000" fill-rule="nonzero" fill-opacity="1" /><polyline clip-path="url(#clip470)" style="stroke:#e26f46; stroke-linecap:round; stroke-linejoin:round; stroke-width:4; stroke-opacity:1; fill:none" points="253.409,196.789 399.875,196.789 "/>
<path clip-path="url(#clip470)" d="M424.286 179.509 L453.522 179.509 L453.522 183.444 L441.254 183.444 L441.254 214.069 L436.554 214.069 L436.554 183.444 L424.286 183.444 L424.286 179.509 Z" fill="#000000" fill-rule="nonzero" fill-opacity="1" /><path clip-path="url(#clip470)" d="M465.906 192.124 Q465.189 191.708 464.332 191.522 Q463.499 191.314 462.48 191.314 Q458.869 191.314 456.925 193.675 Q455.003 196.013 455.003 200.411 L455.003 214.069 L450.721 214.069 L450.721 188.143 L455.003 188.143 L455.003 192.171 Q456.346 189.809 458.499 188.675 Q460.652 187.518 463.73 187.518 Q464.17 187.518 464.702 187.587 Q465.235 187.634 465.883 187.749 L465.906 192.124 Z" fill="#000000" fill-rule="nonzero" fill-opacity="1" /><path clip-path="url(#clip470)" d="M469.934 203.837 L469.934 188.143 L474.193 188.143 L474.193 203.675 Q474.193 207.356 475.628 209.208 Q477.064 211.036 479.934 211.036 Q483.383 211.036 485.374 208.837 Q487.388 206.638 487.388 202.842 L487.388 188.143 L491.647 188.143 L491.647 214.069 L487.388 214.069 L487.388 210.087 Q485.837 212.448 483.776 213.606 Q481.739 214.74 479.031 214.74 Q474.564 214.74 472.249 211.962 Q469.934 209.184 469.934 203.837 M480.651 187.518 L480.651 187.518 Z" fill="#000000" fill-rule="nonzero" fill-opacity="1" /><path clip-path="url(#clip470)" d="M522.596 200.041 L522.596 202.124 L503.012 202.124 Q503.29 206.522 505.651 208.837 Q508.036 211.129 512.272 211.129 Q514.725 211.129 517.017 210.527 Q519.332 209.925 521.6 208.721 L521.6 212.749 Q519.309 213.721 516.901 214.231 Q514.494 214.74 512.017 214.74 Q505.813 214.74 502.179 211.129 Q498.568 207.518 498.568 201.36 Q498.568 194.995 501.994 191.268 Q505.443 187.518 511.276 187.518 Q516.508 187.518 519.54 190.897 Q522.596 194.254 522.596 200.041 M518.336 198.791 Q518.29 195.296 516.369 193.212 Q514.471 191.129 511.323 191.129 Q507.758 191.129 505.605 193.143 Q503.475 195.157 503.151 198.814 L518.336 198.791 Z" fill="#000000" fill-rule="nonzero" fill-opacity="1" /><path clip-path="url(#clip470)" d="M544.216 203.837 L544.216 188.143 L548.475 188.143 L548.475 203.675 Q548.475 207.356 549.91 209.208 Q551.346 211.036 554.216 211.036 Q557.665 211.036 559.656 208.837 Q561.67 206.638 561.67 202.842 L561.67 188.143 L565.929 188.143 L565.929 214.069 L561.67 214.069 L561.67 210.087 Q560.119 212.448 558.058 213.606 Q556.021 214.74 553.313 214.74 Q548.846 214.74 546.531 211.962 Q544.216 209.184 544.216 203.837 M554.933 187.518 L554.933 187.518 Z" fill="#000000" fill-rule="nonzero" fill-opacity="1" /><path clip-path="url(#clip470)" d="M574.308 178.05 L584.123 178.05 L584.123 181.36 L578.568 181.36 L578.568 217.008 L584.123 217.008 L584.123 220.319 L574.308 220.319 L574.308 178.05 Z" fill="#000000" fill-rule="nonzero" fill-opacity="1" /><path clip-path="url(#clip470)" d="M594.609 210.133 L602.248 210.133 L602.248 183.768 L593.938 185.435 L593.938 181.175 L602.202 179.509 L606.878 179.509 L606.878 210.133 L614.516 210.133 L614.516 214.069 L594.609 214.069 L594.609 210.133 Z" fill="#000000" fill-rule="nonzero" fill-opacity="1" /><path clip-path="url(#clip470)" d="M633.313 178.05 L633.313 220.319 L623.498 220.319 L623.498 217.008 L629.03 217.008 L629.03 181.36 L623.498 181.36 L623.498 178.05 L633.313 178.05 Z" fill="#000000" fill-rule="nonzero" fill-opacity="1" /></svg>
