<?xml version="1.0" encoding="utf-8"?>
<svg xmlns="http://www.w3.org/2000/svg" xmlns:xlink="http://www.w3.org/1999/xlink" width="600" height="400" viewBox="0 0 2400 1600">
<defs>
  <clipPath id="clip500">
    <rect x="0" y="0" width="2400" height="1600"/>
  </clipPath>
</defs>
<path clip-path="url(#clip500)" d="M0 1600 L2400 1600 L2400 0 L0 0  Z" fill="#ffffff" fill-rule="evenodd" fill-opacity="1"/>
<defs>
  <clipPath id="clip501">
    <rect x="156" y="47" width="2197" height="1377"/>
  </clipPath>
</defs>
<path clip-path="url(#clip500)" d="M156.598 1423.18 L2352.76 1423.18 L2352.76 47.2441 L156.598 47.2441  Z" fill="#ffffff" fill-rule="evenodd" fill-opacity="1"/>
<polyline clip-path="url(#clip501)" style="stroke:#000000; stroke-linecap:round; stroke-linejoin:round; stroke-width:2; stroke-opacity:0.1; fill:none" points="156.598,1423.18 156.598,47.2441 "/>
<polyline clip-path="url(#clip501)" style="stroke:#000000; stroke-linecap:round; stroke-linejoin:round; stroke-width:2; stroke-opacity:0.1; fill:none" points="595.83,1423.18 595.83,47.2441 "/>
<polyline clip-path="url(#clip501)" style="stroke:#000000; stroke-linecap:round; stroke-linejoin:round; stroke-width:2; stroke-opacity:0.1; fill:none" points="1035.06,1423.18 1035.06,47.2441 "/>
<polyline clip-path="url(#clip501)" style="stroke:#000000; stroke-linecap:round; stroke-linejoin:round; stroke-width:2; stroke-opacity:0.1; fill:none" points="1474.29,1423.18 1474.29,47.2441 "/>
<polyline clip-path="url(#clip501)" style="stroke:#000000; stroke-linecap:round; stroke-linejoin:round; stroke-width:2; stroke-opacity:0.1; fill:none" points="1913.52,1423.18 1913.52,47.2441 "/>
<polyline clip-path="url(#clip501)" style="stroke:#000000; stroke-linecap:round; stroke-linejoin:round; stroke-width:2; stroke-opacity:0.1; fill:none" points="2352.76,1423.18 2352.76,47.2441 "/>
<polyline clip-path="url(#clip501)" style="stroke:#000000; stroke-linecap:round; stroke-linejoin:round; stroke-width:2; stroke-opacity:0.1; fill:none" points="156.598,1264.43 2352.76,1264.43 "/>
<polyline clip-path="url(#clip501)" style="stroke:#000000; stroke-linecap:round; stroke-linejoin:round; stroke-width:2; stroke-opacity:0.1; fill:none" points="156.598,1077.03 2352.76,1077.03 "/>
<polyline clip-path="url(#clip501)" style="stroke:#000000; stroke-linecap:round; stroke-linejoin:round; stroke-width:2; stroke-opacity:0.1; fill:none" points="156.598,889.639 2352.76,889.639 "/>
<polyline clip-path="url(#clip501)" style="stroke:#000000; stroke-linecap:round; stroke-linejoin:round; stroke-width:2; stroke-opacity:0.1; fill:none" points="156.598,702.245 2352.76,702.245 "/>
<polyline clip-path="url(#clip501)" style="stroke:#000000; stroke-linecap:round; stroke-linejoin:round; stroke-width:2; stroke-opacity:0.1; fill:none" points="156.598,514.85 2352.76,514.85 "/>
<polyline clip-path="url(#clip501)" style="stroke:#000000; stroke-linecap:round; stroke-linejoin:round; stroke-width:2; stroke-opacity:0.1; fill:none" points="156.598,327.455 2352.76,327.455 "/>
<polyline clip-path="url(#clip501)" style="stroke:#000000; stroke-linecap:round; stroke-linejoin:round; stroke-width:2; stroke-opacity:0.1; fill:none" points="156.598,140.061 2352.76,140.061 "/>
<polyline clip-path="url(#clip500)" style="stroke:#000000; stroke-linecap:round; stroke-linejoin:round; stroke-width:4; stroke-opacity:1; fill:none" points="156.598,1423.18 2352.76,1423.18 "/>
<polyline clip-path="url(#clip500)" style="stroke:#000000; stroke-linecap:round; stroke-linejoin:round; stroke-width:4; stroke-opacity:1; fill:none" points="156.598,1423.18 156.598,1404.28 "/>
<polyline clip-path="url(#clip500)" style="stroke:#000000; stroke-linecap:round; stroke-linejoin:round; stroke-width:4; stroke-opacity:1; fill:none" points="595.83,1423.18 595.83,1404.28 "/>
<polyline clip-path="url(#clip500)" style="stroke:#000000; stroke-linecap:round; stroke-linejoin:round; stroke-width:4; stroke-opacity:1; fill:none" points="1035.06,1423.18 1035.06,1404.28 "/>
<polyline clip-path="url(#clip500)" style="stroke:#000000; stroke-linecap:round; stroke-linejoin:round; stroke-width:4; stroke-opacity:1; fill:none" points="1474.29,1423.18 1474.29,1404.28 "/>
<polyline clip-path="url(#clip500)" style="stroke:#000000; stroke-linecap:round; stroke-linejoin:round; stroke-width:4; stroke-opacity:1; fill:none" points="1913.52,1423.18 1913.52,1404.28 "/>
<polyline clip-path="url(#clip500)" style="stroke:#000000; stroke-linecap:round; stroke-linejoin:round; stroke-width:4; stroke-opacity:1; fill:none" points="2352.76,1423.18 2352.76,1404.28 "/>
<path clip-path="url(#clip500)" d="M133.983 1454.1 Q130.372 1454.1 128.543 1457.66 Q126.737 1461.2 126.737 1468.33 Q126.737 1475.44 128.543 1479.01 Q130.372 1482.55 133.983 1482.55 Q137.617 1482.55 139.422 1479.01 Q141.251 1475.44 141.251 1468.33 Q141.251 1461.2 139.422 1457.66 Q137.617 1454.1 133.983 1454.1 M133.983 1450.39 Q139.793 1450.39 142.848 1455 Q145.927 1459.58 145.927 1468.33 Q145.927 1477.06 142.848 1481.67 Q139.793 1486.25 133.983 1486.25 Q128.172 1486.25 125.094 1481.67 Q122.038 1477.06 122.038 1468.33 Q122.038 1459.58 125.094 1455 Q128.172 1450.39 133.983 1450.39 Z" fill="#000000" fill-rule="nonzero" fill-opacity="1" /><path clip-path="url(#clip500)" d="M154.145 1479.7 L159.029 1479.7 L159.029 1485.58 L154.145 1485.58 L154.145 1479.7 Z" fill="#000000" fill-rule="nonzero" fill-opacity="1" /><path clip-path="url(#clip500)" d="M179.214 1454.1 Q175.603 1454.1 173.774 1457.66 Q171.969 1461.2 171.969 1468.33 Q171.969 1475.44 173.774 1479.01 Q175.603 1482.55 179.214 1482.55 Q182.848 1482.55 184.654 1479.01 Q186.482 1475.44 186.482 1468.33 Q186.482 1461.2 184.654 1457.66 Q182.848 1454.1 179.214 1454.1 M179.214 1450.39 Q185.024 1450.39 188.08 1455 Q191.158 1459.58 191.158 1468.33 Q191.158 1477.06 188.08 1481.67 Q185.024 1486.25 179.214 1486.25 Q173.404 1486.25 170.325 1481.67 Q167.269 1477.06 167.269 1468.33 Q167.269 1459.58 170.325 1455 Q173.404 1450.39 179.214 1450.39 Z" fill="#000000" fill-rule="nonzero" fill-opacity="1" /><path clip-path="url(#clip500)" d="M574.013 1454.1 Q570.402 1454.1 568.573 1457.66 Q566.767 1461.2 566.767 1468.33 Q566.767 1475.44 568.573 1479.01 Q570.402 1482.55 574.013 1482.55 Q577.647 1482.55 579.453 1479.01 Q581.281 1475.44 581.281 1468.33 Q581.281 1461.2 579.453 1457.66 Q577.647 1454.1 574.013 1454.1 M574.013 1450.39 Q579.823 1450.39 582.878 1455 Q585.957 1459.58 585.957 1468.33 Q585.957 1477.06 582.878 1481.67 Q579.823 1486.25 574.013 1486.25 Q568.203 1486.25 565.124 1481.67 Q562.068 1477.06 562.068 1468.33 Q562.068 1459.58 565.124 1455 Q568.203 1450.39 574.013 1450.39 Z" fill="#000000" fill-rule="nonzero" fill-opacity="1" /><path clip-path="url(#clip500)" d="M594.175 1479.7 L599.059 1479.7 L599.059 1485.58 L594.175 1485.58 L594.175 1479.7 Z" fill="#000000" fill-rule="nonzero" fill-opacity="1" /><path clip-path="url(#clip500)" d="M613.272 1481.64 L629.591 1481.64 L629.591 1485.58 L607.647 1485.58 L607.647 1481.64 Q610.309 1478.89 614.892 1474.26 Q619.499 1469.61 620.679 1468.27 Q622.925 1465.74 623.804 1464.01 Q624.707 1462.25 624.707 1460.56 Q624.707 1457.8 622.762 1456.07 Q620.841 1454.33 617.739 1454.33 Q615.54 1454.33 613.087 1455.09 Q610.656 1455.86 607.878 1457.41 L607.878 1452.69 Q610.702 1451.55 613.156 1450.97 Q615.61 1450.39 617.647 1450.39 Q623.017 1450.39 626.212 1453.08 Q629.406 1455.77 629.406 1460.26 Q629.406 1462.39 628.596 1464.31 Q627.809 1466.2 625.702 1468.8 Q625.124 1469.47 622.022 1472.69 Q618.92 1475.88 613.272 1481.64 Z" fill="#000000" fill-rule="nonzero" fill-opacity="1" /><path clip-path="url(#clip500)" d="M1012.2 1454.1 Q1008.59 1454.1 1006.76 1457.66 Q1004.96 1461.2 1004.96 1468.33 Q1004.96 1475.44 1006.76 1479.01 Q1008.59 1482.55 1012.2 1482.55 Q1015.84 1482.55 1017.64 1479.01 Q1019.47 1475.44 1019.47 1468.33 Q1019.47 1461.2 1017.64 1457.66 Q1015.84 1454.1 1012.2 1454.1 M1012.2 1450.39 Q1018.01 1450.39 1021.07 1455 Q1024.15 1459.58 1024.15 1468.33 Q1024.15 1477.06 1021.07 1481.67 Q1018.01 1486.25 1012.2 1486.25 Q1006.39 1486.25 1003.31 1481.67 Q1000.26 1477.06 1000.26 1468.33 Q1000.26 1459.58 1003.31 1455 Q1006.39 1450.39 1012.2 1450.39 Z" fill="#000000" fill-rule="nonzero" fill-opacity="1" /><path clip-path="url(#clip500)" d="M1032.36 1479.7 L1037.25 1479.7 L1037.25 1485.58 L1032.36 1485.58 L1032.36 1479.7 Z" fill="#000000" fill-rule="nonzero" fill-opacity="1" /><path clip-path="url(#clip500)" d="M1060.28 1455.09 L1048.48 1473.54 L1060.28 1473.54 L1060.28 1455.09 M1059.05 1451.02 L1064.93 1451.02 L1064.93 1473.54 L1069.86 1473.54 L1069.86 1477.43 L1064.93 1477.43 L1064.93 1485.58 L1060.28 1485.58 L1060.28 1477.43 L1044.68 1477.43 L1044.68 1472.92 L1059.05 1451.02 Z" fill="#000000" fill-rule="nonzero" fill-opacity="1" /><path clip-path="url(#clip500)" d="M1451.6 1454.1 Q1447.99 1454.1 1446.16 1457.66 Q1444.35 1461.2 1444.35 1468.33 Q1444.35 1475.44 1446.16 1479.01 Q1447.99 1482.55 1451.6 1482.55 Q1455.23 1482.55 1457.04 1479.01 Q1458.86 1475.44 1458.86 1468.33 Q1458.86 1461.2 1457.04 1457.66 Q1455.23 1454.1 1451.6 1454.1 M1451.6 1450.39 Q1457.41 1450.39 1460.46 1455 Q1463.54 1459.58 1463.54 1468.33 Q1463.54 1477.06 1460.46 1481.67 Q1457.41 1486.25 1451.6 1486.25 Q1445.79 1486.25 1442.71 1481.67 Q1439.65 1477.06 1439.65 1468.33 Q1439.65 1459.58 1442.71 1455 Q1445.79 1450.39 1451.6 1450.39 Z" fill="#000000" fill-rule="nonzero" fill-opacity="1" /><path clip-path="url(#clip500)" d="M1471.76 1479.7 L1476.64 1479.7 L1476.64 1485.58 L1471.76 1485.58 L1471.76 1479.7 Z" fill="#000000" fill-rule="nonzero" fill-opacity="1" /><path clip-path="url(#clip500)" d="M1497.41 1466.44 Q1494.26 1466.44 1492.41 1468.59 Q1490.58 1470.74 1490.58 1474.49 Q1490.58 1478.22 1492.41 1480.39 Q1494.26 1482.55 1497.41 1482.55 Q1500.55 1482.55 1502.38 1480.39 Q1504.23 1478.22 1504.23 1474.49 Q1504.23 1470.74 1502.38 1468.59 Q1500.55 1466.44 1497.41 1466.44 M1506.69 1451.78 L1506.69 1456.04 Q1504.93 1455.21 1503.12 1454.77 Q1501.34 1454.33 1499.58 1454.33 Q1494.95 1454.33 1492.5 1457.45 Q1490.07 1460.58 1489.72 1466.9 Q1491.09 1464.89 1493.15 1463.82 Q1495.21 1462.73 1497.68 1462.73 Q1502.89 1462.73 1505.9 1465.9 Q1508.93 1469.05 1508.93 1474.49 Q1508.93 1479.82 1505.79 1483.03 Q1502.64 1486.25 1497.41 1486.25 Q1491.41 1486.25 1488.24 1481.67 Q1485.07 1477.06 1485.07 1468.33 Q1485.07 1460.14 1488.96 1455.28 Q1492.85 1450.39 1499.4 1450.39 Q1501.16 1450.39 1502.94 1450.74 Q1504.74 1451.09 1506.69 1451.78 Z" fill="#000000" fill-rule="nonzero" fill-opacity="1" /><path clip-path="url(#clip500)" d="M1890.96 1454.1 Q1887.34 1454.1 1885.52 1457.66 Q1883.71 1461.2 1883.71 1468.33 Q1883.71 1475.44 1885.52 1479.01 Q1887.34 1482.55 1890.96 1482.55 Q1894.59 1482.55 1896.39 1479.01 Q1898.22 1475.44 1898.22 1468.33 Q1898.22 1461.2 1896.39 1457.66 Q1894.59 1454.1 1890.96 1454.1 M1890.96 1450.39 Q1896.77 1450.39 1899.82 1455 Q1902.9 1459.58 1902.9 1468.33 Q1902.9 1477.06 1899.82 1481.67 Q1896.77 1486.25 1890.96 1486.25 Q1885.14 1486.25 1882.07 1481.67 Q1879.01 1477.06 1879.01 1468.33 Q1879.01 1459.58 1882.07 1455 Q1885.14 1450.39 1890.96 1450.39 Z" fill="#000000" fill-rule="nonzero" fill-opacity="1" /><path clip-path="url(#clip500)" d="M1911.12 1479.7 L1916 1479.7 L1916 1485.58 L1911.12 1485.58 L1911.12 1479.7 Z" fill="#000000" fill-rule="nonzero" fill-opacity="1" /><path clip-path="url(#clip500)" d="M1936.19 1469.17 Q1932.85 1469.17 1930.93 1470.95 Q1929.03 1472.73 1929.03 1475.86 Q1929.03 1478.98 1930.93 1480.77 Q1932.85 1482.55 1936.19 1482.55 Q1939.52 1482.55 1941.44 1480.77 Q1943.36 1478.96 1943.36 1475.86 Q1943.36 1472.73 1941.44 1470.95 Q1939.54 1469.17 1936.19 1469.17 M1931.51 1467.18 Q1928.5 1466.44 1926.81 1464.38 Q1925.14 1462.32 1925.14 1459.35 Q1925.14 1455.21 1928.08 1452.8 Q1931.05 1450.39 1936.19 1450.39 Q1941.35 1450.39 1944.29 1452.8 Q1947.23 1455.21 1947.23 1459.35 Q1947.23 1462.32 1945.54 1464.38 Q1943.87 1466.44 1940.89 1467.18 Q1944.26 1467.96 1946.14 1470.26 Q1948.04 1472.55 1948.04 1475.86 Q1948.04 1480.88 1944.96 1483.57 Q1941.9 1486.25 1936.19 1486.25 Q1930.47 1486.25 1927.39 1483.57 Q1924.33 1480.88 1924.33 1475.86 Q1924.33 1472.55 1926.23 1470.26 Q1928.13 1467.96 1931.51 1467.18 M1929.8 1459.79 Q1929.8 1462.48 1931.46 1463.98 Q1933.15 1465.49 1936.19 1465.49 Q1939.2 1465.49 1940.89 1463.98 Q1942.6 1462.48 1942.6 1459.79 Q1942.6 1457.11 1940.89 1455.6 Q1939.2 1454.1 1936.19 1454.1 Q1933.15 1454.1 1931.46 1455.6 Q1929.8 1457.11 1929.8 1459.79 Z" fill="#000000" fill-rule="nonzero" fill-opacity="1" /><path clip-path="url(#clip500)" d="M2319.91 1481.64 L2327.55 1481.64 L2327.55 1455.28 L2319.24 1456.95 L2319.24 1452.69 L2327.5 1451.02 L2332.18 1451.02 L2332.18 1481.64 L2339.82 1481.64 L2339.82 1485.58 L2319.91 1485.58 L2319.91 1481.64 Z" fill="#000000" fill-rule="nonzero" fill-opacity="1" /><path clip-path="url(#clip500)" d="M2349.26 1479.7 L2354.14 1479.7 L2354.14 1485.58 L2349.26 1485.58 L2349.26 1479.7 Z" fill="#000000" fill-rule="nonzero" fill-opacity="1" /><path clip-path="url(#clip500)" d="M2374.33 1454.1 Q2370.72 1454.1 2368.89 1457.66 Q2367.08 1461.2 2367.08 1468.33 Q2367.08 1475.44 2368.89 1479.01 Q2370.72 1482.55 2374.33 1482.55 Q2377.96 1482.55 2379.77 1479.01 Q2381.6 1475.44 2381.6 1468.33 Q2381.6 1461.2 2379.77 1457.66 Q2377.96 1454.1 2374.33 1454.1 M2374.33 1450.39 Q2380.14 1450.39 2383.2 1455 Q2386.27 1459.58 2386.27 1468.33 Q2386.27 1477.06 2383.2 1481.67 Q2380.14 1486.25 2374.33 1486.25 Q2368.52 1486.25 2365.44 1481.67 Q2362.39 1477.06 2362.39 1468.33 Q2362.39 1459.58 2365.44 1455 Q2368.52 1450.39 2374.33 1450.39 Z" fill="#000000" fill-rule="nonzero" fill-opacity="1" /><path clip-path="url(#clip500)" d="M1253.74 1522.27 L1253.74 1532.4 L1265.8 1532.4 L1265.8 1536.95 L1253.74 1536.95 L1253.74 1556.3 Q1253.74 1560.66 1254.92 1561.9 Q1256.13 1563.14 1259.79 1563.14 L1265.8 1563.14 L1265.8 1568.04 L1259.79 1568.04 Q1253.01 1568.04 1250.43 1565.53 Q1247.85 1562.98 1247.85 1556.3 L1247.85 1536.95 L1243.55 1536.95 L1243.55 1532.4 L1247.85 1532.4 L1247.85 1522.27 L1253.74 1522.27 Z" fill="#000000" fill-rule="nonzero" fill-opacity="1" /><polyline clip-path="url(#clip500)" style="stroke:#000000; stroke-linecap:round; stroke-linejoin:round; stroke-width:4; stroke-opacity:1; fill:none" points="156.598,1423.18 156.598,47.2441 "/>
<polyline clip-path="url(#clip500)" style="stroke:#000000; stroke-linecap:round; stroke-linejoin:round; stroke-width:4; stroke-opacity:1; fill:none" points="156.598,1264.43 175.496,1264.43 "/>
<polyline clip-path="url(#clip500)" style="stroke:#000000; stroke-linecap:round; stroke-linejoin:round; stroke-width:4; stroke-opacity:1; fill:none" points="156.598,1077.03 175.496,1077.03 "/>
<polyline clip-path="url(#clip500)" style="stroke:#000000; stroke-linecap:round; stroke-linejoin:round; stroke-width:4; stroke-opacity:1; fill:none" points="156.598,889.639 175.496,889.639 "/>
<polyline clip-path="url(#clip500)" style="stroke:#000000; stroke-linecap:round; stroke-linejoin:round; stroke-width:4; stroke-opacity:1; fill:none" points="156.598,702.245 175.496,702.245 "/>
<polyline clip-path="url(#clip500)" style="stroke:#000000; stroke-linecap:round; stroke-linejoin:round; stroke-width:4; stroke-opacity:1; fill:none" points="156.598,514.85 175.496,514.85 "/>
<polyline clip-path="url(#clip500)" style="stroke:#000000; stroke-linecap:round; stroke-linejoin:round; stroke-width:4; stroke-opacity:1; fill:none" points="156.598,327.455 175.496,327.455 "/>
<polyline clip-path="url(#clip500)" style="stroke:#000000; stroke-linecap:round; stroke-linejoin:round; stroke-width:4; stroke-opacity:1; fill:none" points="156.598,140.061 175.496,140.061 "/>
<path clip-path="url(#clip500)" d="M62.9365 1250.23 Q59.3254 1250.23 57.4967 1253.79 Q55.6912 1257.33 55.6912 1264.46 Q55.6912 1271.57 57.4967 1275.13 Q59.3254 1278.68 62.9365 1278.68 Q66.5707 1278.68 68.3763 1275.13 Q70.205 1271.57 70.205 1264.46 Q70.205 1257.33 68.3763 1253.79 Q66.5707 1250.23 62.9365 1250.23 M62.9365 1246.52 Q68.7467 1246.52 71.8022 1251.13 Q74.8809 1255.71 74.8809 1264.46 Q74.8809 1273.19 71.8022 1277.8 Q68.7467 1282.38 62.9365 1282.38 Q57.1264 1282.38 54.0477 1277.8 Q50.9921 1273.19 50.9921 1264.46 Q50.9921 1255.71 54.0477 1251.13 Q57.1264 1246.52 62.9365 1246.52 Z" fill="#000000" fill-rule="nonzero" fill-opacity="1" /><path clip-path="url(#clip500)" d="M83.0984 1275.83 L87.9827 1275.83 L87.9827 1281.71 L83.0984 1281.71 L83.0984 1275.83 Z" fill="#000000" fill-rule="nonzero" fill-opacity="1" /><path clip-path="url(#clip500)" d="M111.015 1251.22 L99.2095 1269.67 L111.015 1269.67 L111.015 1251.22 M109.788 1247.15 L115.668 1247.15 L115.668 1269.67 L120.598 1269.67 L120.598 1273.56 L115.668 1273.56 L115.668 1281.71 L111.015 1281.71 L111.015 1273.56 L95.4132 1273.56 L95.4132 1269.05 L109.788 1247.15 Z" fill="#000000" fill-rule="nonzero" fill-opacity="1" /><path clip-path="url(#clip500)" d="M63.2606 1062.83 Q59.6495 1062.83 57.8208 1066.4 Q56.0152 1069.94 56.0152 1077.07 Q56.0152 1084.18 57.8208 1087.74 Q59.6495 1091.28 63.2606 1091.28 Q66.8948 1091.28 68.7004 1087.74 Q70.5291 1084.18 70.5291 1077.07 Q70.5291 1069.94 68.7004 1066.4 Q66.8948 1062.83 63.2606 1062.83 M63.2606 1059.13 Q69.0707 1059.13 72.1263 1063.74 Q75.205 1068.32 75.205 1077.07 Q75.205 1085.8 72.1263 1090.4 Q69.0707 1094.99 63.2606 1094.99 Q57.4504 1094.99 54.3717 1090.4 Q51.3162 1085.8 51.3162 1077.07 Q51.3162 1068.32 54.3717 1063.74 Q57.4504 1059.13 63.2606 1059.13 Z" fill="#000000" fill-rule="nonzero" fill-opacity="1" /><path clip-path="url(#clip500)" d="M83.4225 1088.43 L88.3067 1088.43 L88.3067 1094.31 L83.4225 1094.31 L83.4225 1088.43 Z" fill="#000000" fill-rule="nonzero" fill-opacity="1" /><path clip-path="url(#clip500)" d="M109.071 1075.17 Q105.922 1075.17 104.071 1077.32 Q102.242 1079.48 102.242 1083.23 Q102.242 1086.95 104.071 1089.13 Q105.922 1091.28 109.071 1091.28 Q112.219 1091.28 114.047 1089.13 Q115.899 1086.95 115.899 1083.23 Q115.899 1079.48 114.047 1077.32 Q112.219 1075.17 109.071 1075.17 M118.353 1060.52 L118.353 1064.78 Q116.594 1063.94 114.788 1063.5 Q113.006 1063.06 111.246 1063.06 Q106.617 1063.06 104.163 1066.19 Q101.733 1069.31 101.385 1075.63 Q102.751 1073.62 104.811 1072.55 Q106.871 1071.47 109.348 1071.47 Q114.557 1071.47 117.566 1074.64 Q120.598 1077.79 120.598 1083.23 Q120.598 1088.55 117.45 1091.77 Q114.302 1094.99 109.071 1094.99 Q103.075 1094.99 99.9039 1090.4 Q96.7326 1085.8 96.7326 1077.07 Q96.7326 1068.87 100.621 1064.01 Q104.51 1059.13 111.061 1059.13 Q112.82 1059.13 114.603 1059.48 Q116.408 1059.82 118.353 1060.52 Z" fill="#000000" fill-rule="nonzero" fill-opacity="1" /><path clip-path="url(#clip500)" d="M63.5152 875.438 Q59.9041 875.438 58.0754 879.003 Q56.2699 882.545 56.2699 889.674 Q56.2699 896.781 58.0754 900.345 Q59.9041 903.887 63.5152 903.887 Q67.1494 903.887 68.955 900.345 Q70.7837 896.781 70.7837 889.674 Q70.7837 882.545 68.955 879.003 Q67.1494 875.438 63.5152 875.438 M63.5152 871.734 Q69.3254 871.734 72.3809 876.341 Q75.4596 880.924 75.4596 889.674 Q75.4596 898.401 72.3809 903.007 Q69.3254 907.591 63.5152 907.591 Q57.7051 907.591 54.6264 903.007 Q51.5708 898.401 51.5708 889.674 Q51.5708 880.924 54.6264 876.341 Q57.7051 871.734 63.5152 871.734 Z" fill="#000000" fill-rule="nonzero" fill-opacity="1" /><path clip-path="url(#clip500)" d="M83.6771 901.04 L88.5614 901.04 L88.5614 906.919 L83.6771 906.919 L83.6771 901.04 Z" fill="#000000" fill-rule="nonzero" fill-opacity="1" /><path clip-path="url(#clip500)" d="M108.746 890.508 Q105.413 890.508 103.492 892.29 Q101.594 894.072 101.594 897.197 Q101.594 900.322 103.492 902.105 Q105.413 903.887 108.746 903.887 Q112.08 903.887 114.001 902.105 Q115.922 900.299 115.922 897.197 Q115.922 894.072 114.001 892.29 Q112.103 890.508 108.746 890.508 M104.071 888.517 Q101.061 887.776 99.3715 885.716 Q97.7048 883.656 97.7048 880.693 Q97.7048 876.549 100.645 874.142 Q103.608 871.734 108.746 871.734 Q113.908 871.734 116.848 874.142 Q119.788 876.549 119.788 880.693 Q119.788 883.656 118.098 885.716 Q116.432 887.776 113.445 888.517 Q116.825 889.304 118.7 891.595 Q120.598 893.887 120.598 897.197 Q120.598 902.22 117.52 904.906 Q114.464 907.591 108.746 907.591 Q103.029 907.591 99.9502 904.906 Q96.8947 902.22 96.8947 897.197 Q96.8947 893.887 98.7928 891.595 Q100.691 889.304 104.071 888.517 M102.358 881.133 Q102.358 883.818 104.024 885.322 Q105.714 886.827 108.746 886.827 Q111.756 886.827 113.445 885.322 Q115.158 883.818 115.158 881.133 Q115.158 878.447 113.445 876.943 Q111.756 875.438 108.746 875.438 Q105.714 875.438 104.024 876.943 Q102.358 878.447 102.358 881.133 Z" fill="#000000" fill-rule="nonzero" fill-opacity="1" /><path clip-path="url(#clip500)" d="M54.2328 715.59 L61.8717 715.59 L61.8717 689.224 L53.5616 690.891 L53.5616 686.631 L61.8254 684.965 L66.5013 684.965 L66.5013 715.59 L74.1402 715.59 L74.1402 719.525 L54.2328 719.525 L54.2328 715.59 Z" fill="#000000" fill-rule="nonzero" fill-opacity="1" /><path clip-path="url(#clip500)" d="M83.5845 713.645 L88.4688 713.645 L88.4688 719.525 L83.5845 719.525 L83.5845 713.645 Z" fill="#000000" fill-rule="nonzero" fill-opacity="1" /><path clip-path="url(#clip500)" d="M108.654 688.043 Q105.043 688.043 103.214 691.608 Q101.409 695.15 101.409 702.28 Q101.409 709.386 103.214 712.951 Q105.043 716.492 108.654 716.492 Q112.288 716.492 114.094 712.951 Q115.922 709.386 115.922 702.28 Q115.922 695.15 114.094 691.608 Q112.288 688.043 108.654 688.043 M108.654 684.34 Q114.464 684.34 117.52 688.946 Q120.598 693.53 120.598 702.28 Q120.598 711.006 117.52 715.613 Q114.464 720.196 108.654 720.196 Q102.844 720.196 99.765 715.613 Q96.7095 711.006 96.7095 702.28 Q96.7095 693.53 99.765 688.946 Q102.844 684.34 108.654 684.34 Z" fill="#000000" fill-rule="nonzero" fill-opacity="1" /><path clip-path="url(#clip500)" d="M55.8301 528.195 L63.4689 528.195 L63.4689 501.829 L55.1588 503.496 L55.1588 499.237 L63.4226 497.57 L68.0985 497.57 L68.0985 528.195 L75.7374 528.195 L75.7374 532.13 L55.8301 532.13 L55.8301 528.195 Z" fill="#000000" fill-rule="nonzero" fill-opacity="1" /><path clip-path="url(#clip500)" d="M85.1818 526.251 L90.066 526.251 L90.066 532.13 L85.1818 532.13 L85.1818 526.251 Z" fill="#000000" fill-rule="nonzero" fill-opacity="1" /><path clip-path="url(#clip500)" d="M104.279 528.195 L120.598 528.195 L120.598 532.13 L98.6539 532.13 L98.6539 528.195 Q101.316 525.44 105.899 520.811 Q110.506 516.158 111.686 514.815 Q113.932 512.292 114.811 510.556 Q115.714 508.797 115.714 507.107 Q115.714 504.353 113.77 502.616 Q111.848 500.88 108.746 500.88 Q106.547 500.88 104.094 501.644 Q101.663 502.408 98.8854 503.959 L98.8854 499.237 Q101.709 498.103 104.163 497.524 Q106.617 496.945 108.654 496.945 Q114.024 496.945 117.219 499.63 Q120.413 502.315 120.413 506.806 Q120.413 508.936 119.603 510.857 Q118.816 512.755 116.709 515.348 Q116.131 516.019 113.029 519.237 Q109.927 522.431 104.279 528.195 Z" fill="#000000" fill-rule="nonzero" fill-opacity="1" /><path clip-path="url(#clip500)" d="M53.7467 340.8 L61.3856 340.8 L61.3856 314.435 L53.0754 316.101 L53.0754 311.842 L61.3393 310.175 L66.0152 310.175 L66.0152 340.8 L73.654 340.8 L73.654 344.735 L53.7467 344.735 L53.7467 340.8 Z" fill="#000000" fill-rule="nonzero" fill-opacity="1" /><path clip-path="url(#clip500)" d="M83.0984 338.856 L87.9827 338.856 L87.9827 344.735 L83.0984 344.735 L83.0984 338.856 Z" fill="#000000" fill-rule="nonzero" fill-opacity="1" /><path clip-path="url(#clip500)" d="M111.015 314.25 L99.2095 332.698 L111.015 332.698 L111.015 314.25 M109.788 310.175 L115.668 310.175 L115.668 332.698 L120.598 332.698 L120.598 336.587 L115.668 336.587 L115.668 344.735 L111.015 344.735 L111.015 336.587 L95.4132 336.587 L95.4132 332.073 L109.788 310.175 Z" fill="#000000" fill-rule="nonzero" fill-opacity="1" /><path clip-path="url(#clip500)" d="M54.0708 153.406 L61.7097 153.406 L61.7097 127.04 L53.3995 128.707 L53.3995 124.447 L61.6634 122.781 L66.3393 122.781 L66.3393 153.406 L73.9781 153.406 L73.9781 157.341 L54.0708 157.341 L54.0708 153.406 Z" fill="#000000" fill-rule="nonzero" fill-opacity="1" /><path clip-path="url(#clip500)" d="M83.4225 151.461 L88.3067 151.461 L88.3067 157.341 L83.4225 157.341 L83.4225 151.461 Z" fill="#000000" fill-rule="nonzero" fill-opacity="1" /><path clip-path="url(#clip500)" d="M109.071 138.197 Q105.922 138.197 104.071 140.35 Q102.242 142.503 102.242 146.253 Q102.242 149.98 104.071 152.156 Q105.922 154.308 109.071 154.308 Q112.219 154.308 114.047 152.156 Q115.899 149.98 115.899 146.253 Q115.899 142.503 114.047 140.35 Q112.219 138.197 109.071 138.197 M118.353 123.545 L118.353 127.804 Q116.594 126.971 114.788 126.531 Q113.006 126.091 111.246 126.091 Q106.617 126.091 104.163 129.216 Q101.733 132.341 101.385 138.66 Q102.751 136.646 104.811 135.582 Q106.871 134.494 109.348 134.494 Q114.557 134.494 117.566 137.665 Q120.598 140.813 120.598 146.253 Q120.598 151.577 117.45 154.795 Q114.302 158.012 109.071 158.012 Q103.075 158.012 99.9039 153.429 Q96.7326 148.822 96.7326 140.096 Q96.7326 131.901 100.621 127.04 Q104.51 122.156 111.061 122.156 Q112.82 122.156 114.603 122.503 Q116.408 122.85 118.353 123.545 Z" fill="#000000" fill-rule="nonzero" fill-opacity="1" /><polyline clip-path="url(#clip501)" style="stroke:#009af9; stroke-linecap:round; stroke-linejoin:round; stroke-width:4; stroke-opacity:1; fill:none" points="156.598,1170.73 293.858,1308.02 431.118,1321.23 568.378,1383.09 705.638,1368.67 842.898,1359.02 980.157,1355.34 1117.42,1221.22 1254.68,1150.63 1391.94,1199.97 1529.2,882.479 1666.46,645.688 1803.72,515.511 1940.98,447.361 2078.24,344.543 2215.5,86.1857 2352.76,638.224 "/>
<polyline clip-path="url(#clip501)" style="stroke:#e26f46; stroke-linecap:round; stroke-linejoin:round; stroke-width:4; stroke-opacity:1; fill:none" points="156.598,1170.73 293.858,1307.9 431.118,1321.81 568.378,1384.24 705.638,1370.19 842.898,1360.99 980.157,1357.79 1117.42,1224.03 1254.68,1153.91 1391.94,1204.11 1529.2,887.425 1666.46,651.096 1803.72,522.043 1940.98,455.605 2078.24,354.569 2215.5,97.8107 2352.76,639.97 "/>
<path clip-path="url(#clip500)" d="M229.803 248.629 L658.446 248.629 L658.446 93.1086 L229.803 93.1086  Z" fill="#ffffff" fill-rule="evenodd" fill-opacity="1"/>
<polyline clip-path="url(#clip500)" style="stroke:#000000; stroke-linecap:round; stroke-linejoin:round; stroke-width:4; stroke-opacity:1; fill:none" points="229.803,248.629 658.446,248.629 658.446,93.1086 229.803,93.1086 229.803,248.629 "/>
<polyline clip-path="url(#clip500)" style="stroke:#009af9; stroke-linecap:round; stroke-linejoin:round; stroke-width:4; stroke-opacity:1; fill:none" points="254.205,144.949 400.616,144.949 "/>
<path clip-path="url(#clip500)" d="M425.018 151.997 L425.018 136.303 L429.277 136.303 L429.277 151.835 Q429.277 155.516 430.712 157.368 Q432.147 159.196 435.017 159.196 Q438.467 159.196 440.457 156.997 Q442.471 154.798 442.471 151.002 L442.471 136.303 L446.73 136.303 L446.73 162.229 L442.471 162.229 L442.471 158.247 Q440.92 160.608 438.86 161.766 Q436.823 162.9 434.115 162.9 Q429.647 162.9 427.332 160.122 Q425.018 157.344 425.018 151.997 M435.735 135.678 L435.735 135.678 Z" fill="#000000" fill-rule="nonzero" fill-opacity="1" /><path clip-path="url(#clip500)" d="M455.11 126.21 L464.925 126.21 L464.925 129.52 L459.369 129.52 L459.369 165.168 L464.925 165.168 L464.925 168.479 L455.11 168.479 L455.11 126.21 Z" fill="#000000" fill-rule="nonzero" fill-opacity="1" /><path clip-path="url(#clip500)" d="M475.411 158.293 L483.05 158.293 L483.05 131.928 L474.739 133.595 L474.739 129.335 L483.003 127.669 L487.679 127.669 L487.679 158.293 L495.318 158.293 L495.318 162.229 L475.411 162.229 L475.411 158.293 Z" fill="#000000" fill-rule="nonzero" fill-opacity="1" /><path clip-path="url(#clip500)" d="M514.114 126.21 L514.114 168.479 L504.299 168.479 L504.299 165.168 L509.832 165.168 L509.832 129.52 L504.299 129.52 L504.299 126.21 L514.114 126.21 Z" fill="#000000" fill-rule="nonzero" fill-opacity="1" /><polyline clip-path="url(#clip500)" style="stroke:#e26f46; stroke-linecap:round; stroke-linejoin:round; stroke-width:4; stroke-opacity:1; fill:none" points="254.205,196.789 400.616,196.789 "/>
<path clip-path="url(#clip500)" d="M425.018 179.509 L454.253 179.509 L454.253 183.444 L441.985 183.444 L441.985 214.069 L437.286 214.069 L437.286 183.444 L425.018 183.444 L425.018 179.509 Z" fill="#000000" fill-rule="nonzero" fill-opacity="1" /><path clip-path="url(#clip500)" d="M466.638 192.124 Q465.92 191.708 465.064 191.522 Q464.23 191.314 463.212 191.314 Q459.601 191.314 457.656 193.675 Q455.735 196.013 455.735 200.411 L455.735 214.069 L451.453 214.069 L451.453 188.143 L455.735 188.143 L455.735 192.171 Q457.078 189.809 459.23 188.675 Q461.383 187.518 464.462 187.518 Q464.902 187.518 465.434 187.587 Q465.966 187.634 466.615 187.749 L466.638 192.124 Z" fill="#000000" fill-rule="nonzero" fill-opacity="1" /><path clip-path="url(#clip500)" d="M470.665 203.837 L470.665 188.143 L474.925 188.143 L474.925 203.675 Q474.925 207.356 476.36 209.208 Q477.795 211.036 480.665 211.036 Q484.114 211.036 486.105 208.837 Q488.119 206.638 488.119 202.842 L488.119 188.143 L492.378 188.143 L492.378 214.069 L488.119 214.069 L488.119 210.087 Q486.568 212.448 484.508 213.606 Q482.471 214.74 479.763 214.74 Q475.295 214.74 472.98 211.962 Q470.665 209.184 470.665 203.837 M481.383 187.518 L481.383 187.518 Z" fill="#000000" fill-rule="nonzero" fill-opacity="1" /><path clip-path="url(#clip500)" d="M523.327 200.041 L523.327 202.124 L503.744 202.124 Q504.022 206.522 506.383 208.837 Q508.767 211.129 513.003 211.129 Q515.457 211.129 517.748 210.527 Q520.063 209.925 522.332 208.721 L522.332 212.749 Q520.04 213.721 517.633 214.231 Q515.225 214.74 512.749 214.74 Q506.545 214.74 502.911 211.129 Q499.3 207.518 499.3 201.36 Q499.3 194.995 502.725 191.268 Q506.174 187.518 512.008 187.518 Q517.239 187.518 520.272 190.897 Q523.327 194.254 523.327 200.041 M519.068 198.791 Q519.022 195.296 517.1 193.212 Q515.202 191.129 512.054 191.129 Q508.489 191.129 506.337 193.143 Q504.207 195.157 503.883 198.814 L519.068 198.791 Z" fill="#000000" fill-rule="nonzero" fill-opacity="1" /><path clip-path="url(#clip500)" d="M544.947 203.837 L544.947 188.143 L549.207 188.143 L549.207 203.675 Q549.207 207.356 550.642 209.208 Q552.077 211.036 554.947 211.036 Q558.396 211.036 560.387 208.837 Q562.401 206.638 562.401 202.842 L562.401 188.143 L566.66 188.143 L566.66 214.069 L562.401 214.069 L562.401 210.087 Q560.85 212.448 558.79 213.606 Q556.753 214.74 554.045 214.74 Q549.577 214.74 547.262 211.962 Q544.947 209.184 544.947 203.837 M555.665 187.518 L555.665 187.518 Z" fill="#000000" fill-rule="nonzero" fill-opacity="1" /><path clip-path="url(#clip500)" d="M575.04 178.05 L584.855 178.05 L584.855 181.36 L579.299 181.36 L579.299 217.008 L584.855 217.008 L584.855 220.319 L575.04 220.319 L575.04 178.05 Z" fill="#000000" fill-rule="nonzero" fill-opacity="1" /><path clip-path="url(#clip500)" d="M595.341 210.133 L602.98 210.133 L602.98 183.768 L594.669 185.435 L594.669 181.175 L602.933 179.509 L607.609 179.509 L607.609 210.133 L615.248 210.133 L615.248 214.069 L595.341 214.069 L595.341 210.133 Z" fill="#000000" fill-rule="nonzero" fill-opacity="1" /><path clip-path="url(#clip500)" d="M634.044 178.05 L634.044 220.319 L624.229 220.319 L624.229 217.008 L629.762 217.008 L629.762 181.36 L624.229 181.36 L624.229 178.05 L634.044 178.05 Z" fill="#000000" fill-rule="nonzero" fill-opacity="1" /></svg>
