<?xml version="1.0" encoding="utf-8"?>
<svg xmlns="http://www.w3.org/2000/svg" xmlns:xlink="http://www.w3.org/1999/xlink" width="600" height="400" viewBox="0 0 2400 1600">
<defs>
  <clipPath id="clip590">
    <rect x="0" y="0" width="2400" height="1600"/>
  </clipPath>
</defs>
<path clip-path="url(#clip590)" d="M0 1600 L2400 1600 L2400 0 L0 0  Z" fill="#ffffff" fill-rule="evenodd" fill-opacity="1"/>
<defs>
  <clipPath id="clip591">
    <rect x="155" y="47" width="2198" height="1440"/>
  </clipPath>
</defs>
<path clip-path="url(#clip590)" d="M155.765 1486.45 L2352.76 1486.45 L2352.76 47.2441 L155.765 47.2441  Z" fill="#ffffff" fill-rule="evenodd" fill-opacity="1"/>
<polyline clip-path="url(#clip591)" style="stroke:#000000; stroke-linecap:round; stroke-linejoin:round; stroke-width:2; stroke-opacity:0.1; fill:none" points="217.944,1486.45 217.944,47.2441 "/>
<polyline clip-path="url(#clip591)" style="stroke:#000000; stroke-linecap:round; stroke-linejoin:round; stroke-width:2; stroke-opacity:0.1; fill:none" points="736.102,1486.45 736.102,47.2441 "/>
<polyline clip-path="url(#clip591)" style="stroke:#000000; stroke-linecap:round; stroke-linejoin:round; stroke-width:2; stroke-opacity:0.1; fill:none" points="1254.26,1486.45 1254.26,47.2441 "/>
<polyline clip-path="url(#clip591)" style="stroke:#000000; stroke-linecap:round; stroke-linejoin:round; stroke-width:2; stroke-opacity:0.1; fill:none" points="1772.42,1486.45 1772.42,47.2441 "/>
<polyline clip-path="url(#clip591)" style="stroke:#000000; stroke-linecap:round; stroke-linejoin:round; stroke-width:2; stroke-opacity:0.1; fill:none" points="2290.58,1486.45 2290.58,47.2441 "/>
<polyline clip-path="url(#clip591)" style="stroke:#000000; stroke-linecap:round; stroke-linejoin:round; stroke-width:2; stroke-opacity:0.1; fill:none" points="155.765,1322.07 2352.76,1322.07 "/>
<polyline clip-path="url(#clip591)" style="stroke:#000000; stroke-linecap:round; stroke-linejoin:round; stroke-width:2; stroke-opacity:0.1; fill:none" points="155.765,1136.69 2352.76,1136.69 "/>
<polyline clip-path="url(#clip591)" style="stroke:#000000; stroke-linecap:round; stroke-linejoin:round; stroke-width:2; stroke-opacity:0.1; fill:none" points="155.765,951.297 2352.76,951.297 "/>
<polyline clip-path="url(#clip591)" style="stroke:#000000; stroke-linecap:round; stroke-linejoin:round; stroke-width:2; stroke-opacity:0.1; fill:none" points="155.765,765.909 2352.76,765.909 "/>
<polyline clip-path="url(#clip591)" style="stroke:#000000; stroke-linecap:round; stroke-linejoin:round; stroke-width:2; stroke-opacity:0.1; fill:none" points="155.765,580.52 2352.76,580.52 "/>
<polyline clip-path="url(#clip591)" style="stroke:#000000; stroke-linecap:round; stroke-linejoin:round; stroke-width:2; stroke-opacity:0.1; fill:none" points="155.765,395.131 2352.76,395.131 "/>
<polyline clip-path="url(#clip591)" style="stroke:#000000; stroke-linecap:round; stroke-linejoin:round; stroke-width:2; stroke-opacity:0.1; fill:none" points="155.765,209.742 2352.76,209.742 "/>
<polyline clip-path="url(#clip590)" style="stroke:#000000; stroke-linecap:round; stroke-linejoin:round; stroke-width:4; stroke-opacity:1; fill:none" points="155.765,1486.45 2352.76,1486.45 "/>
<polyline clip-path="url(#clip590)" style="stroke:#000000; stroke-linecap:round; stroke-linejoin:round; stroke-width:4; stroke-opacity:1; fill:none" points="217.944,1486.45 217.944,1467.55 "/>
<polyline clip-path="url(#clip590)" style="stroke:#000000; stroke-linecap:round; stroke-linejoin:round; stroke-width:4; stroke-opacity:1; fill:none" points="736.102,1486.45 736.102,1467.55 "/>
<polyline clip-path="url(#clip590)" style="stroke:#000000; stroke-linecap:round; stroke-linejoin:round; stroke-width:4; stroke-opacity:1; fill:none" points="1254.26,1486.45 1254.26,1467.55 "/>
<polyline clip-path="url(#clip590)" style="stroke:#000000; stroke-linecap:round; stroke-linejoin:round; stroke-width:4; stroke-opacity:1; fill:none" points="1772.42,1486.45 1772.42,1467.55 "/>
<polyline clip-path="url(#clip590)" style="stroke:#000000; stroke-linecap:round; stroke-linejoin:round; stroke-width:4; stroke-opacity:1; fill:none" points="2290.58,1486.45 2290.58,1467.55 "/>
<path clip-path="url(#clip590)" d="M180.247 1517.37 Q176.636 1517.37 174.808 1520.93 Q173.002 1524.47 173.002 1531.6 Q173.002 1538.71 174.808 1542.27 Q176.636 1545.82 180.247 1545.82 Q183.882 1545.82 185.687 1542.27 Q187.516 1538.71 187.516 1531.6 Q187.516 1524.47 185.687 1520.93 Q183.882 1517.37 180.247 1517.37 M180.247 1513.66 Q186.057 1513.66 189.113 1518.27 Q192.192 1522.85 192.192 1531.6 Q192.192 1540.33 189.113 1544.94 Q186.057 1549.52 180.247 1549.52 Q174.437 1549.52 171.358 1544.94 Q168.303 1540.33 168.303 1531.6 Q168.303 1522.85 171.358 1518.27 Q174.437 1513.66 180.247 1513.66 Z" fill="#000000" fill-rule="nonzero" fill-opacity="1" /><path clip-path="url(#clip590)" d="M200.409 1542.97 L205.294 1542.97 L205.294 1548.85 L200.409 1548.85 L200.409 1542.97 Z" fill="#000000" fill-rule="nonzero" fill-opacity="1" /><path clip-path="url(#clip590)" d="M225.479 1517.37 Q221.867 1517.37 220.039 1520.93 Q218.233 1524.47 218.233 1531.6 Q218.233 1538.71 220.039 1542.27 Q221.867 1545.82 225.479 1545.82 Q229.113 1545.82 230.918 1542.27 Q232.747 1538.71 232.747 1531.6 Q232.747 1524.47 230.918 1520.93 Q229.113 1517.37 225.479 1517.37 M225.479 1513.66 Q231.289 1513.66 234.344 1518.27 Q237.423 1522.85 237.423 1531.6 Q237.423 1540.33 234.344 1544.94 Q231.289 1549.52 225.479 1549.52 Q219.668 1549.52 216.59 1544.94 Q213.534 1540.33 213.534 1531.6 Q213.534 1522.85 216.59 1518.27 Q219.668 1513.66 225.479 1513.66 Z" fill="#000000" fill-rule="nonzero" fill-opacity="1" /><path clip-path="url(#clip590)" d="M255.64 1517.37 Q252.029 1517.37 250.201 1520.93 Q248.395 1524.47 248.395 1531.6 Q248.395 1538.71 250.201 1542.27 Q252.029 1545.82 255.64 1545.82 Q259.275 1545.82 261.08 1542.27 Q262.909 1538.71 262.909 1531.6 Q262.909 1524.47 261.08 1520.93 Q259.275 1517.37 255.64 1517.37 M255.64 1513.66 Q261.451 1513.66 264.506 1518.27 Q267.585 1522.85 267.585 1531.6 Q267.585 1540.33 264.506 1544.94 Q261.451 1549.52 255.64 1549.52 Q249.83 1549.52 246.752 1544.94 Q243.696 1540.33 243.696 1531.6 Q243.696 1522.85 246.752 1518.27 Q249.83 1513.66 255.64 1513.66 Z" fill="#000000" fill-rule="nonzero" fill-opacity="1" /><path clip-path="url(#clip590)" d="M698.903 1517.37 Q695.292 1517.37 693.463 1520.93 Q691.658 1524.47 691.658 1531.6 Q691.658 1538.71 693.463 1542.27 Q695.292 1545.82 698.903 1545.82 Q702.538 1545.82 704.343 1542.27 Q706.172 1538.71 706.172 1531.6 Q706.172 1524.47 704.343 1520.93 Q702.538 1517.37 698.903 1517.37 M698.903 1513.66 Q704.713 1513.66 707.769 1518.27 Q710.848 1522.85 710.848 1531.6 Q710.848 1540.33 707.769 1544.94 Q704.713 1549.52 698.903 1549.52 Q693.093 1549.52 690.014 1544.94 Q686.959 1540.33 686.959 1531.6 Q686.959 1522.85 690.014 1518.27 Q693.093 1513.66 698.903 1513.66 Z" fill="#000000" fill-rule="nonzero" fill-opacity="1" /><path clip-path="url(#clip590)" d="M719.065 1542.97 L723.949 1542.97 L723.949 1548.85 L719.065 1548.85 L719.065 1542.97 Z" fill="#000000" fill-rule="nonzero" fill-opacity="1" /><path clip-path="url(#clip590)" d="M738.162 1544.91 L754.482 1544.91 L754.482 1548.85 L732.537 1548.85 L732.537 1544.91 Q735.199 1542.16 739.783 1537.53 Q744.389 1532.88 745.57 1531.53 Q747.815 1529.01 748.695 1527.27 Q749.597 1525.51 749.597 1523.82 Q749.597 1521.07 747.653 1519.33 Q745.732 1517.6 742.63 1517.6 Q740.431 1517.6 737.977 1518.36 Q735.547 1519.13 732.769 1520.68 L732.769 1515.95 Q735.593 1514.82 738.047 1514.24 Q740.5 1513.66 742.537 1513.66 Q747.908 1513.66 751.102 1516.35 Q754.296 1519.03 754.296 1523.52 Q754.296 1525.65 753.486 1527.57 Q752.699 1529.47 750.593 1532.07 Q750.014 1532.74 746.912 1535.95 Q743.81 1539.15 738.162 1544.91 Z" fill="#000000" fill-rule="nonzero" fill-opacity="1" /><path clip-path="url(#clip590)" d="M764.343 1514.29 L782.699 1514.29 L782.699 1518.22 L768.625 1518.22 L768.625 1526.7 Q769.644 1526.35 770.662 1526.19 Q771.681 1526 772.699 1526 Q778.486 1526 781.866 1529.17 Q785.245 1532.34 785.245 1537.76 Q785.245 1543.34 781.773 1546.44 Q778.301 1549.52 771.982 1549.52 Q769.806 1549.52 767.537 1549.15 Q765.292 1548.78 762.884 1548.04 L762.884 1543.34 Q764.968 1544.47 767.19 1545.03 Q769.412 1545.58 771.889 1545.58 Q775.894 1545.58 778.232 1543.48 Q780.57 1541.37 780.57 1537.76 Q780.57 1534.15 778.232 1532.04 Q775.894 1529.94 771.889 1529.94 Q770.014 1529.94 768.139 1530.35 Q766.287 1530.77 764.343 1531.65 L764.343 1514.29 Z" fill="#000000" fill-rule="nonzero" fill-opacity="1" /><path clip-path="url(#clip590)" d="M1216.56 1517.37 Q1212.95 1517.37 1211.12 1520.93 Q1209.32 1524.47 1209.32 1531.6 Q1209.32 1538.71 1211.12 1542.27 Q1212.95 1545.82 1216.56 1545.82 Q1220.2 1545.82 1222 1542.27 Q1223.83 1538.71 1223.83 1531.6 Q1223.83 1524.47 1222 1520.93 Q1220.2 1517.37 1216.56 1517.37 M1216.56 1513.66 Q1222.37 1513.66 1225.43 1518.27 Q1228.51 1522.85 1228.51 1531.6 Q1228.51 1540.33 1225.43 1544.94 Q1222.37 1549.52 1216.56 1549.52 Q1210.75 1549.52 1207.68 1544.94 Q1204.62 1540.33 1204.62 1531.6 Q1204.62 1522.85 1207.68 1518.27 Q1210.75 1513.66 1216.56 1513.66 Z" fill="#000000" fill-rule="nonzero" fill-opacity="1" /><path clip-path="url(#clip590)" d="M1236.73 1542.97 L1241.61 1542.97 L1241.61 1548.85 L1236.73 1548.85 L1236.73 1542.97 Z" fill="#000000" fill-rule="nonzero" fill-opacity="1" /><path clip-path="url(#clip590)" d="M1251.84 1514.29 L1270.2 1514.29 L1270.2 1518.22 L1256.12 1518.22 L1256.12 1526.7 Q1257.14 1526.35 1258.16 1526.19 Q1259.18 1526 1260.2 1526 Q1265.98 1526 1269.36 1529.17 Q1272.74 1532.34 1272.74 1537.76 Q1272.74 1543.34 1269.27 1546.44 Q1265.8 1549.52 1259.48 1549.52 Q1257.3 1549.52 1255.04 1549.15 Q1252.79 1548.78 1250.38 1548.04 L1250.38 1543.34 Q1252.47 1544.47 1254.69 1545.03 Q1256.91 1545.58 1259.39 1545.58 Q1263.39 1545.58 1265.73 1543.48 Q1268.07 1541.37 1268.07 1537.76 Q1268.07 1534.15 1265.73 1532.04 Q1263.39 1529.94 1259.39 1529.94 Q1257.51 1529.94 1255.64 1530.35 Q1253.79 1530.77 1251.84 1531.65 L1251.84 1514.29 Z" fill="#000000" fill-rule="nonzero" fill-opacity="1" /><path clip-path="url(#clip590)" d="M1291.96 1517.37 Q1288.35 1517.37 1286.52 1520.93 Q1284.71 1524.47 1284.71 1531.6 Q1284.71 1538.71 1286.52 1542.27 Q1288.35 1545.82 1291.96 1545.82 Q1295.59 1545.82 1297.4 1542.27 Q1299.23 1538.71 1299.23 1531.6 Q1299.23 1524.47 1297.4 1520.93 Q1295.59 1517.37 1291.96 1517.37 M1291.96 1513.66 Q1297.77 1513.66 1300.82 1518.27 Q1303.9 1522.85 1303.9 1531.6 Q1303.9 1540.33 1300.82 1544.94 Q1297.77 1549.52 1291.96 1549.52 Q1286.15 1549.52 1283.07 1544.94 Q1280.01 1540.33 1280.01 1531.6 Q1280.01 1522.85 1283.07 1518.27 Q1286.15 1513.66 1291.96 1513.66 Z" fill="#000000" fill-rule="nonzero" fill-opacity="1" /><path clip-path="url(#clip590)" d="M1735.22 1517.37 Q1731.61 1517.37 1729.78 1520.93 Q1727.97 1524.47 1727.97 1531.6 Q1727.97 1538.71 1729.78 1542.27 Q1731.61 1545.82 1735.22 1545.82 Q1738.85 1545.82 1740.66 1542.27 Q1742.49 1538.71 1742.49 1531.6 Q1742.49 1524.47 1740.66 1520.93 Q1738.85 1517.37 1735.22 1517.37 M1735.22 1513.66 Q1741.03 1513.66 1744.09 1518.27 Q1747.16 1522.85 1747.16 1531.6 Q1747.16 1540.33 1744.09 1544.94 Q1741.03 1549.52 1735.22 1549.52 Q1729.41 1549.52 1726.33 1544.94 Q1723.28 1540.33 1723.28 1531.6 Q1723.28 1522.85 1726.33 1518.27 Q1729.41 1513.66 1735.22 1513.66 Z" fill="#000000" fill-rule="nonzero" fill-opacity="1" /><path clip-path="url(#clip590)" d="M1755.38 1542.97 L1760.27 1542.97 L1760.27 1548.85 L1755.38 1548.85 L1755.38 1542.97 Z" fill="#000000" fill-rule="nonzero" fill-opacity="1" /><path clip-path="url(#clip590)" d="M1769.27 1514.29 L1791.49 1514.29 L1791.49 1516.28 L1778.95 1548.85 L1774.06 1548.85 L1785.87 1518.22 L1769.27 1518.22 L1769.27 1514.29 Z" fill="#000000" fill-rule="nonzero" fill-opacity="1" /><path clip-path="url(#clip590)" d="M1800.66 1514.29 L1819.02 1514.29 L1819.02 1518.22 L1804.94 1518.22 L1804.94 1526.7 Q1805.96 1526.35 1806.98 1526.19 Q1808 1526 1809.02 1526 Q1814.8 1526 1818.18 1529.17 Q1821.56 1532.34 1821.56 1537.76 Q1821.56 1543.34 1818.09 1546.44 Q1814.62 1549.52 1808.3 1549.52 Q1806.12 1549.52 1803.85 1549.15 Q1801.61 1548.78 1799.2 1548.04 L1799.2 1543.34 Q1801.28 1544.47 1803.51 1545.03 Q1805.73 1545.58 1808.21 1545.58 Q1812.21 1545.58 1814.55 1543.48 Q1816.89 1541.37 1816.89 1537.76 Q1816.89 1534.15 1814.55 1532.04 Q1812.21 1529.94 1808.21 1529.94 Q1806.33 1529.94 1804.46 1530.35 Q1802.6 1530.77 1800.66 1531.65 L1800.66 1514.29 Z" fill="#000000" fill-rule="nonzero" fill-opacity="1" /><path clip-path="url(#clip590)" d="M2242.65 1544.91 L2250.29 1544.91 L2250.29 1518.55 L2241.98 1520.21 L2241.98 1515.95 L2250.24 1514.29 L2254.92 1514.29 L2254.92 1544.91 L2262.56 1544.91 L2262.56 1548.85 L2242.65 1548.85 L2242.65 1544.91 Z" fill="#000000" fill-rule="nonzero" fill-opacity="1" /><path clip-path="url(#clip590)" d="M2272 1542.97 L2276.88 1542.97 L2276.88 1548.85 L2272 1548.85 L2272 1542.97 Z" fill="#000000" fill-rule="nonzero" fill-opacity="1" /><path clip-path="url(#clip590)" d="M2297.07 1517.37 Q2293.46 1517.37 2291.63 1520.93 Q2289.82 1524.47 2289.82 1531.6 Q2289.82 1538.71 2291.63 1542.27 Q2293.46 1545.82 2297.07 1545.82 Q2300.7 1545.82 2302.51 1542.27 Q2304.34 1538.71 2304.34 1531.6 Q2304.34 1524.47 2302.51 1520.93 Q2300.7 1517.37 2297.07 1517.37 M2297.07 1513.66 Q2302.88 1513.66 2305.94 1518.27 Q2309.01 1522.85 2309.01 1531.6 Q2309.01 1540.33 2305.94 1544.94 Q2302.88 1549.52 2297.07 1549.52 Q2291.26 1549.52 2288.18 1544.94 Q2285.13 1540.33 2285.13 1531.6 Q2285.13 1522.85 2288.18 1518.27 Q2291.26 1513.66 2297.07 1513.66 Z" fill="#000000" fill-rule="nonzero" fill-opacity="1" /><path clip-path="url(#clip590)" d="M2327.23 1517.37 Q2323.62 1517.37 2321.79 1520.93 Q2319.99 1524.47 2319.99 1531.6 Q2319.99 1538.71 2321.79 1542.27 Q2323.62 1545.82 2327.23 1545.82 Q2330.87 1545.82 2332.67 1542.27 Q2334.5 1538.71 2334.5 1531.6 Q2334.5 1524.47 2332.67 1520.93 Q2330.87 1517.37 2327.23 1517.37 M2327.23 1513.66 Q2333.04 1513.66 2336.1 1518.27 Q2339.18 1522.85 2339.18 1531.6 Q2339.18 1540.33 2336.1 1544.94 Q2333.04 1549.52 2327.23 1549.52 Q2321.42 1549.52 2318.34 1544.94 Q2315.29 1540.33 2315.29 1531.6 Q2315.29 1522.85 2318.34 1518.27 Q2321.42 1513.66 2327.23 1513.66 Z" fill="#000000" fill-rule="nonzero" fill-opacity="1" /><polyline clip-path="url(#clip590)" style="stroke:#000000; stroke-linecap:round; stroke-linejoin:round; stroke-width:4; stroke-opacity:1; fill:none" points="155.765,1486.45 155.765,47.2441 "/>
<polyline clip-path="url(#clip590)" style="stroke:#000000; stroke-linecap:round; stroke-linejoin:round; stroke-width:4; stroke-opacity:1; fill:none" points="155.765,1322.07 174.663,1322.07 "/>
<polyline clip-path="url(#clip590)" style="stroke:#000000; stroke-linecap:round; stroke-linejoin:round; stroke-width:4; stroke-opacity:1; fill:none" points="155.765,1136.69 174.663,1136.69 "/>
<polyline clip-path="url(#clip590)" style="stroke:#000000; stroke-linecap:round; stroke-linejoin:round; stroke-width:4; stroke-opacity:1; fill:none" points="155.765,951.297 174.663,951.297 "/>
<polyline clip-path="url(#clip590)" style="stroke:#000000; stroke-linecap:round; stroke-linejoin:round; stroke-width:4; stroke-opacity:1; fill:none" points="155.765,765.909 174.663,765.909 "/>
<polyline clip-path="url(#clip590)" style="stroke:#000000; stroke-linecap:round; stroke-linejoin:round; stroke-width:4; stroke-opacity:1; fill:none" points="155.765,580.52 174.663,580.52 "/>
<polyline clip-path="url(#clip590)" style="stroke:#000000; stroke-linecap:round; stroke-linejoin:round; stroke-width:4; stroke-opacity:1; fill:none" points="155.765,395.131 174.663,395.131 "/>
<polyline clip-path="url(#clip590)" style="stroke:#000000; stroke-linecap:round; stroke-linejoin:round; stroke-width:4; stroke-opacity:1; fill:none" points="155.765,209.742 174.663,209.742 "/>
<path clip-path="url(#clip590)" d="M63.5847 1307.87 Q59.9736 1307.87 58.1449 1311.44 Q56.3393 1314.98 56.3393 1322.11 Q56.3393 1329.22 58.1449 1332.78 Q59.9736 1336.32 63.5847 1336.32 Q67.2189 1336.32 69.0244 1332.78 Q70.8531 1329.22 70.8531 1322.11 Q70.8531 1314.98 69.0244 1311.44 Q67.2189 1307.87 63.5847 1307.87 M63.5847 1304.17 Q69.3948 1304.17 72.4503 1308.78 Q75.529 1313.36 75.529 1322.11 Q75.529 1330.84 72.4503 1335.44 Q69.3948 1340.03 63.5847 1340.03 Q57.7745 1340.03 54.6958 1335.44 Q51.6403 1330.84 51.6403 1322.11 Q51.6403 1313.36 54.6958 1308.78 Q57.7745 1304.17 63.5847 1304.17 Z" fill="#000000" fill-rule="nonzero" fill-opacity="1" /><path clip-path="url(#clip590)" d="M83.7466 1333.48 L88.6308 1333.48 L88.6308 1339.35 L83.7466 1339.35 L83.7466 1333.48 Z" fill="#000000" fill-rule="nonzero" fill-opacity="1" /><path clip-path="url(#clip590)" d="M98.8622 1304.79 L117.219 1304.79 L117.219 1308.73 L103.145 1308.73 L103.145 1317.2 Q104.163 1316.86 105.182 1316.69 Q106.2 1316.51 107.219 1316.51 Q113.006 1316.51 116.385 1319.68 Q119.765 1322.85 119.765 1328.27 Q119.765 1333.85 116.293 1336.95 Q112.82 1340.03 106.501 1340.03 Q104.325 1340.03 102.057 1339.66 Q99.8113 1339.29 97.4039 1338.54 L97.4039 1333.85 Q99.4872 1334.98 101.709 1335.54 Q103.932 1336.09 106.408 1336.09 Q110.413 1336.09 112.751 1333.98 Q115.089 1331.88 115.089 1328.27 Q115.089 1324.66 112.751 1322.55 Q110.413 1320.44 106.408 1320.44 Q104.534 1320.44 102.659 1320.86 Q100.807 1321.28 98.8622 1322.16 L98.8622 1304.79 Z" fill="#000000" fill-rule="nonzero" fill-opacity="1" /><path clip-path="url(#clip590)" d="M53.3995 1150.03 L61.0384 1150.03 L61.0384 1123.67 L52.7282 1125.33 L52.7282 1121.07 L60.9921 1119.41 L65.668 1119.41 L65.668 1150.03 L73.3068 1150.03 L73.3068 1153.97 L53.3995 1153.97 L53.3995 1150.03 Z" fill="#000000" fill-rule="nonzero" fill-opacity="1" /><path clip-path="url(#clip590)" d="M82.7512 1148.09 L87.6354 1148.09 L87.6354 1153.97 L82.7512 1153.97 L82.7512 1148.09 Z" fill="#000000" fill-rule="nonzero" fill-opacity="1" /><path clip-path="url(#clip590)" d="M107.821 1122.48 Q104.209 1122.48 102.381 1126.05 Q100.575 1129.59 100.575 1136.72 Q100.575 1143.83 102.381 1147.39 Q104.209 1150.93 107.821 1150.93 Q111.455 1150.93 113.26 1147.39 Q115.089 1143.83 115.089 1136.72 Q115.089 1129.59 113.26 1126.05 Q111.455 1122.48 107.821 1122.48 M107.821 1118.78 Q113.631 1118.78 116.686 1123.39 Q119.765 1127.97 119.765 1136.72 Q119.765 1145.45 116.686 1150.05 Q113.631 1154.64 107.821 1154.64 Q102.01 1154.64 98.9317 1150.05 Q95.8761 1145.45 95.8761 1136.72 Q95.8761 1127.97 98.9317 1123.39 Q102.01 1118.78 107.821 1118.78 Z" fill="#000000" fill-rule="nonzero" fill-opacity="1" /><path clip-path="url(#clip590)" d="M54.3949 964.642 L62.0337 964.642 L62.0337 938.277 L53.7236 939.943 L53.7236 935.684 L61.9874 934.017 L66.6633 934.017 L66.6633 964.642 L74.3022 964.642 L74.3022 968.577 L54.3949 968.577 L54.3949 964.642 Z" fill="#000000" fill-rule="nonzero" fill-opacity="1" /><path clip-path="url(#clip590)" d="M83.7466 962.698 L88.6308 962.698 L88.6308 968.577 L83.7466 968.577 L83.7466 962.698 Z" fill="#000000" fill-rule="nonzero" fill-opacity="1" /><path clip-path="url(#clip590)" d="M98.8622 934.017 L117.219 934.017 L117.219 937.953 L103.145 937.953 L103.145 946.425 Q104.163 946.077 105.182 945.915 Q106.2 945.73 107.219 945.73 Q113.006 945.73 116.385 948.902 Q119.765 952.073 119.765 957.489 Q119.765 963.068 116.293 966.17 Q112.82 969.249 106.501 969.249 Q104.325 969.249 102.057 968.878 Q99.8113 968.508 97.4039 967.767 L97.4039 963.068 Q99.4872 964.202 101.709 964.758 Q103.932 965.314 106.408 965.314 Q110.413 965.314 112.751 963.207 Q115.089 961.101 115.089 957.489 Q115.089 953.878 112.751 951.772 Q110.413 949.665 106.408 949.665 Q104.534 949.665 102.659 950.082 Q100.807 950.499 98.8622 951.378 L98.8622 934.017 Z" fill="#000000" fill-rule="nonzero" fill-opacity="1" /><path clip-path="url(#clip590)" d="M56.6171 779.253 L72.9365 779.253 L72.9365 783.189 L50.9921 783.189 L50.9921 779.253 Q53.6541 776.499 58.2375 771.869 Q62.8439 767.216 64.0245 765.874 Q66.2698 763.351 67.1494 761.615 Q68.0522 759.855 68.0522 758.166 Q68.0522 755.411 66.1078 753.675 Q64.1865 751.939 61.0847 751.939 Q58.8856 751.939 56.4319 752.703 Q54.0014 753.467 51.2236 755.017 L51.2236 750.295 Q54.0477 749.161 56.5014 748.582 Q58.955 748.004 60.9921 748.004 Q66.3624 748.004 69.5568 750.689 Q72.7513 753.374 72.7513 757.865 Q72.7513 759.994 71.9411 761.916 Q71.1541 763.814 69.0476 766.406 Q68.4689 767.078 65.367 770.295 Q62.2652 773.49 56.6171 779.253 Z" fill="#000000" fill-rule="nonzero" fill-opacity="1" /><path clip-path="url(#clip590)" d="M82.7512 777.309 L87.6354 777.309 L87.6354 783.189 L82.7512 783.189 L82.7512 777.309 Z" fill="#000000" fill-rule="nonzero" fill-opacity="1" /><path clip-path="url(#clip590)" d="M107.821 751.707 Q104.209 751.707 102.381 755.272 Q100.575 758.814 100.575 765.943 Q100.575 773.05 102.381 776.615 Q104.209 780.156 107.821 780.156 Q111.455 780.156 113.26 776.615 Q115.089 773.05 115.089 765.943 Q115.089 758.814 113.26 755.272 Q111.455 751.707 107.821 751.707 M107.821 748.004 Q113.631 748.004 116.686 752.61 Q119.765 757.193 119.765 765.943 Q119.765 774.67 116.686 779.277 Q113.631 783.86 107.821 783.86 Q102.01 783.86 98.9317 779.277 Q95.8761 774.67 95.8761 765.943 Q95.8761 757.193 98.9317 752.61 Q102.01 748.004 107.821 748.004 Z" fill="#000000" fill-rule="nonzero" fill-opacity="1" /><path clip-path="url(#clip590)" d="M57.6125 593.865 L73.9318 593.865 L73.9318 597.8 L51.9875 597.8 L51.9875 593.865 Q54.6495 591.11 59.2328 586.48 Q63.8393 581.828 65.0198 580.485 Q67.2652 577.962 68.1448 576.226 Q69.0476 574.467 69.0476 572.777 Q69.0476 570.022 67.1032 568.286 Q65.1819 566.55 62.08 566.55 Q59.881 566.55 57.4273 567.314 Q54.9967 568.078 52.219 569.629 L52.219 564.906 Q55.043 563.772 57.4967 563.193 Q59.9504 562.615 61.9874 562.615 Q67.3578 562.615 70.5522 565.3 Q73.7466 567.985 73.7466 572.476 Q73.7466 574.605 72.9365 576.527 Q72.1494 578.425 70.0429 581.017 Q69.4642 581.689 66.3624 584.906 Q63.2606 588.101 57.6125 593.865 Z" fill="#000000" fill-rule="nonzero" fill-opacity="1" /><path clip-path="url(#clip590)" d="M83.7466 591.92 L88.6308 591.92 L88.6308 597.8 L83.7466 597.8 L83.7466 591.92 Z" fill="#000000" fill-rule="nonzero" fill-opacity="1" /><path clip-path="url(#clip590)" d="M98.8622 563.24 L117.219 563.24 L117.219 567.175 L103.145 567.175 L103.145 575.647 Q104.163 575.3 105.182 575.138 Q106.2 574.953 107.219 574.953 Q113.006 574.953 116.385 578.124 Q119.765 581.295 119.765 586.712 Q119.765 592.291 116.293 595.392 Q112.82 598.471 106.501 598.471 Q104.325 598.471 102.057 598.101 Q99.8113 597.73 97.4039 596.99 L97.4039 592.291 Q99.4872 593.425 101.709 593.98 Q103.932 594.536 106.408 594.536 Q110.413 594.536 112.751 592.429 Q115.089 590.323 115.089 586.712 Q115.089 583.101 112.751 580.994 Q110.413 578.888 106.408 578.888 Q104.534 578.888 102.659 579.304 Q100.807 579.721 98.8622 580.601 L98.8622 563.24 Z" fill="#000000" fill-rule="nonzero" fill-opacity="1" /><path clip-path="url(#clip590)" d="M66.7559 393.777 Q70.1124 394.494 71.9874 396.763 Q73.8855 399.031 73.8855 402.365 Q73.8855 407.48 70.367 410.281 Q66.8485 413.082 60.3671 413.082 Q58.1912 413.082 55.8764 412.642 Q53.5847 412.226 51.131 411.369 L51.131 406.855 Q53.0754 407.99 55.3903 408.568 Q57.7051 409.147 60.2282 409.147 Q64.6263 409.147 66.918 407.411 Q69.2328 405.675 69.2328 402.365 Q69.2328 399.309 67.08 397.596 Q64.9504 395.86 61.131 395.86 L57.1032 395.86 L57.1032 392.018 L61.3161 392.018 Q64.7652 392.018 66.5939 390.652 Q68.4226 389.263 68.4226 386.67 Q68.4226 384.008 66.5245 382.596 Q64.6495 381.161 61.131 381.161 Q59.2097 381.161 57.0106 381.578 Q54.8115 381.994 52.1727 382.874 L52.1727 378.707 Q54.8347 377.967 57.1495 377.596 Q59.4875 377.226 61.5476 377.226 Q66.8717 377.226 69.9735 379.656 Q73.0753 382.064 73.0753 386.184 Q73.0753 389.055 71.4318 391.045 Q69.7883 393.013 66.7559 393.777 Z" fill="#000000" fill-rule="nonzero" fill-opacity="1" /><path clip-path="url(#clip590)" d="M82.7512 406.531 L87.6354 406.531 L87.6354 412.411 L82.7512 412.411 L82.7512 406.531 Z" fill="#000000" fill-rule="nonzero" fill-opacity="1" /><path clip-path="url(#clip590)" d="M107.821 380.93 Q104.209 380.93 102.381 384.494 Q100.575 388.036 100.575 395.166 Q100.575 402.272 102.381 405.837 Q104.209 409.379 107.821 409.379 Q111.455 409.379 113.26 405.837 Q115.089 402.272 115.089 395.166 Q115.089 388.036 113.26 384.494 Q111.455 380.93 107.821 380.93 M107.821 377.226 Q113.631 377.226 116.686 381.832 Q119.765 386.416 119.765 395.166 Q119.765 403.892 116.686 408.499 Q113.631 413.082 107.821 413.082 Q102.01 413.082 98.9317 408.499 Q95.8761 403.892 95.8761 395.166 Q95.8761 386.416 98.9317 381.832 Q102.01 377.226 107.821 377.226 Z" fill="#000000" fill-rule="nonzero" fill-opacity="1" /><path clip-path="url(#clip590)" d="M67.7513 208.388 Q71.1078 209.106 72.9827 211.374 Q74.8809 213.643 74.8809 216.976 Q74.8809 222.092 71.3624 224.893 Q67.8439 227.693 61.3624 227.693 Q59.1865 227.693 56.8717 227.254 Q54.5801 226.837 52.1264 225.98 L52.1264 221.467 Q54.0708 222.601 56.3856 223.18 Q58.7004 223.758 61.2236 223.758 Q65.6217 223.758 67.9133 222.022 Q70.2281 220.286 70.2281 216.976 Q70.2281 213.92 68.0754 212.207 Q65.9457 210.471 62.1263 210.471 L58.0986 210.471 L58.0986 206.629 L62.3115 206.629 Q65.7606 206.629 67.5893 205.263 Q69.418 203.874 69.418 201.282 Q69.418 198.62 67.5198 197.207 Q65.6448 195.772 62.1263 195.772 Q60.205 195.772 58.006 196.189 Q55.8069 196.606 53.168 197.485 L53.168 193.319 Q55.8301 192.578 58.1449 192.208 Q60.4828 191.837 62.543 191.837 Q67.867 191.837 70.9689 194.268 Q74.0707 196.675 74.0707 200.795 Q74.0707 203.666 72.4272 205.657 Q70.7837 207.624 67.7513 208.388 Z" fill="#000000" fill-rule="nonzero" fill-opacity="1" /><path clip-path="url(#clip590)" d="M83.7466 221.143 L88.6308 221.143 L88.6308 227.022 L83.7466 227.022 L83.7466 221.143 Z" fill="#000000" fill-rule="nonzero" fill-opacity="1" /><path clip-path="url(#clip590)" d="M98.8622 192.462 L117.219 192.462 L117.219 196.397 L103.145 196.397 L103.145 204.869 Q104.163 204.522 105.182 204.36 Q106.2 204.175 107.219 204.175 Q113.006 204.175 116.385 207.346 Q119.765 210.518 119.765 215.934 Q119.765 221.513 116.293 224.615 Q112.82 227.693 106.501 227.693 Q104.325 227.693 102.057 227.323 Q99.8113 226.953 97.4039 226.212 L97.4039 221.513 Q99.4872 222.647 101.709 223.203 Q103.932 223.758 106.408 223.758 Q110.413 223.758 112.751 221.652 Q115.089 219.545 115.089 215.934 Q115.089 212.323 112.751 210.217 Q110.413 208.11 106.408 208.11 Q104.534 208.11 102.659 208.527 Q100.807 208.944 98.8622 209.823 L98.8622 192.462 Z" fill="#000000" fill-rule="nonzero" fill-opacity="1" /><path clip-path="url(#clip591)" d="M217.944 1322.07 L238.67 1350.09 L259.397 1359.9 L280.123 1367 L300.849 1371.04 L321.576 1374.31 L342.302 1375.48 L363.028 1378.71 L383.755 1384.55 L404.481 1387.55 L425.207 1389.55 L445.934 1388.88 L466.66 1394.86 L487.386 1395.21 L508.113 1395.56 L528.839 1396.87 L549.565 1398.1 L570.292 1399.98 L591.018 1402.92 L611.744 1401.27 L632.47 1401.11 L653.197 1403.65 L673.923 1406.01 L694.649 1406.18 L715.376 1409.09 L736.102 1408.92 L756.828 1411.36 L777.555 1412.88 L798.281 1414.31 L819.007 1413.94 L839.734 1416 L860.46 1416.89 L881.186 1415.45 L901.913 1418.42 L922.639 1418.55 L943.365 1422.18 L964.092 1420.42 L984.818 1421.08 L1005.54 1422.19 L1026.27 1423.67 L1047 1422.55 L1067.72 1421.76 L1088.45 1425.61 L1109.18 1425.3 L1129.9 1427.38 L1150.63 1429.93 L1171.36 1430.48 L1192.08 1427.53 L1212.81 1424.54 L1233.53 1426.31 L1254.26 1427.14 L1274.99 1426.75 L1295.71 1428.97 L1316.44 1426.82 L1337.17 1428.72 L1357.89 1427.4 L1378.62 1429.19 L1399.34 1429.7 L1420.07 1432.01 L1440.8 1431.2 L1461.52 1433.52 L1482.25 1432.62 L1502.98 1430.96 L1523.7 1435.47 L1544.43 1433.48 L1565.16 1434.21 L1585.88 1433.95 L1606.61 1435.23 L1627.33 1437.42 L1648.06 1439.81 L1668.79 1441.09 L1689.51 1440.05 L1710.24 1439.96 L1730.97 1439.89 L1751.69 1439.93 L1772.42 1440.83 L1793.14 1440.03 L1813.87 1441.01 L1834.6 1443.24 L1855.32 1444.23 L1876.05 1444.62 L1896.78 1445.22 L1917.5 1444.42 L1938.23 1441.71 L1958.96 1442.14 L1979.68 1441.62 L2000.41 1444.12 L2021.13 1443.45 L2041.86 1445.72 L2062.59 1445.5 L2083.31 1444.58 L2104.04 1442.86 L2124.77 1441.7 L2145.49 1441.52 L2166.22 1441.55 L2186.95 1441.45 L2207.67 1443.74 L2228.4 1441.44 L2249.12 1441.78 L2269.85 1442.87 L2290.58 1440.5 L2290.58 87.9763 L2269.85 106.19 L2249.12 138.821 L2228.4 174.863 L2207.67 192.738 L2186.95 200.349 L2166.22 162.848 L2145.49 175.233 L2124.77 256.629 L2104.04 232.998 L2083.31 261.348 L2062.59 288.5 L2041.86 263.726 L2021.13 282.031 L2000.41 296.125 L1979.68 339.435 L1958.96 354.64 L1938.23 350.677 L1917.5 371.688 L1896.78 391.062 L1876.05 385.342 L1855.32 392.524 L1834.6 412.372 L1813.87 442.071 L1793.14 493.342 L1772.42 510.239 L1751.69 523.931 L1730.97 522.836 L1710.24 543.217 L1689.51 578.781 L1668.79 570.185 L1648.06 578.109 L1627.33 620.011 L1606.61 635.971 L1585.88 653.517 L1565.16 638.582 L1544.43 650.812 L1523.7 680.362 L1502.98 677.162 L1482.25 691.309 L1461.52 708.629 L1440.8 708.914 L1420.07 738.642 L1399.34 752.276 L1378.62 756.922 L1357.89 801.896 L1337.17 800.397 L1316.44 826.386 L1295.71 828.91 L1274.99 849.657 L1254.26 870.55 L1233.53 856.907 L1212.81 874.47 L1192.08 868.481 L1171.36 875.698 L1150.63 872.892 L1129.9 882.506 L1109.18 894.91 L1088.45 903.377 L1067.72 906.573 L1047 930.094 L1026.27 945.681 L1005.54 959.701 L984.818 958.26 L964.092 963.006 L943.365 966.752 L922.639 987.253 L901.913 984.419 L881.186 991.479 L860.46 1006.04 L839.734 1019.42 L819.007 1024.54 L798.281 1012.1 L777.555 1018.9 L756.828 1025.91 L736.102 1040.31 L715.376 1048.66 L694.649 1066.6 L673.923 1063.54 L653.197 1073.3 L632.47 1083.91 L611.744 1090.69 L591.018 1106.92 L570.292 1121.75 L549.565 1130.26 L528.839 1131.36 L508.113 1139.96 L487.386 1150.21 L466.66 1168.82 L445.934 1172.5 L425.207 1184.72 L404.481 1191.85 L383.755 1196.1 L363.028 1212.01 L342.302 1226.52 L321.576 1231.06 L300.849 1239.44 L280.123 1255.6 L259.397 1270.89 L238.67 1289.21 L217.944 1322.07  Z" fill="#009af9" fill-rule="evenodd" fill-opacity="0.2"/>
<polyline clip-path="url(#clip591)" style="stroke:#009af9; stroke-linecap:round; stroke-linejoin:round; stroke-width:12; stroke-opacity:1; fill:none" points="217.944,1322.07 238.67,1320.83 259.397,1318.25 280.123,1315.93 300.849,1315.51 321.576,1314.66 342.302,1312.76 363.028,1310.76 383.755,1310.24 404.481,1310.41 425.207,1309.11 445.934,1306.91 466.66,1304.1 487.386,1306.49 508.113,1303.93 528.839,1303.72 549.565,1302.65 570.292,1301.1 591.018,1300.18 611.744,1300.13 632.47,1299.35 653.197,1296.99 673.923,1296.79 694.649,1297.87 715.376,1296.96 736.102,1295.84 756.828,1295.66 777.555,1294.06 798.281,1292.67 819.007,1289.12 839.734,1289.04 860.46,1288.29 881.186,1288.9 901.913,1286.94 922.639,1285.77 943.365,1281.26 964.092,1282.3 984.818,1278.99 1005.54,1281.81 1026.27,1282.86 1047,1282.25 1067.72,1281.23 1088.45,1279.02 1109.18,1274.22 1129.9,1274.43 1150.63,1271.04 1171.36,1272.98 1192.08,1270.6 1212.81,1267.47 1233.53,1267.46 1254.26,1269.14 1274.99,1267.96 1295.71,1265.95 1316.44,1263.36 1337.17,1265.01 1357.89,1262 1378.62,1262.71 1399.34,1259.99 1420.07,1260.16 1440.8,1255.33 1461.52,1257.75 1482.25,1253.04 1502.98,1256.34 1523.7,1254.21 1544.43,1255.36 1565.16,1257.7 1585.88,1253.81 1606.61,1249.08 1627.33,1249.52 1648.06,1247.22 1668.79,1242.21 1689.51,1239.12 1710.24,1236.56 1730.97,1238.31 1751.69,1234.14 1772.42,1231.41 1793.14,1227.75 1813.87,1226.71 1834.6,1225.86 1855.32,1222.3 1876.05,1225.38 1896.78,1224.74 1917.5,1220.68 1938.23,1219.37 1958.96,1219.33 1979.68,1216.15 2000.41,1213.55 2021.13,1220.07 2041.86,1214.98 2062.59,1215.85 2083.31,1214.84 2104.04,1207.1 2124.77,1199.75 2145.49,1204.24 2166.22,1205.18 2186.95,1200.82 2207.67,1205.95 2228.4,1205.17 2249.12,1201.53 2269.85,1196.39 2290.58,1194.14 "/>
<path clip-path="url(#clip591)" d="M217.944 1322.07 L238.67 1333.65 L259.397 1336.96 L280.123 1337.33 L300.849 1339.8 L321.576 1340.9 L342.302 1342.68 L363.028 1344.85 L383.755 1345.27 L404.481 1346.56 L425.207 1346.94 L445.934 1346.01 L466.66 1347.22 L487.386 1345.95 L508.113 1346.02 L528.839 1349.89 L549.565 1348.54 L570.292 1349.52 L591.018 1352.21 L611.744 1350.68 L632.47 1352.19 L653.197 1351.43 L673.923 1349.92 L694.649 1351.44 L715.376 1350.32 L736.102 1351.59 L756.828 1353.2 L777.555 1352.33 L798.281 1353.26 L819.007 1352.99 L839.734 1353.97 L860.46 1352.32 L881.186 1354.75 L901.913 1354.69 L922.639 1356.32 L943.365 1356.25 L964.092 1354.82 L984.818 1355.77 L1005.54 1355.84 L1026.27 1356.33 L1047 1356.42 L1067.72 1354.15 L1088.45 1354.55 L1109.18 1354.28 L1129.9 1354.77 L1150.63 1354.99 L1171.36 1354.39 L1192.08 1351.67 L1212.81 1353.72 L1233.53 1353.43 L1254.26 1352.67 L1274.99 1352.38 L1295.71 1353.6 L1316.44 1353.63 L1337.17 1354.33 L1357.89 1353 L1378.62 1351.93 L1399.34 1348.38 L1420.07 1350.49 L1440.8 1352.63 L1461.52 1352.86 L1482.25 1351.39 L1502.98 1348.54 L1523.7 1350.92 L1544.43 1351.65 L1565.16 1352.88 L1585.88 1346.52 L1606.61 1350.46 L1627.33 1348.6 L1648.06 1348.38 L1668.79 1352.53 L1689.51 1350.98 L1710.24 1348.93 L1730.97 1348.14 L1751.69 1350.24 L1772.42 1348.73 L1793.14 1350.47 L1813.87 1351.02 L1834.6 1350.79 L1855.32 1349.97 L1876.05 1354.13 L1896.78 1354.88 L1917.5 1354.36 L1938.23 1355.03 L1958.96 1347.54 L1979.68 1347.89 L2000.41 1350.21 L2021.13 1351.13 L2041.86 1351.87 L2062.59 1351.5 L2083.31 1351.37 L2104.04 1350.92 L2124.77 1354.78 L2145.49 1354.89 L2166.22 1345.86 L2186.95 1350.39 L2207.67 1351.11 L2228.4 1351.98 L2249.12 1351.71 L2269.85 1352.29 L2290.58 1347.55 L2290.58 926.953 L2269.85 929.966 L2249.12 944.383 L2228.4 943.55 L2207.67 954.275 L2186.95 949.969 L2166.22 958.322 L2145.49 968.088 L2124.77 962.424 L2104.04 972.524 L2083.31 980.593 L2062.59 982.571 L2041.86 985.505 L2021.13 992.489 L2000.41 995.463 L1979.68 1005.97 L1958.96 1004.97 L1938.23 1016.57 L1917.5 1020.3 L1896.78 1039.7 L1876.05 1038.8 L1855.32 1041.56 L1834.6 1037.91 L1813.87 1042.09 L1793.14 1045.21 L1772.42 1038.21 L1751.69 1049.04 L1730.97 1058.37 L1710.24 1059.56 L1689.51 1072.62 L1668.79 1072.24 L1648.06 1074.31 L1627.33 1081.58 L1606.61 1078.16 L1585.88 1082.77 L1565.16 1075.85 L1544.43 1079.54 L1523.7 1084.96 L1502.98 1085.62 L1482.25 1100.21 L1461.52 1100.38 L1440.8 1102.82 L1420.07 1106.12 L1399.34 1115.92 L1378.62 1114.52 L1357.89 1125.64 L1337.17 1128.28 L1316.44 1124.4 L1295.71 1125.49 L1274.99 1133.53 L1254.26 1131.95 L1233.53 1143.12 L1212.81 1145.72 L1192.08 1147.22 L1171.36 1147.52 L1150.63 1153.23 L1129.9 1159.35 L1109.18 1169.86 L1088.45 1170.7 L1067.72 1174.65 L1047 1173.62 L1026.27 1178.22 L1005.54 1177.89 L984.818 1184.28 L964.092 1189.94 L943.365 1187.94 L922.639 1195.56 L901.913 1190.02 L881.186 1191.29 L860.46 1198.19 L839.734 1202.18 L819.007 1203.89 L798.281 1205.76 L777.555 1213.67 L756.828 1214.23 L736.102 1221.61 L715.376 1223.18 L694.649 1228.91 L673.923 1230.95 L653.197 1236.46 L632.47 1239.1 L611.744 1240.45 L591.018 1239.38 L570.292 1243.55 L549.565 1245.38 L528.839 1251.54 L508.113 1250.63 L487.386 1251.43 L466.66 1255.59 L445.934 1260.16 L425.207 1263.6 L404.481 1268.65 L383.755 1272.08 L363.028 1279.1 L342.302 1279.81 L321.576 1284.23 L300.849 1289.11 L280.123 1291.91 L259.397 1298.85 L238.67 1306.71 L217.944 1322.07  Z" fill="#e26f46" fill-rule="evenodd" fill-opacity="0.2"/>
<polyline clip-path="url(#clip591)" style="stroke:#e26f46; stroke-linecap:round; stroke-linejoin:round; stroke-width:12; stroke-opacity:1; fill:none" points="217.944,1322.07 238.67,1320.83 259.397,1318.25 280.123,1315.93 300.849,1315.51 321.576,1314.66 342.302,1312.76 363.028,1310.76 383.755,1310.24 404.481,1310.41 425.207,1309.11 445.934,1306.91 466.66,1304.1 487.386,1306.49 508.113,1303.93 528.839,1303.72 549.565,1302.65 570.292,1301.1 591.018,1300.18 611.744,1300.13 632.47,1299.35 653.197,1296.99 673.923,1296.79 694.649,1297.87 715.376,1296.96 736.102,1295.84 756.828,1295.66 777.555,1294.06 798.281,1292.67 819.007,1289.12 839.734,1289.04 860.46,1288.29 881.186,1288.9 901.913,1286.94 922.639,1285.77 943.365,1281.26 964.092,1282.3 984.818,1278.99 1005.54,1281.81 1026.27,1282.86 1047,1282.25 1067.72,1281.23 1088.45,1279.02 1109.18,1274.22 1129.9,1274.43 1150.63,1271.04 1171.36,1272.98 1192.08,1270.6 1212.81,1267.47 1233.53,1267.46 1254.26,1269.14 1274.99,1267.96 1295.71,1265.95 1316.44,1263.36 1337.17,1265.01 1357.89,1262 1378.62,1262.71 1399.34,1259.99 1420.07,1260.16 1440.8,1255.33 1461.52,1257.75 1482.25,1253.04 1502.98,1256.34 1523.7,1254.21 1544.43,1255.36 1565.16,1257.7 1585.88,1253.81 1606.61,1249.08 1627.33,1249.52 1648.06,1247.22 1668.79,1242.21 1689.51,1239.12 1710.24,1236.56 1730.97,1238.31 1751.69,1234.14 1772.42,1231.41 1793.14,1227.75 1813.87,1226.71 1834.6,1225.86 1855.32,1222.3 1876.05,1225.38 1896.78,1224.74 1917.5,1220.68 1938.23,1219.37 1958.96,1219.33 1979.68,1216.15 2000.41,1213.55 2021.13,1220.07 2041.86,1214.98 2062.59,1215.85 2083.31,1214.84 2104.04,1207.1 2124.77,1199.75 2145.49,1204.24 2166.22,1205.18 2186.95,1200.82 2207.67,1205.95 2228.4,1205.17 2249.12,1201.53 2269.85,1196.39 2290.58,1194.14 "/>
<path clip-path="url(#clip590)" d="M1790.06 250.738 L2279.52 250.738 L2279.52 95.2176 L1790.06 95.2176  Z" fill="#ffffff" fill-rule="evenodd" fill-opacity="1"/>
<polyline clip-path="url(#clip590)" style="stroke:#000000; stroke-linecap:round; stroke-linejoin:round; stroke-width:4; stroke-opacity:1; fill:none" points="1790.06,250.738 2279.52,250.738 2279.52,95.2176 1790.06,95.2176 1790.06,250.738 "/>
<polyline clip-path="url(#clip590)" style="stroke:#009af9; stroke-linecap:round; stroke-linejoin:round; stroke-width:12; stroke-opacity:1; fill:none" points="1814.47,147.058 1960.93,147.058 "/>
<path clip-path="url(#clip590)" d="M1985.34 129.778 L1992.31 129.778 L2001.13 153.296 L2010 129.778 L2016.96 129.778 L2016.96 164.338 L2012.4 164.338 L2012.4 133.99 L2003.49 157.694 L1998.79 157.694 L1989.88 133.99 L1989.88 164.338 L1985.34 164.338 L1985.34 129.778 Z" fill="#000000" fill-rule="nonzero" fill-opacity="1" /><path clip-path="url(#clip590)" d="M2026.06 138.412 L2030.32 138.412 L2030.32 164.338 L2026.06 164.338 L2026.06 138.412 M2026.06 128.319 L2030.32 128.319 L2030.32 133.713 L2026.06 133.713 L2026.06 128.319 Z" fill="#000000" fill-rule="nonzero" fill-opacity="1" /><path clip-path="url(#clip590)" d="M2056.29 142.347 L2056.29 128.319 L2060.55 128.319 L2060.55 164.338 L2056.29 164.338 L2056.29 160.449 Q2054.95 162.763 2052.89 163.898 Q2050.85 165.009 2047.98 165.009 Q2043.28 165.009 2040.32 161.259 Q2037.38 157.509 2037.38 151.398 Q2037.38 145.287 2040.32 141.537 Q2043.28 137.787 2047.98 137.787 Q2050.85 137.787 2052.89 138.921 Q2054.95 140.032 2056.29 142.347 M2041.78 151.398 Q2041.78 156.097 2043.7 158.782 Q2045.65 161.444 2049.03 161.444 Q2052.4 161.444 2054.35 158.782 Q2056.29 156.097 2056.29 151.398 Q2056.29 146.699 2054.35 144.037 Q2052.4 141.352 2049.03 141.352 Q2045.65 141.352 2043.7 144.037 Q2041.78 146.699 2041.78 151.398 Z" fill="#000000" fill-rule="nonzero" fill-opacity="1" /><path clip-path="url(#clip590)" d="M2086.39 142.347 L2086.39 128.319 L2090.65 128.319 L2090.65 164.338 L2086.39 164.338 L2086.39 160.449 Q2085.04 162.763 2082.98 163.898 Q2080.95 165.009 2078.08 165.009 Q2073.38 165.009 2070.41 161.259 Q2067.47 157.509 2067.47 151.398 Q2067.47 145.287 2070.41 141.537 Q2073.38 137.787 2078.08 137.787 Q2080.95 137.787 2082.98 138.921 Q2085.04 140.032 2086.39 142.347 M2071.87 151.398 Q2071.87 156.097 2073.79 158.782 Q2075.74 161.444 2079.12 161.444 Q2082.5 161.444 2084.44 158.782 Q2086.39 156.097 2086.39 151.398 Q2086.39 146.699 2084.44 144.037 Q2082.5 141.352 2079.12 141.352 Q2075.74 141.352 2073.79 144.037 Q2071.87 146.699 2071.87 151.398 Z" fill="#000000" fill-rule="nonzero" fill-opacity="1" /><path clip-path="url(#clip590)" d="M2099.42 128.319 L2103.68 128.319 L2103.68 164.338 L2099.42 164.338 L2099.42 128.319 Z" fill="#000000" fill-rule="nonzero" fill-opacity="1" /><path clip-path="url(#clip590)" d="M2134.77 150.31 L2134.77 152.393 L2115.18 152.393 Q2115.46 156.791 2117.82 159.106 Q2120.21 161.398 2124.44 161.398 Q2126.89 161.398 2129.19 160.796 Q2131.5 160.194 2133.77 158.99 L2133.77 163.018 Q2131.48 163.99 2129.07 164.5 Q2126.66 165.009 2124.19 165.009 Q2117.98 165.009 2114.35 161.398 Q2110.74 157.787 2110.74 151.629 Q2110.74 145.264 2114.16 141.537 Q2117.61 137.787 2123.45 137.787 Q2128.68 137.787 2131.71 141.166 Q2134.77 144.523 2134.77 150.31 M2130.51 149.06 Q2130.46 145.565 2128.54 143.481 Q2126.64 141.398 2123.49 141.398 Q2119.93 141.398 2117.77 143.412 Q2115.65 145.426 2115.32 149.083 L2130.51 149.06 Z" fill="#000000" fill-rule="nonzero" fill-opacity="1" /><path clip-path="url(#clip590)" d="M2157.57 163.62 L2157.57 159.361 Q2159.33 160.194 2161.13 160.634 Q2162.94 161.074 2164.67 161.074 Q2169.3 161.074 2171.73 157.972 Q2174.19 154.847 2174.53 148.504 Q2173.19 150.495 2171.13 151.56 Q2169.07 152.625 2166.57 152.625 Q2161.39 152.625 2158.35 149.5 Q2155.34 146.352 2155.34 140.912 Q2155.34 135.588 2158.49 132.37 Q2161.64 129.153 2166.87 129.153 Q2172.87 129.153 2176.02 133.759 Q2179.19 138.342 2179.19 147.092 Q2179.19 155.264 2175.3 160.148 Q2171.43 165.009 2164.88 165.009 Q2163.12 165.009 2161.32 164.662 Q2159.51 164.314 2157.57 163.62 M2166.87 148.967 Q2170.02 148.967 2171.85 146.814 Q2173.7 144.662 2173.7 140.912 Q2173.7 137.185 2171.85 135.032 Q2170.02 132.856 2166.87 132.856 Q2163.72 132.856 2161.87 135.032 Q2160.04 137.185 2160.04 140.912 Q2160.04 144.662 2161.87 146.814 Q2163.72 148.967 2166.87 148.967 Z" fill="#000000" fill-rule="nonzero" fill-opacity="1" /><path clip-path="url(#clip590)" d="M2187.64 129.778 L2205.99 129.778 L2205.99 133.713 L2191.92 133.713 L2191.92 142.185 Q2192.94 141.838 2193.95 141.676 Q2194.97 141.49 2195.99 141.49 Q2201.78 141.49 2205.16 144.662 Q2208.54 147.833 2208.54 153.25 Q2208.54 158.828 2205.07 161.93 Q2201.59 165.009 2195.27 165.009 Q2193.1 165.009 2190.83 164.638 Q2188.58 164.268 2186.18 163.527 L2186.18 158.828 Q2188.26 159.963 2190.48 160.518 Q2192.7 161.074 2195.18 161.074 Q2199.19 161.074 2201.52 158.967 Q2203.86 156.861 2203.86 153.25 Q2203.86 149.639 2201.52 147.532 Q2199.19 145.426 2195.18 145.426 Q2193.31 145.426 2191.43 145.842 Q2189.58 146.259 2187.64 147.139 L2187.64 129.778 Z" fill="#000000" fill-rule="nonzero" fill-opacity="1" /><path clip-path="url(#clip590)" d="M2247.15 149.129 Q2245.14 149.129 2243.98 150.842 Q2242.84 152.555 2242.84 155.611 Q2242.84 158.62 2243.98 160.356 Q2245.14 162.069 2247.15 162.069 Q2249.12 162.069 2250.25 160.356 Q2251.41 158.62 2251.41 155.611 Q2251.41 152.578 2250.25 150.865 Q2249.12 149.129 2247.15 149.129 M2247.15 146.19 Q2250.81 146.19 2252.96 148.736 Q2255.11 151.282 2255.11 155.611 Q2255.11 159.939 2252.94 162.486 Q2250.78 165.009 2247.15 165.009 Q2243.45 165.009 2241.29 162.486 Q2239.14 159.939 2239.14 155.611 Q2239.14 151.259 2241.29 148.736 Q2243.47 146.19 2247.15 146.19 M2223.26 132.092 Q2221.27 132.092 2220.11 133.828 Q2218.98 135.541 2218.98 138.551 Q2218.98 141.606 2220.11 143.319 Q2221.25 145.032 2223.26 145.032 Q2225.27 145.032 2226.41 143.319 Q2227.57 141.606 2227.57 138.551 Q2227.57 135.565 2226.41 133.828 Q2225.25 132.092 2223.26 132.092 M2244.16 129.153 L2247.87 129.153 L2226.25 165.009 L2222.54 165.009 L2244.16 129.153 M2223.26 129.153 Q2226.92 129.153 2229.09 131.699 Q2231.27 134.222 2231.27 138.551 Q2231.27 142.926 2229.09 145.449 Q2226.94 147.972 2223.26 147.972 Q2219.58 147.972 2217.43 145.449 Q2215.3 142.902 2215.3 138.551 Q2215.3 134.245 2217.45 131.699 Q2219.6 129.153 2223.26 129.153 Z" fill="#000000" fill-rule="nonzero" fill-opacity="1" /><polyline clip-path="url(#clip590)" style="stroke:#e26f46; stroke-linecap:round; stroke-linejoin:round; stroke-width:12; stroke-opacity:1; fill:none" points="1814.47,198.898 1960.93,198.898 "/>
<path clip-path="url(#clip590)" d="M1985.34 181.618 L1992.31 181.618 L2001.13 205.136 L2010 181.618 L2016.96 181.618 L2016.96 216.178 L2012.4 216.178 L2012.4 185.83 L2003.49 209.534 L1998.79 209.534 L1989.88 185.83 L1989.88 216.178 L1985.34 216.178 L1985.34 181.618 Z" fill="#000000" fill-rule="nonzero" fill-opacity="1" /><path clip-path="url(#clip590)" d="M2026.06 190.252 L2030.32 190.252 L2030.32 216.178 L2026.06 216.178 L2026.06 190.252 M2026.06 180.159 L2030.32 180.159 L2030.32 185.553 L2026.06 185.553 L2026.06 180.159 Z" fill="#000000" fill-rule="nonzero" fill-opacity="1" /><path clip-path="url(#clip590)" d="M2056.29 194.187 L2056.29 180.159 L2060.55 180.159 L2060.55 216.178 L2056.29 216.178 L2056.29 212.289 Q2054.95 214.603 2052.89 215.738 Q2050.85 216.849 2047.98 216.849 Q2043.28 216.849 2040.32 213.099 Q2037.38 209.349 2037.38 203.238 Q2037.38 197.127 2040.32 193.377 Q2043.28 189.627 2047.98 189.627 Q2050.85 189.627 2052.89 190.761 Q2054.95 191.872 2056.29 194.187 M2041.78 203.238 Q2041.78 207.937 2043.7 210.622 Q2045.65 213.284 2049.03 213.284 Q2052.4 213.284 2054.35 210.622 Q2056.29 207.937 2056.29 203.238 Q2056.29 198.539 2054.35 195.877 Q2052.4 193.192 2049.03 193.192 Q2045.65 193.192 2043.7 195.877 Q2041.78 198.539 2041.78 203.238 Z" fill="#000000" fill-rule="nonzero" fill-opacity="1" /><path clip-path="url(#clip590)" d="M2086.39 194.187 L2086.39 180.159 L2090.65 180.159 L2090.65 216.178 L2086.39 216.178 L2086.39 212.289 Q2085.04 214.603 2082.98 215.738 Q2080.95 216.849 2078.08 216.849 Q2073.38 216.849 2070.41 213.099 Q2067.47 209.349 2067.47 203.238 Q2067.47 197.127 2070.41 193.377 Q2073.38 189.627 2078.08 189.627 Q2080.95 189.627 2082.98 190.761 Q2085.04 191.872 2086.39 194.187 M2071.87 203.238 Q2071.87 207.937 2073.79 210.622 Q2075.74 213.284 2079.12 213.284 Q2082.5 213.284 2084.44 210.622 Q2086.39 207.937 2086.39 203.238 Q2086.39 198.539 2084.44 195.877 Q2082.5 193.192 2079.12 193.192 Q2075.74 193.192 2073.79 195.877 Q2071.87 198.539 2071.87 203.238 Z" fill="#000000" fill-rule="nonzero" fill-opacity="1" /><path clip-path="url(#clip590)" d="M2099.42 180.159 L2103.68 180.159 L2103.68 216.178 L2099.42 216.178 L2099.42 180.159 Z" fill="#000000" fill-rule="nonzero" fill-opacity="1" /><path clip-path="url(#clip590)" d="M2134.77 202.15 L2134.77 204.233 L2115.18 204.233 Q2115.46 208.631 2117.82 210.946 Q2120.21 213.238 2124.44 213.238 Q2126.89 213.238 2129.19 212.636 Q2131.5 212.034 2133.77 210.83 L2133.77 214.858 Q2131.48 215.83 2129.07 216.34 Q2126.66 216.849 2124.19 216.849 Q2117.98 216.849 2114.35 213.238 Q2110.74 209.627 2110.74 203.469 Q2110.74 197.104 2114.16 193.377 Q2117.61 189.627 2123.45 189.627 Q2128.68 189.627 2131.71 193.006 Q2134.77 196.363 2134.77 202.15 M2130.51 200.9 Q2130.46 197.405 2128.54 195.321 Q2126.64 193.238 2123.49 193.238 Q2119.93 193.238 2117.77 195.252 Q2115.65 197.266 2115.32 200.923 L2130.51 200.9 Z" fill="#000000" fill-rule="nonzero" fill-opacity="1" /><path clip-path="url(#clip590)" d="M2157.47 181.618 L2175.83 181.618 L2175.83 185.553 L2161.76 185.553 L2161.76 194.025 Q2162.77 193.678 2163.79 193.516 Q2164.81 193.33 2165.83 193.33 Q2171.62 193.33 2175 196.502 Q2178.38 199.673 2178.38 205.09 Q2178.38 210.668 2174.9 213.77 Q2171.43 216.849 2165.11 216.849 Q2162.94 216.849 2160.67 216.478 Q2158.42 216.108 2156.02 215.367 L2156.02 210.668 Q2158.1 211.803 2160.32 212.358 Q2162.54 212.914 2165.02 212.914 Q2169.02 212.914 2171.36 210.807 Q2173.7 208.701 2173.7 205.09 Q2173.7 201.479 2171.36 199.372 Q2169.02 197.266 2165.02 197.266 Q2163.14 197.266 2161.27 197.682 Q2159.42 198.099 2157.47 198.979 L2157.47 181.618 Z" fill="#000000" fill-rule="nonzero" fill-opacity="1" /><path clip-path="url(#clip590)" d="M2197.59 184.696 Q2193.98 184.696 2192.15 188.261 Q2190.34 191.803 2190.34 198.932 Q2190.34 206.039 2192.15 209.604 Q2193.98 213.145 2197.59 213.145 Q2201.22 213.145 2203.03 209.604 Q2204.86 206.039 2204.86 198.932 Q2204.86 191.803 2203.03 188.261 Q2201.22 184.696 2197.59 184.696 M2197.59 180.993 Q2203.4 180.993 2206.45 185.599 Q2209.53 190.182 2209.53 198.932 Q2209.53 207.659 2206.45 212.266 Q2203.4 216.849 2197.59 216.849 Q2191.78 216.849 2188.7 212.266 Q2185.64 207.659 2185.64 198.932 Q2185.64 190.182 2188.7 185.599 Q2191.78 180.993 2197.59 180.993 Z" fill="#000000" fill-rule="nonzero" fill-opacity="1" /><path clip-path="url(#clip590)" d="M2247.15 200.969 Q2245.14 200.969 2243.98 202.682 Q2242.84 204.395 2242.84 207.451 Q2242.84 210.46 2243.98 212.196 Q2245.14 213.909 2247.15 213.909 Q2249.12 213.909 2250.25 212.196 Q2251.41 210.46 2251.41 207.451 Q2251.41 204.418 2250.25 202.705 Q2249.12 200.969 2247.15 200.969 M2247.15 198.03 Q2250.81 198.03 2252.96 200.576 Q2255.11 203.122 2255.11 207.451 Q2255.11 211.779 2252.94 214.326 Q2250.78 216.849 2247.15 216.849 Q2243.45 216.849 2241.29 214.326 Q2239.14 211.779 2239.14 207.451 Q2239.14 203.099 2241.29 200.576 Q2243.47 198.03 2247.15 198.03 M2223.26 183.932 Q2221.27 183.932 2220.11 185.668 Q2218.98 187.381 2218.98 190.391 Q2218.98 193.446 2220.11 195.159 Q2221.25 196.872 2223.26 196.872 Q2225.27 196.872 2226.41 195.159 Q2227.57 193.446 2227.57 190.391 Q2227.57 187.405 2226.41 185.668 Q2225.25 183.932 2223.26 183.932 M2244.16 180.993 L2247.87 180.993 L2226.25 216.849 L2222.54 216.849 L2244.16 180.993 M2223.26 180.993 Q2226.92 180.993 2229.09 183.539 Q2231.27 186.062 2231.27 190.391 Q2231.27 194.766 2229.09 197.289 Q2226.94 199.812 2223.26 199.812 Q2219.58 199.812 2217.43 197.289 Q2215.3 194.742 2215.3 190.391 Q2215.3 186.085 2217.45 183.539 Q2219.6 180.993 2223.26 180.993 Z" fill="#000000" fill-rule="nonzero" fill-opacity="1" /></svg>
