<?xml version="1.0" encoding="utf-8"?>
<svg xmlns="http://www.w3.org/2000/svg" xmlns:xlink="http://www.w3.org/1999/xlink" width="600" height="400" viewBox="0 0 2400 1600">
<defs>
  <clipPath id="clip650">
    <rect x="0" y="0" width="2400" height="1600"/>
  </clipPath>
</defs>
<path clip-path="url(#clip650)" d="M0 1600 L2400 1600 L2400 0 L0 0  Z" fill="#ffffff" fill-rule="evenodd" fill-opacity="1"/>
<defs>
  <clipPath id="clip651">
    <rect x="112" y="47" width="2242" height="1377"/>
  </clipPath>
</defs>
<path clip-path="url(#clip650)" d="M112.177 1423.18 L2352.76 1423.18 L2352.76 47.2441 L112.177 47.2441  Z" fill="#ffffff" fill-rule="evenodd" fill-opacity="1"/>
<polyline clip-path="url(#clip651)" style="stroke:#000000; stroke-linecap:round; stroke-linejoin:round; stroke-width:2; stroke-opacity:0.1; fill:none" points="112.177,1423.18 112.177,47.2441 "/>
<polyline clip-path="url(#clip651)" style="stroke:#000000; stroke-linecap:round; stroke-linejoin:round; stroke-width:2; stroke-opacity:0.1; fill:none" points="560.293,1423.18 560.293,47.2441 "/>
<polyline clip-path="url(#clip651)" style="stroke:#000000; stroke-linecap:round; stroke-linejoin:round; stroke-width:2; stroke-opacity:0.1; fill:none" points="1008.41,1423.18 1008.41,47.2441 "/>
<polyline clip-path="url(#clip651)" style="stroke:#000000; stroke-linecap:round; stroke-linejoin:round; stroke-width:2; stroke-opacity:0.1; fill:none" points="1456.52,1423.18 1456.52,47.2441 "/>
<polyline clip-path="url(#clip651)" style="stroke:#000000; stroke-linecap:round; stroke-linejoin:round; stroke-width:2; stroke-opacity:0.1; fill:none" points="1904.64,1423.18 1904.64,47.2441 "/>
<polyline clip-path="url(#clip651)" style="stroke:#000000; stroke-linecap:round; stroke-linejoin:round; stroke-width:2; stroke-opacity:0.1; fill:none" points="2352.76,1423.18 2352.76,47.2441 "/>
<polyline clip-path="url(#clip651)" style="stroke:#000000; stroke-linecap:round; stroke-linejoin:round; stroke-width:2; stroke-opacity:0.1; fill:none" points="112.177,1388.43 2352.76,1388.43 "/>
<polyline clip-path="url(#clip651)" style="stroke:#000000; stroke-linecap:round; stroke-linejoin:round; stroke-width:2; stroke-opacity:0.1; fill:none" points="112.177,1038.87 2352.76,1038.87 "/>
<polyline clip-path="url(#clip651)" style="stroke:#000000; stroke-linecap:round; stroke-linejoin:round; stroke-width:2; stroke-opacity:0.1; fill:none" points="112.177,689.321 2352.76,689.321 "/>
<polyline clip-path="url(#clip651)" style="stroke:#000000; stroke-linecap:round; stroke-linejoin:round; stroke-width:2; stroke-opacity:0.1; fill:none" points="112.177,339.768 2352.76,339.768 "/>
<polyline clip-path="url(#clip650)" style="stroke:#000000; stroke-linecap:round; stroke-linejoin:round; stroke-width:4; stroke-opacity:1; fill:none" points="112.177,1423.18 2352.76,1423.18 "/>
<polyline clip-path="url(#clip650)" style="stroke:#000000; stroke-linecap:round; stroke-linejoin:round; stroke-width:4; stroke-opacity:1; fill:none" points="112.177,1423.18 112.177,1404.28 "/>
<polyline clip-path="url(#clip650)" style="stroke:#000000; stroke-linecap:round; stroke-linejoin:round; stroke-width:4; stroke-opacity:1; fill:none" points="560.293,1423.18 560.293,1404.28 "/>
<polyline clip-path="url(#clip650)" style="stroke:#000000; stroke-linecap:round; stroke-linejoin:round; stroke-width:4; stroke-opacity:1; fill:none" points="1008.41,1423.18 1008.41,1404.28 "/>
<polyline clip-path="url(#clip650)" style="stroke:#000000; stroke-linecap:round; stroke-linejoin:round; stroke-width:4; stroke-opacity:1; fill:none" points="1456.52,1423.18 1456.52,1404.28 "/>
<polyline clip-path="url(#clip650)" style="stroke:#000000; stroke-linecap:round; stroke-linejoin:round; stroke-width:4; stroke-opacity:1; fill:none" points="1904.64,1423.18 1904.64,1404.28 "/>
<polyline clip-path="url(#clip650)" style="stroke:#000000; stroke-linecap:round; stroke-linejoin:round; stroke-width:4; stroke-opacity:1; fill:none" points="2352.76,1423.18 2352.76,1404.28 "/>
<path clip-path="url(#clip650)" d="M89.5616 1454.1 Q85.9505 1454.1 84.1218 1457.66 Q82.3162 1461.2 82.3162 1468.33 Q82.3162 1475.44 84.1218 1479.01 Q85.9505 1482.55 89.5616 1482.55 Q93.1958 1482.55 95.0013 1479.01 Q96.83 1475.44 96.83 1468.33 Q96.83 1461.2 95.0013 1457.66 Q93.1958 1454.1 89.5616 1454.1 M89.5616 1450.39 Q95.3717 1450.39 98.4272 1455 Q101.506 1459.58 101.506 1468.33 Q101.506 1477.06 98.4272 1481.67 Q95.3717 1486.25 89.5616 1486.25 Q83.7514 1486.25 80.6727 1481.67 Q77.6172 1477.06 77.6172 1468.33 Q77.6172 1459.58 80.6727 1455 Q83.7514 1450.39 89.5616 1450.39 Z" fill="#000000" fill-rule="nonzero" fill-opacity="1" /><path clip-path="url(#clip650)" d="M109.723 1479.7 L114.608 1479.7 L114.608 1485.58 L109.723 1485.58 L109.723 1479.7 Z" fill="#000000" fill-rule="nonzero" fill-opacity="1" /><path clip-path="url(#clip650)" d="M134.793 1454.1 Q131.182 1454.1 129.353 1457.66 Q127.547 1461.2 127.547 1468.33 Q127.547 1475.44 129.353 1479.01 Q131.182 1482.55 134.793 1482.55 Q138.427 1482.55 140.233 1479.01 Q142.061 1475.44 142.061 1468.33 Q142.061 1461.2 140.233 1457.66 Q138.427 1454.1 134.793 1454.1 M134.793 1450.39 Q140.603 1450.39 143.658 1455 Q146.737 1459.58 146.737 1468.33 Q146.737 1477.06 143.658 1481.67 Q140.603 1486.25 134.793 1486.25 Q128.983 1486.25 125.904 1481.67 Q122.848 1477.06 122.848 1468.33 Q122.848 1459.58 125.904 1455 Q128.983 1450.39 134.793 1450.39 Z" fill="#000000" fill-rule="nonzero" fill-opacity="1" /><path clip-path="url(#clip650)" d="M538.476 1454.1 Q534.865 1454.1 533.036 1457.66 Q531.231 1461.2 531.231 1468.33 Q531.231 1475.44 533.036 1479.01 Q534.865 1482.55 538.476 1482.55 Q542.11 1482.55 543.916 1479.01 Q545.744 1475.44 545.744 1468.33 Q545.744 1461.2 543.916 1457.66 Q542.11 1454.1 538.476 1454.1 M538.476 1450.39 Q544.286 1450.39 547.342 1455 Q550.42 1459.58 550.42 1468.33 Q550.42 1477.06 547.342 1481.67 Q544.286 1486.25 538.476 1486.25 Q532.666 1486.25 529.587 1481.67 Q526.532 1477.06 526.532 1468.33 Q526.532 1459.58 529.587 1455 Q532.666 1450.39 538.476 1450.39 Z" fill="#000000" fill-rule="nonzero" fill-opacity="1" /><path clip-path="url(#clip650)" d="M558.638 1479.7 L563.522 1479.7 L563.522 1485.58 L558.638 1485.58 L558.638 1479.7 Z" fill="#000000" fill-rule="nonzero" fill-opacity="1" /><path clip-path="url(#clip650)" d="M577.735 1481.64 L594.054 1481.64 L594.054 1485.58 L572.11 1485.58 L572.11 1481.64 Q574.772 1478.89 579.355 1474.26 Q583.962 1469.61 585.142 1468.27 Q587.388 1465.74 588.267 1464.01 Q589.17 1462.25 589.17 1460.56 Q589.17 1457.8 587.226 1456.07 Q585.304 1454.33 582.203 1454.33 Q580.003 1454.33 577.55 1455.09 Q575.119 1455.86 572.341 1457.41 L572.341 1452.69 Q575.166 1451.55 577.619 1450.97 Q580.073 1450.39 582.11 1450.39 Q587.48 1450.39 590.675 1453.08 Q593.869 1455.77 593.869 1460.26 Q593.869 1462.39 593.059 1464.31 Q592.272 1466.2 590.165 1468.8 Q589.587 1469.47 586.485 1472.69 Q583.383 1475.88 577.735 1481.64 Z" fill="#000000" fill-rule="nonzero" fill-opacity="1" /><path clip-path="url(#clip650)" d="M985.55 1454.1 Q981.939 1454.1 980.11 1457.66 Q978.305 1461.2 978.305 1468.33 Q978.305 1475.44 980.11 1479.01 Q981.939 1482.55 985.55 1482.55 Q989.184 1482.55 990.99 1479.01 Q992.818 1475.44 992.818 1468.33 Q992.818 1461.2 990.99 1457.66 Q989.184 1454.1 985.55 1454.1 M985.55 1450.39 Q991.36 1450.39 994.416 1455 Q997.494 1459.58 997.494 1468.33 Q997.494 1477.06 994.416 1481.67 Q991.36 1486.25 985.55 1486.25 Q979.74 1486.25 976.661 1481.67 Q973.606 1477.06 973.606 1468.33 Q973.606 1459.58 976.661 1455 Q979.74 1450.39 985.55 1450.39 Z" fill="#000000" fill-rule="nonzero" fill-opacity="1" /><path clip-path="url(#clip650)" d="M1005.71 1479.7 L1010.6 1479.7 L1010.6 1485.58 L1005.71 1485.58 L1005.71 1479.7 Z" fill="#000000" fill-rule="nonzero" fill-opacity="1" /><path clip-path="url(#clip650)" d="M1033.63 1455.09 L1021.82 1473.54 L1033.63 1473.54 L1033.63 1455.09 M1032.4 1451.02 L1038.28 1451.02 L1038.28 1473.54 L1043.21 1473.54 L1043.21 1477.43 L1038.28 1477.43 L1038.28 1485.58 L1033.63 1485.58 L1033.63 1477.43 L1018.03 1477.43 L1018.03 1472.92 L1032.4 1451.02 Z" fill="#000000" fill-rule="nonzero" fill-opacity="1" /><path clip-path="url(#clip650)" d="M1433.83 1454.1 Q1430.22 1454.1 1428.39 1457.66 Q1426.58 1461.2 1426.58 1468.33 Q1426.58 1475.44 1428.39 1479.01 Q1430.22 1482.55 1433.83 1482.55 Q1437.46 1482.55 1439.27 1479.01 Q1441.1 1475.44 1441.1 1468.33 Q1441.1 1461.2 1439.27 1457.66 Q1437.46 1454.1 1433.83 1454.1 M1433.83 1450.39 Q1439.64 1450.39 1442.69 1455 Q1445.77 1459.58 1445.77 1468.33 Q1445.77 1477.06 1442.69 1481.67 Q1439.64 1486.25 1433.83 1486.25 Q1428.02 1486.25 1424.94 1481.67 Q1421.88 1477.06 1421.88 1468.33 Q1421.88 1459.58 1424.94 1455 Q1428.02 1450.39 1433.83 1450.39 Z" fill="#000000" fill-rule="nonzero" fill-opacity="1" /><path clip-path="url(#clip650)" d="M1453.99 1479.7 L1458.87 1479.7 L1458.87 1485.58 L1453.99 1485.58 L1453.99 1479.7 Z" fill="#000000" fill-rule="nonzero" fill-opacity="1" /><path clip-path="url(#clip650)" d="M1479.64 1466.44 Q1476.49 1466.44 1474.64 1468.59 Q1472.81 1470.74 1472.81 1474.49 Q1472.81 1478.22 1474.64 1480.39 Q1476.49 1482.55 1479.64 1482.55 Q1482.79 1482.55 1484.61 1480.39 Q1486.47 1478.22 1486.47 1474.49 Q1486.47 1470.74 1484.61 1468.59 Q1482.79 1466.44 1479.64 1466.44 M1488.92 1451.78 L1488.92 1456.04 Q1487.16 1455.21 1485.36 1454.77 Q1483.57 1454.33 1481.81 1454.33 Q1477.18 1454.33 1474.73 1457.45 Q1472.3 1460.58 1471.95 1466.9 Q1473.32 1464.89 1475.38 1463.82 Q1477.44 1462.73 1479.92 1462.73 Q1485.12 1462.73 1488.13 1465.9 Q1491.17 1469.05 1491.17 1474.49 Q1491.17 1479.82 1488.02 1483.03 Q1484.87 1486.25 1479.64 1486.25 Q1473.64 1486.25 1470.47 1481.67 Q1467.3 1477.06 1467.3 1468.33 Q1467.3 1460.14 1471.19 1455.28 Q1475.08 1450.39 1481.63 1450.39 Q1483.39 1450.39 1485.17 1450.74 Q1486.98 1451.09 1488.92 1451.78 Z" fill="#000000" fill-rule="nonzero" fill-opacity="1" /><path clip-path="url(#clip650)" d="M1882.07 1454.1 Q1878.46 1454.1 1876.63 1457.66 Q1874.83 1461.2 1874.83 1468.33 Q1874.83 1475.44 1876.63 1479.01 Q1878.46 1482.55 1882.07 1482.55 Q1885.71 1482.55 1887.51 1479.01 Q1889.34 1475.44 1889.34 1468.33 Q1889.34 1461.2 1887.51 1457.66 Q1885.71 1454.1 1882.07 1454.1 M1882.07 1450.39 Q1887.88 1450.39 1890.94 1455 Q1894.02 1459.58 1894.02 1468.33 Q1894.02 1477.06 1890.94 1481.67 Q1887.88 1486.25 1882.07 1486.25 Q1876.26 1486.25 1873.18 1481.67 Q1870.13 1477.06 1870.13 1468.33 Q1870.13 1459.58 1873.18 1455 Q1876.26 1450.39 1882.07 1450.39 Z" fill="#000000" fill-rule="nonzero" fill-opacity="1" /><path clip-path="url(#clip650)" d="M1902.23 1479.7 L1907.12 1479.7 L1907.12 1485.58 L1902.23 1485.58 L1902.23 1479.7 Z" fill="#000000" fill-rule="nonzero" fill-opacity="1" /><path clip-path="url(#clip650)" d="M1927.3 1469.17 Q1923.97 1469.17 1922.05 1470.95 Q1920.15 1472.73 1920.15 1475.86 Q1920.15 1478.98 1922.05 1480.77 Q1923.97 1482.55 1927.3 1482.55 Q1930.64 1482.55 1932.56 1480.77 Q1934.48 1478.96 1934.48 1475.86 Q1934.48 1472.73 1932.56 1470.95 Q1930.66 1469.17 1927.3 1469.17 M1922.63 1467.18 Q1919.62 1466.44 1917.93 1464.38 Q1916.26 1462.32 1916.26 1459.35 Q1916.26 1455.21 1919.2 1452.8 Q1922.16 1450.39 1927.3 1450.39 Q1932.46 1450.39 1935.4 1452.8 Q1938.34 1455.21 1938.34 1459.35 Q1938.34 1462.32 1936.65 1464.38 Q1934.99 1466.44 1932 1467.18 Q1935.38 1467.96 1937.26 1470.26 Q1939.15 1472.55 1939.15 1475.86 Q1939.15 1480.88 1936.08 1483.57 Q1933.02 1486.25 1927.3 1486.25 Q1921.58 1486.25 1918.51 1483.57 Q1915.45 1480.88 1915.45 1475.86 Q1915.45 1472.55 1917.35 1470.26 Q1919.25 1467.96 1922.63 1467.18 M1920.91 1459.79 Q1920.91 1462.48 1922.58 1463.98 Q1924.27 1465.49 1927.3 1465.49 Q1930.31 1465.49 1932 1463.98 Q1933.71 1462.48 1933.71 1459.79 Q1933.71 1457.11 1932 1455.6 Q1930.31 1454.1 1927.3 1454.1 Q1924.27 1454.1 1922.58 1455.6 Q1920.91 1457.11 1920.91 1459.79 Z" fill="#000000" fill-rule="nonzero" fill-opacity="1" /><path clip-path="url(#clip650)" d="M2319.91 1481.64 L2327.55 1481.64 L2327.55 1455.28 L2319.24 1456.95 L2319.24 1452.69 L2327.5 1451.02 L2332.18 1451.02 L2332.18 1481.64 L2339.82 1481.64 L2339.82 1485.58 L2319.91 1485.58 L2319.91 1481.64 Z" fill="#000000" fill-rule="nonzero" fill-opacity="1" /><path clip-path="url(#clip650)" d="M2349.26 1479.7 L2354.14 1479.7 L2354.14 1485.58 L2349.26 1485.58 L2349.26 1479.7 Z" fill="#000000" fill-rule="nonzero" fill-opacity="1" /><path clip-path="url(#clip650)" d="M2374.33 1454.1 Q2370.72 1454.1 2368.89 1457.66 Q2367.08 1461.2 2367.08 1468.33 Q2367.08 1475.44 2368.89 1479.01 Q2370.72 1482.55 2374.33 1482.55 Q2377.96 1482.55 2379.77 1479.01 Q2381.6 1475.44 2381.6 1468.33 Q2381.6 1461.2 2379.77 1457.66 Q2377.96 1454.1 2374.33 1454.1 M2374.33 1450.39 Q2380.14 1450.39 2383.2 1455 Q2386.27 1459.58 2386.27 1468.33 Q2386.27 1477.06 2383.2 1481.67 Q2380.14 1486.25 2374.33 1486.25 Q2368.52 1486.25 2365.44 1481.67 Q2362.39 1477.06 2362.39 1468.33 Q2362.39 1459.58 2365.44 1455 Q2368.52 1450.39 2374.33 1450.39 Z" fill="#000000" fill-rule="nonzero" fill-opacity="1" /><path clip-path="url(#clip650)" d="M1231.53 1522.27 L1231.53 1532.4 L1243.59 1532.4 L1243.59 1536.95 L1231.53 1536.95 L1231.53 1556.3 Q1231.53 1560.66 1232.71 1561.9 Q1233.91 1563.14 1237.58 1563.14 L1243.59 1563.14 L1243.59 1568.04 L1237.58 1568.04 Q1230.8 1568.04 1228.22 1565.53 Q1225.64 1562.98 1225.64 1556.3 L1225.64 1536.95 L1221.34 1536.95 L1221.34 1532.4 L1225.64 1532.4 L1225.64 1522.27 L1231.53 1522.27 Z" fill="#000000" fill-rule="nonzero" fill-opacity="1" /><polyline clip-path="url(#clip650)" style="stroke:#000000; stroke-linecap:round; stroke-linejoin:round; stroke-width:4; stroke-opacity:1; fill:none" points="112.177,1423.18 112.177,47.2441 "/>
<polyline clip-path="url(#clip650)" style="stroke:#000000; stroke-linecap:round; stroke-linejoin:round; stroke-width:4; stroke-opacity:1; fill:none" points="112.177,1388.43 131.075,1388.43 "/>
<polyline clip-path="url(#clip650)" style="stroke:#000000; stroke-linecap:round; stroke-linejoin:round; stroke-width:4; stroke-opacity:1; fill:none" points="112.177,1038.87 131.075,1038.87 "/>
<polyline clip-path="url(#clip650)" style="stroke:#000000; stroke-linecap:round; stroke-linejoin:round; stroke-width:4; stroke-opacity:1; fill:none" points="112.177,689.321 131.075,689.321 "/>
<polyline clip-path="url(#clip650)" style="stroke:#000000; stroke-linecap:round; stroke-linejoin:round; stroke-width:4; stroke-opacity:1; fill:none" points="112.177,339.768 131.075,339.768 "/>
<path clip-path="url(#clip650)" d="M64.2328 1374.23 Q60.6217 1374.23 58.793 1377.79 Q56.9875 1381.33 56.9875 1388.46 Q56.9875 1395.57 58.793 1399.13 Q60.6217 1402.68 64.2328 1402.68 Q67.867 1402.68 69.6726 1399.13 Q71.5013 1395.57 71.5013 1388.46 Q71.5013 1381.33 69.6726 1377.79 Q67.867 1374.23 64.2328 1374.23 M64.2328 1370.52 Q70.0429 1370.52 73.0985 1375.13 Q76.1772 1379.71 76.1772 1388.46 Q76.1772 1397.19 73.0985 1401.8 Q70.0429 1406.38 64.2328 1406.38 Q58.4226 1406.38 55.344 1401.8 Q52.2884 1397.19 52.2884 1388.46 Q52.2884 1379.71 55.344 1375.13 Q58.4226 1370.52 64.2328 1370.52 Z" fill="#000000" fill-rule="nonzero" fill-opacity="1" /><path clip-path="url(#clip650)" d="M59.8578 1052.22 L76.1772 1052.22 L76.1772 1056.15 L54.2328 1056.15 L54.2328 1052.22 Q56.8949 1049.47 61.4782 1044.84 Q66.0846 1040.18 67.2652 1038.84 Q69.5105 1036.32 70.3902 1034.58 Q71.2929 1032.82 71.2929 1031.13 Q71.2929 1028.38 69.3485 1026.64 Q67.4272 1024.91 64.3254 1024.91 Q62.1263 1024.91 59.6726 1025.67 Q57.2421 1026.43 54.4643 1027.98 L54.4643 1023.26 Q57.2884 1022.13 59.7421 1021.55 Q62.1958 1020.97 64.2328 1020.97 Q69.6031 1020.97 72.7976 1023.66 Q75.992 1026.34 75.992 1030.83 Q75.992 1032.96 75.1818 1034.88 Q74.3948 1036.78 72.2883 1039.37 Q71.7096 1040.04 68.6078 1043.26 Q65.5059 1046.46 59.8578 1052.22 Z" fill="#000000" fill-rule="nonzero" fill-opacity="1" /><path clip-path="url(#clip650)" d="M66.5939 676.115 L54.7884 694.564 L66.5939 694.564 L66.5939 676.115 M65.367 672.041 L71.2466 672.041 L71.2466 694.564 L76.1772 694.564 L76.1772 698.453 L71.2466 698.453 L71.2466 706.601 L66.5939 706.601 L66.5939 698.453 L50.9921 698.453 L50.9921 693.939 L65.367 672.041 Z" fill="#000000" fill-rule="nonzero" fill-opacity="1" /><path clip-path="url(#clip650)" d="M64.6495 337.904 Q61.5013 337.904 59.6495 340.057 Q57.8208 342.21 57.8208 345.96 Q57.8208 349.687 59.6495 351.863 Q61.5013 354.015 64.6495 354.015 Q67.7976 354.015 69.6263 351.863 Q71.4781 349.687 71.4781 345.96 Q71.4781 342.21 69.6263 340.057 Q67.7976 337.904 64.6495 337.904 M73.9318 323.252 L73.9318 327.511 Q72.1726 326.678 70.367 326.238 Q68.5846 325.798 66.8254 325.798 Q62.1958 325.798 59.7421 328.923 Q57.3115 332.048 56.9643 338.367 Q58.33 336.354 60.3902 335.289 Q62.4504 334.201 64.9272 334.201 Q70.1355 334.201 73.1448 337.372 Q76.1772 340.52 76.1772 345.96 Q76.1772 351.284 73.029 354.502 Q69.8809 357.719 64.6495 357.719 Q58.6541 357.719 55.4828 353.136 Q52.3116 348.529 52.3116 339.803 Q52.3116 331.608 56.2004 326.747 Q60.0893 321.863 66.6402 321.863 Q68.3994 321.863 70.1818 322.21 Q71.9874 322.557 73.9318 323.252 Z" fill="#000000" fill-rule="nonzero" fill-opacity="1" /><polyline clip-path="url(#clip651)" style="stroke:#009af9; stroke-linecap:round; stroke-linejoin:round; stroke-width:4; stroke-opacity:1; fill:none" points="112.177,1346.42 113.037,1346.11 113.954,1345.7 114.987,1345.44 116.149,1346.93 117.456,1348.07 118.926,1349.07 120.58,1349.44 122.441,1350.78 124.534,1351.23 126.889,1350.77 129.539,1351.02 132.52,1351.44 135.873,1351.44 139.645,1350.29 143.889,1350.28 148.664,1350.35 154.035,1348.46 160.078,1348.95 166.876,1347.38 174.523,1348.04 183.127,1346.62 192.806,1342.24 203.695,1338.61 215.946,1339.76 229.727,1344.82 245.231,1343.17 262.674,1346.99 282.296,1348.25 304.372,1353.59 329.206,1354.63 357.146,1348.52 388.577,1354.01 420.697,1355.1 456.831,1352.97 497.483,1355.57 539.753,1356.67 587.307,1355.95 640.805,1358.03 700.99,1338.17 762.991,1347.32 826.187,1351.2 896.105,1346.68 974.763,1350.57 1040.1,1341.6 1113.61,1338.31 1192.72,1325.36 1281.72,1327.74 1347.98,1313.35 1422.52,1298.4 1506.38,1277.48 1600.71,1202.59 1670.84,1160.24 1735.92,1220.5 1782.05,1183.82 1833.95,1145.67 1884.28,1153.01 1928.52,1150.03 1978.28,1071.11 2034.26,1076 2079.52,1089.2 2126.1,1080.21 2178.5,1099.5 2222.94,1124.95 2268.87,1105.29 2320.54,1052.24 2352.76,1065.59 "/>
<polyline clip-path="url(#clip651)" style="stroke:#e26f46; stroke-linecap:round; stroke-linejoin:round; stroke-width:4; stroke-opacity:1; fill:none" points="112.177,1225.73 113.037,1224.52 113.954,1222.91 114.987,1221.89 116.149,1227.7 117.456,1232.11 118.926,1235.98 120.58,1237.41 122.441,1242.59 124.534,1244.35 126.889,1242.55 129.539,1243.51 132.52,1245.16 135.873,1245.16 139.645,1240.68 143.889,1240.65 148.664,1240.93 154.035,1233.61 160.078,1235.53 166.876,1229.45 174.523,1232 183.127,1226.49 192.806,1209.51 203.695,1195.47 215.946,1199.92 229.727,1219.51 245.231,1213.13 262.674,1227.92 282.296,1232.82 304.372,1253.48 329.206,1257.52 357.146,1233.83 388.577,1255.13 420.697,1259.33 456.831,1251.08 497.483,1261.16 539.753,1265.4 587.307,1262.61 640.805,1270.69 700.99,1193.75 762.991,1229.19 826.187,1244.24 896.105,1226.71 974.763,1241.77 1040.1,1207.05 1113.61,1194.31 1192.72,1144.12 1281.72,1153.34 1347.98,1097.6 1422.52,1039.69 1506.38,958.67 1600.71,668.597 1670.84,504.529 1735.92,737.956 1782.05,595.881 1833.95,448.115 1884.28,476.546 1928.52,464.985 1978.28,159.281 2034.26,178.218 2079.52,229.35 2126.1,194.533 2178.5,269.255 2222.94,367.862 2268.87,291.681 2320.54,86.1857 2352.76,137.925 "/>
<polyline clip-path="url(#clip651)" style="stroke:#3da44d; stroke-linecap:round; stroke-linejoin:round; stroke-width:4; stroke-opacity:1; fill:none" points="112.177,1382.64 113.037,1382.59 113.954,1382.54 114.987,1382.5 116.149,1382.71 117.456,1382.87 118.926,1383 120.58,1383.05 122.441,1383.24 124.534,1383.3 126.889,1383.24 129.539,1383.27 132.52,1383.33 135.873,1383.33 139.645,1383.17 143.889,1383.17 148.664,1383.18 154.035,1382.92 160.078,1382.99 166.876,1382.77 174.523,1382.86 183.127,1382.67 192.806,1382.06 203.695,1381.56 215.946,1381.72 229.727,1382.42 245.231,1382.19 262.674,1382.72 282.296,1382.89 304.372,1383.63 329.206,1383.77 357.146,1382.93 388.577,1383.68 420.697,1383.83 456.831,1383.54 497.483,1383.9 539.753,1384.05 587.307,1383.95 640.805,1384.24 700.99,1381.5 762.991,1382.76 826.187,1383.3 896.105,1382.67 974.763,1383.21 1040.1,1381.97 1113.61,1381.52 1192.72,1379.73 1281.72,1380.06 1347.98,1378.08 1422.52,1376.02 1506.38,1373.13 1600.71,1362.81 1670.84,1356.97 1735.92,1365.28 1782.05,1360.22 1833.95,1354.96 1884.28,1355.97 1928.52,1355.56 1978.28,1344.68 2034.26,1345.36 2079.52,1347.18 2126.1,1345.94 2178.5,1348.6 2222.94,1352.11 2268.87,1349.4 2320.54,1342.08 2352.76,1343.92 "/>
<polyline clip-path="url(#clip651)" style="stroke:#c271d2; stroke-linecap:round; stroke-linejoin:round; stroke-width:4; stroke-opacity:1; fill:none" points="112.177,1365.62 113.037,1365.45 113.954,1365.23 114.987,1365.09 116.149,1365.9 117.456,1366.52 118.926,1367.06 120.58,1367.26 122.441,1367.99 124.534,1368.23 126.889,1367.98 129.539,1368.12 132.52,1368.35 135.873,1368.35 139.645,1367.72 143.889,1367.72 148.664,1367.76 154.035,1366.73 160.078,1367 166.876,1366.15 174.523,1366.5 183.127,1365.73 192.806,1363.35 203.695,1361.38 215.946,1362.01 229.727,1364.75 245.231,1363.86 262.674,1365.93 282.296,1366.62 304.372,1369.51 329.206,1370.08 357.146,1366.76 388.577,1369.74 420.697,1370.33 456.831,1369.18 497.483,1370.59 539.753,1371.18 587.307,1370.79 640.805,1371.93 700.99,1361.14 762.991,1366.11 826.187,1368.22 896.105,1365.76 974.763,1367.87 1040.1,1363.01 1113.61,1361.22 1192.72,1354.19 1281.72,1355.48 1347.98,1347.67 1422.52,1339.55 1506.38,1328.19 1600.71,1287.54 1670.84,1264.54 1735.92,1297.26 1782.05,1277.34 1833.95,1256.63 1884.28,1260.62 1928.52,1259 1978.28,1216.15 2034.26,1218.8 2079.52,1225.97 2126.1,1221.09 2178.5,1231.56 2222.94,1245.39 2268.87,1234.71 2320.54,1205.91 2352.76,1213.16 "/>
<polyline clip-path="url(#clip651)" style="stroke:#ac8d18; stroke-linecap:round; stroke-linejoin:round; stroke-width:4; stroke-opacity:1; fill:none" points="112.177,1277.85 113.037,1277.02 113.954,1275.93 114.987,1275.24 116.149,1279.19 117.456,1282.19 118.926,1284.81 120.58,1285.78 122.441,1289.31 124.534,1290.5 126.889,1289.28 129.539,1289.93 132.52,1291.05 135.873,1291.05 139.645,1288.01 143.889,1287.99 148.664,1288.18 154.035,1283.2 160.078,1284.51 166.876,1280.37 174.523,1282.11 183.127,1278.37 192.806,1266.82 203.695,1257.28 215.946,1260.31 229.727,1273.62 245.231,1269.28 262.674,1279.34 282.296,1282.66 304.372,1296.71 329.206,1299.45 357.146,1283.35 388.577,1297.83 420.697,1300.68 456.831,1295.08 497.483,1301.93 539.753,1304.81 587.307,1302.91 640.805,1308.41 700.99,1256.12 762.991,1280.2 826.187,1290.43 896.105,1278.52 974.763,1288.75 1040.1,1265.15 1113.61,1256.49 1192.72,1222.38 1281.72,1228.65 1347.98,1190.77 1422.52,1151.4 1506.38,1096.34 1600.71,899.189 1670.84,787.678 1735.92,946.329 1782.05,849.767 1833.95,749.336 1884.28,768.659 1928.52,760.801 1978.28,553.027 2034.26,565.898 2079.52,600.65 2126.1,576.986 2178.5,627.772 2222.94,694.791 2268.87,643.014 2320.54,503.347 2352.76,538.512 "/>
<polyline clip-path="url(#clip651)" style="stroke:#00a9ad; stroke-linecap:round; stroke-linejoin:round; stroke-width:4; stroke-opacity:1; fill:none" points="112.177,1297.17 113.037,1296.49 113.954,1295.59 114.987,1295.02 116.149,1298.28 117.456,1300.75 118.926,1302.92 120.58,1303.72 122.441,1306.63 124.534,1307.61 126.889,1306.61 129.539,1307.15 132.52,1308.07 135.873,1308.07 139.645,1305.56 143.889,1305.54 148.664,1305.7 154.035,1301.59 160.078,1302.67 166.876,1299.26 174.523,1300.69 183.127,1297.6 192.806,1288.07 203.695,1280.2 215.946,1282.7 229.727,1293.69 245.231,1290.11 262.674,1298.4 282.296,1301.15 304.372,1312.74 329.206,1315 357.146,1301.71 388.577,1313.66 420.697,1316.02 456.831,1311.39 497.483,1317.04 539.753,1319.42 587.307,1317.86 640.805,1322.39 700.99,1279.24 762.991,1299.11 826.187,1307.56 896.105,1297.72 974.763,1306.17 1040.1,1286.7 1113.61,1279.55 1192.72,1251.4 1281.72,1256.57 1347.98,1225.31 1422.52,1192.82 1506.38,1147.38 1600.71,984.686 1670.84,892.662 1735.92,1023.59 1782.05,943.9 1833.95,861.02 1884.28,876.967 1928.52,870.482 1978.28,699.018 2034.26,709.639 2079.52,738.318 2126.1,718.79 2178.5,760.701 2222.94,816.007 2268.87,773.279 2320.54,658.019 2352.76,687.039 "/>
<polyline clip-path="url(#clip651)" style="stroke:#ed5d92; stroke-linecap:round; stroke-linejoin:round; stroke-width:4; stroke-opacity:1; fill:none" points="112.177,1356.77 113.037,1356.54 113.954,1356.22 114.987,1356.03 116.149,1357.15 117.456,1358.01 118.926,1358.77 120.58,1359.04 122.441,1360.05 124.534,1360.39 126.889,1360.04 129.539,1360.23 132.52,1360.55 135.873,1360.55 139.645,1359.68 143.889,1359.67 148.664,1359.73 154.035,1358.3 160.078,1358.68 166.876,1357.49 174.523,1357.99 183.127,1356.92 192.806,1353.62 203.695,1350.88 215.946,1351.75 229.727,1355.56 245.231,1354.32 262.674,1357.2 282.296,1358.15 304.372,1362.17 329.206,1362.96 357.146,1358.35 388.577,1362.49 420.697,1363.31 456.831,1361.7 497.483,1363.67 539.753,1364.49 587.307,1363.95 640.805,1365.52 700.99,1350.55 762.991,1357.44 826.187,1360.37 896.105,1356.96 974.763,1359.89 1040.1,1353.14 1113.61,1350.66 1192.72,1340.89 1281.72,1342.69 1347.98,1331.84 1422.52,1320.57 1506.38,1304.81 1600.71,1248.37 1670.84,1216.44 1735.92,1261.86 1782.05,1234.22 1833.95,1205.47 1884.28,1211 1928.52,1208.75 1978.28,1149.27 2034.26,1152.95 2079.52,1162.9 2126.1,1156.13 2178.5,1170.67 2222.94,1189.85 2268.87,1175.03 2320.54,1135.05 2352.76,1145.11 "/>
<polyline clip-path="url(#clip651)" style="stroke:#c68125; stroke-linecap:round; stroke-linejoin:round; stroke-width:4; stroke-opacity:1; fill:none" points="112.177,1328.01 113.037,1327.56 113.954,1326.96 114.987,1326.58 116.149,1328.74 117.456,1330.38 118.926,1331.81 120.58,1332.34 122.441,1334.27 124.534,1334.92 126.889,1334.25 129.539,1334.61 132.52,1335.22 135.873,1335.22 139.645,1333.56 143.889,1333.55 148.664,1333.65 154.035,1330.93 160.078,1331.64 166.876,1329.39 174.523,1330.33 183.127,1328.29 192.806,1321.98 203.695,1316.77 215.946,1318.42 229.727,1325.7 245.231,1323.33 262.674,1328.82 282.296,1330.64 304.372,1338.31 329.206,1339.81 357.146,1331.01 388.577,1338.92 420.697,1340.48 456.831,1337.42 497.483,1341.16 539.753,1342.74 587.307,1341.7 640.805,1344.7 700.99,1316.13 762.991,1329.29 826.187,1334.88 896.105,1328.37 974.763,1333.96 1040.1,1321.07 1113.61,1316.34 1192.72,1297.7 1281.72,1301.12 1347.98,1280.42 1422.52,1258.92 1506.38,1228.83 1600.71,1121.1 1670.84,1060.17 1735.92,1146.86 1782.05,1094.1 1833.95,1039.22 1884.28,1049.78 1928.52,1045.49 1978.28,931.956 2034.26,938.988 2079.52,957.977 2126.1,945.047 2178.5,972.797 2222.94,1009.42 2268.87,981.126 2320.54,904.81 2352.76,924.025 "/>
<path clip-path="url(#clip650)" d="M186.863 559.669 L500.018 559.669 L500.018 93.1086 L186.863 93.1086  Z" fill="#ffffff" fill-rule="evenodd" fill-opacity="1"/>
<polyline clip-path="url(#clip650)" style="stroke:#000000; stroke-linecap:round; stroke-linejoin:round; stroke-width:4; stroke-opacity:1; fill:none" points="186.863,559.669 500.018,559.669 500.018,93.1086 186.863,93.1086 186.863,559.669 "/>
<polyline clip-path="url(#clip650)" style="stroke:#009af9; stroke-linecap:round; stroke-linejoin:round; stroke-width:4; stroke-opacity:1; fill:none" points="211.758,144.949 361.13,144.949 "/>
<path clip-path="url(#clip650)" d="M386.026 151.997 L386.026 136.303 L390.285 136.303 L390.285 151.835 Q390.285 155.516 391.72 157.368 Q393.155 159.196 396.026 159.196 Q399.475 159.196 401.465 156.997 Q403.479 154.798 403.479 151.002 L403.479 136.303 L407.739 136.303 L407.739 162.229 L403.479 162.229 L403.479 158.247 Q401.928 160.608 399.868 161.766 Q397.831 162.9 395.123 162.9 Q390.655 162.9 388.34 160.122 Q386.026 157.344 386.026 151.997 M396.743 135.678 L396.743 135.678 Z" fill="#000000" fill-rule="nonzero" fill-opacity="1" /><path clip-path="url(#clip650)" d="M416.118 126.21 L425.933 126.21 L425.933 129.52 L420.377 129.52 L420.377 165.168 L425.933 165.168 L425.933 168.479 L416.118 168.479 L416.118 126.21 Z" fill="#000000" fill-rule="nonzero" fill-opacity="1" /><path clip-path="url(#clip650)" d="M436.419 158.293 L444.058 158.293 L444.058 131.928 L435.748 133.595 L435.748 129.335 L444.011 127.669 L448.687 127.669 L448.687 158.293 L456.326 158.293 L456.326 162.229 L436.419 162.229 L436.419 158.293 Z" fill="#000000" fill-rule="nonzero" fill-opacity="1" /><path clip-path="url(#clip650)" d="M475.122 126.21 L475.122 168.479 L465.308 168.479 L465.308 165.168 L470.84 165.168 L470.84 129.52 L465.308 129.52 L465.308 126.21 L475.122 126.21 Z" fill="#000000" fill-rule="nonzero" fill-opacity="1" /><polyline clip-path="url(#clip650)" style="stroke:#e26f46; stroke-linecap:round; stroke-linejoin:round; stroke-width:4; stroke-opacity:1; fill:none" points="211.758,196.789 361.13,196.789 "/>
<path clip-path="url(#clip650)" d="M386.026 203.837 L386.026 188.143 L390.285 188.143 L390.285 203.675 Q390.285 207.356 391.72 209.208 Q393.155 211.036 396.026 211.036 Q399.475 211.036 401.465 208.837 Q403.479 206.638 403.479 202.842 L403.479 188.143 L407.739 188.143 L407.739 214.069 L403.479 214.069 L403.479 210.087 Q401.928 212.448 399.868 213.606 Q397.831 214.74 395.123 214.74 Q390.655 214.74 388.34 211.962 Q386.026 209.184 386.026 203.837 M396.743 187.518 L396.743 187.518 Z" fill="#000000" fill-rule="nonzero" fill-opacity="1" /><path clip-path="url(#clip650)" d="M416.118 178.05 L425.933 178.05 L425.933 181.36 L420.377 181.36 L420.377 217.008 L425.933 217.008 L425.933 220.319 L416.118 220.319 L416.118 178.05 Z" fill="#000000" fill-rule="nonzero" fill-opacity="1" /><path clip-path="url(#clip650)" d="M439.637 210.133 L455.956 210.133 L455.956 214.069 L434.012 214.069 L434.012 210.133 Q436.674 207.379 441.257 202.749 Q445.863 198.096 447.044 196.754 Q449.289 194.231 450.169 192.495 Q451.072 190.735 451.072 189.046 Q451.072 186.291 449.127 184.555 Q447.206 182.819 444.104 182.819 Q441.905 182.819 439.451 183.583 Q437.021 184.347 434.243 185.897 L434.243 181.175 Q437.067 180.041 439.521 179.462 Q441.974 178.884 444.011 178.884 Q449.382 178.884 452.576 181.569 Q455.771 184.254 455.771 188.745 Q455.771 190.874 454.961 192.796 Q454.173 194.694 452.067 197.286 Q451.488 197.958 448.386 201.175 Q445.285 204.37 439.637 210.133 Z" fill="#000000" fill-rule="nonzero" fill-opacity="1" /><path clip-path="url(#clip650)" d="M475.122 178.05 L475.122 220.319 L465.308 220.319 L465.308 217.008 L470.84 217.008 L470.84 181.36 L465.308 181.36 L465.308 178.05 L475.122 178.05 Z" fill="#000000" fill-rule="nonzero" fill-opacity="1" /><polyline clip-path="url(#clip650)" style="stroke:#3da44d; stroke-linecap:round; stroke-linejoin:round; stroke-width:4; stroke-opacity:1; fill:none" points="211.758,248.629 361.13,248.629 "/>
<path clip-path="url(#clip650)" d="M386.026 255.677 L386.026 239.983 L390.285 239.983 L390.285 255.515 Q390.285 259.196 391.72 261.048 Q393.155 262.876 396.026 262.876 Q399.475 262.876 401.465 260.677 Q403.479 258.478 403.479 254.682 L403.479 239.983 L407.739 239.983 L407.739 265.909 L403.479 265.909 L403.479 261.927 Q401.928 264.288 399.868 265.446 Q397.831 266.58 395.123 266.58 Q390.655 266.58 388.34 263.802 Q386.026 261.024 386.026 255.677 M396.743 239.358 L396.743 239.358 Z" fill="#000000" fill-rule="nonzero" fill-opacity="1" /><path clip-path="url(#clip650)" d="M416.118 229.89 L425.933 229.89 L425.933 233.2 L420.377 233.2 L420.377 268.848 L425.933 268.848 L425.933 272.159 L416.118 272.159 L416.118 229.89 Z" fill="#000000" fill-rule="nonzero" fill-opacity="1" /><path clip-path="url(#clip650)" d="M449.775 247.274 Q453.132 247.992 455.007 250.261 Q456.905 252.529 456.905 255.862 Q456.905 260.978 453.386 263.779 Q449.868 266.58 443.386 266.58 Q441.211 266.58 438.896 266.14 Q436.604 265.723 434.15 264.867 L434.15 260.353 Q436.095 261.487 438.41 262.066 Q440.724 262.645 443.248 262.645 Q447.646 262.645 449.937 260.909 Q452.252 259.173 452.252 255.862 Q452.252 252.807 450.099 251.094 Q447.97 249.358 444.15 249.358 L440.123 249.358 L440.123 245.515 L444.336 245.515 Q447.785 245.515 449.613 244.149 Q451.442 242.761 451.442 240.168 Q451.442 237.506 449.544 236.094 Q447.669 234.659 444.15 234.659 Q442.229 234.659 440.03 235.075 Q437.831 235.492 435.192 236.372 L435.192 232.205 Q437.854 231.464 440.169 231.094 Q442.507 230.724 444.567 230.724 Q449.891 230.724 452.993 233.154 Q456.095 235.562 456.095 239.682 Q456.095 242.552 454.451 244.543 Q452.808 246.511 449.775 247.274 Z" fill="#000000" fill-rule="nonzero" fill-opacity="1" /><path clip-path="url(#clip650)" d="M475.122 229.89 L475.122 272.159 L465.308 272.159 L465.308 268.848 L470.84 268.848 L470.84 233.2 L465.308 233.2 L465.308 229.89 L475.122 229.89 Z" fill="#000000" fill-rule="nonzero" fill-opacity="1" /><polyline clip-path="url(#clip650)" style="stroke:#c271d2; stroke-linecap:round; stroke-linejoin:round; stroke-width:4; stroke-opacity:1; fill:none" points="211.758,300.469 361.13,300.469 "/>
<path clip-path="url(#clip650)" d="M386.026 307.517 L386.026 291.823 L390.285 291.823 L390.285 307.355 Q390.285 311.036 391.72 312.888 Q393.155 314.716 396.026 314.716 Q399.475 314.716 401.465 312.517 Q403.479 310.318 403.479 306.522 L403.479 291.823 L407.739 291.823 L407.739 317.749 L403.479 317.749 L403.479 313.767 Q401.928 316.128 399.868 317.286 Q397.831 318.42 395.123 318.42 Q390.655 318.42 388.34 315.642 Q386.026 312.864 386.026 307.517 M396.743 291.198 L396.743 291.198 Z" fill="#000000" fill-rule="nonzero" fill-opacity="1" /><path clip-path="url(#clip650)" d="M416.118 281.73 L425.933 281.73 L425.933 285.04 L420.377 285.04 L420.377 320.688 L425.933 320.688 L425.933 323.999 L416.118 323.999 L416.118 281.73 Z" fill="#000000" fill-rule="nonzero" fill-opacity="1" /><path clip-path="url(#clip650)" d="M448.456 287.263 L436.65 305.712 L448.456 305.712 L448.456 287.263 M447.229 283.189 L453.109 283.189 L453.109 305.712 L458.039 305.712 L458.039 309.601 L453.109 309.601 L453.109 317.749 L448.456 317.749 L448.456 309.601 L432.854 309.601 L432.854 305.087 L447.229 283.189 Z" fill="#000000" fill-rule="nonzero" fill-opacity="1" /><path clip-path="url(#clip650)" d="M475.122 281.73 L475.122 323.999 L465.308 323.999 L465.308 320.688 L470.84 320.688 L470.84 285.04 L465.308 285.04 L465.308 281.73 L475.122 281.73 Z" fill="#000000" fill-rule="nonzero" fill-opacity="1" /><polyline clip-path="url(#clip650)" style="stroke:#ac8d18; stroke-linecap:round; stroke-linejoin:round; stroke-width:4; stroke-opacity:1; fill:none" points="211.758,352.309 361.13,352.309 "/>
<path clip-path="url(#clip650)" d="M386.026 359.357 L386.026 343.663 L390.285 343.663 L390.285 359.195 Q390.285 362.876 391.72 364.728 Q393.155 366.556 396.026 366.556 Q399.475 366.556 401.465 364.357 Q403.479 362.158 403.479 358.362 L403.479 343.663 L407.739 343.663 L407.739 369.589 L403.479 369.589 L403.479 365.607 Q401.928 367.968 399.868 369.126 Q397.831 370.26 395.123 370.26 Q390.655 370.26 388.34 367.482 Q386.026 364.704 386.026 359.357 M396.743 343.038 L396.743 343.038 Z" fill="#000000" fill-rule="nonzero" fill-opacity="1" /><path clip-path="url(#clip650)" d="M416.118 333.57 L425.933 333.57 L425.933 336.88 L420.377 336.88 L420.377 372.528 L425.933 372.528 L425.933 375.839 L416.118 375.839 L416.118 333.57 Z" fill="#000000" fill-rule="nonzero" fill-opacity="1" /><path clip-path="url(#clip650)" d="M435.655 335.029 L454.011 335.029 L454.011 338.964 L439.937 338.964 L439.937 347.436 Q440.956 347.089 441.974 346.927 Q442.993 346.742 444.011 346.742 Q449.798 346.742 453.178 349.913 Q456.558 353.084 456.558 358.501 Q456.558 364.079 453.086 367.181 Q449.613 370.26 443.294 370.26 Q441.118 370.26 438.849 369.89 Q436.604 369.519 434.197 368.778 L434.197 364.079 Q436.28 365.214 438.502 365.769 Q440.724 366.325 443.201 366.325 Q447.206 366.325 449.544 364.218 Q451.882 362.112 451.882 358.501 Q451.882 354.89 449.544 352.783 Q447.206 350.677 443.201 350.677 Q441.326 350.677 439.451 351.093 Q437.599 351.51 435.655 352.39 L435.655 335.029 Z" fill="#000000" fill-rule="nonzero" fill-opacity="1" /><path clip-path="url(#clip650)" d="M475.122 333.57 L475.122 375.839 L465.308 375.839 L465.308 372.528 L470.84 372.528 L470.84 336.88 L465.308 336.88 L465.308 333.57 L475.122 333.57 Z" fill="#000000" fill-rule="nonzero" fill-opacity="1" /><polyline clip-path="url(#clip650)" style="stroke:#00a9ad; stroke-linecap:round; stroke-linejoin:round; stroke-width:4; stroke-opacity:1; fill:none" points="211.758,404.149 361.13,404.149 "/>
<path clip-path="url(#clip650)" d="M386.026 411.197 L386.026 395.503 L390.285 395.503 L390.285 411.035 Q390.285 414.716 391.72 416.568 Q393.155 418.396 396.026 418.396 Q399.475 418.396 401.465 416.197 Q403.479 413.998 403.479 410.202 L403.479 395.503 L407.739 395.503 L407.739 421.429 L403.479 421.429 L403.479 417.447 Q401.928 419.808 399.868 420.966 Q397.831 422.1 395.123 422.1 Q390.655 422.1 388.34 419.322 Q386.026 416.544 386.026 411.197 M396.743 394.878 L396.743 394.878 Z" fill="#000000" fill-rule="nonzero" fill-opacity="1" /><path clip-path="url(#clip650)" d="M416.118 385.41 L425.933 385.41 L425.933 388.72 L420.377 388.72 L420.377 424.368 L425.933 424.368 L425.933 427.679 L416.118 427.679 L416.118 385.41 Z" fill="#000000" fill-rule="nonzero" fill-opacity="1" /><path clip-path="url(#clip650)" d="M446.187 402.285 Q443.039 402.285 441.187 404.438 Q439.359 406.591 439.359 410.341 Q439.359 414.068 441.187 416.243 Q443.039 418.396 446.187 418.396 Q449.336 418.396 451.164 416.243 Q453.016 414.068 453.016 410.341 Q453.016 406.591 451.164 404.438 Q449.336 402.285 446.187 402.285 M455.47 387.633 L455.47 391.892 Q453.711 391.058 451.905 390.619 Q450.123 390.179 448.363 390.179 Q443.734 390.179 441.28 393.304 Q438.849 396.429 438.502 402.748 Q439.868 400.734 441.928 399.669 Q443.988 398.582 446.465 398.582 Q451.673 398.582 454.683 401.753 Q457.715 404.901 457.715 410.341 Q457.715 415.665 454.567 418.882 Q451.419 422.1 446.187 422.1 Q440.192 422.1 437.021 417.517 Q433.85 412.91 433.85 404.183 Q433.85 395.989 437.738 391.128 Q441.627 386.244 448.178 386.244 Q449.937 386.244 451.72 386.591 Q453.525 386.938 455.47 387.633 Z" fill="#000000" fill-rule="nonzero" fill-opacity="1" /><path clip-path="url(#clip650)" d="M475.122 385.41 L475.122 427.679 L465.308 427.679 L465.308 424.368 L470.84 424.368 L470.84 388.72 L465.308 388.72 L465.308 385.41 L475.122 385.41 Z" fill="#000000" fill-rule="nonzero" fill-opacity="1" /><polyline clip-path="url(#clip650)" style="stroke:#ed5d92; stroke-linecap:round; stroke-linejoin:round; stroke-width:4; stroke-opacity:1; fill:none" points="211.758,455.989 361.13,455.989 "/>
<path clip-path="url(#clip650)" d="M386.026 463.037 L386.026 447.343 L390.285 447.343 L390.285 462.875 Q390.285 466.556 391.72 468.408 Q393.155 470.236 396.026 470.236 Q399.475 470.236 401.465 468.037 Q403.479 465.838 403.479 462.042 L403.479 447.343 L407.739 447.343 L407.739 473.269 L403.479 473.269 L403.479 469.287 Q401.928 471.648 399.868 472.806 Q397.831 473.94 395.123 473.94 Q390.655 473.94 388.34 471.162 Q386.026 468.384 386.026 463.037 M396.743 446.718 L396.743 446.718 Z" fill="#000000" fill-rule="nonzero" fill-opacity="1" /><path clip-path="url(#clip650)" d="M416.118 437.25 L425.933 437.25 L425.933 440.56 L420.377 440.56 L420.377 476.208 L425.933 476.208 L425.933 479.519 L416.118 479.519 L416.118 437.25 Z" fill="#000000" fill-rule="nonzero" fill-opacity="1" /><path clip-path="url(#clip650)" d="M434.428 438.709 L456.65 438.709 L456.65 440.699 L444.104 473.269 L439.22 473.269 L451.025 442.644 L434.428 442.644 L434.428 438.709 Z" fill="#000000" fill-rule="nonzero" fill-opacity="1" /><path clip-path="url(#clip650)" d="M475.122 437.25 L475.122 479.519 L465.308 479.519 L465.308 476.208 L470.84 476.208 L470.84 440.56 L465.308 440.56 L465.308 437.25 L475.122 437.25 Z" fill="#000000" fill-rule="nonzero" fill-opacity="1" /><polyline clip-path="url(#clip650)" style="stroke:#c68125; stroke-linecap:round; stroke-linejoin:round; stroke-width:4; stroke-opacity:1; fill:none" points="211.758,507.829 361.13,507.829 "/>
<path clip-path="url(#clip650)" d="M386.026 514.877 L386.026 499.183 L390.285 499.183 L390.285 514.715 Q390.285 518.396 391.72 520.248 Q393.155 522.076 396.026 522.076 Q399.475 522.076 401.465 519.877 Q403.479 517.678 403.479 513.882 L403.479 499.183 L407.739 499.183 L407.739 525.109 L403.479 525.109 L403.479 521.127 Q401.928 523.488 399.868 524.646 Q397.831 525.78 395.123 525.78 Q390.655 525.78 388.34 523.002 Q386.026 520.224 386.026 514.877 M396.743 498.558 L396.743 498.558 Z" fill="#000000" fill-rule="nonzero" fill-opacity="1" /><path clip-path="url(#clip650)" d="M416.118 489.09 L425.933 489.09 L425.933 492.4 L420.377 492.4 L420.377 528.048 L425.933 528.048 L425.933 531.359 L416.118 531.359 L416.118 489.09 Z" fill="#000000" fill-rule="nonzero" fill-opacity="1" /><path clip-path="url(#clip650)" d="M445.609 508.697 Q442.275 508.697 440.354 510.479 Q438.456 512.261 438.456 515.386 Q438.456 518.511 440.354 520.294 Q442.275 522.076 445.609 522.076 Q448.942 522.076 450.863 520.294 Q452.785 518.488 452.785 515.386 Q452.785 512.261 450.863 510.479 Q448.965 508.697 445.609 508.697 M440.933 506.706 Q437.924 505.965 436.234 503.905 Q434.567 501.845 434.567 498.882 Q434.567 494.738 437.507 492.331 Q440.47 489.924 445.609 489.924 Q450.771 489.924 453.711 492.331 Q456.65 494.738 456.65 498.882 Q456.65 501.845 454.961 503.905 Q453.294 505.965 450.308 506.706 Q453.687 507.493 455.562 509.785 Q457.46 512.076 457.46 515.386 Q457.46 520.41 454.382 523.095 Q451.326 525.78 445.609 525.78 Q439.891 525.78 436.812 523.095 Q433.757 520.41 433.757 515.386 Q433.757 512.076 435.655 509.785 Q437.553 507.493 440.933 506.706 M439.22 499.322 Q439.22 502.007 440.887 503.512 Q442.576 505.016 445.609 505.016 Q448.618 505.016 450.308 503.512 Q452.021 502.007 452.021 499.322 Q452.021 496.637 450.308 495.132 Q448.618 493.627 445.609 493.627 Q442.576 493.627 440.887 495.132 Q439.22 496.637 439.22 499.322 Z" fill="#000000" fill-rule="nonzero" fill-opacity="1" /><path clip-path="url(#clip650)" d="M475.122 489.09 L475.122 531.359 L465.308 531.359 L465.308 528.048 L470.84 528.048 L470.84 492.4 L465.308 492.4 L465.308 489.09 L475.122 489.09 Z" fill="#000000" fill-rule="nonzero" fill-opacity="1" /></svg>
