<?xml version="1.0" encoding="utf-8"?>
<svg xmlns="http://www.w3.org/2000/svg" xmlns:xlink="http://www.w3.org/1999/xlink" width="600" height="400" viewBox="0 0 2400 1600">
<defs>
  <clipPath id="clip530">
    <rect x="0" y="0" width="2400" height="1600"/>
  </clipPath>
</defs>
<path clip-path="url(#clip530)" d="M0 1600 L2400 1600 L2400 0 L0 0  Z" fill="#ffffff" fill-rule="evenodd" fill-opacity="1"/>
<defs>
  <clipPath id="clip531">
    <rect x="186" y="47" width="2167" height="1377"/>
  </clipPath>
</defs>
<path clip-path="url(#clip530)" d="M186.274 1423.18 L2352.76 1423.18 L2352.76 47.2441 L186.274 47.2441  Z" fill="#ffffff" fill-rule="evenodd" fill-opacity="1"/>
<polyline clip-path="url(#clip531)" style="stroke:#000000; stroke-linecap:round; stroke-linejoin:round; stroke-width:2; stroke-opacity:0.1; fill:none" points="186.274,1423.18 186.274,47.2441 "/>
<polyline clip-path="url(#clip531)" style="stroke:#000000; stroke-linecap:round; stroke-linejoin:round; stroke-width:2; stroke-opacity:0.1; fill:none" points="619.57,1423.18 619.57,47.2441 "/>
<polyline clip-path="url(#clip531)" style="stroke:#000000; stroke-linecap:round; stroke-linejoin:round; stroke-width:2; stroke-opacity:0.1; fill:none" points="1052.87,1423.18 1052.87,47.2441 "/>
<polyline clip-path="url(#clip531)" style="stroke:#000000; stroke-linecap:round; stroke-linejoin:round; stroke-width:2; stroke-opacity:0.1; fill:none" points="1486.16,1423.18 1486.16,47.2441 "/>
<polyline clip-path="url(#clip531)" style="stroke:#000000; stroke-linecap:round; stroke-linejoin:round; stroke-width:2; stroke-opacity:0.1; fill:none" points="1919.46,1423.18 1919.46,47.2441 "/>
<polyline clip-path="url(#clip531)" style="stroke:#000000; stroke-linecap:round; stroke-linejoin:round; stroke-width:2; stroke-opacity:0.1; fill:none" points="2352.76,1423.18 2352.76,47.2441 "/>
<polyline clip-path="url(#clip531)" style="stroke:#000000; stroke-linecap:round; stroke-linejoin:round; stroke-width:2; stroke-opacity:0.1; fill:none" points="186.274,1349.16 2352.76,1349.16 "/>
<polyline clip-path="url(#clip531)" style="stroke:#000000; stroke-linecap:round; stroke-linejoin:round; stroke-width:2; stroke-opacity:0.1; fill:none" points="186.274,1047.73 2352.76,1047.73 "/>
<polyline clip-path="url(#clip531)" style="stroke:#000000; stroke-linecap:round; stroke-linejoin:round; stroke-width:2; stroke-opacity:0.1; fill:none" points="186.274,746.288 2352.76,746.288 "/>
<polyline clip-path="url(#clip531)" style="stroke:#000000; stroke-linecap:round; stroke-linejoin:round; stroke-width:2; stroke-opacity:0.1; fill:none" points="186.274,444.851 2352.76,444.851 "/>
<polyline clip-path="url(#clip531)" style="stroke:#000000; stroke-linecap:round; stroke-linejoin:round; stroke-width:2; stroke-opacity:0.1; fill:none" points="186.274,143.414 2352.76,143.414 "/>
<polyline clip-path="url(#clip530)" style="stroke:#000000; stroke-linecap:round; stroke-linejoin:round; stroke-width:4; stroke-opacity:1; fill:none" points="186.274,1423.18 2352.76,1423.18 "/>
<polyline clip-path="url(#clip530)" style="stroke:#000000; stroke-linecap:round; stroke-linejoin:round; stroke-width:4; stroke-opacity:1; fill:none" points="186.274,1423.18 186.274,1404.28 "/>
<polyline clip-path="url(#clip530)" style="stroke:#000000; stroke-linecap:round; stroke-linejoin:round; stroke-width:4; stroke-opacity:1; fill:none" points="619.57,1423.18 619.57,1404.28 "/>
<polyline clip-path="url(#clip530)" style="stroke:#000000; stroke-linecap:round; stroke-linejoin:round; stroke-width:4; stroke-opacity:1; fill:none" points="1052.87,1423.18 1052.87,1404.28 "/>
<polyline clip-path="url(#clip530)" style="stroke:#000000; stroke-linecap:round; stroke-linejoin:round; stroke-width:4; stroke-opacity:1; fill:none" points="1486.16,1423.18 1486.16,1404.28 "/>
<polyline clip-path="url(#clip530)" style="stroke:#000000; stroke-linecap:round; stroke-linejoin:round; stroke-width:4; stroke-opacity:1; fill:none" points="1919.46,1423.18 1919.46,1404.28 "/>
<polyline clip-path="url(#clip530)" style="stroke:#000000; stroke-linecap:round; stroke-linejoin:round; stroke-width:4; stroke-opacity:1; fill:none" points="2352.76,1423.18 2352.76,1404.28 "/>
<path clip-path="url(#clip530)" d="M163.658 1454.1 Q160.047 1454.1 158.219 1457.66 Q156.413 1461.2 156.413 1468.33 Q156.413 1475.44 158.219 1479.01 Q160.047 1482.55 163.658 1482.55 Q167.293 1482.55 169.098 1479.01 Q170.927 1475.44 170.927 1468.33 Q170.927 1461.2 169.098 1457.66 Q167.293 1454.1 163.658 1454.1 M163.658 1450.39 Q169.469 1450.39 172.524 1455 Q175.603 1459.58 175.603 1468.33 Q175.603 1477.06 172.524 1481.67 Q169.469 1486.25 163.658 1486.25 Q157.848 1486.25 154.77 1481.67 Q151.714 1477.06 151.714 1468.33 Q151.714 1459.58 154.77 1455 Q157.848 1450.39 163.658 1450.39 Z" fill="#000000" fill-rule="nonzero" fill-opacity="1" /><path clip-path="url(#clip530)" d="M183.82 1479.7 L188.705 1479.7 L188.705 1485.58 L183.82 1485.58 L183.82 1479.7 Z" fill="#000000" fill-rule="nonzero" fill-opacity="1" /><path clip-path="url(#clip530)" d="M208.89 1454.1 Q205.279 1454.1 203.45 1457.66 Q201.644 1461.2 201.644 1468.33 Q201.644 1475.44 203.45 1479.01 Q205.279 1482.55 208.89 1482.55 Q212.524 1482.55 214.329 1479.01 Q216.158 1475.44 216.158 1468.33 Q216.158 1461.2 214.329 1457.66 Q212.524 1454.1 208.89 1454.1 M208.89 1450.39 Q214.7 1450.39 217.755 1455 Q220.834 1459.58 220.834 1468.33 Q220.834 1477.06 217.755 1481.67 Q214.7 1486.25 208.89 1486.25 Q203.079 1486.25 200.001 1481.67 Q196.945 1477.06 196.945 1468.33 Q196.945 1459.58 200.001 1455 Q203.079 1450.39 208.89 1450.39 Z" fill="#000000" fill-rule="nonzero" fill-opacity="1" /><path clip-path="url(#clip530)" d="M597.753 1454.1 Q594.142 1454.1 592.314 1457.66 Q590.508 1461.2 590.508 1468.33 Q590.508 1475.44 592.314 1479.01 Q594.142 1482.55 597.753 1482.55 Q601.388 1482.55 603.193 1479.01 Q605.022 1475.44 605.022 1468.33 Q605.022 1461.2 603.193 1457.66 Q601.388 1454.1 597.753 1454.1 M597.753 1450.39 Q603.564 1450.39 606.619 1455 Q609.698 1459.58 609.698 1468.33 Q609.698 1477.06 606.619 1481.67 Q603.564 1486.25 597.753 1486.25 Q591.943 1486.25 588.865 1481.67 Q585.809 1477.06 585.809 1468.33 Q585.809 1459.58 588.865 1455 Q591.943 1450.39 597.753 1450.39 Z" fill="#000000" fill-rule="nonzero" fill-opacity="1" /><path clip-path="url(#clip530)" d="M617.915 1479.7 L622.8 1479.7 L622.8 1485.58 L617.915 1485.58 L617.915 1479.7 Z" fill="#000000" fill-rule="nonzero" fill-opacity="1" /><path clip-path="url(#clip530)" d="M637.012 1481.64 L653.332 1481.64 L653.332 1485.58 L631.387 1485.58 L631.387 1481.64 Q634.049 1478.89 638.633 1474.26 Q643.239 1469.61 644.42 1468.27 Q646.665 1465.74 647.545 1464.01 Q648.448 1462.25 648.448 1460.56 Q648.448 1457.8 646.503 1456.07 Q644.582 1454.33 641.48 1454.33 Q639.281 1454.33 636.827 1455.09 Q634.397 1455.86 631.619 1457.41 L631.619 1452.69 Q634.443 1451.55 636.897 1450.97 Q639.35 1450.39 641.387 1450.39 Q646.758 1450.39 649.952 1453.08 Q653.147 1455.77 653.147 1460.26 Q653.147 1462.39 652.336 1464.31 Q651.549 1466.2 649.443 1468.8 Q648.864 1469.47 645.762 1472.69 Q642.661 1475.88 637.012 1481.64 Z" fill="#000000" fill-rule="nonzero" fill-opacity="1" /><path clip-path="url(#clip530)" d="M1030.01 1454.1 Q1026.4 1454.1 1024.57 1457.66 Q1022.76 1461.2 1022.76 1468.33 Q1022.76 1475.44 1024.57 1479.01 Q1026.4 1482.55 1030.01 1482.55 Q1033.64 1482.55 1035.45 1479.01 Q1037.28 1475.44 1037.28 1468.33 Q1037.28 1461.2 1035.45 1457.66 Q1033.64 1454.1 1030.01 1454.1 M1030.01 1450.39 Q1035.82 1450.39 1038.87 1455 Q1041.95 1459.58 1041.95 1468.33 Q1041.95 1477.06 1038.87 1481.67 Q1035.82 1486.25 1030.01 1486.25 Q1024.2 1486.25 1021.12 1481.67 Q1018.06 1477.06 1018.06 1468.33 Q1018.06 1459.58 1021.12 1455 Q1024.2 1450.39 1030.01 1450.39 Z" fill="#000000" fill-rule="nonzero" fill-opacity="1" /><path clip-path="url(#clip530)" d="M1050.17 1479.7 L1055.05 1479.7 L1055.05 1485.58 L1050.17 1485.58 L1050.17 1479.7 Z" fill="#000000" fill-rule="nonzero" fill-opacity="1" /><path clip-path="url(#clip530)" d="M1078.09 1455.09 L1066.28 1473.54 L1078.09 1473.54 L1078.09 1455.09 M1076.86 1451.02 L1082.74 1451.02 L1082.74 1473.54 L1087.67 1473.54 L1087.67 1477.43 L1082.74 1477.43 L1082.74 1485.58 L1078.09 1485.58 L1078.09 1477.43 L1062.48 1477.43 L1062.48 1472.92 L1076.86 1451.02 Z" fill="#000000" fill-rule="nonzero" fill-opacity="1" /><path clip-path="url(#clip530)" d="M1463.47 1454.1 Q1459.86 1454.1 1458.03 1457.66 Q1456.22 1461.2 1456.22 1468.33 Q1456.22 1475.44 1458.03 1479.01 Q1459.86 1482.55 1463.47 1482.55 Q1467.1 1482.55 1468.91 1479.01 Q1470.73 1475.44 1470.73 1468.33 Q1470.73 1461.2 1468.91 1457.66 Q1467.1 1454.1 1463.47 1454.1 M1463.47 1450.39 Q1469.28 1450.39 1472.33 1455 Q1475.41 1459.58 1475.41 1468.33 Q1475.41 1477.06 1472.33 1481.67 Q1469.28 1486.25 1463.47 1486.25 Q1457.66 1486.25 1454.58 1481.67 Q1451.52 1477.06 1451.52 1468.33 Q1451.52 1459.58 1454.58 1455 Q1457.66 1450.39 1463.47 1450.39 Z" fill="#000000" fill-rule="nonzero" fill-opacity="1" /><path clip-path="url(#clip530)" d="M1483.63 1479.7 L1488.51 1479.7 L1488.51 1485.58 L1483.63 1485.58 L1483.63 1479.7 Z" fill="#000000" fill-rule="nonzero" fill-opacity="1" /><path clip-path="url(#clip530)" d="M1509.28 1466.44 Q1506.13 1466.44 1504.28 1468.59 Q1502.45 1470.74 1502.45 1474.49 Q1502.45 1478.22 1504.28 1480.39 Q1506.13 1482.55 1509.28 1482.55 Q1512.42 1482.55 1514.25 1480.39 Q1516.11 1478.22 1516.11 1474.49 Q1516.11 1470.74 1514.25 1468.59 Q1512.42 1466.44 1509.28 1466.44 M1518.56 1451.78 L1518.56 1456.04 Q1516.8 1455.21 1514.99 1454.77 Q1513.21 1454.33 1511.45 1454.33 Q1506.82 1454.33 1504.37 1457.45 Q1501.94 1460.58 1501.59 1466.9 Q1502.96 1464.89 1505.02 1463.82 Q1507.08 1462.73 1509.55 1462.73 Q1514.76 1462.73 1517.77 1465.9 Q1520.8 1469.05 1520.8 1474.49 Q1520.8 1479.82 1517.66 1483.03 Q1514.51 1486.25 1509.28 1486.25 Q1503.28 1486.25 1500.11 1481.67 Q1496.94 1477.06 1496.94 1468.33 Q1496.94 1460.14 1500.83 1455.28 Q1504.72 1450.39 1511.27 1450.39 Q1513.03 1450.39 1514.81 1450.74 Q1516.61 1451.09 1518.56 1451.78 Z" fill="#000000" fill-rule="nonzero" fill-opacity="1" /><path clip-path="url(#clip530)" d="M1896.89 1454.1 Q1893.28 1454.1 1891.45 1457.66 Q1889.64 1461.2 1889.64 1468.33 Q1889.64 1475.44 1891.45 1479.01 Q1893.28 1482.55 1896.89 1482.55 Q1900.52 1482.55 1902.33 1479.01 Q1904.16 1475.44 1904.16 1468.33 Q1904.16 1461.2 1902.33 1457.66 Q1900.52 1454.1 1896.89 1454.1 M1896.89 1450.39 Q1902.7 1450.39 1905.76 1455 Q1908.83 1459.58 1908.83 1468.33 Q1908.83 1477.06 1905.76 1481.67 Q1902.7 1486.25 1896.89 1486.25 Q1891.08 1486.25 1888 1481.67 Q1884.95 1477.06 1884.95 1468.33 Q1884.95 1459.58 1888 1455 Q1891.08 1450.39 1896.89 1450.39 Z" fill="#000000" fill-rule="nonzero" fill-opacity="1" /><path clip-path="url(#clip530)" d="M1917.05 1479.7 L1921.94 1479.7 L1921.94 1485.58 L1917.05 1485.58 L1917.05 1479.7 Z" fill="#000000" fill-rule="nonzero" fill-opacity="1" /><path clip-path="url(#clip530)" d="M1942.12 1469.17 Q1938.79 1469.17 1936.87 1470.95 Q1934.97 1472.73 1934.97 1475.86 Q1934.97 1478.98 1936.87 1480.77 Q1938.79 1482.55 1942.12 1482.55 Q1945.45 1482.55 1947.38 1480.77 Q1949.3 1478.96 1949.3 1475.86 Q1949.3 1472.73 1947.38 1470.95 Q1945.48 1469.17 1942.12 1469.17 M1937.45 1467.18 Q1934.44 1466.44 1932.75 1464.38 Q1931.08 1462.32 1931.08 1459.35 Q1931.08 1455.21 1934.02 1452.8 Q1936.98 1450.39 1942.12 1450.39 Q1947.28 1450.39 1950.22 1452.8 Q1953.16 1455.21 1953.16 1459.35 Q1953.16 1462.32 1951.47 1464.38 Q1949.81 1466.44 1946.82 1467.18 Q1950.2 1467.96 1952.08 1470.26 Q1953.97 1472.55 1953.97 1475.86 Q1953.97 1480.88 1950.89 1483.57 Q1947.84 1486.25 1942.12 1486.25 Q1936.4 1486.25 1933.33 1483.57 Q1930.27 1480.88 1930.27 1475.86 Q1930.27 1472.55 1932.17 1470.26 Q1934.07 1467.96 1937.45 1467.18 M1935.73 1459.79 Q1935.73 1462.48 1937.4 1463.98 Q1939.09 1465.49 1942.12 1465.49 Q1945.13 1465.49 1946.82 1463.98 Q1948.53 1462.48 1948.53 1459.79 Q1948.53 1457.11 1946.82 1455.6 Q1945.13 1454.1 1942.12 1454.1 Q1939.09 1454.1 1937.4 1455.6 Q1935.73 1457.11 1935.73 1459.79 Z" fill="#000000" fill-rule="nonzero" fill-opacity="1" /><path clip-path="url(#clip530)" d="M2319.91 1481.64 L2327.55 1481.64 L2327.55 1455.28 L2319.24 1456.95 L2319.24 1452.69 L2327.5 1451.02 L2332.18 1451.02 L2332.18 1481.64 L2339.82 1481.64 L2339.82 1485.58 L2319.91 1485.58 L2319.91 1481.64 Z" fill="#000000" fill-rule="nonzero" fill-opacity="1" /><path clip-path="url(#clip530)" d="M2349.26 1479.7 L2354.14 1479.7 L2354.14 1485.58 L2349.26 1485.58 L2349.26 1479.7 Z" fill="#000000" fill-rule="nonzero" fill-opacity="1" /><path clip-path="url(#clip530)" d="M2374.33 1454.1 Q2370.72 1454.1 2368.89 1457.66 Q2367.08 1461.2 2367.08 1468.33 Q2367.08 1475.44 2368.89 1479.01 Q2370.72 1482.55 2374.33 1482.55 Q2377.96 1482.55 2379.77 1479.01 Q2381.6 1475.44 2381.6 1468.33 Q2381.6 1461.2 2379.77 1457.66 Q2377.96 1454.1 2374.33 1454.1 M2374.33 1450.39 Q2380.14 1450.39 2383.2 1455 Q2386.27 1459.58 2386.27 1468.33 Q2386.27 1477.06 2383.2 1481.67 Q2380.14 1486.25 2374.33 1486.25 Q2368.52 1486.25 2365.44 1481.67 Q2362.39 1477.06 2362.39 1468.33 Q2362.39 1459.58 2365.44 1455 Q2368.52 1450.39 2374.33 1450.39 Z" fill="#000000" fill-rule="nonzero" fill-opacity="1" /><path clip-path="url(#clip530)" d="M1268.58 1522.27 L1268.58 1532.4 L1280.64 1532.4 L1280.64 1536.95 L1268.58 1536.95 L1268.58 1556.3 Q1268.58 1560.66 1269.75 1561.9 Q1270.96 1563.14 1274.62 1563.14 L1280.64 1563.14 L1280.64 1568.04 L1274.62 1568.04 Q1267.84 1568.04 1265.27 1565.53 Q1262.69 1562.98 1262.69 1556.3 L1262.69 1536.95 L1258.39 1536.95 L1258.39 1532.4 L1262.69 1532.4 L1262.69 1522.27 L1268.58 1522.27 Z" fill="#000000" fill-rule="nonzero" fill-opacity="1" /><polyline clip-path="url(#clip530)" style="stroke:#000000; stroke-linecap:round; stroke-linejoin:round; stroke-width:4; stroke-opacity:1; fill:none" points="186.274,1423.18 186.274,47.2441 "/>
<polyline clip-path="url(#clip530)" style="stroke:#000000; stroke-linecap:round; stroke-linejoin:round; stroke-width:4; stroke-opacity:1; fill:none" points="186.274,1349.16 205.172,1349.16 "/>
<polyline clip-path="url(#clip530)" style="stroke:#000000; stroke-linecap:round; stroke-linejoin:round; stroke-width:4; stroke-opacity:1; fill:none" points="186.274,1047.73 205.172,1047.73 "/>
<polyline clip-path="url(#clip530)" style="stroke:#000000; stroke-linecap:round; stroke-linejoin:round; stroke-width:4; stroke-opacity:1; fill:none" points="186.274,746.288 205.172,746.288 "/>
<polyline clip-path="url(#clip530)" style="stroke:#000000; stroke-linecap:round; stroke-linejoin:round; stroke-width:4; stroke-opacity:1; fill:none" points="186.274,444.851 205.172,444.851 "/>
<polyline clip-path="url(#clip530)" style="stroke:#000000; stroke-linecap:round; stroke-linejoin:round; stroke-width:4; stroke-opacity:1; fill:none" points="186.274,143.414 205.172,143.414 "/>
<path clip-path="url(#clip530)" d="M63.9319 1334.96 Q60.3208 1334.96 58.4921 1338.53 Q56.6865 1342.07 56.6865 1349.2 Q56.6865 1356.3 58.4921 1359.87 Q60.3208 1363.41 63.9319 1363.41 Q67.5661 1363.41 69.3717 1359.87 Q71.2004 1356.3 71.2004 1349.2 Q71.2004 1342.07 69.3717 1338.53 Q67.5661 1334.96 63.9319 1334.96 M63.9319 1331.26 Q69.742 1331.26 72.7976 1335.86 Q75.8763 1340.45 75.8763 1349.2 Q75.8763 1357.92 72.7976 1362.53 Q69.742 1367.11 63.9319 1367.11 Q58.1217 1367.11 55.043 1362.53 Q51.9875 1357.92 51.9875 1349.2 Q51.9875 1340.45 55.043 1335.86 Q58.1217 1331.26 63.9319 1331.26 Z" fill="#000000" fill-rule="nonzero" fill-opacity="1" /><path clip-path="url(#clip530)" d="M84.0938 1360.56 L88.978 1360.56 L88.978 1366.44 L84.0938 1366.44 L84.0938 1360.56 Z" fill="#000000" fill-rule="nonzero" fill-opacity="1" /><path clip-path="url(#clip530)" d="M103.191 1362.51 L119.51 1362.51 L119.51 1366.44 L97.566 1366.44 L97.566 1362.51 Q100.228 1359.75 104.811 1355.12 Q109.418 1350.47 110.598 1349.13 Q112.844 1346.6 113.723 1344.87 Q114.626 1343.11 114.626 1341.42 Q114.626 1338.67 112.682 1336.93 Q110.76 1335.19 107.658 1335.19 Q105.459 1335.19 103.006 1335.96 Q100.575 1336.72 97.7974 1338.27 L97.7974 1333.55 Q100.621 1332.42 103.075 1331.84 Q105.529 1331.26 107.566 1331.26 Q112.936 1331.26 116.131 1333.94 Q119.325 1336.63 119.325 1341.12 Q119.325 1343.25 118.515 1345.17 Q117.728 1347.07 115.621 1349.66 Q115.043 1350.33 111.941 1353.55 Q108.839 1356.74 103.191 1362.51 Z" fill="#000000" fill-rule="nonzero" fill-opacity="1" /><path clip-path="url(#clip530)" d="M129.371 1331.88 L147.728 1331.88 L147.728 1335.82 L133.654 1335.82 L133.654 1344.29 Q134.672 1343.94 135.691 1343.78 Q136.709 1343.6 137.728 1343.6 Q143.515 1343.6 146.894 1346.77 Q150.274 1349.94 150.274 1355.35 Q150.274 1360.93 146.802 1364.04 Q143.33 1367.11 137.01 1367.11 Q134.834 1367.11 132.566 1366.74 Q130.32 1366.37 127.913 1365.63 L127.913 1360.93 Q129.996 1362.07 132.219 1362.62 Q134.441 1363.18 136.918 1363.18 Q140.922 1363.18 143.26 1361.07 Q145.598 1358.97 145.598 1355.35 Q145.598 1351.74 143.26 1349.64 Q140.922 1347.53 136.918 1347.53 Q135.043 1347.53 133.168 1347.95 Q131.316 1348.36 129.371 1349.24 L129.371 1331.88 Z" fill="#000000" fill-rule="nonzero" fill-opacity="1" /><path clip-path="url(#clip530)" d="M62.9365 1033.52 Q59.3254 1033.52 57.4967 1037.09 Q55.6912 1040.63 55.6912 1047.76 Q55.6912 1054.87 57.4967 1058.43 Q59.3254 1061.97 62.9365 1061.97 Q66.5707 1061.97 68.3763 1058.43 Q70.205 1054.87 70.205 1047.76 Q70.205 1040.63 68.3763 1037.09 Q66.5707 1033.52 62.9365 1033.52 M62.9365 1029.82 Q68.7467 1029.82 71.8022 1034.43 Q74.8809 1039.01 74.8809 1047.76 Q74.8809 1056.49 71.8022 1061.09 Q68.7467 1065.68 62.9365 1065.68 Q57.1264 1065.68 54.0477 1061.09 Q50.9921 1056.49 50.9921 1047.76 Q50.9921 1039.01 54.0477 1034.43 Q57.1264 1029.82 62.9365 1029.82 Z" fill="#000000" fill-rule="nonzero" fill-opacity="1" /><path clip-path="url(#clip530)" d="M83.0984 1059.13 L87.9827 1059.13 L87.9827 1065.01 L83.0984 1065.01 L83.0984 1059.13 Z" fill="#000000" fill-rule="nonzero" fill-opacity="1" /><path clip-path="url(#clip530)" d="M98.2141 1030.45 L116.57 1030.45 L116.57 1034.38 L102.496 1034.38 L102.496 1042.85 Q103.515 1042.51 104.534 1042.34 Q105.552 1042.16 106.571 1042.16 Q112.358 1042.16 115.737 1045.33 Q119.117 1048.5 119.117 1053.92 Q119.117 1059.5 115.645 1062.6 Q112.172 1065.68 105.853 1065.68 Q103.677 1065.68 101.409 1065.31 Q99.1632 1064.94 96.7558 1064.2 L96.7558 1059.5 Q98.8391 1060.63 101.061 1061.19 Q103.284 1061.74 105.76 1061.74 Q109.765 1061.74 112.103 1059.64 Q114.441 1057.53 114.441 1053.92 Q114.441 1050.31 112.103 1048.2 Q109.765 1046.09 105.76 1046.09 Q103.885 1046.09 102.01 1046.51 Q100.159 1046.93 98.2141 1047.81 L98.2141 1030.45 Z" fill="#000000" fill-rule="nonzero" fill-opacity="1" /><path clip-path="url(#clip530)" d="M138.33 1033.52 Q134.719 1033.52 132.89 1037.09 Q131.084 1040.63 131.084 1047.76 Q131.084 1054.87 132.89 1058.43 Q134.719 1061.97 138.33 1061.97 Q141.964 1061.97 143.769 1058.43 Q145.598 1054.87 145.598 1047.76 Q145.598 1040.63 143.769 1037.09 Q141.964 1033.52 138.33 1033.52 M138.33 1029.82 Q144.14 1029.82 147.195 1034.43 Q150.274 1039.01 150.274 1047.76 Q150.274 1056.49 147.195 1061.09 Q144.14 1065.68 138.33 1065.68 Q132.519 1065.68 129.441 1061.09 Q126.385 1056.49 126.385 1047.76 Q126.385 1039.01 129.441 1034.43 Q132.519 1029.82 138.33 1029.82 Z" fill="#000000" fill-rule="nonzero" fill-opacity="1" /><path clip-path="url(#clip530)" d="M63.9319 732.087 Q60.3208 732.087 58.4921 735.652 Q56.6865 739.194 56.6865 746.323 Q56.6865 753.43 58.4921 756.994 Q60.3208 760.536 63.9319 760.536 Q67.5661 760.536 69.3717 756.994 Q71.2004 753.43 71.2004 746.323 Q71.2004 739.194 69.3717 735.652 Q67.5661 732.087 63.9319 732.087 M63.9319 728.383 Q69.742 728.383 72.7976 732.99 Q75.8763 737.573 75.8763 746.323 Q75.8763 755.05 72.7976 759.656 Q69.742 764.24 63.9319 764.24 Q58.1217 764.24 55.043 759.656 Q51.9875 755.05 51.9875 746.323 Q51.9875 737.573 55.043 732.99 Q58.1217 728.383 63.9319 728.383 Z" fill="#000000" fill-rule="nonzero" fill-opacity="1" /><path clip-path="url(#clip530)" d="M84.0938 757.689 L88.978 757.689 L88.978 763.568 L84.0938 763.568 L84.0938 757.689 Z" fill="#000000" fill-rule="nonzero" fill-opacity="1" /><path clip-path="url(#clip530)" d="M97.9826 729.008 L120.205 729.008 L120.205 730.999 L107.658 763.568 L102.774 763.568 L114.58 732.944 L97.9826 732.944 L97.9826 729.008 Z" fill="#000000" fill-rule="nonzero" fill-opacity="1" /><path clip-path="url(#clip530)" d="M129.371 729.008 L147.728 729.008 L147.728 732.944 L133.654 732.944 L133.654 741.416 Q134.672 741.069 135.691 740.907 Q136.709 740.721 137.728 740.721 Q143.515 740.721 146.894 743.893 Q150.274 747.064 150.274 752.481 Q150.274 758.059 146.802 761.161 Q143.33 764.24 137.01 764.24 Q134.834 764.24 132.566 763.869 Q130.32 763.499 127.913 762.758 L127.913 758.059 Q129.996 759.193 132.219 759.749 Q134.441 760.305 136.918 760.305 Q140.922 760.305 143.26 758.198 Q145.598 756.092 145.598 752.481 Q145.598 748.869 143.26 746.763 Q140.922 744.656 136.918 744.656 Q135.043 744.656 133.168 745.073 Q131.316 745.49 129.371 746.369 L129.371 729.008 Z" fill="#000000" fill-rule="nonzero" fill-opacity="1" /><path clip-path="url(#clip530)" d="M53.7467 458.196 L61.3856 458.196 L61.3856 431.831 L53.0754 433.497 L53.0754 429.238 L61.3393 427.571 L66.0152 427.571 L66.0152 458.196 L73.654 458.196 L73.654 462.131 L53.7467 462.131 L53.7467 458.196 Z" fill="#000000" fill-rule="nonzero" fill-opacity="1" /><path clip-path="url(#clip530)" d="M83.0984 456.252 L87.9827 456.252 L87.9827 462.131 L83.0984 462.131 L83.0984 456.252 Z" fill="#000000" fill-rule="nonzero" fill-opacity="1" /><path clip-path="url(#clip530)" d="M108.168 430.65 Q104.557 430.65 102.728 434.215 Q100.922 437.756 100.922 444.886 Q100.922 451.992 102.728 455.557 Q104.557 459.099 108.168 459.099 Q111.802 459.099 113.608 455.557 Q115.436 451.992 115.436 444.886 Q115.436 437.756 113.608 434.215 Q111.802 430.65 108.168 430.65 M108.168 426.946 Q113.978 426.946 117.033 431.553 Q120.112 436.136 120.112 444.886 Q120.112 453.613 117.033 458.219 Q113.978 462.803 108.168 462.803 Q102.358 462.803 99.2789 458.219 Q96.2234 453.613 96.2234 444.886 Q96.2234 436.136 99.2789 431.553 Q102.358 426.946 108.168 426.946 Z" fill="#000000" fill-rule="nonzero" fill-opacity="1" /><path clip-path="url(#clip530)" d="M138.33 430.65 Q134.719 430.65 132.89 434.215 Q131.084 437.756 131.084 444.886 Q131.084 451.992 132.89 455.557 Q134.719 459.099 138.33 459.099 Q141.964 459.099 143.769 455.557 Q145.598 451.992 145.598 444.886 Q145.598 437.756 143.769 434.215 Q141.964 430.65 138.33 430.65 M138.33 426.946 Q144.14 426.946 147.195 431.553 Q150.274 436.136 150.274 444.886 Q150.274 453.613 147.195 458.219 Q144.14 462.803 138.33 462.803 Q132.519 462.803 129.441 458.219 Q126.385 453.613 126.385 444.886 Q126.385 436.136 129.441 431.553 Q132.519 426.946 138.33 426.946 Z" fill="#000000" fill-rule="nonzero" fill-opacity="1" /><path clip-path="url(#clip530)" d="M54.7421 156.759 L62.381 156.759 L62.381 130.393 L54.0708 132.06 L54.0708 127.801 L62.3347 126.134 L67.0106 126.134 L67.0106 156.759 L74.6494 156.759 L74.6494 160.694 L54.7421 160.694 L54.7421 156.759 Z" fill="#000000" fill-rule="nonzero" fill-opacity="1" /><path clip-path="url(#clip530)" d="M84.0938 154.815 L88.978 154.815 L88.978 160.694 L84.0938 160.694 L84.0938 154.815 Z" fill="#000000" fill-rule="nonzero" fill-opacity="1" /><path clip-path="url(#clip530)" d="M103.191 156.759 L119.51 156.759 L119.51 160.694 L97.566 160.694 L97.566 156.759 Q100.228 154.004 104.811 149.375 Q109.418 144.722 110.598 143.379 Q112.844 140.856 113.723 139.12 Q114.626 137.361 114.626 135.671 Q114.626 132.917 112.682 131.18 Q110.76 129.444 107.658 129.444 Q105.459 129.444 103.006 130.208 Q100.575 130.972 97.7974 132.523 L97.7974 127.801 Q100.621 126.667 103.075 126.088 Q105.529 125.509 107.566 125.509 Q112.936 125.509 116.131 128.194 Q119.325 130.879 119.325 135.37 Q119.325 137.5 118.515 139.421 Q117.728 141.319 115.621 143.912 Q115.043 144.583 111.941 147.801 Q108.839 150.995 103.191 156.759 Z" fill="#000000" fill-rule="nonzero" fill-opacity="1" /><path clip-path="url(#clip530)" d="M129.371 126.134 L147.728 126.134 L147.728 130.069 L133.654 130.069 L133.654 138.541 Q134.672 138.194 135.691 138.032 Q136.709 137.847 137.728 137.847 Q143.515 137.847 146.894 141.018 Q150.274 144.19 150.274 149.606 Q150.274 155.185 146.802 158.287 Q143.33 161.365 137.01 161.365 Q134.834 161.365 132.566 160.995 Q130.32 160.625 127.913 159.884 L127.913 155.185 Q129.996 156.319 132.219 156.875 Q134.441 157.43 136.918 157.43 Q140.922 157.43 143.26 155.324 Q145.598 153.217 145.598 149.606 Q145.598 145.995 143.26 143.889 Q140.922 141.782 136.918 141.782 Q135.043 141.782 133.168 142.199 Q131.316 142.616 129.371 143.495 L129.371 126.134 Z" fill="#000000" fill-rule="nonzero" fill-opacity="1" /><polyline clip-path="url(#clip531)" style="stroke:#009af9; stroke-linecap:round; stroke-linejoin:round; stroke-width:4; stroke-opacity:1; fill:none" points="186.274,1047.73 187.039,1018.64 187.817,997.15 188.691,1003.7 189.674,1012.69 190.781,1003.13 192.026,986.566 193.426,974.656 195.002,1013.62 196.774,992.554 198.769,999.198 201.012,986.221 203.536,1011.67 206.375,1031.25 209.569,998.693 213.162,1015.74 217.205,994.464 221.753,998.093 226.869,1006.64 232.625,1035.51 239.1,1064.04 246.385,1068 254.581,1045.65 263.8,975.028 274.173,935.02 285.842,968.505 298.969,983.144 313.737,849.816 330.352,855.426 349.043,815.571 370.071,716.013 393.727,816.971 417.924,781.911 445.145,522.249 475.77,644.967 508.307,475.896 544.912,260.323 586.092,393.59 622.549,446.946 663.562,86.249 709.703,573.472 760.426,652.838 802.983,786.402 850.86,593.523 904.722,679.713 941.422,723.486 982.71,753.951 1029.16,940.768 1077.29,972.208 1131.44,1058.52 1185.28,1129.02 1245.84,1087.23 1313.98,1183.78 1373.26,1125.26 1439.95,993.087 1514.98,1033.51 1572.61,1106.05 1637.44,1163.29 1710.37,1214.6 1781.05,1216.56 1860.57,1317.55 1931.93,1094.52 2012.22,1110.25 2092.88,1113.58 2179.19,1384.24 2250.7,1309.6 2331.15,1319.73 2352.76,1286.57 "/>
<polyline clip-path="url(#clip531)" style="stroke:#e26f46; stroke-linecap:round; stroke-linejoin:round; stroke-width:4; stroke-opacity:1; fill:none" points="186.274,1047.73 187.039,1018.64 187.817,997.15 188.691,1003.7 189.674,1012.69 190.781,1003.13 192.026,986.566 193.426,974.656 195.002,1013.62 196.774,992.553 198.769,999.197 201.012,986.22 203.536,1011.67 206.375,1031.25 209.569,998.692 213.162,1015.74 217.205,994.464 221.753,998.095 226.869,1006.64 232.625,1035.52 239.1,1064.05 246.385,1068.01 254.581,1045.66 263.8,975.033 274.173,935.021 285.842,968.52 298.969,983.172 313.737,849.816 330.352,855.447 349.043,815.595 370.071,716.007 393.727,817.011 417.924,781.967 445.145,522.154 475.77,644.996 508.307,475.815 544.912,260.05 586.092,393.649 622.549,447.209 663.562,86.1857 709.703,569.921 760.426,649.916 802.983,784.048 850.86,590.403 904.722,677.257 941.422,721.303 982.71,752.025 1029.16,939.049 1077.29,970.765 1131.44,1057.5 1185.28,1128.34 1245.84,1086.54 1313.98,1183.43 1373.26,1124.85 1439.95,992.307 1514.98,1033.24 1572.61,1106.08 1637.44,1163.62 1710.37,1215.24 1781.05,1217.4 1860.57,1318.18 1931.93,1094.87 2012.22,1110.98 2092.88,1114.65 2179.19,1373.73 2250.7,1295.97 2331.15,1306.76 2352.76,1272.3 "/>
<path clip-path="url(#clip530)" d="M1854.86 248.629 L2280.54 248.629 L2280.54 93.1086 L1854.86 93.1086  Z" fill="#ffffff" fill-rule="evenodd" fill-opacity="1"/>
<polyline clip-path="url(#clip530)" style="stroke:#000000; stroke-linecap:round; stroke-linejoin:round; stroke-width:4; stroke-opacity:1; fill:none" points="1854.86,248.629 2280.54,248.629 2280.54,93.1086 1854.86,93.1086 1854.86,248.629 "/>
<polyline clip-path="url(#clip530)" style="stroke:#009af9; stroke-linecap:round; stroke-linejoin:round; stroke-width:4; stroke-opacity:1; fill:none" points="1878.94,144.949 2023.37,144.949 "/>
<path clip-path="url(#clip530)" d="M2047.44 151.997 L2047.44 136.303 L2051.7 136.303 L2051.7 151.835 Q2051.7 155.516 2053.14 157.368 Q2054.57 159.196 2057.44 159.196 Q2060.89 159.196 2062.88 156.997 Q2064.89 154.798 2064.89 151.002 L2064.89 136.303 L2069.15 136.303 L2069.15 162.229 L2064.89 162.229 L2064.89 158.247 Q2063.34 160.608 2061.28 161.766 Q2059.25 162.9 2056.54 162.9 Q2052.07 162.9 2049.76 160.122 Q2047.44 157.344 2047.44 151.997 M2058.16 135.678 L2058.16 135.678 Z" fill="#000000" fill-rule="nonzero" fill-opacity="1" /><path clip-path="url(#clip530)" d="M2077.53 126.21 L2087.35 126.21 L2087.35 129.52 L2081.79 129.52 L2081.79 165.168 L2087.35 165.168 L2087.35 168.479 L2077.53 168.479 L2077.53 126.21 Z" fill="#000000" fill-rule="nonzero" fill-opacity="1" /><path clip-path="url(#clip530)" d="M2097.83 158.293 L2105.47 158.293 L2105.47 131.928 L2097.16 133.595 L2097.16 129.335 L2105.43 127.669 L2110.1 127.669 L2110.1 158.293 L2117.74 158.293 L2117.74 162.229 L2097.83 162.229 L2097.83 158.293 Z" fill="#000000" fill-rule="nonzero" fill-opacity="1" /><path clip-path="url(#clip530)" d="M2136.54 126.21 L2136.54 168.479 L2126.72 168.479 L2126.72 165.168 L2132.26 165.168 L2132.26 129.52 L2126.72 129.52 L2126.72 126.21 L2136.54 126.21 Z" fill="#000000" fill-rule="nonzero" fill-opacity="1" /><polyline clip-path="url(#clip530)" style="stroke:#e26f46; stroke-linecap:round; stroke-linejoin:round; stroke-width:4; stroke-opacity:1; fill:none" points="1878.94,196.789 2023.37,196.789 "/>
<path clip-path="url(#clip530)" d="M2047.44 179.509 L2076.68 179.509 L2076.68 183.444 L2064.41 183.444 L2064.41 214.069 L2059.71 214.069 L2059.71 183.444 L2047.44 183.444 L2047.44 179.509 Z" fill="#000000" fill-rule="nonzero" fill-opacity="1" /><path clip-path="url(#clip530)" d="M2089.06 192.124 Q2088.34 191.708 2087.49 191.522 Q2086.65 191.314 2085.64 191.314 Q2082.02 191.314 2080.08 193.675 Q2078.16 196.013 2078.16 200.411 L2078.16 214.069 L2073.88 214.069 L2073.88 188.143 L2078.16 188.143 L2078.16 192.171 Q2079.5 189.809 2081.65 188.675 Q2083.81 187.518 2086.89 187.518 Q2087.33 187.518 2087.86 187.587 Q2088.39 187.634 2089.04 187.749 L2089.06 192.124 Z" fill="#000000" fill-rule="nonzero" fill-opacity="1" /><path clip-path="url(#clip530)" d="M2093.09 203.837 L2093.09 188.143 L2097.35 188.143 L2097.35 203.675 Q2097.35 207.356 2098.78 209.208 Q2100.22 211.036 2103.09 211.036 Q2106.54 211.036 2108.53 208.837 Q2110.54 206.638 2110.54 202.842 L2110.54 188.143 L2114.8 188.143 L2114.8 214.069 L2110.54 214.069 L2110.54 210.087 Q2108.99 212.448 2106.93 213.606 Q2104.89 214.74 2102.19 214.74 Q2097.72 214.74 2095.4 211.962 Q2093.09 209.184 2093.09 203.837 M2103.81 187.518 L2103.81 187.518 Z" fill="#000000" fill-rule="nonzero" fill-opacity="1" /><path clip-path="url(#clip530)" d="M2145.75 200.041 L2145.75 202.124 L2126.17 202.124 Q2126.45 206.522 2128.81 208.837 Q2131.19 211.129 2135.43 211.129 Q2137.88 211.129 2140.17 210.527 Q2142.49 209.925 2144.76 208.721 L2144.76 212.749 Q2142.46 213.721 2140.06 214.231 Q2137.65 214.74 2135.17 214.74 Q2128.97 214.74 2125.33 211.129 Q2121.72 207.518 2121.72 201.36 Q2121.72 194.995 2125.15 191.268 Q2128.6 187.518 2134.43 187.518 Q2139.66 187.518 2142.7 190.897 Q2145.75 194.254 2145.75 200.041 M2141.49 198.791 Q2141.45 195.296 2139.52 193.212 Q2137.63 191.129 2134.48 191.129 Q2130.91 191.129 2128.76 193.143 Q2126.63 195.157 2126.31 198.814 L2141.49 198.791 Z" fill="#000000" fill-rule="nonzero" fill-opacity="1" /><path clip-path="url(#clip530)" d="M2167.37 203.837 L2167.37 188.143 L2171.63 188.143 L2171.63 203.675 Q2171.63 207.356 2173.07 209.208 Q2174.5 211.036 2177.37 211.036 Q2180.82 211.036 2182.81 208.837 Q2184.82 206.638 2184.82 202.842 L2184.82 188.143 L2189.08 188.143 L2189.08 214.069 L2184.82 214.069 L2184.82 210.087 Q2183.27 212.448 2181.21 213.606 Q2179.18 214.74 2176.47 214.74 Q2172 214.74 2169.69 211.962 Q2167.37 209.184 2167.37 203.837 M2178.09 187.518 L2178.09 187.518 Z" fill="#000000" fill-rule="nonzero" fill-opacity="1" /><path clip-path="url(#clip530)" d="M2197.46 178.05 L2207.28 178.05 L2207.28 181.36 L2201.72 181.36 L2201.72 217.008 L2207.28 217.008 L2207.28 220.319 L2197.46 220.319 L2197.46 178.05 Z" fill="#000000" fill-rule="nonzero" fill-opacity="1" /><path clip-path="url(#clip530)" d="M2217.76 210.133 L2225.4 210.133 L2225.4 183.768 L2217.09 185.435 L2217.09 181.175 L2225.36 179.509 L2230.03 179.509 L2230.03 210.133 L2237.67 210.133 L2237.67 214.069 L2217.76 214.069 L2217.76 210.133 Z" fill="#000000" fill-rule="nonzero" fill-opacity="1" /><path clip-path="url(#clip530)" d="M2256.47 178.05 L2256.47 220.319 L2246.65 220.319 L2246.65 217.008 L2252.19 217.008 L2252.19 181.36 L2246.65 181.36 L2246.65 178.05 L2256.47 178.05 Z" fill="#000000" fill-rule="nonzero" fill-opacity="1" /></svg>
