<?xml version="1.0" encoding="utf-8"?>
<svg xmlns="http://www.w3.org/2000/svg" xmlns:xlink="http://www.w3.org/1999/xlink" width="600" height="400" viewBox="0 0 2400 1600">
<defs>
  <clipPath id="clip780">
    <rect x="0" y="0" width="2400" height="1600"/>
  </clipPath>
</defs>
<path clip-path="url(#clip780)" d="M0 1600 L2400 1600 L2400 0 L0 0  Z" fill="#ffffff" fill-rule="evenodd" fill-opacity="1"/>
<defs>
  <clipPath id="clip781">
    <rect x="155" y="47" width="2198" height="1440"/>
  </clipPath>
</defs>
<path clip-path="url(#clip780)" d="M155.765 1486.45 L2352.76 1486.45 L2352.76 47.2441 L155.765 47.2441  Z" fill="#ffffff" fill-rule="evenodd" fill-opacity="1"/>
<polyline clip-path="url(#clip781)" style="stroke:#000000; stroke-linecap:round; stroke-linejoin:round; stroke-width:2; stroke-opacity:0.1; fill:none" points="217.944,1486.45 217.944,47.2441 "/>
<polyline clip-path="url(#clip781)" style="stroke:#000000; stroke-linecap:round; stroke-linejoin:round; stroke-width:2; stroke-opacity:0.1; fill:none" points="736.102,1486.45 736.102,47.2441 "/>
<polyline clip-path="url(#clip781)" style="stroke:#000000; stroke-linecap:round; stroke-linejoin:round; stroke-width:2; stroke-opacity:0.1; fill:none" points="1254.26,1486.45 1254.26,47.2441 "/>
<polyline clip-path="url(#clip781)" style="stroke:#000000; stroke-linecap:round; stroke-linejoin:round; stroke-width:2; stroke-opacity:0.1; fill:none" points="1772.42,1486.45 1772.42,47.2441 "/>
<polyline clip-path="url(#clip781)" style="stroke:#000000; stroke-linecap:round; stroke-linejoin:round; stroke-width:2; stroke-opacity:0.1; fill:none" points="2290.58,1486.45 2290.58,47.2441 "/>
<polyline clip-path="url(#clip781)" style="stroke:#000000; stroke-linecap:round; stroke-linejoin:round; stroke-width:2; stroke-opacity:0.1; fill:none" points="155.765,1384.99 2352.76,1384.99 "/>
<polyline clip-path="url(#clip781)" style="stroke:#000000; stroke-linecap:round; stroke-linejoin:round; stroke-width:2; stroke-opacity:0.1; fill:none" points="155.765,1166.6 2352.76,1166.6 "/>
<polyline clip-path="url(#clip781)" style="stroke:#000000; stroke-linecap:round; stroke-linejoin:round; stroke-width:2; stroke-opacity:0.1; fill:none" points="155.765,948.205 2352.76,948.205 "/>
<polyline clip-path="url(#clip781)" style="stroke:#000000; stroke-linecap:round; stroke-linejoin:round; stroke-width:2; stroke-opacity:0.1; fill:none" points="155.765,729.812 2352.76,729.812 "/>
<polyline clip-path="url(#clip781)" style="stroke:#000000; stroke-linecap:round; stroke-linejoin:round; stroke-width:2; stroke-opacity:0.1; fill:none" points="155.765,511.419 2352.76,511.419 "/>
<polyline clip-path="url(#clip781)" style="stroke:#000000; stroke-linecap:round; stroke-linejoin:round; stroke-width:2; stroke-opacity:0.1; fill:none" points="155.765,293.026 2352.76,293.026 "/>
<polyline clip-path="url(#clip781)" style="stroke:#000000; stroke-linecap:round; stroke-linejoin:round; stroke-width:2; stroke-opacity:0.1; fill:none" points="155.765,74.6325 2352.76,74.6325 "/>
<polyline clip-path="url(#clip780)" style="stroke:#000000; stroke-linecap:round; stroke-linejoin:round; stroke-width:4; stroke-opacity:1; fill:none" points="155.765,1486.45 2352.76,1486.45 "/>
<polyline clip-path="url(#clip780)" style="stroke:#000000; stroke-linecap:round; stroke-linejoin:round; stroke-width:4; stroke-opacity:1; fill:none" points="217.944,1486.45 217.944,1467.55 "/>
<polyline clip-path="url(#clip780)" style="stroke:#000000; stroke-linecap:round; stroke-linejoin:round; stroke-width:4; stroke-opacity:1; fill:none" points="736.102,1486.45 736.102,1467.55 "/>
<polyline clip-path="url(#clip780)" style="stroke:#000000; stroke-linecap:round; stroke-linejoin:round; stroke-width:4; stroke-opacity:1; fill:none" points="1254.26,1486.45 1254.26,1467.55 "/>
<polyline clip-path="url(#clip780)" style="stroke:#000000; stroke-linecap:round; stroke-linejoin:round; stroke-width:4; stroke-opacity:1; fill:none" points="1772.42,1486.45 1772.42,1467.55 "/>
<polyline clip-path="url(#clip780)" style="stroke:#000000; stroke-linecap:round; stroke-linejoin:round; stroke-width:4; stroke-opacity:1; fill:none" points="2290.58,1486.45 2290.58,1467.55 "/>
<path clip-path="url(#clip780)" d="M180.247 1517.37 Q176.636 1517.37 174.808 1520.93 Q173.002 1524.47 173.002 1531.6 Q173.002 1538.71 174.808 1542.27 Q176.636 1545.82 180.247 1545.82 Q183.882 1545.82 185.687 1542.27 Q187.516 1538.71 187.516 1531.6 Q187.516 1524.47 185.687 1520.93 Q183.882 1517.37 180.247 1517.37 M180.247 1513.66 Q186.057 1513.66 189.113 1518.27 Q192.192 1522.85 192.192 1531.6 Q192.192 1540.33 189.113 1544.94 Q186.057 1549.52 180.247 1549.52 Q174.437 1549.52 171.358 1544.94 Q168.303 1540.33 168.303 1531.6 Q168.303 1522.85 171.358 1518.27 Q174.437 1513.66 180.247 1513.66 Z" fill="#000000" fill-rule="nonzero" fill-opacity="1" /><path clip-path="url(#clip780)" d="M200.409 1542.97 L205.294 1542.97 L205.294 1548.85 L200.409 1548.85 L200.409 1542.97 Z" fill="#000000" fill-rule="nonzero" fill-opacity="1" /><path clip-path="url(#clip780)" d="M225.479 1517.37 Q221.867 1517.37 220.039 1520.93 Q218.233 1524.47 218.233 1531.6 Q218.233 1538.71 220.039 1542.27 Q221.867 1545.82 225.479 1545.82 Q229.113 1545.82 230.918 1542.27 Q232.747 1538.71 232.747 1531.6 Q232.747 1524.47 230.918 1520.93 Q229.113 1517.37 225.479 1517.37 M225.479 1513.66 Q231.289 1513.66 234.344 1518.27 Q237.423 1522.85 237.423 1531.6 Q237.423 1540.33 234.344 1544.94 Q231.289 1549.52 225.479 1549.52 Q219.668 1549.52 216.59 1544.94 Q213.534 1540.33 213.534 1531.6 Q213.534 1522.85 216.59 1518.27 Q219.668 1513.66 225.479 1513.66 Z" fill="#000000" fill-rule="nonzero" fill-opacity="1" /><path clip-path="url(#clip780)" d="M255.64 1517.37 Q252.029 1517.37 250.201 1520.93 Q248.395 1524.47 248.395 1531.6 Q248.395 1538.71 250.201 1542.27 Q252.029 1545.82 255.64 1545.82 Q259.275 1545.82 261.08 1542.27 Q262.909 1538.71 262.909 1531.6 Q262.909 1524.47 261.08 1520.93 Q259.275 1517.37 255.64 1517.37 M255.64 1513.66 Q261.451 1513.66 264.506 1518.27 Q267.585 1522.85 267.585 1531.6 Q267.585 1540.33 264.506 1544.94 Q261.451 1549.52 255.64 1549.52 Q249.83 1549.52 246.752 1544.94 Q243.696 1540.33 243.696 1531.6 Q243.696 1522.85 246.752 1518.27 Q249.83 1513.66 255.64 1513.66 Z" fill="#000000" fill-rule="nonzero" fill-opacity="1" /><path clip-path="url(#clip780)" d="M698.903 1517.37 Q695.292 1517.37 693.463 1520.93 Q691.658 1524.47 691.658 1531.6 Q691.658 1538.71 693.463 1542.27 Q695.292 1545.82 698.903 1545.82 Q702.538 1545.82 704.343 1542.27 Q706.172 1538.71 706.172 1531.6 Q706.172 1524.47 704.343 1520.93 Q702.538 1517.37 698.903 1517.37 M698.903 1513.66 Q704.713 1513.66 707.769 1518.27 Q710.848 1522.85 710.848 1531.6 Q710.848 1540.33 707.769 1544.94 Q704.713 1549.52 698.903 1549.52 Q693.093 1549.52 690.014 1544.94 Q686.959 1540.33 686.959 1531.6 Q686.959 1522.85 690.014 1518.27 Q693.093 1513.66 698.903 1513.66 Z" fill="#000000" fill-rule="nonzero" fill-opacity="1" /><path clip-path="url(#clip780)" d="M719.065 1542.97 L723.949 1542.97 L723.949 1548.85 L719.065 1548.85 L719.065 1542.97 Z" fill="#000000" fill-rule="nonzero" fill-opacity="1" /><path clip-path="url(#clip780)" d="M738.162 1544.91 L754.482 1544.91 L754.482 1548.85 L732.537 1548.85 L732.537 1544.91 Q735.199 1542.16 739.783 1537.53 Q744.389 1532.88 745.57 1531.53 Q747.815 1529.01 748.695 1527.27 Q749.597 1525.51 749.597 1523.82 Q749.597 1521.07 747.653 1519.33 Q745.732 1517.6 742.63 1517.6 Q740.431 1517.6 737.977 1518.36 Q735.547 1519.13 732.769 1520.68 L732.769 1515.95 Q735.593 1514.82 738.047 1514.24 Q740.5 1513.66 742.537 1513.66 Q747.908 1513.66 751.102 1516.35 Q754.296 1519.03 754.296 1523.52 Q754.296 1525.65 753.486 1527.57 Q752.699 1529.47 750.593 1532.07 Q750.014 1532.74 746.912 1535.95 Q743.81 1539.15 738.162 1544.91 Z" fill="#000000" fill-rule="nonzero" fill-opacity="1" /><path clip-path="url(#clip780)" d="M764.343 1514.29 L782.699 1514.29 L782.699 1518.22 L768.625 1518.22 L768.625 1526.7 Q769.644 1526.35 770.662 1526.19 Q771.681 1526 772.699 1526 Q778.486 1526 781.866 1529.17 Q785.245 1532.34 785.245 1537.76 Q785.245 1543.34 781.773 1546.44 Q778.301 1549.52 771.982 1549.52 Q769.806 1549.52 767.537 1549.15 Q765.292 1548.78 762.884 1548.04 L762.884 1543.34 Q764.968 1544.47 767.19 1545.03 Q769.412 1545.58 771.889 1545.58 Q775.894 1545.58 778.232 1543.48 Q780.57 1541.37 780.57 1537.76 Q780.57 1534.15 778.232 1532.04 Q775.894 1529.94 771.889 1529.94 Q770.014 1529.94 768.139 1530.35 Q766.287 1530.77 764.343 1531.65 L764.343 1514.29 Z" fill="#000000" fill-rule="nonzero" fill-opacity="1" /><path clip-path="url(#clip780)" d="M1216.56 1517.37 Q1212.95 1517.37 1211.12 1520.93 Q1209.32 1524.47 1209.32 1531.6 Q1209.32 1538.71 1211.12 1542.27 Q1212.95 1545.82 1216.56 1545.82 Q1220.2 1545.82 1222 1542.27 Q1223.83 1538.71 1223.83 1531.6 Q1223.83 1524.47 1222 1520.93 Q1220.2 1517.37 1216.56 1517.37 M1216.56 1513.66 Q1222.37 1513.66 1225.43 1518.27 Q1228.51 1522.85 1228.51 1531.6 Q1228.51 1540.33 1225.43 1544.94 Q1222.37 1549.52 1216.56 1549.52 Q1210.75 1549.52 1207.68 1544.94 Q1204.62 1540.33 1204.62 1531.6 Q1204.62 1522.85 1207.68 1518.27 Q1210.75 1513.66 1216.56 1513.66 Z" fill="#000000" fill-rule="nonzero" fill-opacity="1" /><path clip-path="url(#clip780)" d="M1236.73 1542.97 L1241.61 1542.97 L1241.61 1548.85 L1236.73 1548.85 L1236.73 1542.97 Z" fill="#000000" fill-rule="nonzero" fill-opacity="1" /><path clip-path="url(#clip780)" d="M1251.84 1514.29 L1270.2 1514.29 L1270.2 1518.22 L1256.12 1518.22 L1256.12 1526.7 Q1257.14 1526.35 1258.16 1526.19 Q1259.18 1526 1260.2 1526 Q1265.98 1526 1269.36 1529.17 Q1272.74 1532.34 1272.74 1537.76 Q1272.74 1543.34 1269.27 1546.44 Q1265.8 1549.52 1259.48 1549.52 Q1257.3 1549.52 1255.04 1549.15 Q1252.79 1548.78 1250.38 1548.04 L1250.38 1543.34 Q1252.47 1544.47 1254.69 1545.03 Q1256.91 1545.58 1259.39 1545.58 Q1263.39 1545.58 1265.73 1543.48 Q1268.07 1541.37 1268.07 1537.76 Q1268.07 1534.15 1265.73 1532.04 Q1263.39 1529.94 1259.39 1529.94 Q1257.51 1529.94 1255.64 1530.35 Q1253.79 1530.77 1251.84 1531.65 L1251.84 1514.29 Z" fill="#000000" fill-rule="nonzero" fill-opacity="1" /><path clip-path="url(#clip780)" d="M1291.96 1517.37 Q1288.35 1517.37 1286.52 1520.93 Q1284.71 1524.47 1284.71 1531.6 Q1284.71 1538.71 1286.52 1542.27 Q1288.35 1545.82 1291.96 1545.82 Q1295.59 1545.82 1297.4 1542.27 Q1299.23 1538.71 1299.23 1531.6 Q1299.23 1524.47 1297.4 1520.93 Q1295.59 1517.37 1291.96 1517.37 M1291.96 1513.66 Q1297.77 1513.66 1300.82 1518.27 Q1303.9 1522.85 1303.9 1531.6 Q1303.9 1540.33 1300.82 1544.94 Q1297.77 1549.52 1291.96 1549.52 Q1286.15 1549.52 1283.07 1544.94 Q1280.01 1540.33 1280.01 1531.6 Q1280.01 1522.85 1283.07 1518.27 Q1286.15 1513.66 1291.96 1513.66 Z" fill="#000000" fill-rule="nonzero" fill-opacity="1" /><path clip-path="url(#clip780)" d="M1735.22 1517.37 Q1731.61 1517.37 1729.78 1520.93 Q1727.97 1524.47 1727.97 1531.6 Q1727.97 1538.71 1729.78 1542.27 Q1731.61 1545.82 1735.22 1545.82 Q1738.85 1545.82 1740.66 1542.27 Q1742.49 1538.71 1742.49 1531.6 Q1742.49 1524.47 1740.66 1520.93 Q1738.85 1517.37 1735.22 1517.37 M1735.22 1513.66 Q1741.03 1513.66 1744.09 1518.27 Q1747.16 1522.85 1747.16 1531.6 Q1747.16 1540.33 1744.09 1544.94 Q1741.03 1549.52 1735.22 1549.52 Q1729.41 1549.52 1726.33 1544.94 Q1723.28 1540.33 1723.28 1531.6 Q1723.28 1522.85 1726.33 1518.27 Q1729.41 1513.66 1735.22 1513.66 Z" fill="#000000" fill-rule="nonzero" fill-opacity="1" /><path clip-path="url(#clip780)" d="M1755.38 1542.97 L1760.27 1542.97 L1760.27 1548.85 L1755.38 1548.85 L1755.38 1542.97 Z" fill="#000000" fill-rule="nonzero" fill-opacity="1" /><path clip-path="url(#clip780)" d="M1769.27 1514.29 L1791.49 1514.29 L1791.49 1516.28 L1778.95 1548.85 L1774.06 1548.85 L1785.87 1518.22 L1769.27 1518.22 L1769.27 1514.29 Z" fill="#000000" fill-rule="nonzero" fill-opacity="1" /><path clip-path="url(#clip780)" d="M1800.66 1514.29 L1819.02 1514.29 L1819.02 1518.22 L1804.94 1518.22 L1804.94 1526.7 Q1805.96 1526.35 1806.98 1526.19 Q1808 1526 1809.02 1526 Q1814.8 1526 1818.18 1529.17 Q1821.56 1532.34 1821.56 1537.76 Q1821.56 1543.34 1818.09 1546.44 Q1814.62 1549.52 1808.3 1549.52 Q1806.12 1549.52 1803.85 1549.15 Q1801.61 1548.78 1799.2 1548.04 L1799.2 1543.34 Q1801.28 1544.47 1803.51 1545.03 Q1805.73 1545.58 1808.21 1545.58 Q1812.21 1545.58 1814.55 1543.48 Q1816.89 1541.37 1816.89 1537.76 Q1816.89 1534.15 1814.55 1532.04 Q1812.21 1529.94 1808.21 1529.94 Q1806.33 1529.94 1804.46 1530.35 Q1802.6 1530.77 1800.66 1531.65 L1800.66 1514.29 Z" fill="#000000" fill-rule="nonzero" fill-opacity="1" /><path clip-path="url(#clip780)" d="M2242.65 1544.91 L2250.29 1544.91 L2250.29 1518.55 L2241.98 1520.21 L2241.98 1515.95 L2250.24 1514.29 L2254.92 1514.29 L2254.92 1544.91 L2262.56 1544.91 L2262.56 1548.85 L2242.65 1548.85 L2242.65 1544.91 Z" fill="#000000" fill-rule="nonzero" fill-opacity="1" /><path clip-path="url(#clip780)" d="M2272 1542.97 L2276.88 1542.97 L2276.88 1548.85 L2272 1548.85 L2272 1542.97 Z" fill="#000000" fill-rule="nonzero" fill-opacity="1" /><path clip-path="url(#clip780)" d="M2297.07 1517.37 Q2293.46 1517.37 2291.63 1520.93 Q2289.82 1524.47 2289.82 1531.6 Q2289.82 1538.71 2291.63 1542.27 Q2293.46 1545.82 2297.07 1545.82 Q2300.7 1545.82 2302.51 1542.27 Q2304.34 1538.71 2304.34 1531.6 Q2304.34 1524.47 2302.51 1520.93 Q2300.7 1517.37 2297.07 1517.37 M2297.07 1513.66 Q2302.88 1513.66 2305.94 1518.27 Q2309.01 1522.85 2309.01 1531.6 Q2309.01 1540.33 2305.94 1544.94 Q2302.88 1549.52 2297.07 1549.52 Q2291.26 1549.52 2288.18 1544.94 Q2285.13 1540.33 2285.13 1531.6 Q2285.13 1522.85 2288.18 1518.27 Q2291.26 1513.66 2297.07 1513.66 Z" fill="#000000" fill-rule="nonzero" fill-opacity="1" /><path clip-path="url(#clip780)" d="M2327.23 1517.37 Q2323.62 1517.37 2321.79 1520.93 Q2319.99 1524.47 2319.99 1531.6 Q2319.99 1538.71 2321.79 1542.27 Q2323.62 1545.82 2327.23 1545.82 Q2330.87 1545.82 2332.67 1542.27 Q2334.5 1538.71 2334.5 1531.6 Q2334.5 1524.47 2332.67 1520.93 Q2330.87 1517.37 2327.23 1517.37 M2327.23 1513.66 Q2333.04 1513.66 2336.1 1518.27 Q2339.18 1522.85 2339.18 1531.6 Q2339.18 1540.33 2336.1 1544.94 Q2333.04 1549.52 2327.23 1549.52 Q2321.42 1549.52 2318.34 1544.94 Q2315.29 1540.33 2315.29 1531.6 Q2315.29 1522.85 2318.34 1518.27 Q2321.42 1513.66 2327.23 1513.66 Z" fill="#000000" fill-rule="nonzero" fill-opacity="1" /><polyline clip-path="url(#clip780)" style="stroke:#000000; stroke-linecap:round; stroke-linejoin:round; stroke-width:4; stroke-opacity:1; fill:none" points="155.765,1486.45 155.765,47.2441 "/>
<polyline clip-path="url(#clip780)" style="stroke:#000000; stroke-linecap:round; stroke-linejoin:round; stroke-width:4; stroke-opacity:1; fill:none" points="155.765,1384.99 174.663,1384.99 "/>
<polyline clip-path="url(#clip780)" style="stroke:#000000; stroke-linecap:round; stroke-linejoin:round; stroke-width:4; stroke-opacity:1; fill:none" points="155.765,1166.6 174.663,1166.6 "/>
<polyline clip-path="url(#clip780)" style="stroke:#000000; stroke-linecap:round; stroke-linejoin:round; stroke-width:4; stroke-opacity:1; fill:none" points="155.765,948.205 174.663,948.205 "/>
<polyline clip-path="url(#clip780)" style="stroke:#000000; stroke-linecap:round; stroke-linejoin:round; stroke-width:4; stroke-opacity:1; fill:none" points="155.765,729.812 174.663,729.812 "/>
<polyline clip-path="url(#clip780)" style="stroke:#000000; stroke-linecap:round; stroke-linejoin:round; stroke-width:4; stroke-opacity:1; fill:none" points="155.765,511.419 174.663,511.419 "/>
<polyline clip-path="url(#clip780)" style="stroke:#000000; stroke-linecap:round; stroke-linejoin:round; stroke-width:4; stroke-opacity:1; fill:none" points="155.765,293.026 174.663,293.026 "/>
<polyline clip-path="url(#clip780)" style="stroke:#000000; stroke-linecap:round; stroke-linejoin:round; stroke-width:4; stroke-opacity:1; fill:none" points="155.765,74.6325 174.663,74.6325 "/>
<path clip-path="url(#clip780)" d="M63.5847 1370.79 Q59.9736 1370.79 58.1449 1374.35 Q56.3393 1377.9 56.3393 1385.03 Q56.3393 1392.13 58.1449 1395.7 Q59.9736 1399.24 63.5847 1399.24 Q67.2189 1399.24 69.0244 1395.7 Q70.8531 1392.13 70.8531 1385.03 Q70.8531 1377.9 69.0244 1374.35 Q67.2189 1370.79 63.5847 1370.79 M63.5847 1367.09 Q69.3948 1367.09 72.4503 1371.69 Q75.529 1376.28 75.529 1385.03 Q75.529 1393.75 72.4503 1398.36 Q69.3948 1402.94 63.5847 1402.94 Q57.7745 1402.94 54.6958 1398.36 Q51.6403 1393.75 51.6403 1385.03 Q51.6403 1376.28 54.6958 1371.69 Q57.7745 1367.09 63.5847 1367.09 Z" fill="#000000" fill-rule="nonzero" fill-opacity="1" /><path clip-path="url(#clip780)" d="M83.7466 1396.39 L88.6308 1396.39 L88.6308 1402.27 L83.7466 1402.27 L83.7466 1396.39 Z" fill="#000000" fill-rule="nonzero" fill-opacity="1" /><path clip-path="url(#clip780)" d="M98.8622 1367.71 L117.219 1367.71 L117.219 1371.65 L103.145 1371.65 L103.145 1380.12 Q104.163 1379.77 105.182 1379.61 Q106.2 1379.42 107.219 1379.42 Q113.006 1379.42 116.385 1382.59 Q119.765 1385.77 119.765 1391.18 Q119.765 1396.76 116.293 1399.86 Q112.82 1402.94 106.501 1402.94 Q104.325 1402.94 102.057 1402.57 Q99.8113 1402.2 97.4039 1401.46 L97.4039 1396.76 Q99.4872 1397.9 101.709 1398.45 Q103.932 1399.01 106.408 1399.01 Q110.413 1399.01 112.751 1396.9 Q115.089 1394.79 115.089 1391.18 Q115.089 1387.57 112.751 1385.47 Q110.413 1383.36 106.408 1383.36 Q104.534 1383.36 102.659 1383.78 Q100.807 1384.19 98.8622 1385.07 L98.8622 1367.71 Z" fill="#000000" fill-rule="nonzero" fill-opacity="1" /><path clip-path="url(#clip780)" d="M53.3995 1179.94 L61.0384 1179.94 L61.0384 1153.58 L52.7282 1155.24 L52.7282 1150.98 L60.9921 1149.32 L65.668 1149.32 L65.668 1179.94 L73.3068 1179.94 L73.3068 1183.88 L53.3995 1183.88 L53.3995 1179.94 Z" fill="#000000" fill-rule="nonzero" fill-opacity="1" /><path clip-path="url(#clip780)" d="M82.7512 1178 L87.6354 1178 L87.6354 1183.88 L82.7512 1183.88 L82.7512 1178 Z" fill="#000000" fill-rule="nonzero" fill-opacity="1" /><path clip-path="url(#clip780)" d="M107.821 1152.4 Q104.209 1152.4 102.381 1155.96 Q100.575 1159.5 100.575 1166.63 Q100.575 1173.74 102.381 1177.3 Q104.209 1180.85 107.821 1180.85 Q111.455 1180.85 113.26 1177.3 Q115.089 1173.74 115.089 1166.63 Q115.089 1159.5 113.26 1155.96 Q111.455 1152.4 107.821 1152.4 M107.821 1148.69 Q113.631 1148.69 116.686 1153.3 Q119.765 1157.88 119.765 1166.63 Q119.765 1175.36 116.686 1179.97 Q113.631 1184.55 107.821 1184.55 Q102.01 1184.55 98.9317 1179.97 Q95.8761 1175.36 95.8761 1166.63 Q95.8761 1157.88 98.9317 1153.3 Q102.01 1148.69 107.821 1148.69 Z" fill="#000000" fill-rule="nonzero" fill-opacity="1" /><path clip-path="url(#clip780)" d="M54.3949 961.549 L62.0337 961.549 L62.0337 935.184 L53.7236 936.85 L53.7236 932.591 L61.9874 930.925 L66.6633 930.925 L66.6633 961.549 L74.3022 961.549 L74.3022 965.485 L54.3949 965.485 L54.3949 961.549 Z" fill="#000000" fill-rule="nonzero" fill-opacity="1" /><path clip-path="url(#clip780)" d="M83.7466 959.605 L88.6308 959.605 L88.6308 965.485 L83.7466 965.485 L83.7466 959.605 Z" fill="#000000" fill-rule="nonzero" fill-opacity="1" /><path clip-path="url(#clip780)" d="M98.8622 930.925 L117.219 930.925 L117.219 934.86 L103.145 934.86 L103.145 943.332 Q104.163 942.985 105.182 942.823 Q106.2 942.637 107.219 942.637 Q113.006 942.637 116.385 945.809 Q119.765 948.98 119.765 954.397 Q119.765 959.975 116.293 963.077 Q112.82 966.156 106.501 966.156 Q104.325 966.156 102.057 965.786 Q99.8113 965.415 97.4039 964.674 L97.4039 959.975 Q99.4872 961.11 101.709 961.665 Q103.932 962.221 106.408 962.221 Q110.413 962.221 112.751 960.114 Q115.089 958.008 115.089 954.397 Q115.089 950.786 112.751 948.679 Q110.413 946.573 106.408 946.573 Q104.534 946.573 102.659 946.989 Q100.807 947.406 98.8622 948.286 L98.8622 930.925 Z" fill="#000000" fill-rule="nonzero" fill-opacity="1" /><path clip-path="url(#clip780)" d="M56.6171 743.156 L72.9365 743.156 L72.9365 747.092 L50.9921 747.092 L50.9921 743.156 Q53.6541 740.402 58.2375 735.772 Q62.8439 731.119 64.0245 729.777 Q66.2698 727.254 67.1494 725.518 Q68.0522 723.758 68.0522 722.069 Q68.0522 719.314 66.1078 717.578 Q64.1865 715.842 61.0847 715.842 Q58.8856 715.842 56.4319 716.606 Q54.0014 717.37 51.2236 718.92 L51.2236 714.198 Q54.0477 713.064 56.5014 712.485 Q58.955 711.907 60.9921 711.907 Q66.3624 711.907 69.5568 714.592 Q72.7513 717.277 72.7513 721.768 Q72.7513 723.897 71.9411 725.819 Q71.1541 727.717 69.0476 730.309 Q68.4689 730.981 65.367 734.198 Q62.2652 737.393 56.6171 743.156 Z" fill="#000000" fill-rule="nonzero" fill-opacity="1" /><path clip-path="url(#clip780)" d="M82.7512 741.212 L87.6354 741.212 L87.6354 747.092 L82.7512 747.092 L82.7512 741.212 Z" fill="#000000" fill-rule="nonzero" fill-opacity="1" /><path clip-path="url(#clip780)" d="M107.821 715.61 Q104.209 715.61 102.381 719.175 Q100.575 722.717 100.575 729.846 Q100.575 736.953 102.381 740.518 Q104.209 744.059 107.821 744.059 Q111.455 744.059 113.26 740.518 Q115.089 736.953 115.089 729.846 Q115.089 722.717 113.26 719.175 Q111.455 715.61 107.821 715.61 M107.821 711.907 Q113.631 711.907 116.686 716.513 Q119.765 721.096 119.765 729.846 Q119.765 738.573 116.686 743.18 Q113.631 747.763 107.821 747.763 Q102.01 747.763 98.9317 743.18 Q95.8761 738.573 95.8761 729.846 Q95.8761 721.096 98.9317 716.513 Q102.01 711.907 107.821 711.907 Z" fill="#000000" fill-rule="nonzero" fill-opacity="1" /><path clip-path="url(#clip780)" d="M57.6125 524.763 L73.9318 524.763 L73.9318 528.699 L51.9875 528.699 L51.9875 524.763 Q54.6495 522.009 59.2328 517.379 Q63.8393 512.726 65.0198 511.384 Q67.2652 508.861 68.1448 507.125 Q69.0476 505.365 69.0476 503.676 Q69.0476 500.921 67.1032 499.185 Q65.1819 497.449 62.08 497.449 Q59.881 497.449 57.4273 498.213 Q54.9967 498.976 52.219 500.527 L52.219 495.805 Q55.043 494.671 57.4967 494.092 Q59.9504 493.514 61.9874 493.514 Q67.3578 493.514 70.5522 496.199 Q73.7466 498.884 73.7466 503.375 Q73.7466 505.504 72.9365 507.426 Q72.1494 509.324 70.0429 511.916 Q69.4642 512.588 66.3624 515.805 Q63.2606 519 57.6125 524.763 Z" fill="#000000" fill-rule="nonzero" fill-opacity="1" /><path clip-path="url(#clip780)" d="M83.7466 522.819 L88.6308 522.819 L88.6308 528.699 L83.7466 528.699 L83.7466 522.819 Z" fill="#000000" fill-rule="nonzero" fill-opacity="1" /><path clip-path="url(#clip780)" d="M98.8622 494.139 L117.219 494.139 L117.219 498.074 L103.145 498.074 L103.145 506.546 Q104.163 506.199 105.182 506.037 Q106.2 505.851 107.219 505.851 Q113.006 505.851 116.385 509.023 Q119.765 512.194 119.765 517.611 Q119.765 523.189 116.293 526.291 Q112.82 529.37 106.501 529.37 Q104.325 529.37 102.057 528.999 Q99.8113 528.629 97.4039 527.888 L97.4039 523.189 Q99.4872 524.324 101.709 524.879 Q103.932 525.435 106.408 525.435 Q110.413 525.435 112.751 523.328 Q115.089 521.222 115.089 517.611 Q115.089 514 112.751 511.893 Q110.413 509.787 106.408 509.787 Q104.534 509.787 102.659 510.203 Q100.807 510.62 98.8622 511.5 L98.8622 494.139 Z" fill="#000000" fill-rule="nonzero" fill-opacity="1" /><path clip-path="url(#clip780)" d="M66.7559 291.671 Q70.1124 292.389 71.9874 294.657 Q73.8855 296.926 73.8855 300.259 Q73.8855 305.375 70.367 308.176 Q66.8485 310.977 60.3671 310.977 Q58.1912 310.977 55.8764 310.537 Q53.5847 310.12 51.131 309.264 L51.131 304.75 Q53.0754 305.884 55.3903 306.463 Q57.7051 307.042 60.2282 307.042 Q64.6263 307.042 66.918 305.306 Q69.2328 303.569 69.2328 300.259 Q69.2328 297.204 67.08 295.491 Q64.9504 293.755 61.131 293.755 L57.1032 293.755 L57.1032 289.912 L61.3161 289.912 Q64.7652 289.912 66.5939 288.546 Q68.4226 287.158 68.4226 284.565 Q68.4226 281.903 66.5245 280.491 Q64.6495 279.056 61.131 279.056 Q59.2097 279.056 57.0106 279.472 Q54.8115 279.889 52.1727 280.769 L52.1727 276.602 Q54.8347 275.861 57.1495 275.491 Q59.4875 275.121 61.5476 275.121 Q66.8717 275.121 69.9735 277.551 Q73.0753 279.958 73.0753 284.079 Q73.0753 286.949 71.4318 288.94 Q69.7883 290.907 66.7559 291.671 Z" fill="#000000" fill-rule="nonzero" fill-opacity="1" /><path clip-path="url(#clip780)" d="M82.7512 304.426 L87.6354 304.426 L87.6354 310.306 L82.7512 310.306 L82.7512 304.426 Z" fill="#000000" fill-rule="nonzero" fill-opacity="1" /><path clip-path="url(#clip780)" d="M107.821 278.824 Q104.209 278.824 102.381 282.389 Q100.575 285.931 100.575 293.06 Q100.575 300.167 102.381 303.731 Q104.209 307.273 107.821 307.273 Q111.455 307.273 113.26 303.731 Q115.089 300.167 115.089 293.06 Q115.089 285.931 113.26 282.389 Q111.455 278.824 107.821 278.824 M107.821 275.121 Q113.631 275.121 116.686 279.727 Q119.765 284.31 119.765 293.06 Q119.765 301.787 116.686 306.394 Q113.631 310.977 107.821 310.977 Q102.01 310.977 98.9317 306.394 Q95.8761 301.787 95.8761 293.06 Q95.8761 284.31 98.9317 279.727 Q102.01 275.121 107.821 275.121 Z" fill="#000000" fill-rule="nonzero" fill-opacity="1" /><path clip-path="url(#clip780)" d="M67.7513 73.2784 Q71.1078 73.996 72.9827 76.2645 Q74.8809 78.533 74.8809 81.8663 Q74.8809 86.982 71.3624 89.7829 Q67.8439 92.5838 61.3624 92.5838 Q59.1865 92.5838 56.8717 92.144 Q54.5801 91.7273 52.1264 90.8709 L52.1264 86.357 Q54.0708 87.4912 56.3856 88.07 Q58.7004 88.6487 61.2236 88.6487 Q65.6217 88.6487 67.9133 86.9125 Q70.2281 85.1764 70.2281 81.8663 Q70.2281 78.8107 68.0754 77.0978 Q65.9457 75.3617 62.1263 75.3617 L58.0986 75.3617 L58.0986 71.5191 L62.3115 71.5191 Q65.7606 71.5191 67.5893 70.1534 Q69.418 68.7645 69.418 66.1719 Q69.418 63.5099 67.5198 62.0979 Q65.6448 60.6627 62.1263 60.6627 Q60.205 60.6627 58.006 61.0794 Q55.8069 61.496 53.168 62.3756 L53.168 58.209 Q55.8301 57.4683 58.1449 57.0979 Q60.4828 56.7275 62.543 56.7275 Q67.867 56.7275 70.9689 59.1581 Q74.0707 61.5655 74.0707 65.6858 Q74.0707 68.5562 72.4272 70.5469 Q70.7837 72.5145 67.7513 73.2784 Z" fill="#000000" fill-rule="nonzero" fill-opacity="1" /><path clip-path="url(#clip780)" d="M83.7466 86.0329 L88.6308 86.0329 L88.6308 91.9125 L83.7466 91.9125 L83.7466 86.0329 Z" fill="#000000" fill-rule="nonzero" fill-opacity="1" /><path clip-path="url(#clip780)" d="M98.8622 57.3525 L117.219 57.3525 L117.219 61.2877 L103.145 61.2877 L103.145 69.7599 Q104.163 69.4126 105.182 69.2506 Q106.2 69.0654 107.219 69.0654 Q113.006 69.0654 116.385 72.2367 Q119.765 75.408 119.765 80.8246 Q119.765 86.4033 116.293 89.5051 Q112.82 92.5838 106.501 92.5838 Q104.325 92.5838 102.057 92.2134 Q99.8113 91.8431 97.4039 91.1023 L97.4039 86.4033 Q99.4872 87.5375 101.709 88.0931 Q103.932 88.6487 106.408 88.6487 Q110.413 88.6487 112.751 86.5422 Q115.089 84.4357 115.089 80.8246 Q115.089 77.2135 112.751 75.1071 Q110.413 73.0006 106.408 73.0006 Q104.534 73.0006 102.659 73.4173 Q100.807 73.8339 98.8622 74.7135 L98.8622 57.3525 Z" fill="#000000" fill-rule="nonzero" fill-opacity="1" /><path clip-path="url(#clip781)" d="M217.944 1384.99 L425.207 1420.62 L632.47 1394.83 L839.734 1404.49 L1047 1445.72 L1254.26 1436.19 L1461.52 1434.1 L1668.79 1393.49 L1876.05 1365.69 L2083.31 1354.95 L2290.58 1384.09 L2290.58 267.379 L2083.31 551.364 L1876.05 207.526 L1668.79 87.9763 L1461.52 426.996 L1254.26 770.114 L1047 783.426 L839.734 948.53 L632.47 1116.08 L425.207 1251.13 L217.944 1384.99  Z" fill="#009af9" fill-rule="evenodd" fill-opacity="0.2"/>
<polyline clip-path="url(#clip781)" style="stroke:#009af9; stroke-linecap:round; stroke-linejoin:round; stroke-width:12; stroke-opacity:1; fill:none" points="217.944,1384.99 425.207,1365.88 632.47,1357.54 839.734,1321.5 1047,1260.91 1254.26,1262.2 1461.52,1243.28 1668.79,1196.58 1876.05,1099.45 2083.31,1132.22 2290.58,1080.11 "/>
</svg>
