<?xml version="1.0" encoding="utf-8"?>
<svg xmlns="http://www.w3.org/2000/svg" xmlns:xlink="http://www.w3.org/1999/xlink" width="600" height="400" viewBox="0 0 2400 1600">
<defs>
  <clipPath id="clip750">
    <rect x="0" y="0" width="2400" height="1600"/>
  </clipPath>
</defs>
<path clip-path="url(#clip750)" d="M0 1600 L2400 1600 L2400 0 L0 0  Z" fill="#ffffff" fill-rule="evenodd" fill-opacity="1"/>
<defs>
  <clipPath id="clip751">
    <rect x="184" y="47" width="2170" height="1440"/>
  </clipPath>
</defs>
<path clip-path="url(#clip750)" d="M184.191 1486.45 L2352.76 1486.45 L2352.76 47.2441 L184.191 47.2441  Z" fill="#ffffff" fill-rule="evenodd" fill-opacity="1"/>
<polyline clip-path="url(#clip751)" style="stroke:#000000; stroke-linecap:round; stroke-linejoin:round; stroke-width:2; stroke-opacity:0.1; fill:none" points="245.565,1486.45 245.565,47.2441 "/>
<polyline clip-path="url(#clip751)" style="stroke:#000000; stroke-linecap:round; stroke-linejoin:round; stroke-width:2; stroke-opacity:0.1; fill:none" points="757.019,1486.45 757.019,47.2441 "/>
<polyline clip-path="url(#clip751)" style="stroke:#000000; stroke-linecap:round; stroke-linejoin:round; stroke-width:2; stroke-opacity:0.1; fill:none" points="1268.47,1486.45 1268.47,47.2441 "/>
<polyline clip-path="url(#clip751)" style="stroke:#000000; stroke-linecap:round; stroke-linejoin:round; stroke-width:2; stroke-opacity:0.1; fill:none" points="1779.93,1486.45 1779.93,47.2441 "/>
<polyline clip-path="url(#clip751)" style="stroke:#000000; stroke-linecap:round; stroke-linejoin:round; stroke-width:2; stroke-opacity:0.1; fill:none" points="2291.38,1486.45 2291.38,47.2441 "/>
<polyline clip-path="url(#clip751)" style="stroke:#000000; stroke-linecap:round; stroke-linejoin:round; stroke-width:2; stroke-opacity:0.1; fill:none" points="184.191,1448.38 2352.76,1448.38 "/>
<polyline clip-path="url(#clip751)" style="stroke:#000000; stroke-linecap:round; stroke-linejoin:round; stroke-width:2; stroke-opacity:0.1; fill:none" points="184.191,1147.58 2352.76,1147.58 "/>
<polyline clip-path="url(#clip751)" style="stroke:#000000; stroke-linecap:round; stroke-linejoin:round; stroke-width:2; stroke-opacity:0.1; fill:none" points="184.191,846.777 2352.76,846.777 "/>
<polyline clip-path="url(#clip751)" style="stroke:#000000; stroke-linecap:round; stroke-linejoin:round; stroke-width:2; stroke-opacity:0.1; fill:none" points="184.191,545.976 2352.76,545.976 "/>
<polyline clip-path="url(#clip751)" style="stroke:#000000; stroke-linecap:round; stroke-linejoin:round; stroke-width:2; stroke-opacity:0.1; fill:none" points="184.191,245.174 2352.76,245.174 "/>
<polyline clip-path="url(#clip750)" style="stroke:#000000; stroke-linecap:round; stroke-linejoin:round; stroke-width:4; stroke-opacity:1; fill:none" points="184.191,1486.45 2352.76,1486.45 "/>
<polyline clip-path="url(#clip750)" style="stroke:#000000; stroke-linecap:round; stroke-linejoin:round; stroke-width:4; stroke-opacity:1; fill:none" points="245.565,1486.45 245.565,1467.55 "/>
<polyline clip-path="url(#clip750)" style="stroke:#000000; stroke-linecap:round; stroke-linejoin:round; stroke-width:4; stroke-opacity:1; fill:none" points="757.019,1486.45 757.019,1467.55 "/>
<polyline clip-path="url(#clip750)" style="stroke:#000000; stroke-linecap:round; stroke-linejoin:round; stroke-width:4; stroke-opacity:1; fill:none" points="1268.47,1486.45 1268.47,1467.55 "/>
<polyline clip-path="url(#clip750)" style="stroke:#000000; stroke-linecap:round; stroke-linejoin:round; stroke-width:4; stroke-opacity:1; fill:none" points="1779.93,1486.45 1779.93,1467.55 "/>
<polyline clip-path="url(#clip750)" style="stroke:#000000; stroke-linecap:round; stroke-linejoin:round; stroke-width:4; stroke-opacity:1; fill:none" points="2291.38,1486.45 2291.38,1467.55 "/>
<path clip-path="url(#clip750)" d="M222.95 1517.37 Q219.338 1517.37 217.51 1520.93 Q215.704 1524.47 215.704 1531.6 Q215.704 1538.71 217.51 1542.27 Q219.338 1545.82 222.95 1545.82 Q226.584 1545.82 228.389 1542.27 Q230.218 1538.71 230.218 1531.6 Q230.218 1524.47 228.389 1520.93 Q226.584 1517.37 222.95 1517.37 M222.95 1513.66 Q228.76 1513.66 231.815 1518.27 Q234.894 1522.85 234.894 1531.6 Q234.894 1540.33 231.815 1544.94 Q228.76 1549.52 222.95 1549.52 Q217.139 1549.52 214.061 1544.94 Q211.005 1540.33 211.005 1531.6 Q211.005 1522.85 214.061 1518.27 Q217.139 1513.66 222.95 1513.66 Z" fill="#000000" fill-rule="nonzero" fill-opacity="1" /><path clip-path="url(#clip750)" d="M243.111 1542.97 L247.996 1542.97 L247.996 1548.85 L243.111 1548.85 L243.111 1542.97 Z" fill="#000000" fill-rule="nonzero" fill-opacity="1" /><path clip-path="url(#clip750)" d="M268.181 1517.37 Q264.57 1517.37 262.741 1520.93 Q260.935 1524.47 260.935 1531.6 Q260.935 1538.71 262.741 1542.27 Q264.57 1545.82 268.181 1545.82 Q271.815 1545.82 273.621 1542.27 Q275.449 1538.71 275.449 1531.6 Q275.449 1524.47 273.621 1520.93 Q271.815 1517.37 268.181 1517.37 M268.181 1513.66 Q273.991 1513.66 277.046 1518.27 Q280.125 1522.85 280.125 1531.6 Q280.125 1540.33 277.046 1544.94 Q273.991 1549.52 268.181 1549.52 Q262.371 1549.52 259.292 1544.94 Q256.236 1540.33 256.236 1531.6 Q256.236 1522.85 259.292 1518.27 Q262.371 1513.66 268.181 1513.66 Z" fill="#000000" fill-rule="nonzero" fill-opacity="1" /><path clip-path="url(#clip750)" d="M728.755 1544.91 L745.075 1544.91 L745.075 1548.85 L723.131 1548.85 L723.131 1544.91 Q725.793 1542.16 730.376 1537.53 Q734.982 1532.88 736.163 1531.53 Q738.408 1529.01 739.288 1527.27 Q740.191 1525.51 740.191 1523.82 Q740.191 1521.07 738.246 1519.33 Q736.325 1517.6 733.223 1517.6 Q731.024 1517.6 728.57 1518.36 Q726.14 1519.13 723.362 1520.68 L723.362 1515.95 Q726.186 1514.82 728.64 1514.24 Q731.093 1513.66 733.13 1513.66 Q738.501 1513.66 741.695 1516.35 Q744.89 1519.03 744.89 1523.52 Q744.89 1525.65 744.079 1527.57 Q743.292 1529.47 741.186 1532.07 Q740.607 1532.74 737.505 1535.95 Q734.404 1539.15 728.755 1544.91 Z" fill="#000000" fill-rule="nonzero" fill-opacity="1" /><path clip-path="url(#clip750)" d="M754.89 1542.97 L759.774 1542.97 L759.774 1548.85 L754.89 1548.85 L754.89 1542.97 Z" fill="#000000" fill-rule="nonzero" fill-opacity="1" /><path clip-path="url(#clip750)" d="M770.005 1514.29 L788.362 1514.29 L788.362 1518.22 L774.288 1518.22 L774.288 1526.7 Q775.306 1526.35 776.325 1526.19 Q777.343 1526 778.362 1526 Q784.149 1526 787.528 1529.17 Q790.908 1532.34 790.908 1537.76 Q790.908 1543.34 787.436 1546.44 Q783.964 1549.52 777.644 1549.52 Q775.468 1549.52 773.2 1549.15 Q770.954 1548.78 768.547 1548.04 L768.547 1543.34 Q770.63 1544.47 772.852 1545.03 Q775.075 1545.58 777.552 1545.58 Q781.556 1545.58 783.894 1543.48 Q786.232 1541.37 786.232 1537.76 Q786.232 1534.15 783.894 1532.04 Q781.556 1529.94 777.552 1529.94 Q775.677 1529.94 773.802 1530.35 Q771.95 1530.77 770.005 1531.65 L770.005 1514.29 Z" fill="#000000" fill-rule="nonzero" fill-opacity="1" /><path clip-path="url(#clip750)" d="M1235.64 1514.29 L1253.99 1514.29 L1253.99 1518.22 L1239.92 1518.22 L1239.92 1526.7 Q1240.94 1526.35 1241.96 1526.19 Q1242.98 1526 1243.99 1526 Q1249.78 1526 1253.16 1529.17 Q1256.54 1532.34 1256.54 1537.76 Q1256.54 1543.34 1253.07 1546.44 Q1249.6 1549.52 1243.28 1549.52 Q1241.1 1549.52 1238.83 1549.15 Q1236.59 1548.78 1234.18 1548.04 L1234.18 1543.34 Q1236.26 1544.47 1238.49 1545.03 Q1240.71 1545.58 1243.18 1545.58 Q1247.19 1545.58 1249.53 1543.48 Q1251.86 1541.37 1251.86 1537.76 Q1251.86 1534.15 1249.53 1532.04 Q1247.19 1529.94 1243.18 1529.94 Q1241.31 1529.94 1239.43 1530.35 Q1237.58 1530.77 1235.64 1531.65 L1235.64 1514.29 Z" fill="#000000" fill-rule="nonzero" fill-opacity="1" /><path clip-path="url(#clip750)" d="M1265.75 1542.97 L1270.64 1542.97 L1270.64 1548.85 L1265.75 1548.85 L1265.75 1542.97 Z" fill="#000000" fill-rule="nonzero" fill-opacity="1" /><path clip-path="url(#clip750)" d="M1290.82 1517.37 Q1287.21 1517.37 1285.38 1520.93 Q1283.58 1524.47 1283.58 1531.6 Q1283.58 1538.71 1285.38 1542.27 Q1287.21 1545.82 1290.82 1545.82 Q1294.46 1545.82 1296.26 1542.27 Q1298.09 1538.71 1298.09 1531.6 Q1298.09 1524.47 1296.26 1520.93 Q1294.46 1517.37 1290.82 1517.37 M1290.82 1513.66 Q1296.63 1513.66 1299.69 1518.27 Q1302.77 1522.85 1302.77 1531.6 Q1302.77 1540.33 1299.69 1544.94 Q1296.63 1549.52 1290.82 1549.52 Q1285.01 1549.52 1281.93 1544.94 Q1278.88 1540.33 1278.88 1531.6 Q1278.88 1522.85 1281.93 1518.27 Q1285.01 1513.66 1290.82 1513.66 Z" fill="#000000" fill-rule="nonzero" fill-opacity="1" /><path clip-path="url(#clip750)" d="M1746.25 1514.29 L1768.47 1514.29 L1768.47 1516.28 L1755.92 1548.85 L1751.04 1548.85 L1762.84 1518.22 L1746.25 1518.22 L1746.25 1514.29 Z" fill="#000000" fill-rule="nonzero" fill-opacity="1" /><path clip-path="url(#clip750)" d="M1777.59 1542.97 L1782.47 1542.97 L1782.47 1548.85 L1777.59 1548.85 L1777.59 1542.97 Z" fill="#000000" fill-rule="nonzero" fill-opacity="1" /><path clip-path="url(#clip750)" d="M1792.71 1514.29 L1811.06 1514.29 L1811.06 1518.22 L1796.99 1518.22 L1796.99 1526.7 Q1798.01 1526.35 1799.02 1526.19 Q1800.04 1526 1801.06 1526 Q1806.85 1526 1810.23 1529.17 Q1813.61 1532.34 1813.61 1537.76 Q1813.61 1543.34 1810.14 1546.44 Q1806.66 1549.52 1800.34 1549.52 Q1798.17 1549.52 1795.9 1549.15 Q1793.65 1548.78 1791.25 1548.04 L1791.25 1543.34 Q1793.33 1544.47 1795.55 1545.03 Q1797.77 1545.58 1800.25 1545.58 Q1804.26 1545.58 1806.59 1543.48 Q1808.93 1541.37 1808.93 1537.76 Q1808.93 1534.15 1806.59 1532.04 Q1804.26 1529.94 1800.25 1529.94 Q1798.38 1529.94 1796.5 1530.35 Q1794.65 1530.77 1792.71 1531.65 L1792.71 1514.29 Z" fill="#000000" fill-rule="nonzero" fill-opacity="1" /><path clip-path="url(#clip750)" d="M2243.45 1544.91 L2251.09 1544.91 L2251.09 1518.55 L2242.78 1520.21 L2242.78 1515.95 L2251.05 1514.29 L2255.72 1514.29 L2255.72 1544.91 L2263.36 1544.91 L2263.36 1548.85 L2243.45 1548.85 L2243.45 1544.91 Z" fill="#000000" fill-rule="nonzero" fill-opacity="1" /><path clip-path="url(#clip750)" d="M2282.81 1517.37 Q2279.19 1517.37 2277.37 1520.93 Q2275.56 1524.47 2275.56 1531.6 Q2275.56 1538.71 2277.37 1542.27 Q2279.19 1545.82 2282.81 1545.82 Q2286.44 1545.82 2288.24 1542.27 Q2290.07 1538.71 2290.07 1531.6 Q2290.07 1524.47 2288.24 1520.93 Q2286.44 1517.37 2282.81 1517.37 M2282.81 1513.66 Q2288.62 1513.66 2291.67 1518.27 Q2294.75 1522.85 2294.75 1531.6 Q2294.75 1540.33 2291.67 1544.94 Q2288.62 1549.52 2282.81 1549.52 Q2276.99 1549.52 2273.92 1544.94 Q2270.86 1540.33 2270.86 1531.6 Q2270.86 1522.85 2273.92 1518.27 Q2276.99 1513.66 2282.81 1513.66 Z" fill="#000000" fill-rule="nonzero" fill-opacity="1" /><path clip-path="url(#clip750)" d="M2302.97 1542.97 L2307.85 1542.97 L2307.85 1548.85 L2302.97 1548.85 L2302.97 1542.97 Z" fill="#000000" fill-rule="nonzero" fill-opacity="1" /><path clip-path="url(#clip750)" d="M2328.04 1517.37 Q2324.43 1517.37 2322.6 1520.93 Q2320.79 1524.47 2320.79 1531.6 Q2320.79 1538.71 2322.6 1542.27 Q2324.43 1545.82 2328.04 1545.82 Q2331.67 1545.82 2333.48 1542.27 Q2335.3 1538.71 2335.3 1531.6 Q2335.3 1524.47 2333.48 1520.93 Q2331.67 1517.37 2328.04 1517.37 M2328.04 1513.66 Q2333.85 1513.66 2336.9 1518.27 Q2339.98 1522.85 2339.98 1531.6 Q2339.98 1540.33 2336.9 1544.94 Q2333.85 1549.52 2328.04 1549.52 Q2322.23 1549.52 2319.15 1544.94 Q2316.09 1540.33 2316.09 1531.6 Q2316.09 1522.85 2319.15 1518.27 Q2322.23 1513.66 2328.04 1513.66 Z" fill="#000000" fill-rule="nonzero" fill-opacity="1" /><polyline clip-path="url(#clip750)" style="stroke:#000000; stroke-linecap:round; stroke-linejoin:round; stroke-width:4; stroke-opacity:1; fill:none" points="184.191,1486.45 184.191,47.2441 "/>
<polyline clip-path="url(#clip750)" style="stroke:#000000; stroke-linecap:round; stroke-linejoin:round; stroke-width:4; stroke-opacity:1; fill:none" points="184.191,1448.38 203.088,1448.38 "/>
<polyline clip-path="url(#clip750)" style="stroke:#000000; stroke-linecap:round; stroke-linejoin:round; stroke-width:4; stroke-opacity:1; fill:none" points="184.191,1147.58 203.088,1147.58 "/>
<polyline clip-path="url(#clip750)" style="stroke:#000000; stroke-linecap:round; stroke-linejoin:round; stroke-width:4; stroke-opacity:1; fill:none" points="184.191,846.777 203.088,846.777 "/>
<polyline clip-path="url(#clip750)" style="stroke:#000000; stroke-linecap:round; stroke-linejoin:round; stroke-width:4; stroke-opacity:1; fill:none" points="184.191,545.976 203.088,545.976 "/>
<polyline clip-path="url(#clip750)" style="stroke:#000000; stroke-linecap:round; stroke-linejoin:round; stroke-width:4; stroke-opacity:1; fill:none" points="184.191,245.174 203.088,245.174 "/>
<path clip-path="url(#clip750)" d="M91.0151 1434.18 Q87.404 1434.18 85.5753 1437.74 Q83.7697 1441.29 83.7697 1448.42 Q83.7697 1455.52 85.5753 1459.09 Q87.404 1462.63 91.0151 1462.63 Q94.6493 1462.63 96.4548 1459.09 Q98.2835 1455.52 98.2835 1448.42 Q98.2835 1441.29 96.4548 1437.74 Q94.6493 1434.18 91.0151 1434.18 M91.0151 1430.48 Q96.8252 1430.48 99.8808 1435.08 Q102.959 1439.67 102.959 1448.42 Q102.959 1457.14 99.8808 1461.75 Q96.8252 1466.33 91.0151 1466.33 Q85.2049 1466.33 82.1262 1461.75 Q79.0707 1457.14 79.0707 1448.42 Q79.0707 1439.67 82.1262 1435.08 Q85.2049 1430.48 91.0151 1430.48 Z" fill="#000000" fill-rule="nonzero" fill-opacity="1" /><path clip-path="url(#clip750)" d="M111.177 1459.78 L116.061 1459.78 L116.061 1465.66 L111.177 1465.66 L111.177 1459.78 Z" fill="#000000" fill-rule="nonzero" fill-opacity="1" /><path clip-path="url(#clip750)" d="M136.246 1434.18 Q132.635 1434.18 130.807 1437.74 Q129.001 1441.29 129.001 1448.42 Q129.001 1455.52 130.807 1459.09 Q132.635 1462.63 136.246 1462.63 Q139.881 1462.63 141.686 1459.09 Q143.515 1455.52 143.515 1448.42 Q143.515 1441.29 141.686 1437.74 Q139.881 1434.18 136.246 1434.18 M136.246 1430.48 Q142.056 1430.48 145.112 1435.08 Q148.191 1439.67 148.191 1448.42 Q148.191 1457.14 145.112 1461.75 Q142.056 1466.33 136.246 1466.33 Q130.436 1466.33 127.357 1461.75 Q124.302 1457.14 124.302 1448.42 Q124.302 1439.67 127.357 1435.08 Q130.436 1430.48 136.246 1430.48 Z" fill="#000000" fill-rule="nonzero" fill-opacity="1" /><path clip-path="url(#clip750)" d="M86.0382 1160.92 L102.358 1160.92 L102.358 1164.86 L80.4133 1164.86 L80.4133 1160.92 Q83.0753 1158.17 87.6586 1153.54 Q92.2651 1148.89 93.4456 1147.54 Q95.691 1145.02 96.5706 1143.28 Q97.4734 1141.53 97.4734 1139.84 Q97.4734 1137.08 95.5289 1135.35 Q93.6076 1133.61 90.5058 1133.61 Q88.3067 1133.61 85.8531 1134.37 Q83.4225 1135.14 80.6447 1136.69 L80.6447 1131.97 Q83.4688 1130.83 85.9225 1130.25 Q88.3762 1129.67 90.4132 1129.67 Q95.7836 1129.67 98.978 1132.36 Q102.172 1135.04 102.172 1139.53 Q102.172 1141.66 101.362 1143.59 Q100.575 1145.48 98.4687 1148.08 Q97.89 1148.75 94.7882 1151.97 Q91.6864 1155.16 86.0382 1160.92 Z" fill="#000000" fill-rule="nonzero" fill-opacity="1" /><path clip-path="url(#clip750)" d="M112.172 1158.98 L117.057 1158.98 L117.057 1164.86 L112.172 1164.86 L112.172 1158.98 Z" fill="#000000" fill-rule="nonzero" fill-opacity="1" /><path clip-path="url(#clip750)" d="M127.288 1130.3 L145.644 1130.3 L145.644 1134.23 L131.57 1134.23 L131.57 1142.71 Q132.589 1142.36 133.607 1142.2 Q134.626 1142.01 135.644 1142.01 Q141.431 1142.01 144.811 1145.18 Q148.191 1148.35 148.191 1153.77 Q148.191 1159.35 144.718 1162.45 Q141.246 1165.53 134.927 1165.53 Q132.751 1165.53 130.482 1165.16 Q128.237 1164.79 125.83 1164.05 L125.83 1159.35 Q127.913 1160.48 130.135 1161.04 Q132.357 1161.59 134.834 1161.59 Q138.839 1161.59 141.177 1159.49 Q143.515 1157.38 143.515 1153.77 Q143.515 1150.16 141.177 1148.05 Q138.839 1145.95 134.834 1145.95 Q132.959 1145.95 131.084 1146.36 Q129.232 1146.78 127.288 1147.66 L127.288 1130.3 Z" fill="#000000" fill-rule="nonzero" fill-opacity="1" /><path clip-path="url(#clip750)" d="M81.0614 829.497 L99.4178 829.497 L99.4178 833.432 L85.3438 833.432 L85.3438 841.905 Q86.3623 841.557 87.3808 841.395 Q88.3993 841.21 89.4178 841.21 Q95.2049 841.21 98.5845 844.381 Q101.964 847.553 101.964 852.969 Q101.964 858.548 98.4919 861.65 Q95.0197 864.728 88.7003 864.728 Q86.5243 864.728 84.2558 864.358 Q82.0105 863.988 79.6031 863.247 L79.6031 858.548 Q81.6864 859.682 83.9086 860.238 Q86.1308 860.793 88.6077 860.793 Q92.6123 860.793 94.9502 858.687 Q97.2882 856.58 97.2882 852.969 Q97.2882 849.358 94.9502 847.252 Q92.6123 845.145 88.6077 845.145 Q86.7327 845.145 84.8577 845.562 Q83.0058 845.979 81.0614 846.858 L81.0614 829.497 Z" fill="#000000" fill-rule="nonzero" fill-opacity="1" /><path clip-path="url(#clip750)" d="M111.177 858.178 L116.061 858.178 L116.061 864.057 L111.177 864.057 L111.177 858.178 Z" fill="#000000" fill-rule="nonzero" fill-opacity="1" /><path clip-path="url(#clip750)" d="M136.246 832.576 Q132.635 832.576 130.807 836.141 Q129.001 839.682 129.001 846.812 Q129.001 853.918 130.807 857.483 Q132.635 861.025 136.246 861.025 Q139.881 861.025 141.686 857.483 Q143.515 853.918 143.515 846.812 Q143.515 839.682 141.686 836.141 Q139.881 832.576 136.246 832.576 M136.246 828.872 Q142.056 828.872 145.112 833.479 Q148.191 838.062 148.191 846.812 Q148.191 855.539 145.112 860.145 Q142.056 864.728 136.246 864.728 Q130.436 864.728 127.357 860.145 Q124.302 855.539 124.302 846.812 Q124.302 838.062 127.357 833.479 Q130.436 828.872 136.246 828.872 Z" fill="#000000" fill-rule="nonzero" fill-opacity="1" /><path clip-path="url(#clip750)" d="M80.8299 528.696 L103.052 528.696 L103.052 530.686 L90.5058 563.256 L85.6216 563.256 L97.4271 532.631 L80.8299 532.631 L80.8299 528.696 Z" fill="#000000" fill-rule="nonzero" fill-opacity="1" /><path clip-path="url(#clip750)" d="M112.172 557.376 L117.057 557.376 L117.057 563.256 L112.172 563.256 L112.172 557.376 Z" fill="#000000" fill-rule="nonzero" fill-opacity="1" /><path clip-path="url(#clip750)" d="M127.288 528.696 L145.644 528.696 L145.644 532.631 L131.57 532.631 L131.57 541.103 Q132.589 540.756 133.607 540.594 Q134.626 540.409 135.644 540.409 Q141.431 540.409 144.811 543.58 Q148.191 546.751 148.191 552.168 Q148.191 557.746 144.718 560.848 Q141.246 563.927 134.927 563.927 Q132.751 563.927 130.482 563.557 Q128.237 563.186 125.83 562.445 L125.83 557.746 Q127.913 558.881 130.135 559.436 Q132.357 559.992 134.834 559.992 Q138.839 559.992 141.177 557.885 Q143.515 555.779 143.515 552.168 Q143.515 548.557 141.177 546.45 Q138.839 544.344 134.834 544.344 Q132.959 544.344 131.084 544.76 Q129.232 545.177 127.288 546.057 L127.288 528.696 Z" fill="#000000" fill-rule="nonzero" fill-opacity="1" /><path clip-path="url(#clip750)" d="M51.6634 258.519 L59.3023 258.519 L59.3023 232.153 L50.9921 233.82 L50.9921 229.561 L59.256 227.894 L63.9319 227.894 L63.9319 258.519 L71.5707 258.519 L71.5707 262.454 L51.6634 262.454 L51.6634 258.519 Z" fill="#000000" fill-rule="nonzero" fill-opacity="1" /><path clip-path="url(#clip750)" d="M91.0151 230.973 Q87.404 230.973 85.5753 234.538 Q83.7697 238.079 83.7697 245.209 Q83.7697 252.315 85.5753 255.88 Q87.404 259.422 91.0151 259.422 Q94.6493 259.422 96.4548 255.88 Q98.2835 252.315 98.2835 245.209 Q98.2835 238.079 96.4548 234.538 Q94.6493 230.973 91.0151 230.973 M91.0151 227.269 Q96.8252 227.269 99.8808 231.876 Q102.959 236.459 102.959 245.209 Q102.959 253.936 99.8808 258.542 Q96.8252 263.125 91.0151 263.125 Q85.2049 263.125 82.1262 258.542 Q79.0707 253.936 79.0707 245.209 Q79.0707 236.459 82.1262 231.876 Q85.2049 227.269 91.0151 227.269 Z" fill="#000000" fill-rule="nonzero" fill-opacity="1" /><path clip-path="url(#clip750)" d="M111.177 256.575 L116.061 256.575 L116.061 262.454 L111.177 262.454 L111.177 256.575 Z" fill="#000000" fill-rule="nonzero" fill-opacity="1" /><path clip-path="url(#clip750)" d="M136.246 230.973 Q132.635 230.973 130.807 234.538 Q129.001 238.079 129.001 245.209 Q129.001 252.315 130.807 255.88 Q132.635 259.422 136.246 259.422 Q139.881 259.422 141.686 255.88 Q143.515 252.315 143.515 245.209 Q143.515 238.079 141.686 234.538 Q139.881 230.973 136.246 230.973 M136.246 227.269 Q142.056 227.269 145.112 231.876 Q148.191 236.459 148.191 245.209 Q148.191 253.936 145.112 258.542 Q142.056 263.125 136.246 263.125 Q130.436 263.125 127.357 258.542 Q124.302 253.936 124.302 245.209 Q124.302 236.459 127.357 231.876 Q130.436 227.269 136.246 227.269 Z" fill="#000000" fill-rule="nonzero" fill-opacity="1" /><path clip-path="url(#clip751)" d="M245.565 1328.06 L266.023 1334.1 L286.481 1331.98 L306.94 1323.29 L327.398 1298.92 L347.856 1276.16 L368.314 1267.07 L388.772 1245.98 L409.23 1208.95 L429.689 1156.45 L450.147 1121.9 L470.605 1076.76 L491.063 1026.76 L511.521 992.033 L531.979 949.098 L552.438 881.087 L572.896 816.941 L593.354 752.894 L613.812 734.391 L634.27 742.737 L654.728 785.869 L675.187 852.393 L695.645 983.953 L716.103 1111.97 L736.561 1233.98 L757.019 1290.59 L777.477 1337.29 L797.936 1355.01 L818.394 1372.87 L838.852 1387.19 L859.31 1397.27 L879.768 1398.54 L900.226 1398.57 L920.685 1397.68 L941.143 1397.33 L961.601 1393.81 L982.059 1385.01 L1002.52 1377.66 L1022.98 1375.06 L1043.43 1368.35 L1063.89 1349.55 L1084.35 1337.29 L1104.81 1322.95 L1125.27 1303.71 L1145.72 1286.83 L1166.18 1278.73 L1186.64 1255.37 L1207.1 1232.1 L1227.56 1202.62 L1248.02 1152.67 L1268.47 1099.58 L1288.93 1041.35 L1309.39 990.011 L1329.85 1029.07 L1350.31 1094.44 L1370.76 1147.62 L1391.22 1220.37 L1411.68 1268.28 L1432.14 1289.82 L1452.6 1307.67 L1473.05 1316.56 L1493.51 1334.67 L1513.97 1345.01 L1534.43 1347.52 L1554.89 1366.32 L1575.35 1373.95 L1595.8 1390.69 L1616.26 1407.18 L1636.72 1413.23 L1657.18 1416.55 L1677.64 1417.4 L1698.09 1417.43 L1718.55 1419.09 L1739.01 1415.91 L1759.47 1415.98 L1779.93 1416.23 L1800.39 1413.56 L1820.84 1408.17 L1841.3 1400.45 L1861.76 1393.25 L1882.22 1388.36 L1902.68 1382.11 L1923.13 1378.42 L1943.59 1365.56 L1964.05 1351.83 L1984.51 1343.02 L2004.97 1315.06 L2025.43 1308.38 L2045.88 1323.54 L2066.34 1333.17 L2086.8 1345.58 L2107.26 1345.81 L2127.72 1344.33 L2148.17 1331.9 L2168.63 1324.68 L2189.09 1325 L2209.55 1333.17 L2230.01 1341.83 L2250.47 1345.13 L2270.92 1345.23 L2291.38 1341.11 L2291.38 420.619 L2270.92 487.159 L2250.47 594.036 L2230.01 682.177 L2209.55 691.918 L2189.09 636.679 L2168.63 629.199 L2148.17 573.213 L2127.72 622.765 L2107.26 695.883 L2086.8 658.306 L2066.34 617.488 L2045.88 562.156 L2025.43 544.008 L2004.97 577.493 L1984.51 621.998 L1964.05 692.373 L1943.59 723.097 L1923.13 711.976 L1902.68 656.051 L1882.22 681.207 L1861.76 744.601 L1841.3 791.298 L1820.84 864.694 L1800.39 943.412 L1779.93 977.649 L1759.47 1043.13 L1739.01 1068.19 L1718.55 1102.95 L1698.09 1138.02 L1677.64 1170.79 L1657.18 1197.29 L1636.72 1225.01 L1616.26 1247.66 L1595.8 1258.72 L1575.35 1274.73 L1554.89 1135.59 L1534.43 727.135 L1513.97 311.053 L1493.51 87.9763 L1473.05 172.72 L1452.6 293.439 L1432.14 298.42 L1411.68 260.977 L1391.22 372.678 L1370.76 430.788 L1350.31 558.199 L1329.85 570.753 L1309.39 616.39 L1288.93 667.414 L1268.47 678.478 L1248.02 650.071 L1227.56 633.085 L1207.1 710.459 L1186.64 805.733 L1166.18 867.65 L1145.72 938.918 L1125.27 973.658 L1104.81 1027.63 L1084.35 1099.41 L1063.89 1139.48 L1043.43 1174.25 L1022.98 1202.58 L1002.52 1244.11 L982.059 1267.13 L961.601 1273.45 L941.143 1296.71 L920.685 1306.18 L900.226 1310.72 L879.768 1312.93 L859.31 1316.46 L838.852 1308.69 L818.394 1293.2 L797.936 1267.45 L777.477 1224.67 L757.019 1152.13 L736.561 1006.15 L716.103 866.832 L695.645 700.409 L675.187 541.708 L654.728 491.467 L634.27 514.888 L613.812 567.178 L593.354 645.755 L572.896 653.735 L552.438 738.942 L531.979 838.446 L511.521 884.292 L491.063 946.38 L470.605 1009.83 L450.147 1055.38 L429.689 1114.09 L409.23 1139.7 L388.772 1170.07 L368.314 1204.25 L347.856 1224.35 L327.398 1258.05 L306.94 1286.26 L286.481 1304.2 L266.023 1317.94 L245.565 1328.06  Z" fill="#009af9" fill-rule="evenodd" fill-opacity="0.5"/>
<polyline clip-path="url(#clip751)" style="stroke:#009af9; stroke-linecap:round; stroke-linejoin:round; stroke-width:12; stroke-opacity:1; fill:none" points="245.565,1328.06 266.023,1321.55 286.481,1312.48 306.94,1299.8 327.398,1279.92 347.856,1258.83 368.314,1234.49 388.772,1212.89 409.23,1182.34 429.689,1144.71 450.147,1099.4 470.605,1054.12 491.063,1002.55 511.521,965.855 531.979,894.704 552.438,830.787 572.896,770.185 593.354,705.097 613.812,680.046 634.27,627.903 654.728,622.892 675.187,690.124 695.645,832.406 716.103,970.465 736.561,1085.18 757.019,1176.9 777.477,1254.85 797.936,1297.8 818.394,1316.9 838.852,1327.06 859.31,1331.38 879.768,1333.69 900.226,1334.48 920.685,1331.58 941.143,1327.15 961.601,1313.34 982.059,1299.35 1002.52,1287.42 1022.98,1269.56 1043.43,1247.59 1063.89,1222.45 1084.35,1194.12 1104.81,1162.55 1125.27,1126.2 1145.72,1089.24 1166.18,1046.47 1186.64,998.541 1207.1,943.805 1227.56,887.569 1248.02,825.807 1268.47,755.496 1288.93,704.167 1309.39,743.607 1329.85,733.826 1350.31,669.347 1370.76,768.71 1391.22,829.402 1411.68,1009.37 1432.14,1132.01 1452.6,1211.39 1473.05,1258.6 1493.51,1278.63 1513.97,1291.66 1534.43,1310.14 1554.89,1314.52 1575.35,1320.88 1595.8,1329.15 1616.26,1325.72 1636.72,1316.5 1657.18,1305.93 1677.64,1297.49 1698.09,1284.65 1718.55,1269.16 1739.01,1250.43 1759.47,1220.22 1779.93,1196.65 1800.39,1167.67 1820.84,1134.27 1841.3,1090.03 1861.76,1048.33 1882.22,993.844 1902.68,933.529 1923.13,868.099 1943.59,823.253 1964.05,791.853 1984.51,913.283 2004.97,951.794 2025.43,961.339 2045.88,958.907 2066.34,1012.65 2086.8,1024.32 2107.26,1115.7 2127.72,1196.93 2148.17,1250.23 2168.63,1283.76 2189.09,1303.04 2209.55,1310.62 2230.01,1310.35 2250.47,1305.94 2270.92,1296.63 2291.38,1302.92 "/>
<path clip-path="url(#clip751)" d="M245.565 1328.06 L266.023 1355.51 L286.481 1372.77 L306.94 1391.08 L327.398 1401.32 L347.856 1407.29 L368.314 1416.69 L388.772 1418.71 L409.23 1421.14 L429.689 1423.46 L450.147 1424.96 L470.605 1425.91 L491.063 1424.87 L511.521 1424.24 L531.979 1421.04 L552.438 1414.86 L572.896 1406.3 L593.354 1387 L613.812 1361.9 L634.27 1326.83 L654.728 1269.03 L675.187 1155.51 L695.645 1036.51 L716.103 960.995 L736.561 952.77 L757.019 993.275 L777.477 1060.83 L797.936 1116.3 L818.394 1199.98 L838.852 1248.1 L859.31 1280.42 L879.768 1307.87 L900.226 1331.14 L920.685 1351.82 L941.143 1372.43 L961.601 1390.8 L982.059 1403.92 L1002.52 1412.86 L1022.98 1421.42 L1043.43 1425.94 L1063.89 1429.21 L1084.35 1434.2 L1104.81 1435.85 L1125.27 1437.48 L1145.72 1439.34 L1166.18 1440.92 L1186.64 1442.17 L1207.1 1442.97 L1227.56 1443.5 L1248.02 1443.91 L1268.47 1443.66 L1288.93 1443.43 L1309.39 1442.69 L1329.85 1441.81 L1350.31 1440.4 L1370.76 1436.33 L1391.22 1430 L1411.68 1419.49 L1432.14 1396.99 L1452.6 1346.97 L1473.05 1339 L1493.51 1300.61 L1513.97 1307.78 L1534.43 1328.43 L1554.89 1343.73 L1575.35 1361.01 L1595.8 1373.73 L1616.26 1383.31 L1636.72 1390.3 L1657.18 1397.17 L1677.64 1402.47 L1698.09 1408.33 L1718.55 1414.03 L1739.01 1416.36 L1759.47 1418.05 L1779.93 1418.59 L1800.39 1421.38 L1820.84 1425.56 L1841.3 1428.85 L1861.76 1431.26 L1882.22 1432.95 L1902.68 1435.15 L1923.13 1436.66 L1943.59 1438.64 L1964.05 1441.01 L1984.51 1442.73 L2004.97 1443.51 L2025.43 1444.28 L2045.88 1445 L2066.34 1445.51 L2086.8 1445.72 L2107.26 1445.66 L2127.72 1445.59 L2148.17 1444.98 L2168.63 1444.32 L2189.09 1443.03 L2209.55 1439.79 L2230.01 1433.82 L2250.47 1419.8 L2270.92 1423.09 L2291.38 1427.17 L2291.38 1031.04 L2270.92 1076.1 L2250.47 1002.61 L2230.01 938.138 L2209.55 926.693 L2189.09 956.681 L2168.63 952.382 L2148.17 884.043 L2127.72 852.297 L2107.26 865.769 L2086.8 918.747 L2066.34 982.118 L2045.88 987.307 L2025.43 954.397 L2004.97 961.761 L1984.51 1013.18 L1964.05 1083.7 L1943.59 1150.62 L1923.13 1221.48 L1902.68 1269.55 L1882.22 1313.42 L1861.76 1353.75 L1841.3 1371.02 L1820.84 1379.86 L1800.39 1382.03 L1779.93 1374.99 L1759.47 1358.8 L1739.01 1328.14 L1718.55 1276.03 L1698.09 1219.9 L1677.64 1141.49 L1657.18 1060.5 L1636.72 984.577 L1616.26 842.724 L1595.8 658.395 L1575.35 421.023 L1554.89 272.905 L1534.43 508.67 L1513.97 727.858 L1493.51 682.699 L1473.05 727.857 L1452.6 815.001 L1432.14 855.334 L1411.68 855.244 L1391.22 912.219 L1370.76 967.269 L1350.31 970.804 L1329.85 1002.61 L1309.39 1046.06 L1288.93 1140.09 L1268.47 1222.15 L1248.02 1289.35 L1227.56 1342.1 L1207.1 1375.42 L1186.64 1393.08 L1166.18 1403.52 L1145.72 1407.98 L1125.27 1410.23 L1104.81 1409.14 L1084.35 1406.55 L1063.89 1402.79 L1043.43 1398.27 L1022.98 1391.21 L1002.52 1381.76 L982.059 1370.49 L961.601 1355.01 L941.143 1337.57 L920.685 1314.03 L900.226 1281.59 L879.768 1225.64 L859.31 1171.21 L838.852 1113.65 L818.394 1036.57 L797.936 952.946 L777.477 844.464 L757.019 766.551 L736.561 736.823 L716.103 686.696 L695.645 801.61 L675.187 985.26 L654.728 1097.09 L634.27 1187.72 L613.812 1260.46 L593.354 1313.28 L572.896 1356.06 L552.438 1383.01 L531.979 1394.44 L511.521 1403.04 L491.063 1408.21 L470.605 1412.61 L450.147 1410.79 L429.689 1410.66 L409.23 1408.38 L388.772 1402.65 L368.314 1397.54 L347.856 1389.66 L327.398 1383.19 L306.94 1375.12 L286.481 1362.89 L266.023 1339.11 L245.565 1328.06  Z" fill="#e26f46" fill-rule="evenodd" fill-opacity="0.5"/>
<polyline clip-path="url(#clip751)" style="stroke:#e26f46; stroke-linecap:round; stroke-linejoin:round; stroke-width:12; stroke-opacity:1; fill:none" points="245.565,1328.06 266.023,1349.61 286.481,1367.18 306.94,1380.75 327.398,1391.06 347.856,1399.39 368.314,1405.71 388.772,1410.81 409.23,1414.14 429.689,1414.46 450.147,1415.79 470.605,1416.09 491.063,1415.36 511.521,1411.25 531.979,1405.44 552.438,1397.46 572.896,1390.03 593.354,1368.98 613.812,1339.5 634.27,1284.57 654.728,1202.44 675.187,1106.04 695.645,1004.14 716.103,922.561 736.561,896.844 757.019,915.29 777.477,966.437 797.936,1036.76 818.394,1111.34 838.852,1166.19 859.31,1216.34 879.768,1258.94 900.226,1293.03 920.685,1333.29 941.143,1355.01 961.601,1372.17 982.059,1385.54 1002.52,1394.93 1022.98,1404.16 1043.43,1408.84 1063.89,1413.53 1084.35,1415.98 1104.81,1417.65 1125.27,1418.95 1145.72,1420.12 1166.18,1419.11 1186.64,1416.69 1207.1,1413.35 1227.56,1407.35 1248.02,1398.36 1268.47,1384.35 1288.93,1364.16 1309.39,1328.81 1329.85,1268.83 1350.31,1177.1 1370.76,1073.63 1391.22,1014.33 1411.68,1021.17 1432.14,1056.47 1452.6,1034.48 1473.05,1049.73 1493.51,1076.03 1513.97,1124.73 1534.43,1182.82 1554.89,1232.92 1575.35,1273.6 1595.8,1306.22 1616.26,1330.65 1636.72,1350.31 1657.18,1367.93 1677.64,1378.72 1698.09,1383.98 1718.55,1392.7 1739.01,1399.02 1759.47,1403.62 1779.93,1409.57 1800.39,1412.54 1820.84,1413.61 1841.3,1414.91 1861.76,1415.25 1882.22,1412.52 1902.68,1408.49 1923.13,1400.96 1943.59,1389.6 1964.05,1372.24 1984.51,1342.42 2004.97,1296.83 2025.43,1227.74 2045.88,1142.74 2066.34,1070.84 2086.8,1082.6 2107.26,1136.02 2127.72,1195.2 2148.17,1197.63 2168.63,1164.4 2189.09,1213.02 2209.55,1255.71 2230.01,1284.26 2250.47,1304.14 2270.92,1313.88 2291.38,1337.63 "/>
</svg>
