<?xml version="1.0" encoding="utf-8"?>
<svg xmlns="http://www.w3.org/2000/svg" xmlns:xlink="http://www.w3.org/1999/xlink" width="600" height="400" viewBox="0 0 2400 1600">
<defs>
  <clipPath id="clip840">
    <rect x="0" y="0" width="2400" height="1600"/>
  </clipPath>
</defs>
<path clip-path="url(#clip840)" d="M0 1600 L2400 1600 L2400 0 L0 0  Z" fill="#ffffff" fill-rule="evenodd" fill-opacity="1"/>
<defs>
  <clipPath id="clip841">
    <rect x="186" y="47" width="2167" height="1440"/>
  </clipPath>
</defs>
<path clip-path="url(#clip840)" d="M186.274 1486.45 L2352.76 1486.45 L2352.76 47.2441 L186.274 47.2441  Z" fill="#ffffff" fill-rule="evenodd" fill-opacity="1"/>
<polyline clip-path="url(#clip841)" style="stroke:#000000; stroke-linecap:round; stroke-linejoin:round; stroke-width:2; stroke-opacity:0.1; fill:none" points="247.59,1486.45 247.59,47.2441 "/>
<polyline clip-path="url(#clip841)" style="stroke:#000000; stroke-linecap:round; stroke-linejoin:round; stroke-width:2; stroke-opacity:0.1; fill:none" points="758.552,1486.45 758.552,47.2441 "/>
<polyline clip-path="url(#clip841)" style="stroke:#000000; stroke-linecap:round; stroke-linejoin:round; stroke-width:2; stroke-opacity:0.1; fill:none" points="1269.51,1486.45 1269.51,47.2441 "/>
<polyline clip-path="url(#clip841)" style="stroke:#000000; stroke-linecap:round; stroke-linejoin:round; stroke-width:2; stroke-opacity:0.1; fill:none" points="1780.48,1486.45 1780.48,47.2441 "/>
<polyline clip-path="url(#clip841)" style="stroke:#000000; stroke-linecap:round; stroke-linejoin:round; stroke-width:2; stroke-opacity:0.1; fill:none" points="2291.44,1486.45 2291.44,47.2441 "/>
<polyline clip-path="url(#clip841)" style="stroke:#000000; stroke-linecap:round; stroke-linejoin:round; stroke-width:2; stroke-opacity:0.1; fill:none" points="186.274,1271.27 2352.76,1271.27 "/>
<polyline clip-path="url(#clip841)" style="stroke:#000000; stroke-linecap:round; stroke-linejoin:round; stroke-width:2; stroke-opacity:0.1; fill:none" points="186.274,973.542 2352.76,973.542 "/>
<polyline clip-path="url(#clip841)" style="stroke:#000000; stroke-linecap:round; stroke-linejoin:round; stroke-width:2; stroke-opacity:0.1; fill:none" points="186.274,675.818 2352.76,675.818 "/>
<polyline clip-path="url(#clip841)" style="stroke:#000000; stroke-linecap:round; stroke-linejoin:round; stroke-width:2; stroke-opacity:0.1; fill:none" points="186.274,378.093 2352.76,378.093 "/>
<polyline clip-path="url(#clip841)" style="stroke:#000000; stroke-linecap:round; stroke-linejoin:round; stroke-width:2; stroke-opacity:0.1; fill:none" points="186.274,80.3682 2352.76,80.3682 "/>
<polyline clip-path="url(#clip840)" style="stroke:#000000; stroke-linecap:round; stroke-linejoin:round; stroke-width:4; stroke-opacity:1; fill:none" points="186.274,1486.45 2352.76,1486.45 "/>
<polyline clip-path="url(#clip840)" style="stroke:#000000; stroke-linecap:round; stroke-linejoin:round; stroke-width:4; stroke-opacity:1; fill:none" points="247.59,1486.45 247.59,1467.55 "/>
<polyline clip-path="url(#clip840)" style="stroke:#000000; stroke-linecap:round; stroke-linejoin:round; stroke-width:4; stroke-opacity:1; fill:none" points="758.552,1486.45 758.552,1467.55 "/>
<polyline clip-path="url(#clip840)" style="stroke:#000000; stroke-linecap:round; stroke-linejoin:round; stroke-width:4; stroke-opacity:1; fill:none" points="1269.51,1486.45 1269.51,1467.55 "/>
<polyline clip-path="url(#clip840)" style="stroke:#000000; stroke-linecap:round; stroke-linejoin:round; stroke-width:4; stroke-opacity:1; fill:none" points="1780.48,1486.45 1780.48,1467.55 "/>
<polyline clip-path="url(#clip840)" style="stroke:#000000; stroke-linecap:round; stroke-linejoin:round; stroke-width:4; stroke-opacity:1; fill:none" points="2291.44,1486.45 2291.44,1467.55 "/>
<path clip-path="url(#clip840)" d="M209.893 1517.37 Q206.282 1517.37 204.453 1520.93 Q202.648 1524.47 202.648 1531.6 Q202.648 1538.71 204.453 1542.27 Q206.282 1545.82 209.893 1545.82 Q213.527 1545.82 215.333 1542.27 Q217.161 1538.71 217.161 1531.6 Q217.161 1524.47 215.333 1520.93 Q213.527 1517.37 209.893 1517.37 M209.893 1513.66 Q215.703 1513.66 218.759 1518.27 Q221.837 1522.85 221.837 1531.6 Q221.837 1540.33 218.759 1544.94 Q215.703 1549.52 209.893 1549.52 Q204.083 1549.52 201.004 1544.94 Q197.949 1540.33 197.949 1531.6 Q197.949 1522.85 201.004 1518.27 Q204.083 1513.66 209.893 1513.66 Z" fill="#000000" fill-rule="nonzero" fill-opacity="1" /><path clip-path="url(#clip840)" d="M230.055 1542.97 L234.939 1542.97 L234.939 1548.85 L230.055 1548.85 L230.055 1542.97 Z" fill="#000000" fill-rule="nonzero" fill-opacity="1" /><path clip-path="url(#clip840)" d="M255.124 1517.37 Q251.513 1517.37 249.684 1520.93 Q247.879 1524.47 247.879 1531.6 Q247.879 1538.71 249.684 1542.27 Q251.513 1545.82 255.124 1545.82 Q258.758 1545.82 260.564 1542.27 Q262.393 1538.71 262.393 1531.6 Q262.393 1524.47 260.564 1520.93 Q258.758 1517.37 255.124 1517.37 M255.124 1513.66 Q260.934 1513.66 263.99 1518.27 Q267.069 1522.85 267.069 1531.6 Q267.069 1540.33 263.99 1544.94 Q260.934 1549.52 255.124 1549.52 Q249.314 1549.52 246.235 1544.94 Q243.18 1540.33 243.18 1531.6 Q243.18 1522.85 246.235 1518.27 Q249.314 1513.66 255.124 1513.66 Z" fill="#000000" fill-rule="nonzero" fill-opacity="1" /><path clip-path="url(#clip840)" d="M285.286 1517.37 Q281.675 1517.37 279.846 1520.93 Q278.041 1524.47 278.041 1531.6 Q278.041 1538.71 279.846 1542.27 Q281.675 1545.82 285.286 1545.82 Q288.92 1545.82 290.726 1542.27 Q292.555 1538.71 292.555 1531.6 Q292.555 1524.47 290.726 1520.93 Q288.92 1517.37 285.286 1517.37 M285.286 1513.66 Q291.096 1513.66 294.152 1518.27 Q297.23 1522.85 297.23 1531.6 Q297.23 1540.33 294.152 1544.94 Q291.096 1549.52 285.286 1549.52 Q279.476 1549.52 276.397 1544.94 Q273.342 1540.33 273.342 1531.6 Q273.342 1522.85 276.397 1518.27 Q279.476 1513.66 285.286 1513.66 Z" fill="#000000" fill-rule="nonzero" fill-opacity="1" /><path clip-path="url(#clip840)" d="M721.353 1517.37 Q717.742 1517.37 715.914 1520.93 Q714.108 1524.47 714.108 1531.6 Q714.108 1538.71 715.914 1542.27 Q717.742 1545.82 721.353 1545.82 Q724.988 1545.82 726.793 1542.27 Q728.622 1538.71 728.622 1531.6 Q728.622 1524.47 726.793 1520.93 Q724.988 1517.37 721.353 1517.37 M721.353 1513.66 Q727.164 1513.66 730.219 1518.27 Q733.298 1522.85 733.298 1531.6 Q733.298 1540.33 730.219 1544.94 Q727.164 1549.52 721.353 1549.52 Q715.543 1549.52 712.465 1544.94 Q709.409 1540.33 709.409 1531.6 Q709.409 1522.85 712.465 1518.27 Q715.543 1513.66 721.353 1513.66 Z" fill="#000000" fill-rule="nonzero" fill-opacity="1" /><path clip-path="url(#clip840)" d="M741.515 1542.97 L746.4 1542.97 L746.4 1548.85 L741.515 1548.85 L741.515 1542.97 Z" fill="#000000" fill-rule="nonzero" fill-opacity="1" /><path clip-path="url(#clip840)" d="M760.612 1544.91 L776.932 1544.91 L776.932 1548.85 L754.987 1548.85 L754.987 1544.91 Q757.649 1542.16 762.233 1537.53 Q766.839 1532.88 768.02 1531.53 Q770.265 1529.01 771.145 1527.27 Q772.048 1525.51 772.048 1523.82 Q772.048 1521.07 770.103 1519.33 Q768.182 1517.6 765.08 1517.6 Q762.881 1517.6 760.427 1518.36 Q757.997 1519.13 755.219 1520.68 L755.219 1515.95 Q758.043 1514.82 760.497 1514.24 Q762.95 1513.66 764.987 1513.66 Q770.358 1513.66 773.552 1516.35 Q776.747 1519.03 776.747 1523.52 Q776.747 1525.65 775.936 1527.57 Q775.149 1529.47 773.043 1532.07 Q772.464 1532.74 769.362 1535.95 Q766.261 1539.15 760.612 1544.91 Z" fill="#000000" fill-rule="nonzero" fill-opacity="1" /><path clip-path="url(#clip840)" d="M786.793 1514.29 L805.149 1514.29 L805.149 1518.22 L791.075 1518.22 L791.075 1526.7 Q792.094 1526.35 793.112 1526.19 Q794.131 1526 795.149 1526 Q800.936 1526 804.316 1529.17 Q807.695 1532.34 807.695 1537.76 Q807.695 1543.34 804.223 1546.44 Q800.751 1549.52 794.432 1549.52 Q792.256 1549.52 789.987 1549.15 Q787.742 1548.78 785.335 1548.04 L785.335 1543.34 Q787.418 1544.47 789.64 1545.03 Q791.862 1545.58 794.339 1545.58 Q798.344 1545.58 800.682 1543.48 Q803.02 1541.37 803.02 1537.76 Q803.02 1534.15 800.682 1532.04 Q798.344 1529.94 794.339 1529.94 Q792.464 1529.94 790.589 1530.35 Q788.737 1530.77 786.793 1531.65 L786.793 1514.29 Z" fill="#000000" fill-rule="nonzero" fill-opacity="1" /><path clip-path="url(#clip840)" d="M1231.82 1517.37 Q1228.21 1517.37 1226.38 1520.93 Q1224.57 1524.47 1224.57 1531.6 Q1224.57 1538.71 1226.38 1542.27 Q1228.21 1545.82 1231.82 1545.82 Q1235.45 1545.82 1237.26 1542.27 Q1239.09 1538.71 1239.09 1531.6 Q1239.09 1524.47 1237.26 1520.93 Q1235.45 1517.37 1231.82 1517.37 M1231.82 1513.66 Q1237.63 1513.66 1240.68 1518.27 Q1243.76 1522.85 1243.76 1531.6 Q1243.76 1540.33 1240.68 1544.94 Q1237.63 1549.52 1231.82 1549.52 Q1226.01 1549.52 1222.93 1544.94 Q1219.87 1540.33 1219.87 1531.6 Q1219.87 1522.85 1222.93 1518.27 Q1226.01 1513.66 1231.82 1513.66 Z" fill="#000000" fill-rule="nonzero" fill-opacity="1" /><path clip-path="url(#clip840)" d="M1251.98 1542.97 L1256.86 1542.97 L1256.86 1548.85 L1251.98 1548.85 L1251.98 1542.97 Z" fill="#000000" fill-rule="nonzero" fill-opacity="1" /><path clip-path="url(#clip840)" d="M1267.1 1514.29 L1285.45 1514.29 L1285.45 1518.22 L1271.38 1518.22 L1271.38 1526.7 Q1272.4 1526.35 1273.42 1526.19 Q1274.43 1526 1275.45 1526 Q1281.24 1526 1284.62 1529.17 Q1288 1532.34 1288 1537.76 Q1288 1543.34 1284.53 1546.44 Q1281.05 1549.52 1274.73 1549.52 Q1272.56 1549.52 1270.29 1549.15 Q1268.05 1548.78 1265.64 1548.04 L1265.64 1543.34 Q1267.72 1544.47 1269.94 1545.03 Q1272.17 1545.58 1274.64 1545.58 Q1278.65 1545.58 1280.98 1543.48 Q1283.32 1541.37 1283.32 1537.76 Q1283.32 1534.15 1280.98 1532.04 Q1278.65 1529.94 1274.64 1529.94 Q1272.77 1529.94 1270.89 1530.35 Q1269.04 1530.77 1267.1 1531.65 L1267.1 1514.29 Z" fill="#000000" fill-rule="nonzero" fill-opacity="1" /><path clip-path="url(#clip840)" d="M1307.21 1517.37 Q1303.6 1517.37 1301.77 1520.93 Q1299.97 1524.47 1299.97 1531.6 Q1299.97 1538.71 1301.77 1542.27 Q1303.6 1545.82 1307.21 1545.82 Q1310.85 1545.82 1312.65 1542.27 Q1314.48 1538.71 1314.48 1531.6 Q1314.48 1524.47 1312.65 1520.93 Q1310.85 1517.37 1307.21 1517.37 M1307.21 1513.66 Q1313.02 1513.66 1316.08 1518.27 Q1319.16 1522.85 1319.16 1531.6 Q1319.16 1540.33 1316.08 1544.94 Q1313.02 1549.52 1307.21 1549.52 Q1301.4 1549.52 1298.32 1544.94 Q1295.27 1540.33 1295.27 1531.6 Q1295.27 1522.85 1298.32 1518.27 Q1301.4 1513.66 1307.21 1513.66 Z" fill="#000000" fill-rule="nonzero" fill-opacity="1" /><path clip-path="url(#clip840)" d="M1743.28 1517.37 Q1739.67 1517.37 1737.84 1520.93 Q1736.03 1524.47 1736.03 1531.6 Q1736.03 1538.71 1737.84 1542.27 Q1739.67 1545.82 1743.28 1545.82 Q1746.91 1545.82 1748.72 1542.27 Q1750.55 1538.71 1750.55 1531.6 Q1750.55 1524.47 1748.72 1520.93 Q1746.91 1517.37 1743.28 1517.37 M1743.28 1513.66 Q1749.09 1513.66 1752.14 1518.27 Q1755.22 1522.85 1755.22 1531.6 Q1755.22 1540.33 1752.14 1544.94 Q1749.09 1549.52 1743.28 1549.52 Q1737.47 1549.52 1734.39 1544.94 Q1731.33 1540.33 1731.33 1531.6 Q1731.33 1522.85 1734.39 1518.27 Q1737.47 1513.66 1743.28 1513.66 Z" fill="#000000" fill-rule="nonzero" fill-opacity="1" /><path clip-path="url(#clip840)" d="M1763.44 1542.97 L1768.32 1542.97 L1768.32 1548.85 L1763.44 1548.85 L1763.44 1542.97 Z" fill="#000000" fill-rule="nonzero" fill-opacity="1" /><path clip-path="url(#clip840)" d="M1777.33 1514.29 L1799.55 1514.29 L1799.55 1516.28 L1787.01 1548.85 L1782.12 1548.85 L1793.93 1518.22 L1777.33 1518.22 L1777.33 1514.29 Z" fill="#000000" fill-rule="nonzero" fill-opacity="1" /><path clip-path="url(#clip840)" d="M1808.72 1514.29 L1827.07 1514.29 L1827.07 1518.22 L1813 1518.22 L1813 1526.7 Q1814.02 1526.35 1815.04 1526.19 Q1816.06 1526 1817.07 1526 Q1822.86 1526 1826.24 1529.17 Q1829.62 1532.34 1829.62 1537.76 Q1829.62 1543.34 1826.15 1546.44 Q1822.68 1549.52 1816.36 1549.52 Q1814.18 1549.52 1811.91 1549.15 Q1809.67 1548.78 1807.26 1548.04 L1807.26 1543.34 Q1809.34 1544.47 1811.57 1545.03 Q1813.79 1545.58 1816.26 1545.58 Q1820.27 1545.58 1822.61 1543.48 Q1824.95 1541.37 1824.95 1537.76 Q1824.95 1534.15 1822.61 1532.04 Q1820.27 1529.94 1816.26 1529.94 Q1814.39 1529.94 1812.51 1530.35 Q1810.66 1530.77 1808.72 1531.65 L1808.72 1514.29 Z" fill="#000000" fill-rule="nonzero" fill-opacity="1" /><path clip-path="url(#clip840)" d="M2243.51 1544.91 L2251.15 1544.91 L2251.15 1518.55 L2242.84 1520.21 L2242.84 1515.95 L2251.1 1514.29 L2255.78 1514.29 L2255.78 1544.91 L2263.42 1544.91 L2263.42 1548.85 L2243.51 1548.85 L2243.51 1544.91 Z" fill="#000000" fill-rule="nonzero" fill-opacity="1" /><path clip-path="url(#clip840)" d="M2272.86 1542.97 L2277.75 1542.97 L2277.75 1548.85 L2272.86 1548.85 L2272.86 1542.97 Z" fill="#000000" fill-rule="nonzero" fill-opacity="1" /><path clip-path="url(#clip840)" d="M2297.93 1517.37 Q2294.32 1517.37 2292.49 1520.93 Q2290.69 1524.47 2290.69 1531.6 Q2290.69 1538.71 2292.49 1542.27 Q2294.32 1545.82 2297.93 1545.82 Q2301.57 1545.82 2303.37 1542.27 Q2305.2 1538.71 2305.2 1531.6 Q2305.2 1524.47 2303.37 1520.93 Q2301.57 1517.37 2297.93 1517.37 M2297.93 1513.66 Q2303.74 1513.66 2306.8 1518.27 Q2309.88 1522.85 2309.88 1531.6 Q2309.88 1540.33 2306.8 1544.94 Q2303.74 1549.52 2297.93 1549.52 Q2292.12 1549.52 2289.04 1544.94 Q2285.99 1540.33 2285.99 1531.6 Q2285.99 1522.85 2289.04 1518.27 Q2292.12 1513.66 2297.93 1513.66 Z" fill="#000000" fill-rule="nonzero" fill-opacity="1" /><path clip-path="url(#clip840)" d="M2328.1 1517.37 Q2324.48 1517.37 2322.66 1520.93 Q2320.85 1524.47 2320.85 1531.6 Q2320.85 1538.71 2322.66 1542.27 Q2324.48 1545.82 2328.1 1545.82 Q2331.73 1545.82 2333.54 1542.27 Q2335.36 1538.71 2335.36 1531.6 Q2335.36 1524.47 2333.54 1520.93 Q2331.73 1517.37 2328.1 1517.37 M2328.1 1513.66 Q2333.91 1513.66 2336.96 1518.27 Q2340.04 1522.85 2340.04 1531.6 Q2340.04 1540.33 2336.96 1544.94 Q2333.91 1549.52 2328.1 1549.52 Q2322.29 1549.52 2319.21 1544.94 Q2316.15 1540.33 2316.15 1531.6 Q2316.15 1522.85 2319.21 1518.27 Q2322.29 1513.66 2328.1 1513.66 Z" fill="#000000" fill-rule="nonzero" fill-opacity="1" /><polyline clip-path="url(#clip840)" style="stroke:#000000; stroke-linecap:round; stroke-linejoin:round; stroke-width:4; stroke-opacity:1; fill:none" points="186.274,1486.45 186.274,47.2441 "/>
<polyline clip-path="url(#clip840)" style="stroke:#000000; stroke-linecap:round; stroke-linejoin:round; stroke-width:4; stroke-opacity:1; fill:none" points="186.274,1271.27 205.172,1271.27 "/>
<polyline clip-path="url(#clip840)" style="stroke:#000000; stroke-linecap:round; stroke-linejoin:round; stroke-width:4; stroke-opacity:1; fill:none" points="186.274,973.542 205.172,973.542 "/>
<polyline clip-path="url(#clip840)" style="stroke:#000000; stroke-linecap:round; stroke-linejoin:round; stroke-width:4; stroke-opacity:1; fill:none" points="186.274,675.818 205.172,675.818 "/>
<polyline clip-path="url(#clip840)" style="stroke:#000000; stroke-linecap:round; stroke-linejoin:round; stroke-width:4; stroke-opacity:1; fill:none" points="186.274,378.093 205.172,378.093 "/>
<polyline clip-path="url(#clip840)" style="stroke:#000000; stroke-linecap:round; stroke-linejoin:round; stroke-width:4; stroke-opacity:1; fill:none" points="186.274,80.3682 205.172,80.3682 "/>
<path clip-path="url(#clip840)" d="M62.9365 1257.07 Q59.3254 1257.07 57.4967 1260.63 Q55.6912 1264.17 55.6912 1271.3 Q55.6912 1278.41 57.4967 1281.97 Q59.3254 1285.51 62.9365 1285.51 Q66.5707 1285.51 68.3763 1281.97 Q70.205 1278.41 70.205 1271.3 Q70.205 1264.17 68.3763 1260.63 Q66.5707 1257.07 62.9365 1257.07 M62.9365 1253.36 Q68.7467 1253.36 71.8022 1257.97 Q74.8809 1262.55 74.8809 1271.3 Q74.8809 1280.03 71.8022 1284.64 Q68.7467 1289.22 62.9365 1289.22 Q57.1264 1289.22 54.0477 1284.64 Q50.9921 1280.03 50.9921 1271.3 Q50.9921 1262.55 54.0477 1257.97 Q57.1264 1253.36 62.9365 1253.36 Z" fill="#000000" fill-rule="nonzero" fill-opacity="1" /><path clip-path="url(#clip840)" d="M83.0984 1282.67 L87.9827 1282.67 L87.9827 1288.55 L83.0984 1288.55 L83.0984 1282.67 Z" fill="#000000" fill-rule="nonzero" fill-opacity="1" /><path clip-path="url(#clip840)" d="M98.2141 1253.99 L116.57 1253.99 L116.57 1257.92 L102.496 1257.92 L102.496 1266.39 Q103.515 1266.05 104.534 1265.89 Q105.552 1265.7 106.571 1265.7 Q112.358 1265.7 115.737 1268.87 Q119.117 1272.04 119.117 1277.46 Q119.117 1283.04 115.645 1286.14 Q112.172 1289.22 105.853 1289.22 Q103.677 1289.22 101.409 1288.85 Q99.1632 1288.48 96.7558 1287.74 L96.7558 1283.04 Q98.8391 1284.17 101.061 1284.73 Q103.284 1285.28 105.76 1285.28 Q109.765 1285.28 112.103 1283.18 Q114.441 1281.07 114.441 1277.46 Q114.441 1273.85 112.103 1271.74 Q109.765 1269.64 105.76 1269.64 Q103.885 1269.64 102.01 1270.05 Q100.159 1270.47 98.2141 1271.35 L98.2141 1253.99 Z" fill="#000000" fill-rule="nonzero" fill-opacity="1" /><path clip-path="url(#clip840)" d="M138.33 1257.07 Q134.719 1257.07 132.89 1260.63 Q131.084 1264.17 131.084 1271.3 Q131.084 1278.41 132.89 1281.97 Q134.719 1285.51 138.33 1285.51 Q141.964 1285.51 143.769 1281.97 Q145.598 1278.41 145.598 1271.3 Q145.598 1264.17 143.769 1260.63 Q141.964 1257.07 138.33 1257.07 M138.33 1253.36 Q144.14 1253.36 147.195 1257.97 Q150.274 1262.55 150.274 1271.3 Q150.274 1280.03 147.195 1284.64 Q144.14 1289.22 138.33 1289.22 Q132.519 1289.22 129.441 1284.64 Q126.385 1280.03 126.385 1271.3 Q126.385 1262.55 129.441 1257.97 Q132.519 1253.36 138.33 1253.36 Z" fill="#000000" fill-rule="nonzero" fill-opacity="1" /><path clip-path="url(#clip840)" d="M63.9319 959.341 Q60.3208 959.341 58.4921 962.906 Q56.6865 966.448 56.6865 973.577 Q56.6865 980.684 58.4921 984.248 Q60.3208 987.79 63.9319 987.79 Q67.5661 987.79 69.3717 984.248 Q71.2004 980.684 71.2004 973.577 Q71.2004 966.448 69.3717 962.906 Q67.5661 959.341 63.9319 959.341 M63.9319 955.637 Q69.742 955.637 72.7976 960.244 Q75.8763 964.827 75.8763 973.577 Q75.8763 982.304 72.7976 986.91 Q69.742 991.494 63.9319 991.494 Q58.1217 991.494 55.043 986.91 Q51.9875 982.304 51.9875 973.577 Q51.9875 964.827 55.043 960.244 Q58.1217 955.637 63.9319 955.637 Z" fill="#000000" fill-rule="nonzero" fill-opacity="1" /><path clip-path="url(#clip840)" d="M84.0938 984.943 L88.978 984.943 L88.978 990.822 L84.0938 990.822 L84.0938 984.943 Z" fill="#000000" fill-rule="nonzero" fill-opacity="1" /><path clip-path="url(#clip840)" d="M97.9826 956.262 L120.205 956.262 L120.205 958.253 L107.658 990.822 L102.774 990.822 L114.58 960.198 L97.9826 960.198 L97.9826 956.262 Z" fill="#000000" fill-rule="nonzero" fill-opacity="1" /><path clip-path="url(#clip840)" d="M129.371 956.262 L147.728 956.262 L147.728 960.198 L133.654 960.198 L133.654 968.67 Q134.672 968.323 135.691 968.161 Q136.709 967.975 137.728 967.975 Q143.515 967.975 146.894 971.147 Q150.274 974.318 150.274 979.735 Q150.274 985.313 146.802 988.415 Q143.33 991.494 137.01 991.494 Q134.834 991.494 132.566 991.123 Q130.32 990.753 127.913 990.012 L127.913 985.313 Q129.996 986.447 132.219 987.003 Q134.441 987.559 136.918 987.559 Q140.922 987.559 143.26 985.452 Q145.598 983.346 145.598 979.735 Q145.598 976.123 143.26 974.017 Q140.922 971.911 136.918 971.911 Q135.043 971.911 133.168 972.327 Q131.316 972.744 129.371 973.623 L129.371 956.262 Z" fill="#000000" fill-rule="nonzero" fill-opacity="1" /><path clip-path="url(#clip840)" d="M53.7467 689.163 L61.3856 689.163 L61.3856 662.797 L53.0754 664.464 L53.0754 660.204 L61.3393 658.538 L66.0152 658.538 L66.0152 689.163 L73.654 689.163 L73.654 693.098 L53.7467 693.098 L53.7467 689.163 Z" fill="#000000" fill-rule="nonzero" fill-opacity="1" /><path clip-path="url(#clip840)" d="M83.0984 687.218 L87.9827 687.218 L87.9827 693.098 L83.0984 693.098 L83.0984 687.218 Z" fill="#000000" fill-rule="nonzero" fill-opacity="1" /><path clip-path="url(#clip840)" d="M108.168 661.616 Q104.557 661.616 102.728 665.181 Q100.922 668.723 100.922 675.852 Q100.922 682.959 102.728 686.524 Q104.557 690.065 108.168 690.065 Q111.802 690.065 113.608 686.524 Q115.436 682.959 115.436 675.852 Q115.436 668.723 113.608 665.181 Q111.802 661.616 108.168 661.616 M108.168 657.913 Q113.978 657.913 117.033 662.519 Q120.112 667.102 120.112 675.852 Q120.112 684.579 117.033 689.186 Q113.978 693.769 108.168 693.769 Q102.358 693.769 99.2789 689.186 Q96.2234 684.579 96.2234 675.852 Q96.2234 667.102 99.2789 662.519 Q102.358 657.913 108.168 657.913 Z" fill="#000000" fill-rule="nonzero" fill-opacity="1" /><path clip-path="url(#clip840)" d="M138.33 661.616 Q134.719 661.616 132.89 665.181 Q131.084 668.723 131.084 675.852 Q131.084 682.959 132.89 686.524 Q134.719 690.065 138.33 690.065 Q141.964 690.065 143.769 686.524 Q145.598 682.959 145.598 675.852 Q145.598 668.723 143.769 665.181 Q141.964 661.616 138.33 661.616 M138.33 657.913 Q144.14 657.913 147.195 662.519 Q150.274 667.102 150.274 675.852 Q150.274 684.579 147.195 689.186 Q144.14 693.769 138.33 693.769 Q132.519 693.769 129.441 689.186 Q126.385 684.579 126.385 675.852 Q126.385 667.102 129.441 662.519 Q132.519 657.913 138.33 657.913 Z" fill="#000000" fill-rule="nonzero" fill-opacity="1" /><path clip-path="url(#clip840)" d="M54.7421 391.438 L62.381 391.438 L62.381 365.072 L54.0708 366.739 L54.0708 362.48 L62.3347 360.813 L67.0106 360.813 L67.0106 391.438 L74.6494 391.438 L74.6494 395.373 L54.7421 395.373 L54.7421 391.438 Z" fill="#000000" fill-rule="nonzero" fill-opacity="1" /><path clip-path="url(#clip840)" d="M84.0938 389.493 L88.978 389.493 L88.978 395.373 L84.0938 395.373 L84.0938 389.493 Z" fill="#000000" fill-rule="nonzero" fill-opacity="1" /><path clip-path="url(#clip840)" d="M103.191 391.438 L119.51 391.438 L119.51 395.373 L97.566 395.373 L97.566 391.438 Q100.228 388.683 104.811 384.054 Q109.418 379.401 110.598 378.058 Q112.844 375.535 113.723 373.799 Q114.626 372.04 114.626 370.35 Q114.626 367.595 112.682 365.859 Q110.76 364.123 107.658 364.123 Q105.459 364.123 103.006 364.887 Q100.575 365.651 97.7974 367.202 L97.7974 362.48 Q100.621 361.345 103.075 360.767 Q105.529 360.188 107.566 360.188 Q112.936 360.188 116.131 362.873 Q119.325 365.558 119.325 370.049 Q119.325 372.179 118.515 374.1 Q117.728 375.998 115.621 378.591 Q115.043 379.262 111.941 382.479 Q108.839 385.674 103.191 391.438 Z" fill="#000000" fill-rule="nonzero" fill-opacity="1" /><path clip-path="url(#clip840)" d="M129.371 360.813 L147.728 360.813 L147.728 364.748 L133.654 364.748 L133.654 373.22 Q134.672 372.873 135.691 372.711 Q136.709 372.526 137.728 372.526 Q143.515 372.526 146.894 375.697 Q150.274 378.868 150.274 384.285 Q150.274 389.864 146.802 392.966 Q143.33 396.044 137.01 396.044 Q134.834 396.044 132.566 395.674 Q130.32 395.303 127.913 394.563 L127.913 389.864 Q129.996 390.998 132.219 391.553 Q134.441 392.109 136.918 392.109 Q140.922 392.109 143.26 390.003 Q145.598 387.896 145.598 384.285 Q145.598 380.674 143.26 378.567 Q140.922 376.461 136.918 376.461 Q135.043 376.461 133.168 376.878 Q131.316 377.294 129.371 378.174 L129.371 360.813 Z" fill="#000000" fill-rule="nonzero" fill-opacity="1" /><path clip-path="url(#clip840)" d="M53.7467 93.713 L61.3856 93.713 L61.3856 67.3474 L53.0754 69.0141 L53.0754 64.7548 L61.3393 63.0882 L66.0152 63.0882 L66.0152 93.713 L73.654 93.713 L73.654 97.6482 L53.7467 97.6482 L53.7467 93.713 Z" fill="#000000" fill-rule="nonzero" fill-opacity="1" /><path clip-path="url(#clip840)" d="M83.0984 91.7686 L87.9827 91.7686 L87.9827 97.6482 L83.0984 97.6482 L83.0984 91.7686 Z" fill="#000000" fill-rule="nonzero" fill-opacity="1" /><path clip-path="url(#clip840)" d="M98.2141 63.0882 L116.57 63.0882 L116.57 67.0233 L102.496 67.0233 L102.496 75.4955 Q103.515 75.1483 104.534 74.9862 Q105.552 74.8011 106.571 74.8011 Q112.358 74.8011 115.737 77.9723 Q119.117 81.1436 119.117 86.5603 Q119.117 92.1389 115.645 95.2408 Q112.172 98.3194 105.853 98.3194 Q103.677 98.3194 101.409 97.9491 Q99.1632 97.5787 96.7558 96.838 L96.7558 92.1389 Q98.8391 93.2732 101.061 93.8287 Q103.284 94.3843 105.76 94.3843 Q109.765 94.3843 112.103 92.2778 Q114.441 90.1713 114.441 86.5603 Q114.441 82.9492 112.103 80.8427 Q109.765 78.7362 105.76 78.7362 Q103.885 78.7362 102.01 79.1529 Q100.159 79.5695 98.2141 80.4492 L98.2141 63.0882 Z" fill="#000000" fill-rule="nonzero" fill-opacity="1" /><path clip-path="url(#clip840)" d="M138.33 66.1668 Q134.719 66.1668 132.89 69.7316 Q131.084 73.2733 131.084 80.4029 Q131.084 87.5093 132.89 91.0741 Q134.719 94.6158 138.33 94.6158 Q141.964 94.6158 143.769 91.0741 Q145.598 87.5093 145.598 80.4029 Q145.598 73.2733 143.769 69.7316 Q141.964 66.1668 138.33 66.1668 M138.33 62.4632 Q144.14 62.4632 147.195 67.0696 Q150.274 71.6529 150.274 80.4029 Q150.274 89.1297 147.195 93.7361 Q144.14 98.3194 138.33 98.3194 Q132.519 98.3194 129.441 93.7361 Q126.385 89.1297 126.385 80.4029 Q126.385 71.6529 129.441 67.0696 Q132.519 62.4632 138.33 62.4632 Z" fill="#000000" fill-rule="nonzero" fill-opacity="1" /><polyline clip-path="url(#clip841)" style="stroke:#009af9; stroke-linecap:round; stroke-linejoin:round; stroke-width:12; stroke-opacity:1; fill:none" points="247.59,1271.27 451.975,1234.53 656.36,1178.6 860.745,1261.56 1065.13,1433.32 1269.51,1445.72 1473.9,1330.2 1678.29,1336.27 1882.67,1331.86 2087.06,1241.28 2291.44,1231.5 "/>
<polyline clip-path="url(#clip841)" style="stroke:#e26f46; stroke-linecap:round; stroke-linejoin:round; stroke-width:12; stroke-opacity:1; fill:none" points="247.59,1271.27 451.975,1174.95 656.36,1107.45 860.745,1041.29 1065.13,983.68 1269.51,1138.28 1473.9,1140.98 1678.29,929.818 1882.67,830.528 2087.06,804.2 2291.44,571.073 "/>
<polyline clip-path="url(#clip841)" style="stroke:#3da44d; stroke-linecap:round; stroke-linejoin:round; stroke-width:12; stroke-opacity:1; fill:none" points="247.59,1271.27 451.975,1219.17 656.36,1196.42 860.745,1098.16 1065.13,932.958 1269.51,936.473 1473.9,884.904 1678.29,757.572 1882.67,492.751 2087.06,582.094 2291.44,440.005 "/>
<polyline clip-path="url(#clip841)" style="stroke:#c271d2; stroke-linecap:round; stroke-linejoin:round; stroke-width:12; stroke-opacity:1; fill:none" points="247.59,1271.27 451.975,1201 656.36,1101.95 860.745,974.1 1065.13,827.901 1269.51,645.89 1473.9,550.402 1678.29,434.891 1882.67,103.642 2087.06,87.9763 2291.44,309.623 "/>
<polyline clip-path="url(#clip841)" style="stroke:#ac8d18; stroke-linecap:round; stroke-linejoin:round; stroke-width:12; stroke-opacity:1; fill:none" points="247.59,1271.27 451.975,1082.06 656.36,919.118 860.745,818.866 1065.13,725.74 1269.51,879.29 1473.9,925.578 1678.29,743.631 1882.67,568.993 2087.06,653.346 2291.44,884.929 "/>
<polyline clip-path="url(#clip841)" style="stroke:#00a9ad; stroke-linecap:round; stroke-linejoin:round; stroke-width:12; stroke-opacity:1; fill:none" points="247.59,1271.27 451.975,1272.89 656.36,1209.3 860.745,1071.76 1065.13,984.53 1269.51,801.651 1473.9,738.916 1678.29,561.782 1882.67,640.47 2087.06,549.74 2291.44,491.433 "/>
<polyline clip-path="url(#clip841)" style="stroke:#ed5d92; stroke-linecap:round; stroke-linejoin:round; stroke-width:12; stroke-opacity:1; fill:none" points="247.59,1271.27 451.975,1220.27 656.36,1215.96 860.745,1220.96 1065.13,1236.68 1269.51,1129.59 1473.9,1127.3 1678.29,1114.49 1882.67,1129.57 2087.06,1040 2291.44,1061.13 "/>
<polyline clip-path="url(#clip841)" style="stroke:#c68125; stroke-linecap:round; stroke-linejoin:round; stroke-width:12; stroke-opacity:1; fill:none" points="247.59,1271.27 451.975,1186.59 656.36,1249.45 860.745,1158.39 1065.13,1129.58 1269.51,1089.65 1473.9,1091.35 1678.29,1120.58 1882.67,986.187 2087.06,897.475 2291.44,690.153 "/>
</svg>
