<?xml version="1.0" encoding="utf-8"?>
<svg xmlns="http://www.w3.org/2000/svg" xmlns:xlink="http://www.w3.org/1999/xlink" width="600" height="400" viewBox="0 0 2400 1600">
<defs>
  <clipPath id="clip350">
    <rect x="0" y="0" width="2400" height="1600"/>
  </clipPath>
</defs>
<path clip-path="url(#clip350)" d="M0 1600 L2400 1600 L2400 0 L0 0  Z" fill="#ffffff" fill-rule="evenodd" fill-opacity="1"/>
<defs>
  <clipPath id="clip351">
    <rect x="186" y="47" width="2167" height="1377"/>
  </clipPath>
</defs>
<path clip-path="url(#clip350)" d="M186.274 1423.18 L2352.76 1423.18 L2352.76 47.2441 L186.274 47.2441  Z" fill="#ffffff" fill-rule="evenodd" fill-opacity="1"/>
<polyline clip-path="url(#clip351)" style="stroke:#000000; stroke-linecap:round; stroke-linejoin:round; stroke-width:2; stroke-opacity:0.1; fill:none" points="186.274,1423.18 186.274,47.2441 "/>
<polyline clip-path="url(#clip351)" style="stroke:#000000; stroke-linecap:round; stroke-linejoin:round; stroke-width:2; stroke-opacity:0.1; fill:none" points="619.57,1423.18 619.57,47.2441 "/>
<polyline clip-path="url(#clip351)" style="stroke:#000000; stroke-linecap:round; stroke-linejoin:round; stroke-width:2; stroke-opacity:0.1; fill:none" points="1052.87,1423.18 1052.87,47.2441 "/>
<polyline clip-path="url(#clip351)" style="stroke:#000000; stroke-linecap:round; stroke-linejoin:round; stroke-width:2; stroke-opacity:0.1; fill:none" points="1486.16,1423.18 1486.16,47.2441 "/>
<polyline clip-path="url(#clip351)" style="stroke:#000000; stroke-linecap:round; stroke-linejoin:round; stroke-width:2; stroke-opacity:0.1; fill:none" points="1919.46,1423.18 1919.46,47.2441 "/>
<polyline clip-path="url(#clip351)" style="stroke:#000000; stroke-linecap:round; stroke-linejoin:round; stroke-width:2; stroke-opacity:0.1; fill:none" points="2352.76,1423.18 2352.76,47.2441 "/>
<polyline clip-path="url(#clip351)" style="stroke:#000000; stroke-linecap:round; stroke-linejoin:round; stroke-width:2; stroke-opacity:0.1; fill:none" points="186.274,1402.3 2352.76,1402.3 "/>
<polyline clip-path="url(#clip351)" style="stroke:#000000; stroke-linecap:round; stroke-linejoin:round; stroke-width:2; stroke-opacity:0.1; fill:none" points="186.274,1073.27 2352.76,1073.27 "/>
<polyline clip-path="url(#clip351)" style="stroke:#000000; stroke-linecap:round; stroke-linejoin:round; stroke-width:2; stroke-opacity:0.1; fill:none" points="186.274,744.242 2352.76,744.242 "/>
<polyline clip-path="url(#clip351)" style="stroke:#000000; stroke-linecap:round; stroke-linejoin:round; stroke-width:2; stroke-opacity:0.1; fill:none" points="186.274,415.214 2352.76,415.214 "/>
<polyline clip-path="url(#clip351)" style="stroke:#000000; stroke-linecap:round; stroke-linejoin:round; stroke-width:2; stroke-opacity:0.1; fill:none" points="186.274,86.1857 2352.76,86.1857 "/>
<polyline clip-path="url(#clip350)" style="stroke:#000000; stroke-linecap:round; stroke-linejoin:round; stroke-width:4; stroke-opacity:1; fill:none" points="186.274,1423.18 2352.76,1423.18 "/>
<polyline clip-path="url(#clip350)" style="stroke:#000000; stroke-linecap:round; stroke-linejoin:round; stroke-width:4; stroke-opacity:1; fill:none" points="186.274,1423.18 186.274,1404.28 "/>
<polyline clip-path="url(#clip350)" style="stroke:#000000; stroke-linecap:round; stroke-linejoin:round; stroke-width:4; stroke-opacity:1; fill:none" points="619.57,1423.18 619.57,1404.28 "/>
<polyline clip-path="url(#clip350)" style="stroke:#000000; stroke-linecap:round; stroke-linejoin:round; stroke-width:4; stroke-opacity:1; fill:none" points="1052.87,1423.18 1052.87,1404.28 "/>
<polyline clip-path="url(#clip350)" style="stroke:#000000; stroke-linecap:round; stroke-linejoin:round; stroke-width:4; stroke-opacity:1; fill:none" points="1486.16,1423.18 1486.16,1404.28 "/>
<polyline clip-path="url(#clip350)" style="stroke:#000000; stroke-linecap:round; stroke-linejoin:round; stroke-width:4; stroke-opacity:1; fill:none" points="1919.46,1423.18 1919.46,1404.28 "/>
<polyline clip-path="url(#clip350)" style="stroke:#000000; stroke-linecap:round; stroke-linejoin:round; stroke-width:4; stroke-opacity:1; fill:none" points="2352.76,1423.18 2352.76,1404.28 "/>
<path clip-path="url(#clip350)" d="M186.274 1454.1 Q182.663 1454.1 180.834 1457.66 Q179.029 1461.2 179.029 1468.33 Q179.029 1475.44 180.834 1479.01 Q182.663 1482.55 186.274 1482.55 Q189.908 1482.55 191.714 1479.01 Q193.542 1475.44 193.542 1468.33 Q193.542 1461.2 191.714 1457.66 Q189.908 1454.1 186.274 1454.1 M186.274 1450.39 Q192.084 1450.39 195.14 1455 Q198.218 1459.58 198.218 1468.33 Q198.218 1477.06 195.14 1481.67 Q192.084 1486.25 186.274 1486.25 Q180.464 1486.25 177.385 1481.67 Q174.33 1477.06 174.33 1468.33 Q174.33 1459.58 177.385 1455 Q180.464 1450.39 186.274 1450.39 Z" fill="#000000" fill-rule="nonzero" fill-opacity="1" /><path clip-path="url(#clip350)" d="M609.952 1481.64 L617.591 1481.64 L617.591 1455.28 L609.281 1456.95 L609.281 1452.69 L617.545 1451.02 L622.221 1451.02 L622.221 1481.64 L629.86 1481.64 L629.86 1485.58 L609.952 1485.58 L609.952 1481.64 Z" fill="#000000" fill-rule="nonzero" fill-opacity="1" /><path clip-path="url(#clip350)" d="M1047.52 1481.64 L1063.84 1481.64 L1063.84 1485.58 L1041.89 1485.58 L1041.89 1481.64 Q1044.56 1478.89 1049.14 1474.26 Q1053.75 1469.61 1054.93 1468.27 Q1057.17 1465.74 1058.05 1464.01 Q1058.95 1462.25 1058.95 1460.56 Q1058.95 1457.8 1057.01 1456.07 Q1055.09 1454.33 1051.99 1454.33 Q1049.79 1454.33 1047.33 1455.09 Q1044.9 1455.86 1042.13 1457.41 L1042.13 1452.69 Q1044.95 1451.55 1047.4 1450.97 Q1049.86 1450.39 1051.89 1450.39 Q1057.26 1450.39 1060.46 1453.08 Q1063.65 1455.77 1063.65 1460.26 Q1063.65 1462.39 1062.84 1464.31 Q1062.06 1466.2 1059.95 1468.8 Q1059.37 1469.47 1056.27 1472.69 Q1053.17 1475.88 1047.52 1481.64 Z" fill="#000000" fill-rule="nonzero" fill-opacity="1" /><path clip-path="url(#clip350)" d="M1490.41 1466.95 Q1493.77 1467.66 1495.64 1469.93 Q1497.54 1472.2 1497.54 1475.53 Q1497.54 1480.65 1494.02 1483.45 Q1490.5 1486.25 1484.02 1486.25 Q1481.85 1486.25 1479.53 1485.81 Q1477.24 1485.39 1474.79 1484.54 L1474.79 1480.02 Q1476.73 1481.16 1479.05 1481.74 Q1481.36 1482.32 1483.88 1482.32 Q1488.28 1482.32 1490.57 1480.58 Q1492.89 1478.84 1492.89 1475.53 Q1492.89 1472.48 1490.73 1470.77 Q1488.61 1469.03 1484.79 1469.03 L1480.76 1469.03 L1480.76 1465.19 L1484.97 1465.19 Q1488.42 1465.19 1490.25 1463.82 Q1492.08 1462.43 1492.08 1459.84 Q1492.08 1457.18 1490.18 1455.77 Q1488.3 1454.33 1484.79 1454.33 Q1482.86 1454.33 1480.67 1454.75 Q1478.47 1455.16 1475.83 1456.04 L1475.83 1451.88 Q1478.49 1451.14 1480.8 1450.77 Q1483.14 1450.39 1485.2 1450.39 Q1490.53 1450.39 1493.63 1452.83 Q1496.73 1455.23 1496.73 1459.35 Q1496.73 1462.22 1495.09 1464.21 Q1493.44 1466.18 1490.41 1466.95 Z" fill="#000000" fill-rule="nonzero" fill-opacity="1" /><path clip-path="url(#clip350)" d="M1922.47 1455.09 L1910.66 1473.54 L1922.47 1473.54 L1922.47 1455.09 M1921.24 1451.02 L1927.12 1451.02 L1927.12 1473.54 L1932.05 1473.54 L1932.05 1477.43 L1927.12 1477.43 L1927.12 1485.58 L1922.47 1485.58 L1922.47 1477.43 L1906.87 1477.43 L1906.87 1472.92 L1921.24 1451.02 Z" fill="#000000" fill-rule="nonzero" fill-opacity="1" /><path clip-path="url(#clip350)" d="M2343.03 1451.02 L2361.39 1451.02 L2361.39 1454.96 L2347.32 1454.96 L2347.32 1463.43 Q2348.33 1463.08 2349.35 1462.92 Q2350.37 1462.73 2351.39 1462.73 Q2357.18 1462.73 2360.56 1465.9 Q2363.94 1469.08 2363.94 1474.49 Q2363.94 1480.07 2360.46 1483.17 Q2356.99 1486.25 2350.67 1486.25 Q2348.5 1486.25 2346.23 1485.88 Q2343.98 1485.51 2341.58 1484.77 L2341.58 1480.07 Q2343.66 1481.2 2345.88 1481.76 Q2348.1 1482.32 2350.58 1482.32 Q2354.58 1482.32 2356.92 1480.21 Q2359.26 1478.1 2359.26 1474.49 Q2359.26 1470.88 2356.92 1468.77 Q2354.58 1466.67 2350.58 1466.67 Q2348.71 1466.67 2346.83 1467.08 Q2344.98 1467.5 2343.03 1468.38 L2343.03 1451.02 Z" fill="#000000" fill-rule="nonzero" fill-opacity="1" /><path clip-path="url(#clip350)" d="M1268.58 1522.27 L1268.58 1532.4 L1280.64 1532.4 L1280.64 1536.95 L1268.58 1536.95 L1268.58 1556.3 Q1268.58 1560.66 1269.75 1561.9 Q1270.96 1563.14 1274.62 1563.14 L1280.64 1563.14 L1280.64 1568.04 L1274.62 1568.04 Q1267.84 1568.04 1265.27 1565.53 Q1262.69 1562.98 1262.69 1556.3 L1262.69 1536.95 L1258.39 1536.95 L1258.39 1532.4 L1262.69 1532.4 L1262.69 1522.27 L1268.58 1522.27 Z" fill="#000000" fill-rule="nonzero" fill-opacity="1" /><polyline clip-path="url(#clip350)" style="stroke:#000000; stroke-linecap:round; stroke-linejoin:round; stroke-width:4; stroke-opacity:1; fill:none" points="186.274,1423.18 186.274,47.2441 "/>
<polyline clip-path="url(#clip350)" style="stroke:#000000; stroke-linecap:round; stroke-linejoin:round; stroke-width:4; stroke-opacity:1; fill:none" points="186.274,1402.3 205.172,1402.3 "/>
<polyline clip-path="url(#clip350)" style="stroke:#000000; stroke-linecap:round; stroke-linejoin:round; stroke-width:4; stroke-opacity:1; fill:none" points="186.274,1073.27 205.172,1073.27 "/>
<polyline clip-path="url(#clip350)" style="stroke:#000000; stroke-linecap:round; stroke-linejoin:round; stroke-width:4; stroke-opacity:1; fill:none" points="186.274,744.242 205.172,744.242 "/>
<polyline clip-path="url(#clip350)" style="stroke:#000000; stroke-linecap:round; stroke-linejoin:round; stroke-width:4; stroke-opacity:1; fill:none" points="186.274,415.214 205.172,415.214 "/>
<polyline clip-path="url(#clip350)" style="stroke:#000000; stroke-linecap:round; stroke-linejoin:round; stroke-width:4; stroke-opacity:1; fill:none" points="186.274,86.1857 205.172,86.1857 "/>
<path clip-path="url(#clip350)" d="M62.9365 1388.1 Q59.3254 1388.1 57.4967 1391.66 Q55.6912 1395.2 55.6912 1402.33 Q55.6912 1409.44 57.4967 1413 Q59.3254 1416.55 62.9365 1416.55 Q66.5707 1416.55 68.3763 1413 Q70.205 1409.44 70.205 1402.33 Q70.205 1395.2 68.3763 1391.66 Q66.5707 1388.1 62.9365 1388.1 M62.9365 1384.39 Q68.7467 1384.39 71.8022 1389 Q74.8809 1393.58 74.8809 1402.33 Q74.8809 1411.06 71.8022 1415.67 Q68.7467 1420.25 62.9365 1420.25 Q57.1264 1420.25 54.0477 1415.67 Q50.9921 1411.06 50.9921 1402.33 Q50.9921 1393.58 54.0477 1389 Q57.1264 1384.39 62.9365 1384.39 Z" fill="#000000" fill-rule="nonzero" fill-opacity="1" /><path clip-path="url(#clip350)" d="M83.0984 1413.7 L87.9827 1413.7 L87.9827 1419.58 L83.0984 1419.58 L83.0984 1413.7 Z" fill="#000000" fill-rule="nonzero" fill-opacity="1" /><path clip-path="url(#clip350)" d="M108.168 1388.1 Q104.557 1388.1 102.728 1391.66 Q100.922 1395.2 100.922 1402.33 Q100.922 1409.44 102.728 1413 Q104.557 1416.55 108.168 1416.55 Q111.802 1416.55 113.608 1413 Q115.436 1409.44 115.436 1402.33 Q115.436 1395.2 113.608 1391.66 Q111.802 1388.1 108.168 1388.1 M108.168 1384.39 Q113.978 1384.39 117.033 1389 Q120.112 1393.58 120.112 1402.33 Q120.112 1411.06 117.033 1415.67 Q113.978 1420.25 108.168 1420.25 Q102.358 1420.25 99.2789 1415.67 Q96.2234 1411.06 96.2234 1402.33 Q96.2234 1393.58 99.2789 1389 Q102.358 1384.39 108.168 1384.39 Z" fill="#000000" fill-rule="nonzero" fill-opacity="1" /><path clip-path="url(#clip350)" d="M138.33 1388.1 Q134.719 1388.1 132.89 1391.66 Q131.084 1395.2 131.084 1402.33 Q131.084 1409.44 132.89 1413 Q134.719 1416.55 138.33 1416.55 Q141.964 1416.55 143.769 1413 Q145.598 1409.44 145.598 1402.33 Q145.598 1395.2 143.769 1391.66 Q141.964 1388.1 138.33 1388.1 M138.33 1384.39 Q144.14 1384.39 147.195 1389 Q150.274 1393.58 150.274 1402.33 Q150.274 1411.06 147.195 1415.67 Q144.14 1420.25 138.33 1420.25 Q132.519 1420.25 129.441 1415.67 Q126.385 1411.06 126.385 1402.33 Q126.385 1393.58 129.441 1389 Q132.519 1384.39 138.33 1384.39 Z" fill="#000000" fill-rule="nonzero" fill-opacity="1" /><path clip-path="url(#clip350)" d="M63.9319 1059.07 Q60.3208 1059.07 58.4921 1062.63 Q56.6865 1066.18 56.6865 1073.3 Q56.6865 1080.41 58.4921 1083.98 Q60.3208 1087.52 63.9319 1087.52 Q67.5661 1087.52 69.3717 1083.98 Q71.2004 1080.41 71.2004 1073.3 Q71.2004 1066.18 69.3717 1062.63 Q67.5661 1059.07 63.9319 1059.07 M63.9319 1055.36 Q69.742 1055.36 72.7976 1059.97 Q75.8763 1064.55 75.8763 1073.3 Q75.8763 1082.03 72.7976 1086.64 Q69.742 1091.22 63.9319 1091.22 Q58.1217 1091.22 55.043 1086.64 Q51.9875 1082.03 51.9875 1073.3 Q51.9875 1064.55 55.043 1059.97 Q58.1217 1055.36 63.9319 1055.36 Z" fill="#000000" fill-rule="nonzero" fill-opacity="1" /><path clip-path="url(#clip350)" d="M84.0938 1084.67 L88.978 1084.67 L88.978 1090.55 L84.0938 1090.55 L84.0938 1084.67 Z" fill="#000000" fill-rule="nonzero" fill-opacity="1" /><path clip-path="url(#clip350)" d="M103.191 1086.61 L119.51 1086.61 L119.51 1090.55 L97.566 1090.55 L97.566 1086.61 Q100.228 1083.86 104.811 1079.23 Q109.418 1074.58 110.598 1073.24 Q112.844 1070.71 113.723 1068.98 Q114.626 1067.22 114.626 1065.53 Q114.626 1062.77 112.682 1061.04 Q110.76 1059.3 107.658 1059.3 Q105.459 1059.3 103.006 1060.06 Q100.575 1060.83 97.7974 1062.38 L97.7974 1057.66 Q100.621 1056.52 103.075 1055.94 Q105.529 1055.36 107.566 1055.36 Q112.936 1055.36 116.131 1058.05 Q119.325 1060.74 119.325 1065.23 Q119.325 1067.36 118.515 1069.28 Q117.728 1071.18 115.621 1073.77 Q115.043 1074.44 111.941 1077.66 Q108.839 1080.85 103.191 1086.61 Z" fill="#000000" fill-rule="nonzero" fill-opacity="1" /><path clip-path="url(#clip350)" d="M129.371 1055.99 L147.728 1055.99 L147.728 1059.93 L133.654 1059.93 L133.654 1068.4 Q134.672 1068.05 135.691 1067.89 Q136.709 1067.7 137.728 1067.7 Q143.515 1067.7 146.894 1070.87 Q150.274 1074.05 150.274 1079.46 Q150.274 1085.04 146.802 1088.14 Q143.33 1091.22 137.01 1091.22 Q134.834 1091.22 132.566 1090.85 Q130.32 1090.48 127.913 1089.74 L127.913 1085.04 Q129.996 1086.17 132.219 1086.73 Q134.441 1087.29 136.918 1087.29 Q140.922 1087.29 143.26 1085.18 Q145.598 1083.07 145.598 1079.46 Q145.598 1075.85 143.26 1073.74 Q140.922 1071.64 136.918 1071.64 Q135.043 1071.64 133.168 1072.05 Q131.316 1072.47 129.371 1073.35 L129.371 1055.99 Z" fill="#000000" fill-rule="nonzero" fill-opacity="1" /><path clip-path="url(#clip350)" d="M62.9365 730.041 Q59.3254 730.041 57.4967 733.605 Q55.6912 737.147 55.6912 744.277 Q55.6912 751.383 57.4967 754.948 Q59.3254 758.489 62.9365 758.489 Q66.5707 758.489 68.3763 754.948 Q70.205 751.383 70.205 744.277 Q70.205 737.147 68.3763 733.605 Q66.5707 730.041 62.9365 730.041 M62.9365 726.337 Q68.7467 726.337 71.8022 730.943 Q74.8809 735.527 74.8809 744.277 Q74.8809 753.003 71.8022 757.61 Q68.7467 762.193 62.9365 762.193 Q57.1264 762.193 54.0477 757.61 Q50.9921 753.003 50.9921 744.277 Q50.9921 735.527 54.0477 730.943 Q57.1264 726.337 62.9365 726.337 Z" fill="#000000" fill-rule="nonzero" fill-opacity="1" /><path clip-path="url(#clip350)" d="M83.0984 755.642 L87.9827 755.642 L87.9827 761.522 L83.0984 761.522 L83.0984 755.642 Z" fill="#000000" fill-rule="nonzero" fill-opacity="1" /><path clip-path="url(#clip350)" d="M98.2141 726.962 L116.57 726.962 L116.57 730.897 L102.496 730.897 L102.496 739.369 Q103.515 739.022 104.534 738.86 Q105.552 738.675 106.571 738.675 Q112.358 738.675 115.737 741.846 Q119.117 745.017 119.117 750.434 Q119.117 756.013 115.645 759.114 Q112.172 762.193 105.853 762.193 Q103.677 762.193 101.409 761.823 Q99.1632 761.452 96.7558 760.712 L96.7558 756.013 Q98.8391 757.147 101.061 757.702 Q103.284 758.258 105.76 758.258 Q109.765 758.258 112.103 756.151 Q114.441 754.045 114.441 750.434 Q114.441 746.823 112.103 744.716 Q109.765 742.61 105.76 742.61 Q103.885 742.61 102.01 743.027 Q100.159 743.443 98.2141 744.323 L98.2141 726.962 Z" fill="#000000" fill-rule="nonzero" fill-opacity="1" /><path clip-path="url(#clip350)" d="M138.33 730.041 Q134.719 730.041 132.89 733.605 Q131.084 737.147 131.084 744.277 Q131.084 751.383 132.89 754.948 Q134.719 758.489 138.33 758.489 Q141.964 758.489 143.769 754.948 Q145.598 751.383 145.598 744.277 Q145.598 737.147 143.769 733.605 Q141.964 730.041 138.33 730.041 M138.33 726.337 Q144.14 726.337 147.195 730.943 Q150.274 735.527 150.274 744.277 Q150.274 753.003 147.195 757.61 Q144.14 762.193 138.33 762.193 Q132.519 762.193 129.441 757.61 Q126.385 753.003 126.385 744.277 Q126.385 735.527 129.441 730.943 Q132.519 726.337 138.33 726.337 Z" fill="#000000" fill-rule="nonzero" fill-opacity="1" /><path clip-path="url(#clip350)" d="M63.9319 401.012 Q60.3208 401.012 58.4921 404.577 Q56.6865 408.119 56.6865 415.248 Q56.6865 422.355 58.4921 425.92 Q60.3208 429.461 63.9319 429.461 Q67.5661 429.461 69.3717 425.92 Q71.2004 422.355 71.2004 415.248 Q71.2004 408.119 69.3717 404.577 Q67.5661 401.012 63.9319 401.012 M63.9319 397.309 Q69.742 397.309 72.7976 401.915 Q75.8763 406.499 75.8763 415.248 Q75.8763 423.975 72.7976 428.582 Q69.742 433.165 63.9319 433.165 Q58.1217 433.165 55.043 428.582 Q51.9875 423.975 51.9875 415.248 Q51.9875 406.499 55.043 401.915 Q58.1217 397.309 63.9319 397.309 Z" fill="#000000" fill-rule="nonzero" fill-opacity="1" /><path clip-path="url(#clip350)" d="M84.0938 426.614 L88.978 426.614 L88.978 432.494 L84.0938 432.494 L84.0938 426.614 Z" fill="#000000" fill-rule="nonzero" fill-opacity="1" /><path clip-path="url(#clip350)" d="M97.9826 397.934 L120.205 397.934 L120.205 399.924 L107.658 432.494 L102.774 432.494 L114.58 401.869 L97.9826 401.869 L97.9826 397.934 Z" fill="#000000" fill-rule="nonzero" fill-opacity="1" /><path clip-path="url(#clip350)" d="M129.371 397.934 L147.728 397.934 L147.728 401.869 L133.654 401.869 L133.654 410.341 Q134.672 409.994 135.691 409.832 Q136.709 409.647 137.728 409.647 Q143.515 409.647 146.894 412.818 Q150.274 415.989 150.274 421.406 Q150.274 426.985 146.802 430.086 Q143.33 433.165 137.01 433.165 Q134.834 433.165 132.566 432.795 Q130.32 432.424 127.913 431.684 L127.913 426.985 Q129.996 428.119 132.219 428.674 Q134.441 429.23 136.918 429.23 Q140.922 429.23 143.26 427.123 Q145.598 425.017 145.598 421.406 Q145.598 417.795 143.26 415.688 Q140.922 413.582 136.918 413.582 Q135.043 413.582 133.168 413.998 Q131.316 414.415 129.371 415.295 L129.371 397.934 Z" fill="#000000" fill-rule="nonzero" fill-opacity="1" /><path clip-path="url(#clip350)" d="M53.7467 99.5305 L61.3856 99.5305 L61.3856 73.1649 L53.0754 74.8316 L53.0754 70.5723 L61.3393 68.9057 L66.0152 68.9057 L66.0152 99.5305 L73.654 99.5305 L73.654 103.466 L53.7467 103.466 L53.7467 99.5305 Z" fill="#000000" fill-rule="nonzero" fill-opacity="1" /><path clip-path="url(#clip350)" d="M83.0984 97.5861 L87.9827 97.5861 L87.9827 103.466 L83.0984 103.466 L83.0984 97.5861 Z" fill="#000000" fill-rule="nonzero" fill-opacity="1" /><path clip-path="url(#clip350)" d="M108.168 71.9844 Q104.557 71.9844 102.728 75.5492 Q100.922 79.0908 100.922 86.2204 Q100.922 93.3268 102.728 96.8916 Q104.557 100.433 108.168 100.433 Q111.802 100.433 113.608 96.8916 Q115.436 93.3268 115.436 86.2204 Q115.436 79.0908 113.608 75.5492 Q111.802 71.9844 108.168 71.9844 M108.168 68.2807 Q113.978 68.2807 117.033 72.8871 Q120.112 77.4704 120.112 86.2204 Q120.112 94.9472 117.033 99.5537 Q113.978 104.137 108.168 104.137 Q102.358 104.137 99.2789 99.5537 Q96.2234 94.9472 96.2234 86.2204 Q96.2234 77.4704 99.2789 72.8871 Q102.358 68.2807 108.168 68.2807 Z" fill="#000000" fill-rule="nonzero" fill-opacity="1" /><path clip-path="url(#clip350)" d="M138.33 71.9844 Q134.719 71.9844 132.89 75.5492 Q131.084 79.0908 131.084 86.2204 Q131.084 93.3268 132.89 96.8916 Q134.719 100.433 138.33 100.433 Q141.964 100.433 143.769 96.8916 Q145.598 93.3268 145.598 86.2204 Q145.598 79.0908 143.769 75.5492 Q141.964 71.9844 138.33 71.9844 M138.33 68.2807 Q144.14 68.2807 147.195 72.8871 Q150.274 77.4704 150.274 86.2204 Q150.274 94.9472 147.195 99.5537 Q144.14 104.137 138.33 104.137 Q132.519 104.137 129.441 99.5537 Q126.385 94.9472 126.385 86.2204 Q126.385 77.4704 129.441 72.8871 Q132.519 68.2807 138.33 68.2807 Z" fill="#000000" fill-rule="nonzero" fill-opacity="1" /><polyline clip-path="url(#clip351)" style="stroke:#009af9; stroke-linecap:round; stroke-linejoin:round; stroke-width:4; stroke-opacity:1; fill:none" points="186.274,86.1857 190.607,86.1857 194.94,90.9315 199.273,94.7376 203.606,97.3712 207.939,104.294 212.272,113.078 216.605,120.872 220.938,128.713 225.271,140.097 229.604,150.276 233.937,159.208 238.27,171.087 242.603,184.37 246.935,193.166 251.268,202.704 255.601,206.419 259.934,212.827 264.267,222.452 268.6,232.68 272.933,243.465 277.266,254.249 281.599,265.786 285.932,278.157 290.265,291.178 294.598,302.953 298.931,316.34 303.264,327.654 307.597,338.946 311.93,347.291 316.263,352.514 320.596,357.845 324.929,359.105 329.262,362.046 333.595,361.749 337.928,357.587 342.261,351.932 346.594,347.233 350.927,345.841 355.26,344.583 359.593,345.799 363.926,343.965 368.258,341.954 372.591,340.534 376.924,340.018 381.257,341.084 385.59,343.21 389.923,343.709 394.256,343.046 398.589,342.063 402.922,338.888 407.255,332.472 411.588,326.467 415.921,320.311 420.254,315.709 424.587,313.886 428.92,311.281 433.253,311.039 437.586,310.218 441.919,310.014 446.252,307.565 450.585,302.847 454.918,297.075 459.251,296.212 463.584,295.361 467.917,295.617 472.25,290.824 476.583,290.057 480.916,293.587 485.249,299.161 489.581,300.791 493.914,301.718 498.247,306.247 502.58,310.749 506.913,317.198 511.246,323.728 515.579,330.147 519.912,339.247 524.245,350.601 528.578,362.398 532.911,372.361 537.244,384.738 541.577,397.052 545.91,407.104 550.243,419.496 554.576,430.853 558.909,443.269 563.242,457.141 567.575,473.873 571.908,490.52 576.241,505.812 580.574,520.766 584.907,536.53 589.24,552.002 593.573,567.776 597.906,584.014 602.239,599.713 606.571,615.163 610.904,629.964 615.237,644.388 619.57,658.291 623.903,672.043 628.236,685.778 632.569,698.653 636.902,711.611 641.235,725.164 645.568,738.388 649.901,751.221 654.234,763.699 658.567,776.252 662.9,788.64 667.233,800.434 671.566,812.055 675.899,823.694 680.232,834.986 684.565,845.661 688.898,855.84 693.231,866.508 697.564,876.939 701.897,886.492 706.23,895.728 710.563,904.737 714.896,913.382 719.229,920.503 723.562,927.192 727.894,932.391 732.227,936.861 736.56,940.906 740.893,944.708 745.226,946.698 749.559,949.587 753.892,952.023 758.225,956.237 762.558,961.111 766.891,966.795 771.224,971.341 775.557,975.65 779.89,979.459 784.223,983.391 788.556,987.724 792.889,992.442 797.222,996.932 801.555,1002.12 805.888,1007.1 810.221,1011.8 814.554,1016.44 818.887,1021.28 823.22,1026.01 827.553,1030.83 831.886,1035.37 836.219,1041.61 840.552,1047.09 844.885,1052.23 849.217,1057.19 853.55,1061.37 857.883,1065.2 862.216,1068.31 866.549,1070.61 870.882,1072.97 875.215,1075.48 879.548,1078.18 883.881,1080.57 888.214,1083.71 892.547,1087.49 896.88,1091.32 901.213,1095.29 905.546,1098.78 909.879,1101.55 914.212,1104.77 918.545,1107.31 922.878,1109.82 927.211,1112.54 931.544,1114.66 935.877,1117.22 940.21,1119.82 944.543,1122.44 948.876,1124.95 953.209,1126.99 957.542,1129.78 961.875,1132.41 966.207,1133.82 970.54,1134.93 974.873,1136.26 979.206,1137.91 983.539,1139.6 987.872,1141.36 992.205,1142.28 996.538,1142.84 1000.87,1142.71 1005.2,1142.77 1009.54,1143.25 1013.87,1143.4 1018.2,1143.3 1022.54,1143.1 1026.87,1142.91 1031.2,1142.22 1035.53,1141.44 1039.87,1140.65 1044.2,1139.62 1048.53,1139.32 1052.87,1138.93 1057.2,1138.52 1061.53,1138.07 1065.87,1137.62 1070.2,1137.33 1074.53,1137.18 1078.86,1137.3 1083.2,1137.15 1087.53,1137.95 1091.86,1139.38 1096.2,1140.78 1100.53,1142.47 1104.86,1143.57 1109.2,1144.61 1113.53,1144.54 1117.86,1142.97 1122.19,1142.13 1126.53,1141.29 1130.86,1140.2 1135.19,1139.1 1139.53,1137.99 1143.86,1137 1148.19,1136.42 1152.52,1136.06 1156.86,1135.62 1161.19,1135.73 1165.52,1135.86 1169.86,1136.83 1174.19,1138.24 1178.52,1139.24 1182.86,1140.22 1187.19,1141.24 1191.52,1142.49 1195.85,1144.28 1200.19,1146.09 1204.52,1147.84 1208.85,1149.71 1213.19,1151.39 1217.52,1153.23 1221.85,1154.37 1226.19,1154.86 1230.52,1155.44 1234.85,1155.03 1239.18,1155.16 1243.52,1156.33 1247.85,1157.14 1252.18,1157.32 1256.52,1158.3 1260.85,1159.29 1265.18,1159.5 1269.51,1159.81 1273.85,1160.12 1278.18,1161.17 1282.51,1162.77 1286.85,1164.62 1291.18,1166.88 1295.51,1169.69 1299.85,1173.05 1304.18,1176.52 1308.51,1179.82 1312.84,1183.05 1317.18,1186.49 1321.51,1189.58 1325.84,1192.54 1330.18,1195.11 1334.51,1198.26 1338.84,1201.46 1343.18,1204.47 1347.51,1207.53 1351.84,1210.52 1356.17,1213.74 1360.51,1216.65 1364.84,1219.4 1369.17,1221.7 1373.51,1223.74 1377.84,1225.75 1382.17,1227.6 1386.5,1229.78 1390.84,1231.95 1395.17,1234.36 1399.5,1236.63 1403.84,1239.19 1408.17,1241.1 1412.5,1243.11 1416.84,1245.25 1421.17,1247.39 1425.5,1249.25 1429.83,1250.95 1434.17,1252.45 1438.5,1253.99 1442.83,1255.35 1447.17,1256.87 1451.5,1258.62 1455.83,1260.5 1460.17,1262.49 1464.5,1264.42 1468.83,1266.45 1473.16,1268.69 1477.5,1270.88 1481.83,1273.19 1486.16,1275.49 1490.5,1277.5 1494.83,1279.75 1499.16,1281.95 1503.49,1283.92 1507.83,1285.95 1512.16,1287.98 1516.49,1289.85 1520.83,1291.88 1525.16,1294 1529.49,1295.96 1533.83,1297.63 1538.16,1299.45 1542.49,1301.23 1546.82,1303.01 1551.16,1304.53 1555.49,1305.87 1559.82,1307.1 1564.16,1308.26 1568.49,1309.4 1572.82,1310.51 1577.16,1311.61 1581.49,1312.43 1585.82,1313.48 1590.15,1314.33 1594.49,1315.08 1598.82,1315.89 1603.15,1317.13 1607.49,1318.35 1611.82,1319.66 1616.15,1321.02 1620.49,1322.38 1624.82,1323.77 1629.15,1325.19 1633.48,1326.57 1637.82,1327.86 1642.15,1329.09 1646.48,1330.3 1650.82,1331.3 1655.15,1332.28 1659.48,1333.14 1663.81,1334.11 1668.15,1335.03 1672.48,1336.04 1676.81,1337.07 1681.15,1338.12 1685.48,1339.06 1689.81,1339.93 1694.15,1340.75 1698.48,1341.54 1702.81,1342.28 1707.14,1343.01 1711.48,1343.71 1715.81,1344.32 1720.14,1344.99 1724.48,1345.73 1728.81,1346.45 1733.14,1346.93 1737.48,1347.47 1741.81,1347.82 1746.14,1348.11 1750.47,1348.42 1754.81,1348.71 1759.14,1349.14 1763.47,1349.57 1767.81,1350 1772.14,1350.34 1776.47,1350.72 1780.8,1351.07 1785.14,1351.39 1789.47,1351.69 1793.8,1351.94 1798.14,1352.38 1802.47,1352.8 1806.8,1353.16 1811.14,1353.56 1815.47,1353.87 1819.8,1354.19 1824.13,1354.49 1828.47,1354.8 1832.8,1355.04 1837.13,1355.42 1841.47,1355.77 1845.8,1356.07 1850.13,1356.36 1854.47,1356.85 1858.8,1357.34 1863.13,1357.6 1867.46,1357.94 1871.8,1358.28 1876.13,1358.69 1880.46,1359.08 1884.8,1359.54 1889.13,1360.01 1893.46,1360.51 1897.79,1361.03 1902.13,1361.44 1906.46,1361.83 1910.79,1362.18 1915.13,1362.41 1919.46,1362.72 1923.79,1363.01 1928.13,1363.33 1932.46,1363.59 1936.79,1363.72 1941.12,1363.89 1945.46,1364.11 1949.79,1364.34 1954.12,1364.5 1958.46,1364.52 1962.79,1364.49 1967.12,1364.52 1971.46,1364.59 1975.79,1364.58 1980.12,1364.56 1984.45,1364.64 1988.79,1364.85 1993.12,1365.1 1997.45,1365.32 2001.79,1365.44 2006.12,1365.58 2010.45,1365.62 2014.78,1365.59 2019.12,1365.59 2023.45,1365.61 2027.78,1365.72 2032.12,1365.84 2036.45,1365.91 2040.78,1366.07 2045.12,1366.35 2049.45,1366.55 2053.78,1366.64 2058.11,1366.72 2062.45,1366.75 2066.78,1366.67 2071.11,1366.66 2075.45,1366.61 2079.78,1366.67 2084.11,1366.68 2088.45,1366.69 2092.78,1366.63 2097.11,1366.46 2101.44,1366.34 2105.78,1366.22 2110.11,1366.23 2114.44,1366.35 2118.78,1366.6 2123.11,1366.81 2127.44,1366.98 2131.77,1367.17 2136.11,1367.37 2140.44,1367.57 2144.77,1367.72 2149.11,1367.92 2153.44,1368.13 2157.77,1368.38 2162.11,1368.69 2166.44,1368.96 2170.77,1369.2 2175.1,1369.48 2179.44,1369.78 2183.77,1370.16 2188.1,1370.54 2192.44,1371.01 2196.77,1371.39 2201.1,1371.86 2205.44,1372.26 2209.77,1372.71 2214.1,1373.17 2218.43,1373.66 2222.77,1374.12 2227.1,1374.56 2231.43,1374.96 2235.77,1375.34 2240.1,1375.75 2244.43,1376.12 2248.76,1376.5 2253.1,1376.91 2257.43,1377.32 2261.76,1377.73 2266.1,1378.07 2270.43,1378.4 2274.76,1378.7 2279.1,1379.02 2283.43,1379.31 2287.76,1379.66 2292.09,1380 2296.43,1380.38 2300.76,1380.79 2305.09,1381.16 2309.43,1381.5 2313.76,1381.79 2318.09,1382.09 2322.43,1382.41 2326.76,1382.72 2331.09,1382.99 2335.42,1383.24 2339.76,1383.49 2344.09,1383.74 2348.42,1383.99 2352.76,1384.24 "/>
<path clip-path="url(#clip350)" d="M1974.79 196.789 L2280.54 196.789 L2280.54 93.1086 L1974.79 93.1086  Z" fill="#ffffff" fill-rule="evenodd" fill-opacity="1"/>
<polyline clip-path="url(#clip350)" style="stroke:#000000; stroke-linecap:round; stroke-linejoin:round; stroke-width:4; stroke-opacity:1; fill:none" points="1974.79,196.789 2280.54,196.789 2280.54,93.1086 1974.79,93.1086 1974.79,196.789 "/>
<polyline clip-path="url(#clip350)" style="stroke:#009af9; stroke-linecap:round; stroke-linejoin:round; stroke-width:4; stroke-opacity:1; fill:none" points="1998.87,144.949 2143.3,144.949 "/>
<path clip-path="url(#clip350)" d="M2167.37 151.997 L2167.37 136.303 L2171.63 136.303 L2171.63 151.835 Q2171.63 155.516 2173.07 157.368 Q2174.5 159.196 2177.37 159.196 Q2180.82 159.196 2182.81 156.997 Q2184.82 154.798 2184.82 151.002 L2184.82 136.303 L2189.08 136.303 L2189.08 162.229 L2184.82 162.229 L2184.82 158.247 Q2183.27 160.608 2181.21 161.766 Q2179.18 162.9 2176.47 162.9 Q2172 162.9 2169.69 160.122 Q2167.37 157.344 2167.37 151.997 M2178.09 135.678 L2178.09 135.678 Z" fill="#000000" fill-rule="nonzero" fill-opacity="1" /><path clip-path="url(#clip350)" d="M2197.46 126.21 L2207.28 126.21 L2207.28 129.52 L2201.72 129.52 L2201.72 165.168 L2207.28 165.168 L2207.28 168.479 L2197.46 168.479 L2197.46 126.21 Z" fill="#000000" fill-rule="nonzero" fill-opacity="1" /><path clip-path="url(#clip350)" d="M2217.76 158.293 L2225.4 158.293 L2225.4 131.928 L2217.09 133.595 L2217.09 129.335 L2225.36 127.669 L2230.03 127.669 L2230.03 158.293 L2237.67 158.293 L2237.67 162.229 L2217.76 162.229 L2217.76 158.293 Z" fill="#000000" fill-rule="nonzero" fill-opacity="1" /><path clip-path="url(#clip350)" d="M2256.47 126.21 L2256.47 168.479 L2246.65 168.479 L2246.65 165.168 L2252.19 165.168 L2252.19 129.52 L2246.65 129.52 L2246.65 126.21 L2256.47 126.21 Z" fill="#000000" fill-rule="nonzero" fill-opacity="1" /></svg>
