<?xml version="1.0" encoding="utf-8"?>
<svg xmlns="http://www.w3.org/2000/svg" xmlns:xlink="http://www.w3.org/1999/xlink" width="600" height="400" viewBox="0 0 2400 1600">
<defs>
  <clipPath id="clip380">
    <rect x="0" y="0" width="2400" height="1600"/>
  </clipPath>
</defs>
<path clip-path="url(#clip380)" d="M0 1600 L2400 1600 L2400 0 L0 0  Z" fill="#ffffff" fill-rule="evenodd" fill-opacity="1"/>
<defs>
  <clipPath id="clip381">
    <rect x="186" y="47" width="2167" height="1377"/>
  </clipPath>
</defs>
<path clip-path="url(#clip380)" d="M186.274 1423.18 L2352.76 1423.18 L2352.76 47.2441 L186.274 47.2441  Z" fill="#ffffff" fill-rule="evenodd" fill-opacity="1"/>
<polyline clip-path="url(#clip381)" style="stroke:#000000; stroke-linecap:round; stroke-linejoin:round; stroke-width:2; stroke-opacity:0.1; fill:none" points="186.274,1423.18 186.274,47.2441 "/>
<polyline clip-path="url(#clip381)" style="stroke:#000000; stroke-linecap:round; stroke-linejoin:round; stroke-width:2; stroke-opacity:0.1; fill:none" points="619.57,1423.18 619.57,47.2441 "/>
<polyline clip-path="url(#clip381)" style="stroke:#000000; stroke-linecap:round; stroke-linejoin:round; stroke-width:2; stroke-opacity:0.1; fill:none" points="1052.87,1423.18 1052.87,47.2441 "/>
<polyline clip-path="url(#clip381)" style="stroke:#000000; stroke-linecap:round; stroke-linejoin:round; stroke-width:2; stroke-opacity:0.1; fill:none" points="1486.16,1423.18 1486.16,47.2441 "/>
<polyline clip-path="url(#clip381)" style="stroke:#000000; stroke-linecap:round; stroke-linejoin:round; stroke-width:2; stroke-opacity:0.1; fill:none" points="1919.46,1423.18 1919.46,47.2441 "/>
<polyline clip-path="url(#clip381)" style="stroke:#000000; stroke-linecap:round; stroke-linejoin:round; stroke-width:2; stroke-opacity:0.1; fill:none" points="2352.76,1423.18 2352.76,47.2441 "/>
<polyline clip-path="url(#clip381)" style="stroke:#000000; stroke-linecap:round; stroke-linejoin:round; stroke-width:2; stroke-opacity:0.1; fill:none" points="186.274,1386.15 2352.76,1386.15 "/>
<polyline clip-path="url(#clip381)" style="stroke:#000000; stroke-linecap:round; stroke-linejoin:round; stroke-width:2; stroke-opacity:0.1; fill:none" points="186.274,1061.19 2352.76,1061.19 "/>
<polyline clip-path="url(#clip381)" style="stroke:#000000; stroke-linecap:round; stroke-linejoin:round; stroke-width:2; stroke-opacity:0.1; fill:none" points="186.274,736.225 2352.76,736.225 "/>
<polyline clip-path="url(#clip381)" style="stroke:#000000; stroke-linecap:round; stroke-linejoin:round; stroke-width:2; stroke-opacity:0.1; fill:none" points="186.274,411.263 2352.76,411.263 "/>
<polyline clip-path="url(#clip381)" style="stroke:#000000; stroke-linecap:round; stroke-linejoin:round; stroke-width:2; stroke-opacity:0.1; fill:none" points="186.274,86.3016 2352.76,86.3016 "/>
<polyline clip-path="url(#clip380)" style="stroke:#000000; stroke-linecap:round; stroke-linejoin:round; stroke-width:4; stroke-opacity:1; fill:none" points="186.274,1423.18 2352.76,1423.18 "/>
<polyline clip-path="url(#clip380)" style="stroke:#000000; stroke-linecap:round; stroke-linejoin:round; stroke-width:4; stroke-opacity:1; fill:none" points="186.274,1423.18 186.274,1404.28 "/>
<polyline clip-path="url(#clip380)" style="stroke:#000000; stroke-linecap:round; stroke-linejoin:round; stroke-width:4; stroke-opacity:1; fill:none" points="619.57,1423.18 619.57,1404.28 "/>
<polyline clip-path="url(#clip380)" style="stroke:#000000; stroke-linecap:round; stroke-linejoin:round; stroke-width:4; stroke-opacity:1; fill:none" points="1052.87,1423.18 1052.87,1404.28 "/>
<polyline clip-path="url(#clip380)" style="stroke:#000000; stroke-linecap:round; stroke-linejoin:round; stroke-width:4; stroke-opacity:1; fill:none" points="1486.16,1423.18 1486.16,1404.28 "/>
<polyline clip-path="url(#clip380)" style="stroke:#000000; stroke-linecap:round; stroke-linejoin:round; stroke-width:4; stroke-opacity:1; fill:none" points="1919.46,1423.18 1919.46,1404.28 "/>
<polyline clip-path="url(#clip380)" style="stroke:#000000; stroke-linecap:round; stroke-linejoin:round; stroke-width:4; stroke-opacity:1; fill:none" points="2352.76,1423.18 2352.76,1404.28 "/>
<path clip-path="url(#clip380)" d="M186.274 1454.1 Q182.663 1454.1 180.834 1457.66 Q179.029 1461.2 179.029 1468.33 Q179.029 1475.44 180.834 1479.01 Q182.663 1482.55 186.274 1482.55 Q189.908 1482.55 191.714 1479.01 Q193.542 1475.44 193.542 1468.33 Q193.542 1461.2 191.714 1457.66 Q189.908 1454.1 186.274 1454.1 M186.274 1450.39 Q192.084 1450.39 195.14 1455 Q198.218 1459.58 198.218 1468.33 Q198.218 1477.06 195.14 1481.67 Q192.084 1486.25 186.274 1486.25 Q180.464 1486.25 177.385 1481.67 Q174.33 1477.06 174.33 1468.33 Q174.33 1459.58 177.385 1455 Q180.464 1450.39 186.274 1450.39 Z" fill="#000000" fill-rule="nonzero" fill-opacity="1" /><path clip-path="url(#clip380)" d="M609.952 1481.64 L617.591 1481.64 L617.591 1455.28 L609.281 1456.95 L609.281 1452.69 L617.545 1451.02 L622.221 1451.02 L622.221 1481.64 L629.86 1481.64 L629.86 1485.58 L609.952 1485.58 L609.952 1481.64 Z" fill="#000000" fill-rule="nonzero" fill-opacity="1" /><path clip-path="url(#clip380)" d="M1047.52 1481.64 L1063.84 1481.64 L1063.84 1485.58 L1041.89 1485.58 L1041.89 1481.64 Q1044.56 1478.89 1049.14 1474.26 Q1053.75 1469.61 1054.93 1468.27 Q1057.17 1465.74 1058.05 1464.01 Q1058.95 1462.25 1058.95 1460.56 Q1058.95 1457.8 1057.01 1456.07 Q1055.09 1454.33 1051.99 1454.33 Q1049.79 1454.33 1047.33 1455.09 Q1044.9 1455.86 1042.13 1457.41 L1042.13 1452.69 Q1044.95 1451.55 1047.4 1450.97 Q1049.86 1450.39 1051.89 1450.39 Q1057.26 1450.39 1060.46 1453.08 Q1063.65 1455.77 1063.65 1460.26 Q1063.65 1462.39 1062.84 1464.31 Q1062.06 1466.2 1059.95 1468.8 Q1059.37 1469.47 1056.27 1472.69 Q1053.17 1475.88 1047.52 1481.64 Z" fill="#000000" fill-rule="nonzero" fill-opacity="1" /><path clip-path="url(#clip380)" d="M1490.41 1466.95 Q1493.77 1467.66 1495.64 1469.93 Q1497.54 1472.2 1497.54 1475.53 Q1497.54 1480.65 1494.02 1483.45 Q1490.5 1486.25 1484.02 1486.25 Q1481.85 1486.25 1479.53 1485.81 Q1477.24 1485.39 1474.79 1484.54 L1474.79 1480.02 Q1476.73 1481.16 1479.05 1481.74 Q1481.36 1482.32 1483.88 1482.32 Q1488.28 1482.32 1490.57 1480.58 Q1492.89 1478.84 1492.89 1475.53 Q1492.89 1472.48 1490.73 1470.77 Q1488.61 1469.03 1484.79 1469.03 L1480.76 1469.03 L1480.76 1465.19 L1484.97 1465.19 Q1488.42 1465.19 1490.25 1463.82 Q1492.08 1462.43 1492.08 1459.84 Q1492.08 1457.18 1490.18 1455.77 Q1488.3 1454.33 1484.79 1454.33 Q1482.86 1454.33 1480.67 1454.75 Q1478.47 1455.16 1475.83 1456.04 L1475.83 1451.88 Q1478.49 1451.14 1480.8 1450.77 Q1483.14 1450.39 1485.2 1450.39 Q1490.53 1450.39 1493.63 1452.83 Q1496.73 1455.23 1496.73 1459.35 Q1496.73 1462.22 1495.09 1464.21 Q1493.44 1466.18 1490.41 1466.95 Z" fill="#000000" fill-rule="nonzero" fill-opacity="1" /><path clip-path="url(#clip380)" d="M1922.47 1455.09 L1910.66 1473.54 L1922.47 1473.54 L1922.47 1455.09 M1921.24 1451.02 L1927.12 1451.02 L1927.12 1473.54 L1932.05 1473.54 L1932.05 1477.43 L1927.12 1477.43 L1927.12 1485.58 L1922.47 1485.58 L1922.47 1477.43 L1906.87 1477.43 L1906.87 1472.92 L1921.24 1451.02 Z" fill="#000000" fill-rule="nonzero" fill-opacity="1" /><path clip-path="url(#clip380)" d="M2343.03 1451.02 L2361.39 1451.02 L2361.39 1454.96 L2347.32 1454.96 L2347.32 1463.43 Q2348.33 1463.08 2349.35 1462.92 Q2350.37 1462.73 2351.39 1462.73 Q2357.18 1462.73 2360.56 1465.9 Q2363.94 1469.08 2363.94 1474.49 Q2363.94 1480.07 2360.46 1483.17 Q2356.99 1486.25 2350.67 1486.25 Q2348.5 1486.25 2346.23 1485.88 Q2343.98 1485.51 2341.58 1484.77 L2341.58 1480.07 Q2343.66 1481.2 2345.88 1481.76 Q2348.1 1482.32 2350.58 1482.32 Q2354.58 1482.32 2356.92 1480.21 Q2359.26 1478.1 2359.26 1474.49 Q2359.26 1470.88 2356.92 1468.77 Q2354.58 1466.67 2350.58 1466.67 Q2348.71 1466.67 2346.83 1467.08 Q2344.98 1467.5 2343.03 1468.38 L2343.03 1451.02 Z" fill="#000000" fill-rule="nonzero" fill-opacity="1" /><path clip-path="url(#clip380)" d="M1268.58 1522.27 L1268.58 1532.4 L1280.64 1532.4 L1280.64 1536.95 L1268.58 1536.95 L1268.58 1556.3 Q1268.58 1560.66 1269.75 1561.9 Q1270.96 1563.14 1274.62 1563.14 L1280.64 1563.14 L1280.64 1568.04 L1274.62 1568.04 Q1267.84 1568.04 1265.27 1565.53 Q1262.69 1562.98 1262.69 1556.3 L1262.69 1536.95 L1258.39 1536.95 L1258.39 1532.4 L1262.69 1532.4 L1262.69 1522.27 L1268.58 1522.27 Z" fill="#000000" fill-rule="nonzero" fill-opacity="1" /><polyline clip-path="url(#clip380)" style="stroke:#000000; stroke-linecap:round; stroke-linejoin:round; stroke-width:4; stroke-opacity:1; fill:none" points="186.274,1423.18 186.274,47.2441 "/>
<polyline clip-path="url(#clip380)" style="stroke:#000000; stroke-linecap:round; stroke-linejoin:round; stroke-width:4; stroke-opacity:1; fill:none" points="186.274,1386.15 205.172,1386.15 "/>
<polyline clip-path="url(#clip380)" style="stroke:#000000; stroke-linecap:round; stroke-linejoin:round; stroke-width:4; stroke-opacity:1; fill:none" points="186.274,1061.19 205.172,1061.19 "/>
<polyline clip-path="url(#clip380)" style="stroke:#000000; stroke-linecap:round; stroke-linejoin:round; stroke-width:4; stroke-opacity:1; fill:none" points="186.274,736.225 205.172,736.225 "/>
<polyline clip-path="url(#clip380)" style="stroke:#000000; stroke-linecap:round; stroke-linejoin:round; stroke-width:4; stroke-opacity:1; fill:none" points="186.274,411.263 205.172,411.263 "/>
<polyline clip-path="url(#clip380)" style="stroke:#000000; stroke-linecap:round; stroke-linejoin:round; stroke-width:4; stroke-opacity:1; fill:none" points="186.274,86.3016 205.172,86.3016 "/>
<path clip-path="url(#clip380)" d="M62.9365 1371.95 Q59.3254 1371.95 57.4967 1375.51 Q55.6912 1379.05 55.6912 1386.18 Q55.6912 1393.29 57.4967 1396.85 Q59.3254 1400.4 62.9365 1400.4 Q66.5707 1400.4 68.3763 1396.85 Q70.205 1393.29 70.205 1386.18 Q70.205 1379.05 68.3763 1375.51 Q66.5707 1371.95 62.9365 1371.95 M62.9365 1368.24 Q68.7467 1368.24 71.8022 1372.85 Q74.8809 1377.43 74.8809 1386.18 Q74.8809 1394.91 71.8022 1399.52 Q68.7467 1404.1 62.9365 1404.1 Q57.1264 1404.1 54.0477 1399.52 Q50.9921 1394.91 50.9921 1386.18 Q50.9921 1377.43 54.0477 1372.85 Q57.1264 1368.24 62.9365 1368.24 Z" fill="#000000" fill-rule="nonzero" fill-opacity="1" /><path clip-path="url(#clip380)" d="M83.0984 1397.55 L87.9827 1397.55 L87.9827 1403.43 L83.0984 1403.43 L83.0984 1397.55 Z" fill="#000000" fill-rule="nonzero" fill-opacity="1" /><path clip-path="url(#clip380)" d="M108.168 1371.95 Q104.557 1371.95 102.728 1375.51 Q100.922 1379.05 100.922 1386.18 Q100.922 1393.29 102.728 1396.85 Q104.557 1400.4 108.168 1400.4 Q111.802 1400.4 113.608 1396.85 Q115.436 1393.29 115.436 1386.18 Q115.436 1379.05 113.608 1375.51 Q111.802 1371.95 108.168 1371.95 M108.168 1368.24 Q113.978 1368.24 117.033 1372.85 Q120.112 1377.43 120.112 1386.18 Q120.112 1394.91 117.033 1399.52 Q113.978 1404.1 108.168 1404.1 Q102.358 1404.1 99.2789 1399.52 Q96.2234 1394.91 96.2234 1386.18 Q96.2234 1377.43 99.2789 1372.85 Q102.358 1368.24 108.168 1368.24 Z" fill="#000000" fill-rule="nonzero" fill-opacity="1" /><path clip-path="url(#clip380)" d="M138.33 1371.95 Q134.719 1371.95 132.89 1375.51 Q131.084 1379.05 131.084 1386.18 Q131.084 1393.29 132.89 1396.85 Q134.719 1400.4 138.33 1400.4 Q141.964 1400.4 143.769 1396.85 Q145.598 1393.29 145.598 1386.18 Q145.598 1379.05 143.769 1375.51 Q141.964 1371.95 138.33 1371.95 M138.33 1368.24 Q144.14 1368.24 147.195 1372.85 Q150.274 1377.43 150.274 1386.18 Q150.274 1394.91 147.195 1399.52 Q144.14 1404.1 138.33 1404.1 Q132.519 1404.1 129.441 1399.52 Q126.385 1394.91 126.385 1386.18 Q126.385 1377.43 129.441 1372.85 Q132.519 1368.24 138.33 1368.24 Z" fill="#000000" fill-rule="nonzero" fill-opacity="1" /><path clip-path="url(#clip380)" d="M63.9319 1046.98 Q60.3208 1046.98 58.4921 1050.55 Q56.6865 1054.09 56.6865 1061.22 Q56.6865 1068.33 58.4921 1071.89 Q60.3208 1075.43 63.9319 1075.43 Q67.5661 1075.43 69.3717 1071.89 Q71.2004 1068.33 71.2004 1061.22 Q71.2004 1054.09 69.3717 1050.55 Q67.5661 1046.98 63.9319 1046.98 M63.9319 1043.28 Q69.742 1043.28 72.7976 1047.89 Q75.8763 1052.47 75.8763 1061.22 Q75.8763 1069.95 72.7976 1074.55 Q69.742 1079.14 63.9319 1079.14 Q58.1217 1079.14 55.043 1074.55 Q51.9875 1069.95 51.9875 1061.22 Q51.9875 1052.47 55.043 1047.89 Q58.1217 1043.28 63.9319 1043.28 Z" fill="#000000" fill-rule="nonzero" fill-opacity="1" /><path clip-path="url(#clip380)" d="M84.0938 1072.59 L88.978 1072.59 L88.978 1078.47 L84.0938 1078.47 L84.0938 1072.59 Z" fill="#000000" fill-rule="nonzero" fill-opacity="1" /><path clip-path="url(#clip380)" d="M103.191 1074.53 L119.51 1074.53 L119.51 1078.47 L97.566 1078.47 L97.566 1074.53 Q100.228 1071.78 104.811 1067.15 Q109.418 1062.49 110.598 1061.15 Q112.844 1058.63 113.723 1056.89 Q114.626 1055.13 114.626 1053.44 Q114.626 1050.69 112.682 1048.95 Q110.76 1047.22 107.658 1047.22 Q105.459 1047.22 103.006 1047.98 Q100.575 1048.74 97.7974 1050.29 L97.7974 1045.57 Q100.621 1044.44 103.075 1043.86 Q105.529 1043.28 107.566 1043.28 Q112.936 1043.28 116.131 1045.97 Q119.325 1048.65 119.325 1053.14 Q119.325 1055.27 118.515 1057.19 Q117.728 1059.09 115.621 1061.68 Q115.043 1062.35 111.941 1065.57 Q108.839 1068.77 103.191 1074.53 Z" fill="#000000" fill-rule="nonzero" fill-opacity="1" /><path clip-path="url(#clip380)" d="M129.371 1043.91 L147.728 1043.91 L147.728 1047.84 L133.654 1047.84 L133.654 1056.31 Q134.672 1055.97 135.691 1055.8 Q136.709 1055.62 137.728 1055.62 Q143.515 1055.62 146.894 1058.79 Q150.274 1061.96 150.274 1067.38 Q150.274 1072.96 146.802 1076.06 Q143.33 1079.14 137.01 1079.14 Q134.834 1079.14 132.566 1078.77 Q130.32 1078.4 127.913 1077.66 L127.913 1072.96 Q129.996 1074.09 132.219 1074.65 Q134.441 1075.2 136.918 1075.2 Q140.922 1075.2 143.26 1073.1 Q145.598 1070.99 145.598 1067.38 Q145.598 1063.77 143.26 1061.66 Q140.922 1059.55 136.918 1059.55 Q135.043 1059.55 133.168 1059.97 Q131.316 1060.39 129.371 1061.27 L129.371 1043.91 Z" fill="#000000" fill-rule="nonzero" fill-opacity="1" /><path clip-path="url(#clip380)" d="M62.9365 722.023 Q59.3254 722.023 57.4967 725.588 Q55.6912 729.13 55.6912 736.259 Q55.6912 743.366 57.4967 746.931 Q59.3254 750.472 62.9365 750.472 Q66.5707 750.472 68.3763 746.931 Q70.205 743.366 70.205 736.259 Q70.205 729.13 68.3763 725.588 Q66.5707 722.023 62.9365 722.023 M62.9365 718.32 Q68.7467 718.32 71.8022 722.926 Q74.8809 727.509 74.8809 736.259 Q74.8809 744.986 71.8022 749.593 Q68.7467 754.176 62.9365 754.176 Q57.1264 754.176 54.0477 749.593 Q50.9921 744.986 50.9921 736.259 Q50.9921 727.509 54.0477 722.926 Q57.1264 718.32 62.9365 718.32 Z" fill="#000000" fill-rule="nonzero" fill-opacity="1" /><path clip-path="url(#clip380)" d="M83.0984 747.625 L87.9827 747.625 L87.9827 753.505 L83.0984 753.505 L83.0984 747.625 Z" fill="#000000" fill-rule="nonzero" fill-opacity="1" /><path clip-path="url(#clip380)" d="M98.2141 718.945 L116.57 718.945 L116.57 722.88 L102.496 722.88 L102.496 731.352 Q103.515 731.005 104.534 730.843 Q105.552 730.657 106.571 730.657 Q112.358 730.657 115.737 733.829 Q119.117 737 119.117 742.417 Q119.117 747.995 115.645 751.097 Q112.172 754.176 105.853 754.176 Q103.677 754.176 101.409 753.805 Q99.1632 753.435 96.7558 752.694 L96.7558 747.995 Q98.8391 749.13 101.061 749.685 Q103.284 750.241 105.76 750.241 Q109.765 750.241 112.103 748.134 Q114.441 746.028 114.441 742.417 Q114.441 738.806 112.103 736.699 Q109.765 734.593 105.76 734.593 Q103.885 734.593 102.01 735.009 Q100.159 735.426 98.2141 736.306 L98.2141 718.945 Z" fill="#000000" fill-rule="nonzero" fill-opacity="1" /><path clip-path="url(#clip380)" d="M138.33 722.023 Q134.719 722.023 132.89 725.588 Q131.084 729.13 131.084 736.259 Q131.084 743.366 132.89 746.931 Q134.719 750.472 138.33 750.472 Q141.964 750.472 143.769 746.931 Q145.598 743.366 145.598 736.259 Q145.598 729.13 143.769 725.588 Q141.964 722.023 138.33 722.023 M138.33 718.32 Q144.14 718.32 147.195 722.926 Q150.274 727.509 150.274 736.259 Q150.274 744.986 147.195 749.593 Q144.14 754.176 138.33 754.176 Q132.519 754.176 129.441 749.593 Q126.385 744.986 126.385 736.259 Q126.385 727.509 129.441 722.926 Q132.519 718.32 138.33 718.32 Z" fill="#000000" fill-rule="nonzero" fill-opacity="1" /><path clip-path="url(#clip380)" d="M63.9319 397.062 Q60.3208 397.062 58.4921 400.627 Q56.6865 404.168 56.6865 411.298 Q56.6865 418.404 58.4921 421.969 Q60.3208 425.511 63.9319 425.511 Q67.5661 425.511 69.3717 421.969 Q71.2004 418.404 71.2004 411.298 Q71.2004 404.168 69.3717 400.627 Q67.5661 397.062 63.9319 397.062 M63.9319 393.358 Q69.742 393.358 72.7976 397.965 Q75.8763 402.548 75.8763 411.298 Q75.8763 420.025 72.7976 424.631 Q69.742 429.214 63.9319 429.214 Q58.1217 429.214 55.043 424.631 Q51.9875 420.025 51.9875 411.298 Q51.9875 402.548 55.043 397.965 Q58.1217 393.358 63.9319 393.358 Z" fill="#000000" fill-rule="nonzero" fill-opacity="1" /><path clip-path="url(#clip380)" d="M84.0938 422.663 L88.978 422.663 L88.978 428.543 L84.0938 428.543 L84.0938 422.663 Z" fill="#000000" fill-rule="nonzero" fill-opacity="1" /><path clip-path="url(#clip380)" d="M97.9826 393.983 L120.205 393.983 L120.205 395.974 L107.658 428.543 L102.774 428.543 L114.58 397.918 L97.9826 397.918 L97.9826 393.983 Z" fill="#000000" fill-rule="nonzero" fill-opacity="1" /><path clip-path="url(#clip380)" d="M129.371 393.983 L147.728 393.983 L147.728 397.918 L133.654 397.918 L133.654 406.39 Q134.672 406.043 135.691 405.881 Q136.709 405.696 137.728 405.696 Q143.515 405.696 146.894 408.867 Q150.274 412.039 150.274 417.455 Q150.274 423.034 146.802 426.136 Q143.33 429.214 137.01 429.214 Q134.834 429.214 132.566 428.844 Q130.32 428.474 127.913 427.733 L127.913 423.034 Q129.996 424.168 132.219 424.724 Q134.441 425.279 136.918 425.279 Q140.922 425.279 143.26 423.173 Q145.598 421.066 145.598 417.455 Q145.598 413.844 143.26 411.738 Q140.922 409.631 136.918 409.631 Q135.043 409.631 133.168 410.048 Q131.316 410.464 129.371 411.344 L129.371 393.983 Z" fill="#000000" fill-rule="nonzero" fill-opacity="1" /><path clip-path="url(#clip380)" d="M53.7467 99.6465 L61.3856 99.6465 L61.3856 73.2809 L53.0754 74.9475 L53.0754 70.6883 L61.3393 69.0216 L66.0152 69.0216 L66.0152 99.6465 L73.654 99.6465 L73.654 103.582 L53.7467 103.582 L53.7467 99.6465 Z" fill="#000000" fill-rule="nonzero" fill-opacity="1" /><path clip-path="url(#clip380)" d="M83.0984 97.702 L87.9827 97.702 L87.9827 103.582 L83.0984 103.582 L83.0984 97.702 Z" fill="#000000" fill-rule="nonzero" fill-opacity="1" /><path clip-path="url(#clip380)" d="M108.168 72.1003 Q104.557 72.1003 102.728 75.6651 Q100.922 79.2068 100.922 86.3364 Q100.922 93.4428 102.728 97.0076 Q104.557 100.549 108.168 100.549 Q111.802 100.549 113.608 97.0076 Q115.436 93.4428 115.436 86.3364 Q115.436 79.2068 113.608 75.6651 Q111.802 72.1003 108.168 72.1003 M108.168 68.3966 Q113.978 68.3966 117.033 73.0031 Q120.112 77.5864 120.112 86.3364 Q120.112 95.0632 117.033 99.6696 Q113.978 104.253 108.168 104.253 Q102.358 104.253 99.2789 99.6696 Q96.2234 95.0632 96.2234 86.3364 Q96.2234 77.5864 99.2789 73.0031 Q102.358 68.3966 108.168 68.3966 Z" fill="#000000" fill-rule="nonzero" fill-opacity="1" /><path clip-path="url(#clip380)" d="M138.33 72.1003 Q134.719 72.1003 132.89 75.6651 Q131.084 79.2068 131.084 86.3364 Q131.084 93.4428 132.89 97.0076 Q134.719 100.549 138.33 100.549 Q141.964 100.549 143.769 97.0076 Q145.598 93.4428 145.598 86.3364 Q145.598 79.2068 143.769 75.6651 Q141.964 72.1003 138.33 72.1003 M138.33 68.3966 Q144.14 68.3966 147.195 73.0031 Q150.274 77.5864 150.274 86.3364 Q150.274 95.0632 147.195 99.6696 Q144.14 104.253 138.33 104.253 Q132.519 104.253 129.441 99.6696 Q126.385 95.0632 126.385 86.3364 Q126.385 77.5864 129.441 73.0031 Q132.519 68.3966 138.33 68.3966 Z" fill="#000000" fill-rule="nonzero" fill-opacity="1" /><polyline clip-path="url(#clip381)" style="stroke:#009af9; stroke-linecap:round; stroke-linejoin:round; stroke-width:4; stroke-opacity:1; fill:none" points="186.274,86.3016 190.607,86.3016 194.94,86.1857 199.273,89.4471 203.606,92.1625 207.939,95.9024 212.272,100.557 216.605,103.71 220.938,106.794 225.271,115.581 229.604,121.964 233.937,127.636 238.27,129.48 242.603,127.926 246.935,123.332 251.268,121.968 255.601,126.539 259.934,132.357 264.267,146.413 268.6,165.581 272.933,187.184 277.266,208.478 281.599,224.427 285.932,238.075 290.265,254.544 294.598,269.272 298.931,279.246 303.264,287.008 307.597,296.852 311.93,300.58 316.263,301.402 320.596,300.976 324.929,301.404 329.262,305.585 333.595,308.512 337.928,309.347 342.261,309.951 346.594,312.539 350.927,309.862 355.26,305.123 359.593,301.706 363.926,298.382 368.258,296.563 372.591,290.715 376.924,284.841 381.257,281.833 385.59,277.484 389.923,274.903 394.256,272.163 398.589,273.584 402.922,274.674 407.255,278.534 411.588,280.135 415.921,278.887 420.254,277.093 424.587,278.46 428.92,284.681 433.253,294.969 437.586,301.836 441.919,308.852 446.252,312.645 450.585,317.847 454.918,324.88 459.251,329.979 463.584,338.107 467.917,347.292 472.25,356.831 476.583,366.078 480.916,378.772 485.249,390.415 489.581,403.996 493.914,420.157 498.247,436.739 502.58,452.932 506.913,470.793 511.246,486.568 515.579,500.371 519.912,515.276 524.245,530.183 528.578,546.257 532.911,562.348 537.244,578.777 541.577,594.537 545.91,609.128 550.243,622.841 554.576,636.961 558.909,650.511 563.242,663.289 567.575,674.459 571.908,684.988 576.241,696.102 580.574,708.261 584.907,720.438 589.24,730.657 593.573,741.592 597.906,751.458 602.239,757.333 606.571,762.563 610.904,769.655 615.237,777.61 619.57,783.916 623.903,791.56 628.236,798.932 632.569,807.134 636.902,815.777 641.235,823.972 645.568,832.864 649.901,841.007 654.234,849.144 658.567,858.335 662.9,868.393 667.233,877.412 671.566,885.618 675.899,893.603 680.232,899.89 684.565,906.521 688.898,911.434 693.231,915.844 697.564,921.926 701.897,927.304 706.23,934.087 710.563,941.735 714.896,949.292 719.229,955.855 723.562,963.193 727.894,971.016 732.227,978.6 736.56,986.23 740.893,993.974 745.226,1001.3 749.559,1008.79 753.892,1016.29 758.225,1023.65 762.558,1030.75 766.891,1037.81 771.224,1044.54 775.557,1051.12 779.89,1057.37 784.223,1063.83 788.556,1070.26 792.889,1076.57 797.222,1082.73 801.555,1088.69 805.888,1094.6 810.221,1100.29 814.554,1105.9 818.887,1111.5 823.22,1116.99 827.553,1122.37 831.886,1127.62 836.219,1132.79 840.552,1137.77 844.885,1142.44 849.217,1146.81 853.55,1151.21 857.883,1155.83 862.216,1160.44 866.549,1164.95 870.882,1169.37 875.215,1173.71 879.548,1177.92 883.881,1182.09 888.214,1186.16 892.547,1190.14 896.88,1194.03 901.213,1197.69 905.546,1201.26 909.879,1204.67 914.212,1208.17 918.545,1211.59 922.878,1214.92 927.211,1218.07 931.544,1221.26 935.877,1224.23 940.21,1226.98 944.543,1229.59 948.876,1232.22 953.209,1235.06 957.542,1237.92 961.875,1240.25 966.207,1242 970.54,1243.84 974.873,1245.7 979.206,1247.33 983.539,1248.93 987.872,1249.65 992.205,1250.78 996.538,1251.88 1000.87,1253.07 1005.2,1254.38 1009.54,1255.36 1013.87,1256.34 1018.2,1256.72 1022.54,1256.91 1026.87,1257.85 1031.2,1258.71 1035.53,1259.67 1039.87,1259.95 1044.2,1259.61 1048.53,1259.87 1052.87,1260.93 1057.2,1262.19 1061.53,1263.25 1065.87,1264.7 1070.2,1265.55 1074.53,1266.4 1078.86,1266.79 1083.2,1266.94 1087.53,1267.48 1091.86,1267.96 1096.2,1268.8 1100.53,1269.83 1104.86,1271.31 1109.2,1273 1113.53,1274.55 1117.86,1276.18 1122.19,1278.09 1126.53,1280.07 1130.86,1281.69 1135.19,1282.88 1139.53,1284.04 1143.86,1285.09 1148.19,1286.08 1152.52,1287.02 1156.86,1288.17 1161.19,1289.12 1165.52,1290.36 1169.86,1291.79 1174.19,1293.12 1178.52,1294.58 1182.86,1295.99 1187.19,1297.31 1191.52,1298.58 1195.85,1299.51 1200.19,1300.63 1204.52,1302.14 1208.85,1303.44 1213.19,1304.68 1217.52,1305.47 1221.85,1306.42 1226.19,1307.6 1230.52,1308.87 1234.85,1310.25 1239.18,1311.67 1243.52,1313.04 1247.85,1314.22 1252.18,1315.38 1256.52,1316.26 1260.85,1317.04 1265.18,1317.52 1269.51,1318.28 1273.85,1318.87 1278.18,1319.37 1282.51,1320.04 1286.85,1320.62 1291.18,1321.4 1295.51,1322.25 1299.85,1322.9 1304.18,1323.62 1308.51,1324.47 1312.84,1325.3 1317.18,1326.25 1321.51,1326.96 1325.84,1327.75 1330.18,1328.54 1334.51,1329.24 1338.84,1329.71 1343.18,1330.43 1347.51,1331.17 1351.84,1331.92 1356.17,1332.58 1360.51,1333.06 1364.84,1333.52 1369.17,1334.08 1373.51,1334.67 1377.84,1335.25 1382.17,1335.89 1386.5,1336.44 1390.84,1337.09 1395.17,1337.8 1399.5,1338.55 1403.84,1339.31 1408.17,1340.18 1412.5,1340.96 1416.84,1341.57 1421.17,1342.17 1425.5,1342.74 1429.83,1343.33 1434.17,1343.86 1438.5,1344.19 1442.83,1344.48 1447.17,1344.63 1451.5,1344.82 1455.83,1344.99 1460.17,1345.3 1464.5,1345.71 1468.83,1346.32 1473.16,1346.96 1477.5,1347.6 1481.83,1348.2 1486.16,1348.77 1490.5,1349.37 1494.83,1350.02 1499.16,1350.63 1503.49,1351.24 1507.83,1351.8 1512.16,1352.38 1516.49,1352.97 1520.83,1353.51 1525.16,1354.02 1529.49,1354.46 1533.83,1354.93 1538.16,1355.41 1542.49,1355.87 1546.82,1356.32 1551.16,1356.76 1555.49,1357.23 1559.82,1357.7 1564.16,1358.19 1568.49,1358.7 1572.82,1359.19 1577.16,1359.66 1581.49,1360.08 1585.82,1360.39 1590.15,1360.67 1594.49,1361.01 1598.82,1361.39 1603.15,1361.77 1607.49,1362.15 1611.82,1362.48 1616.15,1362.79 1620.49,1363.13 1624.82,1363.38 1629.15,1363.67 1633.48,1363.92 1637.82,1364.12 1642.15,1364.39 1646.48,1364.7 1650.82,1365.04 1655.15,1365.38 1659.48,1365.71 1663.81,1366.04 1668.15,1366.33 1672.48,1366.61 1676.81,1366.92 1681.15,1367.27 1685.48,1367.61 1689.81,1367.93 1694.15,1368.21 1698.48,1368.47 1702.81,1368.77 1707.14,1369.08 1711.48,1369.4 1715.81,1369.72 1720.14,1370.03 1724.48,1370.34 1728.81,1370.65 1733.14,1370.95 1737.48,1371.26 1741.81,1371.55 1746.14,1371.84 1750.47,1372.12 1754.81,1372.39 1759.14,1372.67 1763.47,1372.93 1767.81,1373.2 1772.14,1373.45 1776.47,1373.69 1780.8,1373.93 1785.14,1374.17 1789.47,1374.4 1793.8,1374.63 1798.14,1374.85 1802.47,1375.04 1806.8,1375.25 1811.14,1375.45 1815.47,1375.66 1819.8,1375.87 1824.13,1376.04 1828.47,1376.21 1832.8,1376.34 1837.13,1376.49 1841.47,1376.62 1845.8,1376.78 1850.13,1376.94 1854.47,1377.1 1858.8,1377.26 1863.13,1377.43 1867.46,1377.6 1871.8,1377.76 1876.13,1377.93 1880.46,1378.09 1884.8,1378.25 1889.13,1378.39 1893.46,1378.54 1897.79,1378.68 1902.13,1378.83 1906.46,1378.97 1910.79,1379.11 1915.13,1379.25 1919.46,1379.39 1923.79,1379.53 1928.13,1379.66 1932.46,1379.79 1936.79,1379.91 1941.12,1380.03 1945.46,1380.16 1949.79,1380.28 1954.12,1380.39 1958.46,1380.5 1962.79,1380.61 1967.12,1380.71 1971.46,1380.82 1975.79,1380.92 1980.12,1381.03 1984.45,1381.13 1988.79,1381.23 1993.12,1381.32 1997.45,1381.41 2001.79,1381.51 2006.12,1381.6 2010.45,1381.68 2014.78,1381.76 2019.12,1381.84 2023.45,1381.92 2027.78,1382 2032.12,1382.07 2036.45,1382.14 2040.78,1382.22 2045.12,1382.29 2049.45,1382.36 2053.78,1382.44 2058.11,1382.51 2062.45,1382.58 2066.78,1382.65 2071.11,1382.72 2075.45,1382.78 2079.78,1382.85 2084.11,1382.92 2088.45,1382.98 2092.78,1383.04 2097.11,1383.11 2101.44,1383.17 2105.78,1383.23 2110.11,1383.28 2114.44,1383.33 2118.78,1383.38 2123.11,1383.43 2127.44,1383.49 2131.77,1383.54 2136.11,1383.59 2140.44,1383.63 2144.77,1383.68 2149.11,1383.72 2153.44,1383.76 2157.77,1383.8 2162.11,1383.84 2166.44,1383.87 2170.77,1383.91 2175.1,1383.93 2179.44,1383.95 2183.77,1383.98 2188.1,1384.01 2192.44,1384.03 2196.77,1384.04 2201.1,1384.07 2205.44,1384.1 2209.77,1384.12 2214.1,1384.14 2218.43,1384.16 2222.77,1384.17 2227.1,1384.19 2231.43,1384.2 2235.77,1384.21 2240.1,1384.22 2244.43,1384.23 2248.76,1384.24 2253.1,1384.24 2257.43,1384.24 2261.76,1384.24 2266.1,1384.24 2270.43,1384.24 2274.76,1384.23 2279.1,1384.22 2283.43,1384.2 2287.76,1384.2 2292.09,1384.18 2296.43,1384.17 2300.76,1384.16 2305.09,1384.14 2309.43,1384.13 2313.76,1384.13 2318.09,1384.12 2322.43,1384.11 2326.76,1384.11 2331.09,1384.1 2335.42,1384.1 2339.76,1384.1 2344.09,1384.1 2348.42,1384.1 2352.76,1384.1 "/>
<polyline clip-path="url(#clip381)" style="stroke:#e26f46; stroke-linecap:round; stroke-linejoin:round; stroke-width:4; stroke-opacity:1; fill:none" points="186.274,86.3016 190.607,112.299 194.94,137.685 199.273,162.504 203.606,186.957 207.939,210.609 212.272,233.871 216.605,255.3 220.938,272.984 225.271,289.256 229.604,304.554 233.937,321.701 238.27,336.766 242.603,353.232 246.935,368.322 251.268,383.571 255.601,399.181 259.934,414.949 264.267,428.973 268.6,444.391 272.933,462.121 277.266,480.093 281.599,497.266 285.932,513.671 290.265,529.02 294.598,541.833 298.931,552.878 303.264,564.666 307.597,576.893 311.93,589.633 316.263,602.126 320.596,613.998 324.929,626.715 329.262,639.35 333.595,651.912 337.928,664.315 342.261,676.591 346.594,688.63 350.927,701.155 355.26,710.944 359.593,720.338 363.926,729.624 368.258,739.975 372.591,752.327 376.924,762.727 381.257,773.593 385.59,784.888 389.923,795.93 394.256,806.885 398.589,817.51 402.922,828.224 407.255,837.609 411.588,847.217 415.921,856.733 420.254,866.177 424.587,875.93 428.92,884.743 433.253,893.926 437.586,903.386 441.919,912.321 446.252,921.259 450.585,930.136 454.918,938.944 459.251,947.265 463.584,955.207 467.917,963.425 472.25,971.668 476.583,979.816 480.916,987.732 485.249,995.509 489.581,1003.21 493.914,1010.47 498.247,1016.82 502.58,1023.71 506.913,1030.36 511.246,1037.05 515.579,1043.36 519.912,1049.28 524.245,1055.29 528.578,1061.37 532.911,1067.57 537.244,1073.85 541.577,1080.09 545.91,1085.93 550.243,1090.66 554.576,1095.07 558.909,1098.68 563.242,1103.18 567.575,1108.31 571.908,1113.04 576.241,1117.89 580.574,1122.97 584.907,1128.12 589.24,1133.19 593.573,1138.04 597.906,1142.99 602.239,1147.84 606.571,1152.6 610.904,1157.19 615.237,1161.75 619.57,1166.09 623.903,1170.39 628.236,1174.54 632.569,1178.61 636.902,1182.27 641.235,1186 645.568,1189.56 649.901,1192.78 654.234,1196.13 658.567,1199.35 662.9,1202.6 667.233,1205.7 671.566,1208.15 675.899,1210.16 680.232,1211.58 684.565,1213.48 688.898,1215.44 693.231,1217.28 697.564,1218.87 701.897,1220.64 706.23,1222.11 710.563,1223.1 714.896,1223.97 719.229,1224.49 723.562,1224.33 727.894,1223.84 732.227,1222.8 736.56,1222.12 740.893,1220.84 745.226,1219.63 749.559,1218.36 753.892,1216.95 758.225,1216.12 762.558,1215.51 766.891,1215.18 771.224,1215.35 775.557,1214.62 779.89,1214.28 784.223,1214.18 788.556,1215.1 792.889,1215.65 797.222,1216.59 801.555,1217.82 805.888,1219.28 810.221,1219.98 814.554,1220.5 818.887,1221.04 823.22,1222.13 827.553,1223.05 831.886,1223.91 836.219,1224.84 840.552,1226.39 844.885,1228.31 849.217,1230.38 853.55,1231.99 857.883,1234.01 862.216,1236.68 866.549,1239.06 870.882,1241.79 875.215,1244.32 879.548,1246.77 883.881,1249.01 888.214,1251.27 892.547,1253.41 896.88,1255.63 901.213,1257.77 905.546,1259.82 909.879,1261.98 914.212,1263.98 918.545,1266.2 922.878,1267.98 927.211,1269.65 931.544,1271.32 935.877,1273 940.21,1274.58 944.543,1276.19 948.876,1277.32 953.209,1278.37 957.542,1279.67 961.875,1280.91 966.207,1282.07 970.54,1283.26 974.873,1284.81 979.206,1286.2 983.539,1287.52 987.872,1288.74 992.205,1290.01 996.538,1291.4 1000.87,1292.81 1005.2,1294.42 1009.54,1295.85 1013.87,1297.3 1018.2,1298.84 1022.54,1300.5 1026.87,1302.17 1031.2,1303.84 1035.53,1305.33 1039.87,1306.9 1044.2,1308.46 1048.53,1309.98 1052.87,1311.46 1057.2,1312.96 1061.53,1314.41 1065.87,1315.8 1070.2,1317.2 1074.53,1318.57 1078.86,1319.87 1083.2,1321.12 1087.53,1322.39 1091.86,1323.66 1096.2,1324.88 1100.53,1326.08 1104.86,1327.25 1109.2,1328.42 1113.53,1329.57 1117.86,1330.7 1122.19,1331.8 1126.53,1332.89 1130.86,1333.93 1135.19,1334.94 1139.53,1335.96 1143.86,1336.9 1148.19,1337.84 1152.52,1338.79 1156.86,1339.71 1161.19,1340.6 1165.52,1341.45 1169.86,1342.29 1174.19,1343.13 1178.52,1343.99 1182.86,1344.82 1187.19,1345.65 1191.52,1346.45 1195.85,1347.23 1200.19,1348 1204.52,1348.76 1208.85,1349.51 1213.19,1350.24 1217.52,1350.96 1221.85,1351.65 1226.19,1352.33 1230.52,1353.01 1234.85,1353.67 1239.18,1354.31 1243.52,1354.95 1247.85,1355.56 1252.18,1356.17 1256.52,1356.76 1260.85,1357.31 1265.18,1357.83 1269.51,1358.37 1273.85,1358.82 1278.18,1359.28 1282.51,1359.79 1286.85,1360.3 1291.18,1360.78 1295.51,1361.25 1299.85,1361.7 1304.18,1362.05 1308.51,1362.45 1312.84,1362.85 1317.18,1363.28 1321.51,1363.7 1325.84,1364.13 1330.18,1364.55 1334.51,1364.95 1338.84,1365.37 1343.18,1365.77 1347.51,1366.18 1351.84,1366.58 1356.17,1366.97 1360.51,1367.34 1364.84,1367.71 1369.17,1368.08 1373.51,1368.44 1377.84,1368.77 1382.17,1369.09 1386.5,1369.42 1390.84,1369.75 1395.17,1370.05 1399.5,1370.36 1403.84,1370.67 1408.17,1370.98 1412.5,1371.28 1416.84,1371.56 1421.17,1371.85 1425.5,1372.13 1429.83,1372.4 1434.17,1372.68 1438.5,1372.94 1442.83,1373.19 1447.17,1373.42 1451.5,1373.65 1455.83,1373.89 1460.17,1374.12 1464.5,1374.36 1468.83,1374.6 1473.16,1374.83 1477.5,1375.05 1481.83,1375.26 1486.16,1375.48 1490.5,1375.69 1494.83,1375.9 1499.16,1376.11 1503.49,1376.31 1507.83,1376.5 1512.16,1376.69 1516.49,1376.86 1520.83,1377.03 1525.16,1377.19 1529.49,1377.35 1533.83,1377.51 1538.16,1377.66 1542.49,1377.81 1546.82,1377.96 1551.16,1378.09 1555.49,1378.18 1559.82,1378.28 1564.16,1378.4 1568.49,1378.51 1572.82,1378.6 1577.16,1378.69 1581.49,1378.78 1585.82,1378.88 1590.15,1378.98 1594.49,1379.08 1598.82,1379.16 1603.15,1379.27 1607.49,1379.36 1611.82,1379.43 1616.15,1379.52 1620.49,1379.62 1624.82,1379.74 1629.15,1379.86 1633.48,1379.98 1637.82,1380.08 1642.15,1380.19 1646.48,1380.29 1650.82,1380.4 1655.15,1380.5 1659.48,1380.61 1663.81,1380.71 1668.15,1380.81 1672.48,1380.91 1676.81,1381.01 1681.15,1381.11 1685.48,1381.21 1689.81,1381.3 1694.15,1381.38 1698.48,1381.46 1702.81,1381.53 1707.14,1381.6 1711.48,1381.64 1715.81,1381.69 1720.14,1381.73 1724.48,1381.77 1728.81,1381.8 1733.14,1381.84 1737.48,1381.87 1741.81,1381.89 1746.14,1381.92 1750.47,1381.94 1754.81,1381.98 1759.14,1382.01 1763.47,1382.05 1767.81,1382.08 1772.14,1382.13 1776.47,1382.18 1780.8,1382.22 1785.14,1382.27 1789.47,1382.31 1793.8,1382.32 1798.14,1382.33 1802.47,1382.34 1806.8,1382.35 1811.14,1382.36 1815.47,1382.37 1819.8,1382.38 1824.13,1382.41 1828.47,1382.44 1832.8,1382.46 1837.13,1382.48 1841.47,1382.49 1845.8,1382.5 1850.13,1382.52 1854.47,1382.55 1858.8,1382.58 1863.13,1382.59 1867.46,1382.61 1871.8,1382.62 1876.13,1382.62 1880.46,1382.6 1884.8,1382.56 1889.13,1382.53 1893.46,1382.49 1897.79,1382.45 1902.13,1382.4 1906.46,1382.36 1910.79,1382.32 1915.13,1382.26 1919.46,1382.21 1923.79,1382.16 1928.13,1382.12 1932.46,1382.07 1936.79,1382.04 1941.12,1381.99 1945.46,1381.96 1949.79,1381.93 1954.12,1381.89 1958.46,1381.85 1962.79,1381.8 1967.12,1381.75 1971.46,1381.72 1975.79,1381.68 1980.12,1381.64 1984.45,1381.61 1988.79,1381.56 1993.12,1381.52 1997.45,1381.47 2001.79,1381.42 2006.12,1381.38 2010.45,1381.35 2014.78,1381.33 2019.12,1381.31 2023.45,1381.3 2027.78,1381.28 2032.12,1381.27 2036.45,1381.27 2040.78,1381.3 2045.12,1381.34 2049.45,1381.37 2053.78,1381.39 2058.11,1381.38 2062.45,1381.37 2066.78,1381.34 2071.11,1381.33 2075.45,1381.31 2079.78,1381.27 2084.11,1381.26 2088.45,1381.25 2092.78,1381.24 2097.11,1381.22 2101.44,1381.18 2105.78,1381.15 2110.11,1381.11 2114.44,1381.06 2118.78,1381.01 2123.11,1380.97 2127.44,1380.91 2131.77,1380.85 2136.11,1380.79 2140.44,1380.72 2144.77,1380.67 2149.11,1380.61 2153.44,1380.54 2157.77,1380.48 2162.11,1380.41 2166.44,1380.33 2170.77,1380.23 2175.1,1380.12 2179.44,1380.02 2183.77,1379.92 2188.1,1379.81 2192.44,1379.71 2196.77,1379.62 2201.1,1379.56 2205.44,1379.48 2209.77,1379.4 2214.1,1379.3 2218.43,1379.21 2222.77,1379.09 2227.1,1378.96 2231.43,1378.83 2235.77,1378.7 2240.1,1378.56 2244.43,1378.42 2248.76,1378.28 2253.1,1378.12 2257.43,1377.96 2261.76,1377.8 2266.1,1377.63 2270.43,1377.47 2274.76,1377.3 2279.1,1377.12 2283.43,1376.94 2287.76,1376.76 2292.09,1376.58 2296.43,1376.38 2300.76,1376.19 2305.09,1376.01 2309.43,1375.81 2313.76,1375.62 2318.09,1375.42 2322.43,1375.23 2326.76,1375.05 2331.09,1374.85 2335.42,1374.65 2339.76,1374.47 2344.09,1374.29 2348.42,1374.07 2352.76,1373.87 "/>
<path clip-path="url(#clip380)" d="M1974.79 248.629 L2280.54 248.629 L2280.54 93.1086 L1974.79 93.1086  Z" fill="#ffffff" fill-rule="evenodd" fill-opacity="1"/>
<polyline clip-path="url(#clip380)" style="stroke:#000000; stroke-linecap:round; stroke-linejoin:round; stroke-width:4; stroke-opacity:1; fill:none" points="1974.79,248.629 2280.54,248.629 2280.54,93.1086 1974.79,93.1086 1974.79,248.629 "/>
<polyline clip-path="url(#clip380)" style="stroke:#009af9; stroke-linecap:round; stroke-linejoin:round; stroke-width:4; stroke-opacity:1; fill:none" points="1998.87,144.949 2143.3,144.949 "/>
<path clip-path="url(#clip380)" d="M2167.37 151.997 L2167.37 136.303 L2171.63 136.303 L2171.63 151.835 Q2171.63 155.516 2173.07 157.368 Q2174.5 159.196 2177.37 159.196 Q2180.82 159.196 2182.81 156.997 Q2184.82 154.798 2184.82 151.002 L2184.82 136.303 L2189.08 136.303 L2189.08 162.229 L2184.82 162.229 L2184.82 158.247 Q2183.27 160.608 2181.21 161.766 Q2179.18 162.9 2176.47 162.9 Q2172 162.9 2169.69 160.122 Q2167.37 157.344 2167.37 151.997 M2178.09 135.678 L2178.09 135.678 Z" fill="#000000" fill-rule="nonzero" fill-opacity="1" /><path clip-path="url(#clip380)" d="M2197.46 126.21 L2207.28 126.21 L2207.28 129.52 L2201.72 129.52 L2201.72 165.168 L2207.28 165.168 L2207.28 168.479 L2197.46 168.479 L2197.46 126.21 Z" fill="#000000" fill-rule="nonzero" fill-opacity="1" /><path clip-path="url(#clip380)" d="M2217.76 158.293 L2225.4 158.293 L2225.4 131.928 L2217.09 133.595 L2217.09 129.335 L2225.36 127.669 L2230.03 127.669 L2230.03 158.293 L2237.67 158.293 L2237.67 162.229 L2217.76 162.229 L2217.76 158.293 Z" fill="#000000" fill-rule="nonzero" fill-opacity="1" /><path clip-path="url(#clip380)" d="M2256.47 126.21 L2256.47 168.479 L2246.65 168.479 L2246.65 165.168 L2252.19 165.168 L2252.19 129.52 L2246.65 129.52 L2246.65 126.21 L2256.47 126.21 Z" fill="#000000" fill-rule="nonzero" fill-opacity="1" /><polyline clip-path="url(#clip380)" style="stroke:#e26f46; stroke-linecap:round; stroke-linejoin:round; stroke-width:4; stroke-opacity:1; fill:none" points="1998.87,196.789 2143.3,196.789 "/>
<path clip-path="url(#clip380)" d="M2167.37 203.837 L2167.37 188.143 L2171.63 188.143 L2171.63 203.675 Q2171.63 207.356 2173.07 209.208 Q2174.5 211.036 2177.37 211.036 Q2180.82 211.036 2182.81 208.837 Q2184.82 206.638 2184.82 202.842 L2184.82 188.143 L2189.08 188.143 L2189.08 214.069 L2184.82 214.069 L2184.82 210.087 Q2183.27 212.448 2181.21 213.606 Q2179.18 214.74 2176.47 214.74 Q2172 214.74 2169.69 211.962 Q2167.37 209.184 2167.37 203.837 M2178.09 187.518 L2178.09 187.518 Z" fill="#000000" fill-rule="nonzero" fill-opacity="1" /><path clip-path="url(#clip380)" d="M2197.46 178.05 L2207.28 178.05 L2207.28 181.36 L2201.72 181.36 L2201.72 217.008 L2207.28 217.008 L2207.28 220.319 L2197.46 220.319 L2197.46 178.05 Z" fill="#000000" fill-rule="nonzero" fill-opacity="1" /><path clip-path="url(#clip380)" d="M2220.98 210.133 L2237.3 210.133 L2237.3 214.069 L2215.36 214.069 L2215.36 210.133 Q2218.02 207.379 2222.6 202.749 Q2227.21 198.096 2228.39 196.754 Q2230.63 194.231 2231.51 192.495 Q2232.42 190.735 2232.42 189.046 Q2232.42 186.291 2230.47 184.555 Q2228.55 182.819 2225.45 182.819 Q2223.25 182.819 2220.8 183.583 Q2218.37 184.347 2215.59 185.897 L2215.59 181.175 Q2218.41 180.041 2220.87 179.462 Q2223.32 178.884 2225.36 178.884 Q2230.73 178.884 2233.92 181.569 Q2237.12 184.254 2237.12 188.745 Q2237.12 190.874 2236.31 192.796 Q2235.52 194.694 2233.41 197.286 Q2232.83 197.958 2229.73 201.175 Q2226.63 204.37 2220.98 210.133 Z" fill="#000000" fill-rule="nonzero" fill-opacity="1" /><path clip-path="url(#clip380)" d="M2256.47 178.05 L2256.47 220.319 L2246.65 220.319 L2246.65 217.008 L2252.19 217.008 L2252.19 181.36 L2246.65 181.36 L2246.65 178.05 L2256.47 178.05 Z" fill="#000000" fill-rule="nonzero" fill-opacity="1" /></svg>
