<?xml version="1.0" encoding="utf-8"?>
<svg xmlns="http://www.w3.org/2000/svg" xmlns:xlink="http://www.w3.org/1999/xlink" width="600" height="400" viewBox="0 0 2400 1600">
<defs>
  <clipPath id="clip410">
    <rect x="0" y="0" width="2400" height="1600"/>
  </clipPath>
</defs>
<path clip-path="url(#clip410)" d="M0 1600 L2400 1600 L2400 0 L0 0  Z" fill="#ffffff" fill-rule="evenodd" fill-opacity="1"/>
<defs>
  <clipPath id="clip411">
    <rect x="186" y="47" width="2167" height="1377"/>
  </clipPath>
</defs>
<path clip-path="url(#clip410)" d="M186.274 1423.18 L2352.76 1423.18 L2352.76 47.2441 L186.274 47.2441  Z" fill="#ffffff" fill-rule="evenodd" fill-opacity="1"/>
<polyline clip-path="url(#clip411)" style="stroke:#000000; stroke-linecap:round; stroke-linejoin:round; stroke-width:2; stroke-opacity:0.1; fill:none" points="186.274,1423.18 186.274,47.2441 "/>
<polyline clip-path="url(#clip411)" style="stroke:#000000; stroke-linecap:round; stroke-linejoin:round; stroke-width:2; stroke-opacity:0.1; fill:none" points="619.57,1423.18 619.57,47.2441 "/>
<polyline clip-path="url(#clip411)" style="stroke:#000000; stroke-linecap:round; stroke-linejoin:round; stroke-width:2; stroke-opacity:0.1; fill:none" points="1052.87,1423.18 1052.87,47.2441 "/>
<polyline clip-path="url(#clip411)" style="stroke:#000000; stroke-linecap:round; stroke-linejoin:round; stroke-width:2; stroke-opacity:0.1; fill:none" points="1486.16,1423.18 1486.16,47.2441 "/>
<polyline clip-path="url(#clip411)" style="stroke:#000000; stroke-linecap:round; stroke-linejoin:round; stroke-width:2; stroke-opacity:0.1; fill:none" points="1919.46,1423.18 1919.46,47.2441 "/>
<polyline clip-path="url(#clip411)" style="stroke:#000000; stroke-linecap:round; stroke-linejoin:round; stroke-width:2; stroke-opacity:0.1; fill:none" points="2352.76,1423.18 2352.76,47.2441 "/>
<polyline clip-path="url(#clip411)" style="stroke:#000000; stroke-linecap:round; stroke-linejoin:round; stroke-width:2; stroke-opacity:0.1; fill:none" points="186.274,1384.73 2352.76,1384.73 "/>
<polyline clip-path="url(#clip411)" style="stroke:#000000; stroke-linecap:round; stroke-linejoin:round; stroke-width:2; stroke-opacity:0.1; fill:none" points="186.274,1061.41 2352.76,1061.41 "/>
<polyline clip-path="url(#clip411)" style="stroke:#000000; stroke-linecap:round; stroke-linejoin:round; stroke-width:2; stroke-opacity:0.1; fill:none" points="186.274,738.095 2352.76,738.095 "/>
<polyline clip-path="url(#clip411)" style="stroke:#000000; stroke-linecap:round; stroke-linejoin:round; stroke-width:2; stroke-opacity:0.1; fill:none" points="186.274,414.775 2352.76,414.775 "/>
<polyline clip-path="url(#clip411)" style="stroke:#000000; stroke-linecap:round; stroke-linejoin:round; stroke-width:2; stroke-opacity:0.1; fill:none" points="186.274,91.4547 2352.76,91.4547 "/>
<polyline clip-path="url(#clip410)" style="stroke:#000000; stroke-linecap:round; stroke-linejoin:round; stroke-width:4; stroke-opacity:1; fill:none" points="186.274,1423.18 2352.76,1423.18 "/>
<polyline clip-path="url(#clip410)" style="stroke:#000000; stroke-linecap:round; stroke-linejoin:round; stroke-width:4; stroke-opacity:1; fill:none" points="186.274,1423.18 186.274,1404.28 "/>
<polyline clip-path="url(#clip410)" style="stroke:#000000; stroke-linecap:round; stroke-linejoin:round; stroke-width:4; stroke-opacity:1; fill:none" points="619.57,1423.18 619.57,1404.28 "/>
<polyline clip-path="url(#clip410)" style="stroke:#000000; stroke-linecap:round; stroke-linejoin:round; stroke-width:4; stroke-opacity:1; fill:none" points="1052.87,1423.18 1052.87,1404.28 "/>
<polyline clip-path="url(#clip410)" style="stroke:#000000; stroke-linecap:round; stroke-linejoin:round; stroke-width:4; stroke-opacity:1; fill:none" points="1486.16,1423.18 1486.16,1404.28 "/>
<polyline clip-path="url(#clip410)" style="stroke:#000000; stroke-linecap:round; stroke-linejoin:round; stroke-width:4; stroke-opacity:1; fill:none" points="1919.46,1423.18 1919.46,1404.28 "/>
<polyline clip-path="url(#clip410)" style="stroke:#000000; stroke-linecap:round; stroke-linejoin:round; stroke-width:4; stroke-opacity:1; fill:none" points="2352.76,1423.18 2352.76,1404.28 "/>
<path clip-path="url(#clip410)" d="M186.274 1454.1 Q182.663 1454.1 180.834 1457.66 Q179.029 1461.2 179.029 1468.33 Q179.029 1475.44 180.834 1479.01 Q182.663 1482.55 186.274 1482.55 Q189.908 1482.55 191.714 1479.01 Q193.542 1475.44 193.542 1468.33 Q193.542 1461.2 191.714 1457.66 Q189.908 1454.1 186.274 1454.1 M186.274 1450.39 Q192.084 1450.39 195.14 1455 Q198.218 1459.58 198.218 1468.33 Q198.218 1477.06 195.14 1481.67 Q192.084 1486.25 186.274 1486.25 Q180.464 1486.25 177.385 1481.67 Q174.33 1477.06 174.33 1468.33 Q174.33 1459.58 177.385 1455 Q180.464 1450.39 186.274 1450.39 Z" fill="#000000" fill-rule="nonzero" fill-opacity="1" /><path clip-path="url(#clip410)" d="M609.952 1481.64 L617.591 1481.64 L617.591 1455.28 L609.281 1456.95 L609.281 1452.69 L617.545 1451.02 L622.221 1451.02 L622.221 1481.64 L629.86 1481.64 L629.86 1485.58 L609.952 1485.58 L609.952 1481.64 Z" fill="#000000" fill-rule="nonzero" fill-opacity="1" /><path clip-path="url(#clip410)" d="M1047.52 1481.64 L1063.84 1481.64 L1063.84 1485.58 L1041.89 1485.58 L1041.89 1481.64 Q1044.56 1478.89 1049.14 1474.26 Q1053.75 1469.61 1054.93 1468.27 Q1057.17 1465.74 1058.05 1464.01 Q1058.95 1462.25 1058.95 1460.56 Q1058.95 1457.8 1057.01 1456.07 Q1055.09 1454.33 1051.99 1454.33 Q1049.79 1454.33 1047.33 1455.09 Q1044.9 1455.86 1042.13 1457.41 L1042.13 1452.69 Q1044.95 1451.55 1047.4 1450.97 Q1049.86 1450.39 1051.89 1450.39 Q1057.26 1450.39 1060.46 1453.08 Q1063.65 1455.77 1063.65 1460.26 Q1063.65 1462.39 1062.84 1464.31 Q1062.06 1466.2 1059.95 1468.8 Q1059.37 1469.47 1056.27 1472.69 Q1053.17 1475.88 1047.52 1481.64 Z" fill="#000000" fill-rule="nonzero" fill-opacity="1" /><path clip-path="url(#clip410)" d="M1490.41 1466.95 Q1493.77 1467.66 1495.64 1469.93 Q1497.54 1472.2 1497.54 1475.53 Q1497.54 1480.65 1494.02 1483.45 Q1490.5 1486.25 1484.02 1486.25 Q1481.85 1486.25 1479.53 1485.81 Q1477.24 1485.39 1474.79 1484.54 L1474.79 1480.02 Q1476.73 1481.16 1479.05 1481.74 Q1481.36 1482.32 1483.88 1482.32 Q1488.28 1482.32 1490.57 1480.58 Q1492.89 1478.84 1492.89 1475.53 Q1492.89 1472.48 1490.73 1470.77 Q1488.61 1469.03 1484.79 1469.03 L1480.76 1469.03 L1480.76 1465.19 L1484.97 1465.19 Q1488.42 1465.19 1490.25 1463.82 Q1492.08 1462.43 1492.08 1459.84 Q1492.08 1457.18 1490.18 1455.77 Q1488.3 1454.33 1484.79 1454.33 Q1482.86 1454.33 1480.67 1454.75 Q1478.47 1455.16 1475.83 1456.04 L1475.83 1451.88 Q1478.49 1451.14 1480.8 1450.77 Q1483.14 1450.39 1485.2 1450.39 Q1490.53 1450.39 1493.63 1452.83 Q1496.73 1455.23 1496.73 1459.35 Q1496.73 1462.22 1495.09 1464.21 Q1493.44 1466.18 1490.41 1466.95 Z" fill="#000000" fill-rule="nonzero" fill-opacity="1" /><path clip-path="url(#clip410)" d="M1922.47 1455.09 L1910.66 1473.54 L1922.47 1473.54 L1922.47 1455.09 M1921.24 1451.02 L1927.12 1451.02 L1927.12 1473.54 L1932.05 1473.54 L1932.05 1477.43 L1927.12 1477.43 L1927.12 1485.58 L1922.47 1485.58 L1922.47 1477.43 L1906.87 1477.43 L1906.87 1472.92 L1921.24 1451.02 Z" fill="#000000" fill-rule="nonzero" fill-opacity="1" /><path clip-path="url(#clip410)" d="M2343.03 1451.02 L2361.39 1451.02 L2361.39 1454.96 L2347.32 1454.96 L2347.32 1463.43 Q2348.33 1463.08 2349.35 1462.92 Q2350.37 1462.73 2351.39 1462.73 Q2357.18 1462.73 2360.56 1465.9 Q2363.94 1469.08 2363.94 1474.49 Q2363.94 1480.07 2360.46 1483.17 Q2356.99 1486.25 2350.67 1486.25 Q2348.5 1486.25 2346.23 1485.88 Q2343.98 1485.51 2341.58 1484.77 L2341.58 1480.07 Q2343.66 1481.2 2345.88 1481.76 Q2348.1 1482.32 2350.58 1482.32 Q2354.58 1482.32 2356.92 1480.21 Q2359.26 1478.1 2359.26 1474.49 Q2359.26 1470.88 2356.92 1468.77 Q2354.58 1466.67 2350.58 1466.67 Q2348.71 1466.67 2346.83 1467.08 Q2344.98 1467.5 2343.03 1468.38 L2343.03 1451.02 Z" fill="#000000" fill-rule="nonzero" fill-opacity="1" /><path clip-path="url(#clip410)" d="M1268.58 1522.27 L1268.58 1532.4 L1280.64 1532.4 L1280.64 1536.95 L1268.58 1536.95 L1268.58 1556.3 Q1268.58 1560.66 1269.75 1561.9 Q1270.96 1563.14 1274.62 1563.14 L1280.64 1563.14 L1280.64 1568.04 L1274.62 1568.04 Q1267.84 1568.04 1265.27 1565.53 Q1262.69 1562.98 1262.69 1556.3 L1262.69 1536.95 L1258.39 1536.95 L1258.39 1532.4 L1262.69 1532.4 L1262.69 1522.27 L1268.58 1522.27 Z" fill="#000000" fill-rule="nonzero" fill-opacity="1" /><polyline clip-path="url(#clip410)" style="stroke:#000000; stroke-linecap:round; stroke-linejoin:round; stroke-width:4; stroke-opacity:1; fill:none" points="186.274,1423.18 186.274,47.2441 "/>
<polyline clip-path="url(#clip410)" style="stroke:#000000; stroke-linecap:round; stroke-linejoin:round; stroke-width:4; stroke-opacity:1; fill:none" points="186.274,1384.73 205.172,1384.73 "/>
<polyline clip-path="url(#clip410)" style="stroke:#000000; stroke-linecap:round; stroke-linejoin:round; stroke-width:4; stroke-opacity:1; fill:none" points="186.274,1061.41 205.172,1061.41 "/>
<polyline clip-path="url(#clip410)" style="stroke:#000000; stroke-linecap:round; stroke-linejoin:round; stroke-width:4; stroke-opacity:1; fill:none" points="186.274,738.095 205.172,738.095 "/>
<polyline clip-path="url(#clip410)" style="stroke:#000000; stroke-linecap:round; stroke-linejoin:round; stroke-width:4; stroke-opacity:1; fill:none" points="186.274,414.775 205.172,414.775 "/>
<polyline clip-path="url(#clip410)" style="stroke:#000000; stroke-linecap:round; stroke-linejoin:round; stroke-width:4; stroke-opacity:1; fill:none" points="186.274,91.4547 205.172,91.4547 "/>
<path clip-path="url(#clip410)" d="M62.9365 1370.53 Q59.3254 1370.53 57.4967 1374.1 Q55.6912 1377.64 55.6912 1384.77 Q55.6912 1391.88 57.4967 1395.44 Q59.3254 1398.98 62.9365 1398.98 Q66.5707 1398.98 68.3763 1395.44 Q70.205 1391.88 70.205 1384.77 Q70.205 1377.64 68.3763 1374.1 Q66.5707 1370.53 62.9365 1370.53 M62.9365 1366.83 Q68.7467 1366.83 71.8022 1371.44 Q74.8809 1376.02 74.8809 1384.77 Q74.8809 1393.5 71.8022 1398.1 Q68.7467 1402.69 62.9365 1402.69 Q57.1264 1402.69 54.0477 1398.1 Q50.9921 1393.5 50.9921 1384.77 Q50.9921 1376.02 54.0477 1371.44 Q57.1264 1366.83 62.9365 1366.83 Z" fill="#000000" fill-rule="nonzero" fill-opacity="1" /><path clip-path="url(#clip410)" d="M83.0984 1396.13 L87.9827 1396.13 L87.9827 1402.01 L83.0984 1402.01 L83.0984 1396.13 Z" fill="#000000" fill-rule="nonzero" fill-opacity="1" /><path clip-path="url(#clip410)" d="M108.168 1370.53 Q104.557 1370.53 102.728 1374.1 Q100.922 1377.64 100.922 1384.77 Q100.922 1391.88 102.728 1395.44 Q104.557 1398.98 108.168 1398.98 Q111.802 1398.98 113.608 1395.44 Q115.436 1391.88 115.436 1384.77 Q115.436 1377.64 113.608 1374.1 Q111.802 1370.53 108.168 1370.53 M108.168 1366.83 Q113.978 1366.83 117.033 1371.44 Q120.112 1376.02 120.112 1384.77 Q120.112 1393.5 117.033 1398.1 Q113.978 1402.69 108.168 1402.69 Q102.358 1402.69 99.2789 1398.1 Q96.2234 1393.5 96.2234 1384.77 Q96.2234 1376.02 99.2789 1371.44 Q102.358 1366.83 108.168 1366.83 Z" fill="#000000" fill-rule="nonzero" fill-opacity="1" /><path clip-path="url(#clip410)" d="M138.33 1370.53 Q134.719 1370.53 132.89 1374.1 Q131.084 1377.64 131.084 1384.77 Q131.084 1391.88 132.89 1395.44 Q134.719 1398.98 138.33 1398.98 Q141.964 1398.98 143.769 1395.44 Q145.598 1391.88 145.598 1384.77 Q145.598 1377.64 143.769 1374.1 Q141.964 1370.53 138.33 1370.53 M138.33 1366.83 Q144.14 1366.83 147.195 1371.44 Q150.274 1376.02 150.274 1384.77 Q150.274 1393.5 147.195 1398.1 Q144.14 1402.69 138.33 1402.69 Q132.519 1402.69 129.441 1398.1 Q126.385 1393.5 126.385 1384.77 Q126.385 1376.02 129.441 1371.44 Q132.519 1366.83 138.33 1366.83 Z" fill="#000000" fill-rule="nonzero" fill-opacity="1" /><path clip-path="url(#clip410)" d="M63.9319 1047.21 Q60.3208 1047.21 58.4921 1050.78 Q56.6865 1054.32 56.6865 1061.45 Q56.6865 1068.56 58.4921 1072.12 Q60.3208 1075.66 63.9319 1075.66 Q67.5661 1075.66 69.3717 1072.12 Q71.2004 1068.56 71.2004 1061.45 Q71.2004 1054.32 69.3717 1050.78 Q67.5661 1047.21 63.9319 1047.21 M63.9319 1043.51 Q69.742 1043.51 72.7976 1048.12 Q75.8763 1052.7 75.8763 1061.45 Q75.8763 1070.18 72.7976 1074.78 Q69.742 1079.37 63.9319 1079.37 Q58.1217 1079.37 55.043 1074.78 Q51.9875 1070.18 51.9875 1061.45 Q51.9875 1052.7 55.043 1048.12 Q58.1217 1043.51 63.9319 1043.51 Z" fill="#000000" fill-rule="nonzero" fill-opacity="1" /><path clip-path="url(#clip410)" d="M84.0938 1072.82 L88.978 1072.82 L88.978 1078.69 L84.0938 1078.69 L84.0938 1072.82 Z" fill="#000000" fill-rule="nonzero" fill-opacity="1" /><path clip-path="url(#clip410)" d="M103.191 1074.76 L119.51 1074.76 L119.51 1078.69 L97.566 1078.69 L97.566 1074.76 Q100.228 1072 104.811 1067.38 Q109.418 1062.72 110.598 1061.38 Q112.844 1058.86 113.723 1057.12 Q114.626 1055.36 114.626 1053.67 Q114.626 1050.92 112.682 1049.18 Q110.76 1047.44 107.658 1047.44 Q105.459 1047.44 103.006 1048.21 Q100.575 1048.97 97.7974 1050.52 L97.7974 1045.8 Q100.621 1044.67 103.075 1044.09 Q105.529 1043.51 107.566 1043.51 Q112.936 1043.51 116.131 1046.19 Q119.325 1048.88 119.325 1053.37 Q119.325 1055.5 118.515 1057.42 Q117.728 1059.32 115.621 1061.91 Q115.043 1062.58 111.941 1065.8 Q108.839 1069 103.191 1074.76 Z" fill="#000000" fill-rule="nonzero" fill-opacity="1" /><path clip-path="url(#clip410)" d="M129.371 1044.13 L147.728 1044.13 L147.728 1048.07 L133.654 1048.07 L133.654 1056.54 Q134.672 1056.19 135.691 1056.03 Q136.709 1055.85 137.728 1055.85 Q143.515 1055.85 146.894 1059.02 Q150.274 1062.19 150.274 1067.61 Q150.274 1073.19 146.802 1076.29 Q143.33 1079.37 137.01 1079.37 Q134.834 1079.37 132.566 1079 Q130.32 1078.63 127.913 1077.88 L127.913 1073.19 Q129.996 1074.32 132.219 1074.88 Q134.441 1075.43 136.918 1075.43 Q140.922 1075.43 143.26 1073.32 Q145.598 1071.22 145.598 1067.61 Q145.598 1064 143.26 1061.89 Q140.922 1059.78 136.918 1059.78 Q135.043 1059.78 133.168 1060.2 Q131.316 1060.62 129.371 1061.5 L129.371 1044.13 Z" fill="#000000" fill-rule="nonzero" fill-opacity="1" /><path clip-path="url(#clip410)" d="M62.9365 723.893 Q59.3254 723.893 57.4967 727.458 Q55.6912 731 55.6912 738.129 Q55.6912 745.236 57.4967 748.801 Q59.3254 752.342 62.9365 752.342 Q66.5707 752.342 68.3763 748.801 Q70.205 745.236 70.205 738.129 Q70.205 731 68.3763 727.458 Q66.5707 723.893 62.9365 723.893 M62.9365 720.19 Q68.7467 720.19 71.8022 724.796 Q74.8809 729.379 74.8809 738.129 Q74.8809 746.856 71.8022 751.463 Q68.7467 756.046 62.9365 756.046 Q57.1264 756.046 54.0477 751.463 Q50.9921 746.856 50.9921 738.129 Q50.9921 729.379 54.0477 724.796 Q57.1264 720.19 62.9365 720.19 Z" fill="#000000" fill-rule="nonzero" fill-opacity="1" /><path clip-path="url(#clip410)" d="M83.0984 749.495 L87.9827 749.495 L87.9827 755.375 L83.0984 755.375 L83.0984 749.495 Z" fill="#000000" fill-rule="nonzero" fill-opacity="1" /><path clip-path="url(#clip410)" d="M98.2141 720.815 L116.57 720.815 L116.57 724.75 L102.496 724.75 L102.496 733.222 Q103.515 732.875 104.534 732.713 Q105.552 732.528 106.571 732.528 Q112.358 732.528 115.737 735.699 Q119.117 738.87 119.117 744.287 Q119.117 749.865 115.645 752.967 Q112.172 756.046 105.853 756.046 Q103.677 756.046 101.409 755.676 Q99.1632 755.305 96.7558 754.564 L96.7558 749.865 Q98.8391 751 101.061 751.555 Q103.284 752.111 105.76 752.111 Q109.765 752.111 112.103 750.004 Q114.441 747.898 114.441 744.287 Q114.441 740.676 112.103 738.569 Q109.765 736.463 105.76 736.463 Q103.885 736.463 102.01 736.879 Q100.159 737.296 98.2141 738.176 L98.2141 720.815 Z" fill="#000000" fill-rule="nonzero" fill-opacity="1" /><path clip-path="url(#clip410)" d="M138.33 723.893 Q134.719 723.893 132.89 727.458 Q131.084 731 131.084 738.129 Q131.084 745.236 132.89 748.801 Q134.719 752.342 138.33 752.342 Q141.964 752.342 143.769 748.801 Q145.598 745.236 145.598 738.129 Q145.598 731 143.769 727.458 Q141.964 723.893 138.33 723.893 M138.33 720.19 Q144.14 720.19 147.195 724.796 Q150.274 729.379 150.274 738.129 Q150.274 746.856 147.195 751.463 Q144.14 756.046 138.33 756.046 Q132.519 756.046 129.441 751.463 Q126.385 746.856 126.385 738.129 Q126.385 729.379 129.441 724.796 Q132.519 720.19 138.33 720.19 Z" fill="#000000" fill-rule="nonzero" fill-opacity="1" /><path clip-path="url(#clip410)" d="M63.9319 400.573 Q60.3208 400.573 58.4921 404.138 Q56.6865 407.68 56.6865 414.809 Q56.6865 421.916 58.4921 425.481 Q60.3208 429.022 63.9319 429.022 Q67.5661 429.022 69.3717 425.481 Q71.2004 421.916 71.2004 414.809 Q71.2004 407.68 69.3717 404.138 Q67.5661 400.573 63.9319 400.573 M63.9319 396.87 Q69.742 396.87 72.7976 401.476 Q75.8763 406.059 75.8763 414.809 Q75.8763 423.536 72.7976 428.143 Q69.742 432.726 63.9319 432.726 Q58.1217 432.726 55.043 428.143 Q51.9875 423.536 51.9875 414.809 Q51.9875 406.059 55.043 401.476 Q58.1217 396.87 63.9319 396.87 Z" fill="#000000" fill-rule="nonzero" fill-opacity="1" /><path clip-path="url(#clip410)" d="M84.0938 426.175 L88.978 426.175 L88.978 432.055 L84.0938 432.055 L84.0938 426.175 Z" fill="#000000" fill-rule="nonzero" fill-opacity="1" /><path clip-path="url(#clip410)" d="M97.9826 397.495 L120.205 397.495 L120.205 399.485 L107.658 432.055 L102.774 432.055 L114.58 401.43 L97.9826 401.43 L97.9826 397.495 Z" fill="#000000" fill-rule="nonzero" fill-opacity="1" /><path clip-path="url(#clip410)" d="M129.371 397.495 L147.728 397.495 L147.728 401.43 L133.654 401.43 L133.654 409.902 Q134.672 409.555 135.691 409.393 Q136.709 409.208 137.728 409.208 Q143.515 409.208 146.894 412.379 Q150.274 415.55 150.274 420.967 Q150.274 426.545 146.802 429.647 Q143.33 432.726 137.01 432.726 Q134.834 432.726 132.566 432.356 Q130.32 431.985 127.913 431.245 L127.913 426.545 Q129.996 427.68 132.219 428.235 Q134.441 428.791 136.918 428.791 Q140.922 428.791 143.26 426.684 Q145.598 424.578 145.598 420.967 Q145.598 417.356 143.26 415.249 Q140.922 413.143 136.918 413.143 Q135.043 413.143 133.168 413.559 Q131.316 413.976 129.371 414.856 L129.371 397.495 Z" fill="#000000" fill-rule="nonzero" fill-opacity="1" /><path clip-path="url(#clip410)" d="M53.7467 104.8 L61.3856 104.8 L61.3856 78.434 L53.0754 80.1006 L53.0754 75.8414 L61.3393 74.1747 L66.0152 74.1747 L66.0152 104.8 L73.654 104.8 L73.654 108.735 L53.7467 108.735 L53.7467 104.8 Z" fill="#000000" fill-rule="nonzero" fill-opacity="1" /><path clip-path="url(#clip410)" d="M83.0984 102.855 L87.9827 102.855 L87.9827 108.735 L83.0984 108.735 L83.0984 102.855 Z" fill="#000000" fill-rule="nonzero" fill-opacity="1" /><path clip-path="url(#clip410)" d="M108.168 77.2534 Q104.557 77.2534 102.728 80.8182 Q100.922 84.3598 100.922 91.4894 Q100.922 98.5959 102.728 102.161 Q104.557 105.702 108.168 105.702 Q111.802 105.702 113.608 102.161 Q115.436 98.5959 115.436 91.4894 Q115.436 84.3598 113.608 80.8182 Q111.802 77.2534 108.168 77.2534 M108.168 73.5497 Q113.978 73.5497 117.033 78.1562 Q120.112 82.7395 120.112 91.4894 Q120.112 100.216 117.033 104.823 Q113.978 109.406 108.168 109.406 Q102.358 109.406 99.2789 104.823 Q96.2234 100.216 96.2234 91.4894 Q96.2234 82.7395 99.2789 78.1562 Q102.358 73.5497 108.168 73.5497 Z" fill="#000000" fill-rule="nonzero" fill-opacity="1" /><path clip-path="url(#clip410)" d="M138.33 77.2534 Q134.719 77.2534 132.89 80.8182 Q131.084 84.3598 131.084 91.4894 Q131.084 98.5959 132.89 102.161 Q134.719 105.702 138.33 105.702 Q141.964 105.702 143.769 102.161 Q145.598 98.5959 145.598 91.4894 Q145.598 84.3598 143.769 80.8182 Q141.964 77.2534 138.33 77.2534 M138.33 73.5497 Q144.14 73.5497 147.195 78.1562 Q150.274 82.7395 150.274 91.4894 Q150.274 100.216 147.195 104.823 Q144.14 109.406 138.33 109.406 Q132.519 109.406 129.441 104.823 Q126.385 100.216 126.385 91.4894 Q126.385 82.7395 129.441 78.1562 Q132.519 73.5497 138.33 73.5497 Z" fill="#000000" fill-rule="nonzero" fill-opacity="1" /><polyline clip-path="url(#clip411)" style="stroke:#009af9; stroke-linecap:round; stroke-linejoin:round; stroke-width:4; stroke-opacity:1; fill:none" points="186.274,91.4547 190.607,91.4547 194.94,91.3841 199.273,91.3683 203.606,91.1652 207.939,90.6457 212.272,89.3054 216.605,89.0549 220.938,89.2747 225.271,88.5931 229.604,87.7976 233.937,87.067 238.27,86.6572 242.603,86.1857 246.935,86.4763 251.268,86.3019 255.601,86.2864 259.934,88.0003 264.267,89.708 268.6,92.0973 272.933,95.8678 277.266,100.406 281.599,104.446 285.932,108.173 290.265,109.699 294.598,111.502 298.931,113.236 303.264,114.049 307.597,113.356 311.93,113.024 316.263,112.225 320.596,111.901 324.929,111.797 329.262,111.362 333.595,112.269 337.928,113.687 342.261,116.252 346.594,119.383 350.927,124.464 355.26,129.99 359.593,137.086 363.926,146.574 368.258,159.692 372.591,172.44 376.924,183.339 381.257,197.744 385.59,211.677 389.923,225.052 394.256,238.44 398.589,251.241 402.922,265.062 407.255,280.977 411.588,293.842 415.921,307.661 420.254,318.352 424.587,327.794 428.92,337.065 433.253,349.709 437.586,362.258 441.919,376.834 446.252,393.713 450.585,414.072 454.918,432.576 459.251,450.212 463.584,468.824 467.917,486.984 472.25,504.012 476.583,520.612 480.916,535.242 485.249,550.438 489.581,564.426 493.914,578.73 498.247,591.587 502.58,604.224 506.913,613.453 511.246,622.073 515.579,629.019 519.912,634.429 524.245,641.029 528.578,646.661 532.911,651.976 537.244,658.766 541.577,662.665 545.91,665.661 550.243,669.104 554.576,671.377 558.909,675.228 563.242,678.925 567.575,682.203 571.908,683.88 576.241,685.909 580.574,687.933 584.907,690.367 589.24,692.745 593.573,696.54 597.906,700.311 602.239,703.366 606.571,707.885 610.904,712.751 615.237,716.881 619.57,721.691 623.903,728.872 628.236,734.63 632.569,739.342 636.902,744.626 641.235,748.09 645.568,751.69 649.901,754.591 654.234,759.287 658.567,762.992 662.9,768.081 667.233,774.676 671.566,781.582 675.899,788.044 680.232,797.715 684.565,810.969 688.898,823.279 693.231,833.003 697.564,843.608 701.897,851.908 706.23,860.507 710.563,871.131 714.896,880.666 719.229,889.885 723.562,899.585 727.894,908.838 732.227,915.903 736.56,921.727 740.893,928.671 745.226,936.565 749.559,944.95 753.892,952.948 758.225,962.751 762.558,969.806 766.891,977.663 771.224,986.033 775.557,995.865 779.89,1004.2 784.223,1011.12 788.556,1016.67 792.889,1021.25 797.222,1026.32 801.555,1031 805.888,1036.62 810.221,1043.91 814.554,1051.27 818.887,1060.05 823.22,1069.36 827.553,1077.58 831.886,1085.78 836.219,1093.83 840.552,1100.2 844.885,1106.66 849.217,1113.18 853.55,1119.27 857.883,1124.3 862.216,1128.89 866.549,1133.48 870.882,1138.25 875.215,1143 879.548,1147.86 883.881,1152.19 888.214,1156.94 892.547,1161.06 896.88,1164.93 901.213,1169.52 905.546,1173.37 909.879,1176.81 914.212,1180.14 918.545,1183.31 922.878,1185.85 927.211,1188.33 931.544,1190.9 935.877,1193.73 940.21,1196.4 944.543,1199.13 948.876,1202.04 953.209,1204.88 957.542,1207.57 961.875,1210.13 966.207,1212.37 970.54,1214.51 974.873,1216.62 979.206,1218.28 983.539,1220.54 987.872,1222.89 992.205,1225.12 996.538,1227.82 1000.87,1231.16 1005.2,1234.44 1009.54,1237.22 1013.87,1239.89 1018.2,1241.53 1022.54,1243.45 1026.87,1245.35 1031.2,1247.16 1035.53,1248.96 1039.87,1250.37 1044.2,1251.95 1048.53,1253.23 1052.87,1254.45 1057.2,1255.66 1061.53,1256.66 1065.87,1257.73 1070.2,1258.86 1074.53,1260.23 1078.86,1261.09 1083.2,1261.97 1087.53,1262.99 1091.86,1263.83 1096.2,1264.61 1100.53,1265.36 1104.86,1266.25 1109.2,1267.29 1113.53,1268.58 1117.86,1270.31 1122.19,1271.9 1126.53,1273.47 1130.86,1275.1 1135.19,1276.52 1139.53,1277.75 1143.86,1278.86 1148.19,1280 1152.52,1281.13 1156.86,1282.52 1161.19,1283.76 1165.52,1284.94 1169.86,1286.15 1174.19,1287.38 1178.52,1288.13 1182.86,1289.32 1187.19,1290.34 1191.52,1291.39 1195.85,1292.57 1200.19,1293.86 1204.52,1295.21 1208.85,1296.57 1213.19,1297.9 1217.52,1299.34 1221.85,1301.09 1226.19,1302.7 1230.52,1304.11 1234.85,1305.51 1239.18,1306.83 1243.52,1308.02 1247.85,1308.94 1252.18,1309.88 1256.52,1310.96 1260.85,1311.95 1265.18,1313.04 1269.51,1314.37 1273.85,1315.44 1278.18,1316.57 1282.51,1317.84 1286.85,1319.02 1291.18,1320.18 1295.51,1321.2 1299.85,1322.31 1304.18,1323.26 1308.51,1324.19 1312.84,1324.99 1317.18,1325.7 1321.51,1326.4 1325.84,1327.21 1330.18,1328.02 1334.51,1328.76 1338.84,1329.64 1343.18,1330.36 1347.51,1331.14 1351.84,1331.94 1356.17,1332.86 1360.51,1333.69 1364.84,1334.42 1369.17,1335.1 1373.51,1335.53 1377.84,1335.91 1382.17,1336.25 1386.5,1336.58 1390.84,1336.94 1395.17,1337.23 1399.5,1337.61 1403.84,1337.92 1408.17,1338.27 1412.5,1338.62 1416.84,1338.86 1421.17,1339.15 1425.5,1339.55 1429.83,1340.02 1434.17,1340.37 1438.5,1340.66 1442.83,1340.94 1447.17,1341.11 1451.5,1341.32 1455.83,1341.57 1460.17,1341.83 1464.5,1342.07 1468.83,1342.33 1473.16,1342.6 1477.5,1342.83 1481.83,1343.18 1486.16,1343.53 1490.5,1343.9 1494.83,1344.22 1499.16,1344.66 1503.49,1344.84 1507.83,1344.99 1512.16,1345.16 1516.49,1345.3 1520.83,1345.44 1525.16,1345.6 1529.49,1345.74 1533.83,1345.95 1538.16,1346.17 1542.49,1346.28 1546.82,1346.37 1551.16,1346.5 1555.49,1346.76 1559.82,1347.08 1564.16,1347.48 1568.49,1347.81 1572.82,1348.07 1577.16,1348.2 1581.49,1348.27 1585.82,1348.45 1590.15,1348.64 1594.49,1348.86 1598.82,1348.96 1603.15,1349.07 1607.49,1349.16 1611.82,1349.25 1616.15,1349.46 1620.49,1349.68 1624.82,1349.99 1629.15,1350.4 1633.48,1350.94 1637.82,1351.43 1642.15,1352 1646.48,1352.6 1650.82,1353.11 1655.15,1353.57 1659.48,1353.96 1663.81,1354.37 1668.15,1354.67 1672.48,1355.03 1676.81,1355.29 1681.15,1355.55 1685.48,1355.96 1689.81,1356.27 1694.15,1356.62 1698.48,1356.89 1702.81,1357.17 1707.14,1357.55 1711.48,1357.86 1715.81,1358.14 1720.14,1358.37 1724.48,1358.6 1728.81,1358.83 1733.14,1358.97 1737.48,1359.13 1741.81,1359.25 1746.14,1359.4 1750.47,1359.56 1754.81,1359.74 1759.14,1359.91 1763.47,1360.06 1767.81,1360.28 1772.14,1360.49 1776.47,1360.76 1780.8,1361.05 1785.14,1361.31 1789.47,1361.61 1793.8,1361.89 1798.14,1362.16 1802.47,1362.36 1806.8,1362.54 1811.14,1362.71 1815.47,1362.85 1819.8,1363.01 1824.13,1363.19 1828.47,1363.33 1832.8,1363.51 1837.13,1363.67 1841.47,1363.86 1845.8,1364.04 1850.13,1364.21 1854.47,1364.43 1858.8,1364.63 1863.13,1364.84 1867.46,1365.06 1871.8,1365.21 1876.13,1365.4 1880.46,1365.54 1884.8,1365.67 1889.13,1365.74 1893.46,1365.79 1897.79,1365.86 1902.13,1365.96 1906.46,1366.03 1910.79,1366.07 1915.13,1366.1 1919.46,1366.13 1923.79,1366.2 1928.13,1366.26 1932.46,1366.3 1936.79,1366.37 1941.12,1366.41 1945.46,1366.47 1949.79,1366.51 1954.12,1366.51 1958.46,1366.49 1962.79,1366.49 1967.12,1366.5 1971.46,1366.51 1975.79,1366.52 1980.12,1366.55 1984.45,1366.56 1988.79,1366.56 1993.12,1366.53 1997.45,1366.51 2001.79,1366.51 2006.12,1366.49 2010.45,1366.49 2014.78,1366.5 2019.12,1366.53 2023.45,1366.53 2027.78,1366.56 2032.12,1366.59 2036.45,1366.64 2040.78,1366.7 2045.12,1366.77 2049.45,1366.85 2053.78,1366.94 2058.11,1367.06 2062.45,1367.13 2066.78,1367.15 2071.11,1367.11 2075.45,1367.01 2079.78,1366.9 2084.11,1366.78 2088.45,1366.64 2092.78,1366.44 2097.11,1366.17 2101.44,1365.78 2105.78,1365.41 2110.11,1365 2114.44,1364.64 2118.78,1364.17 2123.11,1363.67 2127.44,1363.19 2131.77,1362.74 2136.11,1362.22 2140.44,1361.64 2144.77,1361.09 2149.11,1360.65 2153.44,1360.2 2157.77,1359.77 2162.11,1359.29 2166.44,1358.74 2170.77,1358.13 2175.1,1357.47 2179.44,1356.73 2183.77,1355.96 2188.1,1355.12 2192.44,1354.17 2196.77,1353.24 2201.1,1352.31 2205.44,1351.45 2209.77,1350.55 2214.1,1349.5 2218.43,1348.35 2222.77,1347.1 2227.1,1345.94 2231.43,1344.6 2235.77,1343.29 2240.1,1342.05 2244.43,1340.8 2248.76,1339.62 2253.1,1338.5 2257.43,1337.25 2261.76,1336 2266.1,1334.71 2270.43,1333.36 2274.76,1332.01 2279.1,1330.63 2283.43,1329.11 2287.76,1327.7 2292.09,1326.26 2296.43,1324.78 2300.76,1323.27 2305.09,1321.82 2309.43,1320.16 2313.76,1318.46 2318.09,1316.79 2322.43,1315.35 2326.76,1314.02 2331.09,1312.53 2335.42,1311.11 2339.76,1309.63 2344.09,1308.37 2348.42,1307.1 2352.76,1305.67 "/>
<polyline clip-path="url(#clip411)" style="stroke:#e26f46; stroke-linecap:round; stroke-linejoin:round; stroke-width:4; stroke-opacity:1; fill:none" points="186.274,91.4547 190.607,117.32 194.94,142.2 199.273,165.795 203.606,187.702 207.939,205.529 212.272,226.189 216.605,247.429 220.938,268.688 225.271,288.122 229.604,308.854 233.937,327.67 238.27,348.283 242.603,367.788 246.935,385.855 251.268,402.188 255.601,420.774 259.934,439.728 264.267,458.189 268.6,476.02 272.933,492.286 277.266,508.436 281.599,525.149 285.932,541.338 290.265,554.27 294.598,563.922 298.931,575.669 303.264,589.687 307.597,602.807 311.93,615.75 316.263,626.663 320.596,639.761 324.929,653.63 329.262,668.238 333.595,682.326 337.928,696.354 342.261,710.006 346.594,723.455 350.927,736.4 355.26,748.801 359.593,761.367 363.926,773.829 368.258,786.047 372.591,798.011 376.924,809.624 381.257,820.81 385.59,832.05 389.923,842.565 394.256,853.006 398.589,863.004 402.922,872.387 407.255,881.245 411.588,890.709 415.921,899.975 420.254,909.37 424.587,918.364 428.92,927.388 433.253,936.514 437.586,945.273 441.919,954.029 446.252,962.454 450.585,970.561 454.918,978.523 459.251,986.612 463.584,994.574 467.917,1002.36 472.25,1009.72 476.583,1016.99 480.916,1023.64 485.249,1029.9 489.581,1035.75 493.914,1041.14 498.247,1046.65 502.58,1052.58 506.913,1057.98 511.246,1063.86 515.579,1069.79 519.912,1075.15 524.245,1080.94 528.578,1086.92 532.911,1092.73 537.244,1098.27 541.577,1103.13 545.91,1107.93 550.243,1112.79 554.576,1117.7 558.909,1122.95 563.242,1128.18 567.575,1133.28 571.908,1138.15 576.241,1142.74 580.574,1146.72 584.907,1150.29 589.24,1153.65 593.573,1156.73 597.906,1159.95 602.239,1163.57 606.571,1167.22 610.904,1170.65 615.237,1174.33 619.57,1178.19 623.903,1181.56 628.236,1185.2 632.569,1188.81 636.902,1192.33 641.235,1195.76 645.568,1199.04 649.901,1201.87 654.234,1204.81 658.567,1207.87 662.9,1211.1 667.233,1213.83 671.566,1216.6 675.899,1219.24 680.232,1222.11 684.565,1224.83 688.898,1227.3 693.231,1228.97 697.564,1230.37 701.897,1231.52 706.23,1233.16 710.563,1234.32 714.896,1235.9 719.229,1237.21 723.562,1237.95 727.894,1238.38 732.227,1238.86 736.56,1239.99 740.893,1240.81 745.226,1241.64 749.559,1243.07 753.892,1244.52 758.225,1245.78 762.558,1247.07 766.891,1248.19 771.224,1248.69 775.557,1249.29 779.89,1249.54 784.223,1249.84 788.556,1250.2 792.889,1251.44 797.222,1253.13 801.555,1254.84 805.888,1256.79 810.221,1258.69 814.554,1260.75 818.887,1263.03 823.22,1265.31 827.553,1267.58 831.886,1269.69 836.219,1271.86 840.552,1274.1 844.885,1276.04 849.217,1277.83 853.55,1279.58 857.883,1281.5 862.216,1283.46 866.549,1285.3 870.882,1286.96 875.215,1288.54 879.548,1289.98 883.881,1291.13 888.214,1292.66 892.547,1294.34 896.88,1296.03 901.213,1297.7 905.546,1299.36 909.879,1301.07 914.212,1302.74 918.545,1304.33 922.878,1305.91 927.211,1307.31 931.544,1308.72 935.877,1310.1 940.21,1311.39 944.543,1312.58 948.876,1313.71 953.209,1314.7 957.542,1315.68 961.875,1316.6 966.207,1317.37 970.54,1318 974.873,1318.41 979.206,1318.97 983.539,1319.54 987.872,1320.12 992.205,1320.38 996.538,1320.92 1000.87,1321.33 1005.2,1321.93 1009.54,1322.39 1013.87,1322.91 1018.2,1323.67 1022.54,1324.53 1026.87,1325.36 1031.2,1325.94 1035.53,1326.62 1039.87,1327.2 1044.2,1327.65 1048.53,1327.86 1052.87,1327.93 1057.2,1328.36 1061.53,1328.58 1065.87,1328.97 1070.2,1329.29 1074.53,1329.58 1078.86,1329.58 1083.2,1329.79 1087.53,1329.91 1091.86,1329.82 1096.2,1329.79 1100.53,1329.67 1104.86,1329.53 1109.2,1329.45 1113.53,1329.34 1117.86,1329.43 1122.19,1329.77 1126.53,1330.18 1130.86,1330.7 1135.19,1331.43 1139.53,1332.22 1143.86,1333.04 1148.19,1333.7 1152.52,1334.45 1156.86,1335.18 1161.19,1335.63 1165.52,1336.03 1169.86,1336.68 1174.19,1337.39 1178.52,1338.02 1182.86,1338.61 1187.19,1339.2 1191.52,1339.79 1195.85,1340.47 1200.19,1341.19 1204.52,1341.72 1208.85,1342.42 1213.19,1343.11 1217.52,1343.83 1221.85,1344.44 1226.19,1345.04 1230.52,1345.63 1234.85,1346.21 1239.18,1346.79 1243.52,1347.3 1247.85,1347.81 1252.18,1348.41 1256.52,1349.04 1260.85,1349.62 1265.18,1350.21 1269.51,1350.88 1273.85,1351.56 1278.18,1352.22 1282.51,1352.86 1286.85,1353.49 1291.18,1354.11 1295.51,1354.72 1299.85,1355.32 1304.18,1355.91 1308.51,1356.48 1312.84,1357.03 1317.18,1357.57 1321.51,1358.12 1325.84,1358.65 1330.18,1359.16 1334.51,1359.65 1338.84,1360.15 1343.18,1360.64 1347.51,1361.12 1351.84,1361.59 1356.17,1362.05 1360.51,1362.5 1364.84,1362.94 1369.17,1363.37 1373.51,1363.79 1377.84,1364.19 1382.17,1364.6 1386.5,1365 1390.84,1365.39 1395.17,1365.77 1399.5,1366.15 1403.84,1366.52 1408.17,1366.88 1412.5,1367.23 1416.84,1367.58 1421.17,1367.92 1425.5,1368.26 1429.83,1368.57 1434.17,1368.9 1438.5,1369.2 1442.83,1369.48 1447.17,1369.77 1451.5,1370.06 1455.83,1370.34 1460.17,1370.62 1464.5,1370.91 1468.83,1371.17 1473.16,1371.43 1477.5,1371.69 1481.83,1371.94 1486.16,1372.19 1490.5,1372.43 1494.83,1372.68 1499.16,1372.91 1503.49,1373.13 1507.83,1373.35 1512.16,1373.52 1516.49,1373.71 1520.83,1373.91 1525.16,1374.11 1529.49,1374.31 1533.83,1374.51 1538.16,1374.71 1542.49,1374.9 1546.82,1375.1 1551.16,1375.29 1555.49,1375.48 1559.82,1375.64 1564.16,1375.8 1568.49,1375.97 1572.82,1376.11 1577.16,1376.24 1581.49,1376.35 1585.82,1376.44 1590.15,1376.51 1594.49,1376.59 1598.82,1376.67 1603.15,1376.73 1607.49,1376.79 1611.82,1376.89 1616.15,1376.99 1620.49,1377.1 1624.82,1377.21 1629.15,1377.3 1633.48,1377.42 1637.82,1377.53 1642.15,1377.65 1646.48,1377.76 1650.82,1377.86 1655.15,1377.96 1659.48,1378.06 1663.81,1378.15 1668.15,1378.25 1672.48,1378.33 1676.81,1378.41 1681.15,1378.47 1685.48,1378.54 1689.81,1378.61 1694.15,1378.68 1698.48,1378.73 1702.81,1378.79 1707.14,1378.84 1711.48,1378.9 1715.81,1378.96 1720.14,1379.04 1724.48,1379.11 1728.81,1379.17 1733.14,1379.24 1737.48,1379.31 1741.81,1379.36 1746.14,1379.4 1750.47,1379.44 1754.81,1379.49 1759.14,1379.55 1763.47,1379.62 1767.81,1379.71 1772.14,1379.8 1776.47,1379.89 1780.8,1379.97 1785.14,1380.04 1789.47,1380.11 1793.8,1380.17 1798.14,1380.24 1802.47,1380.3 1806.8,1380.37 1811.14,1380.44 1815.47,1380.51 1819.8,1380.57 1824.13,1380.64 1828.47,1380.71 1832.8,1380.78 1837.13,1380.86 1841.47,1380.93 1845.8,1381.01 1850.13,1381.08 1854.47,1381.15 1858.8,1381.22 1863.13,1381.29 1867.46,1381.36 1871.8,1381.42 1876.13,1381.49 1880.46,1381.55 1884.8,1381.6 1889.13,1381.66 1893.46,1381.71 1897.79,1381.77 1902.13,1381.83 1906.46,1381.89 1910.79,1381.95 1915.13,1382 1919.46,1382.06 1923.79,1382.11 1928.13,1382.16 1932.46,1382.21 1936.79,1382.26 1941.12,1382.31 1945.46,1382.36 1949.79,1382.4 1954.12,1382.45 1958.46,1382.5 1962.79,1382.54 1967.12,1382.59 1971.46,1382.63 1975.79,1382.67 1980.12,1382.71 1984.45,1382.74 1988.79,1382.78 1993.12,1382.81 1997.45,1382.85 2001.79,1382.88 2006.12,1382.91 2010.45,1382.94 2014.78,1382.98 2019.12,1383.01 2023.45,1383.04 2027.78,1383.07 2032.12,1383.11 2036.45,1383.14 2040.78,1383.17 2045.12,1383.2 2049.45,1383.23 2053.78,1383.26 2058.11,1383.29 2062.45,1383.32 2066.78,1383.35 2071.11,1383.38 2075.45,1383.4 2079.78,1383.43 2084.11,1383.45 2088.45,1383.48 2092.78,1383.5 2097.11,1383.52 2101.44,1383.55 2105.78,1383.57 2110.11,1383.59 2114.44,1383.61 2118.78,1383.63 2123.11,1383.65 2127.44,1383.67 2131.77,1383.69 2136.11,1383.7 2140.44,1383.72 2144.77,1383.74 2149.11,1383.76 2153.44,1383.78 2157.77,1383.8 2162.11,1383.81 2166.44,1383.83 2170.77,1383.85 2175.1,1383.87 2179.44,1383.88 2183.77,1383.9 2188.1,1383.91 2192.44,1383.93 2196.77,1383.94 2201.1,1383.95 2205.44,1383.96 2209.77,1383.97 2214.1,1383.98 2218.43,1383.98 2222.77,1383.99 2227.1,1384 2231.43,1384 2235.77,1384.01 2240.1,1384.02 2244.43,1384.03 2248.76,1384.04 2253.1,1384.05 2257.43,1384.06 2261.76,1384.07 2266.1,1384.08 2270.43,1384.09 2274.76,1384.1 2279.1,1384.11 2283.43,1384.11 2287.76,1384.12 2292.09,1384.13 2296.43,1384.13 2300.76,1384.14 2305.09,1384.15 2309.43,1384.15 2313.76,1384.16 2318.09,1384.17 2322.43,1384.17 2326.76,1384.18 2331.09,1384.19 2335.42,1384.2 2339.76,1384.21 2344.09,1384.22 2348.42,1384.23 2352.76,1384.24 "/>
<path clip-path="url(#clip410)" d="M1974.79 248.629 L2280.54 248.629 L2280.54 93.1086 L1974.79 93.1086  Z" fill="#ffffff" fill-rule="evenodd" fill-opacity="1"/>
<polyline clip-path="url(#clip410)" style="stroke:#000000; stroke-linecap:round; stroke-linejoin:round; stroke-width:4; stroke-opacity:1; fill:none" points="1974.79,248.629 2280.54,248.629 2280.54,93.1086 1974.79,93.1086 1974.79,248.629 "/>
<polyline clip-path="url(#clip410)" style="stroke:#009af9; stroke-linecap:round; stroke-linejoin:round; stroke-width:4; stroke-opacity:1; fill:none" points="1998.87,144.949 2143.3,144.949 "/>
<path clip-path="url(#clip410)" d="M2167.37 151.997 L2167.37 136.303 L2171.63 136.303 L2171.63 151.835 Q2171.63 155.516 2173.07 157.368 Q2174.5 159.196 2177.37 159.196 Q2180.82 159.196 2182.81 156.997 Q2184.82 154.798 2184.82 151.002 L2184.82 136.303 L2189.08 136.303 L2189.08 162.229 L2184.82 162.229 L2184.82 158.247 Q2183.27 160.608 2181.21 161.766 Q2179.18 162.9 2176.47 162.9 Q2172 162.9 2169.69 160.122 Q2167.37 157.344 2167.37 151.997 M2178.09 135.678 L2178.09 135.678 Z" fill="#000000" fill-rule="nonzero" fill-opacity="1" /><path clip-path="url(#clip410)" d="M2197.46 126.21 L2207.28 126.21 L2207.28 129.52 L2201.72 129.52 L2201.72 165.168 L2207.28 165.168 L2207.28 168.479 L2197.46 168.479 L2197.46 126.21 Z" fill="#000000" fill-rule="nonzero" fill-opacity="1" /><path clip-path="url(#clip410)" d="M2217.76 158.293 L2225.4 158.293 L2225.4 131.928 L2217.09 133.595 L2217.09 129.335 L2225.36 127.669 L2230.03 127.669 L2230.03 158.293 L2237.67 158.293 L2237.67 162.229 L2217.76 162.229 L2217.76 158.293 Z" fill="#000000" fill-rule="nonzero" fill-opacity="1" /><path clip-path="url(#clip410)" d="M2256.47 126.21 L2256.47 168.479 L2246.65 168.479 L2246.65 165.168 L2252.19 165.168 L2252.19 129.52 L2246.65 129.52 L2246.65 126.21 L2256.47 126.21 Z" fill="#000000" fill-rule="nonzero" fill-opacity="1" /><polyline clip-path="url(#clip410)" style="stroke:#e26f46; stroke-linecap:round; stroke-linejoin:round; stroke-width:4; stroke-opacity:1; fill:none" points="1998.87,196.789 2143.3,196.789 "/>
<path clip-path="url(#clip410)" d="M2167.37 203.837 L2167.37 188.143 L2171.63 188.143 L2171.63 203.675 Q2171.63 207.356 2173.07 209.208 Q2174.5 211.036 2177.37 211.036 Q2180.82 211.036 2182.81 208.837 Q2184.82 206.638 2184.82 202.842 L2184.82 188.143 L2189.08 188.143 L2189.08 214.069 L2184.82 214.069 L2184.82 210.087 Q2183.27 212.448 2181.21 213.606 Q2179.18 214.74 2176.47 214.74 Q2172 214.74 2169.69 211.962 Q2167.37 209.184 2167.37 203.837 M2178.09 187.518 L2178.09 187.518 Z" fill="#000000" fill-rule="nonzero" fill-opacity="1" /><path clip-path="url(#clip410)" d="M2197.46 178.05 L2207.28 178.05 L2207.28 181.36 L2201.72 181.36 L2201.72 217.008 L2207.28 217.008 L2207.28 220.319 L2197.46 220.319 L2197.46 178.05 Z" fill="#000000" fill-rule="nonzero" fill-opacity="1" /><path clip-path="url(#clip410)" d="M2220.98 210.133 L2237.3 210.133 L2237.3 214.069 L2215.36 214.069 L2215.36 210.133 Q2218.02 207.379 2222.6 202.749 Q2227.21 198.096 2228.39 196.754 Q2230.63 194.231 2231.51 192.495 Q2232.42 190.735 2232.42 189.046 Q2232.42 186.291 2230.47 184.555 Q2228.55 182.819 2225.45 182.819 Q2223.25 182.819 2220.8 183.583 Q2218.37 184.347 2215.59 185.897 L2215.59 181.175 Q2218.41 180.041 2220.87 179.462 Q2223.32 178.884 2225.36 178.884 Q2230.73 178.884 2233.92 181.569 Q2237.12 184.254 2237.12 188.745 Q2237.12 190.874 2236.31 192.796 Q2235.52 194.694 2233.41 197.286 Q2232.83 197.958 2229.73 201.175 Q2226.63 204.37 2220.98 210.133 Z" fill="#000000" fill-rule="nonzero" fill-opacity="1" /><path clip-path="url(#clip410)" d="M2256.47 178.05 L2256.47 220.319 L2246.65 220.319 L2246.65 217.008 L2252.19 217.008 L2252.19 181.36 L2246.65 181.36 L2246.65 178.05 L2256.47 178.05 Z" fill="#000000" fill-rule="nonzero" fill-opacity="1" /></svg>
