<?xml version="1.0" encoding="utf-8"?>
<svg xmlns="http://www.w3.org/2000/svg" xmlns:xlink="http://www.w3.org/1999/xlink" width="600" height="400" viewBox="0 0 2400 1600">
<defs>
  <clipPath id="clip610">
    <rect x="0" y="0" width="2400" height="1600"/>
  </clipPath>
</defs>
<path clip-path="url(#clip610)" d="M0 1600 L2400 1600 L2400 0 L0 0  Z" fill="#ffffff" fill-rule="evenodd" fill-opacity="1"/>
<defs>
  <clipPath id="clip611">
    <rect x="186" y="47" width="2167" height="1377"/>
  </clipPath>
</defs>
<path clip-path="url(#clip610)" d="M186.274 1423.18 L2352.76 1423.18 L2352.76 47.2441 L186.274 47.2441  Z" fill="#ffffff" fill-rule="evenodd" fill-opacity="1"/>
<polyline clip-path="url(#clip611)" style="stroke:#000000; stroke-linecap:round; stroke-linejoin:round; stroke-width:2; stroke-opacity:0.1; fill:none" points="186.274,1423.18 186.274,47.2441 "/>
<polyline clip-path="url(#clip611)" style="stroke:#000000; stroke-linecap:round; stroke-linejoin:round; stroke-width:2; stroke-opacity:0.1; fill:none" points="619.57,1423.18 619.57,47.2441 "/>
<polyline clip-path="url(#clip611)" style="stroke:#000000; stroke-linecap:round; stroke-linejoin:round; stroke-width:2; stroke-opacity:0.1; fill:none" points="1052.87,1423.18 1052.87,47.2441 "/>
<polyline clip-path="url(#clip611)" style="stroke:#000000; stroke-linecap:round; stroke-linejoin:round; stroke-width:2; stroke-opacity:0.1; fill:none" points="1486.16,1423.18 1486.16,47.2441 "/>
<polyline clip-path="url(#clip611)" style="stroke:#000000; stroke-linecap:round; stroke-linejoin:round; stroke-width:2; stroke-opacity:0.1; fill:none" points="1919.46,1423.18 1919.46,47.2441 "/>
<polyline clip-path="url(#clip611)" style="stroke:#000000; stroke-linecap:round; stroke-linejoin:round; stroke-width:2; stroke-opacity:0.1; fill:none" points="2352.76,1423.18 2352.76,47.2441 "/>
<polyline clip-path="url(#clip611)" style="stroke:#000000; stroke-linecap:round; stroke-linejoin:round; stroke-width:2; stroke-opacity:0.1; fill:none" points="186.274,1161.81 2352.76,1161.81 "/>
<polyline clip-path="url(#clip611)" style="stroke:#000000; stroke-linecap:round; stroke-linejoin:round; stroke-width:2; stroke-opacity:0.1; fill:none" points="186.274,883.54 2352.76,883.54 "/>
<polyline clip-path="url(#clip611)" style="stroke:#000000; stroke-linecap:round; stroke-linejoin:round; stroke-width:2; stroke-opacity:0.1; fill:none" points="186.274,605.275 2352.76,605.275 "/>
<polyline clip-path="url(#clip611)" style="stroke:#000000; stroke-linecap:round; stroke-linejoin:round; stroke-width:2; stroke-opacity:0.1; fill:none" points="186.274,327.01 2352.76,327.01 "/>
<polyline clip-path="url(#clip611)" style="stroke:#000000; stroke-linecap:round; stroke-linejoin:round; stroke-width:2; stroke-opacity:0.1; fill:none" points="186.274,48.7454 2352.76,48.7454 "/>
<polyline clip-path="url(#clip610)" style="stroke:#000000; stroke-linecap:round; stroke-linejoin:round; stroke-width:4; stroke-opacity:1; fill:none" points="186.274,1423.18 2352.76,1423.18 "/>
<polyline clip-path="url(#clip610)" style="stroke:#000000; stroke-linecap:round; stroke-linejoin:round; stroke-width:4; stroke-opacity:1; fill:none" points="186.274,1423.18 186.274,1404.28 "/>
<polyline clip-path="url(#clip610)" style="stroke:#000000; stroke-linecap:round; stroke-linejoin:round; stroke-width:4; stroke-opacity:1; fill:none" points="619.57,1423.18 619.57,1404.28 "/>
<polyline clip-path="url(#clip610)" style="stroke:#000000; stroke-linecap:round; stroke-linejoin:round; stroke-width:4; stroke-opacity:1; fill:none" points="1052.87,1423.18 1052.87,1404.28 "/>
<polyline clip-path="url(#clip610)" style="stroke:#000000; stroke-linecap:round; stroke-linejoin:round; stroke-width:4; stroke-opacity:1; fill:none" points="1486.16,1423.18 1486.16,1404.28 "/>
<polyline clip-path="url(#clip610)" style="stroke:#000000; stroke-linecap:round; stroke-linejoin:round; stroke-width:4; stroke-opacity:1; fill:none" points="1919.46,1423.18 1919.46,1404.28 "/>
<polyline clip-path="url(#clip610)" style="stroke:#000000; stroke-linecap:round; stroke-linejoin:round; stroke-width:4; stroke-opacity:1; fill:none" points="2352.76,1423.18 2352.76,1404.28 "/>
<path clip-path="url(#clip610)" d="M163.658 1454.1 Q160.047 1454.1 158.219 1457.66 Q156.413 1461.2 156.413 1468.33 Q156.413 1475.44 158.219 1479.01 Q160.047 1482.55 163.658 1482.55 Q167.293 1482.55 169.098 1479.01 Q170.927 1475.44 170.927 1468.33 Q170.927 1461.2 169.098 1457.66 Q167.293 1454.1 163.658 1454.1 M163.658 1450.39 Q169.469 1450.39 172.524 1455 Q175.603 1459.58 175.603 1468.33 Q175.603 1477.06 172.524 1481.67 Q169.469 1486.25 163.658 1486.25 Q157.848 1486.25 154.77 1481.67 Q151.714 1477.06 151.714 1468.33 Q151.714 1459.58 154.77 1455 Q157.848 1450.39 163.658 1450.39 Z" fill="#000000" fill-rule="nonzero" fill-opacity="1" /><path clip-path="url(#clip610)" d="M183.82 1479.7 L188.705 1479.7 L188.705 1485.58 L183.82 1485.58 L183.82 1479.7 Z" fill="#000000" fill-rule="nonzero" fill-opacity="1" /><path clip-path="url(#clip610)" d="M208.89 1454.1 Q205.279 1454.1 203.45 1457.66 Q201.644 1461.2 201.644 1468.33 Q201.644 1475.44 203.45 1479.01 Q205.279 1482.55 208.89 1482.55 Q212.524 1482.55 214.329 1479.01 Q216.158 1475.44 216.158 1468.33 Q216.158 1461.2 214.329 1457.66 Q212.524 1454.1 208.89 1454.1 M208.89 1450.39 Q214.7 1450.39 217.755 1455 Q220.834 1459.58 220.834 1468.33 Q220.834 1477.06 217.755 1481.67 Q214.7 1486.25 208.89 1486.25 Q203.079 1486.25 200.001 1481.67 Q196.945 1477.06 196.945 1468.33 Q196.945 1459.58 200.001 1455 Q203.079 1450.39 208.89 1450.39 Z" fill="#000000" fill-rule="nonzero" fill-opacity="1" /><path clip-path="url(#clip610)" d="M597.753 1454.1 Q594.142 1454.1 592.314 1457.66 Q590.508 1461.2 590.508 1468.33 Q590.508 1475.44 592.314 1479.01 Q594.142 1482.55 597.753 1482.55 Q601.388 1482.55 603.193 1479.01 Q605.022 1475.44 605.022 1468.33 Q605.022 1461.2 603.193 1457.66 Q601.388 1454.1 597.753 1454.1 M597.753 1450.39 Q603.564 1450.39 606.619 1455 Q609.698 1459.58 609.698 1468.33 Q609.698 1477.06 606.619 1481.67 Q603.564 1486.25 597.753 1486.25 Q591.943 1486.25 588.865 1481.67 Q585.809 1477.06 585.809 1468.33 Q585.809 1459.58 588.865 1455 Q591.943 1450.39 597.753 1450.39 Z" fill="#000000" fill-rule="nonzero" fill-opacity="1" /><path clip-path="url(#clip610)" d="M617.915 1479.7 L622.8 1479.7 L622.8 1485.58 L617.915 1485.58 L617.915 1479.7 Z" fill="#000000" fill-rule="nonzero" fill-opacity="1" /><path clip-path="url(#clip610)" d="M637.012 1481.64 L653.332 1481.64 L653.332 1485.58 L631.387 1485.58 L631.387 1481.64 Q634.049 1478.89 638.633 1474.26 Q643.239 1469.61 644.42 1468.27 Q646.665 1465.74 647.545 1464.01 Q648.448 1462.25 648.448 1460.56 Q648.448 1457.8 646.503 1456.07 Q644.582 1454.33 641.48 1454.33 Q639.281 1454.33 636.827 1455.09 Q634.397 1455.86 631.619 1457.41 L631.619 1452.69 Q634.443 1451.55 636.897 1450.97 Q639.35 1450.39 641.387 1450.39 Q646.758 1450.39 649.952 1453.08 Q653.147 1455.77 653.147 1460.26 Q653.147 1462.39 652.336 1464.31 Q651.549 1466.2 649.443 1468.8 Q648.864 1469.47 645.762 1472.69 Q642.661 1475.88 637.012 1481.64 Z" fill="#000000" fill-rule="nonzero" fill-opacity="1" /><path clip-path="url(#clip610)" d="M1030.01 1454.1 Q1026.4 1454.1 1024.57 1457.66 Q1022.76 1461.2 1022.76 1468.33 Q1022.76 1475.44 1024.57 1479.01 Q1026.4 1482.55 1030.01 1482.55 Q1033.64 1482.55 1035.45 1479.01 Q1037.28 1475.44 1037.28 1468.33 Q1037.28 1461.2 1035.45 1457.66 Q1033.64 1454.1 1030.01 1454.1 M1030.01 1450.39 Q1035.82 1450.39 1038.87 1455 Q1041.95 1459.58 1041.95 1468.33 Q1041.95 1477.06 1038.87 1481.67 Q1035.82 1486.25 1030.01 1486.25 Q1024.2 1486.25 1021.12 1481.67 Q1018.06 1477.06 1018.06 1468.33 Q1018.06 1459.58 1021.12 1455 Q1024.2 1450.39 1030.01 1450.39 Z" fill="#000000" fill-rule="nonzero" fill-opacity="1" /><path clip-path="url(#clip610)" d="M1050.17 1479.7 L1055.05 1479.7 L1055.05 1485.58 L1050.17 1485.58 L1050.17 1479.7 Z" fill="#000000" fill-rule="nonzero" fill-opacity="1" /><path clip-path="url(#clip610)" d="M1078.09 1455.09 L1066.28 1473.54 L1078.09 1473.54 L1078.09 1455.09 M1076.86 1451.02 L1082.74 1451.02 L1082.74 1473.54 L1087.67 1473.54 L1087.67 1477.43 L1082.74 1477.43 L1082.74 1485.58 L1078.09 1485.58 L1078.09 1477.43 L1062.48 1477.43 L1062.48 1472.92 L1076.86 1451.02 Z" fill="#000000" fill-rule="nonzero" fill-opacity="1" /><path clip-path="url(#clip610)" d="M1463.47 1454.1 Q1459.86 1454.1 1458.03 1457.66 Q1456.22 1461.2 1456.22 1468.33 Q1456.22 1475.44 1458.03 1479.01 Q1459.86 1482.55 1463.47 1482.55 Q1467.1 1482.55 1468.91 1479.01 Q1470.73 1475.44 1470.73 1468.33 Q1470.73 1461.2 1468.91 1457.66 Q1467.1 1454.1 1463.47 1454.1 M1463.47 1450.39 Q1469.28 1450.39 1472.33 1455 Q1475.41 1459.58 1475.41 1468.33 Q1475.41 1477.06 1472.33 1481.67 Q1469.28 1486.25 1463.47 1486.25 Q1457.66 1486.25 1454.58 1481.67 Q1451.52 1477.06 1451.52 1468.33 Q1451.52 1459.58 1454.58 1455 Q1457.66 1450.39 1463.47 1450.39 Z" fill="#000000" fill-rule="nonzero" fill-opacity="1" /><path clip-path="url(#clip610)" d="M1483.63 1479.7 L1488.51 1479.7 L1488.51 1485.58 L1483.63 1485.58 L1483.63 1479.7 Z" fill="#000000" fill-rule="nonzero" fill-opacity="1" /><path clip-path="url(#clip610)" d="M1509.28 1466.44 Q1506.13 1466.44 1504.28 1468.59 Q1502.45 1470.74 1502.45 1474.49 Q1502.45 1478.22 1504.28 1480.39 Q1506.13 1482.55 1509.28 1482.55 Q1512.42 1482.55 1514.25 1480.39 Q1516.11 1478.22 1516.11 1474.49 Q1516.11 1470.74 1514.25 1468.59 Q1512.42 1466.44 1509.28 1466.44 M1518.56 1451.78 L1518.56 1456.04 Q1516.8 1455.21 1514.99 1454.77 Q1513.21 1454.33 1511.45 1454.33 Q1506.82 1454.33 1504.37 1457.45 Q1501.94 1460.58 1501.59 1466.9 Q1502.96 1464.89 1505.02 1463.82 Q1507.08 1462.73 1509.55 1462.73 Q1514.76 1462.73 1517.77 1465.9 Q1520.8 1469.05 1520.8 1474.49 Q1520.8 1479.82 1517.66 1483.03 Q1514.51 1486.25 1509.28 1486.25 Q1503.28 1486.25 1500.11 1481.67 Q1496.94 1477.06 1496.94 1468.33 Q1496.94 1460.14 1500.83 1455.28 Q1504.72 1450.39 1511.27 1450.39 Q1513.03 1450.39 1514.81 1450.74 Q1516.61 1451.09 1518.56 1451.78 Z" fill="#000000" fill-rule="nonzero" fill-opacity="1" /><path clip-path="url(#clip610)" d="M1896.89 1454.1 Q1893.28 1454.1 1891.45 1457.66 Q1889.64 1461.2 1889.64 1468.33 Q1889.64 1475.44 1891.45 1479.01 Q1893.28 1482.55 1896.89 1482.55 Q1900.52 1482.55 1902.33 1479.01 Q1904.16 1475.44 1904.16 1468.33 Q1904.16 1461.2 1902.33 1457.66 Q1900.52 1454.1 1896.89 1454.1 M1896.89 1450.39 Q1902.7 1450.39 1905.76 1455 Q1908.83 1459.58 1908.83 1468.33 Q1908.83 1477.06 1905.76 1481.67 Q1902.7 1486.25 1896.89 1486.25 Q1891.08 1486.25 1888 1481.67 Q1884.95 1477.06 1884.95 1468.33 Q1884.95 1459.58 1888 1455 Q1891.08 1450.39 1896.89 1450.39 Z" fill="#000000" fill-rule="nonzero" fill-opacity="1" /><path clip-path="url(#clip610)" d="M1917.05 1479.7 L1921.94 1479.7 L1921.94 1485.58 L1917.05 1485.58 L1917.05 1479.7 Z" fill="#000000" fill-rule="nonzero" fill-opacity="1" /><path clip-path="url(#clip610)" d="M1942.12 1469.17 Q1938.79 1469.17 1936.87 1470.95 Q1934.97 1472.73 1934.97 1475.86 Q1934.97 1478.98 1936.87 1480.77 Q1938.79 1482.55 1942.12 1482.55 Q1945.45 1482.55 1947.38 1480.77 Q1949.3 1478.96 1949.3 1475.86 Q1949.3 1472.73 1947.38 1470.95 Q1945.48 1469.17 1942.12 1469.17 M1937.45 1467.18 Q1934.44 1466.44 1932.75 1464.38 Q1931.08 1462.32 1931.08 1459.35 Q1931.08 1455.21 1934.02 1452.8 Q1936.98 1450.39 1942.12 1450.39 Q1947.28 1450.39 1950.22 1452.8 Q1953.16 1455.21 1953.16 1459.35 Q1953.16 1462.32 1951.47 1464.38 Q1949.81 1466.44 1946.82 1467.18 Q1950.2 1467.96 1952.08 1470.26 Q1953.97 1472.55 1953.97 1475.86 Q1953.97 1480.88 1950.89 1483.57 Q1947.84 1486.25 1942.12 1486.25 Q1936.4 1486.25 1933.33 1483.57 Q1930.27 1480.88 1930.27 1475.86 Q1930.27 1472.55 1932.17 1470.26 Q1934.07 1467.96 1937.45 1467.18 M1935.73 1459.79 Q1935.73 1462.48 1937.4 1463.98 Q1939.09 1465.49 1942.12 1465.49 Q1945.13 1465.49 1946.82 1463.98 Q1948.53 1462.48 1948.53 1459.79 Q1948.53 1457.11 1946.82 1455.6 Q1945.13 1454.1 1942.12 1454.1 Q1939.09 1454.1 1937.4 1455.6 Q1935.73 1457.11 1935.73 1459.79 Z" fill="#000000" fill-rule="nonzero" fill-opacity="1" /><path clip-path="url(#clip610)" d="M2319.91 1481.64 L2327.55 1481.64 L2327.55 1455.28 L2319.24 1456.95 L2319.24 1452.69 L2327.5 1451.02 L2332.18 1451.02 L2332.18 1481.64 L2339.82 1481.64 L2339.82 1485.58 L2319.91 1485.58 L2319.91 1481.64 Z" fill="#000000" fill-rule="nonzero" fill-opacity="1" /><path clip-path="url(#clip610)" d="M2349.26 1479.7 L2354.14 1479.7 L2354.14 1485.58 L2349.26 1485.58 L2349.26 1479.7 Z" fill="#000000" fill-rule="nonzero" fill-opacity="1" /><path clip-path="url(#clip610)" d="M2374.33 1454.1 Q2370.72 1454.1 2368.89 1457.66 Q2367.08 1461.2 2367.08 1468.33 Q2367.08 1475.44 2368.89 1479.01 Q2370.72 1482.55 2374.33 1482.55 Q2377.96 1482.55 2379.77 1479.01 Q2381.6 1475.44 2381.6 1468.33 Q2381.6 1461.2 2379.77 1457.66 Q2377.96 1454.1 2374.33 1454.1 M2374.33 1450.39 Q2380.14 1450.39 2383.2 1455 Q2386.27 1459.58 2386.27 1468.33 Q2386.27 1477.06 2383.2 1481.67 Q2380.14 1486.25 2374.33 1486.25 Q2368.52 1486.25 2365.44 1481.67 Q2362.39 1477.06 2362.39 1468.33 Q2362.39 1459.58 2365.44 1455 Q2368.52 1450.39 2374.33 1450.39 Z" fill="#000000" fill-rule="nonzero" fill-opacity="1" /><path clip-path="url(#clip610)" d="M1268.58 1522.27 L1268.58 1532.4 L1280.64 1532.4 L1280.64 1536.95 L1268.58 1536.95 L1268.58 1556.3 Q1268.58 1560.66 1269.75 1561.9 Q1270.96 1563.14 1274.62 1563.14 L1280.64 1563.14 L1280.64 1568.04 L1274.62 1568.04 Q1267.84 1568.04 1265.27 1565.53 Q1262.69 1562.98 1262.69 1556.3 L1262.69 1536.95 L1258.39 1536.95 L1258.39 1532.4 L1262.69 1532.4 L1262.69 1522.27 L1268.58 1522.27 Z" fill="#000000" fill-rule="nonzero" fill-opacity="1" /><polyline clip-path="url(#clip610)" style="stroke:#000000; stroke-linecap:round; stroke-linejoin:round; stroke-width:4; stroke-opacity:1; fill:none" points="186.274,1423.18 186.274,47.2441 "/>
<polyline clip-path="url(#clip610)" style="stroke:#000000; stroke-linecap:round; stroke-linejoin:round; stroke-width:4; stroke-opacity:1; fill:none" points="186.274,1161.81 205.172,1161.81 "/>
<polyline clip-path="url(#clip610)" style="stroke:#000000; stroke-linecap:round; stroke-linejoin:round; stroke-width:4; stroke-opacity:1; fill:none" points="186.274,883.54 205.172,883.54 "/>
<polyline clip-path="url(#clip610)" style="stroke:#000000; stroke-linecap:round; stroke-linejoin:round; stroke-width:4; stroke-opacity:1; fill:none" points="186.274,605.275 205.172,605.275 "/>
<polyline clip-path="url(#clip610)" style="stroke:#000000; stroke-linecap:round; stroke-linejoin:round; stroke-width:4; stroke-opacity:1; fill:none" points="186.274,327.01 205.172,327.01 "/>
<polyline clip-path="url(#clip610)" style="stroke:#000000; stroke-linecap:round; stroke-linejoin:round; stroke-width:4; stroke-opacity:1; fill:none" points="186.274,48.7454 205.172,48.7454 "/>
<path clip-path="url(#clip610)" d="M63.9319 1147.6 Q60.3208 1147.6 58.4921 1151.17 Q56.6865 1154.71 56.6865 1161.84 Q56.6865 1168.95 58.4921 1172.51 Q60.3208 1176.05 63.9319 1176.05 Q67.5661 1176.05 69.3717 1172.51 Q71.2004 1168.95 71.2004 1161.84 Q71.2004 1154.71 69.3717 1151.17 Q67.5661 1147.6 63.9319 1147.6 M63.9319 1143.9 Q69.742 1143.9 72.7976 1148.51 Q75.8763 1153.09 75.8763 1161.84 Q75.8763 1170.57 72.7976 1175.17 Q69.742 1179.76 63.9319 1179.76 Q58.1217 1179.76 55.043 1175.17 Q51.9875 1170.57 51.9875 1161.84 Q51.9875 1153.09 55.043 1148.51 Q58.1217 1143.9 63.9319 1143.9 Z" fill="#000000" fill-rule="nonzero" fill-opacity="1" /><path clip-path="url(#clip610)" d="M84.0938 1173.21 L88.978 1173.21 L88.978 1179.09 L84.0938 1179.09 L84.0938 1173.21 Z" fill="#000000" fill-rule="nonzero" fill-opacity="1" /><path clip-path="url(#clip610)" d="M103.191 1175.15 L119.51 1175.15 L119.51 1179.09 L97.566 1179.09 L97.566 1175.15 Q100.228 1172.4 104.811 1167.77 Q109.418 1163.11 110.598 1161.77 Q112.844 1159.25 113.723 1157.51 Q114.626 1155.75 114.626 1154.06 Q114.626 1151.31 112.682 1149.57 Q110.76 1147.84 107.658 1147.84 Q105.459 1147.84 103.006 1148.6 Q100.575 1149.36 97.7974 1150.91 L97.7974 1146.19 Q100.621 1145.06 103.075 1144.48 Q105.529 1143.9 107.566 1143.9 Q112.936 1143.9 116.131 1146.59 Q119.325 1149.27 119.325 1153.76 Q119.325 1155.89 118.515 1157.81 Q117.728 1159.71 115.621 1162.3 Q115.043 1162.97 111.941 1166.19 Q108.839 1169.39 103.191 1175.15 Z" fill="#000000" fill-rule="nonzero" fill-opacity="1" /><path clip-path="url(#clip610)" d="M129.371 1144.53 L147.728 1144.53 L147.728 1148.46 L133.654 1148.46 L133.654 1156.93 Q134.672 1156.59 135.691 1156.42 Q136.709 1156.24 137.728 1156.24 Q143.515 1156.24 146.894 1159.41 Q150.274 1162.58 150.274 1168 Q150.274 1173.58 146.802 1176.68 Q143.33 1179.76 137.01 1179.76 Q134.834 1179.76 132.566 1179.39 Q130.32 1179.02 127.913 1178.28 L127.913 1173.58 Q129.996 1174.71 132.219 1175.27 Q134.441 1175.82 136.918 1175.82 Q140.922 1175.82 143.26 1173.72 Q145.598 1171.61 145.598 1168 Q145.598 1164.39 143.26 1162.28 Q140.922 1160.17 136.918 1160.17 Q135.043 1160.17 133.168 1160.59 Q131.316 1161.01 129.371 1161.89 L129.371 1144.53 Z" fill="#000000" fill-rule="nonzero" fill-opacity="1" /><path clip-path="url(#clip610)" d="M62.9365 869.339 Q59.3254 869.339 57.4967 872.904 Q55.6912 876.445 55.6912 883.575 Q55.6912 890.682 57.4967 894.246 Q59.3254 897.788 62.9365 897.788 Q66.5707 897.788 68.3763 894.246 Q70.205 890.682 70.205 883.575 Q70.205 876.445 68.3763 872.904 Q66.5707 869.339 62.9365 869.339 M62.9365 865.635 Q68.7467 865.635 71.8022 870.242 Q74.8809 874.825 74.8809 883.575 Q74.8809 892.302 71.8022 896.908 Q68.7467 901.492 62.9365 901.492 Q57.1264 901.492 54.0477 896.908 Q50.9921 892.302 50.9921 883.575 Q50.9921 874.825 54.0477 870.242 Q57.1264 865.635 62.9365 865.635 Z" fill="#000000" fill-rule="nonzero" fill-opacity="1" /><path clip-path="url(#clip610)" d="M83.0984 894.941 L87.9827 894.941 L87.9827 900.82 L83.0984 900.82 L83.0984 894.941 Z" fill="#000000" fill-rule="nonzero" fill-opacity="1" /><path clip-path="url(#clip610)" d="M98.2141 866.26 L116.57 866.26 L116.57 870.196 L102.496 870.196 L102.496 878.668 Q103.515 878.32 104.534 878.158 Q105.552 877.973 106.571 877.973 Q112.358 877.973 115.737 881.145 Q119.117 884.316 119.117 889.732 Q119.117 895.311 115.645 898.413 Q112.172 901.492 105.853 901.492 Q103.677 901.492 101.409 901.121 Q99.1632 900.751 96.7558 900.01 L96.7558 895.311 Q98.8391 896.445 101.061 897.001 Q103.284 897.556 105.76 897.556 Q109.765 897.556 112.103 895.45 Q114.441 893.344 114.441 889.732 Q114.441 886.121 112.103 884.015 Q109.765 881.908 105.76 881.908 Q103.885 881.908 102.01 882.325 Q100.159 882.742 98.2141 883.621 L98.2141 866.26 Z" fill="#000000" fill-rule="nonzero" fill-opacity="1" /><path clip-path="url(#clip610)" d="M138.33 869.339 Q134.719 869.339 132.89 872.904 Q131.084 876.445 131.084 883.575 Q131.084 890.682 132.89 894.246 Q134.719 897.788 138.33 897.788 Q141.964 897.788 143.769 894.246 Q145.598 890.682 145.598 883.575 Q145.598 876.445 143.769 872.904 Q141.964 869.339 138.33 869.339 M138.33 865.635 Q144.14 865.635 147.195 870.242 Q150.274 874.825 150.274 883.575 Q150.274 892.302 147.195 896.908 Q144.14 901.492 138.33 901.492 Q132.519 901.492 129.441 896.908 Q126.385 892.302 126.385 883.575 Q126.385 874.825 129.441 870.242 Q132.519 865.635 138.33 865.635 Z" fill="#000000" fill-rule="nonzero" fill-opacity="1" /><path clip-path="url(#clip610)" d="M63.9319 591.074 Q60.3208 591.074 58.4921 594.639 Q56.6865 598.181 56.6865 605.31 Q56.6865 612.417 58.4921 615.981 Q60.3208 619.523 63.9319 619.523 Q67.5661 619.523 69.3717 615.981 Q71.2004 612.417 71.2004 605.31 Q71.2004 598.181 69.3717 594.639 Q67.5661 591.074 63.9319 591.074 M63.9319 587.37 Q69.742 587.37 72.7976 591.977 Q75.8763 596.56 75.8763 605.31 Q75.8763 614.037 72.7976 618.643 Q69.742 623.227 63.9319 623.227 Q58.1217 623.227 55.043 618.643 Q51.9875 614.037 51.9875 605.31 Q51.9875 596.56 55.043 591.977 Q58.1217 587.37 63.9319 587.37 Z" fill="#000000" fill-rule="nonzero" fill-opacity="1" /><path clip-path="url(#clip610)" d="M84.0938 616.676 L88.978 616.676 L88.978 622.555 L84.0938 622.555 L84.0938 616.676 Z" fill="#000000" fill-rule="nonzero" fill-opacity="1" /><path clip-path="url(#clip610)" d="M97.9826 587.995 L120.205 587.995 L120.205 589.986 L107.658 622.555 L102.774 622.555 L114.58 591.931 L97.9826 591.931 L97.9826 587.995 Z" fill="#000000" fill-rule="nonzero" fill-opacity="1" /><path clip-path="url(#clip610)" d="M129.371 587.995 L147.728 587.995 L147.728 591.931 L133.654 591.931 L133.654 600.403 Q134.672 600.055 135.691 599.893 Q136.709 599.708 137.728 599.708 Q143.515 599.708 146.894 602.88 Q150.274 606.051 150.274 611.467 Q150.274 617.046 146.802 620.148 Q143.33 623.227 137.01 623.227 Q134.834 623.227 132.566 622.856 Q130.32 622.486 127.913 621.745 L127.913 617.046 Q129.996 618.18 132.219 618.736 Q134.441 619.292 136.918 619.292 Q140.922 619.292 143.26 617.185 Q145.598 615.079 145.598 611.467 Q145.598 607.856 143.26 605.75 Q140.922 603.643 136.918 603.643 Q135.043 603.643 133.168 604.06 Q131.316 604.477 129.371 605.356 L129.371 587.995 Z" fill="#000000" fill-rule="nonzero" fill-opacity="1" /><path clip-path="url(#clip610)" d="M53.7467 340.355 L61.3856 340.355 L61.3856 313.99 L53.0754 315.656 L53.0754 311.397 L61.3393 309.73 L66.0152 309.73 L66.0152 340.355 L73.654 340.355 L73.654 344.29 L53.7467 344.29 L53.7467 340.355 Z" fill="#000000" fill-rule="nonzero" fill-opacity="1" /><path clip-path="url(#clip610)" d="M83.0984 338.411 L87.9827 338.411 L87.9827 344.29 L83.0984 344.29 L83.0984 338.411 Z" fill="#000000" fill-rule="nonzero" fill-opacity="1" /><path clip-path="url(#clip610)" d="M108.168 312.809 Q104.557 312.809 102.728 316.374 Q100.922 319.916 100.922 327.045 Q100.922 334.152 102.728 337.716 Q104.557 341.258 108.168 341.258 Q111.802 341.258 113.608 337.716 Q115.436 334.152 115.436 327.045 Q115.436 319.916 113.608 316.374 Q111.802 312.809 108.168 312.809 M108.168 309.105 Q113.978 309.105 117.033 313.712 Q120.112 318.295 120.112 327.045 Q120.112 335.772 117.033 340.378 Q113.978 344.962 108.168 344.962 Q102.358 344.962 99.2789 340.378 Q96.2234 335.772 96.2234 327.045 Q96.2234 318.295 99.2789 313.712 Q102.358 309.105 108.168 309.105 Z" fill="#000000" fill-rule="nonzero" fill-opacity="1" /><path clip-path="url(#clip610)" d="M138.33 312.809 Q134.719 312.809 132.89 316.374 Q131.084 319.916 131.084 327.045 Q131.084 334.152 132.89 337.716 Q134.719 341.258 138.33 341.258 Q141.964 341.258 143.769 337.716 Q145.598 334.152 145.598 327.045 Q145.598 319.916 143.769 316.374 Q141.964 312.809 138.33 312.809 M138.33 309.105 Q144.14 309.105 147.195 313.712 Q150.274 318.295 150.274 327.045 Q150.274 335.772 147.195 340.378 Q144.14 344.962 138.33 344.962 Q132.519 344.962 129.441 340.378 Q126.385 335.772 126.385 327.045 Q126.385 318.295 129.441 313.712 Q132.519 309.105 138.33 309.105 Z" fill="#000000" fill-rule="nonzero" fill-opacity="1" /><path clip-path="url(#clip610)" d="M54.7421 62.0902 L62.381 62.0902 L62.381 35.7246 L54.0708 37.3913 L54.0708 33.132 L62.3347 31.4654 L67.0106 31.4654 L67.0106 62.0902 L74.6494 62.0902 L74.6494 66.0254 L54.7421 66.0254 L54.7421 62.0902 Z" fill="#000000" fill-rule="nonzero" fill-opacity="1" /><path clip-path="url(#clip610)" d="M84.0938 60.1458 L88.978 60.1458 L88.978 66.0254 L84.0938 66.0254 L84.0938 60.1458 Z" fill="#000000" fill-rule="nonzero" fill-opacity="1" /><path clip-path="url(#clip610)" d="M103.191 62.0902 L119.51 62.0902 L119.51 66.0254 L97.566 66.0254 L97.566 62.0902 Q100.228 59.3356 104.811 54.706 Q109.418 50.0533 110.598 48.7107 Q112.844 46.1875 113.723 44.4514 Q114.626 42.6922 114.626 41.0024 Q114.626 38.2478 112.682 36.5117 Q110.76 34.7756 107.658 34.7756 Q105.459 34.7756 103.006 35.5394 Q100.575 36.3033 97.7974 37.8542 L97.7974 33.132 Q100.621 31.9978 103.075 31.4191 Q105.529 30.8404 107.566 30.8404 Q112.936 30.8404 116.131 33.5256 Q119.325 36.2107 119.325 40.7015 Q119.325 42.8311 118.515 44.7524 Q117.728 46.6505 115.621 49.2431 Q115.043 49.9144 111.941 53.1319 Q108.839 56.3264 103.191 62.0902 Z" fill="#000000" fill-rule="nonzero" fill-opacity="1" /><path clip-path="url(#clip610)" d="M129.371 31.4654 L147.728 31.4654 L147.728 35.4006 L133.654 35.4006 L133.654 43.8727 Q134.672 43.5255 135.691 43.3635 Q136.709 43.1783 137.728 43.1783 Q143.515 43.1783 146.894 46.3496 Q150.274 49.5208 150.274 54.9375 Q150.274 60.5162 146.802 63.618 Q143.33 66.6967 137.01 66.6967 Q134.834 66.6967 132.566 66.3263 Q130.32 65.9559 127.913 65.2152 L127.913 60.5162 Q129.996 61.6504 132.219 62.206 Q134.441 62.7615 136.918 62.7615 Q140.922 62.7615 143.26 60.655 Q145.598 58.5486 145.598 54.9375 Q145.598 51.3264 143.26 49.2199 Q140.922 47.1135 136.918 47.1135 Q135.043 47.1135 133.168 47.5301 Q131.316 47.9468 129.371 48.8264 L129.371 31.4654 Z" fill="#000000" fill-rule="nonzero" fill-opacity="1" /><polyline clip-path="url(#clip611)" style="stroke:#009af9; stroke-linecap:round; stroke-linejoin:round; stroke-width:4; stroke-opacity:1; fill:none" points="186.274,853.271 187.093,859.81 187.947,865.678 188.908,863.454 189.989,885.398 191.205,886.32 192.572,862.474 194.111,868.144 195.843,873.657 197.79,886.166 199.981,869.286 202.446,839.627 205.219,861.312 208.339,884.374 211.848,884.08 215.797,916.974 220.239,930.135 225.236,931.968 230.858,959.26 237.182,945.906 244.297,943.151 252.302,943.706 261.307,943.989 271.437,985.862 282.834,976.411 295.656,987.638 310.08,1024.24 326.307,1006.37 344.563,967.974 365.101,976.01 388.206,881.197 414.199,1018.13 443.441,976.976 476.338,1007.63 513.348,981.732 554.984,982.791 600.089,1015.67 650.832,1082.21 706.34,1022.6 768.786,911.637 839.038,915.921 900.065,1074.83 968.721,1090.47 1045.96,1080.7 1132.85,985.115 1230.61,860.824 1340.58,855.388 1428.6,839.906 1527.01,863.176 1616.95,808.468 1718.14,831.651 1818.73,766.732 1931.91,727.17 2027.55,807.923 2118.18,610.126 2220.13,388.379 2316.9,712.063 2352.76,676.744 "/>
<polyline clip-path="url(#clip611)" style="stroke:#e26f46; stroke-linecap:round; stroke-linejoin:round; stroke-width:4; stroke-opacity:1; fill:none" points="186.274,684.66 187.093,693.078 187.947,700.633 188.908,697.77 189.989,726.018 191.205,727.205 192.572,696.507 194.111,703.807 195.843,710.904 197.79,727.007 199.981,705.277 202.446,667.095 205.219,695.011 208.339,724.701 211.848,724.322 215.797,766.668 220.239,783.61 225.236,785.97 230.858,821.104 237.182,803.912 244.297,800.367 252.302,801.081 261.307,801.445 271.437,855.35 282.834,843.183 295.656,857.636 310.08,904.761 326.307,881.756 344.563,832.322 365.101,842.666 388.206,720.61 414.199,896.894 443.441,843.911 476.338,883.369 513.348,850.033 554.984,851.396 600.089,893.718 650.832,979.381 706.34,902.64 768.786,759.797 839.038,765.313 900.065,969.882 968.721,990.019 1045.96,977.434 1132.85,854.389 1230.61,694.383 1340.58,687.385 1428.6,667.455 1527.01,697.412 1616.95,626.984 1718.14,656.828 1818.73,573.255 1931.91,522.325 2027.55,626.282 2118.18,371.65 2220.13,86.1857 2316.9,502.878 2352.76,457.41 "/>
<polyline clip-path="url(#clip611)" style="stroke:#3da44d; stroke-linecap:round; stroke-linejoin:round; stroke-width:4; stroke-opacity:1; fill:none" points="186.274,1210.78 187.093,1213.34 187.947,1215.63 188.908,1214.76 189.989,1223.34 191.205,1223.7 192.572,1214.38 194.111,1216.59 195.843,1218.75 197.79,1223.64 199.981,1217.04 202.446,1205.45 205.219,1213.93 208.339,1222.94 211.848,1222.82 215.797,1235.67 220.239,1240.82 225.236,1241.53 230.858,1252.2 237.182,1246.98 244.297,1245.9 252.302,1246.12 261.307,1246.23 271.437,1262.59 282.834,1258.9 295.656,1263.29 310.08,1277.59 326.307,1270.61 344.563,1255.6 365.101,1258.74 388.206,1221.7 414.199,1275.2 443.441,1259.12 476.338,1271.1 513.348,1260.98 554.984,1261.39 600.089,1274.24 650.832,1300.24 706.34,1276.95 768.786,1233.59 839.038,1235.26 900.065,1297.36 968.721,1303.47 1045.96,1299.65 1132.85,1262.3 1230.61,1213.73 1340.58,1211.61 1428.6,1205.56 1527.01,1214.65 1616.95,1193.28 1718.14,1202.34 1818.73,1176.97 1931.91,1161.51 2027.55,1193.06 2118.18,1115.78 2220.13,1029.13 2316.9,1155.61 2352.76,1141.81 "/>
<polyline clip-path="url(#clip611)" style="stroke:#c271d2; stroke-linecap:round; stroke-linejoin:round; stroke-width:4; stroke-opacity:1; fill:none" points="186.274,961.578 187.093,966.911 187.947,971.696 188.908,969.882 189.989,987.775 191.205,988.527 192.572,969.083 194.111,973.707 195.843,978.202 197.79,988.402 199.981,974.637 202.446,950.453 205.219,968.135 208.339,986.941 211.848,986.701 215.797,1013.52 220.239,1024.26 225.236,1025.75 230.858,1048 237.182,1037.12 244.297,1034.87 252.302,1035.32 261.307,1035.55 271.437,1069.7 282.834,1061.99 295.656,1071.14 310.08,1100.99 326.307,1086.42 344.563,1055.11 365.101,1061.66 388.206,984.35 414.199,1096.01 443.441,1062.45 476.338,1087.44 513.348,1066.33 554.984,1067.19 600.089,1094 650.832,1148.26 706.34,1099.65 768.786,1009.17 839.038,1012.67 900.065,1142.24 968.721,1155 1045.96,1147.03 1132.85,1069.09 1230.61,967.737 1340.58,963.304 1428.6,950.68 1527.01,969.656 1616.95,925.045 1718.14,943.949 1818.73,891.012 1931.91,858.752 2027.55,924.601 2118.18,763.311 2220.13,582.493 2316.9,846.434 2352.76,817.634 "/>
<polyline clip-path="url(#clip611)" style="stroke:#ac8d18; stroke-linecap:round; stroke-linejoin:round; stroke-width:4; stroke-opacity:1; fill:none" points="186.274,987.092 187.093,992.14 187.947,996.67 188.908,994.953 189.989,1011.89 191.205,1012.6 192.572,994.196 194.111,998.573 195.843,1002.83 197.79,1012.49 199.981,999.455 202.446,976.559 205.219,993.299 208.339,1011.1 211.848,1010.88 215.797,1036.27 220.239,1046.43 225.236,1047.84 230.858,1068.91 237.182,1058.6 244.297,1056.48 252.302,1056.9 261.307,1057.12 271.437,1089.45 282.834,1082.15 295.656,1090.82 310.08,1119.07 326.307,1105.28 344.563,1075.64 365.101,1081.84 388.206,1008.65 414.199,1114.36 443.441,1082.59 476.338,1106.25 513.348,1086.26 554.984,1087.07 600.089,1112.45 650.832,1163.82 706.34,1117.8 768.786,1032.15 839.038,1035.45 900.065,1158.12 968.721,1170.2 1045.96,1162.65 1132.85,1088.87 1230.61,992.922 1340.58,988.726 1428.6,976.775 1527.01,994.739 1616.95,952.507 1718.14,970.403 1818.73,920.289 1931.91,889.749 2027.55,952.086 2118.18,799.397 2220.13,628.22 2316.9,878.087 2352.76,850.823 "/>
<polyline clip-path="url(#clip611)" style="stroke:#00a9ad; stroke-linecap:round; stroke-linejoin:round; stroke-width:4; stroke-opacity:1; fill:none" points="186.274,1011.22 187.093,1016 187.947,1020.29 188.908,1018.66 189.989,1034.7 191.205,1035.37 192.572,1017.95 194.111,1022.09 195.843,1026.12 197.79,1035.26 199.981,1022.92 202.446,1001.25 205.219,1017.1 208.339,1033.95 211.848,1033.74 215.797,1057.78 220.239,1067.39 225.236,1068.73 230.858,1088.68 237.182,1078.92 244.297,1076.91 252.302,1077.31 261.307,1077.52 271.437,1108.12 282.834,1101.21 295.656,1109.42 310.08,1136.17 326.307,1123.11 344.563,1095.05 365.101,1100.92 388.206,1031.63 414.199,1131.71 443.441,1101.63 476.338,1124.03 513.348,1105.1 554.984,1105.88 600.089,1129.9 650.832,1178.53 706.34,1134.97 768.786,1053.88 839.038,1057.01 900.065,1173.14 968.721,1184.57 1045.96,1177.43 1132.85,1107.58 1230.61,1016.74 1340.58,1012.77 1428.6,1001.45 1527.01,1018.46 1616.95,978.478 1718.14,995.42 1818.73,947.976 1931.91,919.062 2027.55,978.079 2118.18,833.523 2220.13,671.464 2316.9,908.022 2352.76,882.21 "/>
<polyline clip-path="url(#clip611)" style="stroke:#ed5d92; stroke-linecap:round; stroke-linejoin:round; stroke-width:4; stroke-opacity:1; fill:none" points="186.274,896.468 187.093,902.527 187.947,907.963 188.908,905.902 189.989,926.23 191.205,927.085 192.572,904.994 194.111,910.247 195.843,915.354 197.79,926.942 199.981,911.305 202.446,883.829 205.219,903.918 208.339,925.282 211.848,925.01 215.797,955.483 220.239,967.674 225.236,969.373 230.858,994.655 237.182,982.284 244.297,979.733 252.302,980.247 261.307,980.508 271.437,1019.3 282.834,1010.54 295.656,1020.94 310.08,1054.86 326.307,1038.3 344.563,1002.73 365.101,1010.17 388.206,922.339 414.199,1049.19 443.441,1011.07 476.338,1039.46 513.348,1015.47 554.984,1016.45 600.089,1046.91 650.832,1108.55 706.34,1053.33 768.786,950.538 839.038,954.507 900.065,1101.72 968.721,1116.21 1045.96,1107.15 1132.85,1018.61 1230.61,903.465 1340.58,898.43 1428.6,884.087 1527.01,905.645 1616.95,854.964 1718.14,876.441 1818.73,816.301 1931.91,779.651 2027.55,854.459 2118.18,671.223 2220.13,465.8 2316.9,765.656 2352.76,732.937 "/>
<polyline clip-path="url(#clip611)" style="stroke:#c68125; stroke-linecap:round; stroke-linejoin:round; stroke-width:4; stroke-opacity:1; fill:none" points="186.274,1346.36 187.093,1347.4 187.947,1348.34 188.908,1347.98 189.989,1351.49 191.205,1351.63 192.572,1347.83 194.111,1348.73 195.843,1349.61 197.79,1351.61 199.981,1348.91 202.446,1344.18 205.219,1347.64 208.339,1351.32 211.848,1351.28 215.797,1356.53 220.239,1358.63 225.236,1358.92 230.858,1363.28 237.182,1361.15 244.297,1360.71 252.302,1360.8 261.307,1360.84 271.437,1367.53 282.834,1366.02 295.656,1367.82 310.08,1373.66 326.307,1370.81 344.563,1364.67 365.101,1365.96 388.206,1350.82 414.199,1372.69 443.441,1366.11 476.338,1371.01 513.348,1366.87 554.984,1367.04 600.089,1372.29 650.832,1382.92 706.34,1373.4 768.786,1355.68 839.038,1356.36 900.065,1381.74 968.721,1384.24 1045.96,1382.68 1132.85,1367.41 1230.61,1347.56 1340.58,1346.69 1428.6,1344.22 1527.01,1347.94 1616.95,1339.2 1718.14,1342.9 1818.73,1332.54 1931.91,1326.22 2027.55,1339.11 2118.18,1307.53 2220.13,1272.11 2316.9,1323.8 2352.76,1318.16 "/>
<path clip-path="url(#clip610)" d="M258.49 559.669 L564.235 559.669 L564.235 93.1086 L258.49 93.1086  Z" fill="#ffffff" fill-rule="evenodd" fill-opacity="1"/>
<polyline clip-path="url(#clip610)" style="stroke:#000000; stroke-linecap:round; stroke-linejoin:round; stroke-width:4; stroke-opacity:1; fill:none" points="258.49,559.669 564.235,559.669 564.235,93.1086 258.49,93.1086 258.49,559.669 "/>
<polyline clip-path="url(#clip610)" style="stroke:#009af9; stroke-linecap:round; stroke-linejoin:round; stroke-width:4; stroke-opacity:1; fill:none" points="282.562,144.949 426.994,144.949 "/>
<path clip-path="url(#clip610)" d="M451.066 151.997 L451.066 136.303 L455.325 136.303 L455.325 151.835 Q455.325 155.516 456.761 157.368 Q458.196 159.196 461.066 159.196 Q464.515 159.196 466.506 156.997 Q468.52 154.798 468.52 151.002 L468.52 136.303 L472.779 136.303 L472.779 162.229 L468.52 162.229 L468.52 158.247 Q466.969 160.608 464.909 161.766 Q462.872 162.9 460.163 162.9 Q455.696 162.9 453.381 160.122 Q451.066 157.344 451.066 151.997 M461.784 135.678 L461.784 135.678 Z" fill="#000000" fill-rule="nonzero" fill-opacity="1" /><path clip-path="url(#clip610)" d="M481.159 126.21 L490.973 126.21 L490.973 129.52 L485.418 129.52 L485.418 165.168 L490.973 165.168 L490.973 168.479 L481.159 168.479 L481.159 126.21 Z" fill="#000000" fill-rule="nonzero" fill-opacity="1" /><path clip-path="url(#clip610)" d="M501.459 158.293 L509.098 158.293 L509.098 131.928 L500.788 133.595 L500.788 129.335 L509.052 127.669 L513.728 127.669 L513.728 158.293 L521.367 158.293 L521.367 162.229 L501.459 162.229 L501.459 158.293 Z" fill="#000000" fill-rule="nonzero" fill-opacity="1" /><path clip-path="url(#clip610)" d="M540.163 126.21 L540.163 168.479 L530.348 168.479 L530.348 165.168 L535.881 165.168 L535.881 129.52 L530.348 129.52 L530.348 126.21 L540.163 126.21 Z" fill="#000000" fill-rule="nonzero" fill-opacity="1" /><polyline clip-path="url(#clip610)" style="stroke:#e26f46; stroke-linecap:round; stroke-linejoin:round; stroke-width:4; stroke-opacity:1; fill:none" points="282.562,196.789 426.994,196.789 "/>
<path clip-path="url(#clip610)" d="M451.066 203.837 L451.066 188.143 L455.325 188.143 L455.325 203.675 Q455.325 207.356 456.761 209.208 Q458.196 211.036 461.066 211.036 Q464.515 211.036 466.506 208.837 Q468.52 206.638 468.52 202.842 L468.52 188.143 L472.779 188.143 L472.779 214.069 L468.52 214.069 L468.52 210.087 Q466.969 212.448 464.909 213.606 Q462.872 214.74 460.163 214.74 Q455.696 214.74 453.381 211.962 Q451.066 209.184 451.066 203.837 M461.784 187.518 L461.784 187.518 Z" fill="#000000" fill-rule="nonzero" fill-opacity="1" /><path clip-path="url(#clip610)" d="M481.159 178.05 L490.973 178.05 L490.973 181.36 L485.418 181.36 L485.418 217.008 L490.973 217.008 L490.973 220.319 L481.159 220.319 L481.159 178.05 Z" fill="#000000" fill-rule="nonzero" fill-opacity="1" /><path clip-path="url(#clip610)" d="M504.677 210.133 L520.996 210.133 L520.996 214.069 L499.052 214.069 L499.052 210.133 Q501.714 207.379 506.297 202.749 Q510.904 198.096 512.084 196.754 Q514.33 194.231 515.209 192.495 Q516.112 190.735 516.112 189.046 Q516.112 186.291 514.168 184.555 Q512.246 182.819 509.145 182.819 Q506.946 182.819 504.492 183.583 Q502.061 184.347 499.284 185.897 L499.284 181.175 Q502.108 180.041 504.561 179.462 Q507.015 178.884 509.052 178.884 Q514.422 178.884 517.617 181.569 Q520.811 184.254 520.811 188.745 Q520.811 190.874 520.001 192.796 Q519.214 194.694 517.108 197.286 Q516.529 197.958 513.427 201.175 Q510.325 204.37 504.677 210.133 Z" fill="#000000" fill-rule="nonzero" fill-opacity="1" /><path clip-path="url(#clip610)" d="M540.163 178.05 L540.163 220.319 L530.348 220.319 L530.348 217.008 L535.881 217.008 L535.881 181.36 L530.348 181.36 L530.348 178.05 L540.163 178.05 Z" fill="#000000" fill-rule="nonzero" fill-opacity="1" /><polyline clip-path="url(#clip610)" style="stroke:#3da44d; stroke-linecap:round; stroke-linejoin:round; stroke-width:4; stroke-opacity:1; fill:none" points="282.562,248.629 426.994,248.629 "/>
<path clip-path="url(#clip610)" d="M451.066 255.677 L451.066 239.983 L455.325 239.983 L455.325 255.515 Q455.325 259.196 456.761 261.048 Q458.196 262.876 461.066 262.876 Q464.515 262.876 466.506 260.677 Q468.52 258.478 468.52 254.682 L468.52 239.983 L472.779 239.983 L472.779 265.909 L468.52 265.909 L468.52 261.927 Q466.969 264.288 464.909 265.446 Q462.872 266.58 460.163 266.58 Q455.696 266.58 453.381 263.802 Q451.066 261.024 451.066 255.677 M461.784 239.358 L461.784 239.358 Z" fill="#000000" fill-rule="nonzero" fill-opacity="1" /><path clip-path="url(#clip610)" d="M481.159 229.89 L490.973 229.89 L490.973 233.2 L485.418 233.2 L485.418 268.848 L490.973 268.848 L490.973 272.159 L481.159 272.159 L481.159 229.89 Z" fill="#000000" fill-rule="nonzero" fill-opacity="1" /><path clip-path="url(#clip610)" d="M514.816 247.274 Q518.172 247.992 520.047 250.261 Q521.945 252.529 521.945 255.862 Q521.945 260.978 518.427 263.779 Q514.908 266.58 508.427 266.58 Q506.251 266.58 503.936 266.14 Q501.645 265.723 499.191 264.867 L499.191 260.353 Q501.135 261.487 503.45 262.066 Q505.765 262.645 508.288 262.645 Q512.686 262.645 514.978 260.909 Q517.293 259.173 517.293 255.862 Q517.293 252.807 515.14 251.094 Q513.01 249.358 509.191 249.358 L505.163 249.358 L505.163 245.515 L509.376 245.515 Q512.825 245.515 514.654 244.149 Q516.483 242.761 516.483 240.168 Q516.483 237.506 514.584 236.094 Q512.709 234.659 509.191 234.659 Q507.27 234.659 505.071 235.075 Q502.872 235.492 500.233 236.372 L500.233 232.205 Q502.895 231.464 505.209 231.094 Q507.547 230.724 509.608 230.724 Q514.932 230.724 518.033 233.154 Q521.135 235.562 521.135 239.682 Q521.135 242.552 519.492 244.543 Q517.848 246.511 514.816 247.274 Z" fill="#000000" fill-rule="nonzero" fill-opacity="1" /><path clip-path="url(#clip610)" d="M540.163 229.89 L540.163 272.159 L530.348 272.159 L530.348 268.848 L535.881 268.848 L535.881 233.2 L530.348 233.2 L530.348 229.89 L540.163 229.89 Z" fill="#000000" fill-rule="nonzero" fill-opacity="1" /><polyline clip-path="url(#clip610)" style="stroke:#c271d2; stroke-linecap:round; stroke-linejoin:round; stroke-width:4; stroke-opacity:1; fill:none" points="282.562,300.469 426.994,300.469 "/>
<path clip-path="url(#clip610)" d="M451.066 307.517 L451.066 291.823 L455.325 291.823 L455.325 307.355 Q455.325 311.036 456.761 312.888 Q458.196 314.716 461.066 314.716 Q464.515 314.716 466.506 312.517 Q468.52 310.318 468.52 306.522 L468.52 291.823 L472.779 291.823 L472.779 317.749 L468.52 317.749 L468.52 313.767 Q466.969 316.128 464.909 317.286 Q462.872 318.42 460.163 318.42 Q455.696 318.42 453.381 315.642 Q451.066 312.864 451.066 307.517 M461.784 291.198 L461.784 291.198 Z" fill="#000000" fill-rule="nonzero" fill-opacity="1" /><path clip-path="url(#clip610)" d="M481.159 281.73 L490.973 281.73 L490.973 285.04 L485.418 285.04 L485.418 320.688 L490.973 320.688 L490.973 323.999 L481.159 323.999 L481.159 281.73 Z" fill="#000000" fill-rule="nonzero" fill-opacity="1" /><path clip-path="url(#clip610)" d="M513.496 287.263 L501.691 305.712 L513.496 305.712 L513.496 287.263 M512.27 283.189 L518.149 283.189 L518.149 305.712 L523.08 305.712 L523.08 309.601 L518.149 309.601 L518.149 317.749 L513.496 317.749 L513.496 309.601 L497.895 309.601 L497.895 305.087 L512.27 283.189 Z" fill="#000000" fill-rule="nonzero" fill-opacity="1" /><path clip-path="url(#clip610)" d="M540.163 281.73 L540.163 323.999 L530.348 323.999 L530.348 320.688 L535.881 320.688 L535.881 285.04 L530.348 285.04 L530.348 281.73 L540.163 281.73 Z" fill="#000000" fill-rule="nonzero" fill-opacity="1" /><polyline clip-path="url(#clip610)" style="stroke:#ac8d18; stroke-linecap:round; stroke-linejoin:round; stroke-width:4; stroke-opacity:1; fill:none" points="282.562,352.309 426.994,352.309 "/>
<path clip-path="url(#clip610)" d="M451.066 359.357 L451.066 343.663 L455.325 343.663 L455.325 359.195 Q455.325 362.876 456.761 364.728 Q458.196 366.556 461.066 366.556 Q464.515 366.556 466.506 364.357 Q468.52 362.158 468.52 358.362 L468.52 343.663 L472.779 343.663 L472.779 369.589 L468.52 369.589 L468.52 365.607 Q466.969 367.968 464.909 369.126 Q462.872 370.26 460.163 370.26 Q455.696 370.26 453.381 367.482 Q451.066 364.704 451.066 359.357 M461.784 343.038 L461.784 343.038 Z" fill="#000000" fill-rule="nonzero" fill-opacity="1" /><path clip-path="url(#clip610)" d="M481.159 333.57 L490.973 333.57 L490.973 336.88 L485.418 336.88 L485.418 372.528 L490.973 372.528 L490.973 375.839 L481.159 375.839 L481.159 333.57 Z" fill="#000000" fill-rule="nonzero" fill-opacity="1" /><path clip-path="url(#clip610)" d="M500.696 335.029 L519.052 335.029 L519.052 338.964 L504.978 338.964 L504.978 347.436 Q505.996 347.089 507.015 346.927 Q508.034 346.742 509.052 346.742 Q514.839 346.742 518.219 349.913 Q521.598 353.084 521.598 358.501 Q521.598 364.079 518.126 367.181 Q514.654 370.26 508.334 370.26 Q506.159 370.26 503.89 369.89 Q501.645 369.519 499.237 368.778 L499.237 364.079 Q501.321 365.214 503.543 365.769 Q505.765 366.325 508.242 366.325 Q512.246 366.325 514.584 364.218 Q516.922 362.112 516.922 358.501 Q516.922 354.89 514.584 352.783 Q512.246 350.677 508.242 350.677 Q506.367 350.677 504.492 351.093 Q502.64 351.51 500.696 352.39 L500.696 335.029 Z" fill="#000000" fill-rule="nonzero" fill-opacity="1" /><path clip-path="url(#clip610)" d="M540.163 333.57 L540.163 375.839 L530.348 375.839 L530.348 372.528 L535.881 372.528 L535.881 336.88 L530.348 336.88 L530.348 333.57 L540.163 333.57 Z" fill="#000000" fill-rule="nonzero" fill-opacity="1" /><polyline clip-path="url(#clip610)" style="stroke:#00a9ad; stroke-linecap:round; stroke-linejoin:round; stroke-width:4; stroke-opacity:1; fill:none" points="282.562,404.149 426.994,404.149 "/>
<path clip-path="url(#clip610)" d="M451.066 411.197 L451.066 395.503 L455.325 395.503 L455.325 411.035 Q455.325 414.716 456.761 416.568 Q458.196 418.396 461.066 418.396 Q464.515 418.396 466.506 416.197 Q468.52 413.998 468.52 410.202 L468.52 395.503 L472.779 395.503 L472.779 421.429 L468.52 421.429 L468.52 417.447 Q466.969 419.808 464.909 420.966 Q462.872 422.1 460.163 422.1 Q455.696 422.1 453.381 419.322 Q451.066 416.544 451.066 411.197 M461.784 394.878 L461.784 394.878 Z" fill="#000000" fill-rule="nonzero" fill-opacity="1" /><path clip-path="url(#clip610)" d="M481.159 385.41 L490.973 385.41 L490.973 388.72 L485.418 388.72 L485.418 424.368 L490.973 424.368 L490.973 427.679 L481.159 427.679 L481.159 385.41 Z" fill="#000000" fill-rule="nonzero" fill-opacity="1" /><path clip-path="url(#clip610)" d="M511.228 402.285 Q508.08 402.285 506.228 404.438 Q504.399 406.591 504.399 410.341 Q504.399 414.068 506.228 416.243 Q508.08 418.396 511.228 418.396 Q514.376 418.396 516.205 416.243 Q518.057 414.068 518.057 410.341 Q518.057 406.591 516.205 404.438 Q514.376 402.285 511.228 402.285 M520.51 387.633 L520.51 391.892 Q518.751 391.058 516.946 390.619 Q515.163 390.179 513.404 390.179 Q508.774 390.179 506.321 393.304 Q503.89 396.429 503.543 402.748 Q504.909 400.734 506.969 399.669 Q509.029 398.582 511.506 398.582 Q516.714 398.582 519.723 401.753 Q522.756 404.901 522.756 410.341 Q522.756 415.665 519.608 418.882 Q516.459 422.1 511.228 422.1 Q505.233 422.1 502.061 417.517 Q498.89 412.91 498.89 404.183 Q498.89 395.989 502.779 391.128 Q506.668 386.244 513.219 386.244 Q514.978 386.244 516.76 386.591 Q518.566 386.938 520.51 387.633 Z" fill="#000000" fill-rule="nonzero" fill-opacity="1" /><path clip-path="url(#clip610)" d="M540.163 385.41 L540.163 427.679 L530.348 427.679 L530.348 424.368 L535.881 424.368 L535.881 388.72 L530.348 388.72 L530.348 385.41 L540.163 385.41 Z" fill="#000000" fill-rule="nonzero" fill-opacity="1" /><polyline clip-path="url(#clip610)" style="stroke:#ed5d92; stroke-linecap:round; stroke-linejoin:round; stroke-width:4; stroke-opacity:1; fill:none" points="282.562,455.989 426.994,455.989 "/>
<path clip-path="url(#clip610)" d="M451.066 463.037 L451.066 447.343 L455.325 447.343 L455.325 462.875 Q455.325 466.556 456.761 468.408 Q458.196 470.236 461.066 470.236 Q464.515 470.236 466.506 468.037 Q468.52 465.838 468.52 462.042 L468.52 447.343 L472.779 447.343 L472.779 473.269 L468.52 473.269 L468.52 469.287 Q466.969 471.648 464.909 472.806 Q462.872 473.94 460.163 473.94 Q455.696 473.94 453.381 471.162 Q451.066 468.384 451.066 463.037 M461.784 446.718 L461.784 446.718 Z" fill="#000000" fill-rule="nonzero" fill-opacity="1" /><path clip-path="url(#clip610)" d="M481.159 437.25 L490.973 437.25 L490.973 440.56 L485.418 440.56 L485.418 476.208 L490.973 476.208 L490.973 479.519 L481.159 479.519 L481.159 437.25 Z" fill="#000000" fill-rule="nonzero" fill-opacity="1" /><path clip-path="url(#clip610)" d="M499.469 438.709 L521.691 438.709 L521.691 440.699 L509.145 473.269 L504.26 473.269 L516.066 442.644 L499.469 442.644 L499.469 438.709 Z" fill="#000000" fill-rule="nonzero" fill-opacity="1" /><path clip-path="url(#clip610)" d="M540.163 437.25 L540.163 479.519 L530.348 479.519 L530.348 476.208 L535.881 476.208 L535.881 440.56 L530.348 440.56 L530.348 437.25 L540.163 437.25 Z" fill="#000000" fill-rule="nonzero" fill-opacity="1" /><polyline clip-path="url(#clip610)" style="stroke:#c68125; stroke-linecap:round; stroke-linejoin:round; stroke-width:4; stroke-opacity:1; fill:none" points="282.562,507.829 426.994,507.829 "/>
<path clip-path="url(#clip610)" d="M451.066 514.877 L451.066 499.183 L455.325 499.183 L455.325 514.715 Q455.325 518.396 456.761 520.248 Q458.196 522.076 461.066 522.076 Q464.515 522.076 466.506 519.877 Q468.52 517.678 468.52 513.882 L468.52 499.183 L472.779 499.183 L472.779 525.109 L468.52 525.109 L468.52 521.127 Q466.969 523.488 464.909 524.646 Q462.872 525.78 460.163 525.78 Q455.696 525.78 453.381 523.002 Q451.066 520.224 451.066 514.877 M461.784 498.558 L461.784 498.558 Z" fill="#000000" fill-rule="nonzero" fill-opacity="1" /><path clip-path="url(#clip610)" d="M481.159 489.09 L490.973 489.09 L490.973 492.4 L485.418 492.4 L485.418 528.048 L490.973 528.048 L490.973 531.359 L481.159 531.359 L481.159 489.09 Z" fill="#000000" fill-rule="nonzero" fill-opacity="1" /><path clip-path="url(#clip610)" d="M510.649 508.697 Q507.316 508.697 505.395 510.479 Q503.497 512.261 503.497 515.386 Q503.497 518.511 505.395 520.294 Q507.316 522.076 510.649 522.076 Q513.983 522.076 515.904 520.294 Q517.825 518.488 517.825 515.386 Q517.825 512.261 515.904 510.479 Q514.006 508.697 510.649 508.697 M505.973 506.706 Q502.964 505.965 501.274 503.905 Q499.608 501.845 499.608 498.882 Q499.608 494.738 502.547 492.331 Q505.51 489.924 510.649 489.924 Q515.811 489.924 518.751 492.331 Q521.691 494.738 521.691 498.882 Q521.691 501.845 520.001 503.905 Q518.334 505.965 515.348 506.706 Q518.728 507.493 520.603 509.785 Q522.501 512.076 522.501 515.386 Q522.501 520.41 519.422 523.095 Q516.367 525.78 510.649 525.78 Q504.932 525.78 501.853 523.095 Q498.797 520.41 498.797 515.386 Q498.797 512.076 500.696 509.785 Q502.594 507.493 505.973 506.706 M504.26 499.322 Q504.26 502.007 505.927 503.512 Q507.617 505.016 510.649 505.016 Q513.658 505.016 515.348 503.512 Q517.061 502.007 517.061 499.322 Q517.061 496.637 515.348 495.132 Q513.658 493.627 510.649 493.627 Q507.617 493.627 505.927 495.132 Q504.26 496.637 504.26 499.322 Z" fill="#000000" fill-rule="nonzero" fill-opacity="1" /><path clip-path="url(#clip610)" d="M540.163 489.09 L540.163 531.359 L530.348 531.359 L530.348 528.048 L535.881 528.048 L535.881 492.4 L530.348 492.4 L530.348 489.09 L540.163 489.09 Z" fill="#000000" fill-rule="nonzero" fill-opacity="1" /></svg>
