<?xml version="1.0" encoding="utf-8"?>
<svg xmlns="http://www.w3.org/2000/svg" xmlns:xlink="http://www.w3.org/1999/xlink" width="600" height="400" viewBox="0 0 2400 1600">
<defs>
  <clipPath id="clip460">
    <rect x="0" y="0" width="2400" height="1600"/>
  </clipPath>
</defs>
<path clip-path="url(#clip460)" d="M0 1600 L2400 1600 L2400 0 L0 0  Z" fill="#ffffff" fill-rule="evenodd" fill-opacity="1"/>
<defs>
  <clipPath id="clip461">
    <rect x="138" y="47" width="2215" height="1377"/>
  </clipPath>
</defs>
<path clip-path="url(#clip460)" d="M138.959 1423.18 L2352.76 1423.18 L2352.76 47.2441 L138.959 47.2441  Z" fill="#ffffff" fill-rule="evenodd" fill-opacity="1"/>
<polyline clip-path="url(#clip461)" style="stroke:#000000; stroke-linecap:round; stroke-linejoin:round; stroke-width:2; stroke-opacity:0.1; fill:none" points="138.959,1423.18 138.959,47.2441 "/>
<polyline clip-path="url(#clip461)" style="stroke:#000000; stroke-linecap:round; stroke-linejoin:round; stroke-width:2; stroke-opacity:0.1; fill:none" points="581.719,1423.18 581.719,47.2441 "/>
<polyline clip-path="url(#clip461)" style="stroke:#000000; stroke-linecap:round; stroke-linejoin:round; stroke-width:2; stroke-opacity:0.1; fill:none" points="1024.48,1423.18 1024.48,47.2441 "/>
<polyline clip-path="url(#clip461)" style="stroke:#000000; stroke-linecap:round; stroke-linejoin:round; stroke-width:2; stroke-opacity:0.1; fill:none" points="1467.24,1423.18 1467.24,47.2441 "/>
<polyline clip-path="url(#clip461)" style="stroke:#000000; stroke-linecap:round; stroke-linejoin:round; stroke-width:2; stroke-opacity:0.1; fill:none" points="1910,1423.18 1910,47.2441 "/>
<polyline clip-path="url(#clip461)" style="stroke:#000000; stroke-linecap:round; stroke-linejoin:round; stroke-width:2; stroke-opacity:0.1; fill:none" points="2352.76,1423.18 2352.76,47.2441 "/>
<polyline clip-path="url(#clip461)" style="stroke:#000000; stroke-linecap:round; stroke-linejoin:round; stroke-width:2; stroke-opacity:0.1; fill:none" points="138.959,1184.61 2352.76,1184.61 "/>
<polyline clip-path="url(#clip461)" style="stroke:#000000; stroke-linecap:round; stroke-linejoin:round; stroke-width:2; stroke-opacity:0.1; fill:none" points="138.959,918.433 2352.76,918.433 "/>
<polyline clip-path="url(#clip461)" style="stroke:#000000; stroke-linecap:round; stroke-linejoin:round; stroke-width:2; stroke-opacity:0.1; fill:none" points="138.959,652.258 2352.76,652.258 "/>
<polyline clip-path="url(#clip461)" style="stroke:#000000; stroke-linecap:round; stroke-linejoin:round; stroke-width:2; stroke-opacity:0.1; fill:none" points="138.959,386.084 2352.76,386.084 "/>
<polyline clip-path="url(#clip461)" style="stroke:#000000; stroke-linecap:round; stroke-linejoin:round; stroke-width:2; stroke-opacity:0.1; fill:none" points="138.959,119.909 2352.76,119.909 "/>
<polyline clip-path="url(#clip460)" style="stroke:#000000; stroke-linecap:round; stroke-linejoin:round; stroke-width:4; stroke-opacity:1; fill:none" points="138.959,1423.18 2352.76,1423.18 "/>
<polyline clip-path="url(#clip460)" style="stroke:#000000; stroke-linecap:round; stroke-linejoin:round; stroke-width:4; stroke-opacity:1; fill:none" points="138.959,1423.18 138.959,1404.28 "/>
<polyline clip-path="url(#clip460)" style="stroke:#000000; stroke-linecap:round; stroke-linejoin:round; stroke-width:4; stroke-opacity:1; fill:none" points="581.719,1423.18 581.719,1404.28 "/>
<polyline clip-path="url(#clip460)" style="stroke:#000000; stroke-linecap:round; stroke-linejoin:round; stroke-width:4; stroke-opacity:1; fill:none" points="1024.48,1423.18 1024.48,1404.28 "/>
<polyline clip-path="url(#clip460)" style="stroke:#000000; stroke-linecap:round; stroke-linejoin:round; stroke-width:4; stroke-opacity:1; fill:none" points="1467.24,1423.18 1467.24,1404.28 "/>
<polyline clip-path="url(#clip460)" style="stroke:#000000; stroke-linecap:round; stroke-linejoin:round; stroke-width:4; stroke-opacity:1; fill:none" points="1910,1423.18 1910,1404.28 "/>
<polyline clip-path="url(#clip460)" style="stroke:#000000; stroke-linecap:round; stroke-linejoin:round; stroke-width:4; stroke-opacity:1; fill:none" points="2352.76,1423.18 2352.76,1404.28 "/>
<path clip-path="url(#clip460)" d="M116.344 1454.1 Q112.733 1454.1 110.904 1457.66 Q109.098 1461.2 109.098 1468.33 Q109.098 1475.44 110.904 1479.01 Q112.733 1482.55 116.344 1482.55 Q119.978 1482.55 121.784 1479.01 Q123.612 1475.44 123.612 1468.33 Q123.612 1461.2 121.784 1457.66 Q119.978 1454.1 116.344 1454.1 M116.344 1450.39 Q122.154 1450.39 125.21 1455 Q128.288 1459.58 128.288 1468.33 Q128.288 1477.06 125.21 1481.67 Q122.154 1486.25 116.344 1486.25 Q110.534 1486.25 107.455 1481.67 Q104.399 1477.06 104.399 1468.33 Q104.399 1459.58 107.455 1455 Q110.534 1450.39 116.344 1450.39 Z" fill="#000000" fill-rule="nonzero" fill-opacity="1" /><path clip-path="url(#clip460)" d="M136.506 1479.7 L141.39 1479.7 L141.39 1485.58 L136.506 1485.58 L136.506 1479.7 Z" fill="#000000" fill-rule="nonzero" fill-opacity="1" /><path clip-path="url(#clip460)" d="M161.575 1454.1 Q157.964 1454.1 156.135 1457.66 Q154.33 1461.2 154.33 1468.33 Q154.33 1475.44 156.135 1479.01 Q157.964 1482.55 161.575 1482.55 Q165.209 1482.55 167.015 1479.01 Q168.844 1475.44 168.844 1468.33 Q168.844 1461.2 167.015 1457.66 Q165.209 1454.1 161.575 1454.1 M161.575 1450.39 Q167.385 1450.39 170.441 1455 Q173.519 1459.58 173.519 1468.33 Q173.519 1477.06 170.441 1481.67 Q167.385 1486.25 161.575 1486.25 Q155.765 1486.25 152.686 1481.67 Q149.631 1477.06 149.631 1468.33 Q149.631 1459.58 152.686 1455 Q155.765 1450.39 161.575 1450.39 Z" fill="#000000" fill-rule="nonzero" fill-opacity="1" /><path clip-path="url(#clip460)" d="M559.902 1454.1 Q556.291 1454.1 554.462 1457.66 Q552.656 1461.2 552.656 1468.33 Q552.656 1475.44 554.462 1479.01 Q556.291 1482.55 559.902 1482.55 Q563.536 1482.55 565.342 1479.01 Q567.17 1475.44 567.17 1468.33 Q567.17 1461.2 565.342 1457.66 Q563.536 1454.1 559.902 1454.1 M559.902 1450.39 Q565.712 1450.39 568.767 1455 Q571.846 1459.58 571.846 1468.33 Q571.846 1477.06 568.767 1481.67 Q565.712 1486.25 559.902 1486.25 Q554.092 1486.25 551.013 1481.67 Q547.957 1477.06 547.957 1468.33 Q547.957 1459.58 551.013 1455 Q554.092 1450.39 559.902 1450.39 Z" fill="#000000" fill-rule="nonzero" fill-opacity="1" /><path clip-path="url(#clip460)" d="M580.064 1479.7 L584.948 1479.7 L584.948 1485.58 L580.064 1485.58 L580.064 1479.7 Z" fill="#000000" fill-rule="nonzero" fill-opacity="1" /><path clip-path="url(#clip460)" d="M599.161 1481.64 L615.48 1481.64 L615.48 1485.58 L593.536 1485.58 L593.536 1481.64 Q596.198 1478.89 600.781 1474.26 Q605.388 1469.61 606.568 1468.27 Q608.813 1465.74 609.693 1464.01 Q610.596 1462.25 610.596 1460.56 Q610.596 1457.8 608.651 1456.07 Q606.73 1454.33 603.628 1454.33 Q601.429 1454.33 598.976 1455.09 Q596.545 1455.86 593.767 1457.41 L593.767 1452.69 Q596.591 1451.55 599.045 1450.97 Q601.499 1450.39 603.536 1450.39 Q608.906 1450.39 612.101 1453.08 Q615.295 1455.77 615.295 1460.26 Q615.295 1462.39 614.485 1464.31 Q613.698 1466.2 611.591 1468.8 Q611.013 1469.47 607.911 1472.69 Q604.809 1475.88 599.161 1481.64 Z" fill="#000000" fill-rule="nonzero" fill-opacity="1" /><path clip-path="url(#clip460)" d="M1001.62 1454.1 Q998.008 1454.1 996.18 1457.66 Q994.374 1461.2 994.374 1468.33 Q994.374 1475.44 996.18 1479.01 Q998.008 1482.55 1001.62 1482.55 Q1005.25 1482.55 1007.06 1479.01 Q1008.89 1475.44 1008.89 1468.33 Q1008.89 1461.2 1007.06 1457.66 Q1005.25 1454.1 1001.62 1454.1 M1001.62 1450.39 Q1007.43 1450.39 1010.49 1455 Q1013.56 1459.58 1013.56 1468.33 Q1013.56 1477.06 1010.49 1481.67 Q1007.43 1486.25 1001.62 1486.25 Q995.809 1486.25 992.731 1481.67 Q989.675 1477.06 989.675 1468.33 Q989.675 1459.58 992.731 1455 Q995.809 1450.39 1001.62 1450.39 Z" fill="#000000" fill-rule="nonzero" fill-opacity="1" /><path clip-path="url(#clip460)" d="M1021.78 1479.7 L1026.67 1479.7 L1026.67 1485.58 L1021.78 1485.58 L1021.78 1479.7 Z" fill="#000000" fill-rule="nonzero" fill-opacity="1" /><path clip-path="url(#clip460)" d="M1049.7 1455.09 L1037.89 1473.54 L1049.7 1473.54 L1049.7 1455.09 M1048.47 1451.02 L1054.35 1451.02 L1054.35 1473.54 L1059.28 1473.54 L1059.28 1477.43 L1054.35 1477.43 L1054.35 1485.58 L1049.7 1485.58 L1049.7 1477.43 L1034.1 1477.43 L1034.1 1472.92 L1048.47 1451.02 Z" fill="#000000" fill-rule="nonzero" fill-opacity="1" /><path clip-path="url(#clip460)" d="M1444.54 1454.1 Q1440.93 1454.1 1439.1 1457.66 Q1437.3 1461.2 1437.3 1468.33 Q1437.3 1475.44 1439.1 1479.01 Q1440.93 1482.55 1444.54 1482.55 Q1448.17 1482.55 1449.98 1479.01 Q1451.81 1475.44 1451.81 1468.33 Q1451.81 1461.2 1449.98 1457.66 Q1448.17 1454.1 1444.54 1454.1 M1444.54 1450.39 Q1450.35 1450.39 1453.41 1455 Q1456.49 1459.58 1456.49 1468.33 Q1456.49 1477.06 1453.41 1481.67 Q1450.35 1486.25 1444.54 1486.25 Q1438.73 1486.25 1435.65 1481.67 Q1432.6 1477.06 1432.6 1468.33 Q1432.6 1459.58 1435.65 1455 Q1438.73 1450.39 1444.54 1450.39 Z" fill="#000000" fill-rule="nonzero" fill-opacity="1" /><path clip-path="url(#clip460)" d="M1464.7 1479.7 L1469.59 1479.7 L1469.59 1485.58 L1464.7 1485.58 L1464.7 1479.7 Z" fill="#000000" fill-rule="nonzero" fill-opacity="1" /><path clip-path="url(#clip460)" d="M1490.35 1466.44 Q1487.2 1466.44 1485.35 1468.59 Q1483.52 1470.74 1483.52 1474.49 Q1483.52 1478.22 1485.35 1480.39 Q1487.2 1482.55 1490.35 1482.55 Q1493.5 1482.55 1495.33 1480.39 Q1497.18 1478.22 1497.18 1474.49 Q1497.18 1470.74 1495.33 1468.59 Q1493.5 1466.44 1490.35 1466.44 M1499.63 1451.78 L1499.63 1456.04 Q1497.87 1455.21 1496.07 1454.77 Q1494.29 1454.33 1492.53 1454.33 Q1487.9 1454.33 1485.44 1457.45 Q1483.01 1460.58 1482.67 1466.9 Q1484.03 1464.89 1486.09 1463.82 Q1488.15 1462.73 1490.63 1462.73 Q1495.84 1462.73 1498.85 1465.9 Q1501.88 1469.05 1501.88 1474.49 Q1501.88 1479.82 1498.73 1483.03 Q1495.58 1486.25 1490.35 1486.25 Q1484.36 1486.25 1481.18 1481.67 Q1478.01 1477.06 1478.01 1468.33 Q1478.01 1460.14 1481.9 1455.28 Q1485.79 1450.39 1492.34 1450.39 Q1494.1 1450.39 1495.88 1450.74 Q1497.69 1451.09 1499.63 1451.78 Z" fill="#000000" fill-rule="nonzero" fill-opacity="1" /><path clip-path="url(#clip460)" d="M1887.43 1454.1 Q1883.82 1454.1 1881.99 1457.66 Q1880.18 1461.2 1880.18 1468.33 Q1880.18 1475.44 1881.99 1479.01 Q1883.82 1482.55 1887.43 1482.55 Q1891.06 1482.55 1892.87 1479.01 Q1894.7 1475.44 1894.7 1468.33 Q1894.7 1461.2 1892.87 1457.66 Q1891.06 1454.1 1887.43 1454.1 M1887.43 1450.39 Q1893.24 1450.39 1896.29 1455 Q1899.37 1459.58 1899.37 1468.33 Q1899.37 1477.06 1896.29 1481.67 Q1893.24 1486.25 1887.43 1486.25 Q1881.62 1486.25 1878.54 1481.67 Q1875.48 1477.06 1875.48 1468.33 Q1875.48 1459.58 1878.54 1455 Q1881.62 1450.39 1887.43 1450.39 Z" fill="#000000" fill-rule="nonzero" fill-opacity="1" /><path clip-path="url(#clip460)" d="M1907.59 1479.7 L1912.47 1479.7 L1912.47 1485.58 L1907.59 1485.58 L1907.59 1479.7 Z" fill="#000000" fill-rule="nonzero" fill-opacity="1" /><path clip-path="url(#clip460)" d="M1932.66 1469.17 Q1929.33 1469.17 1927.4 1470.95 Q1925.51 1472.73 1925.51 1475.86 Q1925.51 1478.98 1927.4 1480.77 Q1929.33 1482.55 1932.66 1482.55 Q1935.99 1482.55 1937.91 1480.77 Q1939.83 1478.96 1939.83 1475.86 Q1939.83 1472.73 1937.91 1470.95 Q1936.01 1469.17 1932.66 1469.17 M1927.98 1467.18 Q1924.97 1466.44 1923.28 1464.38 Q1921.62 1462.32 1921.62 1459.35 Q1921.62 1455.21 1924.56 1452.8 Q1927.52 1450.39 1932.66 1450.39 Q1937.82 1450.39 1940.76 1452.8 Q1943.7 1455.21 1943.7 1459.35 Q1943.7 1462.32 1942.01 1464.38 Q1940.34 1466.44 1937.36 1467.18 Q1940.74 1467.96 1942.61 1470.26 Q1944.51 1472.55 1944.51 1475.86 Q1944.51 1480.88 1941.43 1483.57 Q1938.38 1486.25 1932.66 1486.25 Q1926.94 1486.25 1923.86 1483.57 Q1920.81 1480.88 1920.81 1475.86 Q1920.81 1472.55 1922.7 1470.26 Q1924.6 1467.96 1927.98 1467.18 M1926.27 1459.79 Q1926.27 1462.48 1927.94 1463.98 Q1929.63 1465.49 1932.66 1465.49 Q1935.67 1465.49 1937.36 1463.98 Q1939.07 1462.48 1939.07 1459.79 Q1939.07 1457.11 1937.36 1455.6 Q1935.67 1454.1 1932.66 1454.1 Q1929.63 1454.1 1927.94 1455.6 Q1926.27 1457.11 1926.27 1459.79 Z" fill="#000000" fill-rule="nonzero" fill-opacity="1" /><path clip-path="url(#clip460)" d="M2319.91 1481.64 L2327.55 1481.64 L2327.55 1455.28 L2319.24 1456.95 L2319.24 1452.69 L2327.5 1451.02 L2332.18 1451.02 L2332.18 1481.64 L2339.82 1481.64 L2339.82 1485.58 L2319.91 1485.58 L2319.91 1481.64 Z" fill="#000000" fill-rule="nonzero" fill-opacity="1" /><path clip-path="url(#clip460)" d="M2349.26 1479.7 L2354.14 1479.7 L2354.14 1485.58 L2349.26 1485.58 L2349.26 1479.7 Z" fill="#000000" fill-rule="nonzero" fill-opacity="1" /><path clip-path="url(#clip460)" d="M2374.33 1454.1 Q2370.72 1454.1 2368.89 1457.66 Q2367.08 1461.2 2367.08 1468.33 Q2367.08 1475.44 2368.89 1479.01 Q2370.72 1482.55 2374.33 1482.55 Q2377.96 1482.55 2379.77 1479.01 Q2381.6 1475.44 2381.6 1468.33 Q2381.6 1461.2 2379.77 1457.66 Q2377.96 1454.1 2374.33 1454.1 M2374.33 1450.39 Q2380.14 1450.39 2383.2 1455 Q2386.27 1459.58 2386.27 1468.33 Q2386.27 1477.06 2383.2 1481.67 Q2380.14 1486.25 2374.33 1486.25 Q2368.52 1486.25 2365.44 1481.67 Q2362.39 1477.06 2362.39 1468.33 Q2362.39 1459.58 2365.44 1455 Q2368.52 1450.39 2374.33 1450.39 Z" fill="#000000" fill-rule="nonzero" fill-opacity="1" /><path clip-path="url(#clip460)" d="M1244.92 1522.27 L1244.92 1532.4 L1256.98 1532.4 L1256.98 1536.95 L1244.92 1536.95 L1244.92 1556.3 Q1244.92 1560.66 1246.1 1561.9 Q1247.31 1563.14 1250.97 1563.14 L1256.98 1563.14 L1256.98 1568.04 L1250.97 1568.04 Q1244.19 1568.04 1241.61 1565.53 Q1239.03 1562.98 1239.03 1556.3 L1239.03 1536.95 L1234.73 1536.95 L1234.73 1532.4 L1239.03 1532.4 L1239.03 1522.27 L1244.92 1522.27 Z" fill="#000000" fill-rule="nonzero" fill-opacity="1" /><polyline clip-path="url(#clip460)" style="stroke:#000000; stroke-linecap:round; stroke-linejoin:round; stroke-width:4; stroke-opacity:1; fill:none" points="138.959,1423.18 138.959,47.2441 "/>
<polyline clip-path="url(#clip460)" style="stroke:#000000; stroke-linecap:round; stroke-linejoin:round; stroke-width:4; stroke-opacity:1; fill:none" points="138.959,1184.61 157.857,1184.61 "/>
<polyline clip-path="url(#clip460)" style="stroke:#000000; stroke-linecap:round; stroke-linejoin:round; stroke-width:4; stroke-opacity:1; fill:none" points="138.959,918.433 157.857,918.433 "/>
<polyline clip-path="url(#clip460)" style="stroke:#000000; stroke-linecap:round; stroke-linejoin:round; stroke-width:4; stroke-opacity:1; fill:none" points="138.959,652.258 157.857,652.258 "/>
<polyline clip-path="url(#clip460)" style="stroke:#000000; stroke-linecap:round; stroke-linejoin:round; stroke-width:4; stroke-opacity:1; fill:none" points="138.959,386.084 157.857,386.084 "/>
<polyline clip-path="url(#clip460)" style="stroke:#000000; stroke-linecap:round; stroke-linejoin:round; stroke-width:4; stroke-opacity:1; fill:none" points="138.959,119.909 157.857,119.909 "/>
<path clip-path="url(#clip460)" d="M86.6401 1197.95 L102.959 1197.95 L102.959 1201.89 L81.0151 1201.89 L81.0151 1197.95 Q83.6771 1195.2 88.2604 1190.57 Q92.8669 1185.92 94.0475 1184.57 Q96.2928 1182.05 97.1724 1180.31 Q98.0752 1178.55 98.0752 1176.86 Q98.0752 1174.11 96.1308 1172.37 Q94.2095 1170.64 91.1077 1170.64 Q88.9086 1170.64 86.4549 1171.4 Q84.0244 1172.17 81.2466 1173.72 L81.2466 1168.99 Q84.0707 1167.86 86.5243 1167.28 Q88.978 1166.7 91.0151 1166.7 Q96.3854 1166.7 99.5798 1169.39 Q102.774 1172.07 102.774 1176.56 Q102.774 1178.69 101.964 1180.61 Q101.177 1182.51 99.0706 1185.11 Q98.4919 1185.78 95.39 1188.99 Q92.2882 1192.19 86.6401 1197.95 Z" fill="#000000" fill-rule="nonzero" fill-opacity="1" /><path clip-path="url(#clip460)" d="M93.3762 905.227 L81.5707 923.676 L93.3762 923.676 L93.3762 905.227 M92.1493 901.153 L98.0289 901.153 L98.0289 923.676 L102.959 923.676 L102.959 927.565 L98.0289 927.565 L98.0289 935.713 L93.3762 935.713 L93.3762 927.565 L77.7744 927.565 L77.7744 923.051 L92.1493 901.153 Z" fill="#000000" fill-rule="nonzero" fill-opacity="1" /><path clip-path="url(#clip460)" d="M91.4317 650.395 Q88.2836 650.395 86.4318 652.548 Q84.6031 654.7 84.6031 658.45 Q84.6031 662.177 86.4318 664.353 Q88.2836 666.506 91.4317 666.506 Q94.5799 666.506 96.4085 664.353 Q98.2604 662.177 98.2604 658.45 Q98.2604 654.7 96.4085 652.548 Q94.5799 650.395 91.4317 650.395 M100.714 635.742 L100.714 640.001 Q98.9548 639.168 97.1493 638.728 Q95.3669 638.288 93.6076 638.288 Q88.978 638.288 86.5243 641.413 Q84.0938 644.538 83.7466 650.858 Q85.1123 648.844 87.1725 647.779 Q89.2327 646.691 91.7095 646.691 Q96.9178 646.691 99.927 649.862 Q102.959 653.011 102.959 658.45 Q102.959 663.774 99.8113 666.992 Q96.6632 670.21 91.4317 670.21 Q85.4364 670.21 82.2651 665.626 Q79.0938 661.02 79.0938 652.293 Q79.0938 644.099 82.9827 639.237 Q86.8716 634.353 93.4225 634.353 Q95.1817 634.353 96.9641 634.7 Q98.7696 635.048 100.714 635.742 Z" fill="#000000" fill-rule="nonzero" fill-opacity="1" /><path clip-path="url(#clip460)" d="M91.1077 386.952 Q87.7743 386.952 85.8531 388.734 Q83.9549 390.517 83.9549 393.642 Q83.9549 396.767 85.8531 398.549 Q87.7743 400.331 91.1077 400.331 Q94.441 400.331 96.3623 398.549 Q98.2835 396.743 98.2835 393.642 Q98.2835 390.517 96.3623 388.734 Q94.4641 386.952 91.1077 386.952 M86.4318 384.961 Q83.4225 384.22 81.7327 382.16 Q80.066 380.1 80.066 377.137 Q80.066 372.993 83.0058 370.586 Q85.9688 368.179 91.1077 368.179 Q96.2697 368.179 99.2095 370.586 Q102.149 372.993 102.149 377.137 Q102.149 380.1 100.459 382.16 Q98.7928 384.22 95.8067 384.961 Q99.1863 385.748 101.061 388.04 Q102.959 390.331 102.959 393.642 Q102.959 398.665 99.8808 401.35 Q96.8252 404.035 91.1077 404.035 Q85.3901 404.035 82.3114 401.35 Q79.2559 398.665 79.2559 393.642 Q79.2559 390.331 81.154 388.04 Q83.0521 385.748 86.4318 384.961 M84.7188 377.577 Q84.7188 380.262 86.3855 381.767 Q88.0753 383.271 91.1077 383.271 Q94.1169 383.271 95.8067 381.767 Q97.5197 380.262 97.5197 377.577 Q97.5197 374.892 95.8067 373.387 Q94.1169 371.882 91.1077 371.882 Q88.0753 371.882 86.3855 373.387 Q84.7188 374.892 84.7188 377.577 Z" fill="#000000" fill-rule="nonzero" fill-opacity="1" /><path clip-path="url(#clip460)" d="M51.6634 133.254 L59.3023 133.254 L59.3023 106.888 L50.9921 108.555 L50.9921 104.296 L59.256 102.629 L63.9319 102.629 L63.9319 133.254 L71.5707 133.254 L71.5707 137.189 L51.6634 137.189 L51.6634 133.254 Z" fill="#000000" fill-rule="nonzero" fill-opacity="1" /><path clip-path="url(#clip460)" d="M91.0151 105.708 Q87.404 105.708 85.5753 109.273 Q83.7697 112.814 83.7697 119.944 Q83.7697 127.05 85.5753 130.615 Q87.404 134.157 91.0151 134.157 Q94.6493 134.157 96.4548 130.615 Q98.2835 127.05 98.2835 119.944 Q98.2835 112.814 96.4548 109.273 Q94.6493 105.708 91.0151 105.708 M91.0151 102.004 Q96.8252 102.004 99.8808 106.611 Q102.959 111.194 102.959 119.944 Q102.959 128.671 99.8808 133.277 Q96.8252 137.86 91.0151 137.86 Q85.2049 137.86 82.1262 133.277 Q79.0707 128.671 79.0707 119.944 Q79.0707 111.194 82.1262 106.611 Q85.2049 102.004 91.0151 102.004 Z" fill="#000000" fill-rule="nonzero" fill-opacity="1" /><polyline clip-path="url(#clip461)" style="stroke:#009af9; stroke-linecap:round; stroke-linejoin:round; stroke-width:4; stroke-opacity:1; fill:none" points="138.959,1384.24 277.322,1350.68 415.684,1299.36 554.046,1208.54 692.409,1151.73 830.771,1054.56 969.133,1053.78 1107.5,963.079 1245.86,973.635 1384.22,570.855 1522.58,605.969 1660.94,835.917 1799.31,901.871 1937.67,927.038 2076.03,625.661 2214.39,258.924 2352.76,92.223 "/>
<polyline clip-path="url(#clip461)" style="stroke:#e26f46; stroke-linecap:round; stroke-linejoin:round; stroke-width:4; stroke-opacity:1; fill:none" points="138.959,1384.24 277.322,1350.48 415.684,1298.73 554.046,1206.93 692.409,1149.58 830.771,1051.24 969.133,1051.15 1107.5,959.61 1245.86,971.208 1384.22,563.369 1522.58,600.657 1660.94,832.481 1799.31,900.323 1937.67,926.748 2076.03,623.258 2214.39,253.286 2352.76,86.1857 "/>
<path clip-path="url(#clip460)" d="M212.753 248.629 L643.159 248.629 L643.159 93.1086 L212.753 93.1086  Z" fill="#ffffff" fill-rule="evenodd" fill-opacity="1"/>
<polyline clip-path="url(#clip460)" style="stroke:#000000; stroke-linecap:round; stroke-linejoin:round; stroke-width:4; stroke-opacity:1; fill:none" points="212.753,248.629 643.159,248.629 643.159,93.1086 212.753,93.1086 212.753,248.629 "/>
<polyline clip-path="url(#clip460)" style="stroke:#009af9; stroke-linecap:round; stroke-linejoin:round; stroke-width:4; stroke-opacity:1; fill:none" points="237.35,144.949 384.937,144.949 "/>
<path clip-path="url(#clip460)" d="M409.535 151.997 L409.535 136.303 L413.794 136.303 L413.794 151.835 Q413.794 155.516 415.229 157.368 Q416.664 159.196 419.535 159.196 Q422.984 159.196 424.974 156.997 Q426.988 154.798 426.988 151.002 L426.988 136.303 L431.247 136.303 L431.247 162.229 L426.988 162.229 L426.988 158.247 Q425.437 160.608 423.377 161.766 Q421.34 162.9 418.632 162.9 Q414.164 162.9 411.849 160.122 Q409.535 157.344 409.535 151.997 M420.252 135.678 L420.252 135.678 Z" fill="#000000" fill-rule="nonzero" fill-opacity="1" /><path clip-path="url(#clip460)" d="M439.627 126.21 L449.442 126.21 L449.442 129.52 L443.886 129.52 L443.886 165.168 L449.442 165.168 L449.442 168.479 L439.627 168.479 L439.627 126.21 Z" fill="#000000" fill-rule="nonzero" fill-opacity="1" /><path clip-path="url(#clip460)" d="M459.928 158.293 L467.567 158.293 L467.567 131.928 L459.257 133.595 L459.257 129.335 L467.52 127.669 L472.196 127.669 L472.196 158.293 L479.835 158.293 L479.835 162.229 L459.928 162.229 L459.928 158.293 Z" fill="#000000" fill-rule="nonzero" fill-opacity="1" /><path clip-path="url(#clip460)" d="M498.631 126.21 L498.631 168.479 L488.817 168.479 L488.817 165.168 L494.349 165.168 L494.349 129.52 L488.817 129.52 L488.817 126.21 L498.631 126.21 Z" fill="#000000" fill-rule="nonzero" fill-opacity="1" /><polyline clip-path="url(#clip460)" style="stroke:#e26f46; stroke-linecap:round; stroke-linejoin:round; stroke-width:4; stroke-opacity:1; fill:none" points="237.35,196.789 384.937,196.789 "/>
<path clip-path="url(#clip460)" d="M409.535 179.509 L438.771 179.509 L438.771 183.444 L426.502 183.444 L426.502 214.069 L421.803 214.069 L421.803 183.444 L409.535 183.444 L409.535 179.509 Z" fill="#000000" fill-rule="nonzero" fill-opacity="1" /><path clip-path="url(#clip460)" d="M451.155 192.124 Q450.437 191.708 449.581 191.522 Q448.747 191.314 447.729 191.314 Q444.118 191.314 442.173 193.675 Q440.252 196.013 440.252 200.411 L440.252 214.069 L435.97 214.069 L435.97 188.143 L440.252 188.143 L440.252 192.171 Q441.595 189.809 443.747 188.675 Q445.9 187.518 448.979 187.518 Q449.419 187.518 449.951 187.587 Q450.483 187.634 451.132 187.749 L451.155 192.124 Z" fill="#000000" fill-rule="nonzero" fill-opacity="1" /><path clip-path="url(#clip460)" d="M455.182 203.837 L455.182 188.143 L459.442 188.143 L459.442 203.675 Q459.442 207.356 460.877 209.208 Q462.312 211.036 465.182 211.036 Q468.631 211.036 470.622 208.837 Q472.636 206.638 472.636 202.842 L472.636 188.143 L476.895 188.143 L476.895 214.069 L472.636 214.069 L472.636 210.087 Q471.085 212.448 469.025 213.606 Q466.988 214.74 464.28 214.74 Q459.812 214.74 457.497 211.962 Q455.182 209.184 455.182 203.837 M465.9 187.518 L465.9 187.518 Z" fill="#000000" fill-rule="nonzero" fill-opacity="1" /><path clip-path="url(#clip460)" d="M507.844 200.041 L507.844 202.124 L488.261 202.124 Q488.539 206.522 490.9 208.837 Q493.284 211.129 497.52 211.129 Q499.974 211.129 502.266 210.527 Q504.58 209.925 506.849 208.721 L506.849 212.749 Q504.557 213.721 502.15 214.231 Q499.742 214.74 497.266 214.74 Q491.062 214.74 487.428 211.129 Q483.817 207.518 483.817 201.36 Q483.817 194.995 487.242 191.268 Q490.692 187.518 496.525 187.518 Q501.756 187.518 504.789 190.897 Q507.844 194.254 507.844 200.041 M503.585 198.791 Q503.539 195.296 501.617 193.212 Q499.719 191.129 496.571 191.129 Q493.006 191.129 490.854 193.143 Q488.724 195.157 488.4 198.814 L503.585 198.791 Z" fill="#000000" fill-rule="nonzero" fill-opacity="1" /><path clip-path="url(#clip460)" d="M529.464 203.837 L529.464 188.143 L533.724 188.143 L533.724 203.675 Q533.724 207.356 535.159 209.208 Q536.594 211.036 539.464 211.036 Q542.913 211.036 544.904 208.837 Q546.918 206.638 546.918 202.842 L546.918 188.143 L551.177 188.143 L551.177 214.069 L546.918 214.069 L546.918 210.087 Q545.367 212.448 543.307 213.606 Q541.27 214.74 538.562 214.74 Q534.094 214.74 531.779 211.962 Q529.464 209.184 529.464 203.837 M540.182 187.518 L540.182 187.518 Z" fill="#000000" fill-rule="nonzero" fill-opacity="1" /><path clip-path="url(#clip460)" d="M559.557 178.05 L569.372 178.05 L569.372 181.36 L563.816 181.36 L563.816 217.008 L569.372 217.008 L569.372 220.319 L559.557 220.319 L559.557 178.05 Z" fill="#000000" fill-rule="nonzero" fill-opacity="1" /><path clip-path="url(#clip460)" d="M579.858 210.133 L587.497 210.133 L587.497 183.768 L579.186 185.435 L579.186 181.175 L587.45 179.509 L592.126 179.509 L592.126 210.133 L599.765 210.133 L599.765 214.069 L579.858 214.069 L579.858 210.133 Z" fill="#000000" fill-rule="nonzero" fill-opacity="1" /><path clip-path="url(#clip460)" d="M618.561 178.05 L618.561 220.319 L608.746 220.319 L608.746 217.008 L614.279 217.008 L614.279 181.36 L608.746 181.36 L608.746 178.05 L618.561 178.05 Z" fill="#000000" fill-rule="nonzero" fill-opacity="1" /></svg>
