<?xml version="1.0" encoding="utf-8"?>
<svg xmlns="http://www.w3.org/2000/svg" xmlns:xlink="http://www.w3.org/1999/xlink" width="600" height="400" viewBox="0 0 2400 1600">
<defs>
  <clipPath id="clip660">
    <rect x="0" y="0" width="2400" height="1600"/>
  </clipPath>
</defs>
<path clip-path="url(#clip660)" d="M0 1600 L2400 1600 L2400 0 L0 0  Z" fill="#ffffff" fill-rule="evenodd" fill-opacity="1"/>
<defs>
  <clipPath id="clip661">
    <rect x="480" y="0" width="1681" height="1600"/>
  </clipPath>
</defs>
<path clip-path="url(#clip660)" d="M156.274 1423.18 L2352.76 1423.18 L2352.76 47.2441 L156.274 47.2441  Z" fill="#ffffff" fill-rule="evenodd" fill-opacity="1"/>
<defs>
  <clipPath id="clip662">
    <rect x="156" y="47" width="2197" height="1377"/>
  </clipPath>
</defs>
<polyline clip-path="url(#clip662)" style="stroke:#000000; stroke-linecap:round; stroke-linejoin:round; stroke-width:2; stroke-opacity:0.1; fill:none" points="156.274,1423.18 156.274,47.2441 "/>
<polyline clip-path="url(#clip662)" style="stroke:#000000; stroke-linecap:round; stroke-linejoin:round; stroke-width:2; stroke-opacity:0.1; fill:none" points="595.571,1423.18 595.571,47.2441 "/>
<polyline clip-path="url(#clip662)" style="stroke:#000000; stroke-linecap:round; stroke-linejoin:round; stroke-width:2; stroke-opacity:0.1; fill:none" points="1034.87,1423.18 1034.87,47.2441 "/>
<polyline clip-path="url(#clip662)" style="stroke:#000000; stroke-linecap:round; stroke-linejoin:round; stroke-width:2; stroke-opacity:0.1; fill:none" points="1474.16,1423.18 1474.16,47.2441 "/>
<polyline clip-path="url(#clip662)" style="stroke:#000000; stroke-linecap:round; stroke-linejoin:round; stroke-width:2; stroke-opacity:0.1; fill:none" points="1913.46,1423.18 1913.46,47.2441 "/>
<polyline clip-path="url(#clip662)" style="stroke:#000000; stroke-linecap:round; stroke-linejoin:round; stroke-width:2; stroke-opacity:0.1; fill:none" points="2352.76,1423.18 2352.76,47.2441 "/>
<polyline clip-path="url(#clip662)" style="stroke:#000000; stroke-linecap:round; stroke-linejoin:round; stroke-width:2; stroke-opacity:0.1; fill:none" points="156.274,1299.55 2352.76,1299.55 "/>
<polyline clip-path="url(#clip662)" style="stroke:#000000; stroke-linecap:round; stroke-linejoin:round; stroke-width:2; stroke-opacity:0.1; fill:none" points="156.274,1045.48 2352.76,1045.48 "/>
<polyline clip-path="url(#clip662)" style="stroke:#000000; stroke-linecap:round; stroke-linejoin:round; stroke-width:2; stroke-opacity:0.1; fill:none" points="156.274,791.407 2352.76,791.407 "/>
<polyline clip-path="url(#clip662)" style="stroke:#000000; stroke-linecap:round; stroke-linejoin:round; stroke-width:2; stroke-opacity:0.1; fill:none" points="156.274,537.337 2352.76,537.337 "/>
<polyline clip-path="url(#clip662)" style="stroke:#000000; stroke-linecap:round; stroke-linejoin:round; stroke-width:2; stroke-opacity:0.1; fill:none" points="156.274,283.267 2352.76,283.267 "/>
<polyline clip-path="url(#clip660)" style="stroke:#000000; stroke-linecap:round; stroke-linejoin:round; stroke-width:4; stroke-opacity:1; fill:none" points="156.274,1423.18 2352.76,1423.18 "/>
<polyline clip-path="url(#clip660)" style="stroke:#000000; stroke-linecap:round; stroke-linejoin:round; stroke-width:4; stroke-opacity:1; fill:none" points="156.274,1423.18 156.274,1404.28 "/>
<polyline clip-path="url(#clip660)" style="stroke:#000000; stroke-linecap:round; stroke-linejoin:round; stroke-width:4; stroke-opacity:1; fill:none" points="595.571,1423.18 595.571,1404.28 "/>
<polyline clip-path="url(#clip660)" style="stroke:#000000; stroke-linecap:round; stroke-linejoin:round; stroke-width:4; stroke-opacity:1; fill:none" points="1034.87,1423.18 1034.87,1404.28 "/>
<polyline clip-path="url(#clip660)" style="stroke:#000000; stroke-linecap:round; stroke-linejoin:round; stroke-width:4; stroke-opacity:1; fill:none" points="1474.16,1423.18 1474.16,1404.28 "/>
<polyline clip-path="url(#clip660)" style="stroke:#000000; stroke-linecap:round; stroke-linejoin:round; stroke-width:4; stroke-opacity:1; fill:none" points="1913.46,1423.18 1913.46,1404.28 "/>
<polyline clip-path="url(#clip660)" style="stroke:#000000; stroke-linecap:round; stroke-linejoin:round; stroke-width:4; stroke-opacity:1; fill:none" points="2352.76,1423.18 2352.76,1404.28 "/>
<path clip-path="url(#clip660)" d="M133.659 1454.1 Q130.047 1454.1 128.219 1457.66 Q126.413 1461.2 126.413 1468.33 Q126.413 1475.44 128.219 1479.01 Q130.047 1482.55 133.659 1482.55 Q137.293 1482.55 139.098 1479.01 Q140.927 1475.44 140.927 1468.33 Q140.927 1461.2 139.098 1457.66 Q137.293 1454.1 133.659 1454.1 M133.659 1450.39 Q139.469 1450.39 142.524 1455 Q145.603 1459.58 145.603 1468.33 Q145.603 1477.06 142.524 1481.67 Q139.469 1486.25 133.659 1486.25 Q127.848 1486.25 124.77 1481.67 Q121.714 1477.06 121.714 1468.33 Q121.714 1459.58 124.77 1455 Q127.848 1450.39 133.659 1450.39 Z" fill="#000000" fill-rule="nonzero" fill-opacity="1" /><path clip-path="url(#clip660)" d="M153.82 1479.7 L158.705 1479.7 L158.705 1485.58 L153.82 1485.58 L153.82 1479.7 Z" fill="#000000" fill-rule="nonzero" fill-opacity="1" /><path clip-path="url(#clip660)" d="M178.89 1454.1 Q175.279 1454.1 173.45 1457.66 Q171.644 1461.2 171.644 1468.33 Q171.644 1475.44 173.45 1479.01 Q175.279 1482.55 178.89 1482.55 Q182.524 1482.55 184.33 1479.01 Q186.158 1475.44 186.158 1468.33 Q186.158 1461.2 184.33 1457.66 Q182.524 1454.1 178.89 1454.1 M178.89 1450.39 Q184.7 1450.39 187.755 1455 Q190.834 1459.58 190.834 1468.33 Q190.834 1477.06 187.755 1481.67 Q184.7 1486.25 178.89 1486.25 Q173.08 1486.25 170.001 1481.67 Q166.945 1477.06 166.945 1468.33 Q166.945 1459.58 170.001 1455 Q173.08 1450.39 178.89 1450.39 Z" fill="#000000" fill-rule="nonzero" fill-opacity="1" /><path clip-path="url(#clip660)" d="M573.753 1454.1 Q570.142 1454.1 568.314 1457.66 Q566.508 1461.2 566.508 1468.33 Q566.508 1475.44 568.314 1479.01 Q570.142 1482.55 573.753 1482.55 Q577.388 1482.55 579.193 1479.01 Q581.022 1475.44 581.022 1468.33 Q581.022 1461.2 579.193 1457.66 Q577.388 1454.1 573.753 1454.1 M573.753 1450.39 Q579.564 1450.39 582.619 1455 Q585.698 1459.58 585.698 1468.33 Q585.698 1477.06 582.619 1481.67 Q579.564 1486.25 573.753 1486.25 Q567.943 1486.25 564.865 1481.67 Q561.809 1477.06 561.809 1468.33 Q561.809 1459.58 564.865 1455 Q567.943 1450.39 573.753 1450.39 Z" fill="#000000" fill-rule="nonzero" fill-opacity="1" /><path clip-path="url(#clip660)" d="M593.915 1479.7 L598.8 1479.7 L598.8 1485.58 L593.915 1485.58 L593.915 1479.7 Z" fill="#000000" fill-rule="nonzero" fill-opacity="1" /><path clip-path="url(#clip660)" d="M613.013 1481.64 L629.332 1481.64 L629.332 1485.58 L607.388 1485.58 L607.388 1481.64 Q610.05 1478.89 614.633 1474.26 Q619.239 1469.61 620.42 1468.27 Q622.665 1465.74 623.545 1464.01 Q624.448 1462.25 624.448 1460.56 Q624.448 1457.8 622.503 1456.07 Q620.582 1454.33 617.48 1454.33 Q615.281 1454.33 612.827 1455.09 Q610.397 1455.86 607.619 1457.41 L607.619 1452.69 Q610.443 1451.55 612.897 1450.97 Q615.35 1450.39 617.388 1450.39 Q622.758 1450.39 625.952 1453.08 Q629.147 1455.77 629.147 1460.26 Q629.147 1462.39 628.337 1464.31 Q627.55 1466.2 625.443 1468.8 Q624.864 1469.47 621.763 1472.69 Q618.661 1475.88 613.013 1481.64 Z" fill="#000000" fill-rule="nonzero" fill-opacity="1" /><path clip-path="url(#clip660)" d="M1012.01 1454.1 Q1008.4 1454.1 1006.57 1457.66 Q1004.76 1461.2 1004.76 1468.33 Q1004.76 1475.44 1006.57 1479.01 Q1008.4 1482.55 1012.01 1482.55 Q1015.64 1482.55 1017.45 1479.01 Q1019.28 1475.44 1019.28 1468.33 Q1019.28 1461.2 1017.45 1457.66 Q1015.64 1454.1 1012.01 1454.1 M1012.01 1450.39 Q1017.82 1450.39 1020.87 1455 Q1023.95 1459.58 1023.95 1468.33 Q1023.95 1477.06 1020.87 1481.67 Q1017.82 1486.25 1012.01 1486.25 Q1006.2 1486.25 1003.12 1481.67 Q1000.06 1477.06 1000.06 1468.33 Q1000.06 1459.58 1003.12 1455 Q1006.2 1450.39 1012.01 1450.39 Z" fill="#000000" fill-rule="nonzero" fill-opacity="1" /><path clip-path="url(#clip660)" d="M1032.17 1479.7 L1037.05 1479.7 L1037.05 1485.58 L1032.17 1485.58 L1032.17 1479.7 Z" fill="#000000" fill-rule="nonzero" fill-opacity="1" /><path clip-path="url(#clip660)" d="M1060.09 1455.09 L1048.28 1473.54 L1060.09 1473.54 L1060.09 1455.09 M1058.86 1451.02 L1064.74 1451.02 L1064.74 1473.54 L1069.67 1473.54 L1069.67 1477.43 L1064.74 1477.43 L1064.74 1485.58 L1060.09 1485.58 L1060.09 1477.43 L1044.48 1477.43 L1044.48 1472.92 L1058.86 1451.02 Z" fill="#000000" fill-rule="nonzero" fill-opacity="1" /><path clip-path="url(#clip660)" d="M1451.47 1454.1 Q1447.86 1454.1 1446.03 1457.66 Q1444.22 1461.2 1444.22 1468.33 Q1444.22 1475.44 1446.03 1479.01 Q1447.86 1482.55 1451.47 1482.55 Q1455.1 1482.55 1456.91 1479.01 Q1458.74 1475.44 1458.74 1468.33 Q1458.74 1461.2 1456.91 1457.66 Q1455.1 1454.1 1451.47 1454.1 M1451.47 1450.39 Q1457.28 1450.39 1460.33 1455 Q1463.41 1459.58 1463.41 1468.33 Q1463.41 1477.06 1460.33 1481.67 Q1457.28 1486.25 1451.47 1486.25 Q1445.66 1486.25 1442.58 1481.67 Q1439.52 1477.06 1439.52 1468.33 Q1439.52 1459.58 1442.58 1455 Q1445.66 1450.39 1451.47 1450.39 Z" fill="#000000" fill-rule="nonzero" fill-opacity="1" /><path clip-path="url(#clip660)" d="M1471.63 1479.7 L1476.51 1479.7 L1476.51 1485.58 L1471.63 1485.58 L1471.63 1479.7 Z" fill="#000000" fill-rule="nonzero" fill-opacity="1" /><path clip-path="url(#clip660)" d="M1497.28 1466.44 Q1494.13 1466.44 1492.28 1468.59 Q1490.45 1470.74 1490.45 1474.49 Q1490.45 1478.22 1492.28 1480.39 Q1494.13 1482.55 1497.28 1482.55 Q1500.42 1482.55 1502.25 1480.39 Q1504.11 1478.22 1504.11 1474.49 Q1504.11 1470.74 1502.25 1468.59 Q1500.42 1466.44 1497.28 1466.44 M1506.56 1451.78 L1506.56 1456.04 Q1504.8 1455.21 1502.99 1454.77 Q1501.21 1454.33 1499.45 1454.33 Q1494.82 1454.33 1492.37 1457.45 Q1489.94 1460.58 1489.59 1466.9 Q1490.96 1464.89 1493.02 1463.82 Q1495.08 1462.73 1497.55 1462.73 Q1502.76 1462.73 1505.77 1465.9 Q1508.8 1469.05 1508.8 1474.49 Q1508.8 1479.82 1505.66 1483.03 Q1502.51 1486.25 1497.28 1486.25 Q1491.28 1486.25 1488.11 1481.67 Q1484.94 1477.06 1484.94 1468.33 Q1484.94 1460.14 1488.83 1455.28 Q1492.72 1450.39 1499.27 1450.39 Q1501.03 1450.39 1502.81 1450.74 Q1504.61 1451.09 1506.56 1451.78 Z" fill="#000000" fill-rule="nonzero" fill-opacity="1" /><path clip-path="url(#clip660)" d="M1890.89 1454.1 Q1887.28 1454.1 1885.45 1457.66 Q1883.64 1461.2 1883.64 1468.33 Q1883.64 1475.44 1885.45 1479.01 Q1887.28 1482.55 1890.89 1482.55 Q1894.52 1482.55 1896.33 1479.01 Q1898.16 1475.44 1898.16 1468.33 Q1898.16 1461.2 1896.33 1457.66 Q1894.52 1454.1 1890.89 1454.1 M1890.89 1450.39 Q1896.7 1450.39 1899.76 1455 Q1902.83 1459.58 1902.83 1468.33 Q1902.83 1477.06 1899.76 1481.67 Q1896.7 1486.25 1890.89 1486.25 Q1885.08 1486.25 1882 1481.67 Q1878.95 1477.06 1878.95 1468.33 Q1878.95 1459.58 1882 1455 Q1885.08 1450.39 1890.89 1450.39 Z" fill="#000000" fill-rule="nonzero" fill-opacity="1" /><path clip-path="url(#clip660)" d="M1911.05 1479.7 L1915.94 1479.7 L1915.94 1485.58 L1911.05 1485.58 L1911.05 1479.7 Z" fill="#000000" fill-rule="nonzero" fill-opacity="1" /><path clip-path="url(#clip660)" d="M1936.12 1469.17 Q1932.79 1469.17 1930.87 1470.95 Q1928.97 1472.73 1928.97 1475.86 Q1928.97 1478.98 1930.87 1480.77 Q1932.79 1482.55 1936.12 1482.55 Q1939.45 1482.55 1941.38 1480.77 Q1943.3 1478.96 1943.3 1475.86 Q1943.3 1472.73 1941.38 1470.95 Q1939.48 1469.17 1936.12 1469.17 M1931.45 1467.18 Q1928.44 1466.44 1926.75 1464.38 Q1925.08 1462.32 1925.08 1459.35 Q1925.08 1455.21 1928.02 1452.8 Q1930.98 1450.39 1936.12 1450.39 Q1941.28 1450.39 1944.22 1452.8 Q1947.16 1455.21 1947.16 1459.35 Q1947.16 1462.32 1945.47 1464.38 Q1943.81 1466.44 1940.82 1467.18 Q1944.2 1467.96 1946.08 1470.26 Q1947.97 1472.55 1947.97 1475.86 Q1947.97 1480.88 1944.89 1483.57 Q1941.84 1486.25 1936.12 1486.25 Q1930.4 1486.25 1927.33 1483.57 Q1924.27 1480.88 1924.27 1475.86 Q1924.27 1472.55 1926.17 1470.26 Q1928.07 1467.96 1931.45 1467.18 M1929.73 1459.79 Q1929.73 1462.48 1931.4 1463.98 Q1933.09 1465.49 1936.12 1465.49 Q1939.13 1465.49 1940.82 1463.98 Q1942.53 1462.48 1942.53 1459.79 Q1942.53 1457.11 1940.82 1455.6 Q1939.13 1454.1 1936.12 1454.1 Q1933.09 1454.1 1931.4 1455.6 Q1929.73 1457.11 1929.73 1459.79 Z" fill="#000000" fill-rule="nonzero" fill-opacity="1" /><path clip-path="url(#clip660)" d="M2319.91 1481.64 L2327.55 1481.64 L2327.55 1455.28 L2319.24 1456.95 L2319.24 1452.69 L2327.5 1451.02 L2332.18 1451.02 L2332.18 1481.64 L2339.82 1481.64 L2339.82 1485.58 L2319.91 1485.58 L2319.91 1481.64 Z" fill="#000000" fill-rule="nonzero" fill-opacity="1" /><path clip-path="url(#clip660)" d="M2349.26 1479.7 L2354.14 1479.7 L2354.14 1485.58 L2349.26 1485.58 L2349.26 1479.7 Z" fill="#000000" fill-rule="nonzero" fill-opacity="1" /><path clip-path="url(#clip660)" d="M2374.33 1454.1 Q2370.72 1454.1 2368.89 1457.66 Q2367.08 1461.2 2367.08 1468.33 Q2367.08 1475.44 2368.89 1479.01 Q2370.72 1482.55 2374.33 1482.55 Q2377.96 1482.55 2379.77 1479.01 Q2381.6 1475.44 2381.6 1468.33 Q2381.6 1461.2 2379.77 1457.66 Q2377.96 1454.1 2374.33 1454.1 M2374.33 1450.39 Q2380.14 1450.39 2383.2 1455 Q2386.27 1459.58 2386.27 1468.33 Q2386.27 1477.06 2383.2 1481.67 Q2380.14 1486.25 2374.33 1486.25 Q2368.52 1486.25 2365.44 1481.67 Q2362.39 1477.06 2362.39 1468.33 Q2362.39 1459.58 2365.44 1455 Q2368.52 1450.39 2374.33 1450.39 Z" fill="#000000" fill-rule="nonzero" fill-opacity="1" /><path clip-path="url(#clip660)" d="M1253.58 1522.27 L1253.58 1532.4 L1265.64 1532.4 L1265.64 1536.95 L1253.58 1536.95 L1253.58 1556.3 Q1253.58 1560.66 1254.75 1561.9 Q1255.96 1563.14 1259.62 1563.14 L1265.64 1563.14 L1265.64 1568.04 L1259.62 1568.04 Q1252.84 1568.04 1250.27 1565.53 Q1247.69 1562.98 1247.69 1556.3 L1247.69 1536.95 L1243.39 1536.95 L1243.39 1532.4 L1247.69 1532.4 L1247.69 1522.27 L1253.58 1522.27 Z" fill="#000000" fill-rule="nonzero" fill-opacity="1" /><polyline clip-path="url(#clip660)" style="stroke:#000000; stroke-linecap:round; stroke-linejoin:round; stroke-width:4; stroke-opacity:1; fill:none" points="156.274,1423.18 156.274,47.2441 "/>
<polyline clip-path="url(#clip660)" style="stroke:#000000; stroke-linecap:round; stroke-linejoin:round; stroke-width:4; stroke-opacity:1; fill:none" points="156.274,1299.55 175.172,1299.55 "/>
<polyline clip-path="url(#clip660)" style="stroke:#000000; stroke-linecap:round; stroke-linejoin:round; stroke-width:4; stroke-opacity:1; fill:none" points="156.274,1045.48 175.172,1045.48 "/>
<polyline clip-path="url(#clip660)" style="stroke:#000000; stroke-linecap:round; stroke-linejoin:round; stroke-width:4; stroke-opacity:1; fill:none" points="156.274,791.407 175.172,791.407 "/>
<polyline clip-path="url(#clip660)" style="stroke:#000000; stroke-linecap:round; stroke-linejoin:round; stroke-width:4; stroke-opacity:1; fill:none" points="156.274,537.337 175.172,537.337 "/>
<polyline clip-path="url(#clip660)" style="stroke:#000000; stroke-linecap:round; stroke-linejoin:round; stroke-width:4; stroke-opacity:1; fill:none" points="156.274,283.267 175.172,283.267 "/>
<path clip-path="url(#clip660)" d="M62.9365 1285.35 Q59.3254 1285.35 57.4967 1288.91 Q55.6912 1292.45 55.6912 1299.58 Q55.6912 1306.69 57.4967 1310.25 Q59.3254 1313.8 62.9365 1313.8 Q66.5707 1313.8 68.3763 1310.25 Q70.205 1306.69 70.205 1299.58 Q70.205 1292.45 68.3763 1288.91 Q66.5707 1285.35 62.9365 1285.35 M62.9365 1281.64 Q68.7467 1281.64 71.8022 1286.25 Q74.8809 1290.83 74.8809 1299.58 Q74.8809 1308.31 71.8022 1312.92 Q68.7467 1317.5 62.9365 1317.5 Q57.1264 1317.5 54.0477 1312.92 Q50.9921 1308.31 50.9921 1299.58 Q50.9921 1290.83 54.0477 1286.25 Q57.1264 1281.64 62.9365 1281.64 Z" fill="#000000" fill-rule="nonzero" fill-opacity="1" /><path clip-path="url(#clip660)" d="M83.0984 1310.95 L87.9827 1310.95 L87.9827 1316.83 L83.0984 1316.83 L83.0984 1310.95 Z" fill="#000000" fill-rule="nonzero" fill-opacity="1" /><path clip-path="url(#clip660)" d="M108.746 1297.68 Q105.598 1297.68 103.746 1299.84 Q101.918 1301.99 101.918 1305.74 Q101.918 1309.47 103.746 1311.64 Q105.598 1313.8 108.746 1313.8 Q111.895 1313.8 113.723 1311.64 Q115.575 1309.47 115.575 1305.74 Q115.575 1301.99 113.723 1299.84 Q111.895 1297.68 108.746 1297.68 M118.029 1283.03 L118.029 1287.29 Q116.27 1286.46 114.464 1286.02 Q112.682 1285.58 110.922 1285.58 Q106.293 1285.58 103.839 1288.7 Q101.409 1291.83 101.061 1298.15 Q102.427 1296.13 104.487 1295.07 Q106.547 1293.98 109.024 1293.98 Q114.233 1293.98 117.242 1297.15 Q120.274 1300.3 120.274 1305.74 Q120.274 1311.06 117.126 1314.28 Q113.978 1317.5 108.746 1317.5 Q102.751 1317.5 99.5798 1312.92 Q96.4085 1308.31 96.4085 1299.58 Q96.4085 1291.39 100.297 1286.53 Q104.186 1281.64 110.737 1281.64 Q112.496 1281.64 114.279 1281.99 Q116.084 1282.34 118.029 1283.03 Z" fill="#000000" fill-rule="nonzero" fill-opacity="1" /><path clip-path="url(#clip660)" d="M63.2837 1031.28 Q59.6726 1031.28 57.8439 1034.84 Q56.0384 1038.38 56.0384 1045.51 Q56.0384 1052.62 57.8439 1056.18 Q59.6726 1059.73 63.2837 1059.73 Q66.918 1059.73 68.7235 1056.18 Q70.5522 1052.62 70.5522 1045.51 Q70.5522 1038.38 68.7235 1034.84 Q66.918 1031.28 63.2837 1031.28 M63.2837 1027.57 Q69.0939 1027.57 72.1494 1032.18 Q75.2281 1036.76 75.2281 1045.51 Q75.2281 1054.24 72.1494 1058.85 Q69.0939 1063.43 63.2837 1063.43 Q57.4736 1063.43 54.3949 1058.85 Q51.3393 1054.24 51.3393 1045.51 Q51.3393 1036.76 54.3949 1032.18 Q57.4736 1027.57 63.2837 1027.57 Z" fill="#000000" fill-rule="nonzero" fill-opacity="1" /><path clip-path="url(#clip660)" d="M83.4457 1056.88 L88.3299 1056.88 L88.3299 1062.76 L83.4457 1062.76 L83.4457 1056.88 Z" fill="#000000" fill-rule="nonzero" fill-opacity="1" /><path clip-path="url(#clip660)" d="M98.6539 1062.04 L98.6539 1057.78 Q100.413 1058.61 102.219 1059.05 Q104.024 1059.49 105.76 1059.49 Q110.39 1059.49 112.82 1056.39 Q115.274 1053.27 115.621 1046.92 Q114.279 1048.92 112.219 1049.98 Q110.158 1051.04 107.658 1051.04 Q102.473 1051.04 99.4409 1047.92 Q96.4317 1044.77 96.4317 1039.33 Q96.4317 1034.01 99.5798 1030.79 Q102.728 1027.57 107.959 1027.57 Q113.955 1027.57 117.103 1032.18 Q120.274 1036.76 120.274 1045.51 Q120.274 1053.68 116.385 1058.57 Q112.52 1063.43 105.969 1063.43 Q104.209 1063.43 102.404 1063.08 Q100.598 1062.73 98.6539 1062.04 M107.959 1047.39 Q111.108 1047.39 112.936 1045.23 Q114.788 1043.08 114.788 1039.33 Q114.788 1035.61 112.936 1033.45 Q111.108 1031.28 107.959 1031.28 Q104.811 1031.28 102.959 1033.45 Q101.131 1035.61 101.131 1039.33 Q101.131 1043.08 102.959 1045.23 Q104.811 1047.39 107.959 1047.39 Z" fill="#000000" fill-rule="nonzero" fill-opacity="1" /><path clip-path="url(#clip660)" d="M55.506 804.752 L63.1448 804.752 L63.1448 778.387 L54.8347 780.053 L54.8347 775.794 L63.0985 774.127 L67.7744 774.127 L67.7744 804.752 L75.4133 804.752 L75.4133 808.687 L55.506 808.687 L55.506 804.752 Z" fill="#000000" fill-rule="nonzero" fill-opacity="1" /><path clip-path="url(#clip660)" d="M84.8577 802.808 L89.7419 802.808 L89.7419 808.687 L84.8577 808.687 L84.8577 802.808 Z" fill="#000000" fill-rule="nonzero" fill-opacity="1" /><path clip-path="url(#clip660)" d="M103.955 804.752 L120.274 804.752 L120.274 808.687 L98.3298 808.687 L98.3298 804.752 Q100.992 801.998 105.575 797.368 Q110.182 792.715 111.362 791.373 Q113.608 788.849 114.487 787.113 Q115.39 785.354 115.39 783.664 Q115.39 780.91 113.445 779.174 Q111.524 777.438 108.422 777.438 Q106.223 777.438 103.77 778.201 Q101.339 778.965 98.5613 780.516 L98.5613 775.794 Q101.385 774.66 103.839 774.081 Q106.293 773.502 108.33 773.502 Q113.7 773.502 116.895 776.188 Q120.089 778.873 120.089 783.363 Q120.089 785.493 119.279 787.414 Q118.492 789.312 116.385 791.905 Q115.807 792.576 112.705 795.794 Q109.603 798.988 103.955 804.752 Z" fill="#000000" fill-rule="nonzero" fill-opacity="1" /><path clip-path="url(#clip660)" d="M54.9041 550.682 L62.543 550.682 L62.543 524.316 L54.2328 525.983 L54.2328 521.724 L62.4967 520.057 L67.1726 520.057 L67.1726 550.682 L74.8114 550.682 L74.8114 554.617 L54.9041 554.617 L54.9041 550.682 Z" fill="#000000" fill-rule="nonzero" fill-opacity="1" /><path clip-path="url(#clip660)" d="M84.2558 548.737 L89.1401 548.737 L89.1401 554.617 L84.2558 554.617 L84.2558 548.737 Z" fill="#000000" fill-rule="nonzero" fill-opacity="1" /><path clip-path="url(#clip660)" d="M99.3715 520.057 L117.728 520.057 L117.728 523.992 L103.654 523.992 L103.654 532.464 Q104.672 532.117 105.691 531.955 Q106.709 531.77 107.728 531.77 Q113.515 531.77 116.895 534.941 Q120.274 538.112 120.274 543.529 Q120.274 549.108 116.802 552.21 Q113.33 555.288 107.01 555.288 Q104.834 555.288 102.566 554.918 Q100.321 554.547 97.9132 553.807 L97.9132 549.108 Q99.9965 550.242 102.219 550.798 Q104.441 551.353 106.918 551.353 Q110.922 551.353 113.26 549.247 Q115.598 547.14 115.598 543.529 Q115.598 539.918 113.26 537.811 Q110.922 535.705 106.918 535.705 Q105.043 535.705 103.168 536.122 Q101.316 536.538 99.3715 537.418 L99.3715 520.057 Z" fill="#000000" fill-rule="nonzero" fill-opacity="1" /><path clip-path="url(#clip660)" d="M54.0014 296.611 L61.6402 296.611 L61.6402 270.246 L53.3301 271.912 L53.3301 267.653 L61.5939 265.987 L66.2698 265.987 L66.2698 296.611 L73.9087 296.611 L73.9087 300.547 L54.0014 300.547 L54.0014 296.611 Z" fill="#000000" fill-rule="nonzero" fill-opacity="1" /><path clip-path="url(#clip660)" d="M83.3531 294.667 L88.2373 294.667 L88.2373 300.547 L83.3531 300.547 L83.3531 294.667 Z" fill="#000000" fill-rule="nonzero" fill-opacity="1" /><path clip-path="url(#clip660)" d="M108.422 284.135 Q105.089 284.135 103.168 285.917 Q101.27 287.699 101.27 290.824 Q101.27 293.949 103.168 295.732 Q105.089 297.514 108.422 297.514 Q111.756 297.514 113.677 295.732 Q115.598 293.926 115.598 290.824 Q115.598 287.699 113.677 285.917 Q111.779 284.135 108.422 284.135 M103.746 282.144 Q100.737 281.403 99.0474 279.343 Q97.3808 277.283 97.3808 274.32 Q97.3808 270.176 100.321 267.769 Q103.284 265.362 108.422 265.362 Q113.584 265.362 116.524 267.769 Q119.464 270.176 119.464 274.32 Q119.464 277.283 117.774 279.343 Q116.108 281.403 113.121 282.144 Q116.501 282.931 118.376 285.223 Q120.274 287.514 120.274 290.824 Q120.274 295.847 117.195 298.533 Q114.14 301.218 108.422 301.218 Q102.705 301.218 99.6261 298.533 Q96.5706 295.847 96.5706 290.824 Q96.5706 287.514 98.4687 285.223 Q100.367 282.931 103.746 282.144 M102.034 274.76 Q102.034 277.445 103.7 278.949 Q105.39 280.454 108.422 280.454 Q111.432 280.454 113.121 278.949 Q114.834 277.445 114.834 274.76 Q114.834 272.074 113.121 270.57 Q111.432 269.065 108.422 269.065 Q105.39 269.065 103.7 270.57 Q102.034 272.074 102.034 274.76 Z" fill="#000000" fill-rule="nonzero" fill-opacity="1" /><polyline clip-path="url(#clip662)" style="stroke:#009af9; stroke-linecap:round; stroke-linejoin:round; stroke-width:4; stroke-opacity:1; fill:none" points="156.274,1384.24 293.554,1356.63 321.01,1288.39 351.898,1080.69 380.378,1157.29 412.418,1139.19 448.463,1220.99 484.073,1234.98 524.134,1223.76 569.203,1249.79 618.29,1144.8 673.513,1043.95 731.382,830.699 796.485,1027.92 844.671,1045.02 898.881,1078.29 954.805,1135.74 1008.98,1276.42 1067.61,1311.62 1133.57,1224.71 1207.77,1174.89 1278.51,1136.33 1355.44,1200.47 1417.93,1286.1 1484.58,1149.75 1559.57,1067.38 1628.42,936.305 1705.89,1040.95 1762.97,1015.86 1827.19,1042.21 1887.12,984.845 1954.55,811.156 2030.41,639.811 2113.97,414.325 2193.41,86.1857 2266.6,190.512 2318.08,176.114 2352.76,215.139 "/>
<polyline clip-path="url(#clip662)" style="stroke:#e26f46; stroke-linecap:round; stroke-linejoin:round; stroke-width:4; stroke-opacity:1; fill:none" points="156.274,1384.24 293.554,1357.11 321.01,1288.91 351.898,1081.23 380.378,1157.84 412.418,1139.78 448.463,1221.6 484.073,1235.65 524.134,1224.51 569.203,1250.64 618.29,1145.7 673.513,1044.88 731.382,831.536 796.485,1028.68 844.671,1045.95 898.881,1079.44 954.805,1137.1 1008.98,1277.4 1067.61,1312.75 1133.57,1225.94 1207.77,1176.3 1278.51,1137.96 1355.44,1202.46 1417.93,1288.08 1484.58,1151.97 1559.57,1069.87 1628.42,939.047 1705.89,1044.04 1762.97,1019.2 1827.19,1045.8 1887.12,988.768 1954.55,815.614 2030.41,644.804 2113.97,419.888 2193.41,92.3452 2266.6,197.425 2318.08,183.432 2352.76,222.492 "/>
<path clip-path="url(#clip660)" d="M229.49 248.629 L658.165 248.629 L658.165 93.1086 L229.49 93.1086  Z" fill="#ffffff" fill-rule="evenodd" fill-opacity="1"/>
<polyline clip-path="url(#clip660)" style="stroke:#000000; stroke-linecap:round; stroke-linejoin:round; stroke-width:4; stroke-opacity:1; fill:none" points="229.49,248.629 658.165,248.629 658.165,93.1086 229.49,93.1086 229.49,248.629 "/>
<polyline clip-path="url(#clip660)" style="stroke:#009af9; stroke-linecap:round; stroke-linejoin:round; stroke-width:4; stroke-opacity:1; fill:none" points="253.896,144.949 400.328,144.949 "/>
<path clip-path="url(#clip660)" d="M424.733 151.997 L424.733 136.303 L428.992 136.303 L428.992 151.835 Q428.992 155.516 430.427 157.368 Q431.863 159.196 434.733 159.196 Q438.182 159.196 440.173 156.997 Q442.187 154.798 442.187 151.002 L442.187 136.303 L446.446 136.303 L446.446 162.229 L442.187 162.229 L442.187 158.247 Q440.636 160.608 438.576 161.766 Q436.539 162.9 433.83 162.9 Q429.363 162.9 427.048 160.122 Q424.733 157.344 424.733 151.997 M435.451 135.678 L435.451 135.678 Z" fill="#000000" fill-rule="nonzero" fill-opacity="1" /><path clip-path="url(#clip660)" d="M454.825 126.21 L464.64 126.21 L464.64 129.52 L459.085 129.52 L459.085 165.168 L464.64 165.168 L464.64 168.479 L454.825 168.479 L454.825 126.21 Z" fill="#000000" fill-rule="nonzero" fill-opacity="1" /><path clip-path="url(#clip660)" d="M475.126 158.293 L482.765 158.293 L482.765 131.928 L474.455 133.595 L474.455 129.335 L482.719 127.669 L487.395 127.669 L487.395 158.293 L495.034 158.293 L495.034 162.229 L475.126 162.229 L475.126 158.293 Z" fill="#000000" fill-rule="nonzero" fill-opacity="1" /><path clip-path="url(#clip660)" d="M513.83 126.21 L513.83 168.479 L504.015 168.479 L504.015 165.168 L509.547 165.168 L509.547 129.52 L504.015 129.52 L504.015 126.21 L513.83 126.21 Z" fill="#000000" fill-rule="nonzero" fill-opacity="1" /><polyline clip-path="url(#clip660)" style="stroke:#e26f46; stroke-linecap:round; stroke-linejoin:round; stroke-width:4; stroke-opacity:1; fill:none" points="253.896,196.789 400.328,196.789 "/>
<path clip-path="url(#clip660)" d="M424.733 179.509 L453.969 179.509 L453.969 183.444 L441.701 183.444 L441.701 214.069 L437.001 214.069 L437.001 183.444 L424.733 183.444 L424.733 179.509 Z" fill="#000000" fill-rule="nonzero" fill-opacity="1" /><path clip-path="url(#clip660)" d="M466.353 192.124 Q465.636 191.708 464.779 191.522 Q463.946 191.314 462.927 191.314 Q459.316 191.314 457.372 193.675 Q455.45 196.013 455.45 200.411 L455.45 214.069 L451.168 214.069 L451.168 188.143 L455.45 188.143 L455.45 192.171 Q456.793 189.809 458.946 188.675 Q461.099 187.518 464.177 187.518 Q464.617 187.518 465.149 187.587 Q465.682 187.634 466.33 187.749 L466.353 192.124 Z" fill="#000000" fill-rule="nonzero" fill-opacity="1" /><path clip-path="url(#clip660)" d="M470.381 203.837 L470.381 188.143 L474.64 188.143 L474.64 203.675 Q474.64 207.356 476.075 209.208 Q477.511 211.036 480.381 211.036 Q483.83 211.036 485.821 208.837 Q487.835 206.638 487.835 202.842 L487.835 188.143 L492.094 188.143 L492.094 214.069 L487.835 214.069 L487.835 210.087 Q486.284 212.448 484.223 213.606 Q482.186 214.74 479.478 214.74 Q475.011 214.74 472.696 211.962 Q470.381 209.184 470.381 203.837 M481.098 187.518 L481.098 187.518 Z" fill="#000000" fill-rule="nonzero" fill-opacity="1" /><path clip-path="url(#clip660)" d="M523.043 200.041 L523.043 202.124 L503.459 202.124 Q503.737 206.522 506.098 208.837 Q508.483 211.129 512.719 211.129 Q515.172 211.129 517.464 210.527 Q519.779 209.925 522.047 208.721 L522.047 212.749 Q519.756 213.721 517.348 214.231 Q514.941 214.74 512.464 214.74 Q506.26 214.74 502.626 211.129 Q499.015 207.518 499.015 201.36 Q499.015 194.995 502.441 191.268 Q505.89 187.518 511.723 187.518 Q516.955 187.518 519.987 190.897 Q523.043 194.254 523.043 200.041 M518.783 198.791 Q518.737 195.296 516.816 193.212 Q514.918 191.129 511.77 191.129 Q508.205 191.129 506.052 193.143 Q503.922 195.157 503.598 198.814 L518.783 198.791 Z" fill="#000000" fill-rule="nonzero" fill-opacity="1" /><path clip-path="url(#clip660)" d="M544.663 203.837 L544.663 188.143 L548.922 188.143 L548.922 203.675 Q548.922 207.356 550.357 209.208 Q551.793 211.036 554.663 211.036 Q558.112 211.036 560.103 208.837 Q562.117 206.638 562.117 202.842 L562.117 188.143 L566.376 188.143 L566.376 214.069 L562.117 214.069 L562.117 210.087 Q560.566 212.448 558.505 213.606 Q556.468 214.74 553.76 214.74 Q549.293 214.74 546.978 211.962 Q544.663 209.184 544.663 203.837 M555.38 187.518 L555.38 187.518 Z" fill="#000000" fill-rule="nonzero" fill-opacity="1" /><path clip-path="url(#clip660)" d="M574.755 178.05 L584.57 178.05 L584.57 181.36 L579.015 181.36 L579.015 217.008 L584.57 217.008 L584.57 220.319 L574.755 220.319 L574.755 178.05 Z" fill="#000000" fill-rule="nonzero" fill-opacity="1" /><path clip-path="url(#clip660)" d="M595.056 210.133 L602.695 210.133 L602.695 183.768 L594.385 185.435 L594.385 181.175 L602.649 179.509 L607.325 179.509 L607.325 210.133 L614.964 210.133 L614.964 214.069 L595.056 214.069 L595.056 210.133 Z" fill="#000000" fill-rule="nonzero" fill-opacity="1" /><path clip-path="url(#clip660)" d="M633.76 178.05 L633.76 220.319 L623.945 220.319 L623.945 217.008 L629.477 217.008 L629.477 181.36 L623.945 181.36 L623.945 178.05 L633.76 178.05 Z" fill="#000000" fill-rule="nonzero" fill-opacity="1" /></svg>
