<?xml version="1.0" encoding="utf-8"?>
<svg xmlns="http://www.w3.org/2000/svg" xmlns:xlink="http://www.w3.org/1999/xlink" width="600" height="400" viewBox="0 0 2400 1600">
<defs>
  <clipPath id="clip750">
    <rect x="0" y="0" width="2400" height="1600"/>
  </clipPath>
</defs>
<path clip-path="url(#clip750)" d="M0 1600 L2400 1600 L2400 0 L0 0  Z" fill="#ffffff" fill-rule="evenodd" fill-opacity="1"/>
<defs>
  <clipPath id="clip751">
    <rect x="480" y="0" width="1681" height="1600"/>
  </clipPath>
</defs>
<path clip-path="url(#clip750)" d="M186.274 1423.18 L2352.76 1423.18 L2352.76 47.2441 L186.274 47.2441  Z" fill="#ffffff" fill-rule="evenodd" fill-opacity="1"/>
<defs>
  <clipPath id="clip752">
    <rect x="186" y="47" width="2167" height="1377"/>
  </clipPath>
</defs>
<polyline clip-path="url(#clip752)" style="stroke:#000000; stroke-linecap:round; stroke-linejoin:round; stroke-width:2; stroke-opacity:0.1; fill:none" points="186.274,1423.18 186.274,47.2441 "/>
<polyline clip-path="url(#clip752)" style="stroke:#000000; stroke-linecap:round; stroke-linejoin:round; stroke-width:2; stroke-opacity:0.1; fill:none" points="619.57,1423.18 619.57,47.2441 "/>
<polyline clip-path="url(#clip752)" style="stroke:#000000; stroke-linecap:round; stroke-linejoin:round; stroke-width:2; stroke-opacity:0.1; fill:none" points="1052.87,1423.18 1052.87,47.2441 "/>
<polyline clip-path="url(#clip752)" style="stroke:#000000; stroke-linecap:round; stroke-linejoin:round; stroke-width:2; stroke-opacity:0.1; fill:none" points="1486.16,1423.18 1486.16,47.2441 "/>
<polyline clip-path="url(#clip752)" style="stroke:#000000; stroke-linecap:round; stroke-linejoin:round; stroke-width:2; stroke-opacity:0.1; fill:none" points="1919.46,1423.18 1919.46,47.2441 "/>
<polyline clip-path="url(#clip752)" style="stroke:#000000; stroke-linecap:round; stroke-linejoin:round; stroke-width:2; stroke-opacity:0.1; fill:none" points="2352.76,1423.18 2352.76,47.2441 "/>
<polyline clip-path="url(#clip752)" style="stroke:#000000; stroke-linecap:round; stroke-linejoin:round; stroke-width:2; stroke-opacity:0.1; fill:none" points="186.274,1237.75 2352.76,1237.75 "/>
<polyline clip-path="url(#clip752)" style="stroke:#000000; stroke-linecap:round; stroke-linejoin:round; stroke-width:2; stroke-opacity:0.1; fill:none" points="186.274,993.985 2352.76,993.985 "/>
<polyline clip-path="url(#clip752)" style="stroke:#000000; stroke-linecap:round; stroke-linejoin:round; stroke-width:2; stroke-opacity:0.1; fill:none" points="186.274,750.225 2352.76,750.225 "/>
<polyline clip-path="url(#clip752)" style="stroke:#000000; stroke-linecap:round; stroke-linejoin:round; stroke-width:2; stroke-opacity:0.1; fill:none" points="186.274,506.464 2352.76,506.464 "/>
<polyline clip-path="url(#clip752)" style="stroke:#000000; stroke-linecap:round; stroke-linejoin:round; stroke-width:2; stroke-opacity:0.1; fill:none" points="186.274,262.703 2352.76,262.703 "/>
<polyline clip-path="url(#clip750)" style="stroke:#000000; stroke-linecap:round; stroke-linejoin:round; stroke-width:4; stroke-opacity:1; fill:none" points="186.274,1423.18 2352.76,1423.18 "/>
<polyline clip-path="url(#clip750)" style="stroke:#000000; stroke-linecap:round; stroke-linejoin:round; stroke-width:4; stroke-opacity:1; fill:none" points="186.274,1423.18 186.274,1404.28 "/>
<polyline clip-path="url(#clip750)" style="stroke:#000000; stroke-linecap:round; stroke-linejoin:round; stroke-width:4; stroke-opacity:1; fill:none" points="619.57,1423.18 619.57,1404.28 "/>
<polyline clip-path="url(#clip750)" style="stroke:#000000; stroke-linecap:round; stroke-linejoin:round; stroke-width:4; stroke-opacity:1; fill:none" points="1052.87,1423.18 1052.87,1404.28 "/>
<polyline clip-path="url(#clip750)" style="stroke:#000000; stroke-linecap:round; stroke-linejoin:round; stroke-width:4; stroke-opacity:1; fill:none" points="1486.16,1423.18 1486.16,1404.28 "/>
<polyline clip-path="url(#clip750)" style="stroke:#000000; stroke-linecap:round; stroke-linejoin:round; stroke-width:4; stroke-opacity:1; fill:none" points="1919.46,1423.18 1919.46,1404.28 "/>
<polyline clip-path="url(#clip750)" style="stroke:#000000; stroke-linecap:round; stroke-linejoin:round; stroke-width:4; stroke-opacity:1; fill:none" points="2352.76,1423.18 2352.76,1404.28 "/>
<path clip-path="url(#clip750)" d="M163.658 1454.1 Q160.047 1454.1 158.219 1457.66 Q156.413 1461.2 156.413 1468.33 Q156.413 1475.44 158.219 1479.01 Q160.047 1482.55 163.658 1482.55 Q167.293 1482.55 169.098 1479.01 Q170.927 1475.44 170.927 1468.33 Q170.927 1461.2 169.098 1457.66 Q167.293 1454.1 163.658 1454.1 M163.658 1450.39 Q169.469 1450.39 172.524 1455 Q175.603 1459.58 175.603 1468.33 Q175.603 1477.06 172.524 1481.67 Q169.469 1486.25 163.658 1486.25 Q157.848 1486.25 154.77 1481.67 Q151.714 1477.06 151.714 1468.33 Q151.714 1459.58 154.77 1455 Q157.848 1450.39 163.658 1450.39 Z" fill="#000000" fill-rule="nonzero" fill-opacity="1" /><path clip-path="url(#clip750)" d="M183.82 1479.7 L188.705 1479.7 L188.705 1485.58 L183.82 1485.58 L183.82 1479.7 Z" fill="#000000" fill-rule="nonzero" fill-opacity="1" /><path clip-path="url(#clip750)" d="M208.89 1454.1 Q205.279 1454.1 203.45 1457.66 Q201.644 1461.2 201.644 1468.33 Q201.644 1475.44 203.45 1479.01 Q205.279 1482.55 208.89 1482.55 Q212.524 1482.55 214.329 1479.01 Q216.158 1475.44 216.158 1468.33 Q216.158 1461.2 214.329 1457.66 Q212.524 1454.1 208.89 1454.1 M208.89 1450.39 Q214.7 1450.39 217.755 1455 Q220.834 1459.58 220.834 1468.33 Q220.834 1477.06 217.755 1481.67 Q214.7 1486.25 208.89 1486.25 Q203.079 1486.25 200.001 1481.67 Q196.945 1477.06 196.945 1468.33 Q196.945 1459.58 200.001 1455 Q203.079 1450.39 208.89 1450.39 Z" fill="#000000" fill-rule="nonzero" fill-opacity="1" /><path clip-path="url(#clip750)" d="M597.753 1454.1 Q594.142 1454.1 592.314 1457.66 Q590.508 1461.2 590.508 1468.33 Q590.508 1475.44 592.314 1479.01 Q594.142 1482.55 597.753 1482.55 Q601.388 1482.55 603.193 1479.01 Q605.022 1475.44 605.022 1468.33 Q605.022 1461.2 603.193 1457.66 Q601.388 1454.1 597.753 1454.1 M597.753 1450.39 Q603.564 1450.39 606.619 1455 Q609.698 1459.58 609.698 1468.33 Q609.698 1477.06 606.619 1481.67 Q603.564 1486.25 597.753 1486.25 Q591.943 1486.25 588.865 1481.67 Q585.809 1477.06 585.809 1468.33 Q585.809 1459.58 588.865 1455 Q591.943 1450.39 597.753 1450.39 Z" fill="#000000" fill-rule="nonzero" fill-opacity="1" /><path clip-path="url(#clip750)" d="M617.915 1479.7 L622.8 1479.7 L622.8 1485.58 L617.915 1485.58 L617.915 1479.7 Z" fill="#000000" fill-rule="nonzero" fill-opacity="1" /><path clip-path="url(#clip750)" d="M637.012 1481.64 L653.332 1481.64 L653.332 1485.58 L631.387 1485.58 L631.387 1481.64 Q634.049 1478.89 638.633 1474.26 Q643.239 1469.61 644.42 1468.27 Q646.665 1465.74 647.545 1464.01 Q648.448 1462.25 648.448 1460.56 Q648.448 1457.8 646.503 1456.07 Q644.582 1454.33 641.48 1454.33 Q639.281 1454.33 636.827 1455.09 Q634.397 1455.86 631.619 1457.41 L631.619 1452.69 Q634.443 1451.55 636.897 1450.97 Q639.35 1450.39 641.387 1450.39 Q646.758 1450.39 649.952 1453.08 Q653.147 1455.77 653.147 1460.26 Q653.147 1462.39 652.336 1464.31 Q651.549 1466.2 649.443 1468.8 Q648.864 1469.47 645.762 1472.69 Q642.661 1475.88 637.012 1481.64 Z" fill="#000000" fill-rule="nonzero" fill-opacity="1" /><path clip-path="url(#clip750)" d="M1030.01 1454.1 Q1026.4 1454.1 1024.57 1457.66 Q1022.76 1461.2 1022.76 1468.33 Q1022.76 1475.44 1024.57 1479.01 Q1026.4 1482.55 1030.01 1482.55 Q1033.64 1482.55 1035.45 1479.01 Q1037.28 1475.44 1037.28 1468.33 Q1037.28 1461.2 1035.45 1457.66 Q1033.64 1454.1 1030.01 1454.1 M1030.01 1450.39 Q1035.82 1450.39 1038.87 1455 Q1041.95 1459.58 1041.95 1468.33 Q1041.95 1477.06 1038.87 1481.67 Q1035.82 1486.25 1030.01 1486.25 Q1024.2 1486.25 1021.12 1481.67 Q1018.06 1477.06 1018.06 1468.33 Q1018.06 1459.58 1021.12 1455 Q1024.2 1450.39 1030.01 1450.39 Z" fill="#000000" fill-rule="nonzero" fill-opacity="1" /><path clip-path="url(#clip750)" d="M1050.17 1479.7 L1055.05 1479.7 L1055.05 1485.58 L1050.17 1485.58 L1050.17 1479.7 Z" fill="#000000" fill-rule="nonzero" fill-opacity="1" /><path clip-path="url(#clip750)" d="M1078.09 1455.09 L1066.28 1473.54 L1078.09 1473.54 L1078.09 1455.09 M1076.86 1451.02 L1082.74 1451.02 L1082.74 1473.54 L1087.67 1473.54 L1087.67 1477.43 L1082.74 1477.43 L1082.74 1485.58 L1078.09 1485.58 L1078.09 1477.43 L1062.48 1477.43 L1062.48 1472.92 L1076.86 1451.02 Z" fill="#000000" fill-rule="nonzero" fill-opacity="1" /><path clip-path="url(#clip750)" d="M1463.47 1454.1 Q1459.86 1454.1 1458.03 1457.66 Q1456.22 1461.2 1456.22 1468.33 Q1456.22 1475.44 1458.03 1479.01 Q1459.86 1482.55 1463.47 1482.55 Q1467.1 1482.55 1468.91 1479.01 Q1470.73 1475.44 1470.73 1468.33 Q1470.73 1461.2 1468.91 1457.66 Q1467.1 1454.1 1463.47 1454.1 M1463.47 1450.39 Q1469.28 1450.39 1472.33 1455 Q1475.41 1459.58 1475.41 1468.33 Q1475.41 1477.06 1472.33 1481.67 Q1469.28 1486.25 1463.47 1486.25 Q1457.66 1486.25 1454.58 1481.67 Q1451.52 1477.06 1451.52 1468.33 Q1451.52 1459.58 1454.58 1455 Q1457.66 1450.39 1463.47 1450.39 Z" fill="#000000" fill-rule="nonzero" fill-opacity="1" /><path clip-path="url(#clip750)" d="M1483.63 1479.7 L1488.51 1479.7 L1488.51 1485.58 L1483.63 1485.58 L1483.63 1479.7 Z" fill="#000000" fill-rule="nonzero" fill-opacity="1" /><path clip-path="url(#clip750)" d="M1509.28 1466.44 Q1506.13 1466.44 1504.28 1468.59 Q1502.45 1470.74 1502.45 1474.49 Q1502.45 1478.22 1504.28 1480.39 Q1506.13 1482.55 1509.28 1482.55 Q1512.42 1482.55 1514.25 1480.39 Q1516.11 1478.22 1516.11 1474.49 Q1516.11 1470.74 1514.25 1468.59 Q1512.42 1466.44 1509.28 1466.44 M1518.56 1451.78 L1518.56 1456.04 Q1516.8 1455.21 1514.99 1454.77 Q1513.21 1454.33 1511.45 1454.33 Q1506.82 1454.33 1504.37 1457.45 Q1501.94 1460.58 1501.59 1466.9 Q1502.96 1464.89 1505.02 1463.82 Q1507.08 1462.73 1509.55 1462.73 Q1514.76 1462.73 1517.77 1465.9 Q1520.8 1469.05 1520.8 1474.49 Q1520.8 1479.82 1517.66 1483.03 Q1514.51 1486.25 1509.28 1486.25 Q1503.28 1486.25 1500.11 1481.67 Q1496.94 1477.06 1496.94 1468.33 Q1496.94 1460.14 1500.83 1455.28 Q1504.72 1450.39 1511.27 1450.39 Q1513.03 1450.39 1514.81 1450.74 Q1516.61 1451.09 1518.56 1451.78 Z" fill="#000000" fill-rule="nonzero" fill-opacity="1" /><path clip-path="url(#clip750)" d="M1896.89 1454.1 Q1893.28 1454.1 1891.45 1457.66 Q1889.64 1461.2 1889.64 1468.33 Q1889.64 1475.44 1891.45 1479.01 Q1893.28 1482.55 1896.89 1482.55 Q1900.52 1482.55 1902.33 1479.01 Q1904.16 1475.44 1904.16 1468.33 Q1904.16 1461.2 1902.33 1457.66 Q1900.52 1454.1 1896.89 1454.1 M1896.89 1450.39 Q1902.7 1450.39 1905.76 1455 Q1908.83 1459.58 1908.83 1468.33 Q1908.83 1477.06 1905.76 1481.67 Q1902.7 1486.25 1896.89 1486.25 Q1891.08 1486.25 1888 1481.67 Q1884.95 1477.06 1884.95 1468.33 Q1884.95 1459.58 1888 1455 Q1891.08 1450.39 1896.89 1450.39 Z" fill="#000000" fill-rule="nonzero" fill-opacity="1" /><path clip-path="url(#clip750)" d="M1917.05 1479.7 L1921.94 1479.7 L1921.94 1485.58 L1917.05 1485.58 L1917.05 1479.7 Z" fill="#000000" fill-rule="nonzero" fill-opacity="1" /><path clip-path="url(#clip750)" d="M1942.12 1469.17 Q1938.79 1469.17 1936.87 1470.95 Q1934.97 1472.73 1934.97 1475.86 Q1934.97 1478.98 1936.87 1480.77 Q1938.79 1482.55 1942.12 1482.55 Q1945.45 1482.55 1947.38 1480.77 Q1949.3 1478.96 1949.3 1475.86 Q1949.3 1472.73 1947.38 1470.95 Q1945.48 1469.17 1942.12 1469.17 M1937.45 1467.18 Q1934.44 1466.44 1932.75 1464.38 Q1931.08 1462.32 1931.08 1459.35 Q1931.08 1455.21 1934.02 1452.8 Q1936.98 1450.39 1942.12 1450.39 Q1947.28 1450.39 1950.22 1452.8 Q1953.16 1455.21 1953.16 1459.35 Q1953.16 1462.32 1951.47 1464.38 Q1949.81 1466.44 1946.82 1467.18 Q1950.2 1467.96 1952.08 1470.26 Q1953.97 1472.55 1953.97 1475.86 Q1953.97 1480.88 1950.89 1483.57 Q1947.84 1486.25 1942.12 1486.25 Q1936.4 1486.25 1933.33 1483.57 Q1930.27 1480.88 1930.27 1475.86 Q1930.27 1472.55 1932.17 1470.26 Q1934.07 1467.96 1937.45 1467.18 M1935.73 1459.79 Q1935.73 1462.48 1937.4 1463.98 Q1939.09 1465.49 1942.12 1465.49 Q1945.13 1465.49 1946.82 1463.98 Q1948.53 1462.48 1948.53 1459.79 Q1948.53 1457.11 1946.82 1455.6 Q1945.13 1454.1 1942.12 1454.1 Q1939.09 1454.1 1937.4 1455.6 Q1935.73 1457.11 1935.73 1459.79 Z" fill="#000000" fill-rule="nonzero" fill-opacity="1" /><path clip-path="url(#clip750)" d="M2319.91 1481.64 L2327.55 1481.64 L2327.55 1455.28 L2319.24 1456.95 L2319.24 1452.69 L2327.5 1451.02 L2332.18 1451.02 L2332.18 1481.64 L2339.82 1481.64 L2339.82 1485.58 L2319.91 1485.58 L2319.91 1481.64 Z" fill="#000000" fill-rule="nonzero" fill-opacity="1" /><path clip-path="url(#clip750)" d="M2349.26 1479.7 L2354.14 1479.7 L2354.14 1485.58 L2349.26 1485.58 L2349.26 1479.7 Z" fill="#000000" fill-rule="nonzero" fill-opacity="1" /><path clip-path="url(#clip750)" d="M2374.33 1454.1 Q2370.72 1454.1 2368.89 1457.66 Q2367.08 1461.2 2367.08 1468.33 Q2367.08 1475.44 2368.89 1479.01 Q2370.72 1482.55 2374.33 1482.55 Q2377.96 1482.55 2379.77 1479.01 Q2381.6 1475.44 2381.6 1468.33 Q2381.6 1461.2 2379.77 1457.66 Q2377.96 1454.1 2374.33 1454.1 M2374.33 1450.39 Q2380.14 1450.39 2383.2 1455 Q2386.27 1459.58 2386.27 1468.33 Q2386.27 1477.06 2383.2 1481.67 Q2380.14 1486.25 2374.33 1486.25 Q2368.52 1486.25 2365.44 1481.67 Q2362.39 1477.06 2362.39 1468.33 Q2362.39 1459.58 2365.44 1455 Q2368.52 1450.39 2374.33 1450.39 Z" fill="#000000" fill-rule="nonzero" fill-opacity="1" /><path clip-path="url(#clip750)" d="M1268.58 1522.27 L1268.58 1532.4 L1280.64 1532.4 L1280.64 1536.95 L1268.58 1536.95 L1268.58 1556.3 Q1268.58 1560.66 1269.75 1561.9 Q1270.96 1563.14 1274.62 1563.14 L1280.64 1563.14 L1280.64 1568.04 L1274.62 1568.04 Q1267.84 1568.04 1265.27 1565.53 Q1262.69 1562.98 1262.69 1556.3 L1262.69 1536.95 L1258.39 1536.95 L1258.39 1532.4 L1262.69 1532.4 L1262.69 1522.27 L1268.58 1522.27 Z" fill="#000000" fill-rule="nonzero" fill-opacity="1" /><polyline clip-path="url(#clip750)" style="stroke:#000000; stroke-linecap:round; stroke-linejoin:round; stroke-width:4; stroke-opacity:1; fill:none" points="186.274,1423.18 186.274,47.2441 "/>
<polyline clip-path="url(#clip750)" style="stroke:#000000; stroke-linecap:round; stroke-linejoin:round; stroke-width:4; stroke-opacity:1; fill:none" points="186.274,1237.75 205.172,1237.75 "/>
<polyline clip-path="url(#clip750)" style="stroke:#000000; stroke-linecap:round; stroke-linejoin:round; stroke-width:4; stroke-opacity:1; fill:none" points="186.274,993.985 205.172,993.985 "/>
<polyline clip-path="url(#clip750)" style="stroke:#000000; stroke-linecap:round; stroke-linejoin:round; stroke-width:4; stroke-opacity:1; fill:none" points="186.274,750.225 205.172,750.225 "/>
<polyline clip-path="url(#clip750)" style="stroke:#000000; stroke-linecap:round; stroke-linejoin:round; stroke-width:4; stroke-opacity:1; fill:none" points="186.274,506.464 205.172,506.464 "/>
<polyline clip-path="url(#clip750)" style="stroke:#000000; stroke-linecap:round; stroke-linejoin:round; stroke-width:4; stroke-opacity:1; fill:none" points="186.274,262.703 205.172,262.703 "/>
<path clip-path="url(#clip750)" d="M63.9319 1223.54 Q60.3208 1223.54 58.4921 1227.11 Q56.6865 1230.65 56.6865 1237.78 Q56.6865 1244.89 58.4921 1248.45 Q60.3208 1251.99 63.9319 1251.99 Q67.5661 1251.99 69.3717 1248.45 Q71.2004 1244.89 71.2004 1237.78 Q71.2004 1230.65 69.3717 1227.11 Q67.5661 1223.54 63.9319 1223.54 M63.9319 1219.84 Q69.742 1219.84 72.7976 1224.45 Q75.8763 1229.03 75.8763 1237.78 Q75.8763 1246.51 72.7976 1251.11 Q69.742 1255.7 63.9319 1255.7 Q58.1217 1255.7 55.043 1251.11 Q51.9875 1246.51 51.9875 1237.78 Q51.9875 1229.03 55.043 1224.45 Q58.1217 1219.84 63.9319 1219.84 Z" fill="#000000" fill-rule="nonzero" fill-opacity="1" /><path clip-path="url(#clip750)" d="M84.0938 1249.15 L88.978 1249.15 L88.978 1255.03 L84.0938 1255.03 L84.0938 1249.15 Z" fill="#000000" fill-rule="nonzero" fill-opacity="1" /><path clip-path="url(#clip750)" d="M103.191 1251.09 L119.51 1251.09 L119.51 1255.03 L97.566 1255.03 L97.566 1251.09 Q100.228 1248.34 104.811 1243.71 Q109.418 1239.05 110.598 1237.71 Q112.844 1235.19 113.723 1233.45 Q114.626 1231.69 114.626 1230 Q114.626 1227.25 112.682 1225.51 Q110.76 1223.78 107.658 1223.78 Q105.459 1223.78 103.006 1224.54 Q100.575 1225.3 97.7974 1226.85 L97.7974 1222.13 Q100.621 1221 103.075 1220.42 Q105.529 1219.84 107.566 1219.84 Q112.936 1219.84 116.131 1222.53 Q119.325 1225.21 119.325 1229.7 Q119.325 1231.83 118.515 1233.75 Q117.728 1235.65 115.621 1238.24 Q115.043 1238.91 111.941 1242.13 Q108.839 1245.33 103.191 1251.09 Z" fill="#000000" fill-rule="nonzero" fill-opacity="1" /><path clip-path="url(#clip750)" d="M129.371 1220.47 L147.728 1220.47 L147.728 1224.4 L133.654 1224.4 L133.654 1232.87 Q134.672 1232.53 135.691 1232.36 Q136.709 1232.18 137.728 1232.18 Q143.515 1232.18 146.894 1235.35 Q150.274 1238.52 150.274 1243.94 Q150.274 1249.52 146.802 1252.62 Q143.33 1255.7 137.01 1255.7 Q134.834 1255.7 132.566 1255.33 Q130.32 1254.96 127.913 1254.22 L127.913 1249.52 Q129.996 1250.65 132.219 1251.21 Q134.441 1251.76 136.918 1251.76 Q140.922 1251.76 143.26 1249.66 Q145.598 1247.55 145.598 1243.94 Q145.598 1240.33 143.26 1238.22 Q140.922 1236.11 136.918 1236.11 Q135.043 1236.11 133.168 1236.53 Q131.316 1236.95 129.371 1237.83 L129.371 1220.47 Z" fill="#000000" fill-rule="nonzero" fill-opacity="1" /><path clip-path="url(#clip750)" d="M62.9365 979.784 Q59.3254 979.784 57.4967 983.349 Q55.6912 986.89 55.6912 994.02 Q55.6912 1001.13 57.4967 1004.69 Q59.3254 1008.23 62.9365 1008.23 Q66.5707 1008.23 68.3763 1004.69 Q70.205 1001.13 70.205 994.02 Q70.205 986.89 68.3763 983.349 Q66.5707 979.784 62.9365 979.784 M62.9365 976.08 Q68.7467 976.08 71.8022 980.687 Q74.8809 985.27 74.8809 994.02 Q74.8809 1002.75 71.8022 1007.35 Q68.7467 1011.94 62.9365 1011.94 Q57.1264 1011.94 54.0477 1007.35 Q50.9921 1002.75 50.9921 994.02 Q50.9921 985.27 54.0477 980.687 Q57.1264 976.08 62.9365 976.08 Z" fill="#000000" fill-rule="nonzero" fill-opacity="1" /><path clip-path="url(#clip750)" d="M83.0984 1005.39 L87.9827 1005.39 L87.9827 1011.27 L83.0984 1011.27 L83.0984 1005.39 Z" fill="#000000" fill-rule="nonzero" fill-opacity="1" /><path clip-path="url(#clip750)" d="M98.2141 976.705 L116.57 976.705 L116.57 980.64 L102.496 980.64 L102.496 989.113 Q103.515 988.765 104.534 988.603 Q105.552 988.418 106.571 988.418 Q112.358 988.418 115.737 991.589 Q119.117 994.761 119.117 1000.18 Q119.117 1005.76 115.645 1008.86 Q112.172 1011.94 105.853 1011.94 Q103.677 1011.94 101.409 1011.57 Q99.1632 1011.2 96.7558 1010.46 L96.7558 1005.76 Q98.8391 1006.89 101.061 1007.45 Q103.284 1008 105.76 1008 Q109.765 1008 112.103 1005.89 Q114.441 1003.79 114.441 1000.18 Q114.441 996.566 112.103 994.46 Q109.765 992.353 105.76 992.353 Q103.885 992.353 102.01 992.77 Q100.159 993.187 98.2141 994.066 L98.2141 976.705 Z" fill="#000000" fill-rule="nonzero" fill-opacity="1" /><path clip-path="url(#clip750)" d="M138.33 979.784 Q134.719 979.784 132.89 983.349 Q131.084 986.89 131.084 994.02 Q131.084 1001.13 132.89 1004.69 Q134.719 1008.23 138.33 1008.23 Q141.964 1008.23 143.769 1004.69 Q145.598 1001.13 145.598 994.02 Q145.598 986.89 143.769 983.349 Q141.964 979.784 138.33 979.784 M138.33 976.08 Q144.14 976.08 147.195 980.687 Q150.274 985.27 150.274 994.02 Q150.274 1002.75 147.195 1007.35 Q144.14 1011.94 138.33 1011.94 Q132.519 1011.94 129.441 1007.35 Q126.385 1002.75 126.385 994.02 Q126.385 985.27 129.441 980.687 Q132.519 976.08 138.33 976.08 Z" fill="#000000" fill-rule="nonzero" fill-opacity="1" /><path clip-path="url(#clip750)" d="M63.9319 736.023 Q60.3208 736.023 58.4921 739.588 Q56.6865 743.13 56.6865 750.259 Q56.6865 757.366 58.4921 760.931 Q60.3208 764.472 63.9319 764.472 Q67.5661 764.472 69.3717 760.931 Q71.2004 757.366 71.2004 750.259 Q71.2004 743.13 69.3717 739.588 Q67.5661 736.023 63.9319 736.023 M63.9319 732.32 Q69.742 732.32 72.7976 736.926 Q75.8763 741.509 75.8763 750.259 Q75.8763 758.986 72.7976 763.593 Q69.742 768.176 63.9319 768.176 Q58.1217 768.176 55.043 763.593 Q51.9875 758.986 51.9875 750.259 Q51.9875 741.509 55.043 736.926 Q58.1217 732.32 63.9319 732.32 Z" fill="#000000" fill-rule="nonzero" fill-opacity="1" /><path clip-path="url(#clip750)" d="M84.0938 761.625 L88.978 761.625 L88.978 767.505 L84.0938 767.505 L84.0938 761.625 Z" fill="#000000" fill-rule="nonzero" fill-opacity="1" /><path clip-path="url(#clip750)" d="M97.9826 732.945 L120.205 732.945 L120.205 734.935 L107.658 767.505 L102.774 767.505 L114.58 736.88 L97.9826 736.88 L97.9826 732.945 Z" fill="#000000" fill-rule="nonzero" fill-opacity="1" /><path clip-path="url(#clip750)" d="M129.371 732.945 L147.728 732.945 L147.728 736.88 L133.654 736.88 L133.654 745.352 Q134.672 745.005 135.691 744.843 Q136.709 744.657 137.728 744.657 Q143.515 744.657 146.894 747.829 Q150.274 751 150.274 756.417 Q150.274 761.995 146.802 765.097 Q143.33 768.176 137.01 768.176 Q134.834 768.176 132.566 767.805 Q130.32 767.435 127.913 766.694 L127.913 761.995 Q129.996 763.13 132.219 763.685 Q134.441 764.241 136.918 764.241 Q140.922 764.241 143.26 762.134 Q145.598 760.028 145.598 756.417 Q145.598 752.806 143.26 750.699 Q140.922 748.593 136.918 748.593 Q135.043 748.593 133.168 749.009 Q131.316 749.426 129.371 750.306 L129.371 732.945 Z" fill="#000000" fill-rule="nonzero" fill-opacity="1" /><path clip-path="url(#clip750)" d="M53.7467 519.809 L61.3856 519.809 L61.3856 493.443 L53.0754 495.11 L53.0754 490.851 L61.3393 489.184 L66.0152 489.184 L66.0152 519.809 L73.654 519.809 L73.654 523.744 L53.7467 523.744 L53.7467 519.809 Z" fill="#000000" fill-rule="nonzero" fill-opacity="1" /><path clip-path="url(#clip750)" d="M83.0984 517.864 L87.9827 517.864 L87.9827 523.744 L83.0984 523.744 L83.0984 517.864 Z" fill="#000000" fill-rule="nonzero" fill-opacity="1" /><path clip-path="url(#clip750)" d="M108.168 492.263 Q104.557 492.263 102.728 495.827 Q100.922 499.369 100.922 506.499 Q100.922 513.605 102.728 517.17 Q104.557 520.712 108.168 520.712 Q111.802 520.712 113.608 517.17 Q115.436 513.605 115.436 506.499 Q115.436 499.369 113.608 495.827 Q111.802 492.263 108.168 492.263 M108.168 488.559 Q113.978 488.559 117.033 493.165 Q120.112 497.749 120.112 506.499 Q120.112 515.225 117.033 519.832 Q113.978 524.415 108.168 524.415 Q102.358 524.415 99.2789 519.832 Q96.2234 515.225 96.2234 506.499 Q96.2234 497.749 99.2789 493.165 Q102.358 488.559 108.168 488.559 Z" fill="#000000" fill-rule="nonzero" fill-opacity="1" /><path clip-path="url(#clip750)" d="M138.33 492.263 Q134.719 492.263 132.89 495.827 Q131.084 499.369 131.084 506.499 Q131.084 513.605 132.89 517.17 Q134.719 520.712 138.33 520.712 Q141.964 520.712 143.769 517.17 Q145.598 513.605 145.598 506.499 Q145.598 499.369 143.769 495.827 Q141.964 492.263 138.33 492.263 M138.33 488.559 Q144.14 488.559 147.195 493.165 Q150.274 497.749 150.274 506.499 Q150.274 515.225 147.195 519.832 Q144.14 524.415 138.33 524.415 Q132.519 524.415 129.441 519.832 Q126.385 515.225 126.385 506.499 Q126.385 497.749 129.441 493.165 Q132.519 488.559 138.33 488.559 Z" fill="#000000" fill-rule="nonzero" fill-opacity="1" /><path clip-path="url(#clip750)" d="M54.7421 276.048 L62.381 276.048 L62.381 249.682 L54.0708 251.349 L54.0708 247.09 L62.3347 245.423 L67.0106 245.423 L67.0106 276.048 L74.6494 276.048 L74.6494 279.983 L54.7421 279.983 L54.7421 276.048 Z" fill="#000000" fill-rule="nonzero" fill-opacity="1" /><path clip-path="url(#clip750)" d="M84.0938 274.104 L88.978 274.104 L88.978 279.983 L84.0938 279.983 L84.0938 274.104 Z" fill="#000000" fill-rule="nonzero" fill-opacity="1" /><path clip-path="url(#clip750)" d="M103.191 276.048 L119.51 276.048 L119.51 279.983 L97.566 279.983 L97.566 276.048 Q100.228 273.293 104.811 268.664 Q109.418 264.011 110.598 262.669 Q112.844 260.145 113.723 258.409 Q114.626 256.65 114.626 254.96 Q114.626 252.206 112.682 250.469 Q110.76 248.733 107.658 248.733 Q105.459 248.733 103.006 249.497 Q100.575 250.261 97.7974 251.812 L97.7974 247.09 Q100.621 245.956 103.075 245.377 Q105.529 244.798 107.566 244.798 Q112.936 244.798 116.131 247.483 Q119.325 250.169 119.325 254.659 Q119.325 256.789 118.515 258.71 Q117.728 260.608 115.621 263.201 Q115.043 263.872 111.941 267.09 Q108.839 270.284 103.191 276.048 Z" fill="#000000" fill-rule="nonzero" fill-opacity="1" /><path clip-path="url(#clip750)" d="M129.371 245.423 L147.728 245.423 L147.728 249.358 L133.654 249.358 L133.654 257.831 Q134.672 257.483 135.691 257.321 Q136.709 257.136 137.728 257.136 Q143.515 257.136 146.894 260.307 Q150.274 263.479 150.274 268.895 Q150.274 274.474 146.802 277.576 Q143.33 280.655 137.01 280.655 Q134.834 280.655 132.566 280.284 Q130.32 279.914 127.913 279.173 L127.913 274.474 Q129.996 275.608 132.219 276.164 Q134.441 276.719 136.918 276.719 Q140.922 276.719 143.26 274.613 Q145.598 272.506 145.598 268.895 Q145.598 265.284 143.26 263.178 Q140.922 261.071 136.918 261.071 Q135.043 261.071 133.168 261.488 Q131.316 261.905 129.371 262.784 L129.371 245.423 Z" fill="#000000" fill-rule="nonzero" fill-opacity="1" /><polyline clip-path="url(#clip752)" style="stroke:#009af9; stroke-linecap:round; stroke-linejoin:round; stroke-width:4; stroke-opacity:1; fill:none" points="186.274,1211.22 187.055,1206.47 187.882,1197.31 188.813,1193.22 189.859,1187.78 191.037,1194.58 192.361,1207.53 193.851,1200.15 195.528,1202.54 197.414,1193.22 199.536,1183.4 201.923,1163.91 204.608,1160.68 207.629,1153.69 211.028,1159.44 214.851,1144.29 219.153,1144.39 223.992,1150.88 229.436,1160.91 235.561,1169.31 242.451,1153.93 250.202,1197.85 258.922,1192.21 268.733,1205.29 279.769,1207.59 292.185,1218.29 306.154,1210.93 321.868,1192.61 339.546,1177.11 359.435,1207.58 381.809,1210.96 406.98,1155.02 435.298,1127.5 467.155,1127.31 499.716,1118.47 536.346,1134.45 577.556,1132.17 623.917,1120.54 676.073,1051.79 734.748,1134.94 783.283,1105.27 837.885,1046.05 899.311,1123.75 948.033,1149.85 1002.85,1171.07 1062.85,1161.41 1130.36,1124.28 1206.3,1241.4 1273.77,1133.62 1349.67,1147.67 1413.62,1126.46 1485.56,1039.68 1566.49,1038.76 1629.05,1012.35 1699.43,1009.32 1766.81,1161.64 1841.4,1083.79 1925.31,1226.36 2010.4,1162.56 2106.13,1198.06 2173.89,1236.65 2250.12,1207.75 2335.88,1169.46 2352.76,1187.92 "/>
<polyline clip-path="url(#clip752)" style="stroke:#e26f46; stroke-linecap:round; stroke-linejoin:round; stroke-width:4; stroke-opacity:1; fill:none" points="186.274,1113.87 187.055,1107.41 187.882,1094.95 188.813,1089.38 189.859,1081.99 191.037,1091.23 192.361,1108.85 193.851,1098.81 195.528,1102.06 197.414,1089.39 199.536,1076.03 201.923,1049.52 204.608,1045.12 207.629,1035.61 211.028,1043.44 214.851,1022.83 219.153,1022.96 223.992,1031.8 229.436,1045.44 235.561,1056.86 242.451,1035.94 250.202,1095.68 258.922,1088.01 268.733,1105.8 279.769,1108.93 292.185,1123.48 306.154,1113.48 321.868,1088.55 339.546,1067.47 359.435,1108.91 381.809,1113.52 406.98,1037.43 435.298,999.994 467.155,999.728 499.716,987.711 536.346,1009.45 577.556,1006.34 623.917,990.523 676.073,897.015 734.748,1010.11 783.283,969.76 837.885,889.199 899.311,994.897 948.033,1030.4 1002.85,1059.26 1062.85,1046.12 1130.36,995.615 1206.3,1154.92 1273.77,1008.31 1349.67,1027.42 1413.62,998.58 1485.56,880.54 1566.49,879.283 1629.05,843.362 1699.43,839.249 1766.81,1046.43 1841.4,940.54 1925.31,1134.46 2010.4,1047.68 2106.13,1095.96 2173.89,1148.46 2250.12,1109.14 2335.88,1057.07 2352.76,1082.17 "/>
<polyline clip-path="url(#clip752)" style="stroke:#3da44d; stroke-linecap:round; stroke-linejoin:round; stroke-width:4; stroke-opacity:1; fill:none" points="186.274,724.917 187.055,711.623 187.882,685.985 188.813,674.527 189.859,659.307 191.037,678.332 192.361,714.59 193.851,693.928 195.528,700.605 197.414,674.537 199.536,647.036 201.923,592.485 204.608,583.433 207.629,563.869 211.028,579.966 214.851,537.562 219.153,537.835 223.992,556.011 229.436,584.09 235.561,607.602 242.451,564.53 250.202,687.477 258.922,671.69 268.733,708.311 279.769,714.749 292.185,744.695 306.154,724.106 321.868,672.808 339.546,629.433 359.435,714.713 381.809,724.195 406.98,567.595 435.298,490.563 467.155,490.014 499.716,465.285 536.346,510.014 577.556,503.625 623.917,471.071 676.073,278.633 734.748,511.377 783.283,428.342 837.885,262.547 899.311,480.073 948.033,553.13 1002.85,612.532 1062.85,585.482 1130.36,481.551 1206.3,809.398 1273.77,507.679 1349.67,547.004 1413.62,487.653 1485.56,244.729 1566.49,242.14 1629.05,168.217 1699.43,159.752 1766.81,586.123 1841.4,368.207 1925.31,767.291 2010.4,588.706 2106.13,688.065 2173.89,796.101 2250.12,715.183 2335.88,608.015 2352.76,659.684 "/>
<polyline clip-path="url(#clip752)" style="stroke:#c271d2; stroke-linecap:round; stroke-linejoin:round; stroke-width:4; stroke-opacity:1; fill:none" points="186.274,829.624 187.055,818.17 187.882,796.08 188.813,786.207 189.859,773.094 191.037,789.486 192.361,820.727 193.851,802.924 195.528,808.676 197.414,786.216 199.536,762.521 201.923,715.52 204.608,707.721 207.629,690.864 211.028,704.733 214.851,668.198 219.153,668.433 223.992,684.094 229.436,708.286 235.561,728.544 242.451,691.434 250.202,797.365 258.922,783.763 268.733,815.316 279.769,820.863 292.185,846.665 306.154,828.925 321.868,784.726 339.546,747.354 359.435,820.833 381.809,829.002 406.98,694.075 435.298,627.703 467.155,627.23 499.716,605.923 536.346,644.462 577.556,638.958 623.917,610.908 676.073,445.103 734.748,645.636 783.283,574.093 837.885,431.243 899.311,618.665 948.033,681.612 1002.85,732.792 1062.85,709.486 1130.36,619.938 1206.3,902.413 1273.77,642.45 1349.67,676.333 1413.62,625.195 1485.56,415.891 1566.49,413.66 1629.05,349.968 1699.43,342.674 1766.81,710.038 1841.4,522.28 1925.31,866.134 2010.4,712.264 2106.13,797.872 2173.89,890.957 2250.12,821.237 2335.88,728.901 2352.76,773.418 "/>
<polyline clip-path="url(#clip752)" style="stroke:#ac8d18; stroke-linecap:round; stroke-linejoin:round; stroke-width:4; stroke-opacity:1; fill:none" points="186.274,1226.75 187.055,1222.27 187.882,1213.64 188.813,1209.78 189.859,1204.66 191.037,1211.06 192.361,1223.27 193.851,1216.31 195.528,1218.56 197.414,1209.78 199.536,1200.52 201.923,1182.15 204.608,1179.11 207.629,1172.52 211.028,1177.94 214.851,1163.66 219.153,1163.75 223.992,1169.87 229.436,1179.33 235.561,1187.24 242.451,1172.74 250.202,1214.14 258.922,1208.82 268.733,1221.16 279.769,1223.32 292.185,1233.41 306.154,1226.47 321.868,1209.2 339.546,1194.6 359.435,1223.31 381.809,1226.5 406.98,1173.77 435.298,1147.84 467.155,1147.65 499.716,1139.32 536.346,1154.39 577.556,1152.23 623.917,1141.27 676.073,1076.47 734.748,1154.84 783.283,1126.88 837.885,1071.06 899.311,1144.3 948.033,1168.9 1002.85,1188.91 1062.85,1179.8 1130.36,1144.8 1206.3,1255.19 1273.77,1153.6 1349.67,1166.84 1413.62,1146.86 1485.56,1065.06 1566.49,1064.19 1629.05,1039.3 1699.43,1036.44 1766.81,1180.01 1841.4,1106.64 1925.31,1241.02 2010.4,1180.88 2106.13,1214.34 2173.89,1250.72 2250.12,1223.47 2335.88,1187.38 2352.76,1204.78 "/>
<polyline clip-path="url(#clip752)" style="stroke:#00a9ad; stroke-linecap:round; stroke-linejoin:round; stroke-width:4; stroke-opacity:1; fill:none" points="186.274,1372.01 187.055,1370.09 187.882,1366.38 188.813,1364.72 189.859,1362.52 191.037,1365.27 192.361,1370.52 193.851,1367.53 195.528,1368.49 197.414,1364.72 199.536,1360.74 201.923,1352.85 204.608,1351.54 207.629,1348.71 211.028,1351.03 214.851,1344.9 219.153,1344.94 223.992,1347.57 229.436,1351.63 235.561,1355.03 242.451,1348.8 250.202,1366.59 258.922,1364.31 268.733,1369.61 279.769,1370.54 292.185,1374.87 306.154,1371.89 321.868,1364.47 339.546,1358.19 359.435,1370.54 381.809,1371.91 406.98,1349.24 435.298,1338.1 467.155,1338.02 499.716,1334.44 536.346,1340.91 577.556,1339.99 623.917,1335.28 676.073,1307.43 734.748,1341.11 783.283,1329.09 837.885,1305.1 899.311,1336.58 948.033,1347.15 1002.85,1355.75 1062.85,1351.83 1130.36,1336.79 1206.3,1384.24 1273.77,1340.57 1349.67,1346.26 1413.62,1337.67 1485.56,1302.52 1566.49,1302.14 1629.05,1291.45 1699.43,1290.22 1766.81,1351.93 1841.4,1320.39 1925.31,1378.14 2010.4,1352.3 2106.13,1366.68 2173.89,1382.31 2250.12,1370.6 2335.88,1355.09 2352.76,1362.57 "/>
<polyline clip-path="url(#clip752)" style="stroke:#ed5d92; stroke-linecap:round; stroke-linejoin:round; stroke-width:4; stroke-opacity:1; fill:none" points="186.274,682.807 187.055,668.773 187.882,641.708 188.813,629.612 189.859,613.545 191.037,633.63 192.361,671.906 193.851,650.093 195.528,657.142 197.414,629.623 199.536,600.591 201.923,543.004 204.608,533.449 207.629,512.796 211.028,529.789 214.851,485.024 219.153,485.313 223.992,504.5 229.436,534.142 235.561,558.962 242.451,513.493 250.202,643.283 258.922,626.617 268.733,665.277 279.769,672.073 292.185,703.686 306.154,681.95 321.868,627.797 339.546,582.008 359.435,672.036 381.809,682.044 406.98,516.729 435.298,435.409 467.155,434.83 499.716,408.724 536.346,455.943 577.556,449.199 623.917,414.832 676.073,211.684 734.748,457.382 783.283,369.725 837.885,194.703 899.311,424.336 948.033,501.459 1002.85,564.167 1062.85,535.611 1130.36,425.896 1206.3,771.99 1273.77,453.478 1349.67,494.992 1413.62,432.337 1485.56,175.893 1566.49,173.16 1629.05,95.1226 1699.43,86.1857 1766.81,536.288 1841.4,306.243 1925.31,727.539 2010.4,539.015 2106.13,643.904 2173.89,757.953 2250.12,672.532 2335.88,559.399 2352.76,613.943 "/>
<polyline clip-path="url(#clip752)" style="stroke:#c68125; stroke-linecap:round; stroke-linejoin:round; stroke-width:4; stroke-opacity:1; fill:none" points="186.274,1058.34 187.055,1050.91 187.882,1036.57 188.813,1030.16 189.859,1021.65 191.037,1032.29 192.361,1052.57 193.851,1041.01 195.528,1044.74 197.414,1030.16 199.536,1014.78 201.923,984.273 204.608,979.21 207.629,968.268 211.028,977.271 214.851,953.554 219.153,953.707 223.992,963.873 229.436,979.577 235.561,992.727 242.451,968.637 250.202,1037.4 258.922,1028.57 268.733,1049.05 279.769,1052.66 292.185,1069.4 306.154,1057.89 321.868,1029.2 339.546,1004.94 359.435,1052.64 381.809,1057.94 406.98,970.352 435.298,927.267 467.155,926.96 499.716,913.129 536.346,938.146 577.556,934.573 623.917,916.365 676.073,808.733 734.748,938.908 783.283,892.466 837.885,799.737 899.311,921.4 948.033,962.261 1002.85,995.485 1062.85,980.355 1130.36,922.227 1206.3,1105.59 1273.77,936.84 1349.67,958.835 1413.62,925.639 1485.56,789.771 1566.49,788.323 1629.05,746.978 1699.43,742.243 1766.81,980.714 1841.4,858.832 1925.31,1082.04 2010.4,982.159 2106.13,1037.73 2173.89,1098.16 2250.12,1052.9 2335.88,992.959 2352.76,1021.86 "/>
<path clip-path="url(#clip750)" d="M1974.79 559.669 L2280.54 559.669 L2280.54 93.1086 L1974.79 93.1086  Z" fill="#ffffff" fill-rule="evenodd" fill-opacity="1"/>
<polyline clip-path="url(#clip750)" style="stroke:#000000; stroke-linecap:round; stroke-linejoin:round; stroke-width:4; stroke-opacity:1; fill:none" points="1974.79,559.669 2280.54,559.669 2280.54,93.1086 1974.79,93.1086 1974.79,559.669 "/>
<polyline clip-path="url(#clip750)" style="stroke:#009af9; stroke-linecap:round; stroke-linejoin:round; stroke-width:4; stroke-opacity:1; fill:none" points="1998.87,144.949 2143.3,144.949 "/>
<path clip-path="url(#clip750)" d="M2167.37 151.997 L2167.37 136.303 L2171.63 136.303 L2171.63 151.835 Q2171.63 155.516 2173.07 157.368 Q2174.5 159.196 2177.37 159.196 Q2180.82 159.196 2182.81 156.997 Q2184.82 154.798 2184.82 151.002 L2184.82 136.303 L2189.08 136.303 L2189.08 162.229 L2184.82 162.229 L2184.82 158.247 Q2183.27 160.608 2181.21 161.766 Q2179.18 162.9 2176.47 162.9 Q2172 162.9 2169.69 160.122 Q2167.37 157.344 2167.37 151.997 M2178.09 135.678 L2178.09 135.678 Z" fill="#000000" fill-rule="nonzero" fill-opacity="1" /><path clip-path="url(#clip750)" d="M2197.46 126.21 L2207.28 126.21 L2207.28 129.52 L2201.72 129.52 L2201.72 165.168 L2207.28 165.168 L2207.28 168.479 L2197.46 168.479 L2197.46 126.21 Z" fill="#000000" fill-rule="nonzero" fill-opacity="1" /><path clip-path="url(#clip750)" d="M2217.76 158.293 L2225.4 158.293 L2225.4 131.928 L2217.09 133.595 L2217.09 129.335 L2225.36 127.669 L2230.03 127.669 L2230.03 158.293 L2237.67 158.293 L2237.67 162.229 L2217.76 162.229 L2217.76 158.293 Z" fill="#000000" fill-rule="nonzero" fill-opacity="1" /><path clip-path="url(#clip750)" d="M2256.47 126.21 L2256.47 168.479 L2246.65 168.479 L2246.65 165.168 L2252.19 165.168 L2252.19 129.52 L2246.65 129.52 L2246.65 126.21 L2256.47 126.21 Z" fill="#000000" fill-rule="nonzero" fill-opacity="1" /><polyline clip-path="url(#clip750)" style="stroke:#e26f46; stroke-linecap:round; stroke-linejoin:round; stroke-width:4; stroke-opacity:1; fill:none" points="1998.87,196.789 2143.3,196.789 "/>
<path clip-path="url(#clip750)" d="M2167.37 203.837 L2167.37 188.143 L2171.63 188.143 L2171.63 203.675 Q2171.63 207.356 2173.07 209.208 Q2174.5 211.036 2177.37 211.036 Q2180.82 211.036 2182.81 208.837 Q2184.82 206.638 2184.82 202.842 L2184.82 188.143 L2189.08 188.143 L2189.08 214.069 L2184.82 214.069 L2184.82 210.087 Q2183.27 212.448 2181.21 213.606 Q2179.18 214.74 2176.47 214.74 Q2172 214.74 2169.69 211.962 Q2167.37 209.184 2167.37 203.837 M2178.09 187.518 L2178.09 187.518 Z" fill="#000000" fill-rule="nonzero" fill-opacity="1" /><path clip-path="url(#clip750)" d="M2197.46 178.05 L2207.28 178.05 L2207.28 181.36 L2201.72 181.36 L2201.72 217.008 L2207.28 217.008 L2207.28 220.319 L2197.46 220.319 L2197.46 178.05 Z" fill="#000000" fill-rule="nonzero" fill-opacity="1" /><path clip-path="url(#clip750)" d="M2220.98 210.133 L2237.3 210.133 L2237.3 214.069 L2215.36 214.069 L2215.36 210.133 Q2218.02 207.379 2222.6 202.749 Q2227.21 198.096 2228.39 196.754 Q2230.63 194.231 2231.51 192.495 Q2232.42 190.735 2232.42 189.046 Q2232.42 186.291 2230.47 184.555 Q2228.55 182.819 2225.45 182.819 Q2223.25 182.819 2220.8 183.583 Q2218.37 184.347 2215.59 185.897 L2215.59 181.175 Q2218.41 180.041 2220.87 179.462 Q2223.32 178.884 2225.36 178.884 Q2230.73 178.884 2233.92 181.569 Q2237.12 184.254 2237.12 188.745 Q2237.12 190.874 2236.31 192.796 Q2235.52 194.694 2233.41 197.286 Q2232.83 197.958 2229.73 201.175 Q2226.63 204.37 2220.98 210.133 Z" fill="#000000" fill-rule="nonzero" fill-opacity="1" /><path clip-path="url(#clip750)" d="M2256.47 178.05 L2256.47 220.319 L2246.65 220.319 L2246.65 217.008 L2252.19 217.008 L2252.19 181.36 L2246.65 181.36 L2246.65 178.05 L2256.47 178.05 Z" fill="#000000" fill-rule="nonzero" fill-opacity="1" /><polyline clip-path="url(#clip750)" style="stroke:#3da44d; stroke-linecap:round; stroke-linejoin:round; stroke-width:4; stroke-opacity:1; fill:none" points="1998.87,248.629 2143.3,248.629 "/>
<path clip-path="url(#clip750)" d="M2167.37 255.677 L2167.37 239.983 L2171.63 239.983 L2171.63 255.515 Q2171.63 259.196 2173.07 261.048 Q2174.5 262.876 2177.37 262.876 Q2180.82 262.876 2182.81 260.677 Q2184.82 258.478 2184.82 254.682 L2184.82 239.983 L2189.08 239.983 L2189.08 265.909 L2184.82 265.909 L2184.82 261.927 Q2183.27 264.288 2181.21 265.446 Q2179.18 266.58 2176.47 266.58 Q2172 266.58 2169.69 263.802 Q2167.37 261.024 2167.37 255.677 M2178.09 239.358 L2178.09 239.358 Z" fill="#000000" fill-rule="nonzero" fill-opacity="1" /><path clip-path="url(#clip750)" d="M2197.46 229.89 L2207.28 229.89 L2207.28 233.2 L2201.72 233.2 L2201.72 268.848 L2207.28 268.848 L2207.28 272.159 L2197.46 272.159 L2197.46 229.89 Z" fill="#000000" fill-rule="nonzero" fill-opacity="1" /><path clip-path="url(#clip750)" d="M2231.12 247.274 Q2234.48 247.992 2236.35 250.261 Q2238.25 252.529 2238.25 255.862 Q2238.25 260.978 2234.73 263.779 Q2231.21 266.58 2224.73 266.58 Q2222.56 266.58 2220.24 266.14 Q2217.95 265.723 2215.5 264.867 L2215.5 260.353 Q2217.44 261.487 2219.76 262.066 Q2222.07 262.645 2224.59 262.645 Q2228.99 262.645 2231.28 260.909 Q2233.6 259.173 2233.6 255.862 Q2233.6 252.807 2231.44 251.094 Q2229.32 249.358 2225.5 249.358 L2221.47 249.358 L2221.47 245.515 L2225.68 245.515 Q2229.13 245.515 2230.96 244.149 Q2232.79 242.761 2232.79 240.168 Q2232.79 237.506 2230.89 236.094 Q2229.01 234.659 2225.5 234.659 Q2223.57 234.659 2221.38 235.075 Q2219.18 235.492 2216.54 236.372 L2216.54 232.205 Q2219.2 231.464 2221.51 231.094 Q2223.85 230.724 2225.91 230.724 Q2231.24 230.724 2234.34 233.154 Q2237.44 235.562 2237.44 239.682 Q2237.44 242.552 2235.8 244.543 Q2234.15 246.511 2231.12 247.274 Z" fill="#000000" fill-rule="nonzero" fill-opacity="1" /><path clip-path="url(#clip750)" d="M2256.47 229.89 L2256.47 272.159 L2246.65 272.159 L2246.65 268.848 L2252.19 268.848 L2252.19 233.2 L2246.65 233.2 L2246.65 229.89 L2256.47 229.89 Z" fill="#000000" fill-rule="nonzero" fill-opacity="1" /><polyline clip-path="url(#clip750)" style="stroke:#c271d2; stroke-linecap:round; stroke-linejoin:round; stroke-width:4; stroke-opacity:1; fill:none" points="1998.87,300.469 2143.3,300.469 "/>
<path clip-path="url(#clip750)" d="M2167.37 307.517 L2167.37 291.823 L2171.63 291.823 L2171.63 307.355 Q2171.63 311.036 2173.07 312.888 Q2174.5 314.716 2177.37 314.716 Q2180.82 314.716 2182.81 312.517 Q2184.82 310.318 2184.82 306.522 L2184.82 291.823 L2189.08 291.823 L2189.08 317.749 L2184.82 317.749 L2184.82 313.767 Q2183.27 316.128 2181.21 317.286 Q2179.18 318.42 2176.47 318.42 Q2172 318.42 2169.69 315.642 Q2167.37 312.864 2167.37 307.517 M2178.09 291.198 L2178.09 291.198 Z" fill="#000000" fill-rule="nonzero" fill-opacity="1" /><path clip-path="url(#clip750)" d="M2197.46 281.73 L2207.28 281.73 L2207.28 285.04 L2201.72 285.04 L2201.72 320.688 L2207.28 320.688 L2207.28 323.999 L2197.46 323.999 L2197.46 281.73 Z" fill="#000000" fill-rule="nonzero" fill-opacity="1" /><path clip-path="url(#clip750)" d="M2229.8 287.263 L2218 305.712 L2229.8 305.712 L2229.8 287.263 M2228.57 283.189 L2234.45 283.189 L2234.45 305.712 L2239.38 305.712 L2239.38 309.601 L2234.45 309.601 L2234.45 317.749 L2229.8 317.749 L2229.8 309.601 L2214.2 309.601 L2214.2 305.087 L2228.57 283.189 Z" fill="#000000" fill-rule="nonzero" fill-opacity="1" /><path clip-path="url(#clip750)" d="M2256.47 281.73 L2256.47 323.999 L2246.65 323.999 L2246.65 320.688 L2252.19 320.688 L2252.19 285.04 L2246.65 285.04 L2246.65 281.73 L2256.47 281.73 Z" fill="#000000" fill-rule="nonzero" fill-opacity="1" /><polyline clip-path="url(#clip750)" style="stroke:#ac8d18; stroke-linecap:round; stroke-linejoin:round; stroke-width:4; stroke-opacity:1; fill:none" points="1998.87,352.309 2143.3,352.309 "/>
<path clip-path="url(#clip750)" d="M2167.37 359.357 L2167.37 343.663 L2171.63 343.663 L2171.63 359.195 Q2171.63 362.876 2173.07 364.728 Q2174.5 366.556 2177.37 366.556 Q2180.82 366.556 2182.81 364.357 Q2184.82 362.158 2184.82 358.362 L2184.82 343.663 L2189.08 343.663 L2189.08 369.589 L2184.82 369.589 L2184.82 365.607 Q2183.27 367.968 2181.21 369.126 Q2179.18 370.26 2176.47 370.26 Q2172 370.26 2169.69 367.482 Q2167.37 364.704 2167.37 359.357 M2178.09 343.038 L2178.09 343.038 Z" fill="#000000" fill-rule="nonzero" fill-opacity="1" /><path clip-path="url(#clip750)" d="M2197.46 333.57 L2207.28 333.57 L2207.28 336.88 L2201.72 336.88 L2201.72 372.528 L2207.28 372.528 L2207.28 375.839 L2197.46 375.839 L2197.46 333.57 Z" fill="#000000" fill-rule="nonzero" fill-opacity="1" /><path clip-path="url(#clip750)" d="M2217 335.029 L2235.36 335.029 L2235.36 338.964 L2221.28 338.964 L2221.28 347.436 Q2222.3 347.089 2223.32 346.927 Q2224.34 346.742 2225.36 346.742 Q2231.14 346.742 2234.52 349.913 Q2237.9 353.084 2237.9 358.501 Q2237.9 364.079 2234.43 367.181 Q2230.96 370.26 2224.64 370.26 Q2222.46 370.26 2220.19 369.89 Q2217.95 369.519 2215.54 368.778 L2215.54 364.079 Q2217.63 365.214 2219.85 365.769 Q2222.07 366.325 2224.55 366.325 Q2228.55 366.325 2230.89 364.218 Q2233.23 362.112 2233.23 358.501 Q2233.23 354.89 2230.89 352.783 Q2228.55 350.677 2224.55 350.677 Q2222.67 350.677 2220.8 351.093 Q2218.94 351.51 2217 352.39 L2217 335.029 Z" fill="#000000" fill-rule="nonzero" fill-opacity="1" /><path clip-path="url(#clip750)" d="M2256.47 333.57 L2256.47 375.839 L2246.65 375.839 L2246.65 372.528 L2252.19 372.528 L2252.19 336.88 L2246.65 336.88 L2246.65 333.57 L2256.47 333.57 Z" fill="#000000" fill-rule="nonzero" fill-opacity="1" /><polyline clip-path="url(#clip750)" style="stroke:#00a9ad; stroke-linecap:round; stroke-linejoin:round; stroke-width:4; stroke-opacity:1; fill:none" points="1998.87,404.149 2143.3,404.149 "/>
<path clip-path="url(#clip750)" d="M2167.37 411.197 L2167.37 395.503 L2171.63 395.503 L2171.63 411.035 Q2171.63 414.716 2173.07 416.568 Q2174.5 418.396 2177.37 418.396 Q2180.82 418.396 2182.81 416.197 Q2184.82 413.998 2184.82 410.202 L2184.82 395.503 L2189.08 395.503 L2189.08 421.429 L2184.82 421.429 L2184.82 417.447 Q2183.27 419.808 2181.21 420.966 Q2179.18 422.1 2176.47 422.1 Q2172 422.1 2169.69 419.322 Q2167.37 416.544 2167.37 411.197 M2178.09 394.878 L2178.09 394.878 Z" fill="#000000" fill-rule="nonzero" fill-opacity="1" /><path clip-path="url(#clip750)" d="M2197.46 385.41 L2207.28 385.41 L2207.28 388.72 L2201.72 388.72 L2201.72 424.368 L2207.28 424.368 L2207.28 427.679 L2197.46 427.679 L2197.46 385.41 Z" fill="#000000" fill-rule="nonzero" fill-opacity="1" /><path clip-path="url(#clip750)" d="M2227.53 402.285 Q2224.38 402.285 2222.53 404.438 Q2220.7 406.591 2220.7 410.341 Q2220.7 414.068 2222.53 416.243 Q2224.38 418.396 2227.53 418.396 Q2230.68 418.396 2232.51 416.243 Q2234.36 414.068 2234.36 410.341 Q2234.36 406.591 2232.51 404.438 Q2230.68 402.285 2227.53 402.285 M2236.82 387.633 L2236.82 391.892 Q2235.06 391.058 2233.25 390.619 Q2231.47 390.179 2229.71 390.179 Q2225.08 390.179 2222.63 393.304 Q2220.19 396.429 2219.85 402.748 Q2221.21 400.734 2223.27 399.669 Q2225.33 398.582 2227.81 398.582 Q2233.02 398.582 2236.03 401.753 Q2239.06 404.901 2239.06 410.341 Q2239.06 415.665 2235.91 418.882 Q2232.76 422.1 2227.53 422.1 Q2221.54 422.1 2218.37 417.517 Q2215.19 412.91 2215.19 404.183 Q2215.19 395.989 2219.08 391.128 Q2222.97 386.244 2229.52 386.244 Q2231.28 386.244 2233.07 386.591 Q2234.87 386.938 2236.82 387.633 Z" fill="#000000" fill-rule="nonzero" fill-opacity="1" /><path clip-path="url(#clip750)" d="M2256.47 385.41 L2256.47 427.679 L2246.65 427.679 L2246.65 424.368 L2252.19 424.368 L2252.19 388.72 L2246.65 388.72 L2246.65 385.41 L2256.47 385.41 Z" fill="#000000" fill-rule="nonzero" fill-opacity="1" /><polyline clip-path="url(#clip750)" style="stroke:#ed5d92; stroke-linecap:round; stroke-linejoin:round; stroke-width:4; stroke-opacity:1; fill:none" points="1998.87,455.989 2143.3,455.989 "/>
<path clip-path="url(#clip750)" d="M2167.37 463.037 L2167.37 447.343 L2171.63 447.343 L2171.63 462.875 Q2171.63 466.556 2173.07 468.408 Q2174.5 470.236 2177.37 470.236 Q2180.82 470.236 2182.81 468.037 Q2184.82 465.838 2184.82 462.042 L2184.82 447.343 L2189.08 447.343 L2189.08 473.269 L2184.82 473.269 L2184.82 469.287 Q2183.27 471.648 2181.21 472.806 Q2179.18 473.94 2176.47 473.94 Q2172 473.94 2169.69 471.162 Q2167.37 468.384 2167.37 463.037 M2178.09 446.718 L2178.09 446.718 Z" fill="#000000" fill-rule="nonzero" fill-opacity="1" /><path clip-path="url(#clip750)" d="M2197.46 437.25 L2207.28 437.25 L2207.28 440.56 L2201.72 440.56 L2201.72 476.208 L2207.28 476.208 L2207.28 479.519 L2197.46 479.519 L2197.46 437.25 Z" fill="#000000" fill-rule="nonzero" fill-opacity="1" /><path clip-path="url(#clip750)" d="M2215.77 438.709 L2238 438.709 L2238 440.699 L2225.45 473.269 L2220.57 473.269 L2232.37 442.644 L2215.77 442.644 L2215.77 438.709 Z" fill="#000000" fill-rule="nonzero" fill-opacity="1" /><path clip-path="url(#clip750)" d="M2256.47 437.25 L2256.47 479.519 L2246.65 479.519 L2246.65 476.208 L2252.19 476.208 L2252.19 440.56 L2246.65 440.56 L2246.65 437.25 L2256.47 437.25 Z" fill="#000000" fill-rule="nonzero" fill-opacity="1" /><polyline clip-path="url(#clip750)" style="stroke:#c68125; stroke-linecap:round; stroke-linejoin:round; stroke-width:4; stroke-opacity:1; fill:none" points="1998.87,507.829 2143.3,507.829 "/>
<path clip-path="url(#clip750)" d="M2167.37 514.877 L2167.37 499.183 L2171.63 499.183 L2171.63 514.715 Q2171.63 518.396 2173.07 520.248 Q2174.5 522.076 2177.37 522.076 Q2180.82 522.076 2182.81 519.877 Q2184.82 517.678 2184.82 513.882 L2184.82 499.183 L2189.08 499.183 L2189.08 525.109 L2184.82 525.109 L2184.82 521.127 Q2183.27 523.488 2181.21 524.646 Q2179.18 525.78 2176.47 525.78 Q2172 525.78 2169.69 523.002 Q2167.37 520.224 2167.37 514.877 M2178.09 498.558 L2178.09 498.558 Z" fill="#000000" fill-rule="nonzero" fill-opacity="1" /><path clip-path="url(#clip750)" d="M2197.46 489.09 L2207.28 489.09 L2207.28 492.4 L2201.72 492.4 L2201.72 528.048 L2207.28 528.048 L2207.28 531.359 L2197.46 531.359 L2197.46 489.09 Z" fill="#000000" fill-rule="nonzero" fill-opacity="1" /><path clip-path="url(#clip750)" d="M2226.95 508.697 Q2223.62 508.697 2221.7 510.479 Q2219.8 512.261 2219.8 515.386 Q2219.8 518.511 2221.7 520.294 Q2223.62 522.076 2226.95 522.076 Q2230.29 522.076 2232.21 520.294 Q2234.13 518.488 2234.13 515.386 Q2234.13 512.261 2232.21 510.479 Q2230.31 508.697 2226.95 508.697 M2222.28 506.706 Q2219.27 505.965 2217.58 503.905 Q2215.91 501.845 2215.91 498.882 Q2215.91 494.738 2218.85 492.331 Q2221.82 489.924 2226.95 489.924 Q2232.12 489.924 2235.06 492.331 Q2238 494.738 2238 498.882 Q2238 501.845 2236.31 503.905 Q2234.64 505.965 2231.65 506.706 Q2235.03 507.493 2236.91 509.785 Q2238.81 512.076 2238.81 515.386 Q2238.81 520.41 2235.73 523.095 Q2232.67 525.78 2226.95 525.78 Q2221.24 525.78 2218.16 523.095 Q2215.1 520.41 2215.1 515.386 Q2215.1 512.076 2217 509.785 Q2218.9 507.493 2222.28 506.706 M2220.57 499.322 Q2220.57 502.007 2222.23 503.512 Q2223.92 505.016 2226.95 505.016 Q2229.96 505.016 2231.65 503.512 Q2233.37 502.007 2233.37 499.322 Q2233.37 496.637 2231.65 495.132 Q2229.96 493.627 2226.95 493.627 Q2223.92 493.627 2222.23 495.132 Q2220.57 496.637 2220.57 499.322 Z" fill="#000000" fill-rule="nonzero" fill-opacity="1" /><path clip-path="url(#clip750)" d="M2256.47 489.09 L2256.47 531.359 L2246.65 531.359 L2246.65 528.048 L2252.19 528.048 L2252.19 492.4 L2246.65 492.4 L2246.65 489.09 L2256.47 489.09 Z" fill="#000000" fill-rule="nonzero" fill-opacity="1" /></svg>
