<?xml version="1.0" encoding="utf-8"?>
<svg xmlns="http://www.w3.org/2000/svg" xmlns:xlink="http://www.w3.org/1999/xlink" width="600" height="400" viewBox="0 0 2400 1600">
<defs>
  <clipPath id="clip690">
    <rect x="0" y="0" width="2400" height="1600"/>
  </clipPath>
</defs>
<path clip-path="url(#clip690)" d="M0 1600 L2400 1600 L2400 0 L0 0  Z" fill="#ffffff" fill-rule="evenodd" fill-opacity="1"/>
<defs>
  <clipPath id="clip691">
    <rect x="480" y="0" width="1681" height="1600"/>
  </clipPath>
</defs>
<path clip-path="url(#clip690)" d="M112.177 1486.45 L2352.76 1486.45 L2352.76 47.2441 L112.177 47.2441  Z" fill="#ffffff" fill-rule="evenodd" fill-opacity="1"/>
<defs>
  <clipPath id="clip692">
    <rect x="112" y="47" width="2242" height="1440"/>
  </clipPath>
</defs>
<polyline clip-path="url(#clip692)" style="stroke:#000000; stroke-linecap:round; stroke-linejoin:round; stroke-width:2; stroke-opacity:0.1; fill:none" points="175.59,1486.45 175.59,47.2441 "/>
<polyline clip-path="url(#clip692)" style="stroke:#000000; stroke-linecap:round; stroke-linejoin:round; stroke-width:2; stroke-opacity:0.1; fill:none" points="704.028,1486.45 704.028,47.2441 "/>
<polyline clip-path="url(#clip692)" style="stroke:#000000; stroke-linecap:round; stroke-linejoin:round; stroke-width:2; stroke-opacity:0.1; fill:none" points="1232.47,1486.45 1232.47,47.2441 "/>
<polyline clip-path="url(#clip692)" style="stroke:#000000; stroke-linecap:round; stroke-linejoin:round; stroke-width:2; stroke-opacity:0.1; fill:none" points="1760.9,1486.45 1760.9,47.2441 "/>
<polyline clip-path="url(#clip692)" style="stroke:#000000; stroke-linecap:round; stroke-linejoin:round; stroke-width:2; stroke-opacity:0.1; fill:none" points="2289.34,1486.45 2289.34,47.2441 "/>
<polyline clip-path="url(#clip692)" style="stroke:#000000; stroke-linecap:round; stroke-linejoin:round; stroke-width:2; stroke-opacity:0.1; fill:none" points="112.177,1152.58 2352.76,1152.58 "/>
<polyline clip-path="url(#clip692)" style="stroke:#000000; stroke-linecap:round; stroke-linejoin:round; stroke-width:2; stroke-opacity:0.1; fill:none" points="112.177,798.757 2352.76,798.757 "/>
<polyline clip-path="url(#clip692)" style="stroke:#000000; stroke-linecap:round; stroke-linejoin:round; stroke-width:2; stroke-opacity:0.1; fill:none" points="112.177,444.935 2352.76,444.935 "/>
<polyline clip-path="url(#clip692)" style="stroke:#000000; stroke-linecap:round; stroke-linejoin:round; stroke-width:2; stroke-opacity:0.1; fill:none" points="112.177,91.1139 2352.76,91.1139 "/>
<polyline clip-path="url(#clip690)" style="stroke:#000000; stroke-linecap:round; stroke-linejoin:round; stroke-width:4; stroke-opacity:1; fill:none" points="112.177,1486.45 2352.76,1486.45 "/>
<polyline clip-path="url(#clip690)" style="stroke:#000000; stroke-linecap:round; stroke-linejoin:round; stroke-width:4; stroke-opacity:1; fill:none" points="175.59,1486.45 175.59,1467.55 "/>
<polyline clip-path="url(#clip690)" style="stroke:#000000; stroke-linecap:round; stroke-linejoin:round; stroke-width:4; stroke-opacity:1; fill:none" points="704.028,1486.45 704.028,1467.55 "/>
<polyline clip-path="url(#clip690)" style="stroke:#000000; stroke-linecap:round; stroke-linejoin:round; stroke-width:4; stroke-opacity:1; fill:none" points="1232.47,1486.45 1232.47,1467.55 "/>
<polyline clip-path="url(#clip690)" style="stroke:#000000; stroke-linecap:round; stroke-linejoin:round; stroke-width:4; stroke-opacity:1; fill:none" points="1760.9,1486.45 1760.9,1467.55 "/>
<polyline clip-path="url(#clip690)" style="stroke:#000000; stroke-linecap:round; stroke-linejoin:round; stroke-width:4; stroke-opacity:1; fill:none" points="2289.34,1486.45 2289.34,1467.55 "/>
<path clip-path="url(#clip690)" d="M137.893 1517.37 Q134.282 1517.37 132.453 1520.93 Q130.648 1524.47 130.648 1531.6 Q130.648 1538.71 132.453 1542.27 Q134.282 1545.82 137.893 1545.82 Q141.527 1545.82 143.333 1542.27 Q145.162 1538.71 145.162 1531.6 Q145.162 1524.47 143.333 1520.93 Q141.527 1517.37 137.893 1517.37 M137.893 1513.66 Q143.703 1513.66 146.759 1518.27 Q149.838 1522.85 149.838 1531.6 Q149.838 1540.33 146.759 1544.94 Q143.703 1549.52 137.893 1549.52 Q132.083 1549.52 129.004 1544.94 Q125.949 1540.33 125.949 1531.6 Q125.949 1522.85 129.004 1518.27 Q132.083 1513.66 137.893 1513.66 Z" fill="#000000" fill-rule="nonzero" fill-opacity="1" /><path clip-path="url(#clip690)" d="M158.055 1542.97 L162.939 1542.97 L162.939 1548.85 L158.055 1548.85 L158.055 1542.97 Z" fill="#000000" fill-rule="nonzero" fill-opacity="1" /><path clip-path="url(#clip690)" d="M183.124 1517.37 Q179.513 1517.37 177.685 1520.93 Q175.879 1524.47 175.879 1531.6 Q175.879 1538.71 177.685 1542.27 Q179.513 1545.82 183.124 1545.82 Q186.759 1545.82 188.564 1542.27 Q190.393 1538.71 190.393 1531.6 Q190.393 1524.47 188.564 1520.93 Q186.759 1517.37 183.124 1517.37 M183.124 1513.66 Q188.935 1513.66 191.99 1518.27 Q195.069 1522.85 195.069 1531.6 Q195.069 1540.33 191.99 1544.94 Q188.935 1549.52 183.124 1549.52 Q177.314 1549.52 174.236 1544.94 Q171.18 1540.33 171.18 1531.6 Q171.18 1522.85 174.236 1518.27 Q177.314 1513.66 183.124 1513.66 Z" fill="#000000" fill-rule="nonzero" fill-opacity="1" /><path clip-path="url(#clip690)" d="M213.286 1517.37 Q209.675 1517.37 207.847 1520.93 Q206.041 1524.47 206.041 1531.6 Q206.041 1538.71 207.847 1542.27 Q209.675 1545.82 213.286 1545.82 Q216.921 1545.82 218.726 1542.27 Q220.555 1538.71 220.555 1531.6 Q220.555 1524.47 218.726 1520.93 Q216.921 1517.37 213.286 1517.37 M213.286 1513.66 Q219.096 1513.66 222.152 1518.27 Q225.231 1522.85 225.231 1531.6 Q225.231 1540.33 222.152 1544.94 Q219.096 1549.52 213.286 1549.52 Q207.476 1549.52 204.397 1544.94 Q201.342 1540.33 201.342 1531.6 Q201.342 1522.85 204.397 1518.27 Q207.476 1513.66 213.286 1513.66 Z" fill="#000000" fill-rule="nonzero" fill-opacity="1" /><path clip-path="url(#clip690)" d="M666.829 1517.37 Q663.218 1517.37 661.39 1520.93 Q659.584 1524.47 659.584 1531.6 Q659.584 1538.71 661.39 1542.27 Q663.218 1545.82 666.829 1545.82 Q670.464 1545.82 672.269 1542.27 Q674.098 1538.71 674.098 1531.6 Q674.098 1524.47 672.269 1520.93 Q670.464 1517.37 666.829 1517.37 M666.829 1513.66 Q672.639 1513.66 675.695 1518.27 Q678.774 1522.85 678.774 1531.6 Q678.774 1540.33 675.695 1544.94 Q672.639 1549.52 666.829 1549.52 Q661.019 1549.52 657.94 1544.94 Q654.885 1540.33 654.885 1531.6 Q654.885 1522.85 657.94 1518.27 Q661.019 1513.66 666.829 1513.66 Z" fill="#000000" fill-rule="nonzero" fill-opacity="1" /><path clip-path="url(#clip690)" d="M686.991 1542.97 L691.875 1542.97 L691.875 1548.85 L686.991 1548.85 L686.991 1542.97 Z" fill="#000000" fill-rule="nonzero" fill-opacity="1" /><path clip-path="url(#clip690)" d="M706.088 1544.91 L722.408 1544.91 L722.408 1548.85 L700.463 1548.85 L700.463 1544.91 Q703.125 1542.16 707.709 1537.53 Q712.315 1532.88 713.496 1531.53 Q715.741 1529.01 716.621 1527.27 Q717.523 1525.51 717.523 1523.82 Q717.523 1521.07 715.579 1519.33 Q713.658 1517.6 710.556 1517.6 Q708.357 1517.6 705.903 1518.36 Q703.473 1519.13 700.695 1520.68 L700.695 1515.95 Q703.519 1514.82 705.973 1514.24 Q708.426 1513.66 710.463 1513.66 Q715.834 1513.66 719.028 1516.35 Q722.223 1519.03 722.223 1523.52 Q722.223 1525.65 721.412 1527.57 Q720.625 1529.47 718.519 1532.07 Q717.94 1532.74 714.838 1535.95 Q711.736 1539.15 706.088 1544.91 Z" fill="#000000" fill-rule="nonzero" fill-opacity="1" /><path clip-path="url(#clip690)" d="M732.269 1514.29 L750.625 1514.29 L750.625 1518.22 L736.551 1518.22 L736.551 1526.7 Q737.57 1526.35 738.588 1526.19 Q739.607 1526 740.625 1526 Q746.412 1526 749.792 1529.17 Q753.171 1532.34 753.171 1537.76 Q753.171 1543.34 749.699 1546.44 Q746.227 1549.52 739.908 1549.52 Q737.732 1549.52 735.463 1549.15 Q733.218 1548.78 730.81 1548.04 L730.81 1543.34 Q732.894 1544.47 735.116 1545.03 Q737.338 1545.58 739.815 1545.58 Q743.82 1545.58 746.158 1543.48 Q748.496 1541.37 748.496 1537.76 Q748.496 1534.15 746.158 1532.04 Q743.82 1529.94 739.815 1529.94 Q737.94 1529.94 736.065 1530.35 Q734.213 1530.77 732.269 1531.65 L732.269 1514.29 Z" fill="#000000" fill-rule="nonzero" fill-opacity="1" /><path clip-path="url(#clip690)" d="M1194.77 1517.37 Q1191.16 1517.37 1189.33 1520.93 Q1187.52 1524.47 1187.52 1531.6 Q1187.52 1538.71 1189.33 1542.27 Q1191.16 1545.82 1194.77 1545.82 Q1198.4 1545.82 1200.21 1542.27 Q1202.04 1538.71 1202.04 1531.6 Q1202.04 1524.47 1200.21 1520.93 Q1198.4 1517.37 1194.77 1517.37 M1194.77 1513.66 Q1200.58 1513.66 1203.64 1518.27 Q1206.71 1522.85 1206.71 1531.6 Q1206.71 1540.33 1203.64 1544.94 Q1200.58 1549.52 1194.77 1549.52 Q1188.96 1549.52 1185.88 1544.94 Q1182.83 1540.33 1182.83 1531.6 Q1182.83 1522.85 1185.88 1518.27 Q1188.96 1513.66 1194.77 1513.66 Z" fill="#000000" fill-rule="nonzero" fill-opacity="1" /><path clip-path="url(#clip690)" d="M1214.93 1542.97 L1219.82 1542.97 L1219.82 1548.85 L1214.93 1548.85 L1214.93 1542.97 Z" fill="#000000" fill-rule="nonzero" fill-opacity="1" /><path clip-path="url(#clip690)" d="M1230.05 1514.29 L1248.4 1514.29 L1248.4 1518.22 L1234.33 1518.22 L1234.33 1526.7 Q1235.35 1526.35 1236.37 1526.19 Q1237.39 1526 1238.4 1526 Q1244.19 1526 1247.57 1529.17 Q1250.95 1532.34 1250.95 1537.76 Q1250.95 1543.34 1247.48 1546.44 Q1244.01 1549.52 1237.69 1549.52 Q1235.51 1549.52 1233.24 1549.15 Q1231 1548.78 1228.59 1548.04 L1228.59 1543.34 Q1230.67 1544.47 1232.89 1545.03 Q1235.12 1545.58 1237.59 1545.58 Q1241.6 1545.58 1243.94 1543.48 Q1246.27 1541.37 1246.27 1537.76 Q1246.27 1534.15 1243.94 1532.04 Q1241.6 1529.94 1237.59 1529.94 Q1235.72 1529.94 1233.84 1530.35 Q1231.99 1530.77 1230.05 1531.65 L1230.05 1514.29 Z" fill="#000000" fill-rule="nonzero" fill-opacity="1" /><path clip-path="url(#clip690)" d="M1270.16 1517.37 Q1266.55 1517.37 1264.72 1520.93 Q1262.92 1524.47 1262.92 1531.6 Q1262.92 1538.71 1264.72 1542.27 Q1266.55 1545.82 1270.16 1545.82 Q1273.8 1545.82 1275.6 1542.27 Q1277.43 1538.71 1277.43 1531.6 Q1277.43 1524.47 1275.6 1520.93 Q1273.8 1517.37 1270.16 1517.37 M1270.16 1513.66 Q1275.97 1513.66 1279.03 1518.27 Q1282.11 1522.85 1282.11 1531.6 Q1282.11 1540.33 1279.03 1544.94 Q1275.97 1549.52 1270.16 1549.52 Q1264.35 1549.52 1261.27 1544.94 Q1258.22 1540.33 1258.22 1531.6 Q1258.22 1522.85 1261.27 1518.27 Q1264.35 1513.66 1270.16 1513.66 Z" fill="#000000" fill-rule="nonzero" fill-opacity="1" /><path clip-path="url(#clip690)" d="M1723.71 1517.37 Q1720.09 1517.37 1718.27 1520.93 Q1716.46 1524.47 1716.46 1531.6 Q1716.46 1538.71 1718.27 1542.27 Q1720.09 1545.82 1723.71 1545.82 Q1727.34 1545.82 1729.15 1542.27 Q1730.97 1538.71 1730.97 1531.6 Q1730.97 1524.47 1729.15 1520.93 Q1727.34 1517.37 1723.71 1517.37 M1723.71 1513.66 Q1729.52 1513.66 1732.57 1518.27 Q1735.65 1522.85 1735.65 1531.6 Q1735.65 1540.33 1732.57 1544.94 Q1729.52 1549.52 1723.71 1549.52 Q1717.9 1549.52 1714.82 1544.94 Q1711.76 1540.33 1711.76 1531.6 Q1711.76 1522.85 1714.82 1518.27 Q1717.9 1513.66 1723.71 1513.66 Z" fill="#000000" fill-rule="nonzero" fill-opacity="1" /><path clip-path="url(#clip690)" d="M1743.87 1542.97 L1748.75 1542.97 L1748.75 1548.85 L1743.87 1548.85 L1743.87 1542.97 Z" fill="#000000" fill-rule="nonzero" fill-opacity="1" /><path clip-path="url(#clip690)" d="M1757.76 1514.29 L1779.98 1514.29 L1779.98 1516.28 L1767.43 1548.85 L1762.55 1548.85 L1774.35 1518.22 L1757.76 1518.22 L1757.76 1514.29 Z" fill="#000000" fill-rule="nonzero" fill-opacity="1" /><path clip-path="url(#clip690)" d="M1789.15 1514.29 L1807.5 1514.29 L1807.5 1518.22 L1793.43 1518.22 L1793.43 1526.7 Q1794.45 1526.35 1795.46 1526.19 Q1796.48 1526 1797.5 1526 Q1803.29 1526 1806.67 1529.17 Q1810.05 1532.34 1810.05 1537.76 Q1810.05 1543.34 1806.58 1546.44 Q1803.1 1549.52 1796.78 1549.52 Q1794.61 1549.52 1792.34 1549.15 Q1790.09 1548.78 1787.69 1548.04 L1787.69 1543.34 Q1789.77 1544.47 1791.99 1545.03 Q1794.21 1545.58 1796.69 1545.58 Q1800.7 1545.58 1803.03 1543.48 Q1805.37 1541.37 1805.37 1537.76 Q1805.37 1534.15 1803.03 1532.04 Q1800.7 1529.94 1796.69 1529.94 Q1794.82 1529.94 1792.94 1530.35 Q1791.09 1530.77 1789.15 1531.65 L1789.15 1514.29 Z" fill="#000000" fill-rule="nonzero" fill-opacity="1" /><path clip-path="url(#clip690)" d="M2241.42 1544.91 L2249.05 1544.91 L2249.05 1518.55 L2240.74 1520.21 L2240.74 1515.95 L2249.01 1514.29 L2253.68 1514.29 L2253.68 1544.91 L2261.32 1544.91 L2261.32 1548.85 L2241.42 1548.85 L2241.42 1544.91 Z" fill="#000000" fill-rule="nonzero" fill-opacity="1" /><path clip-path="url(#clip690)" d="M2270.77 1542.97 L2275.65 1542.97 L2275.65 1548.85 L2270.77 1548.85 L2270.77 1542.97 Z" fill="#000000" fill-rule="nonzero" fill-opacity="1" /><path clip-path="url(#clip690)" d="M2295.84 1517.37 Q2292.23 1517.37 2290.4 1520.93 Q2288.59 1524.47 2288.59 1531.6 Q2288.59 1538.71 2290.4 1542.27 Q2292.23 1545.82 2295.84 1545.82 Q2299.47 1545.82 2301.28 1542.27 Q2303.1 1538.71 2303.1 1531.6 Q2303.1 1524.47 2301.28 1520.93 Q2299.47 1517.37 2295.84 1517.37 M2295.84 1513.66 Q2301.65 1513.66 2304.7 1518.27 Q2307.78 1522.85 2307.78 1531.6 Q2307.78 1540.33 2304.7 1544.94 Q2301.65 1549.52 2295.84 1549.52 Q2290.03 1549.52 2286.95 1544.94 Q2283.89 1540.33 2283.89 1531.6 Q2283.89 1522.85 2286.95 1518.27 Q2290.03 1513.66 2295.84 1513.66 Z" fill="#000000" fill-rule="nonzero" fill-opacity="1" /><path clip-path="url(#clip690)" d="M2326 1517.37 Q2322.39 1517.37 2320.56 1520.93 Q2318.75 1524.47 2318.75 1531.6 Q2318.75 1538.71 2320.56 1542.27 Q2322.39 1545.82 2326 1545.82 Q2329.63 1545.82 2331.44 1542.27 Q2333.27 1538.71 2333.27 1531.6 Q2333.27 1524.47 2331.44 1520.93 Q2329.63 1517.37 2326 1517.37 M2326 1513.66 Q2331.81 1513.66 2334.86 1518.27 Q2337.94 1522.85 2337.94 1531.6 Q2337.94 1540.33 2334.86 1544.94 Q2331.81 1549.52 2326 1549.52 Q2320.19 1549.52 2317.11 1544.94 Q2314.05 1540.33 2314.05 1531.6 Q2314.05 1522.85 2317.11 1518.27 Q2320.19 1513.66 2326 1513.66 Z" fill="#000000" fill-rule="nonzero" fill-opacity="1" /><polyline clip-path="url(#clip690)" style="stroke:#000000; stroke-linecap:round; stroke-linejoin:round; stroke-width:4; stroke-opacity:1; fill:none" points="112.177,1486.45 112.177,47.2441 "/>
<polyline clip-path="url(#clip690)" style="stroke:#000000; stroke-linecap:round; stroke-linejoin:round; stroke-width:4; stroke-opacity:1; fill:none" points="112.177,1152.58 131.075,1152.58 "/>
<polyline clip-path="url(#clip690)" style="stroke:#000000; stroke-linecap:round; stroke-linejoin:round; stroke-width:4; stroke-opacity:1; fill:none" points="112.177,798.757 131.075,798.757 "/>
<polyline clip-path="url(#clip690)" style="stroke:#000000; stroke-linecap:round; stroke-linejoin:round; stroke-width:4; stroke-opacity:1; fill:none" points="112.177,444.935 131.075,444.935 "/>
<polyline clip-path="url(#clip690)" style="stroke:#000000; stroke-linecap:round; stroke-linejoin:round; stroke-width:4; stroke-opacity:1; fill:none" points="112.177,91.1139 131.075,91.1139 "/>
<path clip-path="url(#clip690)" d="M56.2699 1165.92 L63.9087 1165.92 L63.9087 1139.56 L55.5986 1141.22 L55.5986 1136.97 L63.8624 1135.3 L68.5383 1135.3 L68.5383 1165.92 L76.1772 1165.92 L76.1772 1169.86 L56.2699 1169.86 L56.2699 1165.92 Z" fill="#000000" fill-rule="nonzero" fill-opacity="1" /><path clip-path="url(#clip690)" d="M59.8578 812.102 L76.1772 812.102 L76.1772 816.037 L54.2328 816.037 L54.2328 812.102 Q56.8949 809.347 61.4782 804.718 Q66.0846 800.065 67.2652 798.722 Q69.5105 796.199 70.3902 794.463 Q71.2929 792.704 71.2929 791.014 Q71.2929 788.259 69.3485 786.523 Q67.4272 784.787 64.3254 784.787 Q62.1263 784.787 59.6726 785.551 Q57.2421 786.315 54.4643 787.866 L54.4643 783.144 Q57.2884 782.009 59.7421 781.431 Q62.1958 780.852 64.2328 780.852 Q69.6031 780.852 72.7976 783.537 Q75.992 786.222 75.992 790.713 Q75.992 792.843 75.1818 794.764 Q74.3948 796.662 72.2883 799.255 Q71.7096 799.926 68.6078 803.144 Q65.5059 806.338 59.8578 812.102 Z" fill="#000000" fill-rule="nonzero" fill-opacity="1" /><path clip-path="url(#clip690)" d="M69.0476 443.581 Q72.404 444.299 74.279 446.567 Q76.1772 448.836 76.1772 452.169 Q76.1772 457.285 72.6587 460.086 Q69.1402 462.887 62.6587 462.887 Q60.4828 462.887 58.168 462.447 Q55.8764 462.03 53.4227 461.174 L53.4227 456.66 Q55.3671 457.794 57.6819 458.373 Q59.9967 458.952 62.5198 458.952 Q66.918 458.952 69.2096 457.215 Q71.5244 455.479 71.5244 452.169 Q71.5244 449.114 69.3717 447.401 Q67.242 445.665 63.4226 445.665 L59.3949 445.665 L59.3949 441.822 L63.6078 441.822 Q67.0569 441.822 68.8855 440.456 Q70.7142 439.067 70.7142 436.475 Q70.7142 433.813 68.8161 432.401 Q66.9411 430.966 63.4226 430.966 Q61.5013 430.966 59.3023 431.382 Q57.1032 431.799 54.4643 432.679 L54.4643 428.512 Q57.1264 427.771 59.4412 427.401 Q61.7791 427.03 63.8393 427.03 Q69.1633 427.03 72.2652 429.461 Q75.367 431.868 75.367 435.989 Q75.367 438.859 73.7235 440.85 Q72.08 442.817 69.0476 443.581 Z" fill="#000000" fill-rule="nonzero" fill-opacity="1" /><path clip-path="url(#clip690)" d="M66.5939 77.908 L54.7884 96.357 L66.5939 96.357 L66.5939 77.908 M65.367 73.8339 L71.2466 73.8339 L71.2466 96.357 L76.1772 96.357 L76.1772 100.246 L71.2466 100.246 L71.2466 108.394 L66.5939 108.394 L66.5939 100.246 L50.9921 100.246 L50.9921 95.732 L65.367 73.8339 Z" fill="#000000" fill-rule="nonzero" fill-opacity="1" /><path clip-path="url(#clip692)" d="M175.59 1329.49 L196.727 1354.88 L217.865 1364 L239.002 1371.43 L260.14 1376.2 L281.277 1379.97 L302.415 1381.48 L323.553 1385.46 L344.69 1389.03 L365.828 1392.71 L386.965 1395.57 L408.103 1396.74 L429.24 1396.48 L450.378 1399.19 L471.515 1401.33 L492.653 1402.36 L513.79 1401.85 L534.928 1401.44 L556.065 1403.71 L577.203 1403.52 L598.34 1405.11 L619.478 1409.97 L640.616 1410.49 L661.753 1412.62 L682.891 1414.88 L704.028 1417.64 L725.166 1417.74 L746.303 1420.78 L767.441 1422.13 L788.578 1421.79 L809.716 1422.31 L830.853 1423.25 L851.991 1424.17 L873.128 1425.98 L894.266 1425.08 L915.404 1426.37 L936.541 1426.45 L957.679 1426.05 L978.816 1426.83 L999.954 1426.96 L1021.09 1427.17 L1042.23 1428.18 L1063.37 1428.21 L1084.5 1427.91 L1105.64 1431.27 L1126.78 1430.21 L1147.92 1433.52 L1169.05 1434.56 L1190.19 1436.03 L1211.33 1433.65 L1232.47 1432.84 L1253.6 1433.05 L1274.74 1432.55 L1295.88 1433.36 L1317.02 1435.4 L1338.15 1435.83 L1359.29 1433.75 L1380.43 1434.45 L1401.57 1436.09 L1422.7 1435.02 L1443.84 1434.34 L1464.98 1436.47 L1486.12 1434.65 L1507.25 1437.2 L1528.39 1435.89 L1549.53 1434.58 L1570.67 1436.22 L1591.8 1437.51 L1612.94 1438.18 L1634.08 1439.78 L1655.22 1440.66 L1676.35 1440.96 L1697.49 1441.44 L1718.63 1440.22 L1739.77 1440.09 L1760.9 1439.44 L1782.04 1438.96 L1803.18 1438.46 L1824.32 1438.58 L1845.46 1440.43 L1866.59 1438.18 L1887.73 1441.17 L1908.87 1440.76 L1930.01 1439.48 L1951.14 1440.25 L1972.28 1441.57 L1993.42 1442.41 L2014.56 1441.96 L2035.69 1441.09 L2056.83 1445.53 L2077.97 1443.5 L2099.11 1443.73 L2120.24 1445.72 L2141.38 1445.36 L2162.52 1444.96 L2183.66 1443.16 L2204.79 1441.65 L2225.93 1441.19 L2247.07 1440.45 L2268.21 1438.12 L2289.34 1441.22 L2289.34 91.6265 L2268.21 94.5446 L2247.07 87.9763 L2225.93 131.794 L2204.79 173.52 L2183.66 147.674 L2162.52 251.374 L2141.38 263.46 L2120.24 259.221 L2099.11 270.978 L2077.97 278.346 L2056.83 309.211 L2035.69 331.839 L2014.56 327.547 L1993.42 381.471 L1972.28 408.785 L1951.14 394.868 L1930.01 452.172 L1908.87 464.386 L1887.73 455.529 L1866.59 467.816 L1845.46 437.435 L1824.32 468.77 L1803.18 498.902 L1782.04 481.601 L1760.9 469.587 L1739.77 509.197 L1718.63 470.52 L1697.49 515.991 L1676.35 512.6 L1655.22 534.865 L1634.08 571.842 L1612.94 587.665 L1591.8 600.708 L1570.67 602.534 L1549.53 604.686 L1528.39 639.247 L1507.25 655.996 L1486.12 691.723 L1464.98 707.26 L1443.84 685.682 L1422.7 699.342 L1401.57 754.021 L1380.43 752.534 L1359.29 772.399 L1338.15 798.949 L1317.02 815.6 L1295.88 799.751 L1274.74 795.964 L1253.6 815.368 L1232.47 783.855 L1211.33 810.792 L1190.19 833.84 L1169.05 828.939 L1147.92 846.458 L1126.78 855.858 L1105.64 863.392 L1084.5 878.255 L1063.37 896.117 L1042.23 908.897 L1021.09 913.394 L999.954 918.441 L978.816 930.267 L957.679 943.087 L936.541 955.941 L915.404 972.025 L894.266 992.752 L873.128 986.627 L851.991 989.071 L830.853 996.254 L809.716 1015.39 L788.578 1034.06 L767.441 1033.14 L746.303 1049.57 L725.166 1052.77 L704.028 1059.66 L682.891 1057.97 L661.753 1073.54 L640.616 1083.36 L619.478 1087.06 L598.34 1100.41 L577.203 1117.02 L556.065 1119.26 L534.928 1122.43 L513.79 1140.2 L492.653 1143.68 L471.515 1150.74 L450.378 1165.15 L429.24 1181.64 L408.103 1190.08 L386.965 1196.4 L365.828 1205.62 L344.69 1218.79 L323.553 1217.9 L302.415 1233.27 L281.277 1245.81 L260.14 1252.95 L239.002 1265.35 L217.865 1282.95 L196.727 1297.19 L175.59 1329.49  Z" fill="#009af9" fill-rule="evenodd" fill-opacity="0.2"/>
<polyline clip-path="url(#clip692)" style="stroke:#009af9; stroke-linecap:round; stroke-linejoin:round; stroke-width:12; stroke-opacity:1; fill:none" points="175.59,1329.49 196.727,1328.55 217.865,1327.22 239.002,1327.46 260.14,1324.16 281.277,1323.26 302.415,1321.23 323.553,1318.21 344.69,1320.41 365.828,1319.3 386.965,1318.02 408.103,1316.79 429.24,1315.83 450.378,1313.85 471.515,1310.78 492.653,1311.48 513.79,1315.17 534.928,1311.73 556.065,1309.68 577.203,1311.29 598.34,1309.71 619.478,1312.07 640.616,1303.86 661.753,1300.33 682.891,1300.84 704.028,1302.11 725.166,1301.41 746.303,1298.58 767.441,1297.31 788.578,1298.4 809.716,1300.41 830.853,1296.89 851.991,1298.18 873.128,1297.31 894.266,1298.68 915.404,1296.83 936.541,1296.64 957.679,1295.95 978.816,1295.9 999.954,1294.07 1021.09,1293.06 1042.23,1292.21 1063.37,1288.36 1084.5,1288.99 1105.64,1284.63 1126.78,1287.36 1147.92,1286.5 1169.05,1282.97 1190.19,1282.41 1211.33,1278.81 1232.47,1281.21 1253.6,1276.87 1274.74,1271.13 1295.88,1269.17 1317.02,1267.81 1338.15,1269.36 1359.29,1266.03 1380.43,1261.6 1401.57,1264.62 1422.7,1258.8 1443.84,1259.08 1464.98,1260.23 1486.12,1259.31 1507.25,1257.51 1528.39,1257.78 1549.53,1256.77 1570.67,1259.1 1591.8,1255.31 1612.94,1250.83 1634.08,1255.01 1655.22,1260.85 1676.35,1257.14 1697.49,1255.09 1718.63,1248.37 1739.77,1244.9 1760.9,1248.5 1782.04,1246.43 1803.18,1247.29 1824.32,1241.49 1845.46,1240.28 1866.59,1240.12 1887.73,1233.83 1908.87,1238.4 1930.01,1236.92 1951.14,1234.88 1972.28,1233.99 1993.42,1232.67 2014.56,1232.65 2035.69,1233.38 2056.83,1232.1 2077.97,1232.66 2099.11,1227.88 2120.24,1227.26 2141.38,1224.51 2162.52,1227.65 2183.66,1228.73 2204.79,1229.57 2225.93,1234.55 2247.07,1231.8 2268.21,1232.78 2289.34,1228.69 "/>
<path clip-path="url(#clip692)" d="M175.59 1329.49 L196.727 1339.93 L217.865 1344.89 L239.002 1346.35 L260.14 1346.74 L281.277 1349.84 L302.415 1351.77 L323.553 1350.91 L344.69 1351.45 L365.828 1354.18 L386.965 1355.54 L408.103 1355.84 L429.24 1356.23 L450.378 1355.57 L471.515 1359.06 L492.653 1359.94 L513.79 1360.71 L534.928 1361.08 L556.065 1360.39 L577.203 1360.21 L598.34 1362.16 L619.478 1364.32 L640.616 1364.09 L661.753 1363.29 L682.891 1360.41 L704.028 1362.05 L725.166 1364.44 L746.303 1360.97 L767.441 1361.76 L788.578 1363.38 L809.716 1362.97 L830.853 1366.47 L851.991 1364.97 L873.128 1364.36 L894.266 1364.03 L915.404 1363.99 L936.541 1363.59 L957.679 1362 L978.816 1365.42 L999.954 1364.03 L1021.09 1362.87 L1042.23 1362.77 L1063.37 1364.48 L1084.5 1365.01 L1105.64 1367.1 L1126.78 1365.39 L1147.92 1364.6 L1169.05 1363.13 L1190.19 1368.42 L1211.33 1366.07 L1232.47 1365.07 L1253.6 1362.77 L1274.74 1361.19 L1295.88 1362.46 L1317.02 1362.89 L1338.15 1363.45 L1359.29 1361.3 L1380.43 1355.25 L1401.57 1357.82 L1422.7 1358.37 L1443.84 1358.32 L1464.98 1354.89 L1486.12 1355.13 L1507.25 1357.47 L1528.39 1355.4 L1549.53 1356.31 L1570.67 1358.33 L1591.8 1359.94 L1612.94 1361.18 L1634.08 1359.84 L1655.22 1360.22 L1676.35 1360.74 L1697.49 1363.58 L1718.63 1362.67 L1739.77 1362.94 L1760.9 1361.84 L1782.04 1361.47 L1803.18 1361.2 L1824.32 1359.89 L1845.46 1363.09 L1866.59 1361.55 L1887.73 1360.24 L1908.87 1359.11 L1930.01 1358.69 L1951.14 1356.02 L1972.28 1355.53 L1993.42 1355.67 L2014.56 1352.68 L2035.69 1351.37 L2056.83 1354.81 L2077.97 1355.71 L2099.11 1357.64 L2120.24 1356.52 L2141.38 1356.09 L2162.52 1355.1 L2183.66 1356.98 L2204.79 1356.87 L2225.93 1355.85 L2247.07 1353.35 L2268.21 1358.4 L2289.34 1359.94 L2289.34 966.051 L2268.21 982.47 L2247.07 981.177 L2225.93 973.252 L2204.79 967.851 L2183.66 979.65 L2162.52 959.038 L2141.38 955.686 L2120.24 959.256 L2099.11 959.356 L2077.97 965.469 L2056.83 966.15 L2035.69 972.098 L2014.56 969.167 L1993.42 979.837 L1972.28 993.165 L1951.14 988.066 L1930.01 984.609 L1908.87 1004.95 L1887.73 1016.55 L1866.59 1012.58 L1845.46 1031.82 L1824.32 1036.97 L1803.18 1036.92 L1782.04 1045.14 L1760.9 1051.31 L1739.77 1056.47 L1718.63 1053.4 L1697.49 1058.25 L1676.35 1051.56 L1655.22 1064.37 L1634.08 1069.45 L1612.94 1073.57 L1591.8 1076.81 L1570.67 1078.58 L1549.53 1072.52 L1528.39 1077.72 L1507.25 1088.71 L1486.12 1080.27 L1464.98 1084.2 L1443.84 1080.32 L1422.7 1087.82 L1401.57 1096.25 L1380.43 1092.48 L1359.29 1102.66 L1338.15 1110.22 L1317.02 1117.78 L1295.88 1127.07 L1274.74 1129.98 L1253.6 1136.09 L1232.47 1134.34 L1211.33 1136.09 L1190.19 1142.16 L1169.05 1142.3 L1147.92 1154.35 L1126.78 1151.31 L1105.64 1149.6 L1084.5 1145.83 L1063.37 1155.58 L1042.23 1163.09 L1021.09 1166.78 L999.954 1170.68 L978.816 1173.59 L957.679 1184.22 L936.541 1185.19 L915.404 1185.18 L894.266 1185.8 L873.128 1191.56 L851.991 1196.02 L830.853 1196.54 L809.716 1198.28 L788.578 1204.26 L767.441 1207.21 L746.303 1207.21 L725.166 1217.52 L704.028 1218.81 L682.891 1225.05 L661.753 1231.02 L640.616 1228.88 L619.478 1231.44 L598.34 1235.22 L577.203 1237.93 L556.065 1245.1 L534.928 1246.99 L513.79 1251.78 L492.653 1255.8 L471.515 1256.42 L450.378 1260.37 L429.24 1264.6 L408.103 1268.27 L386.965 1272.39 L365.828 1274.97 L344.69 1280.97 L323.553 1285.84 L302.415 1291.76 L281.277 1295.54 L260.14 1299.05 L239.002 1305.48 L217.865 1309.54 L196.727 1316.23 L175.59 1329.49  Z" fill="#e26f46" fill-rule="evenodd" fill-opacity="0.2"/>
<polyline clip-path="url(#clip692)" style="stroke:#e26f46; stroke-linecap:round; stroke-linejoin:round; stroke-width:12; stroke-opacity:1; fill:none" points="175.59,1329.49 196.727,1328.55 217.865,1327.22 239.002,1327.46 260.14,1324.16 281.277,1323.26 302.415,1321.23 323.553,1318.21 344.69,1320.41 365.828,1319.3 386.965,1318.02 408.103,1316.79 429.24,1315.83 450.378,1313.85 471.515,1310.78 492.653,1311.48 513.79,1315.17 534.928,1311.73 556.065,1309.68 577.203,1311.29 598.34,1309.71 619.478,1312.07 640.616,1303.86 661.753,1300.33 682.891,1300.84 704.028,1302.11 725.166,1301.41 746.303,1298.58 767.441,1297.31 788.578,1298.4 809.716,1300.41 830.853,1296.89 851.991,1298.18 873.128,1297.31 894.266,1298.68 915.404,1296.83 936.541,1296.64 957.679,1295.95 978.816,1295.9 999.954,1294.07 1021.09,1293.06 1042.23,1292.21 1063.37,1288.36 1084.5,1288.99 1105.64,1284.63 1126.78,1287.36 1147.92,1286.5 1169.05,1282.97 1190.19,1282.41 1211.33,1278.81 1232.47,1281.21 1253.6,1276.87 1274.74,1271.13 1295.88,1269.17 1317.02,1267.81 1338.15,1269.36 1359.29,1266.03 1380.43,1261.6 1401.57,1264.62 1422.7,1258.8 1443.84,1259.08 1464.98,1260.23 1486.12,1259.31 1507.25,1257.51 1528.39,1257.78 1549.53,1256.77 1570.67,1259.1 1591.8,1255.31 1612.94,1250.83 1634.08,1255.01 1655.22,1260.85 1676.35,1257.14 1697.49,1255.09 1718.63,1248.37 1739.77,1244.9 1760.9,1248.5 1782.04,1246.43 1803.18,1247.29 1824.32,1241.49 1845.46,1240.28 1866.59,1240.12 1887.73,1233.83 1908.87,1238.4 1930.01,1236.92 1951.14,1234.88 1972.28,1233.99 1993.42,1232.67 2014.56,1232.65 2035.69,1233.38 2056.83,1232.1 2077.97,1232.66 2099.11,1227.88 2120.24,1227.26 2141.38,1224.51 2162.52,1227.65 2183.66,1228.73 2204.79,1229.57 2225.93,1234.55 2247.07,1231.8 2268.21,1232.78 2289.34,1228.69 "/>
<path clip-path="url(#clip690)" d="M1784.25 250.738 L2278.07 250.738 L2278.07 95.2176 L1784.25 95.2176  Z" fill="#ffffff" fill-rule="evenodd" fill-opacity="1"/>
<polyline clip-path="url(#clip690)" style="stroke:#000000; stroke-linecap:round; stroke-linejoin:round; stroke-width:4; stroke-opacity:1; fill:none" points="1784.25,250.738 2278.07,250.738 2278.07,95.2176 1784.25,95.2176 1784.25,250.738 "/>
<polyline clip-path="url(#clip690)" style="stroke:#009af9; stroke-linecap:round; stroke-linejoin:round; stroke-width:12; stroke-opacity:1; fill:none" points="1809.14,147.058 1958.51,147.058 "/>
<path clip-path="url(#clip690)" d="M1983.41 129.778 L1990.38 129.778 L1999.19 153.296 L2008.06 129.778 L2015.03 129.778 L2015.03 164.338 L2010.47 164.338 L2010.47 133.99 L2001.56 157.694 L1996.86 157.694 L1987.94 133.99 L1987.94 164.338 L1983.41 164.338 L1983.41 129.778 Z" fill="#000000" fill-rule="nonzero" fill-opacity="1" /><path clip-path="url(#clip690)" d="M2024.12 138.412 L2028.38 138.412 L2028.38 164.338 L2024.12 164.338 L2024.12 138.412 M2024.12 128.319 L2028.38 128.319 L2028.38 133.713 L2024.12 133.713 L2024.12 128.319 Z" fill="#000000" fill-rule="nonzero" fill-opacity="1" /><path clip-path="url(#clip690)" d="M2054.36 142.347 L2054.36 128.319 L2058.62 128.319 L2058.62 164.338 L2054.36 164.338 L2054.36 160.449 Q2053.01 162.763 2050.95 163.898 Q2048.92 165.009 2046.05 165.009 Q2041.35 165.009 2038.38 161.259 Q2035.44 157.509 2035.44 151.398 Q2035.44 145.287 2038.38 141.537 Q2041.35 137.787 2046.05 137.787 Q2048.92 137.787 2050.95 138.921 Q2053.01 140.032 2054.36 142.347 M2039.84 151.398 Q2039.84 156.097 2041.76 158.782 Q2043.71 161.444 2047.09 161.444 Q2050.47 161.444 2052.41 158.782 Q2054.36 156.097 2054.36 151.398 Q2054.36 146.699 2052.41 144.037 Q2050.47 141.352 2047.09 141.352 Q2043.71 141.352 2041.76 144.037 Q2039.84 146.699 2039.84 151.398 Z" fill="#000000" fill-rule="nonzero" fill-opacity="1" /><path clip-path="url(#clip690)" d="M2084.45 142.347 L2084.45 128.319 L2088.71 128.319 L2088.71 164.338 L2084.45 164.338 L2084.45 160.449 Q2083.11 162.763 2081.05 163.898 Q2079.01 165.009 2076.14 165.009 Q2071.44 165.009 2068.48 161.259 Q2065.54 157.509 2065.54 151.398 Q2065.54 145.287 2068.48 141.537 Q2071.44 137.787 2076.14 137.787 Q2079.01 137.787 2081.05 138.921 Q2083.11 140.032 2084.45 142.347 M2069.93 151.398 Q2069.93 156.097 2071.86 158.782 Q2073.8 161.444 2077.18 161.444 Q2080.56 161.444 2082.5 158.782 Q2084.45 156.097 2084.45 151.398 Q2084.45 146.699 2082.5 144.037 Q2080.56 141.352 2077.18 141.352 Q2073.8 141.352 2071.86 144.037 Q2069.93 146.699 2069.93 151.398 Z" fill="#000000" fill-rule="nonzero" fill-opacity="1" /><path clip-path="url(#clip690)" d="M2097.48 128.319 L2101.74 128.319 L2101.74 164.338 L2097.48 164.338 L2097.48 128.319 Z" fill="#000000" fill-rule="nonzero" fill-opacity="1" /><path clip-path="url(#clip690)" d="M2132.83 150.31 L2132.83 152.393 L2113.24 152.393 Q2113.52 156.791 2115.88 159.106 Q2118.27 161.398 2122.5 161.398 Q2124.96 161.398 2127.25 160.796 Q2129.56 160.194 2131.83 158.99 L2131.83 163.018 Q2129.54 163.99 2127.13 164.5 Q2124.73 165.009 2122.25 165.009 Q2116.05 165.009 2112.41 161.398 Q2108.8 157.787 2108.8 151.629 Q2108.8 145.264 2112.23 141.537 Q2115.68 137.787 2121.51 137.787 Q2126.74 137.787 2129.77 141.166 Q2132.83 144.523 2132.83 150.31 M2128.57 149.06 Q2128.52 145.565 2126.6 143.481 Q2124.7 141.398 2121.55 141.398 Q2117.99 141.398 2115.84 143.412 Q2113.71 145.426 2113.38 149.083 L2128.57 149.06 Z" fill="#000000" fill-rule="nonzero" fill-opacity="1" /><path clip-path="url(#clip690)" d="M2155.63 163.62 L2155.63 159.361 Q2157.39 160.194 2159.19 160.634 Q2161 161.074 2162.74 161.074 Q2167.36 161.074 2169.8 157.972 Q2172.25 154.847 2172.6 148.504 Q2171.25 150.495 2169.19 151.56 Q2167.13 152.625 2164.63 152.625 Q2159.45 152.625 2156.42 149.5 Q2153.41 146.352 2153.41 140.912 Q2153.41 135.588 2156.55 132.37 Q2159.7 129.153 2164.93 129.153 Q2170.93 129.153 2174.08 133.759 Q2177.25 138.342 2177.25 147.092 Q2177.25 155.264 2173.36 160.148 Q2169.49 165.009 2162.94 165.009 Q2161.18 165.009 2159.38 164.662 Q2157.57 164.314 2155.63 163.62 M2164.93 148.967 Q2168.08 148.967 2169.91 146.814 Q2171.76 144.662 2171.76 140.912 Q2171.76 137.185 2169.91 135.032 Q2168.08 132.856 2164.93 132.856 Q2161.79 132.856 2159.93 135.032 Q2158.11 137.185 2158.11 140.912 Q2158.11 144.662 2159.93 146.814 Q2161.79 148.967 2164.93 148.967 Z" fill="#000000" fill-rule="nonzero" fill-opacity="1" /><path clip-path="url(#clip690)" d="M2185.7 129.778 L2204.05 129.778 L2204.05 133.713 L2189.98 133.713 L2189.98 142.185 Q2191 141.838 2192.02 141.676 Q2193.04 141.49 2194.05 141.49 Q2199.84 141.49 2203.22 144.662 Q2206.6 147.833 2206.6 153.25 Q2206.6 158.828 2203.13 161.93 Q2199.66 165.009 2193.34 165.009 Q2191.16 165.009 2188.89 164.638 Q2186.65 164.268 2184.24 163.527 L2184.24 158.828 Q2186.32 159.963 2188.55 160.518 Q2190.77 161.074 2193.24 161.074 Q2197.25 161.074 2199.59 158.967 Q2201.92 156.861 2201.92 153.25 Q2201.92 149.639 2199.59 147.532 Q2197.25 145.426 2193.24 145.426 Q2191.37 145.426 2189.49 145.842 Q2187.64 146.259 2185.7 147.139 L2185.7 129.778 Z" fill="#000000" fill-rule="nonzero" fill-opacity="1" /><path clip-path="url(#clip690)" d="M2245.21 149.129 Q2243.2 149.129 2242.04 150.842 Q2240.91 152.555 2240.91 155.611 Q2240.91 158.62 2242.04 160.356 Q2243.2 162.069 2245.21 162.069 Q2247.18 162.069 2248.31 160.356 Q2249.47 158.62 2249.47 155.611 Q2249.47 152.578 2248.31 150.865 Q2247.18 149.129 2245.21 149.129 M2245.21 146.19 Q2248.87 146.19 2251.02 148.736 Q2253.17 151.282 2253.17 155.611 Q2253.17 159.939 2251 162.486 Q2248.85 165.009 2245.21 165.009 Q2241.51 165.009 2239.36 162.486 Q2237.2 159.939 2237.2 155.611 Q2237.2 151.259 2239.36 148.736 Q2241.53 146.19 2245.21 146.19 M2221.32 132.092 Q2219.33 132.092 2218.17 133.828 Q2217.04 135.541 2217.04 138.551 Q2217.04 141.606 2218.17 143.319 Q2219.31 145.032 2221.32 145.032 Q2223.34 145.032 2224.47 143.319 Q2225.63 141.606 2225.63 138.551 Q2225.63 135.565 2224.47 133.828 Q2223.31 132.092 2221.32 132.092 M2242.23 129.153 L2245.93 129.153 L2224.31 165.009 L2220.61 165.009 L2242.23 129.153 M2221.32 129.153 Q2224.98 129.153 2227.16 131.699 Q2229.33 134.222 2229.33 138.551 Q2229.33 142.926 2227.16 145.449 Q2225 147.972 2221.32 147.972 Q2217.64 147.972 2215.49 145.449 Q2213.36 142.902 2213.36 138.551 Q2213.36 134.245 2215.51 131.699 Q2217.67 129.153 2221.32 129.153 Z" fill="#000000" fill-rule="nonzero" fill-opacity="1" /><polyline clip-path="url(#clip690)" style="stroke:#e26f46; stroke-linecap:round; stroke-linejoin:round; stroke-width:12; stroke-opacity:1; fill:none" points="1809.14,198.898 1958.51,198.898 "/>
<path clip-path="url(#clip690)" d="M1983.41 181.618 L1990.38 181.618 L1999.19 205.136 L2008.06 181.618 L2015.03 181.618 L2015.03 216.178 L2010.47 216.178 L2010.47 185.83 L2001.56 209.534 L1996.86 209.534 L1987.94 185.83 L1987.94 216.178 L1983.41 216.178 L1983.41 181.618 Z" fill="#000000" fill-rule="nonzero" fill-opacity="1" /><path clip-path="url(#clip690)" d="M2024.12 190.252 L2028.38 190.252 L2028.38 216.178 L2024.12 216.178 L2024.12 190.252 M2024.12 180.159 L2028.38 180.159 L2028.38 185.553 L2024.12 185.553 L2024.12 180.159 Z" fill="#000000" fill-rule="nonzero" fill-opacity="1" /><path clip-path="url(#clip690)" d="M2054.36 194.187 L2054.36 180.159 L2058.62 180.159 L2058.62 216.178 L2054.36 216.178 L2054.36 212.289 Q2053.01 214.603 2050.95 215.738 Q2048.92 216.849 2046.05 216.849 Q2041.35 216.849 2038.38 213.099 Q2035.44 209.349 2035.44 203.238 Q2035.44 197.127 2038.38 193.377 Q2041.35 189.627 2046.05 189.627 Q2048.92 189.627 2050.95 190.761 Q2053.01 191.872 2054.36 194.187 M2039.84 203.238 Q2039.84 207.937 2041.76 210.622 Q2043.71 213.284 2047.09 213.284 Q2050.47 213.284 2052.41 210.622 Q2054.36 207.937 2054.36 203.238 Q2054.36 198.539 2052.41 195.877 Q2050.47 193.192 2047.09 193.192 Q2043.71 193.192 2041.76 195.877 Q2039.84 198.539 2039.84 203.238 Z" fill="#000000" fill-rule="nonzero" fill-opacity="1" /><path clip-path="url(#clip690)" d="M2084.45 194.187 L2084.45 180.159 L2088.71 180.159 L2088.71 216.178 L2084.45 216.178 L2084.45 212.289 Q2083.11 214.603 2081.05 215.738 Q2079.01 216.849 2076.14 216.849 Q2071.44 216.849 2068.48 213.099 Q2065.54 209.349 2065.54 203.238 Q2065.54 197.127 2068.48 193.377 Q2071.44 189.627 2076.14 189.627 Q2079.01 189.627 2081.05 190.761 Q2083.11 191.872 2084.45 194.187 M2069.93 203.238 Q2069.93 207.937 2071.86 210.622 Q2073.8 213.284 2077.18 213.284 Q2080.56 213.284 2082.5 210.622 Q2084.45 207.937 2084.45 203.238 Q2084.45 198.539 2082.5 195.877 Q2080.56 193.192 2077.18 193.192 Q2073.8 193.192 2071.86 195.877 Q2069.93 198.539 2069.93 203.238 Z" fill="#000000" fill-rule="nonzero" fill-opacity="1" /><path clip-path="url(#clip690)" d="M2097.48 180.159 L2101.74 180.159 L2101.74 216.178 L2097.48 216.178 L2097.48 180.159 Z" fill="#000000" fill-rule="nonzero" fill-opacity="1" /><path clip-path="url(#clip690)" d="M2132.83 202.15 L2132.83 204.233 L2113.24 204.233 Q2113.52 208.631 2115.88 210.946 Q2118.27 213.238 2122.5 213.238 Q2124.96 213.238 2127.25 212.636 Q2129.56 212.034 2131.83 210.83 L2131.83 214.858 Q2129.54 215.83 2127.13 216.34 Q2124.73 216.849 2122.25 216.849 Q2116.05 216.849 2112.41 213.238 Q2108.8 209.627 2108.8 203.469 Q2108.8 197.104 2112.23 193.377 Q2115.68 189.627 2121.51 189.627 Q2126.74 189.627 2129.77 193.006 Q2132.83 196.363 2132.83 202.15 M2128.57 200.9 Q2128.52 197.405 2126.6 195.321 Q2124.7 193.238 2121.55 193.238 Q2117.99 193.238 2115.84 195.252 Q2113.71 197.266 2113.38 200.923 L2128.57 200.9 Z" fill="#000000" fill-rule="nonzero" fill-opacity="1" /><path clip-path="url(#clip690)" d="M2155.54 181.618 L2173.89 181.618 L2173.89 185.553 L2159.82 185.553 L2159.82 194.025 Q2160.84 193.678 2161.86 193.516 Q2162.87 193.33 2163.89 193.33 Q2169.68 193.33 2173.06 196.502 Q2176.44 199.673 2176.44 205.09 Q2176.44 210.668 2172.97 213.77 Q2169.49 216.849 2163.18 216.849 Q2161 216.849 2158.73 216.478 Q2156.49 216.108 2154.08 215.367 L2154.08 210.668 Q2156.16 211.803 2158.38 212.358 Q2160.61 212.914 2163.08 212.914 Q2167.09 212.914 2169.43 210.807 Q2171.76 208.701 2171.76 205.09 Q2171.76 201.479 2169.43 199.372 Q2167.09 197.266 2163.08 197.266 Q2161.21 197.266 2159.33 197.682 Q2157.48 198.099 2155.54 198.979 L2155.54 181.618 Z" fill="#000000" fill-rule="nonzero" fill-opacity="1" /><path clip-path="url(#clip690)" d="M2195.65 184.696 Q2192.04 184.696 2190.21 188.261 Q2188.41 191.803 2188.41 198.932 Q2188.41 206.039 2190.21 209.604 Q2192.04 213.145 2195.65 213.145 Q2199.29 213.145 2201.09 209.604 Q2202.92 206.039 2202.92 198.932 Q2202.92 191.803 2201.09 188.261 Q2199.29 184.696 2195.65 184.696 M2195.65 180.993 Q2201.46 180.993 2204.52 185.599 Q2207.6 190.182 2207.6 198.932 Q2207.6 207.659 2204.52 212.266 Q2201.46 216.849 2195.65 216.849 Q2189.84 216.849 2186.76 212.266 Q2183.71 207.659 2183.71 198.932 Q2183.71 190.182 2186.76 185.599 Q2189.84 180.993 2195.65 180.993 Z" fill="#000000" fill-rule="nonzero" fill-opacity="1" /><path clip-path="url(#clip690)" d="M2245.21 200.969 Q2243.2 200.969 2242.04 202.682 Q2240.91 204.395 2240.91 207.451 Q2240.91 210.46 2242.04 212.196 Q2243.2 213.909 2245.21 213.909 Q2247.18 213.909 2248.31 212.196 Q2249.47 210.46 2249.47 207.451 Q2249.47 204.418 2248.31 202.705 Q2247.18 200.969 2245.21 200.969 M2245.21 198.03 Q2248.87 198.03 2251.02 200.576 Q2253.17 203.122 2253.17 207.451 Q2253.17 211.779 2251 214.326 Q2248.85 216.849 2245.21 216.849 Q2241.51 216.849 2239.36 214.326 Q2237.2 211.779 2237.2 207.451 Q2237.2 203.099 2239.36 200.576 Q2241.53 198.03 2245.21 198.03 M2221.32 183.932 Q2219.33 183.932 2218.17 185.668 Q2217.04 187.381 2217.04 190.391 Q2217.04 193.446 2218.17 195.159 Q2219.31 196.872 2221.32 196.872 Q2223.34 196.872 2224.47 195.159 Q2225.63 193.446 2225.63 190.391 Q2225.63 187.405 2224.47 185.668 Q2223.31 183.932 2221.32 183.932 M2242.23 180.993 L2245.93 180.993 L2224.31 216.849 L2220.61 216.849 L2242.23 180.993 M2221.32 180.993 Q2224.98 180.993 2227.16 183.539 Q2229.33 186.062 2229.33 190.391 Q2229.33 194.766 2227.16 197.289 Q2225 199.812 2221.32 199.812 Q2217.64 199.812 2215.49 197.289 Q2213.36 194.742 2213.36 190.391 Q2213.36 186.085 2215.51 183.539 Q2217.67 180.993 2221.32 180.993 Z" fill="#000000" fill-rule="nonzero" fill-opacity="1" /></svg>
