<?xml version="1.0" encoding="utf-8"?>
<svg xmlns="http://www.w3.org/2000/svg" xmlns:xlink="http://www.w3.org/1999/xlink" width="600" height="400" viewBox="0 0 2400 1600">
<defs>
  <clipPath id="clip540">
    <rect x="0" y="0" width="2400" height="1600"/>
  </clipPath>
</defs>
<path clip-path="url(#clip540)" d="M0 1600 L2400 1600 L2400 0 L0 0  Z" fill="#ffffff" fill-rule="evenodd" fill-opacity="1"/>
<defs>
  <clipPath id="clip541">
    <rect x="480" y="0" width="1681" height="1600"/>
  </clipPath>
</defs>
<path clip-path="url(#clip540)" d="M155.765 1423.18 L2352.76 1423.18 L2352.76 47.2441 L155.765 47.2441  Z" fill="#ffffff" fill-rule="evenodd" fill-opacity="1"/>
<defs>
  <clipPath id="clip542">
    <rect x="155" y="47" width="2198" height="1377"/>
  </clipPath>
</defs>
<polyline clip-path="url(#clip542)" style="stroke:#000000; stroke-linecap:round; stroke-linejoin:round; stroke-width:2; stroke-opacity:0.1; fill:none" points="155.765,1423.18 155.765,47.2441 "/>
<polyline clip-path="url(#clip542)" style="stroke:#000000; stroke-linecap:round; stroke-linejoin:round; stroke-width:2; stroke-opacity:0.1; fill:none" points="595.163,1423.18 595.163,47.2441 "/>
<polyline clip-path="url(#clip542)" style="stroke:#000000; stroke-linecap:round; stroke-linejoin:round; stroke-width:2; stroke-opacity:0.1; fill:none" points="1034.56,1423.18 1034.56,47.2441 "/>
<polyline clip-path="url(#clip542)" style="stroke:#000000; stroke-linecap:round; stroke-linejoin:round; stroke-width:2; stroke-opacity:0.1; fill:none" points="1473.96,1423.18 1473.96,47.2441 "/>
<polyline clip-path="url(#clip542)" style="stroke:#000000; stroke-linecap:round; stroke-linejoin:round; stroke-width:2; stroke-opacity:0.1; fill:none" points="1913.36,1423.18 1913.36,47.2441 "/>
<polyline clip-path="url(#clip542)" style="stroke:#000000; stroke-linecap:round; stroke-linejoin:round; stroke-width:2; stroke-opacity:0.1; fill:none" points="2352.76,1423.18 2352.76,47.2441 "/>
<polyline clip-path="url(#clip542)" style="stroke:#000000; stroke-linecap:round; stroke-linejoin:round; stroke-width:2; stroke-opacity:0.1; fill:none" points="155.765,1384.24 2352.76,1384.24 "/>
<polyline clip-path="url(#clip542)" style="stroke:#000000; stroke-linecap:round; stroke-linejoin:round; stroke-width:2; stroke-opacity:0.1; fill:none" points="155.765,1132.68 2352.76,1132.68 "/>
<polyline clip-path="url(#clip542)" style="stroke:#000000; stroke-linecap:round; stroke-linejoin:round; stroke-width:2; stroke-opacity:0.1; fill:none" points="155.765,881.113 2352.76,881.113 "/>
<polyline clip-path="url(#clip542)" style="stroke:#000000; stroke-linecap:round; stroke-linejoin:round; stroke-width:2; stroke-opacity:0.1; fill:none" points="155.765,629.55 2352.76,629.55 "/>
<polyline clip-path="url(#clip542)" style="stroke:#000000; stroke-linecap:round; stroke-linejoin:round; stroke-width:2; stroke-opacity:0.1; fill:none" points="155.765,377.987 2352.76,377.987 "/>
<polyline clip-path="url(#clip542)" style="stroke:#000000; stroke-linecap:round; stroke-linejoin:round; stroke-width:2; stroke-opacity:0.1; fill:none" points="155.765,126.424 2352.76,126.424 "/>
<polyline clip-path="url(#clip540)" style="stroke:#000000; stroke-linecap:round; stroke-linejoin:round; stroke-width:4; stroke-opacity:1; fill:none" points="155.765,1423.18 2352.76,1423.18 "/>
<polyline clip-path="url(#clip540)" style="stroke:#000000; stroke-linecap:round; stroke-linejoin:round; stroke-width:4; stroke-opacity:1; fill:none" points="155.765,1423.18 155.765,1404.28 "/>
<polyline clip-path="url(#clip540)" style="stroke:#000000; stroke-linecap:round; stroke-linejoin:round; stroke-width:4; stroke-opacity:1; fill:none" points="595.163,1423.18 595.163,1404.28 "/>
<polyline clip-path="url(#clip540)" style="stroke:#000000; stroke-linecap:round; stroke-linejoin:round; stroke-width:4; stroke-opacity:1; fill:none" points="1034.56,1423.18 1034.56,1404.28 "/>
<polyline clip-path="url(#clip540)" style="stroke:#000000; stroke-linecap:round; stroke-linejoin:round; stroke-width:4; stroke-opacity:1; fill:none" points="1473.96,1423.18 1473.96,1404.28 "/>
<polyline clip-path="url(#clip540)" style="stroke:#000000; stroke-linecap:round; stroke-linejoin:round; stroke-width:4; stroke-opacity:1; fill:none" points="1913.36,1423.18 1913.36,1404.28 "/>
<polyline clip-path="url(#clip540)" style="stroke:#000000; stroke-linecap:round; stroke-linejoin:round; stroke-width:4; stroke-opacity:1; fill:none" points="2352.76,1423.18 2352.76,1404.28 "/>
<path clip-path="url(#clip540)" d="M133.149 1454.1 Q129.538 1454.1 127.71 1457.66 Q125.904 1461.2 125.904 1468.33 Q125.904 1475.44 127.71 1479.01 Q129.538 1482.55 133.149 1482.55 Q136.784 1482.55 138.589 1479.01 Q140.418 1475.44 140.418 1468.33 Q140.418 1461.2 138.589 1457.66 Q136.784 1454.1 133.149 1454.1 M133.149 1450.39 Q138.959 1450.39 142.015 1455 Q145.094 1459.58 145.094 1468.33 Q145.094 1477.06 142.015 1481.67 Q138.959 1486.25 133.149 1486.25 Q127.339 1486.25 124.26 1481.67 Q121.205 1477.06 121.205 1468.33 Q121.205 1459.58 124.26 1455 Q127.339 1450.39 133.149 1450.39 Z" fill="#000000" fill-rule="nonzero" fill-opacity="1" /><path clip-path="url(#clip540)" d="M153.311 1479.7 L158.195 1479.7 L158.195 1485.58 L153.311 1485.58 L153.311 1479.7 Z" fill="#000000" fill-rule="nonzero" fill-opacity="1" /><path clip-path="url(#clip540)" d="M178.381 1454.1 Q174.769 1454.1 172.941 1457.66 Q171.135 1461.2 171.135 1468.33 Q171.135 1475.44 172.941 1479.01 Q174.769 1482.55 178.381 1482.55 Q182.015 1482.55 183.82 1479.01 Q185.649 1475.44 185.649 1468.33 Q185.649 1461.2 183.82 1457.66 Q182.015 1454.1 178.381 1454.1 M178.381 1450.39 Q184.191 1450.39 187.246 1455 Q190.325 1459.58 190.325 1468.33 Q190.325 1477.06 187.246 1481.67 Q184.191 1486.25 178.381 1486.25 Q172.57 1486.25 169.492 1481.67 Q166.436 1477.06 166.436 1468.33 Q166.436 1459.58 169.492 1455 Q172.57 1450.39 178.381 1450.39 Z" fill="#000000" fill-rule="nonzero" fill-opacity="1" /><path clip-path="url(#clip540)" d="M573.346 1454.1 Q569.735 1454.1 567.906 1457.66 Q566.101 1461.2 566.101 1468.33 Q566.101 1475.44 567.906 1479.01 Q569.735 1482.55 573.346 1482.55 Q576.98 1482.55 578.786 1479.01 Q580.615 1475.44 580.615 1468.33 Q580.615 1461.2 578.786 1457.66 Q576.98 1454.1 573.346 1454.1 M573.346 1450.39 Q579.156 1450.39 582.212 1455 Q585.29 1459.58 585.29 1468.33 Q585.29 1477.06 582.212 1481.67 Q579.156 1486.25 573.346 1486.25 Q567.536 1486.25 564.457 1481.67 Q561.402 1477.06 561.402 1468.33 Q561.402 1459.58 564.457 1455 Q567.536 1450.39 573.346 1450.39 Z" fill="#000000" fill-rule="nonzero" fill-opacity="1" /><path clip-path="url(#clip540)" d="M593.508 1479.7 L598.392 1479.7 L598.392 1485.58 L593.508 1485.58 L593.508 1479.7 Z" fill="#000000" fill-rule="nonzero" fill-opacity="1" /><path clip-path="url(#clip540)" d="M612.605 1481.64 L628.924 1481.64 L628.924 1485.58 L606.98 1485.58 L606.98 1481.64 Q609.642 1478.89 614.226 1474.26 Q618.832 1469.61 620.013 1468.27 Q622.258 1465.74 623.137 1464.01 Q624.04 1462.25 624.04 1460.56 Q624.04 1457.8 622.096 1456.07 Q620.175 1454.33 617.073 1454.33 Q614.874 1454.33 612.42 1455.09 Q609.989 1455.86 607.212 1457.41 L607.212 1452.69 Q610.036 1451.55 612.489 1450.97 Q614.943 1450.39 616.98 1450.39 Q622.35 1450.39 625.545 1453.08 Q628.739 1455.77 628.739 1460.26 Q628.739 1462.39 627.929 1464.31 Q627.142 1466.2 625.036 1468.8 Q624.457 1469.47 621.355 1472.69 Q618.253 1475.88 612.605 1481.64 Z" fill="#000000" fill-rule="nonzero" fill-opacity="1" /><path clip-path="url(#clip540)" d="M1011.7 1454.1 Q1008.09 1454.1 1006.26 1457.66 Q1004.46 1461.2 1004.46 1468.33 Q1004.46 1475.44 1006.26 1479.01 Q1008.09 1482.55 1011.7 1482.55 Q1015.34 1482.55 1017.14 1479.01 Q1018.97 1475.44 1018.97 1468.33 Q1018.97 1461.2 1017.14 1457.66 Q1015.34 1454.1 1011.7 1454.1 M1011.7 1450.39 Q1017.51 1450.39 1020.57 1455 Q1023.65 1459.58 1023.65 1468.33 Q1023.65 1477.06 1020.57 1481.67 Q1017.51 1486.25 1011.7 1486.25 Q1005.89 1486.25 1002.81 1481.67 Q999.758 1477.06 999.758 1468.33 Q999.758 1459.58 1002.81 1455 Q1005.89 1450.39 1011.7 1450.39 Z" fill="#000000" fill-rule="nonzero" fill-opacity="1" /><path clip-path="url(#clip540)" d="M1031.86 1479.7 L1036.75 1479.7 L1036.75 1485.58 L1031.86 1485.58 L1031.86 1479.7 Z" fill="#000000" fill-rule="nonzero" fill-opacity="1" /><path clip-path="url(#clip540)" d="M1059.78 1455.09 L1047.98 1473.54 L1059.78 1473.54 L1059.78 1455.09 M1058.55 1451.02 L1064.43 1451.02 L1064.43 1473.54 L1069.36 1473.54 L1069.36 1477.43 L1064.43 1477.43 L1064.43 1485.58 L1059.78 1485.58 L1059.78 1477.43 L1044.18 1477.43 L1044.18 1472.92 L1058.55 1451.02 Z" fill="#000000" fill-rule="nonzero" fill-opacity="1" /><path clip-path="url(#clip540)" d="M1451.26 1454.1 Q1447.65 1454.1 1445.82 1457.66 Q1444.02 1461.2 1444.02 1468.33 Q1444.02 1475.44 1445.82 1479.01 Q1447.65 1482.55 1451.26 1482.55 Q1454.9 1482.55 1456.7 1479.01 Q1458.53 1475.44 1458.53 1468.33 Q1458.53 1461.2 1456.7 1457.66 Q1454.9 1454.1 1451.26 1454.1 M1451.26 1450.39 Q1457.07 1450.39 1460.13 1455 Q1463.21 1459.58 1463.21 1468.33 Q1463.21 1477.06 1460.13 1481.67 Q1457.07 1486.25 1451.26 1486.25 Q1445.45 1486.25 1442.37 1481.67 Q1439.32 1477.06 1439.32 1468.33 Q1439.32 1459.58 1442.37 1455 Q1445.45 1450.39 1451.26 1450.39 Z" fill="#000000" fill-rule="nonzero" fill-opacity="1" /><path clip-path="url(#clip540)" d="M1471.42 1479.7 L1476.31 1479.7 L1476.31 1485.58 L1471.42 1485.58 L1471.42 1479.7 Z" fill="#000000" fill-rule="nonzero" fill-opacity="1" /><path clip-path="url(#clip540)" d="M1497.07 1466.44 Q1493.92 1466.44 1492.07 1468.59 Q1490.24 1470.74 1490.24 1474.49 Q1490.24 1478.22 1492.07 1480.39 Q1493.92 1482.55 1497.07 1482.55 Q1500.22 1482.55 1502.05 1480.39 Q1503.9 1478.22 1503.9 1474.49 Q1503.9 1470.74 1502.05 1468.59 Q1500.22 1466.44 1497.07 1466.44 M1506.36 1451.78 L1506.36 1456.04 Q1504.6 1455.21 1502.79 1454.77 Q1501.01 1454.33 1499.25 1454.33 Q1494.62 1454.33 1492.17 1457.45 Q1489.73 1460.58 1489.39 1466.9 Q1490.75 1464.89 1492.81 1463.82 Q1494.87 1462.73 1497.35 1462.73 Q1502.56 1462.73 1505.57 1465.9 Q1508.6 1469.05 1508.6 1474.49 Q1508.6 1479.82 1505.45 1483.03 Q1502.3 1486.25 1497.07 1486.25 Q1491.08 1486.25 1487.91 1481.67 Q1484.73 1477.06 1484.73 1468.33 Q1484.73 1460.14 1488.62 1455.28 Q1492.51 1450.39 1499.06 1450.39 Q1500.82 1450.39 1502.61 1450.74 Q1504.41 1451.09 1506.36 1451.78 Z" fill="#000000" fill-rule="nonzero" fill-opacity="1" /><path clip-path="url(#clip540)" d="M1890.79 1454.1 Q1887.18 1454.1 1885.35 1457.66 Q1883.54 1461.2 1883.54 1468.33 Q1883.54 1475.44 1885.35 1479.01 Q1887.18 1482.55 1890.79 1482.55 Q1894.42 1482.55 1896.23 1479.01 Q1898.06 1475.44 1898.06 1468.33 Q1898.06 1461.2 1896.23 1457.66 Q1894.42 1454.1 1890.79 1454.1 M1890.79 1450.39 Q1896.6 1450.39 1899.65 1455 Q1902.73 1459.58 1902.73 1468.33 Q1902.73 1477.06 1899.65 1481.67 Q1896.6 1486.25 1890.79 1486.25 Q1884.98 1486.25 1881.9 1481.67 Q1878.84 1477.06 1878.84 1468.33 Q1878.84 1459.58 1881.9 1455 Q1884.98 1450.39 1890.79 1450.39 Z" fill="#000000" fill-rule="nonzero" fill-opacity="1" /><path clip-path="url(#clip540)" d="M1910.95 1479.7 L1915.83 1479.7 L1915.83 1485.58 L1910.95 1485.58 L1910.95 1479.7 Z" fill="#000000" fill-rule="nonzero" fill-opacity="1" /><path clip-path="url(#clip540)" d="M1936.02 1469.17 Q1932.69 1469.17 1930.77 1470.95 Q1928.87 1472.73 1928.87 1475.86 Q1928.87 1478.98 1930.77 1480.77 Q1932.69 1482.55 1936.02 1482.55 Q1939.35 1482.55 1941.27 1480.77 Q1943.2 1478.96 1943.2 1475.86 Q1943.2 1472.73 1941.27 1470.95 Q1939.38 1469.17 1936.02 1469.17 M1931.34 1467.18 Q1928.33 1466.44 1926.64 1464.38 Q1924.98 1462.32 1924.98 1459.35 Q1924.98 1455.21 1927.92 1452.8 Q1930.88 1450.39 1936.02 1450.39 Q1941.18 1450.39 1944.12 1452.8 Q1947.06 1455.21 1947.06 1459.35 Q1947.06 1462.32 1945.37 1464.38 Q1943.7 1466.44 1940.72 1467.18 Q1944.1 1467.96 1945.97 1470.26 Q1947.87 1472.55 1947.87 1475.86 Q1947.87 1480.88 1944.79 1483.57 Q1941.74 1486.25 1936.02 1486.25 Q1930.3 1486.25 1927.22 1483.57 Q1924.17 1480.88 1924.17 1475.86 Q1924.17 1472.55 1926.07 1470.26 Q1927.96 1467.96 1931.34 1467.18 M1929.63 1459.79 Q1929.63 1462.48 1931.3 1463.98 Q1932.99 1465.49 1936.02 1465.49 Q1939.03 1465.49 1940.72 1463.98 Q1942.43 1462.48 1942.43 1459.79 Q1942.43 1457.11 1940.72 1455.6 Q1939.03 1454.1 1936.02 1454.1 Q1932.99 1454.1 1931.3 1455.6 Q1929.63 1457.11 1929.63 1459.79 Z" fill="#000000" fill-rule="nonzero" fill-opacity="1" /><path clip-path="url(#clip540)" d="M2319.91 1481.64 L2327.55 1481.64 L2327.55 1455.28 L2319.24 1456.95 L2319.24 1452.69 L2327.5 1451.02 L2332.18 1451.02 L2332.18 1481.64 L2339.82 1481.64 L2339.82 1485.58 L2319.91 1485.58 L2319.91 1481.64 Z" fill="#000000" fill-rule="nonzero" fill-opacity="1" /><path clip-path="url(#clip540)" d="M2349.26 1479.7 L2354.14 1479.7 L2354.14 1485.58 L2349.26 1485.58 L2349.26 1479.7 Z" fill="#000000" fill-rule="nonzero" fill-opacity="1" /><path clip-path="url(#clip540)" d="M2374.33 1454.1 Q2370.72 1454.1 2368.89 1457.66 Q2367.08 1461.2 2367.08 1468.33 Q2367.08 1475.44 2368.89 1479.01 Q2370.72 1482.55 2374.33 1482.55 Q2377.96 1482.55 2379.77 1479.01 Q2381.6 1475.44 2381.6 1468.33 Q2381.6 1461.2 2379.77 1457.66 Q2377.96 1454.1 2374.33 1454.1 M2374.33 1450.39 Q2380.14 1450.39 2383.2 1455 Q2386.27 1459.58 2386.27 1468.33 Q2386.27 1477.06 2383.2 1481.67 Q2380.14 1486.25 2374.33 1486.25 Q2368.52 1486.25 2365.44 1481.67 Q2362.39 1477.06 2362.39 1468.33 Q2362.39 1459.58 2365.44 1455 Q2368.52 1450.39 2374.33 1450.39 Z" fill="#000000" fill-rule="nonzero" fill-opacity="1" /><path clip-path="url(#clip540)" d="M1253.32 1522.27 L1253.32 1532.4 L1265.38 1532.4 L1265.38 1536.95 L1253.32 1536.95 L1253.32 1556.3 Q1253.32 1560.66 1254.5 1561.9 Q1255.71 1563.14 1259.37 1563.14 L1265.38 1563.14 L1265.38 1568.04 L1259.37 1568.04 Q1252.59 1568.04 1250.01 1565.53 Q1247.43 1562.98 1247.43 1556.3 L1247.43 1536.95 L1243.14 1536.95 L1243.14 1532.4 L1247.43 1532.4 L1247.43 1522.27 L1253.32 1522.27 Z" fill="#000000" fill-rule="nonzero" fill-opacity="1" /><polyline clip-path="url(#clip540)" style="stroke:#000000; stroke-linecap:round; stroke-linejoin:round; stroke-width:4; stroke-opacity:1; fill:none" points="155.765,1423.18 155.765,47.2441 "/>
<polyline clip-path="url(#clip540)" style="stroke:#000000; stroke-linecap:round; stroke-linejoin:round; stroke-width:4; stroke-opacity:1; fill:none" points="155.765,1384.24 174.663,1384.24 "/>
<polyline clip-path="url(#clip540)" style="stroke:#000000; stroke-linecap:round; stroke-linejoin:round; stroke-width:4; stroke-opacity:1; fill:none" points="155.765,1132.68 174.663,1132.68 "/>
<polyline clip-path="url(#clip540)" style="stroke:#000000; stroke-linecap:round; stroke-linejoin:round; stroke-width:4; stroke-opacity:1; fill:none" points="155.765,881.113 174.663,881.113 "/>
<polyline clip-path="url(#clip540)" style="stroke:#000000; stroke-linecap:round; stroke-linejoin:round; stroke-width:4; stroke-opacity:1; fill:none" points="155.765,629.55 174.663,629.55 "/>
<polyline clip-path="url(#clip540)" style="stroke:#000000; stroke-linecap:round; stroke-linejoin:round; stroke-width:4; stroke-opacity:1; fill:none" points="155.765,377.987 174.663,377.987 "/>
<polyline clip-path="url(#clip540)" style="stroke:#000000; stroke-linecap:round; stroke-linejoin:round; stroke-width:4; stroke-opacity:1; fill:none" points="155.765,126.424 174.663,126.424 "/>
<path clip-path="url(#clip540)" d="M63.5847 1370.04 Q59.9736 1370.04 58.1449 1373.6 Q56.3393 1377.14 56.3393 1384.27 Q56.3393 1391.38 58.1449 1394.94 Q59.9736 1398.49 63.5847 1398.49 Q67.2189 1398.49 69.0244 1394.94 Q70.8531 1391.38 70.8531 1384.27 Q70.8531 1377.14 69.0244 1373.6 Q67.2189 1370.04 63.5847 1370.04 M63.5847 1366.33 Q69.3948 1366.33 72.4503 1370.94 Q75.529 1375.52 75.529 1384.27 Q75.529 1393 72.4503 1397.61 Q69.3948 1402.19 63.5847 1402.19 Q57.7745 1402.19 54.6958 1397.61 Q51.6403 1393 51.6403 1384.27 Q51.6403 1375.52 54.6958 1370.94 Q57.7745 1366.33 63.5847 1366.33 Z" fill="#000000" fill-rule="nonzero" fill-opacity="1" /><path clip-path="url(#clip540)" d="M83.7466 1395.64 L88.6308 1395.64 L88.6308 1401.52 L83.7466 1401.52 L83.7466 1395.64 Z" fill="#000000" fill-rule="nonzero" fill-opacity="1" /><path clip-path="url(#clip540)" d="M98.8622 1366.96 L117.219 1366.96 L117.219 1370.89 L103.145 1370.89 L103.145 1379.37 Q104.163 1379.02 105.182 1378.86 Q106.2 1378.67 107.219 1378.67 Q113.006 1378.67 116.385 1381.84 Q119.765 1385.01 119.765 1390.43 Q119.765 1396.01 116.293 1399.11 Q112.82 1402.19 106.501 1402.19 Q104.325 1402.19 102.057 1401.82 Q99.8113 1401.45 97.4039 1400.71 L97.4039 1396.01 Q99.4872 1397.14 101.709 1397.7 Q103.932 1398.25 106.408 1398.25 Q110.413 1398.25 112.751 1396.15 Q115.089 1394.04 115.089 1390.43 Q115.089 1386.82 112.751 1384.71 Q110.413 1382.61 106.408 1382.61 Q104.534 1382.61 102.659 1383.02 Q100.807 1383.44 98.8622 1384.32 L98.8622 1366.96 Z" fill="#000000" fill-rule="nonzero" fill-opacity="1" /><path clip-path="url(#clip540)" d="M53.3995 1146.02 L61.0384 1146.02 L61.0384 1119.65 L52.7282 1121.32 L52.7282 1117.06 L60.9921 1115.4 L65.668 1115.4 L65.668 1146.02 L73.3068 1146.02 L73.3068 1149.96 L53.3995 1149.96 L53.3995 1146.02 Z" fill="#000000" fill-rule="nonzero" fill-opacity="1" /><path clip-path="url(#clip540)" d="M82.7512 1144.08 L87.6354 1144.08 L87.6354 1149.96 L82.7512 1149.96 L82.7512 1144.08 Z" fill="#000000" fill-rule="nonzero" fill-opacity="1" /><path clip-path="url(#clip540)" d="M107.821 1118.47 Q104.209 1118.47 102.381 1122.04 Q100.575 1125.58 100.575 1132.71 Q100.575 1139.82 102.381 1143.38 Q104.209 1146.92 107.821 1146.92 Q111.455 1146.92 113.26 1143.38 Q115.089 1139.82 115.089 1132.71 Q115.089 1125.58 113.26 1122.04 Q111.455 1118.47 107.821 1118.47 M107.821 1114.77 Q113.631 1114.77 116.686 1119.38 Q119.765 1123.96 119.765 1132.71 Q119.765 1141.44 116.686 1146.04 Q113.631 1150.63 107.821 1150.63 Q102.01 1150.63 98.9317 1146.04 Q95.8761 1141.44 95.8761 1132.71 Q95.8761 1123.96 98.9317 1119.38 Q102.01 1114.77 107.821 1114.77 Z" fill="#000000" fill-rule="nonzero" fill-opacity="1" /><path clip-path="url(#clip540)" d="M54.3949 894.457 L62.0337 894.457 L62.0337 868.092 L53.7236 869.758 L53.7236 865.499 L61.9874 863.833 L66.6633 863.833 L66.6633 894.457 L74.3022 894.457 L74.3022 898.393 L54.3949 898.393 L54.3949 894.457 Z" fill="#000000" fill-rule="nonzero" fill-opacity="1" /><path clip-path="url(#clip540)" d="M83.7466 892.513 L88.6308 892.513 L88.6308 898.393 L83.7466 898.393 L83.7466 892.513 Z" fill="#000000" fill-rule="nonzero" fill-opacity="1" /><path clip-path="url(#clip540)" d="M98.8622 863.833 L117.219 863.833 L117.219 867.768 L103.145 867.768 L103.145 876.24 Q104.163 875.893 105.182 875.731 Q106.2 875.545 107.219 875.545 Q113.006 875.545 116.385 878.717 Q119.765 881.888 119.765 887.305 Q119.765 892.883 116.293 895.985 Q112.82 899.064 106.501 899.064 Q104.325 899.064 102.057 898.694 Q99.8113 898.323 97.4039 897.582 L97.4039 892.883 Q99.4872 894.018 101.709 894.573 Q103.932 895.129 106.408 895.129 Q110.413 895.129 112.751 893.022 Q115.089 890.916 115.089 887.305 Q115.089 883.694 112.751 881.587 Q110.413 879.481 106.408 879.481 Q104.534 879.481 102.659 879.897 Q100.807 880.314 98.8622 881.194 L98.8622 863.833 Z" fill="#000000" fill-rule="nonzero" fill-opacity="1" /><path clip-path="url(#clip540)" d="M56.6171 642.895 L72.9365 642.895 L72.9365 646.83 L50.9921 646.83 L50.9921 642.895 Q53.6541 640.14 58.2375 635.51 Q62.8439 630.858 64.0245 629.515 Q66.2698 626.992 67.1494 625.256 Q68.0522 623.497 68.0522 621.807 Q68.0522 619.052 66.1078 617.316 Q64.1865 615.58 61.0847 615.58 Q58.8856 615.58 56.4319 616.344 Q54.0014 617.108 51.2236 618.659 L51.2236 613.936 Q54.0477 612.802 56.5014 612.223 Q58.955 611.645 60.9921 611.645 Q66.3624 611.645 69.5568 614.33 Q72.7513 617.015 72.7513 621.506 Q72.7513 623.635 71.9411 625.557 Q71.1541 627.455 69.0476 630.047 Q68.4689 630.719 65.367 633.936 Q62.2652 637.131 56.6171 642.895 Z" fill="#000000" fill-rule="nonzero" fill-opacity="1" /><path clip-path="url(#clip540)" d="M82.7512 640.95 L87.6354 640.95 L87.6354 646.83 L82.7512 646.83 L82.7512 640.95 Z" fill="#000000" fill-rule="nonzero" fill-opacity="1" /><path clip-path="url(#clip540)" d="M107.821 615.348 Q104.209 615.348 102.381 618.913 Q100.575 622.455 100.575 629.584 Q100.575 636.691 102.381 640.256 Q104.209 643.797 107.821 643.797 Q111.455 643.797 113.26 640.256 Q115.089 636.691 115.089 629.584 Q115.089 622.455 113.26 618.913 Q111.455 615.348 107.821 615.348 M107.821 611.645 Q113.631 611.645 116.686 616.251 Q119.765 620.835 119.765 629.584 Q119.765 638.311 116.686 642.918 Q113.631 647.501 107.821 647.501 Q102.01 647.501 98.9317 642.918 Q95.8761 638.311 95.8761 629.584 Q95.8761 620.835 98.9317 616.251 Q102.01 611.645 107.821 611.645 Z" fill="#000000" fill-rule="nonzero" fill-opacity="1" /><path clip-path="url(#clip540)" d="M57.6125 391.332 L73.9318 391.332 L73.9318 395.267 L51.9875 395.267 L51.9875 391.332 Q54.6495 388.577 59.2328 383.948 Q63.8393 379.295 65.0198 377.952 Q67.2652 375.429 68.1448 373.693 Q69.0476 371.934 69.0476 370.244 Q69.0476 367.489 67.1032 365.753 Q65.1819 364.017 62.08 364.017 Q59.881 364.017 57.4273 364.781 Q54.9967 365.545 52.219 367.096 L52.219 362.374 Q55.043 361.239 57.4967 360.661 Q59.9504 360.082 61.9874 360.082 Q67.3578 360.082 70.5522 362.767 Q73.7466 365.452 73.7466 369.943 Q73.7466 372.073 72.9365 373.994 Q72.1494 375.892 70.0429 378.485 Q69.4642 379.156 66.3624 382.373 Q63.2606 385.568 57.6125 391.332 Z" fill="#000000" fill-rule="nonzero" fill-opacity="1" /><path clip-path="url(#clip540)" d="M83.7466 389.387 L88.6308 389.387 L88.6308 395.267 L83.7466 395.267 L83.7466 389.387 Z" fill="#000000" fill-rule="nonzero" fill-opacity="1" /><path clip-path="url(#clip540)" d="M98.8622 360.707 L117.219 360.707 L117.219 364.642 L103.145 364.642 L103.145 373.114 Q104.163 372.767 105.182 372.605 Q106.2 372.42 107.219 372.42 Q113.006 372.42 116.385 375.591 Q119.765 378.762 119.765 384.179 Q119.765 389.758 116.293 392.86 Q112.82 395.938 106.501 395.938 Q104.325 395.938 102.057 395.568 Q99.8113 395.197 97.4039 394.457 L97.4039 389.758 Q99.4872 390.892 101.709 391.448 Q103.932 392.003 106.408 392.003 Q110.413 392.003 112.751 389.897 Q115.089 387.79 115.089 384.179 Q115.089 380.568 112.751 378.461 Q110.413 376.355 106.408 376.355 Q104.534 376.355 102.659 376.772 Q100.807 377.188 98.8622 378.068 L98.8622 360.707 Z" fill="#000000" fill-rule="nonzero" fill-opacity="1" /><path clip-path="url(#clip540)" d="M66.7559 125.07 Q70.1124 125.788 71.9874 128.056 Q73.8855 130.325 73.8855 133.658 Q73.8855 138.774 70.367 141.574 Q66.8485 144.375 60.3671 144.375 Q58.1912 144.375 55.8764 143.936 Q53.5847 143.519 51.131 142.662 L51.131 138.149 Q53.0754 139.283 55.3903 139.862 Q57.7051 140.44 60.2282 140.44 Q64.6263 140.44 66.918 138.704 Q69.2328 136.968 69.2328 133.658 Q69.2328 130.602 67.08 128.889 Q64.9504 127.153 61.131 127.153 L57.1032 127.153 L57.1032 123.311 L61.3161 123.311 Q64.7652 123.311 66.5939 121.945 Q68.4226 120.556 68.4226 117.963 Q68.4226 115.301 66.5245 113.889 Q64.6495 112.454 61.131 112.454 Q59.2097 112.454 57.0106 112.871 Q54.8115 113.288 52.1727 114.167 L52.1727 110.001 Q54.8347 109.26 57.1495 108.889 Q59.4875 108.519 61.5476 108.519 Q66.8717 108.519 69.9735 110.95 Q73.0753 113.357 73.0753 117.477 Q73.0753 120.348 71.4318 122.338 Q69.7883 124.306 66.7559 125.07 Z" fill="#000000" fill-rule="nonzero" fill-opacity="1" /><path clip-path="url(#clip540)" d="M82.7512 137.824 L87.6354 137.824 L87.6354 143.704 L82.7512 143.704 L82.7512 137.824 Z" fill="#000000" fill-rule="nonzero" fill-opacity="1" /><path clip-path="url(#clip540)" d="M107.821 112.223 Q104.209 112.223 102.381 115.788 Q100.575 119.329 100.575 126.459 Q100.575 133.565 102.381 137.13 Q104.209 140.672 107.821 140.672 Q111.455 140.672 113.26 137.13 Q115.089 133.565 115.089 126.459 Q115.089 119.329 113.26 115.788 Q111.455 112.223 107.821 112.223 M107.821 108.519 Q113.631 108.519 116.686 113.126 Q119.765 117.709 119.765 126.459 Q119.765 135.186 116.686 139.792 Q113.631 144.375 107.821 144.375 Q102.01 144.375 98.9317 139.792 Q95.8761 135.186 95.8761 126.459 Q95.8761 117.709 98.9317 113.126 Q102.01 108.519 107.821 108.519 Z" fill="#000000" fill-rule="nonzero" fill-opacity="1" /><polyline clip-path="url(#clip542)" style="stroke:#009af9; stroke-linecap:round; stroke-linejoin:round; stroke-width:4; stroke-opacity:1; fill:none" points="155.765,1384.24 293.077,1324.49 430.389,1282.19 567.701,1328.36 705.013,1319.04 842.325,1263.64 979.637,1133.33 1116.95,1104.95 1254.26,960.343 1391.57,887.477 1528.88,963.202 1666.2,918.104 1803.51,781.746 1940.82,889.369 2078.13,866.338 2215.44,530.875 2352.76,86.1857 "/>
<path clip-path="url(#clip540)" d="M228.998 196.789 L537.794 196.789 L537.794 93.1086 L228.998 93.1086  Z" fill="#ffffff" fill-rule="evenodd" fill-opacity="1"/>
<polyline clip-path="url(#clip540)" style="stroke:#000000; stroke-linecap:round; stroke-linejoin:round; stroke-width:4; stroke-opacity:1; fill:none" points="228.998,196.789 537.794,196.789 537.794,93.1086 228.998,93.1086 228.998,196.789 "/>
<polyline clip-path="url(#clip540)" style="stroke:#009af9; stroke-linecap:round; stroke-linejoin:round; stroke-width:4; stroke-opacity:1; fill:none" points="253.409,144.949 399.875,144.949 "/>
<path clip-path="url(#clip540)" d="M424.286 151.997 L424.286 136.303 L428.545 136.303 L428.545 151.835 Q428.545 155.516 429.98 157.368 Q431.416 159.196 434.286 159.196 Q437.735 159.196 439.726 156.997 Q441.74 154.798 441.74 151.002 L441.74 136.303 L445.999 136.303 L445.999 162.229 L441.74 162.229 L441.74 158.247 Q440.189 160.608 438.129 161.766 Q436.092 162.9 433.383 162.9 Q428.916 162.9 426.601 160.122 Q424.286 157.344 424.286 151.997 M435.004 135.678 L435.004 135.678 Z" fill="#000000" fill-rule="nonzero" fill-opacity="1" /><path clip-path="url(#clip540)" d="M454.378 126.21 L464.193 126.21 L464.193 129.52 L458.638 129.52 L458.638 165.168 L464.193 165.168 L464.193 168.479 L454.378 168.479 L454.378 126.21 Z" fill="#000000" fill-rule="nonzero" fill-opacity="1" /><path clip-path="url(#clip540)" d="M474.679 158.293 L482.318 158.293 L482.318 131.928 L474.008 133.595 L474.008 129.335 L482.272 127.669 L486.948 127.669 L486.948 158.293 L494.587 158.293 L494.587 162.229 L474.679 162.229 L474.679 158.293 Z" fill="#000000" fill-rule="nonzero" fill-opacity="1" /><path clip-path="url(#clip540)" d="M513.383 126.21 L513.383 168.479 L503.568 168.479 L503.568 165.168 L509.1 165.168 L509.1 129.52 L503.568 129.52 L503.568 126.21 L513.383 126.21 Z" fill="#000000" fill-rule="nonzero" fill-opacity="1" /></svg>
