<?xml version="1.0" encoding="utf-8"?>
<svg xmlns="http://www.w3.org/2000/svg" xmlns:xlink="http://www.w3.org/1999/xlink" width="600" height="400" viewBox="0 0 2400 1600">
<defs>
  <clipPath id="clip600">
    <rect x="0" y="0" width="2400" height="1600"/>
  </clipPath>
</defs>
<path clip-path="url(#clip600)" d="M0 1600 L2400 1600 L2400 0 L0 0  Z" fill="#ffffff" fill-rule="evenodd" fill-opacity="1"/>
<defs>
  <clipPath id="clip601">
    <rect x="480" y="0" width="1681" height="1600"/>
  </clipPath>
</defs>
<path clip-path="url(#clip600)" d="M156.274 1423.18 L2352.76 1423.18 L2352.76 47.2441 L156.274 47.2441  Z" fill="#ffffff" fill-rule="evenodd" fill-opacity="1"/>
<defs>
  <clipPath id="clip602">
    <rect x="156" y="47" width="2197" height="1377"/>
  </clipPath>
</defs>
<polyline clip-path="url(#clip602)" style="stroke:#000000; stroke-linecap:round; stroke-linejoin:round; stroke-width:2; stroke-opacity:0.1; fill:none" points="156.274,1423.18 156.274,47.2441 "/>
<polyline clip-path="url(#clip602)" style="stroke:#000000; stroke-linecap:round; stroke-linejoin:round; stroke-width:2; stroke-opacity:0.1; fill:none" points="595.571,1423.18 595.571,47.2441 "/>
<polyline clip-path="url(#clip602)" style="stroke:#000000; stroke-linecap:round; stroke-linejoin:round; stroke-width:2; stroke-opacity:0.1; fill:none" points="1034.87,1423.18 1034.87,47.2441 "/>
<polyline clip-path="url(#clip602)" style="stroke:#000000; stroke-linecap:round; stroke-linejoin:round; stroke-width:2; stroke-opacity:0.1; fill:none" points="1474.16,1423.18 1474.16,47.2441 "/>
<polyline clip-path="url(#clip602)" style="stroke:#000000; stroke-linecap:round; stroke-linejoin:round; stroke-width:2; stroke-opacity:0.1; fill:none" points="1913.46,1423.18 1913.46,47.2441 "/>
<polyline clip-path="url(#clip602)" style="stroke:#000000; stroke-linecap:round; stroke-linejoin:round; stroke-width:2; stroke-opacity:0.1; fill:none" points="2352.76,1423.18 2352.76,47.2441 "/>
<polyline clip-path="url(#clip602)" style="stroke:#000000; stroke-linecap:round; stroke-linejoin:round; stroke-width:2; stroke-opacity:0.1; fill:none" points="156.274,1199.05 2352.76,1199.05 "/>
<polyline clip-path="url(#clip602)" style="stroke:#000000; stroke-linecap:round; stroke-linejoin:round; stroke-width:2; stroke-opacity:0.1; fill:none" points="156.274,828.683 2352.76,828.683 "/>
<polyline clip-path="url(#clip602)" style="stroke:#000000; stroke-linecap:round; stroke-linejoin:round; stroke-width:2; stroke-opacity:0.1; fill:none" points="156.274,458.313 2352.76,458.313 "/>
<polyline clip-path="url(#clip602)" style="stroke:#000000; stroke-linecap:round; stroke-linejoin:round; stroke-width:2; stroke-opacity:0.1; fill:none" points="156.274,87.9435 2352.76,87.9435 "/>
<polyline clip-path="url(#clip600)" style="stroke:#000000; stroke-linecap:round; stroke-linejoin:round; stroke-width:4; stroke-opacity:1; fill:none" points="156.274,1423.18 2352.76,1423.18 "/>
<polyline clip-path="url(#clip600)" style="stroke:#000000; stroke-linecap:round; stroke-linejoin:round; stroke-width:4; stroke-opacity:1; fill:none" points="156.274,1423.18 156.274,1404.28 "/>
<polyline clip-path="url(#clip600)" style="stroke:#000000; stroke-linecap:round; stroke-linejoin:round; stroke-width:4; stroke-opacity:1; fill:none" points="595.571,1423.18 595.571,1404.28 "/>
<polyline clip-path="url(#clip600)" style="stroke:#000000; stroke-linecap:round; stroke-linejoin:round; stroke-width:4; stroke-opacity:1; fill:none" points="1034.87,1423.18 1034.87,1404.28 "/>
<polyline clip-path="url(#clip600)" style="stroke:#000000; stroke-linecap:round; stroke-linejoin:round; stroke-width:4; stroke-opacity:1; fill:none" points="1474.16,1423.18 1474.16,1404.28 "/>
<polyline clip-path="url(#clip600)" style="stroke:#000000; stroke-linecap:round; stroke-linejoin:round; stroke-width:4; stroke-opacity:1; fill:none" points="1913.46,1423.18 1913.46,1404.28 "/>
<polyline clip-path="url(#clip600)" style="stroke:#000000; stroke-linecap:round; stroke-linejoin:round; stroke-width:4; stroke-opacity:1; fill:none" points="2352.76,1423.18 2352.76,1404.28 "/>
<path clip-path="url(#clip600)" d="M133.659 1454.1 Q130.047 1454.1 128.219 1457.66 Q126.413 1461.2 126.413 1468.33 Q126.413 1475.44 128.219 1479.01 Q130.047 1482.55 133.659 1482.55 Q137.293 1482.55 139.098 1479.01 Q140.927 1475.44 140.927 1468.33 Q140.927 1461.2 139.098 1457.66 Q137.293 1454.1 133.659 1454.1 M133.659 1450.39 Q139.469 1450.39 142.524 1455 Q145.603 1459.58 145.603 1468.33 Q145.603 1477.06 142.524 1481.67 Q139.469 1486.25 133.659 1486.25 Q127.848 1486.25 124.77 1481.67 Q121.714 1477.06 121.714 1468.33 Q121.714 1459.58 124.77 1455 Q127.848 1450.39 133.659 1450.39 Z" fill="#000000" fill-rule="nonzero" fill-opacity="1" /><path clip-path="url(#clip600)" d="M153.82 1479.7 L158.705 1479.7 L158.705 1485.58 L153.82 1485.58 L153.82 1479.7 Z" fill="#000000" fill-rule="nonzero" fill-opacity="1" /><path clip-path="url(#clip600)" d="M178.89 1454.1 Q175.279 1454.1 173.45 1457.66 Q171.644 1461.2 171.644 1468.33 Q171.644 1475.44 173.45 1479.01 Q175.279 1482.55 178.89 1482.55 Q182.524 1482.55 184.33 1479.01 Q186.158 1475.44 186.158 1468.33 Q186.158 1461.2 184.33 1457.66 Q182.524 1454.1 178.89 1454.1 M178.89 1450.39 Q184.7 1450.39 187.755 1455 Q190.834 1459.58 190.834 1468.33 Q190.834 1477.06 187.755 1481.67 Q184.7 1486.25 178.89 1486.25 Q173.08 1486.25 170.001 1481.67 Q166.945 1477.06 166.945 1468.33 Q166.945 1459.58 170.001 1455 Q173.08 1450.39 178.89 1450.39 Z" fill="#000000" fill-rule="nonzero" fill-opacity="1" /><path clip-path="url(#clip600)" d="M573.753 1454.1 Q570.142 1454.1 568.314 1457.66 Q566.508 1461.2 566.508 1468.33 Q566.508 1475.44 568.314 1479.01 Q570.142 1482.55 573.753 1482.55 Q577.388 1482.55 579.193 1479.01 Q581.022 1475.44 581.022 1468.33 Q581.022 1461.2 579.193 1457.66 Q577.388 1454.1 573.753 1454.1 M573.753 1450.39 Q579.564 1450.39 582.619 1455 Q585.698 1459.58 585.698 1468.33 Q585.698 1477.06 582.619 1481.67 Q579.564 1486.25 573.753 1486.25 Q567.943 1486.25 564.865 1481.67 Q561.809 1477.06 561.809 1468.33 Q561.809 1459.58 564.865 1455 Q567.943 1450.39 573.753 1450.39 Z" fill="#000000" fill-rule="nonzero" fill-opacity="1" /><path clip-path="url(#clip600)" d="M593.915 1479.7 L598.8 1479.7 L598.8 1485.58 L593.915 1485.58 L593.915 1479.7 Z" fill="#000000" fill-rule="nonzero" fill-opacity="1" /><path clip-path="url(#clip600)" d="M613.013 1481.64 L629.332 1481.64 L629.332 1485.58 L607.388 1485.58 L607.388 1481.64 Q610.05 1478.89 614.633 1474.26 Q619.239 1469.61 620.42 1468.27 Q622.665 1465.74 623.545 1464.01 Q624.448 1462.25 624.448 1460.56 Q624.448 1457.8 622.503 1456.07 Q620.582 1454.33 617.48 1454.33 Q615.281 1454.33 612.827 1455.09 Q610.397 1455.86 607.619 1457.41 L607.619 1452.69 Q610.443 1451.55 612.897 1450.97 Q615.35 1450.39 617.388 1450.39 Q622.758 1450.39 625.952 1453.08 Q629.147 1455.77 629.147 1460.26 Q629.147 1462.39 628.337 1464.31 Q627.55 1466.2 625.443 1468.8 Q624.864 1469.47 621.763 1472.69 Q618.661 1475.88 613.013 1481.64 Z" fill="#000000" fill-rule="nonzero" fill-opacity="1" /><path clip-path="url(#clip600)" d="M1012.01 1454.1 Q1008.4 1454.1 1006.57 1457.66 Q1004.76 1461.2 1004.76 1468.33 Q1004.76 1475.44 1006.57 1479.01 Q1008.4 1482.55 1012.01 1482.55 Q1015.64 1482.55 1017.45 1479.01 Q1019.28 1475.44 1019.28 1468.33 Q1019.28 1461.2 1017.45 1457.66 Q1015.64 1454.1 1012.01 1454.1 M1012.01 1450.39 Q1017.82 1450.39 1020.87 1455 Q1023.95 1459.58 1023.95 1468.33 Q1023.95 1477.06 1020.87 1481.67 Q1017.82 1486.25 1012.01 1486.25 Q1006.2 1486.25 1003.12 1481.67 Q1000.06 1477.06 1000.06 1468.33 Q1000.06 1459.58 1003.12 1455 Q1006.2 1450.39 1012.01 1450.39 Z" fill="#000000" fill-rule="nonzero" fill-opacity="1" /><path clip-path="url(#clip600)" d="M1032.17 1479.7 L1037.05 1479.7 L1037.05 1485.58 L1032.17 1485.58 L1032.17 1479.7 Z" fill="#000000" fill-rule="nonzero" fill-opacity="1" /><path clip-path="url(#clip600)" d="M1060.09 1455.09 L1048.28 1473.54 L1060.09 1473.54 L1060.09 1455.09 M1058.86 1451.02 L1064.74 1451.02 L1064.74 1473.54 L1069.67 1473.54 L1069.67 1477.43 L1064.74 1477.43 L1064.74 1485.58 L1060.09 1485.58 L1060.09 1477.43 L1044.48 1477.43 L1044.48 1472.92 L1058.86 1451.02 Z" fill="#000000" fill-rule="nonzero" fill-opacity="1" /><path clip-path="url(#clip600)" d="M1451.47 1454.1 Q1447.86 1454.1 1446.03 1457.66 Q1444.22 1461.2 1444.22 1468.33 Q1444.22 1475.44 1446.03 1479.01 Q1447.86 1482.55 1451.47 1482.55 Q1455.1 1482.55 1456.91 1479.01 Q1458.74 1475.44 1458.74 1468.33 Q1458.74 1461.2 1456.91 1457.66 Q1455.1 1454.1 1451.47 1454.1 M1451.47 1450.39 Q1457.28 1450.39 1460.33 1455 Q1463.41 1459.58 1463.41 1468.33 Q1463.41 1477.06 1460.33 1481.67 Q1457.28 1486.25 1451.47 1486.25 Q1445.66 1486.25 1442.58 1481.67 Q1439.52 1477.06 1439.52 1468.33 Q1439.52 1459.58 1442.58 1455 Q1445.66 1450.39 1451.47 1450.39 Z" fill="#000000" fill-rule="nonzero" fill-opacity="1" /><path clip-path="url(#clip600)" d="M1471.63 1479.7 L1476.51 1479.7 L1476.51 1485.58 L1471.63 1485.58 L1471.63 1479.7 Z" fill="#000000" fill-rule="nonzero" fill-opacity="1" /><path clip-path="url(#clip600)" d="M1497.28 1466.44 Q1494.13 1466.44 1492.28 1468.59 Q1490.45 1470.74 1490.45 1474.49 Q1490.45 1478.22 1492.28 1480.39 Q1494.13 1482.55 1497.28 1482.55 Q1500.42 1482.55 1502.25 1480.39 Q1504.11 1478.22 1504.11 1474.49 Q1504.11 1470.74 1502.25 1468.59 Q1500.42 1466.44 1497.28 1466.44 M1506.56 1451.78 L1506.56 1456.04 Q1504.8 1455.21 1502.99 1454.77 Q1501.21 1454.33 1499.45 1454.33 Q1494.82 1454.33 1492.37 1457.45 Q1489.94 1460.58 1489.59 1466.9 Q1490.96 1464.89 1493.02 1463.82 Q1495.08 1462.73 1497.55 1462.73 Q1502.76 1462.73 1505.77 1465.9 Q1508.8 1469.05 1508.8 1474.49 Q1508.8 1479.82 1505.66 1483.03 Q1502.51 1486.25 1497.28 1486.25 Q1491.28 1486.25 1488.11 1481.67 Q1484.94 1477.06 1484.94 1468.33 Q1484.94 1460.14 1488.83 1455.28 Q1492.72 1450.39 1499.27 1450.39 Q1501.03 1450.39 1502.81 1450.74 Q1504.61 1451.09 1506.56 1451.78 Z" fill="#000000" fill-rule="nonzero" fill-opacity="1" /><path clip-path="url(#clip600)" d="M1890.89 1454.1 Q1887.28 1454.1 1885.45 1457.66 Q1883.64 1461.2 1883.64 1468.33 Q1883.64 1475.44 1885.45 1479.01 Q1887.28 1482.55 1890.89 1482.55 Q1894.52 1482.55 1896.33 1479.01 Q1898.16 1475.44 1898.16 1468.33 Q1898.16 1461.2 1896.33 1457.66 Q1894.52 1454.1 1890.89 1454.1 M1890.89 1450.39 Q1896.7 1450.39 1899.76 1455 Q1902.83 1459.58 1902.83 1468.33 Q1902.83 1477.06 1899.76 1481.67 Q1896.7 1486.25 1890.89 1486.25 Q1885.08 1486.25 1882 1481.67 Q1878.95 1477.06 1878.95 1468.33 Q1878.95 1459.58 1882 1455 Q1885.08 1450.39 1890.89 1450.39 Z" fill="#000000" fill-rule="nonzero" fill-opacity="1" /><path clip-path="url(#clip600)" d="M1911.05 1479.7 L1915.94 1479.7 L1915.94 1485.58 L1911.05 1485.58 L1911.05 1479.7 Z" fill="#000000" fill-rule="nonzero" fill-opacity="1" /><path clip-path="url(#clip600)" d="M1936.12 1469.17 Q1932.79 1469.17 1930.87 1470.95 Q1928.97 1472.73 1928.97 1475.86 Q1928.97 1478.98 1930.87 1480.77 Q1932.79 1482.55 1936.12 1482.55 Q1939.45 1482.55 1941.38 1480.77 Q1943.3 1478.96 1943.3 1475.86 Q1943.3 1472.73 1941.38 1470.95 Q1939.48 1469.17 1936.12 1469.17 M1931.45 1467.18 Q1928.44 1466.44 1926.75 1464.38 Q1925.08 1462.32 1925.08 1459.35 Q1925.08 1455.21 1928.02 1452.8 Q1930.98 1450.39 1936.12 1450.39 Q1941.28 1450.39 1944.22 1452.8 Q1947.16 1455.21 1947.16 1459.35 Q1947.16 1462.32 1945.47 1464.38 Q1943.81 1466.44 1940.82 1467.18 Q1944.2 1467.96 1946.08 1470.26 Q1947.97 1472.55 1947.97 1475.86 Q1947.97 1480.88 1944.89 1483.57 Q1941.84 1486.25 1936.12 1486.25 Q1930.4 1486.25 1927.33 1483.57 Q1924.27 1480.88 1924.27 1475.86 Q1924.27 1472.55 1926.17 1470.26 Q1928.07 1467.96 1931.45 1467.18 M1929.73 1459.79 Q1929.73 1462.48 1931.4 1463.98 Q1933.09 1465.49 1936.12 1465.49 Q1939.13 1465.49 1940.82 1463.98 Q1942.53 1462.48 1942.53 1459.79 Q1942.53 1457.11 1940.82 1455.6 Q1939.13 1454.1 1936.12 1454.1 Q1933.09 1454.1 1931.4 1455.6 Q1929.73 1457.11 1929.73 1459.79 Z" fill="#000000" fill-rule="nonzero" fill-opacity="1" /><path clip-path="url(#clip600)" d="M2319.91 1481.64 L2327.55 1481.64 L2327.55 1455.28 L2319.24 1456.95 L2319.24 1452.69 L2327.5 1451.02 L2332.18 1451.02 L2332.18 1481.64 L2339.82 1481.64 L2339.82 1485.58 L2319.91 1485.58 L2319.91 1481.64 Z" fill="#000000" fill-rule="nonzero" fill-opacity="1" /><path clip-path="url(#clip600)" d="M2349.26 1479.7 L2354.14 1479.7 L2354.14 1485.58 L2349.26 1485.58 L2349.26 1479.7 Z" fill="#000000" fill-rule="nonzero" fill-opacity="1" /><path clip-path="url(#clip600)" d="M2374.33 1454.1 Q2370.72 1454.1 2368.89 1457.66 Q2367.08 1461.2 2367.08 1468.33 Q2367.08 1475.44 2368.89 1479.01 Q2370.72 1482.55 2374.33 1482.55 Q2377.96 1482.55 2379.77 1479.01 Q2381.6 1475.44 2381.6 1468.33 Q2381.6 1461.2 2379.77 1457.66 Q2377.96 1454.1 2374.33 1454.1 M2374.33 1450.39 Q2380.14 1450.39 2383.2 1455 Q2386.27 1459.58 2386.27 1468.33 Q2386.27 1477.06 2383.2 1481.67 Q2380.14 1486.25 2374.33 1486.25 Q2368.52 1486.25 2365.44 1481.67 Q2362.39 1477.06 2362.39 1468.33 Q2362.39 1459.58 2365.44 1455 Q2368.52 1450.39 2374.33 1450.39 Z" fill="#000000" fill-rule="nonzero" fill-opacity="1" /><path clip-path="url(#clip600)" d="M1253.58 1522.27 L1253.58 1532.4 L1265.64 1532.4 L1265.64 1536.95 L1253.58 1536.95 L1253.58 1556.3 Q1253.58 1560.66 1254.75 1561.9 Q1255.96 1563.14 1259.62 1563.14 L1265.64 1563.14 L1265.64 1568.04 L1259.62 1568.04 Q1252.84 1568.04 1250.27 1565.53 Q1247.69 1562.98 1247.69 1556.3 L1247.69 1536.95 L1243.39 1536.95 L1243.39 1532.4 L1247.69 1532.4 L1247.69 1522.27 L1253.58 1522.27 Z" fill="#000000" fill-rule="nonzero" fill-opacity="1" /><polyline clip-path="url(#clip600)" style="stroke:#000000; stroke-linecap:round; stroke-linejoin:round; stroke-width:4; stroke-opacity:1; fill:none" points="156.274,1423.18 156.274,47.2441 "/>
<polyline clip-path="url(#clip600)" style="stroke:#000000; stroke-linecap:round; stroke-linejoin:round; stroke-width:4; stroke-opacity:1; fill:none" points="156.274,1199.05 175.172,1199.05 "/>
<polyline clip-path="url(#clip600)" style="stroke:#000000; stroke-linecap:round; stroke-linejoin:round; stroke-width:4; stroke-opacity:1; fill:none" points="156.274,828.683 175.172,828.683 "/>
<polyline clip-path="url(#clip600)" style="stroke:#000000; stroke-linecap:round; stroke-linejoin:round; stroke-width:4; stroke-opacity:1; fill:none" points="156.274,458.313 175.172,458.313 "/>
<polyline clip-path="url(#clip600)" style="stroke:#000000; stroke-linecap:round; stroke-linejoin:round; stroke-width:4; stroke-opacity:1; fill:none" points="156.274,87.9435 175.172,87.9435 "/>
<path clip-path="url(#clip600)" d="M62.9365 1184.85 Q59.3254 1184.85 57.4967 1188.42 Q55.6912 1191.96 55.6912 1199.09 Q55.6912 1206.19 57.4967 1209.76 Q59.3254 1213.3 62.9365 1213.3 Q66.5707 1213.3 68.3763 1209.76 Q70.205 1206.19 70.205 1199.09 Q70.205 1191.96 68.3763 1188.42 Q66.5707 1184.85 62.9365 1184.85 M62.9365 1181.15 Q68.7467 1181.15 71.8022 1185.75 Q74.8809 1190.34 74.8809 1199.09 Q74.8809 1207.81 71.8022 1212.42 Q68.7467 1217 62.9365 1217 Q57.1264 1217 54.0477 1212.42 Q50.9921 1207.81 50.9921 1199.09 Q50.9921 1190.34 54.0477 1185.75 Q57.1264 1181.15 62.9365 1181.15 Z" fill="#000000" fill-rule="nonzero" fill-opacity="1" /><path clip-path="url(#clip600)" d="M83.0984 1210.45 L87.9827 1210.45 L87.9827 1216.33 L83.0984 1216.33 L83.0984 1210.45 Z" fill="#000000" fill-rule="nonzero" fill-opacity="1" /><path clip-path="url(#clip600)" d="M108.746 1197.19 Q105.598 1197.19 103.746 1199.34 Q101.918 1201.5 101.918 1205.25 Q101.918 1208.97 103.746 1211.15 Q105.598 1213.3 108.746 1213.3 Q111.895 1213.3 113.723 1211.15 Q115.575 1208.97 115.575 1205.25 Q115.575 1201.5 113.723 1199.34 Q111.895 1197.19 108.746 1197.19 M118.029 1182.54 L118.029 1186.8 Q116.27 1185.96 114.464 1185.52 Q112.682 1185.08 110.922 1185.08 Q106.293 1185.08 103.839 1188.21 Q101.409 1191.33 101.061 1197.65 Q102.427 1195.64 104.487 1194.57 Q106.547 1193.49 109.024 1193.49 Q114.233 1193.49 117.242 1196.66 Q120.274 1199.81 120.274 1205.25 Q120.274 1210.57 117.126 1213.79 Q113.978 1217 108.746 1217 Q102.751 1217 99.5798 1212.42 Q96.4085 1207.81 96.4085 1199.09 Q96.4085 1190.89 100.297 1186.03 Q104.186 1181.15 110.737 1181.15 Q112.496 1181.15 114.279 1181.5 Q116.084 1181.84 118.029 1182.54 Z" fill="#000000" fill-rule="nonzero" fill-opacity="1" /><path clip-path="url(#clip600)" d="M63.1911 814.482 Q59.58 814.482 57.7513 818.047 Q55.9458 821.588 55.9458 828.718 Q55.9458 835.825 57.7513 839.389 Q59.58 842.931 63.1911 842.931 Q66.8254 842.931 68.6309 839.389 Q70.4596 835.825 70.4596 828.718 Q70.4596 821.588 68.6309 818.047 Q66.8254 814.482 63.1911 814.482 M63.1911 810.778 Q69.0013 810.778 72.0568 815.385 Q75.1355 819.968 75.1355 828.718 Q75.1355 837.445 72.0568 842.051 Q69.0013 846.635 63.1911 846.635 Q57.381 846.635 54.3023 842.051 Q51.2468 837.445 51.2468 828.718 Q51.2468 819.968 54.3023 815.385 Q57.381 810.778 63.1911 810.778 Z" fill="#000000" fill-rule="nonzero" fill-opacity="1" /><path clip-path="url(#clip600)" d="M83.3531 840.084 L88.2373 840.084 L88.2373 845.963 L83.3531 845.963 L83.3531 840.084 Z" fill="#000000" fill-rule="nonzero" fill-opacity="1" /><path clip-path="url(#clip600)" d="M108.422 829.551 Q105.089 829.551 103.168 831.334 Q101.27 833.116 101.27 836.241 Q101.27 839.366 103.168 841.149 Q105.089 842.931 108.422 842.931 Q111.756 842.931 113.677 841.149 Q115.598 839.343 115.598 836.241 Q115.598 833.116 113.677 831.334 Q111.779 829.551 108.422 829.551 M103.746 827.561 Q100.737 826.82 99.0474 824.76 Q97.3808 822.7 97.3808 819.737 Q97.3808 815.593 100.321 813.186 Q103.284 810.778 108.422 810.778 Q113.584 810.778 116.524 813.186 Q119.464 815.593 119.464 819.737 Q119.464 822.7 117.774 824.76 Q116.108 826.82 113.121 827.561 Q116.501 828.348 118.376 830.639 Q120.274 832.931 120.274 836.241 Q120.274 841.264 117.195 843.949 Q114.14 846.635 108.422 846.635 Q102.705 846.635 99.6261 843.949 Q96.5706 841.264 96.5706 836.241 Q96.5706 832.931 98.4687 830.639 Q100.367 828.348 103.746 827.561 M102.034 820.176 Q102.034 822.862 103.7 824.366 Q105.39 825.871 108.422 825.871 Q111.432 825.871 113.121 824.366 Q114.834 822.862 114.834 820.176 Q114.834 817.491 113.121 815.987 Q111.432 814.482 108.422 814.482 Q105.39 814.482 103.7 815.987 Q102.034 817.491 102.034 820.176 Z" fill="#000000" fill-rule="nonzero" fill-opacity="1" /><path clip-path="url(#clip600)" d="M53.9088 471.658 L61.5476 471.658 L61.5476 445.293 L53.2375 446.959 L53.2375 442.7 L61.5013 441.033 L66.1772 441.033 L66.1772 471.658 L73.8161 471.658 L73.8161 475.593 L53.9088 475.593 L53.9088 471.658 Z" fill="#000000" fill-rule="nonzero" fill-opacity="1" /><path clip-path="url(#clip600)" d="M83.2605 469.714 L88.1447 469.714 L88.1447 475.593 L83.2605 475.593 L83.2605 469.714 Z" fill="#000000" fill-rule="nonzero" fill-opacity="1" /><path clip-path="url(#clip600)" d="M108.33 444.112 Q104.719 444.112 102.89 447.677 Q101.084 451.219 101.084 458.348 Q101.084 465.455 102.89 469.019 Q104.719 472.561 108.33 472.561 Q111.964 472.561 113.77 469.019 Q115.598 465.455 115.598 458.348 Q115.598 451.219 113.77 447.677 Q111.964 444.112 108.33 444.112 M108.33 440.408 Q114.14 440.408 117.195 445.015 Q120.274 449.598 120.274 458.348 Q120.274 467.075 117.195 471.681 Q114.14 476.265 108.33 476.265 Q102.52 476.265 99.4409 471.681 Q96.3854 467.075 96.3854 458.348 Q96.3854 449.598 99.4409 445.015 Q102.52 440.408 108.33 440.408 Z" fill="#000000" fill-rule="nonzero" fill-opacity="1" /><path clip-path="url(#clip600)" d="M55.506 101.288 L63.1448 101.288 L63.1448 74.9227 L54.8347 76.5894 L54.8347 72.3301 L63.0985 70.6635 L67.7744 70.6635 L67.7744 101.288 L75.4133 101.288 L75.4133 105.223 L55.506 105.223 L55.506 101.288 Z" fill="#000000" fill-rule="nonzero" fill-opacity="1" /><path clip-path="url(#clip600)" d="M84.8577 99.3439 L89.7419 99.3439 L89.7419 105.223 L84.8577 105.223 L84.8577 99.3439 Z" fill="#000000" fill-rule="nonzero" fill-opacity="1" /><path clip-path="url(#clip600)" d="M103.955 101.288 L120.274 101.288 L120.274 105.223 L98.3298 105.223 L98.3298 101.288 Q100.992 98.5337 105.575 93.9041 Q110.182 89.2513 111.362 87.9088 Q113.608 85.3856 114.487 83.6495 Q115.39 81.8903 115.39 80.2005 Q115.39 77.4458 113.445 75.7097 Q111.524 73.9736 108.422 73.9736 Q106.223 73.9736 103.77 74.7375 Q101.339 75.5014 98.5613 77.0523 L98.5613 72.3301 Q101.385 71.1959 103.839 70.6172 Q106.293 70.0385 108.33 70.0385 Q113.7 70.0385 116.895 72.7236 Q120.089 75.4088 120.089 79.8995 Q120.089 82.0292 119.279 83.9504 Q118.492 85.8486 116.385 88.4412 Q115.807 89.1125 112.705 92.33 Q109.603 95.5245 103.955 101.288 Z" fill="#000000" fill-rule="nonzero" fill-opacity="1" /><polyline clip-path="url(#clip602)" style="stroke:#009af9; stroke-linecap:round; stroke-linejoin:round; stroke-width:4; stroke-opacity:1; fill:none" points="156.274,1384.24 293.554,1317.12 430.834,1106.17 568.114,962.991 705.395,945.255 842.675,855.006 979.955,691.983 1117.23,869.766 1254.52,1170.99 1391.8,1049.73 1529.08,683.507 1666.36,828.942 1803.64,660.503 1940.92,472.691 2078.2,86.1857 2215.48,173.398 2352.76,729.096 "/>
<polyline clip-path="url(#clip602)" style="stroke:#e26f46; stroke-linecap:round; stroke-linejoin:round; stroke-width:4; stroke-opacity:1; fill:none" points="156.274,1384.24 293.554,1318.1 430.834,1106.9 568.114,964.481 705.395,948.993 842.675,860.516 979.955,699.019 1117.23,879.997 1254.52,1181.88 1391.8,1062.55 1529.08,698.516 1666.36,846.48 1803.64,680.926 1940.92,496.428 2078.2,114.144 2215.48,204.889 2352.76,754.248 "/>
<path clip-path="url(#clip600)" d="M229.49 248.629 L658.165 248.629 L658.165 93.1086 L229.49 93.1086  Z" fill="#ffffff" fill-rule="evenodd" fill-opacity="1"/>
<polyline clip-path="url(#clip600)" style="stroke:#000000; stroke-linecap:round; stroke-linejoin:round; stroke-width:4; stroke-opacity:1; fill:none" points="229.49,248.629 658.165,248.629 658.165,93.1086 229.49,93.1086 229.49,248.629 "/>
<polyline clip-path="url(#clip600)" style="stroke:#009af9; stroke-linecap:round; stroke-linejoin:round; stroke-width:4; stroke-opacity:1; fill:none" points="253.896,144.949 400.328,144.949 "/>
<path clip-path="url(#clip600)" d="M424.733 151.997 L424.733 136.303 L428.992 136.303 L428.992 151.835 Q428.992 155.516 430.427 157.368 Q431.863 159.196 434.733 159.196 Q438.182 159.196 440.173 156.997 Q442.187 154.798 442.187 151.002 L442.187 136.303 L446.446 136.303 L446.446 162.229 L442.187 162.229 L442.187 158.247 Q440.636 160.608 438.576 161.766 Q436.539 162.9 433.83 162.9 Q429.363 162.9 427.048 160.122 Q424.733 157.344 424.733 151.997 M435.451 135.678 L435.451 135.678 Z" fill="#000000" fill-rule="nonzero" fill-opacity="1" /><path clip-path="url(#clip600)" d="M454.825 126.21 L464.64 126.21 L464.64 129.52 L459.085 129.52 L459.085 165.168 L464.64 165.168 L464.64 168.479 L454.825 168.479 L454.825 126.21 Z" fill="#000000" fill-rule="nonzero" fill-opacity="1" /><path clip-path="url(#clip600)" d="M475.126 158.293 L482.765 158.293 L482.765 131.928 L474.455 133.595 L474.455 129.335 L482.719 127.669 L487.395 127.669 L487.395 158.293 L495.034 158.293 L495.034 162.229 L475.126 162.229 L475.126 158.293 Z" fill="#000000" fill-rule="nonzero" fill-opacity="1" /><path clip-path="url(#clip600)" d="M513.83 126.21 L513.83 168.479 L504.015 168.479 L504.015 165.168 L509.547 165.168 L509.547 129.52 L504.015 129.52 L504.015 126.21 L513.83 126.21 Z" fill="#000000" fill-rule="nonzero" fill-opacity="1" /><polyline clip-path="url(#clip600)" style="stroke:#e26f46; stroke-linecap:round; stroke-linejoin:round; stroke-width:4; stroke-opacity:1; fill:none" points="253.896,196.789 400.328,196.789 "/>
<path clip-path="url(#clip600)" d="M424.733 179.509 L453.969 179.509 L453.969 183.444 L441.701 183.444 L441.701 214.069 L437.001 214.069 L437.001 183.444 L424.733 183.444 L424.733 179.509 Z" fill="#000000" fill-rule="nonzero" fill-opacity="1" /><path clip-path="url(#clip600)" d="M466.353 192.124 Q465.636 191.708 464.779 191.522 Q463.946 191.314 462.927 191.314 Q459.316 191.314 457.372 193.675 Q455.45 196.013 455.45 200.411 L455.45 214.069 L451.168 214.069 L451.168 188.143 L455.45 188.143 L455.45 192.171 Q456.793 189.809 458.946 188.675 Q461.099 187.518 464.177 187.518 Q464.617 187.518 465.149 187.587 Q465.682 187.634 466.33 187.749 L466.353 192.124 Z" fill="#000000" fill-rule="nonzero" fill-opacity="1" /><path clip-path="url(#clip600)" d="M470.381 203.837 L470.381 188.143 L474.64 188.143 L474.64 203.675 Q474.64 207.356 476.075 209.208 Q477.511 211.036 480.381 211.036 Q483.83 211.036 485.821 208.837 Q487.835 206.638 487.835 202.842 L487.835 188.143 L492.094 188.143 L492.094 214.069 L487.835 214.069 L487.835 210.087 Q486.284 212.448 484.223 213.606 Q482.186 214.74 479.478 214.74 Q475.011 214.74 472.696 211.962 Q470.381 209.184 470.381 203.837 M481.098 187.518 L481.098 187.518 Z" fill="#000000" fill-rule="nonzero" fill-opacity="1" /><path clip-path="url(#clip600)" d="M523.043 200.041 L523.043 202.124 L503.459 202.124 Q503.737 206.522 506.098 208.837 Q508.483 211.129 512.719 211.129 Q515.172 211.129 517.464 210.527 Q519.779 209.925 522.047 208.721 L522.047 212.749 Q519.756 213.721 517.348 214.231 Q514.941 214.74 512.464 214.74 Q506.26 214.74 502.626 211.129 Q499.015 207.518 499.015 201.36 Q499.015 194.995 502.441 191.268 Q505.89 187.518 511.723 187.518 Q516.955 187.518 519.987 190.897 Q523.043 194.254 523.043 200.041 M518.783 198.791 Q518.737 195.296 516.816 193.212 Q514.918 191.129 511.77 191.129 Q508.205 191.129 506.052 193.143 Q503.922 195.157 503.598 198.814 L518.783 198.791 Z" fill="#000000" fill-rule="nonzero" fill-opacity="1" /><path clip-path="url(#clip600)" d="M544.663 203.837 L544.663 188.143 L548.922 188.143 L548.922 203.675 Q548.922 207.356 550.357 209.208 Q551.793 211.036 554.663 211.036 Q558.112 211.036 560.103 208.837 Q562.117 206.638 562.117 202.842 L562.117 188.143 L566.376 188.143 L566.376 214.069 L562.117 214.069 L562.117 210.087 Q560.566 212.448 558.505 213.606 Q556.468 214.74 553.76 214.74 Q549.293 214.74 546.978 211.962 Q544.663 209.184 544.663 203.837 M555.38 187.518 L555.38 187.518 Z" fill="#000000" fill-rule="nonzero" fill-opacity="1" /><path clip-path="url(#clip600)" d="M574.755 178.05 L584.57 178.05 L584.57 181.36 L579.015 181.36 L579.015 217.008 L584.57 217.008 L584.57 220.319 L574.755 220.319 L574.755 178.05 Z" fill="#000000" fill-rule="nonzero" fill-opacity="1" /><path clip-path="url(#clip600)" d="M595.056 210.133 L602.695 210.133 L602.695 183.768 L594.385 185.435 L594.385 181.175 L602.649 179.509 L607.325 179.509 L607.325 210.133 L614.964 210.133 L614.964 214.069 L595.056 214.069 L595.056 210.133 Z" fill="#000000" fill-rule="nonzero" fill-opacity="1" /><path clip-path="url(#clip600)" d="M633.76 178.05 L633.76 220.319 L623.945 220.319 L623.945 217.008 L629.477 217.008 L629.477 181.36 L623.945 181.36 L623.945 178.05 L633.76 178.05 Z" fill="#000000" fill-rule="nonzero" fill-opacity="1" /></svg>
