<?xml version="1.0" encoding="utf-8"?>
<svg xmlns="http://www.w3.org/2000/svg" xmlns:xlink="http://www.w3.org/1999/xlink" width="600" height="400" viewBox="0 0 2400 1600">
<defs>
  <clipPath id="clip630">
    <rect x="0" y="0" width="2400" height="1600"/>
  </clipPath>
</defs>
<path clip-path="url(#clip630)" d="M0 1600 L2400 1600 L2400 0 L0 0  Z" fill="#ffffff" fill-rule="evenodd" fill-opacity="1"/>
<defs>
  <clipPath id="clip631">
    <rect x="480" y="0" width="1681" height="1600"/>
  </clipPath>
</defs>
<path clip-path="url(#clip630)" d="M156.598 1423.18 L2352.76 1423.18 L2352.76 47.2441 L156.598 47.2441  Z" fill="#ffffff" fill-rule="evenodd" fill-opacity="1"/>
<defs>
  <clipPath id="clip632">
    <rect x="156" y="47" width="2197" height="1377"/>
  </clipPath>
</defs>
<polyline clip-path="url(#clip632)" style="stroke:#000000; stroke-linecap:round; stroke-linejoin:round; stroke-width:2; stroke-opacity:0.1; fill:none" points="156.598,1423.18 156.598,47.2441 "/>
<polyline clip-path="url(#clip632)" style="stroke:#000000; stroke-linecap:round; stroke-linejoin:round; stroke-width:2; stroke-opacity:0.1; fill:none" points="595.83,1423.18 595.83,47.2441 "/>
<polyline clip-path="url(#clip632)" style="stroke:#000000; stroke-linecap:round; stroke-linejoin:round; stroke-width:2; stroke-opacity:0.1; fill:none" points="1035.06,1423.18 1035.06,47.2441 "/>
<polyline clip-path="url(#clip632)" style="stroke:#000000; stroke-linecap:round; stroke-linejoin:round; stroke-width:2; stroke-opacity:0.1; fill:none" points="1474.29,1423.18 1474.29,47.2441 "/>
<polyline clip-path="url(#clip632)" style="stroke:#000000; stroke-linecap:round; stroke-linejoin:round; stroke-width:2; stroke-opacity:0.1; fill:none" points="1913.52,1423.18 1913.52,47.2441 "/>
<polyline clip-path="url(#clip632)" style="stroke:#000000; stroke-linecap:round; stroke-linejoin:round; stroke-width:2; stroke-opacity:0.1; fill:none" points="2352.76,1423.18 2352.76,47.2441 "/>
<polyline clip-path="url(#clip632)" style="stroke:#000000; stroke-linecap:round; stroke-linejoin:round; stroke-width:2; stroke-opacity:0.1; fill:none" points="156.598,1322.46 2352.76,1322.46 "/>
<polyline clip-path="url(#clip632)" style="stroke:#000000; stroke-linecap:round; stroke-linejoin:round; stroke-width:2; stroke-opacity:0.1; fill:none" points="156.598,1116.02 2352.76,1116.02 "/>
<polyline clip-path="url(#clip632)" style="stroke:#000000; stroke-linecap:round; stroke-linejoin:round; stroke-width:2; stroke-opacity:0.1; fill:none" points="156.598,909.585 2352.76,909.585 "/>
<polyline clip-path="url(#clip632)" style="stroke:#000000; stroke-linecap:round; stroke-linejoin:round; stroke-width:2; stroke-opacity:0.1; fill:none" points="156.598,703.148 2352.76,703.148 "/>
<polyline clip-path="url(#clip632)" style="stroke:#000000; stroke-linecap:round; stroke-linejoin:round; stroke-width:2; stroke-opacity:0.1; fill:none" points="156.598,496.71 2352.76,496.71 "/>
<polyline clip-path="url(#clip632)" style="stroke:#000000; stroke-linecap:round; stroke-linejoin:round; stroke-width:2; stroke-opacity:0.1; fill:none" points="156.598,290.273 2352.76,290.273 "/>
<polyline clip-path="url(#clip632)" style="stroke:#000000; stroke-linecap:round; stroke-linejoin:round; stroke-width:2; stroke-opacity:0.1; fill:none" points="156.598,83.8352 2352.76,83.8352 "/>
<polyline clip-path="url(#clip630)" style="stroke:#000000; stroke-linecap:round; stroke-linejoin:round; stroke-width:4; stroke-opacity:1; fill:none" points="156.598,1423.18 2352.76,1423.18 "/>
<polyline clip-path="url(#clip630)" style="stroke:#000000; stroke-linecap:round; stroke-linejoin:round; stroke-width:4; stroke-opacity:1; fill:none" points="156.598,1423.18 156.598,1404.28 "/>
<polyline clip-path="url(#clip630)" style="stroke:#000000; stroke-linecap:round; stroke-linejoin:round; stroke-width:4; stroke-opacity:1; fill:none" points="595.83,1423.18 595.83,1404.28 "/>
<polyline clip-path="url(#clip630)" style="stroke:#000000; stroke-linecap:round; stroke-linejoin:round; stroke-width:4; stroke-opacity:1; fill:none" points="1035.06,1423.18 1035.06,1404.28 "/>
<polyline clip-path="url(#clip630)" style="stroke:#000000; stroke-linecap:round; stroke-linejoin:round; stroke-width:4; stroke-opacity:1; fill:none" points="1474.29,1423.18 1474.29,1404.28 "/>
<polyline clip-path="url(#clip630)" style="stroke:#000000; stroke-linecap:round; stroke-linejoin:round; stroke-width:4; stroke-opacity:1; fill:none" points="1913.52,1423.18 1913.52,1404.28 "/>
<polyline clip-path="url(#clip630)" style="stroke:#000000; stroke-linecap:round; stroke-linejoin:round; stroke-width:4; stroke-opacity:1; fill:none" points="2352.76,1423.18 2352.76,1404.28 "/>
<path clip-path="url(#clip630)" d="M133.983 1454.1 Q130.372 1454.1 128.543 1457.66 Q126.737 1461.2 126.737 1468.33 Q126.737 1475.44 128.543 1479.01 Q130.372 1482.55 133.983 1482.55 Q137.617 1482.55 139.422 1479.01 Q141.251 1475.44 141.251 1468.33 Q141.251 1461.2 139.422 1457.66 Q137.617 1454.1 133.983 1454.1 M133.983 1450.39 Q139.793 1450.39 142.848 1455 Q145.927 1459.58 145.927 1468.33 Q145.927 1477.06 142.848 1481.67 Q139.793 1486.25 133.983 1486.25 Q128.172 1486.25 125.094 1481.67 Q122.038 1477.06 122.038 1468.33 Q122.038 1459.58 125.094 1455 Q128.172 1450.39 133.983 1450.39 Z" fill="#000000" fill-rule="nonzero" fill-opacity="1" /><path clip-path="url(#clip630)" d="M154.145 1479.7 L159.029 1479.7 L159.029 1485.58 L154.145 1485.58 L154.145 1479.7 Z" fill="#000000" fill-rule="nonzero" fill-opacity="1" /><path clip-path="url(#clip630)" d="M179.214 1454.1 Q175.603 1454.1 173.774 1457.66 Q171.969 1461.2 171.969 1468.33 Q171.969 1475.44 173.774 1479.01 Q175.603 1482.55 179.214 1482.55 Q182.848 1482.55 184.654 1479.01 Q186.482 1475.44 186.482 1468.33 Q186.482 1461.2 184.654 1457.66 Q182.848 1454.1 179.214 1454.1 M179.214 1450.39 Q185.024 1450.39 188.08 1455 Q191.158 1459.58 191.158 1468.33 Q191.158 1477.06 188.08 1481.67 Q185.024 1486.25 179.214 1486.25 Q173.404 1486.25 170.325 1481.67 Q167.269 1477.06 167.269 1468.33 Q167.269 1459.58 170.325 1455 Q173.404 1450.39 179.214 1450.39 Z" fill="#000000" fill-rule="nonzero" fill-opacity="1" /><path clip-path="url(#clip630)" d="M574.013 1454.1 Q570.402 1454.1 568.573 1457.66 Q566.767 1461.2 566.767 1468.33 Q566.767 1475.44 568.573 1479.01 Q570.402 1482.55 574.013 1482.55 Q577.647 1482.55 579.453 1479.01 Q581.281 1475.44 581.281 1468.33 Q581.281 1461.2 579.453 1457.66 Q577.647 1454.1 574.013 1454.1 M574.013 1450.39 Q579.823 1450.39 582.878 1455 Q585.957 1459.58 585.957 1468.33 Q585.957 1477.06 582.878 1481.67 Q579.823 1486.25 574.013 1486.25 Q568.203 1486.25 565.124 1481.67 Q562.068 1477.06 562.068 1468.33 Q562.068 1459.58 565.124 1455 Q568.203 1450.39 574.013 1450.39 Z" fill="#000000" fill-rule="nonzero" fill-opacity="1" /><path clip-path="url(#clip630)" d="M594.175 1479.7 L599.059 1479.7 L599.059 1485.58 L594.175 1485.58 L594.175 1479.7 Z" fill="#000000" fill-rule="nonzero" fill-opacity="1" /><path clip-path="url(#clip630)" d="M613.272 1481.64 L629.591 1481.64 L629.591 1485.58 L607.647 1485.58 L607.647 1481.64 Q610.309 1478.89 614.892 1474.26 Q619.499 1469.61 620.679 1468.27 Q622.925 1465.74 623.804 1464.01 Q624.707 1462.25 624.707 1460.56 Q624.707 1457.8 622.762 1456.07 Q620.841 1454.33 617.739 1454.33 Q615.54 1454.33 613.087 1455.09 Q610.656 1455.86 607.878 1457.41 L607.878 1452.69 Q610.702 1451.55 613.156 1450.97 Q615.61 1450.39 617.647 1450.39 Q623.017 1450.39 626.212 1453.08 Q629.406 1455.77 629.406 1460.26 Q629.406 1462.39 628.596 1464.31 Q627.809 1466.2 625.702 1468.8 Q625.124 1469.47 622.022 1472.69 Q618.92 1475.88 613.272 1481.64 Z" fill="#000000" fill-rule="nonzero" fill-opacity="1" /><path clip-path="url(#clip630)" d="M1012.2 1454.1 Q1008.59 1454.1 1006.76 1457.66 Q1004.96 1461.2 1004.96 1468.33 Q1004.96 1475.44 1006.76 1479.01 Q1008.59 1482.55 1012.2 1482.55 Q1015.84 1482.55 1017.64 1479.01 Q1019.47 1475.44 1019.47 1468.33 Q1019.47 1461.2 1017.64 1457.66 Q1015.84 1454.1 1012.2 1454.1 M1012.2 1450.39 Q1018.01 1450.39 1021.07 1455 Q1024.15 1459.58 1024.15 1468.33 Q1024.15 1477.06 1021.07 1481.67 Q1018.01 1486.25 1012.2 1486.25 Q1006.39 1486.25 1003.31 1481.67 Q1000.26 1477.06 1000.26 1468.33 Q1000.26 1459.58 1003.31 1455 Q1006.39 1450.39 1012.2 1450.39 Z" fill="#000000" fill-rule="nonzero" fill-opacity="1" /><path clip-path="url(#clip630)" d="M1032.36 1479.7 L1037.25 1479.7 L1037.25 1485.58 L1032.36 1485.58 L1032.36 1479.7 Z" fill="#000000" fill-rule="nonzero" fill-opacity="1" /><path clip-path="url(#clip630)" d="M1060.28 1455.09 L1048.48 1473.54 L1060.28 1473.54 L1060.28 1455.09 M1059.05 1451.02 L1064.93 1451.02 L1064.93 1473.54 L1069.86 1473.54 L1069.86 1477.43 L1064.93 1477.43 L1064.93 1485.58 L1060.28 1485.58 L1060.28 1477.43 L1044.68 1477.43 L1044.68 1472.92 L1059.05 1451.02 Z" fill="#000000" fill-rule="nonzero" fill-opacity="1" /><path clip-path="url(#clip630)" d="M1451.6 1454.1 Q1447.99 1454.1 1446.16 1457.66 Q1444.35 1461.2 1444.35 1468.33 Q1444.35 1475.44 1446.16 1479.01 Q1447.99 1482.55 1451.6 1482.55 Q1455.23 1482.55 1457.04 1479.01 Q1458.86 1475.44 1458.86 1468.33 Q1458.86 1461.2 1457.04 1457.66 Q1455.23 1454.1 1451.6 1454.1 M1451.6 1450.39 Q1457.41 1450.39 1460.46 1455 Q1463.54 1459.58 1463.54 1468.33 Q1463.54 1477.06 1460.46 1481.67 Q1457.41 1486.25 1451.6 1486.25 Q1445.79 1486.25 1442.71 1481.67 Q1439.65 1477.06 1439.65 1468.33 Q1439.65 1459.58 1442.71 1455 Q1445.79 1450.39 1451.6 1450.39 Z" fill="#000000" fill-rule="nonzero" fill-opacity="1" /><path clip-path="url(#clip630)" d="M1471.76 1479.7 L1476.64 1479.7 L1476.64 1485.58 L1471.76 1485.58 L1471.76 1479.7 Z" fill="#000000" fill-rule="nonzero" fill-opacity="1" /><path clip-path="url(#clip630)" d="M1497.41 1466.44 Q1494.26 1466.44 1492.41 1468.59 Q1490.58 1470.74 1490.58 1474.49 Q1490.58 1478.22 1492.41 1480.39 Q1494.26 1482.55 1497.41 1482.55 Q1500.55 1482.55 1502.38 1480.39 Q1504.23 1478.22 1504.23 1474.49 Q1504.23 1470.74 1502.38 1468.59 Q1500.55 1466.44 1497.41 1466.44 M1506.69 1451.78 L1506.69 1456.04 Q1504.93 1455.21 1503.12 1454.77 Q1501.34 1454.33 1499.58 1454.33 Q1494.95 1454.33 1492.5 1457.45 Q1490.07 1460.58 1489.72 1466.9 Q1491.09 1464.89 1493.15 1463.82 Q1495.21 1462.73 1497.68 1462.73 Q1502.89 1462.73 1505.9 1465.9 Q1508.93 1469.05 1508.93 1474.49 Q1508.93 1479.82 1505.79 1483.03 Q1502.64 1486.25 1497.41 1486.25 Q1491.41 1486.25 1488.24 1481.67 Q1485.07 1477.06 1485.07 1468.33 Q1485.07 1460.14 1488.96 1455.28 Q1492.85 1450.39 1499.4 1450.39 Q1501.16 1450.39 1502.94 1450.74 Q1504.74 1451.09 1506.69 1451.78 Z" fill="#000000" fill-rule="nonzero" fill-opacity="1" /><path clip-path="url(#clip630)" d="M1890.96 1454.1 Q1887.34 1454.1 1885.52 1457.66 Q1883.71 1461.2 1883.71 1468.33 Q1883.71 1475.44 1885.52 1479.01 Q1887.34 1482.55 1890.96 1482.55 Q1894.59 1482.55 1896.39 1479.01 Q1898.22 1475.44 1898.22 1468.33 Q1898.22 1461.2 1896.39 1457.66 Q1894.59 1454.1 1890.96 1454.1 M1890.96 1450.39 Q1896.77 1450.39 1899.82 1455 Q1902.9 1459.58 1902.9 1468.33 Q1902.9 1477.06 1899.82 1481.67 Q1896.77 1486.25 1890.96 1486.25 Q1885.14 1486.25 1882.07 1481.67 Q1879.01 1477.06 1879.01 1468.33 Q1879.01 1459.58 1882.07 1455 Q1885.14 1450.39 1890.96 1450.39 Z" fill="#000000" fill-rule="nonzero" fill-opacity="1" /><path clip-path="url(#clip630)" d="M1911.12 1479.7 L1916 1479.7 L1916 1485.58 L1911.12 1485.58 L1911.12 1479.7 Z" fill="#000000" fill-rule="nonzero" fill-opacity="1" /><path clip-path="url(#clip630)" d="M1936.19 1469.17 Q1932.85 1469.17 1930.93 1470.95 Q1929.03 1472.73 1929.03 1475.86 Q1929.03 1478.98 1930.93 1480.77 Q1932.85 1482.55 1936.19 1482.55 Q1939.52 1482.55 1941.44 1480.77 Q1943.36 1478.96 1943.36 1475.86 Q1943.36 1472.73 1941.44 1470.95 Q1939.54 1469.17 1936.19 1469.17 M1931.51 1467.18 Q1928.5 1466.44 1926.81 1464.38 Q1925.14 1462.32 1925.14 1459.35 Q1925.14 1455.21 1928.08 1452.8 Q1931.05 1450.39 1936.19 1450.39 Q1941.35 1450.39 1944.29 1452.8 Q1947.23 1455.21 1947.23 1459.35 Q1947.23 1462.32 1945.54 1464.38 Q1943.87 1466.44 1940.89 1467.18 Q1944.26 1467.96 1946.14 1470.26 Q1948.04 1472.55 1948.04 1475.86 Q1948.04 1480.88 1944.96 1483.57 Q1941.9 1486.25 1936.19 1486.25 Q1930.47 1486.25 1927.39 1483.57 Q1924.33 1480.88 1924.33 1475.86 Q1924.33 1472.55 1926.23 1470.26 Q1928.13 1467.96 1931.51 1467.18 M1929.8 1459.79 Q1929.8 1462.48 1931.46 1463.98 Q1933.15 1465.49 1936.19 1465.49 Q1939.2 1465.49 1940.89 1463.98 Q1942.6 1462.48 1942.6 1459.79 Q1942.6 1457.11 1940.89 1455.6 Q1939.2 1454.1 1936.19 1454.1 Q1933.15 1454.1 1931.46 1455.6 Q1929.8 1457.11 1929.8 1459.79 Z" fill="#000000" fill-rule="nonzero" fill-opacity="1" /><path clip-path="url(#clip630)" d="M2319.91 1481.64 L2327.55 1481.64 L2327.55 1455.28 L2319.24 1456.95 L2319.24 1452.69 L2327.5 1451.02 L2332.18 1451.02 L2332.18 1481.64 L2339.82 1481.64 L2339.82 1485.58 L2319.91 1485.58 L2319.91 1481.64 Z" fill="#000000" fill-rule="nonzero" fill-opacity="1" /><path clip-path="url(#clip630)" d="M2349.26 1479.7 L2354.14 1479.7 L2354.14 1485.58 L2349.26 1485.58 L2349.26 1479.7 Z" fill="#000000" fill-rule="nonzero" fill-opacity="1" /><path clip-path="url(#clip630)" d="M2374.33 1454.1 Q2370.72 1454.1 2368.89 1457.66 Q2367.08 1461.2 2367.08 1468.33 Q2367.08 1475.44 2368.89 1479.01 Q2370.72 1482.55 2374.33 1482.55 Q2377.96 1482.55 2379.77 1479.01 Q2381.6 1475.44 2381.6 1468.33 Q2381.6 1461.2 2379.77 1457.66 Q2377.96 1454.1 2374.33 1454.1 M2374.33 1450.39 Q2380.14 1450.39 2383.2 1455 Q2386.27 1459.58 2386.27 1468.33 Q2386.27 1477.06 2383.2 1481.67 Q2380.14 1486.25 2374.33 1486.25 Q2368.52 1486.25 2365.44 1481.67 Q2362.39 1477.06 2362.39 1468.33 Q2362.39 1459.58 2365.44 1455 Q2368.52 1450.39 2374.33 1450.39 Z" fill="#000000" fill-rule="nonzero" fill-opacity="1" /><path clip-path="url(#clip630)" d="M1253.74 1522.27 L1253.74 1532.4 L1265.8 1532.4 L1265.8 1536.95 L1253.74 1536.95 L1253.74 1556.3 Q1253.74 1560.66 1254.92 1561.9 Q1256.13 1563.14 1259.79 1563.14 L1265.8 1563.14 L1265.8 1568.04 L1259.79 1568.04 Q1253.01 1568.04 1250.43 1565.53 Q1247.85 1562.98 1247.85 1556.3 L1247.85 1536.95 L1243.55 1536.95 L1243.55 1532.4 L1247.85 1532.4 L1247.85 1522.27 L1253.74 1522.27 Z" fill="#000000" fill-rule="nonzero" fill-opacity="1" /><polyline clip-path="url(#clip630)" style="stroke:#000000; stroke-linecap:round; stroke-linejoin:round; stroke-width:4; stroke-opacity:1; fill:none" points="156.598,1423.18 156.598,47.2441 "/>
<polyline clip-path="url(#clip630)" style="stroke:#000000; stroke-linecap:round; stroke-linejoin:round; stroke-width:4; stroke-opacity:1; fill:none" points="156.598,1322.46 175.496,1322.46 "/>
<polyline clip-path="url(#clip630)" style="stroke:#000000; stroke-linecap:round; stroke-linejoin:round; stroke-width:4; stroke-opacity:1; fill:none" points="156.598,1116.02 175.496,1116.02 "/>
<polyline clip-path="url(#clip630)" style="stroke:#000000; stroke-linecap:round; stroke-linejoin:round; stroke-width:4; stroke-opacity:1; fill:none" points="156.598,909.585 175.496,909.585 "/>
<polyline clip-path="url(#clip630)" style="stroke:#000000; stroke-linecap:round; stroke-linejoin:round; stroke-width:4; stroke-opacity:1; fill:none" points="156.598,703.148 175.496,703.148 "/>
<polyline clip-path="url(#clip630)" style="stroke:#000000; stroke-linecap:round; stroke-linejoin:round; stroke-width:4; stroke-opacity:1; fill:none" points="156.598,496.71 175.496,496.71 "/>
<polyline clip-path="url(#clip630)" style="stroke:#000000; stroke-linecap:round; stroke-linejoin:round; stroke-width:4; stroke-opacity:1; fill:none" points="156.598,290.273 175.496,290.273 "/>
<polyline clip-path="url(#clip630)" style="stroke:#000000; stroke-linecap:round; stroke-linejoin:round; stroke-width:4; stroke-opacity:1; fill:none" points="156.598,83.8352 175.496,83.8352 "/>
<path clip-path="url(#clip630)" d="M62.9365 1308.26 Q59.3254 1308.26 57.4967 1311.82 Q55.6912 1315.37 55.6912 1322.5 Q55.6912 1329.6 57.4967 1333.17 Q59.3254 1336.71 62.9365 1336.71 Q66.5707 1336.71 68.3763 1333.17 Q70.205 1329.6 70.205 1322.5 Q70.205 1315.37 68.3763 1311.82 Q66.5707 1308.26 62.9365 1308.26 M62.9365 1304.56 Q68.7467 1304.56 71.8022 1309.16 Q74.8809 1313.75 74.8809 1322.5 Q74.8809 1331.22 71.8022 1335.83 Q68.7467 1340.41 62.9365 1340.41 Q57.1264 1340.41 54.0477 1335.83 Q50.9921 1331.22 50.9921 1322.5 Q50.9921 1313.75 54.0477 1309.16 Q57.1264 1304.56 62.9365 1304.56 Z" fill="#000000" fill-rule="nonzero" fill-opacity="1" /><path clip-path="url(#clip630)" d="M83.0984 1333.86 L87.9827 1333.86 L87.9827 1339.74 L83.0984 1339.74 L83.0984 1333.86 Z" fill="#000000" fill-rule="nonzero" fill-opacity="1" /><path clip-path="url(#clip630)" d="M111.015 1309.25 L99.2095 1327.7 L111.015 1327.7 L111.015 1309.25 M109.788 1305.18 L115.668 1305.18 L115.668 1327.7 L120.598 1327.7 L120.598 1331.59 L115.668 1331.59 L115.668 1339.74 L111.015 1339.74 L111.015 1331.59 L95.4132 1331.59 L95.4132 1327.08 L109.788 1305.18 Z" fill="#000000" fill-rule="nonzero" fill-opacity="1" /><path clip-path="url(#clip630)" d="M64.418 1101.82 Q60.8069 1101.82 58.9782 1105.39 Q57.1726 1108.93 57.1726 1116.06 Q57.1726 1123.16 58.9782 1126.73 Q60.8069 1130.27 64.418 1130.27 Q68.0522 1130.27 69.8578 1126.73 Q71.6865 1123.16 71.6865 1116.06 Q71.6865 1108.93 69.8578 1105.39 Q68.0522 1101.82 64.418 1101.82 M64.418 1098.12 Q70.2281 1098.12 73.2837 1102.72 Q76.3624 1107.31 76.3624 1116.06 Q76.3624 1124.78 73.2837 1129.39 Q70.2281 1133.97 64.418 1133.97 Q58.6078 1133.97 55.5291 1129.39 Q52.4736 1124.78 52.4736 1116.06 Q52.4736 1107.31 55.5291 1102.72 Q58.6078 1098.12 64.418 1098.12 Z" fill="#000000" fill-rule="nonzero" fill-opacity="1" /><path clip-path="url(#clip630)" d="M84.5799 1127.42 L89.4641 1127.42 L89.4641 1133.3 L84.5799 1133.3 L84.5799 1127.42 Z" fill="#000000" fill-rule="nonzero" fill-opacity="1" /><path clip-path="url(#clip630)" d="M99.6956 1098.74 L118.052 1098.74 L118.052 1102.68 L103.978 1102.68 L103.978 1111.15 Q104.996 1110.8 106.015 1110.64 Q107.033 1110.46 108.052 1110.46 Q113.839 1110.46 117.219 1113.63 Q120.598 1116.8 120.598 1122.21 Q120.598 1127.79 117.126 1130.9 Q113.654 1133.97 107.334 1133.97 Q105.159 1133.97 102.89 1133.6 Q100.645 1133.23 98.2372 1132.49 L98.2372 1127.79 Q100.321 1128.93 102.543 1129.48 Q104.765 1130.04 107.242 1130.04 Q111.246 1130.04 113.584 1127.93 Q115.922 1125.83 115.922 1122.21 Q115.922 1118.6 113.584 1116.5 Q111.246 1114.39 107.242 1114.39 Q105.367 1114.39 103.492 1114.81 Q101.64 1115.22 99.6956 1116.1 L99.6956 1098.74 Z" fill="#000000" fill-rule="nonzero" fill-opacity="1" /><path clip-path="url(#clip630)" d="M63.2606 895.384 Q59.6495 895.384 57.8208 898.949 Q56.0152 902.49 56.0152 909.62 Q56.0152 916.727 57.8208 920.291 Q59.6495 923.833 63.2606 923.833 Q66.8948 923.833 68.7004 920.291 Q70.5291 916.727 70.5291 909.62 Q70.5291 902.49 68.7004 898.949 Q66.8948 895.384 63.2606 895.384 M63.2606 891.68 Q69.0707 891.68 72.1263 896.287 Q75.205 900.87 75.205 909.62 Q75.205 918.347 72.1263 922.953 Q69.0707 927.537 63.2606 927.537 Q57.4504 927.537 54.3717 922.953 Q51.3162 918.347 51.3162 909.62 Q51.3162 900.87 54.3717 896.287 Q57.4504 891.68 63.2606 891.68 Z" fill="#000000" fill-rule="nonzero" fill-opacity="1" /><path clip-path="url(#clip630)" d="M83.4225 920.986 L88.3067 920.986 L88.3067 926.865 L83.4225 926.865 L83.4225 920.986 Z" fill="#000000" fill-rule="nonzero" fill-opacity="1" /><path clip-path="url(#clip630)" d="M109.071 907.722 Q105.922 907.722 104.071 909.875 Q102.242 912.027 102.242 915.777 Q102.242 919.504 104.071 921.68 Q105.922 923.833 109.071 923.833 Q112.219 923.833 114.047 921.68 Q115.899 919.504 115.899 915.777 Q115.899 912.027 114.047 909.875 Q112.219 907.722 109.071 907.722 M118.353 893.069 L118.353 897.328 Q116.594 896.495 114.788 896.055 Q113.006 895.616 111.246 895.616 Q106.617 895.616 104.163 898.741 Q101.733 901.865 101.385 908.185 Q102.751 906.171 104.811 905.106 Q106.871 904.018 109.348 904.018 Q114.557 904.018 117.566 907.19 Q120.598 910.338 120.598 915.777 Q120.598 921.101 117.45 924.319 Q114.302 927.537 109.071 927.537 Q103.075 927.537 99.9039 922.953 Q96.7326 918.347 96.7326 909.62 Q96.7326 901.426 100.621 896.565 Q104.51 891.68 111.061 891.68 Q112.82 891.68 114.603 892.028 Q116.408 892.375 118.353 893.069 Z" fill="#000000" fill-rule="nonzero" fill-opacity="1" /><path clip-path="url(#clip630)" d="M64.3254 688.947 Q60.7143 688.947 58.8856 692.511 Q57.0801 696.053 57.0801 703.183 Q57.0801 710.289 58.8856 713.854 Q60.7143 717.395 64.3254 717.395 Q67.9596 717.395 69.7652 713.854 Q71.5939 710.289 71.5939 703.183 Q71.5939 696.053 69.7652 692.511 Q67.9596 688.947 64.3254 688.947 M64.3254 685.243 Q70.1355 685.243 73.1911 689.849 Q76.2698 694.433 76.2698 703.183 Q76.2698 711.909 73.1911 716.516 Q70.1355 721.099 64.3254 721.099 Q58.5152 721.099 55.4365 716.516 Q52.381 711.909 52.381 703.183 Q52.381 694.433 55.4365 689.849 Q58.5152 685.243 64.3254 685.243 Z" fill="#000000" fill-rule="nonzero" fill-opacity="1" /><path clip-path="url(#clip630)" d="M84.4873 714.548 L89.3715 714.548 L89.3715 720.428 L84.4873 720.428 L84.4873 714.548 Z" fill="#000000" fill-rule="nonzero" fill-opacity="1" /><path clip-path="url(#clip630)" d="M98.3761 685.868 L120.598 685.868 L120.598 687.859 L108.052 720.428 L103.168 720.428 L114.973 689.803 L98.3761 689.803 L98.3761 685.868 Z" fill="#000000" fill-rule="nonzero" fill-opacity="1" /><path clip-path="url(#clip630)" d="M63.5152 482.509 Q59.9041 482.509 58.0754 486.074 Q56.2699 489.615 56.2699 496.745 Q56.2699 503.851 58.0754 507.416 Q59.9041 510.958 63.5152 510.958 Q67.1494 510.958 68.955 507.416 Q70.7837 503.851 70.7837 496.745 Q70.7837 489.615 68.955 486.074 Q67.1494 482.509 63.5152 482.509 M63.5152 478.805 Q69.3254 478.805 72.3809 483.412 Q75.4596 487.995 75.4596 496.745 Q75.4596 505.472 72.3809 510.078 Q69.3254 514.662 63.5152 514.662 Q57.7051 514.662 54.6264 510.078 Q51.5708 505.472 51.5708 496.745 Q51.5708 487.995 54.6264 483.412 Q57.7051 478.805 63.5152 478.805 Z" fill="#000000" fill-rule="nonzero" fill-opacity="1" /><path clip-path="url(#clip630)" d="M83.6771 508.111 L88.5614 508.111 L88.5614 513.99 L83.6771 513.99 L83.6771 508.111 Z" fill="#000000" fill-rule="nonzero" fill-opacity="1" /><path clip-path="url(#clip630)" d="M108.746 497.578 Q105.413 497.578 103.492 499.361 Q101.594 501.143 101.594 504.268 Q101.594 507.393 103.492 509.175 Q105.413 510.958 108.746 510.958 Q112.08 510.958 114.001 509.175 Q115.922 507.37 115.922 504.268 Q115.922 501.143 114.001 499.361 Q112.103 497.578 108.746 497.578 M104.071 495.588 Q101.061 494.847 99.3715 492.787 Q97.7048 490.727 97.7048 487.764 Q97.7048 483.62 100.645 481.213 Q103.608 478.805 108.746 478.805 Q113.908 478.805 116.848 481.213 Q119.788 483.62 119.788 487.764 Q119.788 490.727 118.098 492.787 Q116.432 494.847 113.445 495.588 Q116.825 496.375 118.7 498.666 Q120.598 500.958 120.598 504.268 Q120.598 509.291 117.52 511.976 Q114.464 514.662 108.746 514.662 Q103.029 514.662 99.9502 511.976 Q96.8947 509.291 96.8947 504.268 Q96.8947 500.958 98.7928 498.666 Q100.691 496.375 104.071 495.588 M102.358 488.203 Q102.358 490.889 104.024 492.393 Q105.714 493.898 108.746 493.898 Q111.756 493.898 113.445 492.393 Q115.158 490.889 115.158 488.203 Q115.158 485.518 113.445 484.014 Q111.756 482.509 108.746 482.509 Q105.714 482.509 104.024 484.014 Q102.358 485.518 102.358 488.203 Z" fill="#000000" fill-rule="nonzero" fill-opacity="1" /><path clip-path="url(#clip630)" d="M63.6078 276.071 Q59.9967 276.071 58.168 279.636 Q56.3625 283.178 56.3625 290.307 Q56.3625 297.414 58.168 300.979 Q59.9967 304.52 63.6078 304.52 Q67.242 304.52 69.0476 300.979 Q70.8763 297.414 70.8763 290.307 Q70.8763 283.178 69.0476 279.636 Q67.242 276.071 63.6078 276.071 M63.6078 272.368 Q69.418 272.368 72.4735 276.974 Q75.5522 281.558 75.5522 290.307 Q75.5522 299.034 72.4735 303.641 Q69.418 308.224 63.6078 308.224 Q57.7976 308.224 54.719 303.641 Q51.6634 299.034 51.6634 290.307 Q51.6634 281.558 54.719 276.974 Q57.7976 272.368 63.6078 272.368 Z" fill="#000000" fill-rule="nonzero" fill-opacity="1" /><path clip-path="url(#clip630)" d="M83.7697 301.673 L88.654 301.673 L88.654 307.553 L83.7697 307.553 L83.7697 301.673 Z" fill="#000000" fill-rule="nonzero" fill-opacity="1" /><path clip-path="url(#clip630)" d="M98.978 306.835 L98.978 302.576 Q100.737 303.409 102.543 303.849 Q104.348 304.289 106.084 304.289 Q110.714 304.289 113.145 301.187 Q115.598 298.062 115.945 291.719 Q114.603 293.71 112.543 294.775 Q110.483 295.84 107.983 295.84 Q102.797 295.84 99.765 292.715 Q96.7558 289.567 96.7558 284.127 Q96.7558 278.803 99.9039 275.585 Q103.052 272.368 108.283 272.368 Q114.279 272.368 117.427 276.974 Q120.598 281.558 120.598 290.307 Q120.598 298.479 116.709 303.363 Q112.844 308.224 106.293 308.224 Q104.534 308.224 102.728 307.877 Q100.922 307.53 98.978 306.835 M108.283 292.182 Q111.432 292.182 113.26 290.03 Q115.112 287.877 115.112 284.127 Q115.112 280.4 113.26 278.247 Q111.432 276.071 108.283 276.071 Q105.135 276.071 103.284 278.247 Q101.455 280.4 101.455 284.127 Q101.455 287.877 103.284 290.03 Q105.135 292.182 108.283 292.182 Z" fill="#000000" fill-rule="nonzero" fill-opacity="1" /><path clip-path="url(#clip630)" d="M54.2328 97.18 L61.8717 97.18 L61.8717 70.8144 L53.5616 72.4811 L53.5616 68.2219 L61.8254 66.5552 L66.5013 66.5552 L66.5013 97.18 L74.1402 97.18 L74.1402 101.115 L54.2328 101.115 L54.2328 97.18 Z" fill="#000000" fill-rule="nonzero" fill-opacity="1" /><path clip-path="url(#clip630)" d="M83.5845 95.2356 L88.4688 95.2356 L88.4688 101.115 L83.5845 101.115 L83.5845 95.2356 Z" fill="#000000" fill-rule="nonzero" fill-opacity="1" /><path clip-path="url(#clip630)" d="M108.654 69.6339 Q105.043 69.6339 103.214 73.1987 Q101.409 76.7403 101.409 83.8699 Q101.409 90.9764 103.214 94.5412 Q105.043 98.0828 108.654 98.0828 Q112.288 98.0828 114.094 94.5412 Q115.922 90.9764 115.922 83.8699 Q115.922 76.7403 114.094 73.1987 Q112.288 69.6339 108.654 69.6339 M108.654 65.9302 Q114.464 65.9302 117.52 70.5367 Q120.598 75.12 120.598 83.8699 Q120.598 92.5967 117.52 97.2032 Q114.464 101.787 108.654 101.787 Q102.844 101.787 99.765 97.2032 Q96.7095 92.5967 96.7095 83.8699 Q96.7095 75.12 99.765 70.5367 Q102.844 65.9302 108.654 65.9302 Z" fill="#000000" fill-rule="nonzero" fill-opacity="1" /><polyline clip-path="url(#clip632)" style="stroke:#009af9; stroke-linecap:round; stroke-linejoin:round; stroke-width:4; stroke-opacity:1; fill:none" points="156.598,1116.02 157.374,1100.58 158.181,1094.9 159.088,1083.77 160.109,1091.57 161.258,1071.08 162.55,1087.86 164.004,1149.61 165.64,1075.36 167.48,1079.57 169.549,1120.68 171.878,1156.38 174.498,1187.66 177.445,1197.57 180.761,1212.45 184.491,1180.98 188.687,1132.15 193.408,1140.18 198.719,1134.59 204.694,1150.38 211.416,941.749 218.977,1039.19 227.485,1011.24 237.055,1034.77 247.822,1016.67 259.935,923.85 273.562,963.563 288.892,1002.89 306.138,1024.33 325.541,849.862 347.368,888.84 371.924,1055.41 399.55,1195.95 430.628,1012.27 465.592,660.662 504.926,768.775 543.337,949.314 586.551,888.06 635.165,928.635 681.737,1226.06 734.131,871.964 793.074,841.33 846.224,379.132 906.017,88.5695 971.102,275.648 1021.74,366.924 1078.7,468.75 1135.19,873.522 1193.2,881.136 1258.46,1019.85 1318.83,1125.41 1386.74,1384.16 1454.3,1231.83 1530.3,1314.1 1586.26,1298.01 1649.22,1181.08 1720.05,1198.52 1786.04,1346.3 1855.25,1143.32 1933.12,1270.76 1987.91,1233.19 2049.56,1052.38 2118.9,1113.71 2176.16,1236.21 2240.58,1017.94 2313.05,991.586 2352.76,1260.15 "/>
<polyline clip-path="url(#clip632)" style="stroke:#e26f46; stroke-linecap:round; stroke-linejoin:round; stroke-width:4; stroke-opacity:1; fill:none" points="156.598,1116.02 157.374,1100.58 158.181,1094.9 159.088,1083.77 160.109,1091.57 161.258,1071.08 162.55,1087.86 164.004,1149.6 165.64,1075.36 167.48,1079.57 169.549,1120.68 171.878,1156.38 174.498,1187.66 177.445,1197.57 180.761,1212.45 184.491,1180.99 188.687,1132.15 193.408,1140.18 198.719,1134.59 204.694,1150.38 211.416,941.736 218.977,1039.18 227.485,1011.23 237.055,1034.77 247.822,1016.68 259.935,923.846 273.562,963.587 288.892,1002.95 306.138,1024.42 325.541,849.909 347.368,888.958 371.924,1055.53 399.55,1196.09 430.628,1012.32 465.592,660.41 504.926,768.839 543.337,949.551 586.551,888.39 635.165,929.287 681.737,1225.73 734.131,870.934 793.074,840.582 846.224,377.368 906.017,86.1857 971.102,274.617 1021.74,366.522 1078.7,469.082 1135.19,872.863 1193.2,880.88 1258.46,1020.32 1318.83,1126.37 1386.74,1384.24 1454.3,1231.68 1530.3,1314.65 1586.26,1298.76 1649.22,1181.84 1720.05,1199.77 1786.04,1347.77 1855.25,1144.76 1933.12,1272.78 1987.91,1235.44 2049.56,1054.8 2118.9,1116.64 2176.16,1239.21 2240.58,1021.26 2313.05,995.42 2352.76,1262.47 "/>
<path clip-path="url(#clip630)" d="M1850.91 248.629 L2279.55 248.629 L2279.55 93.1086 L1850.91 93.1086  Z" fill="#ffffff" fill-rule="evenodd" fill-opacity="1"/>
<polyline clip-path="url(#clip630)" style="stroke:#000000; stroke-linecap:round; stroke-linejoin:round; stroke-width:4; stroke-opacity:1; fill:none" points="1850.91,248.629 2279.55,248.629 2279.55,93.1086 1850.91,93.1086 1850.91,248.629 "/>
<polyline clip-path="url(#clip630)" style="stroke:#009af9; stroke-linecap:round; stroke-linejoin:round; stroke-width:4; stroke-opacity:1; fill:none" points="1875.31,144.949 2021.72,144.949 "/>
<path clip-path="url(#clip630)" d="M2046.12 151.997 L2046.12 136.303 L2050.38 136.303 L2050.38 151.835 Q2050.38 155.516 2051.82 157.368 Q2053.25 159.196 2056.12 159.196 Q2059.57 159.196 2061.56 156.997 Q2063.58 154.798 2063.58 151.002 L2063.58 136.303 L2067.84 136.303 L2067.84 162.229 L2063.58 162.229 L2063.58 158.247 Q2062.02 160.608 2059.96 161.766 Q2057.93 162.9 2055.22 162.9 Q2050.75 162.9 2048.44 160.122 Q2046.12 157.344 2046.12 151.997 M2056.84 135.678 L2056.84 135.678 Z" fill="#000000" fill-rule="nonzero" fill-opacity="1" /><path clip-path="url(#clip630)" d="M2076.21 126.21 L2086.03 126.21 L2086.03 129.52 L2080.47 129.52 L2080.47 165.168 L2086.03 165.168 L2086.03 168.479 L2076.21 168.479 L2076.21 126.21 Z" fill="#000000" fill-rule="nonzero" fill-opacity="1" /><path clip-path="url(#clip630)" d="M2096.52 158.293 L2104.15 158.293 L2104.15 131.928 L2095.84 133.595 L2095.84 129.335 L2104.11 127.669 L2108.78 127.669 L2108.78 158.293 L2116.42 158.293 L2116.42 162.229 L2096.52 162.229 L2096.52 158.293 Z" fill="#000000" fill-rule="nonzero" fill-opacity="1" /><path clip-path="url(#clip630)" d="M2135.22 126.21 L2135.22 168.479 L2125.4 168.479 L2125.4 165.168 L2130.94 165.168 L2130.94 129.52 L2125.4 129.52 L2125.4 126.21 L2135.22 126.21 Z" fill="#000000" fill-rule="nonzero" fill-opacity="1" /><polyline clip-path="url(#clip630)" style="stroke:#e26f46; stroke-linecap:round; stroke-linejoin:round; stroke-width:4; stroke-opacity:1; fill:none" points="1875.31,196.789 2021.72,196.789 "/>
<path clip-path="url(#clip630)" d="M2046.12 179.509 L2075.36 179.509 L2075.36 183.444 L2063.09 183.444 L2063.09 214.069 L2058.39 214.069 L2058.39 183.444 L2046.12 183.444 L2046.12 179.509 Z" fill="#000000" fill-rule="nonzero" fill-opacity="1" /><path clip-path="url(#clip630)" d="M2087.74 192.124 Q2087.02 191.708 2086.17 191.522 Q2085.33 191.314 2084.32 191.314 Q2080.71 191.314 2078.76 193.675 Q2076.84 196.013 2076.84 200.411 L2076.84 214.069 L2072.56 214.069 L2072.56 188.143 L2076.84 188.143 L2076.84 192.171 Q2078.18 189.809 2080.34 188.675 Q2082.49 187.518 2085.57 187.518 Q2086.01 187.518 2086.54 187.587 Q2087.07 187.634 2087.72 187.749 L2087.74 192.124 Z" fill="#000000" fill-rule="nonzero" fill-opacity="1" /><path clip-path="url(#clip630)" d="M2091.77 203.837 L2091.77 188.143 L2096.03 188.143 L2096.03 203.675 Q2096.03 207.356 2097.46 209.208 Q2098.9 211.036 2101.77 211.036 Q2105.22 211.036 2107.21 208.837 Q2109.22 206.638 2109.22 202.842 L2109.22 188.143 L2113.48 188.143 L2113.48 214.069 L2109.22 214.069 L2109.22 210.087 Q2107.67 212.448 2105.61 213.606 Q2103.58 214.74 2100.87 214.74 Q2096.4 214.74 2094.08 211.962 Q2091.77 209.184 2091.77 203.837 M2102.49 187.518 L2102.49 187.518 Z" fill="#000000" fill-rule="nonzero" fill-opacity="1" /><path clip-path="url(#clip630)" d="M2144.43 200.041 L2144.43 202.124 L2124.85 202.124 Q2125.13 206.522 2127.49 208.837 Q2129.87 211.129 2134.11 211.129 Q2136.56 211.129 2138.85 210.527 Q2141.17 209.925 2143.44 208.721 L2143.44 212.749 Q2141.14 213.721 2138.74 214.231 Q2136.33 214.74 2133.85 214.74 Q2127.65 214.74 2124.02 211.129 Q2120.4 207.518 2120.4 201.36 Q2120.4 194.995 2123.83 191.268 Q2127.28 187.518 2133.11 187.518 Q2138.34 187.518 2141.38 190.897 Q2144.43 194.254 2144.43 200.041 M2140.17 198.791 Q2140.13 195.296 2138.21 193.212 Q2136.31 191.129 2133.16 191.129 Q2129.59 191.129 2127.44 193.143 Q2125.31 195.157 2124.99 198.814 L2140.17 198.791 Z" fill="#000000" fill-rule="nonzero" fill-opacity="1" /><path clip-path="url(#clip630)" d="M2166.05 203.837 L2166.05 188.143 L2170.31 188.143 L2170.31 203.675 Q2170.31 207.356 2171.75 209.208 Q2173.18 211.036 2176.05 211.036 Q2179.5 211.036 2181.49 208.837 Q2183.51 206.638 2183.51 202.842 L2183.51 188.143 L2187.76 188.143 L2187.76 214.069 L2183.51 214.069 L2183.51 210.087 Q2181.95 212.448 2179.89 213.606 Q2177.86 214.74 2175.15 214.74 Q2170.68 214.74 2168.37 211.962 Q2166.05 209.184 2166.05 203.837 M2176.77 187.518 L2176.77 187.518 Z" fill="#000000" fill-rule="nonzero" fill-opacity="1" /><path clip-path="url(#clip630)" d="M2196.14 178.05 L2205.96 178.05 L2205.96 181.36 L2200.4 181.36 L2200.4 217.008 L2205.96 217.008 L2205.96 220.319 L2196.14 220.319 L2196.14 178.05 Z" fill="#000000" fill-rule="nonzero" fill-opacity="1" /><path clip-path="url(#clip630)" d="M2216.45 210.133 L2224.08 210.133 L2224.08 183.768 L2215.77 185.435 L2215.77 181.175 L2224.04 179.509 L2228.71 179.509 L2228.71 210.133 L2236.35 210.133 L2236.35 214.069 L2216.45 214.069 L2216.45 210.133 Z" fill="#000000" fill-rule="nonzero" fill-opacity="1" /><path clip-path="url(#clip630)" d="M2255.15 178.05 L2255.15 220.319 L2245.33 220.319 L2245.33 217.008 L2250.87 217.008 L2250.87 181.36 L2245.33 181.36 L2245.33 178.05 L2255.15 178.05 Z" fill="#000000" fill-rule="nonzero" fill-opacity="1" /></svg>
