<?xml version="1.0" encoding="utf-8"?>
<svg xmlns="http://www.w3.org/2000/svg" xmlns:xlink="http://www.w3.org/1999/xlink" width="600" height="400" viewBox="0 0 2400 1600">
<defs>
  <clipPath id="clip040">
    <rect x="0" y="0" width="2400" height="1600"/>
  </clipPath>
</defs>
<path clip-path="url(#clip040)" d="M0 1600 L2400 1600 L2400 0 L0 0  Z" fill="#ffffff" fill-rule="evenodd" fill-opacity="1"/>
<defs>
  <clipPath id="clip041">
    <rect x="480" y="0" width="1681" height="1600"/>
  </clipPath>
</defs>
<path clip-path="url(#clip040)" d="M141.853 1423.18 L2352.76 1423.18 L2352.76 47.2441 L141.853 47.2441  Z" fill="#ffffff" fill-rule="evenodd" fill-opacity="1"/>
<defs>
  <clipPath id="clip042">
    <rect x="141" y="47" width="2212" height="1377"/>
  </clipPath>
</defs>
<polyline clip-path="url(#clip042)" style="stroke:#000000; stroke-linecap:round; stroke-linejoin:round; stroke-width:2; stroke-opacity:0.1; fill:none" points="141.853,1423.18 141.853,47.2441 "/>
<polyline clip-path="url(#clip042)" style="stroke:#000000; stroke-linecap:round; stroke-linejoin:round; stroke-width:2; stroke-opacity:0.1; fill:none" points="584.034,1423.18 584.034,47.2441 "/>
<polyline clip-path="url(#clip042)" style="stroke:#000000; stroke-linecap:round; stroke-linejoin:round; stroke-width:2; stroke-opacity:0.1; fill:none" points="1026.21,1423.18 1026.21,47.2441 "/>
<polyline clip-path="url(#clip042)" style="stroke:#000000; stroke-linecap:round; stroke-linejoin:round; stroke-width:2; stroke-opacity:0.1; fill:none" points="1468.39,1423.18 1468.39,47.2441 "/>
<polyline clip-path="url(#clip042)" style="stroke:#000000; stroke-linecap:round; stroke-linejoin:round; stroke-width:2; stroke-opacity:0.1; fill:none" points="1910.58,1423.18 1910.58,47.2441 "/>
<polyline clip-path="url(#clip042)" style="stroke:#000000; stroke-linecap:round; stroke-linejoin:round; stroke-width:2; stroke-opacity:0.1; fill:none" points="2352.76,1423.18 2352.76,47.2441 "/>
<polyline clip-path="url(#clip042)" style="stroke:#000000; stroke-linecap:round; stroke-linejoin:round; stroke-width:2; stroke-opacity:0.1; fill:none" points="141.853,1384.47 2352.76,1384.47 "/>
<polyline clip-path="url(#clip042)" style="stroke:#000000; stroke-linecap:round; stroke-linejoin:round; stroke-width:2; stroke-opacity:0.1; fill:none" points="141.853,1175.72 2352.76,1175.72 "/>
<polyline clip-path="url(#clip042)" style="stroke:#000000; stroke-linecap:round; stroke-linejoin:round; stroke-width:2; stroke-opacity:0.1; fill:none" points="141.853,966.958 2352.76,966.958 "/>
<polyline clip-path="url(#clip042)" style="stroke:#000000; stroke-linecap:round; stroke-linejoin:round; stroke-width:2; stroke-opacity:0.1; fill:none" points="141.853,758.2 2352.76,758.2 "/>
<polyline clip-path="url(#clip042)" style="stroke:#000000; stroke-linecap:round; stroke-linejoin:round; stroke-width:2; stroke-opacity:0.1; fill:none" points="141.853,549.443 2352.76,549.443 "/>
<polyline clip-path="url(#clip042)" style="stroke:#000000; stroke-linecap:round; stroke-linejoin:round; stroke-width:2; stroke-opacity:0.1; fill:none" points="141.853,340.685 2352.76,340.685 "/>
<polyline clip-path="url(#clip042)" style="stroke:#000000; stroke-linecap:round; stroke-linejoin:round; stroke-width:2; stroke-opacity:0.1; fill:none" points="141.853,131.927 2352.76,131.927 "/>
<polyline clip-path="url(#clip040)" style="stroke:#000000; stroke-linecap:round; stroke-linejoin:round; stroke-width:4; stroke-opacity:1; fill:none" points="141.853,1423.18 2352.76,1423.18 "/>
<polyline clip-path="url(#clip040)" style="stroke:#000000; stroke-linecap:round; stroke-linejoin:round; stroke-width:4; stroke-opacity:1; fill:none" points="141.853,1423.18 141.853,1404.28 "/>
<polyline clip-path="url(#clip040)" style="stroke:#000000; stroke-linecap:round; stroke-linejoin:round; stroke-width:4; stroke-opacity:1; fill:none" points="584.034,1423.18 584.034,1404.28 "/>
<polyline clip-path="url(#clip040)" style="stroke:#000000; stroke-linecap:round; stroke-linejoin:round; stroke-width:4; stroke-opacity:1; fill:none" points="1026.21,1423.18 1026.21,1404.28 "/>
<polyline clip-path="url(#clip040)" style="stroke:#000000; stroke-linecap:round; stroke-linejoin:round; stroke-width:4; stroke-opacity:1; fill:none" points="1468.39,1423.18 1468.39,1404.28 "/>
<polyline clip-path="url(#clip040)" style="stroke:#000000; stroke-linecap:round; stroke-linejoin:round; stroke-width:4; stroke-opacity:1; fill:none" points="1910.58,1423.18 1910.58,1404.28 "/>
<polyline clip-path="url(#clip040)" style="stroke:#000000; stroke-linecap:round; stroke-linejoin:round; stroke-width:4; stroke-opacity:1; fill:none" points="2352.76,1423.18 2352.76,1404.28 "/>
<path clip-path="url(#clip040)" d="M141.853 1454.1 Q138.242 1454.1 136.413 1457.66 Q134.608 1461.2 134.608 1468.33 Q134.608 1475.44 136.413 1479.01 Q138.242 1482.55 141.853 1482.55 Q145.487 1482.55 147.293 1479.01 Q149.121 1475.44 149.121 1468.33 Q149.121 1461.2 147.293 1457.66 Q145.487 1454.1 141.853 1454.1 M141.853 1450.39 Q147.663 1450.39 150.719 1455 Q153.797 1459.58 153.797 1468.33 Q153.797 1477.06 150.719 1481.67 Q147.663 1486.25 141.853 1486.25 Q136.043 1486.25 132.964 1481.67 Q129.909 1477.06 129.909 1468.33 Q129.909 1459.58 132.964 1455 Q136.043 1450.39 141.853 1450.39 Z" fill="#000000" fill-rule="nonzero" fill-opacity="1" /><path clip-path="url(#clip040)" d="M574.416 1481.64 L582.054 1481.64 L582.054 1455.28 L573.744 1456.95 L573.744 1452.69 L582.008 1451.02 L586.684 1451.02 L586.684 1481.64 L594.323 1481.64 L594.323 1485.58 L574.416 1485.58 L574.416 1481.64 Z" fill="#000000" fill-rule="nonzero" fill-opacity="1" /><path clip-path="url(#clip040)" d="M1020.87 1481.64 L1037.19 1481.64 L1037.19 1485.58 L1015.24 1485.58 L1015.24 1481.64 Q1017.9 1478.89 1022.49 1474.26 Q1027.09 1469.61 1028.27 1468.27 Q1030.52 1465.74 1031.4 1464.01 Q1032.3 1462.25 1032.3 1460.56 Q1032.3 1457.8 1030.36 1456.07 Q1028.44 1454.33 1025.33 1454.33 Q1023.14 1454.33 1020.68 1455.09 Q1018.25 1455.86 1015.47 1457.41 L1015.47 1452.69 Q1018.3 1451.55 1020.75 1450.97 Q1023.2 1450.39 1025.24 1450.39 Q1030.61 1450.39 1033.81 1453.08 Q1037 1455.77 1037 1460.26 Q1037 1462.39 1036.19 1464.31 Q1035.4 1466.2 1033.3 1468.8 Q1032.72 1469.47 1029.62 1472.69 Q1026.52 1475.88 1020.87 1481.64 Z" fill="#000000" fill-rule="nonzero" fill-opacity="1" /><path clip-path="url(#clip040)" d="M1472.64 1466.95 Q1476 1467.66 1477.87 1469.93 Q1479.77 1472.2 1479.77 1475.53 Q1479.77 1480.65 1476.25 1483.45 Q1472.73 1486.25 1466.25 1486.25 Q1464.08 1486.25 1461.76 1485.81 Q1459.47 1485.39 1457.02 1484.54 L1457.02 1480.02 Q1458.96 1481.16 1461.28 1481.74 Q1463.59 1482.32 1466.11 1482.32 Q1470.51 1482.32 1472.8 1480.58 Q1475.12 1478.84 1475.12 1475.53 Q1475.12 1472.48 1472.97 1470.77 Q1470.84 1469.03 1467.02 1469.03 L1462.99 1469.03 L1462.99 1465.19 L1467.2 1465.19 Q1470.65 1465.19 1472.48 1463.82 Q1474.31 1462.43 1474.31 1459.84 Q1474.31 1457.18 1472.41 1455.77 Q1470.54 1454.33 1467.02 1454.33 Q1465.1 1454.33 1462.9 1454.75 Q1460.7 1455.16 1458.06 1456.04 L1458.06 1451.88 Q1460.72 1451.14 1463.04 1450.77 Q1465.37 1450.39 1467.43 1450.39 Q1472.76 1450.39 1475.86 1452.83 Q1478.96 1455.23 1478.96 1459.35 Q1478.96 1462.22 1477.32 1464.21 Q1475.67 1466.18 1472.64 1466.95 Z" fill="#000000" fill-rule="nonzero" fill-opacity="1" /><path clip-path="url(#clip040)" d="M1913.58 1455.09 L1901.78 1473.54 L1913.58 1473.54 L1913.58 1455.09 M1912.36 1451.02 L1918.24 1451.02 L1918.24 1473.54 L1923.17 1473.54 L1923.17 1477.43 L1918.24 1477.43 L1918.24 1485.58 L1913.58 1485.58 L1913.58 1477.43 L1897.98 1477.43 L1897.98 1472.92 L1912.36 1451.02 Z" fill="#000000" fill-rule="nonzero" fill-opacity="1" /><path clip-path="url(#clip040)" d="M2343.03 1451.02 L2361.39 1451.02 L2361.39 1454.96 L2347.32 1454.96 L2347.32 1463.43 Q2348.33 1463.08 2349.35 1462.92 Q2350.37 1462.73 2351.39 1462.73 Q2357.18 1462.73 2360.56 1465.9 Q2363.94 1469.08 2363.94 1474.49 Q2363.94 1480.07 2360.46 1483.17 Q2356.99 1486.25 2350.67 1486.25 Q2348.5 1486.25 2346.23 1485.88 Q2343.98 1485.51 2341.58 1484.77 L2341.58 1480.07 Q2343.66 1481.2 2345.88 1481.76 Q2348.1 1482.32 2350.58 1482.32 Q2354.58 1482.32 2356.92 1480.21 Q2359.26 1478.1 2359.26 1474.49 Q2359.26 1470.88 2356.92 1468.77 Q2354.58 1466.67 2350.58 1466.67 Q2348.71 1466.67 2346.83 1467.08 Q2344.98 1467.5 2343.03 1468.38 L2343.03 1451.02 Z" fill="#000000" fill-rule="nonzero" fill-opacity="1" /><path clip-path="url(#clip040)" d="M1246.37 1522.27 L1246.37 1532.4 L1258.43 1532.4 L1258.43 1536.95 L1246.37 1536.95 L1246.37 1556.3 Q1246.37 1560.66 1247.54 1561.9 Q1248.75 1563.14 1252.41 1563.14 L1258.43 1563.14 L1258.43 1568.04 L1252.41 1568.04 Q1245.63 1568.04 1243.06 1565.53 Q1240.48 1562.98 1240.48 1556.3 L1240.48 1536.95 L1236.18 1536.95 L1236.18 1532.4 L1240.48 1532.4 L1240.48 1522.27 L1246.37 1522.27 Z" fill="#000000" fill-rule="nonzero" fill-opacity="1" /><polyline clip-path="url(#clip040)" style="stroke:#000000; stroke-linecap:round; stroke-linejoin:round; stroke-width:4; stroke-opacity:1; fill:none" points="141.853,1423.18 141.853,47.2441 "/>
<polyline clip-path="url(#clip040)" style="stroke:#000000; stroke-linecap:round; stroke-linejoin:round; stroke-width:4; stroke-opacity:1; fill:none" points="141.853,1384.47 160.751,1384.47 "/>
<polyline clip-path="url(#clip040)" style="stroke:#000000; stroke-linecap:round; stroke-linejoin:round; stroke-width:4; stroke-opacity:1; fill:none" points="141.853,1175.72 160.751,1175.72 "/>
<polyline clip-path="url(#clip040)" style="stroke:#000000; stroke-linecap:round; stroke-linejoin:round; stroke-width:4; stroke-opacity:1; fill:none" points="141.853,966.958 160.751,966.958 "/>
<polyline clip-path="url(#clip040)" style="stroke:#000000; stroke-linecap:round; stroke-linejoin:round; stroke-width:4; stroke-opacity:1; fill:none" points="141.853,758.2 160.751,758.2 "/>
<polyline clip-path="url(#clip040)" style="stroke:#000000; stroke-linecap:round; stroke-linejoin:round; stroke-width:4; stroke-opacity:1; fill:none" points="141.853,549.443 160.751,549.443 "/>
<polyline clip-path="url(#clip040)" style="stroke:#000000; stroke-linecap:round; stroke-linejoin:round; stroke-width:4; stroke-opacity:1; fill:none" points="141.853,340.685 160.751,340.685 "/>
<polyline clip-path="url(#clip040)" style="stroke:#000000; stroke-linecap:round; stroke-linejoin:round; stroke-width:4; stroke-opacity:1; fill:none" points="141.853,131.927 160.751,131.927 "/>
<path clip-path="url(#clip040)" d="M93.9086 1370.27 Q90.2975 1370.27 88.4688 1373.84 Q86.6632 1377.38 86.6632 1384.51 Q86.6632 1391.61 88.4688 1395.18 Q90.2975 1398.72 93.9086 1398.72 Q97.5428 1398.72 99.3483 1395.18 Q101.177 1391.61 101.177 1384.51 Q101.177 1377.38 99.3483 1373.84 Q97.5428 1370.27 93.9086 1370.27 M93.9086 1366.57 Q99.7187 1366.57 102.774 1371.17 Q105.853 1375.76 105.853 1384.51 Q105.853 1393.23 102.774 1397.84 Q99.7187 1402.42 93.9086 1402.42 Q88.0984 1402.42 85.0197 1397.84 Q81.9642 1393.23 81.9642 1384.51 Q81.9642 1375.76 85.0197 1371.17 Q88.0984 1366.57 93.9086 1366.57 Z" fill="#000000" fill-rule="nonzero" fill-opacity="1" /><path clip-path="url(#clip040)" d="M54.5569 1189.06 L62.1958 1189.06 L62.1958 1162.69 L53.8856 1164.36 L53.8856 1160.1 L62.1495 1158.44 L66.8254 1158.44 L66.8254 1189.06 L74.4642 1189.06 L74.4642 1193 L54.5569 1193 L54.5569 1189.06 Z" fill="#000000" fill-rule="nonzero" fill-opacity="1" /><path clip-path="url(#clip040)" d="M93.9086 1161.51 Q90.2975 1161.51 88.4688 1165.08 Q86.6632 1168.62 86.6632 1175.75 Q86.6632 1182.86 88.4688 1186.42 Q90.2975 1189.96 93.9086 1189.96 Q97.5428 1189.96 99.3483 1186.42 Q101.177 1182.86 101.177 1175.75 Q101.177 1168.62 99.3483 1165.08 Q97.5428 1161.51 93.9086 1161.51 M93.9086 1157.81 Q99.7187 1157.81 102.774 1162.42 Q105.853 1167 105.853 1175.75 Q105.853 1184.48 102.774 1189.08 Q99.7187 1193.67 93.9086 1193.67 Q88.0984 1193.67 85.0197 1189.08 Q81.9642 1184.48 81.9642 1175.75 Q81.9642 1167 85.0197 1162.42 Q88.0984 1157.81 93.9086 1157.81 Z" fill="#000000" fill-rule="nonzero" fill-opacity="1" /><path clip-path="url(#clip040)" d="M57.7745 980.303 L74.0939 980.303 L74.0939 984.238 L52.1495 984.238 L52.1495 980.303 Q54.8115 977.548 59.3949 972.919 Q64.0013 968.266 65.1819 966.923 Q67.4272 964.4 68.3068 962.664 Q69.2096 960.905 69.2096 959.215 Q69.2096 956.46 67.2652 954.724 Q65.3439 952.988 62.2421 952.988 Q60.043 952.988 57.5893 953.752 Q55.1588 954.516 52.381 956.067 L52.381 951.345 Q55.2051 950.21 57.6588 949.632 Q60.1124 949.053 62.1495 949.053 Q67.5198 949.053 70.7142 951.738 Q73.9087 954.423 73.9087 958.914 Q73.9087 961.044 73.0985 962.965 Q72.3115 964.863 70.205 967.456 Q69.6263 968.127 66.5245 971.345 Q63.4226 974.539 57.7745 980.303 Z" fill="#000000" fill-rule="nonzero" fill-opacity="1" /><path clip-path="url(#clip040)" d="M93.9086 952.757 Q90.2975 952.757 88.4688 956.322 Q86.6632 959.863 86.6632 966.993 Q86.6632 974.099 88.4688 977.664 Q90.2975 981.206 93.9086 981.206 Q97.5428 981.206 99.3483 977.664 Q101.177 974.099 101.177 966.993 Q101.177 959.863 99.3483 956.322 Q97.5428 952.757 93.9086 952.757 M93.9086 949.053 Q99.7187 949.053 102.774 953.659 Q105.853 958.243 105.853 966.993 Q105.853 975.72 102.774 980.326 Q99.7187 984.909 93.9086 984.909 Q88.0984 984.909 85.0197 980.326 Q81.9642 975.72 81.9642 966.993 Q81.9642 958.243 85.0197 953.659 Q88.0984 949.053 93.9086 949.053 Z" fill="#000000" fill-rule="nonzero" fill-opacity="1" /><path clip-path="url(#clip040)" d="M67.9133 756.846 Q71.2698 757.564 73.1448 759.832 Q75.0429 762.101 75.0429 765.434 Q75.0429 770.55 71.5244 773.351 Q68.0059 776.152 61.5245 776.152 Q59.3486 776.152 57.0338 775.712 Q54.7421 775.295 52.2884 774.439 L52.2884 769.925 Q54.2328 771.059 56.5477 771.638 Q58.8625 772.216 61.3856 772.216 Q65.7837 772.216 68.0754 770.48 Q70.3902 768.744 70.3902 765.434 Q70.3902 762.379 68.2374 760.666 Q66.1078 758.929 62.2884 758.929 L58.2606 758.929 L58.2606 755.087 L62.4735 755.087 Q65.9226 755.087 67.7513 753.721 Q69.58 752.332 69.58 749.74 Q69.58 747.078 67.6819 745.666 Q65.8069 744.23 62.2884 744.23 Q60.3671 744.23 58.168 744.647 Q55.969 745.064 53.3301 745.943 L53.3301 741.777 Q55.9921 741.036 58.3069 740.666 Q60.6449 740.295 62.705 740.295 Q68.0291 740.295 71.1309 742.726 Q74.2327 745.133 74.2327 749.254 Q74.2327 752.124 72.5892 754.115 Q70.9457 756.082 67.9133 756.846 Z" fill="#000000" fill-rule="nonzero" fill-opacity="1" /><path clip-path="url(#clip040)" d="M93.9086 743.999 Q90.2975 743.999 88.4688 747.564 Q86.6632 751.105 86.6632 758.235 Q86.6632 765.341 88.4688 768.906 Q90.2975 772.448 93.9086 772.448 Q97.5428 772.448 99.3483 768.906 Q101.177 765.341 101.177 758.235 Q101.177 751.105 99.3483 747.564 Q97.5428 743.999 93.9086 743.999 M93.9086 740.295 Q99.7187 740.295 102.774 744.902 Q105.853 749.485 105.853 758.235 Q105.853 766.962 102.774 771.568 Q99.7187 776.152 93.9086 776.152 Q88.0984 776.152 85.0197 771.568 Q81.9642 766.962 81.9642 758.235 Q81.9642 749.485 85.0197 744.902 Q88.0984 740.295 93.9086 740.295 Z" fill="#000000" fill-rule="nonzero" fill-opacity="1" /><path clip-path="url(#clip040)" d="M66.5939 536.237 L54.7884 554.686 L66.5939 554.686 L66.5939 536.237 M65.367 532.163 L71.2466 532.163 L71.2466 554.686 L76.1772 554.686 L76.1772 558.575 L71.2466 558.575 L71.2466 566.723 L66.5939 566.723 L66.5939 558.575 L50.9921 558.575 L50.9921 554.061 L65.367 532.163 Z" fill="#000000" fill-rule="nonzero" fill-opacity="1" /><path clip-path="url(#clip040)" d="M93.9086 535.241 Q90.2975 535.241 88.4688 538.806 Q86.6632 542.348 86.6632 549.477 Q86.6632 556.584 88.4688 560.149 Q90.2975 563.69 93.9086 563.69 Q97.5428 563.69 99.3483 560.149 Q101.177 556.584 101.177 549.477 Q101.177 542.348 99.3483 538.806 Q97.5428 535.241 93.9086 535.241 M93.9086 531.538 Q99.7187 531.538 102.774 536.144 Q105.853 540.727 105.853 549.477 Q105.853 558.204 102.774 562.811 Q99.7187 567.394 93.9086 567.394 Q88.0984 567.394 85.0197 562.811 Q81.9642 558.204 81.9642 549.477 Q81.9642 540.727 85.0197 536.144 Q88.0984 531.538 93.9086 531.538 Z" fill="#000000" fill-rule="nonzero" fill-opacity="1" /><path clip-path="url(#clip040)" d="M53.793 323.405 L72.1494 323.405 L72.1494 327.34 L58.0754 327.34 L58.0754 335.812 Q59.0939 335.465 60.1124 335.303 Q61.131 335.118 62.1495 335.118 Q67.9365 335.118 71.3161 338.289 Q74.6957 341.46 74.6957 346.877 Q74.6957 352.456 71.2235 355.558 Q67.7513 358.636 61.4319 358.636 Q59.256 358.636 56.9875 358.266 Q54.7421 357.895 52.3347 357.155 L52.3347 352.456 Q54.418 353.59 56.6402 354.145 Q58.8625 354.701 61.3393 354.701 Q65.3439 354.701 67.6819 352.595 Q70.0198 350.488 70.0198 346.877 Q70.0198 343.266 67.6819 341.159 Q65.3439 339.053 61.3393 339.053 Q59.4643 339.053 57.5893 339.47 Q55.7375 339.886 53.793 340.766 L53.793 323.405 Z" fill="#000000" fill-rule="nonzero" fill-opacity="1" /><path clip-path="url(#clip040)" d="M93.9086 326.484 Q90.2975 326.484 88.4688 330.048 Q86.6632 333.59 86.6632 340.72 Q86.6632 347.826 88.4688 351.391 Q90.2975 354.933 93.9086 354.933 Q97.5428 354.933 99.3483 351.391 Q101.177 347.826 101.177 340.72 Q101.177 333.59 99.3483 330.048 Q97.5428 326.484 93.9086 326.484 M93.9086 322.78 Q99.7187 322.78 102.774 327.386 Q105.853 331.97 105.853 340.72 Q105.853 349.446 102.774 354.053 Q99.7187 358.636 93.9086 358.636 Q88.0984 358.636 85.0197 354.053 Q81.9642 349.446 81.9642 340.72 Q81.9642 331.97 85.0197 327.386 Q88.0984 322.78 93.9086 322.78 Z" fill="#000000" fill-rule="nonzero" fill-opacity="1" /><path clip-path="url(#clip040)" d="M64.3254 130.064 Q61.1773 130.064 59.3254 132.217 Q57.4967 134.369 57.4967 138.119 Q57.4967 141.846 59.3254 144.022 Q61.1773 146.175 64.3254 146.175 Q67.4735 146.175 69.3022 144.022 Q71.1541 141.846 71.1541 138.119 Q71.1541 134.369 69.3022 132.217 Q67.4735 130.064 64.3254 130.064 M73.6077 115.411 L73.6077 119.67 Q71.8485 118.837 70.0429 118.397 Q68.2606 117.957 66.5013 117.957 Q61.8717 117.957 59.418 121.082 Q56.9875 124.207 56.6402 130.527 Q58.006 128.513 60.0662 127.448 Q62.1263 126.36 64.6032 126.36 Q69.8115 126.36 72.8207 129.531 Q75.8531 132.68 75.8531 138.119 Q75.8531 143.443 72.705 146.661 Q69.5568 149.878 64.3254 149.878 Q58.33 149.878 55.1588 145.295 Q51.9875 140.689 51.9875 131.962 Q51.9875 123.768 55.8764 118.906 Q59.7652 114.022 66.3161 114.022 Q68.0754 114.022 69.8578 114.369 Q71.6633 114.717 73.6077 115.411 Z" fill="#000000" fill-rule="nonzero" fill-opacity="1" /><path clip-path="url(#clip040)" d="M93.9086 117.726 Q90.2975 117.726 88.4688 121.291 Q86.6632 124.832 86.6632 131.962 Q86.6632 139.068 88.4688 142.633 Q90.2975 146.175 93.9086 146.175 Q97.5428 146.175 99.3483 142.633 Q101.177 139.068 101.177 131.962 Q101.177 124.832 99.3483 121.291 Q97.5428 117.726 93.9086 117.726 M93.9086 114.022 Q99.7187 114.022 102.774 118.629 Q105.853 123.212 105.853 131.962 Q105.853 140.689 102.774 145.295 Q99.7187 149.878 93.9086 149.878 Q88.0984 149.878 85.0197 145.295 Q81.9642 140.689 81.9642 131.962 Q81.9642 123.212 85.0197 118.629 Q88.0984 114.022 93.9086 114.022 Z" fill="#000000" fill-rule="nonzero" fill-opacity="1" /><polyline clip-path="url(#clip042)" style="stroke:#009af9; stroke-linecap:round; stroke-linejoin:round; stroke-width:4; stroke-opacity:1; fill:none" points="141.853,1363.6 146.275,1363.6 150.697,1363.58 155.118,1363.61 159.54,1363.64 163.962,1363.61 168.384,1363.67 172.806,1363.76 177.227,1363.84 181.649,1363.92 186.071,1364.01 190.493,1364.03 194.915,1364.04 199.336,1364.05 203.758,1364.11 208.18,1364.16 212.602,1364.3 217.024,1364.48 221.445,1364.66 225.867,1364.89 230.289,1365.07 234.711,1365.24 239.133,1365.32 243.554,1365.43 247.976,1365.52 252.398,1365.64 256.82,1365.77 261.242,1366.01 265.664,1366.21 270.085,1366.42 274.507,1366.66 278.929,1366.89 283.351,1367.08 287.773,1367.31 292.194,1367.53 296.616,1367.76 301.038,1367.98 305.46,1368.21 309.882,1368.37 314.303,1368.5 318.725,1368.56 323.147,1368.69 327.569,1368.87 331.991,1369.09 336.412,1369.3 340.834,1369.55 345.256,1369.83 349.678,1370.1 354.1,1370.38 358.521,1370.66 362.943,1370.94 367.365,1371.21 371.787,1371.47 376.209,1371.73 380.63,1371.98 385.052,1372.23 389.474,1372.46 393.896,1372.69 398.318,1372.93 402.739,1373.16 407.161,1373.38 411.583,1373.6 416.005,1373.81 420.427,1374.02 424.849,1374.23 429.27,1374.43 433.692,1374.63 438.114,1374.83 442.536,1375.01 446.958,1375.19 451.379,1375.37 455.801,1375.54 460.223,1375.72 464.645,1375.89 469.067,1376.06 473.488,1376.23 477.91,1376.38 482.332,1376.52 486.754,1376.65 491.176,1376.77 495.597,1376.85 500.019,1376.95 504.441,1377.03 508.863,1377.1 513.285,1377.18 517.706,1377.27 522.128,1377.36 526.55,1377.46 530.972,1377.58 535.394,1377.7 539.815,1377.82 544.237,1377.96 548.659,1378.08 553.081,1378.21 557.503,1378.33 561.925,1378.45 566.346,1378.57 570.768,1378.69 575.19,1378.81 579.612,1378.92 584.034,1379.03 588.455,1379.13 592.877,1379.23 597.299,1379.32 601.721,1379.41 606.143,1379.49 610.564,1379.58 614.986,1379.66 619.408,1379.73 623.83,1379.8 628.252,1379.89 632.673,1379.97 637.095,1380.06 641.517,1380.13 645.939,1380.22 650.361,1380.3 654.782,1380.38 659.204,1380.46 663.626,1380.54 668.048,1380.62 672.47,1380.69 676.891,1380.77 681.313,1380.84 685.735,1380.91 690.157,1380.98 694.579,1381.05 699,1381.12 703.422,1381.19 707.844,1381.25 712.266,1381.32 716.688,1381.38 721.11,1381.43 725.531,1381.49 729.953,1381.55 734.375,1381.6 738.797,1381.64 743.219,1381.69 747.64,1381.73 752.062,1381.76 756.484,1381.8 760.906,1381.84 765.328,1381.89 769.749,1381.93 774.171,1381.98 778.593,1382.03 783.015,1382.08 787.437,1382.12 791.858,1382.17 796.28,1382.22 800.702,1382.26 805.124,1382.31 809.546,1382.35 813.967,1382.39 818.389,1382.42 822.811,1382.45 827.233,1382.49 831.655,1382.53 836.076,1382.56 840.498,1382.6 844.92,1382.63 849.342,1382.67 853.764,1382.7 858.186,1382.73 862.607,1382.76 867.029,1382.79 871.451,1382.82 875.873,1382.86 880.295,1382.89 884.716,1382.92 889.138,1382.95 893.56,1382.98 897.982,1383.01 902.404,1383.04 906.825,1383.07 911.247,1383.09 915.669,1383.12 920.091,1383.15 924.513,1383.17 928.934,1383.2 933.356,1383.22 937.778,1383.24 942.2,1383.27 946.622,1383.29 951.043,1383.31 955.465,1383.34 959.887,1383.36 964.309,1383.38 968.731,1383.4 973.152,1383.42 977.574,1383.44 981.996,1383.46 986.418,1383.48 990.84,1383.5 995.261,1383.52 999.683,1383.54 1004.11,1383.56 1008.53,1383.57 1012.95,1383.59 1017.37,1383.61 1021.79,1383.62 1026.21,1383.64 1030.64,1383.65 1035.06,1383.67 1039.48,1383.68 1043.9,1383.69 1048.32,1383.7 1052.74,1383.72 1057.17,1383.73 1061.59,1383.74 1066.01,1383.75 1070.43,1383.76 1074.85,1383.77 1079.28,1383.78 1083.7,1383.79 1088.12,1383.8 1092.54,1383.81 1096.96,1383.82 1101.38,1383.83 1105.81,1383.84 1110.23,1383.85 1114.65,1383.86 1119.07,1383.87 1123.49,1383.88 1127.92,1383.89 1132.34,1383.89 1136.76,1383.9 1141.18,1383.91 1145.6,1383.92 1150.02,1383.92 1154.45,1383.93 1158.87,1383.93 1163.29,1383.94 1167.71,1383.94 1172.13,1383.94 1176.56,1383.94 1180.98,1383.94 1185.4,1383.94 1189.82,1383.94 1194.24,1383.95 1198.66,1383.95 1203.09,1383.95 1207.51,1383.95 1211.93,1383.95 1216.35,1383.94 1220.77,1383.94 1225.2,1383.94 1229.62,1383.94 1234.04,1383.94 1238.46,1383.93 1242.88,1383.93 1247.3,1383.92 1251.73,1383.92 1256.15,1383.91 1260.57,1383.91 1264.99,1383.9 1269.41,1383.89 1273.84,1383.88 1278.26,1383.87 1282.68,1383.86 1287.1,1383.85 1291.52,1383.84 1295.94,1383.83 1300.37,1383.82 1304.79,1383.8 1309.21,1383.79 1313.63,1383.78 1318.05,1383.77 1322.48,1383.76 1326.9,1383.74 1331.32,1383.73 1335.74,1383.72 1340.16,1383.71 1344.58,1383.7 1349.01,1383.69 1353.43,1383.68 1357.85,1383.67 1362.27,1383.67 1366.69,1383.66 1371.11,1383.66 1375.54,1383.65 1379.96,1383.65 1384.38,1383.64 1388.8,1383.63 1393.22,1383.62 1397.65,1383.61 1402.07,1383.6 1406.49,1383.59 1410.91,1383.57 1415.33,1383.55 1419.75,1383.54 1424.18,1383.52 1428.6,1383.5 1433.02,1383.48 1437.44,1383.46 1441.86,1383.44 1446.29,1383.42 1450.71,1383.4 1455.13,1383.38 1459.55,1383.37 1463.97,1383.35 1468.39,1383.34 1472.82,1383.32 1477.24,1383.31 1481.66,1383.3 1486.08,1383.29 1490.5,1383.29 1494.93,1383.28 1499.35,1383.26 1503.77,1383.25 1508.19,1383.24 1512.61,1383.24 1517.03,1383.22 1521.46,1383.21 1525.88,1383.19 1530.3,1383.17 1534.72,1383.15 1539.14,1383.13 1543.57,1383.12 1547.99,1383.1 1552.41,1383.09 1556.83,1383.07 1561.25,1383.06 1565.67,1383.05 1570.1,1383.04 1574.52,1383.02 1578.94,1383.01 1583.36,1383 1587.78,1382.99 1592.21,1382.97 1596.63,1382.96 1601.05,1382.93 1605.47,1382.92 1609.89,1382.91 1614.31,1382.9 1618.74,1382.89 1623.16,1382.88 1627.58,1382.87 1632,1382.86 1636.42,1382.85 1640.85,1382.85 1645.27,1382.84 1649.69,1382.83 1654.11,1382.83 1658.53,1382.83 1662.95,1382.83 1667.38,1382.82 1671.8,1382.82 1676.22,1382.83 1680.64,1382.83 1685.06,1382.83 1689.49,1382.84 1693.91,1382.84 1698.33,1382.84 1702.75,1382.85 1707.17,1382.87 1711.59,1382.89 1716.02,1382.9 1720.44,1382.91 1724.86,1382.91 1729.28,1382.93 1733.7,1382.94 1738.12,1382.95 1742.55,1382.97 1746.97,1382.98 1751.39,1382.99 1755.81,1382.99 1760.23,1383 1764.66,1383 1769.08,1383 1773.5,1383.01 1777.92,1383.02 1782.34,1383.03 1786.76,1383.05 1791.19,1383.07 1795.61,1383.09 1800.03,1383.11 1804.45,1383.13 1808.87,1383.15 1813.3,1383.17 1817.72,1383.19 1822.14,1383.2 1826.56,1383.23 1830.98,1383.25 1835.4,1383.27 1839.83,1383.29 1844.25,1383.31 1848.67,1383.33 1853.09,1383.35 1857.51,1383.38 1861.94,1383.4 1866.36,1383.42 1870.78,1383.44 1875.2,1383.46 1879.62,1383.48 1884.04,1383.49 1888.47,1383.51 1892.89,1383.53 1897.31,1383.55 1901.73,1383.56 1906.15,1383.58 1910.58,1383.6 1915,1383.62 1919.42,1383.63 1923.84,1383.65 1928.26,1383.67 1932.68,1383.68 1937.11,1383.7 1941.53,1383.71 1945.95,1383.73 1950.37,1383.74 1954.79,1383.76 1959.22,1383.77 1963.64,1383.78 1968.06,1383.8 1972.48,1383.81 1976.9,1383.82 1981.32,1383.84 1985.75,1383.85 1990.17,1383.86 1994.59,1383.87 1999.01,1383.89 2003.43,1383.9 2007.86,1383.91 2012.28,1383.92 2016.7,1383.93 2021.12,1383.94 2025.54,1383.95 2029.96,1383.96 2034.39,1383.97 2038.81,1383.98 2043.23,1383.99 2047.65,1384 2052.07,1384.01 2056.49,1384.01 2060.92,1384.02 2065.34,1384.03 2069.76,1384.04 2074.18,1384.05 2078.6,1384.06 2083.03,1384.07 2087.45,1384.07 2091.87,1384.08 2096.29,1384.09 2100.71,1384.1 2105.13,1384.1 2109.56,1384.11 2113.98,1384.12 2118.4,1384.13 2122.82,1384.13 2127.24,1384.14 2131.67,1384.14 2136.09,1384.14 2140.51,1384.15 2144.93,1384.15 2149.35,1384.15 2153.77,1384.15 2158.2,1384.16 2162.62,1384.16 2167.04,1384.16 2171.46,1384.17 2175.88,1384.17 2180.31,1384.18 2184.73,1384.18 2189.15,1384.18 2193.57,1384.19 2197.99,1384.19 2202.41,1384.19 2206.84,1384.19 2211.26,1384.2 2215.68,1384.2 2220.1,1384.2 2224.52,1384.21 2228.95,1384.21 2233.37,1384.21 2237.79,1384.21 2242.21,1384.22 2246.63,1384.22 2251.05,1384.22 2255.48,1384.23 2259.9,1384.23 2264.32,1384.23 2268.74,1384.23 2273.16,1384.24 2277.59,1384.24 2282.01,1384.24 2286.43,1384.24 2290.85,1384.24 2295.27,1384.23 2299.69,1384.23 2304.12,1384.23 2308.54,1384.23 2312.96,1384.23 2317.38,1384.22 2321.8,1384.22 2326.23,1384.21 2330.65,1384.21 2335.07,1384.21 2339.49,1384.2 2343.91,1384.2 2348.33,1384.19 2352.76,1384.19 "/>
<polyline clip-path="url(#clip042)" style="stroke:#e26f46; stroke-linecap:round; stroke-linejoin:round; stroke-width:4; stroke-opacity:1; fill:none" points="141.853,1363.6 146.275,1364.02 150.697,1364.41 155.118,1364.79 159.54,1365.17 163.962,1365.53 168.384,1365.85 172.806,1366.15 177.227,1366.44 181.649,1366.73 186.071,1366.99 190.493,1367.22 194.915,1367.44 199.336,1367.67 203.758,1367.86 208.18,1367.96 212.602,1368.07 217.024,1368.17 221.445,1368.21 225.867,1368.26 230.289,1368.39 234.711,1368.5 239.133,1368.51 243.554,1368.5 247.976,1368.53 252.398,1368.55 256.82,1368.54 261.242,1368.5 265.664,1368.46 270.085,1368.34 274.507,1368.18 278.929,1367.95 283.351,1367.78 287.773,1367.6 292.194,1367.43 296.616,1367.24 301.038,1367.06 305.46,1366.89 309.882,1366.67 314.303,1366.4 318.725,1366.12 323.147,1365.79 327.569,1365.46 331.991,1365.1 336.412,1364.77 340.834,1364.42 345.256,1364.13 349.678,1363.91 354.1,1363.71 358.521,1363.54 362.943,1363.33 367.365,1363.1 371.787,1362.8 376.209,1362.44 380.63,1362.13 385.052,1361.98 389.474,1361.83 393.896,1361.7 398.318,1361.63 402.739,1361.59 407.161,1361.59 411.583,1361.57 416.005,1361.56 420.427,1361.57 424.849,1361.63 429.27,1361.77 433.692,1362.04 438.114,1362.33 442.536,1362.6 446.958,1362.93 451.379,1363.29 455.801,1363.52 460.223,1363.8 464.645,1364.06 469.067,1364.17 473.488,1364.29 477.91,1364.38 482.332,1364.46 486.754,1364.53 491.176,1364.47 495.597,1364.47 500.019,1364.47 504.441,1364.54 508.863,1364.6 513.285,1364.66 517.706,1364.68 522.128,1364.62 526.55,1364.49 530.972,1364.37 535.394,1364.32 539.815,1364.24 544.237,1364.17 548.659,1364.09 553.081,1363.97 557.503,1363.79 561.925,1363.53 566.346,1363.4 570.768,1363.3 575.19,1363.19 579.612,1363 584.034,1362.87 588.455,1362.74 592.877,1362.63 597.299,1362.5 601.721,1362.4 606.143,1362.27 610.564,1362.18 614.986,1362.15 619.408,1362.07 623.83,1361.99 628.252,1361.79 632.673,1361.59 637.095,1361.42 641.517,1361.23 645.939,1360.93 650.361,1360.64 654.782,1360.28 659.204,1359.85 663.626,1359.39 668.048,1358.91 672.47,1358.42 676.891,1357.91 681.313,1357.39 685.735,1356.89 690.157,1356.35 694.579,1355.81 699,1355.33 703.422,1354.87 707.844,1354.41 712.266,1353.93 716.688,1353.45 721.11,1352.89 725.531,1352.33 729.953,1351.75 734.375,1351.17 738.797,1350.56 743.219,1349.9 747.64,1349.25 752.062,1348.59 756.484,1347.92 760.906,1347.37 765.328,1346.73 769.749,1346.03 774.171,1345.3 778.593,1344.57 783.015,1343.87 787.437,1343.18 791.858,1342.5 796.28,1341.74 800.702,1340.95 805.124,1340.16 809.546,1339.29 813.967,1338.38 818.389,1337.46 822.811,1336.53 827.233,1335.6 831.655,1334.72 836.076,1333.95 840.498,1333.02 844.92,1332.19 849.342,1331.39 853.764,1330.46 858.186,1329.42 862.607,1328.43 867.029,1327.39 871.451,1326.29 875.873,1325.18 880.295,1324.06 884.716,1322.91 889.138,1321.69 893.56,1320.43 897.982,1319.16 902.404,1317.9 906.825,1316.65 911.247,1315.33 915.669,1314.02 920.091,1312.63 924.513,1311.25 928.934,1309.8 933.356,1308.31 937.778,1306.8 942.2,1305.25 946.622,1303.67 951.043,1302.08 955.465,1300.54 959.887,1298.98 964.309,1297.4 968.731,1295.76 973.152,1294.02 977.574,1292.31 981.996,1290.47 986.418,1288.61 990.84,1286.8 995.261,1285.33 999.683,1284.03 1004.11,1282.61 1008.53,1281.4 1012.95,1280.09 1017.37,1278.72 1021.79,1277.24 1026.21,1275.71 1030.64,1273.83 1035.06,1271.97 1039.48,1269.95 1043.9,1267.85 1048.32,1265.82 1052.74,1263.64 1057.17,1261.39 1061.59,1259.06 1066.01,1256.78 1070.43,1254.37 1074.85,1251.93 1079.28,1249.32 1083.7,1246.63 1088.12,1243.88 1092.54,1241.07 1096.96,1238.25 1101.38,1235.47 1105.81,1232.66 1110.23,1230.1 1114.65,1227.84 1119.07,1225.53 1123.49,1222.65 1127.92,1219.61 1132.34,1216.44 1136.76,1213.23 1141.18,1210 1145.6,1206.57 1150.02,1203.04 1154.45,1199.41 1158.87,1195.72 1163.29,1192.31 1167.71,1189.58 1172.13,1186.91 1176.56,1184.66 1180.98,1181.63 1185.4,1178.25 1189.82,1174.61 1194.24,1171.74 1198.66,1169.36 1203.09,1166.93 1207.51,1164.03 1211.93,1161.11 1216.35,1157.89 1220.77,1155.22 1225.2,1153.27 1229.62,1151.1 1234.04,1148.91 1238.46,1146.08 1242.88,1142.55 1247.3,1138.66 1251.73,1134.73 1256.15,1130.83 1260.57,1126.99 1264.99,1123.16 1269.41,1118.92 1273.84,1114.13 1278.26,1109.32 1282.68,1104.45 1287.1,1099.81 1291.52,1095.41 1295.94,1090.94 1300.37,1086.61 1304.79,1081.75 1309.21,1077.31 1313.63,1072.47 1318.05,1067.68 1322.48,1063.62 1326.9,1058.38 1331.32,1054.12 1335.74,1050.13 1340.16,1046.34 1344.58,1043.17 1349.01,1039.22 1353.43,1034.84 1357.85,1029.25 1362.27,1024.48 1366.69,1019.46 1371.11,1015.39 1375.54,1011.45 1379.96,1006.82 1384.38,1001.83 1388.8,997.03 1393.22,991.824 1397.65,987.643 1402.07,982.519 1406.49,977.136 1410.91,971.757 1415.33,967.215 1419.75,962.342 1424.18,957.503 1428.6,953.226 1433.02,951.269 1437.44,949.798 1441.86,947.347 1446.29,947.096 1450.71,945.577 1455.13,943.737 1459.55,940.688 1463.97,938.728 1468.39,937.078 1472.82,935.644 1477.24,934.601 1481.66,932.787 1486.08,929.931 1490.5,927.442 1494.93,923.803 1499.35,923.8 1503.77,924.157 1508.19,924.572 1512.61,922.707 1517.03,919.272 1521.46,915.293 1525.88,911.181 1530.3,909.439 1534.72,906.673 1539.14,903.508 1543.57,898.841 1547.99,892.257 1552.41,884.538 1556.83,876.75 1561.25,867.269 1565.67,858.044 1570.1,847.701 1574.52,837.445 1578.94,826.706 1583.36,816.094 1587.78,804.728 1592.21,793.54 1596.63,782.087 1601.05,770.459 1605.47,758.216 1609.89,745.693 1614.31,732.962 1618.74,720.41 1623.16,707.777 1627.58,694.521 1632,680.927 1636.42,666.976 1640.85,652.807 1645.27,638.516 1649.69,623.613 1654.11,608.875 1658.53,593.706 1662.95,578.619 1667.38,563.52 1671.8,547.665 1676.22,532.057 1680.64,515.609 1685.06,499.241 1689.49,483.355 1693.91,466.433 1698.33,450.356 1702.75,435.21 1707.17,420.227 1711.59,405.263 1716.02,390.447 1720.44,377.487 1724.86,362.6 1729.28,351.364 1733.7,340.673 1738.12,329.904 1742.55,319.736 1746.97,311.23 1751.39,306.895 1755.81,303.575 1760.23,303.051 1764.66,304.864 1769.08,301.159 1773.5,296.242 1777.92,293.575 1782.34,289.247 1786.76,287.95 1791.19,289.201 1795.61,291.002 1800.03,291.882 1804.45,291.487 1808.87,292.8 1813.3,294.591 1817.72,297.859 1822.14,303.015 1826.56,307.976 1830.98,317.806 1835.4,328.427 1839.83,338.311 1844.25,346.406 1848.67,355.001 1853.09,362.158 1857.51,365.624 1861.94,364.565 1866.36,363.582 1870.78,361.2 1875.2,357.254 1879.62,352.615 1884.04,343.947 1888.47,336.875 1892.89,328.979 1897.31,322.042 1901.73,315.608 1906.15,304.065 1910.58,295.285 1915,286.768 1919.42,274.15 1923.84,261.701 1928.26,251.484 1932.68,242.277 1937.11,236.639 1941.53,228.303 1945.95,219.991 1950.37,210.903 1954.79,203.666 1959.22,193.25 1963.64,177.629 1968.06,163.933 1972.48,150.32 1976.9,137.494 1981.32,124.416 1985.75,110.107 1990.17,100.668 1994.59,89.9014 1999.01,86.1857 2003.43,95.6854 2007.86,105.759 2012.28,116.677 2016.7,131.076 2021.12,142.398 2025.54,153.459 2029.96,162.745 2034.39,176.6 2038.81,187.073 2043.23,199.103 2047.65,216.041 2052.07,230.205 2056.49,244.495 2060.92,255.288 2065.34,267.425 2069.76,280.234 2074.18,296.178 2078.6,312.04 2083.03,327.46 2087.45,341.373 2091.87,356.651 2096.29,375.507 2100.71,391.733 2105.13,407.546 2109.56,419.987 2113.98,433.134 2118.4,443.795 2122.82,452.058 2127.24,457.305 2131.67,463.507 2136.09,466.805 2140.51,472.629 2144.93,480.057 2149.35,487.834 2153.77,495.796 2158.2,504.268 2162.62,508.226 2167.04,515.574 2171.46,522.289 2175.88,525.713 2180.31,529.347 2184.73,529.833 2189.15,526.956 2193.57,523.952 2197.99,516.625 2202.41,512.769 2206.84,506.916 2211.26,500.558 2215.68,492.014 2220.1,485.873 2224.52,475.743 2228.95,465.727 2233.37,455.026 2237.79,446.012 2242.21,434.931 2246.63,424.444 2251.05,415.387 2255.48,407.93 2259.9,399.853 2264.32,391.531 2268.74,381.129 2273.16,369.42 2277.59,356.689 2282.01,344.603 2286.43,329.828 2290.85,312.242 2295.27,293.236 2299.69,278.374 2304.12,263.668 2308.54,250.432 2312.96,239.153 2317.38,228.452 2321.8,219.131 2326.23,207.456 2330.65,193.792 2335.07,178.278 2339.49,160.757 2343.91,139.907 2348.33,118.511 2352.76,99.3924 "/>
<path clip-path="url(#clip040)" d="M215.55 248.629 L525.737 248.629 L525.737 93.1086 L215.55 93.1086  Z" fill="#ffffff" fill-rule="evenodd" fill-opacity="1"/>
<polyline clip-path="url(#clip040)" style="stroke:#000000; stroke-linecap:round; stroke-linejoin:round; stroke-width:4; stroke-opacity:1; fill:none" points="215.55,248.629 525.737,248.629 525.737,93.1086 215.55,93.1086 215.55,248.629 "/>
<polyline clip-path="url(#clip040)" style="stroke:#009af9; stroke-linecap:round; stroke-linejoin:round; stroke-width:4; stroke-opacity:1; fill:none" points="240.115,144.949 387.509,144.949 "/>
<path clip-path="url(#clip040)" d="M412.074 151.997 L412.074 136.303 L416.334 136.303 L416.334 151.835 Q416.334 155.516 417.769 157.368 Q419.204 159.196 422.074 159.196 Q425.523 159.196 427.514 156.997 Q429.528 154.798 429.528 151.002 L429.528 136.303 L433.787 136.303 L433.787 162.229 L429.528 162.229 L429.528 158.247 Q427.977 160.608 425.917 161.766 Q423.88 162.9 421.172 162.9 Q416.704 162.9 414.389 160.122 Q412.074 157.344 412.074 151.997 M422.792 135.678 L422.792 135.678 Z" fill="#000000" fill-rule="nonzero" fill-opacity="1" /><path clip-path="url(#clip040)" d="M442.167 126.21 L451.982 126.21 L451.982 129.52 L446.426 129.52 L446.426 165.168 L451.982 165.168 L451.982 168.479 L442.167 168.479 L442.167 126.21 Z" fill="#000000" fill-rule="nonzero" fill-opacity="1" /><path clip-path="url(#clip040)" d="M462.468 158.293 L470.107 158.293 L470.107 131.928 L461.796 133.595 L461.796 129.335 L470.06 127.669 L474.736 127.669 L474.736 158.293 L482.375 158.293 L482.375 162.229 L462.468 162.229 L462.468 158.293 Z" fill="#000000" fill-rule="nonzero" fill-opacity="1" /><path clip-path="url(#clip040)" d="M501.171 126.21 L501.171 168.479 L491.356 168.479 L491.356 165.168 L496.889 165.168 L496.889 129.52 L491.356 129.52 L491.356 126.21 L501.171 126.21 Z" fill="#000000" fill-rule="nonzero" fill-opacity="1" /><polyline clip-path="url(#clip040)" style="stroke:#e26f46; stroke-linecap:round; stroke-linejoin:round; stroke-width:4; stroke-opacity:1; fill:none" points="240.115,196.789 387.509,196.789 "/>
<path clip-path="url(#clip040)" d="M412.074 203.837 L412.074 188.143 L416.334 188.143 L416.334 203.675 Q416.334 207.356 417.769 209.208 Q419.204 211.036 422.074 211.036 Q425.523 211.036 427.514 208.837 Q429.528 206.638 429.528 202.842 L429.528 188.143 L433.787 188.143 L433.787 214.069 L429.528 214.069 L429.528 210.087 Q427.977 212.448 425.917 213.606 Q423.88 214.74 421.172 214.74 Q416.704 214.74 414.389 211.962 Q412.074 209.184 412.074 203.837 M422.792 187.518 L422.792 187.518 Z" fill="#000000" fill-rule="nonzero" fill-opacity="1" /><path clip-path="url(#clip040)" d="M442.167 178.05 L451.982 178.05 L451.982 181.36 L446.426 181.36 L446.426 217.008 L451.982 217.008 L451.982 220.319 L442.167 220.319 L442.167 178.05 Z" fill="#000000" fill-rule="nonzero" fill-opacity="1" /><path clip-path="url(#clip040)" d="M465.685 210.133 L482.005 210.133 L482.005 214.069 L460.06 214.069 L460.06 210.133 Q462.722 207.379 467.306 202.749 Q471.912 198.096 473.093 196.754 Q475.338 194.231 476.218 192.495 Q477.12 190.735 477.12 189.046 Q477.12 186.291 475.176 184.555 Q473.255 182.819 470.153 182.819 Q467.954 182.819 465.5 183.583 Q463.07 184.347 460.292 185.897 L460.292 181.175 Q463.116 180.041 465.57 179.462 Q468.023 178.884 470.06 178.884 Q475.431 178.884 478.625 181.569 Q481.819 184.254 481.819 188.745 Q481.819 190.874 481.009 192.796 Q480.222 194.694 478.116 197.286 Q477.537 197.958 474.435 201.175 Q471.333 204.37 465.685 210.133 Z" fill="#000000" fill-rule="nonzero" fill-opacity="1" /><path clip-path="url(#clip040)" d="M501.171 178.05 L501.171 220.319 L491.356 220.319 L491.356 217.008 L496.889 217.008 L496.889 181.36 L491.356 181.36 L491.356 178.05 L501.171 178.05 Z" fill="#000000" fill-rule="nonzero" fill-opacity="1" /></svg>
