<?xml version="1.0" encoding="utf-8"?>
<svg xmlns="http://www.w3.org/2000/svg" xmlns:xlink="http://www.w3.org/1999/xlink" width="600" height="400" viewBox="0 0 2400 1600">
<defs>
  <clipPath id="clip980">
    <rect x="0" y="0" width="2400" height="1600"/>
  </clipPath>
</defs>
<path clip-path="url(#clip980)" d="M0 1600 L2400 1600 L2400 0 L0 0  Z" fill="#ffffff" fill-rule="evenodd" fill-opacity="1"/>
<defs>
  <clipPath id="clip981">
    <rect x="480" y="0" width="1681" height="1600"/>
  </clipPath>
</defs>
<path clip-path="url(#clip980)" d="M186.274 1423.18 L2352.76 1423.18 L2352.76 47.2441 L186.274 47.2441  Z" fill="#ffffff" fill-rule="evenodd" fill-opacity="1"/>
<defs>
  <clipPath id="clip982">
    <rect x="186" y="47" width="2167" height="1377"/>
  </clipPath>
</defs>
<polyline clip-path="url(#clip982)" style="stroke:#000000; stroke-linecap:round; stroke-linejoin:round; stroke-width:2; stroke-opacity:0.1; fill:none" points="186.274,1423.18 186.274,47.2441 "/>
<polyline clip-path="url(#clip982)" style="stroke:#000000; stroke-linecap:round; stroke-linejoin:round; stroke-width:2; stroke-opacity:0.1; fill:none" points="619.57,1423.18 619.57,47.2441 "/>
<polyline clip-path="url(#clip982)" style="stroke:#000000; stroke-linecap:round; stroke-linejoin:round; stroke-width:2; stroke-opacity:0.1; fill:none" points="1052.87,1423.18 1052.87,47.2441 "/>
<polyline clip-path="url(#clip982)" style="stroke:#000000; stroke-linecap:round; stroke-linejoin:round; stroke-width:2; stroke-opacity:0.1; fill:none" points="1486.16,1423.18 1486.16,47.2441 "/>
<polyline clip-path="url(#clip982)" style="stroke:#000000; stroke-linecap:round; stroke-linejoin:round; stroke-width:2; stroke-opacity:0.1; fill:none" points="1919.46,1423.18 1919.46,47.2441 "/>
<polyline clip-path="url(#clip982)" style="stroke:#000000; stroke-linecap:round; stroke-linejoin:round; stroke-width:2; stroke-opacity:0.1; fill:none" points="2352.76,1423.18 2352.76,47.2441 "/>
<polyline clip-path="url(#clip982)" style="stroke:#000000; stroke-linecap:round; stroke-linejoin:round; stroke-width:2; stroke-opacity:0.1; fill:none" points="186.274,1400.83 2352.76,1400.83 "/>
<polyline clip-path="url(#clip982)" style="stroke:#000000; stroke-linecap:round; stroke-linejoin:round; stroke-width:2; stroke-opacity:0.1; fill:none" points="186.274,1113.65 2352.76,1113.65 "/>
<polyline clip-path="url(#clip982)" style="stroke:#000000; stroke-linecap:round; stroke-linejoin:round; stroke-width:2; stroke-opacity:0.1; fill:none" points="186.274,826.466 2352.76,826.466 "/>
<polyline clip-path="url(#clip982)" style="stroke:#000000; stroke-linecap:round; stroke-linejoin:round; stroke-width:2; stroke-opacity:0.1; fill:none" points="186.274,539.284 2352.76,539.284 "/>
<polyline clip-path="url(#clip982)" style="stroke:#000000; stroke-linecap:round; stroke-linejoin:round; stroke-width:2; stroke-opacity:0.1; fill:none" points="186.274,252.102 2352.76,252.102 "/>
<polyline clip-path="url(#clip980)" style="stroke:#000000; stroke-linecap:round; stroke-linejoin:round; stroke-width:4; stroke-opacity:1; fill:none" points="186.274,1423.18 2352.76,1423.18 "/>
<polyline clip-path="url(#clip980)" style="stroke:#000000; stroke-linecap:round; stroke-linejoin:round; stroke-width:4; stroke-opacity:1; fill:none" points="186.274,1423.18 186.274,1404.28 "/>
<polyline clip-path="url(#clip980)" style="stroke:#000000; stroke-linecap:round; stroke-linejoin:round; stroke-width:4; stroke-opacity:1; fill:none" points="619.57,1423.18 619.57,1404.28 "/>
<polyline clip-path="url(#clip980)" style="stroke:#000000; stroke-linecap:round; stroke-linejoin:round; stroke-width:4; stroke-opacity:1; fill:none" points="1052.87,1423.18 1052.87,1404.28 "/>
<polyline clip-path="url(#clip980)" style="stroke:#000000; stroke-linecap:round; stroke-linejoin:round; stroke-width:4; stroke-opacity:1; fill:none" points="1486.16,1423.18 1486.16,1404.28 "/>
<polyline clip-path="url(#clip980)" style="stroke:#000000; stroke-linecap:round; stroke-linejoin:round; stroke-width:4; stroke-opacity:1; fill:none" points="1919.46,1423.18 1919.46,1404.28 "/>
<polyline clip-path="url(#clip980)" style="stroke:#000000; stroke-linecap:round; stroke-linejoin:round; stroke-width:4; stroke-opacity:1; fill:none" points="2352.76,1423.18 2352.76,1404.28 "/>
<path clip-path="url(#clip980)" d="M186.274 1454.1 Q182.663 1454.1 180.834 1457.66 Q179.029 1461.2 179.029 1468.33 Q179.029 1475.44 180.834 1479.01 Q182.663 1482.55 186.274 1482.55 Q189.908 1482.55 191.714 1479.01 Q193.542 1475.44 193.542 1468.33 Q193.542 1461.2 191.714 1457.66 Q189.908 1454.1 186.274 1454.1 M186.274 1450.39 Q192.084 1450.39 195.14 1455 Q198.218 1459.58 198.218 1468.33 Q198.218 1477.06 195.14 1481.67 Q192.084 1486.25 186.274 1486.25 Q180.464 1486.25 177.385 1481.67 Q174.33 1477.06 174.33 1468.33 Q174.33 1459.58 177.385 1455 Q180.464 1450.39 186.274 1450.39 Z" fill="#000000" fill-rule="nonzero" fill-opacity="1" /><path clip-path="url(#clip980)" d="M609.952 1481.64 L617.591 1481.64 L617.591 1455.28 L609.281 1456.95 L609.281 1452.69 L617.545 1451.02 L622.221 1451.02 L622.221 1481.64 L629.86 1481.64 L629.86 1485.58 L609.952 1485.58 L609.952 1481.64 Z" fill="#000000" fill-rule="nonzero" fill-opacity="1" /><path clip-path="url(#clip980)" d="M1047.52 1481.64 L1063.84 1481.64 L1063.84 1485.58 L1041.89 1485.58 L1041.89 1481.64 Q1044.56 1478.89 1049.14 1474.26 Q1053.75 1469.61 1054.93 1468.27 Q1057.17 1465.74 1058.05 1464.01 Q1058.95 1462.25 1058.95 1460.56 Q1058.95 1457.8 1057.01 1456.07 Q1055.09 1454.33 1051.99 1454.33 Q1049.79 1454.33 1047.33 1455.09 Q1044.9 1455.86 1042.13 1457.41 L1042.13 1452.69 Q1044.95 1451.55 1047.4 1450.97 Q1049.86 1450.39 1051.89 1450.39 Q1057.26 1450.39 1060.46 1453.08 Q1063.65 1455.77 1063.65 1460.26 Q1063.65 1462.39 1062.84 1464.31 Q1062.06 1466.2 1059.95 1468.8 Q1059.37 1469.47 1056.27 1472.69 Q1053.17 1475.88 1047.52 1481.64 Z" fill="#000000" fill-rule="nonzero" fill-opacity="1" /><path clip-path="url(#clip980)" d="M1490.41 1466.95 Q1493.77 1467.66 1495.64 1469.93 Q1497.54 1472.2 1497.54 1475.53 Q1497.54 1480.65 1494.02 1483.45 Q1490.5 1486.25 1484.02 1486.25 Q1481.85 1486.25 1479.53 1485.81 Q1477.24 1485.39 1474.79 1484.54 L1474.79 1480.02 Q1476.73 1481.16 1479.05 1481.74 Q1481.36 1482.32 1483.88 1482.32 Q1488.28 1482.32 1490.57 1480.58 Q1492.89 1478.84 1492.89 1475.53 Q1492.89 1472.48 1490.73 1470.77 Q1488.61 1469.03 1484.79 1469.03 L1480.76 1469.03 L1480.76 1465.19 L1484.97 1465.19 Q1488.42 1465.19 1490.25 1463.82 Q1492.08 1462.43 1492.08 1459.84 Q1492.08 1457.18 1490.18 1455.77 Q1488.3 1454.33 1484.79 1454.33 Q1482.86 1454.33 1480.67 1454.75 Q1478.47 1455.16 1475.83 1456.04 L1475.83 1451.88 Q1478.49 1451.14 1480.8 1450.77 Q1483.14 1450.39 1485.2 1450.39 Q1490.53 1450.39 1493.63 1452.83 Q1496.73 1455.23 1496.73 1459.35 Q1496.73 1462.22 1495.09 1464.21 Q1493.44 1466.18 1490.41 1466.95 Z" fill="#000000" fill-rule="nonzero" fill-opacity="1" /><path clip-path="url(#clip980)" d="M1922.47 1455.09 L1910.66 1473.54 L1922.47 1473.54 L1922.47 1455.09 M1921.24 1451.02 L1927.12 1451.02 L1927.12 1473.54 L1932.05 1473.54 L1932.05 1477.43 L1927.12 1477.43 L1927.12 1485.58 L1922.47 1485.58 L1922.47 1477.43 L1906.87 1477.43 L1906.87 1472.92 L1921.24 1451.02 Z" fill="#000000" fill-rule="nonzero" fill-opacity="1" /><path clip-path="url(#clip980)" d="M2343.03 1451.02 L2361.39 1451.02 L2361.39 1454.96 L2347.32 1454.96 L2347.32 1463.43 Q2348.33 1463.08 2349.35 1462.92 Q2350.37 1462.73 2351.39 1462.73 Q2357.18 1462.73 2360.56 1465.9 Q2363.94 1469.08 2363.94 1474.49 Q2363.94 1480.07 2360.46 1483.17 Q2356.99 1486.25 2350.67 1486.25 Q2348.5 1486.25 2346.23 1485.88 Q2343.98 1485.51 2341.58 1484.77 L2341.58 1480.07 Q2343.66 1481.2 2345.88 1481.76 Q2348.1 1482.32 2350.58 1482.32 Q2354.58 1482.32 2356.92 1480.21 Q2359.26 1478.1 2359.26 1474.49 Q2359.26 1470.88 2356.92 1468.77 Q2354.58 1466.67 2350.58 1466.67 Q2348.71 1466.67 2346.83 1467.08 Q2344.98 1467.5 2343.03 1468.38 L2343.03 1451.02 Z" fill="#000000" fill-rule="nonzero" fill-opacity="1" /><path clip-path="url(#clip980)" d="M1268.58 1522.27 L1268.58 1532.4 L1280.64 1532.4 L1280.64 1536.95 L1268.58 1536.95 L1268.58 1556.3 Q1268.58 1560.66 1269.75 1561.9 Q1270.96 1563.14 1274.62 1563.14 L1280.64 1563.14 L1280.64 1568.04 L1274.62 1568.04 Q1267.84 1568.04 1265.27 1565.53 Q1262.69 1562.98 1262.69 1556.3 L1262.69 1536.95 L1258.39 1536.95 L1258.39 1532.4 L1262.69 1532.4 L1262.69 1522.27 L1268.58 1522.27 Z" fill="#000000" fill-rule="nonzero" fill-opacity="1" /><polyline clip-path="url(#clip980)" style="stroke:#000000; stroke-linecap:round; stroke-linejoin:round; stroke-width:4; stroke-opacity:1; fill:none" points="186.274,1423.18 186.274,47.2441 "/>
<polyline clip-path="url(#clip980)" style="stroke:#000000; stroke-linecap:round; stroke-linejoin:round; stroke-width:4; stroke-opacity:1; fill:none" points="186.274,1400.83 205.172,1400.83 "/>
<polyline clip-path="url(#clip980)" style="stroke:#000000; stroke-linecap:round; stroke-linejoin:round; stroke-width:4; stroke-opacity:1; fill:none" points="186.274,1113.65 205.172,1113.65 "/>
<polyline clip-path="url(#clip980)" style="stroke:#000000; stroke-linecap:round; stroke-linejoin:round; stroke-width:4; stroke-opacity:1; fill:none" points="186.274,826.466 205.172,826.466 "/>
<polyline clip-path="url(#clip980)" style="stroke:#000000; stroke-linecap:round; stroke-linejoin:round; stroke-width:4; stroke-opacity:1; fill:none" points="186.274,539.284 205.172,539.284 "/>
<polyline clip-path="url(#clip980)" style="stroke:#000000; stroke-linecap:round; stroke-linejoin:round; stroke-width:4; stroke-opacity:1; fill:none" points="186.274,252.102 205.172,252.102 "/>
<path clip-path="url(#clip980)" d="M62.9365 1386.63 Q59.3254 1386.63 57.4967 1390.19 Q55.6912 1393.74 55.6912 1400.87 Q55.6912 1407.97 57.4967 1411.54 Q59.3254 1415.08 62.9365 1415.08 Q66.5707 1415.08 68.3763 1411.54 Q70.205 1407.97 70.205 1400.87 Q70.205 1393.74 68.3763 1390.19 Q66.5707 1386.63 62.9365 1386.63 M62.9365 1382.93 Q68.7467 1382.93 71.8022 1387.53 Q74.8809 1392.12 74.8809 1400.87 Q74.8809 1409.59 71.8022 1414.2 Q68.7467 1418.78 62.9365 1418.78 Q57.1264 1418.78 54.0477 1414.2 Q50.9921 1409.59 50.9921 1400.87 Q50.9921 1392.12 54.0477 1387.53 Q57.1264 1382.93 62.9365 1382.93 Z" fill="#000000" fill-rule="nonzero" fill-opacity="1" /><path clip-path="url(#clip980)" d="M83.0984 1412.23 L87.9827 1412.23 L87.9827 1418.11 L83.0984 1418.11 L83.0984 1412.23 Z" fill="#000000" fill-rule="nonzero" fill-opacity="1" /><path clip-path="url(#clip980)" d="M108.168 1386.63 Q104.557 1386.63 102.728 1390.19 Q100.922 1393.74 100.922 1400.87 Q100.922 1407.97 102.728 1411.54 Q104.557 1415.08 108.168 1415.08 Q111.802 1415.08 113.608 1411.54 Q115.436 1407.97 115.436 1400.87 Q115.436 1393.74 113.608 1390.19 Q111.802 1386.63 108.168 1386.63 M108.168 1382.93 Q113.978 1382.93 117.033 1387.53 Q120.112 1392.12 120.112 1400.87 Q120.112 1409.59 117.033 1414.2 Q113.978 1418.78 108.168 1418.78 Q102.358 1418.78 99.2789 1414.2 Q96.2234 1409.59 96.2234 1400.87 Q96.2234 1392.12 99.2789 1387.53 Q102.358 1382.93 108.168 1382.93 Z" fill="#000000" fill-rule="nonzero" fill-opacity="1" /><path clip-path="url(#clip980)" d="M138.33 1386.63 Q134.719 1386.63 132.89 1390.19 Q131.084 1393.74 131.084 1400.87 Q131.084 1407.97 132.89 1411.54 Q134.719 1415.08 138.33 1415.08 Q141.964 1415.08 143.769 1411.54 Q145.598 1407.97 145.598 1400.87 Q145.598 1393.74 143.769 1390.19 Q141.964 1386.63 138.33 1386.63 M138.33 1382.93 Q144.14 1382.93 147.195 1387.53 Q150.274 1392.12 150.274 1400.87 Q150.274 1409.59 147.195 1414.2 Q144.14 1418.78 138.33 1418.78 Q132.519 1418.78 129.441 1414.2 Q126.385 1409.59 126.385 1400.87 Q126.385 1392.12 129.441 1387.53 Q132.519 1382.93 138.33 1382.93 Z" fill="#000000" fill-rule="nonzero" fill-opacity="1" /><path clip-path="url(#clip980)" d="M63.9319 1099.45 Q60.3208 1099.45 58.4921 1103.01 Q56.6865 1106.55 56.6865 1113.68 Q56.6865 1120.79 58.4921 1124.35 Q60.3208 1127.9 63.9319 1127.9 Q67.5661 1127.9 69.3717 1124.35 Q71.2004 1120.79 71.2004 1113.68 Q71.2004 1106.55 69.3717 1103.01 Q67.5661 1099.45 63.9319 1099.45 M63.9319 1095.74 Q69.742 1095.74 72.7976 1100.35 Q75.8763 1104.93 75.8763 1113.68 Q75.8763 1122.41 72.7976 1127.02 Q69.742 1131.6 63.9319 1131.6 Q58.1217 1131.6 55.043 1127.02 Q51.9875 1122.41 51.9875 1113.68 Q51.9875 1104.93 55.043 1100.35 Q58.1217 1095.74 63.9319 1095.74 Z" fill="#000000" fill-rule="nonzero" fill-opacity="1" /><path clip-path="url(#clip980)" d="M84.0938 1125.05 L88.978 1125.05 L88.978 1130.93 L84.0938 1130.93 L84.0938 1125.05 Z" fill="#000000" fill-rule="nonzero" fill-opacity="1" /><path clip-path="url(#clip980)" d="M103.191 1126.99 L119.51 1126.99 L119.51 1130.93 L97.566 1130.93 L97.566 1126.99 Q100.228 1124.24 104.811 1119.61 Q109.418 1114.96 110.598 1113.61 Q112.844 1111.09 113.723 1109.35 Q114.626 1107.6 114.626 1105.91 Q114.626 1103.15 112.682 1101.41 Q110.76 1099.68 107.658 1099.68 Q105.459 1099.68 103.006 1100.44 Q100.575 1101.21 97.7974 1102.76 L97.7974 1098.04 Q100.621 1096.9 103.075 1096.32 Q105.529 1095.74 107.566 1095.74 Q112.936 1095.74 116.131 1098.43 Q119.325 1101.11 119.325 1105.6 Q119.325 1107.73 118.515 1109.66 Q117.728 1111.55 115.621 1114.15 Q115.043 1114.82 111.941 1118.04 Q108.839 1121.23 103.191 1126.99 Z" fill="#000000" fill-rule="nonzero" fill-opacity="1" /><path clip-path="url(#clip980)" d="M129.371 1096.37 L147.728 1096.37 L147.728 1100.3 L133.654 1100.3 L133.654 1108.78 Q134.672 1108.43 135.691 1108.27 Q136.709 1108.08 137.728 1108.08 Q143.515 1108.08 146.894 1111.25 Q150.274 1114.42 150.274 1119.84 Q150.274 1125.42 146.802 1128.52 Q143.33 1131.6 137.01 1131.6 Q134.834 1131.6 132.566 1131.23 Q130.32 1130.86 127.913 1130.12 L127.913 1125.42 Q129.996 1126.55 132.219 1127.11 Q134.441 1127.66 136.918 1127.66 Q140.922 1127.66 143.26 1125.56 Q145.598 1123.45 145.598 1119.84 Q145.598 1116.23 143.26 1114.12 Q140.922 1112.02 136.918 1112.02 Q135.043 1112.02 133.168 1112.43 Q131.316 1112.85 129.371 1113.73 L129.371 1096.37 Z" fill="#000000" fill-rule="nonzero" fill-opacity="1" /><path clip-path="url(#clip980)" d="M62.9365 812.265 Q59.3254 812.265 57.4967 815.83 Q55.6912 819.371 55.6912 826.501 Q55.6912 833.607 57.4967 837.172 Q59.3254 840.714 62.9365 840.714 Q66.5707 840.714 68.3763 837.172 Q70.205 833.607 70.205 826.501 Q70.205 819.371 68.3763 815.83 Q66.5707 812.265 62.9365 812.265 M62.9365 808.561 Q68.7467 808.561 71.8022 813.168 Q74.8809 817.751 74.8809 826.501 Q74.8809 835.228 71.8022 839.834 Q68.7467 844.418 62.9365 844.418 Q57.1264 844.418 54.0477 839.834 Q50.9921 835.228 50.9921 826.501 Q50.9921 817.751 54.0477 813.168 Q57.1264 808.561 62.9365 808.561 Z" fill="#000000" fill-rule="nonzero" fill-opacity="1" /><path clip-path="url(#clip980)" d="M83.0984 837.867 L87.9827 837.867 L87.9827 843.746 L83.0984 843.746 L83.0984 837.867 Z" fill="#000000" fill-rule="nonzero" fill-opacity="1" /><path clip-path="url(#clip980)" d="M98.2141 809.186 L116.57 809.186 L116.57 813.121 L102.496 813.121 L102.496 821.594 Q103.515 821.246 104.534 821.084 Q105.552 820.899 106.571 820.899 Q112.358 820.899 115.737 824.07 Q119.117 827.242 119.117 832.658 Q119.117 838.237 115.645 841.339 Q112.172 844.418 105.853 844.418 Q103.677 844.418 101.409 844.047 Q99.1632 843.677 96.7558 842.936 L96.7558 838.237 Q98.8391 839.371 101.061 839.927 Q103.284 840.482 105.76 840.482 Q109.765 840.482 112.103 838.376 Q114.441 836.269 114.441 832.658 Q114.441 829.047 112.103 826.941 Q109.765 824.834 105.76 824.834 Q103.885 824.834 102.01 825.251 Q100.159 825.668 98.2141 826.547 L98.2141 809.186 Z" fill="#000000" fill-rule="nonzero" fill-opacity="1" /><path clip-path="url(#clip980)" d="M138.33 812.265 Q134.719 812.265 132.89 815.83 Q131.084 819.371 131.084 826.501 Q131.084 833.607 132.89 837.172 Q134.719 840.714 138.33 840.714 Q141.964 840.714 143.769 837.172 Q145.598 833.607 145.598 826.501 Q145.598 819.371 143.769 815.83 Q141.964 812.265 138.33 812.265 M138.33 808.561 Q144.14 808.561 147.195 813.168 Q150.274 817.751 150.274 826.501 Q150.274 835.228 147.195 839.834 Q144.14 844.418 138.33 844.418 Q132.519 844.418 129.441 839.834 Q126.385 835.228 126.385 826.501 Q126.385 817.751 129.441 813.168 Q132.519 808.561 138.33 808.561 Z" fill="#000000" fill-rule="nonzero" fill-opacity="1" /><path clip-path="url(#clip980)" d="M63.9319 525.083 Q60.3208 525.083 58.4921 528.647 Q56.6865 532.189 56.6865 539.319 Q56.6865 546.425 58.4921 549.99 Q60.3208 553.532 63.9319 553.532 Q67.5661 553.532 69.3717 549.99 Q71.2004 546.425 71.2004 539.319 Q71.2004 532.189 69.3717 528.647 Q67.5661 525.083 63.9319 525.083 M63.9319 521.379 Q69.742 521.379 72.7976 525.985 Q75.8763 530.569 75.8763 539.319 Q75.8763 548.045 72.7976 552.652 Q69.742 557.235 63.9319 557.235 Q58.1217 557.235 55.043 552.652 Q51.9875 548.045 51.9875 539.319 Q51.9875 530.569 55.043 525.985 Q58.1217 521.379 63.9319 521.379 Z" fill="#000000" fill-rule="nonzero" fill-opacity="1" /><path clip-path="url(#clip980)" d="M84.0938 550.684 L88.978 550.684 L88.978 556.564 L84.0938 556.564 L84.0938 550.684 Z" fill="#000000" fill-rule="nonzero" fill-opacity="1" /><path clip-path="url(#clip980)" d="M97.9826 522.004 L120.205 522.004 L120.205 523.995 L107.658 556.564 L102.774 556.564 L114.58 525.939 L97.9826 525.939 L97.9826 522.004 Z" fill="#000000" fill-rule="nonzero" fill-opacity="1" /><path clip-path="url(#clip980)" d="M129.371 522.004 L147.728 522.004 L147.728 525.939 L133.654 525.939 L133.654 534.411 Q134.672 534.064 135.691 533.902 Q136.709 533.717 137.728 533.717 Q143.515 533.717 146.894 536.888 Q150.274 540.059 150.274 545.476 Q150.274 551.055 146.802 554.156 Q143.33 557.235 137.01 557.235 Q134.834 557.235 132.566 556.865 Q130.32 556.494 127.913 555.754 L127.913 551.055 Q129.996 552.189 132.219 552.744 Q134.441 553.3 136.918 553.3 Q140.922 553.3 143.26 551.194 Q145.598 549.087 145.598 545.476 Q145.598 541.865 143.26 539.758 Q140.922 537.652 136.918 537.652 Q135.043 537.652 133.168 538.069 Q131.316 538.485 129.371 539.365 L129.371 522.004 Z" fill="#000000" fill-rule="nonzero" fill-opacity="1" /><path clip-path="url(#clip980)" d="M53.7467 265.446 L61.3856 265.446 L61.3856 239.081 L53.0754 240.747 L53.0754 236.488 L61.3393 234.822 L66.0152 234.822 L66.0152 265.446 L73.654 265.446 L73.654 269.382 L53.7467 269.382 L53.7467 265.446 Z" fill="#000000" fill-rule="nonzero" fill-opacity="1" /><path clip-path="url(#clip980)" d="M83.0984 263.502 L87.9827 263.502 L87.9827 269.382 L83.0984 269.382 L83.0984 263.502 Z" fill="#000000" fill-rule="nonzero" fill-opacity="1" /><path clip-path="url(#clip980)" d="M108.168 237.9 Q104.557 237.9 102.728 241.465 Q100.922 245.007 100.922 252.136 Q100.922 259.243 102.728 262.808 Q104.557 266.349 108.168 266.349 Q111.802 266.349 113.608 262.808 Q115.436 259.243 115.436 252.136 Q115.436 245.007 113.608 241.465 Q111.802 237.9 108.168 237.9 M108.168 234.197 Q113.978 234.197 117.033 238.803 Q120.112 243.386 120.112 252.136 Q120.112 260.863 117.033 265.47 Q113.978 270.053 108.168 270.053 Q102.358 270.053 99.2789 265.47 Q96.2234 260.863 96.2234 252.136 Q96.2234 243.386 99.2789 238.803 Q102.358 234.197 108.168 234.197 Z" fill="#000000" fill-rule="nonzero" fill-opacity="1" /><path clip-path="url(#clip980)" d="M138.33 237.9 Q134.719 237.9 132.89 241.465 Q131.084 245.007 131.084 252.136 Q131.084 259.243 132.89 262.808 Q134.719 266.349 138.33 266.349 Q141.964 266.349 143.769 262.808 Q145.598 259.243 145.598 252.136 Q145.598 245.007 143.769 241.465 Q141.964 237.9 138.33 237.9 M138.33 234.197 Q144.14 234.197 147.195 238.803 Q150.274 243.386 150.274 252.136 Q150.274 260.863 147.195 265.47 Q144.14 270.053 138.33 270.053 Q132.519 270.053 129.441 265.47 Q126.385 260.863 126.385 252.136 Q126.385 243.386 129.441 238.803 Q132.519 234.197 138.33 234.197 Z" fill="#000000" fill-rule="nonzero" fill-opacity="1" /><polyline clip-path="url(#clip982)" style="stroke:#009af9; stroke-linecap:round; stroke-linejoin:round; stroke-width:4; stroke-opacity:1; fill:none" points="186.274,252.102 190.607,252.102 194.94,252.555 199.273,252.033 203.606,251.566 207.939,244.663 212.272,235.797 216.605,226.293 220.938,214.907 225.271,201.695 229.604,188.505 233.937,177.491 238.27,165.517 242.603,152.366 246.935,140.609 251.268,130.363 255.601,117.669 259.934,102.892 264.267,93.0339 268.6,86.5463 272.933,86.1857 277.266,88.1455 281.599,87.1998 285.932,88.1061 290.265,89.9353 294.598,90.9123 298.931,89.1695 303.264,91.1863 307.597,94.4745 311.93,98.9131 316.263,108.322 320.596,121.544 324.929,135.847 329.262,150.633 333.595,167.306 337.928,186.128 342.261,204.64 346.594,223.009 350.927,240.77 355.26,258.487 359.593,275.733 363.926,289.379 368.258,299.963 372.591,311.707 376.924,322.588 381.257,335.299 385.59,347.523 389.923,360.614 394.256,374.508 398.589,388.709 402.922,404.03 407.255,418.619 411.588,434.369 415.921,451.394 420.254,468.822 424.587,486.222 428.92,503.548 433.253,520.942 437.586,538.246 441.919,554.578 446.252,568.929 450.585,583.661 454.918,597.894 459.251,612.678 463.584,627.911 467.917,642.425 472.25,657.291 476.583,671.632 480.916,685.918 485.249,699.95 489.581,713.912 493.914,727.611 498.247,740.971 502.58,754.079 506.913,766.734 511.246,779.397 515.579,791.818 519.912,803.936 524.245,815.872 528.578,827.558 532.911,838.955 537.244,850.169 541.577,861.124 545.91,871.853 550.243,882.372 554.576,892.74 558.909,902.9 563.242,912.798 567.575,922.53 571.908,932.057 576.241,941.427 580.574,950.598 584.907,959.596 589.24,968.415 593.573,977.036 597.906,985.471 602.239,993.592 606.571,1001.49 610.904,1009.28 615.237,1016.63 619.57,1024.07 623.903,1031.55 628.236,1038.89 632.569,1046.11 636.902,1053.19 641.235,1059.89 645.568,1066.65 649.901,1073.31 654.234,1079.79 658.567,1086.16 662.9,1092.19 667.233,1098.36 671.566,1104.41 675.899,1110.18 680.232,1115.62 684.565,1120.98 688.898,1126.14 693.231,1131.2 697.564,1136.36 701.897,1141.64 706.23,1146.78 710.563,1151.86 714.896,1156.83 719.229,1161.7 723.562,1166.48 727.894,1171.17 732.227,1175.72 736.56,1180.14 740.893,1184.4 745.226,1188.6 749.559,1192.66 753.892,1196.62 758.225,1200.55 762.558,1204.36 766.891,1208.04 771.224,1211.55 775.557,1215.1 779.89,1218.34 784.223,1221.37 788.556,1224.13 792.889,1227.02 797.222,1229.94 801.555,1232.94 805.888,1235.84 810.221,1238.59 814.554,1241.51 818.887,1244.42 823.22,1247.41 827.553,1250.43 831.886,1253.26 836.219,1256.14 840.552,1259.01 844.885,1261.85 849.217,1264.61 853.55,1267.27 857.883,1269.72 862.216,1272.06 866.549,1274.56 870.882,1276.96 875.215,1279.21 879.548,1281.37 883.881,1283.51 888.214,1285.63 892.547,1287.69 896.88,1289.59 901.213,1291.52 905.546,1293.37 909.879,1294.98 914.212,1296.52 918.545,1298.01 922.878,1299.59 927.211,1301.24 931.544,1302.87 935.877,1304.51 940.21,1306.06 944.543,1307.66 948.876,1309.19 953.209,1310.56 957.542,1311.75 961.875,1312.91 966.207,1313.87 970.54,1315.04 974.873,1315.92 979.206,1316.86 983.539,1317.73 987.872,1318.65 992.205,1319.69 996.538,1320.64 1000.87,1321.52 1005.2,1322.65 1009.54,1323.53 1013.87,1324.37 1018.2,1325.14 1022.54,1325.86 1026.87,1326.75 1031.2,1327.53 1035.53,1328.32 1039.87,1329.09 1044.2,1329.8 1048.53,1330.65 1052.87,1331.44 1057.2,1332.18 1061.53,1332.99 1065.87,1333.68 1070.2,1334.34 1074.53,1334.91 1078.86,1335.39 1083.2,1335.86 1087.53,1336.15 1091.86,1336.63 1096.2,1336.99 1100.53,1337.33 1104.86,1337.74 1109.2,1338.17 1113.53,1338.77 1117.86,1339.27 1122.19,1339.73 1126.53,1340.27 1130.86,1340.74 1135.19,1341.26 1139.53,1341.65 1143.86,1341.89 1148.19,1342.3 1152.52,1342.68 1156.86,1342.89 1161.19,1343.27 1165.52,1343.65 1169.86,1343.87 1174.19,1343.98 1178.52,1344.13 1182.86,1344.31 1187.19,1344.36 1191.52,1344.52 1195.85,1344.54 1200.19,1344.62 1204.52,1344.83 1208.85,1345.01 1213.19,1345.29 1217.52,1345.64 1221.85,1346.05 1226.19,1346.38 1230.52,1346.67 1234.85,1347.1 1239.18,1347.48 1243.52,1347.7 1247.85,1347.79 1252.18,1347.97 1256.52,1348.16 1260.85,1348.35 1265.18,1348.61 1269.51,1348.81 1273.85,1348.98 1278.18,1349.07 1282.51,1349.11 1286.85,1349.1 1291.18,1349.15 1295.51,1349.09 1299.85,1349.08 1304.18,1349.14 1308.51,1349.25 1312.84,1349.42 1317.18,1349.7 1321.51,1349.94 1325.84,1350.15 1330.18,1350.38 1334.51,1350.65 1338.84,1350.85 1343.18,1351.05 1347.51,1351.3 1351.84,1351.52 1356.17,1351.64 1360.51,1351.72 1364.84,1351.94 1369.17,1352.14 1373.51,1352.41 1377.84,1352.67 1382.17,1352.93 1386.5,1353.07 1390.84,1353.23 1395.17,1353.46 1399.5,1353.57 1403.84,1353.63 1408.17,1353.6 1412.5,1353.6 1416.84,1353.47 1421.17,1353.27 1425.5,1353.1 1429.83,1352.87 1434.17,1352.72 1438.5,1352.49 1442.83,1352.26 1447.17,1352.07 1451.5,1351.68 1455.83,1351.35 1460.17,1351.06 1464.5,1350.75 1468.83,1350.46 1473.16,1350.38 1477.5,1350.41 1481.83,1350.57 1486.16,1350.76 1490.5,1350.92 1494.83,1350.9 1499.16,1350.96 1503.49,1351.08 1507.83,1351.15 1512.16,1351.22 1516.49,1351.39 1520.83,1351.54 1525.16,1351.61 1529.49,1351.65 1533.83,1351.57 1538.16,1351.39 1542.49,1351.34 1546.82,1351.24 1551.16,1351.21 1555.49,1351.23 1559.82,1351.29 1564.16,1351.31 1568.49,1351.3 1572.82,1351.28 1577.16,1351.29 1581.49,1351.23 1585.82,1351.12 1590.15,1350.89 1594.49,1350.73 1598.82,1350.68 1603.15,1350.89 1607.49,1351.19 1611.82,1351.42 1616.15,1351.72 1620.49,1352.02 1624.82,1352.27 1629.15,1352.4 1633.48,1352.64 1637.82,1352.98 1642.15,1353.37 1646.48,1353.68 1650.82,1354.02 1655.15,1354.38 1659.48,1354.61 1663.81,1354.94 1668.15,1355.28 1672.48,1355.68 1676.81,1356.06 1681.15,1356.56 1685.48,1357 1689.81,1357.44 1694.15,1357.93 1698.48,1358.31 1702.81,1358.69 1707.14,1359.14 1711.48,1359.49 1715.81,1359.87 1720.14,1360.23 1724.48,1360.49 1728.81,1360.75 1733.14,1361.06 1737.48,1361.36 1741.81,1361.54 1746.14,1361.77 1750.47,1362.1 1754.81,1362.51 1759.14,1362.87 1763.47,1363.22 1767.81,1363.64 1772.14,1363.94 1776.47,1364.08 1780.8,1364.23 1785.14,1364.48 1789.47,1364.68 1793.8,1364.88 1798.14,1365.06 1802.47,1365.13 1806.8,1365.25 1811.14,1365.47 1815.47,1365.69 1819.8,1365.88 1824.13,1366.05 1828.47,1366.29 1832.8,1366.48 1837.13,1366.66 1841.47,1366.91 1845.8,1367.18 1850.13,1367.43 1854.47,1367.66 1858.8,1367.8 1863.13,1368.02 1867.46,1368.37 1871.8,1368.77 1876.13,1369.17 1880.46,1369.55 1884.8,1369.92 1889.13,1370.17 1893.46,1370.41 1897.79,1370.6 1902.13,1370.75 1906.46,1370.93 1910.79,1371.17 1915.13,1371.44 1919.46,1371.67 1923.79,1371.96 1928.13,1372.27 1932.46,1372.5 1936.79,1372.77 1941.12,1372.98 1945.46,1373.25 1949.79,1373.56 1954.12,1373.81 1958.46,1374.09 1962.79,1374.42 1967.12,1374.76 1971.46,1375.14 1975.79,1375.47 1980.12,1375.81 1984.45,1376.15 1988.79,1376.38 1993.12,1376.6 1997.45,1376.86 2001.79,1377.12 2006.12,1377.43 2010.45,1377.69 2014.78,1377.96 2019.12,1378.19 2023.45,1378.33 2027.78,1378.48 2032.12,1378.61 2036.45,1378.78 2040.78,1379.05 2045.12,1379.27 2049.45,1379.37 2053.78,1379.48 2058.11,1379.63 2062.45,1379.7 2066.78,1379.83 2071.11,1380 2075.45,1380.13 2079.78,1380.25 2084.11,1380.4 2088.45,1380.55 2092.78,1380.7 2097.11,1380.8 2101.44,1380.89 2105.78,1380.89 2110.11,1380.86 2114.44,1380.85 2118.78,1380.81 2123.11,1380.7 2127.44,1380.58 2131.77,1380.52 2136.11,1380.5 2140.44,1380.52 2144.77,1380.55 2149.11,1380.65 2153.44,1380.74 2157.77,1380.78 2162.11,1380.83 2166.44,1380.86 2170.77,1380.89 2175.1,1380.93 2179.44,1380.99 2183.77,1380.98 2188.1,1381.03 2192.44,1381.14 2196.77,1381.19 2201.1,1381.26 2205.44,1381.33 2209.77,1381.38 2214.1,1381.44 2218.43,1381.53 2222.77,1381.66 2227.1,1381.79 2231.43,1381.93 2235.77,1382.01 2240.1,1382.05 2244.43,1382.12 2248.76,1382.18 2253.1,1382.23 2257.43,1382.32 2261.76,1382.42 2266.1,1382.55 2270.43,1382.7 2274.76,1382.87 2279.1,1383 2283.43,1383.1 2287.76,1383.21 2292.09,1383.34 2296.43,1383.48 2300.76,1383.6 2305.09,1383.74 2309.43,1383.82 2313.76,1383.88 2318.09,1383.93 2322.43,1383.98 2326.76,1384.01 2331.09,1384.08 2335.42,1384.11 2339.76,1384.09 2344.09,1384.14 2348.42,1384.19 2352.76,1384.24 "/>
<path clip-path="url(#clip980)" d="M1974.79 196.789 L2280.54 196.789 L2280.54 93.1086 L1974.79 93.1086  Z" fill="#ffffff" fill-rule="evenodd" fill-opacity="1"/>
<polyline clip-path="url(#clip980)" style="stroke:#000000; stroke-linecap:round; stroke-linejoin:round; stroke-width:4; stroke-opacity:1; fill:none" points="1974.79,196.789 2280.54,196.789 2280.54,93.1086 1974.79,93.1086 1974.79,196.789 "/>
<polyline clip-path="url(#clip980)" style="stroke:#009af9; stroke-linecap:round; stroke-linejoin:round; stroke-width:4; stroke-opacity:1; fill:none" points="1998.87,144.949 2143.3,144.949 "/>
<path clip-path="url(#clip980)" d="M2167.37 151.997 L2167.37 136.303 L2171.63 136.303 L2171.63 151.835 Q2171.63 155.516 2173.07 157.368 Q2174.5 159.196 2177.37 159.196 Q2180.82 159.196 2182.81 156.997 Q2184.82 154.798 2184.82 151.002 L2184.82 136.303 L2189.08 136.303 L2189.08 162.229 L2184.82 162.229 L2184.82 158.247 Q2183.27 160.608 2181.21 161.766 Q2179.18 162.9 2176.47 162.9 Q2172 162.9 2169.69 160.122 Q2167.37 157.344 2167.37 151.997 M2178.09 135.678 L2178.09 135.678 Z" fill="#000000" fill-rule="nonzero" fill-opacity="1" /><path clip-path="url(#clip980)" d="M2197.46 126.21 L2207.28 126.21 L2207.28 129.52 L2201.72 129.52 L2201.72 165.168 L2207.28 165.168 L2207.28 168.479 L2197.46 168.479 L2197.46 126.21 Z" fill="#000000" fill-rule="nonzero" fill-opacity="1" /><path clip-path="url(#clip980)" d="M2217.76 158.293 L2225.4 158.293 L2225.4 131.928 L2217.09 133.595 L2217.09 129.335 L2225.36 127.669 L2230.03 127.669 L2230.03 158.293 L2237.67 158.293 L2237.67 162.229 L2217.76 162.229 L2217.76 158.293 Z" fill="#000000" fill-rule="nonzero" fill-opacity="1" /><path clip-path="url(#clip980)" d="M2256.47 126.21 L2256.47 168.479 L2246.65 168.479 L2246.65 165.168 L2252.19 165.168 L2252.19 129.52 L2246.65 129.52 L2246.65 126.21 L2256.47 126.21 Z" fill="#000000" fill-rule="nonzero" fill-opacity="1" /></svg>
