<?xml version="1.0" encoding="utf-8"?>
<svg xmlns="http://www.w3.org/2000/svg" xmlns:xlink="http://www.w3.org/1999/xlink" width="600" height="400" viewBox="0 0 2400 1600">
<defs>
  <clipPath id="clip100">
    <rect x="0" y="0" width="2400" height="1600"/>
  </clipPath>
</defs>
<path clip-path="url(#clip100)" d="M0 1600 L2400 1600 L2400 0 L0 0  Z" fill="#ffffff" fill-rule="evenodd" fill-opacity="1"/>
<defs>
  <clipPath id="clip101">
    <rect x="480" y="0" width="1681" height="1600"/>
  </clipPath>
</defs>
<path clip-path="url(#clip100)" d="M172.015 1423.18 L2352.76 1423.18 L2352.76 47.2441 L172.015 47.2441  Z" fill="#ffffff" fill-rule="evenodd" fill-opacity="1"/>
<defs>
  <clipPath id="clip102">
    <rect x="172" y="47" width="2182" height="1377"/>
  </clipPath>
</defs>
<polyline clip-path="url(#clip102)" style="stroke:#000000; stroke-linecap:round; stroke-linejoin:round; stroke-width:2; stroke-opacity:0.1; fill:none" points="172.015,1423.18 172.015,47.2441 "/>
<polyline clip-path="url(#clip102)" style="stroke:#000000; stroke-linecap:round; stroke-linejoin:round; stroke-width:2; stroke-opacity:0.1; fill:none" points="608.163,1423.18 608.163,47.2441 "/>
<polyline clip-path="url(#clip102)" style="stroke:#000000; stroke-linecap:round; stroke-linejoin:round; stroke-width:2; stroke-opacity:0.1; fill:none" points="1044.31,1423.18 1044.31,47.2441 "/>
<polyline clip-path="url(#clip102)" style="stroke:#000000; stroke-linecap:round; stroke-linejoin:round; stroke-width:2; stroke-opacity:0.1; fill:none" points="1480.46,1423.18 1480.46,47.2441 "/>
<polyline clip-path="url(#clip102)" style="stroke:#000000; stroke-linecap:round; stroke-linejoin:round; stroke-width:2; stroke-opacity:0.1; fill:none" points="1916.61,1423.18 1916.61,47.2441 "/>
<polyline clip-path="url(#clip102)" style="stroke:#000000; stroke-linecap:round; stroke-linejoin:round; stroke-width:2; stroke-opacity:0.1; fill:none" points="2352.76,1423.18 2352.76,47.2441 "/>
<polyline clip-path="url(#clip102)" style="stroke:#000000; stroke-linecap:round; stroke-linejoin:round; stroke-width:2; stroke-opacity:0.1; fill:none" points="172.015,1385.11 2352.76,1385.11 "/>
<polyline clip-path="url(#clip102)" style="stroke:#000000; stroke-linecap:round; stroke-linejoin:round; stroke-width:2; stroke-opacity:0.1; fill:none" points="172.015,1043.52 2352.76,1043.52 "/>
<polyline clip-path="url(#clip102)" style="stroke:#000000; stroke-linecap:round; stroke-linejoin:round; stroke-width:2; stroke-opacity:0.1; fill:none" points="172.015,701.926 2352.76,701.926 "/>
<polyline clip-path="url(#clip102)" style="stroke:#000000; stroke-linecap:round; stroke-linejoin:round; stroke-width:2; stroke-opacity:0.1; fill:none" points="172.015,360.332 2352.76,360.332 "/>
<polyline clip-path="url(#clip100)" style="stroke:#000000; stroke-linecap:round; stroke-linejoin:round; stroke-width:4; stroke-opacity:1; fill:none" points="172.015,1423.18 2352.76,1423.18 "/>
<polyline clip-path="url(#clip100)" style="stroke:#000000; stroke-linecap:round; stroke-linejoin:round; stroke-width:4; stroke-opacity:1; fill:none" points="172.015,1423.18 172.015,1404.28 "/>
<polyline clip-path="url(#clip100)" style="stroke:#000000; stroke-linecap:round; stroke-linejoin:round; stroke-width:4; stroke-opacity:1; fill:none" points="608.163,1423.18 608.163,1404.28 "/>
<polyline clip-path="url(#clip100)" style="stroke:#000000; stroke-linecap:round; stroke-linejoin:round; stroke-width:4; stroke-opacity:1; fill:none" points="1044.31,1423.18 1044.31,1404.28 "/>
<polyline clip-path="url(#clip100)" style="stroke:#000000; stroke-linecap:round; stroke-linejoin:round; stroke-width:4; stroke-opacity:1; fill:none" points="1480.46,1423.18 1480.46,1404.28 "/>
<polyline clip-path="url(#clip100)" style="stroke:#000000; stroke-linecap:round; stroke-linejoin:round; stroke-width:4; stroke-opacity:1; fill:none" points="1916.61,1423.18 1916.61,1404.28 "/>
<polyline clip-path="url(#clip100)" style="stroke:#000000; stroke-linecap:round; stroke-linejoin:round; stroke-width:4; stroke-opacity:1; fill:none" points="2352.76,1423.18 2352.76,1404.28 "/>
<path clip-path="url(#clip100)" d="M172.015 1454.1 Q168.404 1454.1 166.575 1457.66 Q164.769 1461.2 164.769 1468.33 Q164.769 1475.44 166.575 1479.01 Q168.404 1482.55 172.015 1482.55 Q175.649 1482.55 177.455 1479.01 Q179.283 1475.44 179.283 1468.33 Q179.283 1461.2 177.455 1457.66 Q175.649 1454.1 172.015 1454.1 M172.015 1450.39 Q177.825 1450.39 180.881 1455 Q183.959 1459.58 183.959 1468.33 Q183.959 1477.06 180.881 1481.67 Q177.825 1486.25 172.015 1486.25 Q166.205 1486.25 163.126 1481.67 Q160.07 1477.06 160.07 1468.33 Q160.07 1459.58 163.126 1455 Q166.205 1450.39 172.015 1450.39 Z" fill="#000000" fill-rule="nonzero" fill-opacity="1" /><path clip-path="url(#clip100)" d="M598.545 1481.64 L606.184 1481.64 L606.184 1455.28 L597.874 1456.95 L597.874 1452.69 L606.138 1451.02 L610.813 1451.02 L610.813 1481.64 L618.452 1481.64 L618.452 1485.58 L598.545 1485.58 L598.545 1481.64 Z" fill="#000000" fill-rule="nonzero" fill-opacity="1" /><path clip-path="url(#clip100)" d="M1038.96 1481.64 L1055.28 1481.64 L1055.28 1485.58 L1033.34 1485.58 L1033.34 1481.64 Q1036 1478.89 1040.58 1474.26 Q1045.19 1469.61 1046.37 1468.27 Q1048.62 1465.74 1049.5 1464.01 Q1050.4 1462.25 1050.4 1460.56 Q1050.4 1457.8 1048.45 1456.07 Q1046.53 1454.33 1043.43 1454.33 Q1041.23 1454.33 1038.78 1455.09 Q1036.35 1455.86 1033.57 1457.41 L1033.57 1452.69 Q1036.39 1451.55 1038.85 1450.97 Q1041.3 1450.39 1043.34 1450.39 Q1048.71 1450.39 1051.9 1453.08 Q1055.1 1455.77 1055.1 1460.26 Q1055.1 1462.39 1054.29 1464.31 Q1053.5 1466.2 1051.39 1468.8 Q1050.82 1469.47 1047.71 1472.69 Q1044.61 1475.88 1038.96 1481.64 Z" fill="#000000" fill-rule="nonzero" fill-opacity="1" /><path clip-path="url(#clip100)" d="M1484.71 1466.95 Q1488.06 1467.66 1489.94 1469.93 Q1491.84 1472.2 1491.84 1475.53 Q1491.84 1480.65 1488.32 1483.45 Q1484.8 1486.25 1478.32 1486.25 Q1476.14 1486.25 1473.83 1485.81 Q1471.54 1485.39 1469.08 1484.54 L1469.08 1480.02 Q1471.03 1481.16 1473.34 1481.74 Q1475.66 1482.32 1478.18 1482.32 Q1482.58 1482.32 1484.87 1480.58 Q1487.18 1478.84 1487.18 1475.53 Q1487.18 1472.48 1485.03 1470.77 Q1482.9 1469.03 1479.08 1469.03 L1475.05 1469.03 L1475.05 1465.19 L1479.27 1465.19 Q1482.72 1465.19 1484.55 1463.82 Q1486.37 1462.43 1486.37 1459.84 Q1486.37 1457.18 1484.48 1455.77 Q1482.6 1454.33 1479.08 1454.33 Q1477.16 1454.33 1474.96 1454.75 Q1472.76 1455.16 1470.12 1456.04 L1470.12 1451.88 Q1472.79 1451.14 1475.1 1450.77 Q1477.44 1450.39 1479.5 1450.39 Q1484.82 1450.39 1487.92 1452.83 Q1491.03 1455.23 1491.03 1459.35 Q1491.03 1462.22 1489.38 1464.21 Q1487.74 1466.18 1484.71 1466.95 Z" fill="#000000" fill-rule="nonzero" fill-opacity="1" /><path clip-path="url(#clip100)" d="M1919.62 1455.09 L1907.81 1473.54 L1919.62 1473.54 L1919.62 1455.09 M1918.39 1451.02 L1924.27 1451.02 L1924.27 1473.54 L1929.2 1473.54 L1929.2 1477.43 L1924.27 1477.43 L1924.27 1485.58 L1919.62 1485.58 L1919.62 1477.43 L1904.02 1477.43 L1904.02 1472.92 L1918.39 1451.02 Z" fill="#000000" fill-rule="nonzero" fill-opacity="1" /><path clip-path="url(#clip100)" d="M2343.03 1451.02 L2361.39 1451.02 L2361.39 1454.96 L2347.32 1454.96 L2347.32 1463.43 Q2348.33 1463.08 2349.35 1462.92 Q2350.37 1462.73 2351.39 1462.73 Q2357.18 1462.73 2360.56 1465.9 Q2363.94 1469.08 2363.94 1474.49 Q2363.94 1480.07 2360.46 1483.17 Q2356.99 1486.25 2350.67 1486.25 Q2348.5 1486.25 2346.23 1485.88 Q2343.98 1485.51 2341.58 1484.77 L2341.58 1480.07 Q2343.66 1481.2 2345.88 1481.76 Q2348.1 1482.32 2350.58 1482.32 Q2354.58 1482.32 2356.92 1480.21 Q2359.26 1478.1 2359.26 1474.49 Q2359.26 1470.88 2356.92 1468.77 Q2354.58 1466.67 2350.58 1466.67 Q2348.71 1466.67 2346.83 1467.08 Q2344.98 1467.5 2343.03 1468.38 L2343.03 1451.02 Z" fill="#000000" fill-rule="nonzero" fill-opacity="1" /><path clip-path="url(#clip100)" d="M1261.45 1522.27 L1261.45 1532.4 L1273.51 1532.4 L1273.51 1536.95 L1261.45 1536.95 L1261.45 1556.3 Q1261.45 1560.66 1262.62 1561.9 Q1263.83 1563.14 1267.49 1563.14 L1273.51 1563.14 L1273.51 1568.04 L1267.49 1568.04 Q1260.71 1568.04 1258.14 1565.53 Q1255.56 1562.98 1255.56 1556.3 L1255.56 1536.95 L1251.26 1536.95 L1251.26 1532.4 L1255.56 1532.4 L1255.56 1522.27 L1261.45 1522.27 Z" fill="#000000" fill-rule="nonzero" fill-opacity="1" /><polyline clip-path="url(#clip100)" style="stroke:#000000; stroke-linecap:round; stroke-linejoin:round; stroke-width:4; stroke-opacity:1; fill:none" points="172.015,1423.18 172.015,47.2441 "/>
<polyline clip-path="url(#clip100)" style="stroke:#000000; stroke-linecap:round; stroke-linejoin:round; stroke-width:4; stroke-opacity:1; fill:none" points="172.015,1385.11 190.912,1385.11 "/>
<polyline clip-path="url(#clip100)" style="stroke:#000000; stroke-linecap:round; stroke-linejoin:round; stroke-width:4; stroke-opacity:1; fill:none" points="172.015,1043.52 190.912,1043.52 "/>
<polyline clip-path="url(#clip100)" style="stroke:#000000; stroke-linecap:round; stroke-linejoin:round; stroke-width:4; stroke-opacity:1; fill:none" points="172.015,701.926 190.912,701.926 "/>
<polyline clip-path="url(#clip100)" style="stroke:#000000; stroke-linecap:round; stroke-linejoin:round; stroke-width:4; stroke-opacity:1; fill:none" points="172.015,360.332 190.912,360.332 "/>
<path clip-path="url(#clip100)" d="M124.07 1370.91 Q120.459 1370.91 118.631 1374.48 Q116.825 1378.02 116.825 1385.15 Q116.825 1392.26 118.631 1395.82 Q120.459 1399.36 124.07 1399.36 Q127.705 1399.36 129.51 1395.82 Q131.339 1392.26 131.339 1385.15 Q131.339 1378.02 129.51 1374.48 Q127.705 1370.91 124.07 1370.91 M124.07 1367.21 Q129.881 1367.21 132.936 1371.82 Q136.015 1376.4 136.015 1385.15 Q136.015 1393.88 132.936 1398.48 Q129.881 1403.07 124.07 1403.07 Q118.26 1403.07 115.182 1398.48 Q112.126 1393.88 112.126 1385.15 Q112.126 1376.4 115.182 1371.82 Q118.26 1367.21 124.07 1367.21 Z" fill="#000000" fill-rule="nonzero" fill-opacity="1" /><path clip-path="url(#clip100)" d="M57.7745 1056.86 L74.0939 1056.86 L74.0939 1060.8 L52.1495 1060.8 L52.1495 1056.86 Q54.8115 1054.11 59.3949 1049.48 Q64.0013 1044.83 65.1819 1043.49 Q67.4272 1040.96 68.3068 1039.23 Q69.2096 1037.47 69.2096 1035.78 Q69.2096 1033.02 67.2652 1031.29 Q65.3439 1029.55 62.2421 1029.55 Q60.043 1029.55 57.5893 1030.31 Q55.1588 1031.08 52.381 1032.63 L52.381 1027.91 Q55.2051 1026.77 57.6588 1026.19 Q60.1124 1025.62 62.1495 1025.62 Q67.5198 1025.62 70.7142 1028.3 Q73.9087 1030.99 73.9087 1035.48 Q73.9087 1037.61 73.0985 1039.53 Q72.3115 1041.43 70.205 1044.02 Q69.6263 1044.69 66.5245 1047.91 Q63.4226 1051.1 57.7745 1056.86 Z" fill="#000000" fill-rule="nonzero" fill-opacity="1" /><path clip-path="url(#clip100)" d="M93.9086 1029.32 Q90.2975 1029.32 88.4688 1032.88 Q86.6632 1036.43 86.6632 1043.55 Q86.6632 1050.66 88.4688 1054.23 Q90.2975 1057.77 93.9086 1057.77 Q97.5428 1057.77 99.3483 1054.23 Q101.177 1050.66 101.177 1043.55 Q101.177 1036.43 99.3483 1032.88 Q97.5428 1029.32 93.9086 1029.32 M93.9086 1025.62 Q99.7187 1025.62 102.774 1030.22 Q105.853 1034.8 105.853 1043.55 Q105.853 1052.28 102.774 1056.89 Q99.7187 1061.47 93.9086 1061.47 Q88.0984 1061.47 85.0197 1056.89 Q81.9642 1052.28 81.9642 1043.55 Q81.9642 1034.8 85.0197 1030.22 Q88.0984 1025.62 93.9086 1025.62 Z" fill="#000000" fill-rule="nonzero" fill-opacity="1" /><path clip-path="url(#clip100)" d="M124.07 1029.32 Q120.459 1029.32 118.631 1032.88 Q116.825 1036.43 116.825 1043.55 Q116.825 1050.66 118.631 1054.23 Q120.459 1057.77 124.07 1057.77 Q127.705 1057.77 129.51 1054.23 Q131.339 1050.66 131.339 1043.55 Q131.339 1036.43 129.51 1032.88 Q127.705 1029.32 124.07 1029.32 M124.07 1025.62 Q129.881 1025.62 132.936 1030.22 Q136.015 1034.8 136.015 1043.55 Q136.015 1052.28 132.936 1056.89 Q129.881 1061.47 124.07 1061.47 Q118.26 1061.47 115.182 1056.89 Q112.126 1052.28 112.126 1043.55 Q112.126 1034.8 115.182 1030.22 Q118.26 1025.62 124.07 1025.62 Z" fill="#000000" fill-rule="nonzero" fill-opacity="1" /><path clip-path="url(#clip100)" d="M66.5939 688.72 L54.7884 707.169 L66.5939 707.169 L66.5939 688.72 M65.367 684.646 L71.2466 684.646 L71.2466 707.169 L76.1772 707.169 L76.1772 711.058 L71.2466 711.058 L71.2466 719.206 L66.5939 719.206 L66.5939 711.058 L50.9921 711.058 L50.9921 706.544 L65.367 684.646 Z" fill="#000000" fill-rule="nonzero" fill-opacity="1" /><path clip-path="url(#clip100)" d="M93.9086 687.725 Q90.2975 687.725 88.4688 691.289 Q86.6632 694.831 86.6632 701.961 Q86.6632 709.067 88.4688 712.632 Q90.2975 716.173 93.9086 716.173 Q97.5428 716.173 99.3483 712.632 Q101.177 709.067 101.177 701.961 Q101.177 694.831 99.3483 691.289 Q97.5428 687.725 93.9086 687.725 M93.9086 684.021 Q99.7187 684.021 102.774 688.627 Q105.853 693.211 105.853 701.961 Q105.853 710.687 102.774 715.294 Q99.7187 719.877 93.9086 719.877 Q88.0984 719.877 85.0197 715.294 Q81.9642 710.687 81.9642 701.961 Q81.9642 693.211 85.0197 688.627 Q88.0984 684.021 93.9086 684.021 Z" fill="#000000" fill-rule="nonzero" fill-opacity="1" /><path clip-path="url(#clip100)" d="M124.07 687.725 Q120.459 687.725 118.631 691.289 Q116.825 694.831 116.825 701.961 Q116.825 709.067 118.631 712.632 Q120.459 716.173 124.07 716.173 Q127.705 716.173 129.51 712.632 Q131.339 709.067 131.339 701.961 Q131.339 694.831 129.51 691.289 Q127.705 687.725 124.07 687.725 M124.07 684.021 Q129.881 684.021 132.936 688.627 Q136.015 693.211 136.015 701.961 Q136.015 710.687 132.936 715.294 Q129.881 719.877 124.07 719.877 Q118.26 719.877 115.182 715.294 Q112.126 710.687 112.126 701.961 Q112.126 693.211 115.182 688.627 Q118.26 684.021 124.07 684.021 Z" fill="#000000" fill-rule="nonzero" fill-opacity="1" /><path clip-path="url(#clip100)" d="M64.3254 358.468 Q61.1773 358.468 59.3254 360.621 Q57.4967 362.774 57.4967 366.524 Q57.4967 370.25 59.3254 372.426 Q61.1773 374.579 64.3254 374.579 Q67.4735 374.579 69.3022 372.426 Q71.1541 370.25 71.1541 366.524 Q71.1541 362.774 69.3022 360.621 Q67.4735 358.468 64.3254 358.468 M73.6077 343.815 L73.6077 348.075 Q71.8485 347.241 70.0429 346.801 Q68.2606 346.362 66.5013 346.362 Q61.8717 346.362 59.418 349.487 Q56.9875 352.612 56.6402 358.931 Q58.006 356.917 60.0662 355.852 Q62.1263 354.764 64.6032 354.764 Q69.8115 354.764 72.8207 357.936 Q75.8531 361.084 75.8531 366.524 Q75.8531 371.848 72.705 375.065 Q69.5568 378.283 64.3254 378.283 Q58.33 378.283 55.1588 373.699 Q51.9875 369.093 51.9875 360.366 Q51.9875 352.172 55.8764 347.311 Q59.7652 342.427 66.3161 342.427 Q68.0754 342.427 69.8578 342.774 Q71.6633 343.121 73.6077 343.815 Z" fill="#000000" fill-rule="nonzero" fill-opacity="1" /><path clip-path="url(#clip100)" d="M93.9086 346.13 Q90.2975 346.13 88.4688 349.695 Q86.6632 353.237 86.6632 360.366 Q86.6632 367.473 88.4688 371.037 Q90.2975 374.579 93.9086 374.579 Q97.5428 374.579 99.3483 371.037 Q101.177 367.473 101.177 360.366 Q101.177 353.237 99.3483 349.695 Q97.5428 346.13 93.9086 346.13 M93.9086 342.427 Q99.7187 342.427 102.774 347.033 Q105.853 351.616 105.853 360.366 Q105.853 369.093 102.774 373.699 Q99.7187 378.283 93.9086 378.283 Q88.0984 378.283 85.0197 373.699 Q81.9642 369.093 81.9642 360.366 Q81.9642 351.616 85.0197 347.033 Q88.0984 342.427 93.9086 342.427 Z" fill="#000000" fill-rule="nonzero" fill-opacity="1" /><path clip-path="url(#clip100)" d="M124.07 346.13 Q120.459 346.13 118.631 349.695 Q116.825 353.237 116.825 360.366 Q116.825 367.473 118.631 371.037 Q120.459 374.579 124.07 374.579 Q127.705 374.579 129.51 371.037 Q131.339 367.473 131.339 360.366 Q131.339 353.237 129.51 349.695 Q127.705 346.13 124.07 346.13 M124.07 342.427 Q129.881 342.427 132.936 347.033 Q136.015 351.616 136.015 360.366 Q136.015 369.093 132.936 373.699 Q129.881 378.283 124.07 378.283 Q118.26 378.283 115.182 373.699 Q112.126 369.093 112.126 360.366 Q112.126 351.616 115.182 347.033 Q118.26 342.427 124.07 342.427 Z" fill="#000000" fill-rule="nonzero" fill-opacity="1" /><polyline clip-path="url(#clip102)" style="stroke:#009af9; stroke-linecap:round; stroke-linejoin:round; stroke-width:4; stroke-opacity:1; fill:none" points="172.015,1383.41 176.376,1383.41 180.738,1383.41 185.099,1383.41 189.461,1383.41 193.822,1383.41 198.184,1383.41 202.545,1383.41 206.907,1383.41 211.268,1383.41 215.63,1383.41 219.991,1383.41 224.353,1383.41 228.714,1383.41 233.076,1383.4 237.437,1383.41 241.799,1383.41 246.16,1383.41 250.521,1383.42 254.883,1383.42 259.244,1383.43 263.606,1383.44 267.967,1383.46 272.329,1383.47 276.69,1383.48 281.052,1383.49 285.413,1383.51 289.775,1383.53 294.136,1383.55 298.498,1383.58 302.859,1383.6 307.221,1383.62 311.582,1383.64 315.944,1383.67 320.305,1383.69 324.667,1383.71 329.028,1383.73 333.39,1383.75 337.751,1383.77 342.113,1383.79 346.474,1383.8 350.836,1383.82 355.197,1383.83 359.559,1383.85 363.92,1383.87 368.282,1383.88 372.643,1383.9 377.004,1383.91 381.366,1383.92 385.727,1383.93 390.089,1383.94 394.45,1383.96 398.812,1383.97 403.173,1383.98 407.535,1384 411.896,1384.01 416.258,1384.02 420.619,1384.03 424.981,1384.05 429.342,1384.06 433.704,1384.08 438.065,1384.09 442.427,1384.11 446.788,1384.12 451.15,1384.14 455.511,1384.15 459.873,1384.16 464.234,1384.17 468.596,1384.18 472.957,1384.19 477.319,1384.19 481.68,1384.2 486.042,1384.21 490.403,1384.21 494.764,1384.22 499.126,1384.22 503.487,1384.23 507.849,1384.23 512.21,1384.23 516.572,1384.23 520.933,1384.23 525.295,1384.23 529.656,1384.23 534.018,1384.23 538.379,1384.23 542.741,1384.23 547.102,1384.24 551.464,1384.24 555.825,1384.24 560.187,1384.23 564.548,1384.23 568.91,1384.23 573.271,1384.24 577.633,1384.24 581.994,1384.24 586.356,1384.24 590.717,1384.24 595.079,1384.24 599.44,1384.23 603.802,1384.23 608.163,1384.23 612.525,1384.23 616.886,1384.22 621.247,1384.22 625.609,1384.23 629.97,1384.23 634.332,1384.23 638.693,1384.23 643.055,1384.23 647.416,1384.23 651.778,1384.23 656.139,1384.23 660.501,1384.22 664.862,1384.22 669.224,1384.21 673.585,1384.21 677.947,1384.2 682.308,1384.2 686.67,1384.19 691.031,1384.18 695.393,1384.18 699.754,1384.17 704.116,1384.16 708.477,1384.16 712.839,1384.15 717.2,1384.14 721.562,1384.14 725.923,1384.13 730.285,1384.12 734.646,1384.12 739.008,1384.12 743.369,1384.11 747.73,1384.1 752.092,1384.1 756.453,1384.09 760.815,1384.08 765.176,1384.06 769.538,1384.05 773.899,1384.04 778.261,1384.03 782.622,1384.02 786.984,1384.01 791.345,1384.01 795.707,1384 800.068,1384 804.43,1383.99 808.791,1383.98 813.153,1383.97 817.514,1383.97 821.876,1383.96 826.237,1383.96 830.599,1383.96 834.96,1383.96 839.322,1383.96 843.683,1383.96 848.045,1383.96 852.406,1383.96 856.768,1383.95 861.129,1383.95 865.49,1383.95 869.852,1383.94 874.213,1383.94 878.575,1383.94 882.936,1383.93 887.298,1383.93 891.659,1383.92 896.021,1383.92 900.382,1383.91 904.744,1383.9 909.105,1383.9 913.467,1383.89 917.828,1383.89 922.19,1383.88 926.551,1383.87 930.913,1383.86 935.274,1383.85 939.636,1383.84 943.997,1383.82 948.359,1383.81 952.72,1383.8 957.082,1383.78 961.443,1383.77 965.805,1383.76 970.166,1383.76 974.528,1383.75 978.889,1383.73 983.251,1383.72 987.612,1383.71 991.973,1383.69 996.335,1383.68 1000.7,1383.66 1005.06,1383.64 1009.42,1383.62 1013.78,1383.6 1018.14,1383.58 1022.5,1383.56 1026.87,1383.53 1031.23,1383.51 1035.59,1383.49 1039.95,1383.48 1044.31,1383.46 1048.67,1383.44 1053.03,1383.43 1057.4,1383.41 1061.76,1383.39 1066.12,1383.37 1070.48,1383.36 1074.84,1383.34 1079.2,1383.32 1083.56,1383.31 1087.93,1383.3 1092.29,1383.29 1096.65,1383.28 1101.01,1383.27 1105.37,1383.26 1109.73,1383.26 1114.09,1383.25 1118.46,1383.25 1122.82,1383.25 1127.18,1383.25 1131.54,1383.25 1135.9,1383.25 1140.26,1383.24 1144.63,1383.24 1148.99,1383.24 1153.35,1383.24 1157.71,1383.24 1162.07,1383.24 1166.43,1383.23 1170.79,1383.23 1175.16,1383.23 1179.52,1383.22 1183.88,1383.22 1188.24,1383.22 1192.6,1383.22 1196.96,1383.22 1201.32,1383.22 1205.69,1383.22 1210.05,1383.22 1214.41,1383.23 1218.77,1383.23 1223.13,1383.23 1227.49,1383.23 1231.85,1383.24 1236.22,1383.24 1240.58,1383.25 1244.94,1383.26 1249.3,1383.27 1253.66,1383.27 1258.02,1383.28 1262.39,1383.3 1266.75,1383.33 1271.11,1383.35 1275.47,1383.37 1279.83,1383.39 1284.19,1383.41 1288.55,1383.43 1292.92,1383.44 1297.28,1383.46 1301.64,1383.48 1306,1383.49 1310.36,1383.51 1314.72,1383.52 1319.08,1383.52 1323.45,1383.52 1327.81,1383.53 1332.17,1383.54 1336.53,1383.54 1340.89,1383.55 1345.25,1383.55 1349.62,1383.56 1353.98,1383.56 1358.34,1383.56 1362.7,1383.56 1367.06,1383.57 1371.42,1383.57 1375.78,1383.57 1380.15,1383.56 1384.51,1383.56 1388.87,1383.56 1393.23,1383.56 1397.59,1383.56 1401.95,1383.56 1406.31,1383.56 1410.68,1383.56 1415.04,1383.56 1419.4,1383.56 1423.76,1383.56 1428.12,1383.56 1432.48,1383.57 1436.84,1383.57 1441.21,1383.58 1445.57,1383.58 1449.93,1383.59 1454.29,1383.59 1458.65,1383.59 1463.01,1383.59 1467.38,1383.59 1471.74,1383.59 1476.1,1383.59 1480.46,1383.59 1484.82,1383.59 1489.18,1383.59 1493.54,1383.58 1497.91,1383.57 1502.27,1383.56 1506.63,1383.55 1510.99,1383.54 1515.35,1383.53 1519.71,1383.52 1524.07,1383.51 1528.44,1383.5 1532.8,1383.5 1537.16,1383.49 1541.52,1383.48 1545.88,1383.48 1550.24,1383.48 1554.6,1383.47 1558.97,1383.46 1563.33,1383.46 1567.69,1383.45 1572.05,1383.44 1576.41,1383.44 1580.77,1383.43 1585.14,1383.42 1589.5,1383.41 1593.86,1383.4 1598.22,1383.39 1602.58,1383.38 1606.94,1383.37 1611.3,1383.36 1615.67,1383.35 1620.03,1383.33 1624.39,1383.3 1628.75,1383.28 1633.11,1383.26 1637.47,1383.24 1641.83,1383.22 1646.2,1383.2 1650.56,1383.19 1654.92,1383.17 1659.28,1383.16 1663.64,1383.15 1668,1383.15 1672.36,1383.14 1676.73,1383.13 1681.09,1383.12 1685.45,1383.11 1689.81,1383.1 1694.17,1383.09 1698.53,1383.09 1702.9,1383.09 1707.26,1383.08 1711.62,1383.08 1715.98,1383.07 1720.34,1383.08 1724.7,1383.07 1729.06,1383.07 1733.43,1383.07 1737.79,1383.07 1742.15,1383.07 1746.51,1383.07 1750.87,1383.07 1755.23,1383.07 1759.59,1383.07 1763.96,1383.08 1768.32,1383.08 1772.68,1383.08 1777.04,1383.08 1781.4,1383.09 1785.76,1383.1 1790.12,1383.11 1794.49,1383.12 1798.85,1383.13 1803.21,1383.14 1807.57,1383.14 1811.93,1383.15 1816.29,1383.15 1820.66,1383.15 1825.02,1383.16 1829.38,1383.16 1833.74,1383.15 1838.1,1383.15 1842.46,1383.14 1846.82,1383.14 1851.19,1383.14 1855.55,1383.13 1859.91,1383.13 1864.27,1383.12 1868.63,1383.11 1872.99,1383.1 1877.35,1383.09 1881.72,1383.08 1886.08,1383.07 1890.44,1383.06 1894.8,1383.04 1899.16,1383.03 1903.52,1383.01 1907.88,1382.99 1912.25,1382.97 1916.61,1382.95 1920.97,1382.93 1925.33,1382.92 1929.69,1382.91 1934.05,1382.9 1938.42,1382.88 1942.78,1382.87 1947.14,1382.85 1951.5,1382.85 1955.86,1382.84 1960.22,1382.83 1964.58,1382.82 1968.95,1382.81 1973.31,1382.81 1977.67,1382.8 1982.03,1382.79 1986.39,1382.78 1990.75,1382.77 1995.11,1382.76 1999.48,1382.75 2003.84,1382.74 2008.2,1382.72 2012.56,1382.7 2016.92,1382.68 2021.28,1382.67 2025.64,1382.65 2030.01,1382.62 2034.37,1382.6 2038.73,1382.57 2043.09,1382.54 2047.45,1382.52 2051.81,1382.51 2056.18,1382.5 2060.54,1382.49 2064.9,1382.48 2069.26,1382.46 2073.62,1382.45 2077.98,1382.44 2082.34,1382.44 2086.71,1382.43 2091.07,1382.43 2095.43,1382.42 2099.79,1382.42 2104.15,1382.41 2108.51,1382.41 2112.87,1382.41 2117.24,1382.41 2121.6,1382.41 2125.96,1382.41 2130.32,1382.41 2134.68,1382.4 2139.04,1382.4 2143.4,1382.4 2147.77,1382.39 2152.13,1382.39 2156.49,1382.38 2160.85,1382.37 2165.21,1382.37 2169.57,1382.37 2173.94,1382.37 2178.3,1382.38 2182.66,1382.39 2187.02,1382.4 2191.38,1382.42 2195.74,1382.43 2200.1,1382.44 2204.47,1382.45 2208.83,1382.46 2213.19,1382.47 2217.55,1382.49 2221.91,1382.5 2226.27,1382.51 2230.63,1382.51 2235,1382.52 2239.36,1382.53 2243.72,1382.55 2248.08,1382.55 2252.44,1382.57 2256.8,1382.58 2261.16,1382.59 2265.53,1382.6 2269.89,1382.6 2274.25,1382.6 2278.61,1382.61 2282.97,1382.61 2287.33,1382.61 2291.7,1382.6 2296.06,1382.6 2300.42,1382.6 2304.78,1382.6 2309.14,1382.6 2313.5,1382.59 2317.86,1382.59 2322.23,1382.6 2326.59,1382.6 2330.95,1382.6 2335.31,1382.59 2339.67,1382.59 2344.03,1382.59 2348.39,1382.58 2352.76,1382.58 "/>
<polyline clip-path="url(#clip102)" style="stroke:#e26f46; stroke-linecap:round; stroke-linejoin:round; stroke-width:4; stroke-opacity:1; fill:none" points="172.015,1383.41 176.376,1383.44 180.738,1383.47 185.099,1383.51 189.461,1383.54 193.822,1383.56 198.184,1383.59 202.545,1383.62 206.907,1383.64 211.268,1383.66 215.63,1383.67 219.991,1383.69 224.353,1383.7 228.714,1383.71 233.076,1383.72 237.437,1383.72 241.799,1383.71 246.16,1383.71 250.521,1383.69 254.883,1383.68 259.244,1383.68 263.606,1383.66 267.967,1383.65 272.329,1383.64 276.69,1383.63 281.052,1383.62 285.413,1383.61 289.775,1383.61 294.136,1383.59 298.498,1383.57 302.859,1383.56 307.221,1383.54 311.582,1383.53 315.944,1383.52 320.305,1383.51 324.667,1383.5 329.028,1383.5 333.39,1383.5 337.751,1383.5 342.113,1383.51 346.474,1383.52 350.836,1383.52 355.197,1383.52 359.559,1383.51 363.92,1383.5 368.282,1383.49 372.643,1383.47 377.004,1383.46 381.366,1383.44 385.727,1383.42 390.089,1383.39 394.45,1383.37 398.812,1383.34 403.173,1383.32 407.535,1383.28 411.896,1383.25 416.258,1383.22 420.619,1383.18 424.981,1383.14 429.342,1383.1 433.704,1383.06 438.065,1383.02 442.427,1382.98 446.788,1382.94 451.15,1382.9 455.511,1382.85 459.873,1382.81 464.234,1382.76 468.596,1382.72 472.957,1382.67 477.319,1382.63 481.68,1382.58 486.042,1382.53 490.403,1382.49 494.764,1382.44 499.126,1382.39 503.487,1382.34 507.849,1382.3 512.21,1382.25 516.572,1382.21 520.933,1382.16 525.295,1382.12 529.656,1382.06 534.018,1382 538.379,1381.94 542.741,1381.89 547.102,1381.82 551.464,1381.76 555.825,1381.69 560.187,1381.62 564.548,1381.55 568.91,1381.48 573.271,1381.41 577.633,1381.34 581.994,1381.26 586.356,1381.19 590.717,1381.11 595.079,1381.04 599.44,1380.96 603.802,1380.89 608.163,1380.82 612.525,1380.75 616.886,1380.68 621.247,1380.62 625.609,1380.57 629.97,1380.49 634.332,1380.41 638.693,1380.33 643.055,1380.24 647.416,1380.15 651.778,1380.05 656.139,1379.95 660.501,1379.85 664.862,1379.75 669.224,1379.65 673.585,1379.54 677.947,1379.44 682.308,1379.33 686.67,1379.22 691.031,1379.11 695.393,1378.99 699.754,1378.87 704.116,1378.74 708.477,1378.62 712.839,1378.49 717.2,1378.36 721.562,1378.23 725.923,1378.1 730.285,1377.96 734.646,1377.82 739.008,1377.68 743.369,1377.55 747.73,1377.42 752.092,1377.29 756.453,1377.15 760.815,1377 765.176,1376.85 769.538,1376.7 773.899,1376.54 778.261,1376.38 782.622,1376.22 786.984,1376.06 791.345,1375.89 795.707,1375.74 800.068,1375.59 804.43,1375.42 808.791,1375.27 813.153,1375.12 817.514,1374.93 821.876,1374.74 826.237,1374.55 830.599,1374.34 834.96,1374.13 839.322,1373.91 843.683,1373.7 848.045,1373.49 852.406,1373.28 856.768,1373.05 861.129,1372.83 865.49,1372.6 869.852,1372.36 874.213,1372.1 878.575,1371.84 882.936,1371.58 887.298,1371.31 891.659,1371.03 896.021,1370.75 900.382,1370.47 904.744,1370.18 909.105,1369.89 913.467,1369.6 917.828,1369.32 922.19,1369.05 926.551,1368.79 930.913,1368.5 935.274,1368.21 939.636,1367.89 943.997,1367.59 948.359,1367.28 952.72,1366.99 957.082,1366.68 961.443,1366.41 965.805,1366.11 970.166,1365.83 974.528,1365.51 978.889,1365.15 983.251,1364.79 987.612,1364.45 991.973,1364.11 996.335,1363.74 1000.7,1363.33 1005.06,1362.91 1009.42,1362.47 1013.78,1362.02 1018.14,1361.56 1022.5,1361.09 1026.87,1360.61 1031.23,1360.13 1035.59,1359.65 1039.95,1359.17 1044.31,1358.69 1048.67,1358.17 1053.03,1357.7 1057.4,1357.19 1061.76,1356.69 1066.12,1356.15 1070.48,1355.57 1074.84,1354.98 1079.2,1354.38 1083.56,1353.76 1087.93,1353.14 1092.29,1352.51 1096.65,1351.9 1101.01,1351.33 1105.37,1350.82 1109.73,1350.17 1114.09,1349.5 1118.46,1348.81 1122.82,1348.08 1127.18,1347.34 1131.54,1346.59 1135.9,1345.82 1140.26,1345.04 1144.63,1344.24 1148.99,1343.48 1153.35,1342.67 1157.71,1341.86 1162.07,1341.04 1166.43,1340.25 1170.79,1339.48 1175.16,1338.67 1179.52,1337.96 1183.88,1337.22 1188.24,1336.4 1192.6,1335.73 1196.96,1335.11 1201.32,1334.51 1205.69,1334.02 1210.05,1333.59 1214.41,1333.07 1218.77,1332.77 1223.13,1332.32 1227.49,1331.66 1231.85,1331.03 1236.22,1330.16 1240.58,1329.13 1244.94,1328.11 1249.3,1327.03 1253.66,1325.91 1258.02,1324.78 1262.39,1323.63 1266.75,1322.47 1271.11,1321.26 1275.47,1320.02 1279.83,1318.72 1284.19,1317.41 1288.55,1316.12 1292.92,1314.81 1297.28,1313.4 1301.64,1311.97 1306,1310.51 1310.36,1309.02 1314.72,1307.51 1319.08,1306.06 1323.45,1304.76 1327.81,1303.35 1332.17,1301.97 1336.53,1300.67 1340.89,1299.49 1345.25,1298.43 1349.62,1297.63 1353.98,1297 1358.34,1296.09 1362.7,1295.43 1367.06,1295 1371.42,1295.07 1375.78,1294.74 1380.15,1294.1 1384.51,1293.66 1388.87,1293.11 1393.23,1292.61 1397.59,1291.89 1401.95,1290.62 1406.31,1289.42 1410.68,1288.01 1415.04,1286.36 1419.4,1284.61 1423.76,1282.81 1428.12,1281.19 1432.48,1279.51 1436.84,1277.76 1441.21,1275.91 1445.57,1274.22 1449.93,1272.85 1454.29,1271.41 1458.65,1269.8 1463.01,1267.92 1467.38,1265.76 1471.74,1263.61 1476.1,1261.5 1480.46,1259.32 1484.82,1257.2 1489.18,1255.2 1493.54,1252.98 1497.91,1250.77 1502.27,1248.47 1506.63,1246.36 1510.99,1244.43 1515.35,1242.28 1519.71,1240.24 1524.07,1238.4 1528.44,1236.53 1532.8,1234.74 1537.16,1232.92 1541.52,1231.2 1545.88,1229.53 1550.24,1227.7 1554.6,1226.03 1558.97,1223.98 1563.33,1221.73 1567.69,1219.42 1572.05,1216.98 1576.41,1214.75 1580.77,1212.58 1585.14,1210.15 1589.5,1207.79 1593.86,1205.28 1598.22,1203.12 1602.58,1200.91 1606.94,1198.46 1611.3,1195.49 1615.67,1192.45 1620.03,1189.33 1624.39,1186.27 1628.75,1183.42 1633.11,1179.99 1637.47,1176.23 1641.83,1172.76 1646.2,1169.43 1650.56,1166.09 1654.92,1162.83 1659.28,1159.22 1663.64,1154.9 1668,1150.84 1672.36,1147.11 1676.73,1142.98 1681.09,1139.18 1685.45,1134.79 1689.81,1129.89 1694.17,1124.86 1698.53,1119.66 1702.9,1114.53 1707.26,1109.14 1711.62,1103.65 1715.98,1098.06 1720.34,1092.36 1724.7,1086.5 1729.06,1080.54 1733.43,1074.52 1737.79,1068.32 1742.15,1062.19 1746.51,1055.98 1750.87,1049.46 1755.23,1042.75 1759.59,1035.9 1763.96,1029.11 1768.32,1022.27 1772.68,1015.02 1777.04,1007.71 1781.4,1000.26 1785.76,992.636 1790.12,984.919 1794.49,976.923 1798.85,968.907 1803.21,960.592 1807.57,952.155 1811.93,943.511 1816.29,934.681 1820.66,925.707 1825.02,916.588 1829.38,907.538 1833.74,898.904 1838.1,889.894 1842.46,880.414 1846.82,870.498 1851.19,860.255 1855.55,849.759 1859.91,839.052 1864.27,828.136 1868.63,817.462 1872.99,806.161 1877.35,794.625 1881.72,782.876 1886.08,771.123 1890.44,759.261 1894.8,747.107 1899.16,734.444 1903.52,721.476 1907.88,708.484 1912.25,695.219 1916.61,681.474 1920.97,668.048 1925.33,654 1929.69,640.093 1934.05,626.454 1938.42,611.758 1942.78,596.699 1947.14,581.81 1951.5,567.562 1955.86,553.473 1960.22,538.759 1964.58,522.19 1968.95,505.197 1973.31,488.117 1977.67,470.887 1982.03,454.27 1986.39,437.413 1990.75,419.649 1995.11,400.599 1999.48,381.17 2003.84,361.476 2008.2,341.522 2012.56,321.812 2016.92,301.252 2021.28,281.229 2025.64,259.731 2030.01,237.987 2034.37,217.521 2038.73,199.631 2043.09,182.077 2047.45,162.206 2051.81,144.482 2056.18,128.95 2060.54,117.278 2064.9,106.942 2069.26,97.1441 2073.62,90.7818 2077.98,88.5706 2082.34,87.6135 2086.71,86.1857 2091.07,89.8452 2095.43,93.7473 2099.79,96.6345 2104.15,109.638 2108.51,122.83 2112.87,135.743 2117.24,150.097 2121.6,165.736 2125.96,178.762 2130.32,190.792 2134.68,200.508 2139.04,206.868 2143.4,212.162 2147.77,217.056 2152.13,227.189 2156.49,235.657 2160.85,243.562 2165.21,253.907 2169.57,265.163 2173.94,274.53 2178.3,284.241 2182.66,291.954 2187.02,295.905 2191.38,299.16 2195.74,305.329 2200.1,310.977 2204.47,322.288 2208.83,328.891 2213.19,337.812 2217.55,343.788 2221.91,347.708 2226.27,351.353 2230.63,354.487 2235,358.656 2239.36,361.167 2243.72,365.295 2248.08,366.494 2252.44,368.041 2256.8,368.084 2261.16,365.7 2265.53,360.895 2269.89,359.523 2274.25,357.979 2278.61,354.77 2282.97,354.344 2287.33,352.763 2291.7,354.35 2296.06,356.406 2300.42,356.581 2304.78,355.62 2309.14,357.603 2313.5,360.106 2317.86,363.646 2322.23,367.719 2326.59,366.549 2330.95,368.601 2335.31,369.965 2339.67,370.846 2344.03,370.899 2348.39,373.458 2352.76,376.595 "/>
<path clip-path="url(#clip100)" d="M244.706 248.629 L551.877 248.629 L551.877 93.1086 L244.706 93.1086  Z" fill="#ffffff" fill-rule="evenodd" fill-opacity="1"/>
<polyline clip-path="url(#clip100)" style="stroke:#000000; stroke-linecap:round; stroke-linejoin:round; stroke-width:4; stroke-opacity:1; fill:none" points="244.706,248.629 551.877,248.629 551.877,93.1086 244.706,93.1086 244.706,248.629 "/>
<polyline clip-path="url(#clip100)" style="stroke:#009af9; stroke-linecap:round; stroke-linejoin:round; stroke-width:4; stroke-opacity:1; fill:none" points="268.937,144.949 414.319,144.949 "/>
<path clip-path="url(#clip100)" d="M438.55 151.997 L438.55 136.303 L442.809 136.303 L442.809 151.835 Q442.809 155.516 444.244 157.368 Q445.679 159.196 448.55 159.196 Q451.999 159.196 453.99 156.997 Q456.003 154.798 456.003 151.002 L456.003 136.303 L460.263 136.303 L460.263 162.229 L456.003 162.229 L456.003 158.247 Q454.453 160.608 452.392 161.766 Q450.355 162.9 447.647 162.9 Q443.179 162.9 440.865 160.122 Q438.55 157.344 438.55 151.997 M449.267 135.678 L449.267 135.678 Z" fill="#000000" fill-rule="nonzero" fill-opacity="1" /><path clip-path="url(#clip100)" d="M468.642 126.21 L478.457 126.21 L478.457 129.52 L472.902 129.52 L472.902 165.168 L478.457 165.168 L478.457 168.479 L468.642 168.479 L468.642 126.21 Z" fill="#000000" fill-rule="nonzero" fill-opacity="1" /><path clip-path="url(#clip100)" d="M488.943 158.293 L496.582 158.293 L496.582 131.928 L488.272 133.595 L488.272 129.335 L496.536 127.669 L501.212 127.669 L501.212 158.293 L508.85 158.293 L508.85 162.229 L488.943 162.229 L488.943 158.293 Z" fill="#000000" fill-rule="nonzero" fill-opacity="1" /><path clip-path="url(#clip100)" d="M527.647 126.21 L527.647 168.479 L517.832 168.479 L517.832 165.168 L523.364 165.168 L523.364 129.52 L517.832 129.52 L517.832 126.21 L527.647 126.21 Z" fill="#000000" fill-rule="nonzero" fill-opacity="1" /><polyline clip-path="url(#clip100)" style="stroke:#e26f46; stroke-linecap:round; stroke-linejoin:round; stroke-width:4; stroke-opacity:1; fill:none" points="268.937,196.789 414.319,196.789 "/>
<path clip-path="url(#clip100)" d="M438.55 203.837 L438.55 188.143 L442.809 188.143 L442.809 203.675 Q442.809 207.356 444.244 209.208 Q445.679 211.036 448.55 211.036 Q451.999 211.036 453.99 208.837 Q456.003 206.638 456.003 202.842 L456.003 188.143 L460.263 188.143 L460.263 214.069 L456.003 214.069 L456.003 210.087 Q454.453 212.448 452.392 213.606 Q450.355 214.74 447.647 214.74 Q443.179 214.74 440.865 211.962 Q438.55 209.184 438.55 203.837 M449.267 187.518 L449.267 187.518 Z" fill="#000000" fill-rule="nonzero" fill-opacity="1" /><path clip-path="url(#clip100)" d="M468.642 178.05 L478.457 178.05 L478.457 181.36 L472.902 181.36 L472.902 217.008 L478.457 217.008 L478.457 220.319 L468.642 220.319 L468.642 178.05 Z" fill="#000000" fill-rule="nonzero" fill-opacity="1" /><path clip-path="url(#clip100)" d="M492.161 210.133 L508.48 210.133 L508.48 214.069 L486.536 214.069 L486.536 210.133 Q489.198 207.379 493.781 202.749 Q498.387 198.096 499.568 196.754 Q501.813 194.231 502.693 192.495 Q503.596 190.735 503.596 189.046 Q503.596 186.291 501.651 184.555 Q499.73 182.819 496.628 182.819 Q494.429 182.819 491.975 183.583 Q489.545 184.347 486.767 185.897 L486.767 181.175 Q489.591 180.041 492.045 179.462 Q494.499 178.884 496.536 178.884 Q501.906 178.884 505.1 181.569 Q508.295 184.254 508.295 188.745 Q508.295 190.874 507.485 192.796 Q506.698 194.694 504.591 197.286 Q504.012 197.958 500.911 201.175 Q497.809 204.37 492.161 210.133 Z" fill="#000000" fill-rule="nonzero" fill-opacity="1" /><path clip-path="url(#clip100)" d="M527.647 178.05 L527.647 220.319 L517.832 220.319 L517.832 217.008 L523.364 217.008 L523.364 181.36 L517.832 181.36 L517.832 178.05 L527.647 178.05 Z" fill="#000000" fill-rule="nonzero" fill-opacity="1" /></svg>
