<?xml version="1.0" encoding="utf-8"?>
<svg xmlns="http://www.w3.org/2000/svg" xmlns:xlink="http://www.w3.org/1999/xlink" width="600" height="400" viewBox="0 0 2400 1600">
<defs>
  <clipPath id="clip470">
    <rect x="0" y="0" width="2400" height="1600"/>
  </clipPath>
</defs>
<path clip-path="url(#clip470)" d="M0 1600 L2400 1600 L2400 0 L0 0  Z" fill="#ffffff" fill-rule="evenodd" fill-opacity="1"/>
<defs>
  <clipPath id="clip471">
    <rect x="138" y="47" width="2215" height="1377"/>
  </clipPath>
</defs>
<path clip-path="url(#clip470)" d="M138.959 1423.18 L2352.76 1423.18 L2352.76 47.2441 L138.959 47.2441  Z" fill="#ffffff" fill-rule="evenodd" fill-opacity="1"/>
<polyline clip-path="url(#clip471)" style="stroke:#000000; stroke-linecap:round; stroke-linejoin:round; stroke-width:2; stroke-opacity:0.1; fill:none" points="138.959,1423.18 138.959,47.2441 "/>
<polyline clip-path="url(#clip471)" style="stroke:#000000; stroke-linecap:round; stroke-linejoin:round; stroke-width:2; stroke-opacity:0.1; fill:none" points="581.719,1423.18 581.719,47.2441 "/>
<polyline clip-path="url(#clip471)" style="stroke:#000000; stroke-linecap:round; stroke-linejoin:round; stroke-width:2; stroke-opacity:0.1; fill:none" points="1024.48,1423.18 1024.48,47.2441 "/>
<polyline clip-path="url(#clip471)" style="stroke:#000000; stroke-linecap:round; stroke-linejoin:round; stroke-width:2; stroke-opacity:0.1; fill:none" points="1467.24,1423.18 1467.24,47.2441 "/>
<polyline clip-path="url(#clip471)" style="stroke:#000000; stroke-linecap:round; stroke-linejoin:round; stroke-width:2; stroke-opacity:0.1; fill:none" points="1910,1423.18 1910,47.2441 "/>
<polyline clip-path="url(#clip471)" style="stroke:#000000; stroke-linecap:round; stroke-linejoin:round; stroke-width:2; stroke-opacity:0.1; fill:none" points="2352.76,1423.18 2352.76,47.2441 "/>
<polyline clip-path="url(#clip471)" style="stroke:#000000; stroke-linecap:round; stroke-linejoin:round; stroke-width:2; stroke-opacity:0.1; fill:none" points="138.959,1405.2 2352.76,1405.2 "/>
<polyline clip-path="url(#clip471)" style="stroke:#000000; stroke-linecap:round; stroke-linejoin:round; stroke-width:2; stroke-opacity:0.1; fill:none" points="138.959,986.969 2352.76,986.969 "/>
<polyline clip-path="url(#clip471)" style="stroke:#000000; stroke-linecap:round; stroke-linejoin:round; stroke-width:2; stroke-opacity:0.1; fill:none" points="138.959,568.738 2352.76,568.738 "/>
<polyline clip-path="url(#clip471)" style="stroke:#000000; stroke-linecap:round; stroke-linejoin:round; stroke-width:2; stroke-opacity:0.1; fill:none" points="138.959,150.507 2352.76,150.507 "/>
<polyline clip-path="url(#clip470)" style="stroke:#000000; stroke-linecap:round; stroke-linejoin:round; stroke-width:4; stroke-opacity:1; fill:none" points="138.959,1423.18 2352.76,1423.18 "/>
<polyline clip-path="url(#clip470)" style="stroke:#000000; stroke-linecap:round; stroke-linejoin:round; stroke-width:4; stroke-opacity:1; fill:none" points="138.959,1423.18 138.959,1404.28 "/>
<polyline clip-path="url(#clip470)" style="stroke:#000000; stroke-linecap:round; stroke-linejoin:round; stroke-width:4; stroke-opacity:1; fill:none" points="581.719,1423.18 581.719,1404.28 "/>
<polyline clip-path="url(#clip470)" style="stroke:#000000; stroke-linecap:round; stroke-linejoin:round; stroke-width:4; stroke-opacity:1; fill:none" points="1024.48,1423.18 1024.48,1404.28 "/>
<polyline clip-path="url(#clip470)" style="stroke:#000000; stroke-linecap:round; stroke-linejoin:round; stroke-width:4; stroke-opacity:1; fill:none" points="1467.24,1423.18 1467.24,1404.28 "/>
<polyline clip-path="url(#clip470)" style="stroke:#000000; stroke-linecap:round; stroke-linejoin:round; stroke-width:4; stroke-opacity:1; fill:none" points="1910,1423.18 1910,1404.28 "/>
<polyline clip-path="url(#clip470)" style="stroke:#000000; stroke-linecap:round; stroke-linejoin:round; stroke-width:4; stroke-opacity:1; fill:none" points="2352.76,1423.18 2352.76,1404.28 "/>
<path clip-path="url(#clip470)" d="M116.344 1454.1 Q112.733 1454.1 110.904 1457.66 Q109.098 1461.2 109.098 1468.33 Q109.098 1475.44 110.904 1479.01 Q112.733 1482.55 116.344 1482.55 Q119.978 1482.55 121.784 1479.01 Q123.612 1475.44 123.612 1468.33 Q123.612 1461.2 121.784 1457.66 Q119.978 1454.1 116.344 1454.1 M116.344 1450.39 Q122.154 1450.39 125.21 1455 Q128.288 1459.58 128.288 1468.33 Q128.288 1477.06 125.21 1481.67 Q122.154 1486.25 116.344 1486.25 Q110.534 1486.25 107.455 1481.67 Q104.399 1477.06 104.399 1468.33 Q104.399 1459.58 107.455 1455 Q110.534 1450.39 116.344 1450.39 Z" fill="#000000" fill-rule="nonzero" fill-opacity="1" /><path clip-path="url(#clip470)" d="M136.506 1479.7 L141.39 1479.7 L141.39 1485.58 L136.506 1485.58 L136.506 1479.7 Z" fill="#000000" fill-rule="nonzero" fill-opacity="1" /><path clip-path="url(#clip470)" d="M161.575 1454.1 Q157.964 1454.1 156.135 1457.66 Q154.33 1461.2 154.33 1468.33 Q154.33 1475.44 156.135 1479.01 Q157.964 1482.55 161.575 1482.55 Q165.209 1482.55 167.015 1479.01 Q168.844 1475.44 168.844 1468.33 Q168.844 1461.2 167.015 1457.66 Q165.209 1454.1 161.575 1454.1 M161.575 1450.39 Q167.385 1450.39 170.441 1455 Q173.519 1459.58 173.519 1468.33 Q173.519 1477.06 170.441 1481.67 Q167.385 1486.25 161.575 1486.25 Q155.765 1486.25 152.686 1481.67 Q149.631 1477.06 149.631 1468.33 Q149.631 1459.58 152.686 1455 Q155.765 1450.39 161.575 1450.39 Z" fill="#000000" fill-rule="nonzero" fill-opacity="1" /><path clip-path="url(#clip470)" d="M559.902 1454.1 Q556.291 1454.1 554.462 1457.66 Q552.656 1461.2 552.656 1468.33 Q552.656 1475.44 554.462 1479.01 Q556.291 1482.55 559.902 1482.55 Q563.536 1482.55 565.342 1479.01 Q567.17 1475.44 567.17 1468.33 Q567.17 1461.2 565.342 1457.66 Q563.536 1454.1 559.902 1454.1 M559.902 1450.39 Q565.712 1450.39 568.767 1455 Q571.846 1459.58 571.846 1468.33 Q571.846 1477.06 568.767 1481.67 Q565.712 1486.25 559.902 1486.25 Q554.092 1486.25 551.013 1481.67 Q547.957 1477.06 547.957 1468.33 Q547.957 1459.58 551.013 1455 Q554.092 1450.39 559.902 1450.39 Z" fill="#000000" fill-rule="nonzero" fill-opacity="1" /><path clip-path="url(#clip470)" d="M580.064 1479.7 L584.948 1479.7 L584.948 1485.58 L580.064 1485.58 L580.064 1479.7 Z" fill="#000000" fill-rule="nonzero" fill-opacity="1" /><path clip-path="url(#clip470)" d="M599.161 1481.64 L615.48 1481.64 L615.48 1485.58 L593.536 1485.58 L593.536 1481.64 Q596.198 1478.89 600.781 1474.26 Q605.388 1469.61 606.568 1468.27 Q608.813 1465.74 609.693 1464.01 Q610.596 1462.25 610.596 1460.56 Q610.596 1457.8 608.651 1456.07 Q606.73 1454.33 603.628 1454.33 Q601.429 1454.33 598.976 1455.09 Q596.545 1455.86 593.767 1457.41 L593.767 1452.69 Q596.591 1451.55 599.045 1450.97 Q601.499 1450.39 603.536 1450.39 Q608.906 1450.39 612.101 1453.08 Q615.295 1455.77 615.295 1460.26 Q615.295 1462.39 614.485 1464.31 Q613.698 1466.2 611.591 1468.8 Q611.013 1469.47 607.911 1472.69 Q604.809 1475.88 599.161 1481.64 Z" fill="#000000" fill-rule="nonzero" fill-opacity="1" /><path clip-path="url(#clip470)" d="M1001.62 1454.1 Q998.008 1454.1 996.18 1457.66 Q994.374 1461.2 994.374 1468.33 Q994.374 1475.44 996.18 1479.01 Q998.008 1482.55 1001.62 1482.55 Q1005.25 1482.55 1007.06 1479.01 Q1008.89 1475.44 1008.89 1468.33 Q1008.89 1461.2 1007.06 1457.66 Q1005.25 1454.1 1001.62 1454.1 M1001.62 1450.39 Q1007.43 1450.39 1010.49 1455 Q1013.56 1459.58 1013.56 1468.33 Q1013.56 1477.06 1010.49 1481.67 Q1007.43 1486.25 1001.62 1486.25 Q995.809 1486.25 992.731 1481.67 Q989.675 1477.06 989.675 1468.33 Q989.675 1459.58 992.731 1455 Q995.809 1450.39 1001.62 1450.39 Z" fill="#000000" fill-rule="nonzero" fill-opacity="1" /><path clip-path="url(#clip470)" d="M1021.78 1479.7 L1026.67 1479.7 L1026.67 1485.58 L1021.78 1485.58 L1021.78 1479.7 Z" fill="#000000" fill-rule="nonzero" fill-opacity="1" /><path clip-path="url(#clip470)" d="M1049.7 1455.09 L1037.89 1473.54 L1049.7 1473.54 L1049.7 1455.09 M1048.47 1451.02 L1054.35 1451.02 L1054.35 1473.54 L1059.28 1473.54 L1059.28 1477.43 L1054.35 1477.43 L1054.35 1485.58 L1049.7 1485.58 L1049.7 1477.43 L1034.1 1477.43 L1034.1 1472.92 L1048.47 1451.02 Z" fill="#000000" fill-rule="nonzero" fill-opacity="1" /><path clip-path="url(#clip470)" d="M1444.54 1454.1 Q1440.93 1454.1 1439.1 1457.66 Q1437.3 1461.2 1437.3 1468.33 Q1437.3 1475.44 1439.1 1479.01 Q1440.93 1482.55 1444.54 1482.55 Q1448.17 1482.55 1449.98 1479.01 Q1451.81 1475.44 1451.81 1468.33 Q1451.81 1461.2 1449.98 1457.66 Q1448.17 1454.1 1444.54 1454.1 M1444.54 1450.39 Q1450.35 1450.39 1453.41 1455 Q1456.49 1459.58 1456.49 1468.33 Q1456.49 1477.06 1453.41 1481.67 Q1450.35 1486.25 1444.54 1486.25 Q1438.73 1486.25 1435.65 1481.67 Q1432.6 1477.06 1432.6 1468.33 Q1432.6 1459.58 1435.65 1455 Q1438.73 1450.39 1444.54 1450.39 Z" fill="#000000" fill-rule="nonzero" fill-opacity="1" /><path clip-path="url(#clip470)" d="M1464.7 1479.7 L1469.59 1479.7 L1469.59 1485.58 L1464.7 1485.58 L1464.7 1479.7 Z" fill="#000000" fill-rule="nonzero" fill-opacity="1" /><path clip-path="url(#clip470)" d="M1490.35 1466.44 Q1487.2 1466.44 1485.35 1468.59 Q1483.52 1470.74 1483.52 1474.49 Q1483.52 1478.22 1485.35 1480.39 Q1487.2 1482.55 1490.35 1482.55 Q1493.5 1482.55 1495.33 1480.39 Q1497.18 1478.22 1497.18 1474.49 Q1497.18 1470.74 1495.33 1468.59 Q1493.5 1466.44 1490.35 1466.44 M1499.63 1451.78 L1499.63 1456.04 Q1497.87 1455.21 1496.07 1454.77 Q1494.29 1454.33 1492.53 1454.33 Q1487.9 1454.33 1485.44 1457.45 Q1483.01 1460.58 1482.67 1466.9 Q1484.03 1464.89 1486.09 1463.82 Q1488.15 1462.73 1490.63 1462.73 Q1495.84 1462.73 1498.85 1465.9 Q1501.88 1469.05 1501.88 1474.49 Q1501.88 1479.82 1498.73 1483.03 Q1495.58 1486.25 1490.35 1486.25 Q1484.36 1486.25 1481.18 1481.67 Q1478.01 1477.06 1478.01 1468.33 Q1478.01 1460.14 1481.9 1455.28 Q1485.79 1450.39 1492.34 1450.39 Q1494.1 1450.39 1495.88 1450.74 Q1497.69 1451.09 1499.63 1451.78 Z" fill="#000000" fill-rule="nonzero" fill-opacity="1" /><path clip-path="url(#clip470)" d="M1887.43 1454.1 Q1883.82 1454.1 1881.99 1457.66 Q1880.18 1461.2 1880.18 1468.33 Q1880.18 1475.44 1881.99 1479.01 Q1883.82 1482.55 1887.43 1482.55 Q1891.06 1482.55 1892.87 1479.01 Q1894.7 1475.44 1894.7 1468.33 Q1894.7 1461.2 1892.87 1457.66 Q1891.06 1454.1 1887.43 1454.1 M1887.43 1450.39 Q1893.24 1450.39 1896.29 1455 Q1899.37 1459.58 1899.37 1468.33 Q1899.37 1477.06 1896.29 1481.67 Q1893.24 1486.25 1887.43 1486.25 Q1881.62 1486.25 1878.54 1481.67 Q1875.48 1477.06 1875.48 1468.33 Q1875.48 1459.58 1878.54 1455 Q1881.62 1450.39 1887.43 1450.39 Z" fill="#000000" fill-rule="nonzero" fill-opacity="1" /><path clip-path="url(#clip470)" d="M1907.59 1479.7 L1912.47 1479.7 L1912.47 1485.58 L1907.59 1485.58 L1907.59 1479.7 Z" fill="#000000" fill-rule="nonzero" fill-opacity="1" /><path clip-path="url(#clip470)" d="M1932.66 1469.17 Q1929.33 1469.17 1927.4 1470.95 Q1925.51 1472.73 1925.51 1475.86 Q1925.51 1478.98 1927.4 1480.77 Q1929.33 1482.55 1932.66 1482.55 Q1935.99 1482.55 1937.91 1480.77 Q1939.83 1478.96 1939.83 1475.86 Q1939.83 1472.73 1937.91 1470.95 Q1936.01 1469.17 1932.66 1469.17 M1927.98 1467.18 Q1924.97 1466.44 1923.28 1464.38 Q1921.62 1462.32 1921.62 1459.35 Q1921.62 1455.21 1924.56 1452.8 Q1927.52 1450.39 1932.66 1450.39 Q1937.82 1450.39 1940.76 1452.8 Q1943.7 1455.21 1943.7 1459.35 Q1943.7 1462.32 1942.01 1464.38 Q1940.34 1466.44 1937.36 1467.18 Q1940.74 1467.96 1942.61 1470.26 Q1944.51 1472.55 1944.51 1475.86 Q1944.51 1480.88 1941.43 1483.57 Q1938.38 1486.25 1932.66 1486.25 Q1926.94 1486.25 1923.86 1483.57 Q1920.81 1480.88 1920.81 1475.86 Q1920.81 1472.55 1922.7 1470.26 Q1924.6 1467.96 1927.98 1467.18 M1926.27 1459.79 Q1926.27 1462.48 1927.94 1463.98 Q1929.63 1465.49 1932.66 1465.49 Q1935.67 1465.49 1937.36 1463.98 Q1939.07 1462.48 1939.07 1459.79 Q1939.07 1457.11 1937.36 1455.6 Q1935.67 1454.1 1932.66 1454.1 Q1929.63 1454.1 1927.94 1455.6 Q1926.27 1457.11 1926.27 1459.79 Z" fill="#000000" fill-rule="nonzero" fill-opacity="1" /><path clip-path="url(#clip470)" d="M2319.91 1481.64 L2327.55 1481.64 L2327.55 1455.28 L2319.24 1456.95 L2319.24 1452.69 L2327.5 1451.02 L2332.18 1451.02 L2332.18 1481.64 L2339.82 1481.64 L2339.82 1485.58 L2319.91 1485.58 L2319.91 1481.64 Z" fill="#000000" fill-rule="nonzero" fill-opacity="1" /><path clip-path="url(#clip470)" d="M2349.26 1479.7 L2354.14 1479.7 L2354.14 1485.58 L2349.26 1485.58 L2349.26 1479.7 Z" fill="#000000" fill-rule="nonzero" fill-opacity="1" /><path clip-path="url(#clip470)" d="M2374.33 1454.1 Q2370.72 1454.1 2368.89 1457.66 Q2367.08 1461.2 2367.08 1468.33 Q2367.08 1475.44 2368.89 1479.01 Q2370.72 1482.55 2374.33 1482.55 Q2377.96 1482.55 2379.77 1479.01 Q2381.6 1475.44 2381.6 1468.33 Q2381.6 1461.2 2379.77 1457.66 Q2377.96 1454.1 2374.33 1454.1 M2374.33 1450.39 Q2380.14 1450.39 2383.2 1455 Q2386.27 1459.58 2386.27 1468.33 Q2386.27 1477.06 2383.2 1481.67 Q2380.14 1486.25 2374.33 1486.25 Q2368.52 1486.25 2365.44 1481.67 Q2362.39 1477.06 2362.39 1468.33 Q2362.39 1459.58 2365.44 1455 Q2368.52 1450.39 2374.33 1450.39 Z" fill="#000000" fill-rule="nonzero" fill-opacity="1" /><path clip-path="url(#clip470)" d="M1244.92 1522.27 L1244.92 1532.4 L1256.98 1532.4 L1256.98 1536.95 L1244.92 1536.95 L1244.92 1556.3 Q1244.92 1560.66 1246.1 1561.9 Q1247.31 1563.14 1250.97 1563.14 L1256.98 1563.14 L1256.98 1568.04 L1250.97 1568.04 Q1244.19 1568.04 1241.61 1565.53 Q1239.03 1562.98 1239.03 1556.3 L1239.03 1536.95 L1234.73 1536.95 L1234.73 1532.4 L1239.03 1532.4 L1239.03 1522.27 L1244.92 1522.27 Z" fill="#000000" fill-rule="nonzero" fill-opacity="1" /><polyline clip-path="url(#clip470)" style="stroke:#000000; stroke-linecap:round; stroke-linejoin:round; stroke-width:4; stroke-opacity:1; fill:none" points="138.959,1423.18 138.959,47.2441 "/>
<polyline clip-path="url(#clip470)" style="stroke:#000000; stroke-linecap:round; stroke-linejoin:round; stroke-width:4; stroke-opacity:1; fill:none" points="138.959,1405.2 157.857,1405.2 "/>
<polyline clip-path="url(#clip470)" style="stroke:#000000; stroke-linecap:round; stroke-linejoin:round; stroke-width:4; stroke-opacity:1; fill:none" points="138.959,986.969 157.857,986.969 "/>
<polyline clip-path="url(#clip470)" style="stroke:#000000; stroke-linecap:round; stroke-linejoin:round; stroke-width:4; stroke-opacity:1; fill:none" points="138.959,568.738 157.857,568.738 "/>
<polyline clip-path="url(#clip470)" style="stroke:#000000; stroke-linecap:round; stroke-linejoin:round; stroke-width:4; stroke-opacity:1; fill:none" points="138.959,150.507 157.857,150.507 "/>
<path clip-path="url(#clip470)" d="M91.0151 1391 Q87.404 1391 85.5753 1394.56 Q83.7697 1398.11 83.7697 1405.23 Q83.7697 1412.34 85.5753 1415.91 Q87.404 1419.45 91.0151 1419.45 Q94.6493 1419.45 96.4548 1415.91 Q98.2835 1412.34 98.2835 1405.23 Q98.2835 1398.11 96.4548 1394.56 Q94.6493 1391 91.0151 1391 M91.0151 1387.3 Q96.8252 1387.3 99.8808 1391.9 Q102.959 1396.49 102.959 1405.23 Q102.959 1413.96 99.8808 1418.57 Q96.8252 1423.15 91.0151 1423.15 Q85.2049 1423.15 82.1262 1418.57 Q79.0707 1413.96 79.0707 1405.23 Q79.0707 1396.49 82.1262 1391.9 Q85.2049 1387.3 91.0151 1387.3 Z" fill="#000000" fill-rule="nonzero" fill-opacity="1" /><path clip-path="url(#clip470)" d="M82.0568 969.689 L100.413 969.689 L100.413 973.624 L86.3392 973.624 L86.3392 982.097 Q87.3577 981.749 88.3762 981.587 Q89.3947 981.402 90.4132 981.402 Q96.2002 981.402 99.5798 984.573 Q102.959 987.745 102.959 993.161 Q102.959 998.74 99.4872 1001.84 Q96.015 1004.92 89.6956 1004.92 Q87.5197 1004.92 85.2512 1004.55 Q83.0058 1004.18 80.5984 1003.44 L80.5984 998.74 Q82.6818 999.874 84.904 1000.43 Q87.1262 1000.99 89.603 1000.99 Q93.6076 1000.99 95.9456 998.879 Q98.2835 996.772 98.2835 993.161 Q98.2835 989.55 95.9456 987.444 Q93.6076 985.337 89.603 985.337 Q87.728 985.337 85.8531 985.754 Q84.0012 986.171 82.0568 987.05 L82.0568 969.689 Z" fill="#000000" fill-rule="nonzero" fill-opacity="1" /><path clip-path="url(#clip470)" d="M51.6634 582.083 L59.3023 582.083 L59.3023 555.718 L50.9921 557.384 L50.9921 553.125 L59.256 551.458 L63.9319 551.458 L63.9319 582.083 L71.5707 582.083 L71.5707 586.018 L51.6634 586.018 L51.6634 582.083 Z" fill="#000000" fill-rule="nonzero" fill-opacity="1" /><path clip-path="url(#clip470)" d="M91.0151 554.537 Q87.404 554.537 85.5753 558.102 Q83.7697 561.643 83.7697 568.773 Q83.7697 575.879 85.5753 579.444 Q87.404 582.986 91.0151 582.986 Q94.6493 582.986 96.4548 579.444 Q98.2835 575.879 98.2835 568.773 Q98.2835 561.643 96.4548 558.102 Q94.6493 554.537 91.0151 554.537 M91.0151 550.833 Q96.8252 550.833 99.8808 555.44 Q102.959 560.023 102.959 568.773 Q102.959 577.5 99.8808 582.106 Q96.8252 586.69 91.0151 586.69 Q85.2049 586.69 82.1262 582.106 Q79.0707 577.5 79.0707 568.773 Q79.0707 560.023 82.1262 555.44 Q85.2049 550.833 91.0151 550.833 Z" fill="#000000" fill-rule="nonzero" fill-opacity="1" /><path clip-path="url(#clip470)" d="M52.6588 163.852 L60.2976 163.852 L60.2976 137.487 L51.9875 139.153 L51.9875 134.894 L60.2513 133.227 L64.9272 133.227 L64.9272 163.852 L72.5661 163.852 L72.5661 167.787 L52.6588 167.787 L52.6588 163.852 Z" fill="#000000" fill-rule="nonzero" fill-opacity="1" /><path clip-path="url(#clip470)" d="M82.0568 133.227 L100.413 133.227 L100.413 137.163 L86.3392 137.163 L86.3392 145.635 Q87.3577 145.287 88.3762 145.125 Q89.3947 144.94 90.4132 144.94 Q96.2002 144.94 99.5798 148.112 Q102.959 151.283 102.959 156.699 Q102.959 162.278 99.4872 165.38 Q96.015 168.459 89.6956 168.459 Q87.5197 168.459 85.2512 168.088 Q83.0058 167.718 80.5984 166.977 L80.5984 162.278 Q82.6818 163.412 84.904 163.968 Q87.1262 164.523 89.603 164.523 Q93.6076 164.523 95.9456 162.417 Q98.2835 160.311 98.2835 156.699 Q98.2835 153.088 95.9456 150.982 Q93.6076 148.875 89.603 148.875 Q87.728 148.875 85.8531 149.292 Q84.0012 149.709 82.0568 150.588 L82.0568 133.227 Z" fill="#000000" fill-rule="nonzero" fill-opacity="1" /><polyline clip-path="url(#clip471)" style="stroke:#009af9; stroke-linecap:round; stroke-linejoin:round; stroke-width:4; stroke-opacity:1; fill:none" points="138.959,1367.67 139.73,1367.16 140.529,1367.14 141.428,1368.06 142.439,1367.21 143.576,1367.9 144.856,1368.31 146.295,1369.29 147.915,1369.31 149.737,1368.05 151.786,1369.09 154.092,1367.46 156.686,1367.6 159.605,1366.67 162.888,1365.4 166.581,1363.76 170.737,1366.2 175.411,1368.87 180.67,1370.56 186.587,1371.11 193.242,1374.26 200.73,1372.66 209.154,1371.74 218.631,1376 229.293,1378.58 241.287,1380.42 254.78,1376.09 269.96,1373.67 287.038,1374.44 306.25,1371.78 327.864,1370.59 352.179,1374.68 379.534,1372.95 410.309,1371.96 444.93,1370.39 483.879,1364.07 527.696,1362.41 576.991,1364.27 625.959,1352.74 681.048,1356.55 730.992,1355.93 787.18,1362.24 841.971,1346.98 903.611,1349.84 957.033,1340 1017.13,1333.66 1082.71,1324.67 1154.85,1304.69 1236,1315.6 1286.07,1309.33 1342.4,1305.12 1402.72,1305.77 1454.3,1268.3 1512.33,1212.73 1569.93,1231.58 1609.65,1235.74 1654.34,1230.66 1700.36,1238.09 1743.98,1215.66 1793.06,1221.09 1830.92,1224.58 1873.52,1208.96 1921.45,1214.71 1965.87,1143.41 2015.85,1077.89 2072.07,958.951 2123.34,1039.72 2163.85,1037.2 2209.42,939.393 2260.68,920.618 2302.16,885.544 2348.82,793.191 2352.76,798.655 "/>
<polyline clip-path="url(#clip471)" style="stroke:#e26f46; stroke-linecap:round; stroke-linejoin:round; stroke-width:4; stroke-opacity:1; fill:none" points="138.959,1370.59 139.73,1370.12 140.529,1370.1 141.428,1370.95 142.439,1370.16 143.576,1370.81 144.856,1371.18 146.295,1372.08 147.915,1372.1 149.737,1370.94 151.786,1371.9 154.092,1370.4 156.686,1370.53 159.605,1369.67 162.888,1368.49 166.581,1366.99 170.737,1369.24 175.411,1371.69 180.67,1373.25 186.587,1373.76 193.242,1376.66 200.73,1375.19 209.154,1374.34 218.631,1378.27 229.293,1380.65 241.287,1382.34 254.78,1378.36 269.96,1376.12 287.038,1376.83 306.25,1374.38 327.864,1373.29 352.179,1377.06 379.534,1375.46 410.309,1374.54 444.93,1373.09 483.879,1367.27 527.696,1365.74 576.991,1367.45 625.959,1356.82 681.048,1360.34 730.992,1359.76 787.18,1365.59 841.971,1351.51 903.611,1354.15 957.033,1345.07 1017.13,1339.22 1082.71,1330.94 1154.85,1312.51 1236,1322.57 1286.07,1316.79 1342.4,1312.9 1402.72,1313.51 1454.3,1278.95 1512.33,1227.71 1569.93,1245.09 1609.65,1248.92 1654.34,1244.24 1700.36,1251.09 1743.98,1230.41 1793.06,1235.42 1830.92,1238.64 1873.52,1224.23 1921.45,1229.53 1965.87,1163.78 2015.85,1103.36 2072.07,993.674 2123.34,1068.16 2163.85,1065.83 2209.42,975.638 2260.68,958.324 2302.16,925.978 2348.82,840.812 2352.76,845.851 "/>
<polyline clip-path="url(#clip471)" style="stroke:#3da44d; stroke-linecap:round; stroke-linejoin:round; stroke-width:4; stroke-opacity:1; fill:none" points="138.959,1367.74 139.73,1367.23 140.529,1367.21 141.428,1368.12 142.439,1367.27 143.576,1367.97 144.856,1368.37 146.295,1369.35 147.915,1369.37 149.737,1368.11 151.786,1369.15 154.092,1367.53 156.686,1367.67 159.605,1366.74 162.888,1365.47 166.581,1363.84 170.737,1366.27 175.411,1368.93 180.67,1370.62 186.587,1371.17 193.242,1374.31 200.73,1372.72 209.154,1371.8 218.631,1376.05 229.293,1378.63 241.287,1380.46 254.78,1376.15 269.96,1373.73 287.038,1374.49 306.25,1371.84 327.864,1370.66 352.179,1374.74 379.534,1373.01 410.309,1372.02 444.93,1370.45 483.879,1364.15 527.696,1362.48 576.991,1364.34 625.959,1352.83 681.048,1356.64 730.992,1356.01 787.18,1362.32 841.971,1347.09 903.611,1349.94 957.033,1340.11 1017.13,1333.78 1082.71,1324.82 1154.85,1304.87 1236,1315.76 1286.07,1309.5 1342.4,1305.3 1402.72,1305.95 1454.3,1268.54 1512.33,1213.08 1569.93,1231.89 1609.65,1236.04 1654.34,1230.97 1700.36,1238.39 1743.98,1216 1793.06,1221.42 1830.92,1224.9 1873.52,1209.3 1921.45,1215.05 1965.87,1143.88 2015.85,1078.48 2072.07,959.747 2123.34,1040.37 2163.85,1037.85 2209.42,940.223 2260.68,921.482 2302.16,886.47 2348.82,794.281 2352.76,799.736 "/>
<polyline clip-path="url(#clip471)" style="stroke:#c271d2; stroke-linecap:round; stroke-linejoin:round; stroke-width:4; stroke-opacity:1; fill:none" points="138.959,1324.32 139.73,1323.22 140.529,1323.18 141.428,1325.15 142.439,1323.32 143.576,1324.82 144.856,1325.69 146.295,1327.8 147.915,1327.84 149.737,1325.13 151.786,1327.37 154.092,1323.87 156.686,1324.16 159.605,1322.17 162.888,1319.41 166.581,1315.89 170.737,1321.15 175.411,1326.89 180.67,1330.54 186.587,1331.73 193.242,1338.51 200.73,1335.07 209.154,1333.08 218.631,1342.26 229.293,1347.83 241.287,1351.78 254.78,1342.47 269.96,1337.25 287.038,1338.9 306.25,1333.18 327.864,1330.62 352.179,1339.43 379.534,1335.7 410.309,1333.55 444.93,1330.17 483.879,1316.57 527.696,1312.97 576.991,1316.98 625.959,1292.13 681.048,1300.35 730.992,1299 787.18,1312.62 841.971,1279.73 903.611,1285.89 957.033,1264.67 1017.13,1251.01 1082.71,1231.65 1154.85,1188.58 1236,1212.08 1286.07,1198.58 1342.4,1189.5 1402.72,1190.92 1454.3,1110.15 1512.33,990.39 1569.93,1031.02 1609.65,1039.97 1654.34,1029.03 1700.36,1045.04 1743.98,996.701 1793.06,1008.41 1830.92,1015.93 1873.52,982.249 1921.45,994.65 1965.87,840.987 2015.85,699.779 2072.07,443.436 2123.34,617.517 2163.85,612.075 2209.42,401.284 2260.68,360.82 2302.16,285.226 2348.82,86.1857 2352.76,97.9616 "/>
<polyline clip-path="url(#clip471)" style="stroke:#ac8d18; stroke-linecap:round; stroke-linejoin:round; stroke-width:4; stroke-opacity:1; fill:none" points="138.959,1369.45 139.73,1368.96 140.529,1368.94 141.428,1369.81 142.439,1369.01 143.576,1369.67 144.856,1370.05 146.295,1370.99 147.915,1371 149.737,1369.81 151.786,1370.8 154.092,1369.25 156.686,1369.38 159.605,1368.5 162.888,1367.28 166.581,1365.72 170.737,1368.05 175.411,1370.59 180.67,1372.2 186.587,1372.72 193.242,1375.72 200.73,1374.2 209.154,1373.32 218.631,1377.38 229.293,1379.84 241.287,1381.59 254.78,1377.47 269.96,1375.16 287.038,1375.89 306.25,1373.36 327.864,1372.23 352.179,1376.13 379.534,1374.48 410.309,1373.53 444.93,1372.03 483.879,1366.02 527.696,1364.43 576.991,1366.2 625.959,1355.22 681.048,1358.85 730.992,1358.26 787.18,1364.28 841.971,1349.74 903.611,1352.46 957.033,1343.08 1017.13,1337.04 1082.71,1328.49 1154.85,1309.45 1236,1319.84 1286.07,1313.87 1342.4,1309.85 1402.72,1310.48 1454.3,1274.78 1512.33,1221.84 1569.93,1239.8 1609.65,1243.76 1654.34,1238.92 1700.36,1246 1743.98,1224.63 1793.06,1229.81 1830.92,1233.13 1873.52,1218.24 1921.45,1223.73 1965.87,1155.8 2015.85,1093.39 2072.07,980.074 2123.34,1057.02 2163.85,1054.62 2209.42,961.442 2260.68,943.556 2302.16,910.141 2348.82,822.16 2352.76,827.365 "/>
<polyline clip-path="url(#clip471)" style="stroke:#00a9ad; stroke-linecap:round; stroke-linejoin:round; stroke-width:4; stroke-opacity:1; fill:none" points="138.959,1366.24 139.73,1365.71 140.529,1365.69 141.428,1366.64 142.439,1365.76 143.576,1366.48 144.856,1366.9 146.295,1367.92 147.915,1367.94 149.737,1366.63 151.786,1367.71 154.092,1366.03 156.686,1366.17 159.605,1365.21 162.888,1363.88 166.581,1362.19 170.737,1364.72 175.411,1367.48 180.67,1369.24 186.587,1369.81 193.242,1373.08 200.73,1371.42 209.154,1370.46 218.631,1374.88 229.293,1377.57 241.287,1379.47 254.78,1374.99 269.96,1372.47 287.038,1373.27 306.25,1370.51 327.864,1369.28 352.179,1373.52 379.534,1371.72 410.309,1370.69 444.93,1369.06 483.879,1362.51 527.696,1360.78 576.991,1362.71 625.959,1350.74 681.048,1354.7 730.992,1354.05 787.18,1360.61 841.971,1344.77 903.611,1347.73 957.033,1337.51 1017.13,1330.93 1082.71,1321.61 1154.85,1300.86 1236,1312.18 1286.07,1305.68 1342.4,1301.31 1402.72,1301.99 1454.3,1263.09 1512.33,1205.4 1569.93,1224.97 1609.65,1229.28 1654.34,1224.02 1700.36,1231.73 1743.98,1208.44 1793.06,1214.08 1830.92,1217.71 1873.52,1201.48 1921.45,1207.46 1965.87,1133.44 2015.85,1065.43 2072.07,941.961 2123.34,1025.81 2163.85,1023.19 2209.42,921.658 2260.68,902.168 2302.16,865.758 2348.82,769.889 2352.76,775.561 "/>
<polyline clip-path="url(#clip471)" style="stroke:#ed5d92; stroke-linecap:round; stroke-linejoin:round; stroke-width:4; stroke-opacity:1; fill:none" points="138.959,1349.44 139.73,1348.68 140.529,1348.65 141.428,1350.01 142.439,1348.75 143.576,1349.78 144.856,1350.38 146.295,1351.84 147.915,1351.87 149.737,1350 151.786,1351.54 154.092,1349.13 156.686,1349.33 159.605,1347.95 162.888,1346.06 166.581,1343.63 170.737,1347.25 175.411,1351.21 180.67,1353.73 186.587,1354.55 193.242,1359.22 200.73,1356.85 209.154,1355.48 218.631,1361.81 229.293,1365.65 241.287,1368.37 254.78,1361.95 269.96,1358.35 287.038,1359.49 306.25,1355.54 327.864,1353.78 352.179,1359.85 379.534,1357.28 410.309,1355.8 444.93,1353.47 483.879,1344.09 527.696,1341.62 576.991,1344.38 625.959,1327.25 681.048,1332.91 730.992,1331.99 787.18,1341.37 841.971,1318.7 903.611,1322.95 957.033,1308.32 1017.13,1298.9 1082.71,1285.55 1154.85,1255.86 1236,1272.06 1286.07,1262.75 1342.4,1256.49 1402.72,1257.47 1454.3,1201.78 1512.33,1119.22 1569.93,1147.23 1609.65,1153.4 1654.34,1145.86 1700.36,1156.89 1743.98,1123.57 1793.06,1131.64 1830.92,1136.83 1873.52,1113.61 1921.45,1122.16 1965.87,1016.21 2015.85,918.863 2072.07,742.132 2123.34,862.149 2163.85,858.397 2209.42,713.072 2260.68,685.174 2302.16,633.058 2348.82,495.833 2352.76,503.952 "/>
<polyline clip-path="url(#clip471)" style="stroke:#c68125; stroke-linecap:round; stroke-linejoin:round; stroke-width:4; stroke-opacity:1; fill:none" points="138.959,1373.46 139.73,1373.03 140.529,1373.01 141.428,1373.78 142.439,1373.07 143.576,1373.66 144.856,1374 146.295,1374.83 147.915,1374.84 149.737,1373.78 151.786,1374.66 154.092,1373.28 156.686,1373.4 159.605,1372.62 162.888,1371.54 166.581,1370.15 170.737,1372.22 175.411,1374.47 180.67,1375.9 186.587,1376.37 193.242,1379.03 200.73,1377.68 209.154,1376.9 218.631,1380.5 229.293,1382.69 241.287,1384.24 254.78,1380.58 269.96,1378.53 287.038,1379.18 306.25,1376.94 327.864,1375.93 352.179,1379.39 379.534,1377.93 410.309,1377.08 444.93,1375.76 483.879,1370.42 527.696,1369.01 576.991,1370.58 625.959,1360.83 681.048,1364.05 730.992,1363.53 787.18,1368.87 841.971,1355.96 903.611,1358.38 957.033,1350.05 1017.13,1344.69 1082.71,1337.09 1154.85,1320.19 1236,1329.42 1286.07,1324.12 1342.4,1320.55 1402.72,1321.11 1454.3,1289.42 1512.33,1242.42 1569.93,1258.36 1609.65,1261.87 1654.34,1257.58 1700.36,1263.86 1743.98,1244.9 1793.06,1249.49 1830.92,1252.44 1873.52,1239.22 1921.45,1244.09 1965.87,1183.79 2015.85,1128.38 2072.07,1027.78 2123.34,1096.09 2163.85,1093.96 2209.42,1011.24 2260.68,995.36 2302.16,965.696 2348.82,887.587 2352.76,892.208 "/>
<path clip-path="url(#clip470)" d="M212.753 559.669 L523.229 559.669 L523.229 93.1086 L212.753 93.1086  Z" fill="#ffffff" fill-rule="evenodd" fill-opacity="1"/>
<polyline clip-path="url(#clip470)" style="stroke:#000000; stroke-linecap:round; stroke-linejoin:round; stroke-width:4; stroke-opacity:1; fill:none" points="212.753,559.669 523.229,559.669 523.229,93.1086 212.753,93.1086 212.753,559.669 "/>
<polyline clip-path="url(#clip470)" style="stroke:#009af9; stroke-linecap:round; stroke-linejoin:round; stroke-width:4; stroke-opacity:1; fill:none" points="237.35,144.949 384.937,144.949 "/>
<path clip-path="url(#clip470)" d="M409.535 151.997 L409.535 136.303 L413.794 136.303 L413.794 151.835 Q413.794 155.516 415.229 157.368 Q416.664 159.196 419.535 159.196 Q422.984 159.196 424.974 156.997 Q426.988 154.798 426.988 151.002 L426.988 136.303 L431.247 136.303 L431.247 162.229 L426.988 162.229 L426.988 158.247 Q425.437 160.608 423.377 161.766 Q421.34 162.9 418.632 162.9 Q414.164 162.9 411.849 160.122 Q409.535 157.344 409.535 151.997 M420.252 135.678 L420.252 135.678 Z" fill="#000000" fill-rule="nonzero" fill-opacity="1" /><path clip-path="url(#clip470)" d="M439.627 126.21 L449.442 126.21 L449.442 129.52 L443.886 129.52 L443.886 165.168 L449.442 165.168 L449.442 168.479 L439.627 168.479 L439.627 126.21 Z" fill="#000000" fill-rule="nonzero" fill-opacity="1" /><path clip-path="url(#clip470)" d="M459.928 158.293 L467.567 158.293 L467.567 131.928 L459.257 133.595 L459.257 129.335 L467.52 127.669 L472.196 127.669 L472.196 158.293 L479.835 158.293 L479.835 162.229 L459.928 162.229 L459.928 158.293 Z" fill="#000000" fill-rule="nonzero" fill-opacity="1" /><path clip-path="url(#clip470)" d="M498.631 126.21 L498.631 168.479 L488.817 168.479 L488.817 165.168 L494.349 165.168 L494.349 129.52 L488.817 129.52 L488.817 126.21 L498.631 126.21 Z" fill="#000000" fill-rule="nonzero" fill-opacity="1" /><polyline clip-path="url(#clip470)" style="stroke:#e26f46; stroke-linecap:round; stroke-linejoin:round; stroke-width:4; stroke-opacity:1; fill:none" points="237.35,196.789 384.937,196.789 "/>
<path clip-path="url(#clip470)" d="M409.535 203.837 L409.535 188.143 L413.794 188.143 L413.794 203.675 Q413.794 207.356 415.229 209.208 Q416.664 211.036 419.535 211.036 Q422.984 211.036 424.974 208.837 Q426.988 206.638 426.988 202.842 L426.988 188.143 L431.247 188.143 L431.247 214.069 L426.988 214.069 L426.988 210.087 Q425.437 212.448 423.377 213.606 Q421.34 214.74 418.632 214.74 Q414.164 214.74 411.849 211.962 Q409.535 209.184 409.535 203.837 M420.252 187.518 L420.252 187.518 Z" fill="#000000" fill-rule="nonzero" fill-opacity="1" /><path clip-path="url(#clip470)" d="M439.627 178.05 L449.442 178.05 L449.442 181.36 L443.886 181.36 L443.886 217.008 L449.442 217.008 L449.442 220.319 L439.627 220.319 L439.627 178.05 Z" fill="#000000" fill-rule="nonzero" fill-opacity="1" /><path clip-path="url(#clip470)" d="M463.145 210.133 L479.465 210.133 L479.465 214.069 L457.52 214.069 L457.52 210.133 Q460.182 207.379 464.766 202.749 Q469.372 198.096 470.553 196.754 Q472.798 194.231 473.678 192.495 Q474.581 190.735 474.581 189.046 Q474.581 186.291 472.636 184.555 Q470.715 182.819 467.613 182.819 Q465.414 182.819 462.96 183.583 Q460.53 184.347 457.752 185.897 L457.752 181.175 Q460.576 180.041 463.03 179.462 Q465.483 178.884 467.52 178.884 Q472.891 178.884 476.085 181.569 Q479.28 184.254 479.28 188.745 Q479.28 190.874 478.469 192.796 Q477.682 194.694 475.576 197.286 Q474.997 197.958 471.895 201.175 Q468.794 204.37 463.145 210.133 Z" fill="#000000" fill-rule="nonzero" fill-opacity="1" /><path clip-path="url(#clip470)" d="M498.631 178.05 L498.631 220.319 L488.817 220.319 L488.817 217.008 L494.349 217.008 L494.349 181.36 L488.817 181.36 L488.817 178.05 L498.631 178.05 Z" fill="#000000" fill-rule="nonzero" fill-opacity="1" /><polyline clip-path="url(#clip470)" style="stroke:#3da44d; stroke-linecap:round; stroke-linejoin:round; stroke-width:4; stroke-opacity:1; fill:none" points="237.35,248.629 384.937,248.629 "/>
<path clip-path="url(#clip470)" d="M409.535 255.677 L409.535 239.983 L413.794 239.983 L413.794 255.515 Q413.794 259.196 415.229 261.048 Q416.664 262.876 419.535 262.876 Q422.984 262.876 424.974 260.677 Q426.988 258.478 426.988 254.682 L426.988 239.983 L431.247 239.983 L431.247 265.909 L426.988 265.909 L426.988 261.927 Q425.437 264.288 423.377 265.446 Q421.34 266.58 418.632 266.58 Q414.164 266.58 411.849 263.802 Q409.535 261.024 409.535 255.677 M420.252 239.358 L420.252 239.358 Z" fill="#000000" fill-rule="nonzero" fill-opacity="1" /><path clip-path="url(#clip470)" d="M439.627 229.89 L449.442 229.89 L449.442 233.2 L443.886 233.2 L443.886 268.848 L449.442 268.848 L449.442 272.159 L439.627 272.159 L439.627 229.89 Z" fill="#000000" fill-rule="nonzero" fill-opacity="1" /><path clip-path="url(#clip470)" d="M473.284 247.274 Q476.641 247.992 478.516 250.261 Q480.414 252.529 480.414 255.862 Q480.414 260.978 476.895 263.779 Q473.377 266.58 466.895 266.58 Q464.719 266.58 462.405 266.14 Q460.113 265.723 457.659 264.867 L457.659 260.353 Q459.604 261.487 461.919 262.066 Q464.233 262.645 466.756 262.645 Q471.155 262.645 473.446 260.909 Q475.761 259.173 475.761 255.862 Q475.761 252.807 473.608 251.094 Q471.479 249.358 467.659 249.358 L463.631 249.358 L463.631 245.515 L467.844 245.515 Q471.293 245.515 473.122 244.149 Q474.951 242.761 474.951 240.168 Q474.951 237.506 473.053 236.094 Q471.178 234.659 467.659 234.659 Q465.738 234.659 463.539 235.075 Q461.34 235.492 458.701 236.372 L458.701 232.205 Q461.363 231.464 463.678 231.094 Q466.016 230.724 468.076 230.724 Q473.4 230.724 476.502 233.154 Q479.604 235.562 479.604 239.682 Q479.604 242.552 477.96 244.543 Q476.317 246.511 473.284 247.274 Z" fill="#000000" fill-rule="nonzero" fill-opacity="1" /><path clip-path="url(#clip470)" d="M498.631 229.89 L498.631 272.159 L488.817 272.159 L488.817 268.848 L494.349 268.848 L494.349 233.2 L488.817 233.2 L488.817 229.89 L498.631 229.89 Z" fill="#000000" fill-rule="nonzero" fill-opacity="1" /><polyline clip-path="url(#clip470)" style="stroke:#c271d2; stroke-linecap:round; stroke-linejoin:round; stroke-width:4; stroke-opacity:1; fill:none" points="237.35,300.469 384.937,300.469 "/>
<path clip-path="url(#clip470)" d="M409.535 307.517 L409.535 291.823 L413.794 291.823 L413.794 307.355 Q413.794 311.036 415.229 312.888 Q416.664 314.716 419.535 314.716 Q422.984 314.716 424.974 312.517 Q426.988 310.318 426.988 306.522 L426.988 291.823 L431.247 291.823 L431.247 317.749 L426.988 317.749 L426.988 313.767 Q425.437 316.128 423.377 317.286 Q421.34 318.42 418.632 318.42 Q414.164 318.42 411.849 315.642 Q409.535 312.864 409.535 307.517 M420.252 291.198 L420.252 291.198 Z" fill="#000000" fill-rule="nonzero" fill-opacity="1" /><path clip-path="url(#clip470)" d="M439.627 281.73 L449.442 281.73 L449.442 285.04 L443.886 285.04 L443.886 320.688 L449.442 320.688 L449.442 323.999 L439.627 323.999 L439.627 281.73 Z" fill="#000000" fill-rule="nonzero" fill-opacity="1" /><path clip-path="url(#clip470)" d="M471.965 287.263 L460.159 305.712 L471.965 305.712 L471.965 287.263 M470.738 283.189 L476.618 283.189 L476.618 305.712 L481.548 305.712 L481.548 309.601 L476.618 309.601 L476.618 317.749 L471.965 317.749 L471.965 309.601 L456.363 309.601 L456.363 305.087 L470.738 283.189 Z" fill="#000000" fill-rule="nonzero" fill-opacity="1" /><path clip-path="url(#clip470)" d="M498.631 281.73 L498.631 323.999 L488.817 323.999 L488.817 320.688 L494.349 320.688 L494.349 285.04 L488.817 285.04 L488.817 281.73 L498.631 281.73 Z" fill="#000000" fill-rule="nonzero" fill-opacity="1" /><polyline clip-path="url(#clip470)" style="stroke:#ac8d18; stroke-linecap:round; stroke-linejoin:round; stroke-width:4; stroke-opacity:1; fill:none" points="237.35,352.309 384.937,352.309 "/>
<path clip-path="url(#clip470)" d="M409.535 359.357 L409.535 343.663 L413.794 343.663 L413.794 359.195 Q413.794 362.876 415.229 364.728 Q416.664 366.556 419.535 366.556 Q422.984 366.556 424.974 364.357 Q426.988 362.158 426.988 358.362 L426.988 343.663 L431.247 343.663 L431.247 369.589 L426.988 369.589 L426.988 365.607 Q425.437 367.968 423.377 369.126 Q421.34 370.26 418.632 370.26 Q414.164 370.26 411.849 367.482 Q409.535 364.704 409.535 359.357 M420.252 343.038 L420.252 343.038 Z" fill="#000000" fill-rule="nonzero" fill-opacity="1" /><path clip-path="url(#clip470)" d="M439.627 333.57 L449.442 333.57 L449.442 336.88 L443.886 336.88 L443.886 372.528 L449.442 372.528 L449.442 375.839 L439.627 375.839 L439.627 333.57 Z" fill="#000000" fill-rule="nonzero" fill-opacity="1" /><path clip-path="url(#clip470)" d="M459.164 335.029 L477.52 335.029 L477.52 338.964 L463.446 338.964 L463.446 347.436 Q464.465 347.089 465.483 346.927 Q466.502 346.742 467.52 346.742 Q473.307 346.742 476.687 349.913 Q480.067 353.084 480.067 358.501 Q480.067 364.079 476.594 367.181 Q473.122 370.26 466.803 370.26 Q464.627 370.26 462.358 369.89 Q460.113 369.519 457.706 368.778 L457.706 364.079 Q459.789 365.214 462.011 365.769 Q464.233 366.325 466.71 366.325 Q470.715 366.325 473.053 364.218 Q475.391 362.112 475.391 358.501 Q475.391 354.89 473.053 352.783 Q470.715 350.677 466.71 350.677 Q464.835 350.677 462.96 351.093 Q461.108 351.51 459.164 352.39 L459.164 335.029 Z" fill="#000000" fill-rule="nonzero" fill-opacity="1" /><path clip-path="url(#clip470)" d="M498.631 333.57 L498.631 375.839 L488.817 375.839 L488.817 372.528 L494.349 372.528 L494.349 336.88 L488.817 336.88 L488.817 333.57 L498.631 333.57 Z" fill="#000000" fill-rule="nonzero" fill-opacity="1" /><polyline clip-path="url(#clip470)" style="stroke:#00a9ad; stroke-linecap:round; stroke-linejoin:round; stroke-width:4; stroke-opacity:1; fill:none" points="237.35,404.149 384.937,404.149 "/>
<path clip-path="url(#clip470)" d="M409.535 411.197 L409.535 395.503 L413.794 395.503 L413.794 411.035 Q413.794 414.716 415.229 416.568 Q416.664 418.396 419.535 418.396 Q422.984 418.396 424.974 416.197 Q426.988 413.998 426.988 410.202 L426.988 395.503 L431.247 395.503 L431.247 421.429 L426.988 421.429 L426.988 417.447 Q425.437 419.808 423.377 420.966 Q421.34 422.1 418.632 422.1 Q414.164 422.1 411.849 419.322 Q409.535 416.544 409.535 411.197 M420.252 394.878 L420.252 394.878 Z" fill="#000000" fill-rule="nonzero" fill-opacity="1" /><path clip-path="url(#clip470)" d="M439.627 385.41 L449.442 385.41 L449.442 388.72 L443.886 388.72 L443.886 424.368 L449.442 424.368 L449.442 427.679 L439.627 427.679 L439.627 385.41 Z" fill="#000000" fill-rule="nonzero" fill-opacity="1" /><path clip-path="url(#clip470)" d="M469.696 402.285 Q466.548 402.285 464.696 404.438 Q462.868 406.591 462.868 410.341 Q462.868 414.068 464.696 416.243 Q466.548 418.396 469.696 418.396 Q472.844 418.396 474.673 416.243 Q476.525 414.068 476.525 410.341 Q476.525 406.591 474.673 404.438 Q472.844 402.285 469.696 402.285 M478.979 387.633 L478.979 391.892 Q477.219 391.058 475.414 390.619 Q473.631 390.179 471.872 390.179 Q467.243 390.179 464.789 393.304 Q462.358 396.429 462.011 402.748 Q463.377 400.734 465.437 399.669 Q467.497 398.582 469.974 398.582 Q475.182 398.582 478.192 401.753 Q481.224 404.901 481.224 410.341 Q481.224 415.665 478.076 418.882 Q474.928 422.1 469.696 422.1 Q463.701 422.1 460.53 417.517 Q457.358 412.91 457.358 404.183 Q457.358 395.989 461.247 391.128 Q465.136 386.244 471.687 386.244 Q473.446 386.244 475.229 386.591 Q477.034 386.938 478.979 387.633 Z" fill="#000000" fill-rule="nonzero" fill-opacity="1" /><path clip-path="url(#clip470)" d="M498.631 385.41 L498.631 427.679 L488.817 427.679 L488.817 424.368 L494.349 424.368 L494.349 388.72 L488.817 388.72 L488.817 385.41 L498.631 385.41 Z" fill="#000000" fill-rule="nonzero" fill-opacity="1" /><polyline clip-path="url(#clip470)" style="stroke:#ed5d92; stroke-linecap:round; stroke-linejoin:round; stroke-width:4; stroke-opacity:1; fill:none" points="237.35,455.989 384.937,455.989 "/>
<path clip-path="url(#clip470)" d="M409.535 463.037 L409.535 447.343 L413.794 447.343 L413.794 462.875 Q413.794 466.556 415.229 468.408 Q416.664 470.236 419.535 470.236 Q422.984 470.236 424.974 468.037 Q426.988 465.838 426.988 462.042 L426.988 447.343 L431.247 447.343 L431.247 473.269 L426.988 473.269 L426.988 469.287 Q425.437 471.648 423.377 472.806 Q421.34 473.94 418.632 473.94 Q414.164 473.94 411.849 471.162 Q409.535 468.384 409.535 463.037 M420.252 446.718 L420.252 446.718 Z" fill="#000000" fill-rule="nonzero" fill-opacity="1" /><path clip-path="url(#clip470)" d="M439.627 437.25 L449.442 437.25 L449.442 440.56 L443.886 440.56 L443.886 476.208 L449.442 476.208 L449.442 479.519 L439.627 479.519 L439.627 437.25 Z" fill="#000000" fill-rule="nonzero" fill-opacity="1" /><path clip-path="url(#clip470)" d="M457.937 438.709 L480.159 438.709 L480.159 440.699 L467.613 473.269 L462.729 473.269 L474.534 442.644 L457.937 442.644 L457.937 438.709 Z" fill="#000000" fill-rule="nonzero" fill-opacity="1" /><path clip-path="url(#clip470)" d="M498.631 437.25 L498.631 479.519 L488.817 479.519 L488.817 476.208 L494.349 476.208 L494.349 440.56 L488.817 440.56 L488.817 437.25 L498.631 437.25 Z" fill="#000000" fill-rule="nonzero" fill-opacity="1" /><polyline clip-path="url(#clip470)" style="stroke:#c68125; stroke-linecap:round; stroke-linejoin:round; stroke-width:4; stroke-opacity:1; fill:none" points="237.35,507.829 384.937,507.829 "/>
<path clip-path="url(#clip470)" d="M409.535 514.877 L409.535 499.183 L413.794 499.183 L413.794 514.715 Q413.794 518.396 415.229 520.248 Q416.664 522.076 419.535 522.076 Q422.984 522.076 424.974 519.877 Q426.988 517.678 426.988 513.882 L426.988 499.183 L431.247 499.183 L431.247 525.109 L426.988 525.109 L426.988 521.127 Q425.437 523.488 423.377 524.646 Q421.34 525.78 418.632 525.78 Q414.164 525.78 411.849 523.002 Q409.535 520.224 409.535 514.877 M420.252 498.558 L420.252 498.558 Z" fill="#000000" fill-rule="nonzero" fill-opacity="1" /><path clip-path="url(#clip470)" d="M439.627 489.09 L449.442 489.09 L449.442 492.4 L443.886 492.4 L443.886 528.048 L449.442 528.048 L449.442 531.359 L439.627 531.359 L439.627 489.09 Z" fill="#000000" fill-rule="nonzero" fill-opacity="1" /><path clip-path="url(#clip470)" d="M469.118 508.697 Q465.784 508.697 463.863 510.479 Q461.965 512.261 461.965 515.386 Q461.965 518.511 463.863 520.294 Q465.784 522.076 469.118 522.076 Q472.451 522.076 474.372 520.294 Q476.293 518.488 476.293 515.386 Q476.293 512.261 474.372 510.479 Q472.474 508.697 469.118 508.697 M464.442 506.706 Q461.432 505.965 459.743 503.905 Q458.076 501.845 458.076 498.882 Q458.076 494.738 461.016 492.331 Q463.979 489.924 469.118 489.924 Q474.28 489.924 477.219 492.331 Q480.159 494.738 480.159 498.882 Q480.159 501.845 478.469 503.905 Q476.803 505.965 473.817 506.706 Q477.196 507.493 479.071 509.785 Q480.969 512.076 480.969 515.386 Q480.969 520.41 477.891 523.095 Q474.835 525.78 469.118 525.78 Q463.4 525.78 460.321 523.095 Q457.266 520.41 457.266 515.386 Q457.266 512.076 459.164 509.785 Q461.062 507.493 464.442 506.706 M462.729 499.322 Q462.729 502.007 464.395 503.512 Q466.085 505.016 469.118 505.016 Q472.127 505.016 473.817 503.512 Q475.53 502.007 475.53 499.322 Q475.53 496.637 473.817 495.132 Q472.127 493.627 469.118 493.627 Q466.085 493.627 464.395 495.132 Q462.729 496.637 462.729 499.322 Z" fill="#000000" fill-rule="nonzero" fill-opacity="1" /><path clip-path="url(#clip470)" d="M498.631 489.09 L498.631 531.359 L488.817 531.359 L488.817 528.048 L494.349 528.048 L494.349 492.4 L488.817 492.4 L488.817 489.09 L498.631 489.09 Z" fill="#000000" fill-rule="nonzero" fill-opacity="1" /></svg>
