<?xml version="1.0" encoding="utf-8"?>
<svg xmlns="http://www.w3.org/2000/svg" xmlns:xlink="http://www.w3.org/1999/xlink" width="600" height="400" viewBox="0 0 2400 1600">
<defs>
  <clipPath id="clip410">
    <rect x="0" y="0" width="2400" height="1600"/>
  </clipPath>
</defs>
<path clip-path="url(#clip410)" d="M0 1600 L2400 1600 L2400 0 L0 0  Z" fill="#ffffff" fill-rule="evenodd" fill-opacity="1"/>
<defs>
  <clipPath id="clip411">
    <rect x="112" y="47" width="2242" height="1440"/>
  </clipPath>
</defs>
<path clip-path="url(#clip410)" d="M112.177 1486.45 L2352.76 1486.45 L2352.76 47.2441 L112.177 47.2441  Z" fill="#ffffff" fill-rule="evenodd" fill-opacity="1"/>
<polyline clip-path="url(#clip411)" style="stroke:#000000; stroke-linecap:round; stroke-linejoin:round; stroke-width:2; stroke-opacity:0.1; fill:none" points="175.59,1486.45 175.59,47.2441 "/>
<polyline clip-path="url(#clip411)" style="stroke:#000000; stroke-linecap:round; stroke-linejoin:round; stroke-width:2; stroke-opacity:0.1; fill:none" points="704.028,1486.45 704.028,47.2441 "/>
<polyline clip-path="url(#clip411)" style="stroke:#000000; stroke-linecap:round; stroke-linejoin:round; stroke-width:2; stroke-opacity:0.1; fill:none" points="1232.47,1486.45 1232.47,47.2441 "/>
<polyline clip-path="url(#clip411)" style="stroke:#000000; stroke-linecap:round; stroke-linejoin:round; stroke-width:2; stroke-opacity:0.1; fill:none" points="1760.9,1486.45 1760.9,47.2441 "/>
<polyline clip-path="url(#clip411)" style="stroke:#000000; stroke-linecap:round; stroke-linejoin:round; stroke-width:2; stroke-opacity:0.1; fill:none" points="2289.34,1486.45 2289.34,47.2441 "/>
<polyline clip-path="url(#clip411)" style="stroke:#000000; stroke-linecap:round; stroke-linejoin:round; stroke-width:2; stroke-opacity:0.1; fill:none" points="112.177,1165.81 2352.76,1165.81 "/>
<polyline clip-path="url(#clip411)" style="stroke:#000000; stroke-linecap:round; stroke-linejoin:round; stroke-width:2; stroke-opacity:0.1; fill:none" points="112.177,836.942 2352.76,836.942 "/>
<polyline clip-path="url(#clip411)" style="stroke:#000000; stroke-linecap:round; stroke-linejoin:round; stroke-width:2; stroke-opacity:0.1; fill:none" points="112.177,508.073 2352.76,508.073 "/>
<polyline clip-path="url(#clip411)" style="stroke:#000000; stroke-linecap:round; stroke-linejoin:round; stroke-width:2; stroke-opacity:0.1; fill:none" points="112.177,179.204 2352.76,179.204 "/>
<polyline clip-path="url(#clip410)" style="stroke:#000000; stroke-linecap:round; stroke-linejoin:round; stroke-width:4; stroke-opacity:1; fill:none" points="112.177,1486.45 2352.76,1486.45 "/>
<polyline clip-path="url(#clip410)" style="stroke:#000000; stroke-linecap:round; stroke-linejoin:round; stroke-width:4; stroke-opacity:1; fill:none" points="175.59,1486.45 175.59,1467.55 "/>
<polyline clip-path="url(#clip410)" style="stroke:#000000; stroke-linecap:round; stroke-linejoin:round; stroke-width:4; stroke-opacity:1; fill:none" points="704.028,1486.45 704.028,1467.55 "/>
<polyline clip-path="url(#clip410)" style="stroke:#000000; stroke-linecap:round; stroke-linejoin:round; stroke-width:4; stroke-opacity:1; fill:none" points="1232.47,1486.45 1232.47,1467.55 "/>
<polyline clip-path="url(#clip410)" style="stroke:#000000; stroke-linecap:round; stroke-linejoin:round; stroke-width:4; stroke-opacity:1; fill:none" points="1760.9,1486.45 1760.9,1467.55 "/>
<polyline clip-path="url(#clip410)" style="stroke:#000000; stroke-linecap:round; stroke-linejoin:round; stroke-width:4; stroke-opacity:1; fill:none" points="2289.34,1486.45 2289.34,1467.55 "/>
<path clip-path="url(#clip410)" d="M137.893 1517.37 Q134.282 1517.37 132.453 1520.93 Q130.648 1524.47 130.648 1531.6 Q130.648 1538.71 132.453 1542.27 Q134.282 1545.82 137.893 1545.82 Q141.527 1545.82 143.333 1542.27 Q145.162 1538.71 145.162 1531.6 Q145.162 1524.47 143.333 1520.93 Q141.527 1517.37 137.893 1517.37 M137.893 1513.66 Q143.703 1513.66 146.759 1518.27 Q149.838 1522.85 149.838 1531.6 Q149.838 1540.33 146.759 1544.94 Q143.703 1549.52 137.893 1549.52 Q132.083 1549.52 129.004 1544.94 Q125.949 1540.33 125.949 1531.6 Q125.949 1522.85 129.004 1518.27 Q132.083 1513.66 137.893 1513.66 Z" fill="#000000" fill-rule="nonzero" fill-opacity="1" /><path clip-path="url(#clip410)" d="M158.055 1542.97 L162.939 1542.97 L162.939 1548.85 L158.055 1548.85 L158.055 1542.97 Z" fill="#000000" fill-rule="nonzero" fill-opacity="1" /><path clip-path="url(#clip410)" d="M183.124 1517.37 Q179.513 1517.37 177.685 1520.93 Q175.879 1524.47 175.879 1531.6 Q175.879 1538.71 177.685 1542.27 Q179.513 1545.82 183.124 1545.82 Q186.759 1545.82 188.564 1542.27 Q190.393 1538.71 190.393 1531.6 Q190.393 1524.47 188.564 1520.93 Q186.759 1517.37 183.124 1517.37 M183.124 1513.66 Q188.935 1513.66 191.99 1518.27 Q195.069 1522.85 195.069 1531.6 Q195.069 1540.33 191.99 1544.94 Q188.935 1549.52 183.124 1549.52 Q177.314 1549.52 174.236 1544.94 Q171.18 1540.33 171.18 1531.6 Q171.18 1522.85 174.236 1518.27 Q177.314 1513.66 183.124 1513.66 Z" fill="#000000" fill-rule="nonzero" fill-opacity="1" /><path clip-path="url(#clip410)" d="M213.286 1517.37 Q209.675 1517.37 207.847 1520.93 Q206.041 1524.47 206.041 1531.6 Q206.041 1538.71 207.847 1542.27 Q209.675 1545.82 213.286 1545.82 Q216.921 1545.82 218.726 1542.27 Q220.555 1538.71 220.555 1531.6 Q220.555 1524.47 218.726 1520.93 Q216.921 1517.37 213.286 1517.37 M213.286 1513.66 Q219.096 1513.66 222.152 1518.27 Q225.231 1522.85 225.231 1531.6 Q225.231 1540.33 222.152 1544.94 Q219.096 1549.52 213.286 1549.52 Q207.476 1549.52 204.397 1544.94 Q201.342 1540.33 201.342 1531.6 Q201.342 1522.85 204.397 1518.27 Q207.476 1513.66 213.286 1513.66 Z" fill="#000000" fill-rule="nonzero" fill-opacity="1" /><path clip-path="url(#clip410)" d="M666.829 1517.37 Q663.218 1517.37 661.39 1520.93 Q659.584 1524.47 659.584 1531.6 Q659.584 1538.71 661.39 1542.27 Q663.218 1545.82 666.829 1545.82 Q670.464 1545.82 672.269 1542.27 Q674.098 1538.71 674.098 1531.6 Q674.098 1524.47 672.269 1520.93 Q670.464 1517.37 666.829 1517.37 M666.829 1513.66 Q672.639 1513.66 675.695 1518.27 Q678.774 1522.85 678.774 1531.6 Q678.774 1540.33 675.695 1544.94 Q672.639 1549.52 666.829 1549.52 Q661.019 1549.52 657.94 1544.94 Q654.885 1540.33 654.885 1531.6 Q654.885 1522.85 657.94 1518.27 Q661.019 1513.66 666.829 1513.66 Z" fill="#000000" fill-rule="nonzero" fill-opacity="1" /><path clip-path="url(#clip410)" d="M686.991 1542.97 L691.875 1542.97 L691.875 1548.85 L686.991 1548.85 L686.991 1542.97 Z" fill="#000000" fill-rule="nonzero" fill-opacity="1" /><path clip-path="url(#clip410)" d="M706.088 1544.91 L722.408 1544.91 L722.408 1548.85 L700.463 1548.85 L700.463 1544.91 Q703.125 1542.16 707.709 1537.53 Q712.315 1532.88 713.496 1531.53 Q715.741 1529.01 716.621 1527.27 Q717.523 1525.51 717.523 1523.82 Q717.523 1521.07 715.579 1519.33 Q713.658 1517.6 710.556 1517.6 Q708.357 1517.6 705.903 1518.36 Q703.473 1519.13 700.695 1520.68 L700.695 1515.95 Q703.519 1514.82 705.973 1514.24 Q708.426 1513.66 710.463 1513.66 Q715.834 1513.66 719.028 1516.35 Q722.223 1519.03 722.223 1523.52 Q722.223 1525.65 721.412 1527.57 Q720.625 1529.47 718.519 1532.07 Q717.94 1532.74 714.838 1535.95 Q711.736 1539.15 706.088 1544.91 Z" fill="#000000" fill-rule="nonzero" fill-opacity="1" /><path clip-path="url(#clip410)" d="M732.269 1514.29 L750.625 1514.29 L750.625 1518.22 L736.551 1518.22 L736.551 1526.7 Q737.57 1526.35 738.588 1526.19 Q739.607 1526 740.625 1526 Q746.412 1526 749.792 1529.17 Q753.171 1532.34 753.171 1537.76 Q753.171 1543.34 749.699 1546.44 Q746.227 1549.52 739.908 1549.52 Q737.732 1549.52 735.463 1549.15 Q733.218 1548.78 730.81 1548.04 L730.81 1543.34 Q732.894 1544.47 735.116 1545.03 Q737.338 1545.58 739.815 1545.58 Q743.82 1545.58 746.158 1543.48 Q748.496 1541.37 748.496 1537.76 Q748.496 1534.15 746.158 1532.04 Q743.82 1529.94 739.815 1529.94 Q737.94 1529.94 736.065 1530.35 Q734.213 1530.77 732.269 1531.65 L732.269 1514.29 Z" fill="#000000" fill-rule="nonzero" fill-opacity="1" /><path clip-path="url(#clip410)" d="M1194.77 1517.37 Q1191.16 1517.37 1189.33 1520.93 Q1187.52 1524.47 1187.52 1531.6 Q1187.52 1538.71 1189.33 1542.27 Q1191.16 1545.82 1194.77 1545.82 Q1198.4 1545.82 1200.21 1542.27 Q1202.04 1538.71 1202.04 1531.6 Q1202.04 1524.47 1200.21 1520.93 Q1198.4 1517.37 1194.77 1517.37 M1194.77 1513.66 Q1200.58 1513.66 1203.64 1518.27 Q1206.71 1522.85 1206.71 1531.6 Q1206.71 1540.33 1203.64 1544.94 Q1200.58 1549.52 1194.77 1549.52 Q1188.96 1549.52 1185.88 1544.94 Q1182.83 1540.33 1182.83 1531.6 Q1182.83 1522.85 1185.88 1518.27 Q1188.96 1513.66 1194.77 1513.66 Z" fill="#000000" fill-rule="nonzero" fill-opacity="1" /><path clip-path="url(#clip410)" d="M1214.93 1542.97 L1219.82 1542.97 L1219.82 1548.85 L1214.93 1548.85 L1214.93 1542.97 Z" fill="#000000" fill-rule="nonzero" fill-opacity="1" /><path clip-path="url(#clip410)" d="M1230.05 1514.29 L1248.4 1514.29 L1248.4 1518.22 L1234.33 1518.22 L1234.33 1526.7 Q1235.35 1526.35 1236.37 1526.19 Q1237.39 1526 1238.4 1526 Q1244.19 1526 1247.57 1529.17 Q1250.95 1532.34 1250.95 1537.76 Q1250.95 1543.34 1247.48 1546.44 Q1244.01 1549.52 1237.69 1549.52 Q1235.51 1549.52 1233.24 1549.15 Q1231 1548.78 1228.59 1548.04 L1228.59 1543.34 Q1230.67 1544.47 1232.89 1545.03 Q1235.12 1545.58 1237.59 1545.58 Q1241.6 1545.58 1243.94 1543.48 Q1246.27 1541.37 1246.27 1537.76 Q1246.27 1534.15 1243.94 1532.04 Q1241.6 1529.94 1237.59 1529.94 Q1235.72 1529.94 1233.84 1530.35 Q1231.99 1530.77 1230.05 1531.65 L1230.05 1514.29 Z" fill="#000000" fill-rule="nonzero" fill-opacity="1" /><path clip-path="url(#clip410)" d="M1270.16 1517.37 Q1266.55 1517.37 1264.72 1520.93 Q1262.92 1524.47 1262.92 1531.6 Q1262.92 1538.71 1264.72 1542.27 Q1266.55 1545.82 1270.16 1545.82 Q1273.8 1545.82 1275.6 1542.27 Q1277.43 1538.71 1277.43 1531.6 Q1277.43 1524.47 1275.6 1520.93 Q1273.8 1517.37 1270.16 1517.37 M1270.16 1513.66 Q1275.97 1513.66 1279.03 1518.27 Q1282.11 1522.85 1282.11 1531.6 Q1282.11 1540.33 1279.03 1544.94 Q1275.97 1549.52 1270.16 1549.52 Q1264.35 1549.52 1261.27 1544.94 Q1258.22 1540.33 1258.22 1531.6 Q1258.22 1522.85 1261.27 1518.27 Q1264.35 1513.66 1270.16 1513.66 Z" fill="#000000" fill-rule="nonzero" fill-opacity="1" /><path clip-path="url(#clip410)" d="M1723.71 1517.37 Q1720.09 1517.37 1718.27 1520.93 Q1716.46 1524.47 1716.46 1531.6 Q1716.46 1538.71 1718.27 1542.27 Q1720.09 1545.82 1723.71 1545.82 Q1727.34 1545.82 1729.15 1542.27 Q1730.97 1538.71 1730.97 1531.6 Q1730.97 1524.47 1729.15 1520.93 Q1727.34 1517.37 1723.71 1517.37 M1723.71 1513.66 Q1729.52 1513.66 1732.57 1518.27 Q1735.65 1522.85 1735.65 1531.6 Q1735.65 1540.33 1732.57 1544.94 Q1729.52 1549.52 1723.71 1549.52 Q1717.9 1549.52 1714.82 1544.94 Q1711.76 1540.33 1711.76 1531.6 Q1711.76 1522.85 1714.82 1518.27 Q1717.9 1513.66 1723.71 1513.66 Z" fill="#000000" fill-rule="nonzero" fill-opacity="1" /><path clip-path="url(#clip410)" d="M1743.87 1542.97 L1748.75 1542.97 L1748.75 1548.85 L1743.87 1548.85 L1743.87 1542.97 Z" fill="#000000" fill-rule="nonzero" fill-opacity="1" /><path clip-path="url(#clip410)" d="M1757.76 1514.29 L1779.98 1514.29 L1779.98 1516.28 L1767.43 1548.85 L1762.55 1548.85 L1774.35 1518.22 L1757.76 1518.22 L1757.76 1514.29 Z" fill="#000000" fill-rule="nonzero" fill-opacity="1" /><path clip-path="url(#clip410)" d="M1789.15 1514.29 L1807.5 1514.29 L1807.5 1518.22 L1793.43 1518.22 L1793.43 1526.7 Q1794.45 1526.35 1795.46 1526.19 Q1796.48 1526 1797.5 1526 Q1803.29 1526 1806.67 1529.17 Q1810.05 1532.34 1810.05 1537.76 Q1810.05 1543.34 1806.58 1546.44 Q1803.1 1549.52 1796.78 1549.52 Q1794.61 1549.52 1792.34 1549.15 Q1790.09 1548.78 1787.69 1548.04 L1787.69 1543.34 Q1789.77 1544.47 1791.99 1545.03 Q1794.21 1545.58 1796.69 1545.58 Q1800.7 1545.58 1803.03 1543.48 Q1805.37 1541.37 1805.37 1537.76 Q1805.37 1534.15 1803.03 1532.04 Q1800.7 1529.94 1796.69 1529.94 Q1794.82 1529.94 1792.94 1530.35 Q1791.09 1530.77 1789.15 1531.65 L1789.15 1514.29 Z" fill="#000000" fill-rule="nonzero" fill-opacity="1" /><path clip-path="url(#clip410)" d="M2241.42 1544.91 L2249.05 1544.91 L2249.05 1518.55 L2240.74 1520.21 L2240.74 1515.95 L2249.01 1514.29 L2253.68 1514.29 L2253.68 1544.91 L2261.32 1544.91 L2261.32 1548.85 L2241.42 1548.85 L2241.42 1544.91 Z" fill="#000000" fill-rule="nonzero" fill-opacity="1" /><path clip-path="url(#clip410)" d="M2270.77 1542.97 L2275.65 1542.97 L2275.65 1548.85 L2270.77 1548.85 L2270.77 1542.97 Z" fill="#000000" fill-rule="nonzero" fill-opacity="1" /><path clip-path="url(#clip410)" d="M2295.84 1517.37 Q2292.23 1517.37 2290.4 1520.93 Q2288.59 1524.47 2288.59 1531.6 Q2288.59 1538.71 2290.4 1542.27 Q2292.23 1545.82 2295.84 1545.82 Q2299.47 1545.82 2301.28 1542.27 Q2303.1 1538.71 2303.1 1531.6 Q2303.1 1524.47 2301.28 1520.93 Q2299.47 1517.37 2295.84 1517.37 M2295.84 1513.66 Q2301.65 1513.66 2304.7 1518.27 Q2307.78 1522.85 2307.78 1531.6 Q2307.78 1540.33 2304.7 1544.94 Q2301.65 1549.52 2295.84 1549.52 Q2290.03 1549.52 2286.95 1544.94 Q2283.89 1540.33 2283.89 1531.6 Q2283.89 1522.85 2286.95 1518.27 Q2290.03 1513.66 2295.84 1513.66 Z" fill="#000000" fill-rule="nonzero" fill-opacity="1" /><path clip-path="url(#clip410)" d="M2326 1517.37 Q2322.39 1517.37 2320.56 1520.93 Q2318.75 1524.47 2318.75 1531.6 Q2318.75 1538.71 2320.56 1542.27 Q2322.39 1545.82 2326 1545.82 Q2329.63 1545.82 2331.44 1542.27 Q2333.27 1538.71 2333.27 1531.6 Q2333.27 1524.47 2331.44 1520.93 Q2329.63 1517.37 2326 1517.37 M2326 1513.66 Q2331.81 1513.66 2334.86 1518.27 Q2337.94 1522.85 2337.94 1531.6 Q2337.94 1540.33 2334.86 1544.94 Q2331.81 1549.52 2326 1549.52 Q2320.19 1549.52 2317.11 1544.94 Q2314.05 1540.33 2314.05 1531.6 Q2314.05 1522.85 2317.11 1518.27 Q2320.19 1513.66 2326 1513.66 Z" fill="#000000" fill-rule="nonzero" fill-opacity="1" /><polyline clip-path="url(#clip410)" style="stroke:#000000; stroke-linecap:round; stroke-linejoin:round; stroke-width:4; stroke-opacity:1; fill:none" points="112.177,1486.45 112.177,47.2441 "/>
<polyline clip-path="url(#clip410)" style="stroke:#000000; stroke-linecap:round; stroke-linejoin:round; stroke-width:4; stroke-opacity:1; fill:none" points="112.177,1165.81 131.075,1165.81 "/>
<polyline clip-path="url(#clip410)" style="stroke:#000000; stroke-linecap:round; stroke-linejoin:round; stroke-width:4; stroke-opacity:1; fill:none" points="112.177,836.942 131.075,836.942 "/>
<polyline clip-path="url(#clip410)" style="stroke:#000000; stroke-linecap:round; stroke-linejoin:round; stroke-width:4; stroke-opacity:1; fill:none" points="112.177,508.073 131.075,508.073 "/>
<polyline clip-path="url(#clip410)" style="stroke:#000000; stroke-linecap:round; stroke-linejoin:round; stroke-width:4; stroke-opacity:1; fill:none" points="112.177,179.204 131.075,179.204 "/>
<path clip-path="url(#clip410)" d="M56.2699 1179.16 L63.9087 1179.16 L63.9087 1152.79 L55.5986 1154.46 L55.5986 1150.2 L63.8624 1148.53 L68.5383 1148.53 L68.5383 1179.16 L76.1772 1179.16 L76.1772 1183.09 L56.2699 1183.09 L56.2699 1179.16 Z" fill="#000000" fill-rule="nonzero" fill-opacity="1" /><path clip-path="url(#clip410)" d="M59.8578 850.286 L76.1772 850.286 L76.1772 854.222 L54.2328 854.222 L54.2328 850.286 Q56.8949 847.532 61.4782 842.902 Q66.0846 838.249 67.2652 836.907 Q69.5105 834.384 70.3902 832.648 Q71.2929 830.888 71.2929 829.199 Q71.2929 826.444 69.3485 824.708 Q67.4272 822.972 64.3254 822.972 Q62.1263 822.972 59.6726 823.736 Q57.2421 824.5 54.4643 826.05 L54.4643 821.328 Q57.2884 820.194 59.7421 819.615 Q62.1958 819.037 64.2328 819.037 Q69.6031 819.037 72.7976 821.722 Q75.992 824.407 75.992 828.898 Q75.992 831.027 75.1818 832.949 Q74.3948 834.847 72.2883 837.439 Q71.7096 838.111 68.6078 841.328 Q65.5059 844.523 59.8578 850.286 Z" fill="#000000" fill-rule="nonzero" fill-opacity="1" /><path clip-path="url(#clip410)" d="M69.0476 506.719 Q72.404 507.436 74.279 509.705 Q76.1772 511.973 76.1772 515.307 Q76.1772 520.422 72.6587 523.223 Q69.1402 526.024 62.6587 526.024 Q60.4828 526.024 58.168 525.584 Q55.8764 525.168 53.4227 524.311 L53.4227 519.797 Q55.3671 520.932 57.6819 521.51 Q59.9967 522.089 62.5198 522.089 Q66.918 522.089 69.2096 520.353 Q71.5244 518.617 71.5244 515.307 Q71.5244 512.251 69.3717 510.538 Q67.242 508.802 63.4226 508.802 L59.3949 508.802 L59.3949 504.959 L63.6078 504.959 Q67.0569 504.959 68.8855 503.594 Q70.7142 502.205 70.7142 499.612 Q70.7142 496.95 68.8161 495.538 Q66.9411 494.103 63.4226 494.103 Q61.5013 494.103 59.3023 494.52 Q57.1032 494.936 54.4643 495.816 L54.4643 491.649 Q57.1264 490.909 59.4412 490.538 Q61.7791 490.168 63.8393 490.168 Q69.1633 490.168 72.2652 492.598 Q75.367 495.006 75.367 499.126 Q75.367 501.997 73.7235 503.987 Q72.08 505.955 69.0476 506.719 Z" fill="#000000" fill-rule="nonzero" fill-opacity="1" /><path clip-path="url(#clip410)" d="M66.5939 165.998 L54.7884 184.447 L66.5939 184.447 L66.5939 165.998 M65.367 161.924 L71.2466 161.924 L71.2466 184.447 L76.1772 184.447 L76.1772 188.336 L71.2466 188.336 L71.2466 196.484 L66.5939 196.484 L66.5939 188.336 L50.9921 188.336 L50.9921 183.822 L65.367 161.924 Z" fill="#000000" fill-rule="nonzero" fill-opacity="1" /><path clip-path="url(#clip411)" d="M175.59 1330.24 L196.727 1355.33 L217.865 1364.22 L239.002 1369.37 L260.14 1375.57 L281.277 1381.44 L302.415 1386.12 L323.553 1386.12 L344.69 1389.77 L365.828 1391.25 L386.965 1392.34 L408.103 1396.09 L429.24 1397.45 L450.378 1400.7 L471.515 1400.37 L492.653 1404.24 L513.79 1406.76 L534.928 1404.63 L556.065 1408.42 L577.203 1407.31 L598.34 1407.74 L619.478 1409.98 L640.616 1412.14 L661.753 1415.12 L682.891 1416.22 L704.028 1417.32 L725.166 1415.83 L746.303 1419.05 L767.441 1416.32 L788.578 1417.5 L809.716 1418.32 L830.853 1421.01 L851.991 1423.41 L873.128 1421.1 L894.266 1422.98 L915.404 1422.51 L936.541 1423.12 L957.679 1423.16 L978.816 1424.14 L999.954 1424.09 L1021.09 1423.92 L1042.23 1424.09 L1063.37 1425.27 L1084.5 1426.07 L1105.64 1428.34 L1126.78 1429.42 L1147.92 1427.44 L1169.05 1431.43 L1190.19 1434.22 L1211.33 1435.86 L1232.47 1433.24 L1253.6 1432.49 L1274.74 1434.04 L1295.88 1435.38 L1317.02 1436.18 L1338.15 1436.44 L1359.29 1435.48 L1380.43 1436.6 L1401.57 1436.38 L1422.7 1435.2 L1443.84 1437.14 L1464.98 1435.02 L1486.12 1434.6 L1507.25 1435.21 L1528.39 1437.26 L1549.53 1436.16 L1570.67 1435.79 L1591.8 1438.13 L1612.94 1437.96 L1634.08 1438.47 L1655.22 1438.01 L1676.35 1438.98 L1697.49 1436.95 L1718.63 1437.98 L1739.77 1438.36 L1760.9 1438.52 L1782.04 1438.39 L1803.18 1438.58 L1824.32 1439.78 L1845.46 1441.34 L1866.59 1439.76 L1887.73 1440.11 L1908.87 1442.25 L1930.01 1442.07 L1951.14 1442.62 L1972.28 1441.53 L1993.42 1441.4 L2014.56 1440.12 L2035.69 1440.78 L2056.83 1442.47 L2077.97 1442.83 L2099.11 1443.06 L2120.24 1442.91 L2141.38 1443.8 L2162.52 1444.51 L2183.66 1445.72 L2204.79 1443.47 L2225.93 1444.82 L2247.07 1445.41 L2268.21 1444.95 L2289.34 1444.84 L2289.34 87.9763 L2268.21 107.827 L2247.07 140.537 L2225.93 158.329 L2204.79 149.162 L2183.66 163.678 L2162.52 181.517 L2141.38 185.643 L2120.24 213.905 L2099.11 239.989 L2077.97 277.72 L2056.83 254.3 L2035.69 282.589 L2014.56 296.916 L1993.42 327.536 L1972.28 328.01 L1951.14 307.356 L1930.01 338.819 L1908.87 366.994 L1887.73 392.071 L1866.59 391.785 L1845.46 401.233 L1824.32 400.632 L1803.18 474.455 L1782.04 467.132 L1760.9 476.201 L1739.77 502.112 L1718.63 515.028 L1697.49 536.761 L1676.35 544.759 L1655.22 550.685 L1634.08 592.004 L1612.94 594.513 L1591.8 609.159 L1570.67 622.797 L1549.53 679.681 L1528.39 690.268 L1507.25 683.586 L1486.12 672.768 L1464.98 693.785 L1443.84 707.754 L1422.7 694.639 L1401.57 724.079 L1380.43 719.723 L1359.29 745.537 L1338.15 755.57 L1317.02 762.757 L1295.88 773.861 L1274.74 776.471 L1253.6 771.259 L1232.47 805.543 L1211.33 812.387 L1190.19 843.238 L1169.05 858.752 L1147.92 837.612 L1126.78 865.156 L1105.64 883.524 L1084.5 897.159 L1063.37 891.772 L1042.23 909.672 L1021.09 913.442 L999.954 914.31 L978.816 934.373 L957.679 943.406 L936.541 944.967 L915.404 960.819 L894.266 973.473 L873.128 994.279 L851.991 1005.13 L830.853 1022.67 L809.716 1027.29 L788.578 1032.72 L767.441 1022.09 L746.303 1048.88 L725.166 1068.84 L704.028 1073.07 L682.891 1076.68 L661.753 1076.28 L640.616 1082.13 L619.478 1104.64 L598.34 1117.93 L577.203 1120.83 L556.065 1135.65 L534.928 1135.23 L513.79 1156.49 L492.653 1157.2 L471.515 1166.95 L450.378 1178.56 L429.24 1183.44 L408.103 1191.64 L386.965 1197.15 L365.828 1207.74 L344.69 1223.78 L323.553 1231.32 L302.415 1240.37 L281.277 1247.01 L260.14 1262.66 L239.002 1271.98 L217.865 1286.28 L196.727 1301.48 L175.59 1330.24  Z" fill="#009af9" fill-rule="evenodd" fill-opacity="0.2"/>
<polyline clip-path="url(#clip411)" style="stroke:#009af9; stroke-linecap:round; stroke-linejoin:round; stroke-width:12; stroke-opacity:1; fill:none" points="175.59,1330.24 196.727,1329.9 217.865,1328.62 239.002,1327.89 260.14,1327.97 281.277,1325.75 302.415,1326.02 323.553,1323.47 344.69,1322.51 365.828,1322.17 386.965,1319.65 408.103,1317.87 429.24,1316.92 450.378,1316.86 471.515,1315.45 492.653,1313.49 513.79,1313.79 534.928,1315.08 556.065,1311.37 577.203,1310.02 598.34,1309.39 619.478,1309.54 640.616,1306.54 661.753,1308.56 682.891,1304.18 704.028,1304.94 725.166,1300.39 746.303,1303.91 767.441,1303.54 788.578,1304.27 809.716,1303.32 830.853,1303.78 851.991,1304.23 873.128,1304.98 894.266,1304.54 915.404,1302.28 936.541,1302.56 957.679,1297.7 978.816,1298.26 999.954,1300.15 1021.09,1298.87 1042.23,1298.1 1063.37,1296.93 1084.5,1293.71 1105.64,1294.53 1126.78,1298.17 1147.92,1297.44 1169.05,1295.67 1190.19,1295.19 1211.33,1292.25 1232.47,1291.01 1253.6,1290.92 1274.74,1291.91 1295.88,1289.46 1317.02,1286.54 1338.15,1282.65 1359.29,1283.39 1380.43,1282.9 1401.57,1279.32 1422.7,1280.38 1443.84,1281.25 1464.98,1278.11 1486.12,1276.85 1507.25,1270.23 1528.39,1271.3 1549.53,1270.19 1570.67,1266.26 1591.8,1266.37 1612.94,1268.69 1634.08,1270.39 1655.22,1269.59 1676.35,1264.58 1697.49,1263.76 1718.63,1264.33 1739.77,1261.34 1760.9,1261.31 1782.04,1260.92 1803.18,1258.16 1824.32,1261.59 1845.46,1260.63 1866.59,1263.23 1887.73,1262.62 1908.87,1258.9 1930.01,1255.03 1951.14,1255.46 1972.28,1250.89 1993.42,1253.68 2014.56,1249.67 2035.69,1247.28 2056.83,1249.74 2077.97,1243.84 2099.11,1246.73 2120.24,1241.22 2141.38,1244.34 2162.52,1243.23 2183.66,1241.27 2204.79,1236.33 2225.93,1231.7 2247.07,1228.98 2268.21,1231.56 2289.34,1224.3 "/>
<path clip-path="url(#clip411)" d="M175.59 1330.24 L196.727 1339.71 L217.865 1343.25 L239.002 1346.05 L260.14 1348.76 L281.277 1350.11 L302.415 1352 L323.553 1353.36 L344.69 1352.54 L365.828 1352.82 L386.965 1354.94 L408.103 1354.7 L429.24 1354.75 L450.378 1355.35 L471.515 1354.81 L492.653 1357.29 L513.79 1357.31 L534.928 1359.81 L556.065 1360.64 L577.203 1357.59 L598.34 1360.01 L619.478 1362.16 L640.616 1361.49 L661.753 1359.88 L682.891 1359.17 L704.028 1359.47 L725.166 1360.17 L746.303 1360.89 L767.441 1360.03 L788.578 1360.39 L809.716 1361.17 L830.853 1362.46 L851.991 1361.41 L873.128 1363.75 L894.266 1364.15 L915.404 1365.56 L936.541 1367.51 L957.679 1368.7 L978.816 1370.56 L999.954 1369.64 L1021.09 1369.11 L1042.23 1369.84 L1063.37 1371.35 L1084.5 1370.62 L1105.64 1372.96 L1126.78 1373.69 L1147.92 1371.91 L1169.05 1371.45 L1190.19 1370.88 L1211.33 1370.49 L1232.47 1370.44 L1253.6 1369.37 L1274.74 1368.35 L1295.88 1369.46 L1317.02 1367.26 L1338.15 1370.34 L1359.29 1370.54 L1380.43 1369.69 L1401.57 1370.21 L1422.7 1367.73 L1443.84 1367.91 L1464.98 1367.02 L1486.12 1366.43 L1507.25 1367.73 L1528.39 1365.37 L1549.53 1364.95 L1570.67 1363.73 L1591.8 1362.38 L1612.94 1363.93 L1634.08 1365.04 L1655.22 1364.96 L1676.35 1365.56 L1697.49 1364.94 L1718.63 1362.98 L1739.77 1364.37 L1760.9 1363.72 L1782.04 1366.2 L1803.18 1367.08 L1824.32 1365.02 L1845.46 1366.1 L1866.59 1364.82 L1887.73 1364.6 L1908.87 1363.29 L1930.01 1363.53 L1951.14 1362.66 L1972.28 1363.13 L1993.42 1364.01 L2014.56 1360.98 L2035.69 1363.35 L2056.83 1364.16 L2077.97 1363.16 L2099.11 1365.83 L2120.24 1364.57 L2141.38 1363.82 L2162.52 1364.28 L2183.66 1364.71 L2204.79 1363.21 L2225.93 1361.63 L2247.07 1364.2 L2268.21 1363.86 L2289.34 1362.35 L2289.34 948.945 L2268.21 949.456 L2247.07 951.985 L2225.93 953.245 L2204.79 953.151 L2183.66 951.955 L2162.52 975.069 L2141.38 969.412 L2120.24 985.637 L2099.11 995.32 L2077.97 997.1 L2056.83 998.138 L2035.69 998.263 L2014.56 1009.22 L1993.42 1020.33 L1972.28 1018.71 L1951.14 1019.35 L1930.01 1021.48 L1908.87 1029.17 L1887.73 1029.76 L1866.59 1035.54 L1845.46 1030.17 L1824.32 1040.31 L1803.18 1044.41 L1782.04 1038.4 L1760.9 1054.25 L1739.77 1054.09 L1718.63 1057.78 L1697.49 1057.66 L1676.35 1061.38 L1655.22 1072.54 L1634.08 1071.86 L1612.94 1066.86 L1591.8 1069.41 L1570.67 1073.82 L1549.53 1082.19 L1528.39 1088.4 L1507.25 1094.95 L1486.12 1096.12 L1464.98 1103.24 L1443.84 1103.74 L1422.7 1108.21 L1401.57 1118.53 L1380.43 1123.24 L1359.29 1127.3 L1338.15 1126.63 L1317.02 1125.65 L1295.88 1136.26 L1274.74 1134.63 L1253.6 1136.54 L1232.47 1138.67 L1211.33 1139.78 L1190.19 1144.71 L1169.05 1148.89 L1147.92 1158.31 L1126.78 1166.24 L1105.64 1167.22 L1084.5 1168.24 L1063.37 1175.9 L1042.23 1180.12 L1021.09 1183.68 L999.954 1194.73 L978.816 1192.66 L957.679 1195.57 L936.541 1202.58 L915.404 1203.22 L894.266 1206.59 L873.128 1206.3 L851.991 1212.26 L830.853 1215.49 L809.716 1217.56 L788.578 1215.18 L767.441 1222.85 L746.303 1227.92 L725.166 1232.59 L704.028 1231.45 L682.891 1235.91 L661.753 1236.69 L640.616 1239.91 L619.478 1246.74 L598.34 1250.71 L577.203 1257.15 L556.065 1257.82 L534.928 1259.89 L513.79 1263.39 L492.653 1262.26 L471.515 1266.11 L450.378 1267.92 L429.24 1271.39 L408.103 1276.71 L386.965 1280.79 L365.828 1282.31 L344.69 1286.75 L323.553 1290.27 L302.415 1293.59 L281.277 1299.1 L260.14 1303.83 L239.002 1307.81 L217.865 1312.79 L196.727 1318.74 L175.59 1330.24  Z" fill="#e26f46" fill-rule="evenodd" fill-opacity="0.2"/>
<polyline clip-path="url(#clip411)" style="stroke:#e26f46; stroke-linecap:round; stroke-linejoin:round; stroke-width:12; stroke-opacity:1; fill:none" points="175.59,1330.24 196.727,1329.9 217.865,1328.62 239.002,1327.89 260.14,1327.97 281.277,1325.75 302.415,1326.02 323.553,1323.47 344.69,1322.51 365.828,1322.17 386.965,1319.65 408.103,1317.87 429.24,1316.92 450.378,1316.86 471.515,1315.45 492.653,1313.49 513.79,1313.79 534.928,1315.08 556.065,1311.37 577.203,1310.02 598.34,1309.39 619.478,1309.54 640.616,1306.54 661.753,1308.56 682.891,1304.18 704.028,1304.94 725.166,1300.39 746.303,1303.91 767.441,1303.54 788.578,1304.27 809.716,1303.32 830.853,1303.78 851.991,1304.23 873.128,1304.98 894.266,1304.54 915.404,1302.28 936.541,1302.56 957.679,1297.7 978.816,1298.26 999.954,1300.15 1021.09,1298.87 1042.23,1298.1 1063.37,1296.93 1084.5,1293.71 1105.64,1294.53 1126.78,1298.17 1147.92,1297.44 1169.05,1295.67 1190.19,1295.19 1211.33,1292.25 1232.47,1291.01 1253.6,1290.92 1274.74,1291.91 1295.88,1289.46 1317.02,1286.54 1338.15,1282.65 1359.29,1283.39 1380.43,1282.9 1401.57,1279.32 1422.7,1280.38 1443.84,1281.25 1464.98,1278.11 1486.12,1276.85 1507.25,1270.23 1528.39,1271.3 1549.53,1270.19 1570.67,1266.26 1591.8,1266.37 1612.94,1268.69 1634.08,1270.39 1655.22,1269.59 1676.35,1264.58 1697.49,1263.76 1718.63,1264.33 1739.77,1261.34 1760.9,1261.31 1782.04,1260.92 1803.18,1258.16 1824.32,1261.59 1845.46,1260.63 1866.59,1263.23 1887.73,1262.62 1908.87,1258.9 1930.01,1255.03 1951.14,1255.46 1972.28,1250.89 1993.42,1253.68 2014.56,1249.67 2035.69,1247.28 2056.83,1249.74 2077.97,1243.84 2099.11,1246.73 2120.24,1241.22 2141.38,1244.34 2162.52,1243.23 2183.66,1241.27 2204.79,1236.33 2225.93,1231.7 2247.07,1228.98 2268.21,1231.56 2289.34,1224.3 "/>
<path clip-path="url(#clip410)" d="M1784.25 250.738 L2278.07 250.738 L2278.07 95.2176 L1784.25 95.2176  Z" fill="#ffffff" fill-rule="evenodd" fill-opacity="1"/>
<polyline clip-path="url(#clip410)" style="stroke:#000000; stroke-linecap:round; stroke-linejoin:round; stroke-width:4; stroke-opacity:1; fill:none" points="1784.25,250.738 2278.07,250.738 2278.07,95.2176 1784.25,95.2176 1784.25,250.738 "/>
<polyline clip-path="url(#clip410)" style="stroke:#009af9; stroke-linecap:round; stroke-linejoin:round; stroke-width:12; stroke-opacity:1; fill:none" points="1809.14,147.058 1958.51,147.058 "/>
<path clip-path="url(#clip410)" d="M1983.41 129.778 L1990.38 129.778 L1999.19 153.296 L2008.06 129.778 L2015.03 129.778 L2015.03 164.338 L2010.47 164.338 L2010.47 133.99 L2001.56 157.694 L1996.86 157.694 L1987.94 133.99 L1987.94 164.338 L1983.41 164.338 L1983.41 129.778 Z" fill="#000000" fill-rule="nonzero" fill-opacity="1" /><path clip-path="url(#clip410)" d="M2024.12 138.412 L2028.38 138.412 L2028.38 164.338 L2024.12 164.338 L2024.12 138.412 M2024.12 128.319 L2028.38 128.319 L2028.38 133.713 L2024.12 133.713 L2024.12 128.319 Z" fill="#000000" fill-rule="nonzero" fill-opacity="1" /><path clip-path="url(#clip410)" d="M2054.36 142.347 L2054.36 128.319 L2058.62 128.319 L2058.62 164.338 L2054.36 164.338 L2054.36 160.449 Q2053.01 162.763 2050.95 163.898 Q2048.92 165.009 2046.05 165.009 Q2041.35 165.009 2038.38 161.259 Q2035.44 157.509 2035.44 151.398 Q2035.44 145.287 2038.38 141.537 Q2041.35 137.787 2046.05 137.787 Q2048.92 137.787 2050.95 138.921 Q2053.01 140.032 2054.36 142.347 M2039.84 151.398 Q2039.84 156.097 2041.76 158.782 Q2043.71 161.444 2047.09 161.444 Q2050.47 161.444 2052.41 158.782 Q2054.36 156.097 2054.36 151.398 Q2054.36 146.699 2052.41 144.037 Q2050.47 141.352 2047.09 141.352 Q2043.71 141.352 2041.76 144.037 Q2039.84 146.699 2039.84 151.398 Z" fill="#000000" fill-rule="nonzero" fill-opacity="1" /><path clip-path="url(#clip410)" d="M2084.45 142.347 L2084.45 128.319 L2088.71 128.319 L2088.71 164.338 L2084.45 164.338 L2084.45 160.449 Q2083.11 162.763 2081.05 163.898 Q2079.01 165.009 2076.14 165.009 Q2071.44 165.009 2068.48 161.259 Q2065.54 157.509 2065.54 151.398 Q2065.54 145.287 2068.48 141.537 Q2071.44 137.787 2076.14 137.787 Q2079.01 137.787 2081.05 138.921 Q2083.11 140.032 2084.45 142.347 M2069.93 151.398 Q2069.93 156.097 2071.86 158.782 Q2073.8 161.444 2077.18 161.444 Q2080.56 161.444 2082.5 158.782 Q2084.45 156.097 2084.45 151.398 Q2084.45 146.699 2082.5 144.037 Q2080.56 141.352 2077.18 141.352 Q2073.8 141.352 2071.86 144.037 Q2069.93 146.699 2069.93 151.398 Z" fill="#000000" fill-rule="nonzero" fill-opacity="1" /><path clip-path="url(#clip410)" d="M2097.48 128.319 L2101.74 128.319 L2101.74 164.338 L2097.48 164.338 L2097.48 128.319 Z" fill="#000000" fill-rule="nonzero" fill-opacity="1" /><path clip-path="url(#clip410)" d="M2132.83 150.31 L2132.83 152.393 L2113.24 152.393 Q2113.52 156.791 2115.88 159.106 Q2118.27 161.398 2122.5 161.398 Q2124.96 161.398 2127.25 160.796 Q2129.56 160.194 2131.83 158.99 L2131.83 163.018 Q2129.54 163.99 2127.13 164.5 Q2124.73 165.009 2122.25 165.009 Q2116.05 165.009 2112.41 161.398 Q2108.8 157.787 2108.8 151.629 Q2108.8 145.264 2112.23 141.537 Q2115.68 137.787 2121.51 137.787 Q2126.74 137.787 2129.77 141.166 Q2132.83 144.523 2132.83 150.31 M2128.57 149.06 Q2128.52 145.565 2126.6 143.481 Q2124.7 141.398 2121.55 141.398 Q2117.99 141.398 2115.84 143.412 Q2113.71 145.426 2113.38 149.083 L2128.57 149.06 Z" fill="#000000" fill-rule="nonzero" fill-opacity="1" /><path clip-path="url(#clip410)" d="M2155.63 163.62 L2155.63 159.361 Q2157.39 160.194 2159.19 160.634 Q2161 161.074 2162.74 161.074 Q2167.36 161.074 2169.8 157.972 Q2172.25 154.847 2172.6 148.504 Q2171.25 150.495 2169.19 151.56 Q2167.13 152.625 2164.63 152.625 Q2159.45 152.625 2156.42 149.5 Q2153.41 146.352 2153.41 140.912 Q2153.41 135.588 2156.55 132.37 Q2159.7 129.153 2164.93 129.153 Q2170.93 129.153 2174.08 133.759 Q2177.25 138.342 2177.25 147.092 Q2177.25 155.264 2173.36 160.148 Q2169.49 165.009 2162.94 165.009 Q2161.18 165.009 2159.38 164.662 Q2157.57 164.314 2155.63 163.62 M2164.93 148.967 Q2168.08 148.967 2169.91 146.814 Q2171.76 144.662 2171.76 140.912 Q2171.76 137.185 2169.91 135.032 Q2168.08 132.856 2164.93 132.856 Q2161.79 132.856 2159.93 135.032 Q2158.11 137.185 2158.11 140.912 Q2158.11 144.662 2159.93 146.814 Q2161.79 148.967 2164.93 148.967 Z" fill="#000000" fill-rule="nonzero" fill-opacity="1" /><path clip-path="url(#clip410)" d="M2185.7 129.778 L2204.05 129.778 L2204.05 133.713 L2189.98 133.713 L2189.98 142.185 Q2191 141.838 2192.02 141.676 Q2193.04 141.49 2194.05 141.49 Q2199.84 141.49 2203.22 144.662 Q2206.6 147.833 2206.6 153.25 Q2206.6 158.828 2203.13 161.93 Q2199.66 165.009 2193.34 165.009 Q2191.16 165.009 2188.89 164.638 Q2186.65 164.268 2184.24 163.527 L2184.24 158.828 Q2186.32 159.963 2188.55 160.518 Q2190.77 161.074 2193.24 161.074 Q2197.25 161.074 2199.59 158.967 Q2201.92 156.861 2201.92 153.25 Q2201.92 149.639 2199.59 147.532 Q2197.25 145.426 2193.24 145.426 Q2191.37 145.426 2189.49 145.842 Q2187.64 146.259 2185.7 147.139 L2185.7 129.778 Z" fill="#000000" fill-rule="nonzero" fill-opacity="1" /><path clip-path="url(#clip410)" d="M2245.21 149.129 Q2243.2 149.129 2242.04 150.842 Q2240.91 152.555 2240.91 155.611 Q2240.91 158.62 2242.04 160.356 Q2243.2 162.069 2245.21 162.069 Q2247.18 162.069 2248.31 160.356 Q2249.47 158.62 2249.47 155.611 Q2249.47 152.578 2248.31 150.865 Q2247.18 149.129 2245.21 149.129 M2245.21 146.19 Q2248.87 146.19 2251.02 148.736 Q2253.17 151.282 2253.17 155.611 Q2253.17 159.939 2251 162.486 Q2248.85 165.009 2245.21 165.009 Q2241.51 165.009 2239.36 162.486 Q2237.2 159.939 2237.2 155.611 Q2237.2 151.259 2239.36 148.736 Q2241.53 146.19 2245.21 146.19 M2221.32 132.092 Q2219.33 132.092 2218.17 133.828 Q2217.04 135.541 2217.04 138.551 Q2217.04 141.606 2218.17 143.319 Q2219.31 145.032 2221.32 145.032 Q2223.34 145.032 2224.47 143.319 Q2225.63 141.606 2225.63 138.551 Q2225.63 135.565 2224.47 133.828 Q2223.31 132.092 2221.32 132.092 M2242.23 129.153 L2245.93 129.153 L2224.31 165.009 L2220.61 165.009 L2242.23 129.153 M2221.32 129.153 Q2224.98 129.153 2227.16 131.699 Q2229.33 134.222 2229.33 138.551 Q2229.33 142.926 2227.16 145.449 Q2225 147.972 2221.32 147.972 Q2217.64 147.972 2215.49 145.449 Q2213.36 142.902 2213.36 138.551 Q2213.36 134.245 2215.51 131.699 Q2217.67 129.153 2221.32 129.153 Z" fill="#000000" fill-rule="nonzero" fill-opacity="1" /><polyline clip-path="url(#clip410)" style="stroke:#e26f46; stroke-linecap:round; stroke-linejoin:round; stroke-width:12; stroke-opacity:1; fill:none" points="1809.14,198.898 1958.51,198.898 "/>
<path clip-path="url(#clip410)" d="M1983.41 181.618 L1990.38 181.618 L1999.19 205.136 L2008.06 181.618 L2015.03 181.618 L2015.03 216.178 L2010.47 216.178 L2010.47 185.83 L2001.56 209.534 L1996.86 209.534 L1987.94 185.83 L1987.94 216.178 L1983.41 216.178 L1983.41 181.618 Z" fill="#000000" fill-rule="nonzero" fill-opacity="1" /><path clip-path="url(#clip410)" d="M2024.12 190.252 L2028.38 190.252 L2028.38 216.178 L2024.12 216.178 L2024.12 190.252 M2024.12 180.159 L2028.38 180.159 L2028.38 185.553 L2024.12 185.553 L2024.12 180.159 Z" fill="#000000" fill-rule="nonzero" fill-opacity="1" /><path clip-path="url(#clip410)" d="M2054.36 194.187 L2054.36 180.159 L2058.62 180.159 L2058.62 216.178 L2054.36 216.178 L2054.36 212.289 Q2053.01 214.603 2050.95 215.738 Q2048.92 216.849 2046.05 216.849 Q2041.35 216.849 2038.38 213.099 Q2035.44 209.349 2035.44 203.238 Q2035.44 197.127 2038.38 193.377 Q2041.35 189.627 2046.05 189.627 Q2048.92 189.627 2050.95 190.761 Q2053.01 191.872 2054.36 194.187 M2039.84 203.238 Q2039.84 207.937 2041.76 210.622 Q2043.71 213.284 2047.09 213.284 Q2050.47 213.284 2052.41 210.622 Q2054.36 207.937 2054.36 203.238 Q2054.36 198.539 2052.41 195.877 Q2050.47 193.192 2047.09 193.192 Q2043.71 193.192 2041.76 195.877 Q2039.84 198.539 2039.84 203.238 Z" fill="#000000" fill-rule="nonzero" fill-opacity="1" /><path clip-path="url(#clip410)" d="M2084.45 194.187 L2084.45 180.159 L2088.71 180.159 L2088.71 216.178 L2084.45 216.178 L2084.45 212.289 Q2083.11 214.603 2081.05 215.738 Q2079.01 216.849 2076.14 216.849 Q2071.44 216.849 2068.48 213.099 Q2065.54 209.349 2065.54 203.238 Q2065.54 197.127 2068.48 193.377 Q2071.44 189.627 2076.14 189.627 Q2079.01 189.627 2081.05 190.761 Q2083.11 191.872 2084.45 194.187 M2069.93 203.238 Q2069.93 207.937 2071.86 210.622 Q2073.8 213.284 2077.18 213.284 Q2080.56 213.284 2082.5 210.622 Q2084.45 207.937 2084.45 203.238 Q2084.45 198.539 2082.5 195.877 Q2080.56 193.192 2077.18 193.192 Q2073.8 193.192 2071.86 195.877 Q2069.93 198.539 2069.93 203.238 Z" fill="#000000" fill-rule="nonzero" fill-opacity="1" /><path clip-path="url(#clip410)" d="M2097.48 180.159 L2101.74 180.159 L2101.74 216.178 L2097.48 216.178 L2097.48 180.159 Z" fill="#000000" fill-rule="nonzero" fill-opacity="1" /><path clip-path="url(#clip410)" d="M2132.83 202.15 L2132.83 204.233 L2113.24 204.233 Q2113.52 208.631 2115.88 210.946 Q2118.27 213.238 2122.5 213.238 Q2124.96 213.238 2127.25 212.636 Q2129.56 212.034 2131.83 210.83 L2131.83 214.858 Q2129.54 215.83 2127.13 216.34 Q2124.73 216.849 2122.25 216.849 Q2116.05 216.849 2112.41 213.238 Q2108.8 209.627 2108.8 203.469 Q2108.8 197.104 2112.23 193.377 Q2115.68 189.627 2121.51 189.627 Q2126.74 189.627 2129.77 193.006 Q2132.83 196.363 2132.83 202.15 M2128.57 200.9 Q2128.52 197.405 2126.6 195.321 Q2124.7 193.238 2121.55 193.238 Q2117.99 193.238 2115.84 195.252 Q2113.71 197.266 2113.38 200.923 L2128.57 200.9 Z" fill="#000000" fill-rule="nonzero" fill-opacity="1" /><path clip-path="url(#clip410)" d="M2155.54 181.618 L2173.89 181.618 L2173.89 185.553 L2159.82 185.553 L2159.82 194.025 Q2160.84 193.678 2161.86 193.516 Q2162.87 193.33 2163.89 193.33 Q2169.68 193.33 2173.06 196.502 Q2176.44 199.673 2176.44 205.09 Q2176.44 210.668 2172.97 213.77 Q2169.49 216.849 2163.18 216.849 Q2161 216.849 2158.73 216.478 Q2156.49 216.108 2154.08 215.367 L2154.08 210.668 Q2156.16 211.803 2158.38 212.358 Q2160.61 212.914 2163.08 212.914 Q2167.09 212.914 2169.43 210.807 Q2171.76 208.701 2171.76 205.09 Q2171.76 201.479 2169.43 199.372 Q2167.09 197.266 2163.08 197.266 Q2161.21 197.266 2159.33 197.682 Q2157.48 198.099 2155.54 198.979 L2155.54 181.618 Z" fill="#000000" fill-rule="nonzero" fill-opacity="1" /><path clip-path="url(#clip410)" d="M2195.65 184.696 Q2192.04 184.696 2190.21 188.261 Q2188.41 191.803 2188.41 198.932 Q2188.41 206.039 2190.21 209.604 Q2192.04 213.145 2195.65 213.145 Q2199.29 213.145 2201.09 209.604 Q2202.92 206.039 2202.92 198.932 Q2202.92 191.803 2201.09 188.261 Q2199.29 184.696 2195.65 184.696 M2195.65 180.993 Q2201.46 180.993 2204.52 185.599 Q2207.6 190.182 2207.6 198.932 Q2207.6 207.659 2204.52 212.266 Q2201.46 216.849 2195.65 216.849 Q2189.84 216.849 2186.76 212.266 Q2183.71 207.659 2183.71 198.932 Q2183.71 190.182 2186.76 185.599 Q2189.84 180.993 2195.65 180.993 Z" fill="#000000" fill-rule="nonzero" fill-opacity="1" /><path clip-path="url(#clip410)" d="M2245.21 200.969 Q2243.2 200.969 2242.04 202.682 Q2240.91 204.395 2240.91 207.451 Q2240.91 210.46 2242.04 212.196 Q2243.2 213.909 2245.21 213.909 Q2247.18 213.909 2248.31 212.196 Q2249.47 210.46 2249.47 207.451 Q2249.47 204.418 2248.31 202.705 Q2247.18 200.969 2245.21 200.969 M2245.21 198.03 Q2248.87 198.03 2251.02 200.576 Q2253.17 203.122 2253.17 207.451 Q2253.17 211.779 2251 214.326 Q2248.85 216.849 2245.21 216.849 Q2241.51 216.849 2239.36 214.326 Q2237.2 211.779 2237.2 207.451 Q2237.2 203.099 2239.36 200.576 Q2241.53 198.03 2245.21 198.03 M2221.32 183.932 Q2219.33 183.932 2218.17 185.668 Q2217.04 187.381 2217.04 190.391 Q2217.04 193.446 2218.17 195.159 Q2219.31 196.872 2221.32 196.872 Q2223.34 196.872 2224.47 195.159 Q2225.63 193.446 2225.63 190.391 Q2225.63 187.405 2224.47 185.668 Q2223.31 183.932 2221.32 183.932 M2242.23 180.993 L2245.93 180.993 L2224.31 216.849 L2220.61 216.849 L2242.23 180.993 M2221.32 180.993 Q2224.98 180.993 2227.16 183.539 Q2229.33 186.062 2229.33 190.391 Q2229.33 194.766 2227.16 197.289 Q2225 199.812 2221.32 199.812 Q2217.64 199.812 2215.49 197.289 Q2213.36 194.742 2213.36 190.391 Q2213.36 186.085 2215.51 183.539 Q2217.67 180.993 2221.32 180.993 Z" fill="#000000" fill-rule="nonzero" fill-opacity="1" /></svg>
