<?xml version="1.0" encoding="utf-8"?>
<svg xmlns="http://www.w3.org/2000/svg" xmlns:xlink="http://www.w3.org/1999/xlink" width="600" height="400" viewBox="0 0 2400 1600">
<defs>
  <clipPath id="clip380">
    <rect x="0" y="0" width="2400" height="1600"/>
  </clipPath>
</defs>
<path clip-path="url(#clip380)" d="M0 1600 L2400 1600 L2400 0 L0 0  Z" fill="#ffffff" fill-rule="evenodd" fill-opacity="1"/>
<defs>
  <clipPath id="clip381">
    <rect x="156" y="47" width="2197" height="1377"/>
  </clipPath>
</defs>
<path clip-path="url(#clip380)" d="M156.598 1423.18 L2352.76 1423.18 L2352.76 47.2441 L156.598 47.2441  Z" fill="#ffffff" fill-rule="evenodd" fill-opacity="1"/>
<polyline clip-path="url(#clip381)" style="stroke:#000000; stroke-linecap:round; stroke-linejoin:round; stroke-width:2; stroke-opacity:0.1; fill:none" points="156.598,1423.18 156.598,47.2441 "/>
<polyline clip-path="url(#clip381)" style="stroke:#000000; stroke-linecap:round; stroke-linejoin:round; stroke-width:2; stroke-opacity:0.1; fill:none" points="595.83,1423.18 595.83,47.2441 "/>
<polyline clip-path="url(#clip381)" style="stroke:#000000; stroke-linecap:round; stroke-linejoin:round; stroke-width:2; stroke-opacity:0.1; fill:none" points="1035.06,1423.18 1035.06,47.2441 "/>
<polyline clip-path="url(#clip381)" style="stroke:#000000; stroke-linecap:round; stroke-linejoin:round; stroke-width:2; stroke-opacity:0.1; fill:none" points="1474.29,1423.18 1474.29,47.2441 "/>
<polyline clip-path="url(#clip381)" style="stroke:#000000; stroke-linecap:round; stroke-linejoin:round; stroke-width:2; stroke-opacity:0.1; fill:none" points="1913.52,1423.18 1913.52,47.2441 "/>
<polyline clip-path="url(#clip381)" style="stroke:#000000; stroke-linecap:round; stroke-linejoin:round; stroke-width:2; stroke-opacity:0.1; fill:none" points="2352.76,1423.18 2352.76,47.2441 "/>
<polyline clip-path="url(#clip381)" style="stroke:#000000; stroke-linecap:round; stroke-linejoin:round; stroke-width:2; stroke-opacity:0.1; fill:none" points="156.598,1263.3 2352.76,1263.3 "/>
<polyline clip-path="url(#clip381)" style="stroke:#000000; stroke-linecap:round; stroke-linejoin:round; stroke-width:2; stroke-opacity:0.1; fill:none" points="156.598,1032.34 2352.76,1032.34 "/>
<polyline clip-path="url(#clip381)" style="stroke:#000000; stroke-linecap:round; stroke-linejoin:round; stroke-width:2; stroke-opacity:0.1; fill:none" points="156.598,801.384 2352.76,801.384 "/>
<polyline clip-path="url(#clip381)" style="stroke:#000000; stroke-linecap:round; stroke-linejoin:round; stroke-width:2; stroke-opacity:0.1; fill:none" points="156.598,570.427 2352.76,570.427 "/>
<polyline clip-path="url(#clip381)" style="stroke:#000000; stroke-linecap:round; stroke-linejoin:round; stroke-width:2; stroke-opacity:0.1; fill:none" points="156.598,339.47 2352.76,339.47 "/>
<polyline clip-path="url(#clip381)" style="stroke:#000000; stroke-linecap:round; stroke-linejoin:round; stroke-width:2; stroke-opacity:0.1; fill:none" points="156.598,108.513 2352.76,108.513 "/>
<polyline clip-path="url(#clip380)" style="stroke:#000000; stroke-linecap:round; stroke-linejoin:round; stroke-width:4; stroke-opacity:1; fill:none" points="156.598,1423.18 2352.76,1423.18 "/>
<polyline clip-path="url(#clip380)" style="stroke:#000000; stroke-linecap:round; stroke-linejoin:round; stroke-width:4; stroke-opacity:1; fill:none" points="156.598,1423.18 156.598,1404.28 "/>
<polyline clip-path="url(#clip380)" style="stroke:#000000; stroke-linecap:round; stroke-linejoin:round; stroke-width:4; stroke-opacity:1; fill:none" points="595.83,1423.18 595.83,1404.28 "/>
<polyline clip-path="url(#clip380)" style="stroke:#000000; stroke-linecap:round; stroke-linejoin:round; stroke-width:4; stroke-opacity:1; fill:none" points="1035.06,1423.18 1035.06,1404.28 "/>
<polyline clip-path="url(#clip380)" style="stroke:#000000; stroke-linecap:round; stroke-linejoin:round; stroke-width:4; stroke-opacity:1; fill:none" points="1474.29,1423.18 1474.29,1404.28 "/>
<polyline clip-path="url(#clip380)" style="stroke:#000000; stroke-linecap:round; stroke-linejoin:round; stroke-width:4; stroke-opacity:1; fill:none" points="1913.52,1423.18 1913.52,1404.28 "/>
<polyline clip-path="url(#clip380)" style="stroke:#000000; stroke-linecap:round; stroke-linejoin:round; stroke-width:4; stroke-opacity:1; fill:none" points="2352.76,1423.18 2352.76,1404.28 "/>
<path clip-path="url(#clip380)" d="M133.983 1454.1 Q130.372 1454.1 128.543 1457.66 Q126.737 1461.2 126.737 1468.33 Q126.737 1475.44 128.543 1479.01 Q130.372 1482.55 133.983 1482.55 Q137.617 1482.55 139.422 1479.01 Q141.251 1475.44 141.251 1468.33 Q141.251 1461.2 139.422 1457.66 Q137.617 1454.1 133.983 1454.1 M133.983 1450.39 Q139.793 1450.39 142.848 1455 Q145.927 1459.58 145.927 1468.33 Q145.927 1477.06 142.848 1481.67 Q139.793 1486.25 133.983 1486.25 Q128.172 1486.25 125.094 1481.67 Q122.038 1477.06 122.038 1468.33 Q122.038 1459.58 125.094 1455 Q128.172 1450.39 133.983 1450.39 Z" fill="#000000" fill-rule="nonzero" fill-opacity="1" /><path clip-path="url(#clip380)" d="M154.145 1479.7 L159.029 1479.7 L159.029 1485.58 L154.145 1485.58 L154.145 1479.7 Z" fill="#000000" fill-rule="nonzero" fill-opacity="1" /><path clip-path="url(#clip380)" d="M179.214 1454.1 Q175.603 1454.1 173.774 1457.66 Q171.969 1461.2 171.969 1468.33 Q171.969 1475.44 173.774 1479.01 Q175.603 1482.55 179.214 1482.55 Q182.848 1482.55 184.654 1479.01 Q186.482 1475.44 186.482 1468.33 Q186.482 1461.2 184.654 1457.66 Q182.848 1454.1 179.214 1454.1 M179.214 1450.39 Q185.024 1450.39 188.08 1455 Q191.158 1459.58 191.158 1468.33 Q191.158 1477.06 188.08 1481.67 Q185.024 1486.25 179.214 1486.25 Q173.404 1486.25 170.325 1481.67 Q167.269 1477.06 167.269 1468.33 Q167.269 1459.58 170.325 1455 Q173.404 1450.39 179.214 1450.39 Z" fill="#000000" fill-rule="nonzero" fill-opacity="1" /><path clip-path="url(#clip380)" d="M574.013 1454.1 Q570.402 1454.1 568.573 1457.66 Q566.767 1461.2 566.767 1468.33 Q566.767 1475.44 568.573 1479.01 Q570.402 1482.55 574.013 1482.55 Q577.647 1482.55 579.453 1479.01 Q581.281 1475.44 581.281 1468.33 Q581.281 1461.2 579.453 1457.66 Q577.647 1454.1 574.013 1454.1 M574.013 1450.39 Q579.823 1450.39 582.878 1455 Q585.957 1459.58 585.957 1468.33 Q585.957 1477.06 582.878 1481.67 Q579.823 1486.25 574.013 1486.25 Q568.203 1486.25 565.124 1481.67 Q562.068 1477.06 562.068 1468.33 Q562.068 1459.58 565.124 1455 Q568.203 1450.39 574.013 1450.39 Z" fill="#000000" fill-rule="nonzero" fill-opacity="1" /><path clip-path="url(#clip380)" d="M594.175 1479.7 L599.059 1479.7 L599.059 1485.58 L594.175 1485.58 L594.175 1479.7 Z" fill="#000000" fill-rule="nonzero" fill-opacity="1" /><path clip-path="url(#clip380)" d="M613.272 1481.64 L629.591 1481.64 L629.591 1485.58 L607.647 1485.58 L607.647 1481.64 Q610.309 1478.89 614.892 1474.26 Q619.499 1469.61 620.679 1468.27 Q622.925 1465.74 623.804 1464.01 Q624.707 1462.25 624.707 1460.56 Q624.707 1457.8 622.762 1456.07 Q620.841 1454.33 617.739 1454.33 Q615.54 1454.33 613.087 1455.09 Q610.656 1455.86 607.878 1457.41 L607.878 1452.69 Q610.702 1451.55 613.156 1450.97 Q615.61 1450.39 617.647 1450.39 Q623.017 1450.39 626.212 1453.08 Q629.406 1455.77 629.406 1460.26 Q629.406 1462.39 628.596 1464.31 Q627.809 1466.2 625.702 1468.8 Q625.124 1469.47 622.022 1472.69 Q618.92 1475.88 613.272 1481.64 Z" fill="#000000" fill-rule="nonzero" fill-opacity="1" /><path clip-path="url(#clip380)" d="M1012.2 1454.1 Q1008.59 1454.1 1006.76 1457.66 Q1004.96 1461.2 1004.96 1468.33 Q1004.96 1475.44 1006.76 1479.01 Q1008.59 1482.55 1012.2 1482.55 Q1015.84 1482.55 1017.64 1479.01 Q1019.47 1475.44 1019.47 1468.33 Q1019.47 1461.2 1017.64 1457.66 Q1015.84 1454.1 1012.2 1454.1 M1012.2 1450.39 Q1018.01 1450.39 1021.07 1455 Q1024.15 1459.58 1024.15 1468.33 Q1024.15 1477.06 1021.07 1481.67 Q1018.01 1486.25 1012.2 1486.25 Q1006.39 1486.25 1003.31 1481.67 Q1000.26 1477.06 1000.26 1468.33 Q1000.26 1459.58 1003.31 1455 Q1006.39 1450.39 1012.2 1450.39 Z" fill="#000000" fill-rule="nonzero" fill-opacity="1" /><path clip-path="url(#clip380)" d="M1032.36 1479.7 L1037.25 1479.7 L1037.25 1485.58 L1032.36 1485.58 L1032.36 1479.7 Z" fill="#000000" fill-rule="nonzero" fill-opacity="1" /><path clip-path="url(#clip380)" d="M1060.28 1455.09 L1048.48 1473.54 L1060.28 1473.54 L1060.28 1455.09 M1059.05 1451.02 L1064.93 1451.02 L1064.93 1473.54 L1069.86 1473.54 L1069.86 1477.43 L1064.93 1477.43 L1064.93 1485.58 L1060.28 1485.58 L1060.28 1477.43 L1044.68 1477.43 L1044.68 1472.92 L1059.05 1451.02 Z" fill="#000000" fill-rule="nonzero" fill-opacity="1" /><path clip-path="url(#clip380)" d="M1451.6 1454.1 Q1447.99 1454.1 1446.16 1457.66 Q1444.35 1461.2 1444.35 1468.33 Q1444.35 1475.44 1446.16 1479.01 Q1447.99 1482.55 1451.6 1482.55 Q1455.23 1482.55 1457.04 1479.01 Q1458.86 1475.44 1458.86 1468.33 Q1458.86 1461.2 1457.04 1457.66 Q1455.23 1454.1 1451.6 1454.1 M1451.6 1450.39 Q1457.41 1450.39 1460.46 1455 Q1463.54 1459.58 1463.54 1468.33 Q1463.54 1477.06 1460.46 1481.67 Q1457.41 1486.25 1451.6 1486.25 Q1445.79 1486.25 1442.71 1481.67 Q1439.65 1477.06 1439.65 1468.33 Q1439.65 1459.58 1442.71 1455 Q1445.79 1450.39 1451.6 1450.39 Z" fill="#000000" fill-rule="nonzero" fill-opacity="1" /><path clip-path="url(#clip380)" d="M1471.76 1479.7 L1476.64 1479.7 L1476.64 1485.58 L1471.76 1485.58 L1471.76 1479.7 Z" fill="#000000" fill-rule="nonzero" fill-opacity="1" /><path clip-path="url(#clip380)" d="M1497.41 1466.44 Q1494.26 1466.44 1492.41 1468.59 Q1490.58 1470.74 1490.58 1474.49 Q1490.58 1478.22 1492.41 1480.39 Q1494.26 1482.55 1497.41 1482.55 Q1500.55 1482.55 1502.38 1480.39 Q1504.23 1478.22 1504.23 1474.49 Q1504.23 1470.74 1502.38 1468.59 Q1500.55 1466.44 1497.41 1466.44 M1506.69 1451.78 L1506.69 1456.04 Q1504.93 1455.21 1503.12 1454.77 Q1501.34 1454.33 1499.58 1454.33 Q1494.95 1454.33 1492.5 1457.45 Q1490.07 1460.58 1489.72 1466.9 Q1491.09 1464.89 1493.15 1463.82 Q1495.21 1462.73 1497.68 1462.73 Q1502.89 1462.73 1505.9 1465.9 Q1508.93 1469.05 1508.93 1474.49 Q1508.93 1479.82 1505.79 1483.03 Q1502.64 1486.25 1497.41 1486.25 Q1491.41 1486.25 1488.24 1481.67 Q1485.07 1477.06 1485.07 1468.33 Q1485.07 1460.14 1488.96 1455.28 Q1492.85 1450.39 1499.4 1450.39 Q1501.16 1450.39 1502.94 1450.74 Q1504.74 1451.09 1506.69 1451.78 Z" fill="#000000" fill-rule="nonzero" fill-opacity="1" /><path clip-path="url(#clip380)" d="M1890.96 1454.1 Q1887.34 1454.1 1885.52 1457.66 Q1883.71 1461.2 1883.71 1468.33 Q1883.71 1475.44 1885.52 1479.01 Q1887.34 1482.55 1890.96 1482.55 Q1894.59 1482.55 1896.39 1479.01 Q1898.22 1475.44 1898.22 1468.33 Q1898.22 1461.2 1896.39 1457.66 Q1894.59 1454.1 1890.96 1454.1 M1890.96 1450.39 Q1896.77 1450.39 1899.82 1455 Q1902.9 1459.58 1902.9 1468.33 Q1902.9 1477.06 1899.82 1481.67 Q1896.77 1486.25 1890.96 1486.25 Q1885.14 1486.25 1882.07 1481.67 Q1879.01 1477.06 1879.01 1468.33 Q1879.01 1459.58 1882.07 1455 Q1885.14 1450.39 1890.96 1450.39 Z" fill="#000000" fill-rule="nonzero" fill-opacity="1" /><path clip-path="url(#clip380)" d="M1911.12 1479.7 L1916 1479.7 L1916 1485.58 L1911.12 1485.58 L1911.12 1479.7 Z" fill="#000000" fill-rule="nonzero" fill-opacity="1" /><path clip-path="url(#clip380)" d="M1936.19 1469.17 Q1932.85 1469.17 1930.93 1470.95 Q1929.03 1472.73 1929.03 1475.86 Q1929.03 1478.98 1930.93 1480.77 Q1932.85 1482.55 1936.19 1482.55 Q1939.52 1482.55 1941.44 1480.77 Q1943.36 1478.96 1943.36 1475.86 Q1943.36 1472.73 1941.44 1470.95 Q1939.54 1469.17 1936.19 1469.17 M1931.51 1467.18 Q1928.5 1466.44 1926.81 1464.38 Q1925.14 1462.32 1925.14 1459.35 Q1925.14 1455.21 1928.08 1452.8 Q1931.05 1450.39 1936.19 1450.39 Q1941.35 1450.39 1944.29 1452.8 Q1947.23 1455.21 1947.23 1459.35 Q1947.23 1462.32 1945.54 1464.38 Q1943.87 1466.44 1940.89 1467.18 Q1944.26 1467.96 1946.14 1470.26 Q1948.04 1472.55 1948.04 1475.86 Q1948.04 1480.88 1944.96 1483.57 Q1941.9 1486.25 1936.19 1486.25 Q1930.47 1486.25 1927.39 1483.57 Q1924.33 1480.88 1924.33 1475.86 Q1924.33 1472.55 1926.23 1470.26 Q1928.13 1467.96 1931.51 1467.18 M1929.8 1459.79 Q1929.8 1462.48 1931.46 1463.98 Q1933.15 1465.49 1936.19 1465.49 Q1939.2 1465.49 1940.89 1463.98 Q1942.6 1462.48 1942.6 1459.79 Q1942.6 1457.11 1940.89 1455.6 Q1939.2 1454.1 1936.19 1454.1 Q1933.15 1454.1 1931.46 1455.6 Q1929.8 1457.11 1929.8 1459.79 Z" fill="#000000" fill-rule="nonzero" fill-opacity="1" /><path clip-path="url(#clip380)" d="M2319.91 1481.64 L2327.55 1481.64 L2327.55 1455.28 L2319.24 1456.95 L2319.24 1452.69 L2327.5 1451.02 L2332.18 1451.02 L2332.18 1481.64 L2339.82 1481.64 L2339.82 1485.58 L2319.91 1485.58 L2319.91 1481.64 Z" fill="#000000" fill-rule="nonzero" fill-opacity="1" /><path clip-path="url(#clip380)" d="M2349.26 1479.7 L2354.14 1479.7 L2354.14 1485.58 L2349.26 1485.58 L2349.26 1479.7 Z" fill="#000000" fill-rule="nonzero" fill-opacity="1" /><path clip-path="url(#clip380)" d="M2374.33 1454.1 Q2370.72 1454.1 2368.89 1457.66 Q2367.08 1461.2 2367.08 1468.33 Q2367.08 1475.44 2368.89 1479.01 Q2370.72 1482.55 2374.33 1482.55 Q2377.96 1482.55 2379.77 1479.01 Q2381.6 1475.44 2381.6 1468.33 Q2381.6 1461.2 2379.77 1457.66 Q2377.96 1454.1 2374.33 1454.1 M2374.33 1450.39 Q2380.14 1450.39 2383.2 1455 Q2386.27 1459.58 2386.27 1468.33 Q2386.27 1477.06 2383.2 1481.67 Q2380.14 1486.25 2374.33 1486.25 Q2368.52 1486.25 2365.44 1481.67 Q2362.39 1477.06 2362.39 1468.33 Q2362.39 1459.58 2365.44 1455 Q2368.52 1450.39 2374.33 1450.39 Z" fill="#000000" fill-rule="nonzero" fill-opacity="1" /><path clip-path="url(#clip380)" d="M1253.74 1522.27 L1253.74 1532.4 L1265.8 1532.4 L1265.8 1536.95 L1253.74 1536.95 L1253.74 1556.3 Q1253.74 1560.66 1254.92 1561.9 Q1256.13 1563.14 1259.79 1563.14 L1265.8 1563.14 L1265.8 1568.04 L1259.79 1568.04 Q1253.01 1568.04 1250.43 1565.53 Q1247.85 1562.98 1247.85 1556.3 L1247.85 1536.95 L1243.55 1536.95 L1243.55 1532.4 L1247.85 1532.4 L1247.85 1522.27 L1253.74 1522.27 Z" fill="#000000" fill-rule="nonzero" fill-opacity="1" /><polyline clip-path="url(#clip380)" style="stroke:#000000; stroke-linecap:round; stroke-linejoin:round; stroke-width:4; stroke-opacity:1; fill:none" points="156.598,1423.18 156.598,47.2441 "/>
<polyline clip-path="url(#clip380)" style="stroke:#000000; stroke-linecap:round; stroke-linejoin:round; stroke-width:4; stroke-opacity:1; fill:none" points="156.598,1263.3 175.496,1263.3 "/>
<polyline clip-path="url(#clip380)" style="stroke:#000000; stroke-linecap:round; stroke-linejoin:round; stroke-width:4; stroke-opacity:1; fill:none" points="156.598,1032.34 175.496,1032.34 "/>
<polyline clip-path="url(#clip380)" style="stroke:#000000; stroke-linecap:round; stroke-linejoin:round; stroke-width:4; stroke-opacity:1; fill:none" points="156.598,801.384 175.496,801.384 "/>
<polyline clip-path="url(#clip380)" style="stroke:#000000; stroke-linecap:round; stroke-linejoin:round; stroke-width:4; stroke-opacity:1; fill:none" points="156.598,570.427 175.496,570.427 "/>
<polyline clip-path="url(#clip380)" style="stroke:#000000; stroke-linecap:round; stroke-linejoin:round; stroke-width:4; stroke-opacity:1; fill:none" points="156.598,339.47 175.496,339.47 "/>
<polyline clip-path="url(#clip380)" style="stroke:#000000; stroke-linecap:round; stroke-linejoin:round; stroke-width:4; stroke-opacity:1; fill:none" points="156.598,108.513 175.496,108.513 "/>
<path clip-path="url(#clip380)" d="M62.9365 1249.1 Q59.3254 1249.1 57.4967 1252.66 Q55.6912 1256.2 55.6912 1263.33 Q55.6912 1270.44 57.4967 1274 Q59.3254 1277.55 62.9365 1277.55 Q66.5707 1277.55 68.3763 1274 Q70.205 1270.44 70.205 1263.33 Q70.205 1256.2 68.3763 1252.66 Q66.5707 1249.1 62.9365 1249.1 M62.9365 1245.39 Q68.7467 1245.39 71.8022 1250 Q74.8809 1254.58 74.8809 1263.33 Q74.8809 1272.06 71.8022 1276.67 Q68.7467 1281.25 62.9365 1281.25 Q57.1264 1281.25 54.0477 1276.67 Q50.9921 1272.06 50.9921 1263.33 Q50.9921 1254.58 54.0477 1250 Q57.1264 1245.39 62.9365 1245.39 Z" fill="#000000" fill-rule="nonzero" fill-opacity="1" /><path clip-path="url(#clip380)" d="M83.0984 1274.7 L87.9827 1274.7 L87.9827 1280.58 L83.0984 1280.58 L83.0984 1274.7 Z" fill="#000000" fill-rule="nonzero" fill-opacity="1" /><path clip-path="url(#clip380)" d="M111.015 1250.09 L99.2095 1268.54 L111.015 1268.54 L111.015 1250.09 M109.788 1246.02 L115.668 1246.02 L115.668 1268.54 L120.598 1268.54 L120.598 1272.43 L115.668 1272.43 L115.668 1280.58 L111.015 1280.58 L111.015 1272.43 L95.4132 1272.43 L95.4132 1267.92 L109.788 1246.02 Z" fill="#000000" fill-rule="nonzero" fill-opacity="1" /><path clip-path="url(#clip380)" d="M64.418 1018.14 Q60.8069 1018.14 58.9782 1021.7 Q57.1726 1025.25 57.1726 1032.38 Q57.1726 1039.48 58.9782 1043.05 Q60.8069 1046.59 64.418 1046.59 Q68.0522 1046.59 69.8578 1043.05 Q71.6865 1039.48 71.6865 1032.38 Q71.6865 1025.25 69.8578 1021.7 Q68.0522 1018.14 64.418 1018.14 M64.418 1014.44 Q70.2281 1014.44 73.2837 1019.04 Q76.3624 1023.63 76.3624 1032.38 Q76.3624 1041.1 73.2837 1045.71 Q70.2281 1050.29 64.418 1050.29 Q58.6078 1050.29 55.5291 1045.71 Q52.4736 1041.1 52.4736 1032.38 Q52.4736 1023.63 55.5291 1019.04 Q58.6078 1014.44 64.418 1014.44 Z" fill="#000000" fill-rule="nonzero" fill-opacity="1" /><path clip-path="url(#clip380)" d="M84.5799 1043.74 L89.4641 1043.74 L89.4641 1049.62 L84.5799 1049.62 L84.5799 1043.74 Z" fill="#000000" fill-rule="nonzero" fill-opacity="1" /><path clip-path="url(#clip380)" d="M99.6956 1015.06 L118.052 1015.06 L118.052 1019 L103.978 1019 L103.978 1027.47 Q104.996 1027.12 106.015 1026.96 Q107.033 1026.77 108.052 1026.77 Q113.839 1026.77 117.219 1029.95 Q120.598 1033.12 120.598 1038.53 Q120.598 1044.11 117.126 1047.21 Q113.654 1050.29 107.334 1050.29 Q105.159 1050.29 102.89 1049.92 Q100.645 1049.55 98.2372 1048.81 L98.2372 1044.11 Q100.321 1045.25 102.543 1045.8 Q104.765 1046.36 107.242 1046.36 Q111.246 1046.36 113.584 1044.25 Q115.922 1042.14 115.922 1038.53 Q115.922 1034.92 113.584 1032.82 Q111.246 1030.71 107.242 1030.71 Q105.367 1030.71 103.492 1031.13 Q101.64 1031.54 99.6956 1032.42 L99.6956 1015.06 Z" fill="#000000" fill-rule="nonzero" fill-opacity="1" /><path clip-path="url(#clip380)" d="M63.2606 787.183 Q59.6495 787.183 57.8208 790.748 Q56.0152 794.289 56.0152 801.419 Q56.0152 808.525 57.8208 812.09 Q59.6495 815.632 63.2606 815.632 Q66.8948 815.632 68.7004 812.09 Q70.5291 808.525 70.5291 801.419 Q70.5291 794.289 68.7004 790.748 Q66.8948 787.183 63.2606 787.183 M63.2606 783.479 Q69.0707 783.479 72.1263 788.086 Q75.205 792.669 75.205 801.419 Q75.205 810.146 72.1263 814.752 Q69.0707 819.335 63.2606 819.335 Q57.4504 819.335 54.3717 814.752 Q51.3162 810.146 51.3162 801.419 Q51.3162 792.669 54.3717 788.086 Q57.4504 783.479 63.2606 783.479 Z" fill="#000000" fill-rule="nonzero" fill-opacity="1" /><path clip-path="url(#clip380)" d="M83.4225 812.784 L88.3067 812.784 L88.3067 818.664 L83.4225 818.664 L83.4225 812.784 Z" fill="#000000" fill-rule="nonzero" fill-opacity="1" /><path clip-path="url(#clip380)" d="M109.071 799.521 Q105.922 799.521 104.071 801.673 Q102.242 803.826 102.242 807.576 Q102.242 811.303 104.071 813.479 Q105.922 815.632 109.071 815.632 Q112.219 815.632 114.047 813.479 Q115.899 811.303 115.899 807.576 Q115.899 803.826 114.047 801.673 Q112.219 799.521 109.071 799.521 M118.353 784.868 L118.353 789.127 Q116.594 788.294 114.788 787.854 Q113.006 787.414 111.246 787.414 Q106.617 787.414 104.163 790.539 Q101.733 793.664 101.385 799.984 Q102.751 797.97 104.811 796.905 Q106.871 795.817 109.348 795.817 Q114.557 795.817 117.566 798.988 Q120.598 802.136 120.598 807.576 Q120.598 812.9 117.45 816.118 Q114.302 819.335 109.071 819.335 Q103.075 819.335 99.9039 814.752 Q96.7326 810.146 96.7326 801.419 Q96.7326 793.224 100.621 788.363 Q104.51 783.479 111.061 783.479 Q112.82 783.479 114.603 783.826 Q116.408 784.174 118.353 784.868 Z" fill="#000000" fill-rule="nonzero" fill-opacity="1" /><path clip-path="url(#clip380)" d="M64.3254 556.226 Q60.7143 556.226 58.8856 559.791 Q57.0801 563.332 57.0801 570.462 Q57.0801 577.568 58.8856 581.133 Q60.7143 584.675 64.3254 584.675 Q67.9596 584.675 69.7652 581.133 Q71.5939 577.568 71.5939 570.462 Q71.5939 563.332 69.7652 559.791 Q67.9596 556.226 64.3254 556.226 M64.3254 552.522 Q70.1355 552.522 73.1911 557.129 Q76.2698 561.712 76.2698 570.462 Q76.2698 579.189 73.1911 583.795 Q70.1355 588.378 64.3254 588.378 Q58.5152 588.378 55.4365 583.795 Q52.381 579.189 52.381 570.462 Q52.381 561.712 55.4365 557.129 Q58.5152 552.522 64.3254 552.522 Z" fill="#000000" fill-rule="nonzero" fill-opacity="1" /><path clip-path="url(#clip380)" d="M84.4873 581.828 L89.3715 581.828 L89.3715 587.707 L84.4873 587.707 L84.4873 581.828 Z" fill="#000000" fill-rule="nonzero" fill-opacity="1" /><path clip-path="url(#clip380)" d="M98.3761 553.147 L120.598 553.147 L120.598 555.138 L108.052 587.707 L103.168 587.707 L114.973 557.082 L98.3761 557.082 L98.3761 553.147 Z" fill="#000000" fill-rule="nonzero" fill-opacity="1" /><path clip-path="url(#clip380)" d="M63.5152 325.269 Q59.9041 325.269 58.0754 328.834 Q56.2699 332.375 56.2699 339.505 Q56.2699 346.611 58.0754 350.176 Q59.9041 353.718 63.5152 353.718 Q67.1494 353.718 68.955 350.176 Q70.7837 346.611 70.7837 339.505 Q70.7837 332.375 68.955 328.834 Q67.1494 325.269 63.5152 325.269 M63.5152 321.565 Q69.3254 321.565 72.3809 326.172 Q75.4596 330.755 75.4596 339.505 Q75.4596 348.232 72.3809 352.838 Q69.3254 357.421 63.5152 357.421 Q57.7051 357.421 54.6264 352.838 Q51.5708 348.232 51.5708 339.505 Q51.5708 330.755 54.6264 326.172 Q57.7051 321.565 63.5152 321.565 Z" fill="#000000" fill-rule="nonzero" fill-opacity="1" /><path clip-path="url(#clip380)" d="M83.6771 350.871 L88.5614 350.871 L88.5614 356.75 L83.6771 356.75 L83.6771 350.871 Z" fill="#000000" fill-rule="nonzero" fill-opacity="1" /><path clip-path="url(#clip380)" d="M108.746 340.338 Q105.413 340.338 103.492 342.121 Q101.594 343.903 101.594 347.028 Q101.594 350.153 103.492 351.935 Q105.413 353.718 108.746 353.718 Q112.08 353.718 114.001 351.935 Q115.922 350.13 115.922 347.028 Q115.922 343.903 114.001 342.121 Q112.103 340.338 108.746 340.338 M104.071 338.347 Q101.061 337.607 99.3715 335.547 Q97.7048 333.486 97.7048 330.523 Q97.7048 326.38 100.645 323.973 Q103.608 321.565 108.746 321.565 Q113.908 321.565 116.848 323.973 Q119.788 326.38 119.788 330.523 Q119.788 333.486 118.098 335.547 Q116.432 337.607 113.445 338.347 Q116.825 339.135 118.7 341.426 Q120.598 343.718 120.598 347.028 Q120.598 352.051 117.52 354.736 Q114.464 357.421 108.746 357.421 Q103.029 357.421 99.9502 354.736 Q96.8947 352.051 96.8947 347.028 Q96.8947 343.718 98.7928 341.426 Q100.691 339.135 104.071 338.347 M102.358 330.963 Q102.358 333.648 104.024 335.153 Q105.714 336.658 108.746 336.658 Q111.756 336.658 113.445 335.153 Q115.158 333.648 115.158 330.963 Q115.158 328.278 113.445 326.773 Q111.756 325.269 108.746 325.269 Q105.714 325.269 104.024 326.773 Q102.358 328.278 102.358 330.963 Z" fill="#000000" fill-rule="nonzero" fill-opacity="1" /><path clip-path="url(#clip380)" d="M63.6078 94.3119 Q59.9967 94.3119 58.168 97.8767 Q56.3625 101.418 56.3625 108.548 Q56.3625 115.654 58.168 119.219 Q59.9967 122.761 63.6078 122.761 Q67.242 122.761 69.0476 119.219 Q70.8763 115.654 70.8763 108.548 Q70.8763 101.418 69.0476 97.8767 Q67.242 94.3119 63.6078 94.3119 M63.6078 90.6082 Q69.418 90.6082 72.4735 95.2147 Q75.5522 99.798 75.5522 108.548 Q75.5522 117.275 72.4735 121.881 Q69.418 126.465 63.6078 126.465 Q57.7976 126.465 54.719 121.881 Q51.6634 117.275 51.6634 108.548 Q51.6634 99.798 54.719 95.2147 Q57.7976 90.6082 63.6078 90.6082 Z" fill="#000000" fill-rule="nonzero" fill-opacity="1" /><path clip-path="url(#clip380)" d="M83.7697 119.914 L88.654 119.914 L88.654 125.793 L83.7697 125.793 L83.7697 119.914 Z" fill="#000000" fill-rule="nonzero" fill-opacity="1" /><path clip-path="url(#clip380)" d="M98.978 125.076 L98.978 120.816 Q100.737 121.65 102.543 122.09 Q104.348 122.529 106.084 122.529 Q110.714 122.529 113.145 119.428 Q115.598 116.303 115.945 109.96 Q114.603 111.951 112.543 113.016 Q110.483 114.08 107.983 114.08 Q102.797 114.08 99.765 110.955 Q96.7558 107.807 96.7558 102.367 Q96.7558 97.0434 99.9039 93.8258 Q103.052 90.6082 108.283 90.6082 Q114.279 90.6082 117.427 95.2147 Q120.598 99.798 120.598 108.548 Q120.598 116.719 116.709 121.603 Q112.844 126.465 106.293 126.465 Q104.534 126.465 102.728 126.117 Q100.922 125.77 98.978 125.076 M108.283 110.423 Q111.432 110.423 113.26 108.27 Q115.112 106.117 115.112 102.367 Q115.112 98.6406 113.26 96.4878 Q111.432 94.3119 108.283 94.3119 Q105.135 94.3119 103.284 96.4878 Q101.455 98.6406 101.455 102.367 Q101.455 106.117 103.284 108.27 Q105.135 110.423 108.283 110.423 Z" fill="#000000" fill-rule="nonzero" fill-opacity="1" /><polyline clip-path="url(#clip381)" style="stroke:#009af9; stroke-linecap:round; stroke-linejoin:round; stroke-width:4; stroke-opacity:1; fill:none" points="156.598,1032.34 249.045,1266.5 267.534,1254.92 288.335,1213.8 311.735,1184.12 338.061,1046.99 367.677,1027.51 400.996,971.672 438.479,866.785 480.648,923.507 522.793,976.376 570.206,976.187 623.546,708.843 683.554,734.864 740.715,352.757 805.021,443.482 852.259,533.82 905.401,712.912 959.143,86.1857 1019.6,355.425 1068.36,467.077 1123.22,929.771 1180,996.94 1243.87,897.435 1315.58,1304.39 1396.25,1384.24 1477.89,1146.17 1569.73,834.186 1673.06,1007.21 1733.68,1209.23 1801.89,1210.85 1878.55,1306.16 1951.33,1369.87 2033.19,1366.87 2125.3,1259.82 2228.91,1031.52 2345.48,1179.16 2352.76,1159.04 "/>
<polyline clip-path="url(#clip381)" style="stroke:#e26f46; stroke-linecap:round; stroke-linejoin:round; stroke-width:4; stroke-opacity:1; fill:none" points="156.598,1032.34 249.045,1267.25 267.534,1255.7 288.335,1214.62 311.735,1184.99 338.061,1047.91 367.677,1028.51 400.996,972.764 438.479,867.958 480.648,924.908 522.793,977.985 570.206,978.032 623.546,710.727 683.554,737.253 740.715,355.149 805.021,446.658 852.259,537.307 905.401,716.609 959.143,90.3673 1019.6,359.989 1068.36,471.909 1123.22,931.43 1180,999.003 1243.87,899.769 1315.58,1302.9 1396.25,1383.63 1477.89,1144.76 1569.73,831.398 1673.06,1006.66 1733.68,1209.09 1801.89,1211.13 1878.55,1307.16 1951.33,1371.38 2033.19,1368.87 2125.3,1262.1 2228.91,1033.71 2345.48,1183.12 2352.76,1163.08 "/>
<path clip-path="url(#clip380)" d="M1850.91 248.629 L2279.55 248.629 L2279.55 93.1086 L1850.91 93.1086  Z" fill="#ffffff" fill-rule="evenodd" fill-opacity="1"/>
<polyline clip-path="url(#clip380)" style="stroke:#000000; stroke-linecap:round; stroke-linejoin:round; stroke-width:4; stroke-opacity:1; fill:none" points="1850.91,248.629 2279.55,248.629 2279.55,93.1086 1850.91,93.1086 1850.91,248.629 "/>
<polyline clip-path="url(#clip380)" style="stroke:#009af9; stroke-linecap:round; stroke-linejoin:round; stroke-width:4; stroke-opacity:1; fill:none" points="1875.31,144.949 2021.72,144.949 "/>
<path clip-path="url(#clip380)" d="M2046.12 151.997 L2046.12 136.303 L2050.38 136.303 L2050.38 151.835 Q2050.38 155.516 2051.82 157.368 Q2053.25 159.196 2056.12 159.196 Q2059.57 159.196 2061.56 156.997 Q2063.58 154.798 2063.58 151.002 L2063.58 136.303 L2067.84 136.303 L2067.84 162.229 L2063.58 162.229 L2063.58 158.247 Q2062.02 160.608 2059.96 161.766 Q2057.93 162.9 2055.22 162.9 Q2050.75 162.9 2048.44 160.122 Q2046.12 157.344 2046.12 151.997 M2056.84 135.678 L2056.84 135.678 Z" fill="#000000" fill-rule="nonzero" fill-opacity="1" /><path clip-path="url(#clip380)" d="M2076.21 126.21 L2086.03 126.21 L2086.03 129.52 L2080.47 129.52 L2080.47 165.168 L2086.03 165.168 L2086.03 168.479 L2076.21 168.479 L2076.21 126.21 Z" fill="#000000" fill-rule="nonzero" fill-opacity="1" /><path clip-path="url(#clip380)" d="M2096.52 158.293 L2104.15 158.293 L2104.15 131.928 L2095.84 133.595 L2095.84 129.335 L2104.11 127.669 L2108.78 127.669 L2108.78 158.293 L2116.42 158.293 L2116.42 162.229 L2096.52 162.229 L2096.52 158.293 Z" fill="#000000" fill-rule="nonzero" fill-opacity="1" /><path clip-path="url(#clip380)" d="M2135.22 126.21 L2135.22 168.479 L2125.4 168.479 L2125.4 165.168 L2130.94 165.168 L2130.94 129.52 L2125.4 129.52 L2125.4 126.21 L2135.22 126.21 Z" fill="#000000" fill-rule="nonzero" fill-opacity="1" /><polyline clip-path="url(#clip380)" style="stroke:#e26f46; stroke-linecap:round; stroke-linejoin:round; stroke-width:4; stroke-opacity:1; fill:none" points="1875.31,196.789 2021.72,196.789 "/>
<path clip-path="url(#clip380)" d="M2046.12 179.509 L2075.36 179.509 L2075.36 183.444 L2063.09 183.444 L2063.09 214.069 L2058.39 214.069 L2058.39 183.444 L2046.12 183.444 L2046.12 179.509 Z" fill="#000000" fill-rule="nonzero" fill-opacity="1" /><path clip-path="url(#clip380)" d="M2087.74 192.124 Q2087.02 191.708 2086.17 191.522 Q2085.33 191.314 2084.32 191.314 Q2080.71 191.314 2078.76 193.675 Q2076.84 196.013 2076.84 200.411 L2076.84 214.069 L2072.56 214.069 L2072.56 188.143 L2076.84 188.143 L2076.84 192.171 Q2078.18 189.809 2080.34 188.675 Q2082.49 187.518 2085.57 187.518 Q2086.01 187.518 2086.54 187.587 Q2087.07 187.634 2087.72 187.749 L2087.74 192.124 Z" fill="#000000" fill-rule="nonzero" fill-opacity="1" /><path clip-path="url(#clip380)" d="M2091.77 203.837 L2091.77 188.143 L2096.03 188.143 L2096.03 203.675 Q2096.03 207.356 2097.46 209.208 Q2098.9 211.036 2101.77 211.036 Q2105.22 211.036 2107.21 208.837 Q2109.22 206.638 2109.22 202.842 L2109.22 188.143 L2113.48 188.143 L2113.48 214.069 L2109.22 214.069 L2109.22 210.087 Q2107.67 212.448 2105.61 213.606 Q2103.58 214.74 2100.87 214.74 Q2096.4 214.74 2094.08 211.962 Q2091.77 209.184 2091.77 203.837 M2102.49 187.518 L2102.49 187.518 Z" fill="#000000" fill-rule="nonzero" fill-opacity="1" /><path clip-path="url(#clip380)" d="M2144.43 200.041 L2144.43 202.124 L2124.85 202.124 Q2125.13 206.522 2127.49 208.837 Q2129.87 211.129 2134.11 211.129 Q2136.56 211.129 2138.85 210.527 Q2141.17 209.925 2143.44 208.721 L2143.44 212.749 Q2141.14 213.721 2138.74 214.231 Q2136.33 214.74 2133.85 214.74 Q2127.65 214.74 2124.02 211.129 Q2120.4 207.518 2120.4 201.36 Q2120.4 194.995 2123.83 191.268 Q2127.28 187.518 2133.11 187.518 Q2138.34 187.518 2141.38 190.897 Q2144.43 194.254 2144.43 200.041 M2140.17 198.791 Q2140.13 195.296 2138.21 193.212 Q2136.31 191.129 2133.16 191.129 Q2129.59 191.129 2127.44 193.143 Q2125.31 195.157 2124.99 198.814 L2140.17 198.791 Z" fill="#000000" fill-rule="nonzero" fill-opacity="1" /><path clip-path="url(#clip380)" d="M2166.05 203.837 L2166.05 188.143 L2170.31 188.143 L2170.31 203.675 Q2170.31 207.356 2171.75 209.208 Q2173.18 211.036 2176.05 211.036 Q2179.5 211.036 2181.49 208.837 Q2183.51 206.638 2183.51 202.842 L2183.51 188.143 L2187.76 188.143 L2187.76 214.069 L2183.51 214.069 L2183.51 210.087 Q2181.95 212.448 2179.89 213.606 Q2177.86 214.74 2175.15 214.74 Q2170.68 214.74 2168.37 211.962 Q2166.05 209.184 2166.05 203.837 M2176.77 187.518 L2176.77 187.518 Z" fill="#000000" fill-rule="nonzero" fill-opacity="1" /><path clip-path="url(#clip380)" d="M2196.14 178.05 L2205.96 178.05 L2205.96 181.36 L2200.4 181.36 L2200.4 217.008 L2205.96 217.008 L2205.96 220.319 L2196.14 220.319 L2196.14 178.05 Z" fill="#000000" fill-rule="nonzero" fill-opacity="1" /><path clip-path="url(#clip380)" d="M2216.45 210.133 L2224.08 210.133 L2224.08 183.768 L2215.77 185.435 L2215.77 181.175 L2224.04 179.509 L2228.71 179.509 L2228.71 210.133 L2236.35 210.133 L2236.35 214.069 L2216.45 214.069 L2216.45 210.133 Z" fill="#000000" fill-rule="nonzero" fill-opacity="1" /><path clip-path="url(#clip380)" d="M2255.15 178.05 L2255.15 220.319 L2245.33 220.319 L2245.33 217.008 L2250.87 217.008 L2250.87 181.36 L2245.33 181.36 L2245.33 178.05 L2255.15 178.05 Z" fill="#000000" fill-rule="nonzero" fill-opacity="1" /></svg>
