<?xml version="1.0" encoding="utf-8"?>
<svg xmlns="http://www.w3.org/2000/svg" xmlns:xlink="http://www.w3.org/1999/xlink" width="600" height="400" viewBox="0 0 2400 1600">
<defs>
  <clipPath id="clip290">
    <rect x="0" y="0" width="2400" height="1600"/>
  </clipPath>
</defs>
<path clip-path="url(#clip290)" d="M0 1600 L2400 1600 L2400 0 L0 0  Z" fill="#ffffff" fill-rule="evenodd" fill-opacity="1"/>
<defs>
  <clipPath id="clip291">
    <rect x="156" y="47" width="2197" height="1377"/>
  </clipPath>
</defs>
<path clip-path="url(#clip290)" d="M156.598 1423.18 L2352.76 1423.18 L2352.76 47.2441 L156.598 47.2441  Z" fill="#ffffff" fill-rule="evenodd" fill-opacity="1"/>
<polyline clip-path="url(#clip291)" style="stroke:#000000; stroke-linecap:round; stroke-linejoin:round; stroke-width:2; stroke-opacity:0.1; fill:none" points="156.598,1423.18 156.598,47.2441 "/>
<polyline clip-path="url(#clip291)" style="stroke:#000000; stroke-linecap:round; stroke-linejoin:round; stroke-width:2; stroke-opacity:0.1; fill:none" points="595.83,1423.18 595.83,47.2441 "/>
<polyline clip-path="url(#clip291)" style="stroke:#000000; stroke-linecap:round; stroke-linejoin:round; stroke-width:2; stroke-opacity:0.1; fill:none" points="1035.06,1423.18 1035.06,47.2441 "/>
<polyline clip-path="url(#clip291)" style="stroke:#000000; stroke-linecap:round; stroke-linejoin:round; stroke-width:2; stroke-opacity:0.1; fill:none" points="1474.29,1423.18 1474.29,47.2441 "/>
<polyline clip-path="url(#clip291)" style="stroke:#000000; stroke-linecap:round; stroke-linejoin:round; stroke-width:2; stroke-opacity:0.1; fill:none" points="1913.52,1423.18 1913.52,47.2441 "/>
<polyline clip-path="url(#clip291)" style="stroke:#000000; stroke-linecap:round; stroke-linejoin:round; stroke-width:2; stroke-opacity:0.1; fill:none" points="2352.76,1423.18 2352.76,47.2441 "/>
<polyline clip-path="url(#clip291)" style="stroke:#000000; stroke-linecap:round; stroke-linejoin:round; stroke-width:2; stroke-opacity:0.1; fill:none" points="156.598,1201.48 2352.76,1201.48 "/>
<polyline clip-path="url(#clip291)" style="stroke:#000000; stroke-linecap:round; stroke-linejoin:round; stroke-width:2; stroke-opacity:0.1; fill:none" points="156.598,918.054 2352.76,918.054 "/>
<polyline clip-path="url(#clip291)" style="stroke:#000000; stroke-linecap:round; stroke-linejoin:round; stroke-width:2; stroke-opacity:0.1; fill:none" points="156.598,634.626 2352.76,634.626 "/>
<polyline clip-path="url(#clip291)" style="stroke:#000000; stroke-linecap:round; stroke-linejoin:round; stroke-width:2; stroke-opacity:0.1; fill:none" points="156.598,351.197 2352.76,351.197 "/>
<polyline clip-path="url(#clip291)" style="stroke:#000000; stroke-linecap:round; stroke-linejoin:round; stroke-width:2; stroke-opacity:0.1; fill:none" points="156.598,67.7684 2352.76,67.7684 "/>
<polyline clip-path="url(#clip290)" style="stroke:#000000; stroke-linecap:round; stroke-linejoin:round; stroke-width:4; stroke-opacity:1; fill:none" points="156.598,1423.18 2352.76,1423.18 "/>
<polyline clip-path="url(#clip290)" style="stroke:#000000; stroke-linecap:round; stroke-linejoin:round; stroke-width:4; stroke-opacity:1; fill:none" points="156.598,1423.18 156.598,1404.28 "/>
<polyline clip-path="url(#clip290)" style="stroke:#000000; stroke-linecap:round; stroke-linejoin:round; stroke-width:4; stroke-opacity:1; fill:none" points="595.83,1423.18 595.83,1404.28 "/>
<polyline clip-path="url(#clip290)" style="stroke:#000000; stroke-linecap:round; stroke-linejoin:round; stroke-width:4; stroke-opacity:1; fill:none" points="1035.06,1423.18 1035.06,1404.28 "/>
<polyline clip-path="url(#clip290)" style="stroke:#000000; stroke-linecap:round; stroke-linejoin:round; stroke-width:4; stroke-opacity:1; fill:none" points="1474.29,1423.18 1474.29,1404.28 "/>
<polyline clip-path="url(#clip290)" style="stroke:#000000; stroke-linecap:round; stroke-linejoin:round; stroke-width:4; stroke-opacity:1; fill:none" points="1913.52,1423.18 1913.52,1404.28 "/>
<polyline clip-path="url(#clip290)" style="stroke:#000000; stroke-linecap:round; stroke-linejoin:round; stroke-width:4; stroke-opacity:1; fill:none" points="2352.76,1423.18 2352.76,1404.28 "/>
<path clip-path="url(#clip290)" d="M133.983 1454.1 Q130.372 1454.1 128.543 1457.66 Q126.737 1461.2 126.737 1468.33 Q126.737 1475.44 128.543 1479.01 Q130.372 1482.55 133.983 1482.55 Q137.617 1482.55 139.422 1479.01 Q141.251 1475.44 141.251 1468.33 Q141.251 1461.2 139.422 1457.66 Q137.617 1454.1 133.983 1454.1 M133.983 1450.39 Q139.793 1450.39 142.848 1455 Q145.927 1459.58 145.927 1468.33 Q145.927 1477.06 142.848 1481.67 Q139.793 1486.25 133.983 1486.25 Q128.172 1486.25 125.094 1481.67 Q122.038 1477.06 122.038 1468.33 Q122.038 1459.58 125.094 1455 Q128.172 1450.39 133.983 1450.39 Z" fill="#000000" fill-rule="nonzero" fill-opacity="1" /><path clip-path="url(#clip290)" d="M154.145 1479.7 L159.029 1479.7 L159.029 1485.58 L154.145 1485.58 L154.145 1479.7 Z" fill="#000000" fill-rule="nonzero" fill-opacity="1" /><path clip-path="url(#clip290)" d="M179.214 1454.1 Q175.603 1454.1 173.774 1457.66 Q171.969 1461.2 171.969 1468.33 Q171.969 1475.44 173.774 1479.01 Q175.603 1482.55 179.214 1482.55 Q182.848 1482.55 184.654 1479.01 Q186.482 1475.44 186.482 1468.33 Q186.482 1461.2 184.654 1457.66 Q182.848 1454.1 179.214 1454.1 M179.214 1450.39 Q185.024 1450.39 188.08 1455 Q191.158 1459.58 191.158 1468.33 Q191.158 1477.06 188.08 1481.67 Q185.024 1486.25 179.214 1486.25 Q173.404 1486.25 170.325 1481.67 Q167.269 1477.06 167.269 1468.33 Q167.269 1459.58 170.325 1455 Q173.404 1450.39 179.214 1450.39 Z" fill="#000000" fill-rule="nonzero" fill-opacity="1" /><path clip-path="url(#clip290)" d="M574.013 1454.1 Q570.402 1454.1 568.573 1457.66 Q566.767 1461.2 566.767 1468.33 Q566.767 1475.44 568.573 1479.01 Q570.402 1482.55 574.013 1482.55 Q577.647 1482.55 579.453 1479.01 Q581.281 1475.44 581.281 1468.33 Q581.281 1461.2 579.453 1457.66 Q577.647 1454.1 574.013 1454.1 M574.013 1450.39 Q579.823 1450.39 582.878 1455 Q585.957 1459.58 585.957 1468.33 Q585.957 1477.06 582.878 1481.67 Q579.823 1486.25 574.013 1486.25 Q568.203 1486.25 565.124 1481.67 Q562.068 1477.06 562.068 1468.33 Q562.068 1459.58 565.124 1455 Q568.203 1450.39 574.013 1450.39 Z" fill="#000000" fill-rule="nonzero" fill-opacity="1" /><path clip-path="url(#clip290)" d="M594.175 1479.7 L599.059 1479.7 L599.059 1485.58 L594.175 1485.58 L594.175 1479.7 Z" fill="#000000" fill-rule="nonzero" fill-opacity="1" /><path clip-path="url(#clip290)" d="M613.272 1481.64 L629.591 1481.64 L629.591 1485.58 L607.647 1485.58 L607.647 1481.64 Q610.309 1478.89 614.892 1474.26 Q619.499 1469.61 620.679 1468.27 Q622.925 1465.74 623.804 1464.01 Q624.707 1462.25 624.707 1460.56 Q624.707 1457.8 622.762 1456.07 Q620.841 1454.33 617.739 1454.33 Q615.54 1454.33 613.087 1455.09 Q610.656 1455.86 607.878 1457.41 L607.878 1452.69 Q610.702 1451.55 613.156 1450.97 Q615.61 1450.39 617.647 1450.39 Q623.017 1450.39 626.212 1453.08 Q629.406 1455.77 629.406 1460.26 Q629.406 1462.39 628.596 1464.31 Q627.809 1466.2 625.702 1468.8 Q625.124 1469.47 622.022 1472.69 Q618.92 1475.88 613.272 1481.64 Z" fill="#000000" fill-rule="nonzero" fill-opacity="1" /><path clip-path="url(#clip290)" d="M1012.2 1454.1 Q1008.59 1454.1 1006.76 1457.66 Q1004.96 1461.2 1004.96 1468.33 Q1004.96 1475.44 1006.76 1479.01 Q1008.59 1482.55 1012.2 1482.55 Q1015.84 1482.55 1017.64 1479.01 Q1019.47 1475.44 1019.47 1468.33 Q1019.47 1461.2 1017.64 1457.66 Q1015.84 1454.1 1012.2 1454.1 M1012.2 1450.39 Q1018.01 1450.39 1021.07 1455 Q1024.15 1459.58 1024.15 1468.33 Q1024.15 1477.06 1021.07 1481.67 Q1018.01 1486.25 1012.2 1486.25 Q1006.39 1486.25 1003.31 1481.67 Q1000.26 1477.06 1000.26 1468.33 Q1000.26 1459.58 1003.31 1455 Q1006.39 1450.39 1012.2 1450.39 Z" fill="#000000" fill-rule="nonzero" fill-opacity="1" /><path clip-path="url(#clip290)" d="M1032.36 1479.7 L1037.25 1479.7 L1037.25 1485.58 L1032.36 1485.58 L1032.36 1479.7 Z" fill="#000000" fill-rule="nonzero" fill-opacity="1" /><path clip-path="url(#clip290)" d="M1060.28 1455.09 L1048.48 1473.54 L1060.28 1473.54 L1060.28 1455.09 M1059.05 1451.02 L1064.93 1451.02 L1064.93 1473.54 L1069.86 1473.54 L1069.86 1477.43 L1064.93 1477.43 L1064.93 1485.58 L1060.28 1485.58 L1060.28 1477.43 L1044.68 1477.43 L1044.68 1472.92 L1059.05 1451.02 Z" fill="#000000" fill-rule="nonzero" fill-opacity="1" /><path clip-path="url(#clip290)" d="M1451.6 1454.1 Q1447.99 1454.1 1446.16 1457.66 Q1444.35 1461.2 1444.35 1468.33 Q1444.35 1475.44 1446.16 1479.01 Q1447.99 1482.55 1451.6 1482.55 Q1455.23 1482.55 1457.04 1479.01 Q1458.86 1475.44 1458.86 1468.33 Q1458.86 1461.2 1457.04 1457.66 Q1455.23 1454.1 1451.6 1454.1 M1451.6 1450.39 Q1457.41 1450.39 1460.46 1455 Q1463.54 1459.58 1463.54 1468.33 Q1463.54 1477.06 1460.46 1481.67 Q1457.41 1486.25 1451.6 1486.25 Q1445.79 1486.25 1442.71 1481.67 Q1439.65 1477.06 1439.65 1468.33 Q1439.65 1459.58 1442.71 1455 Q1445.79 1450.39 1451.6 1450.39 Z" fill="#000000" fill-rule="nonzero" fill-opacity="1" /><path clip-path="url(#clip290)" d="M1471.76 1479.7 L1476.64 1479.7 L1476.64 1485.58 L1471.76 1485.58 L1471.76 1479.7 Z" fill="#000000" fill-rule="nonzero" fill-opacity="1" /><path clip-path="url(#clip290)" d="M1497.41 1466.44 Q1494.26 1466.44 1492.41 1468.59 Q1490.58 1470.74 1490.58 1474.49 Q1490.58 1478.22 1492.41 1480.39 Q1494.26 1482.55 1497.41 1482.55 Q1500.55 1482.55 1502.38 1480.39 Q1504.23 1478.22 1504.23 1474.49 Q1504.23 1470.74 1502.38 1468.59 Q1500.55 1466.44 1497.41 1466.44 M1506.69 1451.78 L1506.69 1456.04 Q1504.93 1455.21 1503.12 1454.77 Q1501.34 1454.33 1499.58 1454.33 Q1494.95 1454.33 1492.5 1457.45 Q1490.07 1460.58 1489.72 1466.9 Q1491.09 1464.89 1493.15 1463.82 Q1495.21 1462.73 1497.68 1462.73 Q1502.89 1462.73 1505.9 1465.9 Q1508.93 1469.05 1508.93 1474.49 Q1508.93 1479.82 1505.79 1483.03 Q1502.64 1486.25 1497.41 1486.25 Q1491.41 1486.25 1488.24 1481.67 Q1485.07 1477.06 1485.07 1468.33 Q1485.07 1460.14 1488.96 1455.28 Q1492.85 1450.39 1499.4 1450.39 Q1501.16 1450.39 1502.94 1450.74 Q1504.74 1451.09 1506.69 1451.78 Z" fill="#000000" fill-rule="nonzero" fill-opacity="1" /><path clip-path="url(#clip290)" d="M1890.96 1454.1 Q1887.34 1454.1 1885.52 1457.66 Q1883.71 1461.2 1883.71 1468.33 Q1883.71 1475.44 1885.52 1479.01 Q1887.34 1482.55 1890.96 1482.55 Q1894.59 1482.55 1896.39 1479.01 Q1898.22 1475.44 1898.22 1468.33 Q1898.22 1461.2 1896.39 1457.66 Q1894.59 1454.1 1890.96 1454.1 M1890.96 1450.39 Q1896.77 1450.39 1899.82 1455 Q1902.9 1459.58 1902.9 1468.33 Q1902.9 1477.06 1899.82 1481.67 Q1896.77 1486.25 1890.96 1486.25 Q1885.14 1486.25 1882.07 1481.67 Q1879.01 1477.06 1879.01 1468.33 Q1879.01 1459.58 1882.07 1455 Q1885.14 1450.39 1890.96 1450.39 Z" fill="#000000" fill-rule="nonzero" fill-opacity="1" /><path clip-path="url(#clip290)" d="M1911.12 1479.7 L1916 1479.7 L1916 1485.58 L1911.12 1485.58 L1911.12 1479.7 Z" fill="#000000" fill-rule="nonzero" fill-opacity="1" /><path clip-path="url(#clip290)" d="M1936.19 1469.17 Q1932.85 1469.17 1930.93 1470.95 Q1929.03 1472.73 1929.03 1475.86 Q1929.03 1478.98 1930.93 1480.77 Q1932.85 1482.55 1936.19 1482.55 Q1939.52 1482.55 1941.44 1480.77 Q1943.36 1478.96 1943.36 1475.86 Q1943.36 1472.73 1941.44 1470.95 Q1939.54 1469.17 1936.19 1469.17 M1931.51 1467.18 Q1928.5 1466.44 1926.81 1464.38 Q1925.14 1462.32 1925.14 1459.35 Q1925.14 1455.21 1928.08 1452.8 Q1931.05 1450.39 1936.19 1450.39 Q1941.35 1450.39 1944.29 1452.8 Q1947.23 1455.21 1947.23 1459.35 Q1947.23 1462.32 1945.54 1464.38 Q1943.87 1466.44 1940.89 1467.18 Q1944.26 1467.96 1946.14 1470.26 Q1948.04 1472.55 1948.04 1475.86 Q1948.04 1480.88 1944.96 1483.57 Q1941.9 1486.25 1936.19 1486.25 Q1930.47 1486.25 1927.39 1483.57 Q1924.33 1480.88 1924.33 1475.86 Q1924.33 1472.55 1926.23 1470.26 Q1928.13 1467.96 1931.51 1467.18 M1929.8 1459.79 Q1929.8 1462.48 1931.46 1463.98 Q1933.15 1465.49 1936.19 1465.49 Q1939.2 1465.49 1940.89 1463.98 Q1942.6 1462.48 1942.6 1459.79 Q1942.6 1457.11 1940.89 1455.6 Q1939.2 1454.1 1936.19 1454.1 Q1933.15 1454.1 1931.46 1455.6 Q1929.8 1457.11 1929.8 1459.79 Z" fill="#000000" fill-rule="nonzero" fill-opacity="1" /><path clip-path="url(#clip290)" d="M2319.91 1481.64 L2327.55 1481.64 L2327.55 1455.28 L2319.24 1456.95 L2319.24 1452.69 L2327.5 1451.02 L2332.18 1451.02 L2332.18 1481.64 L2339.82 1481.64 L2339.82 1485.58 L2319.91 1485.58 L2319.91 1481.64 Z" fill="#000000" fill-rule="nonzero" fill-opacity="1" /><path clip-path="url(#clip290)" d="M2349.26 1479.7 L2354.14 1479.7 L2354.14 1485.58 L2349.26 1485.58 L2349.26 1479.7 Z" fill="#000000" fill-rule="nonzero" fill-opacity="1" /><path clip-path="url(#clip290)" d="M2374.33 1454.1 Q2370.72 1454.1 2368.89 1457.66 Q2367.08 1461.2 2367.08 1468.33 Q2367.08 1475.44 2368.89 1479.01 Q2370.72 1482.55 2374.33 1482.55 Q2377.96 1482.55 2379.77 1479.01 Q2381.6 1475.44 2381.6 1468.33 Q2381.6 1461.2 2379.77 1457.66 Q2377.96 1454.1 2374.33 1454.1 M2374.33 1450.39 Q2380.14 1450.39 2383.2 1455 Q2386.27 1459.58 2386.27 1468.33 Q2386.27 1477.06 2383.2 1481.67 Q2380.14 1486.25 2374.33 1486.25 Q2368.52 1486.25 2365.44 1481.67 Q2362.39 1477.06 2362.39 1468.33 Q2362.39 1459.58 2365.44 1455 Q2368.52 1450.39 2374.33 1450.39 Z" fill="#000000" fill-rule="nonzero" fill-opacity="1" /><path clip-path="url(#clip290)" d="M1253.74 1522.27 L1253.74 1532.4 L1265.8 1532.4 L1265.8 1536.95 L1253.74 1536.95 L1253.74 1556.3 Q1253.74 1560.66 1254.92 1561.9 Q1256.13 1563.14 1259.79 1563.14 L1265.8 1563.14 L1265.8 1568.04 L1259.79 1568.04 Q1253.01 1568.04 1250.43 1565.53 Q1247.85 1562.98 1247.85 1556.3 L1247.85 1536.95 L1243.55 1536.95 L1243.55 1532.4 L1247.85 1532.4 L1247.85 1522.27 L1253.74 1522.27 Z" fill="#000000" fill-rule="nonzero" fill-opacity="1" /><polyline clip-path="url(#clip290)" style="stroke:#000000; stroke-linecap:round; stroke-linejoin:round; stroke-width:4; stroke-opacity:1; fill:none" points="156.598,1423.18 156.598,47.2441 "/>
<polyline clip-path="url(#clip290)" style="stroke:#000000; stroke-linecap:round; stroke-linejoin:round; stroke-width:4; stroke-opacity:1; fill:none" points="156.598,1201.48 175.496,1201.48 "/>
<polyline clip-path="url(#clip290)" style="stroke:#000000; stroke-linecap:round; stroke-linejoin:round; stroke-width:4; stroke-opacity:1; fill:none" points="156.598,918.054 175.496,918.054 "/>
<polyline clip-path="url(#clip290)" style="stroke:#000000; stroke-linecap:round; stroke-linejoin:round; stroke-width:4; stroke-opacity:1; fill:none" points="156.598,634.626 175.496,634.626 "/>
<polyline clip-path="url(#clip290)" style="stroke:#000000; stroke-linecap:round; stroke-linejoin:round; stroke-width:4; stroke-opacity:1; fill:none" points="156.598,351.197 175.496,351.197 "/>
<polyline clip-path="url(#clip290)" style="stroke:#000000; stroke-linecap:round; stroke-linejoin:round; stroke-width:4; stroke-opacity:1; fill:none" points="156.598,67.7684 175.496,67.7684 "/>
<path clip-path="url(#clip290)" d="M62.9365 1187.28 Q59.3254 1187.28 57.4967 1190.85 Q55.6912 1194.39 55.6912 1201.52 Q55.6912 1208.62 57.4967 1212.19 Q59.3254 1215.73 62.9365 1215.73 Q66.5707 1215.73 68.3763 1212.19 Q70.205 1208.62 70.205 1201.52 Q70.205 1194.39 68.3763 1190.85 Q66.5707 1187.28 62.9365 1187.28 M62.9365 1183.58 Q68.7467 1183.58 71.8022 1188.18 Q74.8809 1192.77 74.8809 1201.52 Q74.8809 1210.24 71.8022 1214.85 Q68.7467 1219.43 62.9365 1219.43 Q57.1264 1219.43 54.0477 1214.85 Q50.9921 1210.24 50.9921 1201.52 Q50.9921 1192.77 54.0477 1188.18 Q57.1264 1183.58 62.9365 1183.58 Z" fill="#000000" fill-rule="nonzero" fill-opacity="1" /><path clip-path="url(#clip290)" d="M83.0984 1212.88 L87.9827 1212.88 L87.9827 1218.76 L83.0984 1218.76 L83.0984 1212.88 Z" fill="#000000" fill-rule="nonzero" fill-opacity="1" /><path clip-path="url(#clip290)" d="M111.015 1188.28 L99.2095 1206.73 L111.015 1206.73 L111.015 1188.28 M109.788 1184.2 L115.668 1184.2 L115.668 1206.73 L120.598 1206.73 L120.598 1210.61 L115.668 1210.61 L115.668 1218.76 L111.015 1218.76 L111.015 1210.61 L95.4132 1210.61 L95.4132 1206.1 L109.788 1184.2 Z" fill="#000000" fill-rule="nonzero" fill-opacity="1" /><path clip-path="url(#clip290)" d="M63.2606 903.853 Q59.6495 903.853 57.8208 907.418 Q56.0152 910.959 56.0152 918.089 Q56.0152 925.195 57.8208 928.76 Q59.6495 932.302 63.2606 932.302 Q66.8948 932.302 68.7004 928.76 Q70.5291 925.195 70.5291 918.089 Q70.5291 910.959 68.7004 907.418 Q66.8948 903.853 63.2606 903.853 M63.2606 900.149 Q69.0707 900.149 72.1263 904.756 Q75.205 909.339 75.205 918.089 Q75.205 926.816 72.1263 931.422 Q69.0707 936.006 63.2606 936.006 Q57.4504 936.006 54.3717 931.422 Q51.3162 926.816 51.3162 918.089 Q51.3162 909.339 54.3717 904.756 Q57.4504 900.149 63.2606 900.149 Z" fill="#000000" fill-rule="nonzero" fill-opacity="1" /><path clip-path="url(#clip290)" d="M83.4225 929.455 L88.3067 929.455 L88.3067 935.334 L83.4225 935.334 L83.4225 929.455 Z" fill="#000000" fill-rule="nonzero" fill-opacity="1" /><path clip-path="url(#clip290)" d="M109.071 916.191 Q105.922 916.191 104.071 918.344 Q102.242 920.496 102.242 924.246 Q102.242 927.973 104.071 930.149 Q105.922 932.302 109.071 932.302 Q112.219 932.302 114.047 930.149 Q115.899 927.973 115.899 924.246 Q115.899 920.496 114.047 918.344 Q112.219 916.191 109.071 916.191 M118.353 901.538 L118.353 905.797 Q116.594 904.964 114.788 904.524 Q113.006 904.084 111.246 904.084 Q106.617 904.084 104.163 907.209 Q101.733 910.334 101.385 916.654 Q102.751 914.64 104.811 913.575 Q106.871 912.487 109.348 912.487 Q114.557 912.487 117.566 915.658 Q120.598 918.807 120.598 924.246 Q120.598 929.57 117.45 932.788 Q114.302 936.006 109.071 936.006 Q103.075 936.006 99.9039 931.422 Q96.7326 926.816 96.7326 918.089 Q96.7326 909.895 100.621 905.033 Q104.51 900.149 111.061 900.149 Q112.82 900.149 114.603 900.496 Q116.408 900.844 118.353 901.538 Z" fill="#000000" fill-rule="nonzero" fill-opacity="1" /><path clip-path="url(#clip290)" d="M63.5152 620.424 Q59.9041 620.424 58.0754 623.989 Q56.2699 627.531 56.2699 634.66 Q56.2699 641.767 58.0754 645.332 Q59.9041 648.873 63.5152 648.873 Q67.1494 648.873 68.955 645.332 Q70.7837 641.767 70.7837 634.66 Q70.7837 627.531 68.955 623.989 Q67.1494 620.424 63.5152 620.424 M63.5152 616.721 Q69.3254 616.721 72.3809 621.327 Q75.4596 625.91 75.4596 634.66 Q75.4596 643.387 72.3809 647.994 Q69.3254 652.577 63.5152 652.577 Q57.7051 652.577 54.6264 647.994 Q51.5708 643.387 51.5708 634.66 Q51.5708 625.91 54.6264 621.327 Q57.7051 616.721 63.5152 616.721 Z" fill="#000000" fill-rule="nonzero" fill-opacity="1" /><path clip-path="url(#clip290)" d="M83.6771 646.026 L88.5614 646.026 L88.5614 651.906 L83.6771 651.906 L83.6771 646.026 Z" fill="#000000" fill-rule="nonzero" fill-opacity="1" /><path clip-path="url(#clip290)" d="M108.746 635.494 Q105.413 635.494 103.492 637.276 Q101.594 639.058 101.594 642.183 Q101.594 645.308 103.492 647.091 Q105.413 648.873 108.746 648.873 Q112.08 648.873 114.001 647.091 Q115.922 645.285 115.922 642.183 Q115.922 639.058 114.001 637.276 Q112.103 635.494 108.746 635.494 M104.071 633.503 Q101.061 632.762 99.3715 630.702 Q97.7048 628.642 97.7048 625.679 Q97.7048 621.535 100.645 619.128 Q103.608 616.721 108.746 616.721 Q113.908 616.721 116.848 619.128 Q119.788 621.535 119.788 625.679 Q119.788 628.642 118.098 630.702 Q116.432 632.762 113.445 633.503 Q116.825 634.29 118.7 636.582 Q120.598 638.873 120.598 642.183 Q120.598 647.207 117.52 649.892 Q114.464 652.577 108.746 652.577 Q103.029 652.577 99.9502 649.892 Q96.8947 647.207 96.8947 642.183 Q96.8947 638.873 98.7928 636.582 Q100.691 634.29 104.071 633.503 M102.358 626.119 Q102.358 628.804 104.024 630.309 Q105.714 631.813 108.746 631.813 Q111.756 631.813 113.445 630.309 Q115.158 628.804 115.158 626.119 Q115.158 623.434 113.445 621.929 Q111.756 620.424 108.746 620.424 Q105.714 620.424 104.024 621.929 Q102.358 623.434 102.358 626.119 Z" fill="#000000" fill-rule="nonzero" fill-opacity="1" /><path clip-path="url(#clip290)" d="M54.2328 364.542 L61.8717 364.542 L61.8717 338.176 L53.5616 339.843 L53.5616 335.584 L61.8254 333.917 L66.5013 333.917 L66.5013 364.542 L74.1402 364.542 L74.1402 368.477 L54.2328 368.477 L54.2328 364.542 Z" fill="#000000" fill-rule="nonzero" fill-opacity="1" /><path clip-path="url(#clip290)" d="M83.5845 362.597 L88.4688 362.597 L88.4688 368.477 L83.5845 368.477 L83.5845 362.597 Z" fill="#000000" fill-rule="nonzero" fill-opacity="1" /><path clip-path="url(#clip290)" d="M108.654 336.996 Q105.043 336.996 103.214 340.56 Q101.409 344.102 101.409 351.232 Q101.409 358.338 103.214 361.903 Q105.043 365.445 108.654 365.445 Q112.288 365.445 114.094 361.903 Q115.922 358.338 115.922 351.232 Q115.922 344.102 114.094 340.56 Q112.288 336.996 108.654 336.996 M108.654 333.292 Q114.464 333.292 117.52 337.898 Q120.598 342.482 120.598 351.232 Q120.598 359.959 117.52 364.565 Q114.464 369.148 108.654 369.148 Q102.844 369.148 99.765 364.565 Q96.7095 359.959 96.7095 351.232 Q96.7095 342.482 99.765 337.898 Q102.844 333.292 108.654 333.292 Z" fill="#000000" fill-rule="nonzero" fill-opacity="1" /><path clip-path="url(#clip290)" d="M55.8301 81.1132 L63.4689 81.1132 L63.4689 54.7476 L55.1588 56.4143 L55.1588 52.1551 L63.4226 50.4884 L68.0985 50.4884 L68.0985 81.1132 L75.7374 81.1132 L75.7374 85.0484 L55.8301 85.0484 L55.8301 81.1132 Z" fill="#000000" fill-rule="nonzero" fill-opacity="1" /><path clip-path="url(#clip290)" d="M85.1818 79.1688 L90.066 79.1688 L90.066 85.0484 L85.1818 85.0484 L85.1818 79.1688 Z" fill="#000000" fill-rule="nonzero" fill-opacity="1" /><path clip-path="url(#clip290)" d="M104.279 81.1132 L120.598 81.1132 L120.598 85.0484 L98.6539 85.0484 L98.6539 81.1132 Q101.316 78.3586 105.899 73.729 Q110.506 69.0763 111.686 67.7337 Q113.932 65.2105 114.811 63.4744 Q115.714 61.7152 115.714 60.0254 Q115.714 57.2708 113.77 55.5347 Q111.848 53.7986 108.746 53.7986 Q106.547 53.7986 104.094 54.5625 Q101.663 55.3263 98.8854 56.8773 L98.8854 52.1551 Q101.709 51.0208 104.163 50.4421 Q106.617 49.8634 108.654 49.8634 Q114.024 49.8634 117.219 52.5486 Q120.413 55.2337 120.413 59.7245 Q120.413 61.8541 119.603 63.7754 Q118.816 65.6735 116.709 68.2661 Q116.131 68.9374 113.029 72.1549 Q109.927 75.3494 104.279 81.1132 Z" fill="#000000" fill-rule="nonzero" fill-opacity="1" /><polyline clip-path="url(#clip291)" style="stroke:#009af9; stroke-linecap:round; stroke-linejoin:round; stroke-width:4; stroke-opacity:1; fill:none" points="156.598,1059.77 293.858,1157.55 431.118,510.78 568.378,463.713 705.638,505.633 842.898,643.4 980.157,923.341 1117.42,832.753 1254.68,885.223 1391.94,945.994 1529.2,610.463 1666.46,1161.3 1803.72,1218.56 1940.98,1349.24 2078.24,1384.24 2215.5,1350.7 2352.76,1284.87 "/>
<polyline clip-path="url(#clip291)" style="stroke:#e26f46; stroke-linecap:round; stroke-linejoin:round; stroke-width:4; stroke-opacity:1; fill:none" points="156.598,1059.77 293.858,1170.09 431.118,96.5445 568.378,86.1857 705.638,189.495 842.898,396.244 980.157,731.436 1117.42,649.61 1254.68,743.166 1391.94,840.785 1529.2,416.368 1666.46,954.033 1803.72,1050.13 1940.98,1219.5 2078.24,1279 2215.5,1250.78 2352.76,1181.05 "/>
<path clip-path="url(#clip290)" d="M1850.91 248.629 L2279.55 248.629 L2279.55 93.1086 L1850.91 93.1086  Z" fill="#ffffff" fill-rule="evenodd" fill-opacity="1"/>
<polyline clip-path="url(#clip290)" style="stroke:#000000; stroke-linecap:round; stroke-linejoin:round; stroke-width:4; stroke-opacity:1; fill:none" points="1850.91,248.629 2279.55,248.629 2279.55,93.1086 1850.91,93.1086 1850.91,248.629 "/>
<polyline clip-path="url(#clip290)" style="stroke:#009af9; stroke-linecap:round; stroke-linejoin:round; stroke-width:4; stroke-opacity:1; fill:none" points="1875.31,144.949 2021.72,144.949 "/>
<path clip-path="url(#clip290)" d="M2046.12 151.997 L2046.12 136.303 L2050.38 136.303 L2050.38 151.835 Q2050.38 155.516 2051.82 157.368 Q2053.25 159.196 2056.12 159.196 Q2059.57 159.196 2061.56 156.997 Q2063.58 154.798 2063.58 151.002 L2063.58 136.303 L2067.84 136.303 L2067.84 162.229 L2063.58 162.229 L2063.58 158.247 Q2062.02 160.608 2059.96 161.766 Q2057.93 162.9 2055.22 162.9 Q2050.75 162.9 2048.44 160.122 Q2046.12 157.344 2046.12 151.997 M2056.84 135.678 L2056.84 135.678 Z" fill="#000000" fill-rule="nonzero" fill-opacity="1" /><path clip-path="url(#clip290)" d="M2076.21 126.21 L2086.03 126.21 L2086.03 129.52 L2080.47 129.52 L2080.47 165.168 L2086.03 165.168 L2086.03 168.479 L2076.21 168.479 L2076.21 126.21 Z" fill="#000000" fill-rule="nonzero" fill-opacity="1" /><path clip-path="url(#clip290)" d="M2096.52 158.293 L2104.15 158.293 L2104.15 131.928 L2095.84 133.595 L2095.84 129.335 L2104.11 127.669 L2108.78 127.669 L2108.78 158.293 L2116.42 158.293 L2116.42 162.229 L2096.52 162.229 L2096.52 158.293 Z" fill="#000000" fill-rule="nonzero" fill-opacity="1" /><path clip-path="url(#clip290)" d="M2135.22 126.21 L2135.22 168.479 L2125.4 168.479 L2125.4 165.168 L2130.94 165.168 L2130.94 129.52 L2125.4 129.52 L2125.4 126.21 L2135.22 126.21 Z" fill="#000000" fill-rule="nonzero" fill-opacity="1" /><polyline clip-path="url(#clip290)" style="stroke:#e26f46; stroke-linecap:round; stroke-linejoin:round; stroke-width:4; stroke-opacity:1; fill:none" points="1875.31,196.789 2021.72,196.789 "/>
<path clip-path="url(#clip290)" d="M2046.12 179.509 L2075.36 179.509 L2075.36 183.444 L2063.09 183.444 L2063.09 214.069 L2058.39 214.069 L2058.39 183.444 L2046.12 183.444 L2046.12 179.509 Z" fill="#000000" fill-rule="nonzero" fill-opacity="1" /><path clip-path="url(#clip290)" d="M2087.74 192.124 Q2087.02 191.708 2086.17 191.522 Q2085.33 191.314 2084.32 191.314 Q2080.71 191.314 2078.76 193.675 Q2076.84 196.013 2076.84 200.411 L2076.84 214.069 L2072.56 214.069 L2072.56 188.143 L2076.84 188.143 L2076.84 192.171 Q2078.18 189.809 2080.34 188.675 Q2082.49 187.518 2085.57 187.518 Q2086.01 187.518 2086.54 187.587 Q2087.07 187.634 2087.72 187.749 L2087.74 192.124 Z" fill="#000000" fill-rule="nonzero" fill-opacity="1" /><path clip-path="url(#clip290)" d="M2091.77 203.837 L2091.77 188.143 L2096.03 188.143 L2096.03 203.675 Q2096.03 207.356 2097.46 209.208 Q2098.9 211.036 2101.77 211.036 Q2105.22 211.036 2107.21 208.837 Q2109.22 206.638 2109.22 202.842 L2109.22 188.143 L2113.48 188.143 L2113.48 214.069 L2109.22 214.069 L2109.22 210.087 Q2107.67 212.448 2105.61 213.606 Q2103.58 214.74 2100.87 214.74 Q2096.4 214.74 2094.08 211.962 Q2091.77 209.184 2091.77 203.837 M2102.49 187.518 L2102.49 187.518 Z" fill="#000000" fill-rule="nonzero" fill-opacity="1" /><path clip-path="url(#clip290)" d="M2144.43 200.041 L2144.43 202.124 L2124.85 202.124 Q2125.13 206.522 2127.49 208.837 Q2129.87 211.129 2134.11 211.129 Q2136.56 211.129 2138.85 210.527 Q2141.17 209.925 2143.44 208.721 L2143.44 212.749 Q2141.14 213.721 2138.74 214.231 Q2136.33 214.74 2133.85 214.74 Q2127.65 214.74 2124.02 211.129 Q2120.4 207.518 2120.4 201.36 Q2120.4 194.995 2123.83 191.268 Q2127.28 187.518 2133.11 187.518 Q2138.34 187.518 2141.38 190.897 Q2144.43 194.254 2144.43 200.041 M2140.17 198.791 Q2140.13 195.296 2138.21 193.212 Q2136.31 191.129 2133.16 191.129 Q2129.59 191.129 2127.44 193.143 Q2125.31 195.157 2124.99 198.814 L2140.17 198.791 Z" fill="#000000" fill-rule="nonzero" fill-opacity="1" /><path clip-path="url(#clip290)" d="M2166.05 203.837 L2166.05 188.143 L2170.31 188.143 L2170.31 203.675 Q2170.31 207.356 2171.75 209.208 Q2173.18 211.036 2176.05 211.036 Q2179.5 211.036 2181.49 208.837 Q2183.51 206.638 2183.51 202.842 L2183.51 188.143 L2187.76 188.143 L2187.76 214.069 L2183.51 214.069 L2183.51 210.087 Q2181.95 212.448 2179.89 213.606 Q2177.86 214.74 2175.15 214.74 Q2170.68 214.74 2168.37 211.962 Q2166.05 209.184 2166.05 203.837 M2176.77 187.518 L2176.77 187.518 Z" fill="#000000" fill-rule="nonzero" fill-opacity="1" /><path clip-path="url(#clip290)" d="M2196.14 178.05 L2205.96 178.05 L2205.96 181.36 L2200.4 181.36 L2200.4 217.008 L2205.96 217.008 L2205.96 220.319 L2196.14 220.319 L2196.14 178.05 Z" fill="#000000" fill-rule="nonzero" fill-opacity="1" /><path clip-path="url(#clip290)" d="M2216.45 210.133 L2224.08 210.133 L2224.08 183.768 L2215.77 185.435 L2215.77 181.175 L2224.04 179.509 L2228.71 179.509 L2228.71 210.133 L2236.35 210.133 L2236.35 214.069 L2216.45 214.069 L2216.45 210.133 Z" fill="#000000" fill-rule="nonzero" fill-opacity="1" /><path clip-path="url(#clip290)" d="M2255.15 178.05 L2255.15 220.319 L2245.33 220.319 L2245.33 217.008 L2250.87 217.008 L2250.87 181.36 L2245.33 181.36 L2245.33 178.05 L2255.15 178.05 Z" fill="#000000" fill-rule="nonzero" fill-opacity="1" /></svg>
