<?xml version="1.0" encoding="utf-8"?>
<svg xmlns="http://www.w3.org/2000/svg" xmlns:xlink="http://www.w3.org/1999/xlink" width="600" height="400" viewBox="0 0 2400 1600">
<defs>
  <clipPath id="clip760">
    <rect x="0" y="0" width="2400" height="1600"/>
  </clipPath>
</defs>
<path clip-path="url(#clip760)" d="M0 1600 L2400 1600 L2400 0 L0 0  Z" fill="#ffffff" fill-rule="evenodd" fill-opacity="1"/>
<defs>
  <clipPath id="clip761">
    <rect x="480" y="0" width="1681" height="1600"/>
  </clipPath>
</defs>
<path clip-path="url(#clip760)" d="M156.598 1423.18 L2352.76 1423.18 L2352.76 47.2441 L156.598 47.2441  Z" fill="#ffffff" fill-rule="evenodd" fill-opacity="1"/>
<defs>
  <clipPath id="clip762">
    <rect x="156" y="47" width="2197" height="1377"/>
  </clipPath>
</defs>
<polyline clip-path="url(#clip762)" style="stroke:#000000; stroke-linecap:round; stroke-linejoin:round; stroke-width:2; stroke-opacity:0.1; fill:none" points="156.598,1423.18 156.598,47.2441 "/>
<polyline clip-path="url(#clip762)" style="stroke:#000000; stroke-linecap:round; stroke-linejoin:round; stroke-width:2; stroke-opacity:0.1; fill:none" points="595.83,1423.18 595.83,47.2441 "/>
<polyline clip-path="url(#clip762)" style="stroke:#000000; stroke-linecap:round; stroke-linejoin:round; stroke-width:2; stroke-opacity:0.1; fill:none" points="1035.06,1423.18 1035.06,47.2441 "/>
<polyline clip-path="url(#clip762)" style="stroke:#000000; stroke-linecap:round; stroke-linejoin:round; stroke-width:2; stroke-opacity:0.1; fill:none" points="1474.29,1423.18 1474.29,47.2441 "/>
<polyline clip-path="url(#clip762)" style="stroke:#000000; stroke-linecap:round; stroke-linejoin:round; stroke-width:2; stroke-opacity:0.1; fill:none" points="1913.52,1423.18 1913.52,47.2441 "/>
<polyline clip-path="url(#clip762)" style="stroke:#000000; stroke-linecap:round; stroke-linejoin:round; stroke-width:2; stroke-opacity:0.1; fill:none" points="2352.76,1423.18 2352.76,47.2441 "/>
<polyline clip-path="url(#clip760)" style="stroke:#000000; stroke-linecap:round; stroke-linejoin:round; stroke-width:4; stroke-opacity:1; fill:none" points="156.598,1423.18 2352.76,1423.18 "/>
<polyline clip-path="url(#clip760)" style="stroke:#000000; stroke-linecap:round; stroke-linejoin:round; stroke-width:4; stroke-opacity:1; fill:none" points="156.598,1423.18 156.598,1404.28 "/>
<polyline clip-path="url(#clip760)" style="stroke:#000000; stroke-linecap:round; stroke-linejoin:round; stroke-width:4; stroke-opacity:1; fill:none" points="595.83,1423.18 595.83,1404.28 "/>
<polyline clip-path="url(#clip760)" style="stroke:#000000; stroke-linecap:round; stroke-linejoin:round; stroke-width:4; stroke-opacity:1; fill:none" points="1035.06,1423.18 1035.06,1404.28 "/>
<polyline clip-path="url(#clip760)" style="stroke:#000000; stroke-linecap:round; stroke-linejoin:round; stroke-width:4; stroke-opacity:1; fill:none" points="1474.29,1423.18 1474.29,1404.28 "/>
<polyline clip-path="url(#clip760)" style="stroke:#000000; stroke-linecap:round; stroke-linejoin:round; stroke-width:4; stroke-opacity:1; fill:none" points="1913.52,1423.18 1913.52,1404.28 "/>
<polyline clip-path="url(#clip760)" style="stroke:#000000; stroke-linecap:round; stroke-linejoin:round; stroke-width:4; stroke-opacity:1; fill:none" points="2352.76,1423.18 2352.76,1404.28 "/>
<path clip-path="url(#clip760)" d="M133.983 1454.1 Q130.372 1454.1 128.543 1457.66 Q126.737 1461.2 126.737 1468.33 Q126.737 1475.44 128.543 1479.01 Q130.372 1482.55 133.983 1482.55 Q137.617 1482.55 139.422 1479.01 Q141.251 1475.44 141.251 1468.33 Q141.251 1461.2 139.422 1457.66 Q137.617 1454.1 133.983 1454.1 M133.983 1450.39 Q139.793 1450.39 142.848 1455 Q145.927 1459.58 145.927 1468.33 Q145.927 1477.06 142.848 1481.67 Q139.793 1486.25 133.983 1486.25 Q128.172 1486.25 125.094 1481.67 Q122.038 1477.06 122.038 1468.33 Q122.038 1459.58 125.094 1455 Q128.172 1450.39 133.983 1450.39 Z" fill="#000000" fill-rule="nonzero" fill-opacity="1" /><path clip-path="url(#clip760)" d="M154.145 1479.7 L159.029 1479.7 L159.029 1485.58 L154.145 1485.58 L154.145 1479.7 Z" fill="#000000" fill-rule="nonzero" fill-opacity="1" /><path clip-path="url(#clip760)" d="M179.214 1454.1 Q175.603 1454.1 173.774 1457.66 Q171.969 1461.2 171.969 1468.33 Q171.969 1475.44 173.774 1479.01 Q175.603 1482.55 179.214 1482.55 Q182.848 1482.55 184.654 1479.01 Q186.482 1475.44 186.482 1468.33 Q186.482 1461.2 184.654 1457.66 Q182.848 1454.1 179.214 1454.1 M179.214 1450.39 Q185.024 1450.39 188.08 1455 Q191.158 1459.58 191.158 1468.33 Q191.158 1477.06 188.08 1481.67 Q185.024 1486.25 179.214 1486.25 Q173.404 1486.25 170.325 1481.67 Q167.269 1477.06 167.269 1468.33 Q167.269 1459.58 170.325 1455 Q173.404 1450.39 179.214 1450.39 Z" fill="#000000" fill-rule="nonzero" fill-opacity="1" /><path clip-path="url(#clip760)" d="M574.013 1454.1 Q570.402 1454.1 568.573 1457.66 Q566.767 1461.2 566.767 1468.33 Q566.767 1475.44 568.573 1479.01 Q570.402 1482.55 574.013 1482.55 Q577.647 1482.55 579.453 1479.01 Q581.281 1475.44 581.281 1468.33 Q581.281 1461.2 579.453 1457.66 Q577.647 1454.1 574.013 1454.1 M574.013 1450.39 Q579.823 1450.39 582.878 1455 Q585.957 1459.58 585.957 1468.33 Q585.957 1477.06 582.878 1481.67 Q579.823 1486.25 574.013 1486.25 Q568.203 1486.25 565.124 1481.67 Q562.068 1477.06 562.068 1468.33 Q562.068 1459.58 565.124 1455 Q568.203 1450.39 574.013 1450.39 Z" fill="#000000" fill-rule="nonzero" fill-opacity="1" /><path clip-path="url(#clip760)" d="M594.175 1479.7 L599.059 1479.7 L599.059 1485.58 L594.175 1485.58 L594.175 1479.7 Z" fill="#000000" fill-rule="nonzero" fill-opacity="1" /><path clip-path="url(#clip760)" d="M613.272 1481.64 L629.591 1481.64 L629.591 1485.58 L607.647 1485.58 L607.647 1481.64 Q610.309 1478.89 614.892 1474.26 Q619.499 1469.61 620.679 1468.27 Q622.925 1465.74 623.804 1464.01 Q624.707 1462.25 624.707 1460.56 Q624.707 1457.8 622.762 1456.07 Q620.841 1454.33 617.739 1454.33 Q615.54 1454.33 613.087 1455.09 Q610.656 1455.86 607.878 1457.41 L607.878 1452.69 Q610.702 1451.55 613.156 1450.97 Q615.61 1450.39 617.647 1450.39 Q623.017 1450.39 626.212 1453.08 Q629.406 1455.77 629.406 1460.26 Q629.406 1462.39 628.596 1464.31 Q627.809 1466.2 625.702 1468.8 Q625.124 1469.47 622.022 1472.69 Q618.92 1475.88 613.272 1481.64 Z" fill="#000000" fill-rule="nonzero" fill-opacity="1" /><path clip-path="url(#clip760)" d="M1012.2 1454.1 Q1008.59 1454.1 1006.76 1457.66 Q1004.96 1461.2 1004.96 1468.33 Q1004.96 1475.44 1006.76 1479.01 Q1008.59 1482.55 1012.2 1482.55 Q1015.84 1482.55 1017.64 1479.01 Q1019.47 1475.44 1019.47 1468.33 Q1019.47 1461.2 1017.64 1457.66 Q1015.84 1454.1 1012.2 1454.1 M1012.2 1450.39 Q1018.01 1450.39 1021.07 1455 Q1024.15 1459.58 1024.15 1468.33 Q1024.15 1477.06 1021.07 1481.67 Q1018.01 1486.25 1012.2 1486.25 Q1006.39 1486.25 1003.31 1481.67 Q1000.26 1477.06 1000.26 1468.33 Q1000.26 1459.58 1003.31 1455 Q1006.39 1450.39 1012.2 1450.39 Z" fill="#000000" fill-rule="nonzero" fill-opacity="1" /><path clip-path="url(#clip760)" d="M1032.36 1479.7 L1037.25 1479.7 L1037.25 1485.58 L1032.36 1485.58 L1032.36 1479.7 Z" fill="#000000" fill-rule="nonzero" fill-opacity="1" /><path clip-path="url(#clip760)" d="M1060.28 1455.09 L1048.48 1473.54 L1060.28 1473.54 L1060.28 1455.09 M1059.05 1451.02 L1064.93 1451.02 L1064.93 1473.54 L1069.86 1473.54 L1069.86 1477.43 L1064.93 1477.43 L1064.93 1485.58 L1060.28 1485.58 L1060.28 1477.43 L1044.68 1477.43 L1044.68 1472.92 L1059.05 1451.02 Z" fill="#000000" fill-rule="nonzero" fill-opacity="1" /><path clip-path="url(#clip760)" d="M1451.6 1454.1 Q1447.99 1454.1 1446.16 1457.66 Q1444.35 1461.2 1444.35 1468.33 Q1444.35 1475.44 1446.16 1479.01 Q1447.99 1482.55 1451.6 1482.55 Q1455.23 1482.55 1457.04 1479.01 Q1458.86 1475.44 1458.86 1468.33 Q1458.86 1461.2 1457.04 1457.66 Q1455.23 1454.1 1451.6 1454.1 M1451.6 1450.39 Q1457.41 1450.39 1460.46 1455 Q1463.54 1459.58 1463.54 1468.33 Q1463.54 1477.06 1460.46 1481.67 Q1457.41 1486.25 1451.6 1486.25 Q1445.79 1486.25 1442.71 1481.67 Q1439.65 1477.06 1439.65 1468.33 Q1439.65 1459.58 1442.71 1455 Q1445.79 1450.39 1451.6 1450.39 Z" fill="#000000" fill-rule="nonzero" fill-opacity="1" /><path clip-path="url(#clip760)" d="M1471.76 1479.7 L1476.64 1479.7 L1476.64 1485.58 L1471.76 1485.58 L1471.76 1479.7 Z" fill="#000000" fill-rule="nonzero" fill-opacity="1" /><path clip-path="url(#clip760)" d="M1497.41 1466.44 Q1494.26 1466.44 1492.41 1468.59 Q1490.58 1470.74 1490.58 1474.49 Q1490.58 1478.22 1492.41 1480.39 Q1494.26 1482.55 1497.41 1482.55 Q1500.55 1482.55 1502.38 1480.39 Q1504.23 1478.22 1504.23 1474.49 Q1504.23 1470.74 1502.38 1468.59 Q1500.55 1466.44 1497.41 1466.44 M1506.69 1451.78 L1506.69 1456.04 Q1504.93 1455.21 1503.12 1454.77 Q1501.34 1454.33 1499.58 1454.33 Q1494.95 1454.33 1492.5 1457.45 Q1490.07 1460.58 1489.72 1466.9 Q1491.09 1464.89 1493.15 1463.82 Q1495.21 1462.73 1497.68 1462.73 Q1502.89 1462.73 1505.9 1465.9 Q1508.93 1469.05 1508.93 1474.49 Q1508.93 1479.82 1505.79 1483.03 Q1502.64 1486.25 1497.41 1486.25 Q1491.41 1486.25 1488.24 1481.67 Q1485.07 1477.06 1485.07 1468.33 Q1485.07 1460.14 1488.96 1455.28 Q1492.85 1450.39 1499.4 1450.39 Q1501.16 1450.39 1502.94 1450.74 Q1504.74 1451.09 1506.69 1451.78 Z" fill="#000000" fill-rule="nonzero" fill-opacity="1" /><path clip-path="url(#clip760)" d="M1890.96 1454.1 Q1887.34 1454.1 1885.52 1457.66 Q1883.71 1461.2 1883.71 1468.33 Q1883.71 1475.44 1885.52 1479.01 Q1887.34 1482.55 1890.96 1482.55 Q1894.59 1482.55 1896.39 1479.01 Q1898.22 1475.44 1898.22 1468.33 Q1898.22 1461.2 1896.39 1457.66 Q1894.59 1454.1 1890.96 1454.1 M1890.96 1450.39 Q1896.77 1450.39 1899.82 1455 Q1902.9 1459.58 1902.9 1468.33 Q1902.9 1477.06 1899.82 1481.67 Q1896.77 1486.25 1890.96 1486.25 Q1885.14 1486.25 1882.07 1481.67 Q1879.01 1477.06 1879.01 1468.33 Q1879.01 1459.58 1882.07 1455 Q1885.14 1450.39 1890.96 1450.39 Z" fill="#000000" fill-rule="nonzero" fill-opacity="1" /><path clip-path="url(#clip760)" d="M1911.12 1479.7 L1916 1479.7 L1916 1485.58 L1911.12 1485.58 L1911.12 1479.7 Z" fill="#000000" fill-rule="nonzero" fill-opacity="1" /><path clip-path="url(#clip760)" d="M1936.19 1469.17 Q1932.85 1469.17 1930.93 1470.95 Q1929.03 1472.73 1929.03 1475.86 Q1929.03 1478.98 1930.93 1480.77 Q1932.85 1482.55 1936.19 1482.55 Q1939.52 1482.55 1941.44 1480.77 Q1943.36 1478.96 1943.36 1475.86 Q1943.36 1472.73 1941.44 1470.95 Q1939.54 1469.17 1936.19 1469.17 M1931.51 1467.18 Q1928.5 1466.44 1926.81 1464.38 Q1925.14 1462.32 1925.14 1459.35 Q1925.14 1455.21 1928.08 1452.8 Q1931.05 1450.39 1936.19 1450.39 Q1941.35 1450.39 1944.29 1452.8 Q1947.23 1455.21 1947.23 1459.35 Q1947.23 1462.32 1945.54 1464.38 Q1943.87 1466.44 1940.89 1467.18 Q1944.26 1467.96 1946.14 1470.26 Q1948.04 1472.55 1948.04 1475.86 Q1948.04 1480.88 1944.96 1483.57 Q1941.9 1486.25 1936.19 1486.25 Q1930.47 1486.25 1927.39 1483.57 Q1924.33 1480.88 1924.33 1475.86 Q1924.33 1472.55 1926.23 1470.26 Q1928.13 1467.96 1931.51 1467.18 M1929.8 1459.79 Q1929.8 1462.48 1931.46 1463.98 Q1933.15 1465.49 1936.19 1465.49 Q1939.2 1465.49 1940.89 1463.98 Q1942.6 1462.48 1942.6 1459.79 Q1942.6 1457.11 1940.89 1455.6 Q1939.2 1454.1 1936.19 1454.1 Q1933.15 1454.1 1931.46 1455.6 Q1929.8 1457.11 1929.8 1459.79 Z" fill="#000000" fill-rule="nonzero" fill-opacity="1" /><path clip-path="url(#clip760)" d="M2319.91 1481.64 L2327.55 1481.64 L2327.55 1455.28 L2319.24 1456.95 L2319.24 1452.69 L2327.5 1451.02 L2332.18 1451.02 L2332.18 1481.64 L2339.82 1481.64 L2339.82 1485.58 L2319.91 1485.58 L2319.91 1481.64 Z" fill="#000000" fill-rule="nonzero" fill-opacity="1" /><path clip-path="url(#clip760)" d="M2349.26 1479.7 L2354.14 1479.7 L2354.14 1485.58 L2349.26 1485.58 L2349.26 1479.7 Z" fill="#000000" fill-rule="nonzero" fill-opacity="1" /><path clip-path="url(#clip760)" d="M2374.33 1454.1 Q2370.72 1454.1 2368.89 1457.66 Q2367.08 1461.2 2367.08 1468.33 Q2367.08 1475.44 2368.89 1479.01 Q2370.72 1482.55 2374.33 1482.55 Q2377.96 1482.55 2379.77 1479.01 Q2381.6 1475.44 2381.6 1468.33 Q2381.6 1461.2 2379.77 1457.66 Q2377.96 1454.1 2374.33 1454.1 M2374.33 1450.39 Q2380.14 1450.39 2383.2 1455 Q2386.27 1459.58 2386.27 1468.33 Q2386.27 1477.06 2383.2 1481.67 Q2380.14 1486.25 2374.33 1486.25 Q2368.52 1486.25 2365.44 1481.67 Q2362.39 1477.06 2362.39 1468.33 Q2362.39 1459.58 2365.44 1455 Q2368.52 1450.39 2374.33 1450.39 Z" fill="#000000" fill-rule="nonzero" fill-opacity="1" /><path clip-path="url(#clip760)" d="M1253.74 1522.27 L1253.74 1532.4 L1265.8 1532.4 L1265.8 1536.95 L1253.74 1536.95 L1253.74 1556.3 Q1253.74 1560.66 1254.92 1561.9 Q1256.13 1563.14 1259.79 1563.14 L1265.8 1563.14 L1265.8 1568.04 L1259.79 1568.04 Q1253.01 1568.04 1250.43 1565.53 Q1247.85 1562.98 1247.85 1556.3 L1247.85 1536.95 L1243.55 1536.95 L1243.55 1532.4 L1247.85 1532.4 L1247.85 1522.27 L1253.74 1522.27 Z" fill="#000000" fill-rule="nonzero" fill-opacity="1" /><polyline clip-path="url(#clip762)" style="stroke:#000000; stroke-linecap:round; stroke-linejoin:round; stroke-width:2; stroke-opacity:0.1; fill:none" points="156.598,1233.05 2352.76,1233.05 "/>
<polyline clip-path="url(#clip762)" style="stroke:#000000; stroke-linecap:round; stroke-linejoin:round; stroke-width:2; stroke-opacity:0.1; fill:none" points="156.598,954.281 2352.76,954.281 "/>
<polyline clip-path="url(#clip762)" style="stroke:#000000; stroke-linecap:round; stroke-linejoin:round; stroke-width:2; stroke-opacity:0.1; fill:none" points="156.598,675.512 2352.76,675.512 "/>
<polyline clip-path="url(#clip762)" style="stroke:#000000; stroke-linecap:round; stroke-linejoin:round; stroke-width:2; stroke-opacity:0.1; fill:none" points="156.598,396.742 2352.76,396.742 "/>
<polyline clip-path="url(#clip762)" style="stroke:#000000; stroke-linecap:round; stroke-linejoin:round; stroke-width:2; stroke-opacity:0.1; fill:none" points="156.598,117.973 2352.76,117.973 "/>
<polyline clip-path="url(#clip760)" style="stroke:#000000; stroke-linecap:round; stroke-linejoin:round; stroke-width:4; stroke-opacity:1; fill:none" points="156.598,1423.18 156.598,47.2441 "/>
<polyline clip-path="url(#clip760)" style="stroke:#000000; stroke-linecap:round; stroke-linejoin:round; stroke-width:4; stroke-opacity:1; fill:none" points="156.598,1233.05 175.496,1233.05 "/>
<polyline clip-path="url(#clip760)" style="stroke:#000000; stroke-linecap:round; stroke-linejoin:round; stroke-width:4; stroke-opacity:1; fill:none" points="156.598,954.281 175.496,954.281 "/>
<polyline clip-path="url(#clip760)" style="stroke:#000000; stroke-linecap:round; stroke-linejoin:round; stroke-width:4; stroke-opacity:1; fill:none" points="156.598,675.512 175.496,675.512 "/>
<polyline clip-path="url(#clip760)" style="stroke:#000000; stroke-linecap:round; stroke-linejoin:round; stroke-width:4; stroke-opacity:1; fill:none" points="156.598,396.742 175.496,396.742 "/>
<polyline clip-path="url(#clip760)" style="stroke:#000000; stroke-linecap:round; stroke-linejoin:round; stroke-width:4; stroke-opacity:1; fill:none" points="156.598,117.973 175.496,117.973 "/>
<path clip-path="url(#clip760)" d="M65.0198 1218.85 Q61.4087 1218.85 59.58 1222.41 Q57.7745 1225.96 57.7745 1233.09 Q57.7745 1240.19 59.58 1243.76 Q61.4087 1247.3 65.0198 1247.3 Q68.6541 1247.3 70.4596 1243.76 Q72.2883 1240.19 72.2883 1233.09 Q72.2883 1225.96 70.4596 1222.41 Q68.6541 1218.85 65.0198 1218.85 M65.0198 1215.15 Q70.83 1215.15 73.8855 1219.75 Q76.9642 1224.34 76.9642 1233.09 Q76.9642 1241.81 73.8855 1246.42 Q70.83 1251 65.0198 1251 Q59.2097 1251 56.131 1246.42 Q53.0754 1241.81 53.0754 1233.09 Q53.0754 1224.34 56.131 1219.75 Q59.2097 1215.15 65.0198 1215.15 Z" fill="#000000" fill-rule="nonzero" fill-opacity="1" /><path clip-path="url(#clip760)" d="M85.1818 1244.45 L90.066 1244.45 L90.066 1250.33 L85.1818 1250.33 L85.1818 1244.45 Z" fill="#000000" fill-rule="nonzero" fill-opacity="1" /><path clip-path="url(#clip760)" d="M104.279 1246.4 L120.598 1246.4 L120.598 1250.33 L98.6539 1250.33 L98.6539 1246.4 Q101.316 1243.64 105.899 1239.01 Q110.506 1234.36 111.686 1233.02 Q113.932 1230.49 114.811 1228.76 Q115.714 1227 115.714 1225.31 Q115.714 1222.55 113.77 1220.82 Q111.848 1219.08 108.746 1219.08 Q106.547 1219.08 104.094 1219.84 Q101.663 1220.61 98.8854 1222.16 L98.8854 1217.44 Q101.709 1216.3 104.163 1215.72 Q106.617 1215.15 108.654 1215.15 Q114.024 1215.15 117.219 1217.83 Q120.413 1220.52 120.413 1225.01 Q120.413 1227.14 119.603 1229.06 Q118.816 1230.96 116.709 1233.55 Q116.131 1234.22 113.029 1237.44 Q109.927 1240.63 104.279 1246.4 Z" fill="#000000" fill-rule="nonzero" fill-opacity="1" /><path clip-path="url(#clip760)" d="M62.9365 940.08 Q59.3254 940.08 57.4967 943.645 Q55.6912 947.187 55.6912 954.316 Q55.6912 961.423 57.4967 964.987 Q59.3254 968.529 62.9365 968.529 Q66.5707 968.529 68.3763 964.987 Q70.205 961.423 70.205 954.316 Q70.205 947.187 68.3763 943.645 Q66.5707 940.08 62.9365 940.08 M62.9365 936.376 Q68.7467 936.376 71.8022 940.983 Q74.8809 945.566 74.8809 954.316 Q74.8809 963.043 71.8022 967.649 Q68.7467 972.233 62.9365 972.233 Q57.1264 972.233 54.0477 967.649 Q50.9921 963.043 50.9921 954.316 Q50.9921 945.566 54.0477 940.983 Q57.1264 936.376 62.9365 936.376 Z" fill="#000000" fill-rule="nonzero" fill-opacity="1" /><path clip-path="url(#clip760)" d="M83.0984 965.682 L87.9827 965.682 L87.9827 971.561 L83.0984 971.561 L83.0984 965.682 Z" fill="#000000" fill-rule="nonzero" fill-opacity="1" /><path clip-path="url(#clip760)" d="M111.015 941.076 L99.2095 959.524 L111.015 959.524 L111.015 941.076 M109.788 937.001 L115.668 937.001 L115.668 959.524 L120.598 959.524 L120.598 963.413 L115.668 963.413 L115.668 971.561 L111.015 971.561 L111.015 963.413 L95.4132 963.413 L95.4132 958.899 L109.788 937.001 Z" fill="#000000" fill-rule="nonzero" fill-opacity="1" /><path clip-path="url(#clip760)" d="M63.2606 661.311 Q59.6495 661.311 57.8208 664.875 Q56.0152 668.417 56.0152 675.547 Q56.0152 682.653 57.8208 686.218 Q59.6495 689.76 63.2606 689.76 Q66.8948 689.76 68.7004 686.218 Q70.5291 682.653 70.5291 675.547 Q70.5291 668.417 68.7004 664.875 Q66.8948 661.311 63.2606 661.311 M63.2606 657.607 Q69.0707 657.607 72.1263 662.213 Q75.205 666.797 75.205 675.547 Q75.205 684.273 72.1263 688.88 Q69.0707 693.463 63.2606 693.463 Q57.4504 693.463 54.3717 688.88 Q51.3162 684.273 51.3162 675.547 Q51.3162 666.797 54.3717 662.213 Q57.4504 657.607 63.2606 657.607 Z" fill="#000000" fill-rule="nonzero" fill-opacity="1" /><path clip-path="url(#clip760)" d="M83.4225 686.912 L88.3067 686.912 L88.3067 692.792 L83.4225 692.792 L83.4225 686.912 Z" fill="#000000" fill-rule="nonzero" fill-opacity="1" /><path clip-path="url(#clip760)" d="M109.071 673.649 Q105.922 673.649 104.071 675.801 Q102.242 677.954 102.242 681.704 Q102.242 685.431 104.071 687.607 Q105.922 689.76 109.071 689.76 Q112.219 689.76 114.047 687.607 Q115.899 685.431 115.899 681.704 Q115.899 677.954 114.047 675.801 Q112.219 673.649 109.071 673.649 M118.353 658.996 L118.353 663.255 Q116.594 662.422 114.788 661.982 Q113.006 661.542 111.246 661.542 Q106.617 661.542 104.163 664.667 Q101.733 667.792 101.385 674.111 Q102.751 672.098 104.811 671.033 Q106.871 669.945 109.348 669.945 Q114.557 669.945 117.566 673.116 Q120.598 676.264 120.598 681.704 Q120.598 687.028 117.45 690.246 Q114.302 693.463 109.071 693.463 Q103.075 693.463 99.9039 688.88 Q96.7326 684.273 96.7326 675.547 Q96.7326 667.352 100.621 662.491 Q104.51 657.607 111.061 657.607 Q112.82 657.607 114.603 657.954 Q116.408 658.301 118.353 658.996 Z" fill="#000000" fill-rule="nonzero" fill-opacity="1" /><path clip-path="url(#clip760)" d="M63.5152 382.541 Q59.9041 382.541 58.0754 386.106 Q56.2699 389.648 56.2699 396.777 Q56.2699 403.884 58.0754 407.448 Q59.9041 410.99 63.5152 410.99 Q67.1494 410.99 68.955 407.448 Q70.7837 403.884 70.7837 396.777 Q70.7837 389.648 68.955 386.106 Q67.1494 382.541 63.5152 382.541 M63.5152 378.837 Q69.3254 378.837 72.3809 383.444 Q75.4596 388.027 75.4596 396.777 Q75.4596 405.504 72.3809 410.11 Q69.3254 414.694 63.5152 414.694 Q57.7051 414.694 54.6264 410.11 Q51.5708 405.504 51.5708 396.777 Q51.5708 388.027 54.6264 383.444 Q57.7051 378.837 63.5152 378.837 Z" fill="#000000" fill-rule="nonzero" fill-opacity="1" /><path clip-path="url(#clip760)" d="M83.6771 408.143 L88.5614 408.143 L88.5614 414.022 L83.6771 414.022 L83.6771 408.143 Z" fill="#000000" fill-rule="nonzero" fill-opacity="1" /><path clip-path="url(#clip760)" d="M108.746 397.611 Q105.413 397.611 103.492 399.393 Q101.594 401.175 101.594 404.3 Q101.594 407.425 103.492 409.208 Q105.413 410.99 108.746 410.99 Q112.08 410.99 114.001 409.208 Q115.922 407.402 115.922 404.3 Q115.922 401.175 114.001 399.393 Q112.103 397.611 108.746 397.611 M104.071 395.62 Q101.061 394.879 99.3715 392.819 Q97.7048 390.759 97.7048 387.796 Q97.7048 383.652 100.645 381.245 Q103.608 378.837 108.746 378.837 Q113.908 378.837 116.848 381.245 Q119.788 383.652 119.788 387.796 Q119.788 390.759 118.098 392.819 Q116.432 394.879 113.445 395.62 Q116.825 396.407 118.7 398.698 Q120.598 400.99 120.598 404.3 Q120.598 409.323 117.52 412.009 Q114.464 414.694 108.746 414.694 Q103.029 414.694 99.9502 412.009 Q96.8947 409.323 96.8947 404.3 Q96.8947 400.99 98.7928 398.698 Q100.691 396.407 104.071 395.62 M102.358 388.236 Q102.358 390.921 104.024 392.425 Q105.714 393.93 108.746 393.93 Q111.756 393.93 113.445 392.425 Q115.158 390.921 115.158 388.236 Q115.158 385.55 113.445 384.046 Q111.756 382.541 108.746 382.541 Q105.714 382.541 104.024 384.046 Q102.358 385.55 102.358 388.236 Z" fill="#000000" fill-rule="nonzero" fill-opacity="1" /><path clip-path="url(#clip760)" d="M54.2328 131.318 L61.8717 131.318 L61.8717 104.952 L53.5616 106.619 L53.5616 102.36 L61.8254 100.693 L66.5013 100.693 L66.5013 131.318 L74.1402 131.318 L74.1402 135.253 L54.2328 135.253 L54.2328 131.318 Z" fill="#000000" fill-rule="nonzero" fill-opacity="1" /><path clip-path="url(#clip760)" d="M83.5845 129.373 L88.4688 129.373 L88.4688 135.253 L83.5845 135.253 L83.5845 129.373 Z" fill="#000000" fill-rule="nonzero" fill-opacity="1" /><path clip-path="url(#clip760)" d="M108.654 103.772 Q105.043 103.772 103.214 107.336 Q101.409 110.878 101.409 118.008 Q101.409 125.114 103.214 128.679 Q105.043 132.221 108.654 132.221 Q112.288 132.221 114.094 128.679 Q115.922 125.114 115.922 118.008 Q115.922 110.878 114.094 107.336 Q112.288 103.772 108.654 103.772 M108.654 100.068 Q114.464 100.068 117.52 104.674 Q120.598 109.258 120.598 118.008 Q120.598 126.734 117.52 131.341 Q114.464 135.924 108.654 135.924 Q102.844 135.924 99.765 131.341 Q96.7095 126.734 96.7095 118.008 Q96.7095 109.258 99.765 104.674 Q102.844 100.068 108.654 100.068 Z" fill="#000000" fill-rule="nonzero" fill-opacity="1" /><polyline clip-path="url(#clip762)" style="stroke:#009af9; stroke-linecap:round; stroke-linejoin:round; stroke-width:4; stroke-opacity:1; fill:none" points="156.598,659.58 157.382,640.414 158.208,621.39 159.138,601.763 160.185,600.542 161.362,613.842 162.686,630.859 164.176,643.862 165.852,635.97 167.737,648.748 169.858,633.084 172.245,697.582 174.929,668.872 177.949,662.208 181.347,669.587 185.169,652.515 189.47,645.511 194.307,610.127 199.75,632.191 205.872,707.279 212.76,710.115 220.509,701.071 229.227,678.132 239.035,638.802 250.068,655.548 262.48,655.812 276.444,594.42 292.154,556.555 309.827,528.887 329.71,514.007 352.077,742.549 377.241,686.406 405.55,728.347 437.398,751.191 473.227,694.523 513.534,573.97 558.88,443.035 609.894,447.806 660.954,446.889 718.396,516.618 769.223,623.719 826.403,638.471 888.98,677.314 957.388,666.024 1033.25,579.249 1118.59,653.13 1186.88,458.564 1263.71,381.241 1332.4,279.11 1409.68,488.434 1470.99,610.594 1539.97,705.323 1611.9,662.701 1692.82,507.714 1783.86,374.596 1871.77,467.266 1934.98,678.188 2004.53,673.095 2082.77,744.692 2161.3,614.737 2249.65,452.483 2344.62,589.518 2352.76,620.61 "/>
<polyline clip-path="url(#clip762)" style="stroke:#e26f46; stroke-linecap:round; stroke-linejoin:round; stroke-width:4; stroke-opacity:1; fill:none" points="156.598,639.043 157.382,619.415 158.208,599.932 159.138,579.832 160.185,578.582 161.362,592.203 162.686,609.63 164.176,622.946 165.852,614.864 167.737,627.95 169.858,611.908 172.245,677.961 174.929,648.558 177.949,641.735 181.347,649.291 185.169,631.807 189.47,624.634 194.307,588.398 199.75,610.993 205.872,687.892 212.76,690.795 220.509,681.533 229.227,658.041 239.035,617.764 250.068,634.914 262.48,635.184 276.444,572.313 292.154,533.535 309.827,505.201 329.71,489.962 352.077,724.012 377.241,666.515 405.55,709.467 437.398,732.861 473.227,674.828 513.534,551.37 558.88,417.279 609.894,422.166 660.954,421.226 718.396,492.635 769.223,602.318 826.403,617.425 888.98,657.204 957.388,645.642 1033.25,556.776 1118.59,632.438 1186.88,433.183 1263.71,353.996 1332.4,249.405 1409.68,463.772 1470.99,588.876 1539.97,685.888 1611.9,642.239 1692.82,483.517 1783.86,347.191 1871.77,442.094 1934.98,658.099 2004.53,652.883 2082.77,726.206 2161.3,593.12 2249.65,426.955 2344.62,567.293 2352.76,599.134 "/>
<polyline clip-path="url(#clip762)" style="stroke:#3da44d; stroke-linecap:round; stroke-linejoin:round; stroke-width:4; stroke-opacity:1; fill:none" points="156.598,610.367 157.382,590.094 158.208,569.972 159.138,549.211 160.185,547.92 161.362,561.988 162.686,579.988 164.176,593.741 165.852,585.393 167.737,598.91 169.858,582.341 172.245,650.563 174.929,620.195 177.949,613.147 181.347,620.952 185.169,602.894 189.47,595.485 194.307,558.059 199.75,581.396 205.872,660.821 212.76,663.82 220.509,654.254 229.227,629.99 239.035,588.389 250.068,606.102 262.48,606.382 276.444,541.445 292.154,501.392 309.827,472.127 329.71,456.388 352.077,698.127 377.241,638.742 405.55,683.105 437.398,707.268 473.227,647.328 513.534,519.813 558.88,381.317 609.894,386.364 660.954,385.394 718.396,459.149 769.223,572.436 826.403,588.039 888.98,629.125 957.388,617.183 1033.25,525.397 1118.59,603.545 1186.88,397.743 1263.71,315.955 1332.4,207.927 1409.68,429.338 1470.99,558.552 1539.97,658.751 1611.9,613.669 1692.82,449.732 1783.86,308.926 1871.77,406.947 1934.98,630.049 2004.53,624.662 2082.77,700.393 2161.3,562.935 2249.65,391.311 2344.62,536.26 2352.76,569.147 "/>
<polyline clip-path="url(#clip762)" style="stroke:#c271d2; stroke-linecap:round; stroke-linejoin:round; stroke-width:4; stroke-opacity:1; fill:none" points="156.598,986.926 157.382,975.121 158.208,963.404 159.138,951.316 160.185,950.564 161.362,958.756 162.686,969.237 164.176,977.245 165.852,972.384 167.737,980.254 169.858,970.606 172.245,1010.33 174.929,992.648 177.949,988.544 181.347,993.089 185.169,982.574 189.47,978.26 194.307,956.468 199.75,970.056 205.872,1016.3 212.76,1018.05 220.509,1012.48 229.227,998.351 239.035,974.128 250.068,984.442 262.48,984.605 276.444,946.794 292.154,923.472 309.827,906.432 329.71,897.267 352.077,1038.03 377.241,1003.45 405.55,1029.28 437.398,1043.35 473.227,1008.45 513.534,934.198 558.88,853.555 609.894,856.494 660.954,855.929 718.396,898.875 769.223,964.839 826.403,973.925 888.98,997.848 957.388,990.894 1033.25,937.45 1118.59,982.953 1186.88,863.12 1263.71,815.497 1332.4,752.594 1409.68,881.517 1470.99,956.755 1539.97,1015.1 1611.9,988.848 1692.82,893.391 1783.86,811.404 1871.77,868.479 1934.98,998.386 2004.53,995.249 2082.77,1039.35 2161.3,959.307 2249.65,859.375 2344.62,943.775 2352.76,962.924 "/>
<polyline clip-path="url(#clip762)" style="stroke:#ac8d18; stroke-linecap:round; stroke-linejoin:round; stroke-width:4; stroke-opacity:1; fill:none" points="156.598,1368.87 157.382,1365.66 158.208,1362.47 159.138,1359.17 160.185,1358.97 161.362,1361.2 162.686,1364.05 164.176,1366.24 165.852,1364.91 167.737,1367.06 169.858,1364.43 172.245,1375.25 174.929,1370.43 177.949,1369.31 181.347,1370.55 185.169,1367.69 189.47,1366.51 194.307,1360.58 199.75,1364.28 205.872,1376.87 212.76,1377.35 220.509,1375.83 229.227,1371.98 239.035,1365.39 250.068,1368.2 262.48,1368.24 276.444,1357.94 292.154,1351.59 309.827,1346.95 329.71,1344.45 352.077,1382.79 377.241,1373.37 405.55,1380.41 437.398,1384.24 473.227,1374.73 513.534,1354.51 558.88,1332.55 609.894,1333.35 660.954,1333.2 718.396,1344.89 769.223,1362.86 826.403,1365.33 888.98,1371.85 957.388,1369.95 1033.25,1355.4 1118.59,1367.79 1186.88,1335.16 1263.71,1322.19 1332.4,1305.06 1409.68,1340.17 1470.99,1360.66 1539.97,1376.54 1611.9,1369.4 1692.82,1343.4 1783.86,1321.07 1871.77,1336.61 1934.98,1371.99 2004.53,1371.14 2082.77,1383.15 2161.3,1361.35 2249.65,1334.14 2344.62,1357.12 2352.76,1362.34 "/>
<polyline clip-path="url(#clip762)" style="stroke:#00a9ad; stroke-linecap:round; stroke-linejoin:round; stroke-width:4; stroke-opacity:1; fill:none" points="156.598,733.226 157.382,715.715 158.208,698.335 159.138,680.404 160.185,679.289 161.362,691.44 162.686,706.987 164.176,718.866 165.852,711.655 167.737,723.329 169.858,709.019 172.245,767.943 174.929,741.714 177.949,735.627 181.347,742.368 185.169,726.771 189.47,720.372 194.307,688.046 199.75,708.203 205.872,776.803 212.76,779.393 220.509,771.131 229.227,750.174 239.035,714.243 250.068,729.542 262.48,729.783 276.444,673.696 292.154,639.103 309.827,613.826 329.71,600.232 352.077,809.025 377.241,757.733 405.55,796.05 437.398,816.919 473.227,765.149 513.534,655.013 558.88,535.392 609.894,539.752 660.954,538.914 718.396,602.617 769.223,700.464 826.403,713.941 888.98,749.427 957.388,739.112 1033.25,659.836 1118.59,727.333 1186.88,549.58 1263.71,478.938 1332.4,385.633 1409.68,576.868 1470.99,688.472 1539.97,775.015 1611.9,736.077 1692.82,594.483 1783.86,472.867 1871.77,557.53 1934.98,750.225 2004.53,745.572 2082.77,810.982 2161.3,692.258 2249.65,544.024 2344.62,669.218 2352.76,697.623 "/>
<polyline clip-path="url(#clip762)" style="stroke:#ed5d92; stroke-linecap:round; stroke-linejoin:round; stroke-width:4; stroke-opacity:1; fill:none" points="156.598,1231.19 157.382,1224.88 158.208,1218.61 159.138,1212.15 160.185,1211.75 161.362,1216.13 162.686,1221.73 164.176,1226.01 165.852,1223.41 167.737,1227.62 169.858,1222.46 172.245,1243.7 174.929,1234.25 177.949,1232.05 181.347,1234.48 185.169,1228.86 189.47,1226.56 194.307,1214.9 199.75,1222.17 205.872,1246.9 212.76,1247.83 220.509,1244.85 229.227,1237.3 239.035,1224.35 250.068,1229.86 262.48,1229.95 276.444,1209.73 292.154,1197.26 309.827,1188.15 329.71,1183.25 352.077,1258.51 377.241,1240.02 405.55,1253.83 437.398,1261.35 473.227,1242.69 513.534,1203 558.88,1159.88 609.894,1161.45 660.954,1161.15 718.396,1184.11 769.223,1219.38 826.403,1224.24 888.98,1237.03 957.388,1233.31 1033.25,1204.74 1118.59,1229.06 1186.88,1165 1263.71,1139.53 1332.4,1105.9 1409.68,1174.83 1470.99,1215.06 1539.97,1246.25 1611.9,1232.22 1692.82,1181.18 1783.86,1137.35 1871.77,1167.86 1934.98,1237.32 2004.53,1235.64 2082.77,1259.21 2161.3,1216.42 2249.65,1162.99 2344.62,1208.12 2352.76,1218.36 "/>
<polyline clip-path="url(#clip762)" style="stroke:#c68125; stroke-linecap:round; stroke-linejoin:round; stroke-width:4; stroke-opacity:1; fill:none" points="156.598,526.201 157.382,504.035 158.208,482.034 159.138,459.335 160.185,457.923 161.362,473.305 162.686,492.985 164.176,508.023 165.852,498.895 167.737,513.674 169.858,495.558 172.245,570.15 174.929,536.947 177.949,529.241 181.347,537.774 185.169,518.03 189.47,509.929 194.307,469.008 199.75,494.525 205.872,581.365 212.76,584.644 220.509,574.185 229.227,547.656 239.035,502.171 250.068,521.538 262.48,521.843 276.444,450.843 292.154,407.051 309.827,375.054 329.71,357.845 352.077,622.155 377.241,557.225 405.55,605.73 437.398,632.149 473.227,566.613 513.534,427.192 558.88,275.765 609.894,281.283 660.954,280.223 718.396,360.864 769.223,484.728 826.403,501.788 888.98,546.71 957.388,533.653 1033.25,433.297 1118.59,518.742 1186.88,293.725 1263.71,204.3 1332.4,86.1857 1409.68,328.269 1470.99,469.548 1539.97,579.103 1611.9,529.811 1692.82,350.567 1783.86,196.615 1871.77,303.788 1934.98,547.72 2004.53,541.831 2082.77,624.633 2161.3,474.34 2249.65,286.692 2344.62,445.174 2352.76,481.132 "/>
<path clip-path="url(#clip760)" d="M1952.25 559.669 L2279.55 559.669 L2279.55 93.1086 L1952.25 93.1086  Z" fill="#ffffff" fill-rule="evenodd" fill-opacity="1"/>
<polyline clip-path="url(#clip760)" style="stroke:#000000; stroke-linecap:round; stroke-linejoin:round; stroke-width:4; stroke-opacity:1; fill:none" points="1952.25,559.669 2279.55,559.669 2279.55,93.1086 1952.25,93.1086 1952.25,559.669 "/>
<polyline clip-path="url(#clip760)" style="stroke:#009af9; stroke-linecap:round; stroke-linejoin:round; stroke-width:4; stroke-opacity:1; fill:none" points="1976.65,144.949 2123.06,144.949 "/>
<path clip-path="url(#clip760)" d="M2147.46 151.997 L2147.46 136.303 L2151.72 136.303 L2151.72 151.835 Q2151.72 155.516 2153.16 157.368 Q2154.59 159.196 2157.46 159.196 Q2160.91 159.196 2162.9 156.997 Q2164.92 154.798 2164.92 151.002 L2164.92 136.303 L2169.18 136.303 L2169.18 162.229 L2164.92 162.229 L2164.92 158.247 Q2163.37 160.608 2161.31 161.766 Q2159.27 162.9 2156.56 162.9 Q2152.09 162.9 2149.78 160.122 Q2147.46 157.344 2147.46 151.997 M2158.18 135.678 L2158.18 135.678 Z" fill="#000000" fill-rule="nonzero" fill-opacity="1" /><path clip-path="url(#clip760)" d="M2179.36 158.293 L2187 158.293 L2187 131.928 L2178.69 133.595 L2178.69 129.335 L2186.95 127.669 L2191.63 127.669 L2191.63 158.293 L2199.27 158.293 L2199.27 162.229 L2179.36 162.229 L2179.36 158.293 Z" fill="#000000" fill-rule="nonzero" fill-opacity="1" /><path clip-path="url(#clip760)" d="M2218.34 126.257 Q2215.24 131.581 2213.74 136.789 Q2212.23 141.997 2212.23 147.344 Q2212.23 152.692 2213.74 157.946 Q2215.26 163.178 2218.34 168.479 L2214.64 168.479 Q2211.17 163.039 2209.43 157.784 Q2207.72 152.53 2207.72 147.344 Q2207.72 142.182 2209.43 136.951 Q2211.14 131.72 2214.64 126.257 L2218.34 126.257 Z" fill="#000000" fill-rule="nonzero" fill-opacity="1" /><path clip-path="url(#clip760)" d="M2230.82 128.942 L2230.82 136.303 L2239.59 136.303 L2239.59 139.613 L2230.82 139.613 L2230.82 153.687 Q2230.82 156.858 2231.68 157.761 Q2232.56 158.664 2235.22 158.664 L2239.59 158.664 L2239.59 162.229 L2235.22 162.229 Q2230.29 162.229 2228.41 160.4 Q2226.54 158.548 2226.54 153.687 L2226.54 139.613 L2223.41 139.613 L2223.41 136.303 L2226.54 136.303 L2226.54 128.942 L2230.82 128.942 Z" fill="#000000" fill-rule="nonzero" fill-opacity="1" /><path clip-path="url(#clip760)" d="M2244.52 126.257 L2248.23 126.257 Q2251.7 131.72 2253.41 136.951 Q2255.15 142.182 2255.15 147.344 Q2255.15 152.53 2253.41 157.784 Q2251.7 163.039 2248.23 168.479 L2244.52 168.479 Q2247.6 163.178 2249.11 157.946 Q2250.64 152.692 2250.64 147.344 Q2250.64 141.997 2249.11 136.789 Q2247.6 131.581 2244.52 126.257 Z" fill="#000000" fill-rule="nonzero" fill-opacity="1" /><polyline clip-path="url(#clip760)" style="stroke:#e26f46; stroke-linecap:round; stroke-linejoin:round; stroke-width:4; stroke-opacity:1; fill:none" points="1976.65,196.789 2123.06,196.789 "/>
<path clip-path="url(#clip760)" d="M2147.46 203.837 L2147.46 188.143 L2151.72 188.143 L2151.72 203.675 Q2151.72 207.356 2153.16 209.208 Q2154.59 211.036 2157.46 211.036 Q2160.91 211.036 2162.9 208.837 Q2164.92 206.638 2164.92 202.842 L2164.92 188.143 L2169.18 188.143 L2169.18 214.069 L2164.92 214.069 L2164.92 210.087 Q2163.37 212.448 2161.31 213.606 Q2159.27 214.74 2156.56 214.74 Q2152.09 214.74 2149.78 211.962 Q2147.46 209.184 2147.46 203.837 M2158.18 187.518 L2158.18 187.518 Z" fill="#000000" fill-rule="nonzero" fill-opacity="1" /><path clip-path="url(#clip760)" d="M2182.58 210.133 L2198.9 210.133 L2198.9 214.069 L2176.95 214.069 L2176.95 210.133 Q2179.62 207.379 2184.2 202.749 Q2188.81 198.096 2189.99 196.754 Q2192.23 194.231 2193.11 192.495 Q2194.01 190.735 2194.01 189.046 Q2194.01 186.291 2192.07 184.555 Q2190.15 182.819 2187.05 182.819 Q2184.85 182.819 2182.39 183.583 Q2179.96 184.347 2177.19 185.897 L2177.19 181.175 Q2180.01 180.041 2182.46 179.462 Q2184.92 178.884 2186.95 178.884 Q2192.33 178.884 2195.52 181.569 Q2198.71 184.254 2198.71 188.745 Q2198.71 190.874 2197.9 192.796 Q2197.12 194.694 2195.01 197.286 Q2194.43 197.958 2191.33 201.175 Q2188.23 204.37 2182.58 210.133 Z" fill="#000000" fill-rule="nonzero" fill-opacity="1" /><path clip-path="url(#clip760)" d="M2218.34 178.097 Q2215.24 183.421 2213.74 188.629 Q2212.23 193.837 2212.23 199.184 Q2212.23 204.532 2213.74 209.786 Q2215.26 215.018 2218.34 220.319 L2214.64 220.319 Q2211.17 214.879 2209.43 209.624 Q2207.72 204.37 2207.72 199.184 Q2207.72 194.022 2209.43 188.791 Q2211.14 183.56 2214.64 178.097 L2218.34 178.097 Z" fill="#000000" fill-rule="nonzero" fill-opacity="1" /><path clip-path="url(#clip760)" d="M2230.82 180.782 L2230.82 188.143 L2239.59 188.143 L2239.59 191.453 L2230.82 191.453 L2230.82 205.527 Q2230.82 208.698 2231.68 209.601 Q2232.56 210.504 2235.22 210.504 L2239.59 210.504 L2239.59 214.069 L2235.22 214.069 Q2230.29 214.069 2228.41 212.24 Q2226.54 210.388 2226.54 205.527 L2226.54 191.453 L2223.41 191.453 L2223.41 188.143 L2226.54 188.143 L2226.54 180.782 L2230.82 180.782 Z" fill="#000000" fill-rule="nonzero" fill-opacity="1" /><path clip-path="url(#clip760)" d="M2244.52 178.097 L2248.23 178.097 Q2251.7 183.56 2253.41 188.791 Q2255.15 194.022 2255.15 199.184 Q2255.15 204.37 2253.41 209.624 Q2251.7 214.879 2248.23 220.319 L2244.52 220.319 Q2247.6 215.018 2249.11 209.786 Q2250.64 204.532 2250.64 199.184 Q2250.64 193.837 2249.11 188.629 Q2247.6 183.421 2244.52 178.097 Z" fill="#000000" fill-rule="nonzero" fill-opacity="1" /><polyline clip-path="url(#clip760)" style="stroke:#3da44d; stroke-linecap:round; stroke-linejoin:round; stroke-width:4; stroke-opacity:1; fill:none" points="1976.65,248.629 2123.06,248.629 "/>
<path clip-path="url(#clip760)" d="M2147.46 255.677 L2147.46 239.983 L2151.72 239.983 L2151.72 255.515 Q2151.72 259.196 2153.16 261.048 Q2154.59 262.876 2157.46 262.876 Q2160.91 262.876 2162.9 260.677 Q2164.92 258.478 2164.92 254.682 L2164.92 239.983 L2169.18 239.983 L2169.18 265.909 L2164.92 265.909 L2164.92 261.927 Q2163.37 264.288 2161.31 265.446 Q2159.27 266.58 2156.56 266.58 Q2152.09 266.58 2149.78 263.802 Q2147.46 261.024 2147.46 255.677 M2158.18 239.358 L2158.18 239.358 Z" fill="#000000" fill-rule="nonzero" fill-opacity="1" /><path clip-path="url(#clip760)" d="M2192.72 247.274 Q2196.08 247.992 2197.95 250.261 Q2199.85 252.529 2199.85 255.862 Q2199.85 260.978 2196.33 263.779 Q2192.81 266.58 2186.33 266.58 Q2184.15 266.58 2181.84 266.14 Q2179.55 265.723 2177.09 264.867 L2177.09 260.353 Q2179.04 261.487 2181.35 262.066 Q2183.67 262.645 2186.19 262.645 Q2190.59 262.645 2192.88 260.909 Q2195.2 259.173 2195.2 255.862 Q2195.2 252.807 2193.04 251.094 Q2190.91 249.358 2187.09 249.358 L2183.07 249.358 L2183.07 245.515 L2187.28 245.515 Q2190.73 245.515 2192.56 244.149 Q2194.39 242.761 2194.39 240.168 Q2194.39 237.506 2192.49 236.094 Q2190.61 234.659 2187.09 234.659 Q2185.17 234.659 2182.97 235.075 Q2180.77 235.492 2178.14 236.372 L2178.14 232.205 Q2180.8 231.464 2183.11 231.094 Q2185.45 230.724 2187.51 230.724 Q2192.83 230.724 2195.94 233.154 Q2199.04 235.562 2199.04 239.682 Q2199.04 242.552 2197.39 244.543 Q2195.75 246.511 2192.72 247.274 Z" fill="#000000" fill-rule="nonzero" fill-opacity="1" /><path clip-path="url(#clip760)" d="M2218.34 229.937 Q2215.24 235.261 2213.74 240.469 Q2212.23 245.677 2212.23 251.024 Q2212.23 256.372 2213.74 261.626 Q2215.26 266.858 2218.34 272.159 L2214.64 272.159 Q2211.17 266.719 2209.43 261.464 Q2207.72 256.21 2207.72 251.024 Q2207.72 245.862 2209.43 240.631 Q2211.14 235.4 2214.64 229.937 L2218.34 229.937 Z" fill="#000000" fill-rule="nonzero" fill-opacity="1" /><path clip-path="url(#clip760)" d="M2230.82 232.622 L2230.82 239.983 L2239.59 239.983 L2239.59 243.293 L2230.82 243.293 L2230.82 257.367 Q2230.82 260.538 2231.68 261.441 Q2232.56 262.344 2235.22 262.344 L2239.59 262.344 L2239.59 265.909 L2235.22 265.909 Q2230.29 265.909 2228.41 264.08 Q2226.54 262.228 2226.54 257.367 L2226.54 243.293 L2223.41 243.293 L2223.41 239.983 L2226.54 239.983 L2226.54 232.622 L2230.82 232.622 Z" fill="#000000" fill-rule="nonzero" fill-opacity="1" /><path clip-path="url(#clip760)" d="M2244.52 229.937 L2248.23 229.937 Q2251.7 235.4 2253.41 240.631 Q2255.15 245.862 2255.15 251.024 Q2255.15 256.21 2253.41 261.464 Q2251.7 266.719 2248.23 272.159 L2244.52 272.159 Q2247.6 266.858 2249.11 261.626 Q2250.64 256.372 2250.64 251.024 Q2250.64 245.677 2249.11 240.469 Q2247.6 235.261 2244.52 229.937 Z" fill="#000000" fill-rule="nonzero" fill-opacity="1" /><polyline clip-path="url(#clip760)" style="stroke:#c271d2; stroke-linecap:round; stroke-linejoin:round; stroke-width:4; stroke-opacity:1; fill:none" points="1976.65,300.469 2123.06,300.469 "/>
<path clip-path="url(#clip760)" d="M2147.46 307.517 L2147.46 291.823 L2151.72 291.823 L2151.72 307.355 Q2151.72 311.036 2153.16 312.888 Q2154.59 314.716 2157.46 314.716 Q2160.91 314.716 2162.9 312.517 Q2164.92 310.318 2164.92 306.522 L2164.92 291.823 L2169.18 291.823 L2169.18 317.749 L2164.92 317.749 L2164.92 313.767 Q2163.37 316.128 2161.31 317.286 Q2159.27 318.42 2156.56 318.42 Q2152.09 318.42 2149.78 315.642 Q2147.46 312.864 2147.46 307.517 M2158.18 291.198 L2158.18 291.198 Z" fill="#000000" fill-rule="nonzero" fill-opacity="1" /><path clip-path="url(#clip760)" d="M2191.4 287.263 L2179.59 305.712 L2191.4 305.712 L2191.4 287.263 M2190.17 283.189 L2196.05 283.189 L2196.05 305.712 L2200.98 305.712 L2200.98 309.601 L2196.05 309.601 L2196.05 317.749 L2191.4 317.749 L2191.4 309.601 L2175.8 309.601 L2175.8 305.087 L2190.17 283.189 Z" fill="#000000" fill-rule="nonzero" fill-opacity="1" /><path clip-path="url(#clip760)" d="M2218.34 281.777 Q2215.24 287.101 2213.74 292.309 Q2212.23 297.517 2212.23 302.864 Q2212.23 308.212 2213.74 313.466 Q2215.26 318.698 2218.34 323.999 L2214.64 323.999 Q2211.17 318.559 2209.43 313.304 Q2207.72 308.05 2207.72 302.864 Q2207.72 297.702 2209.43 292.471 Q2211.14 287.24 2214.64 281.777 L2218.34 281.777 Z" fill="#000000" fill-rule="nonzero" fill-opacity="1" /><path clip-path="url(#clip760)" d="M2230.82 284.462 L2230.82 291.823 L2239.59 291.823 L2239.59 295.133 L2230.82 295.133 L2230.82 309.207 Q2230.82 312.378 2231.68 313.281 Q2232.56 314.184 2235.22 314.184 L2239.59 314.184 L2239.59 317.749 L2235.22 317.749 Q2230.29 317.749 2228.41 315.92 Q2226.54 314.068 2226.54 309.207 L2226.54 295.133 L2223.41 295.133 L2223.41 291.823 L2226.54 291.823 L2226.54 284.462 L2230.82 284.462 Z" fill="#000000" fill-rule="nonzero" fill-opacity="1" /><path clip-path="url(#clip760)" d="M2244.52 281.777 L2248.23 281.777 Q2251.7 287.24 2253.41 292.471 Q2255.15 297.702 2255.15 302.864 Q2255.15 308.05 2253.41 313.304 Q2251.7 318.559 2248.23 323.999 L2244.52 323.999 Q2247.6 318.698 2249.11 313.466 Q2250.64 308.212 2250.64 302.864 Q2250.64 297.517 2249.11 292.309 Q2247.6 287.101 2244.52 281.777 Z" fill="#000000" fill-rule="nonzero" fill-opacity="1" /><polyline clip-path="url(#clip760)" style="stroke:#ac8d18; stroke-linecap:round; stroke-linejoin:round; stroke-width:4; stroke-opacity:1; fill:none" points="1976.65,352.309 2123.06,352.309 "/>
<path clip-path="url(#clip760)" d="M2147.46 359.357 L2147.46 343.663 L2151.72 343.663 L2151.72 359.195 Q2151.72 362.876 2153.16 364.728 Q2154.59 366.556 2157.46 366.556 Q2160.91 366.556 2162.9 364.357 Q2164.92 362.158 2164.92 358.362 L2164.92 343.663 L2169.18 343.663 L2169.18 369.589 L2164.92 369.589 L2164.92 365.607 Q2163.37 367.968 2161.31 369.126 Q2159.27 370.26 2156.56 370.26 Q2152.09 370.26 2149.78 367.482 Q2147.46 364.704 2147.46 359.357 M2158.18 343.038 L2158.18 343.038 Z" fill="#000000" fill-rule="nonzero" fill-opacity="1" /><path clip-path="url(#clip760)" d="M2178.6 335.029 L2196.95 335.029 L2196.95 338.964 L2182.88 338.964 L2182.88 347.436 Q2183.9 347.089 2184.92 346.927 Q2185.94 346.742 2186.95 346.742 Q2192.74 346.742 2196.12 349.913 Q2199.5 353.084 2199.5 358.501 Q2199.5 364.079 2196.03 367.181 Q2192.56 370.26 2186.24 370.26 Q2184.06 370.26 2181.79 369.89 Q2179.55 369.519 2177.14 368.778 L2177.14 364.079 Q2179.22 365.214 2181.45 365.769 Q2183.67 366.325 2186.14 366.325 Q2190.15 366.325 2192.49 364.218 Q2194.83 362.112 2194.83 358.501 Q2194.83 354.89 2192.49 352.783 Q2190.15 350.677 2186.14 350.677 Q2184.27 350.677 2182.39 351.093 Q2180.54 351.51 2178.6 352.39 L2178.6 335.029 Z" fill="#000000" fill-rule="nonzero" fill-opacity="1" /><path clip-path="url(#clip760)" d="M2218.34 333.617 Q2215.24 338.941 2213.74 344.149 Q2212.23 349.357 2212.23 354.704 Q2212.23 360.052 2213.74 365.306 Q2215.26 370.538 2218.34 375.839 L2214.64 375.839 Q2211.17 370.399 2209.43 365.144 Q2207.72 359.89 2207.72 354.704 Q2207.72 349.542 2209.43 344.311 Q2211.14 339.08 2214.64 333.617 L2218.34 333.617 Z" fill="#000000" fill-rule="nonzero" fill-opacity="1" /><path clip-path="url(#clip760)" d="M2230.82 336.302 L2230.82 343.663 L2239.59 343.663 L2239.59 346.973 L2230.82 346.973 L2230.82 361.047 Q2230.82 364.218 2231.68 365.121 Q2232.56 366.024 2235.22 366.024 L2239.59 366.024 L2239.59 369.589 L2235.22 369.589 Q2230.29 369.589 2228.41 367.76 Q2226.54 365.908 2226.54 361.047 L2226.54 346.973 L2223.41 346.973 L2223.41 343.663 L2226.54 343.663 L2226.54 336.302 L2230.82 336.302 Z" fill="#000000" fill-rule="nonzero" fill-opacity="1" /><path clip-path="url(#clip760)" d="M2244.52 333.617 L2248.23 333.617 Q2251.7 339.08 2253.41 344.311 Q2255.15 349.542 2255.15 354.704 Q2255.15 359.89 2253.41 365.144 Q2251.7 370.399 2248.23 375.839 L2244.52 375.839 Q2247.6 370.538 2249.11 365.306 Q2250.64 360.052 2250.64 354.704 Q2250.64 349.357 2249.11 344.149 Q2247.6 338.941 2244.52 333.617 Z" fill="#000000" fill-rule="nonzero" fill-opacity="1" /><polyline clip-path="url(#clip760)" style="stroke:#00a9ad; stroke-linecap:round; stroke-linejoin:round; stroke-width:4; stroke-opacity:1; fill:none" points="1976.65,404.149 2123.06,404.149 "/>
<path clip-path="url(#clip760)" d="M2147.46 411.197 L2147.46 395.503 L2151.72 395.503 L2151.72 411.035 Q2151.72 414.716 2153.16 416.568 Q2154.59 418.396 2157.46 418.396 Q2160.91 418.396 2162.9 416.197 Q2164.92 413.998 2164.92 410.202 L2164.92 395.503 L2169.18 395.503 L2169.18 421.429 L2164.92 421.429 L2164.92 417.447 Q2163.37 419.808 2161.31 420.966 Q2159.27 422.1 2156.56 422.1 Q2152.09 422.1 2149.78 419.322 Q2147.46 416.544 2147.46 411.197 M2158.18 394.878 L2158.18 394.878 Z" fill="#000000" fill-rule="nonzero" fill-opacity="1" /><path clip-path="url(#clip760)" d="M2189.13 402.285 Q2185.98 402.285 2184.13 404.438 Q2182.3 406.591 2182.3 410.341 Q2182.3 414.068 2184.13 416.243 Q2185.98 418.396 2189.13 418.396 Q2192.28 418.396 2194.11 416.243 Q2195.96 414.068 2195.96 410.341 Q2195.96 406.591 2194.11 404.438 Q2192.28 402.285 2189.13 402.285 M2198.41 387.633 L2198.41 391.892 Q2196.65 391.058 2194.85 390.619 Q2193.07 390.179 2191.31 390.179 Q2186.68 390.179 2184.22 393.304 Q2181.79 396.429 2181.45 402.748 Q2182.81 400.734 2184.87 399.669 Q2186.93 398.582 2189.41 398.582 Q2194.62 398.582 2197.63 401.753 Q2200.66 404.901 2200.66 410.341 Q2200.66 415.665 2197.51 418.882 Q2194.36 422.1 2189.13 422.1 Q2183.14 422.1 2179.96 417.517 Q2176.79 412.91 2176.79 404.183 Q2176.79 395.989 2180.68 391.128 Q2184.57 386.244 2191.12 386.244 Q2192.88 386.244 2194.66 386.591 Q2196.47 386.938 2198.41 387.633 Z" fill="#000000" fill-rule="nonzero" fill-opacity="1" /><path clip-path="url(#clip760)" d="M2218.34 385.457 Q2215.24 390.781 2213.74 395.989 Q2212.23 401.197 2212.23 406.544 Q2212.23 411.892 2213.74 417.146 Q2215.26 422.378 2218.34 427.679 L2214.64 427.679 Q2211.17 422.239 2209.43 416.984 Q2207.72 411.73 2207.72 406.544 Q2207.72 401.382 2209.43 396.151 Q2211.14 390.92 2214.64 385.457 L2218.34 385.457 Z" fill="#000000" fill-rule="nonzero" fill-opacity="1" /><path clip-path="url(#clip760)" d="M2230.82 388.142 L2230.82 395.503 L2239.59 395.503 L2239.59 398.813 L2230.82 398.813 L2230.82 412.887 Q2230.82 416.058 2231.68 416.961 Q2232.56 417.864 2235.22 417.864 L2239.59 417.864 L2239.59 421.429 L2235.22 421.429 Q2230.29 421.429 2228.41 419.6 Q2226.54 417.748 2226.54 412.887 L2226.54 398.813 L2223.41 398.813 L2223.41 395.503 L2226.54 395.503 L2226.54 388.142 L2230.82 388.142 Z" fill="#000000" fill-rule="nonzero" fill-opacity="1" /><path clip-path="url(#clip760)" d="M2244.52 385.457 L2248.23 385.457 Q2251.7 390.92 2253.41 396.151 Q2255.15 401.382 2255.15 406.544 Q2255.15 411.73 2253.41 416.984 Q2251.7 422.239 2248.23 427.679 L2244.52 427.679 Q2247.6 422.378 2249.11 417.146 Q2250.64 411.892 2250.64 406.544 Q2250.64 401.197 2249.11 395.989 Q2247.6 390.781 2244.52 385.457 Z" fill="#000000" fill-rule="nonzero" fill-opacity="1" /><polyline clip-path="url(#clip760)" style="stroke:#ed5d92; stroke-linecap:round; stroke-linejoin:round; stroke-width:4; stroke-opacity:1; fill:none" points="1976.65,455.989 2123.06,455.989 "/>
<path clip-path="url(#clip760)" d="M2147.46 463.037 L2147.46 447.343 L2151.72 447.343 L2151.72 462.875 Q2151.72 466.556 2153.16 468.408 Q2154.59 470.236 2157.46 470.236 Q2160.91 470.236 2162.9 468.037 Q2164.92 465.838 2164.92 462.042 L2164.92 447.343 L2169.18 447.343 L2169.18 473.269 L2164.92 473.269 L2164.92 469.287 Q2163.37 471.648 2161.31 472.806 Q2159.27 473.94 2156.56 473.94 Q2152.09 473.94 2149.78 471.162 Q2147.46 468.384 2147.46 463.037 M2158.18 446.718 L2158.18 446.718 Z" fill="#000000" fill-rule="nonzero" fill-opacity="1" /><path clip-path="url(#clip760)" d="M2177.37 438.709 L2199.59 438.709 L2199.59 440.699 L2187.05 473.269 L2182.16 473.269 L2193.97 442.644 L2177.37 442.644 L2177.37 438.709 Z" fill="#000000" fill-rule="nonzero" fill-opacity="1" /><path clip-path="url(#clip760)" d="M2218.34 437.297 Q2215.24 442.621 2213.74 447.829 Q2212.23 453.037 2212.23 458.384 Q2212.23 463.732 2213.74 468.986 Q2215.26 474.218 2218.34 479.519 L2214.64 479.519 Q2211.17 474.079 2209.43 468.824 Q2207.72 463.57 2207.72 458.384 Q2207.72 453.222 2209.43 447.991 Q2211.14 442.76 2214.64 437.297 L2218.34 437.297 Z" fill="#000000" fill-rule="nonzero" fill-opacity="1" /><path clip-path="url(#clip760)" d="M2230.82 439.982 L2230.82 447.343 L2239.59 447.343 L2239.59 450.653 L2230.82 450.653 L2230.82 464.727 Q2230.82 467.898 2231.68 468.801 Q2232.56 469.704 2235.22 469.704 L2239.59 469.704 L2239.59 473.269 L2235.22 473.269 Q2230.29 473.269 2228.41 471.44 Q2226.54 469.588 2226.54 464.727 L2226.54 450.653 L2223.41 450.653 L2223.41 447.343 L2226.54 447.343 L2226.54 439.982 L2230.82 439.982 Z" fill="#000000" fill-rule="nonzero" fill-opacity="1" /><path clip-path="url(#clip760)" d="M2244.52 437.297 L2248.23 437.297 Q2251.7 442.76 2253.41 447.991 Q2255.15 453.222 2255.15 458.384 Q2255.15 463.57 2253.41 468.824 Q2251.7 474.079 2248.23 479.519 L2244.52 479.519 Q2247.6 474.218 2249.11 468.986 Q2250.64 463.732 2250.64 458.384 Q2250.64 453.037 2249.11 447.829 Q2247.6 442.621 2244.52 437.297 Z" fill="#000000" fill-rule="nonzero" fill-opacity="1" /><polyline clip-path="url(#clip760)" style="stroke:#c68125; stroke-linecap:round; stroke-linejoin:round; stroke-width:4; stroke-opacity:1; fill:none" points="1976.65,507.829 2123.06,507.829 "/>
<path clip-path="url(#clip760)" d="M2147.46 514.877 L2147.46 499.183 L2151.72 499.183 L2151.72 514.715 Q2151.72 518.396 2153.16 520.248 Q2154.59 522.076 2157.46 522.076 Q2160.91 522.076 2162.9 519.877 Q2164.92 517.678 2164.92 513.882 L2164.92 499.183 L2169.18 499.183 L2169.18 525.109 L2164.92 525.109 L2164.92 521.127 Q2163.37 523.488 2161.31 524.646 Q2159.27 525.78 2156.56 525.78 Q2152.09 525.78 2149.78 523.002 Q2147.46 520.224 2147.46 514.877 M2158.18 498.558 L2158.18 498.558 Z" fill="#000000" fill-rule="nonzero" fill-opacity="1" /><path clip-path="url(#clip760)" d="M2188.55 508.697 Q2185.22 508.697 2183.3 510.479 Q2181.4 512.261 2181.4 515.386 Q2181.4 518.511 2183.3 520.294 Q2185.22 522.076 2188.55 522.076 Q2191.89 522.076 2193.81 520.294 Q2195.73 518.488 2195.73 515.386 Q2195.73 512.261 2193.81 510.479 Q2191.91 508.697 2188.55 508.697 M2183.88 506.706 Q2180.87 505.965 2179.18 503.905 Q2177.51 501.845 2177.51 498.882 Q2177.51 494.738 2180.45 492.331 Q2183.41 489.924 2188.55 489.924 Q2193.71 489.924 2196.65 492.331 Q2199.59 494.738 2199.59 498.882 Q2199.59 501.845 2197.9 503.905 Q2196.24 505.965 2193.25 506.706 Q2196.63 507.493 2198.51 509.785 Q2200.4 512.076 2200.4 515.386 Q2200.4 520.41 2197.33 523.095 Q2194.27 525.78 2188.55 525.78 Q2182.83 525.78 2179.76 523.095 Q2176.7 520.41 2176.7 515.386 Q2176.7 512.076 2178.6 509.785 Q2180.5 507.493 2183.88 506.706 M2182.16 499.322 Q2182.16 502.007 2183.83 503.512 Q2185.52 505.016 2188.55 505.016 Q2191.56 505.016 2193.25 503.512 Q2194.96 502.007 2194.96 499.322 Q2194.96 496.637 2193.25 495.132 Q2191.56 493.627 2188.55 493.627 Q2185.52 493.627 2183.83 495.132 Q2182.16 496.637 2182.16 499.322 Z" fill="#000000" fill-rule="nonzero" fill-opacity="1" /><path clip-path="url(#clip760)" d="M2218.34 489.137 Q2215.24 494.461 2213.74 499.669 Q2212.23 504.877 2212.23 510.224 Q2212.23 515.572 2213.74 520.826 Q2215.26 526.058 2218.34 531.359 L2214.64 531.359 Q2211.17 525.919 2209.43 520.664 Q2207.72 515.41 2207.72 510.224 Q2207.72 505.062 2209.43 499.831 Q2211.14 494.6 2214.64 489.137 L2218.34 489.137 Z" fill="#000000" fill-rule="nonzero" fill-opacity="1" /><path clip-path="url(#clip760)" d="M2230.82 491.822 L2230.82 499.183 L2239.59 499.183 L2239.59 502.493 L2230.82 502.493 L2230.82 516.567 Q2230.82 519.738 2231.68 520.641 Q2232.56 521.544 2235.22 521.544 L2239.59 521.544 L2239.59 525.109 L2235.22 525.109 Q2230.29 525.109 2228.41 523.28 Q2226.54 521.428 2226.54 516.567 L2226.54 502.493 L2223.41 502.493 L2223.41 499.183 L2226.54 499.183 L2226.54 491.822 L2230.82 491.822 Z" fill="#000000" fill-rule="nonzero" fill-opacity="1" /><path clip-path="url(#clip760)" d="M2244.52 489.137 L2248.23 489.137 Q2251.7 494.6 2253.41 499.831 Q2255.15 505.062 2255.15 510.224 Q2255.15 515.41 2253.41 520.664 Q2251.7 525.919 2248.23 531.359 L2244.52 531.359 Q2247.6 526.058 2249.11 520.826 Q2250.64 515.572 2250.64 510.224 Q2250.64 504.877 2249.11 499.669 Q2247.6 494.461 2244.52 489.137 Z" fill="#000000" fill-rule="nonzero" fill-opacity="1" /></svg>
