<?xml version="1.0" encoding="utf-8"?>
<svg xmlns="http://www.w3.org/2000/svg" xmlns:xlink="http://www.w3.org/1999/xlink" width="600" height="400" viewBox="0 0 2400 1600">
<defs>
  <clipPath id="clip940">
    <rect x="0" y="0" width="2400" height="1600"/>
  </clipPath>
</defs>
<path clip-path="url(#clip940)" d="M0 1600 L2400 1600 L2400 0 L0 0  Z" fill="#ffffff" fill-rule="evenodd" fill-opacity="1"/>
<defs>
  <clipPath id="clip941">
    <rect x="480" y="0" width="1681" height="1600"/>
  </clipPath>
</defs>
<path clip-path="url(#clip940)" d="M156.274 1486.45 L2352.76 1486.45 L2352.76 47.2441 L156.274 47.2441  Z" fill="#ffffff" fill-rule="evenodd" fill-opacity="1"/>
<defs>
  <clipPath id="clip942">
    <rect x="156" y="47" width="2197" height="1440"/>
  </clipPath>
</defs>
<polyline clip-path="url(#clip942)" style="stroke:#000000; stroke-linecap:round; stroke-linejoin:round; stroke-width:2; stroke-opacity:0.1; fill:none" points="218.439,1486.45 218.439,47.2441 "/>
<polyline clip-path="url(#clip942)" style="stroke:#000000; stroke-linecap:round; stroke-linejoin:round; stroke-width:2; stroke-opacity:0.1; fill:none" points="736.477,1486.45 736.477,47.2441 "/>
<polyline clip-path="url(#clip942)" style="stroke:#000000; stroke-linecap:round; stroke-linejoin:round; stroke-width:2; stroke-opacity:0.1; fill:none" points="1254.52,1486.45 1254.52,47.2441 "/>
<polyline clip-path="url(#clip942)" style="stroke:#000000; stroke-linecap:round; stroke-linejoin:round; stroke-width:2; stroke-opacity:0.1; fill:none" points="1772.55,1486.45 1772.55,47.2441 "/>
<polyline clip-path="url(#clip942)" style="stroke:#000000; stroke-linecap:round; stroke-linejoin:round; stroke-width:2; stroke-opacity:0.1; fill:none" points="2290.59,1486.45 2290.59,47.2441 "/>
<polyline clip-path="url(#clip942)" style="stroke:#000000; stroke-linecap:round; stroke-linejoin:round; stroke-width:2; stroke-opacity:0.1; fill:none" points="156.274,1284.64 2352.76,1284.64 "/>
<polyline clip-path="url(#clip942)" style="stroke:#000000; stroke-linecap:round; stroke-linejoin:round; stroke-width:2; stroke-opacity:0.1; fill:none" points="156.274,1075.73 2352.76,1075.73 "/>
<polyline clip-path="url(#clip942)" style="stroke:#000000; stroke-linecap:round; stroke-linejoin:round; stroke-width:2; stroke-opacity:0.1; fill:none" points="156.274,866.829 2352.76,866.829 "/>
<polyline clip-path="url(#clip942)" style="stroke:#000000; stroke-linecap:round; stroke-linejoin:round; stroke-width:2; stroke-opacity:0.1; fill:none" points="156.274,657.924 2352.76,657.924 "/>
<polyline clip-path="url(#clip942)" style="stroke:#000000; stroke-linecap:round; stroke-linejoin:round; stroke-width:2; stroke-opacity:0.1; fill:none" points="156.274,449.018 2352.76,449.018 "/>
<polyline clip-path="url(#clip942)" style="stroke:#000000; stroke-linecap:round; stroke-linejoin:round; stroke-width:2; stroke-opacity:0.1; fill:none" points="156.274,240.112 2352.76,240.112 "/>
<polyline clip-path="url(#clip940)" style="stroke:#000000; stroke-linecap:round; stroke-linejoin:round; stroke-width:4; stroke-opacity:1; fill:none" points="156.274,1486.45 2352.76,1486.45 "/>
<polyline clip-path="url(#clip940)" style="stroke:#000000; stroke-linecap:round; stroke-linejoin:round; stroke-width:4; stroke-opacity:1; fill:none" points="218.439,1486.45 218.439,1467.55 "/>
<polyline clip-path="url(#clip940)" style="stroke:#000000; stroke-linecap:round; stroke-linejoin:round; stroke-width:4; stroke-opacity:1; fill:none" points="736.477,1486.45 736.477,1467.55 "/>
<polyline clip-path="url(#clip940)" style="stroke:#000000; stroke-linecap:round; stroke-linejoin:round; stroke-width:4; stroke-opacity:1; fill:none" points="1254.52,1486.45 1254.52,1467.55 "/>
<polyline clip-path="url(#clip940)" style="stroke:#000000; stroke-linecap:round; stroke-linejoin:round; stroke-width:4; stroke-opacity:1; fill:none" points="1772.55,1486.45 1772.55,1467.55 "/>
<polyline clip-path="url(#clip940)" style="stroke:#000000; stroke-linecap:round; stroke-linejoin:round; stroke-width:4; stroke-opacity:1; fill:none" points="2290.59,1486.45 2290.59,1467.55 "/>
<path clip-path="url(#clip940)" d="M180.742 1517.37 Q177.131 1517.37 175.302 1520.93 Q173.497 1524.47 173.497 1531.6 Q173.497 1538.71 175.302 1542.27 Q177.131 1545.82 180.742 1545.82 Q184.376 1545.82 186.182 1542.27 Q188.011 1538.71 188.011 1531.6 Q188.011 1524.47 186.182 1520.93 Q184.376 1517.37 180.742 1517.37 M180.742 1513.66 Q186.552 1513.66 189.608 1518.27 Q192.687 1522.85 192.687 1531.6 Q192.687 1540.33 189.608 1544.94 Q186.552 1549.52 180.742 1549.52 Q174.932 1549.52 171.853 1544.94 Q168.798 1540.33 168.798 1531.6 Q168.798 1522.85 171.853 1518.27 Q174.932 1513.66 180.742 1513.66 Z" fill="#000000" fill-rule="nonzero" fill-opacity="1" /><path clip-path="url(#clip940)" d="M200.904 1542.97 L205.788 1542.97 L205.788 1548.85 L200.904 1548.85 L200.904 1542.97 Z" fill="#000000" fill-rule="nonzero" fill-opacity="1" /><path clip-path="url(#clip940)" d="M225.973 1517.37 Q222.362 1517.37 220.534 1520.93 Q218.728 1524.47 218.728 1531.6 Q218.728 1538.71 220.534 1542.27 Q222.362 1545.82 225.973 1545.82 Q229.608 1545.82 231.413 1542.27 Q233.242 1538.71 233.242 1531.6 Q233.242 1524.47 231.413 1520.93 Q229.608 1517.37 225.973 1517.37 M225.973 1513.66 Q231.784 1513.66 234.839 1518.27 Q237.918 1522.85 237.918 1531.6 Q237.918 1540.33 234.839 1544.94 Q231.784 1549.52 225.973 1549.52 Q220.163 1549.52 217.085 1544.94 Q214.029 1540.33 214.029 1531.6 Q214.029 1522.85 217.085 1518.27 Q220.163 1513.66 225.973 1513.66 Z" fill="#000000" fill-rule="nonzero" fill-opacity="1" /><path clip-path="url(#clip940)" d="M256.135 1517.37 Q252.524 1517.37 250.696 1520.93 Q248.89 1524.47 248.89 1531.6 Q248.89 1538.71 250.696 1542.27 Q252.524 1545.82 256.135 1545.82 Q259.77 1545.82 261.575 1542.27 Q263.404 1538.71 263.404 1531.6 Q263.404 1524.47 261.575 1520.93 Q259.77 1517.37 256.135 1517.37 M256.135 1513.66 Q261.945 1513.66 265.001 1518.27 Q268.08 1522.85 268.08 1531.6 Q268.08 1540.33 265.001 1544.94 Q261.945 1549.52 256.135 1549.52 Q250.325 1549.52 247.246 1544.94 Q244.191 1540.33 244.191 1531.6 Q244.191 1522.85 247.246 1518.27 Q250.325 1513.66 256.135 1513.66 Z" fill="#000000" fill-rule="nonzero" fill-opacity="1" /><path clip-path="url(#clip940)" d="M699.278 1517.37 Q695.667 1517.37 693.838 1520.93 Q692.033 1524.47 692.033 1531.6 Q692.033 1538.71 693.838 1542.27 Q695.667 1545.82 699.278 1545.82 Q702.912 1545.82 704.718 1542.27 Q706.546 1538.71 706.546 1531.6 Q706.546 1524.47 704.718 1520.93 Q702.912 1517.37 699.278 1517.37 M699.278 1513.66 Q705.088 1513.66 708.144 1518.27 Q711.222 1522.85 711.222 1531.6 Q711.222 1540.33 708.144 1544.94 Q705.088 1549.52 699.278 1549.52 Q693.468 1549.52 690.389 1544.94 Q687.334 1540.33 687.334 1531.6 Q687.334 1522.85 690.389 1518.27 Q693.468 1513.66 699.278 1513.66 Z" fill="#000000" fill-rule="nonzero" fill-opacity="1" /><path clip-path="url(#clip940)" d="M719.44 1542.97 L724.324 1542.97 L724.324 1548.85 L719.44 1548.85 L719.44 1542.97 Z" fill="#000000" fill-rule="nonzero" fill-opacity="1" /><path clip-path="url(#clip940)" d="M738.537 1544.91 L754.856 1544.91 L754.856 1548.85 L732.912 1548.85 L732.912 1544.91 Q735.574 1542.16 740.157 1537.53 Q744.764 1532.88 745.944 1531.53 Q748.19 1529.01 749.069 1527.27 Q749.972 1525.51 749.972 1523.82 Q749.972 1521.07 748.028 1519.33 Q746.106 1517.6 743.005 1517.6 Q740.806 1517.6 738.352 1518.36 Q735.921 1519.13 733.144 1520.68 L733.144 1515.95 Q735.968 1514.82 738.421 1514.24 Q740.875 1513.66 742.912 1513.66 Q748.282 1513.66 751.477 1516.35 Q754.671 1519.03 754.671 1523.52 Q754.671 1525.65 753.861 1527.57 Q753.074 1529.47 750.968 1532.07 Q750.389 1532.74 747.287 1535.95 Q744.185 1539.15 738.537 1544.91 Z" fill="#000000" fill-rule="nonzero" fill-opacity="1" /><path clip-path="url(#clip940)" d="M764.717 1514.29 L783.074 1514.29 L783.074 1518.22 L769 1518.22 L769 1526.7 Q770.018 1526.35 771.037 1526.19 Q772.055 1526 773.074 1526 Q778.861 1526 782.241 1529.17 Q785.62 1532.34 785.62 1537.76 Q785.62 1543.34 782.148 1546.44 Q778.676 1549.52 772.356 1549.52 Q770.18 1549.52 767.912 1549.15 Q765.667 1548.78 763.259 1548.04 L763.259 1543.34 Q765.342 1544.47 767.565 1545.03 Q769.787 1545.58 772.264 1545.58 Q776.268 1545.58 778.606 1543.48 Q780.944 1541.37 780.944 1537.76 Q780.944 1534.15 778.606 1532.04 Q776.268 1529.94 772.264 1529.94 Q770.389 1529.94 768.514 1530.35 Q766.662 1530.77 764.717 1531.65 L764.717 1514.29 Z" fill="#000000" fill-rule="nonzero" fill-opacity="1" /><path clip-path="url(#clip940)" d="M1216.82 1517.37 Q1213.21 1517.37 1211.38 1520.93 Q1209.57 1524.47 1209.57 1531.6 Q1209.57 1538.71 1211.38 1542.27 Q1213.21 1545.82 1216.82 1545.82 Q1220.45 1545.82 1222.26 1542.27 Q1224.09 1538.71 1224.09 1531.6 Q1224.09 1524.47 1222.26 1520.93 Q1220.45 1517.37 1216.82 1517.37 M1216.82 1513.66 Q1222.63 1513.66 1225.68 1518.27 Q1228.76 1522.85 1228.76 1531.6 Q1228.76 1540.33 1225.68 1544.94 Q1222.63 1549.52 1216.82 1549.52 Q1211.01 1549.52 1207.93 1544.94 Q1204.87 1540.33 1204.87 1531.6 Q1204.87 1522.85 1207.93 1518.27 Q1211.01 1513.66 1216.82 1513.66 Z" fill="#000000" fill-rule="nonzero" fill-opacity="1" /><path clip-path="url(#clip940)" d="M1236.98 1542.97 L1241.86 1542.97 L1241.86 1548.85 L1236.98 1548.85 L1236.98 1542.97 Z" fill="#000000" fill-rule="nonzero" fill-opacity="1" /><path clip-path="url(#clip940)" d="M1252.1 1514.29 L1270.45 1514.29 L1270.45 1518.22 L1256.38 1518.22 L1256.38 1526.7 Q1257.4 1526.35 1258.42 1526.19 Q1259.43 1526 1260.45 1526 Q1266.24 1526 1269.62 1529.17 Q1273 1532.34 1273 1537.76 Q1273 1543.34 1269.53 1546.44 Q1266.05 1549.52 1259.73 1549.52 Q1257.56 1549.52 1255.29 1549.15 Q1253.05 1548.78 1250.64 1548.04 L1250.64 1543.34 Q1252.72 1544.47 1254.94 1545.03 Q1257.17 1545.58 1259.64 1545.58 Q1263.65 1545.58 1265.98 1543.48 Q1268.32 1541.37 1268.32 1537.76 Q1268.32 1534.15 1265.98 1532.04 Q1263.65 1529.94 1259.64 1529.94 Q1257.77 1529.94 1255.89 1530.35 Q1254.04 1530.77 1252.1 1531.65 L1252.1 1514.29 Z" fill="#000000" fill-rule="nonzero" fill-opacity="1" /><path clip-path="url(#clip940)" d="M1292.21 1517.37 Q1288.6 1517.37 1286.77 1520.93 Q1284.97 1524.47 1284.97 1531.6 Q1284.97 1538.71 1286.77 1542.27 Q1288.6 1545.82 1292.21 1545.82 Q1295.85 1545.82 1297.65 1542.27 Q1299.48 1538.71 1299.48 1531.6 Q1299.48 1524.47 1297.65 1520.93 Q1295.85 1517.37 1292.21 1517.37 M1292.21 1513.66 Q1298.02 1513.66 1301.08 1518.27 Q1304.16 1522.85 1304.16 1531.6 Q1304.16 1540.33 1301.08 1544.94 Q1298.02 1549.52 1292.21 1549.52 Q1286.4 1549.52 1283.32 1544.94 Q1280.27 1540.33 1280.27 1531.6 Q1280.27 1522.85 1283.32 1518.27 Q1286.4 1513.66 1292.21 1513.66 Z" fill="#000000" fill-rule="nonzero" fill-opacity="1" /><path clip-path="url(#clip940)" d="M1735.35 1517.37 Q1731.74 1517.37 1729.91 1520.93 Q1728.11 1524.47 1728.11 1531.6 Q1728.11 1538.71 1729.91 1542.27 Q1731.74 1545.82 1735.35 1545.82 Q1738.99 1545.82 1740.79 1542.27 Q1742.62 1538.71 1742.62 1531.6 Q1742.62 1524.47 1740.79 1520.93 Q1738.99 1517.37 1735.35 1517.37 M1735.35 1513.66 Q1741.16 1513.66 1744.22 1518.27 Q1747.3 1522.85 1747.3 1531.6 Q1747.3 1540.33 1744.22 1544.94 Q1741.16 1549.52 1735.35 1549.52 Q1729.54 1549.52 1726.47 1544.94 Q1723.41 1540.33 1723.41 1531.6 Q1723.41 1522.85 1726.47 1518.27 Q1729.54 1513.66 1735.35 1513.66 Z" fill="#000000" fill-rule="nonzero" fill-opacity="1" /><path clip-path="url(#clip940)" d="M1755.52 1542.97 L1760.4 1542.97 L1760.4 1548.85 L1755.52 1548.85 L1755.52 1542.97 Z" fill="#000000" fill-rule="nonzero" fill-opacity="1" /><path clip-path="url(#clip940)" d="M1769.41 1514.29 L1791.63 1514.29 L1791.63 1516.28 L1779.08 1548.85 L1774.2 1548.85 L1786 1518.22 L1769.41 1518.22 L1769.41 1514.29 Z" fill="#000000" fill-rule="nonzero" fill-opacity="1" /><path clip-path="url(#clip940)" d="M1800.79 1514.29 L1819.15 1514.29 L1819.15 1518.22 L1805.08 1518.22 L1805.08 1526.7 Q1806.09 1526.35 1807.11 1526.19 Q1808.13 1526 1809.15 1526 Q1814.94 1526 1818.32 1529.17 Q1821.7 1532.34 1821.7 1537.76 Q1821.7 1543.34 1818.22 1546.44 Q1814.75 1549.52 1808.43 1549.52 Q1806.26 1549.52 1803.99 1549.15 Q1801.74 1548.78 1799.34 1548.04 L1799.34 1543.34 Q1801.42 1544.47 1803.64 1545.03 Q1805.86 1545.58 1808.34 1545.58 Q1812.34 1545.58 1814.68 1543.48 Q1817.02 1541.37 1817.02 1537.76 Q1817.02 1534.15 1814.68 1532.04 Q1812.34 1529.94 1808.34 1529.94 Q1806.47 1529.94 1804.59 1530.35 Q1802.74 1530.77 1800.79 1531.65 L1800.79 1514.29 Z" fill="#000000" fill-rule="nonzero" fill-opacity="1" /><path clip-path="url(#clip940)" d="M2242.66 1544.91 L2250.3 1544.91 L2250.3 1518.55 L2241.99 1520.21 L2241.99 1515.95 L2250.26 1514.29 L2254.93 1514.29 L2254.93 1544.91 L2262.57 1544.91 L2262.57 1548.85 L2242.66 1548.85 L2242.66 1544.91 Z" fill="#000000" fill-rule="nonzero" fill-opacity="1" /><path clip-path="url(#clip940)" d="M2272.02 1542.97 L2276.9 1542.97 L2276.9 1548.85 L2272.02 1548.85 L2272.02 1542.97 Z" fill="#000000" fill-rule="nonzero" fill-opacity="1" /><path clip-path="url(#clip940)" d="M2297.08 1517.37 Q2293.47 1517.37 2291.64 1520.93 Q2289.84 1524.47 2289.84 1531.6 Q2289.84 1538.71 2291.64 1542.27 Q2293.47 1545.82 2297.08 1545.82 Q2300.72 1545.82 2302.52 1542.27 Q2304.35 1538.71 2304.35 1531.6 Q2304.35 1524.47 2302.52 1520.93 Q2300.72 1517.37 2297.08 1517.37 M2297.08 1513.66 Q2302.89 1513.66 2305.95 1518.27 Q2309.03 1522.85 2309.03 1531.6 Q2309.03 1540.33 2305.95 1544.94 Q2302.89 1549.52 2297.08 1549.52 Q2291.27 1549.52 2288.2 1544.94 Q2285.14 1540.33 2285.14 1531.6 Q2285.14 1522.85 2288.2 1518.27 Q2291.27 1513.66 2297.08 1513.66 Z" fill="#000000" fill-rule="nonzero" fill-opacity="1" /><path clip-path="url(#clip940)" d="M2327.25 1517.37 Q2323.64 1517.37 2321.81 1520.93 Q2320 1524.47 2320 1531.6 Q2320 1538.71 2321.81 1542.27 Q2323.64 1545.82 2327.25 1545.82 Q2330.88 1545.82 2332.69 1542.27 Q2334.51 1538.71 2334.51 1531.6 Q2334.51 1524.47 2332.69 1520.93 Q2330.88 1517.37 2327.25 1517.37 M2327.25 1513.66 Q2333.06 1513.66 2336.11 1518.27 Q2339.19 1522.85 2339.19 1531.6 Q2339.19 1540.33 2336.11 1544.94 Q2333.06 1549.52 2327.25 1549.52 Q2321.44 1549.52 2318.36 1544.94 Q2315.3 1540.33 2315.3 1531.6 Q2315.3 1522.85 2318.36 1518.27 Q2321.44 1513.66 2327.25 1513.66 Z" fill="#000000" fill-rule="nonzero" fill-opacity="1" /><polyline clip-path="url(#clip940)" style="stroke:#000000; stroke-linecap:round; stroke-linejoin:round; stroke-width:4; stroke-opacity:1; fill:none" points="156.274,1486.45 156.274,47.2441 "/>
<polyline clip-path="url(#clip940)" style="stroke:#000000; stroke-linecap:round; stroke-linejoin:round; stroke-width:4; stroke-opacity:1; fill:none" points="156.274,1284.64 175.172,1284.64 "/>
<polyline clip-path="url(#clip940)" style="stroke:#000000; stroke-linecap:round; stroke-linejoin:round; stroke-width:4; stroke-opacity:1; fill:none" points="156.274,1075.73 175.172,1075.73 "/>
<polyline clip-path="url(#clip940)" style="stroke:#000000; stroke-linecap:round; stroke-linejoin:round; stroke-width:4; stroke-opacity:1; fill:none" points="156.274,866.829 175.172,866.829 "/>
<polyline clip-path="url(#clip940)" style="stroke:#000000; stroke-linecap:round; stroke-linejoin:round; stroke-width:4; stroke-opacity:1; fill:none" points="156.274,657.924 175.172,657.924 "/>
<polyline clip-path="url(#clip940)" style="stroke:#000000; stroke-linecap:round; stroke-linejoin:round; stroke-width:4; stroke-opacity:1; fill:none" points="156.274,449.018 175.172,449.018 "/>
<polyline clip-path="url(#clip940)" style="stroke:#000000; stroke-linecap:round; stroke-linejoin:round; stroke-width:4; stroke-opacity:1; fill:none" points="156.274,240.112 175.172,240.112 "/>
<path clip-path="url(#clip940)" d="M62.9365 1270.44 Q59.3254 1270.44 57.4967 1274 Q55.6912 1277.55 55.6912 1284.67 Q55.6912 1291.78 57.4967 1295.35 Q59.3254 1298.89 62.9365 1298.89 Q66.5707 1298.89 68.3763 1295.35 Q70.205 1291.78 70.205 1284.67 Q70.205 1277.55 68.3763 1274 Q66.5707 1270.44 62.9365 1270.44 M62.9365 1266.74 Q68.7467 1266.74 71.8022 1271.34 Q74.8809 1275.92 74.8809 1284.67 Q74.8809 1293.4 71.8022 1298.01 Q68.7467 1302.59 62.9365 1302.59 Q57.1264 1302.59 54.0477 1298.01 Q50.9921 1293.4 50.9921 1284.67 Q50.9921 1275.92 54.0477 1271.34 Q57.1264 1266.74 62.9365 1266.74 Z" fill="#000000" fill-rule="nonzero" fill-opacity="1" /><path clip-path="url(#clip940)" d="M83.0984 1296.04 L87.9827 1296.04 L87.9827 1301.92 L83.0984 1301.92 L83.0984 1296.04 Z" fill="#000000" fill-rule="nonzero" fill-opacity="1" /><path clip-path="url(#clip940)" d="M108.746 1282.78 Q105.598 1282.78 103.746 1284.93 Q101.918 1287.08 101.918 1290.83 Q101.918 1294.56 103.746 1296.74 Q105.598 1298.89 108.746 1298.89 Q111.895 1298.89 113.723 1296.74 Q115.575 1294.56 115.575 1290.83 Q115.575 1287.08 113.723 1284.93 Q111.895 1282.78 108.746 1282.78 M118.029 1268.12 L118.029 1272.38 Q116.27 1271.55 114.464 1271.11 Q112.682 1270.67 110.922 1270.67 Q106.293 1270.67 103.839 1273.8 Q101.409 1276.92 101.061 1283.24 Q102.427 1281.23 104.487 1280.16 Q106.547 1279.07 109.024 1279.07 Q114.233 1279.07 117.242 1282.24 Q120.274 1285.39 120.274 1290.83 Q120.274 1296.16 117.126 1299.37 Q113.978 1302.59 108.746 1302.59 Q102.751 1302.59 99.5798 1298.01 Q96.4085 1293.4 96.4085 1284.67 Q96.4085 1276.48 100.297 1271.62 Q104.186 1266.74 110.737 1266.74 Q112.496 1266.74 114.279 1267.08 Q116.084 1267.43 118.029 1268.12 Z" fill="#000000" fill-rule="nonzero" fill-opacity="1" /><path clip-path="url(#clip940)" d="M63.1911 1061.53 Q59.58 1061.53 57.7513 1065.1 Q55.9458 1068.64 55.9458 1075.77 Q55.9458 1082.88 57.7513 1086.44 Q59.58 1089.98 63.1911 1089.98 Q66.8254 1089.98 68.6309 1086.44 Q70.4596 1082.88 70.4596 1075.77 Q70.4596 1068.64 68.6309 1065.1 Q66.8254 1061.53 63.1911 1061.53 M63.1911 1057.83 Q69.0013 1057.83 72.0568 1062.44 Q75.1355 1067.02 75.1355 1075.77 Q75.1355 1084.5 72.0568 1089.1 Q69.0013 1093.69 63.1911 1093.69 Q57.381 1093.69 54.3023 1089.1 Q51.2468 1084.5 51.2468 1075.77 Q51.2468 1067.02 54.3023 1062.44 Q57.381 1057.83 63.1911 1057.83 Z" fill="#000000" fill-rule="nonzero" fill-opacity="1" /><path clip-path="url(#clip940)" d="M83.3531 1087.14 L88.2373 1087.14 L88.2373 1093.01 L83.3531 1093.01 L83.3531 1087.14 Z" fill="#000000" fill-rule="nonzero" fill-opacity="1" /><path clip-path="url(#clip940)" d="M108.422 1076.6 Q105.089 1076.6 103.168 1078.39 Q101.27 1080.17 101.27 1083.29 Q101.27 1086.42 103.168 1088.2 Q105.089 1089.98 108.422 1089.98 Q111.756 1089.98 113.677 1088.2 Q115.598 1086.39 115.598 1083.29 Q115.598 1080.17 113.677 1078.39 Q111.779 1076.6 108.422 1076.6 M103.746 1074.61 Q100.737 1073.87 99.0474 1071.81 Q97.3808 1069.75 97.3808 1066.79 Q97.3808 1062.64 100.321 1060.24 Q103.284 1057.83 108.422 1057.83 Q113.584 1057.83 116.524 1060.24 Q119.464 1062.64 119.464 1066.79 Q119.464 1069.75 117.774 1071.81 Q116.108 1073.87 113.121 1074.61 Q116.501 1075.4 118.376 1077.69 Q120.274 1079.98 120.274 1083.29 Q120.274 1088.32 117.195 1091 Q114.14 1093.69 108.422 1093.69 Q102.705 1093.69 99.6261 1091 Q96.5706 1088.32 96.5706 1083.29 Q96.5706 1079.98 98.4687 1077.69 Q100.367 1075.4 103.746 1074.61 M102.034 1067.23 Q102.034 1069.91 103.7 1071.42 Q105.39 1072.92 108.422 1072.92 Q111.432 1072.92 113.121 1071.42 Q114.834 1069.91 114.834 1067.23 Q114.834 1064.54 113.121 1063.04 Q111.432 1061.53 108.422 1061.53 Q105.39 1061.53 103.7 1063.04 Q102.034 1064.54 102.034 1067.23 Z" fill="#000000" fill-rule="nonzero" fill-opacity="1" /><path clip-path="url(#clip940)" d="M53.9088 880.174 L61.5476 880.174 L61.5476 853.808 L53.2375 855.475 L53.2375 851.216 L61.5013 849.549 L66.1772 849.549 L66.1772 880.174 L73.8161 880.174 L73.8161 884.109 L53.9088 884.109 L53.9088 880.174 Z" fill="#000000" fill-rule="nonzero" fill-opacity="1" /><path clip-path="url(#clip940)" d="M83.2605 878.229 L88.1447 878.229 L88.1447 884.109 L83.2605 884.109 L83.2605 878.229 Z" fill="#000000" fill-rule="nonzero" fill-opacity="1" /><path clip-path="url(#clip940)" d="M108.33 852.628 Q104.719 852.628 102.89 856.193 Q101.084 859.734 101.084 866.864 Q101.084 873.97 102.89 877.535 Q104.719 881.077 108.33 881.077 Q111.964 881.077 113.77 877.535 Q115.598 873.97 115.598 866.864 Q115.598 859.734 113.77 856.193 Q111.964 852.628 108.33 852.628 M108.33 848.924 Q114.14 848.924 117.195 853.531 Q120.274 858.114 120.274 866.864 Q120.274 875.591 117.195 880.197 Q114.14 884.78 108.33 884.78 Q102.52 884.78 99.4409 880.197 Q96.3854 875.591 96.3854 866.864 Q96.3854 858.114 99.4409 853.531 Q102.52 848.924 108.33 848.924 Z" fill="#000000" fill-rule="nonzero" fill-opacity="1" /><path clip-path="url(#clip940)" d="M55.506 671.268 L63.1448 671.268 L63.1448 644.903 L54.8347 646.569 L54.8347 642.31 L63.0985 640.644 L67.7744 640.644 L67.7744 671.268 L75.4133 671.268 L75.4133 675.204 L55.506 675.204 L55.506 671.268 Z" fill="#000000" fill-rule="nonzero" fill-opacity="1" /><path clip-path="url(#clip940)" d="M84.8577 669.324 L89.7419 669.324 L89.7419 675.204 L84.8577 675.204 L84.8577 669.324 Z" fill="#000000" fill-rule="nonzero" fill-opacity="1" /><path clip-path="url(#clip940)" d="M103.955 671.268 L120.274 671.268 L120.274 675.204 L98.3298 675.204 L98.3298 671.268 Q100.992 668.514 105.575 663.884 Q110.182 659.231 111.362 657.889 Q113.608 655.366 114.487 653.63 Q115.39 651.87 115.39 650.181 Q115.39 647.426 113.445 645.69 Q111.524 643.954 108.422 643.954 Q106.223 643.954 103.77 644.718 Q101.339 645.481 98.5613 647.032 L98.5613 642.31 Q101.385 641.176 103.839 640.597 Q106.293 640.019 108.33 640.019 Q113.7 640.019 116.895 642.704 Q120.089 645.389 120.089 649.88 Q120.089 652.009 119.279 653.931 Q118.492 655.829 116.385 658.421 Q115.807 659.093 112.705 662.31 Q109.603 665.505 103.955 671.268 Z" fill="#000000" fill-rule="nonzero" fill-opacity="1" /><path clip-path="url(#clip940)" d="M53.4227 462.363 L61.0615 462.363 L61.0615 435.997 L52.7514 437.664 L52.7514 433.405 L61.0152 431.738 L65.6911 431.738 L65.6911 462.363 L73.33 462.363 L73.33 466.298 L53.4227 466.298 L53.4227 462.363 Z" fill="#000000" fill-rule="nonzero" fill-opacity="1" /><path clip-path="url(#clip940)" d="M82.7744 460.418 L87.6586 460.418 L87.6586 466.298 L82.7744 466.298 L82.7744 460.418 Z" fill="#000000" fill-rule="nonzero" fill-opacity="1" /><path clip-path="url(#clip940)" d="M110.691 435.812 L98.8854 454.261 L110.691 454.261 L110.691 435.812 M109.464 431.738 L115.344 431.738 L115.344 454.261 L120.274 454.261 L120.274 458.15 L115.344 458.15 L115.344 466.298 L110.691 466.298 L110.691 458.15 L95.0891 458.15 L95.0891 453.636 L109.464 431.738 Z" fill="#000000" fill-rule="nonzero" fill-opacity="1" /><path clip-path="url(#clip940)" d="M53.7467 253.457 L61.3856 253.457 L61.3856 227.092 L53.0754 228.758 L53.0754 224.499 L61.3393 222.832 L66.0152 222.832 L66.0152 253.457 L73.654 253.457 L73.654 257.392 L53.7467 257.392 L53.7467 253.457 Z" fill="#000000" fill-rule="nonzero" fill-opacity="1" /><path clip-path="url(#clip940)" d="M83.0984 251.513 L87.9827 251.513 L87.9827 257.392 L83.0984 257.392 L83.0984 251.513 Z" fill="#000000" fill-rule="nonzero" fill-opacity="1" /><path clip-path="url(#clip940)" d="M108.746 238.249 Q105.598 238.249 103.746 240.402 Q101.918 242.555 101.918 246.305 Q101.918 250.031 103.746 252.207 Q105.598 254.36 108.746 254.36 Q111.895 254.36 113.723 252.207 Q115.575 250.031 115.575 246.305 Q115.575 242.555 113.723 240.402 Q111.895 238.249 108.746 238.249 M118.029 223.596 L118.029 227.856 Q116.27 227.022 114.464 226.582 Q112.682 226.143 110.922 226.143 Q106.293 226.143 103.839 229.268 Q101.409 232.393 101.061 238.712 Q102.427 236.698 104.487 235.633 Q106.547 234.545 109.024 234.545 Q114.233 234.545 117.242 237.717 Q120.274 240.865 120.274 246.305 Q120.274 251.629 117.126 254.846 Q113.978 258.064 108.746 258.064 Q102.751 258.064 99.5798 253.48 Q96.4085 248.874 96.4085 240.147 Q96.4085 231.953 100.297 227.092 Q104.186 222.207 110.737 222.207 Q112.496 222.207 114.279 222.555 Q116.084 222.902 118.029 223.596 Z" fill="#000000" fill-rule="nonzero" fill-opacity="1" /><polyline clip-path="url(#clip942)" style="stroke:#009af9; stroke-linecap:round; stroke-linejoin:round; stroke-width:12; stroke-opacity:1; fill:none" points="218.439,1389.09 425.654,1313.16 632.869,1325.89 840.085,1385.42 1047.3,1412.65 1254.52,1364.84 1461.73,1207.43 1668.95,1082.29 1876.16,1134.83 2083.38,1264.68 2290.59,1263.24 "/>
<polyline clip-path="url(#clip942)" style="stroke:#e26f46; stroke-linecap:round; stroke-linejoin:round; stroke-width:12; stroke-opacity:1; fill:none" points="218.439,1389.09 425.654,1391.95 632.869,1386.23 840.085,1356.1 1047.3,1280.68 1254.52,1215.04 1461.73,1370.38 1668.95,1206.28 1876.16,1014.22 2083.38,928.27 2290.59,916.073 "/>
<polyline clip-path="url(#clip942)" style="stroke:#3da44d; stroke-linecap:round; stroke-linejoin:round; stroke-width:12; stroke-opacity:1; fill:none" points="218.439,1389.09 425.654,1377.58 632.869,1259.37 840.085,1214.61 1047.3,1216.56 1254.52,1234.19 1461.73,1214.04 1668.95,1276.64 1876.16,1229.66 2083.38,1178.6 2290.59,1062.63 "/>
<polyline clip-path="url(#clip942)" style="stroke:#c271d2; stroke-linecap:round; stroke-linejoin:round; stroke-width:12; stroke-opacity:1; fill:none" points="218.439,1389.09 425.654,1445.72 632.869,1436.38 840.085,1432.98 1047.3,1432.56 1254.52,1314.82 1461.73,1282.75 1668.95,1193.96 1876.16,1138.25 2083.38,1107.05 2290.59,1019.51 "/>
<polyline clip-path="url(#clip942)" style="stroke:#ac8d18; stroke-linecap:round; stroke-linejoin:round; stroke-width:12; stroke-opacity:1; fill:none" points="218.439,1389.09 425.654,1320.46 632.869,1337.05 840.085,1225.82 1047.3,1007.89 1254.52,810.644 1461.73,402.568 1668.95,87.9763 1876.16,146.142 2083.38,329.417 2290.59,407.731 "/>
<polyline clip-path="url(#clip942)" style="stroke:#00a9ad; stroke-linecap:round; stroke-linejoin:round; stroke-width:12; stroke-opacity:1; fill:none" points="218.439,1389.09 425.654,1373.53 632.869,1329.27 840.085,1337.94 1047.3,1247.87 1254.52,1297.16 1461.73,1124.11 1668.95,1113.41 1876.16,955.78 2083.38,669.837 2290.59,806.352 "/>
<polyline clip-path="url(#clip942)" style="stroke:#ed5d92; stroke-linecap:round; stroke-linejoin:round; stroke-width:12; stroke-opacity:1; fill:none" points="218.439,1389.09 425.654,1345.34 632.869,1266.79 840.085,1256.83 1047.3,1203.22 1254.52,1164.65 1461.73,1060.13 1668.95,900.124 1876.16,800.84 2083.38,640.019 2290.59,901.4 "/>
<polyline clip-path="url(#clip942)" style="stroke:#c68125; stroke-linecap:round; stroke-linejoin:round; stroke-width:12; stroke-opacity:1; fill:none" points="218.439,1389.09 425.654,1279.72 632.869,1130.11 840.085,1072.55 1047.3,1119.84 1254.52,923.961 1461.73,772.708 1668.95,760.442 1876.16,739.231 2083.38,581.766 2290.59,398.526 "/>
</svg>
