<?xml version="1.0" encoding="utf-8"?>
<svg xmlns="http://www.w3.org/2000/svg" xmlns:xlink="http://www.w3.org/1999/xlink" width="600" height="400" viewBox="0 0 2400 1600">
<defs>
  <clipPath id="clip880">
    <rect x="0" y="0" width="2400" height="1600"/>
  </clipPath>
</defs>
<path clip-path="url(#clip880)" d="M0 1600 L2400 1600 L2400 0 L0 0  Z" fill="#ffffff" fill-rule="evenodd" fill-opacity="1"/>
<defs>
  <clipPath id="clip881">
    <rect x="480" y="0" width="1681" height="1600"/>
  </clipPath>
</defs>
<path clip-path="url(#clip880)" d="M155.765 1486.45 L2352.76 1486.45 L2352.76 47.2441 L155.765 47.2441  Z" fill="#ffffff" fill-rule="evenodd" fill-opacity="1"/>
<defs>
  <clipPath id="clip882">
    <rect x="155" y="47" width="2198" height="1440"/>
  </clipPath>
</defs>
<polyline clip-path="url(#clip882)" style="stroke:#000000; stroke-linecap:round; stroke-linejoin:round; stroke-width:2; stroke-opacity:0.1; fill:none" points="217.944,1486.45 217.944,47.2441 "/>
<polyline clip-path="url(#clip882)" style="stroke:#000000; stroke-linecap:round; stroke-linejoin:round; stroke-width:2; stroke-opacity:0.1; fill:none" points="736.102,1486.45 736.102,47.2441 "/>
<polyline clip-path="url(#clip882)" style="stroke:#000000; stroke-linecap:round; stroke-linejoin:round; stroke-width:2; stroke-opacity:0.1; fill:none" points="1254.26,1486.45 1254.26,47.2441 "/>
<polyline clip-path="url(#clip882)" style="stroke:#000000; stroke-linecap:round; stroke-linejoin:round; stroke-width:2; stroke-opacity:0.1; fill:none" points="1772.42,1486.45 1772.42,47.2441 "/>
<polyline clip-path="url(#clip882)" style="stroke:#000000; stroke-linecap:round; stroke-linejoin:round; stroke-width:2; stroke-opacity:0.1; fill:none" points="2290.58,1486.45 2290.58,47.2441 "/>
<polyline clip-path="url(#clip882)" style="stroke:#000000; stroke-linecap:round; stroke-linejoin:round; stroke-width:2; stroke-opacity:0.1; fill:none" points="155.765,1323.65 2352.76,1323.65 "/>
<polyline clip-path="url(#clip882)" style="stroke:#000000; stroke-linecap:round; stroke-linejoin:round; stroke-width:2; stroke-opacity:0.1; fill:none" points="155.765,1111.61 2352.76,1111.61 "/>
<polyline clip-path="url(#clip882)" style="stroke:#000000; stroke-linecap:round; stroke-linejoin:round; stroke-width:2; stroke-opacity:0.1; fill:none" points="155.765,899.569 2352.76,899.569 "/>
<polyline clip-path="url(#clip882)" style="stroke:#000000; stroke-linecap:round; stroke-linejoin:round; stroke-width:2; stroke-opacity:0.1; fill:none" points="155.765,687.529 2352.76,687.529 "/>
<polyline clip-path="url(#clip882)" style="stroke:#000000; stroke-linecap:round; stroke-linejoin:round; stroke-width:2; stroke-opacity:0.1; fill:none" points="155.765,475.488 2352.76,475.488 "/>
<polyline clip-path="url(#clip882)" style="stroke:#000000; stroke-linecap:round; stroke-linejoin:round; stroke-width:2; stroke-opacity:0.1; fill:none" points="155.765,263.448 2352.76,263.448 "/>
<polyline clip-path="url(#clip882)" style="stroke:#000000; stroke-linecap:round; stroke-linejoin:round; stroke-width:2; stroke-opacity:0.1; fill:none" points="155.765,51.4075 2352.76,51.4075 "/>
<polyline clip-path="url(#clip880)" style="stroke:#000000; stroke-linecap:round; stroke-linejoin:round; stroke-width:4; stroke-opacity:1; fill:none" points="155.765,1486.45 2352.76,1486.45 "/>
<polyline clip-path="url(#clip880)" style="stroke:#000000; stroke-linecap:round; stroke-linejoin:round; stroke-width:4; stroke-opacity:1; fill:none" points="217.944,1486.45 217.944,1467.55 "/>
<polyline clip-path="url(#clip880)" style="stroke:#000000; stroke-linecap:round; stroke-linejoin:round; stroke-width:4; stroke-opacity:1; fill:none" points="736.102,1486.45 736.102,1467.55 "/>
<polyline clip-path="url(#clip880)" style="stroke:#000000; stroke-linecap:round; stroke-linejoin:round; stroke-width:4; stroke-opacity:1; fill:none" points="1254.26,1486.45 1254.26,1467.55 "/>
<polyline clip-path="url(#clip880)" style="stroke:#000000; stroke-linecap:round; stroke-linejoin:round; stroke-width:4; stroke-opacity:1; fill:none" points="1772.42,1486.45 1772.42,1467.55 "/>
<polyline clip-path="url(#clip880)" style="stroke:#000000; stroke-linecap:round; stroke-linejoin:round; stroke-width:4; stroke-opacity:1; fill:none" points="2290.58,1486.45 2290.58,1467.55 "/>
<path clip-path="url(#clip880)" d="M180.247 1517.37 Q176.636 1517.37 174.808 1520.93 Q173.002 1524.47 173.002 1531.6 Q173.002 1538.71 174.808 1542.27 Q176.636 1545.82 180.247 1545.82 Q183.882 1545.82 185.687 1542.27 Q187.516 1538.71 187.516 1531.6 Q187.516 1524.47 185.687 1520.93 Q183.882 1517.37 180.247 1517.37 M180.247 1513.66 Q186.057 1513.66 189.113 1518.27 Q192.192 1522.85 192.192 1531.6 Q192.192 1540.33 189.113 1544.94 Q186.057 1549.52 180.247 1549.52 Q174.437 1549.52 171.358 1544.94 Q168.303 1540.33 168.303 1531.6 Q168.303 1522.85 171.358 1518.27 Q174.437 1513.66 180.247 1513.66 Z" fill="#000000" fill-rule="nonzero" fill-opacity="1" /><path clip-path="url(#clip880)" d="M200.409 1542.97 L205.294 1542.97 L205.294 1548.85 L200.409 1548.85 L200.409 1542.97 Z" fill="#000000" fill-rule="nonzero" fill-opacity="1" /><path clip-path="url(#clip880)" d="M225.479 1517.37 Q221.867 1517.37 220.039 1520.93 Q218.233 1524.47 218.233 1531.6 Q218.233 1538.71 220.039 1542.27 Q221.867 1545.82 225.479 1545.82 Q229.113 1545.82 230.918 1542.27 Q232.747 1538.71 232.747 1531.6 Q232.747 1524.47 230.918 1520.93 Q229.113 1517.37 225.479 1517.37 M225.479 1513.66 Q231.289 1513.66 234.344 1518.27 Q237.423 1522.85 237.423 1531.6 Q237.423 1540.33 234.344 1544.94 Q231.289 1549.52 225.479 1549.52 Q219.668 1549.52 216.59 1544.94 Q213.534 1540.33 213.534 1531.6 Q213.534 1522.85 216.59 1518.27 Q219.668 1513.66 225.479 1513.66 Z" fill="#000000" fill-rule="nonzero" fill-opacity="1" /><path clip-path="url(#clip880)" d="M255.64 1517.37 Q252.029 1517.37 250.201 1520.93 Q248.395 1524.47 248.395 1531.6 Q248.395 1538.71 250.201 1542.27 Q252.029 1545.82 255.64 1545.82 Q259.275 1545.82 261.08 1542.27 Q262.909 1538.71 262.909 1531.6 Q262.909 1524.47 261.08 1520.93 Q259.275 1517.37 255.64 1517.37 M255.64 1513.66 Q261.451 1513.66 264.506 1518.27 Q267.585 1522.85 267.585 1531.6 Q267.585 1540.33 264.506 1544.94 Q261.451 1549.52 255.64 1549.52 Q249.83 1549.52 246.752 1544.94 Q243.696 1540.33 243.696 1531.6 Q243.696 1522.85 246.752 1518.27 Q249.83 1513.66 255.64 1513.66 Z" fill="#000000" fill-rule="nonzero" fill-opacity="1" /><path clip-path="url(#clip880)" d="M698.903 1517.37 Q695.292 1517.37 693.463 1520.93 Q691.658 1524.47 691.658 1531.6 Q691.658 1538.71 693.463 1542.27 Q695.292 1545.82 698.903 1545.82 Q702.538 1545.82 704.343 1542.27 Q706.172 1538.71 706.172 1531.6 Q706.172 1524.47 704.343 1520.93 Q702.538 1517.37 698.903 1517.37 M698.903 1513.66 Q704.713 1513.66 707.769 1518.27 Q710.848 1522.85 710.848 1531.6 Q710.848 1540.33 707.769 1544.94 Q704.713 1549.52 698.903 1549.52 Q693.093 1549.52 690.014 1544.94 Q686.959 1540.33 686.959 1531.6 Q686.959 1522.85 690.014 1518.27 Q693.093 1513.66 698.903 1513.66 Z" fill="#000000" fill-rule="nonzero" fill-opacity="1" /><path clip-path="url(#clip880)" d="M719.065 1542.97 L723.949 1542.97 L723.949 1548.85 L719.065 1548.85 L719.065 1542.97 Z" fill="#000000" fill-rule="nonzero" fill-opacity="1" /><path clip-path="url(#clip880)" d="M738.162 1544.91 L754.482 1544.91 L754.482 1548.85 L732.537 1548.85 L732.537 1544.91 Q735.199 1542.16 739.783 1537.53 Q744.389 1532.88 745.57 1531.53 Q747.815 1529.01 748.695 1527.27 Q749.597 1525.51 749.597 1523.82 Q749.597 1521.07 747.653 1519.33 Q745.732 1517.6 742.63 1517.6 Q740.431 1517.6 737.977 1518.36 Q735.547 1519.13 732.769 1520.68 L732.769 1515.95 Q735.593 1514.82 738.047 1514.24 Q740.5 1513.66 742.537 1513.66 Q747.908 1513.66 751.102 1516.35 Q754.296 1519.03 754.296 1523.52 Q754.296 1525.65 753.486 1527.57 Q752.699 1529.47 750.593 1532.07 Q750.014 1532.74 746.912 1535.95 Q743.81 1539.15 738.162 1544.91 Z" fill="#000000" fill-rule="nonzero" fill-opacity="1" /><path clip-path="url(#clip880)" d="M764.343 1514.29 L782.699 1514.29 L782.699 1518.22 L768.625 1518.22 L768.625 1526.7 Q769.644 1526.35 770.662 1526.19 Q771.681 1526 772.699 1526 Q778.486 1526 781.866 1529.17 Q785.245 1532.34 785.245 1537.76 Q785.245 1543.34 781.773 1546.44 Q778.301 1549.52 771.982 1549.52 Q769.806 1549.52 767.537 1549.15 Q765.292 1548.78 762.884 1548.04 L762.884 1543.34 Q764.968 1544.47 767.19 1545.03 Q769.412 1545.58 771.889 1545.58 Q775.894 1545.58 778.232 1543.48 Q780.57 1541.37 780.57 1537.76 Q780.57 1534.15 778.232 1532.04 Q775.894 1529.94 771.889 1529.94 Q770.014 1529.94 768.139 1530.35 Q766.287 1530.77 764.343 1531.65 L764.343 1514.29 Z" fill="#000000" fill-rule="nonzero" fill-opacity="1" /><path clip-path="url(#clip880)" d="M1216.56 1517.37 Q1212.95 1517.37 1211.12 1520.93 Q1209.32 1524.47 1209.32 1531.6 Q1209.32 1538.71 1211.12 1542.27 Q1212.95 1545.82 1216.56 1545.82 Q1220.2 1545.82 1222 1542.27 Q1223.83 1538.71 1223.83 1531.6 Q1223.83 1524.47 1222 1520.93 Q1220.2 1517.37 1216.56 1517.37 M1216.56 1513.66 Q1222.37 1513.66 1225.43 1518.27 Q1228.51 1522.85 1228.51 1531.6 Q1228.51 1540.33 1225.43 1544.94 Q1222.37 1549.52 1216.56 1549.52 Q1210.75 1549.52 1207.68 1544.94 Q1204.62 1540.33 1204.62 1531.6 Q1204.62 1522.85 1207.68 1518.27 Q1210.75 1513.66 1216.56 1513.66 Z" fill="#000000" fill-rule="nonzero" fill-opacity="1" /><path clip-path="url(#clip880)" d="M1236.73 1542.97 L1241.61 1542.97 L1241.61 1548.85 L1236.73 1548.85 L1236.73 1542.97 Z" fill="#000000" fill-rule="nonzero" fill-opacity="1" /><path clip-path="url(#clip880)" d="M1251.84 1514.29 L1270.2 1514.29 L1270.2 1518.22 L1256.12 1518.22 L1256.12 1526.7 Q1257.14 1526.35 1258.16 1526.19 Q1259.18 1526 1260.2 1526 Q1265.98 1526 1269.36 1529.17 Q1272.74 1532.34 1272.74 1537.76 Q1272.74 1543.34 1269.27 1546.44 Q1265.8 1549.52 1259.48 1549.52 Q1257.3 1549.52 1255.04 1549.15 Q1252.79 1548.78 1250.38 1548.04 L1250.38 1543.34 Q1252.47 1544.47 1254.69 1545.03 Q1256.91 1545.58 1259.39 1545.58 Q1263.39 1545.58 1265.73 1543.48 Q1268.07 1541.37 1268.07 1537.76 Q1268.07 1534.15 1265.73 1532.04 Q1263.39 1529.94 1259.39 1529.94 Q1257.51 1529.94 1255.64 1530.35 Q1253.79 1530.77 1251.84 1531.65 L1251.84 1514.29 Z" fill="#000000" fill-rule="nonzero" fill-opacity="1" /><path clip-path="url(#clip880)" d="M1291.96 1517.37 Q1288.35 1517.37 1286.52 1520.93 Q1284.71 1524.47 1284.71 1531.6 Q1284.71 1538.71 1286.52 1542.27 Q1288.35 1545.82 1291.96 1545.82 Q1295.59 1545.82 1297.4 1542.27 Q1299.23 1538.71 1299.23 1531.6 Q1299.23 1524.47 1297.4 1520.93 Q1295.59 1517.37 1291.96 1517.37 M1291.96 1513.66 Q1297.77 1513.66 1300.82 1518.27 Q1303.9 1522.85 1303.9 1531.6 Q1303.9 1540.33 1300.82 1544.94 Q1297.77 1549.52 1291.96 1549.52 Q1286.15 1549.52 1283.07 1544.94 Q1280.01 1540.33 1280.01 1531.6 Q1280.01 1522.85 1283.07 1518.27 Q1286.15 1513.66 1291.96 1513.66 Z" fill="#000000" fill-rule="nonzero" fill-opacity="1" /><path clip-path="url(#clip880)" d="M1735.22 1517.37 Q1731.61 1517.37 1729.78 1520.93 Q1727.97 1524.47 1727.97 1531.6 Q1727.97 1538.71 1729.78 1542.27 Q1731.61 1545.82 1735.22 1545.82 Q1738.85 1545.82 1740.66 1542.27 Q1742.49 1538.71 1742.49 1531.6 Q1742.49 1524.47 1740.66 1520.93 Q1738.85 1517.37 1735.22 1517.37 M1735.22 1513.66 Q1741.03 1513.66 1744.09 1518.27 Q1747.16 1522.85 1747.16 1531.6 Q1747.16 1540.33 1744.09 1544.94 Q1741.03 1549.52 1735.22 1549.52 Q1729.41 1549.52 1726.33 1544.94 Q1723.28 1540.33 1723.28 1531.6 Q1723.28 1522.85 1726.33 1518.27 Q1729.41 1513.66 1735.22 1513.66 Z" fill="#000000" fill-rule="nonzero" fill-opacity="1" /><path clip-path="url(#clip880)" d="M1755.38 1542.97 L1760.27 1542.97 L1760.27 1548.85 L1755.38 1548.85 L1755.38 1542.97 Z" fill="#000000" fill-rule="nonzero" fill-opacity="1" /><path clip-path="url(#clip880)" d="M1769.27 1514.29 L1791.49 1514.29 L1791.49 1516.28 L1778.95 1548.85 L1774.06 1548.85 L1785.87 1518.22 L1769.27 1518.22 L1769.27 1514.29 Z" fill="#000000" fill-rule="nonzero" fill-opacity="1" /><path clip-path="url(#clip880)" d="M1800.66 1514.29 L1819.02 1514.29 L1819.02 1518.22 L1804.94 1518.22 L1804.94 1526.7 Q1805.96 1526.35 1806.98 1526.19 Q1808 1526 1809.02 1526 Q1814.8 1526 1818.18 1529.17 Q1821.56 1532.34 1821.56 1537.76 Q1821.56 1543.34 1818.09 1546.44 Q1814.62 1549.52 1808.3 1549.52 Q1806.12 1549.52 1803.85 1549.15 Q1801.61 1548.78 1799.2 1548.04 L1799.2 1543.34 Q1801.28 1544.47 1803.51 1545.03 Q1805.73 1545.58 1808.21 1545.58 Q1812.21 1545.58 1814.55 1543.48 Q1816.89 1541.37 1816.89 1537.76 Q1816.89 1534.15 1814.55 1532.04 Q1812.21 1529.94 1808.21 1529.94 Q1806.33 1529.94 1804.46 1530.35 Q1802.6 1530.77 1800.66 1531.65 L1800.66 1514.29 Z" fill="#000000" fill-rule="nonzero" fill-opacity="1" /><path clip-path="url(#clip880)" d="M2242.65 1544.91 L2250.29 1544.91 L2250.29 1518.55 L2241.98 1520.21 L2241.98 1515.95 L2250.24 1514.29 L2254.92 1514.29 L2254.92 1544.91 L2262.56 1544.91 L2262.56 1548.85 L2242.65 1548.85 L2242.65 1544.91 Z" fill="#000000" fill-rule="nonzero" fill-opacity="1" /><path clip-path="url(#clip880)" d="M2272 1542.97 L2276.88 1542.97 L2276.88 1548.85 L2272 1548.85 L2272 1542.97 Z" fill="#000000" fill-rule="nonzero" fill-opacity="1" /><path clip-path="url(#clip880)" d="M2297.07 1517.37 Q2293.46 1517.37 2291.63 1520.93 Q2289.82 1524.47 2289.82 1531.6 Q2289.82 1538.71 2291.63 1542.27 Q2293.46 1545.82 2297.07 1545.82 Q2300.7 1545.82 2302.51 1542.27 Q2304.34 1538.71 2304.34 1531.6 Q2304.34 1524.47 2302.51 1520.93 Q2300.7 1517.37 2297.07 1517.37 M2297.07 1513.66 Q2302.88 1513.66 2305.94 1518.27 Q2309.01 1522.85 2309.01 1531.6 Q2309.01 1540.33 2305.94 1544.94 Q2302.88 1549.52 2297.07 1549.52 Q2291.26 1549.52 2288.18 1544.94 Q2285.13 1540.33 2285.13 1531.6 Q2285.13 1522.85 2288.18 1518.27 Q2291.26 1513.66 2297.07 1513.66 Z" fill="#000000" fill-rule="nonzero" fill-opacity="1" /><path clip-path="url(#clip880)" d="M2327.23 1517.37 Q2323.62 1517.37 2321.79 1520.93 Q2319.99 1524.47 2319.99 1531.6 Q2319.99 1538.71 2321.79 1542.27 Q2323.62 1545.82 2327.23 1545.82 Q2330.87 1545.82 2332.67 1542.27 Q2334.5 1538.71 2334.5 1531.6 Q2334.5 1524.47 2332.67 1520.93 Q2330.87 1517.37 2327.23 1517.37 M2327.23 1513.66 Q2333.04 1513.66 2336.1 1518.27 Q2339.18 1522.85 2339.18 1531.6 Q2339.18 1540.33 2336.1 1544.94 Q2333.04 1549.52 2327.23 1549.52 Q2321.42 1549.52 2318.34 1544.94 Q2315.29 1540.33 2315.29 1531.6 Q2315.29 1522.85 2318.34 1518.27 Q2321.42 1513.66 2327.23 1513.66 Z" fill="#000000" fill-rule="nonzero" fill-opacity="1" /><polyline clip-path="url(#clip880)" style="stroke:#000000; stroke-linecap:round; stroke-linejoin:round; stroke-width:4; stroke-opacity:1; fill:none" points="155.765,1486.45 155.765,47.2441 "/>
<polyline clip-path="url(#clip880)" style="stroke:#000000; stroke-linecap:round; stroke-linejoin:round; stroke-width:4; stroke-opacity:1; fill:none" points="155.765,1323.65 174.663,1323.65 "/>
<polyline clip-path="url(#clip880)" style="stroke:#000000; stroke-linecap:round; stroke-linejoin:round; stroke-width:4; stroke-opacity:1; fill:none" points="155.765,1111.61 174.663,1111.61 "/>
<polyline clip-path="url(#clip880)" style="stroke:#000000; stroke-linecap:round; stroke-linejoin:round; stroke-width:4; stroke-opacity:1; fill:none" points="155.765,899.569 174.663,899.569 "/>
<polyline clip-path="url(#clip880)" style="stroke:#000000; stroke-linecap:round; stroke-linejoin:round; stroke-width:4; stroke-opacity:1; fill:none" points="155.765,687.529 174.663,687.529 "/>
<polyline clip-path="url(#clip880)" style="stroke:#000000; stroke-linecap:round; stroke-linejoin:round; stroke-width:4; stroke-opacity:1; fill:none" points="155.765,475.488 174.663,475.488 "/>
<polyline clip-path="url(#clip880)" style="stroke:#000000; stroke-linecap:round; stroke-linejoin:round; stroke-width:4; stroke-opacity:1; fill:none" points="155.765,263.448 174.663,263.448 "/>
<polyline clip-path="url(#clip880)" style="stroke:#000000; stroke-linecap:round; stroke-linejoin:round; stroke-width:4; stroke-opacity:1; fill:none" points="155.765,51.4075 174.663,51.4075 "/>
<path clip-path="url(#clip880)" d="M63.5847 1309.45 Q59.9736 1309.45 58.1449 1313.01 Q56.3393 1316.56 56.3393 1323.68 Q56.3393 1330.79 58.1449 1334.36 Q59.9736 1337.9 63.5847 1337.9 Q67.2189 1337.9 69.0244 1334.36 Q70.8531 1330.79 70.8531 1323.68 Q70.8531 1316.56 69.0244 1313.01 Q67.2189 1309.45 63.5847 1309.45 M63.5847 1305.75 Q69.3948 1305.75 72.4503 1310.35 Q75.529 1314.93 75.529 1323.68 Q75.529 1332.41 72.4503 1337.02 Q69.3948 1341.6 63.5847 1341.6 Q57.7745 1341.6 54.6958 1337.02 Q51.6403 1332.41 51.6403 1323.68 Q51.6403 1314.93 54.6958 1310.35 Q57.7745 1305.75 63.5847 1305.75 Z" fill="#000000" fill-rule="nonzero" fill-opacity="1" /><path clip-path="url(#clip880)" d="M83.7466 1335.05 L88.6308 1335.05 L88.6308 1340.93 L83.7466 1340.93 L83.7466 1335.05 Z" fill="#000000" fill-rule="nonzero" fill-opacity="1" /><path clip-path="url(#clip880)" d="M98.8622 1306.37 L117.219 1306.37 L117.219 1310.31 L103.145 1310.31 L103.145 1318.78 Q104.163 1318.43 105.182 1318.27 Q106.2 1318.08 107.219 1318.08 Q113.006 1318.08 116.385 1321.25 Q119.765 1324.43 119.765 1329.84 Q119.765 1335.42 116.293 1338.52 Q112.82 1341.6 106.501 1341.6 Q104.325 1341.6 102.057 1341.23 Q99.8113 1340.86 97.4039 1340.12 L97.4039 1335.42 Q99.4872 1336.56 101.709 1337.11 Q103.932 1337.67 106.408 1337.67 Q110.413 1337.67 112.751 1335.56 Q115.089 1333.45 115.089 1329.84 Q115.089 1326.23 112.751 1324.12 Q110.413 1322.02 106.408 1322.02 Q104.534 1322.02 102.659 1322.43 Q100.807 1322.85 98.8622 1323.73 L98.8622 1306.37 Z" fill="#000000" fill-rule="nonzero" fill-opacity="1" /><path clip-path="url(#clip880)" d="M53.3995 1124.95 L61.0384 1124.95 L61.0384 1098.59 L52.7282 1100.26 L52.7282 1096 L60.9921 1094.33 L65.668 1094.33 L65.668 1124.95 L73.3068 1124.95 L73.3068 1128.89 L53.3995 1128.89 L53.3995 1124.95 Z" fill="#000000" fill-rule="nonzero" fill-opacity="1" /><path clip-path="url(#clip880)" d="M82.7512 1123.01 L87.6354 1123.01 L87.6354 1128.89 L82.7512 1128.89 L82.7512 1123.01 Z" fill="#000000" fill-rule="nonzero" fill-opacity="1" /><path clip-path="url(#clip880)" d="M107.821 1097.41 Q104.209 1097.41 102.381 1100.97 Q100.575 1104.51 100.575 1111.64 Q100.575 1118.75 102.381 1122.32 Q104.209 1125.86 107.821 1125.86 Q111.455 1125.86 113.26 1122.32 Q115.089 1118.75 115.089 1111.64 Q115.089 1104.51 113.26 1100.97 Q111.455 1097.41 107.821 1097.41 M107.821 1093.7 Q113.631 1093.7 116.686 1098.31 Q119.765 1102.89 119.765 1111.64 Q119.765 1120.37 116.686 1124.98 Q113.631 1129.56 107.821 1129.56 Q102.01 1129.56 98.9317 1124.98 Q95.8761 1120.37 95.8761 1111.64 Q95.8761 1102.89 98.9317 1098.31 Q102.01 1093.7 107.821 1093.7 Z" fill="#000000" fill-rule="nonzero" fill-opacity="1" /><path clip-path="url(#clip880)" d="M54.3949 912.914 L62.0337 912.914 L62.0337 886.548 L53.7236 888.215 L53.7236 883.956 L61.9874 882.289 L66.6633 882.289 L66.6633 912.914 L74.3022 912.914 L74.3022 916.849 L54.3949 916.849 L54.3949 912.914 Z" fill="#000000" fill-rule="nonzero" fill-opacity="1" /><path clip-path="url(#clip880)" d="M83.7466 910.97 L88.6308 910.97 L88.6308 916.849 L83.7466 916.849 L83.7466 910.97 Z" fill="#000000" fill-rule="nonzero" fill-opacity="1" /><path clip-path="url(#clip880)" d="M98.8622 882.289 L117.219 882.289 L117.219 886.224 L103.145 886.224 L103.145 894.697 Q104.163 894.349 105.182 894.187 Q106.2 894.002 107.219 894.002 Q113.006 894.002 116.385 897.173 Q119.765 900.345 119.765 905.761 Q119.765 911.34 116.293 914.442 Q112.82 917.521 106.501 917.521 Q104.325 917.521 102.057 917.15 Q99.8113 916.78 97.4039 916.039 L97.4039 911.34 Q99.4872 912.474 101.709 913.03 Q103.932 913.585 106.408 913.585 Q110.413 913.585 112.751 911.479 Q115.089 909.372 115.089 905.761 Q115.089 902.15 112.751 900.044 Q110.413 897.937 106.408 897.937 Q104.534 897.937 102.659 898.354 Q100.807 898.771 98.8622 899.65 L98.8622 882.289 Z" fill="#000000" fill-rule="nonzero" fill-opacity="1" /><path clip-path="url(#clip880)" d="M56.6171 700.874 L72.9365 700.874 L72.9365 704.809 L50.9921 704.809 L50.9921 700.874 Q53.6541 698.119 58.2375 693.489 Q62.8439 688.837 64.0245 687.494 Q66.2698 684.971 67.1494 683.235 Q68.0522 681.476 68.0522 679.786 Q68.0522 677.031 66.1078 675.295 Q64.1865 673.559 61.0847 673.559 Q58.8856 673.559 56.4319 674.323 Q54.0014 675.087 51.2236 676.638 L51.2236 671.915 Q54.0477 670.781 56.5014 670.202 Q58.955 669.624 60.9921 669.624 Q66.3624 669.624 69.5568 672.309 Q72.7513 674.994 72.7513 679.485 Q72.7513 681.614 71.9411 683.536 Q71.1541 685.434 69.0476 688.026 Q68.4689 688.698 65.367 691.915 Q62.2652 695.11 56.6171 700.874 Z" fill="#000000" fill-rule="nonzero" fill-opacity="1" /><path clip-path="url(#clip880)" d="M82.7512 698.929 L87.6354 698.929 L87.6354 704.809 L82.7512 704.809 L82.7512 698.929 Z" fill="#000000" fill-rule="nonzero" fill-opacity="1" /><path clip-path="url(#clip880)" d="M107.821 673.327 Q104.209 673.327 102.381 676.892 Q100.575 680.434 100.575 687.564 Q100.575 694.67 102.381 698.235 Q104.209 701.776 107.821 701.776 Q111.455 701.776 113.26 698.235 Q115.089 694.67 115.089 687.564 Q115.089 680.434 113.26 676.892 Q111.455 673.327 107.821 673.327 M107.821 669.624 Q113.631 669.624 116.686 674.23 Q119.765 678.814 119.765 687.564 Q119.765 696.29 116.686 700.897 Q113.631 705.48 107.821 705.48 Q102.01 705.48 98.9317 700.897 Q95.8761 696.29 95.8761 687.564 Q95.8761 678.814 98.9317 674.23 Q102.01 669.624 107.821 669.624 Z" fill="#000000" fill-rule="nonzero" fill-opacity="1" /><path clip-path="url(#clip880)" d="M57.6125 488.833 L73.9318 488.833 L73.9318 492.768 L51.9875 492.768 L51.9875 488.833 Q54.6495 486.079 59.2328 481.449 Q63.8393 476.796 65.0198 475.454 Q67.2652 472.93 68.1448 471.194 Q69.0476 469.435 69.0476 467.745 Q69.0476 464.991 67.1032 463.255 Q65.1819 461.519 62.08 461.519 Q59.881 461.519 57.4273 462.282 Q54.9967 463.046 52.219 464.597 L52.219 459.875 Q55.043 458.741 57.4967 458.162 Q59.9504 457.583 61.9874 457.583 Q67.3578 457.583 70.5522 460.269 Q73.7466 462.954 73.7466 467.444 Q73.7466 469.574 72.9365 471.495 Q72.1494 473.393 70.0429 475.986 Q69.4642 476.657 66.3624 479.875 Q63.2606 483.069 57.6125 488.833 Z" fill="#000000" fill-rule="nonzero" fill-opacity="1" /><path clip-path="url(#clip880)" d="M83.7466 486.889 L88.6308 486.889 L88.6308 492.768 L83.7466 492.768 L83.7466 486.889 Z" fill="#000000" fill-rule="nonzero" fill-opacity="1" /><path clip-path="url(#clip880)" d="M98.8622 458.208 L117.219 458.208 L117.219 462.144 L103.145 462.144 L103.145 470.616 Q104.163 470.268 105.182 470.106 Q106.2 469.921 107.219 469.921 Q113.006 469.921 116.385 473.093 Q119.765 476.264 119.765 481.68 Q119.765 487.259 116.293 490.361 Q112.82 493.44 106.501 493.44 Q104.325 493.44 102.057 493.069 Q99.8113 492.699 97.4039 491.958 L97.4039 487.259 Q99.4872 488.393 101.709 488.949 Q103.932 489.504 106.408 489.504 Q110.413 489.504 112.751 487.398 Q115.089 485.292 115.089 481.68 Q115.089 478.069 112.751 475.963 Q110.413 473.856 106.408 473.856 Q104.534 473.856 102.659 474.273 Q100.807 474.69 98.8622 475.569 L98.8622 458.208 Z" fill="#000000" fill-rule="nonzero" fill-opacity="1" /><path clip-path="url(#clip880)" d="M66.7559 262.094 Q70.1124 262.811 71.9874 265.08 Q73.8855 267.348 73.8855 270.682 Q73.8855 275.797 70.367 278.598 Q66.8485 281.399 60.3671 281.399 Q58.1912 281.399 55.8764 280.959 Q53.5847 280.543 51.131 279.686 L51.131 275.172 Q53.0754 276.307 55.3903 276.885 Q57.7051 277.464 60.2282 277.464 Q64.6263 277.464 66.918 275.728 Q69.2328 273.992 69.2328 270.682 Q69.2328 267.626 67.08 265.913 Q64.9504 264.177 61.131 264.177 L57.1032 264.177 L57.1032 260.335 L61.3161 260.335 Q64.7652 260.335 66.5939 258.969 Q68.4226 257.58 68.4226 254.987 Q68.4226 252.325 66.5245 250.913 Q64.6495 249.478 61.131 249.478 Q59.2097 249.478 57.0106 249.895 Q54.8115 250.311 52.1727 251.191 L52.1727 247.024 Q54.8347 246.284 57.1495 245.913 Q59.4875 245.543 61.5476 245.543 Q66.8717 245.543 69.9735 247.973 Q73.0753 250.381 73.0753 254.501 Q73.0753 257.372 71.4318 259.362 Q69.7883 261.33 66.7559 262.094 Z" fill="#000000" fill-rule="nonzero" fill-opacity="1" /><path clip-path="url(#clip880)" d="M82.7512 274.848 L87.6354 274.848 L87.6354 280.728 L82.7512 280.728 L82.7512 274.848 Z" fill="#000000" fill-rule="nonzero" fill-opacity="1" /><path clip-path="url(#clip880)" d="M107.821 249.247 Q104.209 249.247 102.381 252.811 Q100.575 256.353 100.575 263.483 Q100.575 270.589 102.381 274.154 Q104.209 277.696 107.821 277.696 Q111.455 277.696 113.26 274.154 Q115.089 270.589 115.089 263.483 Q115.089 256.353 113.26 252.811 Q111.455 249.247 107.821 249.247 M107.821 245.543 Q113.631 245.543 116.686 250.149 Q119.765 254.733 119.765 263.483 Q119.765 272.209 116.686 276.816 Q113.631 281.399 107.821 281.399 Q102.01 281.399 98.9317 276.816 Q95.8761 272.209 95.8761 263.483 Q95.8761 254.733 98.9317 250.149 Q102.01 245.543 107.821 245.543 Z" fill="#000000" fill-rule="nonzero" fill-opacity="1" /><path clip-path="url(#clip880)" d="M67.7513 50.0533 Q71.1078 50.7709 72.9827 53.0394 Q74.8809 55.3079 74.8809 58.6412 Q74.8809 63.7569 71.3624 66.5579 Q67.8439 69.3588 61.3624 69.3588 Q59.1865 69.3588 56.8717 68.919 Q54.5801 68.5023 52.1264 67.6458 L52.1264 63.132 Q54.0708 64.2662 56.3856 64.8449 Q58.7004 65.4236 61.2236 65.4236 Q65.6217 65.4236 67.9133 63.6875 Q70.2281 61.9514 70.2281 58.6412 Q70.2281 55.5857 68.0754 53.8727 Q65.9457 52.1366 62.1263 52.1366 L58.0986 52.1366 L58.0986 48.2941 L62.3115 48.2941 Q65.7606 48.2941 67.5893 46.9283 Q69.418 45.5395 69.418 42.9469 Q69.418 40.2849 67.5198 38.8728 Q65.6448 37.4376 62.1263 37.4376 Q60.205 37.4376 58.006 37.8543 Q55.8069 38.271 53.168 39.1506 L53.168 34.984 Q55.8301 34.2432 58.1449 33.8728 Q60.4828 33.5025 62.543 33.5025 Q67.867 33.5025 70.9689 35.933 Q74.0707 38.3404 74.0707 42.4608 Q74.0707 45.3311 72.4272 47.3218 Q70.7837 49.2894 67.7513 50.0533 Z" fill="#000000" fill-rule="nonzero" fill-opacity="1" /><path clip-path="url(#clip880)" d="M83.7466 62.8079 L88.6308 62.8079 L88.6308 68.6875 L83.7466 68.6875 L83.7466 62.8079 Z" fill="#000000" fill-rule="nonzero" fill-opacity="1" /><path clip-path="url(#clip880)" d="M98.8622 34.1275 L117.219 34.1275 L117.219 38.0626 L103.145 38.0626 L103.145 46.5348 Q104.163 46.1876 105.182 46.0256 Q106.2 45.8404 107.219 45.8404 Q113.006 45.8404 116.385 49.0117 Q119.765 52.1829 119.765 57.5996 Q119.765 63.1782 116.293 66.2801 Q112.82 69.3588 106.501 69.3588 Q104.325 69.3588 102.057 68.9884 Q99.8113 68.618 97.4039 67.8773 L97.4039 63.1782 Q99.4872 64.3125 101.709 64.8681 Q103.932 65.4236 106.408 65.4236 Q110.413 65.4236 112.751 63.3171 Q115.089 61.2107 115.089 57.5996 Q115.089 53.9885 112.751 51.882 Q110.413 49.7755 106.408 49.7755 Q104.534 49.7755 102.659 50.1922 Q100.807 50.6089 98.8622 51.4885 L98.8622 34.1275 Z" fill="#000000" fill-rule="nonzero" fill-opacity="1" /><path clip-path="url(#clip882)" d="M217.944 1323.65 L425.207 1352.02 L632.47 1377.77 L839.734 1387.72 L1047 1387.96 L1254.26 1402.43 L1461.52 1396.34 L1668.79 1434.52 L1876.05 1445.72 L2083.31 1435.3 L2290.58 1435.03 L2290.58 87.9763 L2083.31 503.105 L1876.05 588.206 L1668.79 613.57 L1461.52 724.079 L1254.26 831.425 L1047 1041.26 L839.734 1038.23 L632.47 1081.04 L425.207 1200.49 L217.944 1323.65  Z" fill="#009af9" fill-rule="evenodd" fill-opacity="0.2"/>
<polyline clip-path="url(#clip882)" style="stroke:#009af9; stroke-linecap:round; stroke-linejoin:round; stroke-width:12; stroke-opacity:1; fill:none" points="217.944,1323.65 425.207,1318.98 632.47,1270.98 839.734,1252.81 1047,1253.6 1254.26,1260.76 1461.52,1252.58 1668.79,1278 1876.05,1258.92 2083.31,1238.19 2290.58,1191.1 "/>
</svg>
