<?xml version="1.0" encoding="utf-8"?>
<svg xmlns="http://www.w3.org/2000/svg" xmlns:xlink="http://www.w3.org/1999/xlink" width="600" height="400" viewBox="0 0 2400 1600">
<defs>
  <clipPath id="clip850">
    <rect x="0" y="0" width="2400" height="1600"/>
  </clipPath>
</defs>
<path clip-path="url(#clip850)" d="M0 1600 L2400 1600 L2400 0 L0 0  Z" fill="#ffffff" fill-rule="evenodd" fill-opacity="1"/>
<defs>
  <clipPath id="clip851">
    <rect x="480" y="0" width="1681" height="1600"/>
  </clipPath>
</defs>
<path clip-path="url(#clip850)" d="M112.177 1486.45 L2352.76 1486.45 L2352.76 47.2441 L112.177 47.2441  Z" fill="#ffffff" fill-rule="evenodd" fill-opacity="1"/>
<defs>
  <clipPath id="clip852">
    <rect x="112" y="47" width="2242" height="1440"/>
  </clipPath>
</defs>
<polyline clip-path="url(#clip852)" style="stroke:#000000; stroke-linecap:round; stroke-linejoin:round; stroke-width:2; stroke-opacity:0.1; fill:none" points="175.59,1486.45 175.59,47.2441 "/>
<polyline clip-path="url(#clip852)" style="stroke:#000000; stroke-linecap:round; stroke-linejoin:round; stroke-width:2; stroke-opacity:0.1; fill:none" points="704.028,1486.45 704.028,47.2441 "/>
<polyline clip-path="url(#clip852)" style="stroke:#000000; stroke-linecap:round; stroke-linejoin:round; stroke-width:2; stroke-opacity:0.1; fill:none" points="1232.47,1486.45 1232.47,47.2441 "/>
<polyline clip-path="url(#clip852)" style="stroke:#000000; stroke-linecap:round; stroke-linejoin:round; stroke-width:2; stroke-opacity:0.1; fill:none" points="1760.9,1486.45 1760.9,47.2441 "/>
<polyline clip-path="url(#clip852)" style="stroke:#000000; stroke-linecap:round; stroke-linejoin:round; stroke-width:2; stroke-opacity:0.1; fill:none" points="2289.34,1486.45 2289.34,47.2441 "/>
<polyline clip-path="url(#clip852)" style="stroke:#000000; stroke-linecap:round; stroke-linejoin:round; stroke-width:2; stroke-opacity:0.1; fill:none" points="112.177,1455.17 2352.76,1455.17 "/>
<polyline clip-path="url(#clip852)" style="stroke:#000000; stroke-linecap:round; stroke-linejoin:round; stroke-width:2; stroke-opacity:0.1; fill:none" points="112.177,1144.28 2352.76,1144.28 "/>
<polyline clip-path="url(#clip852)" style="stroke:#000000; stroke-linecap:round; stroke-linejoin:round; stroke-width:2; stroke-opacity:0.1; fill:none" points="112.177,833.391 2352.76,833.391 "/>
<polyline clip-path="url(#clip852)" style="stroke:#000000; stroke-linecap:round; stroke-linejoin:round; stroke-width:2; stroke-opacity:0.1; fill:none" points="112.177,522.502 2352.76,522.502 "/>
<polyline clip-path="url(#clip852)" style="stroke:#000000; stroke-linecap:round; stroke-linejoin:round; stroke-width:2; stroke-opacity:0.1; fill:none" points="112.177,211.613 2352.76,211.613 "/>
<polyline clip-path="url(#clip850)" style="stroke:#000000; stroke-linecap:round; stroke-linejoin:round; stroke-width:4; stroke-opacity:1; fill:none" points="112.177,1486.45 2352.76,1486.45 "/>
<polyline clip-path="url(#clip850)" style="stroke:#000000; stroke-linecap:round; stroke-linejoin:round; stroke-width:4; stroke-opacity:1; fill:none" points="175.59,1486.45 175.59,1467.55 "/>
<polyline clip-path="url(#clip850)" style="stroke:#000000; stroke-linecap:round; stroke-linejoin:round; stroke-width:4; stroke-opacity:1; fill:none" points="704.028,1486.45 704.028,1467.55 "/>
<polyline clip-path="url(#clip850)" style="stroke:#000000; stroke-linecap:round; stroke-linejoin:round; stroke-width:4; stroke-opacity:1; fill:none" points="1232.47,1486.45 1232.47,1467.55 "/>
<polyline clip-path="url(#clip850)" style="stroke:#000000; stroke-linecap:round; stroke-linejoin:round; stroke-width:4; stroke-opacity:1; fill:none" points="1760.9,1486.45 1760.9,1467.55 "/>
<polyline clip-path="url(#clip850)" style="stroke:#000000; stroke-linecap:round; stroke-linejoin:round; stroke-width:4; stroke-opacity:1; fill:none" points="2289.34,1486.45 2289.34,1467.55 "/>
<path clip-path="url(#clip850)" d="M152.974 1517.37 Q149.363 1517.37 147.534 1520.93 Q145.729 1524.47 145.729 1531.6 Q145.729 1538.71 147.534 1542.27 Q149.363 1545.82 152.974 1545.82 Q156.608 1545.82 158.414 1542.27 Q160.243 1538.71 160.243 1531.6 Q160.243 1524.47 158.414 1520.93 Q156.608 1517.37 152.974 1517.37 M152.974 1513.66 Q158.784 1513.66 161.84 1518.27 Q164.919 1522.85 164.919 1531.6 Q164.919 1540.33 161.84 1544.94 Q158.784 1549.52 152.974 1549.52 Q147.164 1549.52 144.085 1544.94 Q141.03 1540.33 141.03 1531.6 Q141.03 1522.85 144.085 1518.27 Q147.164 1513.66 152.974 1513.66 Z" fill="#000000" fill-rule="nonzero" fill-opacity="1" /><path clip-path="url(#clip850)" d="M173.136 1542.97 L178.02 1542.97 L178.02 1548.85 L173.136 1548.85 L173.136 1542.97 Z" fill="#000000" fill-rule="nonzero" fill-opacity="1" /><path clip-path="url(#clip850)" d="M198.205 1517.37 Q194.594 1517.37 192.766 1520.93 Q190.96 1524.47 190.96 1531.6 Q190.96 1538.71 192.766 1542.27 Q194.594 1545.82 198.205 1545.82 Q201.84 1545.82 203.645 1542.27 Q205.474 1538.71 205.474 1531.6 Q205.474 1524.47 203.645 1520.93 Q201.84 1517.37 198.205 1517.37 M198.205 1513.66 Q204.016 1513.66 207.071 1518.27 Q210.15 1522.85 210.15 1531.6 Q210.15 1540.33 207.071 1544.94 Q204.016 1549.52 198.205 1549.52 Q192.395 1549.52 189.317 1544.94 Q186.261 1540.33 186.261 1531.6 Q186.261 1522.85 189.317 1518.27 Q192.395 1513.66 198.205 1513.66 Z" fill="#000000" fill-rule="nonzero" fill-opacity="1" /><path clip-path="url(#clip850)" d="M675.764 1544.91 L692.084 1544.91 L692.084 1548.85 L670.139 1548.85 L670.139 1544.91 Q672.801 1542.16 677.385 1537.53 Q681.991 1532.88 683.172 1531.53 Q685.417 1529.01 686.297 1527.27 Q687.2 1525.51 687.2 1523.82 Q687.2 1521.07 685.255 1519.33 Q683.334 1517.6 680.232 1517.6 Q678.033 1517.6 675.579 1518.36 Q673.149 1519.13 670.371 1520.68 L670.371 1515.95 Q673.195 1514.82 675.649 1514.24 Q678.102 1513.66 680.139 1513.66 Q685.51 1513.66 688.704 1516.35 Q691.899 1519.03 691.899 1523.52 Q691.899 1525.65 691.088 1527.57 Q690.301 1529.47 688.195 1532.07 Q687.616 1532.74 684.514 1535.95 Q681.413 1539.15 675.764 1544.91 Z" fill="#000000" fill-rule="nonzero" fill-opacity="1" /><path clip-path="url(#clip850)" d="M701.899 1542.97 L706.783 1542.97 L706.783 1548.85 L701.899 1548.85 L701.899 1542.97 Z" fill="#000000" fill-rule="nonzero" fill-opacity="1" /><path clip-path="url(#clip850)" d="M717.014 1514.29 L735.371 1514.29 L735.371 1518.22 L721.297 1518.22 L721.297 1526.7 Q722.315 1526.35 723.334 1526.19 Q724.352 1526 725.371 1526 Q731.158 1526 734.537 1529.17 Q737.917 1532.34 737.917 1537.76 Q737.917 1543.34 734.445 1546.44 Q730.972 1549.52 724.653 1549.52 Q722.477 1549.52 720.209 1549.15 Q717.963 1548.78 715.556 1548.04 L715.556 1543.34 Q717.639 1544.47 719.861 1545.03 Q722.084 1545.58 724.56 1545.58 Q728.565 1545.58 730.903 1543.48 Q733.241 1541.37 733.241 1537.76 Q733.241 1534.15 730.903 1532.04 Q728.565 1529.94 724.56 1529.94 Q722.685 1529.94 720.81 1530.35 Q718.959 1530.77 717.014 1531.65 L717.014 1514.29 Z" fill="#000000" fill-rule="nonzero" fill-opacity="1" /><path clip-path="url(#clip850)" d="M1199.63 1514.29 L1217.99 1514.29 L1217.99 1518.22 L1203.91 1518.22 L1203.91 1526.7 Q1204.93 1526.35 1205.95 1526.19 Q1206.97 1526 1207.99 1526 Q1213.77 1526 1217.15 1529.17 Q1220.53 1532.34 1220.53 1537.76 Q1220.53 1543.34 1217.06 1546.44 Q1213.59 1549.52 1207.27 1549.52 Q1205.09 1549.52 1202.83 1549.15 Q1200.58 1548.78 1198.17 1548.04 L1198.17 1543.34 Q1200.26 1544.47 1202.48 1545.03 Q1204.7 1545.58 1207.18 1545.58 Q1211.18 1545.58 1213.52 1543.48 Q1215.86 1541.37 1215.86 1537.76 Q1215.86 1534.15 1213.52 1532.04 Q1211.18 1529.94 1207.18 1529.94 Q1205.3 1529.94 1203.43 1530.35 Q1201.58 1530.77 1199.63 1531.65 L1199.63 1514.29 Z" fill="#000000" fill-rule="nonzero" fill-opacity="1" /><path clip-path="url(#clip850)" d="M1229.75 1542.97 L1234.63 1542.97 L1234.63 1548.85 L1229.75 1548.85 L1229.75 1542.97 Z" fill="#000000" fill-rule="nonzero" fill-opacity="1" /><path clip-path="url(#clip850)" d="M1254.82 1517.37 Q1251.2 1517.37 1249.38 1520.93 Q1247.57 1524.47 1247.57 1531.6 Q1247.57 1538.71 1249.38 1542.27 Q1251.2 1545.82 1254.82 1545.82 Q1258.45 1545.82 1260.26 1542.27 Q1262.08 1538.71 1262.08 1531.6 Q1262.08 1524.47 1260.26 1520.93 Q1258.45 1517.37 1254.82 1517.37 M1254.82 1513.66 Q1260.63 1513.66 1263.68 1518.27 Q1266.76 1522.85 1266.76 1531.6 Q1266.76 1540.33 1263.68 1544.94 Q1260.63 1549.52 1254.82 1549.52 Q1249.01 1549.52 1245.93 1544.94 Q1242.87 1540.33 1242.87 1531.6 Q1242.87 1522.85 1245.93 1518.27 Q1249.01 1513.66 1254.82 1513.66 Z" fill="#000000" fill-rule="nonzero" fill-opacity="1" /><path clip-path="url(#clip850)" d="M1727.22 1514.29 L1749.45 1514.29 L1749.45 1516.28 L1736.9 1548.85 L1732.02 1548.85 L1743.82 1518.22 L1727.22 1518.22 L1727.22 1514.29 Z" fill="#000000" fill-rule="nonzero" fill-opacity="1" /><path clip-path="url(#clip850)" d="M1758.57 1542.97 L1763.45 1542.97 L1763.45 1548.85 L1758.57 1548.85 L1758.57 1542.97 Z" fill="#000000" fill-rule="nonzero" fill-opacity="1" /><path clip-path="url(#clip850)" d="M1773.68 1514.29 L1792.04 1514.29 L1792.04 1518.22 L1777.97 1518.22 L1777.97 1526.7 Q1778.98 1526.35 1780 1526.19 Q1781.02 1526 1782.04 1526 Q1787.83 1526 1791.21 1529.17 Q1794.59 1532.34 1794.59 1537.76 Q1794.59 1543.34 1791.11 1546.44 Q1787.64 1549.52 1781.32 1549.52 Q1779.15 1549.52 1776.88 1549.15 Q1774.63 1548.78 1772.22 1548.04 L1772.22 1543.34 Q1774.31 1544.47 1776.53 1545.03 Q1778.75 1545.58 1781.23 1545.58 Q1785.23 1545.58 1787.57 1543.48 Q1789.91 1541.37 1789.91 1537.76 Q1789.91 1534.15 1787.57 1532.04 Q1785.23 1529.94 1781.23 1529.94 Q1779.35 1529.94 1777.48 1530.35 Q1775.63 1530.77 1773.68 1531.65 L1773.68 1514.29 Z" fill="#000000" fill-rule="nonzero" fill-opacity="1" /><path clip-path="url(#clip850)" d="M2241.42 1544.91 L2249.05 1544.91 L2249.05 1518.55 L2240.74 1520.21 L2240.74 1515.95 L2249.01 1514.29 L2253.68 1514.29 L2253.68 1544.91 L2261.32 1544.91 L2261.32 1548.85 L2241.42 1548.85 L2241.42 1544.91 Z" fill="#000000" fill-rule="nonzero" fill-opacity="1" /><path clip-path="url(#clip850)" d="M2280.77 1517.37 Q2277.16 1517.37 2275.33 1520.93 Q2273.52 1524.47 2273.52 1531.6 Q2273.52 1538.71 2275.33 1542.27 Q2277.16 1545.82 2280.77 1545.82 Q2284.4 1545.82 2286.21 1542.27 Q2288.04 1538.71 2288.04 1531.6 Q2288.04 1524.47 2286.21 1520.93 Q2284.4 1517.37 2280.77 1517.37 M2280.77 1513.66 Q2286.58 1513.66 2289.63 1518.27 Q2292.71 1522.85 2292.71 1531.6 Q2292.71 1540.33 2289.63 1544.94 Q2286.58 1549.52 2280.77 1549.52 Q2274.96 1549.52 2271.88 1544.94 Q2268.82 1540.33 2268.82 1531.6 Q2268.82 1522.85 2271.88 1518.27 Q2274.96 1513.66 2280.77 1513.66 Z" fill="#000000" fill-rule="nonzero" fill-opacity="1" /><path clip-path="url(#clip850)" d="M2300.93 1542.97 L2305.81 1542.97 L2305.81 1548.85 L2300.93 1548.85 L2300.93 1542.97 Z" fill="#000000" fill-rule="nonzero" fill-opacity="1" /><path clip-path="url(#clip850)" d="M2326 1517.37 Q2322.39 1517.37 2320.56 1520.93 Q2318.75 1524.47 2318.75 1531.6 Q2318.75 1538.71 2320.56 1542.27 Q2322.39 1545.82 2326 1545.82 Q2329.63 1545.82 2331.44 1542.27 Q2333.27 1538.71 2333.27 1531.6 Q2333.27 1524.47 2331.44 1520.93 Q2329.63 1517.37 2326 1517.37 M2326 1513.66 Q2331.81 1513.66 2334.86 1518.27 Q2337.94 1522.85 2337.94 1531.6 Q2337.94 1540.33 2334.86 1544.94 Q2331.81 1549.52 2326 1549.52 Q2320.19 1549.52 2317.11 1544.94 Q2314.05 1540.33 2314.05 1531.6 Q2314.05 1522.85 2317.11 1518.27 Q2320.19 1513.66 2326 1513.66 Z" fill="#000000" fill-rule="nonzero" fill-opacity="1" /><polyline clip-path="url(#clip850)" style="stroke:#000000; stroke-linecap:round; stroke-linejoin:round; stroke-width:4; stroke-opacity:1; fill:none" points="112.177,1486.45 112.177,47.2441 "/>
<polyline clip-path="url(#clip850)" style="stroke:#000000; stroke-linecap:round; stroke-linejoin:round; stroke-width:4; stroke-opacity:1; fill:none" points="112.177,1455.17 131.075,1455.17 "/>
<polyline clip-path="url(#clip850)" style="stroke:#000000; stroke-linecap:round; stroke-linejoin:round; stroke-width:4; stroke-opacity:1; fill:none" points="112.177,1144.28 131.075,1144.28 "/>
<polyline clip-path="url(#clip850)" style="stroke:#000000; stroke-linecap:round; stroke-linejoin:round; stroke-width:4; stroke-opacity:1; fill:none" points="112.177,833.391 131.075,833.391 "/>
<polyline clip-path="url(#clip850)" style="stroke:#000000; stroke-linecap:round; stroke-linejoin:round; stroke-width:4; stroke-opacity:1; fill:none" points="112.177,522.502 131.075,522.502 "/>
<polyline clip-path="url(#clip850)" style="stroke:#000000; stroke-linecap:round; stroke-linejoin:round; stroke-width:4; stroke-opacity:1; fill:none" points="112.177,211.613 131.075,211.613 "/>
<path clip-path="url(#clip850)" d="M64.2328 1440.97 Q60.6217 1440.97 58.793 1444.53 Q56.9875 1448.07 56.9875 1455.2 Q56.9875 1462.31 58.793 1465.87 Q60.6217 1469.42 64.2328 1469.42 Q67.867 1469.42 69.6726 1465.87 Q71.5013 1462.31 71.5013 1455.2 Q71.5013 1448.07 69.6726 1444.53 Q67.867 1440.97 64.2328 1440.97 M64.2328 1437.26 Q70.0429 1437.26 73.0985 1441.87 Q76.1772 1446.45 76.1772 1455.2 Q76.1772 1463.93 73.0985 1468.54 Q70.0429 1473.12 64.2328 1473.12 Q58.4226 1473.12 55.344 1468.54 Q52.2884 1463.93 52.2884 1455.2 Q52.2884 1446.45 55.344 1441.87 Q58.4226 1437.26 64.2328 1437.26 Z" fill="#000000" fill-rule="nonzero" fill-opacity="1" /><path clip-path="url(#clip850)" d="M59.8578 1157.62 L76.1772 1157.62 L76.1772 1161.56 L54.2328 1161.56 L54.2328 1157.62 Q56.8949 1154.87 61.4782 1150.24 Q66.0846 1145.59 67.2652 1144.25 Q69.5105 1141.72 70.3902 1139.99 Q71.2929 1138.23 71.2929 1136.54 Q71.2929 1133.78 69.3485 1132.05 Q67.4272 1130.31 64.3254 1130.31 Q62.1263 1130.31 59.6726 1131.07 Q57.2421 1131.84 54.4643 1133.39 L54.4643 1128.67 Q57.2884 1127.53 59.7421 1126.95 Q62.1958 1126.37 64.2328 1126.37 Q69.6031 1126.37 72.7976 1129.06 Q75.992 1131.75 75.992 1136.24 Q75.992 1138.37 75.1818 1140.29 Q74.3948 1142.18 72.2883 1144.78 Q71.7096 1145.45 68.6078 1148.67 Q65.5059 1151.86 59.8578 1157.62 Z" fill="#000000" fill-rule="nonzero" fill-opacity="1" /><path clip-path="url(#clip850)" d="M66.5939 820.185 L54.7884 838.634 L66.5939 838.634 L66.5939 820.185 M65.367 816.111 L71.2466 816.111 L71.2466 838.634 L76.1772 838.634 L76.1772 842.523 L71.2466 842.523 L71.2466 850.671 L66.5939 850.671 L66.5939 842.523 L50.9921 842.523 L50.9921 838.009 L65.367 816.111 Z" fill="#000000" fill-rule="nonzero" fill-opacity="1" /><path clip-path="url(#clip850)" d="M64.6495 520.638 Q61.5013 520.638 59.6495 522.791 Q57.8208 524.944 57.8208 528.694 Q57.8208 532.421 59.6495 534.597 Q61.5013 536.749 64.6495 536.749 Q67.7976 536.749 69.6263 534.597 Q71.4781 532.421 71.4781 528.694 Q71.4781 524.944 69.6263 522.791 Q67.7976 520.638 64.6495 520.638 M73.9318 505.986 L73.9318 510.245 Q72.1726 509.412 70.367 508.972 Q68.5846 508.532 66.8254 508.532 Q62.1958 508.532 59.7421 511.657 Q57.3115 514.782 56.9643 521.101 Q58.33 519.088 60.3902 518.023 Q62.4504 516.935 64.9272 516.935 Q70.1355 516.935 73.1448 520.106 Q76.1772 523.254 76.1772 528.694 Q76.1772 534.018 73.029 537.236 Q69.8809 540.453 64.6495 540.453 Q58.6541 540.453 55.4828 535.87 Q52.3116 531.263 52.3116 522.537 Q52.3116 514.342 56.2004 509.481 Q60.0893 504.597 66.6402 504.597 Q68.3994 504.597 70.1818 504.944 Q71.9874 505.291 73.9318 505.986 Z" fill="#000000" fill-rule="nonzero" fill-opacity="1" /><path clip-path="url(#clip850)" d="M64.3254 212.481 Q60.9921 212.481 59.0708 214.263 Q57.1726 216.046 57.1726 219.171 Q57.1726 222.296 59.0708 224.078 Q60.9921 225.86 64.3254 225.86 Q67.6587 225.86 69.58 224.078 Q71.5013 222.273 71.5013 219.171 Q71.5013 216.046 69.58 214.263 Q67.6819 212.481 64.3254 212.481 M59.6495 210.49 Q56.6402 209.749 54.9504 207.689 Q53.2838 205.629 53.2838 202.666 Q53.2838 198.523 56.2236 196.115 Q59.1865 193.708 64.3254 193.708 Q69.4874 193.708 72.4272 196.115 Q75.367 198.523 75.367 202.666 Q75.367 205.629 73.6772 207.689 Q72.0105 209.749 69.0244 210.49 Q72.404 211.277 74.279 213.569 Q76.1772 215.861 76.1772 219.171 Q76.1772 224.194 73.0985 226.879 Q70.0429 229.564 64.3254 229.564 Q58.6078 229.564 55.5291 226.879 Q52.4736 224.194 52.4736 219.171 Q52.4736 215.861 54.3717 213.569 Q56.2699 211.277 59.6495 210.49 M57.9365 203.106 Q57.9365 205.791 59.6032 207.296 Q61.293 208.8 64.3254 208.8 Q67.3346 208.8 69.0244 207.296 Q70.7374 205.791 70.7374 203.106 Q70.7374 200.421 69.0244 198.916 Q67.3346 197.412 64.3254 197.412 Q61.293 197.412 59.6032 198.916 Q57.9365 200.421 57.9365 203.106 Z" fill="#000000" fill-rule="nonzero" fill-opacity="1" /><path clip-path="url(#clip852)" d="M175.59 1299.72 L196.727 1297.55 L217.865 1291.05 L239.002 1274.9 L260.14 1257.18 L281.277 1242.57 L302.415 1222.76 L323.553 1189.08 L344.69 1154.39 L365.828 1109.19 L386.965 1066.03 L408.103 1016.9 L429.24 983.504 L450.378 920.565 L471.515 860.934 L492.653 797.573 L513.79 741.944 L534.928 677.159 L556.065 625.165 L577.203 669.265 L598.34 683.211 L619.478 770.606 L640.616 922.239 L661.753 1057.56 L682.891 1174.8 L704.028 1250.83 L725.166 1286.76 L746.303 1317.84 L767.441 1335.47 L788.578 1339.06 L809.716 1341.48 L830.853 1348.16 L851.991 1351.95 L873.128 1351.5 L894.266 1348.37 L915.404 1343.7 L936.541 1334.23 L957.679 1321.46 L978.816 1306.41 L999.954 1286.98 L1021.09 1266.06 L1042.23 1249.94 L1063.37 1226.36 L1084.5 1202.06 L1105.64 1156.17 L1126.78 1116.79 L1147.92 1068.5 L1169.05 1011.2 L1190.19 920.728 L1211.33 865.569 L1232.47 769.205 L1253.6 692.242 L1274.74 580.741 L1295.88 584.227 L1317.02 733.243 L1338.15 883.97 L1359.29 1005.18 L1380.43 1100.97 L1401.57 1177.82 L1422.7 1237.27 L1443.84 1266.63 L1464.98 1294.81 L1486.12 1315.71 L1507.25 1340.88 L1528.39 1366.16 L1549.53 1378.9 L1570.67 1385.9 L1591.8 1386.87 L1612.94 1385.63 L1634.08 1382.76 L1655.22 1379.18 L1676.35 1372.74 L1697.49 1364.38 L1718.63 1353.55 L1739.77 1339.37 L1760.9 1327.76 L1782.04 1305.62 L1803.18 1288.59 L1824.32 1265.41 L1845.46 1233.31 L1866.59 1200.34 L1887.73 1160.4 L1908.87 1117.42 L1930.01 1058.48 L1951.14 993.955 L1972.28 987.293 L1993.42 996.044 L2014.56 971.951 L2035.69 965.595 L2056.83 1009.81 L2077.97 1072.31 L2099.11 1151.62 L2120.24 1201.41 L2141.38 1242.23 L2162.52 1267.12 L2183.66 1283.5 L2204.79 1308.79 L2225.93 1322.26 L2247.07 1344.56 L2268.21 1361.03 L2289.34 1370.35 L2289.34 903.309 L2268.21 537.057 L2247.07 292.47 L2225.93 250.753 L2204.79 305.648 L2183.66 347.723 L2162.52 361.233 L2141.38 280.416 L2120.24 209.865 L2099.11 138.5 L2077.97 87.9763 L2056.83 131.475 L2035.69 247.535 L2014.56 312.869 L1993.42 359.994 L1972.28 397.358 L1951.14 440.149 L1930.01 495.474 L1908.87 580.467 L1887.73 656.786 L1866.59 707.333 L1845.46 758.03 L1824.32 799.738 L1803.18 839.29 L1782.04 909.853 L1760.9 964.597 L1739.77 988.59 L1718.63 1036.86 L1697.49 1063.28 L1676.35 1090.17 L1655.22 1111.65 L1634.08 1151.63 L1612.94 1173.06 L1591.8 1187.56 L1570.67 1206.73 L1549.53 1220.36 L1528.39 1231.81 L1507.25 1236.14 L1486.12 1234.79 L1464.98 1186.94 L1443.84 1022.78 L1422.7 720.436 L1401.57 413.205 L1380.43 223.27 L1359.29 146.276 L1338.15 200.251 L1317.02 272.116 L1295.88 332.143 L1274.74 405.902 L1253.6 339.983 L1232.47 461.96 L1211.33 550.371 L1190.19 646.979 L1169.05 731.111 L1147.92 810.609 L1126.78 865.388 L1105.64 899.604 L1084.5 969.084 L1063.37 1023.68 L1042.23 1051.03 L1021.09 1088.55 L999.954 1132.64 L978.816 1176.64 L957.679 1205.03 L936.541 1231.12 L915.404 1253.55 L894.266 1264.39 L873.128 1271.51 L851.991 1279.14 L830.853 1275.94 L809.716 1248.32 L788.578 1220.3 L767.441 1156.69 L746.303 1062.69 L725.166 944.086 L704.028 787.117 L682.891 660.407 L661.753 520.271 L640.616 461.077 L619.478 389.605 L598.34 326.122 L577.203 327.536 L556.065 390.392 L534.928 448.706 L513.79 433.697 L492.653 527.588 L471.515 629.443 L450.378 736.139 L429.24 863.01 L408.103 886.936 L386.965 929.141 L365.828 997.14 L344.69 1077.67 L323.553 1125.07 L302.415 1170.33 L281.277 1196.79 L260.14 1212.74 L239.002 1238.83 L217.865 1252.03 L196.727 1282.12 L175.59 1299.72  Z" fill="#009af9" fill-rule="evenodd" fill-opacity="0.5"/>
<polyline clip-path="url(#clip852)" style="stroke:#009af9; stroke-linecap:round; stroke-linejoin:round; stroke-width:12; stroke-opacity:1; fill:none" points="175.59,1299.72 196.727,1290.84 217.865,1277.42 239.002,1262.28 260.14,1243.87 281.277,1220.19 302.415,1193.94 323.553,1163.23 344.69,1124.92 365.828,1078.43 386.965,1031.45 408.103,976.895 429.24,922.094 450.378,851.653 471.515,772.994 492.653,698.924 513.79,614.798 534.928,547.26 556.065,480.253 577.203,440.556 598.34,451.63 619.478,494.886 640.616,609.517 661.753,765.389 682.891,920.756 704.028,1041.92 725.166,1143.67 746.303,1206.66 767.441,1244.54 788.578,1264.49 809.716,1278.55 830.853,1284.94 851.991,1294.87 873.128,1292.5 894.266,1279.9 915.404,1274.51 936.541,1259.12 957.679,1240.61 978.816,1209.39 999.954,1174.26 1021.09,1137.73 1042.23,1104.78 1063.37,1084.72 1084.5,1040.58 1105.64,997.99 1126.78,929.467 1147.92,869.1 1169.05,793.657 1190.19,743.251 1211.33,659.308 1232.47,601.339 1253.6,521.499 1274.74,482.574 1295.88,450.655 1317.02,447.261 1338.15,520.196 1359.29,644.389 1380.43,872.094 1401.57,1012.23 1422.7,1115.91 1443.84,1188.39 1464.98,1239.6 1486.12,1285.38 1507.25,1308.95 1528.39,1321.44 1549.53,1320.66 1570.67,1317.16 1591.8,1311.51 1612.94,1311.7 1634.08,1301.86 1655.22,1292.26 1676.35,1277.38 1697.49,1257.15 1718.63,1239.91 1739.77,1215.77 1760.9,1171.44 1782.04,1129.52 1803.18,1077.51 1824.32,1054.86 1845.46,1007.28 1866.59,965.384 1887.73,897.176 1908.87,851.414 1930.01,759.23 1951.14,701.338 1972.28,615.437 1993.42,525.484 2014.56,442.314 2035.69,481.718 2056.83,603.176 2077.97,628.622 2099.11,560.685 2120.24,777.906 2141.38,976.485 2162.52,1128.08 2183.66,1183.95 2204.79,1234.19 2225.93,1287.22 2247.07,1294.24 2268.21,1294.57 2289.34,1295.88 "/>
<path clip-path="url(#clip852)" d="M175.59 1299.72 L196.727 1332.66 L217.865 1354.43 L239.002 1370.29 L260.14 1386.08 L281.277 1397.33 L302.415 1403.73 L323.553 1410.7 L344.69 1415.59 L365.828 1418.84 L386.965 1419.99 L408.103 1420.37 L429.24 1419.69 L450.378 1419.09 L471.515 1415.93 L492.653 1411.09 L513.79 1402.32 L534.928 1390.93 L556.065 1373 L577.203 1343.41 L598.34 1296.31 L619.478 1224.68 L640.616 1158.58 L661.753 1054.96 L682.891 999.776 L704.028 978.092 L725.166 1015.73 L746.303 1091.05 L767.441 1153.19 L788.578 1189.75 L809.716 1233.04 L830.853 1267.82 L851.991 1302.89 L873.128 1333.51 L894.266 1349.76 L915.404 1371.67 L936.541 1391.82 L957.679 1403.82 L978.816 1411.14 L999.954 1417.76 L1021.09 1423.58 L1042.23 1426.23 L1063.37 1430.21 L1084.5 1432.18 L1105.64 1434.11 L1126.78 1434.52 L1147.92 1434.67 L1169.05 1435.5 L1190.19 1434.31 L1211.33 1430.97 L1232.47 1427.35 L1253.6 1421.88 L1274.74 1411.2 L1295.88 1390.98 L1317.02 1362.25 L1338.15 1317.73 L1359.29 1211.12 L1380.43 1037.43 L1401.57 965.283 L1422.7 1036.06 L1443.84 1089.14 L1464.98 1131.37 L1486.12 1186.7 L1507.25 1222.93 L1528.39 1271.81 L1549.53 1305.72 L1570.67 1333.17 L1591.8 1348.15 L1612.94 1366.9 L1634.08 1374.88 L1655.22 1384.53 L1676.35 1395.98 L1697.49 1404.49 L1718.63 1414.64 L1739.77 1418.5 L1760.9 1424.57 L1782.04 1427.59 L1803.18 1429.96 L1824.32 1433.59 L1845.46 1437.38 L1866.59 1441.37 L1887.73 1443.68 L1908.87 1444.88 L1930.01 1445.61 L1951.14 1445.72 L1972.28 1445.01 L1993.42 1443.58 L2014.56 1440.02 L2035.69 1432.21 L2056.83 1418.28 L2077.97 1391.02 L2099.11 1339.6 L2120.24 1310.74 L2141.38 1323.43 L2162.52 1327.94 L2183.66 1340.32 L2204.79 1330.02 L2225.93 1293.37 L2247.07 1290.15 L2268.21 1316.65 L2289.34 1328.37 L2289.34 465.194 L2268.21 616.25 L2247.07 834.99 L2225.93 683.908 L2204.79 545.519 L2183.66 434.093 L2162.52 469.5 L2141.38 550.617 L2120.24 663.095 L2099.11 778.038 L2077.97 787.487 L2056.83 808.45 L2035.69 890.365 L2014.56 937.387 L1993.42 1036.19 L1972.28 1083.98 L1951.14 1139.25 L1930.01 1196.45 L1908.87 1243.25 L1887.73 1278.76 L1866.59 1301.79 L1845.46 1333.85 L1824.32 1350.29 L1803.18 1363.48 L1782.04 1368.62 L1760.9 1368.35 L1739.77 1377.27 L1718.63 1375.38 L1697.49 1368.54 L1676.35 1344.88 L1655.22 1307.5 L1634.08 1277.5 L1612.94 1240.54 L1591.8 1181.52 L1570.67 1114.39 L1549.53 1005.87 L1528.39 866.483 L1507.25 743.365 L1486.12 619.642 L1464.98 497.435 L1443.84 445.725 L1422.7 534.195 L1401.57 652.133 L1380.43 728.743 L1359.29 761.871 L1338.15 790.087 L1317.02 856.9 L1295.88 977.466 L1274.74 1130.59 L1253.6 1222.55 L1232.47 1295.58 L1211.33 1339.06 L1190.19 1366.61 L1169.05 1382.72 L1147.92 1392.95 L1126.78 1396.92 L1105.64 1393.18 L1084.5 1391.55 L1063.37 1386.1 L1042.23 1378.7 L1021.09 1370.5 L999.954 1362.36 L978.816 1346.2 L957.679 1329.63 L936.541 1300.16 L915.404 1274.26 L894.266 1239.5 L873.128 1198.6 L851.991 1130.54 L830.853 1044.94 L809.716 973.215 L788.578 902.051 L767.441 834.166 L746.303 778.422 L725.166 728.664 L704.028 698.997 L682.891 669.696 L661.753 707.413 L640.616 778.575 L619.478 869.062 L598.34 983.447 L577.203 1079.42 L556.065 1168.37 L534.928 1243.85 L513.79 1309 L492.653 1346.7 L471.515 1376.08 L450.378 1390.27 L429.24 1397.83 L408.103 1401.05 L386.965 1404.44 L365.828 1406.62 L344.69 1406.14 L323.553 1402.31 L302.415 1394.8 L281.277 1387.47 L260.14 1376.76 L239.002 1361.45 L217.865 1344.5 L196.727 1321.19 L175.59 1299.72  Z" fill="#e26f46" fill-rule="evenodd" fill-opacity="0.5"/>
<polyline clip-path="url(#clip852)" style="stroke:#e26f46; stroke-linecap:round; stroke-linejoin:round; stroke-width:12; stroke-opacity:1; fill:none" points="175.59,1299.72 196.727,1327.82 217.865,1349.39 239.002,1366.53 260.14,1380.62 281.277,1391.46 302.415,1399.46 323.553,1406.56 344.69,1411.21 365.828,1414.33 386.965,1415.86 408.103,1416.27 429.24,1412.69 450.378,1409.7 471.515,1403.47 492.653,1394.18 513.79,1380.87 534.928,1355.1 556.065,1315.33 577.203,1261.73 598.34,1184.25 619.478,1079.45 640.616,953.913 661.753,863.434 682.891,810.753 704.028,805.733 725.166,825.463 746.303,897.734 767.441,968.874 788.578,1049.79 809.716,1115.78 830.853,1175.02 851.991,1222.81 873.128,1262.16 894.266,1295.61 915.404,1324.78 936.541,1346.84 957.679,1364.26 978.816,1377.07 999.954,1385.66 1021.09,1392.01 1042.23,1396.65 1063.37,1400.02 1084.5,1403.74 1105.64,1406.03 1126.78,1407.42 1147.92,1406.86 1169.05,1405.82 1190.19,1399.07 1211.33,1387.2 1232.47,1366.99 1253.6,1336.22 1274.74,1291.25 1295.88,1220.07 1317.02,1112.46 1338.15,981.967 1359.29,910.631 1380.43,823.367 1401.57,766.643 1422.7,759.833 1443.84,844.374 1464.98,929.782 1486.12,1018.36 1507.25,1097.27 1528.39,1174.07 1549.53,1221.29 1570.67,1261.6 1591.8,1290.5 1612.94,1315.94 1634.08,1348.21 1655.22,1368.49 1676.35,1378.12 1697.49,1385.09 1718.63,1395.08 1739.77,1405.21 1760.9,1411.91 1782.04,1418.23 1803.18,1421.15 1824.32,1424.58 1845.46,1424.83 1866.59,1425.1 1887.73,1424.24 1908.87,1422.46 1930.01,1418.79 1951.14,1412.39 1972.28,1401.2 1993.42,1380.76 2014.56,1345.1 2035.69,1287.32 2056.83,1190.71 2077.97,1067.64 2099.11,948.003 2120.24,988.441 2141.38,939.193 2162.52,940.898 2183.66,936.084 2204.79,1011.95 2225.93,1107.61 2247.07,1068.88 2268.21,1140.64 2289.34,1204.59 "/>
</svg>
