<?xml version="1.0" encoding="utf-8"?>
<svg xmlns="http://www.w3.org/2000/svg" xmlns:xlink="http://www.w3.org/1999/xlink" width="600" height="400" viewBox="0 0 2400 1600">
<defs>
  <clipPath id="clip910">
    <rect x="0" y="0" width="2400" height="1600"/>
  </clipPath>
</defs>
<path clip-path="url(#clip910)" d="M0 1600 L2400 1600 L2400 0 L0 0  Z" fill="#ffffff" fill-rule="evenodd" fill-opacity="1"/>
<defs>
  <clipPath id="clip911">
    <rect x="480" y="0" width="1681" height="1600"/>
  </clipPath>
</defs>
<path clip-path="url(#clip910)" d="M112.177 1486.45 L2352.76 1486.45 L2352.76 47.2441 L112.177 47.2441  Z" fill="#ffffff" fill-rule="evenodd" fill-opacity="1"/>
<defs>
  <clipPath id="clip912">
    <rect x="112" y="47" width="2242" height="1440"/>
  </clipPath>
</defs>
<polyline clip-path="url(#clip912)" style="stroke:#000000; stroke-linecap:round; stroke-linejoin:round; stroke-width:2; stroke-opacity:0.1; fill:none" points="175.59,1486.45 175.59,47.2441 "/>
<polyline clip-path="url(#clip912)" style="stroke:#000000; stroke-linecap:round; stroke-linejoin:round; stroke-width:2; stroke-opacity:0.1; fill:none" points="704.028,1486.45 704.028,47.2441 "/>
<polyline clip-path="url(#clip912)" style="stroke:#000000; stroke-linecap:round; stroke-linejoin:round; stroke-width:2; stroke-opacity:0.1; fill:none" points="1232.47,1486.45 1232.47,47.2441 "/>
<polyline clip-path="url(#clip912)" style="stroke:#000000; stroke-linecap:round; stroke-linejoin:round; stroke-width:2; stroke-opacity:0.1; fill:none" points="1760.9,1486.45 1760.9,47.2441 "/>
<polyline clip-path="url(#clip912)" style="stroke:#000000; stroke-linecap:round; stroke-linejoin:round; stroke-width:2; stroke-opacity:0.1; fill:none" points="2289.34,1486.45 2289.34,47.2441 "/>
<polyline clip-path="url(#clip912)" style="stroke:#000000; stroke-linecap:round; stroke-linejoin:round; stroke-width:2; stroke-opacity:0.1; fill:none" points="112.177,1190.84 2352.76,1190.84 "/>
<polyline clip-path="url(#clip912)" style="stroke:#000000; stroke-linecap:round; stroke-linejoin:round; stroke-width:2; stroke-opacity:0.1; fill:none" points="112.177,867.335 2352.76,867.335 "/>
<polyline clip-path="url(#clip912)" style="stroke:#000000; stroke-linecap:round; stroke-linejoin:round; stroke-width:2; stroke-opacity:0.1; fill:none" points="112.177,543.826 2352.76,543.826 "/>
<polyline clip-path="url(#clip912)" style="stroke:#000000; stroke-linecap:round; stroke-linejoin:round; stroke-width:2; stroke-opacity:0.1; fill:none" points="112.177,220.317 2352.76,220.317 "/>
<polyline clip-path="url(#clip910)" style="stroke:#000000; stroke-linecap:round; stroke-linejoin:round; stroke-width:4; stroke-opacity:1; fill:none" points="112.177,1486.45 2352.76,1486.45 "/>
<polyline clip-path="url(#clip910)" style="stroke:#000000; stroke-linecap:round; stroke-linejoin:round; stroke-width:4; stroke-opacity:1; fill:none" points="175.59,1486.45 175.59,1467.55 "/>
<polyline clip-path="url(#clip910)" style="stroke:#000000; stroke-linecap:round; stroke-linejoin:round; stroke-width:4; stroke-opacity:1; fill:none" points="704.028,1486.45 704.028,1467.55 "/>
<polyline clip-path="url(#clip910)" style="stroke:#000000; stroke-linecap:round; stroke-linejoin:round; stroke-width:4; stroke-opacity:1; fill:none" points="1232.47,1486.45 1232.47,1467.55 "/>
<polyline clip-path="url(#clip910)" style="stroke:#000000; stroke-linecap:round; stroke-linejoin:round; stroke-width:4; stroke-opacity:1; fill:none" points="1760.9,1486.45 1760.9,1467.55 "/>
<polyline clip-path="url(#clip910)" style="stroke:#000000; stroke-linecap:round; stroke-linejoin:round; stroke-width:4; stroke-opacity:1; fill:none" points="2289.34,1486.45 2289.34,1467.55 "/>
<path clip-path="url(#clip910)" d="M137.893 1517.37 Q134.282 1517.37 132.453 1520.93 Q130.648 1524.47 130.648 1531.6 Q130.648 1538.71 132.453 1542.27 Q134.282 1545.82 137.893 1545.82 Q141.527 1545.82 143.333 1542.27 Q145.162 1538.71 145.162 1531.6 Q145.162 1524.47 143.333 1520.93 Q141.527 1517.37 137.893 1517.37 M137.893 1513.66 Q143.703 1513.66 146.759 1518.27 Q149.838 1522.85 149.838 1531.6 Q149.838 1540.33 146.759 1544.94 Q143.703 1549.52 137.893 1549.52 Q132.083 1549.52 129.004 1544.94 Q125.949 1540.33 125.949 1531.6 Q125.949 1522.85 129.004 1518.27 Q132.083 1513.66 137.893 1513.66 Z" fill="#000000" fill-rule="nonzero" fill-opacity="1" /><path clip-path="url(#clip910)" d="M158.055 1542.97 L162.939 1542.97 L162.939 1548.85 L158.055 1548.85 L158.055 1542.97 Z" fill="#000000" fill-rule="nonzero" fill-opacity="1" /><path clip-path="url(#clip910)" d="M183.124 1517.37 Q179.513 1517.37 177.685 1520.93 Q175.879 1524.47 175.879 1531.6 Q175.879 1538.71 177.685 1542.27 Q179.513 1545.82 183.124 1545.82 Q186.759 1545.82 188.564 1542.27 Q190.393 1538.71 190.393 1531.6 Q190.393 1524.47 188.564 1520.93 Q186.759 1517.37 183.124 1517.37 M183.124 1513.66 Q188.935 1513.66 191.99 1518.27 Q195.069 1522.85 195.069 1531.6 Q195.069 1540.33 191.99 1544.94 Q188.935 1549.52 183.124 1549.52 Q177.314 1549.52 174.236 1544.94 Q171.18 1540.33 171.18 1531.6 Q171.18 1522.85 174.236 1518.27 Q177.314 1513.66 183.124 1513.66 Z" fill="#000000" fill-rule="nonzero" fill-opacity="1" /><path clip-path="url(#clip910)" d="M213.286 1517.37 Q209.675 1517.37 207.847 1520.93 Q206.041 1524.47 206.041 1531.6 Q206.041 1538.71 207.847 1542.27 Q209.675 1545.82 213.286 1545.82 Q216.921 1545.82 218.726 1542.27 Q220.555 1538.71 220.555 1531.6 Q220.555 1524.47 218.726 1520.93 Q216.921 1517.37 213.286 1517.37 M213.286 1513.66 Q219.096 1513.66 222.152 1518.27 Q225.231 1522.85 225.231 1531.6 Q225.231 1540.33 222.152 1544.94 Q219.096 1549.52 213.286 1549.52 Q207.476 1549.52 204.397 1544.94 Q201.342 1540.33 201.342 1531.6 Q201.342 1522.85 204.397 1518.27 Q207.476 1513.66 213.286 1513.66 Z" fill="#000000" fill-rule="nonzero" fill-opacity="1" /><path clip-path="url(#clip910)" d="M666.829 1517.37 Q663.218 1517.37 661.39 1520.93 Q659.584 1524.47 659.584 1531.6 Q659.584 1538.71 661.39 1542.27 Q663.218 1545.82 666.829 1545.82 Q670.464 1545.82 672.269 1542.27 Q674.098 1538.71 674.098 1531.6 Q674.098 1524.47 672.269 1520.93 Q670.464 1517.37 666.829 1517.37 M666.829 1513.66 Q672.639 1513.66 675.695 1518.27 Q678.774 1522.85 678.774 1531.6 Q678.774 1540.33 675.695 1544.94 Q672.639 1549.52 666.829 1549.52 Q661.019 1549.52 657.94 1544.94 Q654.885 1540.33 654.885 1531.6 Q654.885 1522.85 657.94 1518.27 Q661.019 1513.66 666.829 1513.66 Z" fill="#000000" fill-rule="nonzero" fill-opacity="1" /><path clip-path="url(#clip910)" d="M686.991 1542.97 L691.875 1542.97 L691.875 1548.85 L686.991 1548.85 L686.991 1542.97 Z" fill="#000000" fill-rule="nonzero" fill-opacity="1" /><path clip-path="url(#clip910)" d="M706.088 1544.91 L722.408 1544.91 L722.408 1548.85 L700.463 1548.85 L700.463 1544.91 Q703.125 1542.16 707.709 1537.53 Q712.315 1532.88 713.496 1531.53 Q715.741 1529.01 716.621 1527.27 Q717.523 1525.51 717.523 1523.82 Q717.523 1521.07 715.579 1519.33 Q713.658 1517.6 710.556 1517.6 Q708.357 1517.6 705.903 1518.36 Q703.473 1519.13 700.695 1520.68 L700.695 1515.95 Q703.519 1514.82 705.973 1514.24 Q708.426 1513.66 710.463 1513.66 Q715.834 1513.66 719.028 1516.35 Q722.223 1519.03 722.223 1523.52 Q722.223 1525.65 721.412 1527.57 Q720.625 1529.47 718.519 1532.07 Q717.94 1532.74 714.838 1535.95 Q711.736 1539.15 706.088 1544.91 Z" fill="#000000" fill-rule="nonzero" fill-opacity="1" /><path clip-path="url(#clip910)" d="M732.269 1514.29 L750.625 1514.29 L750.625 1518.22 L736.551 1518.22 L736.551 1526.7 Q737.57 1526.35 738.588 1526.19 Q739.607 1526 740.625 1526 Q746.412 1526 749.792 1529.17 Q753.171 1532.34 753.171 1537.76 Q753.171 1543.34 749.699 1546.44 Q746.227 1549.52 739.908 1549.52 Q737.732 1549.52 735.463 1549.15 Q733.218 1548.78 730.81 1548.04 L730.81 1543.34 Q732.894 1544.47 735.116 1545.03 Q737.338 1545.58 739.815 1545.58 Q743.82 1545.58 746.158 1543.48 Q748.496 1541.37 748.496 1537.76 Q748.496 1534.15 746.158 1532.04 Q743.82 1529.94 739.815 1529.94 Q737.94 1529.94 736.065 1530.35 Q734.213 1530.77 732.269 1531.65 L732.269 1514.29 Z" fill="#000000" fill-rule="nonzero" fill-opacity="1" /><path clip-path="url(#clip910)" d="M1194.77 1517.37 Q1191.16 1517.37 1189.33 1520.93 Q1187.52 1524.47 1187.52 1531.6 Q1187.52 1538.71 1189.33 1542.27 Q1191.16 1545.82 1194.77 1545.82 Q1198.4 1545.82 1200.21 1542.27 Q1202.04 1538.71 1202.04 1531.6 Q1202.04 1524.47 1200.21 1520.93 Q1198.4 1517.37 1194.77 1517.37 M1194.77 1513.66 Q1200.58 1513.66 1203.64 1518.27 Q1206.71 1522.85 1206.71 1531.6 Q1206.71 1540.33 1203.64 1544.94 Q1200.58 1549.52 1194.77 1549.52 Q1188.96 1549.52 1185.88 1544.94 Q1182.83 1540.33 1182.83 1531.6 Q1182.83 1522.85 1185.88 1518.27 Q1188.96 1513.66 1194.77 1513.66 Z" fill="#000000" fill-rule="nonzero" fill-opacity="1" /><path clip-path="url(#clip910)" d="M1214.93 1542.97 L1219.82 1542.97 L1219.82 1548.85 L1214.93 1548.85 L1214.93 1542.97 Z" fill="#000000" fill-rule="nonzero" fill-opacity="1" /><path clip-path="url(#clip910)" d="M1230.05 1514.29 L1248.4 1514.29 L1248.4 1518.22 L1234.33 1518.22 L1234.33 1526.7 Q1235.35 1526.35 1236.37 1526.19 Q1237.39 1526 1238.4 1526 Q1244.19 1526 1247.57 1529.17 Q1250.95 1532.34 1250.95 1537.76 Q1250.95 1543.34 1247.48 1546.44 Q1244.01 1549.52 1237.69 1549.52 Q1235.51 1549.52 1233.24 1549.15 Q1231 1548.78 1228.59 1548.04 L1228.59 1543.34 Q1230.67 1544.47 1232.89 1545.03 Q1235.12 1545.58 1237.59 1545.58 Q1241.6 1545.58 1243.94 1543.48 Q1246.27 1541.37 1246.27 1537.76 Q1246.27 1534.15 1243.94 1532.04 Q1241.6 1529.94 1237.59 1529.94 Q1235.72 1529.94 1233.84 1530.35 Q1231.99 1530.77 1230.05 1531.65 L1230.05 1514.29 Z" fill="#000000" fill-rule="nonzero" fill-opacity="1" /><path clip-path="url(#clip910)" d="M1270.16 1517.37 Q1266.55 1517.37 1264.72 1520.93 Q1262.92 1524.47 1262.92 1531.6 Q1262.92 1538.71 1264.72 1542.27 Q1266.55 1545.82 1270.16 1545.82 Q1273.8 1545.82 1275.6 1542.27 Q1277.43 1538.71 1277.43 1531.6 Q1277.43 1524.47 1275.6 1520.93 Q1273.8 1517.37 1270.16 1517.37 M1270.16 1513.66 Q1275.97 1513.66 1279.03 1518.27 Q1282.11 1522.85 1282.11 1531.6 Q1282.11 1540.33 1279.03 1544.94 Q1275.97 1549.52 1270.16 1549.52 Q1264.35 1549.52 1261.27 1544.94 Q1258.22 1540.33 1258.22 1531.6 Q1258.22 1522.85 1261.27 1518.27 Q1264.35 1513.66 1270.16 1513.66 Z" fill="#000000" fill-rule="nonzero" fill-opacity="1" /><path clip-path="url(#clip910)" d="M1723.71 1517.37 Q1720.09 1517.37 1718.27 1520.93 Q1716.46 1524.47 1716.46 1531.6 Q1716.46 1538.71 1718.27 1542.27 Q1720.09 1545.82 1723.71 1545.82 Q1727.34 1545.82 1729.15 1542.27 Q1730.97 1538.71 1730.97 1531.6 Q1730.97 1524.47 1729.15 1520.93 Q1727.34 1517.37 1723.71 1517.37 M1723.71 1513.66 Q1729.52 1513.66 1732.57 1518.27 Q1735.65 1522.85 1735.65 1531.6 Q1735.65 1540.33 1732.57 1544.94 Q1729.52 1549.52 1723.71 1549.52 Q1717.9 1549.52 1714.82 1544.94 Q1711.76 1540.33 1711.76 1531.6 Q1711.76 1522.85 1714.82 1518.27 Q1717.9 1513.66 1723.71 1513.66 Z" fill="#000000" fill-rule="nonzero" fill-opacity="1" /><path clip-path="url(#clip910)" d="M1743.87 1542.97 L1748.75 1542.97 L1748.75 1548.85 L1743.87 1548.85 L1743.87 1542.97 Z" fill="#000000" fill-rule="nonzero" fill-opacity="1" /><path clip-path="url(#clip910)" d="M1757.76 1514.29 L1779.98 1514.29 L1779.98 1516.28 L1767.43 1548.85 L1762.55 1548.85 L1774.35 1518.22 L1757.76 1518.22 L1757.76 1514.29 Z" fill="#000000" fill-rule="nonzero" fill-opacity="1" /><path clip-path="url(#clip910)" d="M1789.15 1514.29 L1807.5 1514.29 L1807.5 1518.22 L1793.43 1518.22 L1793.43 1526.7 Q1794.45 1526.35 1795.46 1526.19 Q1796.48 1526 1797.5 1526 Q1803.29 1526 1806.67 1529.17 Q1810.05 1532.34 1810.05 1537.76 Q1810.05 1543.34 1806.58 1546.44 Q1803.1 1549.52 1796.78 1549.52 Q1794.61 1549.52 1792.34 1549.15 Q1790.09 1548.78 1787.69 1548.04 L1787.69 1543.34 Q1789.77 1544.47 1791.99 1545.03 Q1794.21 1545.58 1796.69 1545.58 Q1800.7 1545.58 1803.03 1543.48 Q1805.37 1541.37 1805.37 1537.76 Q1805.37 1534.15 1803.03 1532.04 Q1800.7 1529.94 1796.69 1529.94 Q1794.82 1529.94 1792.94 1530.35 Q1791.09 1530.77 1789.15 1531.65 L1789.15 1514.29 Z" fill="#000000" fill-rule="nonzero" fill-opacity="1" /><path clip-path="url(#clip910)" d="M2241.42 1544.91 L2249.05 1544.91 L2249.05 1518.55 L2240.74 1520.21 L2240.74 1515.95 L2249.01 1514.29 L2253.68 1514.29 L2253.68 1544.91 L2261.32 1544.91 L2261.32 1548.85 L2241.42 1548.85 L2241.42 1544.91 Z" fill="#000000" fill-rule="nonzero" fill-opacity="1" /><path clip-path="url(#clip910)" d="M2270.77 1542.97 L2275.65 1542.97 L2275.65 1548.85 L2270.77 1548.85 L2270.77 1542.97 Z" fill="#000000" fill-rule="nonzero" fill-opacity="1" /><path clip-path="url(#clip910)" d="M2295.84 1517.37 Q2292.23 1517.37 2290.4 1520.93 Q2288.59 1524.47 2288.59 1531.6 Q2288.59 1538.71 2290.4 1542.27 Q2292.23 1545.82 2295.84 1545.82 Q2299.47 1545.82 2301.28 1542.27 Q2303.1 1538.71 2303.1 1531.6 Q2303.1 1524.47 2301.28 1520.93 Q2299.47 1517.37 2295.84 1517.37 M2295.84 1513.66 Q2301.65 1513.66 2304.7 1518.27 Q2307.78 1522.85 2307.78 1531.6 Q2307.78 1540.33 2304.7 1544.94 Q2301.65 1549.52 2295.84 1549.52 Q2290.03 1549.52 2286.95 1544.94 Q2283.89 1540.33 2283.89 1531.6 Q2283.89 1522.85 2286.95 1518.27 Q2290.03 1513.66 2295.84 1513.66 Z" fill="#000000" fill-rule="nonzero" fill-opacity="1" /><path clip-path="url(#clip910)" d="M2326 1517.37 Q2322.39 1517.37 2320.56 1520.93 Q2318.75 1524.47 2318.75 1531.6 Q2318.75 1538.71 2320.56 1542.27 Q2322.39 1545.82 2326 1545.82 Q2329.63 1545.82 2331.44 1542.27 Q2333.27 1538.71 2333.27 1531.6 Q2333.27 1524.47 2331.44 1520.93 Q2329.63 1517.37 2326 1517.37 M2326 1513.66 Q2331.81 1513.66 2334.86 1518.27 Q2337.94 1522.85 2337.94 1531.6 Q2337.94 1540.33 2334.86 1544.94 Q2331.81 1549.52 2326 1549.52 Q2320.19 1549.52 2317.11 1544.94 Q2314.05 1540.33 2314.05 1531.6 Q2314.05 1522.85 2317.11 1518.27 Q2320.19 1513.66 2326 1513.66 Z" fill="#000000" fill-rule="nonzero" fill-opacity="1" /><polyline clip-path="url(#clip910)" style="stroke:#000000; stroke-linecap:round; stroke-linejoin:round; stroke-width:4; stroke-opacity:1; fill:none" points="112.177,1486.45 112.177,47.2441 "/>
<polyline clip-path="url(#clip910)" style="stroke:#000000; stroke-linecap:round; stroke-linejoin:round; stroke-width:4; stroke-opacity:1; fill:none" points="112.177,1190.84 131.075,1190.84 "/>
<polyline clip-path="url(#clip910)" style="stroke:#000000; stroke-linecap:round; stroke-linejoin:round; stroke-width:4; stroke-opacity:1; fill:none" points="112.177,867.335 131.075,867.335 "/>
<polyline clip-path="url(#clip910)" style="stroke:#000000; stroke-linecap:round; stroke-linejoin:round; stroke-width:4; stroke-opacity:1; fill:none" points="112.177,543.826 131.075,543.826 "/>
<polyline clip-path="url(#clip910)" style="stroke:#000000; stroke-linecap:round; stroke-linejoin:round; stroke-width:4; stroke-opacity:1; fill:none" points="112.177,220.317 131.075,220.317 "/>
<path clip-path="url(#clip910)" d="M56.2699 1204.19 L63.9087 1204.19 L63.9087 1177.82 L55.5986 1179.49 L55.5986 1175.23 L63.8624 1173.56 L68.5383 1173.56 L68.5383 1204.19 L76.1772 1204.19 L76.1772 1208.12 L56.2699 1208.12 L56.2699 1204.19 Z" fill="#000000" fill-rule="nonzero" fill-opacity="1" /><path clip-path="url(#clip910)" d="M59.8578 880.679 L76.1772 880.679 L76.1772 884.615 L54.2328 884.615 L54.2328 880.679 Q56.8949 877.925 61.4782 873.295 Q66.0846 868.643 67.2652 867.3 Q69.5105 864.777 70.3902 863.041 Q71.2929 861.281 71.2929 859.592 Q71.2929 856.837 69.3485 855.101 Q67.4272 853.365 64.3254 853.365 Q62.1263 853.365 59.6726 854.129 Q57.2421 854.893 54.4643 856.443 L54.4643 851.721 Q57.2884 850.587 59.7421 850.008 Q62.1958 849.43 64.2328 849.43 Q69.6031 849.43 72.7976 852.115 Q75.992 854.8 75.992 859.291 Q75.992 861.42 75.1818 863.342 Q74.3948 865.24 72.2883 867.832 Q71.7096 868.504 68.6078 871.721 Q65.5059 874.916 59.8578 880.679 Z" fill="#000000" fill-rule="nonzero" fill-opacity="1" /><path clip-path="url(#clip910)" d="M69.0476 542.471 Q72.404 543.189 74.279 545.458 Q76.1772 547.726 76.1772 551.059 Q76.1772 556.175 72.6587 558.976 Q69.1402 561.777 62.6587 561.777 Q60.4828 561.777 58.168 561.337 Q55.8764 560.92 53.4227 560.064 L53.4227 555.55 Q55.3671 556.684 57.6819 557.263 Q59.9967 557.842 62.5198 557.842 Q66.918 557.842 69.2096 556.106 Q71.5244 554.369 71.5244 551.059 Q71.5244 548.004 69.3717 546.291 Q67.242 544.555 63.4226 544.555 L59.3949 544.555 L59.3949 540.712 L63.6078 540.712 Q67.0569 540.712 68.8855 539.346 Q70.7142 537.958 70.7142 535.365 Q70.7142 532.703 68.8161 531.291 Q66.9411 529.856 63.4226 529.856 Q61.5013 529.856 59.3023 530.272 Q57.1032 530.689 54.4643 531.569 L54.4643 527.402 Q57.1264 526.661 59.4412 526.291 Q61.7791 525.921 63.8393 525.921 Q69.1633 525.921 72.2652 528.351 Q75.367 530.759 75.367 534.879 Q75.367 537.749 73.7235 539.74 Q72.08 541.708 69.0476 542.471 Z" fill="#000000" fill-rule="nonzero" fill-opacity="1" /><path clip-path="url(#clip910)" d="M66.5939 207.111 L54.7884 225.56 L66.5939 225.56 L66.5939 207.111 M65.367 203.037 L71.2466 203.037 L71.2466 225.56 L76.1772 225.56 L76.1772 229.448 L71.2466 229.448 L71.2466 237.597 L66.5939 237.597 L66.5939 229.448 L50.9921 229.448 L50.9921 224.935 L65.367 203.037 Z" fill="#000000" fill-rule="nonzero" fill-opacity="1" /><polyline clip-path="url(#clip912)" style="stroke:#009af9; stroke-linecap:round; stroke-linejoin:round; stroke-width:12; stroke-opacity:1; fill:none" points="175.59,1352.6 386.965,1349.03 598.34,1312.42 809.716,1298.56 1021.09,1299.16 1232.47,1304.62 1443.84,1298.38 1655.22,1317.77 1866.59,1303.22 2077.97,1287.41 2289.34,1251.49 "/>
<polyline clip-path="url(#clip912)" style="stroke:#000000; stroke-linecap:round; stroke-linejoin:round; stroke-width:12; stroke-opacity:1; fill:none" points="175.59,1352.6 175.59,1352.6 "/>
<polyline clip-path="url(#clip912)" style="stroke:#000000; stroke-linecap:round; stroke-linejoin:round; stroke-width:12; stroke-opacity:1; fill:none" points="386.965,1374.24 386.965,1258.65 "/>
<polyline clip-path="url(#clip912)" style="stroke:#000000; stroke-linecap:round; stroke-linejoin:round; stroke-width:12; stroke-opacity:1; fill:none" points="598.34,1393.88 598.34,1167.53 "/>
<polyline clip-path="url(#clip912)" style="stroke:#000000; stroke-linecap:round; stroke-linejoin:round; stroke-width:12; stroke-opacity:1; fill:none" points="809.716,1401.47 809.716,1134.86 "/>
<polyline clip-path="url(#clip912)" style="stroke:#000000; stroke-linecap:round; stroke-linejoin:round; stroke-width:12; stroke-opacity:1; fill:none" points="1021.09,1401.66 1021.09,1137.17 "/>
<polyline clip-path="url(#clip912)" style="stroke:#000000; stroke-linecap:round; stroke-linejoin:round; stroke-width:12; stroke-opacity:1; fill:none" points="1232.47,1412.69 1232.47,977.105 "/>
<polyline clip-path="url(#clip912)" style="stroke:#000000; stroke-linecap:round; stroke-linejoin:round; stroke-width:12; stroke-opacity:1; fill:none" points="1443.84,1408.05 1443.84,895.217 "/>
<polyline clip-path="url(#clip912)" style="stroke:#000000; stroke-linecap:round; stroke-linejoin:round; stroke-width:12; stroke-opacity:1; fill:none" points="1655.22,1437.17 1655.22,810.915 "/>
<polyline clip-path="url(#clip912)" style="stroke:#000000; stroke-linecap:round; stroke-linejoin:round; stroke-width:12; stroke-opacity:1; fill:none" points="1866.59,1445.72 1866.59,791.566 "/>
<polyline clip-path="url(#clip912)" style="stroke:#000000; stroke-linecap:round; stroke-linejoin:round; stroke-width:12; stroke-opacity:1; fill:none" points="2077.97,1437.77 2077.97,726.647 "/>
<polyline clip-path="url(#clip912)" style="stroke:#000000; stroke-linecap:round; stroke-linejoin:round; stroke-width:12; stroke-opacity:1; fill:none" points="2289.34,1437.57 2289.34,409.967 "/>
<line clip-path="url(#clip912)" x1="191.59" y1="1352.6" x2="159.59" y2="1352.6" style="stroke:#000000; stroke-width:12; stroke-opacity:1"/>
<line clip-path="url(#clip912)" x1="191.59" y1="1352.6" x2="159.59" y2="1352.6" style="stroke:#000000; stroke-width:12; stroke-opacity:1"/>
<line clip-path="url(#clip912)" x1="402.965" y1="1374.24" x2="370.965" y2="1374.24" style="stroke:#000000; stroke-width:12; stroke-opacity:1"/>
<line clip-path="url(#clip912)" x1="402.965" y1="1258.65" x2="370.965" y2="1258.65" style="stroke:#000000; stroke-width:12; stroke-opacity:1"/>
<line clip-path="url(#clip912)" x1="614.34" y1="1393.88" x2="582.34" y2="1393.88" style="stroke:#000000; stroke-width:12; stroke-opacity:1"/>
<line clip-path="url(#clip912)" x1="614.34" y1="1167.53" x2="582.34" y2="1167.53" style="stroke:#000000; stroke-width:12; stroke-opacity:1"/>
<line clip-path="url(#clip912)" x1="825.716" y1="1401.47" x2="793.716" y2="1401.47" style="stroke:#000000; stroke-width:12; stroke-opacity:1"/>
<line clip-path="url(#clip912)" x1="825.716" y1="1134.86" x2="793.716" y2="1134.86" style="stroke:#000000; stroke-width:12; stroke-opacity:1"/>
<line clip-path="url(#clip912)" x1="1037.09" y1="1401.66" x2="1005.09" y2="1401.66" style="stroke:#000000; stroke-width:12; stroke-opacity:1"/>
<line clip-path="url(#clip912)" x1="1037.09" y1="1137.17" x2="1005.09" y2="1137.17" style="stroke:#000000; stroke-width:12; stroke-opacity:1"/>
<line clip-path="url(#clip912)" x1="1248.47" y1="1412.69" x2="1216.47" y2="1412.69" style="stroke:#000000; stroke-width:12; stroke-opacity:1"/>
<line clip-path="url(#clip912)" x1="1248.47" y1="977.105" x2="1216.47" y2="977.105" style="stroke:#000000; stroke-width:12; stroke-opacity:1"/>
<line clip-path="url(#clip912)" x1="1459.84" y1="1408.05" x2="1427.84" y2="1408.05" style="stroke:#000000; stroke-width:12; stroke-opacity:1"/>
<line clip-path="url(#clip912)" x1="1459.84" y1="895.217" x2="1427.84" y2="895.217" style="stroke:#000000; stroke-width:12; stroke-opacity:1"/>
<line clip-path="url(#clip912)" x1="1671.22" y1="1437.17" x2="1639.22" y2="1437.17" style="stroke:#000000; stroke-width:12; stroke-opacity:1"/>
<line clip-path="url(#clip912)" x1="1671.22" y1="810.915" x2="1639.22" y2="810.915" style="stroke:#000000; stroke-width:12; stroke-opacity:1"/>
<line clip-path="url(#clip912)" x1="1882.59" y1="1445.72" x2="1850.59" y2="1445.72" style="stroke:#000000; stroke-width:12; stroke-opacity:1"/>
<line clip-path="url(#clip912)" x1="1882.59" y1="791.566" x2="1850.59" y2="791.566" style="stroke:#000000; stroke-width:12; stroke-opacity:1"/>
<line clip-path="url(#clip912)" x1="2093.97" y1="1437.77" x2="2061.97" y2="1437.77" style="stroke:#000000; stroke-width:12; stroke-opacity:1"/>
<line clip-path="url(#clip912)" x1="2093.97" y1="726.647" x2="2061.97" y2="726.647" style="stroke:#000000; stroke-width:12; stroke-opacity:1"/>
<line clip-path="url(#clip912)" x1="2305.34" y1="1437.57" x2="2273.34" y2="1437.57" style="stroke:#000000; stroke-width:12; stroke-opacity:1"/>
<line clip-path="url(#clip912)" x1="2305.34" y1="409.967" x2="2273.34" y2="409.967" style="stroke:#000000; stroke-width:12; stroke-opacity:1"/>
<polyline clip-path="url(#clip912)" style="stroke:#e26f46; stroke-linecap:round; stroke-linejoin:round; stroke-width:12; stroke-opacity:1; fill:none" points="175.59,1352.6 386.965,1331.34 598.34,1336.48 809.716,1302.03 1021.09,1234.53 1232.47,1173.44 1443.84,1047.05 1655.22,949.619 1866.59,967.634 2077.97,1024.4 2289.34,1048.65 "/>
<polyline clip-path="url(#clip912)" style="stroke:#000000; stroke-linecap:round; stroke-linejoin:round; stroke-width:12; stroke-opacity:1; fill:none" points="175.59,1352.6 175.59,1352.6 "/>
<polyline clip-path="url(#clip912)" style="stroke:#000000; stroke-linecap:round; stroke-linejoin:round; stroke-width:12; stroke-opacity:1; fill:none" points="386.965,1390.24 386.965,1273.11 "/>
<polyline clip-path="url(#clip912)" style="stroke:#000000; stroke-linecap:round; stroke-linejoin:round; stroke-width:12; stroke-opacity:1; fill:none" points="598.34,1386.97 598.34,1195.15 "/>
<polyline clip-path="url(#clip912)" style="stroke:#000000; stroke-linecap:round; stroke-linejoin:round; stroke-width:12; stroke-opacity:1; fill:none" points="809.716,1422.38 809.716,1164.97 "/>
<polyline clip-path="url(#clip912)" style="stroke:#000000; stroke-linecap:round; stroke-linejoin:round; stroke-width:12; stroke-opacity:1; fill:none" points="1021.09,1422.07 1021.09,1120.99 "/>
<polyline clip-path="url(#clip912)" style="stroke:#000000; stroke-linecap:round; stroke-linejoin:round; stroke-width:12; stroke-opacity:1; fill:none" points="1232.47,1395.24 1232.47,942.469 "/>
<polyline clip-path="url(#clip912)" style="stroke:#000000; stroke-linecap:round; stroke-linejoin:round; stroke-width:12; stroke-opacity:1; fill:none" points="1443.84,1336.68 1443.84,907.5 "/>
<polyline clip-path="url(#clip912)" style="stroke:#000000; stroke-linecap:round; stroke-linejoin:round; stroke-width:12; stroke-opacity:1; fill:none" points="1655.22,1321.24 1655.22,785.356 "/>
<polyline clip-path="url(#clip912)" style="stroke:#000000; stroke-linecap:round; stroke-linejoin:round; stroke-width:12; stroke-opacity:1; fill:none" points="1866.59,1297.59 1866.59,618.289 "/>
<polyline clip-path="url(#clip912)" style="stroke:#000000; stroke-linecap:round; stroke-linejoin:round; stroke-width:12; stroke-opacity:1; fill:none" points="2077.97,1286.6 2077.97,367.305 "/>
<polyline clip-path="url(#clip912)" style="stroke:#000000; stroke-linecap:round; stroke-linejoin:round; stroke-width:12; stroke-opacity:1; fill:none" points="2289.34,1239.31 2289.34,87.9763 "/>
<line clip-path="url(#clip912)" x1="191.59" y1="1352.6" x2="159.59" y2="1352.6" style="stroke:#000000; stroke-width:12; stroke-opacity:1"/>
<line clip-path="url(#clip912)" x1="191.59" y1="1352.6" x2="159.59" y2="1352.6" style="stroke:#000000; stroke-width:12; stroke-opacity:1"/>
<line clip-path="url(#clip912)" x1="402.965" y1="1390.24" x2="370.965" y2="1390.24" style="stroke:#000000; stroke-width:12; stroke-opacity:1"/>
<line clip-path="url(#clip912)" x1="402.965" y1="1273.11" x2="370.965" y2="1273.11" style="stroke:#000000; stroke-width:12; stroke-opacity:1"/>
<line clip-path="url(#clip912)" x1="614.34" y1="1386.97" x2="582.34" y2="1386.97" style="stroke:#000000; stroke-width:12; stroke-opacity:1"/>
<line clip-path="url(#clip912)" x1="614.34" y1="1195.15" x2="582.34" y2="1195.15" style="stroke:#000000; stroke-width:12; stroke-opacity:1"/>
<line clip-path="url(#clip912)" x1="825.716" y1="1422.38" x2="793.716" y2="1422.38" style="stroke:#000000; stroke-width:12; stroke-opacity:1"/>
<line clip-path="url(#clip912)" x1="825.716" y1="1164.97" x2="793.716" y2="1164.97" style="stroke:#000000; stroke-width:12; stroke-opacity:1"/>
<line clip-path="url(#clip912)" x1="1037.09" y1="1422.07" x2="1005.09" y2="1422.07" style="stroke:#000000; stroke-width:12; stroke-opacity:1"/>
<line clip-path="url(#clip912)" x1="1037.09" y1="1120.99" x2="1005.09" y2="1120.99" style="stroke:#000000; stroke-width:12; stroke-opacity:1"/>
<line clip-path="url(#clip912)" x1="1248.47" y1="1395.24" x2="1216.47" y2="1395.24" style="stroke:#000000; stroke-width:12; stroke-opacity:1"/>
<line clip-path="url(#clip912)" x1="1248.47" y1="942.469" x2="1216.47" y2="942.469" style="stroke:#000000; stroke-width:12; stroke-opacity:1"/>
<line clip-path="url(#clip912)" x1="1459.84" y1="1336.68" x2="1427.84" y2="1336.68" style="stroke:#000000; stroke-width:12; stroke-opacity:1"/>
<line clip-path="url(#clip912)" x1="1459.84" y1="907.5" x2="1427.84" y2="907.5" style="stroke:#000000; stroke-width:12; stroke-opacity:1"/>
<line clip-path="url(#clip912)" x1="1671.22" y1="1321.24" x2="1639.22" y2="1321.24" style="stroke:#000000; stroke-width:12; stroke-opacity:1"/>
<line clip-path="url(#clip912)" x1="1671.22" y1="785.356" x2="1639.22" y2="785.356" style="stroke:#000000; stroke-width:12; stroke-opacity:1"/>
<line clip-path="url(#clip912)" x1="1882.59" y1="1297.59" x2="1850.59" y2="1297.59" style="stroke:#000000; stroke-width:12; stroke-opacity:1"/>
<line clip-path="url(#clip912)" x1="1882.59" y1="618.289" x2="1850.59" y2="618.289" style="stroke:#000000; stroke-width:12; stroke-opacity:1"/>
<line clip-path="url(#clip912)" x1="2093.97" y1="1286.6" x2="2061.97" y2="1286.6" style="stroke:#000000; stroke-width:12; stroke-opacity:1"/>
<line clip-path="url(#clip912)" x1="2093.97" y1="367.305" x2="2061.97" y2="367.305" style="stroke:#000000; stroke-width:12; stroke-opacity:1"/>
<line clip-path="url(#clip912)" x1="2305.34" y1="1239.31" x2="2273.34" y2="1239.31" style="stroke:#000000; stroke-width:12; stroke-opacity:1"/>
<line clip-path="url(#clip912)" x1="2305.34" y1="87.9763" x2="2273.34" y2="87.9763" style="stroke:#000000; stroke-width:12; stroke-opacity:1"/>
</svg>
