<?xml version="1.0" encoding="utf-8"?>
<svg xmlns="http://www.w3.org/2000/svg" xmlns:xlink="http://www.w3.org/1999/xlink" width="600" height="400" viewBox="0 0 2400 1600">
<defs>
  <clipPath id="clip190">
    <rect x="0" y="0" width="2400" height="1600"/>
  </clipPath>
</defs>
<path clip-path="url(#clip190)" d="M0 1600 L2400 1600 L2400 0 L0 0  Z" fill="#ffffff" fill-rule="evenodd" fill-opacity="1"/>
<defs>
  <clipPath id="clip191">
    <rect x="480" y="0" width="1681" height="1600"/>
  </clipPath>
</defs>
<path clip-path="url(#clip190)" d="M246.598 1423.18 L2352.76 1423.18 L2352.76 47.2441 L246.598 47.2441  Z" fill="#ffffff" fill-rule="evenodd" fill-opacity="1"/>
<defs>
  <clipPath id="clip192">
    <rect x="246" y="47" width="2107" height="1377"/>
  </clipPath>
</defs>
<polyline clip-path="url(#clip192)" style="stroke:#000000; stroke-linecap:round; stroke-linejoin:round; stroke-width:2; stroke-opacity:0.1; fill:none" points="246.598,1423.18 246.598,47.2441 "/>
<polyline clip-path="url(#clip192)" style="stroke:#000000; stroke-linecap:round; stroke-linejoin:round; stroke-width:2; stroke-opacity:0.1; fill:none" points="547.477,1423.18 547.477,47.2441 "/>
<polyline clip-path="url(#clip192)" style="stroke:#000000; stroke-linecap:round; stroke-linejoin:round; stroke-width:2; stroke-opacity:0.1; fill:none" points="848.357,1423.18 848.357,47.2441 "/>
<polyline clip-path="url(#clip192)" style="stroke:#000000; stroke-linecap:round; stroke-linejoin:round; stroke-width:2; stroke-opacity:0.1; fill:none" points="1149.24,1423.18 1149.24,47.2441 "/>
<polyline clip-path="url(#clip192)" style="stroke:#000000; stroke-linecap:round; stroke-linejoin:round; stroke-width:2; stroke-opacity:0.1; fill:none" points="1450.12,1423.18 1450.12,47.2441 "/>
<polyline clip-path="url(#clip192)" style="stroke:#000000; stroke-linecap:round; stroke-linejoin:round; stroke-width:2; stroke-opacity:0.1; fill:none" points="1751,1423.18 1751,47.2441 "/>
<polyline clip-path="url(#clip192)" style="stroke:#000000; stroke-linecap:round; stroke-linejoin:round; stroke-width:2; stroke-opacity:0.1; fill:none" points="2051.88,1423.18 2051.88,47.2441 "/>
<polyline clip-path="url(#clip192)" style="stroke:#000000; stroke-linecap:round; stroke-linejoin:round; stroke-width:2; stroke-opacity:0.1; fill:none" points="2352.76,1423.18 2352.76,47.2441 "/>
<polyline clip-path="url(#clip192)" style="stroke:#000000; stroke-linecap:round; stroke-linejoin:round; stroke-width:2; stroke-opacity:0.1; fill:none" points="246.598,1384.24 2352.76,1384.24 "/>
<polyline clip-path="url(#clip192)" style="stroke:#000000; stroke-linecap:round; stroke-linejoin:round; stroke-width:2; stroke-opacity:0.1; fill:none" points="246.598,1124.15 2352.76,1124.15 "/>
<polyline clip-path="url(#clip192)" style="stroke:#000000; stroke-linecap:round; stroke-linejoin:round; stroke-width:2; stroke-opacity:0.1; fill:none" points="246.598,864.065 2352.76,864.065 "/>
<polyline clip-path="url(#clip192)" style="stroke:#000000; stroke-linecap:round; stroke-linejoin:round; stroke-width:2; stroke-opacity:0.1; fill:none" points="246.598,603.978 2352.76,603.978 "/>
<polyline clip-path="url(#clip192)" style="stroke:#000000; stroke-linecap:round; stroke-linejoin:round; stroke-width:2; stroke-opacity:0.1; fill:none" points="246.598,343.891 2352.76,343.891 "/>
<polyline clip-path="url(#clip192)" style="stroke:#000000; stroke-linecap:round; stroke-linejoin:round; stroke-width:2; stroke-opacity:0.1; fill:none" points="246.598,83.8048 2352.76,83.8048 "/>
<polyline clip-path="url(#clip190)" style="stroke:#000000; stroke-linecap:round; stroke-linejoin:round; stroke-width:4; stroke-opacity:1; fill:none" points="246.598,1423.18 2352.76,1423.18 "/>
<polyline clip-path="url(#clip190)" style="stroke:#000000; stroke-linecap:round; stroke-linejoin:round; stroke-width:4; stroke-opacity:1; fill:none" points="246.598,1423.18 246.598,1404.28 "/>
<polyline clip-path="url(#clip190)" style="stroke:#000000; stroke-linecap:round; stroke-linejoin:round; stroke-width:4; stroke-opacity:1; fill:none" points="547.477,1423.18 547.477,1404.28 "/>
<polyline clip-path="url(#clip190)" style="stroke:#000000; stroke-linecap:round; stroke-linejoin:round; stroke-width:4; stroke-opacity:1; fill:none" points="848.357,1423.18 848.357,1404.28 "/>
<polyline clip-path="url(#clip190)" style="stroke:#000000; stroke-linecap:round; stroke-linejoin:round; stroke-width:4; stroke-opacity:1; fill:none" points="1149.24,1423.18 1149.24,1404.28 "/>
<polyline clip-path="url(#clip190)" style="stroke:#000000; stroke-linecap:round; stroke-linejoin:round; stroke-width:4; stroke-opacity:1; fill:none" points="1450.12,1423.18 1450.12,1404.28 "/>
<polyline clip-path="url(#clip190)" style="stroke:#000000; stroke-linecap:round; stroke-linejoin:round; stroke-width:4; stroke-opacity:1; fill:none" points="1751,1423.18 1751,1404.28 "/>
<polyline clip-path="url(#clip190)" style="stroke:#000000; stroke-linecap:round; stroke-linejoin:round; stroke-width:4; stroke-opacity:1; fill:none" points="2051.88,1423.18 2051.88,1404.28 "/>
<polyline clip-path="url(#clip190)" style="stroke:#000000; stroke-linecap:round; stroke-linejoin:round; stroke-width:4; stroke-opacity:1; fill:none" points="2352.76,1423.18 2352.76,1404.28 "/>
<path clip-path="url(#clip190)" d="M246.598 1454.1 Q242.987 1454.1 241.158 1457.66 Q239.352 1461.2 239.352 1468.33 Q239.352 1475.44 241.158 1479.01 Q242.987 1482.55 246.598 1482.55 Q250.232 1482.55 252.038 1479.01 Q253.866 1475.44 253.866 1468.33 Q253.866 1461.2 252.038 1457.66 Q250.232 1454.1 246.598 1454.1 M246.598 1450.39 Q252.408 1450.39 255.463 1455 Q258.542 1459.58 258.542 1468.33 Q258.542 1477.06 255.463 1481.67 Q252.408 1486.25 246.598 1486.25 Q240.788 1486.25 237.709 1481.67 Q234.653 1477.06 234.653 1468.33 Q234.653 1459.58 237.709 1455 Q240.788 1450.39 246.598 1450.39 Z" fill="#000000" fill-rule="nonzero" fill-opacity="1" /><path clip-path="url(#clip190)" d="M507.084 1481.64 L514.723 1481.64 L514.723 1455.28 L506.413 1456.95 L506.413 1452.69 L514.677 1451.02 L519.353 1451.02 L519.353 1481.64 L526.991 1481.64 L526.991 1485.58 L507.084 1485.58 L507.084 1481.64 Z" fill="#000000" fill-rule="nonzero" fill-opacity="1" /><path clip-path="url(#clip190)" d="M546.436 1454.1 Q542.825 1454.1 540.996 1457.66 Q539.19 1461.2 539.19 1468.33 Q539.19 1475.44 540.996 1479.01 Q542.825 1482.55 546.436 1482.55 Q550.07 1482.55 551.876 1479.01 Q553.704 1475.44 553.704 1468.33 Q553.704 1461.2 551.876 1457.66 Q550.07 1454.1 546.436 1454.1 M546.436 1450.39 Q552.246 1450.39 555.302 1455 Q558.38 1459.58 558.38 1468.33 Q558.38 1477.06 555.302 1481.67 Q552.246 1486.25 546.436 1486.25 Q540.626 1486.25 537.547 1481.67 Q534.491 1477.06 534.491 1468.33 Q534.491 1459.58 537.547 1455 Q540.626 1450.39 546.436 1450.39 Z" fill="#000000" fill-rule="nonzero" fill-opacity="1" /><path clip-path="url(#clip190)" d="M576.598 1454.1 Q572.987 1454.1 571.158 1457.66 Q569.352 1461.2 569.352 1468.33 Q569.352 1475.44 571.158 1479.01 Q572.987 1482.55 576.598 1482.55 Q580.232 1482.55 582.037 1479.01 Q583.866 1475.44 583.866 1468.33 Q583.866 1461.2 582.037 1457.66 Q580.232 1454.1 576.598 1454.1 M576.598 1450.39 Q582.408 1450.39 585.463 1455 Q588.542 1459.58 588.542 1468.33 Q588.542 1477.06 585.463 1481.67 Q582.408 1486.25 576.598 1486.25 Q570.788 1486.25 567.709 1481.67 Q564.653 1477.06 564.653 1468.33 Q564.653 1459.58 567.709 1455 Q570.788 1450.39 576.598 1450.39 Z" fill="#000000" fill-rule="nonzero" fill-opacity="1" /><path clip-path="url(#clip190)" d="M812.05 1481.64 L828.369 1481.64 L828.369 1485.58 L806.425 1485.58 L806.425 1481.64 Q809.087 1478.89 813.67 1474.26 Q818.276 1469.61 819.457 1468.27 Q821.702 1465.74 822.582 1464.01 Q823.485 1462.25 823.485 1460.56 Q823.485 1457.8 821.54 1456.07 Q819.619 1454.33 816.517 1454.33 Q814.318 1454.33 811.864 1455.09 Q809.434 1455.86 806.656 1457.41 L806.656 1452.69 Q809.48 1451.55 811.934 1450.97 Q814.387 1450.39 816.425 1450.39 Q821.795 1450.39 824.989 1453.08 Q828.184 1455.77 828.184 1460.26 Q828.184 1462.39 827.374 1464.31 Q826.587 1466.2 824.48 1468.8 Q823.901 1469.47 820.8 1472.69 Q817.698 1475.88 812.05 1481.64 Z" fill="#000000" fill-rule="nonzero" fill-opacity="1" /><path clip-path="url(#clip190)" d="M848.184 1454.1 Q844.573 1454.1 842.744 1457.66 Q840.938 1461.2 840.938 1468.33 Q840.938 1475.44 842.744 1479.01 Q844.573 1482.55 848.184 1482.55 Q851.818 1482.55 853.623 1479.01 Q855.452 1475.44 855.452 1468.33 Q855.452 1461.2 853.623 1457.66 Q851.818 1454.1 848.184 1454.1 M848.184 1450.39 Q853.994 1450.39 857.049 1455 Q860.128 1459.58 860.128 1468.33 Q860.128 1477.06 857.049 1481.67 Q853.994 1486.25 848.184 1486.25 Q842.373 1486.25 839.295 1481.67 Q836.239 1477.06 836.239 1468.33 Q836.239 1459.58 839.295 1455 Q842.373 1450.39 848.184 1450.39 Z" fill="#000000" fill-rule="nonzero" fill-opacity="1" /><path clip-path="url(#clip190)" d="M878.345 1454.1 Q874.734 1454.1 872.906 1457.66 Q871.1 1461.2 871.1 1468.33 Q871.1 1475.44 872.906 1479.01 Q874.734 1482.55 878.345 1482.55 Q881.98 1482.55 883.785 1479.01 Q885.614 1475.44 885.614 1468.33 Q885.614 1461.2 883.785 1457.66 Q881.98 1454.1 878.345 1454.1 M878.345 1450.39 Q884.156 1450.39 887.211 1455 Q890.29 1459.58 890.29 1468.33 Q890.29 1477.06 887.211 1481.67 Q884.156 1486.25 878.345 1486.25 Q872.535 1486.25 869.457 1481.67 Q866.401 1477.06 866.401 1468.33 Q866.401 1459.58 869.457 1455 Q872.535 1450.39 878.345 1450.39 Z" fill="#000000" fill-rule="nonzero" fill-opacity="1" /><path clip-path="url(#clip190)" d="M1123 1466.95 Q1126.36 1467.66 1128.23 1469.93 Q1130.13 1472.2 1130.13 1475.53 Q1130.13 1480.65 1126.61 1483.45 Q1123.09 1486.25 1116.61 1486.25 Q1114.43 1486.25 1112.12 1485.81 Q1109.83 1485.39 1107.37 1484.54 L1107.37 1480.02 Q1109.32 1481.16 1111.63 1481.74 Q1113.95 1482.32 1116.47 1482.32 Q1120.87 1482.32 1123.16 1480.58 Q1125.48 1478.84 1125.48 1475.53 Q1125.48 1472.48 1123.32 1470.77 Q1121.19 1469.03 1117.37 1469.03 L1113.35 1469.03 L1113.35 1465.19 L1117.56 1465.19 Q1121.01 1465.19 1122.84 1463.82 Q1124.67 1462.43 1124.67 1459.84 Q1124.67 1457.18 1122.77 1455.77 Q1120.89 1454.33 1117.37 1454.33 Q1115.45 1454.33 1113.25 1454.75 Q1111.05 1455.16 1108.42 1456.04 L1108.42 1451.88 Q1111.08 1451.14 1113.39 1450.77 Q1115.73 1450.39 1117.79 1450.39 Q1123.11 1450.39 1126.22 1452.83 Q1129.32 1455.23 1129.32 1459.35 Q1129.32 1462.22 1127.67 1464.21 Q1126.03 1466.18 1123 1466.95 Z" fill="#000000" fill-rule="nonzero" fill-opacity="1" /><path clip-path="url(#clip190)" d="M1148.99 1454.1 Q1145.38 1454.1 1143.55 1457.66 Q1141.75 1461.2 1141.75 1468.33 Q1141.75 1475.44 1143.55 1479.01 Q1145.38 1482.55 1148.99 1482.55 Q1152.63 1482.55 1154.43 1479.01 Q1156.26 1475.44 1156.26 1468.33 Q1156.26 1461.2 1154.43 1457.66 Q1152.63 1454.1 1148.99 1454.1 M1148.99 1450.39 Q1154.8 1450.39 1157.86 1455 Q1160.94 1459.58 1160.94 1468.33 Q1160.94 1477.06 1157.86 1481.67 Q1154.8 1486.25 1148.99 1486.25 Q1143.18 1486.25 1140.11 1481.67 Q1137.05 1477.06 1137.05 1468.33 Q1137.05 1459.58 1140.11 1455 Q1143.18 1450.39 1148.99 1450.39 Z" fill="#000000" fill-rule="nonzero" fill-opacity="1" /><path clip-path="url(#clip190)" d="M1179.16 1454.1 Q1175.54 1454.1 1173.72 1457.66 Q1171.91 1461.2 1171.91 1468.33 Q1171.91 1475.44 1173.72 1479.01 Q1175.54 1482.55 1179.16 1482.55 Q1182.79 1482.55 1184.6 1479.01 Q1186.42 1475.44 1186.42 1468.33 Q1186.42 1461.2 1184.6 1457.66 Q1182.79 1454.1 1179.16 1454.1 M1179.16 1450.39 Q1184.97 1450.39 1188.02 1455 Q1191.1 1459.58 1191.1 1468.33 Q1191.1 1477.06 1188.02 1481.67 Q1184.97 1486.25 1179.16 1486.25 Q1173.35 1486.25 1170.27 1481.67 Q1167.21 1477.06 1167.21 1468.33 Q1167.21 1459.58 1170.27 1455 Q1173.35 1450.39 1179.16 1450.39 Z" fill="#000000" fill-rule="nonzero" fill-opacity="1" /><path clip-path="url(#clip190)" d="M1423.21 1455.09 L1411.4 1473.54 L1423.21 1473.54 L1423.21 1455.09 M1421.98 1451.02 L1427.86 1451.02 L1427.86 1473.54 L1432.79 1473.54 L1432.79 1477.43 L1427.86 1477.43 L1427.86 1485.58 L1423.21 1485.58 L1423.21 1477.43 L1407.61 1477.43 L1407.61 1472.92 L1421.98 1451.02 Z" fill="#000000" fill-rule="nonzero" fill-opacity="1" /><path clip-path="url(#clip190)" d="M1450.52 1454.1 Q1446.91 1454.1 1445.08 1457.66 Q1443.28 1461.2 1443.28 1468.33 Q1443.28 1475.44 1445.08 1479.01 Q1446.91 1482.55 1450.52 1482.55 Q1454.16 1482.55 1455.96 1479.01 Q1457.79 1475.44 1457.79 1468.33 Q1457.79 1461.2 1455.96 1457.66 Q1454.16 1454.1 1450.52 1454.1 M1450.52 1450.39 Q1456.33 1450.39 1459.39 1455 Q1462.47 1459.58 1462.47 1468.33 Q1462.47 1477.06 1459.39 1481.67 Q1456.33 1486.25 1450.52 1486.25 Q1444.71 1486.25 1441.63 1481.67 Q1438.58 1477.06 1438.58 1468.33 Q1438.58 1459.58 1441.63 1455 Q1444.71 1450.39 1450.52 1450.39 Z" fill="#000000" fill-rule="nonzero" fill-opacity="1" /><path clip-path="url(#clip190)" d="M1480.68 1454.1 Q1477.07 1454.1 1475.24 1457.66 Q1473.44 1461.2 1473.44 1468.33 Q1473.44 1475.44 1475.24 1479.01 Q1477.07 1482.55 1480.68 1482.55 Q1484.32 1482.55 1486.12 1479.01 Q1487.95 1475.44 1487.95 1468.33 Q1487.95 1461.2 1486.12 1457.66 Q1484.32 1454.1 1480.68 1454.1 M1480.68 1450.39 Q1486.49 1450.39 1489.55 1455 Q1492.63 1459.58 1492.63 1468.33 Q1492.63 1477.06 1489.55 1481.67 Q1486.49 1486.25 1480.68 1486.25 Q1474.87 1486.25 1471.79 1481.67 Q1468.74 1477.06 1468.74 1468.33 Q1468.74 1459.58 1471.79 1455 Q1474.87 1450.39 1480.68 1450.39 Z" fill="#000000" fill-rule="nonzero" fill-opacity="1" /><path clip-path="url(#clip190)" d="M1710.61 1451.02 L1728.97 1451.02 L1728.97 1454.96 L1714.9 1454.96 L1714.9 1463.43 Q1715.92 1463.08 1716.93 1462.92 Q1717.95 1462.73 1718.97 1462.73 Q1724.76 1462.73 1728.14 1465.9 Q1731.52 1469.08 1731.52 1474.49 Q1731.52 1480.07 1728.05 1483.17 Q1724.57 1486.25 1718.25 1486.25 Q1716.08 1486.25 1713.81 1485.88 Q1711.56 1485.51 1709.16 1484.77 L1709.16 1480.07 Q1711.24 1481.2 1713.46 1481.76 Q1715.68 1482.32 1718.16 1482.32 Q1722.17 1482.32 1724.5 1480.21 Q1726.84 1478.1 1726.84 1474.49 Q1726.84 1470.88 1724.5 1468.77 Q1722.17 1466.67 1718.16 1466.67 Q1716.29 1466.67 1714.41 1467.08 Q1712.56 1467.5 1710.61 1468.38 L1710.61 1451.02 Z" fill="#000000" fill-rule="nonzero" fill-opacity="1" /><path clip-path="url(#clip190)" d="M1750.73 1454.1 Q1747.12 1454.1 1745.29 1457.66 Q1743.48 1461.2 1743.48 1468.33 Q1743.48 1475.44 1745.29 1479.01 Q1747.12 1482.55 1750.73 1482.55 Q1754.36 1482.55 1756.17 1479.01 Q1758 1475.44 1758 1468.33 Q1758 1461.2 1756.17 1457.66 Q1754.36 1454.1 1750.73 1454.1 M1750.73 1450.39 Q1756.54 1450.39 1759.6 1455 Q1762.67 1459.58 1762.67 1468.33 Q1762.67 1477.06 1759.6 1481.67 Q1756.54 1486.25 1750.73 1486.25 Q1744.92 1486.25 1741.84 1481.67 Q1738.79 1477.06 1738.79 1468.33 Q1738.79 1459.58 1741.84 1455 Q1744.92 1450.39 1750.73 1450.39 Z" fill="#000000" fill-rule="nonzero" fill-opacity="1" /><path clip-path="url(#clip190)" d="M1780.89 1454.1 Q1777.28 1454.1 1775.45 1457.66 Q1773.65 1461.2 1773.65 1468.33 Q1773.65 1475.44 1775.45 1479.01 Q1777.28 1482.55 1780.89 1482.55 Q1784.53 1482.55 1786.33 1479.01 Q1788.16 1475.44 1788.16 1468.33 Q1788.16 1461.2 1786.33 1457.66 Q1784.53 1454.1 1780.89 1454.1 M1780.89 1450.39 Q1786.7 1450.39 1789.76 1455 Q1792.84 1459.58 1792.84 1468.33 Q1792.84 1477.06 1789.76 1481.67 Q1786.7 1486.25 1780.89 1486.25 Q1775.08 1486.25 1772 1481.67 Q1768.95 1477.06 1768.95 1468.33 Q1768.95 1459.58 1772 1455 Q1775.08 1450.39 1780.89 1450.39 Z" fill="#000000" fill-rule="nonzero" fill-opacity="1" /><path clip-path="url(#clip190)" d="M2022.2 1466.44 Q2019.05 1466.44 2017.2 1468.59 Q2015.37 1470.74 2015.37 1474.49 Q2015.37 1478.22 2017.2 1480.39 Q2019.05 1482.55 2022.2 1482.55 Q2025.35 1482.55 2027.18 1480.39 Q2029.03 1478.22 2029.03 1474.49 Q2029.03 1470.74 2027.18 1468.59 Q2025.35 1466.44 2022.2 1466.44 M2031.48 1451.78 L2031.48 1456.04 Q2029.72 1455.21 2027.92 1454.77 Q2026.14 1454.33 2024.38 1454.33 Q2019.75 1454.33 2017.29 1457.45 Q2014.86 1460.58 2014.52 1466.9 Q2015.88 1464.89 2017.94 1463.82 Q2020 1462.73 2022.48 1462.73 Q2027.69 1462.73 2030.7 1465.9 Q2033.73 1469.05 2033.73 1474.49 Q2033.73 1479.82 2030.58 1483.03 Q2027.43 1486.25 2022.2 1486.25 Q2016.21 1486.25 2013.03 1481.67 Q2009.86 1477.06 2009.86 1468.33 Q2009.86 1460.14 2013.75 1455.28 Q2017.64 1450.39 2024.19 1450.39 Q2025.95 1450.39 2027.73 1450.74 Q2029.54 1451.09 2031.48 1451.78 Z" fill="#000000" fill-rule="nonzero" fill-opacity="1" /><path clip-path="url(#clip190)" d="M2051.78 1454.1 Q2048.17 1454.1 2046.34 1457.66 Q2044.54 1461.2 2044.54 1468.33 Q2044.54 1475.44 2046.34 1479.01 Q2048.17 1482.55 2051.78 1482.55 Q2055.42 1482.55 2057.22 1479.01 Q2059.05 1475.44 2059.05 1468.33 Q2059.05 1461.2 2057.22 1457.66 Q2055.42 1454.1 2051.78 1454.1 M2051.78 1450.39 Q2057.59 1450.39 2060.65 1455 Q2063.73 1459.58 2063.73 1468.33 Q2063.73 1477.06 2060.65 1481.67 Q2057.59 1486.25 2051.78 1486.25 Q2045.97 1486.25 2042.89 1481.67 Q2039.84 1477.06 2039.84 1468.33 Q2039.84 1459.58 2042.89 1455 Q2045.97 1450.39 2051.78 1450.39 Z" fill="#000000" fill-rule="nonzero" fill-opacity="1" /><path clip-path="url(#clip190)" d="M2081.95 1454.1 Q2078.33 1454.1 2076.51 1457.66 Q2074.7 1461.2 2074.7 1468.33 Q2074.7 1475.44 2076.51 1479.01 Q2078.33 1482.55 2081.95 1482.55 Q2085.58 1482.55 2087.39 1479.01 Q2089.21 1475.44 2089.21 1468.33 Q2089.21 1461.2 2087.39 1457.66 Q2085.58 1454.1 2081.95 1454.1 M2081.95 1450.39 Q2087.76 1450.39 2090.81 1455 Q2093.89 1459.58 2093.89 1468.33 Q2093.89 1477.06 2090.81 1481.67 Q2087.76 1486.25 2081.95 1486.25 Q2076.14 1486.25 2073.06 1481.67 Q2070 1477.06 2070 1468.33 Q2070 1459.58 2073.06 1455 Q2076.14 1450.39 2081.95 1450.39 Z" fill="#000000" fill-rule="nonzero" fill-opacity="1" /><path clip-path="url(#clip190)" d="M2311.03 1451.02 L2333.25 1451.02 L2333.25 1453.01 L2320.71 1485.58 L2315.82 1485.58 L2327.63 1454.96 L2311.03 1454.96 L2311.03 1451.02 Z" fill="#000000" fill-rule="nonzero" fill-opacity="1" /><path clip-path="url(#clip190)" d="M2352.37 1454.1 Q2348.76 1454.1 2346.93 1457.66 Q2345.13 1461.2 2345.13 1468.33 Q2345.13 1475.44 2346.93 1479.01 Q2348.76 1482.55 2352.37 1482.55 Q2356.01 1482.55 2357.81 1479.01 Q2359.64 1475.44 2359.64 1468.33 Q2359.64 1461.2 2357.81 1457.66 Q2356.01 1454.1 2352.37 1454.1 M2352.37 1450.39 Q2358.18 1450.39 2361.24 1455 Q2364.32 1459.58 2364.32 1468.33 Q2364.32 1477.06 2361.24 1481.67 Q2358.18 1486.25 2352.37 1486.25 Q2346.56 1486.25 2343.49 1481.67 Q2340.43 1477.06 2340.43 1468.33 Q2340.43 1459.58 2343.49 1455 Q2346.56 1450.39 2352.37 1450.39 Z" fill="#000000" fill-rule="nonzero" fill-opacity="1" /><path clip-path="url(#clip190)" d="M2382.54 1454.1 Q2378.92 1454.1 2377.1 1457.66 Q2375.29 1461.2 2375.29 1468.33 Q2375.29 1475.44 2377.1 1479.01 Q2378.92 1482.55 2382.54 1482.55 Q2386.17 1482.55 2387.98 1479.01 Q2389.8 1475.44 2389.8 1468.33 Q2389.8 1461.2 2387.98 1457.66 Q2386.17 1454.1 2382.54 1454.1 M2382.54 1450.39 Q2388.35 1450.39 2391.4 1455 Q2394.48 1459.58 2394.48 1468.33 Q2394.48 1477.06 2391.4 1481.67 Q2388.35 1486.25 2382.54 1486.25 Q2376.73 1486.25 2373.65 1481.67 Q2370.59 1477.06 2370.59 1468.33 Q2370.59 1459.58 2373.65 1455 Q2376.73 1450.39 2382.54 1450.39 Z" fill="#000000" fill-rule="nonzero" fill-opacity="1" /><path clip-path="url(#clip190)" d="M1298.74 1522.27 L1298.74 1532.4 L1310.8 1532.4 L1310.8 1536.95 L1298.74 1536.95 L1298.74 1556.3 Q1298.74 1560.66 1299.92 1561.9 Q1301.13 1563.14 1304.79 1563.14 L1310.8 1563.14 L1310.8 1568.04 L1304.79 1568.04 Q1298.01 1568.04 1295.43 1565.53 Q1292.85 1562.98 1292.85 1556.3 L1292.85 1536.95 L1288.55 1536.95 L1288.55 1532.4 L1292.85 1532.4 L1292.85 1522.27 L1298.74 1522.27 Z" fill="#000000" fill-rule="nonzero" fill-opacity="1" /><polyline clip-path="url(#clip190)" style="stroke:#000000; stroke-linecap:round; stroke-linejoin:round; stroke-width:4; stroke-opacity:1; fill:none" points="246.598,1423.18 246.598,47.2441 "/>
<polyline clip-path="url(#clip190)" style="stroke:#000000; stroke-linecap:round; stroke-linejoin:round; stroke-width:4; stroke-opacity:1; fill:none" points="246.598,1384.24 265.495,1384.24 "/>
<polyline clip-path="url(#clip190)" style="stroke:#000000; stroke-linecap:round; stroke-linejoin:round; stroke-width:4; stroke-opacity:1; fill:none" points="246.598,1124.15 265.495,1124.15 "/>
<polyline clip-path="url(#clip190)" style="stroke:#000000; stroke-linecap:round; stroke-linejoin:round; stroke-width:4; stroke-opacity:1; fill:none" points="246.598,864.065 265.495,864.065 "/>
<polyline clip-path="url(#clip190)" style="stroke:#000000; stroke-linecap:round; stroke-linejoin:round; stroke-width:4; stroke-opacity:1; fill:none" points="246.598,603.978 265.495,603.978 "/>
<polyline clip-path="url(#clip190)" style="stroke:#000000; stroke-linecap:round; stroke-linejoin:round; stroke-width:4; stroke-opacity:1; fill:none" points="246.598,343.891 265.495,343.891 "/>
<polyline clip-path="url(#clip190)" style="stroke:#000000; stroke-linecap:round; stroke-linejoin:round; stroke-width:4; stroke-opacity:1; fill:none" points="246.598,83.8048 265.495,83.8048 "/>
<path clip-path="url(#clip190)" d="M62.9365 1370.04 Q59.3254 1370.04 57.4967 1373.6 Q55.6912 1377.14 55.6912 1384.27 Q55.6912 1391.38 57.4967 1394.94 Q59.3254 1398.49 62.9365 1398.49 Q66.5707 1398.49 68.3763 1394.94 Q70.205 1391.38 70.205 1384.27 Q70.205 1377.14 68.3763 1373.6 Q66.5707 1370.04 62.9365 1370.04 M62.9365 1366.33 Q68.7467 1366.33 71.8022 1370.94 Q74.8809 1375.52 74.8809 1384.27 Q74.8809 1393 71.8022 1397.61 Q68.7467 1402.19 62.9365 1402.19 Q57.1264 1402.19 54.0477 1397.61 Q50.9921 1393 50.9921 1384.27 Q50.9921 1375.52 54.0477 1370.94 Q57.1264 1366.33 62.9365 1366.33 Z" fill="#000000" fill-rule="nonzero" fill-opacity="1" /><path clip-path="url(#clip190)" d="M83.0984 1395.64 L87.9827 1395.64 L87.9827 1401.52 L83.0984 1401.52 L83.0984 1395.64 Z" fill="#000000" fill-rule="nonzero" fill-opacity="1" /><path clip-path="url(#clip190)" d="M108.168 1370.04 Q104.557 1370.04 102.728 1373.6 Q100.922 1377.14 100.922 1384.27 Q100.922 1391.38 102.728 1394.94 Q104.557 1398.49 108.168 1398.49 Q111.802 1398.49 113.608 1394.94 Q115.436 1391.38 115.436 1384.27 Q115.436 1377.14 113.608 1373.6 Q111.802 1370.04 108.168 1370.04 M108.168 1366.33 Q113.978 1366.33 117.033 1370.94 Q120.112 1375.52 120.112 1384.27 Q120.112 1393 117.033 1397.61 Q113.978 1402.19 108.168 1402.19 Q102.358 1402.19 99.2789 1397.61 Q96.2234 1393 96.2234 1384.27 Q96.2234 1375.52 99.2789 1370.94 Q102.358 1366.33 108.168 1366.33 Z" fill="#000000" fill-rule="nonzero" fill-opacity="1" /><path clip-path="url(#clip190)" d="M138.33 1370.04 Q134.719 1370.04 132.89 1373.6 Q131.084 1377.14 131.084 1384.27 Q131.084 1391.38 132.89 1394.94 Q134.719 1398.49 138.33 1398.49 Q141.964 1398.49 143.769 1394.94 Q145.598 1391.38 145.598 1384.27 Q145.598 1377.14 143.769 1373.6 Q141.964 1370.04 138.33 1370.04 M138.33 1366.33 Q144.14 1366.33 147.195 1370.94 Q150.274 1375.52 150.274 1384.27 Q150.274 1393 147.195 1397.61 Q144.14 1402.19 138.33 1402.19 Q132.519 1402.19 129.441 1397.61 Q126.385 1393 126.385 1384.27 Q126.385 1375.52 129.441 1370.94 Q132.519 1366.33 138.33 1366.33 Z" fill="#000000" fill-rule="nonzero" fill-opacity="1" /><path clip-path="url(#clip190)" d="M168.491 1370.04 Q164.88 1370.04 163.052 1373.6 Q161.246 1377.14 161.246 1384.27 Q161.246 1391.38 163.052 1394.94 Q164.88 1398.49 168.491 1398.49 Q172.126 1398.49 173.931 1394.94 Q175.76 1391.38 175.76 1384.27 Q175.76 1377.14 173.931 1373.6 Q172.126 1370.04 168.491 1370.04 M168.491 1366.33 Q174.302 1366.33 177.357 1370.94 Q180.436 1375.52 180.436 1384.27 Q180.436 1393 177.357 1397.61 Q174.302 1402.19 168.491 1402.19 Q162.681 1402.19 159.603 1397.61 Q156.547 1393 156.547 1384.27 Q156.547 1375.52 159.603 1370.94 Q162.681 1366.33 168.491 1366.33 Z" fill="#000000" fill-rule="nonzero" fill-opacity="1" /><path clip-path="url(#clip190)" d="M198.653 1370.04 Q195.042 1370.04 193.214 1373.6 Q191.408 1377.14 191.408 1384.27 Q191.408 1391.38 193.214 1394.94 Q195.042 1398.49 198.653 1398.49 Q202.288 1398.49 204.093 1394.94 Q205.922 1391.38 205.922 1384.27 Q205.922 1377.14 204.093 1373.6 Q202.288 1370.04 198.653 1370.04 M198.653 1366.33 Q204.464 1366.33 207.519 1370.94 Q210.598 1375.52 210.598 1384.27 Q210.598 1393 207.519 1397.61 Q204.464 1402.19 198.653 1402.19 Q192.843 1402.19 189.765 1397.61 Q186.709 1393 186.709 1384.27 Q186.709 1375.52 189.765 1370.94 Q192.843 1366.33 198.653 1366.33 Z" fill="#000000" fill-rule="nonzero" fill-opacity="1" /><path clip-path="url(#clip190)" d="M63.9319 1109.95 Q60.3208 1109.95 58.4921 1113.52 Q56.6865 1117.06 56.6865 1124.19 Q56.6865 1131.29 58.4921 1134.86 Q60.3208 1138.4 63.9319 1138.4 Q67.5661 1138.4 69.3717 1134.86 Q71.2004 1131.29 71.2004 1124.19 Q71.2004 1117.06 69.3717 1113.52 Q67.5661 1109.95 63.9319 1109.95 M63.9319 1106.25 Q69.742 1106.25 72.7976 1110.85 Q75.8763 1115.44 75.8763 1124.19 Q75.8763 1132.91 72.7976 1137.52 Q69.742 1142.1 63.9319 1142.1 Q58.1217 1142.1 55.043 1137.52 Q51.9875 1132.91 51.9875 1124.19 Q51.9875 1115.44 55.043 1110.85 Q58.1217 1106.25 63.9319 1106.25 Z" fill="#000000" fill-rule="nonzero" fill-opacity="1" /><path clip-path="url(#clip190)" d="M84.0938 1135.55 L88.978 1135.55 L88.978 1141.43 L84.0938 1141.43 L84.0938 1135.55 Z" fill="#000000" fill-rule="nonzero" fill-opacity="1" /><path clip-path="url(#clip190)" d="M109.163 1109.95 Q105.552 1109.95 103.723 1113.52 Q101.918 1117.06 101.918 1124.19 Q101.918 1131.29 103.723 1134.86 Q105.552 1138.4 109.163 1138.4 Q112.797 1138.4 114.603 1134.86 Q116.432 1131.29 116.432 1124.19 Q116.432 1117.06 114.603 1113.52 Q112.797 1109.95 109.163 1109.95 M109.163 1106.25 Q114.973 1106.25 118.029 1110.85 Q121.107 1115.44 121.107 1124.19 Q121.107 1132.91 118.029 1137.52 Q114.973 1142.1 109.163 1142.1 Q103.353 1142.1 100.274 1137.52 Q97.2187 1132.91 97.2187 1124.19 Q97.2187 1115.44 100.274 1110.85 Q103.353 1106.25 109.163 1106.25 Z" fill="#000000" fill-rule="nonzero" fill-opacity="1" /><path clip-path="url(#clip190)" d="M139.325 1109.95 Q135.714 1109.95 133.885 1113.52 Q132.08 1117.06 132.08 1124.19 Q132.08 1131.29 133.885 1134.86 Q135.714 1138.4 139.325 1138.4 Q142.959 1138.4 144.765 1134.86 Q146.593 1131.29 146.593 1124.19 Q146.593 1117.06 144.765 1113.52 Q142.959 1109.95 139.325 1109.95 M139.325 1106.25 Q145.135 1106.25 148.191 1110.85 Q151.269 1115.44 151.269 1124.19 Q151.269 1132.91 148.191 1137.52 Q145.135 1142.1 139.325 1142.1 Q133.515 1142.1 130.436 1137.52 Q127.381 1132.91 127.381 1124.19 Q127.381 1115.44 130.436 1110.85 Q133.515 1106.25 139.325 1106.25 Z" fill="#000000" fill-rule="nonzero" fill-opacity="1" /><path clip-path="url(#clip190)" d="M169.487 1109.95 Q165.876 1109.95 164.047 1113.52 Q162.242 1117.06 162.242 1124.19 Q162.242 1131.29 164.047 1134.86 Q165.876 1138.4 169.487 1138.4 Q173.121 1138.4 174.927 1134.86 Q176.755 1131.29 176.755 1124.19 Q176.755 1117.06 174.927 1113.52 Q173.121 1109.95 169.487 1109.95 M169.487 1106.25 Q175.297 1106.25 178.353 1110.85 Q181.431 1115.44 181.431 1124.19 Q181.431 1132.91 178.353 1137.52 Q175.297 1142.1 169.487 1142.1 Q163.677 1142.1 160.598 1137.52 Q157.542 1132.91 157.542 1124.19 Q157.542 1115.44 160.598 1110.85 Q163.677 1106.25 169.487 1106.25 Z" fill="#000000" fill-rule="nonzero" fill-opacity="1" /><path clip-path="url(#clip190)" d="M189.695 1106.87 L208.051 1106.87 L208.051 1110.81 L193.977 1110.81 L193.977 1119.28 Q194.996 1118.93 196.014 1118.77 Q197.033 1118.58 198.052 1118.58 Q203.839 1118.58 207.218 1121.76 Q210.598 1124.93 210.598 1130.34 Q210.598 1135.92 207.126 1139.02 Q203.653 1142.1 197.334 1142.1 Q195.158 1142.1 192.89 1141.73 Q190.644 1141.36 188.237 1140.62 L188.237 1135.92 Q190.32 1137.06 192.542 1137.61 Q194.765 1138.17 197.241 1138.17 Q201.246 1138.17 203.584 1136.06 Q205.922 1133.95 205.922 1130.34 Q205.922 1126.73 203.584 1124.63 Q201.246 1122.52 197.241 1122.52 Q195.366 1122.52 193.491 1122.94 Q191.64 1123.35 189.695 1124.23 L189.695 1106.87 Z" fill="#000000" fill-rule="nonzero" fill-opacity="1" /><path clip-path="url(#clip190)" d="M62.9365 849.864 Q59.3254 849.864 57.4967 853.428 Q55.6912 856.97 55.6912 864.1 Q55.6912 871.206 57.4967 874.771 Q59.3254 878.312 62.9365 878.312 Q66.5707 878.312 68.3763 874.771 Q70.205 871.206 70.205 864.1 Q70.205 856.97 68.3763 853.428 Q66.5707 849.864 62.9365 849.864 M62.9365 846.16 Q68.7467 846.16 71.8022 850.766 Q74.8809 855.35 74.8809 864.1 Q74.8809 872.826 71.8022 877.433 Q68.7467 882.016 62.9365 882.016 Q57.1264 882.016 54.0477 877.433 Q50.9921 872.826 50.9921 864.1 Q50.9921 855.35 54.0477 850.766 Q57.1264 846.16 62.9365 846.16 Z" fill="#000000" fill-rule="nonzero" fill-opacity="1" /><path clip-path="url(#clip190)" d="M83.0984 875.465 L87.9827 875.465 L87.9827 881.345 L83.0984 881.345 L83.0984 875.465 Z" fill="#000000" fill-rule="nonzero" fill-opacity="1" /><path clip-path="url(#clip190)" d="M108.168 849.864 Q104.557 849.864 102.728 853.428 Q100.922 856.97 100.922 864.1 Q100.922 871.206 102.728 874.771 Q104.557 878.312 108.168 878.312 Q111.802 878.312 113.608 874.771 Q115.436 871.206 115.436 864.1 Q115.436 856.97 113.608 853.428 Q111.802 849.864 108.168 849.864 M108.168 846.16 Q113.978 846.16 117.033 850.766 Q120.112 855.35 120.112 864.1 Q120.112 872.826 117.033 877.433 Q113.978 882.016 108.168 882.016 Q102.358 882.016 99.2789 877.433 Q96.2234 872.826 96.2234 864.1 Q96.2234 855.35 99.2789 850.766 Q102.358 846.16 108.168 846.16 Z" fill="#000000" fill-rule="nonzero" fill-opacity="1" /><path clip-path="url(#clip190)" d="M138.33 849.864 Q134.719 849.864 132.89 853.428 Q131.084 856.97 131.084 864.1 Q131.084 871.206 132.89 874.771 Q134.719 878.312 138.33 878.312 Q141.964 878.312 143.769 874.771 Q145.598 871.206 145.598 864.1 Q145.598 856.97 143.769 853.428 Q141.964 849.864 138.33 849.864 M138.33 846.16 Q144.14 846.16 147.195 850.766 Q150.274 855.35 150.274 864.1 Q150.274 872.826 147.195 877.433 Q144.14 882.016 138.33 882.016 Q132.519 882.016 129.441 877.433 Q126.385 872.826 126.385 864.1 Q126.385 855.35 129.441 850.766 Q132.519 846.16 138.33 846.16 Z" fill="#000000" fill-rule="nonzero" fill-opacity="1" /><path clip-path="url(#clip190)" d="M159.302 877.41 L166.941 877.41 L166.941 851.044 L158.63 852.711 L158.63 848.452 L166.894 846.785 L171.57 846.785 L171.57 877.41 L179.209 877.41 L179.209 881.345 L159.302 881.345 L159.302 877.41 Z" fill="#000000" fill-rule="nonzero" fill-opacity="1" /><path clip-path="url(#clip190)" d="M198.653 849.864 Q195.042 849.864 193.214 853.428 Q191.408 856.97 191.408 864.1 Q191.408 871.206 193.214 874.771 Q195.042 878.312 198.653 878.312 Q202.288 878.312 204.093 874.771 Q205.922 871.206 205.922 864.1 Q205.922 856.97 204.093 853.428 Q202.288 849.864 198.653 849.864 M198.653 846.16 Q204.464 846.16 207.519 850.766 Q210.598 855.35 210.598 864.1 Q210.598 872.826 207.519 877.433 Q204.464 882.016 198.653 882.016 Q192.843 882.016 189.765 877.433 Q186.709 872.826 186.709 864.1 Q186.709 855.35 189.765 850.766 Q192.843 846.16 198.653 846.16 Z" fill="#000000" fill-rule="nonzero" fill-opacity="1" /><path clip-path="url(#clip190)" d="M63.9319 589.777 Q60.3208 589.777 58.4921 593.342 Q56.6865 596.883 56.6865 604.013 Q56.6865 611.119 58.4921 614.684 Q60.3208 618.226 63.9319 618.226 Q67.5661 618.226 69.3717 614.684 Q71.2004 611.119 71.2004 604.013 Q71.2004 596.883 69.3717 593.342 Q67.5661 589.777 63.9319 589.777 M63.9319 586.073 Q69.742 586.073 72.7976 590.68 Q75.8763 595.263 75.8763 604.013 Q75.8763 612.74 72.7976 617.346 Q69.742 621.929 63.9319 621.929 Q58.1217 621.929 55.043 617.346 Q51.9875 612.74 51.9875 604.013 Q51.9875 595.263 55.043 590.68 Q58.1217 586.073 63.9319 586.073 Z" fill="#000000" fill-rule="nonzero" fill-opacity="1" /><path clip-path="url(#clip190)" d="M84.0938 615.379 L88.978 615.379 L88.978 621.258 L84.0938 621.258 L84.0938 615.379 Z" fill="#000000" fill-rule="nonzero" fill-opacity="1" /><path clip-path="url(#clip190)" d="M109.163 589.777 Q105.552 589.777 103.723 593.342 Q101.918 596.883 101.918 604.013 Q101.918 611.119 103.723 614.684 Q105.552 618.226 109.163 618.226 Q112.797 618.226 114.603 614.684 Q116.432 611.119 116.432 604.013 Q116.432 596.883 114.603 593.342 Q112.797 589.777 109.163 589.777 M109.163 586.073 Q114.973 586.073 118.029 590.68 Q121.107 595.263 121.107 604.013 Q121.107 612.74 118.029 617.346 Q114.973 621.929 109.163 621.929 Q103.353 621.929 100.274 617.346 Q97.2187 612.74 97.2187 604.013 Q97.2187 595.263 100.274 590.68 Q103.353 586.073 109.163 586.073 Z" fill="#000000" fill-rule="nonzero" fill-opacity="1" /><path clip-path="url(#clip190)" d="M139.325 589.777 Q135.714 589.777 133.885 593.342 Q132.08 596.883 132.08 604.013 Q132.08 611.119 133.885 614.684 Q135.714 618.226 139.325 618.226 Q142.959 618.226 144.765 614.684 Q146.593 611.119 146.593 604.013 Q146.593 596.883 144.765 593.342 Q142.959 589.777 139.325 589.777 M139.325 586.073 Q145.135 586.073 148.191 590.68 Q151.269 595.263 151.269 604.013 Q151.269 612.74 148.191 617.346 Q145.135 621.929 139.325 621.929 Q133.515 621.929 130.436 617.346 Q127.381 612.74 127.381 604.013 Q127.381 595.263 130.436 590.68 Q133.515 586.073 139.325 586.073 Z" fill="#000000" fill-rule="nonzero" fill-opacity="1" /><path clip-path="url(#clip190)" d="M160.297 617.323 L167.936 617.323 L167.936 590.957 L159.626 592.624 L159.626 588.365 L167.89 586.698 L172.566 586.698 L172.566 617.323 L180.204 617.323 L180.204 621.258 L160.297 621.258 L160.297 617.323 Z" fill="#000000" fill-rule="nonzero" fill-opacity="1" /><path clip-path="url(#clip190)" d="M189.695 586.698 L208.051 586.698 L208.051 590.633 L193.977 590.633 L193.977 599.106 Q194.996 598.758 196.014 598.596 Q197.033 598.411 198.052 598.411 Q203.839 598.411 207.218 601.582 Q210.598 604.754 210.598 610.17 Q210.598 615.749 207.126 618.851 Q203.653 621.929 197.334 621.929 Q195.158 621.929 192.89 621.559 Q190.644 621.189 188.237 620.448 L188.237 615.749 Q190.32 616.883 192.542 617.439 Q194.765 617.994 197.241 617.994 Q201.246 617.994 203.584 615.888 Q205.922 613.781 205.922 610.17 Q205.922 606.559 203.584 604.453 Q201.246 602.346 197.241 602.346 Q195.366 602.346 193.491 602.763 Q191.64 603.18 189.695 604.059 L189.695 586.698 Z" fill="#000000" fill-rule="nonzero" fill-opacity="1" /><path clip-path="url(#clip190)" d="M62.9365 329.69 Q59.3254 329.69 57.4967 333.255 Q55.6912 336.797 55.6912 343.926 Q55.6912 351.033 57.4967 354.597 Q59.3254 358.139 62.9365 358.139 Q66.5707 358.139 68.3763 354.597 Q70.205 351.033 70.205 343.926 Q70.205 336.797 68.3763 333.255 Q66.5707 329.69 62.9365 329.69 M62.9365 325.986 Q68.7467 325.986 71.8022 330.593 Q74.8809 335.176 74.8809 343.926 Q74.8809 352.653 71.8022 357.259 Q68.7467 361.843 62.9365 361.843 Q57.1264 361.843 54.0477 357.259 Q50.9921 352.653 50.9921 343.926 Q50.9921 335.176 54.0477 330.593 Q57.1264 325.986 62.9365 325.986 Z" fill="#000000" fill-rule="nonzero" fill-opacity="1" /><path clip-path="url(#clip190)" d="M83.0984 355.292 L87.9827 355.292 L87.9827 361.171 L83.0984 361.171 L83.0984 355.292 Z" fill="#000000" fill-rule="nonzero" fill-opacity="1" /><path clip-path="url(#clip190)" d="M108.168 329.69 Q104.557 329.69 102.728 333.255 Q100.922 336.797 100.922 343.926 Q100.922 351.033 102.728 354.597 Q104.557 358.139 108.168 358.139 Q111.802 358.139 113.608 354.597 Q115.436 351.033 115.436 343.926 Q115.436 336.797 113.608 333.255 Q111.802 329.69 108.168 329.69 M108.168 325.986 Q113.978 325.986 117.033 330.593 Q120.112 335.176 120.112 343.926 Q120.112 352.653 117.033 357.259 Q113.978 361.843 108.168 361.843 Q102.358 361.843 99.2789 357.259 Q96.2234 352.653 96.2234 343.926 Q96.2234 335.176 99.2789 330.593 Q102.358 325.986 108.168 325.986 Z" fill="#000000" fill-rule="nonzero" fill-opacity="1" /><path clip-path="url(#clip190)" d="M138.33 329.69 Q134.719 329.69 132.89 333.255 Q131.084 336.797 131.084 343.926 Q131.084 351.033 132.89 354.597 Q134.719 358.139 138.33 358.139 Q141.964 358.139 143.769 354.597 Q145.598 351.033 145.598 343.926 Q145.598 336.797 143.769 333.255 Q141.964 329.69 138.33 329.69 M138.33 325.986 Q144.14 325.986 147.195 330.593 Q150.274 335.176 150.274 343.926 Q150.274 352.653 147.195 357.259 Q144.14 361.843 138.33 361.843 Q132.519 361.843 129.441 357.259 Q126.385 352.653 126.385 343.926 Q126.385 335.176 129.441 330.593 Q132.519 325.986 138.33 325.986 Z" fill="#000000" fill-rule="nonzero" fill-opacity="1" /><path clip-path="url(#clip190)" d="M162.519 357.236 L178.839 357.236 L178.839 361.171 L156.894 361.171 L156.894 357.236 Q159.556 354.482 164.14 349.852 Q168.746 345.199 169.927 343.857 Q172.172 341.334 173.052 339.598 Q173.954 337.838 173.954 336.148 Q173.954 333.394 172.01 331.658 Q170.089 329.922 166.987 329.922 Q164.788 329.922 162.334 330.686 Q159.904 331.449 157.126 333 L157.126 328.278 Q159.95 327.144 162.404 326.565 Q164.857 325.986 166.894 325.986 Q172.265 325.986 175.459 328.672 Q178.653 331.357 178.653 335.848 Q178.653 337.977 177.843 339.898 Q177.056 341.797 174.95 344.389 Q174.371 345.06 171.269 348.278 Q168.167 351.472 162.519 357.236 Z" fill="#000000" fill-rule="nonzero" fill-opacity="1" /><path clip-path="url(#clip190)" d="M198.653 329.69 Q195.042 329.69 193.214 333.255 Q191.408 336.797 191.408 343.926 Q191.408 351.033 193.214 354.597 Q195.042 358.139 198.653 358.139 Q202.288 358.139 204.093 354.597 Q205.922 351.033 205.922 343.926 Q205.922 336.797 204.093 333.255 Q202.288 329.69 198.653 329.69 M198.653 325.986 Q204.464 325.986 207.519 330.593 Q210.598 335.176 210.598 343.926 Q210.598 352.653 207.519 357.259 Q204.464 361.843 198.653 361.843 Q192.843 361.843 189.765 357.259 Q186.709 352.653 186.709 343.926 Q186.709 335.176 189.765 330.593 Q192.843 325.986 198.653 325.986 Z" fill="#000000" fill-rule="nonzero" fill-opacity="1" /><path clip-path="url(#clip190)" d="M63.9319 69.6035 Q60.3208 69.6035 58.4921 73.1683 Q56.6865 76.7099 56.6865 83.8395 Q56.6865 90.946 58.4921 94.5108 Q60.3208 98.0524 63.9319 98.0524 Q67.5661 98.0524 69.3717 94.5108 Q71.2004 90.946 71.2004 83.8395 Q71.2004 76.7099 69.3717 73.1683 Q67.5661 69.6035 63.9319 69.6035 M63.9319 65.8998 Q69.742 65.8998 72.7976 70.5063 Q75.8763 75.0896 75.8763 83.8395 Q75.8763 92.5663 72.7976 97.1728 Q69.742 101.756 63.9319 101.756 Q58.1217 101.756 55.043 97.1728 Q51.9875 92.5663 51.9875 83.8395 Q51.9875 75.0896 55.043 70.5063 Q58.1217 65.8998 63.9319 65.8998 Z" fill="#000000" fill-rule="nonzero" fill-opacity="1" /><path clip-path="url(#clip190)" d="M84.0938 95.2052 L88.978 95.2052 L88.978 101.085 L84.0938 101.085 L84.0938 95.2052 Z" fill="#000000" fill-rule="nonzero" fill-opacity="1" /><path clip-path="url(#clip190)" d="M109.163 69.6035 Q105.552 69.6035 103.723 73.1683 Q101.918 76.7099 101.918 83.8395 Q101.918 90.946 103.723 94.5108 Q105.552 98.0524 109.163 98.0524 Q112.797 98.0524 114.603 94.5108 Q116.432 90.946 116.432 83.8395 Q116.432 76.7099 114.603 73.1683 Q112.797 69.6035 109.163 69.6035 M109.163 65.8998 Q114.973 65.8998 118.029 70.5063 Q121.107 75.0896 121.107 83.8395 Q121.107 92.5663 118.029 97.1728 Q114.973 101.756 109.163 101.756 Q103.353 101.756 100.274 97.1728 Q97.2187 92.5663 97.2187 83.8395 Q97.2187 75.0896 100.274 70.5063 Q103.353 65.8998 109.163 65.8998 Z" fill="#000000" fill-rule="nonzero" fill-opacity="1" /><path clip-path="url(#clip190)" d="M139.325 69.6035 Q135.714 69.6035 133.885 73.1683 Q132.08 76.7099 132.08 83.8395 Q132.08 90.946 133.885 94.5108 Q135.714 98.0524 139.325 98.0524 Q142.959 98.0524 144.765 94.5108 Q146.593 90.946 146.593 83.8395 Q146.593 76.7099 144.765 73.1683 Q142.959 69.6035 139.325 69.6035 M139.325 65.8998 Q145.135 65.8998 148.191 70.5063 Q151.269 75.0896 151.269 83.8395 Q151.269 92.5663 148.191 97.1728 Q145.135 101.756 139.325 101.756 Q133.515 101.756 130.436 97.1728 Q127.381 92.5663 127.381 83.8395 Q127.381 75.0896 130.436 70.5063 Q133.515 65.8998 139.325 65.8998 Z" fill="#000000" fill-rule="nonzero" fill-opacity="1" /><path clip-path="url(#clip190)" d="M163.515 97.1496 L179.834 97.1496 L179.834 101.085 L157.89 101.085 L157.89 97.1496 Q160.552 94.395 165.135 89.7654 Q169.741 85.1127 170.922 83.7701 Q173.167 81.2469 174.047 79.5108 Q174.95 77.7516 174.95 76.0618 Q174.95 73.3072 173.005 71.5711 Q171.084 69.835 167.982 69.835 Q165.783 69.835 163.329 70.5989 Q160.899 71.3627 158.121 72.9137 L158.121 68.1915 Q160.945 67.0572 163.399 66.4785 Q165.853 65.8998 167.89 65.8998 Q173.26 65.8998 176.454 68.585 Q179.649 71.2701 179.649 75.7609 Q179.649 77.8905 178.839 79.8118 Q178.052 81.7099 175.945 84.3025 Q175.366 84.9738 172.265 88.1913 Q169.163 91.3858 163.515 97.1496 Z" fill="#000000" fill-rule="nonzero" fill-opacity="1" /><path clip-path="url(#clip190)" d="M189.695 66.5248 L208.051 66.5248 L208.051 70.46 L193.977 70.46 L193.977 78.9321 Q194.996 78.5849 196.014 78.4229 Q197.033 78.2377 198.052 78.2377 Q203.839 78.2377 207.218 81.409 Q210.598 84.5803 210.598 89.9969 Q210.598 95.5756 207.126 98.6774 Q203.653 101.756 197.334 101.756 Q195.158 101.756 192.89 101.386 Q190.644 101.015 188.237 100.275 L188.237 95.5756 Q190.32 96.7098 192.542 97.2654 Q194.765 97.8209 197.241 97.8209 Q201.246 97.8209 203.584 95.7145 Q205.922 93.608 205.922 89.9969 Q205.922 86.3858 203.584 84.2793 Q201.246 82.1729 197.241 82.1729 Q195.366 82.1729 193.491 82.5895 Q191.64 83.0062 189.695 83.8858 L189.695 66.5248 Z" fill="#000000" fill-rule="nonzero" fill-opacity="1" /><polyline clip-path="url(#clip192)" style="stroke:#009af9; stroke-linecap:round; stroke-linejoin:round; stroke-width:4; stroke-opacity:1; fill:none" points="246.598,1384.24 247.756,1384.24 248.913,1384.24 250.071,1384.24 251.229,1384.24 252.387,1384.24 253.545,1384.24 254.703,1384.24 255.861,1384.24 257.019,1384.24 258.176,1384.24 259.334,1384.24 260.492,1384.24 261.65,1384.24 262.808,1384.24 263.966,1384.24 265.124,1384.24 266.281,1384.24 267.439,1384.24 268.597,1384.24 269.755,1384.24 270.913,1384.24 272.071,1384.24 273.229,1384.24 274.387,1384.24 275.544,1384.24 276.702,1384.24 277.86,1384.24 279.018,1384.24 280.176,1384.24 281.334,1384.24 282.492,1384.24 283.649,1384.24 284.807,1384.24 285.965,1384.24 287.123,1384.24 288.281,1384.24 289.439,1384.24 290.597,1384.24 291.755,1384.24 292.912,1384.24 294.07,1384.24 295.228,1384.24 296.386,1384.24 297.544,1384.24 298.702,1384.24 299.86,1384.24 301.017,1384.24 302.175,1384.24 303.333,1384.24 304.491,1384.24 305.649,1384.24 306.807,1384.24 307.965,1384.24 309.123,1384.24 310.28,1384.24 311.438,1384.24 312.596,1384.24 313.754,1384.24 314.912,1384.24 316.07,1384.24 317.228,1384.24 318.385,1384.24 319.543,1384.24 320.701,1384.24 321.859,1384.24 323.017,1384.24 324.175,1384.24 325.333,1384.24 326.491,1384.24 327.648,1384.24 328.806,1384.24 329.964,1384.24 331.122,1384.24 332.28,1384.24 333.438,1384.24 334.596,1384.24 335.753,1384.24 336.911,1384.24 338.069,1384.24 339.227,1384.24 340.385,1384.24 341.543,1384.24 342.701,1384.24 343.858,1384.24 345.016,1384.24 346.174,1384.24 347.332,1384.24 348.49,1384.24 349.648,1384.24 350.806,1384.24 351.964,1384.24 353.121,1384.24 354.279,1384.24 355.437,1384.24 356.595,1384.24 357.753,1384.24 358.911,1384.24 360.069,1384.24 361.226,1384.24 362.384,1384.24 363.542,1384.24 364.7,1384.24 365.858,1384.24 367.016,1384.24 368.174,1384.24 369.332,1384.24 370.489,1384.24 371.647,1384.24 372.805,1384.24 373.963,1384.24 375.121,1384.24 376.279,1384.24 377.437,1384.24 378.594,1384.24 379.752,1384.24 380.91,1384.24 382.068,1384.24 383.226,1384.24 384.384,1384.24 385.542,1384.24 386.7,1384.24 387.857,1384.24 389.015,1384.24 390.173,1384.24 391.331,1384.24 392.489,1384.24 393.647,1384.24 394.805,1384.24 395.962,1384.24 397.12,1384.24 398.278,1384.24 399.436,1384.24 400.594,1384.24 401.752,1384.24 402.91,1384.24 404.068,1384.24 405.225,1384.24 406.383,1384.24 407.541,1384.24 408.699,1384.24 409.857,1384.24 411.015,1384.24 412.173,1384.24 413.33,1384.24 414.488,1384.24 415.646,1384.24 416.804,1384.24 417.962,1384.24 419.12,1384.24 420.278,1384.24 421.436,1384.24 422.593,1384.24 423.751,1384.24 424.909,1384.24 426.067,1384.24 427.225,1384.24 428.383,1384.24 429.541,1384.24 430.698,1384.24 431.856,1384.24 433.014,1384.24 434.172,1384.24 435.33,1384.24 436.488,1384.24 437.646,1384.24 438.803,1384.24 439.961,1384.24 441.119,1384.24 442.277,1384.24 443.435,1384.24 444.593,1384.24 445.751,1384.24 446.909,1384.24 448.066,1384.24 449.224,1384.24 450.382,1384.24 451.54,1384.24 452.698,1384.24 453.856,1384.24 455.014,1384.24 456.171,1384.24 457.329,1384.24 458.487,1384.24 459.645,1384.24 460.803,1384.24 461.961,1384.24 463.119,1384.24 464.277,1384.24 465.434,1384.24 466.592,1384.24 467.75,1384.24 468.908,1384.24 470.066,1384.24 471.224,1384.24 472.382,1384.24 473.539,1384.24 474.697,1384.24 475.855,1384.24 477.013,1384.24 478.171,1384.24 479.329,1384.24 480.487,1384.24 481.645,1384.24 482.802,1384.24 483.96,1384.24 485.118,1384.24 486.276,1384.24 487.434,1384.24 488.592,1384.24 489.75,1384.24 490.907,1384.24 492.065,1384.24 493.223,1384.24 494.381,1384.24 495.539,1384.24 496.697,1384.24 497.855,1384.24 499.013,1384.24 500.17,1384.24 501.328,1384.24 502.486,1384.24 503.644,1384.24 504.802,1384.24 505.96,1384.24 507.118,1384.24 508.275,1384.24 509.433,1384.24 510.591,1384.24 511.749,1384.24 512.907,1384.24 514.065,1384.24 515.223,1384.24 516.381,1384.24 517.538,1384.24 518.696,1384.24 519.854,1384.24 521.012,1384.24 522.17,1384.24 523.328,1384.24 524.486,1384.24 525.643,1384.24 526.801,1384.24 527.959,1384.24 529.117,1384.24 530.275,1384.24 531.433,1384.24 532.591,1384.24 533.749,1384.24 534.906,1384.24 536.064,1384.24 537.222,1384.24 538.38,1384.24 539.538,1384.24 540.696,1384.24 541.854,1384.24 543.011,1384.24 544.169,1384.24 545.327,1384.24 546.485,1384.24 547.643,86.1857 548.801,102.73 549.959,119.064 551.116,135.189 552.274,151.109 553.432,166.826 554.59,182.343 555.748,197.662 556.906,212.786 558.064,227.716 559.222,242.457 560.379,257.01 561.537,271.377 562.695,285.561 563.853,299.564 565.011,313.389 566.169,327.038 567.327,340.513 568.484,353.816 569.642,366.949 570.8,379.915 571.958,392.716 573.116,405.353 574.274,417.83 575.432,430.147 576.59,442.308 577.747,454.313 578.905,466.166 580.063,477.867 581.221,489.418 582.379,500.825 583.537,512.087 584.695,523.206 585.852,534.181 587.01,545.014 588.168,555.712 589.326,566.277 590.484,576.708 591.642,587.004 592.8,597.166 593.958,607.188 595.115,617.09 596.273,626.872 597.431,636.535 598.589,646.078 599.747,655.501 600.905,664.804 602.063,673.988 603.22,683.051 604.378,691.996 605.536,700.812 606.694,709.504 607.852,718.096 609.01,726.586 610.168,734.977 611.326,743.267 612.483,751.456 613.641,759.545 614.799,767.534 615.957,775.422 617.115,783.209 618.273,790.896 619.431,798.483 620.588,805.969 621.746,813.354 622.904,820.639 624.062,827.816 625.22,834.89 626.378,841.883 627.536,848.795 628.694,855.626 629.851,862.376 631.009,869.044 632.167,875.631 633.325,882.137 634.483,888.562 635.641,894.906 636.799,901.169 637.956,907.35 639.114,913.451 640.272,919.47 641.43,925.408 642.588,931.265 643.746,937.034 644.904,942.704 646.062,948.312 647.219,953.858 648.377,959.341 649.535,964.762 650.693,970.12 651.851,975.416 653.009,980.65 654.167,985.821 655.324,990.929 656.482,995.976 657.64,1000.96 658.798,1005.88 659.956,1010.74 661.114,1015.54 662.272,1020.27 663.429,1024.94 664.587,1029.55 665.745,1034.1 666.903,1038.58 668.061,1043 669.219,1047.36 670.377,1051.66 671.535,1055.88 672.692,1060.04 673.85,1064.17 675.008,1068.24 676.166,1072.27 677.324,1076.26 678.482,1080.19 679.64,1084.09 680.797,1087.93 681.955,1091.73 683.113,1095.48 684.271,1099.19 685.429,1102.85 686.587,1106.47 687.745,1110.04 688.903,1113.56 690.06,1117.04 691.218,1120.47 692.376,1123.85 693.534,1127.19 694.692,1130.48 695.85,1133.73 697.008,1136.93 698.165,1140.07 699.323,1143.16 700.481,1146.21 701.639,1149.24 702.797,1152.22 703.955,1155.18 705.113,1158.1 706.271,1160.99 707.428,1163.85 708.586,1166.67 709.744,1169.47 710.902,1172.23 712.06,1174.95 713.218,1177.65 714.376,1180.31 715.533,1182.94 716.691,1185.53 717.849,1188.1 719.007,1190.63 720.165,1193.12 721.323,1195.59 722.481,1198.02 723.639,1200.42 724.796,1202.79 725.954,1205.12 727.112,1207.42 728.27,1209.69 729.428,1211.93 730.586,1214.13 731.744,1216.3 732.901,1218.42 734.059,1220.52 735.217,1222.6 736.375,1224.65 737.533,1226.68 738.691,1228.69 739.849,1230.67 741.007,1232.64 742.164,1234.58 743.322,1236.5 744.48,1238.4 745.638,1240.27 746.796,1242.13 747.954,1243.96 749.112,1245.77 750.269,1247.56 751.427,1249.32 752.585,1251.06 753.743,1252.79 754.901,1254.48 756.059,1256.16 757.217,1257.82 758.374,1259.45 759.532,1261.06 760.69,1262.65 761.848,1264.22 763.006,1265.76 764.164,1267.28 765.322,1268.78 766.48,1270.26 767.637,1271.72 768.795,1273.14 769.953,1274.54 771.111,1275.92 772.269,1277.29 773.427,1278.65 774.585,1279.99 775.742,1281.32 776.9,1282.63 778.058,1283.93 779.216,1285.22 780.374,1286.49 781.532,1287.74 782.69,1288.99 783.848,1290.22 785.005,1291.43 786.163,1292.63 787.321,1293.82 788.479,1294.99 789.637,1296.15 790.795,1297.29 791.953,1298.42 793.11,1299.53 794.268,1300.64 795.426,1301.72 796.584,1302.8 797.742,1303.85 798.9,1304.9 800.058,1305.93 801.216,1306.95 802.373,1307.95 803.531,1308.94 804.689,1309.91 805.847,1310.87 807.005,1311.82 808.163,1312.75 809.321,1313.66 810.478,1314.57 811.636,1315.46 812.794,1316.32 813.952,1317.18 815.11,1318.03 816.268,1318.87 817.426,1319.7 818.584,1320.53 819.741,1321.34 820.899,1322.15 822.057,1322.94 823.215,1323.73 824.373,1324.51 825.531,1325.27 826.689,1326.03 827.846,1326.78 829.004,1327.53 830.162,1328.26 831.32,1328.98 832.478,1329.7 833.636,1330.4 834.794,1331.1 835.952,1331.78 837.109,1332.46 838.267,1333.13 839.425,1333.79 840.583,1334.44 841.741,1335.08 842.899,1335.72 844.057,1336.34 845.214,1336.96 846.372,1337.56 847.53,1338.16 848.688,498.774 849.846,509.96 851.004,521.027 852.162,531.978 853.32,542.81 854.477,553.525 855.635,564.123 856.793,574.603 857.951,584.966 859.109,595.211 860.267,605.338 861.425,615.348 862.582,625.24 863.74,635.015 864.898,644.672 866.056,654.212 867.214,663.634 868.372,672.938 869.53,682.125 870.687,691.195 871.845,700.147 873.003,708.981 874.161,717.698 875.319,726.297 876.477,734.779 877.635,743.143 878.793,751.39 879.95,759.519 881.108,767.53 882.266,775.424 883.424,783.2 884.582,790.848 885.74,798.395 886.898,805.855 888.055,813.228 889.213,820.514 890.371,827.713 891.529,834.826 892.687,841.851 893.845,848.79 895.003,855.642 896.161,862.407 897.318,869.085 898.476,875.676 899.634,882.181 900.792,888.598 901.95,894.929 903.108,901.173 904.266,907.293 905.423,913.305 906.581,919.256 907.739,925.145 908.897,930.973 910.055,936.738 911.213,942.442 912.371,948.084 913.529,953.664 914.686,959.183 915.844,964.64 917.002,970.035 918.16,975.368 919.318,980.64 920.476,985.85 921.634,990.998 922.791,996.084 923.949,1001.11 925.107,1006.07 926.265,1010.97 927.423,1015.81 928.581,1020.59 929.739,1025.3 930.897,1029.96 932.054,1034.55 933.212,1039.08 934.37,1043.55 935.528,1047.96 936.686,1052.3 937.844,1056.59 939.002,1060.81 940.159,1064.97 941.317,1069.07 942.475,1073.1 943.633,1077.08 944.791,1080.98 945.949,1084.82 947.107,1088.63 948.265,1092.39 949.422,1096.11 950.58,1099.79 951.738,1103.42 952.896,1107.02 954.054,1110.57 955.212,1114.07 956.37,1117.54 957.527,1120.96 958.685,1124.35 959.843,1127.69 961.001,1130.98 962.159,1134.24 963.317,1137.45 964.475,1140.62 965.633,1143.75 966.79,1146.83 967.948,1149.88 969.106,1152.88 970.264,1155.84 971.422,1158.75 972.58,1161.61 973.738,1164.41 974.895,1167.18 976.053,1169.92 977.211,1172.64 978.369,1175.32 979.527,1177.98 980.685,1180.61 981.843,1183.22 983,1185.79 984.158,1188.34 985.316,1190.85 986.474,1193.35 987.632,1195.81 988.79,1198.24 989.948,1200.65 991.106,1203.03 992.263,1205.37 993.421,1207.7 994.579,1209.99 995.737,1212.26 996.895,1214.49 998.053,1216.7 999.211,1218.88 1000.37,1221.04 1001.53,1223.16 1002.68,1225.26 1003.84,1227.33 1005,1229.37 1006.16,1231.38 1007.32,1233.36 1008.47,1235.32 1009.63,1237.25 1010.79,1239.15 1011.95,1241.02 1013.11,1242.86 1014.26,1244.68 1015.42,1246.47 1016.58,1248.23 1017.74,1249.94 1018.89,1251.64 1020.05,1253.32 1021.21,1254.98 1022.37,1256.62 1023.53,1258.25 1024.68,1259.86 1025.84,1261.45 1027,1263.02 1028.16,1264.58 1029.32,1266.11 1030.47,1267.63 1031.63,1269.13 1032.79,1270.62 1033.95,1272.08 1035.1,1273.53 1036.26,1274.96 1037.42,1276.38 1038.58,1277.77 1039.74,1279.15 1040.89,1280.51 1042.05,1281.85 1043.21,1283.18 1044.37,1284.48 1045.53,1285.77 1046.68,1287.04 1047.84,1288.29 1049,1289.53 1050.16,1290.75 1051.31,1291.95 1052.47,1293.13 1053.63,1294.29 1054.79,1295.43 1055.95,1296.54 1057.1,1297.64 1058.26,1298.73 1059.42,1299.81 1060.58,1300.88 1061.74,1301.94 1062.89,1302.98 1064.05,1304.02 1065.21,1305.04 1066.37,1306.06 1067.52,1307.06 1068.68,1308.06 1069.84,1309.04 1071,1310.01 1072.16,1310.97 1073.31,1311.92 1074.47,1312.86 1075.63,1313.79 1076.79,1314.71 1077.95,1315.62 1079.1,1316.51 1080.26,1317.4 1081.42,1318.27 1082.58,1319.14 1083.73,1319.99 1084.89,1320.83 1086.05,1321.67 1087.21,1322.49 1088.37,1323.3 1089.52,1324.1 1090.68,1324.89 1091.84,1325.67 1093,1326.43 1094.16,1327.19 1095.31,1327.94 1096.47,1328.67 1097.63,1329.4 1098.79,1330.11 1099.94,1330.81 1101.1,1331.51 1102.26,1332.19 1103.42,1332.86 1104.58,1333.52 1105.73,1334.17 1106.89,1334.81 1108.05,1335.43 1109.21,1336.04 1110.37,1336.65 1111.52,1337.26 1112.68,1337.85 1113.84,1338.44 1115,1339.03 1116.16,1339.61 1117.31,1340.18 1118.47,1340.74 1119.63,1341.3 1120.79,1341.85 1121.94,1342.4 1123.1,1342.94 1124.26,1343.47 1125.42,1344 1126.58,1344.52 1127.73,1345.04 1128.89,1345.55 1130.05,1346.05 1131.21,1346.55 1132.37,1347.04 1133.52,1347.52 1134.68,1348 1135.84,1348.47 1137,1348.93 1138.15,1349.39 1139.31,1349.84 1140.47,1350.29 1141.63,1350.73 1142.79,1351.16 1143.94,1351.59 1145.1,1352.01 1146.26,1352.42 1147.42,1352.83 1148.58,1353.23 1149.73,885.346 1150.89,891.631 1152.05,897.851 1153.21,904.007 1154.36,910.099 1155.52,916.127 1156.68,922.091 1157.84,927.99 1159,933.826 1160.15,939.597 1161.31,945.304 1162.47,950.948 1163.63,956.527 1164.79,962.041 1165.94,967.492 1167.1,972.879 1168.26,978.201 1169.42,983.46 1170.57,988.654 1171.73,993.784 1172.89,998.85 1174.05,1003.85 1175.21,1008.79 1176.36,1013.66 1177.52,1018.47 1178.68,1023.22 1179.84,1027.9 1181,1032.52 1182.15,1037.07 1183.31,1041.56 1184.47,1045.98 1185.63,1050.34 1186.78,1054.64 1187.94,1058.87 1189.1,1063.04 1190.26,1067.14 1191.42,1071.17 1192.57,1075.15 1193.73,1079.08 1194.89,1082.97 1196.05,1086.81 1197.21,1090.61 1198.36,1094.36 1199.52,1098.07 1200.68,1101.73 1201.84,1105.35 1203,1108.93 1204.15,1112.46 1205.31,1115.94 1206.47,1119.39 1207.63,1122.78 1208.78,1126.14 1209.94,1129.44 1211.1,1132.71 1212.26,1135.93 1213.42,1139.1 1214.57,1142.23 1215.73,1145.31 1216.89,1148.31 1218.05,1151.28 1219.21,1154.22 1220.36,1157.14 1221.52,1160.02 1222.68,1162.87 1223.84,1165.69 1224.99,1168.48 1226.15,1171.25 1227.31,1173.98 1228.47,1176.68 1229.63,1179.35 1230.78,1181.99 1231.94,1184.6 1233.1,1187.19 1234.26,1189.74 1235.42,1192.26 1236.57,1194.75 1237.73,1197.21 1238.89,1199.64 1240.05,1202.04 1241.2,1204.42 1242.36,1206.76 1243.52,1209.07 1244.68,1211.35 1245.84,1213.6 1246.99,1215.82 1248.15,1218.01 1249.31,1220.18 1250.47,1222.31 1251.63,1224.41 1252.78,1226.48 1253.94,1228.52 1255.1,1230.53 1256.26,1232.51 1257.41,1234.46 1258.57,1236.38 1259.73,1238.27 1260.89,1240.13 1262.05,1241.95 1263.2,1243.75 1264.36,1245.53 1265.52,1247.29 1266.68,1249.04 1267.84,1250.76 1268.99,1252.47 1270.15,1254.16 1271.31,1255.82 1272.47,1257.47 1273.62,1259.1 1274.78,1260.71 1275.94,1262.3 1277.1,1263.88 1278.26,1265.43 1279.41,1266.96 1280.57,1268.48 1281.73,1269.97 1282.89,1271.45 1284.05,1272.91 1285.2,1274.35 1286.36,1275.76 1287.52,1277.17 1288.68,1278.55 1289.83,1279.91 1290.99,1281.25 1292.15,1282.57 1293.31,1283.88 1294.47,1285.16 1295.62,1286.43 1296.78,1287.67 1297.94,1288.88 1299.1,1290.08 1300.26,1291.26 1301.41,1292.43 1302.57,1293.6 1303.73,1294.75 1304.89,1295.88 1306.05,1297.01 1307.2,1298.12 1308.36,1299.23 1309.52,1300.32 1310.68,1301.4 1311.83,1302.47 1312.99,1303.52 1314.15,1304.57 1315.31,1305.6 1316.47,1306.62 1317.62,1307.63 1318.78,1308.63 1319.94,1309.62 1321.1,1310.59 1322.26,1311.55 1323.41,1312.5 1324.57,1313.44 1325.73,1314.37 1326.89,1315.29 1328.04,1316.19 1329.2,1317.08 1330.36,1317.97 1331.52,1318.83 1332.68,1319.69 1333.83,1320.54 1334.99,1321.37 1336.15,1322.2 1337.31,1323.01 1338.47,1323.81 1339.62,1324.59 1340.78,1325.37 1341.94,1326.13 1343.1,1326.89 1344.25,1327.63 1345.41,1328.36 1346.57,1329.07 1347.73,1329.78 1348.89,1330.47 1350.04,1331.14 1351.2,1331.81 1352.36,1332.47 1353.52,1333.13 1354.68,1333.77 1355.83,1334.42 1356.99,1335.05 1358.15,1335.68 1359.31,1336.3 1360.46,1336.91 1361.62,1337.52 1362.78,1338.12 1363.94,1338.72 1365.1,1339.31 1366.25,1339.89 1367.41,1340.46 1368.57,1341.03 1369.73,1341.59 1370.89,1342.15 1372.04,1342.7 1373.2,1343.24 1374.36,1343.77 1375.52,1344.3 1376.67,1344.82 1377.83,1345.34 1378.99,1345.85 1380.15,1346.35 1381.31,1346.85 1382.46,1347.34 1383.62,1347.82 1384.78,1348.29 1385.94,1348.76 1387.1,1349.23 1388.25,1349.68 1389.41,1350.13 1390.57,1350.57 1391.73,1351.01 1392.89,1351.44 1394.04,1351.86 1395.2,1352.28 1396.36,1352.69 1397.52,1353.09 1398.67,1353.48 1399.83,1353.87 1400.99,1354.25 1402.15,1354.63 1403.31,1355 1404.46,1355.37 1405.62,1355.74 1406.78,1356.1 1407.94,1356.46 1409.1,1356.82 1410.25,1357.17 1411.41,1357.52 1412.57,1357.86 1413.73,1358.2 1414.88,1358.54 1416.04,1358.87 1417.2,1359.2 1418.36,1359.52 1419.52,1359.85 1420.67,1360.16 1421.83,1360.48 1422.99,1360.79 1424.15,1361.1 1425.31,1361.4 1426.46,1361.7 1427.62,1361.99 1428.78,1362.29 1429.94,1362.57 1431.09,1362.86 1432.25,1363.14 1433.41,1363.42 1434.57,1363.69 1435.73,1363.96 1436.88,1364.22 1438.04,1364.49 1439.2,1364.74 1440.36,1365 1441.52,1365.25 1442.67,1365.5 1443.83,1365.74 1444.99,1365.98 1446.15,1366.22 1447.3,1366.45 1448.46,1366.68 1449.62,1366.9 1450.78,1050.46 1451.94,1054.66 1453.09,1058.81 1454.25,1062.92 1455.41,1066.99 1456.57,1071.02 1457.73,1075 1458.88,1078.95 1460.04,1082.85 1461.2,1086.71 1462.36,1090.53 1463.51,1094.3 1464.67,1098.04 1465.83,1101.73 1466.99,1105.38 1468.15,1108.99 1469.3,1112.56 1470.46,1116.08 1471.62,1119.56 1472.78,1123 1473.94,1126.4 1475.09,1129.76 1476.25,1133.08 1477.41,1136.35 1478.57,1139.58 1479.72,1142.77 1480.88,1145.92 1482.04,1149.03 1483.2,1152.09 1484.36,1155.12 1485.51,1158.1 1486.67,1161.03 1487.83,1163.93 1488.99,1166.79 1490.15,1169.6 1491.3,1172.37 1492.46,1175.1 1493.62,1177.79 1494.78,1180.44 1495.94,1183.04 1497.09,1185.59 1498.25,1188.11 1499.41,1190.6 1500.57,1193.07 1501.72,1195.5 1502.88,1197.91 1504.04,1200.29 1505.2,1202.65 1506.36,1204.97 1507.51,1207.27 1508.67,1209.54 1509.83,1211.79 1510.99,1214 1512.15,1216.19 1513.3,1218.35 1514.46,1220.48 1515.62,1222.59 1516.78,1224.67 1517.93,1226.72 1519.09,1228.74 1520.25,1230.73 1521.41,1232.7 1522.57,1234.64 1523.72,1236.55 1524.88,1238.44 1526.04,1240.27 1527.2,1242.07 1528.36,1243.86 1529.51,1245.63 1530.67,1247.38 1531.83,1249.12 1532.99,1250.84 1534.14,1252.54 1535.3,1254.22 1536.46,1255.88 1537.62,1257.53 1538.78,1259.16 1539.93,1260.77 1541.09,1262.36 1542.25,1263.94 1543.41,1265.5 1544.57,1267.04 1545.72,1268.56 1546.88,1270.07 1548.04,1271.55 1549.2,1273.02 1550.35,1274.48 1551.51,1275.91 1552.67,1277.33 1553.83,1278.73 1554.99,1280.11 1556.14,1281.47 1557.3,1282.82 1558.46,1284.15 1559.62,1285.46 1560.78,1286.75 1561.93,1288.03 1563.09,1289.29 1564.25,1290.53 1565.41,1291.75 1566.56,1292.96 1567.72,1294.14 1568.88,1295.31 1570.04,1296.47 1571.2,1297.6 1572.35,1298.72 1573.51,1299.82 1574.67,1300.9 1575.83,1301.96 1576.99,1303 1578.14,1304.02 1579.3,1305.04 1580.46,1306.04 1581.62,1307.03 1582.78,1308.02 1583.93,1308.99 1585.09,1309.95 1586.25,1310.9 1587.41,1311.84 1588.56,1312.77 1589.72,1313.69 1590.88,1314.6 1592.04,1315.5 1593.2,1316.39 1594.35,1317.26 1595.51,1318.13 1596.67,1318.99 1597.83,1319.84 1598.99,1320.67 1600.14,1321.5 1601.3,1322.31 1602.46,1323.12 1603.62,1323.91 1604.77,1324.69 1605.93,1325.47 1607.09,1326.23 1608.25,1326.98 1609.41,1327.72 1610.56,1328.46 1611.72,1329.18 1612.88,1329.89 1614.04,1330.59 1615.2,1331.28 1616.35,1331.96 1617.51,1332.62 1618.67,1333.28 1619.83,1333.91 1620.98,1334.54 1622.14,1335.16 1623.3,1335.78 1624.46,1336.39 1625.62,1336.99 1626.77,1337.59 1627.93,1338.18 1629.09,1338.77 1630.25,1339.35 1631.41,1339.92 1632.56,1340.49 1633.72,1341.06 1634.88,1341.61 1636.04,1342.17 1637.19,1342.71 1638.35,1343.25 1639.51,1343.79 1640.67,1344.31 1641.83,1344.84 1642.98,1345.35 1644.14,1345.86 1645.3,1346.37 1646.46,1346.87 1647.62,1347.36 1648.77,1347.84 1649.93,1348.33 1651.09,1348.8 1652.25,1349.27 1653.4,1349.73 1654.56,1350.19 1655.72,1350.64 1656.88,1351.09 1658.04,1351.53 1659.19,1351.96 1660.35,1352.39 1661.51,1352.81 1662.67,1353.23 1663.83,1353.64 1664.98,1354.04 1666.14,1354.44 1667.3,1354.83 1668.46,1355.22 1669.61,1355.6 1670.77,1355.98 1671.93,1356.35 1673.09,1356.71 1674.25,1357.07 1675.4,1357.42 1676.56,1357.76 1677.72,1358.1 1678.88,1358.44 1680.04,1358.76 1681.19,1359.08 1682.35,1359.39 1683.51,1359.7 1684.67,1360.01 1685.83,1360.32 1686.98,1360.62 1688.14,1360.92 1689.3,1361.22 1690.46,1361.51 1691.61,1361.8 1692.77,1362.09 1693.93,1362.38 1695.09,1362.66 1696.25,1362.94 1697.4,1363.21 1698.56,1363.49 1699.72,1363.76 1700.88,1364.02 1702.04,1364.29 1703.19,1364.55 1704.35,1364.81 1705.51,1365.06 1706.67,1365.31 1707.82,1365.56 1708.98,1365.81 1710.14,1366.05 1711.3,1366.29 1712.46,1366.53 1713.61,1366.76 1714.77,1367 1715.93,1367.22 1717.09,1367.45 1718.25,1367.67 1719.4,1367.89 1720.56,1368.11 1721.72,1368.32 1722.88,1368.53 1724.03,1368.74 1725.19,1368.94 1726.35,1369.15 1727.51,1369.35 1728.67,1369.54 1729.82,1369.73 1730.98,1369.92 1732.14,1370.11 1733.3,1370.29 1734.46,1370.47 1735.61,1370.65 1736.77,1370.83 1737.93,1371 1739.09,1371.17 1740.24,1371.33 1741.4,1371.5 1742.56,1371.66 1743.72,1371.82 1744.88,1371.98 1746.03,1372.14 1747.19,1372.29 1748.35,1372.44 1749.51,1372.59 1750.67,1372.74 1751.82,1111.56 1752.98,1114.98 1754.14,1118.36 1755.3,1121.72 1756.45,1125.04 1757.61,1128.32 1758.77,1131.57 1759.93,1134.79 1761.09,1137.98 1762.24,1141.13 1763.4,1144.24 1764.56,1147.33 1765.72,1150.38 1766.88,1153.4 1768.03,1156.38 1769.19,1159.33 1770.35,1162.25 1771.51,1165.14 1772.67,1167.99 1773.82,1170.8 1774.98,1173.59 1776.14,1176.34 1777.3,1179.05 1778.45,1181.74 1779.61,1184.39 1780.77,1187 1781.93,1189.59 1783.09,1192.14 1784.24,1194.65 1785.4,1197.14 1786.56,1199.59 1787.72,1202 1788.88,1204.38 1790.03,1206.73 1791.19,1209.05 1792.35,1211.33 1793.51,1213.58 1794.66,1215.8 1795.82,1217.98 1796.98,1220.13 1798.14,1222.24 1799.3,1224.32 1800.45,1226.37 1801.61,1228.38 1802.77,1230.37 1803.93,1232.33 1805.09,1234.27 1806.24,1236.18 1807.4,1238.07 1808.56,1239.94 1809.72,1241.78 1810.87,1243.6 1812.03,1245.39 1813.19,1247.16 1814.35,1248.9 1815.51,1250.6 1816.66,1252.29 1817.82,1253.96 1818.98,1255.61 1820.14,1257.25 1821.3,1258.87 1822.45,1260.47 1823.61,1262.05 1824.77,1263.62 1825.93,1265.17 1827.08,1266.7 1828.24,1268.21 1829.4,1269.71 1830.56,1271.19 1831.72,1272.65 1832.87,1274.09 1834.03,1275.52 1835.19,1276.93 1836.35,1278.32 1837.51,1279.69 1838.66,1281.05 1839.82,1282.39 1840.98,1283.71 1842.14,1285.02 1843.29,1286.3 1844.45,1287.57 1845.61,1288.82 1846.77,1290.06 1847.93,1291.27 1849.08,1292.47 1850.24,1293.66 1851.4,1294.82 1852.56,1295.97 1853.72,1297.1 1854.87,1298.21 1856.03,1299.3 1857.19,1300.38 1858.35,1301.44 1859.51,1302.5 1860.66,1303.54 1861.82,1304.57 1862.98,1305.59 1864.14,1306.59 1865.29,1307.59 1866.45,1308.57 1867.61,1309.54 1868.77,1310.5 1869.93,1311.45 1871.08,1312.39 1872.24,1313.31 1873.4,1314.22 1874.56,1315.12 1875.72,1316.01 1876.87,1316.89 1878.03,1317.75 1879.19,1318.61 1880.35,1319.45 1881.5,1320.28 1882.66,1321.09 1883.82,1321.9 1884.98,1322.68 1886.14,1323.45 1887.29,1324.21 1888.45,1324.97 1889.61,1325.72 1890.77,1326.46 1891.93,1327.19 1893.08,1327.92 1894.24,1328.64 1895.4,1329.35 1896.56,1330.06 1897.71,1330.75 1898.87,1331.44 1900.03,1332.12 1901.19,1332.8 1902.35,1333.46 1903.5,1334.12 1904.66,1334.77 1905.82,1335.42 1906.98,1336.05 1908.14,1336.68 1909.29,1337.31 1910.45,1337.92 1911.61,1338.53 1912.77,1339.13 1913.92,1339.72 1915.08,1340.3 1916.24,1340.88 1917.4,1341.45 1918.56,1342.01 1919.71,1342.56 1920.87,1343.11 1922.03,1343.65 1923.19,1344.18 1924.35,1344.71 1925.5,1345.22 1926.66,1345.73 1927.82,1346.24 1928.98,1346.73 1930.13,1347.22 1931.29,1347.7 1932.45,1348.17 1933.61,1348.63 1934.77,1349.09 1935.92,1349.54 1937.08,1349.98 1938.24,1350.41 1939.4,1350.84 1940.56,1351.26 1941.71,1351.68 1942.87,1352.09 1944.03,1352.5 1945.19,1352.9 1946.34,1353.3 1947.5,1353.7 1948.66,1354.09 1949.82,1354.48 1950.98,1354.86 1952.13,1355.24 1953.29,1355.62 1954.45,1355.99 1955.61,1356.35 1956.77,1356.71 1957.92,1357.07 1959.08,1357.42 1960.24,1357.77 1961.4,1358.12 1962.56,1358.46 1963.71,1358.79 1964.87,1359.13 1966.03,1359.45 1967.19,1359.78 1968.34,1360.09 1969.5,1360.41 1970.66,1360.72 1971.82,1361.03 1972.98,1361.33 1974.13,1361.62 1975.29,1361.92 1976.45,1362.21 1977.61,1362.49 1978.77,1362.77 1979.92,1363.05 1981.08,1363.32 1982.24,1363.58 1983.4,1363.84 1984.55,1364.09 1985.71,1364.34 1986.87,1364.59 1988.03,1364.84 1989.19,1365.08 1990.34,1365.32 1991.5,1365.56 1992.66,1365.8 1993.82,1366.03 1994.98,1366.26 1996.13,1366.49 1997.29,1366.72 1998.45,1366.95 1999.61,1367.17 2000.76,1367.39 2001.92,1367.61 2003.08,1367.83 2004.24,1368.04 2005.4,1368.25 2006.55,1368.46 2007.71,1368.67 2008.87,1368.87 2010.03,1369.08 2011.19,1369.28 2012.34,1369.47 2013.5,1369.67 2014.66,1369.86 2015.82,1370.06 2016.97,1370.24 2018.13,1370.43 2019.29,1370.62 2020.45,1370.8 2021.61,1370.98 2022.76,1371.16 2023.92,1371.33 2025.08,1371.51 2026.24,1371.68 2027.4,1371.85 2028.55,1372.01 2029.71,1372.18 2030.87,1372.34 2032.03,1372.5 2033.18,1372.66 2034.34,1372.81 2035.5,1372.96 2036.66,1373.11 2037.82,1373.26 2038.97,1373.41 2040.13,1373.55 2041.29,1373.69 2042.45,1373.83 2043.61,1373.97 2044.76,1374.11 2045.92,1374.24 2047.08,1374.37 2048.24,1374.5 2049.4,1374.62 2050.55,1374.75 2051.71,1374.87 2052.87,1374.98 2054.03,1375.1 2055.18,1375.21 2056.34,1375.32 2057.5,1375.44 2058.66,1375.55 2059.82,1375.66 2060.97,1375.76 2062.13,1375.87 2063.29,1375.98 2064.45,1376.08 2065.61,1376.19 2066.76,1376.29 2067.92,1376.39 2069.08,1376.5 2070.24,1376.6 2071.39,1376.69 2072.55,1376.79 2073.71,1376.89 2074.87,1376.99 2076.03,1377.08 2077.18,1377.18 2078.34,1377.27 2079.5,1377.36 2080.66,1377.45 2081.82,1377.54 2082.97,1377.63 2084.13,1377.72 2085.29,1377.8 2086.45,1377.89 2087.6,1377.98 2088.76,1378.06 2089.92,1378.14 2091.08,1378.22 2092.24,1378.3 2093.39,1378.38 2094.55,1378.46 2095.71,1378.54 2096.87,1378.61 2098.03,1378.69 2099.18,1378.76 2100.34,1378.84 2101.5,1378.91 2102.66,1378.98 2103.81,1379.05 2104.97,1379.12 2106.13,1379.19 2107.29,1379.26 2108.45,1379.32 2109.6,1379.39 2110.76,1379.45 2111.92,1379.51 2113.08,1379.57 2114.24,1379.64 2115.39,1379.69 2116.55,1379.75 2117.71,1379.81 2118.87,1379.87 2120.02,1379.92 2121.18,1379.97 2122.34,1380.03 2123.5,1380.08 2124.66,1380.13 2125.81,1380.18 2126.97,1380.23 2128.13,1380.28 2129.29,1380.33 2130.45,1380.38 2131.6,1380.43 2132.76,1380.48 2133.92,1380.52 2135.08,1380.57 2136.23,1380.62 2137.39,1380.67 2138.55,1380.71 2139.71,1380.76 2140.87,1380.8 2142.02,1380.85 2143.18,1380.89 2144.34,1380.94 2145.5,1380.98 2146.66,1381.02 2147.81,1381.07 2148.97,1381.11 2150.13,1381.15 2151.29,1381.19 2152.45,1381.23 2153.6,1381.27 2154.76,1381.31 2155.92,1381.35 2157.08,1381.39 2158.23,1381.43 2159.39,1381.47 2160.55,1381.51 2161.71,1381.54 2162.87,1381.58 2164.02,1381.62 2165.18,1381.65 2166.34,1381.69 2167.5,1381.72 2168.66,1381.76 2169.81,1381.79 2170.97,1381.83 2172.13,1381.86 2173.29,1381.89 2174.44,1381.92 2175.6,1381.96 2176.76,1381.99 2177.92,1382.02 2179.08,1382.05 2180.23,1382.08 2181.39,1382.11 2182.55,1382.14 2183.71,1382.17 2184.87,1382.2 2186.02,1382.22 2187.18,1382.25 2188.34,1382.28 2189.5,1382.31 2190.65,1382.33 2191.81,1382.36 2192.97,1382.38 2194.13,1382.41 2195.29,1382.43 2196.44,1382.46 2197.6,1382.48 2198.76,1382.5 2199.92,1382.53 2201.08,1382.55 2202.23,1382.57 2203.39,1382.59 2204.55,1382.61 2205.71,1382.63 2206.86,1382.65 2208.02,1382.67 2209.18,1382.69 2210.34,1382.71 2211.5,1382.73 2212.65,1382.75 2213.81,1382.77 2214.97,1382.79 2216.13,1382.8 2217.29,1382.82 2218.44,1382.84 2219.6,1382.86 2220.76,1382.88 2221.92,1382.89 2223.07,1382.91 2224.23,1382.93 2225.39,1382.95 2226.55,1382.96 2227.71,1382.98 2228.86,1383 2230.02,1383.01 2231.18,1383.03 2232.34,1383.04 2233.5,1383.06 2234.65,1383.08 2235.81,1383.09 2236.97,1383.11 2238.13,1383.12 2239.29,1383.14 2240.44,1383.15 2241.6,1383.17 2242.76,1383.18 2243.92,1383.19 2245.07,1383.21 2246.23,1383.22 2247.39,1383.24 2248.55,1383.25 2249.71,1383.26 2250.86,1383.28 2252.02,1383.29 2253.18,1383.3 2254.34,1383.32 2255.5,1383.33 2256.65,1383.34 2257.81,1383.35 2258.97,1383.37 2260.13,1383.38 2261.28,1383.39 2262.44,1383.4 2263.6,1383.41 2264.76,1383.42 2265.92,1383.44 2267.07,1383.45 2268.23,1383.46 2269.39,1383.47 2270.55,1383.48 2271.71,1383.49 2272.86,1383.5 2274.02,1383.51 2275.18,1383.52 2276.34,1383.53 2277.49,1383.54 2278.65,1383.55 2279.81,1383.56 2280.97,1383.57 2282.13,1383.57 2283.28,1383.58 2284.44,1383.59 2285.6,1383.6 2286.76,1383.61 2287.92,1383.62 2289.07,1383.62 2290.23,1383.63 2291.39,1383.64 2292.55,1383.65 2293.7,1383.65 2294.86,1383.66 2296.02,1383.67 2297.18,1383.68 2298.34,1383.68 2299.49,1383.69 2300.65,1383.7 2301.81,1383.7 2302.97,1383.71 2304.13,1383.72 2305.28,1383.72 2306.44,1383.73 2307.6,1383.74 2308.76,1383.74 2309.91,1383.75 2311.07,1383.76 2312.23,1383.76 2313.39,1383.77 2314.55,1383.78 2315.7,1383.78 2316.86,1383.79 2318.02,1383.79 2319.18,1383.8 2320.34,1383.81 2321.49,1383.81 2322.65,1383.82 2323.81,1383.82 2324.97,1383.83 2326.12,1383.83 2327.28,1383.84 2328.44,1383.84 2329.6,1383.85 2330.76,1383.85 2331.91,1383.86 2333.07,1383.87 2334.23,1383.87 2335.39,1383.88 2336.55,1383.88 2337.7,1383.88 2338.86,1383.89 2340.02,1383.89 2341.18,1383.9 2342.34,1383.9 2343.49,1383.91 2344.65,1383.91 2345.81,1383.92 2346.97,1383.92 2348.12,1383.92 2349.28,1383.93 2350.44,1383.93 2351.6,1383.94 2352.76,1383.94 "/>
<path clip-path="url(#clip190)" d="M1982.84 196.789 L2282.55 196.789 L2282.55 93.1086 L1982.84 93.1086  Z" fill="#ffffff" fill-rule="evenodd" fill-opacity="1"/>
<polyline clip-path="url(#clip190)" style="stroke:#000000; stroke-linecap:round; stroke-linejoin:round; stroke-width:4; stroke-opacity:1; fill:none" points="1982.84,196.789 2282.55,196.789 2282.55,93.1086 1982.84,93.1086 1982.84,196.789 "/>
<polyline clip-path="url(#clip190)" style="stroke:#009af9; stroke-linecap:round; stroke-linejoin:round; stroke-width:4; stroke-opacity:1; fill:none" points="2006.24,144.949 2146.65,144.949 "/>
<path clip-path="url(#clip190)" d="M2170.05 151.997 L2170.05 136.303 L2174.31 136.303 L2174.31 151.835 Q2174.31 155.516 2175.75 157.368 Q2177.18 159.196 2180.05 159.196 Q2183.5 159.196 2185.49 156.997 Q2187.51 154.798 2187.51 151.002 L2187.51 136.303 L2191.76 136.303 L2191.76 162.229 L2187.51 162.229 L2187.51 158.247 Q2185.95 160.608 2183.89 161.766 Q2181.86 162.9 2179.15 162.9 Q2174.68 162.9 2172.37 160.122 Q2170.05 157.344 2170.05 151.997 M2180.77 135.678 L2180.77 135.678 Z" fill="#000000" fill-rule="nonzero" fill-opacity="1" /><path clip-path="url(#clip190)" d="M2200.14 126.21 L2209.96 126.21 L2209.96 129.52 L2204.4 129.52 L2204.4 165.168 L2209.96 165.168 L2209.96 168.479 L2200.14 168.479 L2200.14 126.21 Z" fill="#000000" fill-rule="nonzero" fill-opacity="1" /><path clip-path="url(#clip190)" d="M2218.45 127.669 L2240.68 127.669 L2240.68 129.659 L2228.13 162.229 L2223.25 162.229 L2235.05 131.604 L2218.45 131.604 L2218.45 127.669 Z" fill="#000000" fill-rule="nonzero" fill-opacity="1" /><path clip-path="url(#clip190)" d="M2259.15 126.21 L2259.15 168.479 L2249.33 168.479 L2249.33 165.168 L2254.87 165.168 L2254.87 129.52 L2249.33 129.52 L2249.33 126.21 L2259.15 126.21 Z" fill="#000000" fill-rule="nonzero" fill-opacity="1" /></svg>
