<?xml version="1.0" encoding="utf-8"?>
<svg xmlns="http://www.w3.org/2000/svg" xmlns:xlink="http://www.w3.org/1999/xlink" width="600" height="400" viewBox="0 0 2400 1600">
<defs>
  <clipPath id="clip860">
    <rect x="0" y="0" width="2400" height="1600"/>
  </clipPath>
</defs>
<path clip-path="url(#clip860)" d="M0 1600 L2400 1600 L2400 0 L0 0  Z" fill="#ffffff" fill-rule="evenodd" fill-opacity="1"/>
<defs>
  <clipPath id="clip861">
    <rect x="480" y="0" width="1681" height="1600"/>
  </clipPath>
</defs>
<path clip-path="url(#clip860)" d="M192.941 1423.18 L2352.76 1423.18 L2352.76 47.2441 L192.941 47.2441  Z" fill="#ffffff" fill-rule="evenodd" fill-opacity="1"/>
<defs>
  <clipPath id="clip862">
    <rect x="192" y="47" width="2161" height="1377"/>
  </clipPath>
</defs>
<polyline clip-path="url(#clip862)" style="stroke:#000000; stroke-linecap:round; stroke-linejoin:round; stroke-width:2; stroke-opacity:0.1; fill:none" points="192.941,1423.18 192.941,47.2441 "/>
<polyline clip-path="url(#clip862)" style="stroke:#000000; stroke-linecap:round; stroke-linejoin:round; stroke-width:2; stroke-opacity:0.1; fill:none" points="880.431,1423.18 880.431,47.2441 "/>
<polyline clip-path="url(#clip862)" style="stroke:#000000; stroke-linecap:round; stroke-linejoin:round; stroke-width:2; stroke-opacity:0.1; fill:none" points="1567.92,1423.18 1567.92,47.2441 "/>
<polyline clip-path="url(#clip862)" style="stroke:#000000; stroke-linecap:round; stroke-linejoin:round; stroke-width:2; stroke-opacity:0.1; fill:none" points="2255.41,1423.18 2255.41,47.2441 "/>
<polyline clip-path="url(#clip860)" style="stroke:#000000; stroke-linecap:round; stroke-linejoin:round; stroke-width:4; stroke-opacity:1; fill:none" points="192.941,1423.18 2352.76,1423.18 "/>
<polyline clip-path="url(#clip860)" style="stroke:#000000; stroke-linecap:round; stroke-linejoin:round; stroke-width:4; stroke-opacity:1; fill:none" points="192.941,1423.18 192.941,1404.28 "/>
<polyline clip-path="url(#clip860)" style="stroke:#000000; stroke-linecap:round; stroke-linejoin:round; stroke-width:4; stroke-opacity:1; fill:none" points="880.431,1423.18 880.431,1404.28 "/>
<polyline clip-path="url(#clip860)" style="stroke:#000000; stroke-linecap:round; stroke-linejoin:round; stroke-width:4; stroke-opacity:1; fill:none" points="1567.92,1423.18 1567.92,1404.28 "/>
<polyline clip-path="url(#clip860)" style="stroke:#000000; stroke-linecap:round; stroke-linejoin:round; stroke-width:4; stroke-opacity:1; fill:none" points="2255.41,1423.18 2255.41,1404.28 "/>
<path clip-path="url(#clip860)" d="M170.325 1454.1 Q166.714 1454.1 164.885 1457.66 Q163.08 1461.2 163.08 1468.33 Q163.08 1475.44 164.885 1479.01 Q166.714 1482.55 170.325 1482.55 Q173.959 1482.55 175.765 1479.01 Q177.593 1475.44 177.593 1468.33 Q177.593 1461.2 175.765 1457.66 Q173.959 1454.1 170.325 1454.1 M170.325 1450.39 Q176.135 1450.39 179.191 1455 Q182.269 1459.58 182.269 1468.33 Q182.269 1477.06 179.191 1481.67 Q176.135 1486.25 170.325 1486.25 Q164.515 1486.25 161.436 1481.67 Q158.381 1477.06 158.381 1468.33 Q158.381 1459.58 161.436 1455 Q164.515 1450.39 170.325 1450.39 Z" fill="#000000" fill-rule="nonzero" fill-opacity="1" /><path clip-path="url(#clip860)" d="M190.487 1479.7 L195.371 1479.7 L195.371 1485.58 L190.487 1485.58 L190.487 1479.7 Z" fill="#000000" fill-rule="nonzero" fill-opacity="1" /><path clip-path="url(#clip860)" d="M215.556 1454.1 Q211.945 1454.1 210.116 1457.66 Q208.311 1461.2 208.311 1468.33 Q208.311 1475.44 210.116 1479.01 Q211.945 1482.55 215.556 1482.55 Q219.19 1482.55 220.996 1479.01 Q222.825 1475.44 222.825 1468.33 Q222.825 1461.2 220.996 1457.66 Q219.19 1454.1 215.556 1454.1 M215.556 1450.39 Q221.366 1450.39 224.422 1455 Q227.501 1459.58 227.501 1468.33 Q227.501 1477.06 224.422 1481.67 Q221.366 1486.25 215.556 1486.25 Q209.746 1486.25 206.667 1481.67 Q203.612 1477.06 203.612 1468.33 Q203.612 1459.58 206.667 1455 Q209.746 1450.39 215.556 1450.39 Z" fill="#000000" fill-rule="nonzero" fill-opacity="1" /><path clip-path="url(#clip860)" d="M858.313 1454.1 Q854.702 1454.1 852.873 1457.66 Q851.068 1461.2 851.068 1468.33 Q851.068 1475.44 852.873 1479.01 Q854.702 1482.55 858.313 1482.55 Q861.947 1482.55 863.753 1479.01 Q865.582 1475.44 865.582 1468.33 Q865.582 1461.2 863.753 1457.66 Q861.947 1454.1 858.313 1454.1 M858.313 1450.39 Q864.123 1450.39 867.179 1455 Q870.258 1459.58 870.258 1468.33 Q870.258 1477.06 867.179 1481.67 Q864.123 1486.25 858.313 1486.25 Q852.503 1486.25 849.424 1481.67 Q846.369 1477.06 846.369 1468.33 Q846.369 1459.58 849.424 1455 Q852.503 1450.39 858.313 1450.39 Z" fill="#000000" fill-rule="nonzero" fill-opacity="1" /><path clip-path="url(#clip860)" d="M878.475 1479.7 L883.359 1479.7 L883.359 1485.58 L878.475 1485.58 L878.475 1479.7 Z" fill="#000000" fill-rule="nonzero" fill-opacity="1" /><path clip-path="url(#clip860)" d="M893.591 1451.02 L911.947 1451.02 L911.947 1454.96 L897.873 1454.96 L897.873 1463.43 Q898.892 1463.08 899.91 1462.92 Q900.929 1462.73 901.947 1462.73 Q907.734 1462.73 911.114 1465.9 Q914.494 1469.08 914.494 1474.49 Q914.494 1480.07 911.021 1483.17 Q907.549 1486.25 901.23 1486.25 Q899.054 1486.25 896.785 1485.88 Q894.54 1485.51 892.133 1484.77 L892.133 1480.07 Q894.216 1481.2 896.438 1481.76 Q898.66 1482.32 901.137 1482.32 Q905.142 1482.32 907.48 1480.21 Q909.818 1478.1 909.818 1474.49 Q909.818 1470.88 907.48 1468.77 Q905.142 1466.67 901.137 1466.67 Q899.262 1466.67 897.387 1467.08 Q895.535 1467.5 893.591 1468.38 L893.591 1451.02 Z" fill="#000000" fill-rule="nonzero" fill-opacity="1" /><path clip-path="url(#clip860)" d="M1535.07 1481.64 L1542.71 1481.64 L1542.71 1455.28 L1534.4 1456.95 L1534.4 1452.69 L1542.67 1451.02 L1547.34 1451.02 L1547.34 1481.64 L1554.98 1481.64 L1554.98 1485.58 L1535.07 1485.58 L1535.07 1481.64 Z" fill="#000000" fill-rule="nonzero" fill-opacity="1" /><path clip-path="url(#clip860)" d="M1564.43 1479.7 L1569.31 1479.7 L1569.31 1485.58 L1564.43 1485.58 L1564.43 1479.7 Z" fill="#000000" fill-rule="nonzero" fill-opacity="1" /><path clip-path="url(#clip860)" d="M1589.5 1454.1 Q1585.88 1454.1 1584.06 1457.66 Q1582.25 1461.2 1582.25 1468.33 Q1582.25 1475.44 1584.06 1479.01 Q1585.88 1482.55 1589.5 1482.55 Q1593.13 1482.55 1594.94 1479.01 Q1596.76 1475.44 1596.76 1468.33 Q1596.76 1461.2 1594.94 1457.66 Q1593.13 1454.1 1589.5 1454.1 M1589.5 1450.39 Q1595.31 1450.39 1598.36 1455 Q1601.44 1459.58 1601.44 1468.33 Q1601.44 1477.06 1598.36 1481.67 Q1595.31 1486.25 1589.5 1486.25 Q1583.69 1486.25 1580.61 1481.67 Q1577.55 1477.06 1577.55 1468.33 Q1577.55 1459.58 1580.61 1455 Q1583.69 1450.39 1589.5 1450.39 Z" fill="#000000" fill-rule="nonzero" fill-opacity="1" /><path clip-path="url(#clip860)" d="M2223.06 1481.64 L2230.7 1481.64 L2230.7 1455.28 L2222.39 1456.95 L2222.39 1452.69 L2230.66 1451.02 L2235.33 1451.02 L2235.33 1481.64 L2242.97 1481.64 L2242.97 1485.58 L2223.06 1485.58 L2223.06 1481.64 Z" fill="#000000" fill-rule="nonzero" fill-opacity="1" /><path clip-path="url(#clip860)" d="M2252.41 1479.7 L2257.3 1479.7 L2257.3 1485.58 L2252.41 1485.58 L2252.41 1479.7 Z" fill="#000000" fill-rule="nonzero" fill-opacity="1" /><path clip-path="url(#clip860)" d="M2267.53 1451.02 L2285.89 1451.02 L2285.89 1454.96 L2271.81 1454.96 L2271.81 1463.43 Q2272.83 1463.08 2273.85 1462.92 Q2274.87 1462.73 2275.89 1462.73 Q2281.67 1462.73 2285.05 1465.9 Q2288.43 1469.08 2288.43 1474.49 Q2288.43 1480.07 2284.96 1483.17 Q2281.49 1486.25 2275.17 1486.25 Q2272.99 1486.25 2270.72 1485.88 Q2268.48 1485.51 2266.07 1484.77 L2266.07 1480.07 Q2268.16 1481.2 2270.38 1481.76 Q2272.6 1482.32 2275.08 1482.32 Q2279.08 1482.32 2281.42 1480.21 Q2283.76 1478.1 2283.76 1474.49 Q2283.76 1470.88 2281.42 1468.77 Q2279.08 1466.67 2275.08 1466.67 Q2273.2 1466.67 2271.33 1467.08 Q2269.47 1467.5 2267.53 1468.38 L2267.53 1451.02 Z" fill="#000000" fill-rule="nonzero" fill-opacity="1" /><path clip-path="url(#clip860)" d="M1271.91 1522.27 L1271.91 1532.4 L1283.97 1532.4 L1283.97 1536.95 L1271.91 1536.95 L1271.91 1556.3 Q1271.91 1560.66 1273.09 1561.9 Q1274.3 1563.14 1277.96 1563.14 L1283.97 1563.14 L1283.97 1568.04 L1277.96 1568.04 Q1271.18 1568.04 1268.6 1565.53 Q1266.02 1562.98 1266.02 1556.3 L1266.02 1536.95 L1261.72 1536.95 L1261.72 1532.4 L1266.02 1532.4 L1266.02 1522.27 L1271.91 1522.27 Z" fill="#000000" fill-rule="nonzero" fill-opacity="1" /><polyline clip-path="url(#clip862)" style="stroke:#000000; stroke-linecap:round; stroke-linejoin:round; stroke-width:2; stroke-opacity:0.1; fill:none" points="192.941,1207.19 2352.76,1207.19 "/>
<polyline clip-path="url(#clip862)" style="stroke:#000000; stroke-linecap:round; stroke-linejoin:round; stroke-width:2; stroke-opacity:0.1; fill:none" points="192.941,871.399 2352.76,871.399 "/>
<polyline clip-path="url(#clip862)" style="stroke:#000000; stroke-linecap:round; stroke-linejoin:round; stroke-width:2; stroke-opacity:0.1; fill:none" points="192.941,535.604 2352.76,535.604 "/>
<polyline clip-path="url(#clip862)" style="stroke:#000000; stroke-linecap:round; stroke-linejoin:round; stroke-width:2; stroke-opacity:0.1; fill:none" points="192.941,199.81 2352.76,199.81 "/>
<polyline clip-path="url(#clip860)" style="stroke:#000000; stroke-linecap:round; stroke-linejoin:round; stroke-width:4; stroke-opacity:1; fill:none" points="192.941,1423.18 192.941,47.2441 "/>
<polyline clip-path="url(#clip860)" style="stroke:#000000; stroke-linecap:round; stroke-linejoin:round; stroke-width:4; stroke-opacity:1; fill:none" points="192.941,1207.19 211.838,1207.19 "/>
<polyline clip-path="url(#clip860)" style="stroke:#000000; stroke-linecap:round; stroke-linejoin:round; stroke-width:4; stroke-opacity:1; fill:none" points="192.941,871.399 211.838,871.399 "/>
<polyline clip-path="url(#clip860)" style="stroke:#000000; stroke-linecap:round; stroke-linejoin:round; stroke-width:4; stroke-opacity:1; fill:none" points="192.941,535.604 211.838,535.604 "/>
<polyline clip-path="url(#clip860)" style="stroke:#000000; stroke-linecap:round; stroke-linejoin:round; stroke-width:4; stroke-opacity:1; fill:none" points="192.941,199.81 211.838,199.81 "/>
<path clip-path="url(#clip860)" d="M50.9921 1207.64 L80.6679 1207.64 L80.6679 1211.58 L50.9921 1211.58 L50.9921 1207.64 Z" fill="#000000" fill-rule="nonzero" fill-opacity="1" /><path clip-path="url(#clip860)" d="M94.7882 1220.54 L111.108 1220.54 L111.108 1224.47 L89.1632 1224.47 L89.1632 1220.54 Q91.8252 1217.78 96.4085 1213.15 Q101.015 1208.5 102.196 1207.16 Q104.441 1204.64 105.321 1202.9 Q106.223 1201.14 106.223 1199.45 Q106.223 1196.7 104.279 1194.96 Q102.358 1193.22 99.2558 1193.22 Q97.0567 1193.22 94.603 1193.99 Q92.1725 1194.75 89.3947 1196.3 L89.3947 1191.58 Q92.2188 1190.45 94.6724 1189.87 Q97.1261 1189.29 99.1632 1189.29 Q104.534 1189.29 107.728 1191.97 Q110.922 1194.66 110.922 1199.15 Q110.922 1201.28 110.112 1203.2 Q109.325 1205.1 107.219 1207.69 Q106.64 1208.36 103.538 1211.58 Q100.436 1214.77 94.7882 1220.54 Z" fill="#000000" fill-rule="nonzero" fill-opacity="1" /><path clip-path="url(#clip860)" d="M120.922 1218.59 L125.807 1218.59 L125.807 1224.47 L120.922 1224.47 L120.922 1218.59 Z" fill="#000000" fill-rule="nonzero" fill-opacity="1" /><path clip-path="url(#clip860)" d="M136.038 1189.91 L154.394 1189.91 L154.394 1193.85 L140.32 1193.85 L140.32 1202.32 Q141.339 1201.97 142.357 1201.81 Q143.376 1201.63 144.394 1201.63 Q150.181 1201.63 153.561 1204.8 Q156.941 1207.97 156.941 1213.39 Q156.941 1218.96 153.468 1222.07 Q149.996 1225.14 143.677 1225.14 Q141.501 1225.14 139.232 1224.77 Q136.987 1224.4 134.58 1223.66 L134.58 1218.96 Q136.663 1220.1 138.885 1220.65 Q141.107 1221.21 143.584 1221.21 Q147.589 1221.21 149.927 1219.1 Q152.265 1217 152.265 1213.39 Q152.265 1209.77 149.927 1207.67 Q147.589 1205.56 143.584 1205.56 Q141.709 1205.56 139.834 1205.98 Q137.982 1206.39 136.038 1207.27 L136.038 1189.91 Z" fill="#000000" fill-rule="nonzero" fill-opacity="1" /><path clip-path="url(#clip860)" d="M99.765 857.197 Q96.1539 857.197 94.3252 860.762 Q92.5197 864.304 92.5197 871.433 Q92.5197 878.54 94.3252 882.105 Q96.1539 885.646 99.765 885.646 Q103.399 885.646 105.205 882.105 Q107.033 878.54 107.033 871.433 Q107.033 864.304 105.205 860.762 Q103.399 857.197 99.765 857.197 M99.765 853.494 Q105.575 853.494 108.631 858.1 Q111.709 862.683 111.709 871.433 Q111.709 880.16 108.631 884.767 Q105.575 889.35 99.765 889.35 Q93.9549 889.35 90.8762 884.767 Q87.8206 880.16 87.8206 871.433 Q87.8206 862.683 90.8762 858.1 Q93.9549 853.494 99.765 853.494 Z" fill="#000000" fill-rule="nonzero" fill-opacity="1" /><path clip-path="url(#clip860)" d="M119.927 882.799 L124.811 882.799 L124.811 888.679 L119.927 888.679 L119.927 882.799 Z" fill="#000000" fill-rule="nonzero" fill-opacity="1" /><path clip-path="url(#clip860)" d="M144.996 857.197 Q141.385 857.197 139.556 860.762 Q137.751 864.304 137.751 871.433 Q137.751 878.54 139.556 882.105 Q141.385 885.646 144.996 885.646 Q148.63 885.646 150.436 882.105 Q152.265 878.54 152.265 871.433 Q152.265 864.304 150.436 860.762 Q148.63 857.197 144.996 857.197 M144.996 853.494 Q150.806 853.494 153.862 858.1 Q156.941 862.683 156.941 871.433 Q156.941 880.16 153.862 884.767 Q150.806 889.35 144.996 889.35 Q139.186 889.35 136.107 884.767 Q133.052 880.16 133.052 871.433 Q133.052 862.683 136.107 858.1 Q139.186 853.494 144.996 853.494 Z" fill="#000000" fill-rule="nonzero" fill-opacity="1" /><path clip-path="url(#clip860)" d="M94.7882 548.949 L111.108 548.949 L111.108 552.884 L89.1632 552.884 L89.1632 548.949 Q91.8252 546.194 96.4085 541.565 Q101.015 536.912 102.196 535.569 Q104.441 533.046 105.321 531.31 Q106.223 529.551 106.223 527.861 Q106.223 525.106 104.279 523.37 Q102.358 521.634 99.2558 521.634 Q97.0567 521.634 94.603 522.398 Q92.1725 523.162 89.3947 524.713 L89.3947 519.991 Q92.2188 518.857 94.6724 518.278 Q97.1261 517.699 99.1632 517.699 Q104.534 517.699 107.728 520.384 Q110.922 523.069 110.922 527.56 Q110.922 529.69 110.112 531.611 Q109.325 533.509 107.219 536.102 Q106.64 536.773 103.538 539.991 Q100.436 543.185 94.7882 548.949 Z" fill="#000000" fill-rule="nonzero" fill-opacity="1" /><path clip-path="url(#clip860)" d="M120.922 547.005 L125.807 547.005 L125.807 552.884 L120.922 552.884 L120.922 547.005 Z" fill="#000000" fill-rule="nonzero" fill-opacity="1" /><path clip-path="url(#clip860)" d="M136.038 518.324 L154.394 518.324 L154.394 522.259 L140.32 522.259 L140.32 530.731 Q141.339 530.384 142.357 530.222 Q143.376 530.037 144.394 530.037 Q150.181 530.037 153.561 533.208 Q156.941 536.38 156.941 541.796 Q156.941 547.375 153.468 550.477 Q149.996 553.555 143.677 553.555 Q141.501 553.555 139.232 553.185 Q136.987 552.815 134.58 552.074 L134.58 547.375 Q136.663 548.509 138.885 549.065 Q141.107 549.62 143.584 549.62 Q147.589 549.62 149.927 547.514 Q152.265 545.407 152.265 541.796 Q152.265 538.185 149.927 536.079 Q147.589 533.972 143.584 533.972 Q141.709 533.972 139.834 534.389 Q137.982 534.806 136.038 535.685 L136.038 518.324 Z" fill="#000000" fill-rule="nonzero" fill-opacity="1" /><path clip-path="url(#clip860)" d="M89.8114 182.53 L108.168 182.53 L108.168 186.465 L94.0937 186.465 L94.0937 194.937 Q95.1123 194.59 96.1308 194.428 Q97.1493 194.243 98.1678 194.243 Q103.955 194.243 107.334 197.414 Q110.714 200.585 110.714 206.002 Q110.714 211.58 107.242 214.682 Q103.77 217.761 97.4502 217.761 Q95.2743 217.761 93.0058 217.391 Q90.7604 217.02 88.353 216.279 L88.353 211.58 Q90.4364 212.715 92.6586 213.27 Q94.8808 213.826 97.3576 213.826 Q101.362 213.826 103.7 211.719 Q106.038 209.613 106.038 206.002 Q106.038 202.391 103.7 200.284 Q101.362 198.178 97.3576 198.178 Q95.4826 198.178 93.6076 198.594 Q91.7558 199.011 89.8114 199.891 L89.8114 182.53 Z" fill="#000000" fill-rule="nonzero" fill-opacity="1" /><path clip-path="url(#clip860)" d="M119.927 211.21 L124.811 211.21 L124.811 217.09 L119.927 217.09 L119.927 211.21 Z" fill="#000000" fill-rule="nonzero" fill-opacity="1" /><path clip-path="url(#clip860)" d="M144.996 185.608 Q141.385 185.608 139.556 189.173 Q137.751 192.715 137.751 199.844 Q137.751 206.951 139.556 210.516 Q141.385 214.057 144.996 214.057 Q148.63 214.057 150.436 210.516 Q152.265 206.951 152.265 199.844 Q152.265 192.715 150.436 189.173 Q148.63 185.608 144.996 185.608 M144.996 181.905 Q150.806 181.905 153.862 186.511 Q156.941 191.094 156.941 199.844 Q156.941 208.571 153.862 213.178 Q150.806 217.761 144.996 217.761 Q139.186 217.761 136.107 213.178 Q133.052 208.571 133.052 199.844 Q133.052 191.094 136.107 186.511 Q139.186 181.905 144.996 181.905 Z" fill="#000000" fill-rule="nonzero" fill-opacity="1" /><polyline clip-path="url(#clip862)" style="stroke:#009af9; stroke-linecap:round; stroke-linejoin:round; stroke-width:4; stroke-opacity:1; fill:none" points="192.941,1082.38 260.435,1055.6 327.929,1025.71 395.423,992.94 462.918,957.69 530.412,920.552 597.906,882.286 665.4,843.765 732.894,805.889 800.389,769.49 867.883,735.263 935.377,703.719 1002.87,675.177 1070.37,649.783 1137.86,627.55 1205.35,608.397 1272.85,592.183 1340.34,578.746 1407.84,567.917 1475.33,559.542 1542.83,553.492 1610.32,549.666 1677.81,548 1745.31,548.463 1812.8,551.064 1880.3,555.848 1947.79,562.896 2015.28,572.32 2082.78,584.262 2150.27,598.883 2217.77,616.351 2285.26,636.822 2352.76,660.413 "/>
<polyline clip-path="url(#clip862)" style="stroke:#e26f46; stroke-linecap:round; stroke-linejoin:round; stroke-width:4; stroke-opacity:1; fill:none" points="192.941,357.916 260.435,293.651 327.929,232.153 395.423,176.877 462.918,131.731 530.412,100.511 597.906,86.1857 665.4,90.2163 732.894,112.197 800.389,149.952 867.883,200.062 935.377,258.592 1002.87,321.766 1070.37,386.428 1137.86,450.24 1205.35,511.685 1272.85,569.952 1340.34,624.775 1407.84,676.282 1475.33,724.864 1542.83,771.087 1610.32,815.616 1677.81,859.177 1745.31,902.522 1812.8,946.409 1880.3,991.581 1947.79,1038.74 2015.28,1088.52 2082.78,1141.4 2150.27,1197.69 2217.77,1257.35 2285.26,1319.9 2352.76,1384.24 "/>
<path clip-path="url(#clip860)" d="M1957.1 248.629 L2280.76 248.629 L2280.76 93.1086 L1957.1 93.1086  Z" fill="#ffffff" fill-rule="evenodd" fill-opacity="1"/>
<polyline clip-path="url(#clip860)" style="stroke:#000000; stroke-linecap:round; stroke-linejoin:round; stroke-width:4; stroke-opacity:1; fill:none" points="1957.1,248.629 2280.76,248.629 2280.76,93.1086 1957.1,93.1086 1957.1,248.629 "/>
<polyline clip-path="url(#clip860)" style="stroke:#009af9; stroke-linecap:round; stroke-linejoin:round; stroke-width:4; stroke-opacity:1; fill:none" points="1981.09,144.949 2125.08,144.949 "/>
<path clip-path="url(#clip860)" d="M2149.08 151.997 L2149.08 136.303 L2153.34 136.303 L2153.34 151.835 Q2153.34 155.516 2154.77 157.368 Q2156.21 159.196 2159.08 159.196 Q2162.53 159.196 2164.52 156.997 Q2166.53 154.798 2166.53 151.002 L2166.53 136.303 L2170.79 136.303 L2170.79 162.229 L2166.53 162.229 L2166.53 158.247 Q2164.98 160.608 2162.92 161.766 Q2160.88 162.9 2158.18 162.9 Q2153.71 162.9 2151.39 160.122 Q2149.08 157.344 2149.08 151.997 M2159.8 135.678 L2159.8 135.678 Z" fill="#000000" fill-rule="nonzero" fill-opacity="1" /><path clip-path="url(#clip860)" d="M2180.98 158.293 L2188.62 158.293 L2188.62 131.928 L2180.31 133.595 L2180.31 129.335 L2188.57 127.669 L2193.25 127.669 L2193.25 158.293 L2200.88 158.293 L2200.88 162.229 L2180.98 162.229 L2180.98 158.293 Z" fill="#000000" fill-rule="nonzero" fill-opacity="1" /><path clip-path="url(#clip860)" d="M2219.96 126.257 Q2216.86 131.581 2215.35 136.789 Q2213.85 141.997 2213.85 147.344 Q2213.85 152.692 2215.35 157.946 Q2216.88 163.178 2219.96 168.479 L2216.26 168.479 Q2212.78 163.039 2211.05 157.784 Q2209.33 152.53 2209.33 147.344 Q2209.33 142.182 2211.05 136.951 Q2212.76 131.72 2216.26 126.257 L2219.96 126.257 Z" fill="#000000" fill-rule="nonzero" fill-opacity="1" /><path clip-path="url(#clip860)" d="M2232.44 128.942 L2232.44 136.303 L2241.21 136.303 L2241.21 139.613 L2232.44 139.613 L2232.44 153.687 Q2232.44 156.858 2233.29 157.761 Q2234.17 158.664 2236.83 158.664 L2241.21 158.664 L2241.21 162.229 L2236.83 162.229 Q2231.9 162.229 2230.03 160.4 Q2228.15 158.548 2228.15 153.687 L2228.15 139.613 L2225.03 139.613 L2225.03 136.303 L2228.15 136.303 L2228.15 128.942 L2232.44 128.942 Z" fill="#000000" fill-rule="nonzero" fill-opacity="1" /><path clip-path="url(#clip860)" d="M2246.14 126.257 L2249.84 126.257 Q2253.32 131.72 2255.03 136.951 Q2256.76 142.182 2256.76 147.344 Q2256.76 152.53 2255.03 157.784 Q2253.32 163.039 2249.84 168.479 L2246.14 168.479 Q2249.22 163.178 2250.72 157.946 Q2252.25 152.692 2252.25 147.344 Q2252.25 141.997 2250.72 136.789 Q2249.22 131.581 2246.14 126.257 Z" fill="#000000" fill-rule="nonzero" fill-opacity="1" /><polyline clip-path="url(#clip860)" style="stroke:#e26f46; stroke-linecap:round; stroke-linejoin:round; stroke-width:4; stroke-opacity:1; fill:none" points="1981.09,196.789 2125.08,196.789 "/>
<path clip-path="url(#clip860)" d="M2149.08 203.837 L2149.08 188.143 L2153.34 188.143 L2153.34 203.675 Q2153.34 207.356 2154.77 209.208 Q2156.21 211.036 2159.08 211.036 Q2162.53 211.036 2164.52 208.837 Q2166.53 206.638 2166.53 202.842 L2166.53 188.143 L2170.79 188.143 L2170.79 214.069 L2166.53 214.069 L2166.53 210.087 Q2164.98 212.448 2162.92 213.606 Q2160.88 214.74 2158.18 214.74 Q2153.71 214.74 2151.39 211.962 Q2149.08 209.184 2149.08 203.837 M2159.8 187.518 L2159.8 187.518 Z" fill="#000000" fill-rule="nonzero" fill-opacity="1" /><path clip-path="url(#clip860)" d="M2184.2 210.133 L2200.51 210.133 L2200.51 214.069 L2178.57 214.069 L2178.57 210.133 Q2181.23 207.379 2185.82 202.749 Q2190.42 198.096 2191.6 196.754 Q2193.85 194.231 2194.73 192.495 Q2195.63 190.735 2195.63 189.046 Q2195.63 186.291 2193.69 184.555 Q2191.76 182.819 2188.66 182.819 Q2186.46 182.819 2184.01 183.583 Q2181.58 184.347 2178.8 185.897 L2178.8 181.175 Q2181.63 180.041 2184.08 179.462 Q2186.53 178.884 2188.57 178.884 Q2193.94 178.884 2197.13 181.569 Q2200.33 184.254 2200.33 188.745 Q2200.33 190.874 2199.52 192.796 Q2198.73 194.694 2196.63 197.286 Q2196.05 197.958 2192.95 201.175 Q2189.84 204.37 2184.2 210.133 Z" fill="#000000" fill-rule="nonzero" fill-opacity="1" /><path clip-path="url(#clip860)" d="M2219.96 178.097 Q2216.86 183.421 2215.35 188.629 Q2213.85 193.837 2213.85 199.184 Q2213.85 204.532 2215.35 209.786 Q2216.88 215.018 2219.96 220.319 L2216.26 220.319 Q2212.78 214.879 2211.05 209.624 Q2209.33 204.37 2209.33 199.184 Q2209.33 194.022 2211.05 188.791 Q2212.76 183.56 2216.26 178.097 L2219.96 178.097 Z" fill="#000000" fill-rule="nonzero" fill-opacity="1" /><path clip-path="url(#clip860)" d="M2232.44 180.782 L2232.44 188.143 L2241.21 188.143 L2241.21 191.453 L2232.44 191.453 L2232.44 205.527 Q2232.44 208.698 2233.29 209.601 Q2234.17 210.504 2236.83 210.504 L2241.21 210.504 L2241.21 214.069 L2236.83 214.069 Q2231.9 214.069 2230.03 212.24 Q2228.15 210.388 2228.15 205.527 L2228.15 191.453 L2225.03 191.453 L2225.03 188.143 L2228.15 188.143 L2228.15 180.782 L2232.44 180.782 Z" fill="#000000" fill-rule="nonzero" fill-opacity="1" /><path clip-path="url(#clip860)" d="M2246.14 178.097 L2249.84 178.097 Q2253.32 183.56 2255.03 188.791 Q2256.76 194.022 2256.76 199.184 Q2256.76 204.37 2255.03 209.624 Q2253.32 214.879 2249.84 220.319 L2246.14 220.319 Q2249.22 215.018 2250.72 209.786 Q2252.25 204.532 2252.25 199.184 Q2252.25 193.837 2250.72 188.629 Q2249.22 183.421 2246.14 178.097 Z" fill="#000000" fill-rule="nonzero" fill-opacity="1" /></svg>
