<?xml version="1.0" encoding="utf-8"?>
<svg xmlns="http://www.w3.org/2000/svg" xmlns:xlink="http://www.w3.org/1999/xlink" width="600" height="400" viewBox="0 0 2400 1600">
<defs>
  <clipPath id="clip170">
    <rect x="0" y="0" width="2400" height="1600"/>
  </clipPath>
</defs>
<path clip-path="url(#clip170)" d="M0 1600 L2400 1600 L2400 0 L0 0  Z" fill="#ffffff" fill-rule="evenodd" fill-opacity="1"/>
<defs>
  <clipPath id="clip171">
    <rect x="184" y="47" width="2170" height="1377"/>
  </clipPath>
</defs>
<path clip-path="url(#clip170)" d="M184.191 1423.18 L2352.76 1423.18 L2352.76 47.2441 L184.191 47.2441  Z" fill="#ffffff" fill-rule="evenodd" fill-opacity="1"/>
<polyline clip-path="url(#clip171)" style="stroke:#000000; stroke-linecap:round; stroke-linejoin:round; stroke-width:2; stroke-opacity:0.1; fill:none" points="184.191,1423.18 184.191,47.2441 "/>
<polyline clip-path="url(#clip171)" style="stroke:#000000; stroke-linecap:round; stroke-linejoin:round; stroke-width:2; stroke-opacity:0.1; fill:none" points="617.904,1423.18 617.904,47.2441 "/>
<polyline clip-path="url(#clip171)" style="stroke:#000000; stroke-linecap:round; stroke-linejoin:round; stroke-width:2; stroke-opacity:0.1; fill:none" points="1051.62,1423.18 1051.62,47.2441 "/>
<polyline clip-path="url(#clip171)" style="stroke:#000000; stroke-linecap:round; stroke-linejoin:round; stroke-width:2; stroke-opacity:0.1; fill:none" points="1485.33,1423.18 1485.33,47.2441 "/>
<polyline clip-path="url(#clip171)" style="stroke:#000000; stroke-linecap:round; stroke-linejoin:round; stroke-width:2; stroke-opacity:0.1; fill:none" points="1919.04,1423.18 1919.04,47.2441 "/>
<polyline clip-path="url(#clip171)" style="stroke:#000000; stroke-linecap:round; stroke-linejoin:round; stroke-width:2; stroke-opacity:0.1; fill:none" points="2352.76,1423.18 2352.76,47.2441 "/>
<polyline clip-path="url(#clip171)" style="stroke:#000000; stroke-linecap:round; stroke-linejoin:round; stroke-width:2; stroke-opacity:0.1; fill:none" points="184.191,1172.27 2352.76,1172.27 "/>
<polyline clip-path="url(#clip171)" style="stroke:#000000; stroke-linecap:round; stroke-linejoin:round; stroke-width:2; stroke-opacity:0.1; fill:none" points="184.191,900.059 2352.76,900.059 "/>
<polyline clip-path="url(#clip171)" style="stroke:#000000; stroke-linecap:round; stroke-linejoin:round; stroke-width:2; stroke-opacity:0.1; fill:none" points="184.191,627.853 2352.76,627.853 "/>
<polyline clip-path="url(#clip171)" style="stroke:#000000; stroke-linecap:round; stroke-linejoin:round; stroke-width:2; stroke-opacity:0.1; fill:none" points="184.191,355.646 2352.76,355.646 "/>
<polyline clip-path="url(#clip171)" style="stroke:#000000; stroke-linecap:round; stroke-linejoin:round; stroke-width:2; stroke-opacity:0.1; fill:none" points="184.191,83.4397 2352.76,83.4397 "/>
<polyline clip-path="url(#clip170)" style="stroke:#000000; stroke-linecap:round; stroke-linejoin:round; stroke-width:4; stroke-opacity:1; fill:none" points="184.191,1423.18 2352.76,1423.18 "/>
<polyline clip-path="url(#clip170)" style="stroke:#000000; stroke-linecap:round; stroke-linejoin:round; stroke-width:4; stroke-opacity:1; fill:none" points="184.191,1423.18 184.191,1404.28 "/>
<polyline clip-path="url(#clip170)" style="stroke:#000000; stroke-linecap:round; stroke-linejoin:round; stroke-width:4; stroke-opacity:1; fill:none" points="617.904,1423.18 617.904,1404.28 "/>
<polyline clip-path="url(#clip170)" style="stroke:#000000; stroke-linecap:round; stroke-linejoin:round; stroke-width:4; stroke-opacity:1; fill:none" points="1051.62,1423.18 1051.62,1404.28 "/>
<polyline clip-path="url(#clip170)" style="stroke:#000000; stroke-linecap:round; stroke-linejoin:round; stroke-width:4; stroke-opacity:1; fill:none" points="1485.33,1423.18 1485.33,1404.28 "/>
<polyline clip-path="url(#clip170)" style="stroke:#000000; stroke-linecap:round; stroke-linejoin:round; stroke-width:4; stroke-opacity:1; fill:none" points="1919.04,1423.18 1919.04,1404.28 "/>
<polyline clip-path="url(#clip170)" style="stroke:#000000; stroke-linecap:round; stroke-linejoin:round; stroke-width:4; stroke-opacity:1; fill:none" points="2352.76,1423.18 2352.76,1404.28 "/>
<path clip-path="url(#clip170)" d="M184.191 1454.1 Q180.58 1454.1 178.751 1457.66 Q176.945 1461.2 176.945 1468.33 Q176.945 1475.44 178.751 1479.01 Q180.58 1482.55 184.191 1482.55 Q187.825 1482.55 189.63 1479.01 Q191.459 1475.44 191.459 1468.33 Q191.459 1461.2 189.63 1457.66 Q187.825 1454.1 184.191 1454.1 M184.191 1450.39 Q190.001 1450.39 193.056 1455 Q196.135 1459.58 196.135 1468.33 Q196.135 1477.06 193.056 1481.67 Q190.001 1486.25 184.191 1486.25 Q178.381 1486.25 175.302 1481.67 Q172.246 1477.06 172.246 1468.33 Q172.246 1459.58 175.302 1455 Q178.381 1450.39 184.191 1450.39 Z" fill="#000000" fill-rule="nonzero" fill-opacity="1" /><path clip-path="url(#clip170)" d="M608.286 1481.64 L615.925 1481.64 L615.925 1455.28 L607.614 1456.95 L607.614 1452.69 L615.878 1451.02 L620.554 1451.02 L620.554 1481.64 L628.193 1481.64 L628.193 1485.58 L608.286 1485.58 L608.286 1481.64 Z" fill="#000000" fill-rule="nonzero" fill-opacity="1" /><path clip-path="url(#clip170)" d="M1046.27 1481.64 L1062.59 1481.64 L1062.59 1485.58 L1040.64 1485.58 L1040.64 1481.64 Q1043.31 1478.89 1047.89 1474.26 Q1052.5 1469.61 1053.68 1468.27 Q1055.92 1465.74 1056.8 1464.01 Q1057.7 1462.25 1057.7 1460.56 Q1057.7 1457.8 1055.76 1456.07 Q1053.84 1454.33 1050.74 1454.33 Q1048.54 1454.33 1046.08 1455.09 Q1043.65 1455.86 1040.88 1457.41 L1040.88 1452.69 Q1043.7 1451.55 1046.15 1450.97 Q1048.61 1450.39 1050.64 1450.39 Q1056.01 1450.39 1059.21 1453.08 Q1062.4 1455.77 1062.4 1460.26 Q1062.4 1462.39 1061.59 1464.31 Q1060.81 1466.2 1058.7 1468.8 Q1058.12 1469.47 1055.02 1472.69 Q1051.92 1475.88 1046.27 1481.64 Z" fill="#000000" fill-rule="nonzero" fill-opacity="1" /><path clip-path="url(#clip170)" d="M1489.58 1466.95 Q1492.93 1467.66 1494.81 1469.93 Q1496.71 1472.2 1496.71 1475.53 Q1496.71 1480.65 1493.19 1483.45 Q1489.67 1486.25 1483.19 1486.25 Q1481.01 1486.25 1478.7 1485.81 Q1476.41 1485.39 1473.95 1484.54 L1473.95 1480.02 Q1475.9 1481.16 1478.21 1481.74 Q1480.53 1482.32 1483.05 1482.32 Q1487.45 1482.32 1489.74 1480.58 Q1492.05 1478.84 1492.05 1475.53 Q1492.05 1472.48 1489.9 1470.77 Q1487.77 1469.03 1483.95 1469.03 L1479.92 1469.03 L1479.92 1465.19 L1484.14 1465.19 Q1487.59 1465.19 1489.42 1463.82 Q1491.24 1462.43 1491.24 1459.84 Q1491.24 1457.18 1489.35 1455.77 Q1487.47 1454.33 1483.95 1454.33 Q1482.03 1454.33 1479.83 1454.75 Q1477.63 1455.16 1474.99 1456.04 L1474.99 1451.88 Q1477.66 1451.14 1479.97 1450.77 Q1482.31 1450.39 1484.37 1450.39 Q1489.69 1450.39 1492.8 1452.83 Q1495.9 1455.23 1495.9 1459.35 Q1495.9 1462.22 1494.25 1464.21 Q1492.61 1466.18 1489.58 1466.95 Z" fill="#000000" fill-rule="nonzero" fill-opacity="1" /><path clip-path="url(#clip170)" d="M1922.05 1455.09 L1910.25 1473.54 L1922.05 1473.54 L1922.05 1455.09 M1920.83 1451.02 L1926.7 1451.02 L1926.7 1473.54 L1931.64 1473.54 L1931.64 1477.43 L1926.7 1477.43 L1926.7 1485.58 L1922.05 1485.58 L1922.05 1477.43 L1906.45 1477.43 L1906.45 1472.92 L1920.83 1451.02 Z" fill="#000000" fill-rule="nonzero" fill-opacity="1" /><path clip-path="url(#clip170)" d="M2343.03 1451.02 L2361.39 1451.02 L2361.39 1454.96 L2347.32 1454.96 L2347.32 1463.43 Q2348.33 1463.08 2349.35 1462.92 Q2350.37 1462.73 2351.39 1462.73 Q2357.18 1462.73 2360.56 1465.9 Q2363.94 1469.08 2363.94 1474.49 Q2363.94 1480.07 2360.46 1483.17 Q2356.99 1486.25 2350.67 1486.25 Q2348.5 1486.25 2346.23 1485.88 Q2343.98 1485.51 2341.58 1484.77 L2341.58 1480.07 Q2343.66 1481.2 2345.88 1481.76 Q2348.1 1482.32 2350.58 1482.32 Q2354.58 1482.32 2356.92 1480.21 Q2359.26 1478.1 2359.26 1474.49 Q2359.26 1470.88 2356.92 1468.77 Q2354.58 1466.67 2350.58 1466.67 Q2348.71 1466.67 2346.83 1467.08 Q2344.98 1467.5 2343.03 1468.38 L2343.03 1451.02 Z" fill="#000000" fill-rule="nonzero" fill-opacity="1" /><path clip-path="url(#clip170)" d="M1267.53 1522.27 L1267.53 1532.4 L1279.6 1532.4 L1279.6 1536.95 L1267.53 1536.95 L1267.53 1556.3 Q1267.53 1560.66 1268.71 1561.9 Q1269.92 1563.14 1273.58 1563.14 L1279.6 1563.14 L1279.6 1568.04 L1273.58 1568.04 Q1266.8 1568.04 1264.22 1565.53 Q1261.65 1562.98 1261.65 1556.3 L1261.65 1536.95 L1257.35 1536.95 L1257.35 1532.4 L1261.65 1532.4 L1261.65 1522.27 L1267.53 1522.27 Z" fill="#000000" fill-rule="nonzero" fill-opacity="1" /><polyline clip-path="url(#clip170)" style="stroke:#000000; stroke-linecap:round; stroke-linejoin:round; stroke-width:4; stroke-opacity:1; fill:none" points="184.191,1423.18 184.191,47.2441 "/>
<polyline clip-path="url(#clip170)" style="stroke:#000000; stroke-linecap:round; stroke-linejoin:round; stroke-width:4; stroke-opacity:1; fill:none" points="184.191,1172.27 203.088,1172.27 "/>
<polyline clip-path="url(#clip170)" style="stroke:#000000; stroke-linecap:round; stroke-linejoin:round; stroke-width:4; stroke-opacity:1; fill:none" points="184.191,900.059 203.088,900.059 "/>
<polyline clip-path="url(#clip170)" style="stroke:#000000; stroke-linecap:round; stroke-linejoin:round; stroke-width:4; stroke-opacity:1; fill:none" points="184.191,627.853 203.088,627.853 "/>
<polyline clip-path="url(#clip170)" style="stroke:#000000; stroke-linecap:round; stroke-linejoin:round; stroke-width:4; stroke-opacity:1; fill:none" points="184.191,355.646 203.088,355.646 "/>
<polyline clip-path="url(#clip170)" style="stroke:#000000; stroke-linecap:round; stroke-linejoin:round; stroke-width:4; stroke-opacity:1; fill:none" points="184.191,83.4397 203.088,83.4397 "/>
<path clip-path="url(#clip170)" d="M86.0382 1185.61 L102.358 1185.61 L102.358 1189.55 L80.4133 1189.55 L80.4133 1185.61 Q83.0753 1182.86 87.6586 1178.23 Q92.2651 1173.57 93.4456 1172.23 Q95.691 1169.71 96.5706 1167.97 Q97.4734 1166.21 97.4734 1164.52 Q97.4734 1161.77 95.5289 1160.03 Q93.6076 1158.3 90.5058 1158.3 Q88.3067 1158.3 85.8531 1159.06 Q83.4225 1159.82 80.6447 1161.37 L80.6447 1156.65 Q83.4688 1155.52 85.9225 1154.94 Q88.3762 1154.36 90.4132 1154.36 Q95.7836 1154.36 98.978 1157.05 Q102.172 1159.73 102.172 1164.22 Q102.172 1166.35 101.362 1168.27 Q100.575 1170.17 98.4687 1172.76 Q97.89 1173.43 94.7882 1176.65 Q91.6864 1179.85 86.0382 1185.61 Z" fill="#000000" fill-rule="nonzero" fill-opacity="1" /><path clip-path="url(#clip170)" d="M112.172 1183.67 L117.057 1183.67 L117.057 1189.55 L112.172 1189.55 L112.172 1183.67 Z" fill="#000000" fill-rule="nonzero" fill-opacity="1" /><path clip-path="url(#clip170)" d="M127.288 1154.99 L145.644 1154.99 L145.644 1158.92 L131.57 1158.92 L131.57 1167.39 Q132.589 1167.05 133.607 1166.88 Q134.626 1166.7 135.644 1166.7 Q141.431 1166.7 144.811 1169.87 Q148.191 1173.04 148.191 1178.46 Q148.191 1184.04 144.718 1187.14 Q141.246 1190.22 134.927 1190.22 Q132.751 1190.22 130.482 1189.85 Q128.237 1189.48 125.83 1188.74 L125.83 1184.04 Q127.913 1185.17 130.135 1185.73 Q132.357 1186.28 134.834 1186.28 Q138.839 1186.28 141.177 1184.18 Q143.515 1182.07 143.515 1178.46 Q143.515 1174.85 141.177 1172.74 Q138.839 1170.63 134.834 1170.63 Q132.959 1170.63 131.084 1171.05 Q129.232 1171.47 127.288 1172.35 L127.288 1154.99 Z" fill="#000000" fill-rule="nonzero" fill-opacity="1" /><path clip-path="url(#clip170)" d="M81.0614 882.779 L99.4178 882.779 L99.4178 886.714 L85.3438 886.714 L85.3438 895.187 Q86.3623 894.839 87.3808 894.677 Q88.3993 894.492 89.4178 894.492 Q95.2049 894.492 98.5845 897.663 Q101.964 900.835 101.964 906.251 Q101.964 911.83 98.4919 914.932 Q95.0197 918.011 88.7003 918.011 Q86.5243 918.011 84.2558 917.64 Q82.0105 917.27 79.6031 916.529 L79.6031 911.83 Q81.6864 912.964 83.9086 913.52 Q86.1308 914.075 88.6077 914.075 Q92.6123 914.075 94.9502 911.969 Q97.2882 909.862 97.2882 906.251 Q97.2882 902.64 94.9502 900.534 Q92.6123 898.427 88.6077 898.427 Q86.7327 898.427 84.8577 898.844 Q83.0058 899.261 81.0614 900.14 L81.0614 882.779 Z" fill="#000000" fill-rule="nonzero" fill-opacity="1" /><path clip-path="url(#clip170)" d="M111.177 911.46 L116.061 911.46 L116.061 917.339 L111.177 917.339 L111.177 911.46 Z" fill="#000000" fill-rule="nonzero" fill-opacity="1" /><path clip-path="url(#clip170)" d="M136.246 885.858 Q132.635 885.858 130.807 889.423 Q129.001 892.964 129.001 900.094 Q129.001 907.2 130.807 910.765 Q132.635 914.307 136.246 914.307 Q139.881 914.307 141.686 910.765 Q143.515 907.2 143.515 900.094 Q143.515 892.964 141.686 889.423 Q139.881 885.858 136.246 885.858 M136.246 882.154 Q142.056 882.154 145.112 886.761 Q148.191 891.344 148.191 900.094 Q148.191 908.821 145.112 913.427 Q142.056 918.011 136.246 918.011 Q130.436 918.011 127.357 913.427 Q124.302 908.821 124.302 900.094 Q124.302 891.344 127.357 886.761 Q130.436 882.154 136.246 882.154 Z" fill="#000000" fill-rule="nonzero" fill-opacity="1" /><path clip-path="url(#clip170)" d="M80.8299 610.573 L103.052 610.573 L103.052 612.563 L90.5058 645.133 L85.6216 645.133 L97.4271 614.508 L80.8299 614.508 L80.8299 610.573 Z" fill="#000000" fill-rule="nonzero" fill-opacity="1" /><path clip-path="url(#clip170)" d="M112.172 639.253 L117.057 639.253 L117.057 645.133 L112.172 645.133 L112.172 639.253 Z" fill="#000000" fill-rule="nonzero" fill-opacity="1" /><path clip-path="url(#clip170)" d="M127.288 610.573 L145.644 610.573 L145.644 614.508 L131.57 614.508 L131.57 622.98 Q132.589 622.633 133.607 622.471 Q134.626 622.286 135.644 622.286 Q141.431 622.286 144.811 625.457 Q148.191 628.628 148.191 634.045 Q148.191 639.623 144.718 642.725 Q141.246 645.804 134.927 645.804 Q132.751 645.804 130.482 645.434 Q128.237 645.063 125.83 644.323 L125.83 639.623 Q127.913 640.758 130.135 641.313 Q132.357 641.869 134.834 641.869 Q138.839 641.869 141.177 639.762 Q143.515 637.656 143.515 634.045 Q143.515 630.434 141.177 628.327 Q138.839 626.221 134.834 626.221 Q132.959 626.221 131.084 626.637 Q129.232 627.054 127.288 627.934 L127.288 610.573 Z" fill="#000000" fill-rule="nonzero" fill-opacity="1" /><path clip-path="url(#clip170)" d="M51.6634 368.991 L59.3023 368.991 L59.3023 342.625 L50.9921 344.292 L50.9921 340.033 L59.256 338.366 L63.9319 338.366 L63.9319 368.991 L71.5707 368.991 L71.5707 372.926 L51.6634 372.926 L51.6634 368.991 Z" fill="#000000" fill-rule="nonzero" fill-opacity="1" /><path clip-path="url(#clip170)" d="M91.0151 341.445 Q87.404 341.445 85.5753 345.01 Q83.7697 348.551 83.7697 355.681 Q83.7697 362.787 85.5753 366.352 Q87.404 369.894 91.0151 369.894 Q94.6493 369.894 96.4548 366.352 Q98.2835 362.787 98.2835 355.681 Q98.2835 348.551 96.4548 345.01 Q94.6493 341.445 91.0151 341.445 M91.0151 337.741 Q96.8252 337.741 99.8808 342.348 Q102.959 346.931 102.959 355.681 Q102.959 364.408 99.8808 369.014 Q96.8252 373.597 91.0151 373.597 Q85.2049 373.597 82.1262 369.014 Q79.0707 364.408 79.0707 355.681 Q79.0707 346.931 82.1262 342.348 Q85.2049 337.741 91.0151 337.741 Z" fill="#000000" fill-rule="nonzero" fill-opacity="1" /><path clip-path="url(#clip170)" d="M111.177 367.047 L116.061 367.047 L116.061 372.926 L111.177 372.926 L111.177 367.047 Z" fill="#000000" fill-rule="nonzero" fill-opacity="1" /><path clip-path="url(#clip170)" d="M136.246 341.445 Q132.635 341.445 130.807 345.01 Q129.001 348.551 129.001 355.681 Q129.001 362.787 130.807 366.352 Q132.635 369.894 136.246 369.894 Q139.881 369.894 141.686 366.352 Q143.515 362.787 143.515 355.681 Q143.515 348.551 141.686 345.01 Q139.881 341.445 136.246 341.445 M136.246 337.741 Q142.056 337.741 145.112 342.348 Q148.191 346.931 148.191 355.681 Q148.191 364.408 145.112 369.014 Q142.056 373.597 136.246 373.597 Q130.436 373.597 127.357 369.014 Q124.302 364.408 124.302 355.681 Q124.302 346.931 127.357 342.348 Q130.436 337.741 136.246 337.741 Z" fill="#000000" fill-rule="nonzero" fill-opacity="1" /><path clip-path="url(#clip170)" d="M52.6588 96.7845 L60.2976 96.7845 L60.2976 70.4189 L51.9875 72.0855 L51.9875 67.8263 L60.2513 66.1597 L64.9272 66.1597 L64.9272 96.7845 L72.5661 96.7845 L72.5661 100.72 L52.6588 100.72 L52.6588 96.7845 Z" fill="#000000" fill-rule="nonzero" fill-opacity="1" /><path clip-path="url(#clip170)" d="M86.0382 96.7845 L102.358 96.7845 L102.358 100.72 L80.4133 100.72 L80.4133 96.7845 Q83.0753 94.0299 87.6586 89.4003 Q92.2651 84.7475 93.4456 83.4049 Q95.691 80.8818 96.5706 79.1457 Q97.4734 77.3864 97.4734 75.6966 Q97.4734 72.942 95.5289 71.2059 Q93.6076 69.4698 90.5058 69.4698 Q88.3067 69.4698 85.8531 70.2337 Q83.4225 70.9976 80.6447 72.5485 L80.6447 67.8263 Q83.4688 66.6921 85.9225 66.1134 Q88.3762 65.5347 90.4132 65.5347 Q95.7836 65.5347 98.978 68.2198 Q102.172 70.905 102.172 75.3957 Q102.172 77.5253 101.362 79.4466 Q100.575 81.3448 98.4687 83.9373 Q97.89 84.6086 94.7882 87.8262 Q91.6864 91.0206 86.0382 96.7845 Z" fill="#000000" fill-rule="nonzero" fill-opacity="1" /><path clip-path="url(#clip170)" d="M112.172 94.8401 L117.057 94.8401 L117.057 100.72 L112.172 100.72 L112.172 94.8401 Z" fill="#000000" fill-rule="nonzero" fill-opacity="1" /><path clip-path="url(#clip170)" d="M127.288 66.1597 L145.644 66.1597 L145.644 70.0948 L131.57 70.0948 L131.57 78.567 Q132.589 78.2198 133.607 78.0577 Q134.626 77.8726 135.644 77.8726 Q141.431 77.8726 144.811 81.0438 Q148.191 84.2151 148.191 89.6317 Q148.191 95.2104 144.718 98.3123 Q141.246 101.391 134.927 101.391 Q132.751 101.391 130.482 101.021 Q128.237 100.65 125.83 99.9095 L125.83 95.2104 Q127.913 96.3447 130.135 96.9002 Q132.357 97.4558 134.834 97.4558 Q138.839 97.4558 141.177 95.3493 Q143.515 93.2428 143.515 89.6317 Q143.515 86.0207 141.177 83.9142 Q138.839 81.8077 134.834 81.8077 Q132.959 81.8077 131.084 82.2244 Q129.232 82.641 127.288 83.5207 L127.288 66.1597 Z" fill="#000000" fill-rule="nonzero" fill-opacity="1" /><polyline clip-path="url(#clip171)" style="stroke:#009af9; stroke-linecap:round; stroke-linejoin:round; stroke-width:4; stroke-opacity:1; fill:none" points="184.191,1335.59 188.528,1335.59 192.865,1335.89 197.202,1336.12 201.539,1336.17 205.876,1336.17 210.213,1336.49 214.551,1336.48 218.888,1336.42 223.225,1336.3 227.562,1336.45 231.899,1336.99 236.236,1337.67 240.573,1338.35 244.911,1338.86 249.248,1339.2 253.585,1339.32 257.922,1339.65 262.259,1340.15 266.596,1340.57 270.933,1341.01 275.27,1341.28 279.608,1341.7 283.945,1342.22 288.282,1343.06 292.619,1343.83 296.956,1344.32 301.293,1345.08 305.63,1345.6 309.967,1345.97 314.305,1346.27 318.642,1346.34 322.979,1346.29 327.316,1346.09 331.653,1345.91 335.99,1345.58 340.327,1345.4 344.665,1345.19 349.002,1345.01 353.339,1344.73 357.676,1344.79 362.013,1344.99 366.35,1344.94 370.687,1344.88 375.024,1344.74 379.362,1344.56 383.699,1344.33 388.036,1344.14 392.373,1344.05 396.71,1344.1 401.047,1344.12 405.384,1344.41 409.721,1344.7 414.059,1344.74 418.396,1344.85 422.733,1344.9 427.07,1345 431.407,1345.32 435.744,1345.35 440.081,1345.53 444.419,1345.66 448.756,1345.8 453.093,1346.06 457.43,1346.37 461.767,1346.63 466.104,1347 470.441,1347.51 474.778,1347.97 479.116,1348.28 483.453,1348.92 487.79,1349.51 492.127,1350.06 496.464,1351 500.801,1351.76 505.138,1352.72 509.475,1353.65 513.813,1354.65 518.15,1355.77 522.487,1356.9 526.824,1357.91 531.161,1358.76 535.498,1359.63 539.835,1360.35 544.173,1361.11 548.51,1361.86 552.847,1362.72 557.184,1363.39 561.521,1364.01 565.858,1364.59 570.195,1365.09 574.532,1365.6 578.87,1366.36 583.207,1367.23 587.544,1368.07 591.881,1368.68 596.218,1369.22 600.555,1369.73 604.892,1370.25 609.229,1370.64 613.567,1370.84 617.904,1370.86 622.241,1370.72 626.578,1370.83 630.915,1370.81 635.252,1370.98 639.589,1371.22 643.927,1371.19 648.264,1371.09 652.601,1370.84 656.938,1370.65 661.275,1370.52 665.612,1370.45 669.949,1370.37 674.286,1370.19 678.624,1370.26 682.961,1370.25 687.298,1370.39 691.635,1370.57 695.972,1370.54 700.309,1370.5 704.646,1370.5 708.983,1370.42 713.321,1370.44 717.658,1370.36 721.995,1370.06 726.332,1369.89 730.669,1369.95 735.006,1370.08 739.343,1370.18 743.681,1370.38 748.018,1370.63 752.355,1371.12 756.692,1371.55 761.029,1372.07 765.366,1372.57 769.703,1373.17 774.04,1373.74 778.378,1374.15 782.715,1374.48 787.052,1374.82 791.389,1375.03 795.726,1375.22 800.063,1375.25 804.4,1375.15 808.737,1375.18 813.075,1375.03 817.412,1375.04 821.749,1375.14 826.086,1375.44 830.423,1375.53 834.76,1375.67 839.097,1375.87 843.435,1376.25 847.772,1376.57 852.109,1376.96 856.446,1377.29 860.783,1377.63 865.12,1377.99 869.457,1378.52 873.794,1379.11 878.132,1379.85 882.469,1380.54 886.806,1381.28 891.143,1382.12 895.48,1382.88 899.817,1383.41 904.154,1383.94 908.491,1384.24 912.829,1384.21 917.166,1384.08 921.503,1384.03 925.84,1383.9 930.177,1383.71 934.514,1383.47 938.851,1383.21 943.189,1383.18 947.526,1383.19 951.863,1383.27 956.2,1383.45 960.537,1383.59 964.874,1383.78 969.211,1383.75 973.548,1383.5 977.886,1383.3 982.223,1383.12 986.56,1383.03 990.897,1382.99 995.234,1383.05 999.571,1383.09 1003.91,1383.09 1008.25,1382.94 1012.58,1382.79 1016.92,1382.64 1021.26,1382.43 1025.59,1382.14 1029.93,1381.89 1034.27,1381.62 1038.61,1381.31 1042.94,1380.83 1047.28,1380.22 1051.62,1379.57 1055.95,1378.8 1060.29,1378.08 1064.63,1377.13 1068.97,1376.1 1073.3,1374.91 1077.64,1373.63 1081.98,1372.39 1086.31,1371.09 1090.65,1369.84 1094.99,1368.71 1099.33,1367.59 1103.66,1366.47 1108,1365.39 1112.34,1364.14 1116.67,1362.88 1121.01,1361.48 1125.35,1360.13 1129.69,1358.68 1134.02,1357.1 1138.36,1355.45 1142.7,1353.78 1147.03,1352.12 1151.37,1350.38 1155.71,1348.57 1160.05,1346.72 1164.38,1344.81 1168.72,1342.94 1173.06,1340.99 1177.39,1339.03 1181.73,1336.96 1186.07,1334.91 1190.4,1333.01 1194.74,1331.09 1199.08,1329.34 1203.42,1327.54 1207.75,1325.46 1212.09,1323.58 1216.43,1321.49 1220.76,1319.64 1225.1,1318.14 1229.44,1316.66 1233.78,1315.22 1238.11,1313.8 1242.45,1312.61 1246.79,1311.61 1251.12,1310.37 1255.46,1309.11 1259.8,1307.39 1264.14,1305.31 1268.47,1302.94 1272.81,1300.37 1277.15,1297.63 1281.48,1294.83 1285.82,1292.07 1290.16,1289.28 1294.5,1286.43 1298.83,1283.37 1303.17,1280.18 1307.51,1277.07 1311.84,1273.78 1316.18,1270.67 1320.52,1267.6 1324.86,1264.27 1329.19,1260.79 1333.53,1257.13 1337.87,1253.39 1342.2,1249.59 1346.54,1245.71 1350.88,1241.74 1355.22,1237.72 1359.55,1233.62 1363.89,1229.41 1368.23,1225.13 1372.56,1220.76 1376.9,1216.29 1381.24,1211.73 1385.58,1207.15 1389.91,1202.49 1394.25,1197.69 1398.59,1192.83 1402.92,1187.93 1407.26,1182.91 1411.6,1177.88 1415.94,1172.68 1420.27,1167.47 1424.61,1162.08 1428.95,1156.51 1433.28,1150.75 1437.62,1144.88 1441.96,1138.9 1446.3,1132.8 1450.63,1126.57 1454.97,1120.21 1459.31,1113.73 1463.64,1107.12 1467.98,1100.54 1472.32,1093.8 1476.66,1086.89 1480.99,1079.75 1485.33,1072.46 1489.67,1065.1 1494,1057.53 1498.34,1049.89 1502.68,1042.02 1507.02,1033.99 1511.35,1025.85 1515.69,1017.56 1520.03,1009.43 1524.36,1000.74 1528.7,992.012 1533.04,983.092 1537.38,973.929 1541.71,964.572 1546.05,955.017 1550.39,945.385 1554.72,935.589 1559.06,925.456 1563.4,915.138 1567.74,904.565 1572.07,893.767 1576.41,882.753 1580.75,871.549 1585.08,860.297 1589.42,848.642 1593.76,836.77 1598.1,824.631 1602.43,812.242 1606.77,799.619 1611.11,787.711 1615.44,775.031 1619.78,762.074 1624.12,749.115 1628.46,735.879 1632.79,723.501 1637.13,711.774 1641.47,699.803 1645.8,689.585 1650.14,679.994 1654.48,670.205 1658.82,658.745 1663.15,647.881 1667.49,637.168 1671.83,626.987 1676.16,616.474 1680.5,606.795 1684.84,594.877 1689.17,583.894 1693.51,572.199 1697.85,559.536 1702.19,548.735 1706.52,540.547 1710.86,530.309 1715.2,521.194 1719.53,511.468 1723.87,502.473 1728.21,491.259 1732.55,479.206 1736.88,469.629 1741.22,463.704 1745.56,456.629 1749.89,451.595 1754.23,446.369 1758.57,443.053 1762.91,439.832 1767.24,436.672 1771.58,434.351 1775.92,428.851 1780.25,420.329 1784.59,413.103 1788.93,406.336 1793.27,401.981 1797.6,398.361 1801.94,392.538 1806.28,386.382 1810.61,377.435 1814.95,369.781 1819.29,362.545 1823.63,357.21 1827.96,351.366 1832.3,348.62 1836.64,349.871 1840.97,347.031 1845.31,345.317 1849.65,342.886 1853.99,339.92 1858.32,335.463 1862.66,329.908 1867,325.941 1871.33,323.58 1875.67,321.963 1880.01,322.477 1884.35,321.449 1888.68,317.637 1893.02,314.695 1897.36,311.331 1901.69,309.675 1906.03,310.402 1910.37,315.469 1914.71,322.241 1919.04,325.865 1923.38,329.788 1927.72,332.382 1932.05,335.31 1936.39,340.638 1940.73,343.295 1945.07,344.479 1949.4,345.958 1953.74,345.633 1958.08,347.643 1962.41,346.713 1966.75,347.074 1971.09,352.279 1975.43,358.13 1979.76,363.847 1984.1,367.901 1988.44,374.127 1992.77,379.78 1997.11,388.398 2001.45,393.174 2005.79,401.683 2010.12,409.76 2014.46,420.307 2018.8,430.276 2023.13,438.68 2027.47,445.664 2031.81,453.33 2036.15,459.493 2040.48,465.697 2044.82,472.909 2049.16,476.523 2053.49,480.223 2057.83,485.779 2062.17,490.907 2066.51,495.394 2070.84,501.192 2075.18,505.898 2079.52,512.579 2083.85,517.003 2088.19,522.596 2092.53,528.448 2096.87,532.093 2101.2,534.982 2105.54,539.423 2109.88,540.446 2114.21,539.946 2118.55,538.879 2122.89,535.233 2127.23,531.517 2131.56,524.395 2135.9,516.197 2140.24,507.948 2144.57,500.649 2148.91,492.193 2153.25,483.379 2157.59,473.535 2161.92,462.216 2166.26,450.067 2170.6,437.584 2174.93,423.803 2179.27,409.485 2183.61,393.896 2187.94,378.601 2192.28,362.015 2196.62,346.653 2200.96,332.774 2205.29,322.551 2209.63,313.166 2213.97,301.972 2218.3,290.246 2222.64,279.675 2226.98,265.809 2231.32,252.291 2235.65,238.107 2239.99,223.035 2244.33,208.412 2248.66,194.585 2253,179.027 2257.34,167.68 2261.68,159.667 2266.01,152.615 2270.35,147.537 2274.69,147.384 2279.02,145.563 2283.36,143.142 2287.7,138.57 2292.04,137.121 2296.37,135.153 2300.71,129.049 2305.05,124.005 2309.38,117.489 2313.72,108.034 2318.06,105.667 2322.4,100.211 2326.73,94.6872 2331.07,91.0333 2335.41,90.4817 2339.74,91.0924 2344.08,91.3544 2348.42,90.3714 2352.76,86.1857 "/>
<path clip-path="url(#clip170)" d="M256.476 196.789 L562.429 196.789 L562.429 93.1086 L256.476 93.1086  Z" fill="#ffffff" fill-rule="evenodd" fill-opacity="1"/>
<polyline clip-path="url(#clip170)" style="stroke:#000000; stroke-linecap:round; stroke-linejoin:round; stroke-width:4; stroke-opacity:1; fill:none" points="256.476,196.789 562.429,196.789 562.429,93.1086 256.476,93.1086 256.476,196.789 "/>
<polyline clip-path="url(#clip170)" style="stroke:#009af9; stroke-linecap:round; stroke-linejoin:round; stroke-width:4; stroke-opacity:1; fill:none" points="280.571,144.949 425.142,144.949 "/>
<path clip-path="url(#clip170)" d="M449.238 151.997 L449.238 136.303 L453.497 136.303 L453.497 151.835 Q453.497 155.516 454.932 157.368 Q456.367 159.196 459.237 159.196 Q462.687 159.196 464.677 156.997 Q466.691 154.798 466.691 151.002 L466.691 136.303 L470.95 136.303 L470.95 162.229 L466.691 162.229 L466.691 158.247 Q465.14 160.608 463.08 161.766 Q461.043 162.9 458.335 162.9 Q453.867 162.9 451.552 160.122 Q449.238 157.344 449.238 151.997 M459.955 135.678 L459.955 135.678 Z" fill="#000000" fill-rule="nonzero" fill-opacity="1" /><path clip-path="url(#clip170)" d="M479.33 126.21 L489.145 126.21 L489.145 129.52 L483.589 129.52 L483.589 165.168 L489.145 165.168 L489.145 168.479 L479.33 168.479 L479.33 126.21 Z" fill="#000000" fill-rule="nonzero" fill-opacity="1" /><path clip-path="url(#clip170)" d="M499.631 158.293 L507.27 158.293 L507.27 131.928 L498.959 133.595 L498.959 129.335 L507.223 127.669 L511.899 127.669 L511.899 158.293 L519.538 158.293 L519.538 162.229 L499.631 162.229 L499.631 158.293 Z" fill="#000000" fill-rule="nonzero" fill-opacity="1" /><path clip-path="url(#clip170)" d="M538.334 126.21 L538.334 168.479 L528.52 168.479 L528.52 165.168 L534.052 165.168 L534.052 129.52 L528.52 129.52 L528.52 126.21 L538.334 126.21 Z" fill="#000000" fill-rule="nonzero" fill-opacity="1" /></svg>
