<?xml version="1.0" encoding="utf-8"?>
<svg xmlns="http://www.w3.org/2000/svg" xmlns:xlink="http://www.w3.org/1999/xlink" width="600" height="400" viewBox="0 0 2400 1600">
<defs>
  <clipPath id="clip200">
    <rect x="0" y="0" width="2400" height="1600"/>
  </clipPath>
</defs>
<path clip-path="url(#clip200)" d="M0 1600 L2400 1600 L2400 0 L0 0  Z" fill="#ffffff" fill-rule="evenodd" fill-opacity="1"/>
<defs>
  <clipPath id="clip201">
    <rect x="137" y="47" width="2216" height="1377"/>
  </clipPath>
</defs>
<path clip-path="url(#clip200)" d="M137.362 1423.18 L2352.76 1423.18 L2352.76 47.2441 L137.362 47.2441  Z" fill="#ffffff" fill-rule="evenodd" fill-opacity="1"/>
<polyline clip-path="url(#clip201)" style="stroke:#000000; stroke-linecap:round; stroke-linejoin:round; stroke-width:2; stroke-opacity:0.1; fill:none" points="137.362,1423.18 137.362,47.2441 "/>
<polyline clip-path="url(#clip201)" style="stroke:#000000; stroke-linecap:round; stroke-linejoin:round; stroke-width:2; stroke-opacity:0.1; fill:none" points="580.441,1423.18 580.441,47.2441 "/>
<polyline clip-path="url(#clip201)" style="stroke:#000000; stroke-linecap:round; stroke-linejoin:round; stroke-width:2; stroke-opacity:0.1; fill:none" points="1023.52,1423.18 1023.52,47.2441 "/>
<polyline clip-path="url(#clip201)" style="stroke:#000000; stroke-linecap:round; stroke-linejoin:round; stroke-width:2; stroke-opacity:0.1; fill:none" points="1466.6,1423.18 1466.6,47.2441 "/>
<polyline clip-path="url(#clip201)" style="stroke:#000000; stroke-linecap:round; stroke-linejoin:round; stroke-width:2; stroke-opacity:0.1; fill:none" points="1909.68,1423.18 1909.68,47.2441 "/>
<polyline clip-path="url(#clip201)" style="stroke:#000000; stroke-linecap:round; stroke-linejoin:round; stroke-width:2; stroke-opacity:0.1; fill:none" points="2352.76,1423.18 2352.76,47.2441 "/>
<polyline clip-path="url(#clip201)" style="stroke:#000000; stroke-linecap:round; stroke-linejoin:round; stroke-width:2; stroke-opacity:0.1; fill:none" points="137.362,1385.44 2352.76,1385.44 "/>
<polyline clip-path="url(#clip201)" style="stroke:#000000; stroke-linecap:round; stroke-linejoin:round; stroke-width:2; stroke-opacity:0.1; fill:none" points="137.362,1112.96 2352.76,1112.96 "/>
<polyline clip-path="url(#clip201)" style="stroke:#000000; stroke-linecap:round; stroke-linejoin:round; stroke-width:2; stroke-opacity:0.1; fill:none" points="137.362,840.485 2352.76,840.485 "/>
<polyline clip-path="url(#clip201)" style="stroke:#000000; stroke-linecap:round; stroke-linejoin:round; stroke-width:2; stroke-opacity:0.1; fill:none" points="137.362,568.006 2352.76,568.006 "/>
<polyline clip-path="url(#clip201)" style="stroke:#000000; stroke-linecap:round; stroke-linejoin:round; stroke-width:2; stroke-opacity:0.1; fill:none" points="137.362,295.527 2352.76,295.527 "/>
<polyline clip-path="url(#clip200)" style="stroke:#000000; stroke-linecap:round; stroke-linejoin:round; stroke-width:4; stroke-opacity:1; fill:none" points="137.362,1423.18 2352.76,1423.18 "/>
<polyline clip-path="url(#clip200)" style="stroke:#000000; stroke-linecap:round; stroke-linejoin:round; stroke-width:4; stroke-opacity:1; fill:none" points="137.362,1423.18 137.362,1404.28 "/>
<polyline clip-path="url(#clip200)" style="stroke:#000000; stroke-linecap:round; stroke-linejoin:round; stroke-width:4; stroke-opacity:1; fill:none" points="580.441,1423.18 580.441,1404.28 "/>
<polyline clip-path="url(#clip200)" style="stroke:#000000; stroke-linecap:round; stroke-linejoin:round; stroke-width:4; stroke-opacity:1; fill:none" points="1023.52,1423.18 1023.52,1404.28 "/>
<polyline clip-path="url(#clip200)" style="stroke:#000000; stroke-linecap:round; stroke-linejoin:round; stroke-width:4; stroke-opacity:1; fill:none" points="1466.6,1423.18 1466.6,1404.28 "/>
<polyline clip-path="url(#clip200)" style="stroke:#000000; stroke-linecap:round; stroke-linejoin:round; stroke-width:4; stroke-opacity:1; fill:none" points="1909.68,1423.18 1909.68,1404.28 "/>
<polyline clip-path="url(#clip200)" style="stroke:#000000; stroke-linecap:round; stroke-linejoin:round; stroke-width:4; stroke-opacity:1; fill:none" points="2352.76,1423.18 2352.76,1404.28 "/>
<path clip-path="url(#clip200)" d="M137.362 1454.1 Q133.751 1454.1 131.922 1457.66 Q130.117 1461.2 130.117 1468.33 Q130.117 1475.44 131.922 1479.01 Q133.751 1482.55 137.362 1482.55 Q140.996 1482.55 142.802 1479.01 Q144.631 1475.44 144.631 1468.33 Q144.631 1461.2 142.802 1457.66 Q140.996 1454.1 137.362 1454.1 M137.362 1450.39 Q143.172 1450.39 146.228 1455 Q149.307 1459.58 149.307 1468.33 Q149.307 1477.06 146.228 1481.67 Q143.172 1486.25 137.362 1486.25 Q131.552 1486.25 128.473 1481.67 Q125.418 1477.06 125.418 1468.33 Q125.418 1459.58 128.473 1455 Q131.552 1450.39 137.362 1450.39 Z" fill="#000000" fill-rule="nonzero" fill-opacity="1" /><path clip-path="url(#clip200)" d="M570.823 1481.64 L578.462 1481.64 L578.462 1455.28 L570.152 1456.95 L570.152 1452.69 L578.416 1451.02 L583.091 1451.02 L583.091 1481.64 L590.73 1481.64 L590.73 1485.58 L570.823 1485.58 L570.823 1481.64 Z" fill="#000000" fill-rule="nonzero" fill-opacity="1" /><path clip-path="url(#clip200)" d="M1018.17 1481.64 L1034.49 1481.64 L1034.49 1485.58 L1012.55 1485.58 L1012.55 1481.64 Q1015.21 1478.89 1019.79 1474.26 Q1024.4 1469.61 1025.58 1468.27 Q1027.83 1465.74 1028.7 1464.01 Q1029.61 1462.25 1029.61 1460.56 Q1029.61 1457.8 1027.66 1456.07 Q1025.74 1454.33 1022.64 1454.33 Q1020.44 1454.33 1017.99 1455.09 Q1015.56 1455.86 1012.78 1457.41 L1012.78 1452.69 Q1015.6 1451.55 1018.06 1450.97 Q1020.51 1450.39 1022.55 1450.39 Q1027.92 1450.39 1031.11 1453.08 Q1034.31 1455.77 1034.31 1460.26 Q1034.31 1462.39 1033.5 1464.31 Q1032.71 1466.2 1030.6 1468.8 Q1030.02 1469.47 1026.92 1472.69 Q1023.82 1475.88 1018.17 1481.64 Z" fill="#000000" fill-rule="nonzero" fill-opacity="1" /><path clip-path="url(#clip200)" d="M1470.85 1466.95 Q1474.2 1467.66 1476.08 1469.93 Q1477.98 1472.2 1477.98 1475.53 Q1477.98 1480.65 1474.46 1483.45 Q1470.94 1486.25 1464.46 1486.25 Q1462.28 1486.25 1459.97 1485.81 Q1457.67 1485.39 1455.22 1484.54 L1455.22 1480.02 Q1457.17 1481.16 1459.48 1481.74 Q1461.8 1482.32 1464.32 1482.32 Q1468.72 1482.32 1471.01 1480.58 Q1473.32 1478.84 1473.32 1475.53 Q1473.32 1472.48 1471.17 1470.77 Q1469.04 1469.03 1465.22 1469.03 L1461.19 1469.03 L1461.19 1465.19 L1465.41 1465.19 Q1468.86 1465.19 1470.68 1463.82 Q1472.51 1462.43 1472.51 1459.84 Q1472.51 1457.18 1470.61 1455.77 Q1468.74 1454.33 1465.22 1454.33 Q1463.3 1454.33 1461.1 1454.75 Q1458.9 1455.16 1456.26 1456.04 L1456.26 1451.88 Q1458.92 1451.14 1461.24 1450.77 Q1463.58 1450.39 1465.64 1450.39 Q1470.96 1450.39 1474.06 1452.83 Q1477.17 1455.23 1477.17 1459.35 Q1477.17 1462.22 1475.52 1464.21 Q1473.88 1466.18 1470.85 1466.95 Z" fill="#000000" fill-rule="nonzero" fill-opacity="1" /><path clip-path="url(#clip200)" d="M1912.69 1455.09 L1900.88 1473.54 L1912.69 1473.54 L1912.69 1455.09 M1911.46 1451.02 L1917.34 1451.02 L1917.34 1473.54 L1922.27 1473.54 L1922.27 1477.43 L1917.34 1477.43 L1917.34 1485.58 L1912.69 1485.58 L1912.69 1477.43 L1897.08 1477.43 L1897.08 1472.92 L1911.46 1451.02 Z" fill="#000000" fill-rule="nonzero" fill-opacity="1" /><path clip-path="url(#clip200)" d="M2343.03 1451.02 L2361.39 1451.02 L2361.39 1454.96 L2347.32 1454.96 L2347.32 1463.43 Q2348.33 1463.08 2349.35 1462.92 Q2350.37 1462.73 2351.39 1462.73 Q2357.18 1462.73 2360.56 1465.9 Q2363.94 1469.08 2363.94 1474.49 Q2363.94 1480.07 2360.46 1483.17 Q2356.99 1486.25 2350.67 1486.25 Q2348.5 1486.25 2346.23 1485.88 Q2343.98 1485.51 2341.58 1484.77 L2341.58 1480.07 Q2343.66 1481.2 2345.88 1481.76 Q2348.1 1482.32 2350.58 1482.32 Q2354.58 1482.32 2356.92 1480.21 Q2359.26 1478.1 2359.26 1474.49 Q2359.26 1470.88 2356.92 1468.77 Q2354.58 1466.67 2350.58 1466.67 Q2348.71 1466.67 2346.83 1467.08 Q2344.98 1467.5 2343.03 1468.38 L2343.03 1451.02 Z" fill="#000000" fill-rule="nonzero" fill-opacity="1" /><path clip-path="url(#clip200)" d="M1244.12 1522.27 L1244.12 1532.4 L1256.18 1532.4 L1256.18 1536.95 L1244.12 1536.95 L1244.12 1556.3 Q1244.12 1560.66 1245.3 1561.9 Q1246.51 1563.14 1250.17 1563.14 L1256.18 1563.14 L1256.18 1568.04 L1250.17 1568.04 Q1243.39 1568.04 1240.81 1565.53 Q1238.23 1562.98 1238.23 1556.3 L1238.23 1536.95 L1233.93 1536.95 L1233.93 1532.4 L1238.23 1532.4 L1238.23 1522.27 L1244.12 1522.27 Z" fill="#000000" fill-rule="nonzero" fill-opacity="1" /><polyline clip-path="url(#clip200)" style="stroke:#000000; stroke-linecap:round; stroke-linejoin:round; stroke-width:4; stroke-opacity:1; fill:none" points="137.362,1423.18 137.362,47.2441 "/>
<polyline clip-path="url(#clip200)" style="stroke:#000000; stroke-linecap:round; stroke-linejoin:round; stroke-width:4; stroke-opacity:1; fill:none" points="137.362,1385.44 156.26,1385.44 "/>
<polyline clip-path="url(#clip200)" style="stroke:#000000; stroke-linecap:round; stroke-linejoin:round; stroke-width:4; stroke-opacity:1; fill:none" points="137.362,1112.96 156.26,1112.96 "/>
<polyline clip-path="url(#clip200)" style="stroke:#000000; stroke-linecap:round; stroke-linejoin:round; stroke-width:4; stroke-opacity:1; fill:none" points="137.362,840.485 156.26,840.485 "/>
<polyline clip-path="url(#clip200)" style="stroke:#000000; stroke-linecap:round; stroke-linejoin:round; stroke-width:4; stroke-opacity:1; fill:none" points="137.362,568.006 156.26,568.006 "/>
<polyline clip-path="url(#clip200)" style="stroke:#000000; stroke-linecap:round; stroke-linejoin:round; stroke-width:4; stroke-opacity:1; fill:none" points="137.362,295.527 156.26,295.527 "/>
<path clip-path="url(#clip200)" d="M89.4178 1371.24 Q85.8068 1371.24 83.9781 1374.81 Q82.1725 1378.35 82.1725 1385.48 Q82.1725 1392.58 83.9781 1396.15 Q85.8068 1399.69 89.4178 1399.69 Q93.0521 1399.69 94.8576 1396.15 Q96.6863 1392.58 96.6863 1385.48 Q96.6863 1378.35 94.8576 1374.81 Q93.0521 1371.24 89.4178 1371.24 M89.4178 1367.54 Q95.228 1367.54 98.2835 1372.14 Q101.362 1376.73 101.362 1385.48 Q101.362 1394.2 98.2835 1398.81 Q95.228 1403.39 89.4178 1403.39 Q83.6077 1403.39 80.529 1398.81 Q77.4735 1394.2 77.4735 1385.48 Q77.4735 1376.73 80.529 1372.14 Q83.6077 1367.54 89.4178 1367.54 Z" fill="#000000" fill-rule="nonzero" fill-opacity="1" /><path clip-path="url(#clip200)" d="M94.2326 1111.61 Q97.5891 1112.33 99.4641 1114.6 Q101.362 1116.86 101.362 1120.2 Q101.362 1125.31 97.8437 1128.11 Q94.3252 1130.91 87.8438 1130.91 Q85.6679 1130.91 83.3531 1130.47 Q81.0614 1130.06 78.6077 1129.2 L78.6077 1124.69 Q80.5522 1125.82 82.867 1126.4 Q85.1818 1126.98 87.7049 1126.98 Q92.103 1126.98 94.3947 1125.24 Q96.7095 1123.51 96.7095 1120.2 Q96.7095 1117.14 94.5567 1115.43 Q92.4271 1113.69 88.6077 1113.69 L84.5799 1113.69 L84.5799 1109.85 L88.7928 1109.85 Q92.2419 1109.85 94.0706 1108.48 Q95.8993 1107.1 95.8993 1104.5 Q95.8993 1101.84 94.0012 1100.43 Q92.1262 1098.99 88.6077 1098.99 Q86.6864 1098.99 84.4873 1099.41 Q82.2883 1099.83 79.6494 1100.71 L79.6494 1096.54 Q82.3114 1095.8 84.6262 1095.43 Q86.9642 1095.06 89.0243 1095.06 Q94.3484 1095.06 97.4502 1097.49 Q100.552 1099.9 100.552 1104.02 Q100.552 1106.89 98.9085 1108.88 Q97.265 1110.85 94.2326 1111.61 Z" fill="#000000" fill-rule="nonzero" fill-opacity="1" /><path clip-path="url(#clip200)" d="M89.8345 838.621 Q86.6864 838.621 84.8345 840.774 Q83.0058 842.927 83.0058 846.677 Q83.0058 850.403 84.8345 852.579 Q86.6864 854.732 89.8345 854.732 Q92.9826 854.732 94.8113 852.579 Q96.6632 850.403 96.6632 846.677 Q96.6632 842.927 94.8113 840.774 Q92.9826 838.621 89.8345 838.621 M99.1169 823.968 L99.1169 828.228 Q97.3576 827.394 95.5521 826.955 Q93.7697 826.515 92.0104 826.515 Q87.3808 826.515 84.9271 829.64 Q82.4966 832.765 82.1494 839.084 Q83.5151 837.07 85.5753 836.005 Q87.6354 834.917 90.1123 834.917 Q95.3206 834.917 98.3298 838.089 Q101.362 841.237 101.362 846.677 Q101.362 852.001 98.2141 855.218 Q95.066 858.436 89.8345 858.436 Q83.8392 858.436 80.6679 853.853 Q77.4966 849.246 77.4966 840.519 Q77.4966 832.325 81.3855 827.464 Q85.2743 822.58 91.8252 822.58 Q93.5845 822.58 95.3669 822.927 Q97.1724 823.274 99.1169 823.968 Z" fill="#000000" fill-rule="nonzero" fill-opacity="1" /><path clip-path="url(#clip200)" d="M79.742 584.568 L79.742 580.309 Q81.5012 581.142 83.3068 581.582 Q85.1123 582.022 86.8484 582.022 Q91.478 582.022 93.9086 578.92 Q96.3623 575.795 96.7095 569.452 Q95.3669 571.443 93.3067 572.508 Q91.2465 573.573 88.7466 573.573 Q83.5614 573.573 80.529 570.448 Q77.5198 567.3 77.5198 561.86 Q77.5198 556.536 80.6679 553.318 Q83.816 550.101 89.0475 550.101 Q95.0428 550.101 98.1909 554.707 Q101.362 559.29 101.362 568.04 Q101.362 576.212 97.4734 581.096 Q93.6076 585.957 87.0567 585.957 Q85.2975 585.957 83.492 585.61 Q81.6864 585.262 79.742 584.568 M89.0475 569.915 Q92.1956 569.915 94.0243 567.763 Q95.8761 565.61 95.8761 561.86 Q95.8761 558.133 94.0243 555.98 Q92.1956 553.804 89.0475 553.804 Q85.8993 553.804 84.0475 555.98 Q82.2188 558.133 82.2188 561.86 Q82.2188 565.61 84.0475 567.763 Q85.8993 569.915 89.0475 569.915 Z" fill="#000000" fill-rule="nonzero" fill-opacity="1" /><path clip-path="url(#clip200)" d="M51.6634 308.871 L59.3023 308.871 L59.3023 282.506 L50.9921 284.172 L50.9921 279.913 L59.256 278.247 L63.9319 278.247 L63.9319 308.871 L71.5707 308.871 L71.5707 312.807 L51.6634 312.807 L51.6634 308.871 Z" fill="#000000" fill-rule="nonzero" fill-opacity="1" /><path clip-path="url(#clip200)" d="M85.0429 308.871 L101.362 308.871 L101.362 312.807 L79.4179 312.807 L79.4179 308.871 Q82.0799 306.117 86.6632 301.487 Q91.2697 296.834 92.4502 295.492 Q94.6956 292.969 95.5752 291.233 Q96.478 289.473 96.478 287.784 Q96.478 285.029 94.5336 283.293 Q92.6123 281.557 89.5104 281.557 Q87.3114 281.557 84.8577 282.321 Q82.4271 283.085 79.6494 284.635 L79.6494 279.913 Q82.4734 278.779 84.9271 278.2 Q87.3808 277.622 89.4178 277.622 Q94.7882 277.622 97.9826 280.307 Q101.177 282.992 101.177 287.483 Q101.177 289.612 100.367 291.534 Q99.5798 293.432 97.4734 296.024 Q96.8947 296.696 93.7928 299.913 Q90.691 303.108 85.0429 308.871 Z" fill="#000000" fill-rule="nonzero" fill-opacity="1" /><polyline clip-path="url(#clip201)" style="stroke:#009af9; stroke-linecap:round; stroke-linejoin:round; stroke-width:4; stroke-opacity:1; fill:none" points="137.362,1294.62 141.793,1294.62 146.224,1294.66 150.655,1294.61 155.085,1294.7 159.516,1294.15 163.947,1293.63 168.378,1292.81 172.809,1292.04 177.239,1291.47 181.67,1290.88 186.101,1289.81 190.532,1288.95 194.962,1287.93 199.393,1287.16 203.824,1286.23 208.255,1285.41 212.686,1284.82 217.116,1284.8 221.547,1284.48 225.978,1283.96 230.409,1283.74 234.84,1283.51 239.27,1282.96 243.701,1282.5 248.132,1281.94 252.563,1281.38 256.993,1280.71 261.424,1280.37 265.855,1279.93 270.286,1279 274.717,1277.91 279.147,1276.97 283.578,1276.1 288.009,1275.61 292.44,1275.1 296.871,1274.15 301.301,1273.49 305.732,1273.18 310.163,1272.48 314.594,1271.99 319.025,1271.59 323.455,1271.44 327.886,1271.7 332.317,1272.09 336.748,1272.4 341.178,1272.52 345.609,1272.99 350.04,1273.38 354.471,1274.07 358.902,1274.65 363.332,1275.47 367.763,1276.81 372.194,1278.41 376.625,1280.15 381.056,1281.5 385.486,1282.46 389.917,1283.22 394.348,1284.58 398.779,1286.19 403.209,1287.81 407.64,1289.45 412.071,1291.02 416.502,1292.47 420.933,1293.97 425.363,1295.34 429.794,1296.37 434.225,1297.74 438.656,1299.18 443.087,1300.66 447.517,1301.84 451.948,1303.16 456.379,1304.31 460.81,1305.33 465.24,1306.58 469.671,1307.88 474.102,1309.2 478.533,1310.23 482.964,1311.15 487.394,1311.96 491.825,1312.73 496.256,1313.49 500.687,1314.13 505.118,1314.79 509.548,1315.5 513.979,1316.25 518.41,1316.92 522.841,1317.67 527.272,1318.41 531.702,1319.16 536.133,1320.03 540.564,1320.96 544.995,1321.53 549.425,1321.89 553.856,1321.98 558.287,1322.11 562.718,1322.55 567.149,1323.24 571.579,1323.85 576.01,1324.15 580.441,1324.46 584.872,1324.92 589.303,1325.3 593.733,1325.6 598.164,1325.8 602.595,1325.85 607.026,1325.67 611.456,1325.79 615.887,1325.89 620.318,1325.98 624.749,1326.28 629.18,1326.71 633.61,1327.28 638.041,1327.79 642.472,1328.07 646.903,1328.41 651.334,1328.79 655.764,1329.1 660.195,1329.51 664.626,1330.02 669.057,1330.61 673.487,1331.2 677.918,1331.88 682.349,1332.73 686.78,1333.53 691.211,1334.21 695.641,1334.8 700.072,1335.46 704.503,1336.19 708.934,1337.07 713.365,1337.93 717.795,1338.87 722.226,1339.79 726.657,1340.67 731.088,1341.54 735.519,1342.36 739.949,1343.21 744.38,1344.05 748.811,1344.88 753.242,1345.67 757.672,1346.44 762.103,1347.21 766.534,1347.93 770.965,1348.58 775.396,1349.26 779.826,1349.97 784.257,1350.65 788.688,1351.31 793.119,1351.96 797.55,1352.59 801.98,1353.21 806.411,1353.84 810.842,1354.44 815.273,1355.02 819.703,1355.58 824.134,1356.12 828.565,1356.64 832.996,1357.15 837.427,1357.62 841.857,1358.07 846.288,1358.53 850.719,1358.99 855.15,1359.33 859.581,1359.63 864.011,1359.97 868.442,1360.25 872.873,1360.56 877.304,1360.9 881.735,1361.25 886.165,1361.58 890.596,1361.85 895.027,1362.04 899.458,1362.21 903.888,1362.33 908.319,1362.5 912.75,1362.69 917.181,1362.9 921.612,1363.1 926.042,1363.21 930.473,1363.26 934.904,1363.18 939.335,1363.12 943.766,1363.01 948.196,1362.97 952.627,1362.9 957.058,1362.91 961.489,1362.9 965.919,1362.79 970.35,1362.69 974.781,1362.54 979.212,1362.48 983.643,1362.28 988.073,1362.01 992.504,1361.73 996.935,1361.49 1001.37,1361.29 1005.8,1361.02 1010.23,1360.84 1014.66,1360.61 1019.09,1360.3 1023.52,1360.01 1027.95,1359.74 1032.38,1359.4 1036.81,1359.03 1041.24,1358.67 1045.67,1358.33 1050.1,1357.97 1054.54,1357.54 1058.97,1357.08 1063.4,1356.62 1067.83,1356.19 1072.26,1355.79 1076.69,1355.47 1081.12,1355.24 1085.55,1354.92 1089.98,1354.56 1094.41,1354.25 1098.84,1353.98 1103.27,1353.65 1107.7,1353.34 1112.14,1353.01 1116.57,1352.66 1121,1352.27 1125.43,1351.88 1129.86,1351.57 1134.29,1351.3 1138.72,1351.05 1143.15,1350.79 1147.58,1350.34 1152.01,1349.96 1156.44,1349.52 1160.87,1349.02 1165.3,1348.42 1169.74,1347.93 1174.17,1347.43 1178.6,1346.88 1183.03,1346.32 1187.46,1345.67 1191.89,1345.04 1196.32,1344.31 1200.75,1343.53 1205.18,1342.76 1209.61,1341.99 1214.04,1341.25 1218.47,1340.39 1222.91,1339.5 1227.34,1338.63 1231.77,1337.83 1236.2,1336.97 1240.63,1336.09 1245.06,1335.28 1249.49,1334.52 1253.92,1333.67 1258.35,1332.72 1262.78,1331.78 1267.21,1331 1271.64,1330.24 1276.07,1329.43 1280.51,1328.46 1284.94,1327.48 1289.37,1326.61 1293.8,1325.84 1298.23,1324.88 1302.66,1323.98 1307.09,1322.96 1311.52,1321.76 1315.95,1320.6 1320.38,1319.48 1324.81,1318.32 1329.24,1317.12 1333.67,1315.89 1338.11,1314.68 1342.54,1313.42 1346.97,1312.04 1351.4,1310.7 1355.83,1309.43 1360.26,1308.32 1364.69,1307.24 1369.12,1305.97 1373.55,1304.67 1377.98,1303.33 1382.41,1301.98 1386.84,1300.52 1391.28,1298.9 1395.71,1297.3 1400.14,1295.63 1404.57,1293.89 1409,1292.08 1413.43,1290.22 1417.86,1288.31 1422.29,1286.37 1426.72,1284.39 1431.15,1282.37 1435.58,1280.31 1440.01,1278.22 1444.44,1276.15 1448.88,1274 1453.31,1271.89 1457.74,1269.85 1462.17,1267.91 1466.6,1266 1471.03,1263.97 1475.46,1261.6 1479.89,1259.16 1484.32,1256.85 1488.75,1254.48 1493.18,1251.89 1497.61,1249.32 1502.04,1246.77 1506.48,1244.08 1510.91,1241.29 1515.34,1238.43 1519.77,1235.53 1524.2,1232.57 1528.63,1229.55 1533.06,1226.43 1537.49,1223.28 1541.92,1220.05 1546.35,1216.75 1550.78,1213.39 1555.21,1209.95 1559.64,1206.5 1564.08,1203.2 1568.51,1200.07 1572.94,1196.69 1577.37,1193.44 1581.8,1190.55 1586.23,1187.57 1590.66,1183.9 1595.09,1180.26 1599.52,1176.52 1603.95,1173.07 1608.38,1169.86 1612.81,1166.54 1617.25,1162.53 1621.68,1158.42 1626.11,1153.99 1630.54,1149.37 1634.97,1144.71 1639.4,1139.9 1643.83,1135 1648.26,1130.16 1652.69,1125.21 1657.12,1120.15 1661.55,1114.84 1665.98,1109.55 1670.41,1104.28 1674.85,1099.09 1679.28,1093.81 1683.71,1088.06 1688.14,1082.24 1692.57,1076.4 1697,1070.38 1701.43,1064.31 1705.86,1058.28 1710.29,1052.63 1714.72,1046.19 1719.15,1039.56 1723.58,1032.8 1728.01,1026.1 1732.45,1019.56 1736.88,1013.87 1741.31,1008.36 1745.74,1002.54 1750.17,996.836 1754.6,990.285 1759.03,983.054 1763.46,976.889 1767.89,972.318 1772.32,966.69 1776.75,959.595 1781.18,952.4 1785.62,943.951 1790.05,935.3 1794.48,926.3 1798.91,917.191 1803.34,907.83 1807.77,898.519 1812.2,888.929 1816.63,879.07 1821.06,869.235 1825.49,859.137 1829.92,848.611 1834.35,838.587 1838.78,828.241 1843.22,817.73 1847.65,806.887 1852.08,796.324 1856.51,786.533 1860.94,776.318 1865.37,766.914 1869.8,758.682 1874.23,751.405 1878.66,743.569 1883.09,736.282 1887.52,727.152 1891.95,718.21 1896.38,706.969 1900.82,697.576 1905.25,688.363 1909.68,679.708 1914.11,669.776 1918.54,662.838 1922.97,652.897 1927.4,639.923 1931.83,626.086 1936.26,613.041 1940.69,600.384 1945.12,586.859 1949.55,575.841 1953.99,565.99 1958.42,552.992 1962.85,539.999 1967.28,527.432 1971.71,514.71 1976.14,501.95 1980.57,489.545 1985,475.167 1989.43,460.685 1993.86,444.05 1998.29,427.507 2002.72,410.476 2007.15,395.336 2011.59,380.239 2016.02,364.841 2020.45,349.891 2024.88,333.526 2029.31,317.577 2033.74,298.745 2038.17,277.719 2042.6,257.935 2047.03,240.099 2051.46,225.329 2055.89,208.262 2060.32,194.72 2064.75,179.284 2069.19,166.821 2073.62,157.636 2078.05,151.928 2082.48,140.175 2086.91,128.81 2091.34,119.122 2095.77,110.961 2100.2,103.445 2104.63,99.0597 2109.06,91.7383 2113.49,86.5268 2117.92,88.8631 2122.35,86.1857 2126.79,86.6009 2131.22,87.3926 2135.65,91.5551 2140.08,92.0222 2144.51,94.8634 2148.94,98.2728 2153.37,105.368 2157.8,107.891 2162.23,116.087 2166.66,123.855 2171.09,129.02 2175.52,136.262 2179.96,144.587 2184.39,157.97 2188.82,173.121 2193.25,187.542 2197.68,198.697 2202.11,216.255 2206.54,235.344 2210.97,252.415 2215.4,269.418 2219.83,284.499 2224.26,300.924 2228.69,320.459 2233.12,340.579 2237.56,361.386 2241.99,381.595 2246.42,400.575 2250.85,419.258 2255.28,437.418 2259.71,455.664 2264.14,471.683 2268.57,487.782 2273,502.754 2277.43,516.667 2281.86,530.064 2286.29,543.599 2290.72,558.559 2295.16,574.727 2299.59,590.574 2304.02,606.329 2308.45,621.911 2312.88,636.951 2317.31,651.661 2321.74,665.991 2326.17,679.799 2330.6,693.373 2335.03,706.958 2339.46,720.091 2343.89,732.712 2348.33,745.761 2352.76,758.409 "/>
<polyline clip-path="url(#clip201)" style="stroke:#e26f46; stroke-linecap:round; stroke-linejoin:round; stroke-width:4; stroke-opacity:1; fill:none" points="137.362,1294.62 141.793,1296.43 146.224,1298.21 150.655,1299.95 155.085,1301.64 159.516,1303.28 163.947,1304.86 168.378,1306.42 172.809,1308 177.239,1309.55 181.67,1311.04 186.101,1312.52 190.532,1313.92 194.962,1315.33 199.393,1316.73 203.824,1318.08 208.255,1319.35 212.686,1320.58 217.116,1321.83 221.547,1322.97 225.978,1324.09 230.409,1325.11 234.84,1326.02 239.27,1326.89 243.701,1327.72 248.132,1328.77 252.563,1329.75 256.993,1330.67 261.424,1331.51 265.855,1332.4 270.286,1333.33 274.717,1334.32 279.147,1335.24 283.578,1336.15 288.009,1337.05 292.44,1337.89 296.871,1338.66 301.301,1339.49 305.732,1340.34 310.163,1341.21 314.594,1342.09 319.025,1342.94 323.455,1343.79 327.886,1344.61 332.317,1345.4 336.748,1346.2 341.178,1346.98 345.609,1347.75 350.04,1348.5 354.471,1349.22 358.902,1349.9 363.332,1350.6 367.763,1351.21 372.194,1351.82 376.625,1352.42 381.056,1353.02 385.486,1353.65 389.917,1354.24 394.348,1354.79 398.779,1355.27 403.209,1355.78 407.64,1356.32 412.071,1356.84 416.502,1357.32 420.933,1357.8 425.363,1358.23 429.794,1358.7 434.225,1359.1 438.656,1359.52 443.087,1359.92 447.517,1360.3 451.948,1360.68 456.379,1361.07 460.81,1361.5 465.24,1361.88 469.671,1362.26 474.102,1362.66 478.533,1363.02 482.964,1363.41 487.394,1363.81 491.825,1364.21 496.256,1364.61 500.687,1364.99 505.118,1365.35 509.548,1365.73 513.979,1366.12 518.41,1366.5 522.841,1366.87 527.272,1367.17 531.702,1367.5 536.133,1367.84 540.564,1368.17 544.995,1368.5 549.425,1368.84 553.856,1369.17 558.287,1369.49 562.718,1369.81 567.149,1370.12 571.579,1370.43 576.01,1370.72 580.441,1371.02 584.872,1371.3 589.303,1371.59 593.733,1371.85 598.164,1372.11 602.595,1372.34 607.026,1372.57 611.456,1372.81 615.887,1373.05 620.318,1373.3 624.749,1373.54 629.18,1373.77 633.61,1374.01 638.041,1374.23 642.472,1374.45 646.903,1374.67 651.334,1374.86 655.764,1375.04 660.195,1375.21 664.626,1375.34 669.057,1375.49 673.487,1375.67 677.918,1375.84 682.349,1376.01 686.78,1376.19 691.211,1376.37 695.641,1376.53 700.072,1376.69 704.503,1376.83 708.934,1376.98 713.365,1377.13 717.795,1377.27 722.226,1377.41 726.657,1377.54 731.088,1377.68 735.519,1377.82 739.949,1377.96 744.38,1378.1 748.811,1378.24 753.242,1378.39 757.672,1378.52 762.103,1378.66 766.534,1378.78 770.965,1378.9 775.396,1379.02 779.826,1379.14 784.257,1379.27 788.688,1379.39 793.119,1379.51 797.55,1379.62 801.98,1379.74 806.411,1379.85 810.842,1379.97 815.273,1380.08 819.703,1380.18 824.134,1380.29 828.565,1380.39 832.996,1380.49 837.427,1380.59 841.857,1380.69 846.288,1380.78 850.719,1380.87 855.15,1380.96 859.581,1381.05 864.011,1381.14 868.442,1381.22 872.873,1381.31 877.304,1381.39 881.735,1381.46 886.165,1381.53 890.596,1381.59 895.027,1381.66 899.458,1381.73 903.888,1381.79 908.319,1381.84 912.75,1381.9 917.181,1381.96 921.612,1382.02 926.042,1382.07 930.473,1382.12 934.904,1382.17 939.335,1382.22 943.766,1382.26 948.196,1382.31 952.627,1382.35 957.058,1382.4 961.489,1382.44 965.919,1382.48 970.35,1382.52 974.781,1382.55 979.212,1382.58 983.643,1382.6 988.073,1382.63 992.504,1382.65 996.935,1382.68 1001.37,1382.7 1005.8,1382.72 1010.23,1382.72 1014.66,1382.71 1019.09,1382.7 1023.52,1382.7 1027.95,1382.69 1032.38,1382.68 1036.81,1382.67 1041.24,1382.68 1045.67,1382.68 1050.1,1382.68 1054.54,1382.67 1058.97,1382.66 1063.4,1382.65 1067.83,1382.63 1072.26,1382.62 1076.69,1382.61 1081.12,1382.6 1085.55,1382.59 1089.98,1382.58 1094.41,1382.56 1098.84,1382.54 1103.27,1382.52 1107.7,1382.48 1112.14,1382.46 1116.57,1382.43 1121,1382.41 1125.43,1382.39 1129.86,1382.38 1134.29,1382.37 1138.72,1382.37 1143.15,1382.35 1147.58,1382.32 1152.01,1382.29 1156.44,1382.25 1160.87,1382.22 1165.3,1382.18 1169.74,1382.16 1174.17,1382.15 1178.6,1382.13 1183.03,1382.12 1187.46,1382.11 1191.89,1382.1 1196.32,1382.09 1200.75,1382.08 1205.18,1382.07 1209.61,1382.05 1214.04,1382.03 1218.47,1382.02 1222.91,1382.01 1227.34,1381.99 1231.77,1381.98 1236.2,1381.97 1240.63,1381.97 1245.06,1381.96 1249.49,1381.95 1253.92,1381.94 1258.35,1381.92 1262.78,1381.89 1267.21,1381.84 1271.64,1381.79 1276.07,1381.74 1280.51,1381.7 1284.94,1381.68 1289.37,1381.65 1293.8,1381.63 1298.23,1381.61 1302.66,1381.59 1307.09,1381.59 1311.52,1381.57 1315.95,1381.56 1320.38,1381.54 1324.81,1381.54 1329.24,1381.55 1333.67,1381.55 1338.11,1381.55 1342.54,1381.57 1346.97,1381.59 1351.4,1381.59 1355.83,1381.61 1360.26,1381.64 1364.69,1381.67 1369.12,1381.68 1373.55,1381.71 1377.98,1381.72 1382.41,1381.73 1386.84,1381.72 1391.28,1381.71 1395.71,1381.69 1400.14,1381.65 1404.57,1381.61 1409,1381.57 1413.43,1381.53 1417.86,1381.52 1422.29,1381.53 1426.72,1381.54 1431.15,1381.55 1435.58,1381.55 1440.01,1381.57 1444.44,1381.58 1448.88,1381.61 1453.31,1381.63 1457.74,1381.63 1462.17,1381.64 1466.6,1381.64 1471.03,1381.64 1475.46,1381.63 1479.89,1381.6 1484.32,1381.6 1488.75,1381.6 1493.18,1381.62 1497.61,1381.63 1502.04,1381.65 1506.48,1381.67 1510.91,1381.69 1515.34,1381.71 1519.77,1381.72 1524.2,1381.75 1528.63,1381.78 1533.06,1381.81 1537.49,1381.84 1541.92,1381.87 1546.35,1381.89 1550.78,1381.9 1555.21,1381.93 1559.64,1381.96 1564.08,1381.99 1568.51,1382 1572.94,1382.01 1577.37,1382.03 1581.8,1382.06 1586.23,1382.09 1590.66,1382.13 1595.09,1382.16 1599.52,1382.19 1603.95,1382.22 1608.38,1382.25 1612.81,1382.27 1617.25,1382.27 1621.68,1382.28 1626.11,1382.28 1630.54,1382.27 1634.97,1382.28 1639.4,1382.29 1643.83,1382.31 1648.26,1382.33 1652.69,1382.36 1657.12,1382.39 1661.55,1382.4 1665.98,1382.43 1670.41,1382.45 1674.85,1382.48 1679.28,1382.51 1683.71,1382.55 1688.14,1382.58 1692.57,1382.62 1697,1382.66 1701.43,1382.7 1705.86,1382.73 1710.29,1382.76 1714.72,1382.79 1719.15,1382.83 1723.58,1382.86 1728.01,1382.9 1732.45,1382.93 1736.88,1382.96 1741.31,1382.97 1745.74,1382.99 1750.17,1383.02 1754.6,1383.05 1759.03,1383.08 1763.46,1383.11 1767.89,1383.14 1772.32,1383.17 1776.75,1383.2 1781.18,1383.23 1785.62,1383.25 1790.05,1383.26 1794.48,1383.28 1798.91,1383.3 1803.34,1383.3 1807.77,1383.31 1812.2,1383.31 1816.63,1383.31 1821.06,1383.32 1825.49,1383.32 1829.92,1383.32 1834.35,1383.3 1838.78,1383.28 1843.22,1383.27 1847.65,1383.24 1852.08,1383.21 1856.51,1383.17 1860.94,1383.14 1865.37,1383.11 1869.8,1383.08 1874.23,1383.05 1878.66,1383.01 1883.09,1382.98 1887.52,1382.97 1891.95,1382.95 1896.38,1382.93 1900.82,1382.9 1905.25,1382.88 1909.68,1382.84 1914.11,1382.81 1918.54,1382.77 1922.97,1382.72 1927.4,1382.69 1931.83,1382.65 1936.26,1382.62 1940.69,1382.58 1945.12,1382.53 1949.55,1382.49 1953.99,1382.45 1958.42,1382.4 1962.85,1382.36 1967.28,1382.31 1971.71,1382.27 1976.14,1382.24 1980.57,1382.2 1985,1382.16 1989.43,1382.12 1993.86,1382.08 1998.29,1382.04 2002.72,1381.99 2007.15,1381.95 2011.59,1381.91 2016.02,1381.88 2020.45,1381.86 2024.88,1381.87 2029.31,1381.88 2033.74,1381.9 2038.17,1381.91 2042.6,1381.93 2047.03,1381.96 2051.46,1381.98 2055.89,1382 2060.32,1382.03 2064.75,1382.05 2069.19,1382.08 2073.62,1382.09 2078.05,1382.11 2082.48,1382.14 2086.91,1382.16 2091.34,1382.19 2095.77,1382.21 2100.2,1382.23 2104.63,1382.25 2109.06,1382.27 2113.49,1382.3 2117.92,1382.32 2122.35,1382.34 2126.79,1382.38 2131.22,1382.42 2135.65,1382.47 2140.08,1382.52 2144.51,1382.57 2148.94,1382.62 2153.37,1382.66 2157.8,1382.71 2162.23,1382.76 2166.66,1382.81 2171.09,1382.85 2175.52,1382.9 2179.96,1382.95 2184.39,1383 2188.82,1383.05 2193.25,1383.09 2197.68,1383.14 2202.11,1383.18 2206.54,1383.23 2210.97,1383.27 2215.4,1383.3 2219.83,1383.33 2224.26,1383.37 2228.69,1383.41 2233.12,1383.44 2237.56,1383.47 2241.99,1383.51 2246.42,1383.54 2250.85,1383.58 2255.28,1383.61 2259.71,1383.64 2264.14,1383.67 2268.57,1383.7 2273,1383.74 2277.43,1383.77 2281.86,1383.79 2286.29,1383.82 2290.72,1383.85 2295.16,1383.88 2299.59,1383.91 2304.02,1383.94 2308.45,1383.97 2312.88,1384 2317.31,1384.03 2321.74,1384.06 2326.17,1384.09 2330.6,1384.11 2335.03,1384.14 2339.46,1384.16 2343.89,1384.19 2348.33,1384.21 2352.76,1384.24 "/>
<path clip-path="url(#clip200)" d="M211.209 248.629 L521.845 248.629 L521.845 93.1086 L211.209 93.1086  Z" fill="#ffffff" fill-rule="evenodd" fill-opacity="1"/>
<polyline clip-path="url(#clip200)" style="stroke:#000000; stroke-linecap:round; stroke-linejoin:round; stroke-width:4; stroke-opacity:1; fill:none" points="211.209,248.629 521.845,248.629 521.845,93.1086 211.209,93.1086 211.209,248.629 "/>
<polyline clip-path="url(#clip200)" style="stroke:#009af9; stroke-linecap:round; stroke-linejoin:round; stroke-width:4; stroke-opacity:1; fill:none" points="235.824,144.949 383.517,144.949 "/>
<path clip-path="url(#clip200)" d="M408.133 151.997 L408.133 136.303 L412.392 136.303 L412.392 151.835 Q412.392 155.516 413.827 157.368 Q415.262 159.196 418.133 159.196 Q421.582 159.196 423.572 156.997 Q425.586 154.798 425.586 151.002 L425.586 136.303 L429.845 136.303 L429.845 162.229 L425.586 162.229 L425.586 158.247 Q424.035 160.608 421.975 161.766 Q419.938 162.9 417.23 162.9 Q412.762 162.9 410.447 160.122 Q408.133 157.344 408.133 151.997 M418.85 135.678 L418.85 135.678 Z" fill="#000000" fill-rule="nonzero" fill-opacity="1" /><path clip-path="url(#clip200)" d="M438.225 126.21 L448.04 126.21 L448.04 129.52 L442.484 129.52 L442.484 165.168 L448.04 165.168 L448.04 168.479 L438.225 168.479 L438.225 126.21 Z" fill="#000000" fill-rule="nonzero" fill-opacity="1" /><path clip-path="url(#clip200)" d="M458.526 158.293 L466.165 158.293 L466.165 131.928 L457.855 133.595 L457.855 129.335 L466.118 127.669 L470.794 127.669 L470.794 158.293 L478.433 158.293 L478.433 162.229 L458.526 162.229 L458.526 158.293 Z" fill="#000000" fill-rule="nonzero" fill-opacity="1" /><path clip-path="url(#clip200)" d="M497.229 126.21 L497.229 168.479 L487.415 168.479 L487.415 165.168 L492.947 165.168 L492.947 129.52 L487.415 129.52 L487.415 126.21 L497.229 126.21 Z" fill="#000000" fill-rule="nonzero" fill-opacity="1" /><polyline clip-path="url(#clip200)" style="stroke:#e26f46; stroke-linecap:round; stroke-linejoin:round; stroke-width:4; stroke-opacity:1; fill:none" points="235.824,196.789 383.517,196.789 "/>
<path clip-path="url(#clip200)" d="M408.133 203.837 L408.133 188.143 L412.392 188.143 L412.392 203.675 Q412.392 207.356 413.827 209.208 Q415.262 211.036 418.133 211.036 Q421.582 211.036 423.572 208.837 Q425.586 206.638 425.586 202.842 L425.586 188.143 L429.845 188.143 L429.845 214.069 L425.586 214.069 L425.586 210.087 Q424.035 212.448 421.975 213.606 Q419.938 214.74 417.23 214.74 Q412.762 214.74 410.447 211.962 Q408.133 209.184 408.133 203.837 M418.85 187.518 L418.85 187.518 Z" fill="#000000" fill-rule="nonzero" fill-opacity="1" /><path clip-path="url(#clip200)" d="M438.225 178.05 L448.04 178.05 L448.04 181.36 L442.484 181.36 L442.484 217.008 L448.04 217.008 L448.04 220.319 L438.225 220.319 L438.225 178.05 Z" fill="#000000" fill-rule="nonzero" fill-opacity="1" /><path clip-path="url(#clip200)" d="M461.743 210.133 L478.063 210.133 L478.063 214.069 L456.118 214.069 L456.118 210.133 Q458.78 207.379 463.364 202.749 Q467.97 198.096 469.151 196.754 Q471.396 194.231 472.276 192.495 Q473.179 190.735 473.179 189.046 Q473.179 186.291 471.234 184.555 Q469.313 182.819 466.211 182.819 Q464.012 182.819 461.558 183.583 Q459.128 184.347 456.35 185.897 L456.35 181.175 Q459.174 180.041 461.628 179.462 Q464.081 178.884 466.118 178.884 Q471.489 178.884 474.683 181.569 Q477.878 184.254 477.878 188.745 Q477.878 190.874 477.067 192.796 Q476.28 194.694 474.174 197.286 Q473.595 197.958 470.493 201.175 Q467.392 204.37 461.743 210.133 Z" fill="#000000" fill-rule="nonzero" fill-opacity="1" /><path clip-path="url(#clip200)" d="M497.229 178.05 L497.229 220.319 L487.415 220.319 L487.415 217.008 L492.947 217.008 L492.947 181.36 L487.415 181.36 L487.415 178.05 L497.229 178.05 Z" fill="#000000" fill-rule="nonzero" fill-opacity="1" /></svg>
