<?xml version="1.0" encoding="utf-8"?>
<svg xmlns="http://www.w3.org/2000/svg" xmlns:xlink="http://www.w3.org/1999/xlink" width="600" height="400" viewBox="0 0 2400 1600">
<defs>
  <clipPath id="clip230">
    <rect x="0" y="0" width="2400" height="1600"/>
  </clipPath>
</defs>
<path clip-path="url(#clip230)" d="M0 1600 L2400 1600 L2400 0 L0 0  Z" fill="#ffffff" fill-rule="evenodd" fill-opacity="1"/>
<defs>
  <clipPath id="clip231">
    <rect x="112" y="47" width="2242" height="1377"/>
  </clipPath>
</defs>
<path clip-path="url(#clip230)" d="M112.177 1423.18 L2352.76 1423.18 L2352.76 47.2441 L112.177 47.2441  Z" fill="#ffffff" fill-rule="evenodd" fill-opacity="1"/>
<polyline clip-path="url(#clip231)" style="stroke:#000000; stroke-linecap:round; stroke-linejoin:round; stroke-width:2; stroke-opacity:0.1; fill:none" points="112.177,1423.18 112.177,47.2441 "/>
<polyline clip-path="url(#clip231)" style="stroke:#000000; stroke-linecap:round; stroke-linejoin:round; stroke-width:2; stroke-opacity:0.1; fill:none" points="560.293,1423.18 560.293,47.2441 "/>
<polyline clip-path="url(#clip231)" style="stroke:#000000; stroke-linecap:round; stroke-linejoin:round; stroke-width:2; stroke-opacity:0.1; fill:none" points="1008.41,1423.18 1008.41,47.2441 "/>
<polyline clip-path="url(#clip231)" style="stroke:#000000; stroke-linecap:round; stroke-linejoin:round; stroke-width:2; stroke-opacity:0.1; fill:none" points="1456.52,1423.18 1456.52,47.2441 "/>
<polyline clip-path="url(#clip231)" style="stroke:#000000; stroke-linecap:round; stroke-linejoin:round; stroke-width:2; stroke-opacity:0.1; fill:none" points="1904.64,1423.18 1904.64,47.2441 "/>
<polyline clip-path="url(#clip231)" style="stroke:#000000; stroke-linecap:round; stroke-linejoin:round; stroke-width:2; stroke-opacity:0.1; fill:none" points="2352.76,1423.18 2352.76,47.2441 "/>
<polyline clip-path="url(#clip231)" style="stroke:#000000; stroke-linecap:round; stroke-linejoin:round; stroke-width:2; stroke-opacity:0.1; fill:none" points="112.177,1108 2352.76,1108 "/>
<polyline clip-path="url(#clip231)" style="stroke:#000000; stroke-linecap:round; stroke-linejoin:round; stroke-width:2; stroke-opacity:0.1; fill:none" points="112.177,755.469 2352.76,755.469 "/>
<polyline clip-path="url(#clip231)" style="stroke:#000000; stroke-linecap:round; stroke-linejoin:round; stroke-width:2; stroke-opacity:0.1; fill:none" points="112.177,402.935 2352.76,402.935 "/>
<polyline clip-path="url(#clip231)" style="stroke:#000000; stroke-linecap:round; stroke-linejoin:round; stroke-width:2; stroke-opacity:0.1; fill:none" points="112.177,50.4003 2352.76,50.4003 "/>
<polyline clip-path="url(#clip230)" style="stroke:#000000; stroke-linecap:round; stroke-linejoin:round; stroke-width:4; stroke-opacity:1; fill:none" points="112.177,1423.18 2352.76,1423.18 "/>
<polyline clip-path="url(#clip230)" style="stroke:#000000; stroke-linecap:round; stroke-linejoin:round; stroke-width:4; stroke-opacity:1; fill:none" points="112.177,1423.18 112.177,1404.28 "/>
<polyline clip-path="url(#clip230)" style="stroke:#000000; stroke-linecap:round; stroke-linejoin:round; stroke-width:4; stroke-opacity:1; fill:none" points="560.293,1423.18 560.293,1404.28 "/>
<polyline clip-path="url(#clip230)" style="stroke:#000000; stroke-linecap:round; stroke-linejoin:round; stroke-width:4; stroke-opacity:1; fill:none" points="1008.41,1423.18 1008.41,1404.28 "/>
<polyline clip-path="url(#clip230)" style="stroke:#000000; stroke-linecap:round; stroke-linejoin:round; stroke-width:4; stroke-opacity:1; fill:none" points="1456.52,1423.18 1456.52,1404.28 "/>
<polyline clip-path="url(#clip230)" style="stroke:#000000; stroke-linecap:round; stroke-linejoin:round; stroke-width:4; stroke-opacity:1; fill:none" points="1904.64,1423.18 1904.64,1404.28 "/>
<polyline clip-path="url(#clip230)" style="stroke:#000000; stroke-linecap:round; stroke-linejoin:round; stroke-width:4; stroke-opacity:1; fill:none" points="2352.76,1423.18 2352.76,1404.28 "/>
<path clip-path="url(#clip230)" d="M112.177 1454.1 Q108.566 1454.1 106.737 1457.66 Q104.932 1461.2 104.932 1468.33 Q104.932 1475.44 106.737 1479.01 Q108.566 1482.55 112.177 1482.55 Q115.811 1482.55 117.617 1479.01 Q119.446 1475.44 119.446 1468.33 Q119.446 1461.2 117.617 1457.66 Q115.811 1454.1 112.177 1454.1 M112.177 1450.39 Q117.987 1450.39 121.043 1455 Q124.122 1459.58 124.122 1468.33 Q124.122 1477.06 121.043 1481.67 Q117.987 1486.25 112.177 1486.25 Q106.367 1486.25 103.288 1481.67 Q100.233 1477.06 100.233 1468.33 Q100.233 1459.58 103.288 1455 Q106.367 1450.39 112.177 1450.39 Z" fill="#000000" fill-rule="nonzero" fill-opacity="1" /><path clip-path="url(#clip230)" d="M550.675 1481.64 L558.314 1481.64 L558.314 1455.28 L550.004 1456.95 L550.004 1452.69 L558.267 1451.02 L562.943 1451.02 L562.943 1481.64 L570.582 1481.64 L570.582 1485.58 L550.675 1485.58 L550.675 1481.64 Z" fill="#000000" fill-rule="nonzero" fill-opacity="1" /><path clip-path="url(#clip230)" d="M1003.06 1481.64 L1019.38 1481.64 L1019.38 1485.58 L997.437 1485.58 L997.437 1481.64 Q1000.1 1478.89 1004.68 1474.26 Q1009.29 1469.61 1010.47 1468.27 Q1012.71 1465.74 1013.59 1464.01 Q1014.5 1462.25 1014.5 1460.56 Q1014.5 1457.8 1012.55 1456.07 Q1010.63 1454.33 1007.53 1454.33 Q1005.33 1454.33 1002.88 1455.09 Q1000.45 1455.86 997.668 1457.41 L997.668 1452.69 Q1000.49 1451.55 1002.95 1450.97 Q1005.4 1450.39 1007.44 1450.39 Q1012.81 1450.39 1016 1453.08 Q1019.2 1455.77 1019.2 1460.26 Q1019.2 1462.39 1018.39 1464.31 Q1017.6 1466.2 1015.49 1468.8 Q1014.91 1469.47 1011.81 1472.69 Q1008.71 1475.88 1003.06 1481.64 Z" fill="#000000" fill-rule="nonzero" fill-opacity="1" /><path clip-path="url(#clip230)" d="M1460.77 1466.95 Q1464.13 1467.66 1466 1469.93 Q1467.9 1472.2 1467.9 1475.53 Q1467.9 1480.65 1464.38 1483.45 Q1460.86 1486.25 1454.38 1486.25 Q1452.21 1486.25 1449.89 1485.81 Q1447.6 1485.39 1445.15 1484.54 L1445.15 1480.02 Q1447.09 1481.16 1449.41 1481.74 Q1451.72 1482.32 1454.24 1482.32 Q1458.64 1482.32 1460.93 1480.58 Q1463.25 1478.84 1463.25 1475.53 Q1463.25 1472.48 1461.1 1470.77 Q1458.97 1469.03 1455.15 1469.03 L1451.12 1469.03 L1451.12 1465.19 L1455.33 1465.19 Q1458.78 1465.19 1460.61 1463.82 Q1462.44 1462.43 1462.44 1459.84 Q1462.44 1457.18 1460.54 1455.77 Q1458.67 1454.33 1455.15 1454.33 Q1453.23 1454.33 1451.03 1454.75 Q1448.83 1455.16 1446.19 1456.04 L1446.19 1451.88 Q1448.85 1451.14 1451.17 1450.77 Q1453.5 1450.39 1455.56 1450.39 Q1460.89 1450.39 1463.99 1452.83 Q1467.09 1455.23 1467.09 1459.35 Q1467.09 1462.22 1465.45 1464.21 Q1463.8 1466.18 1460.77 1466.95 Z" fill="#000000" fill-rule="nonzero" fill-opacity="1" /><path clip-path="url(#clip230)" d="M1907.65 1455.09 L1895.84 1473.54 L1907.65 1473.54 L1907.65 1455.09 M1906.42 1451.02 L1912.3 1451.02 L1912.3 1473.54 L1917.23 1473.54 L1917.23 1477.43 L1912.3 1477.43 L1912.3 1485.58 L1907.65 1485.58 L1907.65 1477.43 L1892.05 1477.43 L1892.05 1472.92 L1906.42 1451.02 Z" fill="#000000" fill-rule="nonzero" fill-opacity="1" /><path clip-path="url(#clip230)" d="M2343.03 1451.02 L2361.39 1451.02 L2361.39 1454.96 L2347.32 1454.96 L2347.32 1463.43 Q2348.33 1463.08 2349.35 1462.92 Q2350.37 1462.73 2351.39 1462.73 Q2357.18 1462.73 2360.56 1465.9 Q2363.94 1469.08 2363.94 1474.49 Q2363.94 1480.07 2360.46 1483.17 Q2356.99 1486.25 2350.67 1486.25 Q2348.5 1486.25 2346.23 1485.88 Q2343.98 1485.51 2341.58 1484.77 L2341.58 1480.07 Q2343.66 1481.2 2345.88 1481.76 Q2348.1 1482.32 2350.58 1482.32 Q2354.58 1482.32 2356.92 1480.21 Q2359.26 1478.1 2359.26 1474.49 Q2359.26 1470.88 2356.92 1468.77 Q2354.58 1466.67 2350.58 1466.67 Q2348.71 1466.67 2346.83 1467.08 Q2344.98 1467.5 2343.03 1468.38 L2343.03 1451.02 Z" fill="#000000" fill-rule="nonzero" fill-opacity="1" /><path clip-path="url(#clip230)" d="M1231.53 1522.27 L1231.53 1532.4 L1243.59 1532.4 L1243.59 1536.95 L1231.53 1536.95 L1231.53 1556.3 Q1231.53 1560.66 1232.71 1561.9 Q1233.91 1563.14 1237.58 1563.14 L1243.59 1563.14 L1243.59 1568.04 L1237.58 1568.04 Q1230.8 1568.04 1228.22 1565.53 Q1225.64 1562.98 1225.64 1556.3 L1225.64 1536.95 L1221.34 1536.95 L1221.34 1532.4 L1225.64 1532.4 L1225.64 1522.27 L1231.53 1522.27 Z" fill="#000000" fill-rule="nonzero" fill-opacity="1" /><polyline clip-path="url(#clip230)" style="stroke:#000000; stroke-linecap:round; stroke-linejoin:round; stroke-width:4; stroke-opacity:1; fill:none" points="112.177,1423.18 112.177,47.2441 "/>
<polyline clip-path="url(#clip230)" style="stroke:#000000; stroke-linecap:round; stroke-linejoin:round; stroke-width:4; stroke-opacity:1; fill:none" points="112.177,1108 131.075,1108 "/>
<polyline clip-path="url(#clip230)" style="stroke:#000000; stroke-linecap:round; stroke-linejoin:round; stroke-width:4; stroke-opacity:1; fill:none" points="112.177,755.469 131.075,755.469 "/>
<polyline clip-path="url(#clip230)" style="stroke:#000000; stroke-linecap:round; stroke-linejoin:round; stroke-width:4; stroke-opacity:1; fill:none" points="112.177,402.935 131.075,402.935 "/>
<polyline clip-path="url(#clip230)" style="stroke:#000000; stroke-linecap:round; stroke-linejoin:round; stroke-width:4; stroke-opacity:1; fill:none" points="112.177,50.4003 131.075,50.4003 "/>
<path clip-path="url(#clip230)" d="M56.2699 1121.35 L63.9087 1121.35 L63.9087 1094.98 L55.5986 1096.65 L55.5986 1092.39 L63.8624 1090.72 L68.5383 1090.72 L68.5383 1121.35 L76.1772 1121.35 L76.1772 1125.28 L56.2699 1125.28 L56.2699 1121.35 Z" fill="#000000" fill-rule="nonzero" fill-opacity="1" /><path clip-path="url(#clip230)" d="M59.8578 768.814 L76.1772 768.814 L76.1772 772.749 L54.2328 772.749 L54.2328 768.814 Q56.8949 766.059 61.4782 761.43 Q66.0846 756.777 67.2652 755.434 Q69.5105 752.911 70.3902 751.175 Q71.2929 749.416 71.2929 747.726 Q71.2929 744.972 69.3485 743.235 Q67.4272 741.499 64.3254 741.499 Q62.1263 741.499 59.6726 742.263 Q57.2421 743.027 54.4643 744.578 L54.4643 739.856 Q57.2884 738.722 59.7421 738.143 Q62.1958 737.564 64.2328 737.564 Q69.6031 737.564 72.7976 740.249 Q75.992 742.935 75.992 747.425 Q75.992 749.555 75.1818 751.476 Q74.3948 753.374 72.2883 755.967 Q71.7096 756.638 68.6078 759.856 Q65.5059 763.05 59.8578 768.814 Z" fill="#000000" fill-rule="nonzero" fill-opacity="1" /><path clip-path="url(#clip230)" d="M69.0476 401.581 Q72.404 402.298 74.279 404.567 Q76.1772 406.835 76.1772 410.169 Q76.1772 415.284 72.6587 418.085 Q69.1402 420.886 62.6587 420.886 Q60.4828 420.886 58.168 420.446 Q55.8764 420.03 53.4227 419.173 L53.4227 414.659 Q55.3671 415.793 57.6819 416.372 Q59.9967 416.951 62.5198 416.951 Q66.918 416.951 69.2096 415.215 Q71.5244 413.479 71.5244 410.169 Q71.5244 407.113 69.3717 405.4 Q67.242 403.664 63.4226 403.664 L59.3949 403.664 L59.3949 399.821 L63.6078 399.821 Q67.0569 399.821 68.8855 398.456 Q70.7142 397.067 70.7142 394.474 Q70.7142 391.812 68.8161 390.4 Q66.9411 388.965 63.4226 388.965 Q61.5013 388.965 59.3023 389.382 Q57.1032 389.798 54.4643 390.678 L54.4643 386.511 Q57.1264 385.771 59.4412 385.4 Q61.7791 385.03 63.8393 385.03 Q69.1633 385.03 72.2652 387.46 Q75.367 389.868 75.367 393.988 Q75.367 396.858 73.7235 398.849 Q72.08 400.817 69.0476 401.581 Z" fill="#000000" fill-rule="nonzero" fill-opacity="1" /><path clip-path="url(#clip230)" d="M66.5939 37.1944 L54.7884 55.6434 L66.5939 55.6434 L66.5939 37.1944 M65.367 33.1203 L71.2466 33.1203 L71.2466 55.6434 L76.1772 55.6434 L76.1772 59.5322 L71.2466 59.5322 L71.2466 67.6803 L66.5939 67.6803 L66.5939 59.5322 L50.9921 59.5322 L50.9921 55.0184 L65.367 33.1203 Z" fill="#000000" fill-rule="nonzero" fill-opacity="1" /><polyline clip-path="url(#clip231)" style="stroke:#009af9; stroke-linecap:round; stroke-linejoin:round; stroke-width:4; stroke-opacity:1; fill:none" points="112.177,1108 116.658,1108 121.139,1107.99 125.621,1108.01 130.102,1108.06 134.583,1108.16 139.064,1108.31 143.545,1108.31 148.026,1108.82 152.508,1108.99 156.989,1108.82 161.47,1109.18 165.951,1109.39 170.432,1109.73 174.913,1110.5 179.395,1111.83 183.876,1112.56 188.357,1113.19 192.838,1115.09 197.319,1117.03 201.8,1119 206.281,1120.53 210.763,1122.76 215.244,1124.67 219.725,1125.35 224.206,1125.47 228.687,1125.11 233.168,1124.18 237.65,1123.73 242.131,1123.3 246.612,1123.67 251.093,1123.47 255.574,1123.64 260.055,1123.63 264.537,1123.48 269.018,1123.41 273.499,1123.7 277.98,1123.91 282.461,1123.93 286.942,1123.54 291.423,1123.54 295.905,1123.66 300.386,1123.97 304.867,1123.6 309.348,1123.31 313.829,1123.28 318.31,1123.04 322.792,1122.93 327.273,1123.48 331.754,1123.87 336.235,1124 340.716,1124.33 345.197,1124.48 349.679,1124.52 354.16,1124.56 358.641,1124.71 363.122,1124.74 367.603,1125.12 372.084,1125.54 376.565,1125.93 381.047,1125.88 385.528,1125.4 390.009,1124.86 394.49,1124.09 398.971,1123.65 403.452,1123.56 407.934,1123.67 412.415,1123.84 416.896,1123.95 421.377,1124.02 425.858,1124.96 430.339,1125.93 434.821,1127.21 439.302,1129.35 443.783,1132.04 448.264,1134.48 452.745,1136.65 457.226,1138.45 461.707,1139.8 466.189,1141.53 470.67,1143.21 475.151,1144.88 479.632,1145.61 484.113,1146.43 488.594,1147.51 493.076,1148.64 497.557,1148.98 502.038,1149.12 506.519,1149.37 511,1149.19 515.481,1149.72 519.963,1149.95 524.444,1150.42 528.925,1150.93 533.406,1151.42 537.887,1152.06 542.368,1152.63 546.849,1153.25 551.331,1153.66 555.812,1154.62 560.293,1155.47 564.774,1156.31 569.255,1156.96 573.736,1157.5 578.218,1157.73 582.699,1158.82 587.18,1159.66 591.661,1160.07 596.142,1160.68 600.623,1160.84 605.104,1161.26 609.586,1161.64 614.067,1161.69 618.548,1161.89 623.029,1161.92 627.51,1161.96 631.991,1161.99 636.473,1162.09 640.954,1162.11 645.435,1162.21 649.916,1162.61 654.397,1162.84 658.878,1163.18 663.36,1163.91 667.841,1164.75 672.322,1166.06 676.803,1166.86 681.284,1168.33 685.765,1169.85 690.246,1171.83 694.728,1173.03 699.209,1174.87 703.69,1176.22 708.171,1178.63 712.652,1182.27 717.133,1186.05 721.615,1189.98 726.096,1193.88 730.577,1198.25 735.058,1202.07 739.539,1205.85 744.02,1208.71 748.502,1211.82 752.983,1214.26 757.464,1216.65 761.945,1219.65 766.426,1222.09 770.907,1224.35 775.388,1228.24 779.87,1231.78 784.351,1235.68 788.832,1239.1 793.313,1242.67 797.794,1246.97 802.275,1251.87 806.757,1256.24 811.238,1260.96 815.719,1265.63 820.2,1270.14 824.681,1274.45 829.162,1278.51 833.644,1282.63 838.125,1285.74 842.606,1288.45 847.087,1290.93 851.568,1293.93 856.049,1297.1 860.53,1300.01 865.012,1303.1 869.493,1305.94 873.974,1309.18 878.455,1312.72 882.936,1315.86 887.417,1318.7 891.899,1321.71 896.38,1324.33 900.861,1326.19 905.342,1328.45 909.823,1330.65 914.304,1332.6 918.786,1334.35 923.267,1335.78 927.748,1337.48 932.229,1338.96 936.71,1339.75 941.191,1340.14 945.672,1340.34 950.154,1340.63 954.635,1340.71 959.116,1340.86 963.597,1341 968.078,1341.03 972.559,1341.05 977.041,1341.07 981.522,1341.05 986.003,1341.15 990.484,1341.17 994.965,1341.26 999.446,1341.37 1003.93,1341.47 1008.41,1341.49 1012.89,1341.41 1017.37,1341.29 1021.85,1341 1026.33,1340.65 1030.81,1340.42 1035.3,1340.27 1039.78,1340.2 1044.26,1340.15 1048.74,1340.14 1053.22,1340.14 1057.7,1340.11 1062.18,1340.12 1066.66,1340.14 1071.14,1340.17 1075.63,1340.24 1080.11,1340.32 1084.59,1340.42 1089.07,1340.41 1093.55,1340.33 1098.03,1340.23 1102.51,1340.19 1106.99,1340.12 1111.48,1339.87 1115.96,1339.49 1120.44,1339.08 1124.92,1338.76 1129.4,1338.5 1133.88,1338.14 1138.36,1337.95 1142.84,1337.86 1147.32,1337.84 1151.81,1337.75 1156.29,1337.66 1160.77,1337.58 1165.25,1337.6 1169.73,1337.6 1174.21,1337.59 1178.69,1337.63 1183.17,1337.66 1187.65,1337.76 1192.14,1337.74 1196.62,1337.7 1201.1,1337.67 1205.58,1337.47 1210.06,1337.34 1214.54,1337.11 1219.02,1337 1223.5,1336.81 1227.99,1336.68 1232.47,1336.62 1236.95,1336.45 1241.43,1336.43 1245.91,1336.42 1250.39,1336.45 1254.87,1336.49 1259.35,1336.57 1263.83,1336.58 1268.32,1336.52 1272.8,1336.56 1277.28,1336.6 1281.76,1336.68 1286.24,1336.66 1290.72,1336.58 1295.2,1336.39 1299.68,1336.25 1304.17,1336.08 1308.65,1335.95 1313.13,1335.7 1317.61,1335.47 1322.09,1335.26 1326.57,1335.13 1331.05,1335.08 1335.53,1335.07 1340.01,1335.16 1344.5,1335.52 1348.98,1335.76 1353.46,1336.14 1357.94,1336.37 1362.42,1336.71 1366.9,1336.89 1371.38,1336.91 1375.86,1336.9 1380.34,1336.89 1384.83,1336.91 1389.31,1337.05 1393.79,1337.11 1398.27,1337.22 1402.75,1337.25 1407.23,1337.11 1411.71,1337.16 1416.19,1337.15 1420.68,1336.94 1425.16,1336.79 1429.64,1336.64 1434.12,1336.36 1438.6,1336.23 1443.08,1336.18 1447.56,1336.21 1452.04,1336.31 1456.52,1336.51 1461.01,1337 1465.49,1337.42 1469.97,1337.8 1474.45,1338.02 1478.93,1338.23 1483.41,1338.48 1487.89,1338.81 1492.37,1338.81 1496.85,1338.89 1501.34,1338.99 1505.82,1338.97 1510.3,1338.99 1514.78,1339.08 1519.26,1339.35 1523.74,1339.64 1528.22,1339.9 1532.7,1340.14 1537.19,1340.59 1541.67,1340.79 1546.15,1340.94 1550.63,1341.21 1555.11,1341.27 1559.59,1341.27 1564.07,1341.24 1568.55,1341.21 1573.03,1341.21 1577.52,1341.22 1582,1341.22 1586.48,1341.25 1590.96,1341.38 1595.44,1341.44 1599.92,1341.52 1604.4,1341.67 1608.88,1342.02 1613.36,1342.54 1617.85,1343.25 1622.33,1344.12 1626.81,1344.9 1631.29,1345.5 1635.77,1346 1640.25,1346.36 1644.73,1346.7 1649.21,1347.07 1653.7,1347.44 1658.18,1347.68 1662.66,1347.95 1667.14,1348.24 1671.62,1348.32 1676.1,1348.45 1680.58,1348.63 1685.06,1349.01 1689.54,1349.32 1694.03,1349.58 1698.51,1349.83 1702.99,1350.41 1707.47,1351.03 1711.95,1351.86 1716.43,1352.59 1720.91,1353.48 1725.39,1354.04 1729.88,1354.5 1734.36,1354.84 1738.84,1355.29 1743.32,1355.84 1747.8,1356.5 1752.28,1357.13 1756.76,1357.86 1761.24,1358.44 1765.72,1358.97 1770.21,1359.33 1774.69,1359.42 1779.17,1359.13 1783.65,1358.9 1788.13,1358.57 1792.61,1358.21 1797.09,1357.61 1801.57,1356.96 1806.05,1356.52 1810.54,1356.05 1815.02,1355.57 1819.5,1355.26 1823.98,1355.04 1828.46,1354.99 1832.94,1354.89 1837.42,1354.86 1841.9,1354.88 1846.39,1354.88 1850.87,1354.87 1855.35,1354.85 1859.83,1354.84 1864.31,1354.82 1868.79,1354.78 1873.27,1354.7 1877.75,1354.63 1882.23,1354.42 1886.72,1354.13 1891.2,1353.76 1895.68,1353.35 1900.16,1352.81 1904.64,1352.32 1909.12,1352 1913.6,1351.6 1918.08,1351.35 1922.56,1351.05 1927.05,1350.54 1931.53,1350.06 1936.01,1349.01 1940.49,1348.21 1944.97,1347.69 1949.45,1347.49 1953.93,1346.99 1958.41,1346.68 1962.9,1346.56 1967.38,1346.3 1971.86,1346.09 1976.34,1346.19 1980.82,1346 1985.3,1346.06 1989.78,1346.16 1994.26,1346.57 1998.74,1347.05 2003.23,1347.97 2007.71,1349.27 2012.19,1350.92 2016.67,1352.41 2021.15,1353.73 2025.63,1354.8 2030.11,1355.81 2034.59,1356.81 2039.07,1357.55 2043.56,1358.35 2048.04,1359.07 2052.52,1359.77 2057,1360.45 2061.48,1361.23 2065.96,1362.16 2070.44,1362.96 2074.92,1363.56 2079.41,1364.05 2083.89,1364.34 2088.37,1364.73 2092.85,1365.11 2097.33,1365.21 2101.81,1365.34 2106.29,1365.54 2110.77,1365.6 2115.25,1365.5 2119.74,1365.35 2124.22,1365.58 2128.7,1365.97 2133.18,1366.88 2137.66,1367.96 2142.14,1368.96 2146.62,1370.15 2151.1,1371.32 2155.58,1372.52 2160.07,1373.3 2164.55,1373.98 2169.03,1374.6 2173.51,1375.14 2177.99,1375.52 2182.47,1375.85 2186.95,1376.22 2191.43,1376.58 2195.92,1377.11 2200.4,1377.38 2204.88,1377.54 2209.36,1377.68 2213.84,1377.71 2218.32,1377.75 2222.8,1377.84 2227.28,1377.95 2231.76,1378.13 2236.25,1378.12 2240.73,1377.98 2245.21,1377.82 2249.69,1377.72 2254.17,1377.56 2258.65,1377.41 2263.13,1377.1 2267.61,1376.96 2272.1,1377.37 2276.58,1377.84 2281.06,1378.34 2285.54,1378.76 2290.02,1379.18 2294.5,1379.44 2298.98,1379.64 2303.46,1379.73 2307.94,1380.1 2312.43,1380.49 2316.91,1380.96 2321.39,1381.48 2325.87,1381.97 2330.35,1382.3 2334.83,1382.82 2339.31,1383.12 2343.79,1383.42 2348.27,1383.76 2352.76,1384.24 "/>
<polyline clip-path="url(#clip231)" style="stroke:#e26f46; stroke-linecap:round; stroke-linejoin:round; stroke-width:4; stroke-opacity:1; fill:none" points="112.177,1108 116.658,1115.05 121.139,1121.96 125.621,1128.73 130.102,1135.35 134.583,1141.71 139.064,1148.09 143.545,1154.34 148.026,1160.39 152.508,1166.31 156.989,1172.15 161.47,1177.88 165.951,1183.53 170.432,1189.06 174.913,1194.41 179.395,1199.71 183.876,1204.79 188.357,1209.34 192.838,1213.18 197.319,1216.69 201.8,1219.7 206.281,1222.47 210.763,1224.36 215.244,1225.82 219.725,1226.55 224.206,1226.44 228.687,1227.02 233.168,1227.2 237.65,1228.45 242.131,1229.76 246.612,1231.16 251.093,1231.55 255.574,1231.58 260.055,1231.25 264.537,1230.12 269.018,1229.11 273.499,1227.9 277.98,1225.83 282.461,1224.85 286.942,1222.92 291.423,1221.21 295.905,1219.36 300.386,1218.23 304.867,1216.33 309.348,1213.89 313.829,1211.47 318.31,1209.12 322.792,1207.29 327.273,1205.14 331.754,1203.96 336.235,1202.51 340.716,1201.22 345.197,1199.89 349.679,1198.89 354.16,1197.33 358.641,1195.96 363.122,1194.3 367.603,1192.53 372.084,1192.04 376.565,1191.35 381.047,1191.16 385.528,1192.64 390.009,1195.31 394.49,1198.56 398.971,1201.59 403.452,1205.03 407.934,1207.46 412.415,1209.27 416.896,1211.02 421.377,1212.13 425.858,1211.86 430.339,1212.21 434.821,1211.79 439.302,1208.98 443.783,1206.44 448.264,1203.78 452.745,1201.21 457.226,1198.62 461.707,1195.72 466.189,1193.7 470.67,1191.01 475.151,1189.17 479.632,1186.88 484.113,1185.62 488.594,1184.46 493.076,1182.42 497.557,1180.05 502.038,1177.05 506.519,1174.42 511,1171.01 515.481,1167.11 519.963,1162.04 524.444,1156.6 528.925,1151.19 533.406,1145.31 537.887,1139.25 542.368,1133.01 546.849,1126.53 551.331,1119.92 555.812,1113.27 560.293,1106.51 564.774,1099.47 569.255,1092.27 573.736,1085.86 578.218,1079.13 582.699,1072.02 587.18,1064.45 591.661,1056.82 596.142,1049.06 600.623,1040.86 605.104,1032.49 609.586,1023.98 614.067,1015.26 618.548,1006.35 623.029,997.286 627.51,988.097 631.991,979.001 636.473,969.375 640.954,959.59 645.435,949.956 649.916,939.784 654.397,929.379 658.878,918.757 663.36,907.937 667.841,897.031 672.322,885.825 676.803,874.409 681.284,863.382 685.765,852.082 690.246,840.78 694.728,829.948 699.209,818.316 703.69,806.552 708.171,794.29 712.652,782.404 717.133,770.215 721.615,759.126 726.096,750.618 730.577,740.224 735.058,729.815 739.539,721.485 744.02,714.267 748.502,703.552 752.983,691.141 757.464,678.632 761.945,666.079 766.426,654.836 770.907,645.844 775.388,635.123 779.87,621.166 784.351,605.495 788.832,590.329 793.313,575.039 797.794,560.154 802.275,547.193 806.757,532.766 811.238,516.496 815.719,499.843 820.2,483.444 824.681,465.412 829.162,447.336 833.644,427.76 838.125,408.291 842.606,392.773 847.087,375.942 851.568,357.01 856.049,340.554 860.53,323.625 865.012,302.823 869.493,282.928 873.974,266.306 878.455,254.203 882.936,249.026 887.417,242.852 891.899,237.255 896.38,225.662 900.861,212.813 905.342,202.011 909.823,200.917 914.304,195.66 918.786,195.501 923.267,195.553 927.748,200.342 932.229,203.297 936.71,203.18 941.191,203.047 945.672,200.823 950.154,197.205 954.635,199.157 959.116,200.855 963.597,200.879 968.078,209.836 972.559,215.133 977.041,221.527 981.522,231.892 986.003,242.138 990.484,251.072 994.965,263.901 999.446,280.486 1003.93,297.237 1008.41,313.059 1012.89,327.17 1017.37,340.55 1021.85,356.696 1026.33,368.386 1030.81,376.462 1035.3,388.361 1039.78,401.153 1044.26,414.201 1048.74,426.139 1053.22,437.33 1057.7,444.33 1062.18,452.183 1066.66,460.159 1071.14,467.942 1075.63,473.237 1080.11,481.666 1084.59,490.494 1089.07,499.962 1093.55,513.859 1098.03,528.651 1102.51,544.433 1106.99,554.484 1111.48,568.699 1115.96,581.964 1120.44,598.089 1124.92,612.612 1129.4,624.949 1133.88,638.336 1138.36,652.995 1142.84,666.976 1147.32,680.417 1151.81,693.899 1156.29,706.235 1160.77,718.727 1165.25,729.931 1169.73,743.023 1174.21,756.268 1178.69,769.527 1183.17,781.982 1187.65,794.127 1192.14,806.753 1196.62,818.059 1201.1,829.361 1205.58,840.861 1210.06,852.113 1214.54,863.584 1219.02,874.956 1223.5,886.208 1227.99,897.425 1232.47,908.379 1236.95,918.875 1241.43,928.808 1245.91,938.335 1250.39,947.208 1254.87,956.671 1259.35,965.486 1263.83,974.445 1268.32,982.728 1272.8,990.797 1277.28,999.728 1281.76,1007.49 1286.24,1015.9 1290.72,1023.36 1295.2,1030.54 1299.68,1037.98 1304.17,1044.83 1308.65,1050.66 1313.13,1057.63 1317.61,1064.29 1322.09,1070.95 1326.57,1077.59 1331.05,1084.57 1335.53,1090.98 1340.01,1097.06 1344.5,1104.02 1348.98,1110.78 1353.46,1117.33 1357.94,1123.05 1362.42,1128.45 1366.9,1132.64 1371.38,1137.14 1375.86,1141.13 1380.34,1145.86 1384.83,1150.64 1389.31,1155.14 1393.79,1159.71 1398.27,1164.31 1402.75,1169.75 1407.23,1174.72 1411.71,1179.72 1416.19,1184.59 1420.68,1189.68 1425.16,1194.77 1429.64,1199.23 1434.12,1203.06 1438.6,1207.02 1443.08,1210.92 1447.56,1214.98 1452.04,1219.27 1456.52,1223.5 1461.01,1227.81 1465.49,1232.22 1469.97,1236.32 1474.45,1239.99 1478.93,1243.56 1483.41,1247.09 1487.89,1250.15 1492.37,1252.83 1496.85,1255.64 1501.34,1258.68 1505.82,1260.76 1510.3,1262.63 1514.78,1264.5 1519.26,1266.54 1523.74,1268.34 1528.22,1270.18 1532.7,1271.94 1537.19,1273.3 1541.67,1273.75 1546.15,1273.94 1550.63,1274.42 1555.11,1274.3 1559.59,1274.26 1564.07,1273.47 1568.55,1272.72 1573.03,1272.74 1577.52,1273.26 1582,1273.93 1586.48,1275.07 1590.96,1275.98 1595.44,1277.41 1599.92,1279.03 1604.4,1280.79 1608.88,1282.13 1613.36,1283.3 1617.85,1283.83 1622.33,1283.8 1626.81,1284.17 1631.29,1284.15 1635.77,1284.15 1640.25,1284.46 1644.73,1284.84 1649.21,1284.97 1653.7,1285.06 1658.18,1284.66 1662.66,1283.86 1667.14,1283.4 1671.62,1281.92 1676.1,1281.24 1680.58,1280.21 1685.06,1279.32 1689.54,1278.02 1694.03,1276.44 1698.51,1275.83 1702.99,1274.4 1707.47,1273.84 1711.95,1273.29 1716.43,1271.43 1720.91,1269.64 1725.39,1268.09 1729.88,1266.56 1734.36,1264.89 1738.84,1263.69 1743.32,1262.01 1747.8,1260.33 1752.28,1258.56 1756.76,1255.87 1761.24,1253.18 1765.72,1250.96 1770.21,1248.03 1774.69,1245.15 1779.17,1242.61 1783.65,1240.46 1788.13,1237.27 1792.61,1233.93 1797.09,1230.19 1801.57,1226.15 1806.05,1222.32 1810.54,1219.1 1815.02,1215.53 1819.5,1212.26 1823.98,1208.58 1828.46,1204.83 1832.94,1201.5 1837.42,1197.1 1841.9,1192.88 1846.39,1188.44 1850.87,1183.83 1855.35,1179.2 1859.83,1174.65 1864.31,1169.84 1868.79,1165.08 1873.27,1160.01 1877.75,1155.12 1882.23,1150.76 1886.72,1146.86 1891.2,1143 1895.68,1139.71 1900.16,1135.47 1904.64,1131.39 1909.12,1127.87 1913.6,1124.53 1918.08,1120.91 1922.56,1116.32 1927.05,1111.46 1931.53,1105.88 1936.01,1101.29 1940.49,1096.58 1944.97,1092.67 1949.45,1088.07 1953.93,1082.2 1958.41,1076.32 1962.9,1071.16 1967.38,1066.18 1971.86,1062.02 1976.34,1057.93 1980.82,1052.75 1985.3,1046.07 1989.78,1039.49 1994.26,1034.99 1998.74,1028.74 2003.23,1021.36 2007.71,1014.08 2012.19,1007.33 2016.67,1000.93 2021.15,994.331 2025.63,987.463 2030.11,980.861 2034.59,974.08 2039.07,966.294 2043.56,958.245 2048.04,950.777 2052.52,944.693 2057,939.92 2061.48,936.228 2065.96,931.193 2070.44,929.449 2074.92,928.15 2079.41,926.972 2083.89,925.456 2088.37,923.554 2092.85,920.696 2097.33,915.859 2101.81,911.566 2106.29,906.691 2110.77,901.529 2115.25,895.338 2119.74,888.032 2124.22,883.277 2128.7,879.144 2133.18,874.905 2137.66,869.247 2142.14,862.677 2146.62,855.047 2151.1,847.889 2155.58,840.955 2160.07,833.526 2164.55,828.106 2169.03,819.303 2173.51,809.703 2177.99,801.402 2182.47,791.987 2186.95,783.878 2191.43,772.008 2195.92,760.116 2200.4,747.767 2204.88,734.242 2209.36,720.637 2213.84,706.014 2218.32,690.956 2222.8,676.293 2227.28,662.426 2231.76,646.708 2236.25,631.266 2240.73,615.108 2245.21,598.568 2249.69,582.126 2254.17,564.75 2258.65,546.855 2263.13,528.798 2267.61,510.874 2272.1,492.229 2276.58,473.312 2281.06,454.2 2285.54,435.269 2290.02,415.067 2294.5,394.606 2298.98,373.594 2303.46,351.966 2307.94,329.837 2312.43,307.358 2316.91,284.339 2321.39,261.146 2325.87,238.088 2330.35,214.138 2334.83,190.159 2339.31,164.869 2343.79,139.159 2348.27,112.956 2352.76,86.1857 "/>
<path clip-path="url(#clip230)" d="M186.863 248.629 L500.018 248.629 L500.018 93.1086 L186.863 93.1086  Z" fill="#ffffff" fill-rule="evenodd" fill-opacity="1"/>
<polyline clip-path="url(#clip230)" style="stroke:#000000; stroke-linecap:round; stroke-linejoin:round; stroke-width:4; stroke-opacity:1; fill:none" points="186.863,248.629 500.018,248.629 500.018,93.1086 186.863,93.1086 186.863,248.629 "/>
<polyline clip-path="url(#clip230)" style="stroke:#009af9; stroke-linecap:round; stroke-linejoin:round; stroke-width:4; stroke-opacity:1; fill:none" points="211.758,144.949 361.13,144.949 "/>
<path clip-path="url(#clip230)" d="M386.026 151.997 L386.026 136.303 L390.285 136.303 L390.285 151.835 Q390.285 155.516 391.72 157.368 Q393.155 159.196 396.026 159.196 Q399.475 159.196 401.465 156.997 Q403.479 154.798 403.479 151.002 L403.479 136.303 L407.739 136.303 L407.739 162.229 L403.479 162.229 L403.479 158.247 Q401.928 160.608 399.868 161.766 Q397.831 162.9 395.123 162.9 Q390.655 162.9 388.34 160.122 Q386.026 157.344 386.026 151.997 M396.743 135.678 L396.743 135.678 Z" fill="#000000" fill-rule="nonzero" fill-opacity="1" /><path clip-path="url(#clip230)" d="M416.118 126.21 L425.933 126.21 L425.933 129.52 L420.377 129.52 L420.377 165.168 L425.933 165.168 L425.933 168.479 L416.118 168.479 L416.118 126.21 Z" fill="#000000" fill-rule="nonzero" fill-opacity="1" /><path clip-path="url(#clip230)" d="M436.419 158.293 L444.058 158.293 L444.058 131.928 L435.748 133.595 L435.748 129.335 L444.011 127.669 L448.687 127.669 L448.687 158.293 L456.326 158.293 L456.326 162.229 L436.419 162.229 L436.419 158.293 Z" fill="#000000" fill-rule="nonzero" fill-opacity="1" /><path clip-path="url(#clip230)" d="M475.122 126.21 L475.122 168.479 L465.308 168.479 L465.308 165.168 L470.84 165.168 L470.84 129.52 L465.308 129.52 L465.308 126.21 L475.122 126.21 Z" fill="#000000" fill-rule="nonzero" fill-opacity="1" /><polyline clip-path="url(#clip230)" style="stroke:#e26f46; stroke-linecap:round; stroke-linejoin:round; stroke-width:4; stroke-opacity:1; fill:none" points="211.758,196.789 361.13,196.789 "/>
<path clip-path="url(#clip230)" d="M386.026 203.837 L386.026 188.143 L390.285 188.143 L390.285 203.675 Q390.285 207.356 391.72 209.208 Q393.155 211.036 396.026 211.036 Q399.475 211.036 401.465 208.837 Q403.479 206.638 403.479 202.842 L403.479 188.143 L407.739 188.143 L407.739 214.069 L403.479 214.069 L403.479 210.087 Q401.928 212.448 399.868 213.606 Q397.831 214.74 395.123 214.74 Q390.655 214.74 388.34 211.962 Q386.026 209.184 386.026 203.837 M396.743 187.518 L396.743 187.518 Z" fill="#000000" fill-rule="nonzero" fill-opacity="1" /><path clip-path="url(#clip230)" d="M416.118 178.05 L425.933 178.05 L425.933 181.36 L420.377 181.36 L420.377 217.008 L425.933 217.008 L425.933 220.319 L416.118 220.319 L416.118 178.05 Z" fill="#000000" fill-rule="nonzero" fill-opacity="1" /><path clip-path="url(#clip230)" d="M439.637 210.133 L455.956 210.133 L455.956 214.069 L434.012 214.069 L434.012 210.133 Q436.674 207.379 441.257 202.749 Q445.863 198.096 447.044 196.754 Q449.289 194.231 450.169 192.495 Q451.072 190.735 451.072 189.046 Q451.072 186.291 449.127 184.555 Q447.206 182.819 444.104 182.819 Q441.905 182.819 439.451 183.583 Q437.021 184.347 434.243 185.897 L434.243 181.175 Q437.067 180.041 439.521 179.462 Q441.974 178.884 444.011 178.884 Q449.382 178.884 452.576 181.569 Q455.771 184.254 455.771 188.745 Q455.771 190.874 454.961 192.796 Q454.173 194.694 452.067 197.286 Q451.488 197.958 448.386 201.175 Q445.285 204.37 439.637 210.133 Z" fill="#000000" fill-rule="nonzero" fill-opacity="1" /><path clip-path="url(#clip230)" d="M475.122 178.05 L475.122 220.319 L465.308 220.319 L465.308 217.008 L470.84 217.008 L470.84 181.36 L465.308 181.36 L465.308 178.05 L475.122 178.05 Z" fill="#000000" fill-rule="nonzero" fill-opacity="1" /></svg>
