<?xml version="1.0" encoding="utf-8"?>
<svg xmlns="http://www.w3.org/2000/svg" xmlns:xlink="http://www.w3.org/1999/xlink" width="600" height="400" viewBox="0 0 2400 1600">
<defs>
  <clipPath id="clip620">
    <rect x="0" y="0" width="2400" height="1600"/>
  </clipPath>
</defs>
<path clip-path="url(#clip620)" d="M0 1600 L2400 1600 L2400 0 L0 0  Z" fill="#ffffff" fill-rule="evenodd" fill-opacity="1"/>
<defs>
  <clipPath id="clip621">
    <rect x="480" y="0" width="1681" height="1600"/>
  </clipPath>
</defs>
<path clip-path="url(#clip620)" d="M149.191 1423.18 L2352.76 1423.18 L2352.76 47.2441 L149.191 47.2441  Z" fill="#ffffff" fill-rule="evenodd" fill-opacity="1"/>
<defs>
  <clipPath id="clip622">
    <rect x="149" y="47" width="2205" height="1377"/>
  </clipPath>
</defs>
<polyline clip-path="url(#clip622)" style="stroke:#000000; stroke-linecap:round; stroke-linejoin:round; stroke-width:2; stroke-opacity:0.1; fill:none" points="149.191,1423.18 149.191,47.2441 "/>
<polyline clip-path="url(#clip622)" style="stroke:#000000; stroke-linecap:round; stroke-linejoin:round; stroke-width:2; stroke-opacity:0.1; fill:none" points="850.607,1423.18 850.607,47.2441 "/>
<polyline clip-path="url(#clip622)" style="stroke:#000000; stroke-linecap:round; stroke-linejoin:round; stroke-width:2; stroke-opacity:0.1; fill:none" points="1552.02,1423.18 1552.02,47.2441 "/>
<polyline clip-path="url(#clip622)" style="stroke:#000000; stroke-linecap:round; stroke-linejoin:round; stroke-width:2; stroke-opacity:0.1; fill:none" points="2253.44,1423.18 2253.44,47.2441 "/>
<polyline clip-path="url(#clip622)" style="stroke:#000000; stroke-linecap:round; stroke-linejoin:round; stroke-width:2; stroke-opacity:0.1; fill:none" points="149.191,1279.53 2352.76,1279.53 "/>
<polyline clip-path="url(#clip622)" style="stroke:#000000; stroke-linecap:round; stroke-linejoin:round; stroke-width:2; stroke-opacity:0.1; fill:none" points="149.191,1014.72 2352.76,1014.72 "/>
<polyline clip-path="url(#clip622)" style="stroke:#000000; stroke-linecap:round; stroke-linejoin:round; stroke-width:2; stroke-opacity:0.1; fill:none" points="149.191,749.904 2352.76,749.904 "/>
<polyline clip-path="url(#clip622)" style="stroke:#000000; stroke-linecap:round; stroke-linejoin:round; stroke-width:2; stroke-opacity:0.1; fill:none" points="149.191,485.089 2352.76,485.089 "/>
<polyline clip-path="url(#clip622)" style="stroke:#000000; stroke-linecap:round; stroke-linejoin:round; stroke-width:2; stroke-opacity:0.1; fill:none" points="149.191,220.274 2352.76,220.274 "/>
<polyline clip-path="url(#clip620)" style="stroke:#000000; stroke-linecap:round; stroke-linejoin:round; stroke-width:4; stroke-opacity:1; fill:none" points="149.191,1423.18 2352.76,1423.18 "/>
<polyline clip-path="url(#clip620)" style="stroke:#000000; stroke-linecap:round; stroke-linejoin:round; stroke-width:4; stroke-opacity:1; fill:none" points="149.191,1423.18 149.191,1404.28 "/>
<polyline clip-path="url(#clip620)" style="stroke:#000000; stroke-linecap:round; stroke-linejoin:round; stroke-width:4; stroke-opacity:1; fill:none" points="850.607,1423.18 850.607,1404.28 "/>
<polyline clip-path="url(#clip620)" style="stroke:#000000; stroke-linecap:round; stroke-linejoin:round; stroke-width:4; stroke-opacity:1; fill:none" points="1552.02,1423.18 1552.02,1404.28 "/>
<polyline clip-path="url(#clip620)" style="stroke:#000000; stroke-linecap:round; stroke-linejoin:round; stroke-width:4; stroke-opacity:1; fill:none" points="2253.44,1423.18 2253.44,1404.28 "/>
<path clip-path="url(#clip620)" d="M126.575 1454.1 Q122.964 1454.1 121.135 1457.66 Q119.33 1461.2 119.33 1468.33 Q119.33 1475.44 121.135 1479.01 Q122.964 1482.55 126.575 1482.55 Q130.209 1482.55 132.015 1479.01 Q133.844 1475.44 133.844 1468.33 Q133.844 1461.2 132.015 1457.66 Q130.209 1454.1 126.575 1454.1 M126.575 1450.39 Q132.385 1450.39 135.441 1455 Q138.52 1459.58 138.52 1468.33 Q138.52 1477.06 135.441 1481.67 Q132.385 1486.25 126.575 1486.25 Q120.765 1486.25 117.686 1481.67 Q114.631 1477.06 114.631 1468.33 Q114.631 1459.58 117.686 1455 Q120.765 1450.39 126.575 1450.39 Z" fill="#000000" fill-rule="nonzero" fill-opacity="1" /><path clip-path="url(#clip620)" d="M146.737 1479.7 L151.621 1479.7 L151.621 1485.58 L146.737 1485.58 L146.737 1479.7 Z" fill="#000000" fill-rule="nonzero" fill-opacity="1" /><path clip-path="url(#clip620)" d="M171.806 1454.1 Q168.195 1454.1 166.367 1457.66 Q164.561 1461.2 164.561 1468.33 Q164.561 1475.44 166.367 1479.01 Q168.195 1482.55 171.806 1482.55 Q175.441 1482.55 177.246 1479.01 Q179.075 1475.44 179.075 1468.33 Q179.075 1461.2 177.246 1457.66 Q175.441 1454.1 171.806 1454.1 M171.806 1450.39 Q177.617 1450.39 180.672 1455 Q183.751 1459.58 183.751 1468.33 Q183.751 1477.06 180.672 1481.67 Q177.617 1486.25 171.806 1486.25 Q165.996 1486.25 162.918 1481.67 Q159.862 1477.06 159.862 1468.33 Q159.862 1459.58 162.918 1455 Q165.996 1450.39 171.806 1450.39 Z" fill="#000000" fill-rule="nonzero" fill-opacity="1" /><path clip-path="url(#clip620)" d="M828.489 1454.1 Q824.878 1454.1 823.05 1457.66 Q821.244 1461.2 821.244 1468.33 Q821.244 1475.44 823.05 1479.01 Q824.878 1482.55 828.489 1482.55 Q832.124 1482.55 833.929 1479.01 Q835.758 1475.44 835.758 1468.33 Q835.758 1461.2 833.929 1457.66 Q832.124 1454.1 828.489 1454.1 M828.489 1450.39 Q834.3 1450.39 837.355 1455 Q840.434 1459.58 840.434 1468.33 Q840.434 1477.06 837.355 1481.67 Q834.3 1486.25 828.489 1486.25 Q822.679 1486.25 819.601 1481.67 Q816.545 1477.06 816.545 1468.33 Q816.545 1459.58 819.601 1455 Q822.679 1450.39 828.489 1450.39 Z" fill="#000000" fill-rule="nonzero" fill-opacity="1" /><path clip-path="url(#clip620)" d="M848.651 1479.7 L853.536 1479.7 L853.536 1485.58 L848.651 1485.58 L848.651 1479.7 Z" fill="#000000" fill-rule="nonzero" fill-opacity="1" /><path clip-path="url(#clip620)" d="M863.767 1451.02 L882.123 1451.02 L882.123 1454.96 L868.049 1454.96 L868.049 1463.43 Q869.068 1463.08 870.086 1462.92 Q871.105 1462.73 872.123 1462.73 Q877.91 1462.73 881.29 1465.9 Q884.67 1469.08 884.67 1474.49 Q884.67 1480.07 881.198 1483.17 Q877.725 1486.25 871.406 1486.25 Q869.23 1486.25 866.961 1485.88 Q864.716 1485.51 862.309 1484.77 L862.309 1480.07 Q864.392 1481.2 866.614 1481.76 Q868.836 1482.32 871.313 1482.32 Q875.318 1482.32 877.656 1480.21 Q879.994 1478.1 879.994 1474.49 Q879.994 1470.88 877.656 1468.77 Q875.318 1466.67 871.313 1466.67 Q869.438 1466.67 867.563 1467.08 Q865.711 1467.5 863.767 1468.38 L863.767 1451.02 Z" fill="#000000" fill-rule="nonzero" fill-opacity="1" /><path clip-path="url(#clip620)" d="M1519.18 1481.64 L1526.82 1481.64 L1526.82 1455.28 L1518.51 1456.95 L1518.51 1452.69 L1526.77 1451.02 L1531.45 1451.02 L1531.45 1481.64 L1539.08 1481.64 L1539.08 1485.58 L1519.18 1485.58 L1519.18 1481.64 Z" fill="#000000" fill-rule="nonzero" fill-opacity="1" /><path clip-path="url(#clip620)" d="M1548.53 1479.7 L1553.41 1479.7 L1553.41 1485.58 L1548.53 1485.58 L1548.53 1479.7 Z" fill="#000000" fill-rule="nonzero" fill-opacity="1" /><path clip-path="url(#clip620)" d="M1573.6 1454.1 Q1569.99 1454.1 1568.16 1457.66 Q1566.35 1461.2 1566.35 1468.33 Q1566.35 1475.44 1568.16 1479.01 Q1569.99 1482.55 1573.6 1482.55 Q1577.23 1482.55 1579.04 1479.01 Q1580.87 1475.44 1580.87 1468.33 Q1580.87 1461.2 1579.04 1457.66 Q1577.23 1454.1 1573.6 1454.1 M1573.6 1450.39 Q1579.41 1450.39 1582.46 1455 Q1585.54 1459.58 1585.54 1468.33 Q1585.54 1477.06 1582.46 1481.67 Q1579.41 1486.25 1573.6 1486.25 Q1567.79 1486.25 1564.71 1481.67 Q1561.65 1477.06 1561.65 1468.33 Q1561.65 1459.58 1564.71 1455 Q1567.79 1450.39 1573.6 1450.39 Z" fill="#000000" fill-rule="nonzero" fill-opacity="1" /><path clip-path="url(#clip620)" d="M2221.09 1481.64 L2228.73 1481.64 L2228.73 1455.28 L2220.42 1456.95 L2220.42 1452.69 L2228.68 1451.02 L2233.36 1451.02 L2233.36 1481.64 L2241 1481.64 L2241 1485.58 L2221.09 1485.58 L2221.09 1481.64 Z" fill="#000000" fill-rule="nonzero" fill-opacity="1" /><path clip-path="url(#clip620)" d="M2250.44 1479.7 L2255.33 1479.7 L2255.33 1485.58 L2250.44 1485.58 L2250.44 1479.7 Z" fill="#000000" fill-rule="nonzero" fill-opacity="1" /><path clip-path="url(#clip620)" d="M2265.56 1451.02 L2283.91 1451.02 L2283.91 1454.96 L2269.84 1454.96 L2269.84 1463.43 Q2270.86 1463.08 2271.88 1462.92 Q2272.9 1462.73 2273.91 1462.73 Q2279.7 1462.73 2283.08 1465.9 Q2286.46 1469.08 2286.46 1474.49 Q2286.46 1480.07 2282.99 1483.17 Q2279.52 1486.25 2273.2 1486.25 Q2271.02 1486.25 2268.75 1485.88 Q2266.51 1485.51 2264.1 1484.77 L2264.1 1480.07 Q2266.18 1481.2 2268.41 1481.76 Q2270.63 1482.32 2273.1 1482.32 Q2277.11 1482.32 2279.45 1480.21 Q2281.79 1478.1 2281.79 1474.49 Q2281.79 1470.88 2279.45 1468.77 Q2277.11 1466.67 2273.1 1466.67 Q2271.23 1466.67 2269.35 1467.08 Q2267.5 1467.5 2265.56 1468.38 L2265.56 1451.02 Z" fill="#000000" fill-rule="nonzero" fill-opacity="1" /><path clip-path="url(#clip620)" d="M1250.03 1522.27 L1250.03 1532.4 L1262.1 1532.4 L1262.1 1536.95 L1250.03 1536.95 L1250.03 1556.3 Q1250.03 1560.66 1251.21 1561.9 Q1252.42 1563.14 1256.08 1563.14 L1262.1 1563.14 L1262.1 1568.04 L1256.08 1568.04 Q1249.3 1568.04 1246.72 1565.53 Q1244.15 1562.98 1244.15 1556.3 L1244.15 1536.95 L1239.85 1536.95 L1239.85 1532.4 L1244.15 1532.4 L1244.15 1522.27 L1250.03 1522.27 Z" fill="#000000" fill-rule="nonzero" fill-opacity="1" /><polyline clip-path="url(#clip620)" style="stroke:#000000; stroke-linecap:round; stroke-linejoin:round; stroke-width:4; stroke-opacity:1; fill:none" points="149.191,1423.18 149.191,47.2441 "/>
<polyline clip-path="url(#clip620)" style="stroke:#000000; stroke-linecap:round; stroke-linejoin:round; stroke-width:4; stroke-opacity:1; fill:none" points="149.191,1279.53 168.089,1279.53 "/>
<polyline clip-path="url(#clip620)" style="stroke:#000000; stroke-linecap:round; stroke-linejoin:round; stroke-width:4; stroke-opacity:1; fill:none" points="149.191,1014.72 168.089,1014.72 "/>
<polyline clip-path="url(#clip620)" style="stroke:#000000; stroke-linecap:round; stroke-linejoin:round; stroke-width:4; stroke-opacity:1; fill:none" points="149.191,749.904 168.089,749.904 "/>
<polyline clip-path="url(#clip620)" style="stroke:#000000; stroke-linecap:round; stroke-linejoin:round; stroke-width:4; stroke-opacity:1; fill:none" points="149.191,485.089 168.089,485.089 "/>
<polyline clip-path="url(#clip620)" style="stroke:#000000; stroke-linecap:round; stroke-linejoin:round; stroke-width:4; stroke-opacity:1; fill:none" points="149.191,220.274 168.089,220.274 "/>
<path clip-path="url(#clip620)" d="M50.9921 1279.98 L80.6679 1279.98 L80.6679 1283.92 L50.9921 1283.92 L50.9921 1279.98 Z" fill="#000000" fill-rule="nonzero" fill-opacity="1" /><path clip-path="url(#clip620)" d="M103.608 1266.33 L91.8021 1284.78 L103.608 1284.78 L103.608 1266.33 M102.381 1262.25 L108.26 1262.25 L108.26 1284.78 L113.191 1284.78 L113.191 1288.67 L108.26 1288.67 L108.26 1296.81 L103.608 1296.81 L103.608 1288.67 L88.0058 1288.67 L88.0058 1284.15 L102.381 1262.25 Z" fill="#000000" fill-rule="nonzero" fill-opacity="1" /><path clip-path="url(#clip620)" d="M53.0754 1015.17 L82.7512 1015.17 L82.7512 1019.11 L53.0754 1019.11 L53.0754 1015.17 Z" fill="#000000" fill-rule="nonzero" fill-opacity="1" /><path clip-path="url(#clip620)" d="M96.8715 1028.06 L113.191 1028.06 L113.191 1032 L91.2465 1032 L91.2465 1028.06 Q93.9086 1025.31 98.4919 1020.68 Q103.098 1016.03 104.279 1014.68 Q106.524 1012.16 107.404 1010.42 Q108.307 1008.67 108.307 1006.98 Q108.307 1004.22 106.362 1002.48 Q104.441 1000.75 101.339 1000.75 Q99.14 1000.75 96.6863 1001.51 Q94.2558 1002.28 91.478 1003.83 L91.478 999.105 Q94.3021 997.971 96.7558 997.392 Q99.2095 996.814 101.246 996.814 Q106.617 996.814 109.811 999.499 Q113.006 1002.18 113.006 1006.67 Q113.006 1008.8 112.196 1010.73 Q111.408 1012.62 109.302 1015.22 Q108.723 1015.89 105.621 1019.11 Q102.52 1022.3 96.8715 1028.06 Z" fill="#000000" fill-rule="nonzero" fill-opacity="1" /><path clip-path="url(#clip620)" d="M101.246 735.703 Q97.6354 735.703 95.8067 739.267 Q94.0012 742.809 94.0012 749.939 Q94.0012 757.045 95.8067 760.61 Q97.6354 764.151 101.246 764.151 Q104.881 764.151 106.686 760.61 Q108.515 757.045 108.515 749.939 Q108.515 742.809 106.686 739.267 Q104.881 735.703 101.246 735.703 M101.246 731.999 Q107.057 731.999 110.112 736.605 Q113.191 741.189 113.191 749.939 Q113.191 758.665 110.112 763.272 Q107.057 767.855 101.246 767.855 Q95.4363 767.855 92.3576 763.272 Q89.3021 758.665 89.3021 749.939 Q89.3021 741.189 92.3576 736.605 Q95.4363 731.999 101.246 731.999 Z" fill="#000000" fill-rule="nonzero" fill-opacity="1" /><path clip-path="url(#clip620)" d="M96.8715 498.434 L113.191 498.434 L113.191 502.369 L91.2465 502.369 L91.2465 498.434 Q93.9086 495.679 98.4919 491.05 Q103.098 486.397 104.279 485.054 Q106.524 482.531 107.404 480.795 Q108.307 479.036 108.307 477.346 Q108.307 474.591 106.362 472.855 Q104.441 471.119 101.339 471.119 Q99.14 471.119 96.6863 471.883 Q94.2558 472.647 91.478 474.198 L91.478 469.476 Q94.3021 468.341 96.7558 467.763 Q99.2095 467.184 101.246 467.184 Q106.617 467.184 109.811 469.869 Q113.006 472.554 113.006 477.045 Q113.006 479.175 112.196 481.096 Q111.408 482.994 109.302 485.587 Q108.723 486.258 105.621 489.476 Q102.52 492.67 96.8715 498.434 Z" fill="#000000" fill-rule="nonzero" fill-opacity="1" /><path clip-path="url(#clip620)" d="M103.608 207.068 L91.8021 225.517 L103.608 225.517 L103.608 207.068 M102.381 202.994 L108.26 202.994 L108.26 225.517 L113.191 225.517 L113.191 229.406 L108.26 229.406 L108.26 237.554 L103.608 237.554 L103.608 229.406 L88.0058 229.406 L88.0058 224.892 L102.381 202.994 Z" fill="#000000" fill-rule="nonzero" fill-opacity="1" /><polyline clip-path="url(#clip622)" style="stroke:#009af9; stroke-linecap:round; stroke-linejoin:round; stroke-width:4; stroke-opacity:1; fill:none" points="149.191,812.853 151.397,813.85 153.602,814.845 155.808,815.839 158.014,816.831 160.22,817.822 162.425,818.811 164.631,819.798 166.837,820.784 169.043,821.768 171.249,822.75 173.454,823.731 175.66,824.71 177.866,825.688 180.072,826.663 182.277,827.637 184.483,828.609 186.689,829.58 188.895,830.548 191.101,831.515 193.306,832.48 195.512,833.443 197.718,834.404 199.924,835.363 202.129,836.32 204.335,837.275 206.541,838.228 208.747,839.18 210.952,840.129 213.158,841.076 215.364,842.022 217.57,842.965 219.776,843.906 221.981,844.845 224.187,845.782 226.393,846.716 228.599,847.649 230.804,848.579 233.01,849.508 235.216,850.434 237.422,851.358 239.627,852.279 241.833,853.199 244.039,854.116 246.245,855.031 248.451,855.943 250.656,856.853 252.862,857.761 255.068,858.667 257.274,859.57 259.479,860.471 261.685,861.37 263.891,862.266 266.097,863.16 268.302,864.051 270.508,864.94 272.714,865.826 274.92,866.71 277.126,867.591 279.331,868.47 281.537,869.347 283.743,870.221 285.949,871.092 288.154,871.961 290.36,872.827 292.566,873.691 294.772,874.552 296.978,875.411 299.183,876.267 301.389,877.12 303.595,877.971 305.801,878.819 308.006,879.664 310.212,880.507 312.418,881.347 314.624,882.184 316.829,883.019 319.035,883.851 321.241,884.68 323.447,885.506 325.653,886.33 327.858,887.151 330.064,887.969 332.27,888.785 334.476,889.597 336.681,890.407 338.887,891.214 341.093,892.018 343.299,892.82 345.504,893.619 347.71,894.414 349.916,895.207 352.122,895.997 354.328,896.784 356.533,897.569 358.739,898.35 360.945,899.129 363.151,899.904 365.356,900.677 367.562,901.447 369.768,902.214 371.974,902.978 374.179,903.739 376.385,904.497 378.591,905.252 380.797,906.004 383.003,906.753 385.208,907.499 387.414,908.243 389.62,908.983 391.826,909.72 394.031,910.454 396.237,911.185 398.443,911.914 400.649,912.639 402.855,913.361 405.06,914.08 407.266,914.796 409.472,915.509 411.678,916.219 413.883,916.926 416.089,917.63 418.295,918.331 420.501,919.029 422.706,919.724 424.912,920.415 427.118,921.104 429.324,921.789 431.53,922.471 433.735,923.151 435.941,923.827 438.147,924.5 440.353,925.17 442.558,925.837 444.764,926.5 446.97,927.161 449.176,927.818 451.381,928.473 453.587,929.124 455.793,929.772 457.999,930.417 460.205,931.059 462.41,931.697 464.616,932.333 466.822,932.965 469.028,933.594 471.233,934.22 473.439,934.843 475.645,935.463 477.851,936.079 480.056,936.693 482.262,937.303 484.468,937.91 486.674,938.514 488.88,939.115 491.085,939.712 493.291,940.306 495.497,940.897 497.703,941.485 499.908,942.07 502.114,942.652 504.32,943.23 506.526,943.805 508.732,944.377 510.937,944.946 513.143,945.512 515.349,946.074 517.555,946.633 519.76,947.189 521.966,947.742 524.172,948.292 526.378,948.838 528.583,949.381 530.789,949.921 532.995,950.458 535.201,950.992 537.407,951.522 539.612,952.049 541.818,952.573 544.024,953.094 546.23,953.611 548.435,954.126 550.641,954.637 552.847,955.145 555.053,955.649 557.258,956.151 559.464,956.649 561.67,957.144 563.876,957.636 566.082,958.125 568.287,958.61 570.493,959.092 572.699,959.571 574.905,960.047 577.11,960.52 579.316,960.989 581.522,961.455 583.728,961.918 585.933,962.378 588.139,962.834 590.345,963.288 592.551,963.738 594.757,964.185 596.962,964.629 599.168,965.069 601.374,965.506 603.58,965.94 605.785,966.371 607.991,966.799 610.197,967.223 612.403,967.645 614.609,968.063 616.814,968.478 619.02,968.889 621.226,969.298 623.432,969.703 625.637,970.105 627.843,970.504 630.049,970.9 632.255,971.292 634.46,971.681 636.666,972.067 638.872,972.45 641.078,972.83 643.284,973.206 645.489,973.58 647.695,973.95 649.901,974.317 652.107,974.681 654.312,975.041 656.518,975.398 658.724,975.753 660.93,976.104 663.135,976.452 665.341,976.796 667.547,977.138 669.753,977.476 671.959,977.811 674.164,978.143 676.37,978.472 678.576,978.797 680.782,979.12 682.987,979.439 685.193,979.755 687.399,980.068 689.605,980.378 691.81,980.684 694.016,980.988 696.222,981.288 698.428,981.585 700.634,981.879 702.839,982.17 705.045,982.458 707.251,982.742 709.457,983.023 711.662,983.301 713.868,983.576 716.074,983.848 718.28,984.117 720.486,984.383 722.691,984.645 724.897,984.904 727.103,985.16 729.309,985.413 731.514,985.663 733.72,985.91 735.926,986.153 738.132,986.394 740.337,986.631 742.543,986.865 744.749,987.096 746.955,987.324 749.161,987.549 751.366,987.771 753.572,987.989 755.778,988.204 757.984,988.417 760.189,988.626 762.395,988.832 764.601,989.034 766.807,989.234 769.012,989.431 771.218,989.624 773.424,989.815 775.63,990.002 777.836,990.186 780.041,990.367 782.247,990.545 784.453,990.72 786.659,990.891 788.864,991.06 791.07,991.225 793.276,991.388 795.482,991.547 797.687,991.703 799.893,991.856 802.099,992.006 804.305,992.153 806.511,992.296 808.716,992.437 810.922,992.575 813.128,992.709 815.334,992.84 817.539,992.968 819.745,993.093 821.951,993.215 824.157,993.334 826.363,993.45 828.568,993.563 830.774,993.672 832.98,993.779 835.186,993.882 837.391,993.983 839.597,994.08 841.803,994.174 844.009,994.265 846.214,994.353 848.42,994.438 850.626,994.52 852.832,994.598 855.038,994.674 857.243,994.746 859.449,994.816 861.655,994.882 863.861,994.945 866.066,995.006 868.272,995.063 870.478,995.117 872.684,995.168 874.889,995.215 877.095,995.26 879.301,995.302 881.507,995.34 883.713,995.376 885.918,995.408 888.124,995.437 890.33,995.464 892.536,995.487 894.741,995.507 896.947,995.524 899.153,995.538 901.359,995.549 903.564,995.556 905.77,995.561 907.976,995.563 910.182,995.561 912.388,995.556 914.593,995.549 916.799,995.538 919.005,995.524 921.211,995.507 923.416,995.487 925.622,995.464 927.828,995.438 930.034,995.409 932.24,995.376 934.445,995.341 936.651,995.302 938.857,995.261 941.063,995.216 943.268,995.168 945.474,995.118 947.68,995.064 949.886,995.007 952.091,994.946 954.297,994.883 956.503,994.817 958.709,994.748 960.915,994.675 963.12,994.6 965.326,994.521 967.532,994.439 969.738,994.354 971.943,994.267 974.149,994.176 976.355,994.081 978.561,993.984 980.766,993.884 982.972,993.781 985.178,993.674 987.384,993.565 989.59,993.452 991.795,993.336 994.001,993.217 996.207,993.096 998.413,992.971 1000.62,992.842 1002.82,992.711 1005.03,992.577 1007.24,992.439 1009.44,992.299 1011.65,992.155 1013.85,992.008 1016.06,991.859 1018.26,991.706 1020.47,991.55 1022.68,991.39 1024.88,991.228 1027.09,991.063 1029.29,990.894 1031.5,990.723 1033.7,990.548 1035.91,990.37 1038.12,990.189 1040.32,990.005 1042.53,989.818 1044.73,989.628 1046.94,989.434 1049.15,989.238 1051.35,989.038 1053.56,988.835 1055.76,988.629 1057.97,988.42 1060.17,988.208 1062.38,987.993 1064.59,987.774 1066.79,987.553 1069,987.328 1071.2,987.1 1073.41,986.869 1075.61,986.635 1077.82,986.398 1080.03,986.157 1082.23,985.914 1084.44,985.667 1086.64,985.418 1088.85,985.165 1091.06,984.909 1093.26,984.649 1095.47,984.387 1097.67,984.122 1099.88,983.853 1102.08,983.581 1104.29,983.306 1106.5,983.028 1108.7,982.747 1110.91,982.462 1113.11,982.175 1115.32,981.884 1117.52,981.59 1119.73,981.293 1121.94,980.993 1124.14,980.69 1126.35,980.383 1128.55,980.073 1130.76,979.76 1132.96,979.444 1135.17,979.125 1137.38,978.803 1139.58,978.477 1141.79,978.149 1143.99,977.817 1146.2,977.482 1148.41,977.143 1150.61,976.802 1152.82,976.457 1155.02,976.11 1157.23,975.759 1159.43,975.404 1161.64,975.047 1163.85,974.687 1166.05,974.323 1168.26,973.956 1170.46,973.586 1172.67,973.213 1174.87,972.836 1177.08,972.457 1179.29,972.074 1181.49,971.688 1183.7,971.299 1185.9,970.906 1188.11,970.511 1190.31,970.112 1192.52,969.71 1194.73,969.304 1196.93,968.896 1199.14,968.484 1201.34,968.07 1203.55,967.652 1205.76,967.23 1207.96,966.806 1210.17,966.378 1212.37,965.948 1214.58,965.514 1216.78,965.076 1218.99,964.636 1221.2,964.192 1223.4,963.745 1225.61,963.295 1227.81,962.842 1230.02,962.386 1232.22,961.926 1234.43,961.463 1236.64,960.997 1238.84,960.528 1241.05,960.055 1243.25,959.579 1245.46,959.1 1247.66,958.618 1249.87,958.133 1252.08,957.644 1254.28,957.152 1256.49,956.657 1258.69,956.159 1260.9,955.658 1263.11,955.153 1265.31,954.645 1267.52,954.134 1269.72,953.62 1271.93,953.102 1274.13,952.582 1276.34,952.058 1278.55,951.531 1280.75,951 1282.96,950.467 1285.16,949.93 1287.37,949.39 1289.57,948.847 1291.78,948.301 1293.99,947.751 1296.19,947.198 1298.4,946.643 1300.6,946.083 1302.81,945.521 1305.01,944.955 1307.22,944.387 1309.43,943.815 1311.63,943.24 1313.84,942.661 1316.04,942.08 1318.25,941.495 1320.46,940.907 1322.66,940.316 1324.87,939.722 1327.07,939.124 1329.28,938.524 1331.48,937.92 1333.69,937.313 1335.9,936.703 1338.1,936.09 1340.31,935.473 1342.51,934.854 1344.72,934.231 1346.92,933.605 1349.13,932.976 1351.34,932.343 1353.54,931.708 1355.75,931.069 1357.95,930.428 1360.16,929.783 1362.36,929.135 1364.57,928.484 1366.78,927.829 1368.98,927.172 1371.19,926.511 1373.39,925.848 1375.6,925.181 1377.81,924.511 1380.01,923.838 1382.22,923.162 1384.42,922.483 1386.63,921.8 1388.83,921.115 1391.04,920.427 1393.25,919.735 1395.45,919.04 1397.66,918.343 1399.86,917.642 1402.07,916.938 1404.27,916.231 1406.48,915.521 1408.69,914.808 1410.89,914.092 1413.1,913.373 1415.3,912.651 1417.51,911.926 1419.71,911.198 1421.92,910.466 1424.13,909.732 1426.33,908.995 1428.54,908.255 1430.74,907.512 1432.95,906.765 1435.16,906.016 1437.36,905.264 1439.57,904.509 1441.77,903.751 1443.98,902.99 1446.18,902.226 1448.39,901.459 1450.6,900.69 1452.8,899.917 1455.01,899.141 1457.21,898.363 1459.42,897.582 1461.62,896.797 1463.83,896.01 1466.04,895.22 1468.24,894.427 1470.45,893.632 1472.65,892.833 1474.86,892.032 1477.06,891.227 1479.27,890.42 1481.48,889.611 1483.68,888.798 1485.89,887.983 1488.09,887.164 1490.3,886.343 1492.51,885.52 1494.71,884.693 1496.92,883.864 1499.12,883.032 1501.33,882.198 1503.53,881.36 1505.74,880.52 1507.95,879.678 1510.15,878.832 1512.36,877.984 1514.56,877.134 1516.77,876.28 1518.97,875.425 1521.18,874.566 1523.39,873.705 1525.59,872.841 1527.8,871.975 1530,871.106 1532.21,870.235 1534.41,869.361 1536.62,868.485 1538.83,867.606 1541.03,866.724 1543.24,865.84 1545.44,864.954 1547.65,864.065 1549.86,863.174 1552.06,862.28 1554.27,861.384 1556.47,860.486 1558.68,859.585 1560.88,858.682 1563.09,857.776 1565.3,856.868 1567.5,855.958 1569.71,855.046 1571.91,854.131 1574.12,853.214 1576.32,852.294 1578.53,851.373 1580.74,850.449 1582.94,849.523 1585.15,848.595 1587.35,847.664 1589.56,846.732 1591.76,845.797 1593.97,844.86 1596.18,843.921 1598.38,842.98 1600.59,842.037 1602.79,841.092 1605,840.145 1607.21,839.195 1609.41,838.244 1611.62,837.291 1613.82,836.336 1616.03,835.379 1618.23,834.42 1620.44,833.459 1622.65,832.496 1624.85,831.531 1627.06,830.564 1629.26,829.596 1631.47,828.625 1633.67,827.653 1635.88,826.68 1638.09,825.704 1640.29,824.727 1642.5,823.747 1644.7,822.767 1646.91,821.784 1649.12,820.8 1651.32,819.814 1653.53,818.827 1655.73,817.838 1657.94,816.848 1660.14,815.855 1662.35,814.862 1664.56,813.867 1666.76,812.87 1668.97,811.872 1671.17,810.872 1673.38,809.871 1675.58,808.869 1677.79,807.865 1680,806.86 1682.2,805.854 1684.41,804.846 1686.61,803.837 1688.82,802.826 1691.02,801.815 1693.23,800.802 1695.44,799.788 1697.64,798.773 1699.85,797.756 1702.05,796.739 1704.26,795.72 1706.47,794.7 1708.67,793.68 1710.88,792.658 1713.08,791.635 1715.29,790.611 1717.49,789.586 1719.7,788.561 1721.91,787.534 1724.11,786.506 1726.32,785.478 1728.52,784.448 1730.73,783.418 1732.93,782.387 1735.14,781.356 1737.35,780.323 1739.55,779.29 1741.76,778.256 1743.96,777.221 1746.17,776.186 1748.37,775.15 1750.58,774.114 1752.79,773.077 1754.99,772.039 1757.2,771.001 1759.4,769.962 1761.61,768.923 1763.82,767.883 1766.02,766.843 1768.23,765.803 1770.43,764.762 1772.64,763.721 1774.84,762.679 1777.05,761.637 1779.26,760.595 1781.46,759.553 1783.67,758.51 1785.87,757.467 1788.08,756.424 1790.28,755.381 1792.49,754.338 1794.7,753.294 1796.9,752.251 1799.11,751.207 1801.31,750.164 1803.52,749.12 1805.72,748.076 1807.93,747.033 1810.14,745.989 1812.34,744.946 1814.55,743.903 1816.75,742.86 1818.96,741.817 1821.17,740.774 1823.37,739.731 1825.58,738.689 1827.78,737.647 1829.99,736.605 1832.19,735.564 1834.4,734.523 1836.61,733.482 1838.81,732.442 1841.02,731.402 1843.22,730.363 1845.43,729.324 1847.63,728.286 1849.84,727.248 1852.05,726.21 1854.25,725.173 1856.46,724.137 1858.66,723.102 1860.87,722.067 1863.07,721.032 1865.28,719.999 1867.49,718.966 1869.69,717.934 1871.9,716.903 1874.1,715.872 1876.31,714.842 1878.52,713.813 1880.72,712.785 1882.93,711.758 1885.13,710.732 1887.34,709.707 1889.54,708.682 1891.75,707.659 1893.96,706.637 1896.16,705.615 1898.37,704.595 1900.57,703.576 1902.78,702.558 1904.98,701.541 1907.19,700.525 1909.4,699.511 1911.6,698.497 1913.81,697.485 1916.01,696.474 1918.22,695.464 1920.42,694.456 1922.63,693.449 1924.84,692.443 1927.04,691.438 1929.25,690.435 1931.45,689.434 1933.66,688.433 1935.87,687.435 1938.07,686.437 1940.28,685.441 1942.48,684.447 1944.69,683.454 1946.89,682.463 1949.1,681.473 1951.31,680.485 1953.51,679.498 1955.72,678.513 1957.92,677.53 1960.13,676.548 1962.33,675.568 1964.54,674.59 1966.75,673.614 1968.95,672.639 1971.16,671.666 1973.36,670.695 1975.57,669.726 1977.77,668.758 1979.98,667.792 1982.19,666.828 1984.39,665.866 1986.6,664.906 1988.8,663.948 1991.01,662.992 1993.22,662.038 1995.42,661.086 1997.63,660.135 1999.83,659.187 2002.04,658.241 2004.24,657.297 2006.45,656.355 2008.66,655.415 2010.86,654.477 2013.07,653.541 2015.27,652.608 2017.48,651.676 2019.68,650.747 2021.89,649.82 2024.1,648.895 2026.3,647.972 2028.51,647.052 2030.71,646.133 2032.92,645.217 2035.12,644.304 2037.33,643.392 2039.54,642.483 2041.74,641.577 2043.95,640.672 2046.15,639.77 2048.36,638.87 2050.57,637.973 2052.77,637.078 2054.98,636.186 2057.18,635.296 2059.39,634.408 2061.59,633.523 2063.8,632.641 2066.01,631.76 2068.21,630.883 2070.42,630.008 2072.62,629.135 2074.83,628.265 2077.03,627.397 2079.24,626.532 2081.45,625.67 2083.65,624.81 2085.86,623.953 2088.06,623.099 2090.27,622.247 2092.47,621.397 2094.68,620.551 2096.89,619.707 2099.09,618.865 2101.3,618.027 2103.5,617.191 2105.71,616.358 2107.92,615.527 2110.12,614.699 2112.33,613.874 2114.53,613.052 2116.74,612.232 2118.94,611.416 2121.15,610.602 2123.36,609.79 2125.56,608.982 2127.77,608.176 2129.97,607.374 2132.18,606.574 2134.38,605.777 2136.59,604.982 2138.8,604.191 2141,603.402 2143.21,602.617 2145.41,601.834 2147.62,601.054 2149.82,600.277 2152.03,599.503 2154.24,598.732 2156.44,597.963 2158.65,597.198 2160.85,596.436 2163.06,595.676 2165.27,594.92 2167.47,594.166 2169.68,593.415 2171.88,592.668 2174.09,591.923 2176.29,591.181 2178.5,590.443 2180.71,589.707 2182.91,588.974 2185.12,588.245 2187.32,587.518 2189.53,586.794 2191.73,586.074 2193.94,585.356 2196.15,584.642 2198.35,583.93 2200.56,583.222 2202.76,582.516 2204.97,581.814 2207.18,581.115 2209.38,580.419 2211.59,579.726 2213.79,579.036 2216,578.349 2218.2,577.665 2220.41,576.984 2222.62,576.307 2224.82,575.632 2227.03,574.961 2229.23,574.292 2231.44,573.627 2233.64,572.965 2235.85,572.306 2238.06,571.65 2240.26,570.997 2242.47,570.348 2244.67,569.701 2246.88,569.058 2249.08,568.418 2251.29,567.781 2253.5,567.147 2255.7,566.517 2257.91,565.889 2260.11,565.265 2262.32,564.643 2264.53,564.025 2266.73,563.41 2268.94,562.799 2271.14,562.19 2273.35,561.585 2275.55,560.983 2277.76,560.384 2279.97,559.788 2282.17,559.195 2284.38,558.606 2286.58,558.019 2288.79,557.436 2290.99,556.856 2293.2,556.28 2295.41,555.706 2297.61,555.136 2299.82,554.569 2302.02,554.005 2304.23,553.444 2306.43,552.886 2308.64,552.332 2310.85,551.781 2313.05,551.233 2315.26,550.688 2317.46,550.147 2319.67,549.609 2321.88,549.073 2324.08,548.541 2326.29,548.013 2328.49,547.487 2330.7,546.965 2332.9,546.446 2335.11,545.93 2337.32,545.417 2339.52,544.908 2341.73,544.402 2343.93,543.899 2346.14,543.399 2348.34,542.902 2350.55,542.409 2352.76,541.919 "/>
<polyline clip-path="url(#clip622)" style="stroke:#e26f46; stroke-linecap:round; stroke-linejoin:round; stroke-width:4; stroke-opacity:1; fill:none" points="149.191,1384.24 151.397,1383.3 153.602,1382.34 155.808,1381.37 158.014,1380.39 160.22,1379.39 162.425,1378.39 164.631,1377.36 166.837,1376.33 169.043,1375.28 171.249,1374.22 173.454,1373.14 175.66,1372.06 177.866,1370.96 180.072,1369.84 182.277,1368.72 184.483,1367.58 186.689,1366.43 188.895,1365.27 191.101,1364.1 193.306,1362.91 195.512,1361.71 197.718,1360.5 199.924,1359.28 202.129,1358.04 204.335,1356.8 206.541,1355.54 208.747,1354.27 210.952,1352.99 213.158,1351.7 215.364,1350.39 217.57,1349.08 219.776,1347.75 221.981,1346.42 224.187,1345.07 226.393,1343.71 228.599,1342.34 230.804,1340.96 233.01,1339.57 235.216,1338.17 237.422,1336.76 239.627,1335.34 241.833,1333.91 244.039,1332.46 246.245,1331.01 248.451,1329.55 250.656,1328.08 252.862,1326.6 255.068,1325.11 257.274,1323.61 259.479,1322.1 261.685,1320.58 263.891,1319.05 266.097,1317.52 268.302,1315.97 270.508,1314.41 272.714,1312.85 274.92,1311.28 277.126,1309.7 279.331,1308.11 281.537,1306.51 283.743,1304.9 285.949,1303.29 288.154,1301.66 290.36,1300.03 292.566,1298.39 294.772,1296.75 296.978,1295.09 299.183,1293.43 301.389,1291.76 303.595,1290.08 305.801,1288.4 308.006,1286.7 310.212,1285 312.418,1283.3 314.624,1281.58 316.829,1279.86 319.035,1278.13 321.241,1276.4 323.447,1274.66 325.653,1272.91 327.858,1271.15 330.064,1269.39 332.27,1267.63 334.476,1265.85 336.681,1264.07 338.887,1262.29 341.093,1260.5 343.299,1258.7 345.504,1256.89 347.71,1255.08 349.916,1253.27 352.122,1251.45 354.328,1249.62 356.533,1247.79 358.739,1245.95 360.945,1244.11 363.151,1242.27 365.356,1240.41 367.562,1238.56 369.768,1236.69 371.974,1234.83 374.179,1232.96 376.385,1231.08 378.591,1229.2 380.797,1227.31 383.003,1225.42 385.208,1223.53 387.414,1221.63 389.62,1219.73 391.826,1217.82 394.031,1215.91 396.237,1214 398.443,1212.08 400.649,1210.16 402.855,1208.23 405.06,1206.3 407.266,1204.37 409.472,1202.43 411.678,1200.49 413.883,1198.55 416.089,1196.6 418.295,1194.65 420.501,1192.69 422.706,1190.74 424.912,1188.78 427.118,1186.82 429.324,1184.85 431.53,1182.88 433.735,1180.91 435.941,1178.94 438.147,1176.96 440.353,1174.98 442.558,1173 444.764,1171.02 446.97,1169.03 449.176,1167.04 451.381,1165.05 453.587,1163.06 455.793,1161.06 457.999,1159.06 460.205,1157.06 462.41,1155.06 464.616,1153.06 466.822,1151.05 469.028,1149.05 471.233,1147.04 473.439,1145.03 475.645,1143.01 477.851,1141 480.056,1138.98 482.262,1136.97 484.468,1134.95 486.674,1132.93 488.88,1130.91 491.085,1128.89 493.291,1126.86 495.497,1124.84 497.703,1122.81 499.908,1120.78 502.114,1118.75 504.32,1116.73 506.526,1114.7 508.732,1112.66 510.937,1110.63 513.143,1108.6 515.349,1106.56 517.555,1104.53 519.76,1102.49 521.966,1100.46 524.172,1098.42 526.378,1096.38 528.583,1094.35 530.789,1092.31 532.995,1090.27 535.201,1088.23 537.407,1086.19 539.612,1084.15 541.818,1082.11 544.024,1080.07 546.23,1078.03 548.435,1075.99 550.641,1073.94 552.847,1071.9 555.053,1069.86 557.258,1067.82 559.464,1065.78 561.67,1063.73 563.876,1061.69 566.082,1059.65 568.287,1057.61 570.493,1055.56 572.699,1053.52 574.905,1051.48 577.11,1049.44 579.316,1047.4 581.522,1045.35 583.728,1043.31 585.933,1041.27 588.139,1039.23 590.345,1037.19 592.551,1035.15 594.757,1033.11 596.962,1031.07 599.168,1029.03 601.374,1026.99 603.58,1024.95 605.785,1022.91 607.991,1020.87 610.197,1018.84 612.403,1016.8 614.609,1014.76 616.814,1012.73 619.02,1010.69 621.226,1008.66 623.432,1006.62 625.637,1004.59 627.843,1002.55 630.049,1000.52 632.255,998.49 634.46,996.458 636.666,994.427 638.872,992.397 641.078,990.367 643.284,988.338 645.489,986.31 647.695,984.282 649.901,982.255 652.107,980.229 654.312,978.203 656.518,976.178 658.724,974.154 660.93,972.131 663.135,970.108 665.341,968.086 667.547,966.065 669.753,964.044 671.959,962.025 674.164,960.006 676.37,957.988 678.576,955.97 680.782,953.954 682.987,951.938 685.193,949.923 687.399,947.909 689.605,945.895 691.81,943.883 694.016,941.871 696.222,939.86 698.428,937.85 700.634,935.84 702.839,933.832 705.045,931.824 707.251,929.817 709.457,927.811 711.662,925.806 713.868,923.801 716.074,921.798 718.28,919.795 720.486,917.793 722.691,915.792 724.897,913.791 727.103,911.792 729.309,909.793 731.514,907.795 733.72,905.798 735.926,903.801 738.132,901.806 740.337,899.811 742.543,897.817 744.749,895.823 746.955,893.831 749.161,891.839 751.366,889.848 753.572,887.858 755.778,885.869 757.984,883.88 760.189,881.892 762.395,879.905 764.601,877.918 766.807,875.932 769.012,873.947 771.218,871.963 773.424,869.979 775.63,867.996 777.836,866.014 780.041,864.033 782.247,862.052 784.453,860.071 786.659,858.092 788.864,856.113 791.07,854.135 793.276,852.157 795.482,850.18 797.687,848.203 799.893,846.228 802.099,844.252 804.305,842.278 806.511,840.304 808.716,838.33 810.922,836.357 813.128,834.385 815.334,832.413 817.539,830.441 819.745,828.47 821.951,826.5 824.157,824.53 826.363,822.561 828.568,820.592 830.774,818.623 832.98,816.655 835.186,814.688 837.391,812.721 839.597,810.754 841.803,808.788 844.009,806.822 846.214,804.856 848.42,802.891 850.626,800.926 852.832,798.961 855.038,796.997 857.243,795.033 859.449,793.07 861.655,791.106 863.861,789.143 866.066,787.18 868.272,785.218 870.478,783.256 872.684,781.294 874.889,779.332 877.095,777.37 879.301,775.409 881.507,773.447 883.713,771.486 885.918,769.525 888.124,767.564 890.33,765.603 892.536,763.643 894.741,761.682 896.947,759.722 899.153,757.761 901.359,755.801 903.564,753.841 905.77,751.88 907.976,749.92 910.182,747.96 912.388,746 914.593,744.039 916.799,742.079 919.005,740.119 921.211,738.158 923.416,736.198 925.622,734.237 927.828,732.276 930.034,730.315 932.24,728.354 934.445,726.393 936.651,724.432 938.857,722.47 941.063,720.509 943.268,718.547 945.474,716.585 947.68,714.623 949.886,712.66 952.091,710.697 954.297,708.734 956.503,706.771 958.709,704.807 960.915,702.843 963.12,700.879 965.326,698.915 967.532,696.95 969.738,694.985 971.943,693.019 974.149,691.053 976.355,689.087 978.561,687.12 980.766,685.153 982.972,683.185 985.178,681.217 987.384,679.249 989.59,677.28 991.795,675.31 994.001,673.341 996.207,671.37 998.413,669.399 1000.62,667.428 1002.82,665.456 1005.03,663.484 1007.24,661.511 1009.44,659.537 1011.65,657.563 1013.85,655.588 1016.06,653.613 1018.26,651.637 1020.47,649.661 1022.68,647.684 1024.88,645.706 1027.09,643.728 1029.29,641.749 1031.5,639.769 1033.7,637.789 1035.91,635.808 1038.12,633.827 1040.32,631.845 1042.53,629.862 1044.73,627.878 1046.94,625.894 1049.15,623.909 1051.35,621.923 1053.56,619.936 1055.76,617.949 1057.97,615.961 1060.17,613.972 1062.38,611.983 1064.59,609.993 1066.79,608.002 1069,606.01 1071.2,604.018 1073.41,602.024 1075.61,600.03 1077.82,598.036 1080.03,596.04 1082.23,594.044 1084.44,592.046 1086.64,590.048 1088.85,588.05 1091.06,586.05 1093.26,584.05 1095.47,582.048 1097.67,580.046 1099.88,578.043 1102.08,576.04 1104.29,574.035 1106.5,572.03 1108.7,570.024 1110.91,568.017 1113.11,566.009 1115.32,564.001 1117.52,561.992 1119.73,559.981 1121.94,557.97 1124.14,555.959 1126.35,553.946 1128.55,551.933 1130.76,549.919 1132.96,547.904 1135.17,545.888 1137.38,543.871 1139.58,541.854 1141.79,539.836 1143.99,537.817 1146.2,535.797 1148.41,533.777 1150.61,531.756 1152.82,529.734 1155.02,527.711 1157.23,525.687 1159.43,523.663 1161.64,521.638 1163.85,519.613 1166.05,517.586 1168.26,515.559 1170.46,513.532 1172.67,511.503 1174.87,509.474 1177.08,507.445 1179.29,505.414 1181.49,503.383 1183.7,501.352 1185.9,499.319 1188.11,497.287 1190.31,495.253 1192.52,493.219 1194.73,491.185 1196.93,489.15 1199.14,487.114 1201.34,485.078 1203.55,483.041 1205.76,481.004 1207.96,478.967 1210.17,476.929 1212.37,474.891 1214.58,472.852 1216.78,470.813 1218.99,468.773 1221.2,466.733 1223.4,464.693 1225.61,462.652 1227.81,460.612 1230.02,458.571 1232.22,456.529 1234.43,454.488 1236.64,452.446 1238.84,450.404 1241.05,448.362 1243.25,446.32 1245.46,444.278 1247.66,442.235 1249.87,440.193 1252.08,438.151 1254.28,436.108 1256.49,434.066 1258.69,432.024 1260.9,429.982 1263.11,427.94 1265.31,425.898 1267.52,423.856 1269.72,421.815 1271.93,419.773 1274.13,417.733 1276.34,415.692 1278.55,413.652 1280.75,411.612 1282.96,409.573 1285.16,407.534 1287.37,405.495 1289.57,403.457 1291.78,401.42 1293.99,399.383 1296.19,397.347 1298.4,395.312 1300.6,393.277 1302.81,391.243 1305.01,389.21 1307.22,387.178 1309.43,385.147 1311.63,383.116 1313.84,381.087 1316.04,379.059 1318.25,377.031 1320.46,375.005 1322.66,372.98 1324.87,370.956 1327.07,368.934 1329.28,366.913 1331.48,364.893 1333.69,362.874 1335.9,360.857 1338.1,358.842 1340.31,356.828 1342.51,354.815 1344.72,352.805 1346.92,350.796 1349.13,348.788 1351.34,346.783 1353.54,344.779 1355.75,342.778 1357.95,340.778 1360.16,338.781 1362.36,336.785 1364.57,334.792 1366.78,332.801 1368.98,330.812 1371.19,328.825 1373.39,326.841 1375.6,324.86 1377.81,322.881 1380.01,320.904 1382.22,318.93 1384.42,316.959 1386.63,314.991 1388.83,313.025 1391.04,311.062 1393.25,309.103 1395.45,307.146 1397.66,305.193 1399.86,303.242 1402.07,301.295 1404.27,299.351 1406.48,297.411 1408.69,295.474 1410.89,293.541 1413.1,291.611 1415.3,289.685 1417.51,287.762 1419.71,285.844 1421.92,283.929 1424.13,282.018 1426.33,280.111 1428.54,278.209 1430.74,276.31 1432.95,274.416 1435.16,272.526 1437.36,270.641 1439.57,268.76 1441.77,266.884 1443.98,265.012 1446.18,263.145 1448.39,261.283 1450.6,259.426 1452.8,257.574 1455.01,255.726 1457.21,253.884 1459.42,252.048 1461.62,250.216 1463.83,248.39 1466.04,246.569 1468.24,244.754 1470.45,242.945 1472.65,241.141 1474.86,239.343 1477.06,237.551 1479.27,235.766 1481.48,233.986 1483.68,232.212 1485.89,230.445 1488.09,228.683 1490.3,226.929 1492.51,225.181 1494.71,223.439 1496.92,221.704 1499.12,219.976 1501.33,218.255 1503.53,216.541 1505.74,214.834 1507.95,213.134 1510.15,211.441 1512.36,209.756 1514.56,208.078 1516.77,206.408 1518.97,204.745 1521.18,203.09 1523.39,201.443 1525.59,199.804 1527.8,198.172 1530,196.549 1532.21,194.934 1534.41,193.327 1536.62,191.729 1538.83,190.139 1541.03,188.557 1543.24,186.985 1545.44,185.421 1547.65,183.866 1549.86,182.319 1552.06,180.782 1554.27,179.254 1556.47,177.735 1558.68,176.226 1560.88,174.726 1563.09,173.235 1565.3,171.754 1567.5,170.283 1569.71,168.821 1571.91,167.369 1574.12,165.928 1576.32,164.496 1578.53,163.075 1580.74,161.664 1582.94,160.263 1585.15,158.872 1587.35,157.492 1589.56,156.123 1591.76,154.765 1593.97,153.417 1596.18,152.08 1598.38,150.754 1600.59,149.44 1602.79,148.136 1605,146.844 1607.21,145.563 1609.41,144.293 1611.62,143.036 1613.82,141.789 1616.03,140.555 1618.23,139.332 1620.44,138.121 1622.65,136.922 1624.85,135.735 1627.06,134.56 1629.26,133.398 1631.47,132.248 1633.67,131.11 1635.88,129.985 1638.09,128.872 1640.29,127.772 1642.5,126.685 1644.7,125.61 1646.91,124.549 1649.12,123.5 1651.32,122.465 1653.53,121.442 1655.73,120.433 1657.94,119.437 1660.14,118.455 1662.35,117.486 1664.56,116.53 1666.76,115.588 1668.97,114.66 1671.17,113.746 1673.38,112.845 1675.58,111.958 1677.79,111.086 1680,110.227 1682.2,109.382 1684.41,108.552 1686.61,107.735 1688.82,106.934 1691.02,106.146 1693.23,105.373 1695.44,104.614 1697.64,103.87 1699.85,103.141 1702.05,102.426 1704.26,101.726 1706.47,101.04 1708.67,100.37 1710.88,99.7144 1713.08,99.0738 1715.29,98.4482 1717.49,97.8377 1719.7,97.2423 1721.91,96.662 1724.11,96.097 1726.32,95.5472 1728.52,95.0127 1730.73,94.4936 1732.93,93.9898 1735.14,93.5015 1737.35,93.0287 1739.55,92.5713 1741.76,92.1296 1743.96,91.7034 1746.17,91.2928 1748.37,90.8979 1750.58,90.5187 1752.79,90.1552 1754.99,89.8075 1757.2,89.4756 1759.4,89.1594 1761.61,88.8592 1763.82,88.5748 1766.02,88.3062 1768.23,88.0536 1770.43,87.8169 1772.64,87.5962 1774.84,87.3915 1777.05,87.2027 1779.26,87.03 1781.46,86.8733 1783.67,86.7326 1785.87,86.608 1788.08,86.4994 1790.28,86.4069 1792.49,86.3305 1794.7,86.2701 1796.9,86.2259 1799.11,86.1977 1801.31,86.1857 1803.52,86.1897 1805.72,86.2098 1807.93,86.2461 1810.14,86.2984 1812.34,86.3668 1814.55,86.4513 1816.75,86.5518 1818.96,86.6684 1821.17,86.8011 1823.37,86.9498 1825.58,87.1146 1827.78,87.2954 1829.99,87.4921 1832.19,87.7049 1834.4,87.9336 1836.61,88.1783 1838.81,88.4389 1841.02,88.7154 1843.22,89.0077 1845.43,89.316 1847.63,89.64 1849.84,89.9799 1852.05,90.3355 1854.25,90.7069 1856.46,91.094 1858.66,91.4968 1860.87,91.9152 1863.07,92.3492 1865.28,92.7988 1867.49,93.2639 1869.69,93.7445 1871.9,94.2406 1874.1,94.7521 1876.31,95.2789 1878.52,95.8211 1880.72,96.3785 1882.93,96.9512 1885.13,97.5391 1887.34,98.1421 1889.54,98.7602 1891.75,99.3933 1893.96,100.041 1896.16,100.704 1898.37,101.382 1900.57,102.075 1902.78,102.783 1904.98,103.505 1907.19,104.242 1909.4,104.993 1911.6,105.759 1913.81,106.539 1916.01,107.334 1918.22,108.143 1920.42,108.967 1922.63,109.804 1924.84,110.656 1927.04,111.522 1929.25,112.402 1931.45,113.295 1933.66,114.203 1935.87,115.124 1938.07,116.059 1940.28,117.008 1942.48,117.971 1944.69,118.946 1946.89,119.935 1949.1,120.938 1951.31,121.954 1953.51,122.983 1955.72,124.025 1957.92,125.08 1960.13,126.148 1962.33,127.229 1964.54,128.323 1966.75,129.429 1968.95,130.548 1971.16,131.68 1973.36,132.824 1975.57,133.98 1977.77,135.149 1979.98,136.33 1982.19,137.522 1984.39,138.727 1986.6,139.944 1988.8,141.173 1991.01,142.414 1993.22,143.666 1995.42,144.93 1997.63,146.205 1999.83,147.492 2002.04,148.79 2004.24,150.099 2006.45,151.419 2008.66,152.751 2010.86,154.093 2013.07,155.446 2015.27,156.81 2017.48,158.185 2019.68,159.57 2021.89,160.966 2024.1,162.372 2026.3,163.788 2028.51,165.215 2030.71,166.652 2032.92,168.099 2035.12,169.555 2037.33,171.022 2039.54,172.498 2041.74,173.984 2043.95,175.479 2046.15,176.984 2048.36,178.498 2050.57,180.022 2052.77,181.555 2054.98,183.096 2057.18,184.647 2059.39,186.207 2061.59,187.775 2063.8,189.352 2066.01,190.938 2068.21,192.532 2070.42,194.135 2072.62,195.746 2074.83,197.365 2077.03,198.992 2079.24,200.628 2081.45,202.271 2083.65,203.922 2085.86,205.581 2088.06,207.248 2090.27,208.922 2092.47,210.603 2094.68,212.292 2096.89,213.989 2099.09,215.692 2101.3,217.403 2103.5,219.121 2105.71,220.845 2107.92,222.577 2110.12,224.315 2112.33,226.06 2114.53,227.811 2116.74,229.569 2118.94,231.333 2121.15,233.104 2123.36,234.881 2125.56,236.664 2127.77,238.453 2129.97,240.247 2132.18,242.048 2134.38,243.855 2136.59,245.667 2138.8,247.485 2141,249.308 2143.21,251.137 2145.41,252.971 2147.62,254.811 2149.82,256.655 2152.03,258.505 2154.24,260.36 2156.44,262.22 2158.65,264.084 2160.85,265.953 2163.06,267.827 2165.27,269.706 2167.47,271.589 2169.68,273.477 2171.88,275.369 2174.09,277.265 2176.29,279.166 2178.5,281.071 2180.71,282.979 2182.91,284.892 2185.12,286.809 2187.32,288.729 2189.53,290.654 2191.73,292.582 2193.94,294.513 2196.15,296.449 2198.35,298.387 2200.56,300.329 2202.76,302.275 2204.97,304.224 2207.18,306.175 2209.38,308.131 2211.59,310.089 2213.79,312.05 2216,314.014 2218.2,315.981 2220.41,317.951 2222.62,319.923 2224.82,321.898 2227.03,323.876 2229.23,325.857 2231.44,327.84 2233.64,329.825 2235.85,331.813 2238.06,333.802 2240.26,335.795 2242.47,337.789 2244.67,339.786 2246.88,341.784 2249.08,343.785 2251.29,345.787 2253.5,347.792 2255.7,349.798 2257.91,351.806 2260.11,353.816 2262.32,355.828 2264.53,357.841 2266.73,359.856 2268.94,361.872 2271.14,363.89 2273.35,365.909 2275.55,367.93 2277.76,369.952 2279.97,371.975 2282.17,374 2284.38,376.025 2286.58,378.052 2288.79,380.08 2290.99,382.109 2293.2,384.139 2295.41,386.17 2297.61,388.201 2299.82,390.234 2302.02,392.268 2304.23,394.302 2306.43,396.337 2308.64,398.373 2310.85,400.409 2313.05,402.446 2315.26,404.484 2317.46,406.522 2319.67,408.56 2321.88,410.6 2324.08,412.639 2326.29,414.679 2328.49,416.72 2330.7,418.76 2332.9,420.801 2335.11,422.843 2337.32,424.884 2339.52,426.926 2341.73,428.968 2343.93,431.01 2346.14,433.052 2348.34,435.095 2350.55,437.137 2352.76,439.179 "/>
<path clip-path="url(#clip620)" d="M222.643 248.629 L532.096 248.629 L532.096 93.1086 L222.643 93.1086  Z" fill="#ffffff" fill-rule="evenodd" fill-opacity="1"/>
<polyline clip-path="url(#clip620)" style="stroke:#000000; stroke-linecap:round; stroke-linejoin:round; stroke-width:4; stroke-opacity:1; fill:none" points="222.643,248.629 532.096,248.629 532.096,93.1086 222.643,93.1086 222.643,248.629 "/>
<polyline clip-path="url(#clip620)" style="stroke:#009af9; stroke-linecap:round; stroke-linejoin:round; stroke-width:4; stroke-opacity:1; fill:none" points="247.127,144.949 394.031,144.949 "/>
<path clip-path="url(#clip620)" d="M418.515 151.997 L418.515 136.303 L422.775 136.303 L422.775 151.835 Q422.775 155.516 424.21 157.368 Q425.645 159.196 428.515 159.196 Q431.964 159.196 433.955 156.997 Q435.969 154.798 435.969 151.002 L435.969 136.303 L440.228 136.303 L440.228 162.229 L435.969 162.229 L435.969 158.247 Q434.418 160.608 432.358 161.766 Q430.321 162.9 427.613 162.9 Q423.145 162.9 420.83 160.122 Q418.515 157.344 418.515 151.997 M429.233 135.678 L429.233 135.678 Z" fill="#000000" fill-rule="nonzero" fill-opacity="1" /><path clip-path="url(#clip620)" d="M448.608 126.21 L458.423 126.21 L458.423 129.52 L452.867 129.52 L452.867 165.168 L458.423 165.168 L458.423 168.479 L448.608 168.479 L448.608 126.21 Z" fill="#000000" fill-rule="nonzero" fill-opacity="1" /><path clip-path="url(#clip620)" d="M468.909 158.293 L476.548 158.293 L476.548 131.928 L468.237 133.595 L468.237 129.335 L476.501 127.669 L481.177 127.669 L481.177 158.293 L488.816 158.293 L488.816 162.229 L468.909 162.229 L468.909 158.293 Z" fill="#000000" fill-rule="nonzero" fill-opacity="1" /><path clip-path="url(#clip620)" d="M507.612 126.21 L507.612 168.479 L497.797 168.479 L497.797 165.168 L503.33 165.168 L503.33 129.52 L497.797 129.52 L497.797 126.21 L507.612 126.21 Z" fill="#000000" fill-rule="nonzero" fill-opacity="1" /><polyline clip-path="url(#clip620)" style="stroke:#e26f46; stroke-linecap:round; stroke-linejoin:round; stroke-width:4; stroke-opacity:1; fill:none" points="247.127,196.789 394.031,196.789 "/>
<path clip-path="url(#clip620)" d="M418.515 203.837 L418.515 188.143 L422.775 188.143 L422.775 203.675 Q422.775 207.356 424.21 209.208 Q425.645 211.036 428.515 211.036 Q431.964 211.036 433.955 208.837 Q435.969 206.638 435.969 202.842 L435.969 188.143 L440.228 188.143 L440.228 214.069 L435.969 214.069 L435.969 210.087 Q434.418 212.448 432.358 213.606 Q430.321 214.74 427.613 214.74 Q423.145 214.74 420.83 211.962 Q418.515 209.184 418.515 203.837 M429.233 187.518 L429.233 187.518 Z" fill="#000000" fill-rule="nonzero" fill-opacity="1" /><path clip-path="url(#clip620)" d="M448.608 178.05 L458.423 178.05 L458.423 181.36 L452.867 181.36 L452.867 217.008 L458.423 217.008 L458.423 220.319 L448.608 220.319 L448.608 178.05 Z" fill="#000000" fill-rule="nonzero" fill-opacity="1" /><path clip-path="url(#clip620)" d="M472.126 210.133 L488.446 210.133 L488.446 214.069 L466.501 214.069 L466.501 210.133 Q469.163 207.379 473.747 202.749 Q478.353 198.096 479.534 196.754 Q481.779 194.231 482.659 192.495 Q483.561 190.735 483.561 189.046 Q483.561 186.291 481.617 184.555 Q479.696 182.819 476.594 182.819 Q474.395 182.819 471.941 183.583 Q469.511 184.347 466.733 185.897 L466.733 181.175 Q469.557 180.041 472.011 179.462 Q474.464 178.884 476.501 178.884 Q481.872 178.884 485.066 181.569 Q488.26 184.254 488.26 188.745 Q488.26 190.874 487.45 192.796 Q486.663 194.694 484.557 197.286 Q483.978 197.958 480.876 201.175 Q477.774 204.37 472.126 210.133 Z" fill="#000000" fill-rule="nonzero" fill-opacity="1" /><path clip-path="url(#clip620)" d="M507.612 178.05 L507.612 220.319 L497.797 220.319 L497.797 217.008 L503.33 217.008 L503.33 181.36 L497.797 181.36 L497.797 178.05 L507.612 178.05 Z" fill="#000000" fill-rule="nonzero" fill-opacity="1" /></svg>
